<svg xmlns="http://www.w3.org/2000/svg" viewBox="0 0 218.66 55.9"><defs><style>.cls-1{isolation:isolate;}.cls-2,.cls-3{fill:#ffda8d;stroke-miterlimit:10;stroke-width:1.3px;}.cls-2{stroke:#e3b75d;}.cls-3{stroke:#ffc67a;}.cls-3,.cls-4,.cls-5{mix-blend-mode:multiply;}.cls-4{opacity:0.4;}.cls-5{fill:#b16a48;opacity:0.6;}</style></defs><title>Tierra</title><g class="cls-1"><g id="Capa_2" data-name="Capa 2"><g id="Capa_5" data-name="Capa 5"><path class="cls-2" d="M217.93,29.21c-.7-1.93-2-2.19-3.16-2.68-4-1.74-8-3.89-12-5.72a220.71,220.71,0,0,0-28.58-10.54c-17.54-5.22-35.33-6.89-53-8.85-16.94-1.88-34.36-.09-51.25,3C61.78,6,54.13,10.23,46.39,15c-5.5,3.36-11,6.31-16.41,9.63a16.43,16.43,0,0,0-3.39.68c-4.2,1.31-8.41,2.44-12.59,4.06C10.32,30.76,3.7,32,1,37.88c-1.79,3.93,3.62,3.22,4.09,3,1.74-1,3.87-1.08,5.67-1.62.69-.21,7.26-2.23,3.8-.34a10.22,10.22,0,0,0-4.77,5.4c-.11.23-.3.86-.12,1.15,2.4,4.06,6.21,3.33,9.23,3.88a76.54,76.54,0,0,0,18.9,1.3,108.24,108.24,0,0,0,20.91-3.55,90.86,90.86,0,0,1,9.09-1.94c-1.83.29-3.36,1.45-4.94,3.16a1.89,1.89,0,0,0-.46,1.42c1,5.08,9.3,1.74,11.19,1.34a64.14,64.14,0,0,0,7.58-2.15,3.7,3.7,0,0,0-.29.47C77.42,56.75,86.24,55.18,88,55a157.1,157.1,0,0,0,15.83-2.68c4.52-1,9.22-1.55,13.68-3.61a27.7,27.7,0,0,0,5,2.13c4.23,1.49,8.62,4.27,13,4,.51,0,1.14-1.31.88-2.27a20.8,20.8,0,0,0-1.49-3.82c11.13,5.12,22.55,5.77,34.1,5.09a96.24,96.24,0,0,0,23-4.43c3-1,8.52-.77,11-5a2.33,2.33,0,0,0,.36-1.43,5,5,0,0,0-2.23-3.7c3.45,0,6.56-.25,10.28-2.26,2-1.08,5.48-2.68,6.45-6.62A1.94,1.94,0,0,0,217.93,29.21Z"/><path class="cls-3" d="M36.88,38.79c4.75.06,9.79-.32,14.45-2.22,4.23-1.73,8.23-5.06,12.49-6.54.49-.17,1,1.08.51,1.8-1.28,1.93-2.62,3.68-3.85,5.7,2.5.26,4.74-1.84,7.18-3.07a16.2,16.2,0,0,1,5.12-1.35c4-.61,8-1.36,12,.29.39.18.53,1.3.21,1.79a34.12,34.12,0,0,1-2.48,3.19c-1.78,2.27-1.59,5.91.37,7a9.4,9.4,0,0,0,6.16.8A55.19,55.19,0,0,0,100.9,42.8c11.13-4.3,22.94-13.52,34.31-7.23.49.27.48,1.45.1,1.94-2.31,3-.62,4.09.78,4.55,7.59-.57,15-3.44,22.71-2.53,8.57,1,17,2.35,25.58.77C192.09,38.89,201,37.12,208,30.24a16.37,16.37,0,0,0,3.85-5c-3-1.43-6.05-3-9.09-4.39a220.71,220.71,0,0,0-28.58-10.54c-17.54-5.22-35.33-6.89-53-8.85-16.94-1.88-34.36-.09-51.25,3C61.78,6,54.13,10.23,46.39,15c-5.5,3.36-11,6.31-16.41,9.63a16.43,16.43,0,0,0-3.39.68c-4.2,1.31-8.41,2.44-12.59,4.06l-.31.11c2.57,2.69,5.83,3.31,8.62,4.55C27.08,36.12,31.94,38.73,36.88,38.79Z"/><g class="cls-4"><path class="cls-5" d="M27.28,43.61a1.24,1.24,0,0,1-1.36,1.16,1.33,1.33,0,0,1-1.33-1.28A1.24,1.24,0,0,1,26,42.34,1.33,1.33,0,0,1,27.28,43.61Z"/><path class="cls-5" d="M32.73,47.25a.7.7,0,0,1-.77.65.76.76,0,0,1-.75-.72.71.71,0,0,1,.77-.65A.76.76,0,0,1,32.73,47.25Z"/><path class="cls-5" d="M24,31.48a.66.66,0,0,1-.73.62.7.7,0,0,1-.7-.68.66.66,0,0,1,.72-.62A.71.71,0,0,1,24,31.48Z"/><path class="cls-5" d="M53.17,31.2a.67.67,0,0,1-.73.62.7.7,0,0,1-.71-.68.67.67,0,0,1,.73-.62A.72.72,0,0,1,53.17,31.2Z"/><path class="cls-5" d="M50.84,32.8a.45.45,0,0,1-.49.42.46.46,0,0,1-.46-.46.42.42,0,0,1,.48-.4A.46.46,0,0,1,50.84,32.8Z"/></g><g class="cls-4"><path class="cls-5" d="M96.37,38.78A1.24,1.24,0,0,1,95,39.94a1.33,1.33,0,0,1-1.32-1.28A1.24,1.24,0,0,1,95,37.51,1.34,1.34,0,0,1,96.37,38.78Z"/><path class="cls-5" d="M101.81,42.41a.7.7,0,0,1-.77.66.75.75,0,0,1-.74-.72.69.69,0,0,1,.76-.65A.74.74,0,0,1,101.81,42.41Z"/><path class="cls-5" d="M107.52,33.26a1,1,0,0,1-1.1,1,1.08,1.08,0,0,1-1.07-1,1,1,0,0,1,1.1-.93A1.06,1.06,0,0,1,107.52,33.26Z"/><path class="cls-5" d="M93.13,26.65a.67.67,0,0,1-.73.62.71.71,0,0,1-.71-.68.67.67,0,0,1,.73-.62A.71.71,0,0,1,93.13,26.65Z"/><path class="cls-5" d="M122.25,26.37a.66.66,0,0,1-.73.62.7.7,0,0,1-.7-.68.66.66,0,0,1,.72-.62A.71.71,0,0,1,122.25,26.37Z"/><path class="cls-5" d="M119.93,28a.46.46,0,0,1-.49.42.49.49,0,0,1-.47-.46.44.44,0,0,1,.48-.41A.47.47,0,0,1,119.93,28Z"/></g><path class="cls-5" d="M61.14,40.9a1.23,1.23,0,0,1-1.36,1.15,1.32,1.32,0,0,1-1.33-1.27,1.24,1.24,0,0,1,1.36-1.15A1.32,1.32,0,0,1,61.14,40.9Z"/><path class="cls-5" d="M119.45,44.38a1.24,1.24,0,0,1-1.36,1.15,1.32,1.32,0,0,1-1.33-1.27,1.24,1.24,0,0,1,1.36-1.15A1.32,1.32,0,0,1,119.45,44.38Z"/><path class="cls-5" d="M41.8,26.3a1.24,1.24,0,0,1-1.36,1.16,1.32,1.32,0,0,1-1.32-1.27A1.23,1.23,0,0,1,40.48,25,1.32,1.32,0,0,1,41.8,26.3Z"/><path class="cls-5" d="M107.35,22.81a.7.7,0,0,1-.77.65.76.76,0,0,1-.75-.72.7.7,0,0,1,.77-.64A.75.75,0,0,1,107.35,22.81Z"/><g class="cls-4"><path class="cls-5" d="M146.5,45.38a.71.71,0,0,1-.77.66.76.76,0,0,1-.75-.72.7.7,0,0,1,.77-.65A.74.74,0,0,1,146.5,45.38Z"/><path class="cls-5" d="M152.21,36.23a1,1,0,0,1-1.1.94,1.08,1.08,0,0,1-1.08-1,1,1,0,0,1,1.1-.93A1.08,1.08,0,0,1,152.21,36.23Z"/><path class="cls-5" d="M137.82,29.62a.68.68,0,0,1-.74.62.71.71,0,0,1-.7-.69.67.67,0,0,1,.72-.62A.73.73,0,0,1,137.82,29.62Z"/><path class="cls-5" d="M162.51,35.28a.66.66,0,0,1-.73.62.71.71,0,0,1-.71-.68.67.67,0,0,1,.73-.62A.71.71,0,0,1,162.51,35.28Z"/><path class="cls-5" d="M160.19,36.88a.46.46,0,0,1-.49.42.48.48,0,0,1-.47-.46.42.42,0,0,1,.48-.4A.47.47,0,0,1,160.19,36.88Z"/></g><path class="cls-5" d="M164.14,47.34a1.25,1.25,0,0,1-1.37,1.16,1.32,1.32,0,0,1-1.32-1.27,1.24,1.24,0,0,1,1.36-1.15A1.33,1.33,0,0,1,164.14,47.34Z"/><path class="cls-5" d="M153.21,46.79a.7.7,0,0,1-.77.65.74.74,0,0,1-.74-.72.69.69,0,0,1,.76-.65A.75.75,0,0,1,153.21,46.79Z"/><path class="cls-5" d="M71.49,38.92a1,1,0,0,1-1.1.94,1.06,1.06,0,0,1-1.07-1,1,1,0,0,1,1.1-.93A1.07,1.07,0,0,1,71.49,38.92Z"/><path class="cls-5" d="M57.9,28.77a.66.66,0,0,1-.73.62.7.7,0,0,1-.7-.68.66.66,0,0,1,.72-.62A.71.71,0,0,1,57.9,28.77Z"/><path class="cls-5" d="M87.66,45.78a.66.66,0,0,1-.73.62.71.71,0,0,1-.71-.68A.68.68,0,0,1,87,45.1.71.71,0,0,1,87.66,45.78Z"/><path class="cls-5" d="M85.33,47.38a.44.44,0,0,1-.48.42.48.48,0,0,1-.47-.46.44.44,0,0,1,.48-.4A.46.46,0,0,1,85.33,47.38Z"/><g class="cls-4"><path class="cls-5" d="M180.75,35.54a1.23,1.23,0,0,1-1.36,1.16,1.32,1.32,0,0,1-1.32-1.27,1.23,1.23,0,0,1,1.36-1.15A1.32,1.32,0,0,1,180.75,35.54Z"/><path class="cls-5" d="M186.2,39.18a.69.69,0,0,1-.77.65.75.75,0,0,1-.74-.72.7.7,0,0,1,.76-.65A.74.74,0,0,1,186.2,39.18Z"/><path class="cls-5" d="M191.91,30a1,1,0,0,1-1.1.94,1.09,1.09,0,0,1-1.08-1,1,1,0,0,1,1.11-.93A1.08,1.08,0,0,1,191.91,30Z"/><path class="cls-5" d="M177.52,23.41a.67.67,0,0,1-.73.62.71.71,0,0,1-.71-.68.68.68,0,0,1,.73-.62A.73.73,0,0,1,177.52,23.41Z"/><path class="cls-5" d="M204.31,24.73a.44.44,0,0,1-.48.42.48.48,0,0,1-.47-.46.43.43,0,0,1,.48-.4A.46.46,0,0,1,204.31,24.73Z"/></g><path class="cls-5" d="M194,46.59a1.24,1.24,0,0,1-1.36,1.16,1.32,1.32,0,0,1-1.33-1.27,1.24,1.24,0,0,1,1.36-1.15A1.32,1.32,0,0,1,194,46.59Z"/><path class="cls-5" d="M204.1,25.93a.7.7,0,0,1-.77.65.76.76,0,0,1-.75-.72.71.71,0,0,1,.77-.65A.76.76,0,0,1,204.1,25.93Z"/><path class="cls-5" d="M191.74,19.57a.71.71,0,0,1-.77.66.75.75,0,0,1-.75-.72.7.7,0,0,1,.77-.65A.76.76,0,0,1,191.74,19.57Z"/><path class="cls-5" d="M158.05,42.47a1,1,0,0,1-1.1.94,1.06,1.06,0,0,1-1.07-1,1,1,0,0,1,1.1-.93A1.06,1.06,0,0,1,158.05,42.47Z"/><path class="cls-5" d="M172.05,42.55a.67.67,0,0,1-.73.62.72.72,0,0,1-.71-.68.67.67,0,0,1,.73-.62A.71.71,0,0,1,172.05,42.55Z"/><path class="cls-5" d="M169.72,44.15a.45.45,0,0,1-.49.42.48.48,0,0,1-.46-.46.44.44,0,0,1,.48-.41A.47.47,0,0,1,169.72,44.15Z"/></g></g></g></svg>