<?xml version="1.0" encoding="utf-8"?>
<!-- Generator: Adobe Illustrator 24.0.0, SVG Export Plug-In . SVG Version: 6.00 Build 0)  -->
<svg version="1.1" id="Capa_1" xmlns="http://www.w3.org/2000/svg" xmlns:xlink="http://www.w3.org/1999/xlink" x="0px" y="0px"
	 viewBox="0 0 182.8 94.4" style="enable-background:new 0 0 182.8 94.4;" xml:space="preserve">
<style type="text/css">
	.st0{fill:#75C6EF;stroke:#4EA0C9;stroke-miterlimit:10;}
	.st1{fill:#33A0D9;stroke:#2982B0;stroke-miterlimit:10;}
</style>
<title>Agua</title>
<g id="Capa_2_1_">
	<g id="Capa_5">
		<path class="st0" d="M110.5,66.8c-4.8-7.8-17.2-6.6-22.2-14.7c-2.8-4.6-3.3-10.5-4.8-15.6c-0.6-2.1-1.1-5.6-3.4-6.7
			s-4.3,1-4.9,3.1c-1.9-1.9-0.3-6.7-2.6-9.2c-3.3-3.6-6.3,0.6-7,4.1c-1.1,4.9,0.4,20.3-8.7,16.6C48.5,40.9,42.8,32,38.2,24.5
			c-1.9-3.1-3.8-7.9-7.5-9.3c-5.2-2-6.7,3-6.8,7.1c-0.4,10,4.8,19,10.9,26.2c-2.7,0.1-12.9-6.2-11.5,1.2c1.1,5.5,9.4,7.7,13.2,11
			c1.3,1.1,5.4,4.3,5.3,6.3c-0.1,2.1-4.1,3.6-5.7,4c-4.9,1.4-9.5,0.6-14.3,3c-1.8,0.9-13.5,8.7-7.1,10.6c1.9,0.6,5-2.2,6.6-3
			c2.3-1.1,4.6-2.2,6.9-3.2c12-4.9,24.1-8.2,36-1.4c5.6,3.2,8.8,6.9,15.5,6.5c3.4-0.2,6.9-0.3,10.3-0.7c6-0.7,11-2.5,16.8-4.1"/>
		<path class="st1" d="M122.4,92.4c0.4-0.4,0.6-1,0.6-1.5c-0.2-8.1,6.7-11.6,13.2-14.7c2-1,10.2-3.5,10.4-6.2c0.2-3-7-4.5-9.1-4.3
			c-3.1,0.2-6,2.3-9,2.3c-6.7,0-0.7-4.7,2.1-6.3c7.5-4.2,16.8-5.6,23-12.2c2.8-3,13.3-16,6-19.3C153.2,27.3,143,37,139.2,41
			c-2.6,2.8-16.6,16.8-20.2,10.3c-3-5.5,12.7-16.6,15.1-21c2-3.8,1.1-7.2-1.6-10.2c-4.1-4.6-6.8-3.8-11.8-0.6
			c-9.7,6.1-8.4,17.5-13.5,26.5c-0.8,1.4-6.6,12.4-8.8,10.5c-1.3-1.1,1.9-9.3,2.3-10.8c0.6-2.5,2-8-1.1-9.7c-3.8-2-5.4,5.5-5.7,8
			c-1.1,8.6,0.2,17.2-7,23.7s-16,5.4-23.8,1.3c-4.3-2.2-7.6-5-12.3-6.8c-5-1.9-10.2-4-15.6-4.3c-4.8-0.3-7.6,3.3-3.1,6.8
			c2.6,2.1,6.2,2.3,9.2,3.5s7.5,4.4,1.5,3.9c-3.4-0.3-6.5-1.8-9.7-3.2c-7-3.1-16.4-4.5-22.4,1.8c-3.5,3.7,1.2,5.9,4.8,6
			c4,0.2,8.1-1.1,12.2-1.2c6.9-0.1,16.8,1.1,21,7.1c1.1,1.5,1.5,3.8,0.9,5.7C49,90,50,91.8,51.7,92.1c7.4,1.2,14.4,1.1,22.3,1.1
			c15.6-0.1,31.7,1.7,47.2-0.2C121.6,92.9,122.1,92.7,122.4,92.4L122.4,92.4z"/>
		<path class="st1" d="M175.3,46.8c2.6-0.2,8.7,0.4,6.4,4.6c-1.5,2.8-7.9,1.5-10.6,1.4c-4.4-0.2-10.3-0.3-14.1,2
			C157,54.7,168.1,47.2,175.3,46.8z"/>
		<path class="st1" d="M147.5,27c2.1-1.4,4-2.9,5.8-4.6c1.5-1.3,6.4-6.8,8.5-6.1c3.7,1.2-1.9,5.8-3.4,6.6c-3,1.5-6,2.7-9.2,3.6
			L147.5,27z"/>
		<path class="st1" d="M152.9,16.8c4.9-3.8,3.1-8.9,5.2-13.9c1.5-3.4,4.7-3.2,4.2,0.6c-0.5,4-4.1,8.4-5.4,10.1
			C155.7,14.9,154.4,15.9,152.9,16.8z"/>
		<path class="st1" d="M144.9,14.5c-1.1-1.8-6.7,0.4-6,2.9c0.9,3.1,6.5,0.5,6.1-2.8L144.9,14.5z"/>
		<path class="st1" d="M133,14.8c0.7,1.8,4.4-0.7,3.7-2S132.3,13,133,14.8z"/>
		<path class="st1" d="M108.3,24.7c-2.3-2.1-4.5,3.9-4.2,5.7c0.9,6,5.1-0.6,5.1-3.7L108.3,24.7z"/>
		<path class="st1" d="M23.3,40c-2.2-3-6.3-9-10.7-8.5c-3.4,0.4-3.5,3.3-0.7,4.8c2.1,1.1,5.3,1.1,7.4,1.7L23.3,40z"/>
		<path class="st1" d="M16.5,40.9C12,40.3,3.7,39.7,1.1,44.5c-2.3,4.4,2.2,2.8,4.7,1.5c2.7-1.4,5.2-3.6,8.4-4.3L16.5,40.9z"/>
		<path class="st1" d="M8.8,24.1c-0.9,4.1,5,2,4.3-0.3S9.5,21,8.8,24.1z"/>
		<path class="st1" d="M62.8,17.9c-2-1.8-3.2,3.9-2,5.4c2.7,3.2,4.2-2.5,2.3-4.8L62.8,17.9z"/>
		<path class="st1" d="M68.8,14.2c-2.1-0.9-2,2.5-1.2,3.6c1.2-0.3,2-1.6,1.6-2.8c0-0.2-0.1-0.3-0.2-0.5L68.8,14.2z"/>
	</g>
</g>
</svg>
