<svg xmlns="http://www.w3.org/2000/svg" viewBox="0 0 177.45 96.33"><defs><style>.cls-1{isolation:isolate;}.cls-2{fill:#80550f;stroke:#80550f;stroke-miterlimit:10;}.cls-3{fill:#60a632;}.cls-4{fill:#3c691f;}.cls-5{fill:#cfb57e;}.cls-6{fill:#b39864;}.cls-7{fill:#a38f6c;}.cls-8{fill:#b09a74;}.cls-9{fill:#42210b;}.cls-10{fill:#fff;}.cls-11{mix-blend-mode:screen;}.cls-12,.cls-13{fill:#598f2b;}.cls-13{mix-blend-mode:multiply;}.cls-14{opacity:0.62;}.cls-15{fill:#01b8e0;}.cls-16{opacity:0.75;}.cls-17{fill:#22cdf2;}.cls-18{opacity:0.85;}.cls-19{fill:#6be5ff;}</style></defs><title>Tortuga</title><g class="cls-1"><g id="Capa_2" data-name="Capa 2"><g id="Capa_5" data-name="Capa 5"><path class="cls-2" d="M11.45,73.7c-.91-1.69,3-3.79,4.63-5-1.82-.79-.53-2.55,1.49-4,2.66-1.91,5.66-3.47,8.36-5.37A20.39,20.39,0,0,0,27.6,58l-.08,0c.19-.13.37-.26.54-.4l0,0,.13-.14A14.35,14.35,0,0,0,29.81,56c.52-.53,1-1.08,1.51-1.63a31.51,31.51,0,0,1-6.24-5.09A24.77,24.77,0,0,1,19.83,42l-.54-.32-.9-.57C17.86,40.74,136.18,21.08,136,21.9a18.5,18.5,0,0,0,7.86-2.8A44.07,44.07,0,0,1,154,13.89c6-2,13.58-1.11,18,3.38a17,17,0,0,1,3.78,6.56c.46,1.5,2,5.15.78,6.61-.41.5-2.9.58-3.49.71l-.22.07c-.06.09-.15.21-.25.38-.8,1.33-.88,3.14-1.59,4.57-1.2,2.4-4.24,4.3-6.76,5.19-5.64,2-12.7,3.12-18.53,1a28.12,28.12,0,0,0-3.28-.46l.2.09a8,8,0,0,1,2.68,3,16.45,16.45,0,0,1,1.83,10.51c-.94,7.63-5.87,15.41-11.93,20.42-2.69,2.23-6.37,5.54-10.12,5.85-2.08.18-1.18-2.66-.74-3.55.83-1.69,2.08-3.16,2.89-4.89.32-.69-.2-1.43-.43-2.11a4.84,4.84,0,0,1-.27-2.19c.21-2.05,2.4-2.71,1.63-5,0-.08,0-.17-.05-.25-.44.89-.9,1.79-1.39,2.69-3.47,6.5-8.84,12.94-15.28,16.92l-.08,0s0,0,0,0a28,28,0,0,1-3.58,2.61c-2.34,1.48-4.68,2.81-7.14,4.1-1.21.64-2.47,1.23-3.76,1.77l-.07,0-.1,0c-.55.23-1.1.45-1.66.65a20.89,20.89,0,0,1-2.36,1.08c-1.08.38-2.14.75-3.21,1.15a12.88,12.88,0,0,1-2.91.89c-3,.42-.79-2.91-.08-4a33.68,33.68,0,0,1,3-4.17c.95-1.09,2.2-1.74,3.22-2.72a4.72,4.72,0,0,0,1.19-1.78,3.78,3.78,0,0,0,.58-1.94,4.35,4.35,0,0,1,.6-2.63c1.38-1.49,3.42-1.44,3.49-3.78a5,5,0,0,1,1.08-3.32c1.68-1.61,3.22-1.35,2.69-4.39-.08-.43-.14-1.39.29-1.72a3.46,3.46,0,0,1,1.52-.86,1.59,1.59,0,0,0,1-2.33c-3.46,2.15-7.48,3.19-11.47,4a92.05,92.05,0,0,1-17.08,2.37c-9.66.21-19.92.92-29.05-2.7-.13.11-.23.23-.36.33a38.82,38.82,0,0,1-8.08,5,55.7,55.7,0,0,1-18,5.82,24,24,0,0,1-3.08.56c-1.92.23-3.94.75-5.74-.1-1.4-.66-.59-1.68.63-2.57A2,2,0,0,1,11.45,73.7Z"/><path class="cls-3" d="M135.61,17.4c-1.51-.18-2.55.16-3.9-.17a25.15,25.15,0,0,1-3-.84c-4.7-2.75-9.09-5.61-14.16-7.78-11.89-5.09-27.16-9-40.17-6.52C62.08,4.41,49.05,8.86,39.53,16.87a116,116,0,0,0-8.69,8c-.44.36-.88.73-1.3,1.11a63,63,0,0,0-4.31,4.61c-1.34,1.48-2.49,2.58-3.77,3.83A10.89,10.89,0,0,1,19,36.1a17.19,17.19,0,0,1-1.72.56c-.65.27-.95.54-1,.83a.88.88,0,0,0,.08.69c.56,1.22,2.3,2.24,3.39,3,.34.23.69.45,1,.67.82.56,1.64,1.08,2.54,1.58,3.88,2.18,8,4,11.75,6.45l.08.09c.67.38,1.33.74,2,1.08a130.52,130.52,0,0,0,14.58,6.42c11.53,4.42,24.32,5.64,36.27,2A49.63,49.63,0,0,0,102.83,52c4.45-3.15,7.74-7.26,12.78-9.68,4.89-2.34,9.06-4.39,12.54-8.57A43.68,43.68,0,0,0,135,22.9C135.41,22.18,136.48,17.5,135.61,17.4Z"/><path class="cls-4" d="M135.59,17.55c-1.14-.15-2.3.1-3.51-.08-.6-.1-1.14-.25-1.72-.39s-1.13-.32-1.69-.52h0a131.69,131.69,0,0,0-11.8-6.36,91.43,91.43,0,0,0-12.58-4.4c-2.14-.58-4.3-1.09-6.47-1.51s-4.34-.81-6.52-1.06a59.18,59.18,0,0,0-13.09-.3,62,62,0,0,0-6.49,1c-2.17.43-4.32,1-6.47,1.47A84.61,84.61,0,0,0,52.64,9.67a60.92,60.92,0,0,0-6,2.95,46.09,46.09,0,0,0-5.55,3.64c-1.76,1.32-3.46,2.81-5.13,4.28s-3.3,3-4.84,4.61v0l0,0a28.8,28.8,0,0,0-3.46,3.35c-1.07,1.23-2.13,2.49-3.3,3.65L22.66,34l-.86.9a9,9,0,0,1-1,.85c-.35.25-.71.48-1.08.7l-.57.32a3.79,3.79,0,0,1-.68.26,6.1,6.1,0,0,0-1.07.35,2.34,2.34,0,0,0-.47.3l0,.09s0,0,.07.15a2.35,2.35,0,0,0,.3.45,5.92,5.92,0,0,0,.93.85c.7.53,1.53,1,2.34,1.54,1.61,1,3.18,2,4.9,2.78a108,108,0,0,1,10.24,5.38l0,0,0,0a2.65,2.65,0,0,1,.29.29l-.35-.3a113.09,113.09,0,0,0,13.07,5.92A71.31,71.31,0,0,0,62.37,59a58.23,58.23,0,0,0,14.06.93,51.37,51.37,0,0,0,13.72-2.81,53.35,53.35,0,0,0,12.4-6.64c3.77-2.66,7.21-6.39,11.82-8.63,2.28-1.05,4.45-1.94,6.55-3.08a25.51,25.51,0,0,0,5.75-4.13,40.27,40.27,0,0,0,8.12-11.8h0l0,0a7.33,7.33,0,0,0,.45-1.3c.12-.46.23-.92.31-1.39a13.67,13.67,0,0,0,.2-1.41,5.3,5.3,0,0,0,0-.69C135.76,17.8,135.67,17.54,135.59,17.55Zm0-.3a.49.49,0,0,1,.37.34,1.36,1.36,0,0,1,.08.39,4.61,4.61,0,0,1,0,.74,14,14,0,0,1-.18,1.45c-.08.48-.18.95-.3,1.42a6.72,6.72,0,0,1-.48,1.41l0,0a47.85,47.85,0,0,1-7.75,12.36c-3.32,3.73-7.94,6-12.1,8.24s-7.1,6.05-11.09,9.13A60.15,60.15,0,0,1,98,56.84,46.59,46.59,0,0,1,91.23,60,52.46,52.46,0,0,1,61.78,62a74.41,74.41,0,0,1-14.05-4.55A101.78,101.78,0,0,1,34.52,51l-.35-.3a.37.37,0,0,0,.13.12l.07,0c-3.07-2.08-6.47-3.78-9.83-5.67-1.7-.91-3.3-2-4.93-3.1-.78-.54-1.57-1.06-2.37-1.72a6.71,6.71,0,0,1-1.13-1.13,4.39,4.39,0,0,1-.46-.76,1.68,1.68,0,0,1-.09-1.24l0,.09a1.52,1.52,0,0,1,.64-.89,3.78,3.78,0,0,1,.67-.37,7.22,7.22,0,0,1,1.27-.36,3.67,3.67,0,0,0,.47-.16l.51-.26a9.8,9.8,0,0,0,1-.6A7.65,7.65,0,0,0,21,34l.87-.85,1.73-1.71c1.18-1.12,2.26-2.33,3.36-3.55a29.2,29.2,0,0,1,3.6-3.43l0,0a130.2,130.2,0,0,1,10-9.09A56.45,56.45,0,0,1,46,11.49,61.49,61.49,0,0,1,52,8.17a85.26,85.26,0,0,1,12.64-5c2.17-.66,4.35-1.27,6.56-1.75,1.11-.26,2.21-.49,3.33-.71S76.76.35,77.91.26A52.84,52.84,0,0,1,91.62.71,76,76,0,0,1,104.8,4.05c2.14.74,4.25,1.54,6.33,2.42s4.14,1.79,6.14,2.84c4,2.12,7.72,4.61,11.56,6.92l0,0a15.79,15.79,0,0,0,1.65.52c.56.15,1.14.31,1.69.41C133.25,17.33,134.44,17.08,135.62,17.25Z"/><path class="cls-5" d="M127.48,71.57c.33,1.1.89,1.29.41,2.41a12.75,12.75,0,0,1-1.63,2.93s-2.84,4.16-1.69,4.14c3.22,0,6.66-3.22,9-5a36.69,36.69,0,0,0,6.81-7.28c1-1.34,1.88-2.73,2.74-4.15a40,40,0,0,0,2.09-4.8,18.6,18.6,0,0,0,1.1-10.42,15.19,15.19,0,0,0-2.11-5.22c-1.28-2-2.82-1.72-4.67-2.14-2.84.56-5.68,2.68-8,4.43,1.09,2.39.62,5.34.07,7.78a37.88,37.88,0,0,1-2.08,6.44c-.11,1.22-.91,2.55-.65,3.73s.42,1.82-.35,2.95C127.49,68.78,126.94,69.76,127.48,71.57Z"/><path class="cls-6" d="M126.26,76.91A12.75,12.75,0,0,0,127.89,74c.48-1.12-.08-1.31-.41-2.41-.54-1.81,0-2.79,1-4.25.77-1.13.62-1.73.35-2.95s.54-2.51.65-3.73a37.88,37.88,0,0,0,2.08-6.44c.55-2.44,1-5.39-.07-7.78,2.33-1.75,5.17-3.87,8-4.43a13.84,13.84,0,0,1,3.19.74A4.45,4.45,0,0,0,138,45.94c-1.16,3.25-.24,6.81-1.35,10-1,2.8-4.27,4.11-4.8,7.1-.21,1.2.39,2.34.72,3.46.47,1.61-.25,1.82-1.31,2.86a3.16,3.16,0,0,0-1.24,2.68c.21,1.89.78,3.61-1.29,4.84C127,78,125.49,79,125.1,81a4.58,4.58,0,0,1-.53,0C123.42,81.07,126.26,76.91,126.26,76.91Z"/><path class="cls-5" d="M12.16,73.58a.65.65,0,0,0,.11.22h0c.53.74,2.35.46,3.84.08-.46.28-.93.55-1.39.84-.78.49-1.5.94-1.66,1.86a.35.35,0,0,0,.09.34c.8.6,2.68,0,3.6-.07A50.24,50.24,0,0,0,22.23,76a70.53,70.53,0,0,0,10.9-3.37c1.26-.52,2.51-1.09,3.74-1.69l1.49-.64,1.11-.55c.5-.3,1-.62,1.5-.93,1-.57,2-1.16,3-1.79,3.18-2,6.1-4.34,9.17-6.48a8.5,8.5,0,0,1-2,2.16c-.92.81-1.86,1.61-2.84,2.35l-.49.46c12.88,3.6,26.89,3.47,40.08.91,5.9-1.13,11.32-2.13,17-4.81-.16-.34-.33-.67-.45-1a2.42,2.42,0,0,1,.12-2.22,5.78,5.78,0,0,1,2-1.77l.21-.11a5.58,5.58,0,0,0-1.21,2.22q-.15.19-.3.42c-.6.93.41,2.74.92,4.08a2.51,2.51,0,0,1-.62.86c-.49.45-1.06.79-1.58,1.2a2.66,2.66,0,0,0-1.1,1.64,9.19,9.19,0,0,0,0,1.78,7.65,7.65,0,0,1-1.5,2,7.54,7.54,0,0,0-1.54,2.1,9.39,9.39,0,0,0-.64,2.36c-.28,1.4-1,1.83-2.14,2.48-1.71.93-2,2.23-2.18,4a7.9,7.9,0,0,1-2,4.2c-1.24,1.15-2.48,2.33-3.75,3.44-.86.75-4.21,4.72-3.54,5.53a65.52,65.52,0,0,0,6.73-2.24A57.65,57.65,0,0,0,100,89.45c1.58-.77,3.17-1.58,4.69-2.46l.66-.42c5.21-3.41,10.62-7.14,14.57-11.87a59.06,59.06,0,0,0,9.32-15.53A31.64,31.64,0,0,0,130.71,54a12.45,12.45,0,0,0,0-8.13c-1.36-3.56-5.73-4.22-9.3-4,2.06-.34,3.91-.77,6,.12a8.19,8.19,0,0,1,3.71,3.74,22.86,22.86,0,0,1,2.9-2.32c2.87-1.14,5.44-2.77,8.76-2.21a11,11,0,0,0,3.13.57,45,45,0,0,0,5.77.72A35.75,35.75,0,0,0,161.23,41a17,17,0,0,0,7.56-4.11,10.05,10.05,0,0,0,2.47-4.25,5.46,5.46,0,0,1,.78-1.22,37.28,37.28,0,0,0-5.41,2.91c-2.49,1.41-5.63,2.54-8.51,1.84-.17,0-.64-.65-.35-.65,5.62.08,9.68-3.44,14.62-5.37a16.78,16.78,0,0,1,2.9-.6c1.55-.3.12-4.07-.11-5a13.48,13.48,0,0,0-9.75-10.16c-6.65-1.8-13.1.79-18.67,4a31.22,31.22,0,0,1-6.63,3.4,19.67,19.67,0,0,1-4.33.67,33,33,0,0,1-17.38,19.62c-5.15,2.3-8.7,5.39-12.86,9A47.88,47.88,0,0,1,91,59.73c-11.23,4.17-23.2,3.52-34.54.22a87.36,87.36,0,0,1-14.84-5.72c-1.8-.9-3.58-1.88-5.39-2.87-1.09-.74-2.19-1.47-3.32-2.16-1.84-1.11-3.76-1.91-5.68-2.86-2.12-1-4.09-2.32-6.1-3.53l-.8-.47c.6.8,1.84,2.87,2,3.12a26.47,26.47,0,0,0,3.28,3.74,30.09,30.09,0,0,0,2.75,2.53,35.09,35.09,0,0,1,3.12,2.42l.88-1q-.15.53-.33,1a28.16,28.16,0,0,1-7.33,7.36A43.81,43.81,0,0,1,19.3,65c-.59.3-4.32,2.86-2.48,3.16a.87.87,0,0,1,.58.67c-1.08.72-2.16,1.43-3.17,2.24C13.61,71.53,11.88,72.61,12.16,73.58Z"/><path class="cls-6" d="M53.68,62.49a12.42,12.42,0,0,0,1.24-3l1.56.47c11.34,3.3,23.31,3.95,34.54-.22A47.88,47.88,0,0,0,105.56,51c1.27-1.09,2.48-2.13,3.7-3.13,0,.05-.06.11-.09.15a20.19,20.19,0,0,0-3.45,9.16,7.07,7.07,0,0,0-1.16,1.21,2.42,2.42,0,0,0-.12,2.22c.12.28.29.61.45,1-5.65,2.68-11.07,3.68-17,4.81-12.3,2.39-25.32,2.67-37.47-.24A11.71,11.71,0,0,0,53.68,62.49Z"/><path class="cls-7" d="M130.74,60.17c.3-.75,1.17-1.61,2-.94a1.62,1.62,0,0,1,.43.53l.05.05a2.25,2.25,0,0,1-.15,2.33c-.46.83-1.24,1.2-2,.5A2.05,2.05,0,0,1,130.74,60.17Z"/><path class="cls-7" d="M133.25,47.61c.49-1.2,1.85-2.53,3.15-1.49a2.66,2.66,0,0,1,.69.84l.07.08c.77,1.07.35,2.61-.24,3.67-.72,1.29-1.95,1.88-3.16.8S132.71,48.93,133.25,47.61Z"/><path class="cls-7" d="M132.91,54.43c.28-.69,1.07-1.47,1.83-.86a1.52,1.52,0,0,1,.4.49l0,0a2.05,2.05,0,0,1-.14,2.13c-.42.76-1.13,1.1-1.84.47A1.9,1.9,0,0,1,132.91,54.43Z"/><path class="cls-8" d="M147.25,20.3c.38-.94,1.45-2,2.46-1.16a2,2,0,0,1,.54.66l.05.05a2.8,2.8,0,0,1-.18,2.87c-.57,1-1.53,1.47-2.47.62A2.55,2.55,0,0,1,147.25,20.3Z"/><path class="cls-8" d="M141.87,23.07c.22-.54.84-1.14,1.43-.67a1.24,1.24,0,0,1,.31.39l0,0a1.65,1.65,0,0,1-.1,1.67c-.34.58-.89.85-1.44.35A1.48,1.48,0,0,1,141.87,23.07Z"/><path class="cls-8" d="M132.62,32.09c.23-.57.9-1.22,1.52-.71a1.27,1.27,0,0,1,.34.4l0,0a1.73,1.73,0,0,1-.11,1.78c-.35.62-1,.9-1.54.38A1.6,1.6,0,0,1,132.62,32.09Z"/><path class="cls-8" d="M136.53,25.31c.5-.56,1.53-1,2-.24a1.62,1.62,0,0,1,.21.59s0,0,0,.06a2.1,2.1,0,0,1-.87,2c-.66.58-1.45.68-1.9-.14A1.91,1.91,0,0,1,136.53,25.31Z"/><path class="cls-8" d="M152.89,18.51a1.56,1.56,0,0,1,1-1.07.56.56,0,0,1,.59.18.9.9,0,0,1,.27.85l0,.13a1.3,1.3,0,0,1-.94,1.12.7.7,0,0,1-.68-.31A1,1,0,0,1,152.89,18.51Z"/><path class="cls-8" d="M100.27,73.67c.27-.67,1.06-1.43,1.8-.84a1.56,1.56,0,0,1,.39.48l0,0a2,2,0,0,1-.13,2.1c-.42.74-1.12,1.08-1.81.45A1.87,1.87,0,0,1,100.27,73.67Z"/><path class="cls-8" d="M104.29,68.74c.26-.62,1-1.32,1.65-.77a1.34,1.34,0,0,1,.36.44l0,0a1.87,1.87,0,0,1-.12,1.93c-.38.67-1,1-1.65.41A1.7,1.7,0,0,1,104.29,68.74Z"/><path class="cls-8" d="M111.14,54.67a1.58,1.58,0,0,1,1-1.08.61.61,0,0,1,.6.18.93.93,0,0,1,.27.86.56.56,0,0,1,0,.12,1.3,1.3,0,0,1-.94,1.13.72.72,0,0,1-.67-.31A1,1,0,0,1,111.14,54.67Z"/><path class="cls-8" d="M107,59.59a2.38,2.38,0,0,1,.87-2.07.9.9,0,0,1,1,0,1.48,1.48,0,0,1,.87,1.12c0,.07,0,.13,0,.2a2,2,0,0,1-.78,2.12,1.14,1.14,0,0,1-1.16-.12A1.63,1.63,0,0,1,107,59.59Z"/><path class="cls-8" d="M111.79,58.25a1.25,1.25,0,0,1,.46-1.1.51.51,0,0,1,.52,0,.8.8,0,0,1,.46.61.34.34,0,0,1,0,.1,1,1,0,0,1-.41,1.13.62.62,0,0,1-.62-.06A.87.87,0,0,1,111.79,58.25Z"/><path class="cls-8" d="M31,61.91c.49-.37,1.37-.61,1.64.1a1.24,1.24,0,0,1,.07.49s0,0,0,0a1.74,1.74,0,0,1-1,1.44c-.61.36-1.25.32-1.47-.39A1.55,1.55,0,0,1,31,61.91Z"/><path class="cls-8" d="M38,57.55a1.51,1.51,0,0,1,1.26-.42.51.51,0,0,1,.38.39.82.82,0,0,1-.19.78.36.36,0,0,1-.09.08,1.23,1.23,0,0,1-1.25.47c-.24-.06-.33-.32-.37-.53A.9.9,0,0,1,38,57.55Z"/><path class="cls-8" d="M32.75,57a2.25,2.25,0,0,1,1.64-1.23.76.76,0,0,1,.76.39,1.22,1.22,0,0,1,.14,1.23s0,.1-.08.16a1.85,1.85,0,0,1-1.58,1.31c-.4,0-.67-.31-.85-.59A1.42,1.42,0,0,1,32.75,57Z"/><path class="cls-8" d="M41.68,57a1.18,1.18,0,0,1,.87-.65.41.41,0,0,1,.4.21.68.68,0,0,1,.08.66.56.56,0,0,0-.05.08,1,1,0,0,1-.84.7.55.55,0,0,1-.45-.32A.74.74,0,0,1,41.68,57Z"/><path class="cls-9" d="M159.31,24.58c.55,1.4,1.75,2.27,2.68,1.94s1.26-1.73.71-3.13S161,21.12,160,21.45,158.77,23.18,159.31,24.58Z"/><path class="cls-10" d="M160.63,23c.16.42.53.68.81.58s.39-.52.22-.94-.53-.69-.81-.59S160.46,22.57,160.63,23Z"/><g class="cls-11"><path class="cls-12" d="M19.53,38.93a18,18,0,0,0,2.32,0c.3-.08.59-.16.84-.25s1.89-.65,1.85-1l.66.53c1.26,1,2.48,2,3.71,3l.88.55c-.35.3-.64.74-.92,1-.63.55-1.42,1-1.77,1.75.61-.18,1.23-.36,1.82-.58a4.52,4.52,0,0,0,.68-.62,5.9,5.9,0,0,0,.67-1s0,0,0,0L30.4,42a65.92,65.92,0,0,0,8.85,4.33A17.11,17.11,0,0,1,38,48.1c-.41.56-.94,1.06-1.31,1.65.7-.48,1.37-1,2.1-1.44.18-.31.38-.62.53-1,0,0,.33-.78.25-.77s0-.07,0-.14c1.14.46,2.31.89,3.48,1.29,2.64.89,5.39,1.66,8.14,2.35a6.88,6.88,0,0,0-.68,1.53c-.5,1-1.2,1.87-1.7,2.83.67-.48,1.33-1,2-1.47a5.91,5.91,0,0,0,.36-.76,6.77,6.77,0,0,0,.49-2q2,.49,4.05.93c2,.42,4.15.71,6.21,1,.41,0,.86.12,1.31.2.74.19,1.5.34,2.27.47-.54,1.88-1,3.78-1.5,5.67l.52-.59c.28-.35.52-.72.77-1.08.08-.43.15-.85.24-1.26a17.38,17.38,0,0,0,.34-2.68,42.4,42.4,0,0,0,16.08-.68,30.74,30.74,0,0,0,.38,3.34c.08.53.11,1.08.15,1.62.26.69.52,1.39.81,2.07a19.71,19.71,0,0,0-.46-5.24,6.6,6.6,0,0,0-.61-1.85A44.48,44.48,0,0,0,91.1,49L95,47.14c0,1,.71,2.19,1,3s.45,1.45.71,2.17a7,7,0,0,0,1.09,1.08c-.47-2.21-1.81-4.22-2.33-6.4,0,0,0,0,0,0,2.35-1.12,4.67-2.27,6.94-3.53l.38-.25a10.25,10.25,0,0,1,1.89-1c1.84-1.13,3.59-2.42,5.31-3.73a10,10,0,0,0,1.32,2,25.47,25.47,0,0,0,1.86,2.29,6.74,6.74,0,0,0-.17-1c-.42-.54-.88-1.06-1.32-1.57a19.4,19.4,0,0,1-1.55-1.83l.59-.45c1.27-1,2.56-1.81,3.75-2.81a35.28,35.28,0,0,0,6.9-5.92,10,10,0,0,0,1.77,2.25,17.86,17.86,0,0,0,2.36,2.23l.61.12a24.79,24.79,0,0,0-2.42-2.5c-.72-.74-1.38-1.59-2.14-2.31.48-.53.94-1.07,1.38-1.63a37.42,37.42,0,0,0,3-4.36c.14-.35.28-.69.41-1a7.08,7.08,0,0,0,2.57,1.21c.94.33,1.93.58,2.91.82a3.93,3.93,0,0,0,.43-.18c-.95-.38-1.91-.69-2.89-1s-1.9-.87-2.89-1.17c.25-.67.48-1.35.69-2-.28.32-.56.63-.85.93A48.44,48.44,0,0,1,122,26.9c-.18.23-.37.44-.56.66A36.53,36.53,0,0,0,117,22.8c1.35-1.86.94-6.28.64-7.77a5.5,5.5,0,0,0-.6-1.57,6.12,6.12,0,0,0,1.39-.28c.31-.08.62-.18.93-.29a.28.28,0,0,1,.06-.24,2.31,2.31,0,0,0,.14-.19l-.83-.17-.1,0c-.23.07-.45.13-.68.18-.41.1-1,.1-1.44.25-1.44-1.86-3.91-3.1-6-4.14a80.32,80.32,0,0,0-12-4.47l.33.3c2.72,1.12,5.57,2,8.28,3.17a47.9,47.9,0,0,1,4.61,2.25c1.33.76,3.4,1.76,4.47,3.14a.79.79,0,0,0,.25.37,3,3,0,0,1,.39.94c.35,1.75,1,8.74-1.92,8.65a41.9,41.9,0,0,1-4.79-1,12.19,12.19,0,0,1-4.72-1.4,67,67,0,0,0-5.6-5.58c-1.16-1-2.34-1.95-3.59-2.8a10.3,10.3,0,0,0-1.05-.62A7.82,7.82,0,0,0,96,8.32c0-.22,0-.44.07-.65-.13-.84-.26-1.67-.42-2.5,0,.13-.06.26-.1.39,0,.28,0,.53,0,.72-.16,1.58-.11,5.06-2.28,5.29a19.13,19.13,0,0,1-6.89-.82c-1.5-.39-3-.73-4.51-1.18l0-.08a.71.71,0,0,1-.3-.39c-.09-.29-.16-.58-.22-.87C80.34,6.05,79.4,3.92,79,3.17q.15.59.24,1.17c.19.45.35.9.5,1.25l1.23,2.92c.13.3.24.6.36.89l-.11,0a1,1,0,0,1-.32,1,20.81,20.81,0,0,1-2.69,4.05,5.71,5.71,0,0,1-6.07,1.93A21.64,21.64,0,0,1,66,13.86a10.25,10.25,0,0,1-.95-.62.92.92,0,0,1-.62-.43l0,0h0a3.39,3.39,0,0,1-.06-2.22c.1-1.57.22-3.14.4-4.72a.31.31,0,0,0-.09-.15,48,48,0,0,0-.89,6,2.1,2.1,0,0,1-.47,1l.07.05L63,13a3.54,3.54,0,0,1-.68.42A28.44,28.44,0,0,1,57,16c-2.06.74-4.61,2.23-6.26-.44a13.12,13.12,0,0,1-1.2-2.78c-.05.43-.08.86-.12,1.29.68,1.88,2,3.85,3.78,3.82l.64-.06c-.13,1.24-.87,2.48-1,3.71a28.14,28.14,0,0,0-.51,3.51c-.62,1.59-8.53,1.31-9.55,1.37-1.61.09-3.22.1-4.83.07s-2.58-2.35-3.12-3.87c0,.36-.11.71-.16,1.07a12.24,12.24,0,0,0,1.82,2.87,2.44,2.44,0,0,0,.29.27c-1.36,1.73-2.11,4.28-3.05,6.24a87.18,87.18,0,0,0-3.66,8.07c-1.85-1.15-3.62-2.4-5.41-3.63v0s0-.06-.05-.09a.25.25,0,0,0-.17-.11l-.09,0-.83-.57.68.58c-.74.14-1.47.64-2.21.81a14.76,14.76,0,0,0-2.46.71A.06.06,0,0,0,19.53,38.93ZM76.39,17.14a7,7,0,0,1,.93,1.93c.35.79.65,1.63,1.08,2.39a41.69,41.69,0,0,0,2.32,4.19c-.48.35-.88.89-1.37,1.25l-1.88,1.34C76,29.3,74.61,30.56,73.1,31.6s-3.22,2.46-5,2.45a10.41,10.41,0,0,1-5.34-1.75c-1.9-1-3.63-2.24-5.45-3.4-1.36-.88-4.28-2-4-4a43.85,43.85,0,0,1,.8-5.36,5.4,5.4,0,0,0,.29-1.78,21.91,21.91,0,0,0,5.45-2.06,21.87,21.87,0,0,0,3.43-2c.11-.15.22-.29.32-.44s.58-.23.66.05a21.44,21.44,0,0,0,9.94,3.95A4.45,4.45,0,0,0,76.25,17,.45.45,0,0,0,76.39,17.14Zm29.33,4c-1,1-2,2-2.9,3-1.25,1.4-2.71,2.59-3.89,4-2.87,3.54-7.22,1.29-10.74-.12-1.89-.76-3.81-1.47-5.71-2.2a2.92,2.92,0,0,1-1.73-1.12c-.44-.75-.82-1.53-1.23-2.3-.77-1.5-1.48-3-2.16-4.57a4.14,4.14,0,0,0-.66-1.12c2.24-1.13,3.83-3.89,4.68-6.27,0-.13.76-.47.79-.43,1.57.6,3.39.88,5,1.33,2.34.66,4.57,1.35,7,.84a1.5,1.5,0,0,0,.78-.43c.13.09.27.17.39.24a35,35,0,0,1,4.32,3.34c1.28,1.07,2.46,2.24,3.65,3.39a13.59,13.59,0,0,0,2.29,2.32A.28.28,0,0,0,105.72,21.17Zm-2.38,20.58c-.67-1.36-1.45-2.69-2.18-4-.93-1.67-1.82-3.33-2.64-5a20.25,20.25,0,0,0-1-2,4.15,4.15,0,0,0,1.73-1.26c2.2-2.72,5-5,7-7.79l0-.08a9.81,9.81,0,0,0,3,.94c1.17.21,2.35.38,3.51.67a11,11,0,0,0,2.61.51,1.83,1.83,0,0,0,1.25-.5.13.13,0,0,0,.11.05.15.15,0,0,0,.07,0A28.81,28.81,0,0,0,119,25.45c.73.81,1.44,1.64,2.19,2.42a79.81,79.81,0,0,1-8.29,7.59c-1.1.64-2.21,1.25-3.26,2-1.92,1.35-3.79,2.86-5.83,4ZM66.06,52.27c.21-1.76.68-3.46,1-5.22.23-1.33.32-2.68.52-4a49,49,0,0,0,.93-8.18,7.78,7.78,0,0,0,3.61-1.39c2-1.23,3.67-2.77,5.55-4.11.78-.56,1.62-1.09,2.34-1.71a10.9,10.9,0,0,0,1.26-1.5,15.51,15.51,0,0,0,3.32,1.22c1.91.73,3.78,1.5,5.66,2.25,2.06.83,4.76,1.81,6.94,1.18A28.41,28.41,0,0,0,100,36.72c1,1.76,1.93,3.53,2.83,5.33-3.83,2.14-7.73,4-11.71,5.91A47.69,47.69,0,0,1,66.06,52.27ZM30.68,41.53a74.44,74.44,0,0,0,3.79-7.78c1-2.1,2.25-4.23,2.74-6.49,0,0,0,0,0,0s0,0,0-.07,0,0,0-.07c1.26.61,3.19.22,4.44.19,2.81-.06,5.67-.41,8.46-.43a3.5,3.5,0,0,0,2.52-.81v0a10.5,10.5,0,0,0,3.56,2.78c1.9,1.17,3.66,2.64,5.67,3.65,1.86.93,3.41,2.11,5.56,2.35l.48,0A27.47,27.47,0,0,0,67.45,38c-.21,1.5-.51,3-.68,4.49a80.34,80.34,0,0,0-1,9.54s-.09-.06-.1,0l-.06.2a38.5,38.5,0,0,1-3.89-.66c-.07,0-.09,0-.08.06-.35-.08-.7-.17-1-.23-2-.35-3.94-.59-5.88-1.09-3.8-1-7.71-1.86-11.42-3.12a65,65,0,0,1-12.23-5.41Z"/></g><path class="cls-13" d="M109.17,14.69c.54-.48,1.15,0,1.46.47a1.22,1.22,0,0,1,.11,1.19,1.15,1.15,0,0,1-.23.64c-.48.6-1.29-.19-1.56-.56A1.2,1.2,0,0,1,109.17,14.69Z"/><path class="cls-13" d="M106.17,15.72h0a.16.16,0,0,1,0-.07h0a.1.1,0,0,1,.13-.05h0a.56.56,0,0,1,.36.39s0,0,0,0,0,.13,0,.16l-.08,0C106.42,16.34,106.13,15.9,106.17,15.72Z"/><path class="cls-13" d="M100.28,11a2.31,2.31,0,0,1,.1-.28,1.62,1.62,0,0,1,1.41-.93c.65,0,1.11.59,1.43,1,.63.92.74,2.57-.37,3.2a1.39,1.39,0,0,1-1.45-.15,2.42,2.42,0,0,1-1.31-1.71A2.11,2.11,0,0,1,100.28,11Z"/><path class="cls-13" d="M85.69,16.13c.27-.44.75-1.08,1.38-1a1.56,1.56,0,0,1,1.05.84,2.05,2.05,0,0,1,.58,1.14,1.83,1.83,0,0,1-2.21,2.1,1.94,1.94,0,0,1-1.21-1.1A2.33,2.33,0,0,1,85.69,16.13Z"/><path class="cls-13" d="M92.5,16.48h0s0,0,0,0a.08.08,0,0,1,.07,0h0a.29.29,0,0,1,.13-.08c.2-.09.53.29.45.47a.27.27,0,0,0-.06.17h0c0,.09,0,.17-.07.19s-.36-.23-.43-.36l0-.06s0,0,0,0h0S92.47,16.52,92.5,16.48Z"/><path class="cls-13" d="M85.89,3.36a2,2,0,0,1,1.88.32l.22,0a2.22,2.22,0,0,1,1.08,1.42c.42,1.23-.1,3.43-1.8,3.36s-2.68-1.88-2.71-3.23A2.12,2.12,0,0,1,85.89,3.36Z"/><path class="cls-13" d="M97.07,23.56a1.37,1.37,0,0,0,.24-.4.11.11,0,0,1,.07-.06h0c.13,0,.26.13.31.22a.79.79,0,0,1,.13.33c0,.19-.12.21-.26.12a.94.94,0,0,0-.27.06C97.22,23.88,97,23.66,97.07,23.56Z"/><path class="cls-13" d="M72.66,9.3c.53-.48,1.14,0,1.45.48A1.2,1.2,0,0,1,74.23,11a1.33,1.33,0,0,1-.23.64c-.49.6-1.3-.19-1.57-.56A1.19,1.19,0,0,1,72.66,9.3Z"/><path class="cls-13" d="M71.84,25.8h0a.06.06,0,0,1,0-.05s0,0,0,0a.11.11,0,0,1,.14,0h0a.57.57,0,0,1,.36.38v0s0,.12,0,.15l-.08.05C72.1,26.42,71.8,26,71.84,25.8Z"/><path class="cls-13" d="M53.65,12.71c.14-.23.39-.57.72-.51a.79.79,0,0,1,.55.44,1,1,0,0,1,.31.6,1,1,0,0,1-1.16,1.11,1.05,1.05,0,0,1-.64-.58A1.21,1.21,0,0,1,53.65,12.71Z"/><path class="cls-13" d="M62.5,7.16c.08-.13.22-.33.41-.3a.49.49,0,0,1,.32.26.63.63,0,0,1,.18.34.56.56,0,0,1-.67.64.61.61,0,0,1-.37-.33A.68.68,0,0,1,62.5,7.16Z"/><path class="cls-13" d="M83.6,23c.08-.14.23-.34.42-.3a.47.47,0,0,1,.32.25.64.64,0,0,1,.17.35.56.56,0,0,1-.67.64.58.58,0,0,1-.36-.34C83.38,23.42,83.5,23.18,83.6,23Z"/><path class="cls-13" d="M58.18,26.56h0v0a.1.1,0,0,1,.06-.05h0a.36.36,0,0,1,.13-.08c.2-.09.53.29.45.47a.64.64,0,0,0-.06.16h0c0,.09,0,.17-.07.18s-.37-.21-.44-.35l0-.05s0,0,0,0h0S58.14,26.61,58.18,26.56Z"/><path class="cls-13" d="M59.16,36.32a1.74,1.74,0,0,0,.34-.55.12.12,0,0,1,.09-.08h0c.17,0,.35.19.42.31a1.18,1.18,0,0,1,.18.45c.06.27-.17.3-.36.17a1,1,0,0,0-.37.09C59.37,36.76,59.07,36.45,59.16,36.32Z"/><g class="cls-14"><path class="cls-15" d="M27.24,57.55l-.69.51.13.06c-.36.3-.7.56-1,.8-1.3.92-2.71,1.77-4.07,2.6s-2.91,1.78-4.29,2.77c-1,.73-2.71,2.15-2.56,3.49a1.48,1.48,0,0,0,.47.93l-.52.35c-2.06,1.39-4.61,3.11-3.66,4.88a2.62,2.62,0,0,0,.9,1A2.15,2.15,0,0,0,11,76.64a1.53,1.53,0,0,0,1,1.2,8.59,8.59,0,0,0,5,.28L18,78a21.73,21.73,0,0,0,3.09-.56A55.6,55.6,0,0,0,39.3,71.56a39,39,0,0,0,8.17-5l.15-.13c8.21,3.17,17.24,2.93,26,2.69l3-.07a92.39,92.39,0,0,0,17.18-2.38,37,37,0,0,0,11-3.75c0,.46-.19.81-.92,1.1l-.4.15a2.4,2.4,0,0,0-.94.55l-.29.22c-.71.55-.55,1.82-.49,2.2.33,1.89-.13,2.2-1.16,2.88a9.28,9.28,0,0,0-1.38,1.07A5.57,5.57,0,0,0,98,74.72c0,1.24-.68,1.62-1.65,2.19a6.79,6.79,0,0,0-1.7,1.26,4.16,4.16,0,0,0-.73,2.65v.3a3.27,3.27,0,0,1-.5,1.69l0,.09a4.5,4.5,0,0,1-1.07,1.6,14.83,14.83,0,0,1-1.36,1.1A12.61,12.61,0,0,0,89,87.24a33,33,0,0,0-2.94,4.12l-.17.27C85,93.09,84,94.74,84.65,95.72a1.52,1.52,0,0,0,1.38.61,5.29,5.29,0,0,0,.54,0,13.2,13.2,0,0,0,2.85-.85l.17-.07c1.06-.4,2.12-.77,3.2-1.14a15.61,15.61,0,0,0,1.81-.82l.55-.27q.84-.31,1.68-.66l.17-.07c1.29-.54,2.57-1.14,3.8-1.79,2.65-1.39,5-2.74,7.18-4.12a27.46,27.46,0,0,0,3.62-2.65l.06,0a45.24,45.24,0,0,0,14.39-15.2L126,69a5.54,5.54,0,0,0,.29,2.41c.06.18.14.36.22.54.2.45.39.88.24,1.2a21.54,21.54,0,0,1-1.47,2.5A21.67,21.67,0,0,0,123.85,78s-1.17,2.41-.32,3.65a1.57,1.57,0,0,0,1.55.62c3.61-.3,7-3.13,9.74-5.41l.66-.55c6.56-5.43,11.2-13.38,12.1-20.75a21.3,21.3,0,0,0,.16-3.25c-.26,0-.52.09-.78.16-3.8.92-6.54,3.81-10,4.87-4.47,1.35-9,.19-13.51-.05-6.84-.37-12,2.12-18.35,4.19-15.39,5-26.69,1-42.58-1.67C51,57.89,39.41,56.61,27.88,57.07l-.13.09A4.91,4.91,0,0,1,27.24,57.55Z"/></g><g class="cls-16"><path class="cls-17" d="M29.66,51.58c-2.81.19-5-1-7.6-1.21-2.38-.19-5.18.55-7.8.81-3.35.33-5.69.52-8.23,2.7-.83.72-1.77,2-2.72,2.93C2.6,57.48-.11,58.78,0,60c.3,3.06,12.77,3.35,15.27,3.4,3,.07,7.15-2.2,10-.64,1,.57,1.29,2.39,2.46,3.16s3.57,1,5,1.29c10.16,2,19.7,4.06,30,3.58,9.24-.43,18.34-.53,27.54-1.19,5.8-.42,11.57-2.46,17.34-2.57,3.64-.06,6.66,1.4,10.34,1.08,8.09-.7,16.44-1.36,24.43-2.86,5.05-1,20.89-4.35,20.07-11.41C161.86,48.37,149.91,43,145.68,46c3.48,4.4-1.62,6.11-5.21,8.42-4.88,3.14-8.18,1.89-13.63,1.59-8.8-.49-16.41,3-24.68,4.5A163,163,0,0,1,74,62.69c-4.19,0-7.65-1.83-11.87-1.91s-7.37-1.25-11.4-2a148.28,148.28,0,0,0-14.72-2c-4.1-.37-13.19-.43-6-5.59"/></g><g class="cls-18"><path class="cls-19" d="M26.86,50.78c-2.59-.9-7.09-.94-8.48,2,5.31,5.73,14.29,6.28,21.68,7.29,9.42,1.28,19,1.44,28.4,2.62,9.65,1.21,18.6-1.08,28.27-1.5,10.42-.46,20.41-1.68,30.72-2.83,4.76-.53,9.67-.52,14.36-1.38,5-.91,14.68-2.63,9.65-4.2-3.2-1-3.15-4-3.8-4.8-2.5-3.29-1,.85-2.2,2.4-2.51,3.37-5,4-9.3,5.3-4.1,1.25-3.3-1.3-5.3-.1-1,.6-16.94.25-21.53.71-8.54.85-17,2.21-25.25,3.26-4.67.59-8.71,2.53-13.61,2-4.71-.47-9.12-2-13.71-2.81C51.83,57.86,48,57.24,43.41,55c-3.74-1.86-8-4.48-11.33-.33-2-.53-3.11-1.38-3.22-3.47-2-.1-4.37-.24-6.4-.4"/></g></g></g></g></svg>