<svg xmlns="http://www.w3.org/2000/svg" viewBox="0 0 123.17 89.73"><defs><style>.cls-1{fill:#ffd060;}.cls-1,.cls-2,.cls-4{stroke:#bd642a;}.cls-1,.cls-4{stroke-miterlimit:10;}.cls-2,.cls-5{fill:#bd642a;}.cls-2{stroke-linecap:round;stroke-linejoin:round;}.cls-3{fill:#2d2d2d;}.cls-4{fill:#cf823e;}</style></defs><title>Pez</title><g id="Capa_2" data-name="Capa 2"><g id="Capa_5" data-name="Capa 5"><path class="cls-1" d="M120,40.53c-10-2.15-14.09-10-15.78-14.56s-4.14-7.66-7-8.28-7.51-4.44-7.51-4.44A72,72,0,0,0,65,13.08c-11.53,2.07-19.81,7.15-24.87,12.64C34.52,31.83,32.9,41.59,32.44,47c-.21,2.4-.19,3.94-.19,3.94h-.08c-1.69,0-16.74,1.59-18.52,2.47s8.43,14.48,11.69,11.52c1.15-1.05,2.26-2.08,3.2-3,1.29-1.21,5.09-4.87,5.09-4.87s2.22,2,2.32,2,8.1,8,23.4,11.31c17.23,3.72,23.13,1.93,30.33-1.73l3-1.5c.29-.14.56-.27.84-.43l.3-.16.37-.21c8.46-4.87,14.88-15,14.88-15C122.13,49,120.9,47,120.9,47,125.35,42.82,120,40.53,120,40.53Z"/><path class="cls-2" d="M120.9,47c-4.82,2-12,1.52-13.63,1.11.21-.07.57,0,.57-.08s-.8-.31-1,0,.3.68.35.63-.09-.16-.11-.31C112.08,50.24,121.54,47.93,120.9,47Z"/><path class="cls-3" d="M97.13,38a2.49,2.49,0,1,1-2.48-2.48A2.48,2.48,0,0,1,97.13,38Z"/><path class="cls-4" d="M89.68,68.68a112.12,112.12,0,0,0-10.91,6.17s-.92,6.43-10,10.41-17.16,6.44-22.68,0S33.42,72.39,31.73,69a6.73,6.73,0,0,1,.44-6.46L36,59.1A85.08,85.08,0,0,0,47,66C52.08,68.7,70.07,77.39,89.68,68.68Z"/><path class="cls-4" d="M89.63,13.24C89.39,13.07,72.34,1.15,52.11.54S26.82,7.27,26.82,7.27c-8.92,8.92-5,26.82-1.9,36.71,1.28,4.07,7,6.79,7.31,7h0s0-1.54.19-3.94c.46-5.41,2.08-15.17,7.71-21.28C45.21,20.23,53.49,15.15,65,13.08a72,72,0,0,1,24.63.17Z"/><path class="cls-4" d="M31.13,59.5C29.86,60.73,19.6,70.62,17,71.48c-2.76.91-9.65-4.45-13-9.2S-.45,52.47,1.39,51.56s29.09-.64,30.78-.62c-.86.1-10.32,1.24-9.65,3s6.13.64,6.13.64-6.26,3.29-4.87,4.55c1.13,1,5.32-1.54,6.88-2.58-1.21.87-3.42,3.37-2.68,4.11S30.63,59.94,31.13,59.5Z"/><path class="cls-5" d="M40.26,62.3c-.18-.8-1.17,0-1.47.24a16.64,16.64,0,0,0-2.1,2.26,6.22,6.22,0,0,0-.65.9c-.06.12.1.27.2.15.45-.56.9-1.12,1.37-1.67a8.51,8.51,0,0,1,1.94-1.85c.19-.12.48-.31.59,0a.06.06,0,0,0,.12,0Z"/><path class="cls-5" d="M44.55,64c-1,0-1.91,1-2.53,1.71a25.82,25.82,0,0,0-2.47,3.42c-.33.54-.69,1.07-1,1.63-.07.12.11.28.2.16.41-.53.74-1.12,1.1-1.67.47-.74,1-1.47,1.47-2.18A13.94,13.94,0,0,1,43,65.17a3.2,3.2,0,0,1,1.55-1,.08.08,0,0,0,0-.15Z"/><path class="cls-5" d="M51.33,67.62c-1.18-.23-2.22,1.29-2.81,2.07a41.57,41.57,0,0,0-2.81,4.6c-.36.64-.75,1.27-1.12,1.91-.07.12.1.26.2.15a8.35,8.35,0,0,0,.94-1.4c.42-.7.82-1.4,1.24-2.1a21.82,21.82,0,0,1,2.79-4.06,2.69,2.69,0,0,1,1.54-1c.1,0,.14-.16,0-.19Z"/><path class="cls-5" d="M58,70.36c-1.17,2.27-3.24,3.87-4.69,5.92s-2.57,4.34-4.31,6.2c-.11.11.05.26.16.17,1.93-1.59,3-4,4.4-6s3.59-3.79,4.6-6.18c0-.11-.1-.21-.16-.1Z"/><path class="cls-5" d="M67.9,71.68A5.71,5.71,0,0,0,66.19,74a23.14,23.14,0,0,1-1.69,2.78c-.72,1-1.44,2-2.24,2.91a17.85,17.85,0,0,1-2.66,2.48c-.14.11,0,.3.17.23a9.45,9.45,0,0,0,2.67-2.29c.78-.89,1.47-1.85,2.17-2.8a22,22,0,0,0,1.72-2.77A17.68,17.68,0,0,1,68,71.82c.06-.09-.06-.19-.14-.14Z"/><path class="cls-5" d="M73.56,72.21c0,2-1.51,3.84-2.6,5.36C69.65,79.42,68,81.06,66.81,83c-.07.1.09.22.17.13a57.07,57.07,0,0,0,4.52-5.65,25.46,25.46,0,0,0,1.63-2.7,4.19,4.19,0,0,0,.6-2.55c0-.1-.16-.07-.17,0Z"/><path class="cls-5" d="M28.27,57.59c-3.87,3-8.34,5.33-11.72,9a.15.15,0,0,0,.21.21c3.55-3.44,8.12-5.6,11.67-9,.1-.1-.05-.24-.16-.15Z"/><path class="cls-5" d="M26.22,55.9a52.27,52.27,0,0,0-7.09,3c-1.14.56-2.25,1.18-3.36,1.81a26,26,0,0,0-3.29,2.13c-.15.12,0,.34.2.26,1.11-.58,2.16-1.3,3.23-1.92s2.23-1.24,3.36-1.83c2.28-1.17,4.65-2.19,7-3.18.14-.06.09-.28-.06-.23Z"/><path class="cls-5" d="M23.7,54.29a56.88,56.88,0,0,0-7.82.88c-2.65.45-5.33.79-8,1.3-.16,0-.12.3,0,.29a49.86,49.86,0,0,0,7.68-1.1c2.68-.48,5.36-.94,8.07-1.22.09,0,.1-.15,0-.15Z"/><path class="cls-5" d="M32.25,44.05c-2.45.11-4.72-1.26-6.69-2.53-.11-.07-.23.09-.14.17a11.28,11.28,0,0,0,3.29,2,6.77,6.77,0,0,0,3.57.6c.13,0,.1-.23,0-.22Z"/><path class="cls-5" d="M34.05,34.9a5.52,5.52,0,0,1-2.8-.81A11.09,11.09,0,0,1,28.79,32a26.84,26.84,0,0,1-2.06-2.68c-.52-.77-1-1.6-1.56-2.33-.13-.16-.34,0-.26.2a19.08,19.08,0,0,0,1.65,2.64,23,23,0,0,0,2.18,2.74c1.26,1.34,3.32,3.13,5.34,2.59.12,0,.09-.21,0-.22Z"/><path class="cls-5" d="M40.87,25.19a35.84,35.84,0,0,1-3.24-2.93,35.93,35.93,0,0,1-3-3.46,14.29,14.29,0,0,1-1.94-3.66,13.32,13.32,0,0,1-.51-2c-.14-.74-.14-1.49-.26-2.22a.18.18,0,0,0-.34,0,9.7,9.7,0,0,0,.56,4.23,14.58,14.58,0,0,0,2,3.87,31.82,31.82,0,0,0,3,3.48c1,1,2.18,2.37,3.58,2.81a.1.1,0,0,0,.1-.17Z"/><path class="cls-5" d="M49.53,18.27c-1.39-.57-2.27-1.94-3.11-3.1a10.67,10.67,0,0,0-2.92-2.88,18.31,18.31,0,0,1-2.13-1.47c-.59-.51-1.11-1.1-1.66-1.65a9.65,9.65,0,0,1-1.29-1.49c-.42-.63-.56-1.37-.94-2a.27.27,0,0,0-.5.13c0,1.35,1.13,2.69,2,3.6.58.59,1.15,1.2,1.76,1.75a12.71,12.71,0,0,0,2.1,1.46A9.58,9.58,0,0,1,45,14.25c.48.52.89,1.11,1.33,1.67.82,1,1.77,2.3,3.17,2.54a.1.1,0,0,0,.06-.19Z"/><path class="cls-5" d="M59.7,14.07c-2.31-.08-3-3.14-4-4.71A14.2,14.2,0,0,0,52.57,6.1c-.56-.46-1.15-.89-1.73-1.32-.36-.26-.71-.53-1.06-.8a7.34,7.34,0,0,0-.91-.67c-.19-.09-.46.11-.32.32a7.69,7.69,0,0,0,1.8,1.56c.68.53,1.37,1,2,1.57a12,12,0,0,1,3.11,3.37c.87,1.53,1.94,4.63,4.23,4.13a.1.1,0,0,0,0-.19Z"/><path class="cls-5" d="M70.44,11.55c-.07.08-.18.24-.28.25s-.21-.1-.27-.12l-.73-.37a13.78,13.78,0,0,1-1.33-.8,19.67,19.67,0,0,1-2.46-1.9,23.91,23.91,0,0,1-2.1-2.17c-.32-.39-.64-.79-.94-1.2A6.32,6.32,0,0,0,61.42,4a.24.24,0,0,0-.4.24,4.19,4.19,0,0,0,.78,1.27c.29.4.59.78.9,1.16A19.63,19.63,0,0,0,64.89,9a16.47,16.47,0,0,0,2.42,1.82,10.55,10.55,0,0,0,2.86,1.35.17.17,0,0,0,.15,0,2.59,2.59,0,0,0,.26-.46c0-.09-.07-.19-.14-.11Z"/></g></g></svg>