<svg xmlns="http://www.w3.org/2000/svg" viewBox="0 0 307.79 183.34"><defs><style>.cls-1,.cls-11{fill:#2a4d9e;}.cls-1{stroke:#18377d;}.cls-1,.cls-2,.cls-3,.cls-5,.cls-8{stroke-miterlimit:10;}.cls-1,.cls-2,.cls-3,.cls-5{stroke-width:1.79px;}.cls-2{fill:#db222a;stroke:#c4121a;}.cls-3,.cls-7{fill:#23376a;}.cls-3{stroke:#182957;}.cls-4{fill:#bb2230;}.cls-12,.cls-5{fill:#e1bf73;}.cls-5{stroke:#c9a34c;}.cls-6{fill:#372f2b;}.cls-8{fill:#faec05;stroke:#d4a713;stroke-width:0.9px;}.cls-9{fill:#293d71;}.cls-10{fill:#f9f6f3;}</style></defs><title>LapaRoja</title><g id="Capa_2" data-name="Capa 2"><g id="Capa_5" data-name="Capa 5"><path class="cls-1" d="M198.1,8c2.53-.43,5.1-.66,7.66-1a.83.83,0,0,0,.05.32c1.24,2.79,3.48,5.32,2.18,8.77a1.31,1.31,0,0,0,.55,1.1c2.26,1.34,2,3.71,2.74,5.77s2.32,4,3.84,6.47c-1.23,2.91.26,6,2.13,9a4.25,4.25,0,0,1,.78,2.59c-.62,3.34.7,5.85,2.8,8.25a10.29,10.29,0,0,1,1.72,3.57c.48,1.43.39,3.16,1.16,4.36,1.84,2.89,1.32,5.83,1.18,9-.18,4.25.07,8.51-.85,12.72a4.72,4.72,0,0,0,.28,2.88c1.24,2.51.71,4.67-.57,7a13,13,0,0,0-1.16,4.37c-.41,2.72.37,3.93,3.1,5.28l-2.18,13.39-9.48,11-.14.2v0c-1.7,1.25-3.65,2.27-5.06,3.79-4.3,4.66-8.58,9.39-11.21,15.44a12,12,0,0,1,1.3-9.05c3-5.52,6.2-10.92,10.7-15.41a5,5,0,0,0,.83-1.36c.08-.16,0-.41-.15-1.21a15.61,15.61,0,0,0-2.92,1.7c-4.83,4.52-9.64,9.06-14.36,13.69a50.73,50.73,0,0,0-3.75,4.62l-.63-.37a33.52,33.52,0,0,1,2.14-4.76c3.32-5.17,6.79-10.24,10.19-15.36.88-1.34,1.7-2.72,2.55-4.09q3.24-2.73,6.47-5.47l-.74-.85a13,13,0,0,0-6.47,6.28,20.11,20.11,0,0,0-3.06,2.22c-4.21,4.39-8.33,8.88-12.51,13.31a6.14,6.14,0,0,1-1.3.83l-.07-.06c1.78-3.38,3.17-7,5.43-10.07,3.17-4.26,7-8,10.49-12a16.17,16.17,0,0,0,1.71-3.28c.5-.22-2.33,1.09-3.37,1.81-3.71,2.56-7.36,5.21-11.05,7.8-.13.09-.41,0-1-.09.15-.68.08-1.5.46-1.9,5.53-5.93,11.12-11.79,16.69-17.68a17.77,17.77,0,0,0,1.06-1.48c-4.6-.25-7.43,3.67-11.34,3.67-.85-3.46,1.22-7.14,4.85-9a60.34,60.34,0,0,0,6.68-3.82c-3.66-1.4-7.22-2.29-10.81-.36-3.18-2.4-3.53-5.8-.23-8.77,2.43-2.18,5.64-3.5,8.53-5.17a26.78,26.78,0,0,1,2.5-1.12l-.11-.88c-1.32,0-2.63,0-4,0-2.13,0-4.26,0-6.38-.1s-2.76-1.55-2.1-3.13a22.25,22.25,0,0,1,3.28-5.06,11.39,11.39,0,0,1,2.52-1.85l-.6-.5a57.68,57.68,0,0,1-6.87-.62c-2.75-.57-5.42-1.47-6.5-4.61-.92-2.64-.55-4.89,1.54-6.79.53-.49,1-1,1.87-1.77l-3.39-.83a9.41,9.41,0,0,1-5.57-3.66c-1.77-2.44-1.86-3.76-.09-6.13.64-.85,1.3-1.67,2-2.61-8.4-.9-9.34-1.84-7.36-8H170a2.54,2.54,0,0,1-.39,0l-.7-1.21a8,8,0,0,0-2.2-.88c-12.77-.88-25.53-1.84-38.3-2.51C117,13.71,105.6,13.47,94.23,13a24.73,24.73,0,0,1-4.43-1c-.22-.48-.45-1-.67-1.43l3.7-2.5c1.29-.07,2.59-.18,3.89-.19,23,0,46,0,68.93-.16a96.36,96.36,0,0,0,11.61-1.08C182.52,6,187.75,5.16,193,4.4,193.81,8.38,194.31,8.68,198.1,8Z"/><path class="cls-2" d="M225.69,98.45l-2.18,13.39c3.84-3.94,7.91-7.68,11.49-11.84,5.5-6.42,8.31-14.22,11.12-22.12,3.59-10,1.84-19.82.24-29.74-.07,0-.19-.12-.18-.16a1.69,1.69,0,0,1,.12-.44v-.75c-.12-1.55-.27-3.1-.37-4.66-.26-4.07-.59-8.14-.71-12.22-.08-2.55.82-2.95,3.15-2.24,3.67,1.1,7.38,2,11.11,2.9a51.54,51.54,0,0,0,7.3,1.14c2.51.2,5,.08,7.55.11-.39-3.54-.89-7.07-1.13-10.62a4.54,4.54,0,0,1,2.72-4.79c3.19-1.29,6.47-3.05,9.77-3.21,6.08-.29,7.92,1.59,7.76,6.86,0,.65,0,1.3.05,2l10.3-4.78C302.21,8.65,298.41,4.86,290.08,3c-7.07-1.62-14-.75-20.94.59a66,66,0,0,1-29.22-1A64,64,0,0,0,221.59,1c-8.94.41-17.85,1.85-26.76,2.87A10.21,10.21,0,0,0,193,4.4c.82,4,1.32,4.28,5.11,3.64,2.53-.43,5.1-.66,7.66-1a59.14,59.14,0,0,1,21.88-.55c-.38,4.21.75,7.42,3.6,10,.51.47.45,1.75.35,2.63-.43,3.78-1.23,7.7,1.24,11,1.31,1.75,1.28,3.1.72,5-1.1,3.72-1.5,7.45,1.56,10.69a3.64,3.64,0,0,1,.42,2.6c-.41,3.52-.33,6.87,1.74,10a4.62,4.62,0,0,1,.1,3.25c-.81,3-1.21,5.9.14,8.87a2.82,2.82,0,0,1-.17,2.34c-2.3,3.46-3.25,7.06-1.44,11.08-3.33,2.44-5.11,5.46-4.32,8.88Z"/><path class="cls-3" d="M203.46,101.59a16.17,16.17,0,0,1-1.71,3.28c-3.46,4-7.32,7.79-10.49,12-2.26,3-3.65,6.69-5.43,10.07-.14.22-.29.44-.42.67,0,0,.14.1.21.15l.28-.76a6.14,6.14,0,0,0,1.3-.83c4.18-4.43,8.3-8.92,12.51-13.31a20.11,20.11,0,0,1,3.06-2.22l.74,0c-.85,1.37-1.67,2.75-2.55,4.09-3.4,5.12-6.87,10.19-10.19,15.36a33.52,33.52,0,0,0-2.14,4.76l.63.37a50.73,50.73,0,0,1,3.75-4.62c4.72-4.63,9.53-9.17,14.36-13.69a15.61,15.61,0,0,1,2.92-1.7c.11.8.23,1,.15,1.21a5,5,0,0,1-.83,1.36c-4.5,4.49-7.7,9.89-10.7,15.41a12,12,0,0,0-1.3,9.05c2.63-6.05,6.91-10.78,11.21-15.44,1.41-1.52,3.36-2.54,5.06-3.79a10.93,10.93,0,0,1-.75,1.71c-7.66,11.31-15.46,22.53-23,33.93-4.42,6.69-8.37,13.69-12.6,20.51a20.85,20.85,0,0,1-2.61,2.89l-.63-.45c.34-9.14,3.42-17.52,7.65-25.5s8.6-15.7,12.91-23.54a1.44,1.44,0,0,0-1.11.75c-5.73,8-11.42,16.1-17.19,24.1-1.07,1.48-1.89,3.39-4.27,3.75a9.26,9.26,0,0,1-.43-2.34c.41-5,1.51-9.86,4.53-14.06,1.77-2.47,3.54-4.93,5.27-7.43,1-1.44,1.94-2.93,2.9-4.39-4.54,1.6-5.56,7.29-11,8.54a17,17,0,0,1,.32-3.92c.87-2.43,1.61-5.05,3.08-7.1,4-5.54,8.32-10.82,12.51-16.2l.54-.87-1.18.2-13,11.91a28.31,28.31,0,0,1,0-4,21.74,21.74,0,0,1,7.72-13.09l1.25-.61-.12-.35-1.66.37c-4.45.17-5.05-.56-2.9-4.53a93.28,93.28,0,0,1,5.68-8.28c-3-1.4-3.63-2.26-2.45-4.95.87-2,2.52-3.62,3.43-4.89a73.51,73.51,0,0,1,.42-8c.39-2.45,1.42-4.79,2-7.22a5.15,5.15,0,0,0-.2-3.33C184.7,59,180.53,51.31,178.6,42.62a5.26,5.26,0,0,0-.34-1.86,55.09,55.09,0,0,1-7-18.23,9.11,9.11,0,0,0-1.14-2.21l-.2-1.41h4.79c-2,6.16-1,7.1,7.36,8-.74.94-1.4,1.76-2,2.61-1.77,2.37-1.68,3.69.09,6.13a9.41,9.41,0,0,0,5.57,3.66l3.39.83c-.82.78-1.34,1.28-1.87,1.77-2.09,1.9-2.46,4.15-1.54,6.79,1.08,3.14,3.75,4,6.5,4.61a57.68,57.68,0,0,0,6.87.62l.6.5a11.39,11.39,0,0,0-2.52,1.85,22.25,22.25,0,0,0-3.28,5.06c-.66,1.58,0,3,2.1,3.13s4.25.08,6.38.1c1.32,0,2.63,0,4,0l.11.88a26.78,26.78,0,0,0-2.5,1.12c-2.89,1.67-6.1,3-8.53,5.17-3.3,3-2.95,6.37.23,8.77,3.59-1.93,7.15-1,10.81.36a60.34,60.34,0,0,1-6.68,3.82c-3.63,1.89-5.7,5.57-4.85,9,3.91,0,6.74-3.92,11.34-3.67a17.77,17.77,0,0,1-1.06,1.48c-5.57,5.89-11.16,11.75-16.69,17.68-.38.4-.31,1.22-.46,1.9.61.06.89.18,1,.09,3.69-2.59,7.34-5.24,11.05-7.8a31,31,0,0,1,3.37-1.8Z"/><path class="cls-2" d="M170.15,20.32l-.2-1.41a2.54,2.54,0,0,1-.39,0l-.7-1.21a8,8,0,0,0-2.2-.88c-12.77-.88-25.53-1.84-38.3-2.51C117,13.71,105.6,13.47,94.23,13a24.73,24.73,0,0,1-4.43-1c-.22-.48-.45-1-.67-1.43l3.7-2.5c-32-.86-85,1-89.94,3.73,3.08.36,6.15.94,9.23,1.06,19.53.76,39.06,1.37,58.59,2.12S110,16.51,129.6,17.45c4,.19,7.92,1.18,11.88,1.81l.07-.87c3.59.84,7.47,1.1,10.67,2.71,1.95,1,3.87.54,5.42,1.26,3.17,1.47,6.33.91,9.49,1C170.05,23.46,170.05,23.34,170.15,20.32Z"/><path class="cls-4" d="M274.32,31.82c-2.52,0-5,.09-7.55-.11a51.54,51.54,0,0,1-7.3-1.14c-3.73-.85-7.44-1.8-11.11-2.9-2.33-.71-3.23-.31-3.15,2.24.12,4.08.45,8.15.71,12.22.1,1.56.25,3.11.37,4.66.11-1.68,1.49-1.62,2.6-1.87,10.43-2.38,20.93-4.19,31.68-4,.54,0,1.08-.07,1.61-.11l.21-1.17A7.29,7.29,0,0,1,276,35.33C275.41,34.18,274.88,33,274.32,31.82Z"/><path class="cls-4" d="M170.15,20.32c-.1,3-.1,3.14-3,3.05-3.16-.1-6.32.46-9.49-1-1.55-.72-3.47-.27-5.42-1.26-3.2-1.61-7.08-1.87-10.67-2.71l-.07.87c7.14,2.41,12.66,7.21,18.06,12.22s11.7,9.16,19.06,11.14a5.26,5.26,0,0,0-.34-1.86,55.09,55.09,0,0,1-7-18.23A9.11,9.11,0,0,0,170.15,20.32Z"/><path class="cls-5" d="M303.79,17.23,293.49,22l-1.39,2.73c1.13,2,2.28,3.88,3.4,5.84,1.55,2.72,3.22,5.42,2.22,8.79L297,45.64C305.83,44,310.31,26.27,303.79,17.23Z"/><path class="cls-6" d="M297.72,39.37c1-3.37-.67-6.07-2.22-8.79-1.12-2-2.27-3.89-3.4-5.84a8.11,8.11,0,0,1-2.51,3c-4.09,2.84-7,6.65-7.2,12l-.21,1.17C287.51,41.86,292.63,40.83,297.72,39.37Z"/><path class="cls-7" d="M214,122.88l-.14.2Z"/><path class="cls-4" d="M246.3,47.54a1.69,1.69,0,0,0-.12.44s.11.11.18.16A.64.64,0,0,0,246.3,47.54Z"/><path class="cls-8" d="M225.69,98.45l5.89-5.52c-.79-3.42,1-6.44,4.32-8.88-1.81-4-.86-7.62,1.44-11.08a2.82,2.82,0,0,0,.17-2.34c-1.35-3-.95-5.87-.14-8.87a4.62,4.62,0,0,0-.1-3.25c-2.07-3.14-2.15-6.49-1.74-10a3.64,3.64,0,0,0-.42-2.6c-3.06-3.24-2.66-7-1.56-10.69.56-1.92.59-3.27-.72-5-2.47-3.3-1.67-7.22-1.24-11,.1-.88.16-2.16-.35-2.63-2.85-2.63-4-5.84-3.6-10a59.14,59.14,0,0,0-21.88.55.83.83,0,0,0,.05.32c1.24,2.79,3.48,5.32,2.18,8.77a1.31,1.31,0,0,0,.55,1.1c2.26,1.34,2,3.71,2.74,5.77s2.32,4,3.84,6.47c-1.23,2.91.26,6,2.13,9a4.25,4.25,0,0,1,.78,2.59c-.62,3.34.7,5.85,2.8,8.25a10.29,10.29,0,0,1,1.72,3.57c.48,1.43.39,3.16,1.16,4.36,1.84,2.89,1.32,5.83,1.18,9-.18,4.25.07,8.51-.85,12.72a4.72,4.72,0,0,0,.28,2.88c1.24,2.51.71,4.67-.57,7a13,13,0,0,0-1.16,4.37C222.18,95.89,223,97.1,225.69,98.45Z"/><path class="cls-9" d="M202.77,110.69l.74,0q3.24-2.73,6.47-5.47l-.74-.85A13,13,0,0,0,202.77,110.69Z"/><path class="cls-4" d="M168.86,17.7l.7,1.21Z"/><path class="cls-10" d="M276,35.33c-.6-1.15-1.13-2.34-1.69-3.51-.39-3.54-.89-7.07-1.13-10.62a4.54,4.54,0,0,1,2.72-4.79c3.19-1.29,6.47-3.05,9.77-3.21,6.08-.29,7.92,1.59,7.76,6.86,0,.65,0,1.3.05,2l-1.39,2.73a8.11,8.11,0,0,1-2.51,3c-4.09,2.84-7,6.65-7.2,12A7.29,7.29,0,0,1,276,35.33Zm3.88-15.63a4.83,4.83,0,0,0,4.61,4.87,4.74,4.74,0,1,0,.36-9.48A5.05,5.05,0,0,0,279.89,19.7Z"/><path class="cls-11" d="M185.83,127c-.14.22-.29.44-.42.67,0,0,.14.1.21.15l.28-.76Z"/><path class="cls-12" d="M289.44,19.66a4.77,4.77,0,0,1-4.94,4.91,4.83,4.83,0,0,1-4.61-4.87,5.05,5.05,0,0,1,5-4.61A4.75,4.75,0,0,1,289.44,19.66Z"/><circle class="cls-6" cx="285.83" cy="20" r="2.54"/></g></g></svg>