<?xml version="1.0" encoding="utf-8"?>
<!-- Generator: Adobe Illustrator 22.0.1, SVG Export Plug-In . SVG Version: 6.00 Build 0)  -->
<svg version="1.1" id="Layer_1" xmlns="http://www.w3.org/2000/svg" xmlns:xlink="http://www.w3.org/1999/xlink" x="0px" y="0px"
	 viewBox="0 0 54.1 54.1" style="enable-background:new 0 0 54.1 54.1;" xml:space="preserve">
<style type="text/css">
	.st0{opacity:0.3;}
	.st1{fill:#FFFFFF;}
	.st2{fill:url(#SVGID_1_);}
	.st3{fill:#BF703A;}
	.st4{fill:#FBC30F;}
	.st5{fill:#ED700D;}
</style>
<title>01</title>
<g>
	<g id="Capa_2">
		<g id="Layer_1_1_">
			<g class="st0">
				<circle cx="28.8" cy="28.8" r="25.3"/>
			</g>
			<circle class="st1" cx="25.3" cy="25.3" r="25.3"/>
			
				<radialGradient id="SVGID_1_" cx="25.33" cy="30.7" r="21.955" gradientTransform="matrix(1 0 0 -1 0 56)" gradientUnits="userSpaceOnUse">
				<stop  offset="0" style="stop-color:#FBB03B"/>
				<stop  offset="0.47" style="stop-color:#FBAE39"/>
				<stop  offset="0.74" style="stop-color:#FAA631"/>
				<stop  offset="0.95" style="stop-color:#F89823"/>
				<stop  offset="1" style="stop-color:#F7931E"/>
			</radialGradient>
			<path class="st2" d="M25.3,47.3c-12.2,0-22-9.8-22-22s9.8-22,22-22s22,9.8,22,22S37.5,47.3,25.3,47.3L25.3,47.3z"/>
			<path class="st3" d="M25.3,4c11.8,0,21.3,9.6,21.3,21.3s-9.6,21.3-21.3,21.3C13.5,46.6,4,37.1,4,25.3C4,13.6,13.5,4,25.3,4
				C25.3,4,25.3,4,25.3,4 M25.3,2.7C12.8,2.7,2.7,12.8,2.7,25.3S12.9,48,25.4,47.9C37.9,47.9,48,37.8,48,25.3
				C48,12.8,37.8,2.7,25.3,2.7C25.3,2.7,25.3,2.7,25.3,2.7L25.3,2.7z"/>
			<path class="st4" d="M5.7,31.4c0-13.6,11-24.6,24.5-24.6c0,0,0,0,0,0c2.6,0,5.1,0.4,7.5,1.2C28.3,1.2,15,3.3,8.1,12.8
				C3.6,18.9,2.8,27,5.9,34C5.8,33.1,5.7,32.3,5.7,31.4z"/>
			<g>
				<path class="st5" d="M44.9,19.2C45,32.8,34,43.8,20.5,43.8c-2.6,0-5.1-0.4-7.6-1.2c9.5,6.9,22.8,4.8,29.7-4.8
					c4.5-6.2,5.3-14.2,2.2-21.2C44.9,17.5,44.9,18.4,44.9,19.2z"/>
			</g>
			<path class="st1" d="M33.8,36.4c-0.5,0-1-0.2-1.3-0.6l-0.2-0.2c-0.7-0.7-0.8-1.8-0.1-2.6c4.1-4.8,4-11.9-0.2-16.6
				c-0.7-0.8-0.6-1.9,0.1-2.6l0.2-0.2c0.4-0.4,0.8-0.6,1.3-0.6c0.5,0,1,0.2,1.4,0.6c5.5,6.2,5.6,15.6,0.3,21.9
				C34.9,36.1,34.4,36.4,33.8,36.4L33.8,36.4z M23.5,35.3c-0.4,0-0.9-0.2-1.2-0.4l-6.7-5.5h-3.4c-1.1,0-1.9-0.9-1.9-1.9v-5
				c0-1.1,0.9-1.9,1.9-1.9h3.4l6.7-5.5c0.6-0.5,1.3-0.6,2-0.3c0.7,0.3,1.1,1,1.1,1.7v16.9C25.4,34.4,24.6,35.3,23.5,35.3
				C23.5,35.3,23.5,35.3,23.5,35.3L23.5,35.3z M29.5,32.1c-0.5,0-1-0.2-1.4-0.6L28,31.4c-0.7-0.7-0.7-1.7-0.2-2.5
				c1.8-2.4,1.7-5.8-0.2-8.1c-0.6-0.8-0.6-1.9,0.1-2.5l0.2-0.2c0.4-0.4,0.8-0.6,1.3-0.6h0.1c0.5,0,1,0.3,1.4,0.7
				c3.1,3.8,3.2,9.2,0.3,13.2c-0.3,0.4-0.8,0.7-1.4,0.8L29.5,32.1z"/>
			<path class="st3" d="M33.6,13.8L33.6,13.8c0.3,0,0.7,0.2,0.9,0.4c5.3,6,5.4,14.9,0.3,21.1c-0.2,0.3-0.6,0.4-0.9,0.4h0
				c-0.3,0-0.7-0.1-0.9-0.4l-0.2-0.2c-0.5-0.5-0.5-1.2-0.1-1.7c4.3-5.1,4.2-12.5-0.2-17.5c-0.4-0.5-0.4-1.2,0-1.7l0.2-0.2
				C32.9,13.9,33.2,13.8,33.6,13.8 M23.5,15.2c0.7,0,1.3,0.6,1.3,1.3v16.9c0,0.7-0.5,1.3-1.2,1.3c-0.3,0-0.6-0.1-0.8-0.3l-6.9-5.7
				h-3.7c-0.7,0-1.2-0.6-1.2-1.3c0,0,0,0,0,0v-5c0-0.7,0.6-1.2,1.2-1.2h3.6l6.9-5.7C23,15.3,23.3,15.2,23.5,15.2 M29.3,18.1
				L29.3,18.1c0.4,0,0.8,0.2,1,0.5c2.9,3.6,3,8.7,0.3,12.4c-0.2,0.3-0.6,0.5-0.9,0.5h-0.1c-0.3,0-0.6-0.1-0.9-0.4l-0.2-0.2
				c-0.4-0.4-0.5-1.1-0.1-1.6c2-2.7,1.9-6.3-0.2-8.9c-0.4-0.5-0.4-1.2,0.1-1.7l0.2-0.2C28.6,18.2,29,18.1,29.3,18.1 M33.6,12.5
				L33.6,12.5c-0.7,0-1.3,0.3-1.8,0.8l-0.2,0.2c-1,1-1,2.5-0.1,3.5c3.9,4.5,4,11.2,0.2,15.7c-0.9,1-0.8,2.5,0.1,3.5l0.2,0.2
				c0.5,0.5,1.1,0.8,1.8,0.8h0.1c0.7,0,1.4-0.4,1.9-0.9c5.6-6.6,5.5-16.3-0.3-22.8C35.1,12.8,34.4,12.5,33.6,12.5
				C33.7,12.5,33.6,12.5,33.6,12.5z M23.6,13.9c-0.6,0-1.2,0.2-1.6,0.6l-6.5,5.4h-3.2c-1.4,0-2.6,1.2-2.6,2.6v5
				c0,1.4,1.1,2.6,2.6,2.6c0,0,0,0,0,0h3.2l6.5,5.4c1.1,0.9,2.7,0.8,3.6-0.3c0.4-0.5,0.6-1.1,0.6-1.7V16.5
				C26.1,15.1,25,13.9,23.6,13.9C23.6,13.9,23.5,13.9,23.6,13.9L23.6,13.9z M29.3,16.8L29.3,16.8c-0.7,0-1.3,0.3-1.8,0.8l-0.2,0.2
				c-0.9,0.9-1,2.4-0.2,3.4c1.7,2.1,1.8,5.1,0.1,7.3c-0.7,1-0.6,2.4,0.2,3.3l0.2,0.2c0.5,0.5,1.1,0.8,1.8,0.7h0.2
				c0.7,0,1.4-0.4,1.9-1c3.1-4.2,3-10-0.3-14c-0.5-0.6-1.1-0.9-1.9-0.9L29.3,16.8z"/>
		</g>
	</g>
</g>
</svg>
