<svg xmlns="http://www.w3.org/2000/svg" viewBox="0 0 263 71"><defs><style>.cls-1{isolation:isolate;}.cls-2{opacity:0.3;mix-blend-mode:multiply;}.cls-3{fill:#fff;}.cls-4{fill:#22b573;}</style></defs><title>33</title><g class="cls-1"><g id="Capa_2" data-name="Capa 2"><g id="Layer_1" data-name="Layer 1"><g class="cls-2"><rect x="4" y="4" width="259" height="67" rx="12"/></g><rect class="cls-3" width="259" height="67" rx="12"/><rect class="cls-4" x="4.03" y="3.07" width="250.94" height="60.87" rx="11.19"/><path class="cls-3" d="M237.38,32.22,223.7,21.5a1.62,1.62,0,0,0-2.63,1.28h0c0,.89-.72,3.62-1.62,3.62h-5.06A1.62,1.62,0,0,0,212.77,28V39a1.62,1.62,0,0,0,1.62,1.62h5.06c.9,0,1.62,2.73,1.62,3.62h0a1.62,1.62,0,0,0,2.63,1.28l13.68-10.72A1.63,1.63,0,0,0,237.38,32.22Z"/><path class="cls-3" d="M34.6,12.37h9.15a1.68,1.68,0,0,1,1.19.45A1.55,1.55,0,0,1,45.42,14a1.4,1.4,0,0,1-.48,1.1,1.71,1.71,0,0,1-1.19.43H36.1l.25-.47v5.33l-.22-.22h6.39a1.68,1.68,0,0,1,1.19.45,1.52,1.52,0,0,1,.48,1.16,1.4,1.4,0,0,1-.48,1.11,1.75,1.75,0,0,1-1.19.42H36.21l.14-.22V28.6l-.22-.24h7.62a1.62,1.62,0,0,1,1.19.48,1.5,1.5,0,0,1,.48,1.1,1.44,1.44,0,0,1-.48,1.12,1.72,1.72,0,0,1-1.19.44H34.6a1.64,1.64,0,0,1-1.67-1.67V14a1.64,1.64,0,0,1,1.67-1.67Z"/><path class="cls-3" d="M48.52,16.88a1.68,1.68,0,0,1,1.34.68L59,28.9a1.56,1.56,0,0,1-.16,2.16,1.61,1.61,0,0,1-2.49-.22L47.21,19.5a1.48,1.48,0,0,1-.36-1,1.52,1.52,0,0,1,.51-1.17A1.65,1.65,0,0,1,48.52,16.88Zm0,14.65a1.67,1.67,0,0,1-1.08-.43,1.25,1.25,0,0,1-.54-1,1.61,1.61,0,0,1,.41-1l4.18-5.11,1.64,2.73-3.3,4.18A1.59,1.59,0,0,1,48.55,31.53Zm9.1-14.65a1.5,1.5,0,0,1,1.1.45,1.41,1.41,0,0,1,.45,1,2,2,0,0,1-.08.54,1.2,1.2,0,0,1-.3.52l-4.13,5L53,22.07l3.36-4.45A1.61,1.61,0,0,1,57.65,16.88Z"/><path class="cls-3" d="M68.57,16.61a6.19,6.19,0,0,1,3.43,1,7,7,0,0,1,2.41,2.66,8.38,8.38,0,0,1,.88,3.94,8.48,8.48,0,0,1-.88,3.95A7,7,0,0,1,72,30.8a6.24,6.24,0,0,1-5.4.62,6.7,6.7,0,0,1-1.68-.9,5.61,5.61,0,0,1-1.12-1.11,1.77,1.77,0,0,1-.39-.94l.84-.36V35.3a1.64,1.64,0,0,1-.46,1.19,1.72,1.72,0,0,1-2.35,0A1.63,1.63,0,0,1,61,35.3V18.55a1.65,1.65,0,0,1,.47-1.19,1.68,1.68,0,0,1,2.35,0,1.64,1.64,0,0,1,.46,1.19v1.34l-.46-.25a1.59,1.59,0,0,1,.38-.86,5.29,5.29,0,0,1,1-1,5.93,5.93,0,0,1,1.51-.83A5.06,5.06,0,0,1,68.57,16.61Zm-.41,3a3.7,3.7,0,0,0-2.1.6,4.22,4.22,0,0,0-1.41,1.63,5.16,5.16,0,0,0-.5,2.34,5.27,5.27,0,0,0,.5,2.33,4.1,4.1,0,0,0,1.41,1.66,3.7,3.7,0,0,0,2.1.6,3.64,3.64,0,0,0,2.09-.6,4.16,4.16,0,0,0,1.4-1.66,5.41,5.41,0,0,0,.5-2.33,5.3,5.3,0,0,0-.5-2.34,4.28,4.28,0,0,0-1.4-1.63A3.64,3.64,0,0,0,68.16,19.61Z"/><path class="cls-3" d="M81.22,29.83A1.61,1.61,0,0,1,80.74,31a1.58,1.58,0,0,1-1.18.48A1.53,1.53,0,0,1,78.41,31a1.64,1.64,0,0,1-.47-1.19V13a1.64,1.64,0,0,1,1.67-1.67,1.52,1.52,0,0,1,1.16.48A1.66,1.66,0,0,1,81.22,13Z"/><path class="cls-3" d="M98.72,24.2a7.72,7.72,0,0,1-1,3.95,7.23,7.23,0,0,1-2.68,2.67,7.92,7.92,0,0,1-7.52,0,7.13,7.13,0,0,1-2.67-2.67,7.63,7.63,0,0,1-1-3.95,7.59,7.59,0,0,1,1-3.94,7.23,7.23,0,0,1,2.67-2.68,7.46,7.46,0,0,1,10.2,2.68A7.69,7.69,0,0,1,98.72,24.2Zm-3.28,0a4.88,4.88,0,0,0-.56-2.41,4.07,4.07,0,0,0-1.5-1.6,4.06,4.06,0,0,0-4.18,0,4.07,4.07,0,0,0-1.5,1.6,4.88,4.88,0,0,0-.56,2.41,4.86,4.86,0,0,0,.56,2.4,4.11,4.11,0,0,0,1.5,1.59,4.06,4.06,0,0,0,4.18,0,4.11,4.11,0,0,0,1.5-1.59A4.86,4.86,0,0,0,95.44,24.2Z"/><path class="cls-3" d="M102.84,31.5a1.56,1.56,0,0,1-1.17-.48,1.64,1.64,0,0,1-.47-1.19V18.55a1.65,1.65,0,0,1,.47-1.19,1.68,1.68,0,0,1,2.35,0,1.64,1.64,0,0,1,.46,1.19v2.57l-.19-1.83a4.08,4.08,0,0,1,.78-1.16,4.66,4.66,0,0,1,1.08-.85,4.89,4.89,0,0,1,1.28-.51,5.82,5.82,0,0,1,1.37-.16,2.07,2.07,0,0,1,1.38.46,1.41,1.41,0,0,1,.56,1.1,1.63,1.63,0,0,1-.46,1.29,1.53,1.53,0,0,1-1,.4,2.23,2.23,0,0,1-.94-.19,2.27,2.27,0,0,0-1-.19,2.46,2.46,0,0,0-1,.23,3.08,3.08,0,0,0-.93.72,3.87,3.87,0,0,0-.68,1.22,5.13,5.13,0,0,0-.26,1.71v6.47A1.63,1.63,0,0,1,104,31,1.57,1.57,0,0,1,102.84,31.5Z"/><path class="cls-3" d="M124.06,16.61a1.59,1.59,0,0,1,1.18.46,1.63,1.63,0,0,1,.46,1.21V29.83a1.63,1.63,0,0,1-.46,1.19,1.68,1.68,0,0,1-2.35,0,1.64,1.64,0,0,1-.47-1.19V28.49l.6.25a1.49,1.49,0,0,1-.38.86,5,5,0,0,1-1,1,6.24,6.24,0,0,1-1.54.83,5.26,5.26,0,0,1-1.93.34,6.22,6.22,0,0,1-3.41-1,6.8,6.8,0,0,1-2.42-2.67,8.43,8.43,0,0,1-.89-3.93,8.41,8.41,0,0,1,.89-3.94,6.92,6.92,0,0,1,2.39-2.68,6,6,0,0,1,3.33-1,6.44,6.44,0,0,1,2.16.35,6.3,6.3,0,0,1,1.71.91A5.1,5.1,0,0,1,123,19a1.83,1.83,0,0,1,.4,1l-1,.35v-2a1.64,1.64,0,0,1,.47-1.19A1.56,1.56,0,0,1,124.06,16.61Zm-5.52,12.16a3.73,3.73,0,0,0,2.11-.6,4,4,0,0,0,1.4-1.64,5.24,5.24,0,0,0,.51-2.33,5.3,5.3,0,0,0-.51-2.35,4.08,4.08,0,0,0-1.4-1.64,3.73,3.73,0,0,0-2.11-.6,3.64,3.64,0,0,0-2.07.6,4.18,4.18,0,0,0-1.41,1.64,5.3,5.3,0,0,0-.51,2.35,5.24,5.24,0,0,0,.51,2.33,4.11,4.11,0,0,0,1.41,1.64A3.64,3.64,0,0,0,118.54,28.77Z"/><path class="cls-3" d="M130.51,31.5a1.57,1.57,0,0,1-1.18-.48,1.63,1.63,0,0,1-.46-1.19V18.55a1.64,1.64,0,0,1,.46-1.19,1.68,1.68,0,0,1,2.35,0,1.65,1.65,0,0,1,.47,1.19v2.57L132,19.29a4.08,4.08,0,0,1,.78-1.16,4.41,4.41,0,0,1,1.07-.85,4.82,4.82,0,0,1,1.29-.51,5.74,5.74,0,0,1,1.36-.16,2.07,2.07,0,0,1,1.38.46,1.39,1.39,0,0,1,.57,1.1,1.6,1.6,0,0,1-.47,1.29,1.51,1.51,0,0,1-1,.4,2.19,2.19,0,0,1-.94-.19,2.33,2.33,0,0,0-1-.19,2.46,2.46,0,0,0-1,.23,2.85,2.85,0,0,0-.93.72,3.87,3.87,0,0,0-.68,1.22,4.88,4.88,0,0,0-.26,1.71v6.47a1.64,1.64,0,0,1-.47,1.19A1.56,1.56,0,0,1,130.51,31.5Z"/><path class="cls-3" d="M162.42,24.2a7.63,7.63,0,0,1-1,3.95,7.13,7.13,0,0,1-2.67,2.67,7.92,7.92,0,0,1-7.52,0,7.13,7.13,0,0,1-2.67-2.67,7.63,7.63,0,0,1-1-3.95,7.59,7.59,0,0,1,1-3.94,7.23,7.23,0,0,1,2.67-2.68,7.77,7.77,0,0,1,7.52,0,7.23,7.23,0,0,1,2.67,2.68A7.59,7.59,0,0,1,162.42,24.2Zm-3.28,0a4.88,4.88,0,0,0-.56-2.41,4.07,4.07,0,0,0-1.5-1.6,4.06,4.06,0,0,0-4.18,0,4.07,4.07,0,0,0-1.5,1.6,4.88,4.88,0,0,0-.56,2.41,4.86,4.86,0,0,0,.56,2.4,4.11,4.11,0,0,0,1.5,1.59,4.06,4.06,0,0,0,4.18,0,4.11,4.11,0,0,0,1.5-1.59A4.86,4.86,0,0,0,159.14,24.2Z"/><path class="cls-3" d="M164.52,17.16H171a1.51,1.51,0,0,1,1.1.43,1.49,1.49,0,0,1,.43,1.1,1.41,1.41,0,0,1-.43,1,1.54,1.54,0,0,1-1.1.42h-6.47a1.52,1.52,0,0,1-1.1-.44,1.47,1.47,0,0,1-.43-1.09,1.4,1.4,0,0,1,.43-1.05A1.54,1.54,0,0,1,164.52,17.16Zm2.92-3.42a1.52,1.52,0,0,1,1.16.48,1.66,1.66,0,0,1,.45,1.19V27.57a1.16,1.16,0,0,0,.15.62.84.84,0,0,0,.41.36,1.51,1.51,0,0,0,.56.11,1.46,1.46,0,0,0,.6-.12,1.45,1.45,0,0,1,.63-.13.92.92,0,0,1,.7.36,1.41,1.41,0,0,1,.31,1,1.44,1.44,0,0,1-.83,1.26,3.45,3.45,0,0,1-1.79.49,8.51,8.51,0,0,1-1.27-.1,3.32,3.32,0,0,1-1.31-.46,2.92,2.92,0,0,1-1-1.13,4.57,4.57,0,0,1-.41-2.11V15.41a1.64,1.64,0,0,1,1.67-1.67Z"/><path class="cls-3" d="M176.83,31.5a1.58,1.58,0,0,1-1.18-.48,1.63,1.63,0,0,1-.46-1.19V18.55a1.64,1.64,0,0,1,.46-1.19,1.58,1.58,0,0,1,1.18-.48,1.56,1.56,0,0,1,1.17.48,1.65,1.65,0,0,1,.47,1.19v2.57l-.19-1.83a4.08,4.08,0,0,1,.78-1.16,4.27,4.27,0,0,1,1.08-.85,4.76,4.76,0,0,1,1.28-.51,5.76,5.76,0,0,1,1.37-.16,2.11,2.11,0,0,1,1.38.46,1.41,1.41,0,0,1,.56,1.1,1.6,1.6,0,0,1-.47,1.29,1.49,1.49,0,0,1-1,.4,2.19,2.19,0,0,1-.94-.19,2.3,2.3,0,0,0-1-.19,2.46,2.46,0,0,0-1,.23,2.85,2.85,0,0,0-.93.72,3.87,3.87,0,0,0-.68,1.22,5.13,5.13,0,0,0-.26,1.71v6.47A1.64,1.64,0,0,1,178,31,1.56,1.56,0,0,1,176.83,31.5Z"/><path class="cls-3" d="M200.16,24.2a7.72,7.72,0,0,1-1,3.95,7.23,7.23,0,0,1-2.68,2.67,7.9,7.9,0,0,1-7.51,0,7.08,7.08,0,0,1-2.68-2.67,7.63,7.63,0,0,1-1-3.95,7.59,7.59,0,0,1,1-3.94A7.18,7.18,0,0,1,189,17.58a7.45,7.45,0,0,1,10.19,2.68A7.69,7.69,0,0,1,200.16,24.2Zm-3.27,0a5,5,0,0,0-.56-2.41,4.16,4.16,0,0,0-1.51-1.6,4.06,4.06,0,0,0-4.18,0,4.07,4.07,0,0,0-1.5,1.6,5.44,5.44,0,0,0,0,4.81,4.11,4.11,0,0,0,1.5,1.59,4.06,4.06,0,0,0,4.18,0,4.2,4.2,0,0,0,1.51-1.59A5,5,0,0,0,196.89,24.2Z"/><path class="cls-3" d="M44.31,41.61a10,10,0,0,1,2.72.33,4.4,4.4,0,0,1,1.8.91,1.84,1.84,0,0,1,.65,1.41,1.77,1.77,0,0,1-.33,1,1.09,1.09,0,0,1-1,.48,1.87,1.87,0,0,1-.72-.12,1.91,1.91,0,0,1-.51-.32,3.13,3.13,0,0,0-.52-.35,2.38,2.38,0,0,0-.83-.26,6.14,6.14,0,0,0-.83-.1,4.44,4.44,0,0,0-2.37.6,4.18,4.18,0,0,0-1.49,1.63,5.22,5.22,0,0,0-.52,2.36,4.93,4.93,0,0,0,.54,2.34,4.13,4.13,0,0,0,1.47,1.63,4,4,0,0,0,2.17.6,7.91,7.91,0,0,0,1.18-.08,3.06,3.06,0,0,0,.82-.25,6.19,6.19,0,0,0,.68-.46,1.64,1.64,0,0,1,2,.2,1.68,1.68,0,0,1,.38,1.11,1.57,1.57,0,0,1-.77,1.24,6.2,6.2,0,0,1-2,.9,10.08,10.08,0,0,1-2.7.34,6.94,6.94,0,0,1-3.74-1A6.62,6.62,0,0,1,38,53.06a8.43,8.43,0,0,1-.87-3.86A8.19,8.19,0,0,1,38,45.26a6.83,6.83,0,0,1,2.54-2.68A7.11,7.11,0,0,1,44.31,41.61Z"/><path class="cls-3" d="M52.93,40.11a2.16,2.16,0,0,1-1.31-.3,1.28,1.28,0,0,1-.38-1.07v-.52a1.22,1.22,0,0,1,.42-1.08,2.34,2.34,0,0,1,1.3-.29,2.18,2.18,0,0,1,1.34.31,1.29,1.29,0,0,1,.38,1.06v.52a1.24,1.24,0,0,1-.41,1.08A2.42,2.42,0,0,1,52.93,40.11ZM54.6,54.83A1.64,1.64,0,0,1,54.13,56a1.68,1.68,0,0,1-2.35,0,1.63,1.63,0,0,1-.46-1.19V43.55a1.64,1.64,0,0,1,.46-1.19,1.68,1.68,0,0,1,2.35,0,1.65,1.65,0,0,1,.47,1.19Z"/><path class="cls-3" d="M64,41.61a10,10,0,0,1,2.72.33,4.4,4.4,0,0,1,1.8.91,1.84,1.84,0,0,1,.65,1.41,1.77,1.77,0,0,1-.33,1,1.09,1.09,0,0,1-1,.48,1.87,1.87,0,0,1-.72-.12,1.91,1.91,0,0,1-.51-.32,3.13,3.13,0,0,0-.52-.35,2.38,2.38,0,0,0-.83-.26,6.14,6.14,0,0,0-.83-.1,4.44,4.44,0,0,0-2.37.6,4.18,4.18,0,0,0-1.49,1.63,5.22,5.22,0,0,0-.52,2.36,4.93,4.93,0,0,0,.54,2.34,4.13,4.13,0,0,0,1.47,1.63,4,4,0,0,0,2.18.6,7.86,7.86,0,0,0,1.17-.08,3.06,3.06,0,0,0,.82-.25,6.19,6.19,0,0,0,.68-.46,1.64,1.64,0,0,1,2,.2,1.68,1.68,0,0,1,.38,1.11,1.57,1.57,0,0,1-.77,1.24,6.2,6.2,0,0,1-2,.9,10.06,10.06,0,0,1-2.69.34,7,7,0,0,1-3.75-1,6.69,6.69,0,0,1-2.44-2.72,8.43,8.43,0,0,1-.86-3.86,8.18,8.18,0,0,1,.91-3.94,6.83,6.83,0,0,1,2.54-2.68A7.13,7.13,0,0,1,64,41.61Z"/><path class="cls-3" d="M74.64,54.83A1.64,1.64,0,0,1,73,56.5,1.51,1.51,0,0,1,71.83,56a1.64,1.64,0,0,1-.47-1.19V38A1.64,1.64,0,0,1,73,36.28a1.52,1.52,0,0,1,1.16.48A1.66,1.66,0,0,1,74.64,38Z"/><path class="cls-3" d="M92.14,49.2a7.63,7.63,0,0,1-1,3.95,7.15,7.15,0,0,1-2.68,2.67,7.9,7.9,0,0,1-7.51,0,7.23,7.23,0,0,1-2.68-2.67,8.36,8.36,0,0,1,0-7.89,7.58,7.58,0,0,1,10.19-2.68,7.25,7.25,0,0,1,2.68,2.68A7.59,7.59,0,0,1,92.14,49.2Zm-3.28,0a5,5,0,0,0-.56-2.41,4.07,4.07,0,0,0-1.5-1.6,4.06,4.06,0,0,0-4.18,0,4.16,4.16,0,0,0-1.51,1.6,5.44,5.44,0,0,0,0,4.81,4.2,4.2,0,0,0,1.51,1.59,4.06,4.06,0,0,0,4.18,0,4.11,4.11,0,0,0,1.5-1.59A5,5,0,0,0,88.86,49.2Z"/><path class="cls-3" d="M114.35,36.28A1.59,1.59,0,0,1,116,38V54.83a1.63,1.63,0,0,1-.46,1.19,1.68,1.68,0,0,1-2.35,0,1.64,1.64,0,0,1-.47-1.19V53.49l.61.25a1.52,1.52,0,0,1-.39.86,5,5,0,0,1-1,1,6.24,6.24,0,0,1-1.54.83,5.26,5.26,0,0,1-1.93.34,6.22,6.22,0,0,1-3.41-1,6.8,6.8,0,0,1-2.42-2.67,9.14,9.14,0,0,1,0-7.87A6.92,6.92,0,0,1,105,42.58a6,6,0,0,1,3.33-1,6.44,6.44,0,0,1,2.16.35,6.3,6.3,0,0,1,1.71.91A5.1,5.1,0,0,1,113.3,44a1.75,1.75,0,0,1,.4,1l-1,.35V38a1.64,1.64,0,0,1,.47-1.19A1.56,1.56,0,0,1,114.35,36.28Zm-5.52,17.49a3.71,3.71,0,0,0,2.11-.6,4,4,0,0,0,1.4-1.64,5.24,5.24,0,0,0,.51-2.33,5.3,5.3,0,0,0-.51-2.35,4.08,4.08,0,0,0-1.4-1.64,3.71,3.71,0,0,0-2.11-.6,3.64,3.64,0,0,0-2.07.6,4.18,4.18,0,0,0-1.41,1.64,5.3,5.3,0,0,0-.51,2.35,5.24,5.24,0,0,0,.51,2.33,4.11,4.11,0,0,0,1.41,1.64A3.64,3.64,0,0,0,108.83,53.77Z"/><path class="cls-3" d="M126,56.77a8,8,0,0,1-4-1,6.63,6.63,0,0,1-2.62-2.63,7.71,7.71,0,0,1-.92-3.77,8.37,8.37,0,0,1,1-4.2,7.1,7.1,0,0,1,2.61-2.66,6.74,6.74,0,0,1,3.42-.93,6.26,6.26,0,0,1,2.63.57,7.26,7.26,0,0,1,2.2,1.57,7.66,7.66,0,0,1,1.52,2.31,7.13,7.13,0,0,1,.56,2.79,1.42,1.42,0,0,1-.52,1.07,1.76,1.76,0,0,1-1.15.41H120.3l-.81-2.74h10l-.6.55V47.4a2.49,2.49,0,0,0-.56-1.42,3.69,3.69,0,0,0-2.85-1.37,5.33,5.33,0,0,0-1.53.22,2.87,2.87,0,0,0-1.23.74,3.56,3.56,0,0,0-.82,1.39,7,7,0,0,0-.3,2.22,4.8,4.8,0,0,0,.61,2.5,4.26,4.26,0,0,0,3.65,2.09,6.28,6.28,0,0,0,1.61-.17,3.9,3.9,0,0,0,1-.39c.25-.16.47-.29.67-.4a2.14,2.14,0,0,1,.93-.24,1.37,1.37,0,0,1,1.39,1.36,1.7,1.7,0,0,1-.76,1.34,6.41,6.41,0,0,1-2,1A7.93,7.93,0,0,1,126,56.77Z"/><path class="cls-3" d="M143.45,41.88a1.86,1.86,0,0,1,1,.26,1.55,1.55,0,0,1,.66.78l4,9.18-.61.27,4.1-9.42a1.44,1.44,0,0,1,1.45-1,1.5,1.5,0,0,1,1.11.42,1.46,1.46,0,0,1,.42,1.05,1.22,1.22,0,0,1-.07.41,2.19,2.19,0,0,1-.15.41l-5.11,11.26a1.55,1.55,0,0,1-1.39,1,1.53,1.53,0,0,1-1-.19,1.69,1.69,0,0,1-.72-.85L142,44.2c0-.09-.08-.2-.13-.35a2,2,0,0,1-.07-.52,1.45,1.45,0,0,1,.44-1A1.52,1.52,0,0,1,143.45,41.88Z"/><path class="cls-3" d="M159.09,40.11a2.16,2.16,0,0,1-1.31-.3,1.28,1.28,0,0,1-.39-1.07v-.52a1.2,1.2,0,0,1,.43-1.08,2.34,2.34,0,0,1,1.3-.29,2.13,2.13,0,0,1,1.33.31,1.26,1.26,0,0,1,.39,1.06v.52a1.24,1.24,0,0,1-.41,1.08A2.42,2.42,0,0,1,159.09,40.11Zm1.66,14.72a1.63,1.63,0,0,1-.46,1.19,1.68,1.68,0,0,1-2.35,0,1.63,1.63,0,0,1-.46-1.19V43.55a1.64,1.64,0,0,1,.46-1.19,1.68,1.68,0,0,1,2.35,0,1.64,1.64,0,0,1,.46,1.19Z"/><path class="cls-3" d="M175.65,36.28A1.59,1.59,0,0,1,177.28,38V54.83a1.63,1.63,0,0,1-.46,1.19,1.68,1.68,0,0,1-2.35,0,1.63,1.63,0,0,1-.46-1.19V53.49l.6.25a1.52,1.52,0,0,1-.39.86,5.19,5.19,0,0,1-1,1,6.5,6.5,0,0,1-1.55.83,5.24,5.24,0,0,1-1.92.34,6.23,6.23,0,0,1-3.42-1,6.8,6.8,0,0,1-2.42-2.67,9.14,9.14,0,0,1,0-7.87,6.92,6.92,0,0,1,2.39-2.68,6,6,0,0,1,3.34-1,6.52,6.52,0,0,1,2.16.35,6.39,6.39,0,0,1,1.7.91,5.1,5.1,0,0,1,1.12,1.1,1.75,1.75,0,0,1,.4,1l-1,.35V38a1.63,1.63,0,0,1,.46-1.19A1.57,1.57,0,0,1,175.65,36.28Zm-5.52,17.49a3.7,3.7,0,0,0,2.1-.6,4.11,4.11,0,0,0,1.41-1.64,5.38,5.38,0,0,0,.5-2.33,5.43,5.43,0,0,0-.5-2.35,4.18,4.18,0,0,0-1.41-1.64,3.7,3.7,0,0,0-2.1-.6,3.65,3.65,0,0,0-2.08.6,4.18,4.18,0,0,0-1.41,1.64,5.29,5.29,0,0,0-.5,2.35,5.24,5.24,0,0,0,.5,2.33,4.11,4.11,0,0,0,1.41,1.64A3.65,3.65,0,0,0,170.13,53.77Z"/><path class="cls-3" d="M192.42,41.61a1.58,1.58,0,0,1,1.17.46,1.64,1.64,0,0,1,.47,1.21V54.83a1.64,1.64,0,0,1-.47,1.19,1.68,1.68,0,0,1-2.35,0,1.63,1.63,0,0,1-.46-1.19V53.49l.6.25a1.52,1.52,0,0,1-.39.86,5.19,5.19,0,0,1-1,1,6.5,6.5,0,0,1-1.55.83,5.24,5.24,0,0,1-1.92.34,6.23,6.23,0,0,1-3.42-1,6.8,6.8,0,0,1-2.42-2.67,9.14,9.14,0,0,1,0-7.87A6.92,6.92,0,0,1,183,42.58a6,6,0,0,1,3.34-1,6.52,6.52,0,0,1,2.16.35,6.39,6.39,0,0,1,1.7.91,4.89,4.89,0,0,1,1.12,1.1,1.75,1.75,0,0,1,.4,1l-1,.35v-2a1.63,1.63,0,0,1,.46-1.19A1.57,1.57,0,0,1,192.42,41.61ZM186.9,53.77a3.7,3.7,0,0,0,2.1-.6,4.11,4.11,0,0,0,1.41-1.64,5.38,5.38,0,0,0,.5-2.33,5.43,5.43,0,0,0-.5-2.35A4.18,4.18,0,0,0,189,45.21a3.7,3.7,0,0,0-2.1-.6,3.65,3.65,0,0,0-2.08.6,4.18,4.18,0,0,0-1.41,1.64,5.43,5.43,0,0,0-.5,2.35,5.38,5.38,0,0,0,.5,2.33,4.11,4.11,0,0,0,1.41,1.64A3.65,3.65,0,0,0,186.9,53.77Z"/></g></g></g></svg>