<svg xmlns="http://www.w3.org/2000/svg" viewBox="0 0 150 150"><defs><style>.cls-1{isolation:isolate;}.cls-2{fill:#002451;opacity:0.27;}.cls-3{fill:#fff2cc;}.cls-4{fill:#29abe2;}.cls-5,.cls-7{opacity:0.2;}.cls-5{mix-blend-mode:multiply;}.cls-6{fill:#fff;}.cls-7{fill:#000f56;}.cls-8{fill:#95c037;}.cls-9{fill:#6e756c;}.cls-10,.cls-17{fill:none;}.cls-10{stroke:#1e134d;stroke-linecap:round;stroke-linejoin:round;stroke-width:1.2px;}.cls-11{fill:#393737;}.cls-12{fill:#58577d;}.cls-13{fill:#3e82b7;}.cls-14{fill:#4d3a35;}.cls-15{fill:#574640;}.cls-16{fill:#fff9ba;opacity:0.58;}</style></defs><title>lab02-_mariposa1</title><g class="cls-1"><g id="Layer_2" data-name="Layer 2"><g id="Layer_1-2" data-name="Layer 1"><rect class="cls-2" x="19.12" y="14.32" width="120.09" height="120.09" rx="36.12" ry="36.12"/><rect class="cls-3" x="16.02" y="11.22" width="120.09" height="120.09" rx="36.12" ry="36.12"/><path class="cls-4" d="M135.63,101H122.7a17.12,17.12,0,0,0-17.13,17.12v12.74A36.13,36.13,0,0,0,135.63,101Z"/><g class="cls-5"><rect x="117.99" y="109.52" width="1.38" height="10.82"/><polygon points="118.64 105.41 115.86 110.24 121.43 110.24 118.64 105.41"/><polygon points="118.68 124.36 121.46 119.53 115.89 119.53 118.68 124.36"/><rect x="113.27" y="114.24" width="10.82" height="1.38"/><polygon points="109.19 114.9 114.01 117.69 114.01 112.12 109.19 114.9"/><polygon points="128.13 114.87 123.31 112.08 123.31 117.66 128.13 114.87"/></g><rect class="cls-6" x="116.99" y="108.52" width="1.38" height="10.82"/><polygon class="cls-6" points="117.64 104.41 114.86 109.24 120.43 109.24 117.64 104.41"/><polygon class="cls-6" points="117.68 123.36 120.46 118.53 114.89 118.53 117.68 123.36"/><rect class="cls-6" x="112.27" y="113.24" width="10.82" height="1.38"/><polygon class="cls-6" points="108.19 113.9 113.01 116.69 113.01 111.12 108.19 113.9"/><polygon class="cls-6" points="127.13 113.87 122.31 111.08 122.31 116.66 127.13 113.87"/><path class="cls-7" d="M78.76,32.18c8.71,0,18.2,1.75,24,7.32a3.8,3.8,0,0,0,2.44,1.3,1.12,1.12,0,0,0,1.08-1.66c-2.46-3.92-3.86-5.71-5.36-6.84,5.26.88,15.07,7.36,18.23,11.66a31.64,31.64,0,0,1,5.53,14.84l-.45,1.87c.85.22,1.39,1.86,2.78,2.55,4.59,2.3,6.73,8.11,7.48,10.5,0,0,3.21,2.24,3,3.08-.52,1.91-3.07,3-6,3A11.57,11.57,0,0,1,127.3,79c-.6-.24-2.85-1.69-1.57-2.86,3.12-2.83,2.1-5.88.12-7a3.09,3.09,0,0,0-1.52-.29c-.7,0-1.45.09-2,.09h0l-.83,3.47a35.4,35.4,0,0,1-18.85,22.79c-4.58,2.14-14.2,3-22.57,3S64.35,97.29,65,96c.21-.42,3.35-1.64,6.83-5.91.81-1,.71-1.75-.4-1.75A8.79,8.79,0,0,0,68,89.37,23.33,23.33,0,0,1,57.65,92c-5.45,0-10.49-2.27-16.45-5.64a67.79,67.79,0,0,1-8.37-5.76s4.41-2.31,4.3-3.79h-.75c-8.14,0-20.42-4.9-21.53-12.7A1.68,1.68,0,0,1,15,63a1.85,1.85,0,0,1,1.26-.69c3.25-.83,11.45-4.16,13.74-6.61a19,19,0,0,0-3.5-1.5A37.52,37.52,0,0,1,37,45.12c3.25-1.91,8.57-3.81,12.82-3.81a10.59,10.59,0,0,1,2.52.27c1.7.41,6.51,2.23,9.22,2.23a2.56,2.56,0,0,0,1.54-.37c1.7-1.35-2.91-6.14-4.69-7.39.79-1.42,10-3.87,20.34-3.87m0-5v0A73.29,73.29,0,0,0,64,28.69c-7.16,1.53-9,3.28-9.92,4.94a5,5,0,0,0-.59,3.07,16,16,0,0,0-3.63-.39c-5.31,0-11.53,2.26-15.35,4.49a42.31,42.31,0,0,0-12,10.35,5,5,0,0,0-1,3.88A44.64,44.64,0,0,1,15,57.51a6.6,6.6,0,0,0-4.35,3,6.52,6.52,0,0,0-.72,4.29C11.07,73,19.46,78.39,27.83,80.63a5,5,0,0,0,1.82,3.84,71.36,71.36,0,0,0,9.09,6.24C45.4,94.49,51.17,97,57.65,97c.79,0,1.59,0,2.38-.11a5.54,5.54,0,0,0,.75,2c1.48,2.41,4.37,3.2,8.55,3.7a94.45,94.45,0,0,0,10.71.54c5.19,0,18-.34,24.68-3.46A40,40,0,0,0,123,82.14a9.74,9.74,0,0,0,2.48,1.53,16.57,16.57,0,0,0,6.09,1.16c5.44,0,9.68-2.64,10.79-6.72.92-3.37-1.6-6-3.59-7.5-1.38-3.73-4.1-9-9-11.63a6.85,6.85,0,0,0,0-.79A36.51,36.51,0,0,0,123.22,41c-3.7-5-14.54-12.49-21.43-13.64a4.73,4.73,0,0,0-.83-.07A5,5,0,0,0,96.52,30a52.16,52.16,0,0,0-17.76-2.82Z"/><path class="cls-6" d="M78.76,29.73c8.71,0,18.2,1.74,24,7.32a3.82,3.82,0,0,0,2.44,1.29,1.11,1.11,0,0,0,1.08-1.65c-2.46-3.92-3.86-5.72-5.36-6.85,5.26.89,15.07,7.37,18.23,11.67a31.56,31.56,0,0,1,5.53,14.84l-.45,1.87c.85.22,1.39,1.86,2.78,2.55,4.59,2.3,6.73,8.11,7.48,10.49,0,0,3.21,2.25,3,3.08-.52,1.92-3.07,3-6,3a11.56,11.56,0,0,1-4.25-.8c-.6-.24-2.85-1.7-1.57-2.86,3.12-2.84,2.1-5.89.12-7a3.08,3.08,0,0,0-1.52-.3c-.7,0-1.45.1-2,.1h0l-.83,3.47a35.4,35.4,0,0,1-18.85,22.79c-4.58,2.13-14.2,3-22.57,3s-15.69-.88-15-2.23c.21-.42,3.35-1.63,6.83-5.91.81-1,.71-1.75-.4-1.75A8.86,8.86,0,0,0,68,86.92a23.33,23.33,0,0,1-10.36,2.64c-5.45,0-10.49-2.27-16.45-5.65a67.1,67.1,0,0,1-8.37-5.75s4.41-2.31,4.3-3.8l-.75,0c-8.14,0-20.42-4.91-21.53-12.7a1.68,1.68,0,0,1,.1-1.09,1.85,1.85,0,0,1,1.26-.69c3.25-.84,11.45-4.16,13.74-6.61a19.77,19.77,0,0,0-3.5-1.51A37.68,37.68,0,0,1,37,42.66c3.25-1.91,8.57-3.81,12.82-3.81a11.13,11.13,0,0,1,2.52.27c1.7.41,6.51,2.24,9.22,2.24A2.56,2.56,0,0,0,63.11,41c1.7-1.35-2.91-6.14-4.69-7.39.79-1.43,10-3.87,20.34-3.87m0-5v0A73.29,73.29,0,0,0,64,26.24c-7.16,1.53-9,3.28-9.92,4.93a5,5,0,0,0-.59,3.08,16,16,0,0,0-3.63-.4c-5.31,0-11.53,2.26-15.35,4.5a42.31,42.31,0,0,0-12,10.35,5,5,0,0,0-1,3.88A44.48,44.48,0,0,1,15,55.05a6.67,6.67,0,0,0-4.35,3,6.54,6.54,0,0,0-.72,4.3c1.17,8.19,9.56,13.55,17.93,15.79A5,5,0,0,0,29.65,82a71.36,71.36,0,0,0,9.09,6.24c6.66,3.78,12.43,6.3,18.91,6.3A23.71,23.71,0,0,0,60,94.44a5.59,5.59,0,0,0,.75,2c1.48,2.4,4.37,3.19,8.55,3.69a94.45,94.45,0,0,0,10.71.54c5.19,0,18-.34,24.68-3.46A40,40,0,0,0,123,79.68a9.94,9.94,0,0,0,2.48,1.54,16.76,16.76,0,0,0,6.09,1.15c5.44,0,9.68-2.63,10.79-6.71.92-3.37-1.6-6-3.59-7.51-1.38-3.72-4.1-9-9-11.63a7,7,0,0,0,0-.79,36.59,36.59,0,0,0-6.46-17.18c-3.7-5-14.54-12.48-21.43-13.64a5.93,5.93,0,0,0-.83-.07,5,5,0,0,0-4.44,2.7,52.14,52.14,0,0,0-17.76-2.81Z"/><path class="cls-8" d="M124.72,56.27a31.64,31.64,0,0,0-5.53-14.84c-3.16-4.3-13-10.78-18.23-11.66,1.5,1.13,2.9,2.92,5.36,6.84.65,1-.82,2.94-3.52.36C90.06,24.8,59.88,30.89,58.42,33.53c1.78,1.24,6.39,6,4.69,7.38s-8.65-1.35-10.76-1.86C47.91,38,41,40.28,37,42.59a37.52,37.52,0,0,0-10.56,9.12,19,19,0,0,1,3.5,1.5C27.66,55.66,19.46,59,16.21,59.82a1.89,1.89,0,0,0-1.26.69,1.69,1.69,0,0,0-.1,1.09c1.15,8,14.17,13,22.28,12.69.11,1.48-4.3,3.79-4.3,3.79a67.79,67.79,0,0,0,8.37,5.76c9.49,5.37,16.67,8,26.81,3,4.06-2,5.17-1,3.84.67C68.37,91.78,65.23,93,65,93.42c-1.34,2.66,28.36,3.53,37.59-.77a35.35,35.35,0,0,0,18.85-22.78"/><path class="cls-9" d="M28.88,67.65c.61,0,1.23-.06,1.84-.13l.91-.09.91-.12c.61-.07,1.21-.2,1.81-.3s1.2-.25,1.78-.42a24.58,24.58,0,0,0,3.46-1.14,23.66,23.66,0,0,0,3.23-1.6,20.7,20.7,0,0,0,2.89-2.1A16.26,16.26,0,0,0,47,60.51a2.91,2.91,0,0,0,.24-.27c-11.59.83-19.9,1.87-19.9,1.87s12-2.08,27.4-3.76l-.17-.21c-.39-.45-.8-.88-1.23-1.3a23.64,23.64,0,0,0-2.77-2.3,24.28,24.28,0,0,0-6.46-3.23,26.46,26.46,0,0,0-7.19-1.25,34.29,34.29,0,0,0-7.36.53,34.29,34.29,0,0,1,7.36-1,27.06,27.06,0,0,1,7.43.85,25.07,25.07,0,0,1,10,5.24c.48.42.94.86,1.39,1.32.23.23.45.47.66.71l.32.38c7.46-.78,15.59-1.45,23.46-1.74,2.32-.08,4.61-.11,6.85-.1-.12-.26-.26-.51-.39-.77s-.34-.61-.5-.91-.35-.6-.54-.89-.36-.6-.56-.89L84.43,52l-.3-.43-.32-.42-.63-.84a55,55,0,0,0-5.74-6.19l-1.58-1.41c-.26-.24-.54-.45-.82-.68l-.82-.66c-1.09-.92-2.25-1.72-3.4-2.56-.56-.43-1.17-.8-1.76-1.2l-1.79-1.16c-1.21-.74-2.45-1.44-3.67-2.16,1.26.65,2.53,1.3,3.78,2l1.85,1.08c.62.36,1.24.7,1.83,1.11,1.19.78,2.41,1.53,3.55,2.4l.87.63c.29.21.58.41.86.65L78,43.44a54.78,54.78,0,0,1,6.17,6l.7.83.35.41.33.44.66.86c.22.29.42.59.63.89s.41.59.61.9.4.61.58.93.37.63.54,1,.22.41.32.63a228.56,228.56,0,0,1,26.95,2.22,1,1,0,0,1,.05-.16,12.43,12.43,0,0,0,.33-1.37c.1-.47.13-.95.19-1.42s0-1,.06-1.45a22,22,0,0,0-.83-5.79,32.21,32.21,0,0,0-2.1-5.56c-.45-.89-.92-1.77-1.4-2.65l-1.57-2.56L112.34,40c.53.85,1.07,1.7,1.59,2.57a33.06,33.06,0,0,1,2.54,5.5,23,23,0,0,1,1.31,6c0,.51.06,1,0,1.56a13.94,13.94,0,0,1-.1,1.57,12,12,0,0,1-.25,1.54c.7.09,1.19.15,1.45.17,1.6.1,2.57-1.3,5.29-.82.89.16,1.42,1.87,2.84,2.57,4.59,2.3,6.73,8.11,7.48,10.5,0,0,3.21,2.24,3,3.08-.77,2.83-6,3.91-10.21,2.23-.61-.25-2.86-1.7-1.58-2.87,3.12-2.83,2.1-5.88.12-7-.87-.51-2.53-.19-3.54-.2-2.36,0-1.37-1.28-4.44-1.69-.36,0-1.88-.43-4.28-1-.15.28-.29.56-.44.83-.24.44-.49.88-.74,1.31-.52.85-1,1.69-1.61,2.51a53.56,53.56,0,0,1-3.6,4.73q-1.94,2.27-4.07,4.32a58.94,58.94,0,0,1-4.5,3.85,54.85,54.85,0,0,1-10.07,6.13A57.89,57.89,0,0,1,77.44,91.2,57.33,57.33,0,0,0,88.37,87a53.81,53.81,0,0,0,9.72-6.42c1.49-1.24,2.92-2.56,4.28-3.94s2.62-2.85,3.82-4.37a51.87,51.87,0,0,0,3.34-4.74c.52-.81,1-1.65,1.47-2.49.23-.42.45-.84.66-1.27l.22-.44a176,176,0,0,0-29.68-4l-.13.2-.47.63c-.33.41-.65.82-1,1.21-.68.78-1.39,1.53-2.14,2.24a42.19,42.19,0,0,1-4.77,3.89A51.51,51.51,0,0,1,62.9,73.24a66.6,66.6,0,0,1-11.69,3.35A82.84,82.84,0,0,1,39.16,78a83,83,0,0,0,12-1.83,65.44,65.44,0,0,0,11.45-3.72,50.54,50.54,0,0,0,10.35-6,39.69,39.69,0,0,0,4.47-3.92,29.34,29.34,0,0,0,2-2.21c.28-.34.55-.7.81-1-10.48-.27-21.5.19-30.75.81l0,0c-.06.1-.11.16-.16.23l-.16.2-.33.38a9.16,9.16,0,0,1-.68.71,14.7,14.7,0,0,1-1.46,1.28A20.27,20.27,0,0,1,43.45,65,24.41,24.41,0,0,1,40,66.47a27.13,27.13,0,0,1-3.64,1c-.61.13-1.23.21-1.84.31s-1.24.17-1.87.2l-.93.07-.93,0c-.62,0-1.24,0-1.86,0a49.17,49.17,0,0,1-7.39-.69A49.18,49.18,0,0,0,28.88,67.65Z"/><path class="cls-10" d="M134.53,71.41c-.75-2.39-2.89-8.2-7.48-10.5-1.39-.69-1.93-2.33-2.78-2.55l.45-1.87a31.6,31.6,0,0,0-5.53-14.84C116,37.35,106.22,30.87,101,30c1.5,1.13,2.9,2.92,5.36,6.84.65,1.05-.82,2.94-3.52.36C90.06,25,59.88,31.11,58.42,33.74c1.78,1.25,6.39,6,4.69,7.39s-8.65-1.35-10.76-1.86C47.91,38.2,41,40.5,37,42.81a37.52,37.52,0,0,0-10.56,9.12,19,19,0,0,1,3.5,1.5C27.66,55.88,19.46,59.21,16.21,60a1.85,1.85,0,0,0-1.26.69,1.68,1.68,0,0,0-.1,1.09c1.15,8,14.17,13,22.28,12.69.11,1.48-4.3,3.79-4.3,3.79a67.1,67.1,0,0,0,8.37,5.75c9.49,5.38,16.67,8,26.81,3,4.06-2,5.17-1,3.84.67C68.37,92,65.23,93.22,65,93.64c-1.34,2.66,28.36,3.53,37.59-.77a35.4,35.4,0,0,0,18.85-22.79l.83-3.47h0c1,0,2.67-.31,3.54.2,2,1.16,3,4.21-.12,7-1.28,1.17,1,2.62,1.57,2.86,4.25,1.69,9.45.61,10.22-2.22C137.74,73.65,134.53,71.41,134.53,71.41Z"/><path class="cls-11" d="M92.64,62.19c0,1.64-.13,3.48-.69,3.82s-1.38-3.91-1.34-4.64"/><path class="cls-11" d="M86.47,59c-.31,1.61-.68,3.41-1.28,3.66s-.75-4.07-.6-4.79"/><path class="cls-11" d="M81.21,56.82c-.42,1.58-.9,3.36-1.52,3.56s-.49-4.11-.29-4.82"/><path class="cls-11" d="M76.36,54c-.42,1.59-.77,1.74-1.55,2s-1.06-2.46-.85-3.17"/><path class="cls-11" d="M71.47,52.27c-.42,1.6-.77,1.75-1.55,2s-1.06-2.46-.85-3.17"/><path class="cls-12" d="M98.91,53.69H97.8l-.37,0c-.24,0-.72-.44-1.84-.82s-3.33-.21-4.32-.6-2.75-2.09-4.06-2.66-3-.53-4.16-.94S81,46.9,78.78,46.35a39.46,39.46,0,0,0-5.23-.68c-.33,0-1.32-.88-5.28-.56a12.58,12.58,0,0,0-6.63,2.07c-1.32.58-5,2-7.24,4.54-1.13,1.33-1.29,2.67-1.94,3.62S50,59.9,50,59.9l-.08.16-.07.13-.07.14-.06.11a1.06,1.06,0,0,0-.13.26l-.14,2.82a4.07,4.07,0,0,0,7.28,2.68,12.14,12.14,0,0,0,.79-1.14l0-.06a2.13,2.13,0,0,0,1-.9c.66-1.17.44-2,1.26-2.33s1.35-1.14,1.39-2.6,1-1.13,1.54-1.73.28-1.68.87-2,1.78-.13,2-.74A4.13,4.13,0,0,1,67.17,53a2.48,2.48,0,0,1,2.16.25c.72.31,2.08.2,2.42-.3a1.18,1.18,0,0,1,1.79.12,3.48,3.48,0,0,0,2,1.13c.89.18,1.49-.07,2.31.14s1,.72,1.17,1.53a2.46,2.46,0,0,0,2.35,1.45c.72-.2,1.18-.66,1.77-.56s.85.41.93,1.49,2.1,1.74,2.51,1.35A2.23,2.23,0,0,1,88.77,59a2.42,2.42,0,0,1,1.4,2.12c.19,1.06,2.45,2.16,2.74,1.26.22-.67,1.14-1,2.09-1.12.89.28,1.79.54,2.7.79l.14,0a3.85,3.85,0,0,0,1.13.14,4.27,4.27,0,1,0-.06-8.53Z"/><path class="cls-13" d="M98.91,53.69H97.8l-.37,0c-.24,0-.72-.44-1.84-.82s-3.33-.21-4.32-.6-2.75-2.09-4.06-2.66-3-.53-4.16-.94S81,46.9,78.78,46.35a39.46,39.46,0,0,0-5.23-.68c-.33,0-1.32-.88-5.28-.56a12.58,12.58,0,0,0-6.63,2.07c-1.32.58-5,2-7.24,4.54-1.13,1.33-1.29,2.67-1.94,3.62S50,59.9,50,59.9l-.08.16-.07.13-.07.14-.06.11a1.06,1.06,0,0,0-.13.26l-.14,2.82a4,4,0,0,0,0,.6c1-.71,1.75-2.24,2.29-2.76a12.16,12.16,0,0,0,2.17-4.74,4.17,4.17,0,0,1,2.6-3.22,5.81,5.81,0,0,0,2.89-2.91,6.45,6.45,0,0,1,4-2.08c1.69-.21,5.48-.17,7.59-.43s2.08.09,3.11.82A19.62,19.62,0,0,0,80.39,51c1.29,0,2.53.29,2.79,1s2.61,2.34,4.17,2.41a4.62,4.62,0,0,1,3.32,1.13,4.31,4.31,0,0,0,4.48.82c1.89-.72,1.65-.16,7.83.18A4.27,4.27,0,0,0,98.91,53.69Z"/><path class="cls-14" d="M96.42,52.29c-1.49.5-3.54,3.84-1.23,7.68s3.31,4.65,5,5c2.27.51,3.9-.44,3.9-2.74s.49-6.76-1.8-8.74C99.5,51.11,97.9,51.8,96.42,52.29Z"/><path class="cls-15" d="M96.42,52.29c4.65,3.35,3.13,7.09,3.14,8.8,0,2.75,4.09,2.48,4.09.18s.9-5.78-1.39-7.76C99.5,51.11,97.9,51.8,96.42,52.29Z"/><path class="cls-16" d="M68.75,57.64c-1.6,5.17-3,12-11.41,12.63C51,70.73,46.75,68.75,46,62.39S48,49.9,53.9,47.32C57.16,45.88,69.49,55.26,68.75,57.64Z"/><path class="cls-16" d="M68.09,57.69C66.58,62.57,65.28,69,57.33,69.6c-6,.44-10-1.43-10.72-7.43s2-11.78,7.48-14.21c.32-.14-6,8.6-5.53,8.66.29,0,7.35-8.66,7.68-8.56s-4.37,6.95-4.1,7.06S57.68,48.6,58,48.76s-6,9.56-5.76,9.7,7.17-9,7.48-8.78-4.16,6.93-3.85,7.13,5.38-6.18,5.68-6-5.11,7.59-4.82,7.8,6.5-6.59,6.9-6.28-3.58,7.11-3.24,7.4,5-5.89,5.36-5.57-6.06,11.75-5.79,12S67.22,55.71,67.44,56s-3.91,8-3.79,8.17C63.85,64.56,68.17,57.44,68.09,57.69Z"/><rect class="cls-17" width="150" height="150"/></g></g></g></svg>