<svg xmlns="http://www.w3.org/2000/svg" viewBox="0 0 150 150"><defs><style>.cls-1{isolation:isolate;}.cls-2{fill:#002451;opacity:0.27;}.cls-3{fill:#fff2cc;}.cls-4{fill:#29abe2;}.cls-5,.cls-7{opacity:0.2;}.cls-5{mix-blend-mode:multiply;}.cls-6{fill:#fff;}.cls-7{fill:#000f56;}.cls-8{fill:#867265;}.cls-9{fill:#a18e71;}.cls-10,.cls-13{fill:none;}.cls-10{stroke:#1e134d;stroke-linecap:round;stroke-linejoin:round;stroke-width:0.7px;}.cls-11{fill:#bca2a6;}.cls-12{fill:#e3ccce;}</style></defs><title>lab02-_raton1</title><g class="cls-1"><g id="Layer_2" data-name="Layer 2"><g id="Layer_1-2" data-name="Layer 1"><rect class="cls-2" x="18.06" y="13.19" width="120.09" height="120.09" rx="36.12" ry="36.12"/><rect class="cls-3" x="14.96" y="10.09" width="120.09" height="120.09" rx="36.12" ry="36.12"/><path class="cls-4" d="M134.57,99.89H121.63A17.11,17.11,0,0,0,104.51,117v12.74A36.14,36.14,0,0,0,134.57,99.89Z"/><g class="cls-5"><rect x="116.92" y="108.39" width="1.38" height="10.82"/><polygon points="117.58 104.28 114.79 109.11 120.36 109.11 117.58 104.28"/><polygon points="117.61 123.23 120.4 118.4 114.83 118.4 117.61 123.23"/><rect x="112.2" y="113.11" width="10.82" height="1.38"/><polygon points="108.12 113.77 112.95 116.56 112.95 110.99 108.12 113.77"/><polygon points="127.07 113.74 122.24 110.95 122.24 116.53 127.07 113.74"/></g><rect class="cls-6" x="115.92" y="107.39" width="1.38" height="10.82"/><polygon class="cls-6" points="116.58 103.28 113.79 108.11 119.36 108.11 116.58 103.28"/><polygon class="cls-6" points="116.61 122.23 119.4 117.4 113.83 117.4 116.61 122.23"/><rect class="cls-6" x="111.2" y="112.11" width="10.82" height="1.38"/><polygon class="cls-6" points="107.12 112.77 111.95 115.56 111.95 109.99 107.12 112.77"/><polygon class="cls-6" points="126.07 112.74 121.24 109.95 121.24 115.53 126.07 112.74"/><path class="cls-7" d="M82.51,45l.16,0c1.46.48-.86,6.47,0,7,.34.19,1.19.46,2.21.85,1.16-1.42,2.31-4.45,3.26-4.45a.45.45,0,0,1,.25.07c.94.58-.65,3.46-1.38,5.32a11.59,11.59,0,0,1,1.54,1h.19c1.63,0,4-1.93,4.78-1.93a.22.22,0,0,1,.21.11c.33.63-2.74,2.29-3.18,4.19.31.55.6,1.14.89,1.74.16.17.32.34.47.52a2.7,2.7,0,0,0,.84.12c1.5,0,3.53-.86,4.33-.86.19,0,.31,0,.34.17.18.69-3.22,1.61-4.1,3.37.05.16.09.32.13.49a4.85,4.85,0,0,0,1.19,1.2,3.84,3.84,0,0,0,2.17.58c1.27,0,2.53-.4,3.22-.4.24,0,.41,0,.49.17.48.69-4.32,1.7-4.49,3.14A18.4,18.4,0,0,0,96.12,70c1.87,1.46,5,.63,5.34,1.38s-4.64.66-5.14,2a6.67,6.67,0,0,0-.27,1.07c1.28,1.13,4.27,2.07,3.91,2.62a.33.33,0,0,1-.31.13c-.73,0-2.45-.82-3.93-.87a24.88,24.88,0,0,1-1.09,4.16c1,1.41,3.72,3,3.25,3.51a.31.31,0,0,1-.19.06c-.67,0-2.41-1.5-4-1.85a10.17,10.17,0,0,1-.86,1c1.45.87,3.66,1.82,3.15,2.24a.58.58,0,0,1-.4.12c-.81,0-2.32-1-4.1-1.14-1.52,1.25-3,2.13-3,2.67,0,1,4.33,3.77,3.48,4.19a.44.44,0,0,1-.23.06c-.88,0-2.43-1.82-4.62-2.29a9.22,9.22,0,0,1-2,3.31,5.33,5.33,0,0,1-.72.46c.43,1.67,1.9,4,1.32,4.16H85.7c-.6,0-1.55-2.37-3-3.43-.38.14-.8.28-1.23.42a5.87,5.87,0,0,1-1.77,1.59,5,5,0,0,1-.81.28c0,1.74.94,4.35.32,4.4h0c-.61,0-1-2.66-2.14-4.07-.85.1-1.82.17-2.85.21-.28,1.56-.11,4.72-.85,4.77h0c-.59,0-1.56-3.36-2.31-4.78-.79,0-1.58-.08-2.35-.15h0c-.92,0-1.59,5.24-2.52,5.24h-.05c-.74-.13-.82-5.81-1.55-6a31.38,31.38,0,0,1-6.71-3.19c-1.39.15-2.49,4.64-3.51,4.64a.43.43,0,0,1-.26-.09c-1.12-.9,2.23-4.7,1.22-6.13-.91-.6-1.63-1.11-2-1.43a.67.67,0,0,0-.46-.17c-1.36,0-3.35,3.76-4.37,3.76a.37.37,0,0,1-.31-.17c-1-1.22,3.94-4.54,2.4-6.08-1-1-1.9-3.83-2.45-6.5-.85.12-1.81.61-2.44.61-.38,0-.64-.17-.7-.69-.15-1.38,1.52-1.68,2.77-2.12-.08-.59-.14-1.14-.17-1.62-.07-1.21-.86-1.44-1.76-1.44-.57,0-1.19.09-1.68.09-.65,0-1.1-.16-1-.89.27-2.18,4.28-.72,4.75-2.17.25-.75.68-2.85,1.41-5.18-1.42-1.14-4-1.89-3.72-2.43.06-.11.2-.15.4-.15.74,0,2.31.56,3.68.56H50c.27-.7.57-1.39.9-2.05-.76-1.7-4-3.39-3.51-3.92a.29.29,0,0,1,.23-.09c.76,0,2.84,1.56,4.53,1.56l.35,0c.52-.66,1-1.3,1.56-1.91.46-.85.81-1.5,1-1.88.44-1.13-3.92-3.56-2.6-4a1.21,1.21,0,0,1,.38-.06c1.31,0,3.09,2,4.18,2.1h.15a1.78,1.78,0,0,0,.39,0,14.93,14.93,0,0,0,1-1.2c.7-1-3-4.42-1.61-4.58H57c1.37,0,2.76,2.68,3.88,3.07a2.37,2.37,0,0,0,.75.11,17.54,17.54,0,0,0,3-.47l.56-.24c.51-1.77-.8-5.1-.11-5.2h0c.68,0,1.23,3.26,2.81,4.34A17.33,17.33,0,0,1,70,50c.67-1.72.29-4.77.92-4.77h0c.67.07.47,3.25,1.64,4.78,3.08.19,5.67,1,6.67,1h0c1.62,0,1.9-6,3.22-6m0-2.81c-2.74,0-3.55,2.77-4.14,4.79-.08.28-.19.66-.3,1l-.25,0c-.9-.17-2-.38-3.31-.54-.08-.37-.15-.75-.19-1-.24-1.3-.67-3.7-3.12-3.93h-.27a3.1,3.1,0,0,0-3,2.36,3.17,3.17,0,0,0-2.78-1.68l-.42,0a3,3,0,0,0-2,1.2c-.87,1.19-.65,2.52-.41,3.92,0,.18.06.42.1.68l-.5.07c-.16-.16-.35-.37-.49-.53-1-1.11-2.37-2.64-4.41-2.64a3.25,3.25,0,0,0-.44,0,3.11,3.11,0,0,0-2.74,3.82,4.11,4.11,0,0,0-1.06-.14,3.83,3.83,0,0,0-1.34.24,3.13,3.13,0,0,0-2,2.31c-.39,1.9,1,3.2,2.13,4.24l.27.25a1,1,0,0,0-.1.17l-.39.46c-.38-.16-.79-.36-1-.48a6,6,0,0,0-2.66-.83h0a3.1,3.1,0,0,0-2.34,1,3,3,0,0,0-.74,2.21,3.6,3.6,0,0,0,1.14,2.27A3.1,3.1,0,0,0,43.09,63a2.94,2.94,0,0,0-.21,2.32c.45,1.4,1.65,2,2.93,2.64l.17.09c-.18.69-.34,1.31-.47,1.83v0c-1.25.1-4.75.41-5.17,3.85a3.51,3.51,0,0,0,.82,2.84,3.38,3.38,0,0,0,1.68,1,3.85,3.85,0,0,0-.65,2.75,3.46,3.46,0,0,0,3.49,3.2l.39,0a16.14,16.14,0,0,0,1.68,4c-.2.28-.44.58-.62.81-1.11,1.41-3,3.78-1.18,6.08a3.21,3.21,0,0,0,2.53,1.25,4.23,4.23,0,0,0,3.06-1.57c-.58,1.53-.94,3.52.8,4.91a3.2,3.2,0,0,0,2,.72c2.21,0,3.22-2,4-3.61l.13-.25a36.4,36.4,0,0,0,3.87,1.84c.07.38.13.81.17,1.13.38,2.66.7,5,3.1,5.38a3,3,0,0,0,.52,0c2.15,0,3-1.75,3.64-3.6.79,1.86,1.67,3.29,3.57,3.29h.18a3.12,3.12,0,0,0,2.92-2.59,3.08,3.08,0,0,0,2.75,1.69l.27,0A3,3,0,0,0,81.64,102c.93-1.23.68-2.62.38-4.23l0-.18.23-.18,0,0c.74,1.11,1.67,2.49,3.46,2.49a2.89,2.89,0,0,0,1-.16,3,3,0,0,0,1.79-1.63c.63-1.41.06-2.69-.6-4.18l-.06-.15a8.2,8.2,0,0,0,.65-.94l.22.15a5.43,5.43,0,0,0,3.09,1.25,3.33,3.33,0,0,0,1.49-.35,3,3,0,0,0,1.64-2.28c.22-1.59-.76-2.68-2-3.83l.26.09a6.73,6.73,0,0,0,2.44.6,3.39,3.39,0,0,0,2.2-.78,3,3,0,0,0,.69-.82,3,3,0,0,0,1.39-.77,3,3,0,0,0,.9-2.24c0-1.55-1.12-2.47-2.36-3.53l-.56-.48,0-.08a6.19,6.19,0,0,0,1.81.33,3.11,3.11,0,0,0,2.69-1.43,3,3,0,0,0,.36-2.39,3.24,3.24,0,0,0-1.11-1.68,3.51,3.51,0,0,0,2.32-1.65,3,3,0,0,0,.18-2.54c-.78-2-2.85-2.12-4.08-2.19l-.69,0,.69-.31c1.44-.64,2.8-1.24,3.24-2.8a3,3,0,0,0-.41-2.51A3.27,3.27,0,0,0,100,61.16a6.88,6.88,0,0,0-1,.09,3,3,0,0,0,1.13-3.19,3.09,3.09,0,0,0-3.08-2.31,9,9,0,0,0-2.29.43l-.09,0c1-.9,2.63-2.53,1.53-4.64a3,3,0,0,0-2.71-1.63,4.8,4.8,0,0,0-2.28.7c.46-1.76.4-3.54-1.38-4.64a3.27,3.27,0,0,0-1.72-.49h0A3.41,3.41,0,0,0,86,46.3c0-1.73-.49-3.37-2.4-4a3.37,3.37,0,0,0-1-.16Z"/><path class="cls-6" d="M82.51,43.54l.16,0c1.46.48-.86,6.48,0,7,.34.18,1.19.45,2.21.84C86,50,87.19,46.92,88.14,46.92a.45.45,0,0,1,.25.07c.94.58-.65,3.46-1.38,5.32a11.59,11.59,0,0,1,1.54.95h.19c1.63,0,4-1.92,4.78-1.92a.22.22,0,0,1,.21.1c.33.63-2.74,2.29-3.18,4.2.31.54.6,1.13.89,1.73.16.17.32.34.47.52a2.44,2.44,0,0,0,.84.12c1.5,0,3.53-.86,4.33-.86.19,0,.31.05.34.17.18.69-3.22,1.61-4.1,3.38.05.16.09.32.13.48a4.68,4.68,0,0,0,1.19,1.2,3.84,3.84,0,0,0,2.17.58c1.27,0,2.53-.4,3.22-.4a.56.56,0,0,1,.49.17c.48.7-4.32,1.7-4.49,3.14a18.37,18.37,0,0,0,.09,2.75c1.87,1.46,5,.63,5.34,1.38s-4.64.66-5.14,2a6.54,6.54,0,0,0-.27,1.08c1.28,1.12,4.27,2.06,3.91,2.62a.35.35,0,0,1-.31.12c-.73,0-2.45-.82-3.93-.87a25,25,0,0,1-1.09,4.17c1,1.4,3.72,3,3.25,3.5a.32.32,0,0,1-.19.07c-.67,0-2.41-1.5-4-1.85-.26.34-.56.67-.86,1,1.45.86,3.66,1.81,3.15,2.23a.58.58,0,0,1-.4.12c-.81,0-2.32-1-4.1-1.13-1.52,1.24-3,2.12-3,2.66,0,1,4.33,3.77,3.48,4.2a.56.56,0,0,1-.23.05c-.88,0-2.43-1.82-4.62-2.29a9.36,9.36,0,0,1-2,3.32,6.63,6.63,0,0,1-.72.45c.43,1.67,1.9,4,1.32,4.17H85.7c-.6,0-1.55-2.37-3-3.44-.38.14-.8.28-1.23.42a5.74,5.74,0,0,1-1.77,1.59,5,5,0,0,1-.81.28c0,1.74.94,4.35.32,4.4h0c-.61,0-1-2.66-2.14-4.07-.85.1-1.82.18-2.85.21-.28,1.57-.11,4.73-.85,4.77h0c-.59,0-1.56-3.36-2.31-4.78-.79,0-1.58-.07-2.35-.14h0c-.92,0-1.59,5.24-2.52,5.24h-.05c-.74-.13-.82-5.81-1.55-6A30.9,30.9,0,0,1,57.87,91c-1.39.15-2.49,4.65-3.51,4.65a.39.39,0,0,1-.26-.1c-1.12-.89,2.23-4.7,1.22-6.13-.91-.59-1.63-1.11-2-1.42a.64.64,0,0,0-.46-.18c-1.36,0-3.35,3.76-4.37,3.76a.38.38,0,0,1-.31-.16c-1-1.23,3.94-4.55,2.4-6.08-1-1-1.9-3.83-2.45-6.5-.85.11-1.81.61-2.44.61-.38,0-.64-.17-.7-.7-.15-1.38,1.52-1.68,2.77-2.11-.08-.6-.14-1.15-.17-1.63-.07-1.21-.86-1.44-1.76-1.44-.57,0-1.19.09-1.68.09-.65,0-1.1-.16-1-.88.27-2.18,4.28-.73,4.75-2.18.25-.75.68-2.85,1.41-5.18-1.42-1.14-4-1.89-3.72-2.43.06-.11.2-.15.4-.15.74,0,2.31.57,3.68.57l.35,0a22.09,22.09,0,0,1,.9-2c-.76-1.7-4-3.4-3.51-3.93a.28.28,0,0,1,.23-.08c.76,0,2.84,1.55,4.53,1.55l.35,0c.52-.66,1-1.3,1.56-1.9.46-.85.81-1.51,1-1.89.44-1.12-3.92-3.56-2.6-4a1,1,0,0,1,.38-.07c1.31,0,3.09,2,4.18,2.1h.15l.39,0c.47-.53.82-.94,1-1.21.7-1-3-4.41-1.61-4.57H57c1.37,0,2.76,2.69,3.88,3.07a2.12,2.12,0,0,0,.75.11,18.31,18.31,0,0,0,3-.46l.56-.25c.51-1.77-.8-5.1-.11-5.2h0c.68,0,1.23,3.26,2.81,4.34a15.42,15.42,0,0,1,2-.25c.67-1.73.29-4.78.92-4.78h0c.67.06.47,3.25,1.64,4.77,3.08.19,5.67.95,6.67.95h0c1.62,0,1.9-6,3.22-6m0-2.81c-2.74,0-3.55,2.77-4.14,4.79-.08.29-.19.66-.3,1l-.25-.05c-.9-.17-2-.38-3.31-.54-.08-.36-.15-.75-.19-1-.24-1.29-.67-3.7-3.12-3.93h-.27a3.1,3.1,0,0,0-3,2.37,3.15,3.15,0,0,0-2.78-1.68,3,3,0,0,0-2.42,1.23c-.87,1.18-.65,2.51-.41,3.92,0,.18.06.41.1.67l-.5.07c-.16-.16-.35-.37-.49-.53-1-1.11-2.37-2.64-4.41-2.64a3.25,3.25,0,0,0-.44,0,3.11,3.11,0,0,0-2.74,3.82,4.59,4.59,0,0,0-1.06-.13,4.06,4.06,0,0,0-1.34.23,3.15,3.15,0,0,0-2,2.32c-.39,1.9,1,3.19,2.13,4.23l.27.25-.1.17-.39.46c-.38-.15-.79-.35-1-.48a6.11,6.11,0,0,0-2.66-.83h0a3.1,3.1,0,0,0-2.34,1,3,3,0,0,0-.74,2.22A3.57,3.57,0,0,0,45.68,60a3.11,3.11,0,0,0-2.59,1.64A2.93,2.93,0,0,0,42.88,64c.45,1.4,1.65,2,2.93,2.64l.17.08c-.18.69-.34,1.31-.47,1.83v0c-1.25.09-4.75.41-5.17,3.84a3.55,3.55,0,0,0,.82,2.85,3.37,3.37,0,0,0,1.68,1A3.86,3.86,0,0,0,42.19,79a3.45,3.45,0,0,0,3.49,3.2,2.55,2.55,0,0,0,.39,0,16.14,16.14,0,0,0,1.68,4c-.2.28-.44.59-.62.81-1.11,1.42-3,3.79-1.18,6.08a3.21,3.21,0,0,0,2.53,1.25,4.19,4.19,0,0,0,3.06-1.57c-.58,1.54-.94,3.53.8,4.92a3.25,3.25,0,0,0,2,.71c2.21,0,3.22-2,4-3.6,0-.08.08-.17.13-.26a34.55,34.55,0,0,0,3.87,1.84c.07.39.13.81.17,1.13.38,2.67.7,5,3.1,5.38a3,3,0,0,0,.52,0c2.15,0,3-1.76,3.64-3.61.79,1.87,1.67,3.3,3.57,3.3h.18a3.12,3.12,0,0,0,2.92-2.58,3.09,3.09,0,0,0,2.75,1.68h.27a3.07,3.07,0,0,0,2.13-1.18c.93-1.23.68-2.62.38-4.23l0-.17.23-.19,0,0c.74,1.11,1.67,2.49,3.46,2.49a3.15,3.15,0,0,0,1-.15,3,3,0,0,0,1.79-1.63c.63-1.42.06-2.7-.6-4.19l-.06-.14a9.19,9.19,0,0,0,.65-.94l.22.15a5.49,5.49,0,0,0,3.09,1.24,3.32,3.32,0,0,0,1.49-.34,3,3,0,0,0,1.64-2.29c.22-1.59-.76-2.68-2-3.83l.26.1a6.93,6.93,0,0,0,2.44.59,3.33,3.33,0,0,0,2.2-.78,3.13,3.13,0,0,0,.69-.81,3.13,3.13,0,0,0,1.39-.77,3,3,0,0,0,.9-2.25c0-1.55-1.12-2.47-2.36-3.53-.17-.14-.37-.3-.56-.48l0-.07a6.51,6.51,0,0,0,1.81.32,3.13,3.13,0,0,0,2.69-1.42,3,3,0,0,0,.36-2.4,3.29,3.29,0,0,0-1.11-1.68,3.53,3.53,0,0,0,2.32-1.64,3,3,0,0,0,.18-2.55c-.78-2-2.85-2.12-4.08-2.19l-.69,0,.69-.31c1.44-.64,2.8-1.24,3.24-2.79a3,3,0,0,0-.41-2.52A3.3,3.3,0,0,0,100,59.76a6.85,6.85,0,0,0-1,.08,3,3,0,0,0,1.13-3.19,3.08,3.08,0,0,0-3.08-2.3,9,9,0,0,0-2.29.43l-.09,0c1-.9,2.63-2.52,1.53-4.64a3,3,0,0,0-2.71-1.63,4.8,4.8,0,0,0-2.28.7c.46-1.75.4-3.54-1.38-4.64a3.26,3.26,0,0,0-1.72-.48h0A3.3,3.3,0,0,0,86,44.9c0-1.74-.49-3.37-2.4-4a3.37,3.37,0,0,0-1-.16Z"/><path class="cls-8" d="M101.46,69.87c-.31-.79-3.91.21-5.7-1.71-1.47-1.57-1.67-4.94-2.44-7.59.88-1.77,4.28-2.68,4.1-3.38s-3.76,1.18-5.51.57c-1.69-2-4.53-3.5-5.15-4.06s2.95-6,1.63-6.84-3.06,5.44-4.72,5.08c-1.41-.32-5.94-3.15-11-3.33-1.31-1.45-1.06-4.87-1.76-4.93s-.2,3.51-1.11,5.14c-5.77,1-7.78,1.74-8.92,1.35s-2.59-3.23-4-3.07,2.31,3.57,1.61,4.57-3.42,3.72-6,7c-2,.28-4.64-2-5.11-1.45s2.75,2.23,3.51,3.93c-1.78,3.51-2.63,8.07-3,9.25-.47,1.45-4.48,0-4.75,2.18s4.29-.73,4.45,2.24,1.45,8.78,3,10.32-3.36,4.86-2.4,6.08,3.67-4.68,5.14-3.42,8.23,5.46,11.27,6.2c.73.18.81,5.86,1.55,6,1,.17,1.65-5.32,2.6-5.23a41.33,41.33,0,0,0,8.37-.06c1.17,1.43,1.54,4.13,2.16,4.08s-.29-2.66-.32-4.41a4.24,4.24,0,0,0,.81-.27c2.25-1.06,4.66-7,7.17-6.57s4.22,2.7,5.07,2.28-3.48-3.19-3.49-4.19c0-.83,3.3-2.4,5.17-4.88,1.8.39,3.76,2.22,4.21,1.78s-2.26-2.09-3.25-3.5c1.25-3.49,1.19-5.74,1.69-7.12S101.77,70.67,101.46,69.87Z"/><path class="cls-9" d="M100.52,62.6c-.48-.7-3.72,1.09-5.88-.34-1.77-1.18-2.74-4.38-4.09-6.75.44-1.9,3.51-3.57,3.18-4.19s-3.35,2-5.18,1.81c-2.1-1.59-5.16-2.34-5.88-2.74s1.46-6.48,0-7-1.7,6-3.38,6c-1.43,0-6.45-1.66-11.31-.69-1.6-1.1-2.15-4.44-2.84-4.34s.62,3.42.11,5.2C59.93,51.86,58.16,53,57,52.91s-3.23-2.52-4.56-2,3,2.91,2.6,4-2.45,4.37-4.2,8.14c-1.82.71-4.92-.85-5.25-.22s3.15,1.51,4.28,3c-.91,3.79-.69,8.37-.79,9.61-.12,1.5-4.32,1-4.08,3.18s4-1.69,4.8,1.13S53.19,87.84,55,89s-2.12,5.44-.92,6.4S56.56,90,58.27,90.9s9.17,3.37,12.26,3.39c.75,0,2.13,5.45,2.87,5.41,1-.06.37-5.5,1.3-5.64a40.37,40.37,0,0,0,8-2c1.45,1.11,2.43,3.63,3,3.43s-.89-2.5-1.32-4.17a4.52,4.52,0,0,0,.72-.45c1.92-1.53,2.87-7.79,5.39-8s4.68,1.64,5.4,1-4.08-2.28-4.32-3.24c-.19-.79,2.64-3.07,3.87-5.88,1.82,0,4.12,1.27,4.45.75S97.31,74.11,96,73c.4-3.64-.17-5.8,0-7.24S101,63.3,100.52,62.6Z"/><path class="cls-10" d="M101.46,70c-.29-.75-3.47.08-5.34-1.38A16.92,16.92,0,0,1,96,65.88c.16-1.44,5-2.44,4.48-3.14s-3.72,1.09-5.88-.35a4.68,4.68,0,0,1-1.19-1.2c0-.16-.08-.32-.13-.48.88-1.77,4.28-2.69,4.1-3.38s-3.76,1.18-5.51.57c-.15-.18-.31-.35-.47-.52-.29-.6-.58-1.19-.89-1.73.44-1.91,3.51-3.57,3.18-4.2s-3.35,2-5.18,1.81A11.59,11.59,0,0,0,87,52.31c.73-1.86,2.32-4.74,1.38-5.32s-2.24,2.84-3.51,4.38c-1-.39-1.87-.66-2.21-.84-.86-.48,1.46-6.48,0-7s-1.7,5.94-3.38,6c-1,0-3.59-.76-6.7-.95-1.17-1.52-1-4.71-1.64-4.77s-.27,3-.94,4.77a15.42,15.42,0,0,0-2,.25c-1.6-1.09-2.15-4.43-2.84-4.34s.62,3.43.11,5.2l-.56.25c-2,.41-3.07.6-3.77.35-1.15-.39-2.59-3.23-4-3.06s2.31,3.57,1.61,4.57c-.19.27-.54.68-1,1.21A2,2,0,0,1,57,53c-1.2-.12-3.23-2.51-4.56-2s3,2.91,2.6,4c-.15.38-.5,1-1,1.89-.52.6-1,1.24-1.56,1.9-2,.27-4.64-2-5.11-1.45s2.75,2.23,3.51,3.93a22.09,22.09,0,0,0-.9,2c-1.81.15-4.14-.94-4.43-.4s2.3,1.29,3.72,2.43c-.73,2.33-1.16,4.43-1.41,5.18-.47,1.45-4.48,0-4.75,2.18S47.42,72,47.58,75c0,.48.09,1,.17,1.63-1.25.43-2.92.73-2.77,2.11s1.79.27,3.14.09c.55,2.67,1.44,5.49,2.45,6.5,1.54,1.53-3.36,4.85-2.4,6.08S51.84,86.7,53.31,88c.38.31,1.1.83,2,1.42,1,1.43-2.34,5.24-1.22,6.13s2.26-4.38,3.77-4.55a30.9,30.9,0,0,0,6.71,3.19c.73.18.81,5.86,1.55,6,1,.17,1.65-5.32,2.6-5.23.77.07,1.56.12,2.35.14.75,1.43,1.74,4.82,2.32,4.78.74,0,.57-3.2.85-4.77,1,0,2-.11,2.85-.21,1.17,1.43,1.54,4.13,2.16,4.07s-.29-2.66-.32-4.4a5,5,0,0,0,.81-.28,5.74,5.74,0,0,0,1.77-1.59c.43-.14.85-.28,1.23-.42,1.45,1.11,2.43,3.62,3,3.43s-.89-2.5-1.32-4.17a6.63,6.63,0,0,0,.72-.45,9.36,9.36,0,0,0,2-3.32c2.4.51,4,2.65,4.86,2.24s-3.48-3.2-3.49-4.2c0-.54,1.44-1.42,3-2.66,2.12.21,3.87,1.54,4.5,1s-1.7-1.37-3.15-2.23c.3-.32.6-.65.86-1,1.8.39,3.76,2.21,4.21,1.78s-2.26-2.1-3.25-3.5A25,25,0,0,0,95.72,75c1.78.06,3.93,1.25,4.24.75s-2.63-1.5-3.91-2.62a6.54,6.54,0,0,1,.27-1.08C96.82,70.67,101.77,70.81,101.46,70Z"/><path class="cls-11" d="M78.06,86.37A22,22,0,0,1,69,89.58c-4.15.36-10.88-1.12-12.88-6.12-3.15-7.83-3-13.92,1-21.18,1.27-2.28,4.13-7.35,9.95-8.44s2.76,0,2.76,0,6.34-.8,8.16-.08-.08.73-.08.73,5,1.39,6.63,3.42.43,1.68.43,1.68a12.89,12.89,0,0,1,3.57,4.23c1.09,2.39,1.24,2.17,2,2.32s3.35.58,3.06,1.53S92,69,90.94,68.76s-3.13-.87-4.15,0-2.47,2.18-2.25,3.35.73,3.78,1,5-.44,3.42-.88,4.59-1.09,3.93-2,4.58c-.36.27-.63,1.31-1.31,1.52-.27.07-.6-.43-.65-.71-.79,1.09-1.25,0-1.36-.26C78.72,87.32,78.25,86.6,78.06,86.37Z"/><path class="cls-10" d="M78.06,86.37c.94-.77,3.2-1.12,4-2.14s1.64-1.42,1.24-4-1.93-4.48-3.42-5a8,8,0,0,0-4.66,0c-1.39.43-2.08.76-2.59.62"/><path class="cls-11" d="M70.34,69.38a15.81,15.81,0,0,0,4.48,2.11c1.06.44,3,2.18,4.22,2.66s5.09,1.65,6.19,1.46,1.49-.48,1.35-.88a.33.33,0,0,0-.48-.22s.44-.33.29-.66-.61-.21-.61-.21.43-.33.29-.62-.33-.38-.73-.52-2.33-.65-2.62-.79a19.46,19.46,0,0,0-3.17-1.57c-1.2-.36-1.49-.51-2.4-2a10.91,10.91,0,0,0-5-4.36,11.59,11.59,0,0,0-3.46-.77"/><path class="cls-10" d="M70.34,69.38a15.81,15.81,0,0,0,4.48,2.11c1.06.44,3,2.18,4.22,2.66s5.09,1.65,6.19,1.46,1.49-.48,1.35-.88a.33.33,0,0,0-.48-.22s.44-.33.29-.66-.61-.21-.61-.21.43-.33.29-.62-.33-.38-.73-.52-2.33-.65-2.62-.79a19.46,19.46,0,0,0-3.17-1.57c-1.2-.36-1.49-.51-2.4-2a10.91,10.91,0,0,0-5-4.36,11.59,11.59,0,0,0-3.46-.77"/><path class="cls-12" d="M61.39,80.88c-.26.12-2,1.38-3.38.36s-1.75-2-1.53-3.24,2.73-2.07,4.47-1.27,2,1.6,1.72,2.11-.7.47-1,.58S62,80.62,61.39,80.88Z"/><path class="cls-10" d="M69.4,82.73c.51,0,.87-.21,1.45.19a4.38,4.38,0,0,0,2.92.87"/><path class="cls-10" d="M90.58,66.14c-.8-.15-1,.07-2-2.32A12.89,12.89,0,0,0,85,59.59s1.17.36-.43-1.68-6.63-3.42-6.63-3.42,1.9,0,.08-.73-8.16.08-8.16.08,3-1.16-2.76,0c-8.27,1.65-12,12-12.85,16.19a21.89,21.89,0,0,0,1.86,13.43c2.41,4.82,8.73,6.48,12.88,6.12a22,22,0,0,0,9.1-3.21c.19.23.39,1,1.34.48a.69.69,0,0,0,1.36.26c.34,1.43,1.26.55,2.14-1.07a45.65,45.65,0,0,0,1.78-4.32c.44-1.17,1.17-3.35.88-4.59-.1-.4-.21-.94-.33-1.52,1.09-.19,1.49-.48,1.35-.88a.33.33,0,0,0-.48-.22s.44-.33.29-.66-.61-.21-.61-.21.43-.33.29-.62-.33-.38-.73-.52l-.77-.23,0-.16c-.22-1.17,1.24-2.48,2.25-3.35s3.06-.22,4.15,0,2.41-.15,2.7-1.09S91.38,66.28,90.58,66.14Z"/><rect class="cls-13" width="150" height="150"/></g></g></g></svg>