<svg xmlns="http://www.w3.org/2000/svg" viewBox="0 0 509.36 73.87"><defs><style>.cls-1{isolation:isolate;}.cls-2{opacity:0.3;mix-blend-mode:multiply;}.cls-3{stroke:#000;}.cls-3,.cls-4{stroke-linejoin:round;stroke-width:5px;}.cls-4,.cls-5{fill:#fff;}.cls-4{stroke:#066;}</style></defs><title>Recurso 46</title><g class="cls-1"><g id="Capa_2" data-name="Capa 2"><g id="Layer_1" data-name="Layer 1"><g class="cls-2"><path class="cls-3" d="M157.68,44a.8.8,0,0,1,.83.83V63.58a.77.77,0,0,1-.25.58.79.79,0,0,1-.58.25.76.76,0,0,1-.61-.25.82.82,0,0,1-.22-.58V60.29l.47-.38a3.73,3.73,0,0,1-.41,1.61,5.45,5.45,0,0,1-1.18,1.57A6.31,6.31,0,0,1,154,64.25a5.47,5.47,0,0,1-2.2.44,5.88,5.88,0,0,1-3.3-1,6.81,6.81,0,0,1-2.33-2.62,8.74,8.74,0,0,1,0-7.56,6.67,6.67,0,0,1,2.32-2.63,5.84,5.84,0,0,1,3.29-.95,5.67,5.67,0,0,1,2.18.41,6.22,6.22,0,0,1,1.81,1.13A5.35,5.35,0,0,1,157,53.15a4.24,4.24,0,0,1,.46,1.92l-.58-.41V44.79a.82.82,0,0,1,.22-.58A.76.76,0,0,1,157.68,44Zm-5.75,19.18a4.54,4.54,0,0,0,2.6-.76,5.22,5.22,0,0,0,1.78-2.07,6.75,6.75,0,0,0,.65-3,6.62,6.62,0,0,0-.65-3,5.25,5.25,0,0,0-1.78-2.08,4.79,4.79,0,0,0-5.18,0,5.14,5.14,0,0,0-1.8,2.08,6.62,6.62,0,0,0-.65,3,6.69,6.69,0,0,0,.65,3,5,5,0,0,0,1.8,2.09A4.52,4.52,0,0,0,151.93,63.14Z"/><path class="cls-3" d="M168.87,64.69a7.56,7.56,0,0,1-3.76-.91,6.42,6.42,0,0,1-2.54-2.55,7.62,7.62,0,0,1-.92-3.81,8.09,8.09,0,0,1,.93-4,6.79,6.79,0,0,1,2.4-2.55,6,6,0,0,1,3.14-.9,6.88,6.88,0,0,1,2.37.42,5.92,5.92,0,0,1,2,1.28A6.38,6.38,0,0,1,174,53.72a6.88,6.88,0,0,1,.58,2.82.74.74,0,0,1-.24.56.82.82,0,0,1-.58.24H162.62l-.33-1.5h10.89l-.36.34v-.56a4.21,4.21,0,0,0-.86-2.21A4.66,4.66,0,0,0,170.24,52a5,5,0,0,0-2.12-.47,4.79,4.79,0,0,0-1.7.33,4.44,4.44,0,0,0-1.57,1,5.31,5.31,0,0,0-1.15,1.79,6.79,6.79,0,0,0-.44,2.59,6.57,6.57,0,0,0,.66,3,5.16,5.16,0,0,0,1.91,2.1,5.63,5.63,0,0,0,3,.77,5.11,5.11,0,0,0,1.71-.27,4.86,4.86,0,0,0,1.37-.74,4.94,4.94,0,0,0,1-1,.94.94,0,0,1,.58-.25.67.67,0,0,1,.52.22.74.74,0,0,1,.2.5.77.77,0,0,1-.27.58A7.58,7.58,0,0,1,171.77,64,5.87,5.87,0,0,1,168.87,64.69Z"/><path class="cls-3" d="M200.65,45.45a2.05,2.05,0,0,1,1.5.59,2.1,2.1,0,0,1,.59,1.53V62.29a2.09,2.09,0,0,1-.59,1.51,2,2,0,0,1-1.5.61,2,2,0,0,1-1.49-.61,2,2,0,0,1-.59-1.51v-1.7l.76.31a2,2,0,0,1-.49,1.1,6.42,6.42,0,0,1-1.32,1.26,8.13,8.13,0,0,1-2,1.07,6.84,6.84,0,0,1-2.46.43,8,8,0,0,1-4.35-1.23,8.77,8.77,0,0,1-3.08-3.41,11.69,11.69,0,0,1,0-10,8.86,8.86,0,0,1,3.05-3.41A7.67,7.67,0,0,1,193,45.45a8.05,8.05,0,0,1,2.75.45,8.33,8.33,0,0,1,2.18,1.15,6.32,6.32,0,0,1,1.42,1.41,2.2,2.2,0,0,1,.51,1.2l-1.25.45V47.57a2,2,0,0,1,.59-1.51A2,2,0,0,1,200.65,45.45Zm-7,15.48a4.68,4.68,0,0,0,2.68-.76,5.17,5.17,0,0,0,1.8-2.09,6.8,6.8,0,0,0,.64-3,6.87,6.87,0,0,0-.64-3A5.17,5.17,0,0,0,196.3,50,5,5,0,0,0,191,50a5.15,5.15,0,0,0-1.79,2.09,6.73,6.73,0,0,0-.65,3,6.67,6.67,0,0,0,.65,3A5.15,5.15,0,0,0,191,60.17,4.67,4.67,0,0,0,193.62,60.93Z"/><path class="cls-3" d="M211.12,62.29A2.08,2.08,0,0,1,209,64.41a2,2,0,0,1-1.46-.61,2.09,2.09,0,0,1-.59-1.51V40.79a2.05,2.05,0,0,1,.61-1.52,2.08,2.08,0,0,1,1.51-.61,2,2,0,0,1,1.48.61,2.15,2.15,0,0,1,.58,1.52Z"/><path class="cls-3" d="M223,45.45a7.67,7.67,0,0,1,4.78,1.6,6.57,6.57,0,0,1,1.39,1.41,2.2,2.2,0,0,1,.51,1.2l-.91.45V47.57a2.09,2.09,0,0,1,.59-1.51,2,2,0,0,1,1.5-.61,2.07,2.07,0,0,1,1.5.59,2.1,2.1,0,0,1,.59,1.53V63.06a8.19,8.19,0,0,1-1.31,4.85,7.33,7.33,0,0,1-3.42,2.64,12.51,12.51,0,0,1-4.56.82,12.92,12.92,0,0,1-1.81-.17c-.74-.12-1.45-.26-2.12-.42a11.44,11.44,0,0,1-1.54-.45,3,3,0,0,1-1.44-1.13,1.72,1.72,0,0,1-.16-1.45,2.19,2.19,0,0,1,1-1.37,1.77,1.77,0,0,1,1.46-.09c.24.07.62.21,1.15.42a16.56,16.56,0,0,0,1.76.57,6.28,6.28,0,0,0,1.69.26,5.91,5.91,0,0,0,3.86-1,3.55,3.55,0,0,0,1.25-2.89v-3l.42.31a2,2,0,0,1-.47,1.1,6.2,6.2,0,0,1-1.29,1.26,7.73,7.73,0,0,1-1.93,1.07,6.42,6.42,0,0,1-2.36.43,8.29,8.29,0,0,1-4.46-1.23,8.82,8.82,0,0,1-3.13-3.41,11.51,11.51,0,0,1,0-10,8.9,8.9,0,0,1,3.1-3.41A8,8,0,0,1,223,45.45Zm.66,3.83A4.94,4.94,0,0,0,221,50a5.21,5.21,0,0,0-1.85,2.09,6.6,6.6,0,0,0-.66,3,6.54,6.54,0,0,0,.66,3A5.21,5.21,0,0,0,221,60.17a4.94,4.94,0,0,0,2.75.76,5,5,0,0,0,2.78-.76,5.29,5.29,0,0,0,1.85-2.09,6.54,6.54,0,0,0,.66-3,6.6,6.6,0,0,0-.66-3A5.29,5.29,0,0,0,226.48,50,5,5,0,0,0,223.7,49.28Z"/><path class="cls-3" d="M250.7,45.8a2,2,0,0,1,1.5.61,2.09,2.09,0,0,1,.59,1.51v8.84a8.1,8.1,0,0,1-2.06,5.84,9.15,9.15,0,0,1-11.81,0,8.13,8.13,0,0,1-2-5.84V47.92a2,2,0,0,1,.59-1.51,2.14,2.14,0,0,1,3,0,2.09,2.09,0,0,1,.59,1.51v8.84a4.54,4.54,0,0,0,.94,3.15,4.45,4.45,0,0,0,5.67,0,4.54,4.54,0,0,0,.94-3.15V47.92a2.09,2.09,0,0,1,.59-1.51A2,2,0,0,1,250.7,45.8Z"/><path class="cls-3" d="M266.65,45.45a6.13,6.13,0,0,1,3.92,1.08,5.44,5.44,0,0,1,1.84,2.87,14.49,14.49,0,0,1,.51,4v8.91a2.09,2.09,0,0,1-.59,1.51,2.15,2.15,0,0,1-3,0,2.09,2.09,0,0,1-.59-1.51V53.38a7,7,0,0,0-.29-2.07,3,3,0,0,0-1.07-1.48,3.69,3.69,0,0,0-2.19-.55,4.62,4.62,0,0,0-2.35.55,4,4,0,0,0-1.46,1.48,4.34,4.34,0,0,0-.5,2.07v8.91a2.09,2.09,0,0,1-.59,1.51,2.15,2.15,0,0,1-3,0,2.09,2.09,0,0,1-.59-1.51V47.92a2.09,2.09,0,0,1,.59-1.51,2.15,2.15,0,0,1,3,0,2.09,2.09,0,0,1,.59,1.51v1.5l-.52-.11a6.7,6.7,0,0,1,.9-1.27,9,9,0,0,1,1.39-1.27,7.61,7.61,0,0,1,1.81-1A6.49,6.49,0,0,1,266.65,45.45Z"/><path class="cls-3" d="M294.81,55.12a9.87,9.87,0,0,1-1.27,5,9.17,9.17,0,0,1-3.41,3.39,10,10,0,0,1-9.57,0,9,9,0,0,1-3.41-3.39,10.6,10.6,0,0,1,0-10.06,9.22,9.22,0,0,1,3.41-3.41,9.49,9.49,0,0,1,13,3.41A9.87,9.87,0,0,1,294.81,55.12Zm-4.18,0a6.4,6.4,0,0,0-.71-3.08A5.22,5.22,0,0,0,288,50a5.21,5.21,0,0,0-5.32,0,5.2,5.2,0,0,0-1.91,2,6.29,6.29,0,0,0-.72,3.08,6.22,6.22,0,0,0,.72,3.05,5.2,5.2,0,0,0,1.91,2,5.21,5.21,0,0,0,5.32,0,5.22,5.22,0,0,0,1.92-2A6.33,6.33,0,0,0,290.63,55.12Z"/><path class="cls-3" d="M296.47,61.53a2,2,0,0,1-.31-1.26,1.66,1.66,0,0,1,.9-1.32,2,2,0,0,1,1.19-.3,2,2,0,0,1,1.21.65,8.24,8.24,0,0,0,2.13,1.56,6.07,6.07,0,0,0,2.78.56,7.52,7.52,0,0,0,1.15-.16,2.14,2.14,0,0,0,1.09-.55,1.72,1.72,0,0,0,.47-1.34,1.52,1.52,0,0,0-.52-1.22,4.43,4.43,0,0,0-1.37-.77c-.57-.2-1.2-.4-1.9-.59s-1.46-.44-2.21-.69a9.89,9.89,0,0,1-2.07-1,4.75,4.75,0,0,1-1.53-1.62,4.92,4.92,0,0,1-.59-2.54,4.58,4.58,0,0,1,1-3,6.35,6.35,0,0,1,2.53-1.88,8.18,8.18,0,0,1,3.25-.66,10.74,10.74,0,0,1,2.26.26,8.77,8.77,0,0,1,2.26.83A5.68,5.68,0,0,1,310,48.06a2.36,2.36,0,0,1,.45,1.25,1.47,1.47,0,0,1-.66,1.32,1.68,1.68,0,0,1-1.22.37,1.84,1.84,0,0,1-1.14-.47,4.18,4.18,0,0,0-1.59-1.22,5.46,5.46,0,0,0-2.28-.45,6,6,0,0,0-1.13.12,2.3,2.3,0,0,0-1.06.52,1.62,1.62,0,0,0-.45,1.27,1.6,1.6,0,0,0,.52,1.27,3.93,3.93,0,0,0,1.41.77c.59.2,1.22.39,1.9.57s1.4.41,2.12.66a8.79,8.79,0,0,1,2,1,4.74,4.74,0,0,1,1.46,1.62,5,5,0,0,1,.56,2.52,4.59,4.59,0,0,1-1,3,6.63,6.63,0,0,1-2.61,1.9,8.34,8.34,0,0,1-3.2.64,12.6,12.6,0,0,1-4.11-.71A7.19,7.19,0,0,1,296.47,61.53Z"/><path class="cls-3" d="M323,61.53a2,2,0,0,1-.32-1.26,1.67,1.67,0,0,1,.91-1.32,1.92,1.92,0,0,1,1.18-.3,2,2,0,0,1,1.22.65,8.2,8.2,0,0,0,2.12,1.56,6.07,6.07,0,0,0,2.78.56,7.52,7.52,0,0,0,1.15-.16,2.17,2.17,0,0,0,1.1-.55,1.76,1.76,0,0,0,.47-1.34,1.56,1.56,0,0,0-.52-1.22,4.49,4.49,0,0,0-1.38-.77c-.57-.2-1.2-.4-1.89-.59s-1.46-.44-2.21-.69a9.43,9.43,0,0,1-2.07-1A4.88,4.88,0,0,1,324,53.49,5,5,0,0,1,323.4,51a4.59,4.59,0,0,1,1-3,6.39,6.39,0,0,1,2.52-1.88,8.21,8.21,0,0,1,3.25-.66,10.83,10.83,0,0,1,2.27.26,8.91,8.91,0,0,1,2.26.83,5.68,5.68,0,0,1,1.81,1.52,2.54,2.54,0,0,1,.45,1.25,1.51,1.51,0,0,1-.66,1.32,1.71,1.71,0,0,1-1.22.37,1.87,1.87,0,0,1-1.15-.47,4.07,4.07,0,0,0-1.58-1.22,5.46,5.46,0,0,0-2.28-.45,5.8,5.8,0,0,0-1.13.12,2.25,2.25,0,0,0-1.06.52,1.63,1.63,0,0,0-.46,1.27,1.61,1.61,0,0,0,.53,1.27,3.76,3.76,0,0,0,1.41.77q.89.3,1.89.57c.7.19,1.41.41,2.12.66a9.08,9.08,0,0,1,2,1,4.84,4.84,0,0,1,1.46,1.62,5.11,5.11,0,0,1,.56,2.52,4.54,4.54,0,0,1-1.05,3,6.49,6.49,0,0,1-2.61,1.9,8.31,8.31,0,0,1-3.2.64,12.5,12.5,0,0,1-4.1-.71A7.14,7.14,0,0,1,323,61.53Z"/><path class="cls-3" d="M349,64.76a10.22,10.22,0,0,1-5.13-1.23,8.56,8.56,0,0,1-3.34-3.36,9.8,9.8,0,0,1-1.17-4.8A10.56,10.56,0,0,1,340.61,50a9,9,0,0,1,3.32-3.39,8.57,8.57,0,0,1,4.35-1.18,7.88,7.88,0,0,1,3.36.73,9.09,9.09,0,0,1,2.8,2,9.74,9.74,0,0,1,1.93,2.94,8.87,8.87,0,0,1,.72,3.55,1.81,1.81,0,0,1-.67,1.36,2.18,2.18,0,0,1-1.46.52H341.67l-1-3.48H353.4l-.77.7v-.94a3.16,3.16,0,0,0-.71-1.81,4.69,4.69,0,0,0-3.64-1.74,6.86,6.86,0,0,0-1.95.27,3.78,3.78,0,0,0-1.56.94,4.75,4.75,0,0,0-1,1.78,8.94,8.94,0,0,0-.38,2.82,6.09,6.09,0,0,0,.78,3.18,5.39,5.39,0,0,0,2,2,5.32,5.32,0,0,0,2.63.68,8,8,0,0,0,2.05-.21,4.38,4.38,0,0,0,1.24-.5,9.24,9.24,0,0,1,.85-.5,2.65,2.65,0,0,1,1.18-.32,1.76,1.76,0,0,1,1.78,1.74,2.18,2.18,0,0,1-1,1.71,8.2,8.2,0,0,1-2.54,1.34A10.15,10.15,0,0,1,349,64.76Z"/><path class="cls-3" d="M362.24,64.41a2,2,0,0,1-1.49-.61,2.06,2.06,0,0,1-.6-1.51V47.92a2.06,2.06,0,0,1,.6-1.51,2,2,0,0,1,1.49-.61,2,2,0,0,1,1.5.61,2.09,2.09,0,0,1,.59,1.51v3.27l-.24-2.33a5.19,5.19,0,0,1,1-1.48,5.73,5.73,0,0,1,1.37-1.08,6.28,6.28,0,0,1,1.64-.64,7.39,7.39,0,0,1,1.74-.21,2.66,2.66,0,0,1,1.75.59,1.77,1.77,0,0,1,.72,1.39,2.06,2.06,0,0,1-.59,1.65,2,2,0,0,1-1.29.51,2.92,2.92,0,0,1-1.2-.24A2.86,2.86,0,0,0,368,49.1a3,3,0,0,0-1.27.3,3.48,3.48,0,0,0-1.18.92,4.82,4.82,0,0,0-.87,1.55,6.43,6.43,0,0,0-.33,2.17v8.25a2.09,2.09,0,0,1-.59,1.51A2,2,0,0,1,362.24,64.41Z"/><path class="cls-3" d="M382.67,64.76a10.25,10.25,0,0,1-5.13-1.23,8.63,8.63,0,0,1-3.34-3.36,9.8,9.8,0,0,1-1.16-4.8A10.56,10.56,0,0,1,374.31,50a8.94,8.94,0,0,1,3.32-3.39A8.57,8.57,0,0,1,382,45.45a7.91,7.91,0,0,1,3.36.73,9.21,9.21,0,0,1,2.8,2,9.93,9.93,0,0,1,1.93,2.94,9,9,0,0,1,.71,3.55,1.77,1.77,0,0,1-.66,1.36,2.2,2.2,0,0,1-1.46.52H375.37l-1.05-3.48h12.77l-.76.7v-.94a3.17,3.17,0,0,0-.72-1.81A4.69,4.69,0,0,0,382,49.28a6.76,6.76,0,0,0-2,.27,3.82,3.82,0,0,0-1.57.94,4.74,4.74,0,0,0-1,1.78,8.66,8.66,0,0,0-.38,2.82,6.09,6.09,0,0,0,.78,3.18,5.37,5.37,0,0,0,4.65,2.66,8.06,8.06,0,0,0,2-.21,4.19,4.19,0,0,0,1.23-.5c.32-.2.6-.37.86-.5a2.62,2.62,0,0,1,1.18-.32,1.73,1.73,0,0,1,1.27.52,1.69,1.69,0,0,1,.5,1.22,2.17,2.17,0,0,1-1,1.71,8.2,8.2,0,0,1-2.54,1.34A10.21,10.21,0,0,1,382.67,64.76Z"/><path class="cls-3" d="M392.83,61.53a2,2,0,0,1-.31-1.26,1.67,1.67,0,0,1,.91-1.32,1.92,1.92,0,0,1,1.18-.3,2,2,0,0,1,1.22.65A8.2,8.2,0,0,0,398,60.86a6.07,6.07,0,0,0,2.78.56,7.52,7.52,0,0,0,1.15-.16,2.21,2.21,0,0,0,1.1-.55,1.76,1.76,0,0,0,.47-1.34,1.56,1.56,0,0,0-.52-1.22,4.49,4.49,0,0,0-1.38-.77c-.57-.2-1.2-.4-1.9-.59s-1.45-.44-2.21-.69a9.89,9.89,0,0,1-2.07-1,5,5,0,0,1-1.53-1.62,5,5,0,0,1-.59-2.54,4.59,4.59,0,0,1,1-3,6.39,6.39,0,0,1,2.52-1.88,8.21,8.21,0,0,1,3.25-.66,10.67,10.67,0,0,1,2.26.26,8.84,8.84,0,0,1,2.27.83,5.79,5.79,0,0,1,1.81,1.52,2.54,2.54,0,0,1,.45,1.25,1.51,1.51,0,0,1-.66,1.32,1.71,1.71,0,0,1-1.22.37,1.85,1.85,0,0,1-1.15-.47,4.07,4.07,0,0,0-1.58-1.22,5.46,5.46,0,0,0-2.28-.45,5.8,5.8,0,0,0-1.13.12,2.25,2.25,0,0,0-1.06.52,1.59,1.59,0,0,0-.46,1.27,1.61,1.61,0,0,0,.53,1.27,3.79,3.79,0,0,0,1.4.77c.6.2,1.23.39,1.9.57s1.4.41,2.12.66a9.08,9.08,0,0,1,2,1,4.84,4.84,0,0,1,1.46,1.62,5.11,5.11,0,0,1,.56,2.52,4.54,4.54,0,0,1-1,3,6.49,6.49,0,0,1-2.61,1.9,8.31,8.31,0,0,1-3.2.64,12.6,12.6,0,0,1-4.11-.71A7.24,7.24,0,0,1,392.83,61.53Z"/><path class="cls-3" d="M421.26,45.8a2.35,2.35,0,0,1,1.22.33,2.06,2.06,0,0,1,.84,1l5.11,11.69-.76.35,5.21-12a1.85,1.85,0,0,1,1.85-1.32,1.91,1.91,0,0,1,1.41.54,1.82,1.82,0,0,1,.54,1.34,1.67,1.67,0,0,1-.09.52,5.19,5.19,0,0,1-.19.52l-6.51,14.34a2,2,0,0,1-1.77,1.32,1.9,1.9,0,0,1-1.27-.24,2.1,2.1,0,0,1-.92-1.08l-6.48-14.34a4.67,4.67,0,0,1-.15-.45,2.1,2.1,0,0,1-.09-.66,1.82,1.82,0,0,1,.56-1.23A1.91,1.91,0,0,1,421.26,45.8Z"/><path class="cls-3" d="M441.09,43.54a2.71,2.71,0,0,1-1.67-.39,1.61,1.61,0,0,1-.49-1.36v-.66a1.54,1.54,0,0,1,.54-1.37,3,3,0,0,1,1.65-.37,2.83,2.83,0,0,1,1.71.39,1.64,1.64,0,0,1,.48,1.35v.66a1.56,1.56,0,0,1-.52,1.38A3.06,3.06,0,0,1,441.09,43.54Zm2.12,18.75a2.09,2.09,0,0,1-.59,1.51,2,2,0,0,1-1.5.61,2,2,0,0,1-1.49-.61,2.06,2.06,0,0,1-.6-1.51V47.92a2.06,2.06,0,0,1,.6-1.51,2,2,0,0,1,1.49-.61,2,2,0,0,1,1.5.61,2.09,2.09,0,0,1,.59,1.51Z"/><path class="cls-3" d="M447.6,45.8a2.35,2.35,0,0,1,1.22.33,2,2,0,0,1,.83,1l5.12,11.69-.77.35,5.22-12a1.85,1.85,0,0,1,1.85-1.32,1.91,1.91,0,0,1,1.41.54,1.86,1.86,0,0,1,.54,1.34,1.67,1.67,0,0,1-.09.52,5.19,5.19,0,0,1-.19.52l-6.51,14.34a2,2,0,0,1-1.77,1.32,1.89,1.89,0,0,1-1.27-.24,2.17,2.17,0,0,1-.93-1.08l-6.47-14.34a4.31,4.31,0,0,1-.16-.45,2.48,2.48,0,0,1-.08-.66,1.81,1.81,0,0,1,.55-1.23A1.93,1.93,0,0,1,447.6,45.8Z"/><path class="cls-3" d="M482.9,55.12a9.77,9.77,0,0,1-1.27,5,9.07,9.07,0,0,1-3.4,3.39,10,10,0,0,1-9.57,0,9,9,0,0,1-3.41-3.39,10.6,10.6,0,0,1,0-10.06,9.22,9.22,0,0,1,3.41-3.41,9.92,9.92,0,0,1,9.57,0,9.27,9.27,0,0,1,3.4,3.41A9.77,9.77,0,0,1,482.9,55.12Zm-4.17,0A6.4,6.4,0,0,0,478,52a5.29,5.29,0,0,0-1.92-2,5.21,5.21,0,0,0-5.32,0,5.29,5.29,0,0,0-1.92,2,6.4,6.4,0,0,0-.71,3.08,6.33,6.33,0,0,0,.71,3.05,5.29,5.29,0,0,0,1.92,2,5.21,5.21,0,0,0,5.32,0,5.29,5.29,0,0,0,1.92-2A6.33,6.33,0,0,0,478.73,55.12Z"/><path class="cls-3" d="M484.57,61.53a2,2,0,0,1-.31-1.26,1.66,1.66,0,0,1,.9-1.32,1.94,1.94,0,0,1,1.18-.3,2,2,0,0,1,1.22.65,8.2,8.2,0,0,0,2.12,1.56,6.11,6.11,0,0,0,2.79.56,7.69,7.69,0,0,0,1.15-.16,2.18,2.18,0,0,0,1.09-.55,1.76,1.76,0,0,0,.47-1.34,1.52,1.52,0,0,0-.52-1.22,4.49,4.49,0,0,0-1.38-.77c-.56-.2-1.2-.4-1.89-.59s-1.46-.44-2.21-.69a9.43,9.43,0,0,1-2.07-1,4.75,4.75,0,0,1-1.53-1.62A4.92,4.92,0,0,1,485,51a4.58,4.58,0,0,1,1-3,6.39,6.39,0,0,1,2.52-1.88,8.22,8.22,0,0,1,3.26-.66,10.74,10.74,0,0,1,2.26.26,8.77,8.77,0,0,1,2.26.83,5.68,5.68,0,0,1,1.81,1.52,2.44,2.44,0,0,1,.45,1.25,1.47,1.47,0,0,1-.66,1.32,1.7,1.7,0,0,1-1.22.37,1.9,1.9,0,0,1-1.15-.47,4.07,4.07,0,0,0-1.58-1.22,5.46,5.46,0,0,0-2.28-.45,5.88,5.88,0,0,0-1.13.12,2.3,2.3,0,0,0-1.06.52,1.62,1.62,0,0,0-.45,1.27,1.6,1.6,0,0,0,.52,1.27,3.93,3.93,0,0,0,1.41.77q.88.3,1.89.57t2.13.66a8.79,8.79,0,0,1,2,1,4.84,4.84,0,0,1,1.46,1.62,5.11,5.11,0,0,1,.56,2.52,4.59,4.59,0,0,1-1,3,6.63,6.63,0,0,1-2.61,1.9,8.39,8.39,0,0,1-3.21.64,12.59,12.59,0,0,1-4.1-.71A7.14,7.14,0,0,1,484.57,61.53Z"/><path class="cls-3" d="M504.32,64.41a2.1,2.1,0,0,1-1.55-.54,2.08,2.08,0,0,1-.54-1.54v-.6a2.06,2.06,0,0,1,.54-1.54,2.1,2.1,0,0,1,1.55-.54h.45a2.1,2.1,0,0,1,1.55.54,2.06,2.06,0,0,1,.54,1.54v.6a2.08,2.08,0,0,1-.54,1.54,2.1,2.1,0,0,1-1.55.54Zm.24-7.69q-1.19,0-1.29-1.32l-1-12.8a2.36,2.36,0,0,1,.57-1.81,2.13,2.13,0,0,1,1.69-.73,2.18,2.18,0,0,1,1.7.73,2.25,2.25,0,0,1,.56,1.81l-1,12.8C505.75,56.28,505.33,56.72,504.56,56.72Z"/></g><path class="cls-4" d="M154.68,41a.8.8,0,0,1,.83.83V60.58a.77.77,0,0,1-.25.58.79.79,0,0,1-.58.25.76.76,0,0,1-.61-.25.82.82,0,0,1-.22-.58V57.29l.47-.38a3.73,3.73,0,0,1-.41,1.61,5.45,5.45,0,0,1-1.18,1.57A6.31,6.31,0,0,1,151,61.25a5.47,5.47,0,0,1-2.2.44,5.88,5.88,0,0,1-3.3-1,6.81,6.81,0,0,1-2.33-2.62,8.74,8.74,0,0,1,0-7.56,6.67,6.67,0,0,1,2.32-2.63,5.84,5.84,0,0,1,3.29-.95,5.67,5.67,0,0,1,2.18.41,6.22,6.22,0,0,1,1.81,1.13A5.35,5.35,0,0,1,154,50.15a4.24,4.24,0,0,1,.46,1.92l-.58-.41V41.79a.82.82,0,0,1,.22-.58A.76.76,0,0,1,154.68,41Zm-5.75,19.18a4.54,4.54,0,0,0,2.6-.76,5.22,5.22,0,0,0,1.78-2.07,6.75,6.75,0,0,0,.65-3,6.62,6.62,0,0,0-.65-3,5.25,5.25,0,0,0-1.78-2.08,4.79,4.79,0,0,0-5.18,0,5.14,5.14,0,0,0-1.8,2.08,6.62,6.62,0,0,0-.65,3,6.69,6.69,0,0,0,.65,3,5,5,0,0,0,1.8,2.09A4.52,4.52,0,0,0,148.93,60.14Z"/><path class="cls-4" d="M165.87,61.69a7.56,7.56,0,0,1-3.76-.91,6.42,6.42,0,0,1-2.54-2.55,7.62,7.62,0,0,1-.92-3.81,8.09,8.09,0,0,1,.93-4,6.79,6.79,0,0,1,2.4-2.55,6,6,0,0,1,3.14-.9,6.88,6.88,0,0,1,2.37.42,5.92,5.92,0,0,1,2,1.28A6.38,6.38,0,0,1,171,50.72a6.88,6.88,0,0,1,.58,2.82.74.74,0,0,1-.24.56.82.82,0,0,1-.58.24H159.62l-.33-1.5h10.89l-.36.34v-.56a4.21,4.21,0,0,0-.86-2.21A4.66,4.66,0,0,0,167.24,49a5,5,0,0,0-2.12-.47,4.79,4.79,0,0,0-1.7.33,4.44,4.44,0,0,0-1.57,1,5.31,5.31,0,0,0-1.15,1.79,6.79,6.79,0,0,0-.44,2.59,6.57,6.57,0,0,0,.66,3,5.16,5.16,0,0,0,1.91,2.1,5.63,5.63,0,0,0,3,.77,5.11,5.11,0,0,0,1.71-.27,4.86,4.86,0,0,0,1.37-.74,4.94,4.94,0,0,0,1-1,.94.94,0,0,1,.58-.25.67.67,0,0,1,.52.22.74.74,0,0,1,.2.5.77.77,0,0,1-.27.58A7.58,7.58,0,0,1,168.77,61,5.87,5.87,0,0,1,165.87,61.69Z"/><path class="cls-4" d="M197.65,42.45a2.05,2.05,0,0,1,1.5.59,2.1,2.1,0,0,1,.59,1.53V59.29a2.09,2.09,0,0,1-.59,1.51,2,2,0,0,1-1.5.61,2,2,0,0,1-1.49-.61,2,2,0,0,1-.59-1.51v-1.7l.76.31a2,2,0,0,1-.49,1.1,6.42,6.42,0,0,1-1.32,1.26,8.13,8.13,0,0,1-2,1.07,6.84,6.84,0,0,1-2.46.43,8,8,0,0,1-4.35-1.23,8.77,8.77,0,0,1-3.08-3.41,11.69,11.69,0,0,1,0-10,8.86,8.86,0,0,1,3.05-3.41A7.67,7.67,0,0,1,190,42.45a8.05,8.05,0,0,1,2.75.45,8.33,8.33,0,0,1,2.18,1.15,6.32,6.32,0,0,1,1.42,1.41,2.2,2.2,0,0,1,.51,1.2l-1.25.45V44.57a2,2,0,0,1,.59-1.51A2,2,0,0,1,197.65,42.45Zm-7,15.48a4.68,4.68,0,0,0,2.68-.76,5.17,5.17,0,0,0,1.8-2.09,6.8,6.8,0,0,0,.64-3,6.87,6.87,0,0,0-.64-3A5.17,5.17,0,0,0,193.3,47,5,5,0,0,0,188,47a5.15,5.15,0,0,0-1.79,2.09,6.73,6.73,0,0,0-.65,3,6.67,6.67,0,0,0,.65,3A5.15,5.15,0,0,0,188,57.17,4.67,4.67,0,0,0,190.62,57.93Z"/><path class="cls-4" d="M208.12,59.29A2.08,2.08,0,0,1,206,61.41a2,2,0,0,1-1.46-.61,2.09,2.09,0,0,1-.59-1.51V37.79a2.05,2.05,0,0,1,.61-1.52,2.08,2.08,0,0,1,1.51-.61,2,2,0,0,1,1.48.61,2.15,2.15,0,0,1,.58,1.52Z"/><path class="cls-4" d="M220,42.45a7.67,7.67,0,0,1,4.78,1.6,6.57,6.57,0,0,1,1.39,1.41,2.2,2.2,0,0,1,.51,1.2l-.91.45V44.57a2.09,2.09,0,0,1,.59-1.51,2,2,0,0,1,1.5-.61,2.07,2.07,0,0,1,1.5.59,2.1,2.1,0,0,1,.59,1.53V60.06a8.19,8.19,0,0,1-1.31,4.85,7.33,7.33,0,0,1-3.42,2.64,12.51,12.51,0,0,1-4.56.82,12.92,12.92,0,0,1-1.81-.17c-.74-.12-1.45-.26-2.12-.42a11.44,11.44,0,0,1-1.54-.45,3,3,0,0,1-1.44-1.13,1.72,1.72,0,0,1-.16-1.45,2.19,2.19,0,0,1,1-1.37,1.77,1.77,0,0,1,1.46-.09c.24.07.62.21,1.15.42a16.56,16.56,0,0,0,1.76.57,6.28,6.28,0,0,0,1.69.26,5.91,5.91,0,0,0,3.86-1,3.55,3.55,0,0,0,1.25-2.89v-3l.42.31a2,2,0,0,1-.47,1.1,6.2,6.2,0,0,1-1.29,1.26,7.73,7.73,0,0,1-1.93,1.07,6.42,6.42,0,0,1-2.36.43,8.29,8.29,0,0,1-4.46-1.23,8.82,8.82,0,0,1-3.13-3.41,11.51,11.51,0,0,1,0-10,8.9,8.9,0,0,1,3.1-3.41A8,8,0,0,1,220,42.45Zm.66,3.83A4.94,4.94,0,0,0,218,47a5.21,5.21,0,0,0-1.85,2.09,6.6,6.6,0,0,0-.66,3,6.54,6.54,0,0,0,.66,3A5.21,5.21,0,0,0,218,57.17a4.94,4.94,0,0,0,2.75.76,5,5,0,0,0,2.78-.76,5.29,5.29,0,0,0,1.85-2.09,6.54,6.54,0,0,0,.66-3,6.6,6.6,0,0,0-.66-3A5.29,5.29,0,0,0,223.48,47,5,5,0,0,0,220.7,46.28Z"/><path class="cls-4" d="M247.7,42.8a2,2,0,0,1,1.5.61,2.09,2.09,0,0,1,.59,1.51v8.84a8.1,8.1,0,0,1-2.06,5.84,9.15,9.15,0,0,1-11.81,0,8.13,8.13,0,0,1-2-5.84V44.92a2,2,0,0,1,.59-1.51,2.14,2.14,0,0,1,3,0,2.09,2.09,0,0,1,.59,1.51v8.84a4.54,4.54,0,0,0,.94,3.15,4.45,4.45,0,0,0,5.67,0,4.54,4.54,0,0,0,.94-3.15V44.92a2.09,2.09,0,0,1,.59-1.51A2,2,0,0,1,247.7,42.8Z"/><path class="cls-4" d="M263.65,42.45a6.13,6.13,0,0,1,3.92,1.08,5.44,5.44,0,0,1,1.84,2.87,14.49,14.49,0,0,1,.51,4v8.91a2.09,2.09,0,0,1-.59,1.51,2.15,2.15,0,0,1-3,0,2.09,2.09,0,0,1-.59-1.51V50.38a7,7,0,0,0-.29-2.07,3,3,0,0,0-1.07-1.48,3.69,3.69,0,0,0-2.19-.55,4.62,4.62,0,0,0-2.35.55,4,4,0,0,0-1.46,1.48,4.34,4.34,0,0,0-.5,2.07v8.91a2.09,2.09,0,0,1-.59,1.51,2.15,2.15,0,0,1-3,0,2.09,2.09,0,0,1-.59-1.51V44.92a2.09,2.09,0,0,1,.59-1.51,2.15,2.15,0,0,1,3,0,2.09,2.09,0,0,1,.59,1.51v1.5l-.52-.11a6.7,6.7,0,0,1,.9-1.27,9,9,0,0,1,1.39-1.27,7.61,7.61,0,0,1,1.81-1A6.49,6.49,0,0,1,263.65,42.45Z"/><path class="cls-4" d="M291.81,52.12a9.87,9.87,0,0,1-1.27,5,9.17,9.17,0,0,1-3.41,3.39,10,10,0,0,1-9.57,0,9,9,0,0,1-3.41-3.39,10.6,10.6,0,0,1,0-10.06,9.22,9.22,0,0,1,3.41-3.41,9.49,9.49,0,0,1,13,3.41A9.87,9.87,0,0,1,291.81,52.12Zm-4.18,0a6.4,6.4,0,0,0-.71-3.08A5.22,5.22,0,0,0,285,47a5.21,5.21,0,0,0-5.32,0,5.2,5.2,0,0,0-1.91,2,6.29,6.29,0,0,0-.72,3.08,6.22,6.22,0,0,0,.72,3.05,5.2,5.2,0,0,0,1.91,2,5.21,5.21,0,0,0,5.32,0,5.22,5.22,0,0,0,1.92-2A6.33,6.33,0,0,0,287.63,52.12Z"/><path class="cls-4" d="M293.47,58.53a2,2,0,0,1-.31-1.26,1.66,1.66,0,0,1,.9-1.32,2,2,0,0,1,1.19-.3,2,2,0,0,1,1.21.65,8.24,8.24,0,0,0,2.13,1.56,6.07,6.07,0,0,0,2.78.56,7.52,7.52,0,0,0,1.15-.16,2.14,2.14,0,0,0,1.09-.55,1.72,1.72,0,0,0,.47-1.34,1.52,1.52,0,0,0-.52-1.22,4.43,4.43,0,0,0-1.37-.77c-.57-.2-1.2-.4-1.9-.59s-1.46-.44-2.21-.69a9.89,9.89,0,0,1-2.07-1,4.75,4.75,0,0,1-1.53-1.62,4.92,4.92,0,0,1-.59-2.54,4.58,4.58,0,0,1,1-3,6.35,6.35,0,0,1,2.53-1.88,8.18,8.18,0,0,1,3.25-.66,10.74,10.74,0,0,1,2.26.26,8.77,8.77,0,0,1,2.26.83A5.68,5.68,0,0,1,307,45.06a2.36,2.36,0,0,1,.45,1.25,1.47,1.47,0,0,1-.66,1.32,1.68,1.68,0,0,1-1.22.37,1.84,1.84,0,0,1-1.14-.47,4.18,4.18,0,0,0-1.59-1.22,5.46,5.46,0,0,0-2.28-.45,6,6,0,0,0-1.13.12,2.3,2.3,0,0,0-1.06.52,1.62,1.62,0,0,0-.45,1.27,1.6,1.6,0,0,0,.52,1.27,3.93,3.93,0,0,0,1.41.77c.59.2,1.22.39,1.9.57s1.4.41,2.12.66a8.79,8.79,0,0,1,2,1,4.74,4.74,0,0,1,1.46,1.62,5,5,0,0,1,.56,2.52,4.59,4.59,0,0,1-1,3,6.63,6.63,0,0,1-2.61,1.9,8.34,8.34,0,0,1-3.2.64,12.6,12.6,0,0,1-4.11-.71A7.19,7.19,0,0,1,293.47,58.53Z"/><path class="cls-4" d="M320,58.53a2,2,0,0,1-.32-1.26,1.67,1.67,0,0,1,.91-1.32,1.92,1.92,0,0,1,1.18-.3,2,2,0,0,1,1.22.65,8.2,8.2,0,0,0,2.12,1.56,6.07,6.07,0,0,0,2.78.56,7.52,7.52,0,0,0,1.15-.16,2.17,2.17,0,0,0,1.1-.55,1.76,1.76,0,0,0,.47-1.34,1.56,1.56,0,0,0-.52-1.22,4.49,4.49,0,0,0-1.38-.77c-.57-.2-1.2-.4-1.89-.59s-1.46-.44-2.21-.69a9.43,9.43,0,0,1-2.07-1A4.88,4.88,0,0,1,321,50.49,5,5,0,0,1,320.4,48a4.59,4.59,0,0,1,1-3,6.39,6.39,0,0,1,2.52-1.88,8.21,8.21,0,0,1,3.25-.66,10.83,10.83,0,0,1,2.27.26,8.91,8.91,0,0,1,2.26.83,5.68,5.68,0,0,1,1.81,1.52,2.54,2.54,0,0,1,.45,1.25,1.51,1.51,0,0,1-.66,1.32,1.71,1.71,0,0,1-1.22.37,1.87,1.87,0,0,1-1.15-.47,4.07,4.07,0,0,0-1.58-1.22,5.46,5.46,0,0,0-2.28-.45,5.8,5.8,0,0,0-1.13.12,2.25,2.25,0,0,0-1.06.52,1.63,1.63,0,0,0-.46,1.27,1.61,1.61,0,0,0,.53,1.27,3.76,3.76,0,0,0,1.41.77q.89.3,1.89.57c.7.19,1.41.41,2.12.66a9.08,9.08,0,0,1,2,1,4.84,4.84,0,0,1,1.46,1.62,5.11,5.11,0,0,1,.56,2.52,4.54,4.54,0,0,1-1.05,3,6.49,6.49,0,0,1-2.61,1.9,8.31,8.31,0,0,1-3.2.64,12.5,12.5,0,0,1-4.1-.71A7.14,7.14,0,0,1,320,58.53Z"/><path class="cls-4" d="M346,61.76a10.22,10.22,0,0,1-5.13-1.23,8.56,8.56,0,0,1-3.34-3.36,9.8,9.8,0,0,1-1.17-4.8A10.56,10.56,0,0,1,337.61,47a9,9,0,0,1,3.32-3.39,8.57,8.57,0,0,1,4.35-1.18,7.88,7.88,0,0,1,3.36.73,9.09,9.09,0,0,1,2.8,2,9.74,9.74,0,0,1,1.93,2.94,8.87,8.87,0,0,1,.72,3.55,1.81,1.81,0,0,1-.67,1.36,2.18,2.18,0,0,1-1.46.52H338.67l-1-3.48H350.4l-.77.7v-.94a3.16,3.16,0,0,0-.71-1.81,4.69,4.69,0,0,0-3.64-1.74,6.86,6.86,0,0,0-1.95.27,3.78,3.78,0,0,0-1.56.94,4.75,4.75,0,0,0-1,1.78,8.94,8.94,0,0,0-.38,2.82,6.09,6.09,0,0,0,.78,3.18,5.39,5.39,0,0,0,2,2,5.32,5.32,0,0,0,2.63.68,8,8,0,0,0,2.05-.21,4.38,4.38,0,0,0,1.24-.5,9.24,9.24,0,0,1,.85-.5,2.65,2.65,0,0,1,1.18-.32,1.76,1.76,0,0,1,1.78,1.74,2.18,2.18,0,0,1-1,1.71,8.2,8.2,0,0,1-2.54,1.34A10.15,10.15,0,0,1,346,61.76Z"/><path class="cls-4" d="M359.24,61.41a2,2,0,0,1-1.49-.61,2.06,2.06,0,0,1-.6-1.51V44.92a2.06,2.06,0,0,1,.6-1.51,2,2,0,0,1,1.49-.61,2,2,0,0,1,1.5.61,2.09,2.09,0,0,1,.59,1.51v3.27l-.24-2.33a5.19,5.19,0,0,1,1-1.48,5.73,5.73,0,0,1,1.37-1.08,6.28,6.28,0,0,1,1.64-.64,7.39,7.39,0,0,1,1.74-.21,2.66,2.66,0,0,1,1.75.59,1.77,1.77,0,0,1,.72,1.39,2.06,2.06,0,0,1-.59,1.65,2,2,0,0,1-1.29.51,2.92,2.92,0,0,1-1.2-.24A2.86,2.86,0,0,0,365,46.1a3,3,0,0,0-1.27.3,3.48,3.48,0,0,0-1.18.92,4.82,4.82,0,0,0-.87,1.55,6.43,6.43,0,0,0-.33,2.17v8.25a2.09,2.09,0,0,1-.59,1.51A2,2,0,0,1,359.24,61.41Z"/><path class="cls-4" d="M379.67,61.76a10.25,10.25,0,0,1-5.13-1.23,8.63,8.63,0,0,1-3.34-3.36,9.8,9.8,0,0,1-1.16-4.8A10.56,10.56,0,0,1,371.31,47a8.94,8.94,0,0,1,3.32-3.39A8.57,8.57,0,0,1,379,42.45a7.91,7.91,0,0,1,3.36.73,9.21,9.21,0,0,1,2.8,2,9.93,9.93,0,0,1,1.93,2.94,9,9,0,0,1,.71,3.55,1.77,1.77,0,0,1-.66,1.36,2.2,2.2,0,0,1-1.46.52H372.37l-1.05-3.48h12.77l-.76.7v-.94a3.17,3.17,0,0,0-.72-1.81A4.69,4.69,0,0,0,379,46.28a6.76,6.76,0,0,0-2,.27,3.82,3.82,0,0,0-1.57.94,4.74,4.74,0,0,0-1,1.78,8.66,8.66,0,0,0-.38,2.82,6.09,6.09,0,0,0,.78,3.18,5.37,5.37,0,0,0,4.65,2.66,8.06,8.06,0,0,0,2-.21,4.19,4.19,0,0,0,1.23-.5c.32-.2.6-.37.86-.5a2.62,2.62,0,0,1,1.18-.32,1.73,1.73,0,0,1,1.27.52,1.69,1.69,0,0,1,.5,1.22,2.17,2.17,0,0,1-1,1.71,8.2,8.2,0,0,1-2.54,1.34A10.21,10.21,0,0,1,379.67,61.76Z"/><path class="cls-4" d="M389.83,58.53a2,2,0,0,1-.31-1.26,1.67,1.67,0,0,1,.91-1.32,1.92,1.92,0,0,1,1.18-.3,2,2,0,0,1,1.22.65A8.2,8.2,0,0,0,395,57.86a6.07,6.07,0,0,0,2.78.56,7.52,7.52,0,0,0,1.15-.16,2.21,2.21,0,0,0,1.1-.55,1.76,1.76,0,0,0,.47-1.34,1.56,1.56,0,0,0-.52-1.22,4.49,4.49,0,0,0-1.38-.77c-.57-.2-1.2-.4-1.9-.59s-1.45-.44-2.21-.69a9.89,9.89,0,0,1-2.07-1,5,5,0,0,1-1.53-1.62,5,5,0,0,1-.59-2.54,4.59,4.59,0,0,1,1-3,6.39,6.39,0,0,1,2.52-1.88,8.21,8.21,0,0,1,3.25-.66,10.67,10.67,0,0,1,2.26.26,8.84,8.84,0,0,1,2.27.83,5.79,5.79,0,0,1,1.81,1.52,2.54,2.54,0,0,1,.45,1.25,1.51,1.51,0,0,1-.66,1.32,1.71,1.71,0,0,1-1.22.37,1.85,1.85,0,0,1-1.15-.47,4.07,4.07,0,0,0-1.58-1.22,5.46,5.46,0,0,0-2.28-.45,5.8,5.8,0,0,0-1.13.12,2.25,2.25,0,0,0-1.06.52,1.59,1.59,0,0,0-.46,1.27,1.61,1.61,0,0,0,.53,1.27,3.79,3.79,0,0,0,1.4.77c.6.2,1.23.39,1.9.57s1.4.41,2.12.66a9.08,9.08,0,0,1,2,1,4.84,4.84,0,0,1,1.46,1.62,5.11,5.11,0,0,1,.56,2.52,4.54,4.54,0,0,1-1,3,6.49,6.49,0,0,1-2.61,1.9,8.31,8.31,0,0,1-3.2.64,12.6,12.6,0,0,1-4.11-.71A7.24,7.24,0,0,1,389.83,58.53Z"/><path class="cls-4" d="M418.26,42.8a2.35,2.35,0,0,1,1.22.33,2.06,2.06,0,0,1,.84,1l5.11,11.69-.76.35,5.21-12a1.85,1.85,0,0,1,1.85-1.32,1.91,1.91,0,0,1,1.41.54,1.82,1.82,0,0,1,.54,1.34,1.67,1.67,0,0,1-.09.52,5.19,5.19,0,0,1-.19.52l-6.51,14.34a2,2,0,0,1-1.77,1.32,1.9,1.9,0,0,1-1.27-.24,2.1,2.1,0,0,1-.92-1.08l-6.48-14.34a4.67,4.67,0,0,1-.15-.45,2.1,2.1,0,0,1-.09-.66,1.82,1.82,0,0,1,.56-1.23A1.91,1.91,0,0,1,418.26,42.8Z"/><path class="cls-4" d="M438.09,40.54a2.71,2.71,0,0,1-1.67-.39,1.61,1.61,0,0,1-.49-1.36v-.66a1.54,1.54,0,0,1,.54-1.37,3,3,0,0,1,1.65-.37,2.83,2.83,0,0,1,1.71.39,1.64,1.64,0,0,1,.48,1.35v.66a1.56,1.56,0,0,1-.52,1.38A3.06,3.06,0,0,1,438.09,40.54Zm2.12,18.75a2.09,2.09,0,0,1-.59,1.51,2,2,0,0,1-1.5.61,2,2,0,0,1-1.49-.61,2.06,2.06,0,0,1-.6-1.51V44.92a2.06,2.06,0,0,1,.6-1.51,2,2,0,0,1,1.49-.61,2,2,0,0,1,1.5.61,2.09,2.09,0,0,1,.59,1.51Z"/><path class="cls-4" d="M444.6,42.8a2.35,2.35,0,0,1,1.22.33,2,2,0,0,1,.83,1l5.12,11.69-.77.35,5.22-12a1.85,1.85,0,0,1,1.85-1.32,1.91,1.91,0,0,1,1.41.54,1.86,1.86,0,0,1,.54,1.34,1.67,1.67,0,0,1-.09.52,5.19,5.19,0,0,1-.19.52l-6.51,14.34a2,2,0,0,1-1.77,1.32,1.89,1.89,0,0,1-1.27-.24,2.17,2.17,0,0,1-.93-1.08l-6.47-14.34a4.31,4.31,0,0,1-.16-.45,2.48,2.48,0,0,1-.08-.66,1.81,1.81,0,0,1,.55-1.23A1.93,1.93,0,0,1,444.6,42.8Z"/><path class="cls-4" d="M479.9,52.12a9.77,9.77,0,0,1-1.27,5,9.07,9.07,0,0,1-3.4,3.39,10,10,0,0,1-9.57,0,9,9,0,0,1-3.41-3.39,10.6,10.6,0,0,1,0-10.06,9.22,9.22,0,0,1,3.41-3.41,9.92,9.92,0,0,1,9.57,0,9.27,9.27,0,0,1,3.4,3.41A9.77,9.77,0,0,1,479.9,52.12Zm-4.17,0A6.4,6.4,0,0,0,475,49a5.29,5.29,0,0,0-1.92-2,5.21,5.21,0,0,0-5.32,0,5.29,5.29,0,0,0-1.92,2,6.4,6.4,0,0,0-.71,3.08,6.33,6.33,0,0,0,.71,3.05,5.29,5.29,0,0,0,1.92,2,5.21,5.21,0,0,0,5.32,0,5.29,5.29,0,0,0,1.92-2A6.33,6.33,0,0,0,475.73,52.12Z"/><path class="cls-4" d="M481.57,58.53a2,2,0,0,1-.31-1.26,1.66,1.66,0,0,1,.9-1.32,1.94,1.94,0,0,1,1.18-.3,2,2,0,0,1,1.22.65,8.2,8.2,0,0,0,2.12,1.56,6.11,6.11,0,0,0,2.79.56,7.69,7.69,0,0,0,1.15-.16,2.18,2.18,0,0,0,1.09-.55,1.76,1.76,0,0,0,.47-1.34,1.52,1.52,0,0,0-.52-1.22,4.49,4.49,0,0,0-1.38-.77c-.56-.2-1.2-.4-1.89-.59s-1.46-.44-2.21-.69a9.43,9.43,0,0,1-2.07-1,4.75,4.75,0,0,1-1.53-1.62A4.92,4.92,0,0,1,482,48a4.58,4.58,0,0,1,1-3,6.39,6.39,0,0,1,2.52-1.88,8.22,8.22,0,0,1,3.26-.66,10.74,10.74,0,0,1,2.26.26,8.77,8.77,0,0,1,2.26.83,5.68,5.68,0,0,1,1.81,1.52,2.44,2.44,0,0,1,.45,1.25,1.47,1.47,0,0,1-.66,1.32,1.7,1.7,0,0,1-1.22.37,1.9,1.9,0,0,1-1.15-.47,4.07,4.07,0,0,0-1.58-1.22,5.46,5.46,0,0,0-2.28-.45,5.88,5.88,0,0,0-1.13.12,2.3,2.3,0,0,0-1.06.52,1.62,1.62,0,0,0-.45,1.27,1.6,1.6,0,0,0,.52,1.27,3.93,3.93,0,0,0,1.41.77q.88.3,1.89.57t2.13.66a8.79,8.79,0,0,1,2,1,4.84,4.84,0,0,1,1.46,1.62,5.11,5.11,0,0,1,.56,2.52,4.59,4.59,0,0,1-1,3,6.63,6.63,0,0,1-2.61,1.9,8.39,8.39,0,0,1-3.21.64,12.59,12.59,0,0,1-4.1-.71A7.14,7.14,0,0,1,481.57,58.53Z"/><path class="cls-4" d="M501.32,61.41a2.1,2.1,0,0,1-1.55-.54,2.08,2.08,0,0,1-.54-1.54v-.6a2.06,2.06,0,0,1,.54-1.54,2.1,2.1,0,0,1,1.55-.54h.45a2.1,2.1,0,0,1,1.55.54,2.06,2.06,0,0,1,.54,1.54v.6a2.08,2.08,0,0,1-.54,1.54,2.1,2.1,0,0,1-1.55.54Zm.24-7.69q-1.19,0-1.29-1.32l-1-12.8a2.36,2.36,0,0,1,.57-1.81,2.13,2.13,0,0,1,1.69-.73,2.18,2.18,0,0,1,1.7.73,2.25,2.25,0,0,1,.56,1.81l-1,12.8C502.75,53.28,502.33,53.72,501.56,53.72Z"/><g class="cls-2"><path class="cls-3" d="M6.63,17.12a.94.94,0,0,1,.74.3,1.09,1.09,0,0,1,.26.75v.61a1.13,1.13,0,0,1-.26.78,1,1,0,0,1-.74.27H6.47a1,1,0,0,1-.74-.27,1.23,1.23,0,0,1-.23-.78v-.61a1.18,1.18,0,0,1,.23-.75.89.89,0,0,1,.74-.3Zm-.08,5.42c.35,0,.54.2.58.58l.31,12.22a1.58,1.58,0,0,1-.2.82.74.74,0,0,1-.69.31.76.76,0,0,1-.68-.31,1.33,1.33,0,0,1-.18-.82L6,23.12C6,22.74,6.2,22.54,6.55,22.54Z"/><path class="cls-3" d="M12.54,11.9H22.68a.83.83,0,0,1,.58.23.79.79,0,0,1,.25.6.73.73,0,0,1-.25.58.82.82,0,0,1-.58.22H13.17l.28-.47v7.77l-.3-.36h8.29a.79.79,0,0,1,.58.25.81.81,0,0,1,.25.58.76.76,0,0,1-.25.58.84.84,0,0,1-.58.22H13.2l.25-.28v8l-.14-.16h9.37a.85.85,0,0,1,.83.83.73.73,0,0,1-.25.58.82.82,0,0,1-.58.22H12.54A.77.77,0,0,1,12,31a.79.79,0,0,1-.25-.58V12.73a.85.85,0,0,1,.83-.83Z"/><path class="cls-3" d="M26.54,17a.76.76,0,0,1,.66.36L37,30a.8.8,0,0,1,.19.5.77.77,0,0,1-.25.58.79.79,0,0,1-.58.25.88.88,0,0,1-.69-.36L25.85,18.31a.73.73,0,0,1-.17-.49.79.79,0,0,1,.26-.6A.87.87,0,0,1,26.54,17Zm0,14.34a.87.87,0,0,1-.54-.19.63.63,0,0,1-.26-.55.77.77,0,0,1,.19-.53l4.67-6,.91,1.33L27.2,31A.78.78,0,0,1,26.54,31.33ZM36.35,17a.81.81,0,0,1,.57.2.73.73,0,0,1,.2.52.84.84,0,0,1,0,.27.64.64,0,0,1-.15.25l-4.67,6.14L31.4,23l4.26-5.69A.88.88,0,0,1,36.35,17Z"/><path class="cls-3" d="M46.49,17a6,6,0,0,1,3.33.93,6.67,6.67,0,0,1,2.31,2.54A7.85,7.85,0,0,1,53,24.2a7.92,7.92,0,0,1-.86,3.73,6.64,6.64,0,0,1-2.32,2.57,6,6,0,0,1-3.29.94,5.59,5.59,0,0,1-1.84-.29,5.91,5.91,0,0,1-1.59-.79,6.14,6.14,0,0,1-1.27-1.17,5.68,5.68,0,0,1-.88-1.48l.49-.36V36a.85.85,0,0,1-.23.58.82.82,0,0,1-.6.25.8.8,0,0,1-.59-.25.82.82,0,0,1-.24-.58v-18a.87.87,0,0,1,.23-.61.74.74,0,0,1,.6-.25.79.79,0,0,1,.6.25.87.87,0,0,1,.23.61v3l-.38-.22a4.68,4.68,0,0,1,.81-1.53,5.7,5.7,0,0,1,2.83-1.9A6.69,6.69,0,0,1,46.49,17Zm-.14,1.55a4.78,4.78,0,0,0-2.62.73,5.22,5.22,0,0,0-1.79,2,6.31,6.31,0,0,0-.65,2.92,6.51,6.51,0,0,0,.65,2.93,5.06,5.06,0,0,0,1.79,2,4.69,4.69,0,0,0,2.62.73,4.62,4.62,0,0,0,2.59-.73,5.19,5.19,0,0,0,1.78-2,6.38,6.38,0,0,0,.66-2.93,6.2,6.2,0,0,0-.66-2.9,5.27,5.27,0,0,0-1.78-2A4.7,4.7,0,0,0,46.35,18.56Z"/><path class="cls-3" d="M57.88,30.42a.85.85,0,0,1-.83.83.75.75,0,0,1-.59-.25.82.82,0,0,1-.24-.58V11.62a.79.79,0,0,1,.25-.58.83.83,0,0,1,.58-.25.78.78,0,0,1,.59.25.82.82,0,0,1,.24.58Z"/><path class="cls-3" d="M75.09,24.17A7.67,7.67,0,0,1,74.16,28a6.92,6.92,0,0,1-2.5,2.62,7.08,7.08,0,0,1-7.12,0A6.9,6.9,0,0,1,62,28a7.78,7.78,0,0,1-.92-3.78A7.67,7.67,0,0,1,62,20.39a7.07,7.07,0,0,1,2.52-2.63,7,7,0,0,1,7.12,0,7.1,7.1,0,0,1,2.5,2.63A7.56,7.56,0,0,1,75.09,24.17Zm-1.66,0a6.38,6.38,0,0,0-.69-3,5.5,5.5,0,0,0-1.9-2.07,5,5,0,0,0-2.75-.76,5,5,0,0,0-2.72.76,5.52,5.52,0,0,0-1.91,2.07,6.27,6.27,0,0,0-.7,3,6.17,6.17,0,0,0,.7,3,5.57,5.57,0,0,0,1.91,2.06,5,5,0,0,0,2.72.76,5.09,5.09,0,0,0,2.75-.76,5.54,5.54,0,0,0,1.9-2.06A6.28,6.28,0,0,0,73.43,24.17Z"/><path class="cls-3" d="M79.06,31.25a.76.76,0,0,1-.61-.25.84.84,0,0,1-.22-.58V18a.8.8,0,0,1,.24-.58.82.82,0,0,1,1.18,0,.8.8,0,0,1,.24.58v4.14l-.41.09A6.15,6.15,0,0,1,80,20.34a6.66,6.66,0,0,1,1.09-1.75,5.45,5.45,0,0,1,1.64-1.3,4.6,4.6,0,0,1,2.15-.5,2.31,2.31,0,0,1,1,.21.69.69,0,0,1,.47.68.83.83,0,0,1-.22.63.69.69,0,0,1-.52.22A1.25,1.25,0,0,1,85,18.4a1.67,1.67,0,0,0-.76-.14,3.06,3.06,0,0,0-1.55.45,5.77,5.77,0,0,0-1.41,1.23,6.65,6.65,0,0,0-1,1.73,5.24,5.24,0,0,0-.37,1.92v6.83a.79.79,0,0,1-.25.58A.77.77,0,0,1,79.06,31.25Z"/><path class="cls-3" d="M94.29,31.53a7.56,7.56,0,0,1-3.76-.92A6.53,6.53,0,0,1,88,28.07a7.67,7.67,0,0,1-.91-3.81,8.17,8.17,0,0,1,.92-4,6.77,6.77,0,0,1,2.41-2.56,5.92,5.92,0,0,1,3.14-.9,6.84,6.84,0,0,1,2.36.43,6.05,6.05,0,0,1,2,1.27,6.57,6.57,0,0,1,1.44,2.06,7,7,0,0,1,.58,2.82.75.75,0,0,1-.25.57.85.85,0,0,1-.58.23H88.05l-.34-1.49H98.6l-.35.33v-.55a4.26,4.26,0,0,0-.86-2.21,4.69,4.69,0,0,0-1.73-1.38,4.85,4.85,0,0,0-2.11-.47,4.75,4.75,0,0,0-1.7.33,4.45,4.45,0,0,0-1.58,1,5.41,5.41,0,0,0-1.15,1.8,7,7,0,0,0-.44,2.59,6.52,6.52,0,0,0,.66,3,5.1,5.1,0,0,0,1.91,2.1,5.58,5.58,0,0,0,3,.78A5,5,0,0,0,96,29.7,5.12,5.12,0,0,0,97.35,29a5.26,5.26,0,0,0,1-1,.93.93,0,0,1,.58-.24.67.67,0,0,1,.51.22.69.69,0,0,1,.21.5.75.75,0,0,1-.28.58,7.42,7.42,0,0,1-2.16,1.72A5.87,5.87,0,0,1,94.29,31.53Z"/><path class="cls-3" d="M109.49,17a4.79,4.79,0,0,1,2.93.9,4.58,4.58,0,0,1,1.66,2.67l-.39.11.17-.5a4.49,4.49,0,0,1,1.2-1.56A6.68,6.68,0,0,1,117,17.46a5.64,5.64,0,0,1,2.18-.45,4.77,4.77,0,0,1,2.81.75,4.28,4.28,0,0,1,1.55,2A7.94,7.94,0,0,1,124,22.6v7.82a.85.85,0,0,1-.23.58.79.79,0,0,1-.6.25.75.75,0,0,1-.59-.25.82.82,0,0,1-.24-.58V22.68a5.69,5.69,0,0,0-.36-2.07,3.16,3.16,0,0,0-1.13-1.5,3.57,3.57,0,0,0-2.07-.55,4.63,4.63,0,0,0-2.17.55,4.71,4.71,0,0,0-1.69,1.5,3.55,3.55,0,0,0-.65,2.07v7.74A.85.85,0,0,1,114,31a.79.79,0,0,1-.6.25.75.75,0,0,1-.59-.25.82.82,0,0,1-.24-.58V22.6a6,6,0,0,0-.33-2.05,3,3,0,0,0-1.08-1.45,3.35,3.35,0,0,0-2-.54,4.51,4.51,0,0,0-2.15.54,4.56,4.56,0,0,0-1.63,1.45,3.59,3.59,0,0,0-.62,2.05v7.82a.79.79,0,0,1-.25.58.77.77,0,0,1-.58.25.76.76,0,0,1-.61-.25.89.89,0,0,1-.22-.58V18a.8.8,0,0,1,.24-.58.75.75,0,0,1,.59-.25.79.79,0,0,1,.6.25.83.83,0,0,1,.23.58v2.57l-.75,1a4.49,4.49,0,0,1,.54-1.66,5.7,5.7,0,0,1,1.21-1.49,5.81,5.81,0,0,1,1.7-1.06A5,5,0,0,1,109.49,17Z"/><path class="cls-3" d="M141.05,24.17a7.67,7.67,0,0,1-.93,3.78,6.85,6.85,0,0,1-2.5,2.62,7.06,7.06,0,0,1-7.11,0A6.9,6.9,0,0,1,128,28a7.67,7.67,0,0,1-.93-3.78,7.56,7.56,0,0,1,.93-3.78,7.07,7.07,0,0,1,2.52-2.63,7,7,0,0,1,7.11,0,7,7,0,0,1,2.5,2.63A7.56,7.56,0,0,1,141.05,24.17Zm-1.66,0a6.38,6.38,0,0,0-.69-3,5.4,5.4,0,0,0-1.89-2.07,5.32,5.32,0,0,0-5.48,0,5.5,5.5,0,0,0-1.9,2.07,6.27,6.27,0,0,0-.71,3,6.17,6.17,0,0,0,.71,3,5.54,5.54,0,0,0,1.9,2.06,5.32,5.32,0,0,0,5.48,0,5.44,5.44,0,0,0,1.89-2.06A6.28,6.28,0,0,0,139.39,24.17Z"/><path class="cls-3" d="M143.14,29a1.07,1.07,0,0,1-.21-.65.62.62,0,0,1,.35-.51.69.69,0,0,1,.51-.17.89.89,0,0,1,.54.28,5.89,5.89,0,0,0,1.81,1.56,5.06,5.06,0,0,0,2.53.6,4.53,4.53,0,0,0,1.53-.27,2.94,2.94,0,0,0,1.26-.8,2.14,2.14,0,0,0,0-2.75,3.38,3.38,0,0,0-1.29-.83A13.07,13.07,0,0,0,148.5,25c-.62-.17-1.23-.36-1.82-.57a6.36,6.36,0,0,1-1.56-.8A3.86,3.86,0,0,1,144,22.4a3.27,3.27,0,0,1-.41-1.68,3.38,3.38,0,0,1,.64-2A4.22,4.22,0,0,1,146,17.29a6,6,0,0,1,2.48-.5,6.86,6.86,0,0,1,1.49.18,6.24,6.24,0,0,1,1.58.6,4.74,4.74,0,0,1,1.38,1.13.81.81,0,0,1,.25.57.75.75,0,0,1-.28.56.85.85,0,0,1-.51.17.61.61,0,0,1-.49-.22,4.32,4.32,0,0,0-1.57-1.14,5.11,5.11,0,0,0-2-.38,4.39,4.39,0,0,0-1.51.26,2.93,2.93,0,0,0-1.17.79,2,2,0,0,0-.47,1.38,1.9,1.9,0,0,0,.56,1.3,4,4,0,0,0,1.36.83,18.35,18.35,0,0,0,1.89.61,14.64,14.64,0,0,1,1.7.52,6.14,6.14,0,0,1,1.44.76,3.54,3.54,0,0,1,1,1.15,3.61,3.61,0,0,1,.38,1.74,3.37,3.37,0,0,1-.68,2.1A4.39,4.39,0,0,1,151,31.06a6.61,6.61,0,0,1-2.52.47,7.61,7.61,0,0,1-2.89-.58A6.29,6.29,0,0,1,143.14,29Z"/><path class="cls-3" d="M166.27,30.42A.82.82,0,0,1,166,31a.82.82,0,0,1-1.18,0,.81.81,0,0,1-.23-.58V11.62a.85.85,0,0,1,.83-.83.82.82,0,0,1,.82.83Z"/><path class="cls-3" d="M183.48,24.17a7.78,7.78,0,0,1-.92,3.78,7,7,0,0,1-2.51,2.62,7.06,7.06,0,0,1-7.11,0A6.9,6.9,0,0,1,170.42,28a7.67,7.67,0,0,1-.92-3.78,7.56,7.56,0,0,1,.92-3.78,7.07,7.07,0,0,1,2.52-2.63,7,7,0,0,1,7.11,0,7.13,7.13,0,0,1,2.51,2.63A7.67,7.67,0,0,1,183.48,24.17Zm-1.66,0a6.38,6.38,0,0,0-.69-3,5.4,5.4,0,0,0-1.89-2.07,5,5,0,0,0-2.75-.76,5,5,0,0,0-2.72.76,5.45,5.45,0,0,0-1.91,2.07,6.27,6.27,0,0,0-.71,3,6.17,6.17,0,0,0,.71,3,5.49,5.49,0,0,0,1.91,2.06,5,5,0,0,0,2.72.76,5.09,5.09,0,0,0,2.75-.76,5.44,5.44,0,0,0,1.89-2.06A6.28,6.28,0,0,0,181.82,24.17Z"/><path class="cls-3" d="M185.57,29a1.07,1.07,0,0,1-.21-.65.62.62,0,0,1,.35-.51.69.69,0,0,1,.51-.17.89.89,0,0,1,.54.28,5.89,5.89,0,0,0,1.81,1.56,5.06,5.06,0,0,0,2.53.6,4.49,4.49,0,0,0,1.53-.27,2.94,2.94,0,0,0,1.26-.8,2.14,2.14,0,0,0,0-2.75,3.42,3.42,0,0,0-1.28-.83,13.75,13.75,0,0,0-1.68-.52c-.62-.17-1.23-.36-1.82-.57a6.36,6.36,0,0,1-1.56-.8,3.83,3.83,0,0,1-1.09-1.18,3.17,3.17,0,0,1-.42-1.68,3.38,3.38,0,0,1,.64-2,4.22,4.22,0,0,1,1.72-1.38,6,6,0,0,1,2.48-.5,6.79,6.79,0,0,1,1.49.18,6.1,6.1,0,0,1,1.58.6,4.74,4.74,0,0,1,1.38,1.13.81.81,0,0,1,.25.57.71.71,0,0,1-.28.56.85.85,0,0,1-.51.17.59.59,0,0,1-.48-.22,4.44,4.44,0,0,0-1.58-1.14,5.11,5.11,0,0,0-2-.38,4.39,4.39,0,0,0-1.51.26,2.93,2.93,0,0,0-1.17.79,2,2,0,0,0-.47,1.38,1.9,1.9,0,0,0,.56,1.3,4.08,4.08,0,0,0,1.36.83,18.35,18.35,0,0,0,1.89.61,14.64,14.64,0,0,1,1.7.52,6.14,6.14,0,0,1,1.44.76,3.54,3.54,0,0,1,1,1.15,3.61,3.61,0,0,1,.38,1.74,3.37,3.37,0,0,1-.68,2.1,4.39,4.39,0,0,1-1.81,1.36,6.61,6.61,0,0,1-2.52.47,7.56,7.56,0,0,1-2.88-.58A6.25,6.25,0,0,1,185.57,29Z"/><path class="cls-3" d="M215.07,12.29a12.78,12.78,0,0,1,3.46.41,5.65,5.65,0,0,1,2.3,1.17,2.35,2.35,0,0,1,.81,1.79,2.3,2.3,0,0,1-.41,1.3,1.39,1.39,0,0,1-1.22.61,2.42,2.42,0,0,1-.92-.15,2.64,2.64,0,0,1-.65-.4,3.47,3.47,0,0,0-.66-.46,3.59,3.59,0,0,0-1.06-.33,7.15,7.15,0,0,0-1.06-.12,5.61,5.61,0,0,0-3,.77,5.13,5.13,0,0,0-1.9,2.07,6.57,6.57,0,0,0-.66,3,6.37,6.37,0,0,0,.68,3A5.29,5.29,0,0,0,212.65,27a5,5,0,0,0,2.77.77,10.59,10.59,0,0,0,1.49-.1,3.72,3.72,0,0,0,1.05-.32,6.3,6.3,0,0,0,.87-.59,2.1,2.1,0,0,1,2.54.26,2.11,2.11,0,0,1,.48,1.41,2,2,0,0,1-1,1.58,7.71,7.71,0,0,1-2.56,1.15,12.94,12.94,0,0,1-3.43.44,8.79,8.79,0,0,1-4.76-1.27A8.45,8.45,0,0,1,207,26.86a10.79,10.79,0,0,1-1.09-4.9,10.46,10.46,0,0,1,1.16-5,8.65,8.65,0,0,1,3.24-3.41A9.11,9.11,0,0,1,215.07,12.29Z"/><path class="cls-3" d="M225.94,10.37a2.83,2.83,0,0,1-1.67-.38,1.66,1.66,0,0,1-.48-1.36V8a1.54,1.54,0,0,1,.54-1.37A2.92,2.92,0,0,1,226,6.23a2.86,2.86,0,0,1,1.7.38A1.63,1.63,0,0,1,228.17,8v.66a1.59,1.59,0,0,1-.52,1.38A3.11,3.11,0,0,1,225.94,10.37Zm2.13,18.76a2.11,2.11,0,0,1-.59,1.51,2.15,2.15,0,0,1-3,0,2.11,2.11,0,0,1-.59-1.51V14.76a2.11,2.11,0,0,1,.59-1.52,2.15,2.15,0,0,1,3,0,2.11,2.11,0,0,1,.59,1.52Z"/><path class="cls-3" d="M239.9,12.29a12.73,12.73,0,0,1,3.46.41,5.58,5.58,0,0,1,2.3,1.17,2.32,2.32,0,0,1,.82,1.79,2.24,2.24,0,0,1-.42,1.3,1.37,1.37,0,0,1-1.22.61,2.42,2.42,0,0,1-.92-.15,2.57,2.57,0,0,1-.64-.4,4.26,4.26,0,0,0-.66-.46,3.78,3.78,0,0,0-1.07-.33,7,7,0,0,0-1.06-.12,5.63,5.63,0,0,0-3,.77A5.1,5.1,0,0,0,235.59,19a6.57,6.57,0,0,0-.66,3,6.37,6.37,0,0,0,.67,3A5.37,5.37,0,0,0,237.48,27a5.06,5.06,0,0,0,2.77.77,10.63,10.63,0,0,0,1.5-.1,3.75,3.75,0,0,0,1-.32,6.3,6.3,0,0,0,.87-.59,1.77,1.77,0,0,1,1.15-.31,1.74,1.74,0,0,1,1.39.57,2.12,2.12,0,0,1,.49,1.41,2,2,0,0,1-1,1.58,7.74,7.74,0,0,1-2.55,1.15,12.94,12.94,0,0,1-3.43.44A8.85,8.85,0,0,1,235,30.33a8.43,8.43,0,0,1-3.11-3.47,10.8,10.8,0,0,1-1.1-4.9,10.46,10.46,0,0,1,1.17-5,8.56,8.56,0,0,1,3.23-3.41A9.14,9.14,0,0,1,239.9,12.29Z"/><path class="cls-3" d="M253.41,29.13a2.08,2.08,0,0,1-.61,1.51,2.05,2.05,0,0,1-1.52.61,2,2,0,0,1-1.46-.61,2.11,2.11,0,0,1-.59-1.51V7.62a2.08,2.08,0,0,1,2.12-2.12,1.92,1.92,0,0,1,1.48.61,2.12,2.12,0,0,1,.58,1.51Z"/><path class="cls-3" d="M275.6,22a9.77,9.77,0,0,1-1.27,5,9.09,9.09,0,0,1-3.41,3.39,10,10,0,0,1-9.57,0A9.17,9.17,0,0,1,257.94,27a9.87,9.87,0,0,1-1.27-5,9.87,9.87,0,0,1,1.27-5,9.29,9.29,0,0,1,3.41-3.41,9.92,9.92,0,0,1,9.57,0,9.22,9.22,0,0,1,3.41,3.41A9.77,9.77,0,0,1,275.6,22Zm-4.17,0a6.29,6.29,0,0,0-.72-3.08,5.29,5.29,0,0,0-1.91-2,5.21,5.21,0,0,0-5.32,0,5.39,5.39,0,0,0-1.92,2,6.4,6.4,0,0,0-.71,3.08,6.29,6.29,0,0,0,.71,3,5.39,5.39,0,0,0,1.92,2,5.21,5.21,0,0,0,5.32,0,5.29,5.29,0,0,0,1.91-2A6.18,6.18,0,0,0,271.43,22Z"/><path class="cls-3" d="M277.27,28.36a1.9,1.9,0,0,1-.32-1.25,1.7,1.7,0,0,1,.91-1.32,1.85,1.85,0,0,1,1.18-.3,2,2,0,0,1,1.22.64,8,8,0,0,0,2.12,1.57,6.21,6.21,0,0,0,2.79.56,11.08,11.08,0,0,0,1.14-.16,2.19,2.19,0,0,0,1.1-.56,1.74,1.74,0,0,0,.47-1.34,1.5,1.5,0,0,0-.52-1.21,4.3,4.3,0,0,0-1.38-.77c-.57-.21-1.2-.41-1.89-.59s-1.46-.44-2.21-.7a8.61,8.61,0,0,1-2.07-1,4.58,4.58,0,0,1-1.53-1.62,4.9,4.9,0,0,1-.6-2.54,4.56,4.56,0,0,1,1-3A6.29,6.29,0,0,1,281.18,13a8.21,8.21,0,0,1,3.25-.66,10.21,10.21,0,0,1,2.27.26,8.91,8.91,0,0,1,2.26.83,5.65,5.65,0,0,1,1.81,1.51,2.58,2.58,0,0,1,.45,1.26,1.48,1.48,0,0,1-.66,1.32,1.66,1.66,0,0,1-1.22.36,1.86,1.86,0,0,1-1.15-.46,4.07,4.07,0,0,0-1.58-1.22,5.46,5.46,0,0,0-2.28-.45,5.8,5.8,0,0,0-1.13.12,2.16,2.16,0,0,0-1.06.52,1.62,1.62,0,0,0-.45,1.27,1.62,1.62,0,0,0,.52,1.27,3.83,3.83,0,0,0,1.41.76c.59.2,1.22.39,1.89.58s1.41.41,2.13.66a8.21,8.21,0,0,1,2,1,4.84,4.84,0,0,1,1.46,1.62,5.11,5.11,0,0,1,.56,2.52,4.58,4.58,0,0,1-1.05,3A6.57,6.57,0,0,1,288,31a8.32,8.32,0,0,1-3.2.65,12.26,12.26,0,0,1-4.1-.72A7,7,0,0,1,277.27,28.36Z"/><path class="cls-3" d="M319.93,5.5a2,2,0,0,1,1.49.59A2.06,2.06,0,0,1,322,7.62V29.13a2.07,2.07,0,0,1-.59,1.51,2.14,2.14,0,0,1-3,0,2.11,2.11,0,0,1-.59-1.51V27.42l.76.31a2,2,0,0,1-.48,1.1,6.79,6.79,0,0,1-1.33,1.27,7.93,7.93,0,0,1-2,1.06,6.79,6.79,0,0,1-2.45.44A7.86,7.86,0,0,1,308,30.36,8.63,8.63,0,0,1,305,27a10.58,10.58,0,0,1-1.13-5,10.69,10.69,0,0,1,1.13-5,8.69,8.69,0,0,1,3-3.41,7.7,7.7,0,0,1,4.25-1.23,8.1,8.1,0,0,1,4.92,1.6,6.81,6.81,0,0,1,1.43,1.4,2.3,2.3,0,0,1,.5,1.21l-1.25.45V7.62a2.09,2.09,0,0,1,.59-1.51A2,2,0,0,1,319.93,5.5Zm-7,22.27a4.74,4.74,0,0,0,2.68-.77,5.2,5.2,0,0,0,1.79-2.08,6.66,6.66,0,0,0,.64-3,6.7,6.7,0,0,0-.64-3,5.16,5.16,0,0,0-1.79-2.09,4.74,4.74,0,0,0-2.68-.77,4.68,4.68,0,0,0-2.65.77A5.16,5.16,0,0,0,308.46,19a6.7,6.7,0,0,0-.64,3,6.66,6.66,0,0,0,.64,3A5.2,5.2,0,0,0,310.25,27,4.68,4.68,0,0,0,312.9,27.77Z"/><path class="cls-3" d="M334.72,31.6a10.15,10.15,0,0,1-5.13-1.24A8.5,8.5,0,0,1,326.25,27a9.75,9.75,0,0,1-1.17-4.8,10.6,10.6,0,0,1,1.27-5.34,9,9,0,0,1,3.33-3.39A8.52,8.52,0,0,1,334,12.29a7.83,7.83,0,0,1,3.35.73,8.92,8.92,0,0,1,2.8,2A9.52,9.52,0,0,1,342.12,18a9,9,0,0,1,.71,3.55,1.77,1.77,0,0,1-.66,1.35,2.21,2.21,0,0,1-1.46.52h-13.3l-1-3.47h12.77l-.76.69v-.94a3.23,3.23,0,0,0-.72-1.81,4.77,4.77,0,0,0-1.6-1.27,4.61,4.61,0,0,0-2-.47,6.76,6.76,0,0,0-1.95.28,3.75,3.75,0,0,0-1.57.94,4.46,4.46,0,0,0-1,1.78,8.61,8.61,0,0,0-.39,2.81,6.11,6.11,0,0,0,.79,3.19,5.25,5.25,0,0,0,2,2,5.36,5.36,0,0,0,2.62.68,8.09,8.09,0,0,0,2.06-.21,4.81,4.81,0,0,0,1.23-.5c.31-.2.6-.37.85-.51a2.64,2.64,0,0,1,1.19-.31,1.69,1.69,0,0,1,1.27.52,1.72,1.72,0,0,1,.5,1.22,2.16,2.16,0,0,1-1,1.7A8.1,8.1,0,0,1,338.1,31,10,10,0,0,1,334.72,31.6Z"/><path class="cls-3" d="M356.89,12.63a2.32,2.32,0,0,1,1.21.33,2,2,0,0,1,.84,1l5.11,11.69-.76.35,5.22-12a1.81,1.81,0,0,1,1.84-1.32,1.91,1.91,0,0,1,1.41.54,1.81,1.81,0,0,1,.54,1.34,1.72,1.72,0,0,1-.09.52,4,4,0,0,1-.19.52l-6.5,14.34a2,2,0,0,1-1.78,1.32,1.91,1.91,0,0,1-1.27-.24,2.24,2.24,0,0,1-.92-1.08l-6.47-14.34c-.05-.12-.1-.27-.16-.45a2.19,2.19,0,0,1-.09-.66,1.86,1.86,0,0,1,.56-1.24A2,2,0,0,1,356.89,12.63Z"/><path class="cls-3" d="M376.71,10.37A2.79,2.79,0,0,1,375,10a1.63,1.63,0,0,1-.49-1.36V8a1.54,1.54,0,0,1,.54-1.37,4,4,0,0,1,3.36,0A1.66,1.66,0,0,1,378.94,8v.66a1.62,1.62,0,0,1-.52,1.38A3.11,3.11,0,0,1,376.71,10.37Zm2.12,18.76a2.07,2.07,0,0,1-.59,1.51,2.14,2.14,0,0,1-3,0,2.07,2.07,0,0,1-.59-1.51V14.76a2.07,2.07,0,0,1,.59-1.52,2.14,2.14,0,0,1,3,0,2.07,2.07,0,0,1,.59,1.52Z"/><path class="cls-3" d="M397.71,5.5a2,2,0,0,1,1.49.59,2.06,2.06,0,0,1,.59,1.53V29.13a2.07,2.07,0,0,1-.59,1.51,2.14,2.14,0,0,1-3,0,2.07,2.07,0,0,1-.59-1.51V27.42l.76.31a2,2,0,0,1-.48,1.1,6.79,6.79,0,0,1-1.33,1.27,7.93,7.93,0,0,1-2,1.06,6.79,6.79,0,0,1-2.45.44,7.86,7.86,0,0,1-4.35-1.24A8.63,8.63,0,0,1,382.73,27a10.58,10.58,0,0,1-1.13-5,10.69,10.69,0,0,1,1.13-5,8.69,8.69,0,0,1,3-3.41A7.7,7.7,0,0,1,390,12.29a8.1,8.1,0,0,1,4.92,1.6,6.81,6.81,0,0,1,1.43,1.4,2.3,2.3,0,0,1,.5,1.21l-1.25.45V7.62a2,2,0,0,1,.59-1.51A2,2,0,0,1,397.71,5.5Zm-7,22.27a4.74,4.74,0,0,0,2.68-.77,5.2,5.2,0,0,0,1.79-2.08,6.66,6.66,0,0,0,.64-3,6.7,6.7,0,0,0-.64-3,5.16,5.16,0,0,0-1.79-2.09,4.74,4.74,0,0,0-2.68-.77,4.68,4.68,0,0,0-2.65.77A5.16,5.16,0,0,0,386.24,19a6.7,6.7,0,0,0-.64,3,6.66,6.66,0,0,0,.64,3A5.2,5.2,0,0,0,388,27,4.68,4.68,0,0,0,390.68,27.77Z"/><path class="cls-3" d="M419,12.29a2,2,0,0,1,1.5.59,2.07,2.07,0,0,1,.59,1.53V29.13a2.11,2.11,0,0,1-.59,1.51,2,2,0,0,1-1.5.61,2,2,0,0,1-1.49-.61,2.07,2.07,0,0,1-.59-1.51V27.42l.76.31a1.92,1.92,0,0,1-.49,1.1,6.45,6.45,0,0,1-1.32,1.27,8.11,8.11,0,0,1-2,1.06,6.84,6.84,0,0,1-2.46.44,7.91,7.91,0,0,1-4.35-1.24A8.7,8.7,0,0,1,404,27a10.7,10.7,0,0,1-1.13-5,10.81,10.81,0,0,1,1.13-5A8.79,8.79,0,0,1,407,13.52a7.67,7.67,0,0,1,4.24-1.23,8.16,8.16,0,0,1,4.93,1.6,6.51,6.51,0,0,1,1.42,1.4,2.25,2.25,0,0,1,.51,1.21l-1.25.45V14.41a2.07,2.07,0,0,1,.59-1.52A2,2,0,0,1,419,12.29Zm-7,15.48a4.71,4.71,0,0,0,2.68-.77,5.14,5.14,0,0,0,1.8-2.08,7.23,7.23,0,0,0,0-6,5.11,5.11,0,0,0-1.8-2.09,5,5,0,0,0-5.32,0A5.09,5.09,0,0,0,407.51,19a7.13,7.13,0,0,0,0,6A5.12,5.12,0,0,0,409.3,27,4.68,4.68,0,0,0,411.94,27.77Z"/></g><path class="cls-4" d="M3.63,14.12a.94.94,0,0,1,.74.3,1.09,1.09,0,0,1,.26.75v.61a1.13,1.13,0,0,1-.26.78,1,1,0,0,1-.74.27H3.47a1,1,0,0,1-.74-.27,1.23,1.23,0,0,1-.23-.78v-.61a1.18,1.18,0,0,1,.23-.75.89.89,0,0,1,.74-.3Zm-.08,5.42c.35,0,.54.2.58.58l.31,12.22a1.58,1.58,0,0,1-.2.82.74.74,0,0,1-.69.31.76.76,0,0,1-.68-.31,1.33,1.33,0,0,1-.18-.82L3,20.12C3,19.74,3.2,19.54,3.55,19.54Z"/><path class="cls-4" d="M9.54,8.9H19.68a.83.83,0,0,1,.58.23.79.79,0,0,1,.25.6.73.73,0,0,1-.25.58.82.82,0,0,1-.58.22H10.17l.28-.47v7.77l-.3-.36h8.29a.79.79,0,0,1,.58.25.81.81,0,0,1,.25.58.76.76,0,0,1-.25.58.84.84,0,0,1-.58.22H10.2l.25-.28v8l-.14-.16h9.37a.85.85,0,0,1,.83.83.73.73,0,0,1-.25.58.82.82,0,0,1-.58.22H9.54A.77.77,0,0,1,9,28a.79.79,0,0,1-.25-.58V9.73a.85.85,0,0,1,.83-.83Z"/><path class="cls-4" d="M23.54,14a.76.76,0,0,1,.66.36L34,27a.8.8,0,0,1,.19.5.77.77,0,0,1-.25.58.79.79,0,0,1-.58.25.88.88,0,0,1-.69-.36L22.85,15.31a.73.73,0,0,1-.17-.49.79.79,0,0,1,.26-.6A.87.87,0,0,1,23.54,14Zm0,14.34a.87.87,0,0,1-.54-.19.63.63,0,0,1-.26-.55.77.77,0,0,1,.19-.53l4.67-6,.91,1.33L24.2,28A.78.78,0,0,1,23.54,28.33ZM33.35,14a.81.81,0,0,1,.57.2.73.73,0,0,1,.2.52.84.84,0,0,1,0,.27.64.64,0,0,1-.15.25l-4.67,6.14L28.4,20l4.26-5.69A.88.88,0,0,1,33.35,14Z"/><path class="cls-4" d="M43.49,14a6,6,0,0,1,3.33.93,6.67,6.67,0,0,1,2.31,2.54A7.85,7.85,0,0,1,50,21.2a7.92,7.92,0,0,1-.86,3.73,6.64,6.64,0,0,1-2.32,2.57,6,6,0,0,1-3.29.94,5.59,5.59,0,0,1-1.84-.29,5.91,5.91,0,0,1-1.59-.79,6.14,6.14,0,0,1-1.27-1.17,5.68,5.68,0,0,1-.88-1.48l.49-.36V33a.85.85,0,0,1-.23.58.82.82,0,0,1-.6.25.8.8,0,0,1-.59-.25.82.82,0,0,1-.24-.58v-18a.87.87,0,0,1,.23-.61.74.74,0,0,1,.6-.25.79.79,0,0,1,.6.25.87.87,0,0,1,.23.61v3l-.38-.22a4.68,4.68,0,0,1,.81-1.53,5.7,5.7,0,0,1,2.83-1.9A6.69,6.69,0,0,1,43.49,14Zm-.14,1.55a4.78,4.78,0,0,0-2.62.73,5.22,5.22,0,0,0-1.79,2,6.31,6.31,0,0,0-.65,2.92,6.51,6.51,0,0,0,.65,2.93,5.06,5.06,0,0,0,1.79,2,4.69,4.69,0,0,0,2.62.73,4.62,4.62,0,0,0,2.59-.73,5.19,5.19,0,0,0,1.78-2,6.38,6.38,0,0,0,.66-2.93,6.2,6.2,0,0,0-.66-2.9,5.27,5.27,0,0,0-1.78-2A4.7,4.7,0,0,0,43.35,15.56Z"/><path class="cls-4" d="M54.88,27.42a.85.85,0,0,1-.83.83.75.75,0,0,1-.59-.25.82.82,0,0,1-.24-.58V8.62A.79.79,0,0,1,53.47,8a.83.83,0,0,1,.58-.25.78.78,0,0,1,.59.25.82.82,0,0,1,.24.58Z"/><path class="cls-4" d="M72.09,21.17A7.67,7.67,0,0,1,71.16,25a6.92,6.92,0,0,1-2.5,2.62,7.08,7.08,0,0,1-7.12,0A6.9,6.9,0,0,1,59,25a7.78,7.78,0,0,1-.92-3.78A7.67,7.67,0,0,1,59,17.39a7.07,7.07,0,0,1,2.52-2.63,7,7,0,0,1,7.12,0,7.1,7.1,0,0,1,2.5,2.63A7.56,7.56,0,0,1,72.09,21.17Zm-1.66,0a6.38,6.38,0,0,0-.69-3,5.5,5.5,0,0,0-1.9-2.07,5,5,0,0,0-2.75-.76,5,5,0,0,0-2.72.76,5.52,5.52,0,0,0-1.91,2.07,6.27,6.27,0,0,0-.7,3,6.17,6.17,0,0,0,.7,3,5.57,5.57,0,0,0,1.91,2.06,5,5,0,0,0,2.72.76,5.09,5.09,0,0,0,2.75-.76,5.54,5.54,0,0,0,1.9-2.06A6.28,6.28,0,0,0,70.43,21.17Z"/><path class="cls-4" d="M76.06,28.25a.76.76,0,0,1-.61-.25.84.84,0,0,1-.22-.58V15a.8.8,0,0,1,.24-.58.82.82,0,0,1,1.18,0,.8.8,0,0,1,.24.58v4.14l-.41.09A6.15,6.15,0,0,1,77,17.34a6.66,6.66,0,0,1,1.09-1.75,5.45,5.45,0,0,1,1.64-1.3,4.6,4.6,0,0,1,2.15-.5,2.31,2.31,0,0,1,1,.21.69.69,0,0,1,.47.68.83.83,0,0,1-.22.63.69.69,0,0,1-.52.22A1.25,1.25,0,0,1,82,15.4a1.67,1.67,0,0,0-.76-.14,3.06,3.06,0,0,0-1.55.45,5.77,5.77,0,0,0-1.41,1.23,6.65,6.65,0,0,0-1,1.73,5.24,5.24,0,0,0-.37,1.92v6.83a.79.79,0,0,1-.25.58A.77.77,0,0,1,76.06,28.25Z"/><path class="cls-4" d="M91.29,28.53a7.56,7.56,0,0,1-3.76-.92A6.53,6.53,0,0,1,85,25.07a7.67,7.67,0,0,1-.91-3.81,8.17,8.17,0,0,1,.92-4,6.77,6.77,0,0,1,2.41-2.56,5.92,5.92,0,0,1,3.14-.9,6.84,6.84,0,0,1,2.36.43,6.05,6.05,0,0,1,2,1.27,6.57,6.57,0,0,1,1.44,2.06A7,7,0,0,1,97,20.37a.75.75,0,0,1-.25.57.85.85,0,0,1-.58.23H85.05l-.34-1.49H95.6l-.35.33v-.55a4.26,4.26,0,0,0-.86-2.21,4.69,4.69,0,0,0-1.73-1.38,4.85,4.85,0,0,0-2.11-.47,4.75,4.75,0,0,0-1.7.33,4.45,4.45,0,0,0-1.58,1,5.41,5.41,0,0,0-1.15,1.8,7,7,0,0,0-.44,2.59,6.52,6.52,0,0,0,.66,3,5.1,5.1,0,0,0,1.91,2.1,5.58,5.58,0,0,0,3,.78A5,5,0,0,0,93,26.7,5.12,5.12,0,0,0,94.35,26a5.26,5.26,0,0,0,1-1,.93.93,0,0,1,.58-.24.67.67,0,0,1,.51.22.69.69,0,0,1,.21.5.75.75,0,0,1-.28.58,7.42,7.42,0,0,1-2.16,1.72A5.87,5.87,0,0,1,91.29,28.53Z"/><path class="cls-4" d="M106.49,14a4.79,4.79,0,0,1,2.93.9,4.58,4.58,0,0,1,1.66,2.67l-.39.11.17-.5a4.49,4.49,0,0,1,1.2-1.56A6.68,6.68,0,0,1,114,14.46a5.64,5.64,0,0,1,2.18-.45,4.77,4.77,0,0,1,2.81.75,4.28,4.28,0,0,1,1.55,2A7.94,7.94,0,0,1,121,19.6v7.82a.85.85,0,0,1-.23.58.79.79,0,0,1-.6.25.75.75,0,0,1-.59-.25.82.82,0,0,1-.24-.58V19.68a5.69,5.69,0,0,0-.36-2.07,3.16,3.16,0,0,0-1.13-1.5,3.57,3.57,0,0,0-2.07-.55,4.63,4.63,0,0,0-2.17.55,4.71,4.71,0,0,0-1.69,1.5,3.55,3.55,0,0,0-.65,2.07v7.74A.85.85,0,0,1,111,28a.79.79,0,0,1-.6.25.75.75,0,0,1-.59-.25.82.82,0,0,1-.24-.58V19.6a6,6,0,0,0-.33-2.05,3,3,0,0,0-1.08-1.45,3.35,3.35,0,0,0-2-.54,4.51,4.51,0,0,0-2.15.54,4.56,4.56,0,0,0-1.63,1.45,3.59,3.59,0,0,0-.62,2.05v7.82a.79.79,0,0,1-.25.58.77.77,0,0,1-.58.25.76.76,0,0,1-.61-.25.89.89,0,0,1-.22-.58V15a.8.8,0,0,1,.24-.58.75.75,0,0,1,.59-.25.79.79,0,0,1,.6.25.83.83,0,0,1,.23.58v2.57l-.75,1a4.49,4.49,0,0,1,.54-1.66,5.7,5.7,0,0,1,1.21-1.49,5.81,5.81,0,0,1,1.7-1.06A5,5,0,0,1,106.49,14Z"/><path class="cls-4" d="M138.05,21.17a7.67,7.67,0,0,1-.93,3.78,6.85,6.85,0,0,1-2.5,2.62,7.06,7.06,0,0,1-7.11,0A6.9,6.9,0,0,1,125,25a7.67,7.67,0,0,1-.93-3.78,7.56,7.56,0,0,1,.93-3.78,7.07,7.07,0,0,1,2.52-2.63,7,7,0,0,1,7.11,0,7,7,0,0,1,2.5,2.63A7.56,7.56,0,0,1,138.05,21.17Zm-1.66,0a6.38,6.38,0,0,0-.69-3,5.4,5.4,0,0,0-1.89-2.07,5.32,5.32,0,0,0-5.48,0,5.5,5.5,0,0,0-1.9,2.07,6.27,6.27,0,0,0-.71,3,6.17,6.17,0,0,0,.71,3,5.54,5.54,0,0,0,1.9,2.06,5.32,5.32,0,0,0,5.48,0,5.44,5.44,0,0,0,1.89-2.06A6.28,6.28,0,0,0,136.39,21.17Z"/><path class="cls-4" d="M140.14,26a1.07,1.07,0,0,1-.21-.65.62.62,0,0,1,.35-.51.69.69,0,0,1,.51-.17.89.89,0,0,1,.54.28,5.89,5.89,0,0,0,1.81,1.56,5.06,5.06,0,0,0,2.53.6,4.53,4.53,0,0,0,1.53-.27,2.94,2.94,0,0,0,1.26-.8,2.14,2.14,0,0,0,0-2.75,3.38,3.38,0,0,0-1.29-.83A13.07,13.07,0,0,0,145.5,22c-.62-.17-1.23-.36-1.82-.57a6.36,6.36,0,0,1-1.56-.8A3.86,3.86,0,0,1,141,19.4a3.27,3.27,0,0,1-.41-1.68,3.38,3.38,0,0,1,.64-2A4.22,4.22,0,0,1,143,14.29a6,6,0,0,1,2.48-.5,6.86,6.86,0,0,1,1.49.18,6.24,6.24,0,0,1,1.58.6,4.74,4.74,0,0,1,1.38,1.13.81.81,0,0,1,.25.57.75.75,0,0,1-.28.56.85.85,0,0,1-.51.17.61.61,0,0,1-.49-.22,4.32,4.32,0,0,0-1.57-1.14,5.11,5.11,0,0,0-2-.38,4.39,4.39,0,0,0-1.51.26,2.93,2.93,0,0,0-1.17.79,2,2,0,0,0-.47,1.38,1.9,1.9,0,0,0,.56,1.3,4,4,0,0,0,1.36.83,18.35,18.35,0,0,0,1.89.61,14.64,14.64,0,0,1,1.7.52,6.14,6.14,0,0,1,1.44.76,3.54,3.54,0,0,1,1,1.15,3.61,3.61,0,0,1,.38,1.74,3.37,3.37,0,0,1-.68,2.1A4.39,4.39,0,0,1,148,28.06a6.61,6.61,0,0,1-2.52.47,7.61,7.61,0,0,1-2.89-.58A6.29,6.29,0,0,1,140.14,26Z"/><path class="cls-4" d="M163.27,27.42A.82.82,0,0,1,163,28a.82.82,0,0,1-1.18,0,.81.81,0,0,1-.23-.58V8.62a.85.85,0,0,1,.83-.83.82.82,0,0,1,.82.83Z"/><path class="cls-4" d="M180.48,21.17a7.78,7.78,0,0,1-.92,3.78,7,7,0,0,1-2.51,2.62,7.06,7.06,0,0,1-7.11,0A6.9,6.9,0,0,1,167.42,25a7.67,7.67,0,0,1-.92-3.78,7.56,7.56,0,0,1,.92-3.78,7.07,7.07,0,0,1,2.52-2.63,7,7,0,0,1,7.11,0,7.13,7.13,0,0,1,2.51,2.63A7.67,7.67,0,0,1,180.48,21.17Zm-1.66,0a6.38,6.38,0,0,0-.69-3,5.4,5.4,0,0,0-1.89-2.07,5,5,0,0,0-2.75-.76,5,5,0,0,0-2.72.76,5.45,5.45,0,0,0-1.91,2.07,6.27,6.27,0,0,0-.71,3,6.17,6.17,0,0,0,.71,3,5.49,5.49,0,0,0,1.91,2.06,5,5,0,0,0,2.72.76,5.09,5.09,0,0,0,2.75-.76,5.44,5.44,0,0,0,1.89-2.06A6.28,6.28,0,0,0,178.82,21.17Z"/><path class="cls-4" d="M182.57,26a1.07,1.07,0,0,1-.21-.65.62.62,0,0,1,.35-.51.69.69,0,0,1,.51-.17.89.89,0,0,1,.54.28,5.89,5.89,0,0,0,1.81,1.56,5.06,5.06,0,0,0,2.53.6,4.49,4.49,0,0,0,1.53-.27,2.94,2.94,0,0,0,1.26-.8,2.14,2.14,0,0,0,0-2.75,3.42,3.42,0,0,0-1.28-.83,13.75,13.75,0,0,0-1.68-.52c-.62-.17-1.23-.36-1.82-.57a6.36,6.36,0,0,1-1.56-.8,3.83,3.83,0,0,1-1.09-1.18,3.17,3.17,0,0,1-.42-1.68,3.38,3.38,0,0,1,.64-2,4.22,4.22,0,0,1,1.72-1.38,6,6,0,0,1,2.48-.5,6.79,6.79,0,0,1,1.49.18,6.1,6.1,0,0,1,1.58.6,4.74,4.74,0,0,1,1.38,1.13.81.81,0,0,1,.25.57.71.71,0,0,1-.28.56.85.85,0,0,1-.51.17.59.59,0,0,1-.48-.22,4.44,4.44,0,0,0-1.58-1.14,5.11,5.11,0,0,0-2-.38,4.39,4.39,0,0,0-1.51.26,2.93,2.93,0,0,0-1.17.79,2,2,0,0,0-.47,1.38,1.9,1.9,0,0,0,.56,1.3,4.08,4.08,0,0,0,1.36.83,18.35,18.35,0,0,0,1.89.61,14.64,14.64,0,0,1,1.7.52,6.14,6.14,0,0,1,1.44.76,3.54,3.54,0,0,1,1,1.15,3.61,3.61,0,0,1,.38,1.74,3.37,3.37,0,0,1-.68,2.1,4.39,4.39,0,0,1-1.81,1.36,6.61,6.61,0,0,1-2.52.47,7.56,7.56,0,0,1-2.88-.58A6.25,6.25,0,0,1,182.57,26Z"/><path class="cls-4" d="M212.07,9.29a12.78,12.78,0,0,1,3.46.41,5.65,5.65,0,0,1,2.3,1.17,2.35,2.35,0,0,1,.81,1.79,2.3,2.3,0,0,1-.41,1.3,1.39,1.39,0,0,1-1.22.61,2.42,2.42,0,0,1-.92-.15,2.64,2.64,0,0,1-.65-.4,3.47,3.47,0,0,0-.66-.46,3.59,3.59,0,0,0-1.06-.33,7.15,7.15,0,0,0-1.06-.12,5.61,5.61,0,0,0-3,.77,5.13,5.13,0,0,0-1.9,2.07,6.57,6.57,0,0,0-.66,3,6.37,6.37,0,0,0,.68,3A5.29,5.29,0,0,0,209.65,24a5,5,0,0,0,2.77.77,10.59,10.59,0,0,0,1.49-.1,3.72,3.72,0,0,0,1.05-.32,6.3,6.3,0,0,0,.87-.59,2.1,2.1,0,0,1,2.54.26,2.11,2.11,0,0,1,.48,1.41,2,2,0,0,1-1,1.58,7.71,7.71,0,0,1-2.56,1.15,12.94,12.94,0,0,1-3.43.44,8.79,8.79,0,0,1-4.76-1.27A8.45,8.45,0,0,1,204,23.86a10.79,10.79,0,0,1-1.09-4.9,10.46,10.46,0,0,1,1.16-5,8.65,8.65,0,0,1,3.24-3.41A9.11,9.11,0,0,1,212.07,9.29Z"/><path class="cls-4" d="M222.94,7.37A2.83,2.83,0,0,1,221.27,7a1.66,1.66,0,0,1-.48-1.36V5a1.54,1.54,0,0,1,.54-1.37A2.92,2.92,0,0,1,223,3.23a2.86,2.86,0,0,1,1.7.38A1.63,1.63,0,0,1,225.17,5v.66A1.59,1.59,0,0,1,224.65,7,3.11,3.11,0,0,1,222.94,7.37Zm2.13,18.76a2.11,2.11,0,0,1-.59,1.51,2.15,2.15,0,0,1-3,0,2.11,2.11,0,0,1-.59-1.51V11.76a2.11,2.11,0,0,1,.59-1.52,2.15,2.15,0,0,1,3,0,2.11,2.11,0,0,1,.59,1.52Z"/><path class="cls-4" d="M236.9,9.29a12.73,12.73,0,0,1,3.46.41,5.58,5.58,0,0,1,2.3,1.17,2.32,2.32,0,0,1,.82,1.79,2.24,2.24,0,0,1-.42,1.3,1.37,1.37,0,0,1-1.22.61,2.42,2.42,0,0,1-.92-.15,2.57,2.57,0,0,1-.64-.4,4.26,4.26,0,0,0-.66-.46,3.78,3.78,0,0,0-1.07-.33,7,7,0,0,0-1.06-.12,5.63,5.63,0,0,0-3,.77A5.1,5.1,0,0,0,232.59,16a6.57,6.57,0,0,0-.66,3,6.37,6.37,0,0,0,.67,3A5.37,5.37,0,0,0,234.48,24a5.06,5.06,0,0,0,2.77.77,10.63,10.63,0,0,0,1.5-.1,3.75,3.75,0,0,0,1-.32,6.3,6.3,0,0,0,.87-.59,1.77,1.77,0,0,1,1.15-.31,1.74,1.74,0,0,1,1.39.57,2.12,2.12,0,0,1,.49,1.41,2,2,0,0,1-1,1.58,7.74,7.74,0,0,1-2.55,1.15,12.94,12.94,0,0,1-3.43.44A8.85,8.85,0,0,1,232,27.33a8.43,8.43,0,0,1-3.11-3.47,10.8,10.8,0,0,1-1.1-4.9,10.46,10.46,0,0,1,1.17-5,8.56,8.56,0,0,1,3.23-3.41A9.14,9.14,0,0,1,236.9,9.29Z"/><path class="cls-4" d="M250.41,26.13a2.08,2.08,0,0,1-.61,1.51,2.05,2.05,0,0,1-1.52.61,2,2,0,0,1-1.46-.61,2.11,2.11,0,0,1-.59-1.51V4.62a2.08,2.08,0,0,1,2.12-2.12,1.92,1.92,0,0,1,1.48.61,2.12,2.12,0,0,1,.58,1.51Z"/><path class="cls-4" d="M272.6,19a9.77,9.77,0,0,1-1.27,5,9.09,9.09,0,0,1-3.41,3.39,10,10,0,0,1-9.57,0A9.17,9.17,0,0,1,254.94,24a9.87,9.87,0,0,1-1.27-5,9.87,9.87,0,0,1,1.27-5,9.29,9.29,0,0,1,3.41-3.41,9.92,9.92,0,0,1,9.57,0,9.22,9.22,0,0,1,3.41,3.41A9.77,9.77,0,0,1,272.6,19Zm-4.17,0a6.29,6.29,0,0,0-.72-3.08,5.29,5.29,0,0,0-1.91-2,5.21,5.21,0,0,0-5.32,0,5.39,5.39,0,0,0-1.92,2,6.4,6.4,0,0,0-.71,3.08,6.29,6.29,0,0,0,.71,3,5.39,5.39,0,0,0,1.92,2,5.21,5.21,0,0,0,5.32,0,5.29,5.29,0,0,0,1.91-2A6.18,6.18,0,0,0,268.43,19Z"/><path class="cls-4" d="M274.27,25.36a1.9,1.9,0,0,1-.32-1.25,1.7,1.7,0,0,1,.91-1.32,1.85,1.85,0,0,1,1.18-.3,2,2,0,0,1,1.22.64,8,8,0,0,0,2.12,1.57,6.21,6.21,0,0,0,2.79.56,11.08,11.08,0,0,0,1.14-.16,2.19,2.19,0,0,0,1.1-.56,1.74,1.74,0,0,0,.47-1.34,1.5,1.5,0,0,0-.52-1.21,4.3,4.3,0,0,0-1.38-.77c-.57-.21-1.2-.41-1.89-.59s-1.46-.44-2.21-.7a8.61,8.61,0,0,1-2.07-1,4.58,4.58,0,0,1-1.53-1.62,4.9,4.9,0,0,1-.6-2.54,4.56,4.56,0,0,1,1-2.95A6.29,6.29,0,0,1,278.18,10a8.21,8.21,0,0,1,3.25-.66,10.21,10.21,0,0,1,2.27.26,8.91,8.91,0,0,1,2.26.83,5.65,5.65,0,0,1,1.81,1.51,2.58,2.58,0,0,1,.45,1.26,1.48,1.48,0,0,1-.66,1.32,1.66,1.66,0,0,1-1.22.36,1.86,1.86,0,0,1-1.15-.46,4.07,4.07,0,0,0-1.58-1.22,5.46,5.46,0,0,0-2.28-.45,5.8,5.8,0,0,0-1.13.12,2.16,2.16,0,0,0-1.06.52,1.62,1.62,0,0,0-.45,1.27,1.62,1.62,0,0,0,.52,1.27,3.83,3.83,0,0,0,1.41.76c.59.2,1.22.39,1.89.58s1.41.41,2.13.66a8.21,8.21,0,0,1,2,1,4.84,4.84,0,0,1,1.46,1.62,5.11,5.11,0,0,1,.56,2.52,4.58,4.58,0,0,1-1.05,3A6.57,6.57,0,0,1,285,28a8.32,8.32,0,0,1-3.2.65,12.26,12.26,0,0,1-4.1-.72A7,7,0,0,1,274.27,25.36Z"/><path class="cls-4" d="M316.93,2.5a2,2,0,0,1,1.49.59A2.06,2.06,0,0,1,319,4.62V26.13a2.07,2.07,0,0,1-.59,1.51,2.14,2.14,0,0,1-3,0,2.11,2.11,0,0,1-.59-1.51V24.42l.76.31a2,2,0,0,1-.48,1.1,6.79,6.79,0,0,1-1.33,1.27,7.93,7.93,0,0,1-2,1.06,6.79,6.79,0,0,1-2.45.44A7.86,7.86,0,0,1,305,27.36,8.63,8.63,0,0,1,302,24a10.58,10.58,0,0,1-1.13-5,10.69,10.69,0,0,1,1.13-5,8.69,8.69,0,0,1,3-3.41,7.7,7.7,0,0,1,4.25-1.23,8.1,8.1,0,0,1,4.92,1.6,6.81,6.81,0,0,1,1.43,1.4,2.3,2.3,0,0,1,.5,1.21l-1.25.45V4.62a2.09,2.09,0,0,1,.59-1.51A2,2,0,0,1,316.93,2.5Zm-7,22.27a4.74,4.74,0,0,0,2.68-.77,5.2,5.2,0,0,0,1.79-2.08,6.66,6.66,0,0,0,.64-3,6.7,6.7,0,0,0-.64-3,5.16,5.16,0,0,0-1.79-2.09,4.74,4.74,0,0,0-2.68-.77,4.68,4.68,0,0,0-2.65.77A5.16,5.16,0,0,0,305.46,16a6.7,6.7,0,0,0-.64,3,6.66,6.66,0,0,0,.64,3A5.2,5.2,0,0,0,307.25,24,4.68,4.68,0,0,0,309.9,24.77Z"/><path class="cls-4" d="M331.72,28.6a10.15,10.15,0,0,1-5.13-1.24A8.5,8.5,0,0,1,323.25,24a9.75,9.75,0,0,1-1.17-4.8,10.6,10.6,0,0,1,1.27-5.34,9,9,0,0,1,3.33-3.39A8.52,8.52,0,0,1,331,9.29a7.83,7.83,0,0,1,3.35.73,8.92,8.92,0,0,1,2.8,2A9.52,9.52,0,0,1,339.12,15a9,9,0,0,1,.71,3.55,1.77,1.77,0,0,1-.66,1.35,2.21,2.21,0,0,1-1.46.52h-13.3l-1-3.47h12.77l-.76.69v-.94a3.23,3.23,0,0,0-.72-1.81,4.77,4.77,0,0,0-1.6-1.27,4.61,4.61,0,0,0-2-.47,6.76,6.76,0,0,0-1.95.28,3.75,3.75,0,0,0-1.57.94,4.46,4.46,0,0,0-1,1.78,8.61,8.61,0,0,0-.39,2.81,6.11,6.11,0,0,0,.79,3.19,5.25,5.25,0,0,0,2,2,5.36,5.36,0,0,0,2.62.68,8.09,8.09,0,0,0,2.06-.21,4.81,4.81,0,0,0,1.23-.5c.31-.2.6-.37.85-.51a2.64,2.64,0,0,1,1.19-.31,1.69,1.69,0,0,1,1.27.52,1.72,1.72,0,0,1,.5,1.22,2.16,2.16,0,0,1-1,1.7A8.1,8.1,0,0,1,335.1,28,10,10,0,0,1,331.72,28.6Z"/><path class="cls-4" d="M353.89,9.63a2.32,2.32,0,0,1,1.21.33,2,2,0,0,1,.84,1l5.11,11.69-.76.35,5.22-12a1.81,1.81,0,0,1,1.84-1.32,1.91,1.91,0,0,1,1.41.54,1.81,1.81,0,0,1,.54,1.34,1.72,1.72,0,0,1-.09.52,4,4,0,0,1-.19.52l-6.5,14.34a2,2,0,0,1-1.78,1.32,1.91,1.91,0,0,1-1.27-.24,2.24,2.24,0,0,1-.92-1.08l-6.47-14.34c-.05-.12-.1-.27-.16-.45a2.19,2.19,0,0,1-.09-.66,1.86,1.86,0,0,1,.56-1.24A2,2,0,0,1,353.89,9.63Z"/><path class="cls-4" d="M373.71,7.37A2.79,2.79,0,0,1,372,7a1.63,1.63,0,0,1-.49-1.36V5a1.54,1.54,0,0,1,.54-1.37,4,4,0,0,1,3.36,0A1.66,1.66,0,0,1,375.94,5v.66A1.62,1.62,0,0,1,375.42,7,3.11,3.11,0,0,1,373.71,7.37Zm2.12,18.76a2.07,2.07,0,0,1-.59,1.51,2.14,2.14,0,0,1-3,0,2.07,2.07,0,0,1-.59-1.51V11.76a2.07,2.07,0,0,1,.59-1.52,2.14,2.14,0,0,1,3,0,2.07,2.07,0,0,1,.59,1.52Z"/><path class="cls-4" d="M394.71,2.5a2,2,0,0,1,1.49.59,2.06,2.06,0,0,1,.59,1.53V26.13a2.07,2.07,0,0,1-.59,1.51,2.14,2.14,0,0,1-3,0,2.07,2.07,0,0,1-.59-1.51V24.42l.76.31a2,2,0,0,1-.48,1.1,6.79,6.79,0,0,1-1.33,1.27,7.93,7.93,0,0,1-2,1.06,6.79,6.79,0,0,1-2.45.44,7.86,7.86,0,0,1-4.35-1.24A8.63,8.63,0,0,1,379.73,24a10.58,10.58,0,0,1-1.13-5,10.69,10.69,0,0,1,1.13-5,8.69,8.69,0,0,1,3-3.41A7.7,7.7,0,0,1,387,9.29a8.1,8.1,0,0,1,4.92,1.6,6.81,6.81,0,0,1,1.43,1.4,2.3,2.3,0,0,1,.5,1.21l-1.25.45V4.62a2,2,0,0,1,.59-1.51A2,2,0,0,1,394.71,2.5Zm-7,22.27a4.74,4.74,0,0,0,2.68-.77,5.2,5.2,0,0,0,1.79-2.08,6.66,6.66,0,0,0,.64-3,6.7,6.7,0,0,0-.64-3,5.16,5.16,0,0,0-1.79-2.09,4.74,4.74,0,0,0-2.68-.77,4.68,4.68,0,0,0-2.65.77A5.16,5.16,0,0,0,383.24,16a6.7,6.7,0,0,0-.64,3,6.66,6.66,0,0,0,.64,3A5.2,5.2,0,0,0,385,24,4.68,4.68,0,0,0,387.68,24.77Z"/><path class="cls-4" d="M416,9.29a2,2,0,0,1,1.5.59,2.07,2.07,0,0,1,.59,1.53V26.13a2.11,2.11,0,0,1-.59,1.51,2,2,0,0,1-1.5.61,2,2,0,0,1-1.49-.61,2.07,2.07,0,0,1-.59-1.51V24.42l.76.31a1.92,1.92,0,0,1-.49,1.1,6.45,6.45,0,0,1-1.32,1.27,8.11,8.11,0,0,1-2,1.06,6.84,6.84,0,0,1-2.46.44,7.91,7.91,0,0,1-4.35-1.24A8.7,8.7,0,0,1,401,24a10.7,10.7,0,0,1-1.13-5,10.81,10.81,0,0,1,1.13-5A8.79,8.79,0,0,1,404,10.52a7.67,7.67,0,0,1,4.24-1.23,8.16,8.16,0,0,1,4.93,1.6,6.51,6.51,0,0,1,1.42,1.4,2.25,2.25,0,0,1,.51,1.21l-1.25.45V11.41a2.07,2.07,0,0,1,.59-1.52A2,2,0,0,1,416,9.29Zm-7,15.48a4.71,4.71,0,0,0,2.68-.77,5.14,5.14,0,0,0,1.8-2.08,7.23,7.23,0,0,0,0-6,5.11,5.11,0,0,0-1.8-2.09,5,5,0,0,0-5.32,0A5.09,5.09,0,0,0,404.51,16a6.7,6.7,0,0,0-.65,3,6.67,6.67,0,0,0,.65,3A5.12,5.12,0,0,0,406.3,24,4.68,4.68,0,0,0,408.94,24.77Z"/><path class="cls-5" d="M154.68,41a.8.8,0,0,1,.83.83V60.58a.77.77,0,0,1-.25.58.79.79,0,0,1-.58.25.76.76,0,0,1-.61-.25.82.82,0,0,1-.22-.58V57.29l.47-.38a3.73,3.73,0,0,1-.41,1.61,5.45,5.45,0,0,1-1.18,1.57A6.31,6.31,0,0,1,151,61.25a5.47,5.47,0,0,1-2.2.44,5.88,5.88,0,0,1-3.3-1,6.81,6.81,0,0,1-2.33-2.62,8.74,8.74,0,0,1,0-7.56,6.67,6.67,0,0,1,2.32-2.63,5.84,5.84,0,0,1,3.29-.95,5.67,5.67,0,0,1,2.18.41,6.22,6.22,0,0,1,1.81,1.13A5.35,5.35,0,0,1,154,50.15a4.24,4.24,0,0,1,.46,1.92l-.58-.41V41.79a.82.82,0,0,1,.22-.58A.76.76,0,0,1,154.68,41Zm-5.75,19.18a4.54,4.54,0,0,0,2.6-.76,5.22,5.22,0,0,0,1.78-2.07,6.75,6.75,0,0,0,.65-3,6.62,6.62,0,0,0-.65-3,5.25,5.25,0,0,0-1.78-2.08,4.79,4.79,0,0,0-5.18,0,5.14,5.14,0,0,0-1.8,2.08,6.62,6.62,0,0,0-.65,3,6.69,6.69,0,0,0,.65,3,5,5,0,0,0,1.8,2.09A4.52,4.52,0,0,0,148.93,60.14Z"/><path class="cls-5" d="M165.87,61.69a7.56,7.56,0,0,1-3.76-.91,6.42,6.42,0,0,1-2.54-2.55,7.62,7.62,0,0,1-.92-3.81,8.09,8.09,0,0,1,.93-4,6.79,6.79,0,0,1,2.4-2.55,6,6,0,0,1,3.14-.9,6.88,6.88,0,0,1,2.37.42,5.92,5.92,0,0,1,2,1.28A6.38,6.38,0,0,1,171,50.72a6.88,6.88,0,0,1,.58,2.82.74.74,0,0,1-.24.56.82.82,0,0,1-.58.24H159.62l-.33-1.5h10.89l-.36.34v-.56a4.21,4.21,0,0,0-.86-2.21A4.66,4.66,0,0,0,167.24,49a5,5,0,0,0-2.12-.47,4.79,4.79,0,0,0-1.7.33,4.44,4.44,0,0,0-1.57,1,5.31,5.31,0,0,0-1.15,1.79,6.79,6.79,0,0,0-.44,2.59,6.57,6.57,0,0,0,.66,3,5.16,5.16,0,0,0,1.91,2.1,5.63,5.63,0,0,0,3,.77,5.11,5.11,0,0,0,1.71-.27,4.86,4.86,0,0,0,1.37-.74,4.94,4.94,0,0,0,1-1,.94.94,0,0,1,.58-.25.67.67,0,0,1,.52.22.74.74,0,0,1,.2.5.77.77,0,0,1-.27.58A7.58,7.58,0,0,1,168.77,61,5.87,5.87,0,0,1,165.87,61.69Z"/><path class="cls-5" d="M197.65,42.45a2.05,2.05,0,0,1,1.5.59,2.1,2.1,0,0,1,.59,1.53V59.29a2.09,2.09,0,0,1-.59,1.51,2,2,0,0,1-1.5.61,2,2,0,0,1-1.49-.61,2,2,0,0,1-.59-1.51v-1.7l.76.31a2,2,0,0,1-.49,1.1,6.42,6.42,0,0,1-1.32,1.26,8.13,8.13,0,0,1-2,1.07,6.84,6.84,0,0,1-2.46.43,8,8,0,0,1-4.35-1.23,8.77,8.77,0,0,1-3.08-3.41,11.69,11.69,0,0,1,0-10,8.86,8.86,0,0,1,3.05-3.41A7.67,7.67,0,0,1,190,42.45a8.05,8.05,0,0,1,2.75.45,8.33,8.33,0,0,1,2.18,1.15,6.32,6.32,0,0,1,1.42,1.41,2.2,2.2,0,0,1,.51,1.2l-1.25.45V44.57a2,2,0,0,1,.59-1.51A2,2,0,0,1,197.65,42.45Zm-7,15.48a4.68,4.68,0,0,0,2.68-.76,5.17,5.17,0,0,0,1.8-2.09,6.8,6.8,0,0,0,.64-3,6.87,6.87,0,0,0-.64-3A5.17,5.17,0,0,0,193.3,47,5,5,0,0,0,188,47a5.15,5.15,0,0,0-1.79,2.09,6.73,6.73,0,0,0-.65,3,6.67,6.67,0,0,0,.65,3A5.15,5.15,0,0,0,188,57.17,4.67,4.67,0,0,0,190.62,57.93Z"/><path class="cls-5" d="M208.12,59.29A2.08,2.08,0,0,1,206,61.41a2,2,0,0,1-1.46-.61,2.09,2.09,0,0,1-.59-1.51V37.79a2.05,2.05,0,0,1,.61-1.52,2.08,2.08,0,0,1,1.51-.61,2,2,0,0,1,1.48.61,2.15,2.15,0,0,1,.58,1.52Z"/><path class="cls-5" d="M220,42.45a7.67,7.67,0,0,1,4.78,1.6,6.57,6.57,0,0,1,1.39,1.41,2.2,2.2,0,0,1,.51,1.2l-.91.45V44.57a2.09,2.09,0,0,1,.59-1.51,2,2,0,0,1,1.5-.61,2.07,2.07,0,0,1,1.5.59,2.1,2.1,0,0,1,.59,1.53V60.06a8.19,8.19,0,0,1-1.31,4.85,7.33,7.33,0,0,1-3.42,2.64,12.51,12.51,0,0,1-4.56.82,12.92,12.92,0,0,1-1.81-.17c-.74-.12-1.45-.26-2.12-.42a11.44,11.44,0,0,1-1.54-.45,3,3,0,0,1-1.44-1.13,1.72,1.72,0,0,1-.16-1.45,2.19,2.19,0,0,1,1-1.37,1.77,1.77,0,0,1,1.46-.09c.24.07.62.21,1.15.42a16.56,16.56,0,0,0,1.76.57,6.28,6.28,0,0,0,1.69.26,5.91,5.91,0,0,0,3.86-1,3.55,3.55,0,0,0,1.25-2.89v-3l.42.31a2,2,0,0,1-.47,1.1,6.2,6.2,0,0,1-1.29,1.26,7.73,7.73,0,0,1-1.93,1.07,6.42,6.42,0,0,1-2.36.43,8.29,8.29,0,0,1-4.46-1.23,8.82,8.82,0,0,1-3.13-3.41,11.51,11.51,0,0,1,0-10,8.9,8.9,0,0,1,3.1-3.41A8,8,0,0,1,220,42.45Zm.66,3.83A4.94,4.94,0,0,0,218,47a5.21,5.21,0,0,0-1.85,2.09,6.6,6.6,0,0,0-.66,3,6.54,6.54,0,0,0,.66,3A5.21,5.21,0,0,0,218,57.17a4.94,4.94,0,0,0,2.75.76,5,5,0,0,0,2.78-.76,5.29,5.29,0,0,0,1.85-2.09,6.54,6.54,0,0,0,.66-3,6.6,6.6,0,0,0-.66-3A5.29,5.29,0,0,0,223.48,47,5,5,0,0,0,220.7,46.28Z"/><path class="cls-5" d="M247.7,42.8a2,2,0,0,1,1.5.61,2.09,2.09,0,0,1,.59,1.51v8.84a8.1,8.1,0,0,1-2.06,5.84,9.15,9.15,0,0,1-11.81,0,8.13,8.13,0,0,1-2-5.84V44.92a2,2,0,0,1,.59-1.51,2.14,2.14,0,0,1,3,0,2.09,2.09,0,0,1,.59,1.51v8.84a4.54,4.54,0,0,0,.94,3.15,4.45,4.45,0,0,0,5.67,0,4.54,4.54,0,0,0,.94-3.15V44.92a2.09,2.09,0,0,1,.59-1.51A2,2,0,0,1,247.7,42.8Z"/><path class="cls-5" d="M263.65,42.45a6.13,6.13,0,0,1,3.92,1.08,5.44,5.44,0,0,1,1.84,2.87,14.49,14.49,0,0,1,.51,4v8.91a2.09,2.09,0,0,1-.59,1.51,2.15,2.15,0,0,1-3,0,2.09,2.09,0,0,1-.59-1.51V50.38a7,7,0,0,0-.29-2.07,3,3,0,0,0-1.07-1.48,3.69,3.69,0,0,0-2.19-.55,4.62,4.62,0,0,0-2.35.55,4,4,0,0,0-1.46,1.48,4.34,4.34,0,0,0-.5,2.07v8.91a2.09,2.09,0,0,1-.59,1.51,2.15,2.15,0,0,1-3,0,2.09,2.09,0,0,1-.59-1.51V44.92a2.09,2.09,0,0,1,.59-1.51,2.15,2.15,0,0,1,3,0,2.09,2.09,0,0,1,.59,1.51v1.5l-.52-.11a6.7,6.7,0,0,1,.9-1.27,9,9,0,0,1,1.39-1.27,7.61,7.61,0,0,1,1.81-1A6.49,6.49,0,0,1,263.65,42.45Z"/><path class="cls-5" d="M291.81,52.12a9.87,9.87,0,0,1-1.27,5,9.17,9.17,0,0,1-3.41,3.39,10,10,0,0,1-9.57,0,9,9,0,0,1-3.41-3.39,10.6,10.6,0,0,1,0-10.06,9.22,9.22,0,0,1,3.41-3.41,9.49,9.49,0,0,1,13,3.41A9.87,9.87,0,0,1,291.81,52.12Zm-4.18,0a6.4,6.4,0,0,0-.71-3.08A5.22,5.22,0,0,0,285,47a5.21,5.21,0,0,0-5.32,0,5.2,5.2,0,0,0-1.91,2,6.29,6.29,0,0,0-.72,3.08,6.22,6.22,0,0,0,.72,3.05,5.2,5.2,0,0,0,1.91,2,5.21,5.21,0,0,0,5.32,0,5.22,5.22,0,0,0,1.92-2A6.33,6.33,0,0,0,287.63,52.12Z"/><path class="cls-5" d="M293.47,58.53a2,2,0,0,1-.31-1.26,1.66,1.66,0,0,1,.9-1.32,2,2,0,0,1,1.19-.3,2,2,0,0,1,1.21.65,8.24,8.24,0,0,0,2.13,1.56,6.07,6.07,0,0,0,2.78.56,7.52,7.52,0,0,0,1.15-.16,2.14,2.14,0,0,0,1.09-.55,1.72,1.72,0,0,0,.47-1.34,1.52,1.52,0,0,0-.52-1.22,4.43,4.43,0,0,0-1.37-.77c-.57-.2-1.2-.4-1.9-.59s-1.46-.44-2.21-.69a9.89,9.89,0,0,1-2.07-1,4.75,4.75,0,0,1-1.53-1.62,4.92,4.92,0,0,1-.59-2.54,4.58,4.58,0,0,1,1-3,6.35,6.35,0,0,1,2.53-1.88,8.18,8.18,0,0,1,3.25-.66,10.74,10.74,0,0,1,2.26.26,8.77,8.77,0,0,1,2.26.83A5.68,5.68,0,0,1,307,45.06a2.36,2.36,0,0,1,.45,1.25,1.47,1.47,0,0,1-.66,1.32,1.68,1.68,0,0,1-1.22.37,1.84,1.84,0,0,1-1.14-.47,4.18,4.18,0,0,0-1.59-1.22,5.46,5.46,0,0,0-2.28-.45,6,6,0,0,0-1.13.12,2.3,2.3,0,0,0-1.06.52,1.62,1.62,0,0,0-.45,1.27,1.6,1.6,0,0,0,.52,1.27,3.93,3.93,0,0,0,1.41.77c.59.2,1.22.39,1.9.57s1.4.41,2.12.66a8.79,8.79,0,0,1,2,1,4.74,4.74,0,0,1,1.46,1.62,5,5,0,0,1,.56,2.52,4.59,4.59,0,0,1-1,3,6.63,6.63,0,0,1-2.61,1.9,8.34,8.34,0,0,1-3.2.64,12.6,12.6,0,0,1-4.11-.71A7.19,7.19,0,0,1,293.47,58.53Z"/><path class="cls-5" d="M320,58.53a2,2,0,0,1-.32-1.26,1.67,1.67,0,0,1,.91-1.32,1.92,1.92,0,0,1,1.18-.3,2,2,0,0,1,1.22.65,8.2,8.2,0,0,0,2.12,1.56,6.07,6.07,0,0,0,2.78.56,7.52,7.52,0,0,0,1.15-.16,2.17,2.17,0,0,0,1.1-.55,1.76,1.76,0,0,0,.47-1.34,1.56,1.56,0,0,0-.52-1.22,4.49,4.49,0,0,0-1.38-.77c-.57-.2-1.2-.4-1.89-.59s-1.46-.44-2.21-.69a9.43,9.43,0,0,1-2.07-1A4.88,4.88,0,0,1,321,50.49,5,5,0,0,1,320.4,48a4.59,4.59,0,0,1,1-3,6.39,6.39,0,0,1,2.52-1.88,8.21,8.21,0,0,1,3.25-.66,10.83,10.83,0,0,1,2.27.26,8.91,8.91,0,0,1,2.26.83,5.68,5.68,0,0,1,1.81,1.52,2.54,2.54,0,0,1,.45,1.25,1.51,1.51,0,0,1-.66,1.32,1.71,1.71,0,0,1-1.22.37,1.87,1.87,0,0,1-1.15-.47,4.07,4.07,0,0,0-1.58-1.22,5.46,5.46,0,0,0-2.28-.45,5.8,5.8,0,0,0-1.13.12,2.25,2.25,0,0,0-1.06.52,1.63,1.63,0,0,0-.46,1.27,1.61,1.61,0,0,0,.53,1.27,3.76,3.76,0,0,0,1.41.77q.89.3,1.89.57c.7.19,1.41.41,2.12.66a9.08,9.08,0,0,1,2,1,4.84,4.84,0,0,1,1.46,1.62,5.11,5.11,0,0,1,.56,2.52,4.54,4.54,0,0,1-1.05,3,6.49,6.49,0,0,1-2.61,1.9,8.31,8.31,0,0,1-3.2.64,12.5,12.5,0,0,1-4.1-.71A7.14,7.14,0,0,1,320,58.53Z"/><path class="cls-5" d="M346,61.76a10.22,10.22,0,0,1-5.13-1.23,8.56,8.56,0,0,1-3.34-3.36,9.8,9.8,0,0,1-1.17-4.8A10.56,10.56,0,0,1,337.61,47a9,9,0,0,1,3.32-3.39,8.57,8.57,0,0,1,4.35-1.18,7.88,7.88,0,0,1,3.36.73,9.09,9.09,0,0,1,2.8,2,9.74,9.74,0,0,1,1.93,2.94,8.87,8.87,0,0,1,.72,3.55,1.81,1.81,0,0,1-.67,1.36,2.18,2.18,0,0,1-1.46.52H338.67l-1-3.48H350.4l-.77.7v-.94a3.16,3.16,0,0,0-.71-1.81,4.69,4.69,0,0,0-3.64-1.74,6.86,6.86,0,0,0-1.95.27,3.78,3.78,0,0,0-1.56.94,4.75,4.75,0,0,0-1,1.78,8.94,8.94,0,0,0-.38,2.82,6.09,6.09,0,0,0,.78,3.18,5.39,5.39,0,0,0,2,2,5.32,5.32,0,0,0,2.63.68,8,8,0,0,0,2.05-.21,4.38,4.38,0,0,0,1.24-.5,9.24,9.24,0,0,1,.85-.5,2.65,2.65,0,0,1,1.18-.32,1.76,1.76,0,0,1,1.78,1.74,2.18,2.18,0,0,1-1,1.71,8.2,8.2,0,0,1-2.54,1.34A10.15,10.15,0,0,1,346,61.76Z"/><path class="cls-5" d="M359.24,61.41a2,2,0,0,1-1.49-.61,2.06,2.06,0,0,1-.6-1.51V44.92a2.06,2.06,0,0,1,.6-1.51,2,2,0,0,1,1.49-.61,2,2,0,0,1,1.5.61,2.09,2.09,0,0,1,.59,1.51v3.27l-.24-2.33a5.19,5.19,0,0,1,1-1.48,5.73,5.73,0,0,1,1.37-1.08,6.28,6.28,0,0,1,1.64-.64,7.39,7.39,0,0,1,1.74-.21,2.66,2.66,0,0,1,1.75.59,1.77,1.77,0,0,1,.72,1.39,2.06,2.06,0,0,1-.59,1.65,2,2,0,0,1-1.29.51,2.92,2.92,0,0,1-1.2-.24A2.86,2.86,0,0,0,365,46.1a3,3,0,0,0-1.27.3,3.48,3.48,0,0,0-1.18.92,4.82,4.82,0,0,0-.87,1.55,6.43,6.43,0,0,0-.33,2.17v8.25a2.09,2.09,0,0,1-.59,1.51A2,2,0,0,1,359.24,61.41Z"/><path class="cls-5" d="M379.67,61.76a10.25,10.25,0,0,1-5.13-1.23,8.63,8.63,0,0,1-3.34-3.36,9.8,9.8,0,0,1-1.16-4.8A10.56,10.56,0,0,1,371.31,47a8.94,8.94,0,0,1,3.32-3.39A8.57,8.57,0,0,1,379,42.45a7.91,7.91,0,0,1,3.36.73,9.21,9.21,0,0,1,2.8,2,9.93,9.93,0,0,1,1.93,2.94,9,9,0,0,1,.71,3.55,1.77,1.77,0,0,1-.66,1.36,2.2,2.2,0,0,1-1.46.52H372.37l-1.05-3.48h12.77l-.76.7v-.94a3.17,3.17,0,0,0-.72-1.81A4.69,4.69,0,0,0,379,46.28a6.76,6.76,0,0,0-2,.27,3.82,3.82,0,0,0-1.57.94,4.74,4.74,0,0,0-1,1.78,8.66,8.66,0,0,0-.38,2.82,6.09,6.09,0,0,0,.78,3.18,5.37,5.37,0,0,0,4.65,2.66,8.06,8.06,0,0,0,2-.21,4.19,4.19,0,0,0,1.23-.5c.32-.2.6-.37.86-.5a2.62,2.62,0,0,1,1.18-.32,1.73,1.73,0,0,1,1.27.52,1.69,1.69,0,0,1,.5,1.22,2.17,2.17,0,0,1-1,1.71,8.2,8.2,0,0,1-2.54,1.34A10.21,10.21,0,0,1,379.67,61.76Z"/><path class="cls-5" d="M389.83,58.53a2,2,0,0,1-.31-1.26,1.67,1.67,0,0,1,.91-1.32,1.92,1.92,0,0,1,1.18-.3,2,2,0,0,1,1.22.65A8.2,8.2,0,0,0,395,57.86a6.07,6.07,0,0,0,2.78.56,7.52,7.52,0,0,0,1.15-.16,2.21,2.21,0,0,0,1.1-.55,1.76,1.76,0,0,0,.47-1.34,1.56,1.56,0,0,0-.52-1.22,4.49,4.49,0,0,0-1.38-.77c-.57-.2-1.2-.4-1.9-.59s-1.45-.44-2.21-.69a9.89,9.89,0,0,1-2.07-1,5,5,0,0,1-1.53-1.62,5,5,0,0,1-.59-2.54,4.59,4.59,0,0,1,1-3,6.39,6.39,0,0,1,2.52-1.88,8.21,8.21,0,0,1,3.25-.66,10.67,10.67,0,0,1,2.26.26,8.84,8.84,0,0,1,2.27.83,5.79,5.79,0,0,1,1.81,1.52,2.54,2.54,0,0,1,.45,1.25,1.51,1.51,0,0,1-.66,1.32,1.71,1.71,0,0,1-1.22.37,1.85,1.85,0,0,1-1.15-.47,4.07,4.07,0,0,0-1.58-1.22,5.46,5.46,0,0,0-2.28-.45,5.8,5.8,0,0,0-1.13.12,2.25,2.25,0,0,0-1.06.52,1.59,1.59,0,0,0-.46,1.27,1.61,1.61,0,0,0,.53,1.27,3.79,3.79,0,0,0,1.4.77c.6.2,1.23.39,1.9.57s1.4.41,2.12.66a9.08,9.08,0,0,1,2,1,4.84,4.84,0,0,1,1.46,1.62,5.11,5.11,0,0,1,.56,2.52,4.54,4.54,0,0,1-1,3,6.49,6.49,0,0,1-2.61,1.9,8.31,8.31,0,0,1-3.2.64,12.6,12.6,0,0,1-4.11-.71A7.24,7.24,0,0,1,389.83,58.53Z"/><path class="cls-5" d="M418.26,42.8a2.35,2.35,0,0,1,1.22.33,2.06,2.06,0,0,1,.84,1l5.11,11.69-.76.35,5.21-12a1.85,1.85,0,0,1,1.85-1.32,1.91,1.91,0,0,1,1.41.54,1.82,1.82,0,0,1,.54,1.34,1.67,1.67,0,0,1-.09.52,5.19,5.19,0,0,1-.19.52l-6.51,14.34a2,2,0,0,1-1.77,1.32,1.9,1.9,0,0,1-1.27-.24,2.1,2.1,0,0,1-.92-1.08l-6.48-14.34a4.67,4.67,0,0,1-.15-.45,2.1,2.1,0,0,1-.09-.66,1.82,1.82,0,0,1,.56-1.23A1.91,1.91,0,0,1,418.26,42.8Z"/><path class="cls-5" d="M438.09,40.54a2.71,2.71,0,0,1-1.67-.39,1.61,1.61,0,0,1-.49-1.36v-.66a1.54,1.54,0,0,1,.54-1.37,3,3,0,0,1,1.65-.37,2.83,2.83,0,0,1,1.71.39,1.64,1.64,0,0,1,.48,1.35v.66a1.56,1.56,0,0,1-.52,1.38A3.06,3.06,0,0,1,438.09,40.54Zm2.12,18.75a2.09,2.09,0,0,1-.59,1.51,2,2,0,0,1-1.5.61,2,2,0,0,1-1.49-.61,2.06,2.06,0,0,1-.6-1.51V44.92a2.06,2.06,0,0,1,.6-1.51,2,2,0,0,1,1.49-.61,2,2,0,0,1,1.5.61,2.09,2.09,0,0,1,.59,1.51Z"/><path class="cls-5" d="M444.6,42.8a2.35,2.35,0,0,1,1.22.33,2,2,0,0,1,.83,1l5.12,11.69-.77.35,5.22-12a1.85,1.85,0,0,1,1.85-1.32,1.91,1.91,0,0,1,1.41.54,1.86,1.86,0,0,1,.54,1.34,1.67,1.67,0,0,1-.09.52,5.19,5.19,0,0,1-.19.52l-6.51,14.34a2,2,0,0,1-1.77,1.32,1.89,1.89,0,0,1-1.27-.24,2.17,2.17,0,0,1-.93-1.08l-6.47-14.34a4.31,4.31,0,0,1-.16-.45,2.48,2.48,0,0,1-.08-.66,1.81,1.81,0,0,1,.55-1.23A1.93,1.93,0,0,1,444.6,42.8Z"/><path class="cls-5" d="M479.9,52.12a9.77,9.77,0,0,1-1.27,5,9.07,9.07,0,0,1-3.4,3.39,10,10,0,0,1-9.57,0,9,9,0,0,1-3.41-3.39,10.6,10.6,0,0,1,0-10.06,9.22,9.22,0,0,1,3.41-3.41,9.92,9.92,0,0,1,9.57,0,9.27,9.27,0,0,1,3.4,3.41A9.77,9.77,0,0,1,479.9,52.12Zm-4.17,0A6.4,6.4,0,0,0,475,49a5.29,5.29,0,0,0-1.92-2,5.21,5.21,0,0,0-5.32,0,5.29,5.29,0,0,0-1.92,2,6.4,6.4,0,0,0-.71,3.08,6.33,6.33,0,0,0,.71,3.05,5.29,5.29,0,0,0,1.92,2,5.21,5.21,0,0,0,5.32,0,5.29,5.29,0,0,0,1.92-2A6.33,6.33,0,0,0,475.73,52.12Z"/><path class="cls-5" d="M481.57,58.53a2,2,0,0,1-.31-1.26,1.66,1.66,0,0,1,.9-1.32,1.94,1.94,0,0,1,1.18-.3,2,2,0,0,1,1.22.65,8.2,8.2,0,0,0,2.12,1.56,6.11,6.11,0,0,0,2.79.56,7.69,7.69,0,0,0,1.15-.16,2.18,2.18,0,0,0,1.09-.55,1.76,1.76,0,0,0,.47-1.34,1.52,1.52,0,0,0-.52-1.22,4.49,4.49,0,0,0-1.38-.77c-.56-.2-1.2-.4-1.89-.59s-1.46-.44-2.21-.69a9.43,9.43,0,0,1-2.07-1,4.75,4.75,0,0,1-1.53-1.62A4.92,4.92,0,0,1,482,48a4.58,4.58,0,0,1,1-3,6.39,6.39,0,0,1,2.52-1.88,8.22,8.22,0,0,1,3.26-.66,10.74,10.74,0,0,1,2.26.26,8.77,8.77,0,0,1,2.26.83,5.68,5.68,0,0,1,1.81,1.52,2.44,2.44,0,0,1,.45,1.25,1.47,1.47,0,0,1-.66,1.32,1.7,1.7,0,0,1-1.22.37,1.9,1.9,0,0,1-1.15-.47,4.07,4.07,0,0,0-1.58-1.22,5.46,5.46,0,0,0-2.28-.45,5.88,5.88,0,0,0-1.13.12,2.3,2.3,0,0,0-1.06.52,1.62,1.62,0,0,0-.45,1.27,1.6,1.6,0,0,0,.52,1.27,3.93,3.93,0,0,0,1.41.77q.88.3,1.89.57t2.13.66a8.79,8.79,0,0,1,2,1,4.84,4.84,0,0,1,1.46,1.62,5.11,5.11,0,0,1,.56,2.52,4.59,4.59,0,0,1-1,3,6.63,6.63,0,0,1-2.61,1.9,8.39,8.39,0,0,1-3.21.64,12.59,12.59,0,0,1-4.1-.71A7.14,7.14,0,0,1,481.57,58.53Z"/><path class="cls-5" d="M501.32,61.41a2.1,2.1,0,0,1-1.55-.54,2.08,2.08,0,0,1-.54-1.54v-.6a2.06,2.06,0,0,1,.54-1.54,2.1,2.1,0,0,1,1.55-.54h.45a2.1,2.1,0,0,1,1.55.54,2.06,2.06,0,0,1,.54,1.54v.6a2.08,2.08,0,0,1-.54,1.54,2.1,2.1,0,0,1-1.55.54Zm.24-7.69q-1.19,0-1.29-1.32l-1-12.8a2.36,2.36,0,0,1,.57-1.81,2.13,2.13,0,0,1,1.69-.73,2.18,2.18,0,0,1,1.7.73,2.25,2.25,0,0,1,.56,1.81l-1,12.8C502.75,53.28,502.33,53.72,501.56,53.72Z"/><path class="cls-5" d="M3.63,14.12a.94.94,0,0,1,.74.3,1.09,1.09,0,0,1,.26.75v.61a1.13,1.13,0,0,1-.26.78,1,1,0,0,1-.74.27H3.47a1,1,0,0,1-.74-.27,1.23,1.23,0,0,1-.23-.78v-.61a1.18,1.18,0,0,1,.23-.75.89.89,0,0,1,.74-.3Zm-.08,5.42c.35,0,.54.2.58.58l.31,12.22a1.58,1.58,0,0,1-.2.82.74.74,0,0,1-.69.31.76.76,0,0,1-.68-.31,1.33,1.33,0,0,1-.18-.82L3,20.12C3,19.74,3.2,19.54,3.55,19.54Z"/><path class="cls-5" d="M9.54,8.9H19.68a.83.83,0,0,1,.58.23.79.79,0,0,1,.25.6.73.73,0,0,1-.25.58.82.82,0,0,1-.58.22H10.17l.28-.47v7.77l-.3-.36h8.29a.79.79,0,0,1,.58.25.81.81,0,0,1,.25.58.76.76,0,0,1-.25.58.84.84,0,0,1-.58.22H10.2l.25-.28v8l-.14-.16h9.37a.85.85,0,0,1,.83.83.73.73,0,0,1-.25.58.82.82,0,0,1-.58.22H9.54A.77.77,0,0,1,9,28a.79.79,0,0,1-.25-.58V9.73a.85.85,0,0,1,.83-.83Z"/><path class="cls-5" d="M23.54,14a.76.76,0,0,1,.66.36L34,27a.8.8,0,0,1,.19.5.77.77,0,0,1-.25.58.79.79,0,0,1-.58.25.88.88,0,0,1-.69-.36L22.85,15.31a.73.73,0,0,1-.17-.49.79.79,0,0,1,.26-.6A.87.87,0,0,1,23.54,14Zm0,14.34a.87.87,0,0,1-.54-.19.63.63,0,0,1-.26-.55.77.77,0,0,1,.19-.53l4.67-6,.91,1.33L24.2,28A.78.78,0,0,1,23.54,28.33ZM33.35,14a.81.81,0,0,1,.57.2.73.73,0,0,1,.2.52.84.84,0,0,1,0,.27.64.64,0,0,1-.15.25l-4.67,6.14L28.4,20l4.26-5.69A.88.88,0,0,1,33.35,14Z"/><path class="cls-5" d="M43.49,14a6,6,0,0,1,3.33.93,6.67,6.67,0,0,1,2.31,2.54A7.85,7.85,0,0,1,50,21.2a7.92,7.92,0,0,1-.86,3.73,6.64,6.64,0,0,1-2.32,2.57,6,6,0,0,1-3.29.94,5.59,5.59,0,0,1-1.84-.29,5.91,5.91,0,0,1-1.59-.79,6.14,6.14,0,0,1-1.27-1.17,5.68,5.68,0,0,1-.88-1.48l.49-.36V33a.85.85,0,0,1-.23.58.82.82,0,0,1-.6.25.8.8,0,0,1-.59-.25.82.82,0,0,1-.24-.58v-18a.87.87,0,0,1,.23-.61.74.74,0,0,1,.6-.25.79.79,0,0,1,.6.25.87.87,0,0,1,.23.61v3l-.38-.22a4.68,4.68,0,0,1,.81-1.53,5.7,5.7,0,0,1,2.83-1.9A6.69,6.69,0,0,1,43.49,14Zm-.14,1.55a4.78,4.78,0,0,0-2.62.73,5.22,5.22,0,0,0-1.79,2,6.31,6.31,0,0,0-.65,2.92,6.51,6.51,0,0,0,.65,2.93,5.06,5.06,0,0,0,1.79,2,4.69,4.69,0,0,0,2.62.73,4.62,4.62,0,0,0,2.59-.73,5.19,5.19,0,0,0,1.78-2,6.38,6.38,0,0,0,.66-2.93,6.2,6.2,0,0,0-.66-2.9,5.27,5.27,0,0,0-1.78-2A4.7,4.7,0,0,0,43.35,15.56Z"/><path class="cls-5" d="M54.88,27.42a.85.85,0,0,1-.83.83.75.75,0,0,1-.59-.25.82.82,0,0,1-.24-.58V8.62A.79.79,0,0,1,53.47,8a.83.83,0,0,1,.58-.25.78.78,0,0,1,.59.25.82.82,0,0,1,.24.58Z"/><path class="cls-5" d="M72.09,21.17A7.67,7.67,0,0,1,71.16,25a6.92,6.92,0,0,1-2.5,2.62,7.08,7.08,0,0,1-7.12,0A6.9,6.9,0,0,1,59,25a7.78,7.78,0,0,1-.92-3.78A7.67,7.67,0,0,1,59,17.39a7.07,7.07,0,0,1,2.52-2.63,7,7,0,0,1,7.12,0,7.1,7.1,0,0,1,2.5,2.63A7.56,7.56,0,0,1,72.09,21.17Zm-1.66,0a6.38,6.38,0,0,0-.69-3,5.5,5.5,0,0,0-1.9-2.07,5,5,0,0,0-2.75-.76,5,5,0,0,0-2.72.76,5.52,5.52,0,0,0-1.91,2.07,6.27,6.27,0,0,0-.7,3,6.17,6.17,0,0,0,.7,3,5.57,5.57,0,0,0,1.91,2.06,5,5,0,0,0,2.72.76,5.09,5.09,0,0,0,2.75-.76,5.54,5.54,0,0,0,1.9-2.06A6.28,6.28,0,0,0,70.43,21.17Z"/><path class="cls-5" d="M76.06,28.25a.76.76,0,0,1-.61-.25.84.84,0,0,1-.22-.58V15a.8.8,0,0,1,.24-.58.82.82,0,0,1,1.18,0,.8.8,0,0,1,.24.58v4.14l-.41.09A6.15,6.15,0,0,1,77,17.34a6.66,6.66,0,0,1,1.09-1.75,5.45,5.45,0,0,1,1.64-1.3,4.6,4.6,0,0,1,2.15-.5,2.31,2.31,0,0,1,1,.21.69.69,0,0,1,.47.68.83.83,0,0,1-.22.63.69.69,0,0,1-.52.22A1.25,1.25,0,0,1,82,15.4a1.67,1.67,0,0,0-.76-.14,3.06,3.06,0,0,0-1.55.45,5.77,5.77,0,0,0-1.41,1.23,6.65,6.65,0,0,0-1,1.73,5.24,5.24,0,0,0-.37,1.92v6.83a.79.79,0,0,1-.25.58A.77.77,0,0,1,76.06,28.25Z"/><path class="cls-5" d="M91.29,28.53a7.56,7.56,0,0,1-3.76-.92A6.53,6.53,0,0,1,85,25.07a7.67,7.67,0,0,1-.91-3.81,8.17,8.17,0,0,1,.92-4,6.77,6.77,0,0,1,2.41-2.56,5.92,5.92,0,0,1,3.14-.9,6.84,6.84,0,0,1,2.36.43,6.05,6.05,0,0,1,2,1.27,6.57,6.57,0,0,1,1.44,2.06A7,7,0,0,1,97,20.37a.75.75,0,0,1-.25.57.85.85,0,0,1-.58.23H85.05l-.34-1.49H95.6l-.35.33v-.55a4.26,4.26,0,0,0-.86-2.21,4.69,4.69,0,0,0-1.73-1.38,4.85,4.85,0,0,0-2.11-.47,4.75,4.75,0,0,0-1.7.33,4.45,4.45,0,0,0-1.58,1,5.41,5.41,0,0,0-1.15,1.8,7,7,0,0,0-.44,2.59,6.52,6.52,0,0,0,.66,3,5.1,5.1,0,0,0,1.91,2.1,5.58,5.58,0,0,0,3,.78A5,5,0,0,0,93,26.7,5.12,5.12,0,0,0,94.35,26a5.26,5.26,0,0,0,1-1,.93.93,0,0,1,.58-.24.67.67,0,0,1,.51.22.69.69,0,0,1,.21.5.75.75,0,0,1-.28.58,7.42,7.42,0,0,1-2.16,1.72A5.87,5.87,0,0,1,91.29,28.53Z"/><path class="cls-5" d="M106.49,14a4.79,4.79,0,0,1,2.93.9,4.58,4.58,0,0,1,1.66,2.67l-.39.11.17-.5a4.49,4.49,0,0,1,1.2-1.56A6.68,6.68,0,0,1,114,14.46a5.64,5.64,0,0,1,2.18-.45,4.77,4.77,0,0,1,2.81.75,4.28,4.28,0,0,1,1.55,2A7.94,7.94,0,0,1,121,19.6v7.82a.85.85,0,0,1-.23.58.79.79,0,0,1-.6.25.75.75,0,0,1-.59-.25.82.82,0,0,1-.24-.58V19.68a5.69,5.69,0,0,0-.36-2.07,3.16,3.16,0,0,0-1.13-1.5,3.57,3.57,0,0,0-2.07-.55,4.63,4.63,0,0,0-2.17.55,4.71,4.71,0,0,0-1.69,1.5,3.55,3.55,0,0,0-.65,2.07v7.74A.85.85,0,0,1,111,28a.79.79,0,0,1-.6.25.75.75,0,0,1-.59-.25.82.82,0,0,1-.24-.58V19.6a6,6,0,0,0-.33-2.05,3,3,0,0,0-1.08-1.45,3.35,3.35,0,0,0-2-.54,4.51,4.51,0,0,0-2.15.54,4.56,4.56,0,0,0-1.63,1.45,3.59,3.59,0,0,0-.62,2.05v7.82a.79.79,0,0,1-.25.58.77.77,0,0,1-.58.25.76.76,0,0,1-.61-.25.89.89,0,0,1-.22-.58V15a.8.8,0,0,1,.24-.58.75.75,0,0,1,.59-.25.79.79,0,0,1,.6.25.83.83,0,0,1,.23.58v2.57l-.75,1a4.49,4.49,0,0,1,.54-1.66,5.7,5.7,0,0,1,1.21-1.49,5.81,5.81,0,0,1,1.7-1.06A5,5,0,0,1,106.49,14Z"/><path class="cls-5" d="M138.05,21.17a7.67,7.67,0,0,1-.93,3.78,6.85,6.85,0,0,1-2.5,2.62,7.06,7.06,0,0,1-7.11,0A6.9,6.9,0,0,1,125,25a7.67,7.67,0,0,1-.93-3.78,7.56,7.56,0,0,1,.93-3.78,7.07,7.07,0,0,1,2.52-2.63,7,7,0,0,1,7.11,0,7,7,0,0,1,2.5,2.63A7.56,7.56,0,0,1,138.05,21.17Zm-1.66,0a6.38,6.38,0,0,0-.69-3,5.4,5.4,0,0,0-1.89-2.07,5.32,5.32,0,0,0-5.48,0,5.5,5.5,0,0,0-1.9,2.07,6.27,6.27,0,0,0-.71,3,6.17,6.17,0,0,0,.71,3,5.54,5.54,0,0,0,1.9,2.06,5.32,5.32,0,0,0,5.48,0,5.44,5.44,0,0,0,1.89-2.06A6.28,6.28,0,0,0,136.39,21.17Z"/><path class="cls-5" d="M140.14,26a1.07,1.07,0,0,1-.21-.65.62.62,0,0,1,.35-.51.69.69,0,0,1,.51-.17.89.89,0,0,1,.54.28,5.89,5.89,0,0,0,1.81,1.56,5.06,5.06,0,0,0,2.53.6,4.53,4.53,0,0,0,1.53-.27,2.94,2.94,0,0,0,1.26-.8,2.14,2.14,0,0,0,0-2.75,3.38,3.38,0,0,0-1.29-.83A13.07,13.07,0,0,0,145.5,22c-.62-.17-1.23-.36-1.82-.57a6.36,6.36,0,0,1-1.56-.8A3.86,3.86,0,0,1,141,19.4a3.27,3.27,0,0,1-.41-1.68,3.38,3.38,0,0,1,.64-2A4.22,4.22,0,0,1,143,14.29a6,6,0,0,1,2.48-.5,6.86,6.86,0,0,1,1.49.18,6.24,6.24,0,0,1,1.58.6,4.74,4.74,0,0,1,1.38,1.13.81.81,0,0,1,.25.57.75.75,0,0,1-.28.56.85.85,0,0,1-.51.17.61.61,0,0,1-.49-.22,4.32,4.32,0,0,0-1.57-1.14,5.11,5.11,0,0,0-2-.38,4.39,4.39,0,0,0-1.51.26,2.93,2.93,0,0,0-1.17.79,2,2,0,0,0-.47,1.38,1.9,1.9,0,0,0,.56,1.3,4,4,0,0,0,1.36.83,18.35,18.35,0,0,0,1.89.61,14.64,14.64,0,0,1,1.7.52,6.14,6.14,0,0,1,1.44.76,3.54,3.54,0,0,1,1,1.15,3.61,3.61,0,0,1,.38,1.74,3.37,3.37,0,0,1-.68,2.1A4.39,4.39,0,0,1,148,28.06a6.61,6.61,0,0,1-2.52.47,7.61,7.61,0,0,1-2.89-.58A6.29,6.29,0,0,1,140.14,26Z"/><path class="cls-5" d="M163.27,27.42A.82.82,0,0,1,163,28a.82.82,0,0,1-1.18,0,.81.81,0,0,1-.23-.58V8.62a.85.85,0,0,1,.83-.83.82.82,0,0,1,.82.83Z"/><path class="cls-5" d="M180.48,21.17a7.78,7.78,0,0,1-.92,3.78,7,7,0,0,1-2.51,2.62,7.06,7.06,0,0,1-7.11,0A6.9,6.9,0,0,1,167.42,25a7.67,7.67,0,0,1-.92-3.78,7.56,7.56,0,0,1,.92-3.78,7.07,7.07,0,0,1,2.52-2.63,7,7,0,0,1,7.11,0,7.13,7.13,0,0,1,2.51,2.63A7.67,7.67,0,0,1,180.48,21.17Zm-1.66,0a6.38,6.38,0,0,0-.69-3,5.4,5.4,0,0,0-1.89-2.07,5,5,0,0,0-2.75-.76,5,5,0,0,0-2.72.76,5.45,5.45,0,0,0-1.91,2.07,6.27,6.27,0,0,0-.71,3,6.17,6.17,0,0,0,.71,3,5.49,5.49,0,0,0,1.91,2.06,5,5,0,0,0,2.72.76,5.09,5.09,0,0,0,2.75-.76,5.44,5.44,0,0,0,1.89-2.06A6.28,6.28,0,0,0,178.82,21.17Z"/><path class="cls-5" d="M182.57,26a1.07,1.07,0,0,1-.21-.65.62.62,0,0,1,.35-.51.69.69,0,0,1,.51-.17.89.89,0,0,1,.54.28,5.89,5.89,0,0,0,1.81,1.56,5.06,5.06,0,0,0,2.53.6,4.49,4.49,0,0,0,1.53-.27,2.94,2.94,0,0,0,1.26-.8,2.14,2.14,0,0,0,0-2.75,3.42,3.42,0,0,0-1.28-.83,13.75,13.75,0,0,0-1.68-.52c-.62-.17-1.23-.36-1.82-.57a6.36,6.36,0,0,1-1.56-.8,3.83,3.83,0,0,1-1.09-1.18,3.17,3.17,0,0,1-.42-1.68,3.38,3.38,0,0,1,.64-2,4.22,4.22,0,0,1,1.72-1.38,6,6,0,0,1,2.48-.5,6.79,6.79,0,0,1,1.49.18,6.1,6.1,0,0,1,1.58.6,4.74,4.74,0,0,1,1.38,1.13.81.81,0,0,1,.25.57.71.71,0,0,1-.28.56.85.85,0,0,1-.51.17.59.59,0,0,1-.48-.22,4.44,4.44,0,0,0-1.58-1.14,5.11,5.11,0,0,0-2-.38,4.39,4.39,0,0,0-1.51.26,2.93,2.93,0,0,0-1.17.79,2,2,0,0,0-.47,1.38,1.9,1.9,0,0,0,.56,1.3,4.08,4.08,0,0,0,1.36.83,18.35,18.35,0,0,0,1.89.61,14.64,14.64,0,0,1,1.7.52,6.14,6.14,0,0,1,1.44.76,3.54,3.54,0,0,1,1,1.15,3.61,3.61,0,0,1,.38,1.74,3.37,3.37,0,0,1-.68,2.1,4.39,4.39,0,0,1-1.81,1.36,6.61,6.61,0,0,1-2.52.47,7.56,7.56,0,0,1-2.88-.58A6.25,6.25,0,0,1,182.57,26Z"/><path class="cls-5" d="M212.07,9.29a12.78,12.78,0,0,1,3.46.41,5.65,5.65,0,0,1,2.3,1.17,2.35,2.35,0,0,1,.81,1.79,2.3,2.3,0,0,1-.41,1.3,1.39,1.39,0,0,1-1.22.61,2.42,2.42,0,0,1-.92-.15,2.64,2.64,0,0,1-.65-.4,3.47,3.47,0,0,0-.66-.46,3.59,3.59,0,0,0-1.06-.33,7.15,7.15,0,0,0-1.06-.12,5.61,5.61,0,0,0-3,.77,5.13,5.13,0,0,0-1.9,2.07,6.57,6.57,0,0,0-.66,3,6.37,6.37,0,0,0,.68,3A5.29,5.29,0,0,0,209.65,24a5,5,0,0,0,2.77.77,10.59,10.59,0,0,0,1.49-.1,3.72,3.72,0,0,0,1.05-.32,6.3,6.3,0,0,0,.87-.59,2.1,2.1,0,0,1,2.54.26,2.11,2.11,0,0,1,.48,1.41,2,2,0,0,1-1,1.58,7.71,7.71,0,0,1-2.56,1.15,12.94,12.94,0,0,1-3.43.44,8.79,8.79,0,0,1-4.76-1.27A8.45,8.45,0,0,1,204,23.86a10.79,10.79,0,0,1-1.09-4.9,10.46,10.46,0,0,1,1.16-5,8.65,8.65,0,0,1,3.24-3.41A9.11,9.11,0,0,1,212.07,9.29Z"/><path class="cls-5" d="M222.94,7.37A2.83,2.83,0,0,1,221.27,7a1.66,1.66,0,0,1-.48-1.36V5a1.54,1.54,0,0,1,.54-1.37A2.92,2.92,0,0,1,223,3.23a2.86,2.86,0,0,1,1.7.38A1.63,1.63,0,0,1,225.17,5v.66A1.59,1.59,0,0,1,224.65,7,3.11,3.11,0,0,1,222.94,7.37Zm2.13,18.76a2.11,2.11,0,0,1-.59,1.51,2.15,2.15,0,0,1-3,0,2.11,2.11,0,0,1-.59-1.51V11.76a2.11,2.11,0,0,1,.59-1.52,2.15,2.15,0,0,1,3,0,2.11,2.11,0,0,1,.59,1.52Z"/><path class="cls-5" d="M236.9,9.29a12.73,12.73,0,0,1,3.46.41,5.58,5.58,0,0,1,2.3,1.17,2.32,2.32,0,0,1,.82,1.79,2.24,2.24,0,0,1-.42,1.3,1.37,1.37,0,0,1-1.22.61,2.42,2.42,0,0,1-.92-.15,2.57,2.57,0,0,1-.64-.4,4.26,4.26,0,0,0-.66-.46,3.78,3.78,0,0,0-1.07-.33,7,7,0,0,0-1.06-.12,5.63,5.63,0,0,0-3,.77A5.1,5.1,0,0,0,232.59,16a6.57,6.57,0,0,0-.66,3,6.37,6.37,0,0,0,.67,3A5.37,5.37,0,0,0,234.48,24a5.06,5.06,0,0,0,2.77.77,10.63,10.63,0,0,0,1.5-.1,3.75,3.75,0,0,0,1-.32,6.3,6.3,0,0,0,.87-.59,1.77,1.77,0,0,1,1.15-.31,1.74,1.74,0,0,1,1.39.57,2.12,2.12,0,0,1,.49,1.41,2,2,0,0,1-1,1.58,7.74,7.74,0,0,1-2.55,1.15,12.94,12.94,0,0,1-3.43.44A8.85,8.85,0,0,1,232,27.33a8.43,8.43,0,0,1-3.11-3.47,10.8,10.8,0,0,1-1.1-4.9,10.46,10.46,0,0,1,1.17-5,8.56,8.56,0,0,1,3.23-3.41A9.14,9.14,0,0,1,236.9,9.29Z"/><path class="cls-5" d="M250.41,26.13a2.08,2.08,0,0,1-.61,1.51,2.05,2.05,0,0,1-1.52.61,2,2,0,0,1-1.46-.61,2.11,2.11,0,0,1-.59-1.51V4.62a2.08,2.08,0,0,1,2.12-2.12,1.92,1.92,0,0,1,1.48.61,2.12,2.12,0,0,1,.58,1.51Z"/><path class="cls-5" d="M272.6,19a9.77,9.77,0,0,1-1.27,5,9.09,9.09,0,0,1-3.41,3.39,10,10,0,0,1-9.57,0A9.17,9.17,0,0,1,254.94,24a9.87,9.87,0,0,1-1.27-5,9.87,9.87,0,0,1,1.27-5,9.29,9.29,0,0,1,3.41-3.41,9.92,9.92,0,0,1,9.57,0,9.22,9.22,0,0,1,3.41,3.41A9.77,9.77,0,0,1,272.6,19Zm-4.17,0a6.29,6.29,0,0,0-.72-3.08,5.29,5.29,0,0,0-1.91-2,5.21,5.21,0,0,0-5.32,0,5.39,5.39,0,0,0-1.92,2,6.4,6.4,0,0,0-.71,3.08,6.29,6.29,0,0,0,.71,3,5.39,5.39,0,0,0,1.92,2,5.21,5.21,0,0,0,5.32,0,5.29,5.29,0,0,0,1.91-2A6.18,6.18,0,0,0,268.43,19Z"/><path class="cls-5" d="M274.27,25.36a1.9,1.9,0,0,1-.32-1.25,1.7,1.7,0,0,1,.91-1.32,1.85,1.85,0,0,1,1.18-.3,2,2,0,0,1,1.22.64,8,8,0,0,0,2.12,1.57,6.21,6.21,0,0,0,2.79.56,11.08,11.08,0,0,0,1.14-.16,2.19,2.19,0,0,0,1.1-.56,1.74,1.74,0,0,0,.47-1.34,1.5,1.5,0,0,0-.52-1.21,4.3,4.3,0,0,0-1.38-.77c-.57-.21-1.2-.41-1.89-.59s-1.46-.44-2.21-.7a8.61,8.61,0,0,1-2.07-1,4.58,4.58,0,0,1-1.53-1.62,4.9,4.9,0,0,1-.6-2.54,4.56,4.56,0,0,1,1-2.95A6.29,6.29,0,0,1,278.18,10a8.21,8.21,0,0,1,3.25-.66,10.21,10.21,0,0,1,2.27.26,8.91,8.91,0,0,1,2.26.83,5.65,5.65,0,0,1,1.81,1.51,2.58,2.58,0,0,1,.45,1.26,1.48,1.48,0,0,1-.66,1.32,1.66,1.66,0,0,1-1.22.36,1.86,1.86,0,0,1-1.15-.46,4.07,4.07,0,0,0-1.58-1.22,5.46,5.46,0,0,0-2.28-.45,5.8,5.8,0,0,0-1.13.12,2.16,2.16,0,0,0-1.06.52,1.62,1.62,0,0,0-.45,1.27,1.62,1.62,0,0,0,.52,1.27,3.83,3.83,0,0,0,1.41.76c.59.2,1.22.39,1.89.58s1.41.41,2.13.66a8.21,8.21,0,0,1,2,1,4.84,4.84,0,0,1,1.46,1.62,5.11,5.11,0,0,1,.56,2.52,4.58,4.58,0,0,1-1.05,3A6.57,6.57,0,0,1,285,28a8.32,8.32,0,0,1-3.2.65,12.26,12.26,0,0,1-4.1-.72A7,7,0,0,1,274.27,25.36Z"/><path class="cls-5" d="M316.93,2.5a2,2,0,0,1,1.49.59A2.06,2.06,0,0,1,319,4.62V26.13a2.07,2.07,0,0,1-.59,1.51,2.14,2.14,0,0,1-3,0,2.11,2.11,0,0,1-.59-1.51V24.42l.76.31a2,2,0,0,1-.48,1.1,6.79,6.79,0,0,1-1.33,1.27,7.93,7.93,0,0,1-2,1.06,6.79,6.79,0,0,1-2.45.44A7.86,7.86,0,0,1,305,27.36,8.63,8.63,0,0,1,302,24a10.58,10.58,0,0,1-1.13-5,10.69,10.69,0,0,1,1.13-5,8.69,8.69,0,0,1,3-3.41,7.7,7.7,0,0,1,4.25-1.23,8.1,8.1,0,0,1,4.92,1.6,6.81,6.81,0,0,1,1.43,1.4,2.3,2.3,0,0,1,.5,1.21l-1.25.45V4.62a2.09,2.09,0,0,1,.59-1.51A2,2,0,0,1,316.93,2.5Zm-7,22.27a4.74,4.74,0,0,0,2.68-.77,5.2,5.2,0,0,0,1.79-2.08,6.66,6.66,0,0,0,.64-3,6.7,6.7,0,0,0-.64-3,5.16,5.16,0,0,0-1.79-2.09,4.74,4.74,0,0,0-2.68-.77,4.68,4.68,0,0,0-2.65.77A5.16,5.16,0,0,0,305.46,16a6.7,6.7,0,0,0-.64,3,6.66,6.66,0,0,0,.64,3A5.2,5.2,0,0,0,307.25,24,4.68,4.68,0,0,0,309.9,24.77Z"/><path class="cls-5" d="M331.72,28.6a10.15,10.15,0,0,1-5.13-1.24A8.5,8.5,0,0,1,323.25,24a9.75,9.75,0,0,1-1.17-4.8,10.6,10.6,0,0,1,1.27-5.34,9,9,0,0,1,3.33-3.39A8.52,8.52,0,0,1,331,9.29a7.83,7.83,0,0,1,3.35.73,8.92,8.92,0,0,1,2.8,2A9.52,9.52,0,0,1,339.12,15a9,9,0,0,1,.71,3.55,1.77,1.77,0,0,1-.66,1.35,2.21,2.21,0,0,1-1.46.52h-13.3l-1-3.47h12.77l-.76.69v-.94a3.23,3.23,0,0,0-.72-1.81,4.77,4.77,0,0,0-1.6-1.27,4.61,4.61,0,0,0-2-.47,6.76,6.76,0,0,0-1.95.28,3.75,3.75,0,0,0-1.57.94,4.46,4.46,0,0,0-1,1.78,8.61,8.61,0,0,0-.39,2.81,6.11,6.11,0,0,0,.79,3.19,5.25,5.25,0,0,0,2,2,5.36,5.36,0,0,0,2.62.68,8.09,8.09,0,0,0,2.06-.21,4.81,4.81,0,0,0,1.23-.5c.31-.2.6-.37.85-.51a2.64,2.64,0,0,1,1.19-.31,1.69,1.69,0,0,1,1.27.52,1.72,1.72,0,0,1,.5,1.22,2.16,2.16,0,0,1-1,1.7A8.1,8.1,0,0,1,335.1,28,10,10,0,0,1,331.72,28.6Z"/><path class="cls-5" d="M353.89,9.63a2.32,2.32,0,0,1,1.21.33,2,2,0,0,1,.84,1l5.11,11.69-.76.35,5.22-12a1.81,1.81,0,0,1,1.84-1.32,1.91,1.91,0,0,1,1.41.54,1.81,1.81,0,0,1,.54,1.34,1.72,1.72,0,0,1-.09.52,4,4,0,0,1-.19.52l-6.5,14.34a2,2,0,0,1-1.78,1.32,1.91,1.91,0,0,1-1.27-.24,2.24,2.24,0,0,1-.92-1.08l-6.47-14.34c-.05-.12-.1-.27-.16-.45a2.19,2.19,0,0,1-.09-.66,1.86,1.86,0,0,1,.56-1.24A2,2,0,0,1,353.89,9.63Z"/><path class="cls-5" d="M373.71,7.37A2.79,2.79,0,0,1,372,7a1.63,1.63,0,0,1-.49-1.36V5a1.54,1.54,0,0,1,.54-1.37,4,4,0,0,1,3.36,0A1.66,1.66,0,0,1,375.94,5v.66A1.62,1.62,0,0,1,375.42,7,3.11,3.11,0,0,1,373.71,7.37Zm2.12,18.76a2.07,2.07,0,0,1-.59,1.51,2.14,2.14,0,0,1-3,0,2.07,2.07,0,0,1-.59-1.51V11.76a2.07,2.07,0,0,1,.59-1.52,2.14,2.14,0,0,1,3,0,2.07,2.07,0,0,1,.59,1.52Z"/><path class="cls-5" d="M394.71,2.5a2,2,0,0,1,1.49.59,2.06,2.06,0,0,1,.59,1.53V26.13a2.07,2.07,0,0,1-.59,1.51,2.14,2.14,0,0,1-3,0,2.07,2.07,0,0,1-.59-1.51V24.42l.76.31a2,2,0,0,1-.48,1.1,6.79,6.79,0,0,1-1.33,1.27,7.93,7.93,0,0,1-2,1.06,6.79,6.79,0,0,1-2.45.44,7.86,7.86,0,0,1-4.35-1.24A8.63,8.63,0,0,1,379.73,24a10.58,10.58,0,0,1-1.13-5,10.69,10.69,0,0,1,1.13-5,8.69,8.69,0,0,1,3-3.41A7.7,7.7,0,0,1,387,9.29a8.1,8.1,0,0,1,4.92,1.6,6.81,6.81,0,0,1,1.43,1.4,2.3,2.3,0,0,1,.5,1.21l-1.25.45V4.62a2,2,0,0,1,.59-1.51A2,2,0,0,1,394.71,2.5Zm-7,22.27a4.74,4.74,0,0,0,2.68-.77,5.2,5.2,0,0,0,1.79-2.08,6.66,6.66,0,0,0,.64-3,6.7,6.7,0,0,0-.64-3,5.16,5.16,0,0,0-1.79-2.09,4.74,4.74,0,0,0-2.68-.77,4.68,4.68,0,0,0-2.65.77A5.16,5.16,0,0,0,383.24,16a6.7,6.7,0,0,0-.64,3,6.66,6.66,0,0,0,.64,3A5.2,5.2,0,0,0,385,24,4.68,4.68,0,0,0,387.68,24.77Z"/><path class="cls-5" d="M416,9.29a2,2,0,0,1,1.5.59,2.07,2.07,0,0,1,.59,1.53V26.13a2.11,2.11,0,0,1-.59,1.51,2,2,0,0,1-1.5.61,2,2,0,0,1-1.49-.61,2.07,2.07,0,0,1-.59-1.51V24.42l.76.31a1.92,1.92,0,0,1-.49,1.1,6.45,6.45,0,0,1-1.32,1.27,8.11,8.11,0,0,1-2,1.06,6.84,6.84,0,0,1-2.46.44,7.91,7.91,0,0,1-4.35-1.24A8.7,8.7,0,0,1,401,24a10.7,10.7,0,0,1-1.13-5,10.81,10.81,0,0,1,1.13-5A8.79,8.79,0,0,1,404,10.52a7.67,7.67,0,0,1,4.24-1.23,8.16,8.16,0,0,1,4.93,1.6,6.51,6.51,0,0,1,1.42,1.4,2.25,2.25,0,0,1,.51,1.21l-1.25.45V11.41a2.07,2.07,0,0,1,.59-1.52A2,2,0,0,1,416,9.29Zm-7,15.48a4.71,4.71,0,0,0,2.68-.77,5.14,5.14,0,0,0,1.8-2.08,7.23,7.23,0,0,0,0-6,5.11,5.11,0,0,0-1.8-2.09,5,5,0,0,0-5.32,0A5.09,5.09,0,0,0,404.51,16a6.7,6.7,0,0,0-.65,3,6.67,6.67,0,0,0,.65,3A5.12,5.12,0,0,0,406.3,24,4.68,4.68,0,0,0,408.94,24.77Z"/></g></g></g></svg>