<svg xmlns="http://www.w3.org/2000/svg" viewBox="0 0 139.43 132.49"><defs><style>.cls-1{isolation:isolate;}.cls-2{fill:#002451;opacity:0.27;}.cls-3{fill:#fff2cc;}.cls-4{fill:#29abe2;}.cls-5{opacity:0.2;mix-blend-mode:multiply;}.cls-6{fill:#fff;}.cls-7{fill:#000f56;}.cls-8{fill:#972a33;}.cls-9{fill:#ac5952;}.cls-10{fill:#fde3dc;}.cls-11{fill:#514747;}.cls-12{fill:#a54745;}.cls-13{fill:none;stroke:#1e134d;stroke-linecap:round;stroke-linejoin:round;stroke-width:1.4px;}.cls-14{fill:#d9c6a1;}.cls-15{fill:#dcaf82;}</style></defs><title>34</title><g class="cls-1"><g id="Capa_2" data-name="Capa 2"><g id="Layer_1" data-name="Layer 1"><rect class="cls-2" x="19.34" y="12.41" width="120.09" height="120.09" rx="36.12"/><rect class="cls-3" x="16.24" y="9.3" width="120.09" height="120.09" rx="36.12"/><path class="cls-4" d="M135.85,99.1H122.92a17.13,17.13,0,0,0-17.13,17.12V129A36.14,36.14,0,0,0,135.85,99.1Z"/><g class="cls-5"><rect x="118.21" y="107.6" width="1.38" height="10.82"/><polygon points="118.86 103.5 116.08 108.32 121.65 108.32 118.86 103.5"/><polygon points="118.89 122.44 121.68 117.62 116.11 117.62 118.89 122.44"/><rect x="113.48" y="112.32" width="10.82" height="1.38"/><polygon points="109.4 112.99 114.23 115.77 114.23 110.2 109.4 112.99"/><polygon points="128.35 112.95 123.53 110.17 123.53 115.74 128.35 112.95"/></g><rect class="cls-6" x="117.21" y="106.6" width="1.38" height="10.82"/><polygon class="cls-6" points="117.86 102.5 115.08 107.32 120.65 107.32 117.86 102.5"/><polygon class="cls-6" points="117.89 121.44 120.68 116.62 115.11 116.62 117.89 121.44"/><rect class="cls-6" x="112.48" y="111.32" width="10.82" height="1.38"/><polygon class="cls-6" points="108.4 111.99 113.23 114.77 113.23 109.2 108.4 111.99"/><polygon class="cls-6" points="127.35 111.95 122.53 109.17 122.53 114.74 127.35 111.95"/><g class="cls-5"><path class="cls-7" d="M26,7.58c.53,0,1,0,1.55,0l.62,0c.55,0,1.1.1,1.64.18s.87.13,1.29.22l.9.2.64.16.53.16c.36.11.71.22,1,.35s.69.26,1,.4a19.63,19.63,0,0,1,5.15,3.19l.43.37a22.66,22.66,0,0,1,2.41,2.56c.38.47.75,1,1.11,1.48A30.93,30.93,0,0,1,47,21.54c.4.86.77,1.75,1.12,2.68.27.71.52,1.43.76,2.18.16.5.31,1,.46,1.54.09.33.19.65.29,1A23.92,23.92,0,0,0,51,32.29c.25.5.51,1,.79,1.42a15.09,15.09,0,0,0,1.76,2.36c.15.17.31.33.47.49.33.32.66.62,1,.9s.44.34.67.5.47.33.71.48l.43.26c.19.11.39.22.6.32s.38.19.57.28l.43.19a25.36,25.36,0,0,0,7.1,1.66c2.49.29,4.72.45,6.73.49h1.1c6.55,0,10.55-1.35,13-3.84h0l1.23-1.2.43-.4.87-.81.5-.45c.38-.35.77-.69,1.17-1l.73-.62.61-.51.84-.67.47-.37c.68-.54,1.38-1.07,2.09-1.59h0q1.86-1.36,3.88-2.66a20.7,20.7,0,0,1,11.15-2.89c5.28,0,10,1.47,11.74,2.65,4.33,3,3.59,7.18,0,7.18a6.76,6.76,0,0,1-2.7-.64,6.68,6.68,0,0,0-2.54-.63c-1.58,0-1.74,1.17,2,3.14,5.26,2.79,4.26,6.48,3.49,7.54a5,5,0,0,1-4.2,1.9,6.79,6.79,0,0,1-1.1-.08c4.27,2.74,5.58,5.3,4,7.67a6.09,6.09,0,0,1-5.21,3,4,4,0,0,1-.91-.09c2.89,3,.17,6.69-2,7.38a4.75,4.75,0,0,1-1.51.26c-2.33,0-3.93-1.87-6.63-2.25l-.31,0c-2.79,0-3.66,5.57-5.74,11.36a8.68,8.68,0,0,1,6.2-2.28,14.91,14.91,0,0,1,8,2.48c5.68,3.76-.67,10.45-.67,10.45,3.41,5.9,1.34,10-4.23,13.34a7.18,7.18,0,0,1-3.79,1.14c-3.16,0-5.59-2.29-8.25-2.29a4.74,4.74,0,0,0-.75.06c-4,.69-3.56,5.28-3.56,5.28a5.47,5.47,0,0,0-5.43-3.9A5.19,5.19,0,0,0,82,99.41c-1.54,2.24-5.5,3.35-9.33,3.35a16.2,16.2,0,0,1-5.33-.83,7.79,7.79,0,0,0-2.61-.54c-2.23,0-2.56,1.61-2.56,1.61s-.79-3.8-3.51-3.8a3.47,3.47,0,0,0-1,.16c-3,.9-3.28,4.64-10.47,4.64a29.3,29.3,0,0,1-4.55-.4c-11.73-1.81-9.5-11.17-9.5-11.17A17.85,17.85,0,0,1,26,93.86a16.43,16.43,0,0,1-6.77-1.43c-7.16-3.21-5.18-12.27-5.18-12.27-7.78-8.63-1.63-12.87,3.83-12.87a11.94,11.94,0,0,1,1.35.08,9.93,9.93,0,0,1,5.88,2.9,29.32,29.32,0,0,1-3.89-9.39c-3-13.26,2.92-16.09,3.36-24.57a5.64,5.64,0,0,0-.21-1.93c-.28,1.23-2,1.9-2.83,1.93h-.09c-1.75,0-3-1.64-4.28-3.07-1,1.55-5.13,7.22-5.63,7.22h0c-.44-.13-.85-8.92-.64-9.49a1.83,1.83,0,0,0,.39.36,5.77,5.77,0,0,1-.44-.42,3,3,0,0,1-.64-.11c-1.58-.47-4.3-1.28-4.44-3.58s-.49-3.53.82-4,1.2-1.26-.08-2-1.15-2.95-.21-4.12,1.28-1.47,2.09-1.75.68-.92.49-1.82a2.33,2.33,0,0,1,2.44-2.45h.27a4.06,4.06,0,0,1,1.66.28,12.8,12.8,0,0,1,6.88-3.26A34.6,34.6,0,0,1,26,7.58M26,2a40.76,40.76,0,0,0-6.81.6,19.31,19.31,0,0,0-7.53,2.91h-.44A8.1,8.1,0,0,0,5,8.55,7.7,7.7,0,0,0,3.41,12,16,16,0,0,0,2,13.62,9.23,9.23,0,0,0,.16,21,8,8,0,0,0,.5,22.2a11.43,11.43,0,0,0-.36,4.46c0,.27,0,.57.07.89.19,3.17,1.92,5.62,5.13,7.29,0,.32,0,.66,0,1,.27,5,.62,6,1.09,7a5.63,5.63,0,0,0,3.44,2.94,5.41,5.41,0,0,0,1.65.25c2.44,0,4-1.36,5.66-3.41-1.67,4.3-3.59,9.68-1.49,19.21-4.59.62-8.41,3.16-10,6.82-1.29,2.89-1.76,7.42,2.56,13.2C8,86.94,9.61,94.23,17,97.53A22,22,0,0,0,26,99.44c.77,0,1.51,0,2.22-.1a13.19,13.19,0,0,0,1.5,2.94c1.7,2.54,5.16,5.78,12,6.84a35.25,35.25,0,0,0,5.41.46c5.22,0,8.19-1.54,10.38-3.28a5.57,5.57,0,0,0,4.53,2.4h.1a5.47,5.47,0,0,0,3.61-1.39,21.91,21.91,0,0,0,6.87,1c6.06,0,11.15-2,13.71-5.47h.06A5.8,5.8,0,0,0,91.83,107a5.15,5.15,0,0,0,1.1-.12A5.47,5.47,0,0,0,97.36,102l.26.11a16.35,16.35,0,0,0,6.69,1.67,12.85,12.85,0,0,0,6.66-1.92c7.4-4.42,10.12-10.65,7.79-17.46a13.31,13.31,0,0,0,2.12-8.27,10.22,10.22,0,0,0-4.81-7.52l-.12-.08a10.94,10.94,0,0,0,5.55-6.94,10.1,10.1,0,0,0,.22-1.2,12.57,12.57,0,0,0,4-4,9,9,0,0,0,1.32-6.86,9.86,9.86,0,0,0-.62-1.88c.14-.17.27-.34.4-.52a9.59,9.59,0,0,0,1.42-7.7,10.92,10.92,0,0,0-.45-1.42,7.88,7.88,0,0,0,2.44-3.71c1.28-4.08-.69-8.64-5-11.62C122.15,20.52,116,19,110.34,19a26.29,26.29,0,0,0-14.15,3.77c-1.38.88-2.78,1.84-4.18,2.86l0,0c-.72.53-1.44,1.08-2.22,1.68l-.07.06-.44.34-.89.73-.64.52-.17.15-.63.54c-.43.36-.85.73-1.26,1.1l-.41.38-.12.1-.94.87-.07.07-.39.36-1.3,1.27,0,0c-1.46,1.46-4.52,2.2-9.09,2.2h-.95c-1.87,0-4-.19-6.24-.46a20.64,20.64,0,0,1-5.56-1.25l-.27-.12-.36-.18c-.13-.06-.25-.13-.37-.2l-.26-.15-.42-.28-.39-.3a7,7,0,0,1-.58-.52l-.29-.3a9.86,9.86,0,0,1-1.12-1.51c-.19-.31-.38-.65-.55-1a17.25,17.25,0,0,1-1-2.59l-.24-.79c-.16-.58-.34-1.15-.51-1.71-.27-.83-.55-1.65-.85-2.44-.4-1.06-.83-2.09-1.29-3.07a35.19,35.19,0,0,0-3.1-5.44c-.43-.62-.88-1.23-1.35-1.81a28.44,28.44,0,0,0-3-3.18L44,8.28A25.71,25.71,0,0,0,37.44,4.2c-.43-.18-.87-.35-1.31-.51s-.88-.31-1.32-.45l-.67-.19-.81-.21-1.12-.25c-.52-.1-1.06-.19-1.59-.27s-1.34-.17-2-.22l-.74-.05C27.26,2,26.64,2,26,2Z"/></g><path class="cls-6" d="M26,5.58c.53,0,1,0,1.55,0l.62,0c.55,0,1.1.1,1.64.18s.87.13,1.29.22l.9.2.64.16.53.16c.36.11.71.22,1,.35s.69.26,1,.4a19.63,19.63,0,0,1,5.15,3.19l.43.37a22.66,22.66,0,0,1,2.41,2.56c.38.47.75,1,1.11,1.48A30.93,30.93,0,0,1,47,19.54c.4.86.77,1.75,1.12,2.68.27.71.52,1.43.76,2.18.16.5.31,1,.46,1.54.09.33.19.65.29,1A23.92,23.92,0,0,0,51,30.29c.25.5.51,1,.79,1.42a15.09,15.09,0,0,0,1.76,2.36c.15.17.31.33.47.49.33.32.66.62,1,.9s.44.34.67.5.47.33.71.48l.43.26c.19.11.39.22.6.32s.38.19.57.28l.43.19a25.36,25.36,0,0,0,7.1,1.66c2.49.29,4.72.45,6.73.49h1.1c6.55,0,10.55-1.35,13-3.84h0l1.23-1.2.43-.4.87-.81.5-.45c.38-.35.77-.69,1.17-1l.73-.62.61-.51.84-.67.47-.37c.68-.54,1.38-1.07,2.09-1.59h0q1.86-1.36,3.88-2.66a20.7,20.7,0,0,1,11.15-2.89c5.28,0,10,1.47,11.74,2.65,4.33,3,3.59,7.18,0,7.18a6.76,6.76,0,0,1-2.7-.64,6.68,6.68,0,0,0-2.54-.63c-1.58,0-1.74,1.17,2,3.14,5.26,2.79,4.26,6.48,3.49,7.54a5,5,0,0,1-4.2,1.9,6.79,6.79,0,0,1-1.1-.08c4.27,2.74,5.58,5.3,4,7.67a6.09,6.09,0,0,1-5.21,3,4,4,0,0,1-.91-.09c2.89,3,.17,6.69-2,7.38a4.75,4.75,0,0,1-1.51.26c-2.33,0-3.93-1.87-6.63-2.25l-.31,0c-2.79,0-3.66,5.57-5.74,11.36a8.68,8.68,0,0,1,6.2-2.28,14.91,14.91,0,0,1,8,2.48c5.68,3.76-.67,10.45-.67,10.45,3.41,5.9,1.34,10-4.23,13.34a7.18,7.18,0,0,1-3.79,1.14c-3.16,0-5.59-2.29-8.25-2.29a4.74,4.74,0,0,0-.75.06c-4,.69-3.56,5.28-3.56,5.28a5.47,5.47,0,0,0-5.43-3.9A5.19,5.19,0,0,0,82,97.41c-1.54,2.24-5.5,3.35-9.33,3.35a16.2,16.2,0,0,1-5.33-.83,7.79,7.79,0,0,0-2.61-.54c-2.23,0-2.56,1.61-2.56,1.61s-.79-3.8-3.51-3.8a3.47,3.47,0,0,0-1,.16c-3,.9-3.28,4.64-10.47,4.64a29.3,29.3,0,0,1-4.55-.4c-11.73-1.81-9.5-11.17-9.5-11.17A17.85,17.85,0,0,1,26,91.86a16.43,16.43,0,0,1-6.77-1.43c-7.16-3.21-5.18-12.27-5.18-12.27-7.78-8.63-1.63-12.87,3.83-12.87a11.94,11.94,0,0,1,1.35.08,9.93,9.93,0,0,1,5.88,2.9,29.32,29.32,0,0,1-3.89-9.39c-3-13.26,2.92-16.09,3.36-24.57a5.64,5.64,0,0,0-.21-1.93c-.28,1.23-2,1.9-2.83,1.93h-.09c-1.75,0-3-1.64-4.28-3.07-1,1.55-5.13,7.22-5.63,7.22h0c-.44-.13-.85-8.92-.64-9.49a1.83,1.83,0,0,0,.39.36,5.77,5.77,0,0,1-.44-.42,3,3,0,0,1-.64-.11c-1.58-.47-4.3-1.28-4.44-3.58s-.49-3.53.82-4,1.2-1.26-.08-2-1.15-2.95-.21-4.12,1.28-1.47,2.09-1.75.68-.92.49-1.82A2.33,2.33,0,0,1,11.33,9.1h.27a4.06,4.06,0,0,1,1.66.28,12.8,12.8,0,0,1,6.88-3.26A34.6,34.6,0,0,1,26,5.58M26,0A40.76,40.76,0,0,0,19.2.6a19.31,19.31,0,0,0-7.53,2.91h-.44A8.1,8.1,0,0,0,5,6.55,7.7,7.7,0,0,0,3.41,10,16,16,0,0,0,2,11.62,9.23,9.23,0,0,0,.16,19,8,8,0,0,0,.5,20.2a11.43,11.43,0,0,0-.36,4.46c0,.27,0,.57.07.89.19,3.17,1.92,5.62,5.13,7.29,0,.32,0,.66,0,1,.27,5,.62,6,1.09,7a5.63,5.63,0,0,0,3.44,2.94,5.41,5.41,0,0,0,1.65.25c2.44,0,4-1.36,5.66-3.41-1.67,4.3-3.59,9.68-1.49,19.21-4.59.62-8.41,3.16-10,6.82-1.29,2.89-1.76,7.42,2.56,13.2C8,84.94,9.61,92.23,17,95.53A22,22,0,0,0,26,97.44c.77,0,1.51,0,2.22-.1a13.19,13.19,0,0,0,1.5,2.94c1.7,2.54,5.16,5.78,12,6.84a35.25,35.25,0,0,0,5.41.46c5.22,0,8.19-1.54,10.38-3.28a5.57,5.57,0,0,0,4.53,2.4h.1a5.47,5.47,0,0,0,3.61-1.39,21.91,21.91,0,0,0,6.87,1c6.06,0,11.15-2,13.71-5.47h.06A5.8,5.8,0,0,0,91.83,105a5.15,5.15,0,0,0,1.1-.12A5.47,5.47,0,0,0,97.36,100l.26.11a16.35,16.35,0,0,0,6.69,1.67A12.85,12.85,0,0,0,111,99.81c7.4-4.42,10.12-10.65,7.79-17.46a13.31,13.31,0,0,0,2.12-8.27,10.22,10.22,0,0,0-4.81-7.52l-.12-.08a10.94,10.94,0,0,0,5.55-6.94,10.1,10.1,0,0,0,.22-1.2,12.57,12.57,0,0,0,4-4,9,9,0,0,0,1.32-6.86,9.86,9.86,0,0,0-.62-1.88c.14-.17.27-.34.4-.52a9.59,9.59,0,0,0,1.42-7.7,10.92,10.92,0,0,0-.45-1.42,7.88,7.88,0,0,0,2.44-3.71c1.28-4.08-.69-8.64-5-11.62C122.15,18.52,116,17,110.34,17a26.29,26.29,0,0,0-14.15,3.77c-1.38.88-2.78,1.84-4.18,2.86l0,0c-.72.53-1.44,1.08-2.22,1.68l-.07.06-.44.34-.89.73-.64.52-.17.15-.63.54c-.43.36-.85.73-1.26,1.1l-.41.38-.12.1-.94.87-.07.07-.39.36-1.3,1.27,0,0c-1.46,1.46-4.52,2.2-9.09,2.2h-.95c-1.87,0-4-.19-6.24-.46a20.64,20.64,0,0,1-5.56-1.25l-.27-.12-.36-.18c-.13-.06-.25-.13-.37-.2l-.26-.15-.42-.28-.39-.3a7,7,0,0,1-.58-.52l-.29-.3a9.86,9.86,0,0,1-1.12-1.51c-.19-.31-.38-.65-.55-1a17.25,17.25,0,0,1-1-2.59l-.24-.79c-.16-.58-.34-1.15-.51-1.71-.27-.83-.55-1.65-.85-2.44-.4-1.06-.83-2.09-1.29-3.07a35.19,35.19,0,0,0-3.1-5.44c-.43-.62-.88-1.23-1.35-1.81a28.44,28.44,0,0,0-3-3.18L44,6.28A25.71,25.71,0,0,0,37.44,2.2c-.43-.18-.87-.35-1.31-.51s-.88-.31-1.32-.45l-.67-.19L33.33.84,32.21.59C31.69.49,31.15.4,30.62.32s-1.34-.17-2-.22l-.74,0C27.26,0,26.64,0,26,0Z"/><path class="cls-8" d="M13.1,28.13a3.29,3.29,0,0,1-2.88.66c-1.58-.47-4.3-1.28-4.44-3.58s-.49-3.53.82-4,1.2-1.26-.08-2-1.15-2.95-.21-4.12,1.28-1.47,2.09-1.75.68-.92.49-1.82A2.33,2.33,0,0,1,11.33,9.1c1.76,0,3.17.13,4.61,4.08s-2.81,12-2.81,12"/><path class="cls-8" d="M15.81,29.46c1.22-.54,2.31-1.05,3.41-1.52a7.54,7.54,0,0,1,5-.28,2.36,2.36,0,0,1,1.49,1.93c.22.87-1.59,1.07-1.34,1.93.51,1.78-1.78,2.76-2.8,2.79-2.12.07-3.55-2.28-5.06-3.83A7.63,7.63,0,0,1,15.81,29.46Z"/><path class="cls-9" d="M40.12,81.18c-5-2.73-15.81-8.77-18.87-22.3-3-13.26,2.92-16.09,3.36-24.57.22-4.23-3.6-6.34-7.67-2.94-1.25,1-9.11-1.82-8.5-9.41C9,14.89,11.3,7.61,20.14,6.11,34.05,3.74,44.56,9.23,49.31,25.94c3,10.58,9.48,12.44,16.18,13.21,11.41,1.31,17.51,0,20.87-3.34A75.65,75.65,0,0,1,99.19,25.5c8.09-5.16,20-2.25,22.89-.24,5.27,3.64,3,9.05-2.69,6.54-3.33-1.47-5.82-.28-.56,2.51s4.26,6.48,3.49,7.54c-1.81,2.51-5.3,1.82-5.3,1.82,4.27,2.74,5.58,5.3,4,7.67A6,6,0,0,1,115,54.29c2.89,3,.17,6.69-2,7.38-3.24,1.06-4.9-1.53-8.14-2C100,59,100.72,74.31,92.69,80.88c0,0-18.28,5.75-31.2,5S45.17,83.91,40.12,81.18Z"/><path class="cls-10" d="M17.66,18.26a2,2,0,0,1,1,2.72A2,2,0,0,1,16,22a2.15,2.15,0,0,1-1.06-2.73A2.1,2.1,0,0,1,17.66,18.26Z"/><path class="cls-11" d="M17.61,18.35a2.37,2.37,0,0,1,.62,2.44,2.34,2.34,0,0,1-2.2,1,2.3,2.3,0,0,1-.73-2.39A2.54,2.54,0,0,1,17.61,18.35Z"/><path class="cls-12" d="M40.35,55.35S46.53,69.93,56.64,72.3s12.21-3.81,12.21-3.81.41,1.18,5.27,1.7,8.8-2.76,7.49-5.65a6.46,6.46,0,0,0,5.52-2.1,4.23,4.23,0,0,0-1.84-7.09s3.94,4.73-.66,6A19.81,19.81,0,0,1,75,61.26s6.17,5.52,2.36,6.17-9-1.31-13-2.89c0,0,3.84,4.08-.63,5.52S46.53,68,40.35,55.35Z"/><path class="cls-13" d="M40.35,55.35S46.53,69.93,56.64,72.3s12.21-3.81,12.21-3.81.41,1.18,5.27,1.7,8.8-2.76,7.49-5.65a6.46,6.46,0,0,0,5.52-2.1,4.23,4.23,0,0,0-1.84-7.09"/><path class="cls-14" d="M10.91,29c1.71,2.13,3.57-2.46,4.2-2s1.76,3.87,2.19,4.13c-.82,1.3-5.31,7.51-5.75,7.37S10.7,29.53,10.91,29Z"/><path class="cls-12" d="M104.22,23c-3.3,2.42-15.2,10.15-17.86,12.81C83,39.17,76.9,40.46,65.49,39.15c-6.7-.77-13.17-2.63-16.18-13.21C44.56,9.23,34.05,3.74,20.14,6.11,11.3,7.61,9,14.89,8.44,22v.09c1.78-4,4.31-8,7.8-9.94s9-3.07,13.2-1.39,12.33,4.4,16,12.11,4.28,11.48,6.8,14.55c2.3,2.82,4.25,6.93,17.58,7.74,11.73.72,17.08-4.51,18.6-6.66,2.64-3.74,2.51-5,5.84-7.62C98.68,27.36,103.33,24.25,104.22,23Z"/><path class="cls-15" d="M26.8,70.62a9.58,9.58,0,0,0-7.54-5.25c-5.69-.76-13.61,3.44-5.18,12.79,0,0-2,9.06,5.18,12.27a17.74,17.74,0,0,0,13.85,0s-2.23,9.36,9.5,11.17,11.48-3.18,15-4.24S62.15,101,62.15,101s.56-2.75,5.17-1.07,12.35.83,14.66-2.52,8.51-2.7,9.77,1.79c0,0-.39-4.59,3.56-5.28s7.23,4.42,12.79,1.09,7.64-7.44,4.23-13.34c0,0,6.35-6.69.67-10.45S98.47,67.41,96.65,75c0,0-6.6-1.05-7.77,4.95,0,0-4.53-4.61-12.91-4s-8.55,5.08-11.6,4.67-4.23-4.41-4.23-4.41-.92,3.44-3.85,3.58-2.79-4.56-7.82-5.49-7.26,1.41-10.82.24S34.73,68,26.8,70.62Z"/><path class="cls-13" d="M119.39,31.8c5.72,2.51,8-2.9,2.69-6.54-2.91-2-14.8-4.92-22.89.24q-2,1.29-3.88,2.66h0c-.71.52-1.41,1.05-2.09,1.59l-.47.37-.84.67-.61.51-.73.62c-.4.34-.79.68-1.17,1l-.5.45-.87.81-.43.4-1.23,1.2h0c-2.62,2.62-6.92,4-14.11,3.83h0c-2,0-4.24-.2-6.73-.49a25.36,25.36,0,0,1-7.1-1.66L58,37.3c-.19-.09-.39-.18-.57-.28s-.41-.21-.6-.32l-.43-.26c-.24-.15-.48-.31-.71-.48s-.45-.32-.67-.5-.67-.58-1-.9c-.16-.16-.32-.32-.47-.49a15.09,15.09,0,0,1-1.76-2.36c-.28-.45-.54-.92-.79-1.42A23.92,23.92,0,0,1,49.6,26.9c-.1-.31-.2-.63-.29-1-.15-.53-.3-1-.46-1.54-.24-.75-.49-1.47-.76-2.18-.35-.93-.72-1.82-1.12-2.68a30.93,30.93,0,0,0-2.62-4.6c-.36-.52-.73-1-1.11-1.48a22.66,22.66,0,0,0-2.41-2.56l-.43-.37a19.63,19.63,0,0,0-5.15-3.19c-.33-.14-.67-.28-1-.4s-.69-.24-1-.35l-.53-.16L32,6.27l-.9-.2c-.42-.09-.85-.16-1.29-.22s-1.09-.14-1.64-.18l-.62,0a33.46,33.46,0,0,0-7.42.48,12.8,12.8,0,0,0-6.88,3.26,4.3,4.3,0,0,0-1.93-.27,2.33,2.33,0,0,0-2.44,2.45c.19.9.31,1.54-.49,1.82s-1.14.57-2.09,1.75-1.07,3.41.21,4.12,1.39,1.49.08,2-1,1.69-.82,4,2.86,3.11,4.44,3.58a3,3,0,0,0,.64.11,5.77,5.77,0,0,0,.44.42,1.83,1.83,0,0,1-.39-.36c-.21.57.2,9.36.64,9.49s4.62-5.64,5.65-7.21c1.27,1.45,2.57,3.13,4.37,3.07.85,0,2.55-.7,2.83-1.93a5.64,5.64,0,0,1,.21,1.93c-.44,8.48-6.36,11.31-3.36,24.57a29.32,29.32,0,0,0,3.89,9.39,9.93,9.93,0,0,0-5.88-2.9c-5.69-.76-13.61,3.44-5.18,12.79,0,0-2,9.06,5.18,12.27a17.74,17.74,0,0,0,13.85,0s-2.23,9.36,9.5,11.17,11.48-3.18,15-4.24S62.15,101,62.15,101s.56-2.75,5.17-1.07,12.35.83,14.66-2.52,8.51-2.7,9.77,1.79c0,0-.39-4.59,3.56-5.28s7.23,4.42,12.79,1.09,7.64-7.44,4.23-13.34c0,0,6.35-6.69.67-10.45-4.42-2.91-10.73-3.6-14.19-.2,2.15-6,3-11.77,6-11.34,3.24.46,4.9,3,8.14,2,2.12-.69,4.84-4.35,2-7.38a6,6,0,0,0,6.12-2.95c1.53-2.37.22-4.93-4-7.67,0,0,3.49.69,5.3-1.82.77-1.06,1.77-4.75-3.49-7.54S116.06,30.33,119.39,31.8Z"/></g></g></g></svg>