<?xml version="1.0" encoding="utf-8"?>
<!-- Generator: Adobe Illustrator 22.0.1, SVG Export Plug-In . SVG Version: 6.00 Build 0)  -->
<svg version="1.1" id="Layer_1" xmlns="http://www.w3.org/2000/svg" xmlns:xlink="http://www.w3.org/1999/xlink" x="0px" y="0px"
	 viewBox="0 0 204.6 71.4" style="enable-background:new 0 0 204.6 71.4;" xml:space="preserve">
<style type="text/css">
	.st0{opacity:0.3;}
	.st1{fill:#FFFFFF;}
	.st2{fill:#22B573;}
</style>
<g>
	<g>
		<g>
			<g class="st0">
				<path d="M191.9,70.7h-175c-6.6,0-12-5.4-12-12v-43c0-6.6,5.4-12,12-12h175c6.6,0,12,5.4,12,12v43
					C203.9,65.3,198.5,70.7,191.9,70.7z"/>
			</g>
			<g>
				<path class="st1" d="M187.9,66.7h-175c-6.6,0-12-5.4-12-12v-43c0-6.6,5.4-12,12-12h175c6.6,0,12,5.4,12,12v43
					C199.9,61.3,194.5,66.7,187.9,66.7z"/>
			</g>
		</g>
		<g>
			<path class="st2" d="M184.7,63.7H16.1c-6.2,0-11.2-5-11.2-11.2V14c0-6.2,5-11.2,11.2-11.2h168.6c6.2,0,11.2,5,11.2,11.2v38.5
				C195.9,58.6,190.8,63.7,184.7,63.7z"/>
		</g>
	</g>
	<path class="st1" d="M178.3,32l-13.7-10.7c-1.1-0.8-2.6-0.1-2.6,1.3v0c0,0.9-0.7,3.6-1.6,3.6h-5.1c-0.9,0-1.6,0.7-1.6,1.6v11
		c0,0.9,0.7,1.6,1.6,1.6h5.1c0.9,0,1.6,2.7,1.6,3.6v0c0,1.4,1.6,2.1,2.6,1.3l13.7-10.7C179.1,33.9,179.1,32.6,178.3,32z"/>
	<g>
		<path class="st1" d="M57.1,39.6c0,0.5-0.2,0.9-0.5,1.2c-0.3,0.3-0.7,0.5-1.2,0.5c-0.5,0-0.9-0.2-1.2-0.5c-0.3-0.3-0.5-0.7-0.5-1.2
			V23.8c0-0.5,0.2-0.9,0.5-1.2c0.3-0.3,0.7-0.5,1.3-0.5c0.4,0,0.8,0.2,1.2,0.5c0.3,0.3,0.5,0.7,0.5,1.2V39.6z"/>
		<path class="st1" d="M68.3,26.3c1.3,0,2.4,0.3,3.1,0.8s1.2,1.3,1.4,2.3c0.3,0.9,0.4,2,0.4,3.1v7c0,0.5-0.2,0.9-0.5,1.2
			c-0.3,0.3-0.7,0.5-1.2,0.5s-0.9-0.2-1.2-0.5c-0.3-0.3-0.5-0.7-0.5-1.2v-7c0-0.6-0.1-1.1-0.2-1.6c-0.2-0.5-0.4-0.9-0.8-1.2
			c-0.4-0.3-1-0.4-1.7-0.4c-0.7,0-1.3,0.1-1.8,0.4c-0.5,0.3-0.9,0.7-1.1,1.2c-0.3,0.5-0.4,1-0.4,1.6v7c0,0.5-0.2,0.9-0.5,1.2
			c-0.3,0.3-0.7,0.5-1.2,0.5s-0.9-0.2-1.2-0.5c-0.3-0.3-0.5-0.7-0.5-1.2V28.3c0-0.5,0.2-0.9,0.5-1.2c0.3-0.3,0.7-0.5,1.2-0.5
			s0.9,0.2,1.2,0.5c0.3,0.3,0.5,0.7,0.5,1.2v1.2l-0.4-0.1c0.2-0.3,0.4-0.6,0.7-1c0.3-0.4,0.7-0.7,1.1-1c0.4-0.3,0.9-0.6,1.4-0.8
			S67.6,26.3,68.3,26.3z"/>
		<path class="st1" d="M77.7,24.8c-0.6,0-1.1-0.1-1.3-0.3C76.2,24.3,76,24,76,23.5V23c0-0.5,0.1-0.9,0.4-1.1
			c0.3-0.2,0.7-0.3,1.3-0.3c0.6,0,1.1,0.1,1.3,0.3c0.3,0.2,0.4,0.6,0.4,1.1v0.5c0,0.5-0.1,0.9-0.4,1.1
			C78.8,24.8,78.3,24.8,77.7,24.8z M79.4,39.6c0,0.5-0.2,0.9-0.5,1.2c-0.3,0.3-0.7,0.5-1.2,0.5c-0.5,0-0.9-0.2-1.2-0.5
			c-0.3-0.3-0.5-0.7-0.5-1.2V28.3c0-0.5,0.2-0.9,0.5-1.2c0.3-0.3,0.7-0.5,1.2-0.5c0.5,0,0.9,0.2,1.2,0.5c0.3,0.3,0.5,0.7,0.5,1.2
			V39.6z"/>
		<path class="st1" d="M88.8,26.3c1,0,1.9,0.1,2.7,0.3c0.8,0.2,1.4,0.5,1.8,0.9c0.4,0.4,0.6,0.9,0.6,1.4c0,0.4-0.1,0.7-0.3,1
			c-0.2,0.3-0.5,0.5-1,0.5c-0.3,0-0.5,0-0.7-0.1c-0.2-0.1-0.4-0.2-0.5-0.3c-0.1-0.1-0.3-0.2-0.5-0.4c-0.2-0.1-0.5-0.2-0.8-0.3
			c-0.4-0.1-0.7-0.1-0.8-0.1c-0.9,0-1.7,0.2-2.4,0.6c-0.6,0.4-1.1,0.9-1.5,1.6c-0.3,0.7-0.5,1.5-0.5,2.4c0,0.9,0.2,1.7,0.5,2.3
			c0.4,0.7,0.8,1.2,1.5,1.6c0.6,0.4,1.4,0.6,2.2,0.6c0.5,0,0.8,0,1.2-0.1s0.6-0.1,0.8-0.2c0.3-0.1,0.5-0.3,0.7-0.5
			c0.2-0.2,0.5-0.2,0.9-0.2c0.5,0,0.8,0.2,1.1,0.5c0.3,0.3,0.4,0.7,0.4,1.1c0,0.5-0.3,0.9-0.8,1.2s-1.2,0.7-2,0.9s-1.7,0.3-2.7,0.3
			c-1.4,0-2.7-0.3-3.7-1c-1.1-0.7-1.9-1.6-2.4-2.7c-0.6-1.1-0.9-2.4-0.9-3.9c0-1.5,0.3-2.8,0.9-3.9c0.6-1.1,1.5-2,2.5-2.7
			C86.1,26.7,87.3,26.3,88.8,26.3z"/>
		<path class="st1" d="M97.4,24.8c-0.6,0-1.1-0.1-1.3-0.3c-0.3-0.2-0.4-0.6-0.4-1.1V23c0-0.5,0.1-0.9,0.4-1.1
			c0.3-0.2,0.7-0.3,1.3-0.3c0.6,0,1.1,0.1,1.3,0.3c0.3,0.2,0.4,0.6,0.4,1.1v0.5c0,0.5-0.1,0.9-0.4,1.1C98.4,24.8,98,24.8,97.4,24.8z
			 M99,39.6c0,0.5-0.2,0.9-0.5,1.2c-0.3,0.3-0.7,0.5-1.2,0.5c-0.5,0-0.9-0.2-1.2-0.5c-0.3-0.3-0.5-0.7-0.5-1.2V28.3
			c0-0.5,0.2-0.9,0.5-1.2c0.3-0.3,0.7-0.5,1.2-0.5c0.5,0,0.9,0.2,1.2,0.5c0.3,0.3,0.5,0.7,0.5,1.2V39.6z"/>
		<path class="st1" d="M113.9,26.3c0.5,0,0.9,0.2,1.2,0.5s0.5,0.7,0.5,1.2v11.6c0,0.5-0.2,0.9-0.5,1.2c-0.3,0.3-0.7,0.5-1.2,0.5
			s-0.9-0.2-1.2-0.5c-0.3-0.3-0.5-0.7-0.5-1.2v-1.3l0.6,0.2c0,0.2-0.1,0.5-0.4,0.9c-0.3,0.3-0.6,0.7-1,1c-0.4,0.3-1,0.6-1.5,0.8
			c-0.6,0.2-1.2,0.3-1.9,0.3c-1.3,0-2.4-0.3-3.4-1c-1-0.6-1.8-1.5-2.4-2.7c-0.6-1.1-0.9-2.4-0.9-3.9c0-1.5,0.3-2.8,0.9-3.9
			c0.6-1.1,1.4-2,2.4-2.7c1-0.6,2.1-1,3.3-1c0.8,0,1.5,0.1,2.2,0.4c0.7,0.2,1.2,0.5,1.7,0.9c0.5,0.4,0.9,0.7,1.1,1.1
			c0.3,0.4,0.4,0.7,0.4,0.9l-1,0.4v-2c0-0.5,0.2-0.9,0.5-1.2C113.1,26.5,113.5,26.3,113.9,26.3z M108.4,38.5c0.8,0,1.5-0.2,2.1-0.6
			c0.6-0.4,1.1-0.9,1.4-1.6s0.5-1.5,0.5-2.3c0-0.9-0.2-1.7-0.5-2.3c-0.3-0.7-0.8-1.2-1.4-1.6c-0.6-0.4-1.3-0.6-2.1-0.6
			c-0.8,0-1.5,0.2-2.1,0.6c-0.6,0.4-1.1,0.9-1.4,1.6c-0.3,0.7-0.5,1.5-0.5,2.3c0,0.9,0.2,1.6,0.5,2.3c0.3,0.7,0.8,1.2,1.4,1.6
			C106.9,38.3,107.6,38.5,108.4,38.5z"/>
		<path class="st1" d="M120.4,41.2c-0.5,0-0.9-0.2-1.2-0.5c-0.3-0.3-0.5-0.7-0.5-1.2V28.3c0-0.5,0.2-0.9,0.5-1.2
			c0.3-0.3,0.7-0.5,1.2-0.5s0.9,0.2,1.2,0.5c0.3,0.3,0.5,0.7,0.5,1.2v2.6l-0.2-1.8c0.2-0.4,0.5-0.8,0.8-1.2c0.3-0.3,0.7-0.6,1.1-0.8
			c0.4-0.2,0.8-0.4,1.3-0.5s0.9-0.2,1.4-0.2c0.5,0,1,0.2,1.4,0.5c0.4,0.3,0.6,0.7,0.6,1.1c0,0.6-0.2,1-0.5,1.3
			c-0.3,0.3-0.6,0.4-1,0.4c-0.3,0-0.7-0.1-0.9-0.2c-0.3-0.1-0.6-0.2-1-0.2c-0.3,0-0.7,0.1-1,0.2c-0.3,0.2-0.6,0.4-0.9,0.7
			c-0.3,0.3-0.5,0.7-0.7,1.2c-0.2,0.5-0.3,1.1-0.3,1.7v6.5c0,0.5-0.2,0.9-0.5,1.2C121.2,41.1,120.8,41.2,120.4,41.2z"/>
	</g>
</g>
</svg>
