<svg xmlns="http://www.w3.org/2000/svg" viewBox="0 0 150 150"><defs><style>.cls-1{isolation:isolate;}.cls-2{fill:#002451;opacity:0.27;}.cls-3{fill:#fff2cc;}.cls-4{fill:#29abe2;}.cls-5{opacity:0.2;mix-blend-mode:multiply;}.cls-6{fill:#fff;}.cls-7{fill:#000f56;}.cls-8{fill:#e6c155;}.cls-9{fill:#b76d72;}.cls-10{fill:#af5c66;}.cls-11{fill:#f2d395;}.cls-12{fill:#e4c1b7;}.cls-13{fill:#34331b;}.cls-14{fill:none;stroke:#1e134d;stroke-linecap:round;stroke-linejoin:round;stroke-width:1.25px;}</style></defs><title>lab02-</title><g class="cls-1"><g id="Layer_1" data-name="Layer 1"><rect class="cls-2" x="23.81" y="16.58" width="120.09" height="120.09" rx="36.12" ry="36.12"/><rect class="cls-3" x="20.71" y="13.48" width="120.09" height="120.09" rx="36.12" ry="36.12"/><path class="cls-4" d="M140.32,103.28H127.38a17.11,17.11,0,0,0-17.12,17.12v12.74A36.15,36.15,0,0,0,140.32,103.28Z"/><g class="cls-5"><rect x="122.67" y="111.78" width="1.38" height="10.82"/><polygon points="123.33 107.68 120.54 112.5 126.11 112.5 123.33 107.68"/><polygon points="123.36 126.62 126.14 121.8 120.57 121.8 123.36 126.62"/><rect x="117.95" y="116.5" width="10.82" height="1.38"/><polygon points="113.87 117.17 118.69 119.95 118.69 114.38 113.87 117.17"/><polygon points="132.82 117.13 127.99 114.35 127.99 119.92 132.82 117.13"/></g><rect class="cls-6" x="121.67" y="110.78" width="1.38" height="10.82"/><polygon class="cls-6" points="122.33 106.68 119.54 111.5 125.11 111.5 122.33 106.68"/><polygon class="cls-6" points="122.36 125.62 125.14 120.8 119.57 120.8 122.36 125.62"/><rect class="cls-6" x="116.95" y="115.5" width="10.82" height="1.38"/><polygon class="cls-6" points="112.87 116.17 117.69 118.95 117.69 113.38 112.87 116.17"/><polygon class="cls-6" points="131.82 116.13 126.99 113.35 126.99 118.92 131.82 116.13"/><g class="cls-5"><path class="cls-7" d="M79.54,21.33c7,0,14,1.23,18.77,3.3A20.71,20.71,0,0,1,106.49,31c2.34-.81,2.38-2.19,2.38-2.19a5.65,5.65,0,0,1,2.43-1c.65,0,1.12.44.89,1.87a7.88,7.88,0,0,1,2.13-.36c1.08,0,2.11.39,1.81,1.95,0,0,2.87.33,1.51,4a12.39,12.39,0,0,1-6.11,6.51,52.63,52.63,0,0,1,1.31,7C115.11,67.14,106.32,73,106.32,73a7.65,7.65,0,0,1-3,6.85,24.94,24.94,0,0,0-1.27,2.6q-.57,1.36-1,2.76a53.26,53.26,0,0,0-1.56,5.62c-.21,1-.41,1.9-.57,2.86s-.28,1.92-.36,2.9a26.46,26.46,0,0,0-.09,3c0,.43,0,.86.07,1.29a10.12,10.12,0,0,0,2.76,2.24c2,1.17,1.46,3.36.87,5.11a1.6,1.6,0,0,1-1.67,1,3.52,3.52,0,0,1-3.19-2c-.78-2-2.88-2.77-4.62-3.36a3.73,3.73,0,0,0-1.15-.23c-.81,0-1.38.44-3.49.74a23.13,23.13,0,0,0-6.37,1.7,3.84,3.84,0,0,1-1.34.32c-1.14,0-1.21-1.12-1.24-2.59,0-1.9.82-2.19.82-2.19-1.66-1.34.12-2.27,3.14-2.27a16.25,16.25,0,0,1,1.92.11,42.35,42.35,0,0,0,4.22.47A9.74,9.74,0,0,0,92,99.41c.2-.37.4-.74.58-1.12a27.94,27.94,0,0,0,1.14-2.72,34.61,34.61,0,0,0,1.49-5.63,52.81,52.81,0,0,0,.77-5.78c0-.36,0-.72.06-1.08l-.67.15a34.57,34.57,0,0,1-7.11.7,47.71,47.71,0,0,1-12.94-1.86c-.23.23-.46.47-.68.71q-.9,1-1.71,2.1A41.67,41.67,0,0,0,70,89.34a37.32,37.32,0,0,0-2.42,4.76c-.17.41-.33.82-.48,1.25,0,1.28-.39,1.27,1.92,2,2.93,1,6.24.78,5.66,2.63-.25.79-1.19,1-2.2,1a12.45,12.45,0,0,1-2.87-.42s2.21,2.41,1.25,3.93a3.56,3.56,0,0,1-2.66,1.81,1.55,1.55,0,0,1-1.22-.58c-1.07-1.27-1.46-2.53-2.43-3.41a5.26,5.26,0,0,0-3.49-1,12.54,12.54,0,0,0-3.14.44,16.9,16.9,0,0,1-4.67.82c-.43,0-.93,0-1.56,0-2.53-.1-4.38-.59-4.58-1.66s.88-2.18,2.53-2.18h.26s-2.26-.56-2-1.34-.27-2.63,1.29-2.82l.5,0c1.1,0,1.41.56,4,.91a12.41,12.41,0,0,0,1.68.13,42.78,42.78,0,0,0,4.33-.46,15.94,15.94,0,0,0,1.79-1.55,26.28,26.28,0,0,0,1.82-2c.57-.69,1.09-1.4,1.59-2.13a22.69,22.69,0,0,0,1.39-2.25,41.31,41.31,0,0,0,2.25-4.81c.25-.65.47-1.31.68-2h0c-2.65,0-5.07,1.38-11.69,2.22a30.9,30.9,0,0,1-3.77.25c-6.48,0-9.42-2.56-12.13-4.92-1.62-1.41-2.47-1.8-3.36-1.8s-1.76.36-3.43.52c-.84.07-1.68.14-2.54.14a14.2,14.2,0,0,1-4.1-.58,20.23,20.23,0,0,1-2.25,1.48c-2.75,1.54-5.88,3.74-6.12,4.48-.15.47-.46,1-.73,1s-.29-.15-.38-.54a18.72,18.72,0,0,1-.6-7.39c.47-3.67.35-4.18.81-5.06h0c-2.37-3.48-2.62-8.57-.75-17.27,2.58-12,14.22-16.29,21.33-18.19a25.92,25.92,0,0,1,7-1c.82,0,1.51,0,2.09,0a3.27,3.27,0,0,0,2.23-.56c1.64-1.35,3.34-4.06,12.4-8.74,4.24-2.19,10.29-3.15,16.44-3.15m0-6v0c-5.38,0-13.08.66-19.2,3.82-7.76,4-10.8,6.86-12.6,8.62l-1.36,0a32.07,32.07,0,0,0-8.54,1.16c-14.63,3.9-23.26,11.55-25.66,22.74-1.87,8.71-1.82,14.73.25,19.37,0,.29-.06.59-.1.9-.06.61-.14,1.42-.29,2.55a24.28,24.28,0,0,0,.64,9.25l.07.28A6.41,6.41,0,0,0,19,89.16a6.66,6.66,0,0,0,5.79-3.61,33,33,0,0,1,4-2.61l.57-.32a20.57,20.57,0,0,0,2.85.19c1.13,0,2.16-.08,3.1-.17a20.73,20.73,0,0,0,2.12-.31l.17.15c2.4,2.09,5.8,5.06,11.78,6a8.44,8.44,0,0,0-1,.08c-1,.13-6.23,1.11-6.46,7.77a6.91,6.91,0,0,0-.1,1,7.44,7.44,0,0,0-.64,4.57c.52,2.85,2.71,6.29,10.25,6.58.74,0,1.26,0,1.79,0a22.47,22.47,0,0,0,6.17-1,7,7,0,0,1,1.37-.24,17.76,17.76,0,0,0,1.61,2.3,7.59,7.59,0,0,0,5.8,2.7,9,9,0,0,0,6.39-2.89,7,7,0,0,0,5.72,2.89,9.7,9.7,0,0,0,3.54-.73,17,17,0,0,1,5-1.35,21.28,21.28,0,0,0,2.55-.52l.51.19a9.56,9.56,0,0,0,8.53,5.25,7.58,7.58,0,0,0,7.37-5.09c2.41-7.22-1-10.65-3.39-12.1,0-.3,0-.62.06-.94.06-.77.16-1.58.29-2.36s.34-1.74.52-2.58a46.23,46.23,0,0,1,1.38-5q.39-1.17.9-2.37c.19-.44.36-.82.53-1.16a13.61,13.61,0,0,0,4.11-7.89c3.38-3.66,8.53-12,6.6-27.73-.15-1.23-.34-2.44-.55-3.6a17.34,17.34,0,0,0,5-7.11c1.41-3.87.51-6.62-.49-8.25a7.83,7.83,0,0,0-1.35-1.64,7.25,7.25,0,0,0-.92-1.43,7.52,7.52,0,0,0-4.73-2.6,6.9,6.9,0,0,0-4.49-1.63A9.58,9.58,0,0,0,107,22.91a27.4,27.4,0,0,0-6.25-3.78c-5.44-2.38-13.36-3.8-21.17-3.8ZM53.63,88.87a36.83,36.83,0,0,0,4.21-.26c-.21.23-.43.46-.66.68l-.08.09h0a17.07,17.07,0,0,1-1.8.19,8.73,8.73,0,0,1-2.39-.43,10.66,10.66,0,0,0-1-.33q.86.06,1.77.06ZM75,92.66l.18-.32a36.82,36.82,0,0,1,2.3-3.55,52.87,52.87,0,0,0,10.76,1.14h.84a28.6,28.6,0,0,1-1,3.63c0,.07,0,.13-.07.2l-.42-.06-1.93-.25A23.51,23.51,0,0,0,83,93.29a13.82,13.82,0,0,0-5,.82,9,9,0,0,0-3-1.45Z"/></g><path class="cls-6" d="M79.54,19.33c7,0,14,1.23,18.77,3.3A20.71,20.71,0,0,1,106.49,29c2.34-.81,2.38-2.19,2.38-2.19a5.65,5.65,0,0,1,2.43-1c.65,0,1.12.44.89,1.87a7.88,7.88,0,0,1,2.13-.36c1.08,0,2.11.39,1.81,1.95,0,0,2.87.33,1.51,4a12.39,12.39,0,0,1-6.11,6.51,52.63,52.63,0,0,1,1.31,7C115.11,65.14,106.32,71,106.32,71a7.65,7.65,0,0,1-3,6.85,24.94,24.94,0,0,0-1.27,2.6q-.57,1.36-1,2.76a53.26,53.26,0,0,0-1.56,5.62c-.21,1-.41,1.9-.57,2.86s-.28,1.92-.36,2.9a26.46,26.46,0,0,0-.09,3c0,.43,0,.86.07,1.29a10.12,10.12,0,0,0,2.76,2.24c2,1.17,1.46,3.36.87,5.11a1.6,1.6,0,0,1-1.67,1,3.52,3.52,0,0,1-3.19-2c-.78-2-2.88-2.77-4.62-3.36a3.73,3.73,0,0,0-1.15-.23c-.81,0-1.38.44-3.49.74a23.13,23.13,0,0,0-6.37,1.7,3.84,3.84,0,0,1-1.34.32c-1.14,0-1.21-1.12-1.24-2.59,0-1.9.82-2.19.82-2.19-1.66-1.34.12-2.27,3.14-2.27a16.25,16.25,0,0,1,1.92.11,42.35,42.35,0,0,0,4.22.47A9.74,9.74,0,0,0,92,97.41c.2-.37.4-.74.58-1.12a27.94,27.94,0,0,0,1.14-2.72,34.61,34.61,0,0,0,1.49-5.63,52.81,52.81,0,0,0,.77-5.78c0-.36,0-.72.06-1.08l-.67.15a34.57,34.57,0,0,1-7.11.7,47.71,47.71,0,0,1-12.94-1.86c-.23.23-.46.47-.68.71q-.9,1-1.71,2.1A41.67,41.67,0,0,0,70,87.34a37.32,37.32,0,0,0-2.42,4.76c-.17.41-.33.82-.48,1.25,0,1.28-.39,1.27,1.92,2,2.93,1,6.24.78,5.66,2.63-.25.79-1.19,1-2.2,1a12.45,12.45,0,0,1-2.87-.42s2.21,2.41,1.25,3.93a3.56,3.56,0,0,1-2.66,1.81,1.55,1.55,0,0,1-1.22-.58c-1.07-1.27-1.46-2.53-2.43-3.41a5.26,5.26,0,0,0-3.49-1,12.54,12.54,0,0,0-3.14.44,16.9,16.9,0,0,1-4.67.82c-.43,0-.93,0-1.56,0-2.53-.1-4.38-.59-4.58-1.66s.88-2.18,2.53-2.18h.26s-2.26-.56-2-1.34-.27-2.63,1.29-2.82l.5,0c1.1,0,1.41.56,4,.91a12.41,12.41,0,0,0,1.68.13,42.78,42.78,0,0,0,4.33-.46,15.94,15.94,0,0,0,1.79-1.55,26.28,26.28,0,0,0,1.82-2c.57-.69,1.09-1.4,1.59-2.13a22.69,22.69,0,0,0,1.39-2.25,41.31,41.31,0,0,0,2.25-4.81c.25-.65.47-1.31.68-2h0c-2.65,0-5.07,1.38-11.69,2.22a30.9,30.9,0,0,1-3.77.25c-6.48,0-9.42-2.56-12.13-4.92-1.62-1.41-2.47-1.8-3.36-1.8s-1.76.36-3.43.52c-.84.07-1.68.14-2.54.14a14.2,14.2,0,0,1-4.1-.58,20.23,20.23,0,0,1-2.25,1.48c-2.75,1.54-5.88,3.74-6.12,4.48-.15.47-.46,1-.73,1s-.29-.15-.38-.54a18.72,18.72,0,0,1-.6-7.39c.47-3.67.35-4.18.81-5.06h0c-2.37-3.48-2.62-8.57-.75-17.27,2.58-12,14.22-16.29,21.33-18.19a25.92,25.92,0,0,1,7-1c.82,0,1.51,0,2.09,0a3.27,3.27,0,0,0,2.23-.56c1.64-1.35,3.34-4.06,12.4-8.74,4.24-2.19,10.29-3.15,16.44-3.15m0-6v0c-5.38,0-13.08.66-19.2,3.82-7.76,4-10.8,6.86-12.6,8.62l-1.36,0a32.07,32.07,0,0,0-8.54,1.16c-14.63,3.9-23.26,11.55-25.66,22.74-1.87,8.71-1.82,14.73.25,19.37,0,.29-.06.59-.1.9-.06.61-.14,1.42-.29,2.55a24.28,24.28,0,0,0,.64,9.25l.07.28A6.41,6.41,0,0,0,19,87.16a6.66,6.66,0,0,0,5.79-3.61,33,33,0,0,1,4-2.61l.57-.32a20.57,20.57,0,0,0,2.85.19c1.13,0,2.16-.08,3.1-.17a20.73,20.73,0,0,0,2.12-.31l.17.15c2.4,2.09,5.8,5.06,11.78,6a8.44,8.44,0,0,0-1,.08c-1,.13-6.23,1.11-6.46,7.77a6.91,6.91,0,0,0-.1,1,7.44,7.44,0,0,0-.64,4.57c.52,2.85,2.71,6.29,10.25,6.58.74,0,1.26,0,1.79,0a22.47,22.47,0,0,0,6.17-1,7,7,0,0,1,1.37-.24,17.76,17.76,0,0,0,1.61,2.3,7.59,7.59,0,0,0,5.8,2.7,9,9,0,0,0,6.39-2.89,7,7,0,0,0,5.72,2.89,9.7,9.7,0,0,0,3.54-.73,17,17,0,0,1,5-1.35,21.28,21.28,0,0,0,2.55-.52l.51.19a9.56,9.56,0,0,0,8.53,5.25,7.58,7.58,0,0,0,7.37-5.09c2.41-7.22-1-10.65-3.39-12.1,0-.3,0-.62.06-.94.06-.77.16-1.58.29-2.36s.34-1.74.52-2.58a46.23,46.23,0,0,1,1.38-5q.39-1.17.9-2.37c.19-.44.36-.82.53-1.16a13.61,13.61,0,0,0,4.11-7.89c3.38-3.66,8.53-12,6.6-27.73-.15-1.23-.34-2.44-.55-3.6a17.34,17.34,0,0,0,5-7.11c1.41-3.87.51-6.62-.49-8.25a7.83,7.83,0,0,0-1.35-1.64,7.25,7.25,0,0,0-.92-1.43,7.52,7.52,0,0,0-4.73-2.6,6.9,6.9,0,0,0-4.49-1.63A9.58,9.58,0,0,0,107,20.91a27.4,27.4,0,0,0-6.25-3.78c-5.44-2.38-13.36-3.8-21.17-3.8ZM53.63,86.87a36.83,36.83,0,0,0,4.21-.26c-.21.23-.43.46-.66.68l-.08.09h0a17.07,17.07,0,0,1-1.8.19,8.73,8.73,0,0,1-2.39-.43,10.66,10.66,0,0,0-1-.33q.86.06,1.77.06ZM75,90.66l.18-.32a36.82,36.82,0,0,1,2.3-3.55,52.87,52.87,0,0,0,10.76,1.14h.84a28.6,28.6,0,0,1-1,3.63c0,.07,0,.13-.07.2l-.42-.06-1.93-.25A23.51,23.51,0,0,0,83,91.29a13.82,13.82,0,0,0-5,.82,9,9,0,0,0-3-1.45Z"/><path class="cls-8" d="M69.32,77.82q-.37,1.31-.87,2.55a39.67,39.67,0,0,1-2.24,4.81,24.73,24.73,0,0,1-1.39,2.25c-.5.73-1,1.44-1.6,2.13a24.2,24.2,0,0,1-1.81,2,16.88,16.88,0,0,1-1.79,1.55c-3.45.41-3.91.61-6,.33-2.93-.39-2.93-1.08-4.48-.88s-1.08,2-1.3,2.82,2,1.34,2,1.34c-1.79-.13-3,1.1-2.78,2.17s2.05,1.56,4.58,1.66,2.82.09,6.23-.78,5.65-.29,6.63.58,1.36,2.14,2.43,3.41,2.92.29,3.88-1.23-1.25-3.93-1.25-3.93,4.48,1.26,5.07-.59S71.92,96.36,69,95.38c-2.3-.76-1.94-.75-1.91-2,.15-.43.31-.84.48-1.25A37.32,37.32,0,0,1,70,87.34a40.19,40.19,0,0,1,2.92-4.46q.81-1.08,1.71-2.1a20.21,20.21,0,0,1,2-1.94l-6.66-3.71A19.15,19.15,0,0,1,69.32,77.82Z"/><path class="cls-8" d="M101.24,101.08a10.33,10.33,0,0,1-2.77-2.24q0-.65-.06-1.29a29.1,29.1,0,0,1,.08-3c.08-1,.2-1.94.37-2.9s.36-1.91.57-2.86A53.26,53.26,0,0,1,101,83.21q.47-1.39,1.05-2.76a24.91,24.91,0,0,1,1.32-2.7l-7.47-1.53a23.39,23.39,0,0,1,.16,3q0,1.48-.12,2.94a50.47,50.47,0,0,1-.76,5.78,35.66,35.66,0,0,1-1.49,5.63c-.34.92-.71,1.83-1.14,2.72-.19.38-.38.75-.58,1.12-2.83.8-3.69.38-7,0-4.09-.47-7.06.55-5.06,2.16,0,0-.86.29-.82,2.19s.14,3.23,2.57,2.27a23.2,23.2,0,0,1,6.38-1.7c2.92-.42,2.89-1.09,4.64-.51s3.84,1.32,4.61,3.36,4.29,2.77,4.87,1S103.28,102.25,101.24,101.08Z"/><path class="cls-9" d="M116.14,29.2c.58-3.07-4-1.59-4-1.59.59-3.64-3.31-.85-3.31-.85s0,1.38-2.38,2.19a20.74,20.74,0,0,0-8.19-6.32c-8.89-3.89-26.15-4.83-35.21-.15s-10.75,7.39-12.39,8.74-4.2-.41-11.32,1.49S20.64,38.86,18.05,50.9s-1.11,17.18,4.44,20.68,8.82,3.4,12.23,3.09,3.61-1.49,6.79,1.28,6.69,5.82,15.9,4.67,10.29-3.39,15.15-1.47S87,83,95.33,81.23c7-1.5,11.42-4.8,11-10.23,0,0,8.79-5.86,6.52-24.27a52.63,52.63,0,0,0-1.31-7,12.39,12.39,0,0,0,6.11-6.51C119,29.53,116.14,29.2,116.14,29.2Z"/><path class="cls-10" d="M17.28,55.48c2.26,3.25,7.38,4.5,8.63,1.62S29,50.1,32.2,48a52.93,52.93,0,0,1,13.48-6c4.37-1.13,4.75-4.13,6.25-6s3.38-6.51,7.38-6.76,19.26-1.87,21.89-3.62,9.25-2.26,10.88-2.26S95.62,21,90,20.24s-15.92-1.78-21.68.59-13,6.06-15.31,8.22-1.57,3.16-10.08,3.41-19,5.9-22.29,12A25.24,25.24,0,0,0,17.28,55.48Z"/><path class="cls-11" d="M30.61,69.89c1.16,1.54-2.05,4.28-4.79,5.82S20,79.45,19.71,80.19s-.86,1.52-1.12.43A18.79,18.79,0,0,1,18,73.23c.47-3.67.34-4.18.81-5.06s2.67-2,3.54-.38S23.6,71,24.88,70.26,29.26,68.09,30.61,69.89Z"/><path class="cls-12" d="M35.18,57.34c1.13,1.11,1,4-.59,5.73a3.91,3.91,0,0,1-5.22.62,4.56,4.56,0,0,1,0-5.33C31.14,55.93,33.54,56.42,35.18,57.34Z"/><path class="cls-13" d="M34.24,58.3a3.37,3.37,0,0,1-.62,4.05,2.67,2.67,0,0,1-3.51.52,3.15,3.15,0,0,1,4.13-4.57Z"/><path class="cls-10" d="M71.73,46S64,55.79,69.24,61.78,75.67,65,75.67,65s7.47,10.29,12,3.17c0,0,7,2.38,7.2-3.61,0,0,3.16-4.36,0-7.6,0,0,2.14,6.81-4.27,4.23,0,0-.64,4.48-6.78,2.58,0,0-2.18,4.2-8.58-3.57C75.23,60.2,66.19,59.66,71.73,46Z"/><path class="cls-14" d="M71.73,46S64,55.79,69.24,61.78,75.67,65,75.67,65s7.47,10.29,12,3.17c0,0,7,2.38,7.2-3.61,0,0,3.16-4.36,0-7.6"/><path class="cls-14" d="M116.13,29.2c.58-3.07-3.94-1.59-3.94-1.59.58-3.64-3.32-.85-3.32-.85s0,1.38-2.38,2.19a20.71,20.71,0,0,0-8.18-6.32c-8.9-3.89-26.16-4.83-35.21-.15s-10.76,7.39-12.4,8.74-4.2-.41-11.32,1.49S20.63,38.86,18.05,50.9c-1.87,8.7-1.62,13.79.75,17.27h0c-.46.88-.34,1.39-.81,5.06a18.72,18.72,0,0,0,.6,7.39c.26,1.09.87.31,1.11-.43s3.37-2.94,6.12-4.48a20.23,20.23,0,0,0,2.25-1.48,16.55,16.55,0,0,0,6.64.44c3.4-.32,3.61-1.49,6.79,1.28s6.69,5.82,15.9,4.67c6.65-.84,9.07-2.24,11.73-2.22-.21.66-.43,1.32-.68,2a41.31,41.31,0,0,1-2.25,4.81,22.69,22.69,0,0,1-1.39,2.25c-.5.73-1,1.44-1.59,2.13a26.28,26.28,0,0,1-1.82,2,15.94,15.94,0,0,1-1.79,1.55c-3.45.41-3.91.61-6,.33-2.92-.39-2.92-1.08-4.48-.88s-1.07,2-1.29,2.82,2,1.34,2,1.34c-1.8-.13-3,1.1-2.79,2.17s2,1.56,4.58,1.66,2.83.09,6.23-.78,5.65-.29,6.63.58,1.36,2.14,2.43,3.41,2.93.29,3.88-1.23-1.25-3.93-1.25-3.93,4.48,1.26,5.07-.59S71.91,96.36,69,95.38c-2.31-.76-1.94-.75-1.92-2,.15-.43.31-.84.48-1.25A37.32,37.32,0,0,1,70,87.34a41.67,41.67,0,0,1,2.92-4.46q.81-1.08,1.71-2.1c.22-.24.45-.48.68-.71,5.22,1.53,13.07,2.65,20,1.16l.67-.15c0,.36,0,.72-.06,1.08a52.81,52.81,0,0,1-.77,5.78,34.61,34.61,0,0,1-1.49,5.63,27.94,27.94,0,0,1-1.14,2.72c-.18.38-.38.75-.58,1.12-2.83.8-3.69.38-7,0-4.09-.47-7.06.55-5.06,2.16,0,0-.86.29-.82,2.19s.14,3.23,2.58,2.27a23.13,23.13,0,0,1,6.37-1.7c2.92-.42,2.89-1.09,4.64-.51s3.84,1.32,4.62,3.36,4.28,2.77,4.86,1,1.17-3.94-.87-5.11a10.12,10.12,0,0,1-2.76-2.24c0-.43-.06-.86-.07-1.29a26.46,26.46,0,0,1,.09-3c.08-1,.2-1.94.36-2.9s.36-1.91.57-2.86A53.26,53.26,0,0,1,101,83.21q.48-1.39,1-2.76a24.94,24.94,0,0,1,1.27-2.6,7.65,7.65,0,0,0,3-6.85s8.79-5.86,6.52-24.27a52.63,52.63,0,0,0-1.31-7,12.39,12.39,0,0,0,6.11-6.51C119,29.53,116.13,29.2,116.13,29.2Z"/><g class="cls-5"><path class="cls-7" d="M23.65,100.82a5.21,5.21,0,0,1,3.26,1.1c1.73,1.46,3.29,1.49,4.22,2.49,1.24,1.31,4.94,2.15,6,2.59s.89,3.1-.82,4.27-5.53,2.1-10.81,2.1l-1.27,0a71.49,71.49,0,0,1-11.49-1.79c-3.8-2.33,0-5.55,1.65-6.42s4.59.29,5.8-2.34a3.6,3.6,0,0,1,3.46-2m0-5a8.61,8.61,0,0,0-7.47,3.9h-.06a9.79,9.79,0,0,0-4.07,1c-.59.31-5.78,3.21-5.94,8.26a7.75,7.75,0,0,0,4,6.85,5.11,5.11,0,0,0,1.45.6,76.07,76.07,0,0,0,12.51,1.92c.48,0,1,0,1.42,0,5.81,0,10.91-1.11,13.63-3a8.59,8.59,0,0,0,3.62-7.81A6.18,6.18,0,0,0,39,102.37c-.48-.19-1-.35-1.65-.56a19.54,19.54,0,0,1-2.81-1,9.53,9.53,0,0,0-3.16-2,4.93,4.93,0,0,1-1.27-.69,10.15,10.15,0,0,0-6.5-2.29Z"/></g><path class="cls-6" d="M23.65,98.82a5.21,5.21,0,0,1,3.26,1.1c1.73,1.46,3.29,1.49,4.22,2.49,1.24,1.31,4.94,2.15,6,2.59s.89,3.1-.82,4.27-5.53,2.1-10.81,2.1l-1.27,0a71.49,71.49,0,0,1-11.49-1.79c-3.8-2.33,0-5.55,1.65-6.42s4.59.29,5.8-2.34a3.6,3.6,0,0,1,3.46-2m0-5a8.61,8.61,0,0,0-7.47,3.9h-.06a9.79,9.79,0,0,0-4.07,1c-.59.31-5.78,3.21-5.94,8.26a7.75,7.75,0,0,0,4,6.85,5.11,5.11,0,0,0,1.45.6,76.07,76.07,0,0,0,12.51,1.92c.48,0,1,0,1.42,0,5.81,0,10.91-1.11,13.63-3a8.59,8.59,0,0,0,3.62-7.81A6.18,6.18,0,0,0,39,100.37c-.48-.19-1-.35-1.65-.56a19.54,19.54,0,0,1-2.81-1,9.53,9.53,0,0,0-3.16-2,4.93,4.93,0,0,1-1.27-.69,10.15,10.15,0,0,0-6.5-2.29Z"/><path class="cls-8" d="M12.74,109.56a71.49,71.49,0,0,0,11.49,1.79c5.92.18,10.36-.91,12.08-2.08s1.89-3.83.82-4.27-4.76-1.28-6-2.59c-.93-1-2.49-1-4.22-2.49s-5.5-1.75-6.72.88-4.14,1.46-5.8,2.34S8.94,107.23,12.74,109.56Z"/><path class="cls-14" d="M12.74,109.56a71.49,71.49,0,0,0,11.49,1.79c5.92.18,10.36-.91,12.08-2.08s1.89-3.83.82-4.27-4.76-1.28-6-2.59c-.93-1-2.49-1-4.22-2.49s-5.5-1.75-6.72.88-4.14,1.46-5.8,2.34S8.94,107.23,12.74,109.56Z"/></g></g></svg>