<svg xmlns="http://www.w3.org/2000/svg" viewBox="0 0 150 150"><defs><style>.cls-1{isolation:isolate;}.cls-2{fill:#002451;opacity:0.27;}.cls-3{fill:#fff2cc;}.cls-4{fill:#29abe2;}.cls-5,.cls-7{opacity:0.2;}.cls-5{mix-blend-mode:multiply;}.cls-6{fill:#fff;}.cls-7{fill:#000f56;}.cls-8,.cls-9{fill:#999297;}.cls-9{stroke:#5a4e56;stroke-width:0.5px;}.cls-15,.cls-9{stroke-miterlimit:10;}.cls-10{fill:#d0b4b3;opacity:0.6;}.cls-11{fill:#28282f;}.cls-12{fill:#0c0c0f;}.cls-13{fill:#64514f;}.cls-14{fill:#493532;}.cls-15,.cls-20{fill:none;}.cls-15{stroke:#3f3828;stroke-width:0.52px;}.cls-16{fill:#93888c;}.cls-17{fill:#cfb4af;}.cls-18{fill:#b0a8ab;}.cls-19{fill:#3b343b;}.cls-20{stroke:#1e134d;stroke-linecap:round;stroke-linejoin:round;}</style></defs><title>unesco4Assets</title><g class="cls-1"><g id="Layer_1" data-name="Layer 1"><rect class="cls-2" x="18.06" y="13.19" width="120.09" height="120.09" rx="36.12" ry="36.12"/><rect class="cls-3" x="14.96" y="10.09" width="120.09" height="120.09" rx="36.12" ry="36.12"/><path class="cls-4" d="M134.57,99.89H121.63A17.11,17.11,0,0,0,104.51,117v12.74A36.14,36.14,0,0,0,134.57,99.89Z"/><g class="cls-5"><rect x="116.92" y="108.39" width="1.38" height="10.82"/><polygon points="117.58 104.28 114.79 109.11 120.36 109.11 117.58 104.28"/><polygon points="117.61 123.23 120.4 118.4 114.83 118.4 117.61 123.23"/><rect x="112.2" y="113.11" width="10.82" height="1.38"/><polygon points="108.12 113.77 112.95 116.56 112.95 110.99 108.12 113.77"/><polygon points="127.07 113.74 122.24 110.95 122.24 116.53 127.07 113.74"/></g><rect class="cls-6" x="115.92" y="107.39" width="1.38" height="10.82"/><polygon class="cls-6" points="116.58 103.28 113.79 108.11 119.36 108.11 116.58 103.28"/><polygon class="cls-6" points="116.61 122.23 119.4 117.4 113.83 117.4 116.61 122.23"/><rect class="cls-6" x="111.2" y="112.11" width="10.82" height="1.38"/><polygon class="cls-6" points="107.12 112.77 111.95 115.56 111.95 109.99 107.12 112.77"/><polygon class="cls-6" points="126.07 112.74 121.24 109.95 121.24 115.53 126.07 112.74"/><path class="cls-7" d="M82.18,36.15a2.34,2.34,0,0,1,1,.27c1.31.65,3.45,4.79,3.45,4.79A23.44,23.44,0,0,1,91.05,40c2.25-.34,11.43-.5,11.43-.5s2.31-2.73,4.75-2.73a2.83,2.83,0,0,1,.41,0c2.58.33,1.58,3.92,1.58,3.92s5.12,1,11.38,7.21,6.6,10.6,6.52,17.87a15.13,15.13,0,0,1-.45,3.64,27.1,27.1,0,0,1-1.15,4.38,9.2,9.2,0,0,0,3.87,2.55,4.2,4.2,0,0,0,.68.09c.34,0,.22-.17-.1-.58-.74-.92,1.46-2.13,1.46-2.13s-1.17,1.13-.59,1.66,2.13,1.39,1.3,2.31a4.15,4.15,0,0,1-3.11,1,9,9,0,0,1-3.27-.62,7.33,7.33,0,0,1-1.61-1A11.73,11.73,0,0,0,123,79.93a7.38,7.38,0,0,0,3.45,1.22h.14c.89,0,2.87.63,4.11.63a2,2,0,0,0,.5,0l.29,0c.9,0,1.13,1.11,1.57,1.79s-.14.61-.21.94c-.12.55-.35.81-.56.81s-.29-.14-.36-.4a.69.69,0,0,0-.74-.42,2.06,2.06,0,0,0-.4,0,.65.65,0,0,1-.59.43,1,1,0,0,1-.49-.15c.14.31-.32.52-.88.52a1.72,1.72,0,0,1-1.33-.53c-.68-.82-2.08-.62-3.66-.71s-3,0-4.41-1-.86-3.85-1-5.82a10.86,10.86,0,0,1-1.33.5c.33,1.55-.17,4.31-.59,6s-1,2.59-.83,3.09c0,.13.15.18.31.18a8.81,8.81,0,0,0,1.77-.6,1.47,1.47,0,0,1,.44-.08,2.88,2.88,0,0,1,1.65.83c.75.58,1.34,1,.75,1.64-.31.34-.53.42-.67.42a.21.21,0,0,1-.16-.06c0,.52-.37.72-.82.72a2.05,2.05,0,0,1-1-.3,3.86,3.86,0,0,0-1.83-.78l-.17,0c-.68,0-.78.67-1.09,1.14a1.12,1.12,0,0,1-1,.57,1.47,1.47,0,0,1-.63-.16c-.76-.33,0-1.53,0-1.53a4.44,4.44,0,0,1-1.2.78,1.89,1.89,0,0,1-.81.2,1.24,1.24,0,0,1-1.25-1c-.25-1,.92-1,1.59-1.64s.58-.5,0-1.92-1.84-3.59-2.43-4.84c-.43-.94-.64-1.6-1.16-1.6a1.4,1.4,0,0,0-.67.24,5.41,5.41,0,0,1-2.74.61,9.94,9.94,0,0,1-1.48-.11c0,1.3-.2,2.51-1,3-1.45,1-2.82.88-4.4,1s-3-.11-3.66.71a1.72,1.72,0,0,1-1.33.53h0A11.33,11.33,0,0,1,95,87.56a16.58,16.58,0,0,0,4.37,4.81A3,3,0,0,1,101,95.49c-.27.89-2.86,2.77-4.28,3a9.61,9.61,0,0,1-1.68.12c-1.18,0-2.33-.12-2.33-.12v0a1.2,1.2,0,0,1-.54,1.12.89.89,0,0,1-.44.1h-.13a4.3,4.3,0,0,1-1.39-.45s.54,1.19-.15,1.51l-.08,0-.07,0-.17,0a3.52,3.52,0,0,1-.73-.12l-.26-.05-.65-.12a12.36,12.36,0,0,0-1.87-.15H86c-.53,0-1.14,0-1.83.08-.32,0-.74,0-1.22.06h-.51l-1.09,0c-.76,0-1.55-.09-2.28-.19a8,8,0,0,1-2.24-.55,1.75,1.75,0,0,1-.27-.16,13.08,13.08,0,0,0-1.76-1c-.49-.25-.82-.38-.82-.38a29.29,29.29,0,0,1-5.41.4H68.5c-1.3,0-2.52,0-3.45-.08l-.54,0-.79,0h-.24c-1,0-1.25.13-1,.66l.09.19a1.14,1.14,0,0,1,.12.51,1,1,0,0,1-.42.7,15.71,15.71,0,0,0-2.65-.81,1.44,1.44,0,0,1,.33,1.75c-.33-.1-.7-.19-1.06-.26-.54-.11-1.11-.18-1.67-.24l-.19,0c-1.31-.12-2.62-.14-3.66-.17l-.73,0a2.06,2.06,0,0,1-2.06-2.08c0-.13,0-.26-.05-.38a.58.58,0,0,0-.38-.5,2.07,2.07,0,0,0-.77-.14h-.07a5.73,5.73,0,0,0-1,.1,7.17,7.17,0,0,0-.82.09,7.5,7.5,0,0,0-.78.15,10,10,0,0,0-1.66.54,6.52,6.52,0,0,0-1.07.57c-.17.12-.34.24-.51.38A4.67,4.67,0,0,0,42,101.7a1.91,1.91,0,0,0-.06.33.55.55,0,0,0,0,.18c.19,3.13,11.86,4.25,17.46,4.25h.78c1.69,0,3.36,0,4.91,0,3.32,0,6.06.06,7.08.06h.15c1.3,0,1.87.71-.14.94s-12.83.72-18.3.72S42,106.74,40,104.67c-2.25-2.26-2.31-6.11,5.14-9.71a10,10,0,0,0,3.63-3.29l-.19,0h-.17c-.57,0-.85-.4-1.55-.87a2.18,2.18,0,0,0-1.28-.37c-.26,0-.49,0-.7,0a1.54,1.54,0,0,0-1.28,1,1.18,1.18,0,0,1-1.15.56,3,3,0,0,1-.83-.13c-.77-.26-.34-1,.26-1.55a4.84,4.84,0,0,0,1.29-2c.08-.43-.41-1.27-1.68-3.09-.15-.23-.35-.53-.59-.87a4.12,4.12,0,0,1-1.23-.2,6.42,6.42,0,0,1-1.66-2,3.76,3.76,0,0,1,0-1.7c-1.55.12-3,.22-4.54.22A28.66,28.66,0,0,1,29,80.42a3.44,3.44,0,0,1-.09,1.52,7.25,7.25,0,0,1-1.8,2.24c-.52.3-3.82.21-4.81.6a3.46,3.46,0,0,1-1.21.28.79.79,0,0,1-.81-.47,9,9,0,0,1-2.64.81.9.9,0,0,1-.36-.06c-.69-.35-.73-.75-.73-.75a2.36,2.36,0,0,1-1.36.69.92.92,0,0,1-.36-.07c-.77-.35-1.11-1.59-.6-1.85a22.09,22.09,0,0,1,2.19-.76s-.35-.83.25-1a1.06,1.06,0,0,1,.38,0c.78,0,2.21.36,2.83.36H20a22.19,22.19,0,0,0,3.27-1,1.18,1.18,0,0,0,.85-1.11c0-.18,0-.39,0-.61-5-1.84-8.43-5.15-9.31-9-1-4.47-1.37-6.87,3.44-16.66s8.41-12.71,13.56-13.74a15.18,15.18,0,0,1,2.9-.27c4.64,0,9.84,1.93,12.31,5.6a22.59,22.59,0,0,1,5.63-.71c.32,0,.64,0,1,0,.72,0,1.37.05,1.95.05a20.8,20.8,0,0,0,3.47-.22s2-5.5,3.17-6a.28.28,0,0,1,.13,0c1.33,0,5.15,7.19,2.78,10.67,0,0,4.89,4.64,6.74,7.9s3.62,5.32,3.33,7c-.23,1.43-1,1.55-1.23,1.55H74s-.63,2.3-4.42,2.84c-4.91.71-9.83.59-12.24,3a14.8,14.8,0,0,0-1.79,2.46,15,15,0,0,0,2.63,1.68A23.93,23.93,0,0,0,66,76.89a8.14,8.14,0,0,0,1.89-.18c2.5-.62-3.63-2.06-3.63-2.06h0c.37,0,4.75,0,5.47,1.76s-2.42,2.32-5.15,2.32l-.85,0a26,26,0,0,1-7.7-1.39c.7,2.16,1.58,4.82,2.2,6.43a18.4,18.4,0,0,1,5.7-.92,16,16,0,0,1,1.75.09c3.74.45,9.8,1.7,11.41,1.88h0a12.23,12.23,0,0,1,1.71-1,1.58,1.58,0,0,1,.73-.2c.42,0,.72.21,1.12.21h.13c.67-.08.5-1.5.5-3.34s-1.75-7.85-2.25-11a36.7,36.7,0,0,1,0-7.85,38.81,38.81,0,0,1,2.67-12.94c.42-1.17.83-1.84-.42-2.84s-1.5-4.76-1-7.18c.36-1.77,1-2.47,1.82-2.47m3.08,46.52a13.56,13.56,0,0,1,2.2-.19,7.26,7.26,0,0,1,1.25.12c.33-.65.62-1.43,1.38-1.43l.29,0a1.88,1.88,0,0,0,.5,0c1.24,0,3.22-.63,4.11-.63h.14a7.29,7.29,0,0,0,3.44-1.22c.08-.13-.23-.76-.71-1.77-1.61-.87-2.37-1.56-4.48-1.87a4,4,0,0,0-.69-.05c-2.66,0-5.06,2.17-5.9,3.3a9.84,9.84,0,0,0-1.53,3.66m-38.8-.53c.63,0,1.78-.32,2.43-.32a1,1,0,0,1,.34.05c.56.19.24.95.24.95s1.54.47,2,.7.16,1.39-.55,1.7a.78.78,0,0,1-.33.07,2.19,2.19,0,0,1-1.25-.64s0,.37-.67.69a.78.78,0,0,1-.33.06,4,4,0,0,1-1.08-.22c.26,1,.5,1.76.63,2.09a3.06,3.06,0,0,0,2.28,1.67,2.64,2.64,0,0,0,.67.09c.44-.52.93-1.06,1.49-1.65a12.54,12.54,0,0,1,2.18-1.82C53,83.48,50.88,80.42,50,79.16a10.67,10.67,0,0,1-4.07.85c.16.63.35,1.37.54,2.13m2.91,8.72.21-.28a.84.84,0,0,0-.26.12,1,1,0,0,1,0,.16M82.18,32.15h0c-1.37,0-4.68.55-5.74,5.66-.4,1.92-.79,7,1.38,10a43.44,43.44,0,0,0-2.09,7.57c-.11-.17-.21-.35-.31-.53a40.08,40.08,0,0,0-5.61-7A15.19,15.19,0,0,0,68,38.69c-1.57-3-3.39-4.43-5.54-4.43a4.16,4.16,0,0,0-1.71.36c-.85.36-2.34,1-4.41,5.89h-.65c-.56,0-1.16,0-1.76-.05l-1.16,0a26.54,26.54,0,0,0-4.12.32A20,20,0,0,0,34.8,35.56a19.17,19.17,0,0,0-3.69.35c-6.93,1.39-11.36,5.69-16.37,15.9S9.69,65.47,11,71.12A14.49,14.49,0,0,0,14.87,78a4.52,4.52,0,0,0-1.74,1.5,6.5,6.5,0,0,0-.68.3A4.53,4.53,0,0,0,10,84a5.55,5.55,0,0,0,3.21,4.87,4.87,4.87,0,0,0,2,.42,5.18,5.18,0,0,0,1-.09,5,5,0,0,0,1.47.21A8.25,8.25,0,0,0,20.09,89a4.9,4.9,0,0,0,1,.1,7.08,7.08,0,0,0,2.48-.49c.36-.06,1.19-.11,1.71-.14a8.27,8.27,0,0,0,3.84-.8,9.73,9.73,0,0,0,2.8-2.92c.47,0,1,0,1.45,0s1,0,1.41,0a9.49,9.49,0,0,0,2.82,3,4.75,4.75,0,0,0,.87.39,4.94,4.94,0,0,0-1.23,4.21,4.36,4.36,0,0,0,1.13,2.19,10,10,0,0,0-3.64,5.9,8.06,8.06,0,0,0,2.4,7.08c3.64,3.64,12.23,4.62,16.73,4.62,5.39,0,16.44-.47,18.77-.75,4.84-.56,4.88-4,4.84-4.73a4.25,4.25,0,0,0-1.28-2.77,14.88,14.88,0,0,0,2.35.48c.8.11,1.69.19,2.64.23l1.23,0H83c.6,0,1.11,0,1.54-.07s1-.07,1.48-.07h.17a10.57,10.57,0,0,1,1.31.1l.46.09.23,0a7.73,7.73,0,0,0,1.56.2,5.34,5.34,0,0,0,1-.1,3.17,3.17,0,0,0,.44-.12,3.84,3.84,0,0,0,.56-.21,4.56,4.56,0,0,0,1.23-.84,4.89,4.89,0,0,0,1.94-1h.15a13.78,13.78,0,0,0,2.41-.18c2.38-.45,6.53-3,7.38-5.82a7,7,0,0,0-3.38-7.7,10.15,10.15,0,0,1-1.63-1.56,9.46,9.46,0,0,0,4.52-1.52,5.59,5.59,0,0,0,2-2.27c.09.16.17.33.26.5.22.41.45.85.66,1.27a4.67,4.67,0,0,0-1.1,4.42,5.25,5.25,0,0,0,5.08,4l.42.21a5.53,5.53,0,0,0,2.26.5,5,5,0,0,0,3-1,5.92,5.92,0,0,0,2.07.38,4.86,4.86,0,0,0,3.57-1.48,5.8,5.8,0,0,0,1-.89,4.7,4.7,0,0,0,1.3-3.43h.37a5.83,5.83,0,0,0,3.61,1.2,5.63,5.63,0,0,0,1.91-.32,4.27,4.27,0,0,0,1.55.3,4.46,4.46,0,0,0,4.07-2.73,4.42,4.42,0,0,0,.09-5.14l-.1-.21a8.13,8.13,0,0,0-.78-1.3,4.66,4.66,0,0,0,.8-3.07,4.89,4.89,0,0,0-.88-2.4,4,4,0,0,0-.71-3,4,4,0,0,0-3.26-1.65,4.36,4.36,0,0,0-.81.08,20.65,20.65,0,0,0,.42-4c.09-7.79-.4-13.45-7.69-20.74A33.72,33.72,0,0,0,113.31,38a6.39,6.39,0,0,0-1-2.52,5.84,5.84,0,0,0-4.19-2.56c-.3,0-.61-.06-.92-.06a10.14,10.14,0,0,0-6.42,2.76c-2.93.07-8.44.23-10.35.51-.68.1-1.35.24-2,.39-1.83-2.79-3.07-3.4-3.55-3.64a6.27,6.27,0,0,0-2.76-.68ZM70.91,72.08a10.4,10.4,0,0,0,4.27-1.89c.24,1.5.7,3.43,1.14,5.29.35,1.48.86,3.62,1,4.62l-.31.16-.13.07-.57.3-2.25-.4L72.73,80c.1-.13.2-.26.29-.4a4.93,4.93,0,0,0,.44-4.71,5.77,5.77,0,0,0-2.55-2.8Zm1.89,30.39.6-.07.34.2a6.87,6.87,0,0,0-.94-.13Z"/><path class="cls-6" d="M82.18,34.15a2.34,2.34,0,0,1,1,.27c1.31.65,3.45,4.79,3.45,4.79A23.44,23.44,0,0,1,91.05,38c2.25-.34,11.43-.5,11.43-.5s2.31-2.73,4.75-2.73a2.83,2.83,0,0,1,.41,0c2.58.33,1.58,3.92,1.58,3.92s5.12,1,11.38,7.21,6.6,10.6,6.52,17.87a15.13,15.13,0,0,1-.45,3.64,27.1,27.1,0,0,1-1.15,4.38,9.2,9.2,0,0,0,3.87,2.55,4.2,4.2,0,0,0,.68.09c.34,0,.22-.17-.1-.58-.74-.92,1.46-2.13,1.46-2.13s-1.17,1.13-.59,1.66,2.13,1.39,1.3,2.31a4.15,4.15,0,0,1-3.11,1,9,9,0,0,1-3.27-.62,7.33,7.33,0,0,1-1.61-1A11.73,11.73,0,0,0,123,77.93a7.38,7.38,0,0,0,3.45,1.22h.14c.89,0,2.87.63,4.11.63a2,2,0,0,0,.5,0l.29,0c.9,0,1.13,1.11,1.57,1.79s-.14.61-.21.94c-.12.55-.35.81-.56.81s-.29-.14-.36-.4a.69.69,0,0,0-.74-.42,2.06,2.06,0,0,0-.4,0,.65.65,0,0,1-.59.43,1,1,0,0,1-.49-.15c.14.31-.32.52-.88.52a1.72,1.72,0,0,1-1.33-.53c-.68-.82-2.08-.62-3.66-.71s-3,0-4.41-1-.86-3.85-1-5.82a10.86,10.86,0,0,1-1.33.5c.33,1.55-.17,4.31-.59,6s-1,2.59-.83,3.09c0,.13.15.18.31.18a8.81,8.81,0,0,0,1.77-.6,1.47,1.47,0,0,1,.44-.08,2.88,2.88,0,0,1,1.65.83c.75.58,1.34,1,.75,1.64-.31.34-.53.42-.67.42a.21.21,0,0,1-.16-.06c0,.52-.37.72-.82.72a2.05,2.05,0,0,1-1-.3,3.86,3.86,0,0,0-1.83-.78l-.17,0c-.68,0-.78.67-1.09,1.14a1.12,1.12,0,0,1-1,.57,1.47,1.47,0,0,1-.63-.16c-.76-.33,0-1.53,0-1.53a4.44,4.44,0,0,1-1.2.78,1.89,1.89,0,0,1-.81.2,1.24,1.24,0,0,1-1.25-1c-.25-1,.92-1,1.59-1.64s.58-.5,0-1.92-1.84-3.59-2.43-4.84c-.43-.94-.64-1.6-1.16-1.6a1.4,1.4,0,0,0-.67.24,5.41,5.41,0,0,1-2.74.61,9.94,9.94,0,0,1-1.48-.11c0,1.3-.2,2.51-1,3-1.45,1-2.82.88-4.4,1s-3-.11-3.66.71a1.72,1.72,0,0,1-1.33.53h0A11.33,11.33,0,0,1,95,85.56a16.58,16.58,0,0,0,4.37,4.81A3,3,0,0,1,101,93.49c-.27.89-2.86,2.77-4.28,3a9.61,9.61,0,0,1-1.68.12c-1.18,0-2.33-.12-2.33-.12v0a1.2,1.2,0,0,1-.54,1.12.89.89,0,0,1-.44.1h-.13a4.3,4.3,0,0,1-1.39-.45s.54,1.19-.15,1.51l-.08,0-.07,0-.17,0a3.52,3.52,0,0,1-.73-.12l-.26-.05-.65-.12a12.36,12.36,0,0,0-1.87-.15H86c-.53,0-1.14,0-1.83.08-.32,0-.74,0-1.22.06h-.51l-1.09,0c-.76,0-1.55-.09-2.28-.19a8,8,0,0,1-2.24-.55,1.75,1.75,0,0,1-.27-.16,13.08,13.08,0,0,0-1.76-1c-.49-.25-.82-.38-.82-.38a29.29,29.29,0,0,1-5.41.4H68.5c-1.3,0-2.52,0-3.45-.08l-.54,0-.79,0h-.24c-1,0-1.25.13-1,.66l.09.19a1.14,1.14,0,0,1,.12.51,1,1,0,0,1-.42.7,15.71,15.71,0,0,0-2.65-.81A1.44,1.44,0,0,1,60,99.52c-.33-.1-.7-.19-1.06-.26-.54-.11-1.11-.18-1.67-.24l-.19,0c-1.31-.12-2.62-.14-3.66-.17l-.73,0a2.06,2.06,0,0,1-2.06-2.08c0-.13,0-.26-.05-.38a.58.58,0,0,0-.38-.5,2.07,2.07,0,0,0-.77-.14h-.07a5.73,5.73,0,0,0-1,.1,7.17,7.17,0,0,0-.82.09,7.5,7.5,0,0,0-.78.15,10,10,0,0,0-1.66.54,6.52,6.52,0,0,0-1.07.57c-.17.12-.34.24-.51.38A4.67,4.67,0,0,0,42,99.7a1.91,1.91,0,0,0-.06.33.55.55,0,0,0,0,.18c.19,3.13,11.86,4.25,17.46,4.25h.78c1.69,0,3.36,0,4.91,0,3.32,0,6.06.06,7.08.06h.15c1.3,0,1.87.71-.14.94s-12.83.72-18.3.72S42,104.74,40,102.67c-2.25-2.26-2.31-6.11,5.14-9.71a10,10,0,0,0,3.63-3.29l-.19,0h-.17c-.57,0-.85-.4-1.55-.87a2.18,2.18,0,0,0-1.28-.37c-.26,0-.49,0-.7,0a1.54,1.54,0,0,0-1.28,1,1.18,1.18,0,0,1-1.15.56,3,3,0,0,1-.83-.13c-.77-.26-.34-1,.26-1.55a4.84,4.84,0,0,0,1.29-2c.08-.43-.41-1.27-1.68-3.09-.15-.23-.35-.53-.59-.87a4.12,4.12,0,0,1-1.23-.2,6.42,6.42,0,0,1-1.66-2,3.76,3.76,0,0,1,0-1.7c-1.55.12-3,.22-4.54.22A28.66,28.66,0,0,1,29,78.42a3.44,3.44,0,0,1-.09,1.52,7.25,7.25,0,0,1-1.8,2.24c-.52.3-3.82.21-4.81.6a3.46,3.46,0,0,1-1.21.28.79.79,0,0,1-.81-.47,9,9,0,0,1-2.64.81.9.9,0,0,1-.36-.06c-.69-.35-.73-.75-.73-.75a2.36,2.36,0,0,1-1.36.69.92.92,0,0,1-.36-.07c-.77-.35-1.11-1.59-.6-1.85a22.09,22.09,0,0,1,2.19-.76s-.35-.83.25-1a1.06,1.06,0,0,1,.38,0c.78,0,2.21.36,2.83.36H20a22.19,22.19,0,0,0,3.27-1,1.18,1.18,0,0,0,.85-1.11c0-.18,0-.39,0-.61-5-1.84-8.43-5.15-9.31-9-1-4.47-1.37-6.87,3.44-16.66s8.41-12.71,13.56-13.74a15.18,15.18,0,0,1,2.9-.27c4.64,0,9.84,1.93,12.31,5.6a22.59,22.59,0,0,1,5.63-.71c.32,0,.64,0,1,0,.72,0,1.37.05,1.95.05a20.8,20.8,0,0,0,3.47-.22s2-5.5,3.17-6a.28.28,0,0,1,.13,0c1.33,0,5.15,7.19,2.78,10.67,0,0,4.89,4.64,6.74,7.9s3.62,5.32,3.33,7c-.23,1.43-1,1.55-1.23,1.55H74s-.63,2.3-4.42,2.84c-4.91.71-9.83.59-12.24,3a14.8,14.8,0,0,0-1.79,2.46,15,15,0,0,0,2.63,1.68A23.93,23.93,0,0,0,66,74.89a8.14,8.14,0,0,0,1.89-.18c2.5-.62-3.63-2.06-3.63-2.06h0c.37,0,4.75,0,5.47,1.76s-2.42,2.32-5.15,2.32l-.85,0a26,26,0,0,1-7.7-1.39c.7,2.16,1.58,4.82,2.2,6.43a18.4,18.4,0,0,1,5.7-.92,16,16,0,0,1,1.75.09c3.74.45,9.8,1.7,11.41,1.88h0a12.23,12.23,0,0,1,1.71-1,1.58,1.58,0,0,1,.73-.2c.42,0,.72.21,1.12.21h.13c.67-.08.5-1.5.5-3.34s-1.75-7.85-2.25-11a36.7,36.7,0,0,1,0-7.85,38.81,38.81,0,0,1,2.67-12.94c.42-1.17.83-1.84-.42-2.84s-1.5-4.76-1-7.18c.36-1.77,1-2.47,1.82-2.47m3.08,46.52a13.56,13.56,0,0,1,2.2-.19,7.26,7.26,0,0,1,1.25.12c.33-.65.62-1.43,1.38-1.43l.29,0a1.88,1.88,0,0,0,.5,0c1.24,0,3.22-.63,4.11-.63h.14a7.29,7.29,0,0,0,3.44-1.22c.08-.13-.23-.76-.71-1.77-1.61-.87-2.37-1.56-4.48-1.87a4,4,0,0,0-.69-.05c-2.66,0-5.06,2.17-5.9,3.3a9.84,9.84,0,0,0-1.53,3.66m-38.8-.53c.63,0,1.78-.32,2.43-.32a1,1,0,0,1,.34.05c.56.19.24.95.24.95s1.54.47,2,.7.16,1.39-.55,1.7a.78.78,0,0,1-.33.07,2.19,2.19,0,0,1-1.25-.64s0,.37-.67.69a.78.78,0,0,1-.33.06,4,4,0,0,1-1.08-.22c.26,1,.5,1.76.63,2.09a3.06,3.06,0,0,0,2.28,1.67,2.64,2.64,0,0,0,.67.09c.44-.52.93-1.06,1.49-1.65a12.54,12.54,0,0,1,2.18-1.82C53,81.48,50.88,78.42,50,77.16a10.67,10.67,0,0,1-4.07.85c.16.63.35,1.37.54,2.13m2.91,8.72.21-.28a.84.84,0,0,0-.26.12,1,1,0,0,1,0,.16M82.18,30.15h0c-1.37,0-4.68.55-5.74,5.66-.4,1.92-.79,7,1.38,10a43.44,43.44,0,0,0-2.09,7.57c-.11-.17-.21-.35-.31-.53a40.08,40.08,0,0,0-5.61-7A15.19,15.19,0,0,0,68,36.69c-1.57-3-3.39-4.43-5.54-4.43a4.16,4.16,0,0,0-1.71.36c-.85.36-2.34,1-4.41,5.89h-.65c-.56,0-1.16,0-1.76-.05l-1.16,0a26.54,26.54,0,0,0-4.12.32A20,20,0,0,0,34.8,33.56a19.17,19.17,0,0,0-3.69.35c-6.93,1.39-11.36,5.69-16.37,15.9S9.69,63.47,11,69.12A14.49,14.49,0,0,0,14.87,76a4.52,4.52,0,0,0-1.74,1.5,6.5,6.5,0,0,0-.68.3A4.53,4.53,0,0,0,10,82a5.55,5.55,0,0,0,3.21,4.87,4.87,4.87,0,0,0,2,.42,5.18,5.18,0,0,0,1-.09,5,5,0,0,0,1.47.21A8.25,8.25,0,0,0,20.09,87a4.9,4.9,0,0,0,1,.1,7.08,7.08,0,0,0,2.48-.49c.36-.06,1.19-.11,1.71-.14a8.27,8.27,0,0,0,3.84-.8,9.73,9.73,0,0,0,2.8-2.92c.47,0,1,0,1.45,0s1,0,1.41,0a9.49,9.49,0,0,0,2.82,3,4.75,4.75,0,0,0,.87.39,4.94,4.94,0,0,0-1.23,4.21,4.36,4.36,0,0,0,1.13,2.19,10,10,0,0,0-3.64,5.9,8.06,8.06,0,0,0,2.4,7.08c3.64,3.64,12.23,4.62,16.73,4.62,5.39,0,16.44-.47,18.77-.75,4.84-.56,4.88-4,4.84-4.73a4.25,4.25,0,0,0-1.28-2.77,14.88,14.88,0,0,0,2.35.48c.8.11,1.69.19,2.64.23l1.23,0H83c.6,0,1.11,0,1.54-.07s1-.07,1.48-.07h.17a10.57,10.57,0,0,1,1.31.1l.46.09.23,0a7.73,7.73,0,0,0,1.56.2,5.34,5.34,0,0,0,1-.1,3.17,3.17,0,0,0,.44-.12,3.84,3.84,0,0,0,.56-.21,4.56,4.56,0,0,0,1.23-.84,4.89,4.89,0,0,0,1.94-1h.15a13.78,13.78,0,0,0,2.41-.18c2.38-.45,6.53-3,7.38-5.82a7,7,0,0,0-3.38-7.7,10.15,10.15,0,0,1-1.63-1.56,9.46,9.46,0,0,0,4.52-1.52,5.59,5.59,0,0,0,2-2.27c.09.16.17.33.26.5.22.41.45.85.66,1.27a4.67,4.67,0,0,0-1.1,4.42,5.25,5.25,0,0,0,5.08,4l.42.21a5.53,5.53,0,0,0,2.26.5,5,5,0,0,0,3-1,5.92,5.92,0,0,0,2.07.38,4.86,4.86,0,0,0,3.57-1.48,5.8,5.8,0,0,0,1-.89,4.7,4.7,0,0,0,1.3-3.43h.37a5.83,5.83,0,0,0,3.61,1.2,5.63,5.63,0,0,0,1.91-.32,4.27,4.27,0,0,0,1.55.3,4.46,4.46,0,0,0,4.07-2.73,4.42,4.42,0,0,0,.09-5.14l-.1-.21a8.13,8.13,0,0,0-.78-1.3,4.66,4.66,0,0,0,.8-3.07,4.89,4.89,0,0,0-.88-2.4,4,4,0,0,0-.71-3,4,4,0,0,0-3.26-1.65,4.36,4.36,0,0,0-.81.08,20.65,20.65,0,0,0,.42-4c.09-7.79-.4-13.45-7.69-20.74A33.72,33.72,0,0,0,113.31,36a6.39,6.39,0,0,0-1-2.52,5.84,5.84,0,0,0-4.19-2.56c-.3,0-.61-.06-.92-.06a10.14,10.14,0,0,0-6.42,2.76c-2.93.07-8.44.23-10.35.51-.68.1-1.35.24-2,.39-1.83-2.79-3.07-3.4-3.55-3.64a6.27,6.27,0,0,0-2.76-.68ZM70.91,70.08a10.4,10.4,0,0,0,4.27-1.89c.24,1.5.7,3.43,1.14,5.29.35,1.48.86,3.62,1,4.62l-.31.16-.13.07-.57.3-2.25-.4L72.73,78c.1-.13.2-.26.29-.4a4.93,4.93,0,0,0,.44-4.71,5.77,5.77,0,0,0-2.55-2.8Zm1.89,30.39.6-.07.34.2a6.87,6.87,0,0,0-.94-.13Z"/><path class="cls-8" d="M132.88,82.07c-.48-.74-.71-2-1.86-1.75s-3.71-.62-4.68-.58a7.37,7.37,0,0,1-3.51-1.22c-.24-.37,2.67-4.65,3.68-10.45a15.69,15.69,0,0,0,.44-3.64c.08-7.27-.25-11.61-6.51-17.87s-11.38-7.21-11.38-7.21,1-3.59-1.59-3.92-5.15,2.7-5.15,2.7-9.19.16-11.44.5a23.44,23.44,0,0,0-4.43,1.17S84.31,35.66,83,35s-2.31-.22-2.81,2.2-.25,6.18,1,7.18.84,1.67.42,2.84a38.81,38.81,0,0,0-2.67,12.94,37.43,37.43,0,0,0,0,7.85c.5,3.17,2.25,9.18,2.25,11s.17,3.26-.5,3.34-1-.5-2,0-2.45,1.25-2,1.67,1.11,0,1.11,0a2.76,2.76,0,0,0,0,1.17c.15.5.18.33,1.12,0s2-1.47,2.3-.82,1,.9.9,1.65,1.84,1,1.84,0-.25-1.5.42-1a1.66,1.66,0,0,0,2,.25c.58-.42,2-1,.83-1.42s-1.66-.5-2.08-1.42.58-3.62,1.5-4.86,3.67-3.69,6.6-3.25c2.1.31,2.87,1,4.47,1.87.48,1,.8,1.64.71,1.77a7.33,7.33,0,0,1-3.51,1.22c-1,0-3.53.84-4.68.58s-1.38,1-1.86,1.76.13.61.21.94c.21,1,.74,1,.92.41s1.14-.38,1.14-.38a.71.71,0,0,0,1.08.28c-.25.57,1.53.81,2.21,0s2.08-.62,3.66-.71,3,0,4.41-1c.76-.5.93-1.71,1-3a6.57,6.57,0,0,0,4.22-.5c1.09-.65,1.25.1,1.84,1.36s1.83,3.42,2.42,4.84.67,1.25,0,1.92-1.84.68-1.59,1.64a1.36,1.36,0,0,0,2.06.78,4.22,4.22,0,0,0,1.2-.78s-.75,1.2,0,1.53a1.15,1.15,0,0,0,1.59-.41c.33-.51.41-1.24,1.25-1.12a3.81,3.81,0,0,1,1.83.78c.67.42,1.84.5,1.84-.42,0,0,.25.27.84-.36s0-1.06-.75-1.64-1.34-1-2.09-.75-1.92.92-2.09.42.42-1.42.84-3.09.91-4.44.58-6a10.86,10.86,0,0,0,1.33-.5c.13,2-.33,4.94,1,5.82s2.82.88,4.4,1,3-.11,3.66.71,2.47.58,2.21,0a.72.72,0,0,0,1.09-.28s.95-.24,1.13.38.71.54.92-.41C132.75,82.69,133.36,82.82,132.88,82.07Z"/><path class="cls-9" d="M82,55.67s-3.07,2.91-2.65,5.64S80.8,66,83,66.2a4.23,4.23,0,0,0,3,1.57,11.32,11.32,0,0,0,5.71-.83c1.49-.74,4.47.17,4.47.17"/><path class="cls-9" d="M91.75,64.46a3.58,3.58,0,0,1-4,1.65c-3-.49-3.87-1.65-3.87-1.65A2.58,2.58,0,0,1,83,66.2"/><path class="cls-10" d="M83.62,63.34c.51-.19.54-.71,1.16-1s1.3-.63,1.26-1.8-.46-2.25-.84-2.29-1.29,1.71-1.84,2S82.2,60.63,82,60s-.38-1.25-.5-.91a1.9,1.9,0,0,0,0,2.08c.67.88,1.36,1.17,1.47,1.51S83.29,63.47,83.62,63.34Z"/><path class="cls-11" d="M82.86,61.74c.06,0-.22-.31-.47-.45s-.34-.15-.18.1A.73.73,0,0,0,82.86,61.74Z"/><path class="cls-11" d="M84,61.29a1.69,1.69,0,0,0,.58-.65,2.86,2.86,0,0,1,.39-1c.16-.13.18.4,0,.89s-.29.74-.63.89S83.7,61.52,84,61.29Z"/><path class="cls-12" d="M91.64,51.33c.5-.69.42-1.35.94-2a1.94,1.94,0,0,1,2.59-.52c.94.69,1,1.14,1,1.14a3.65,3.65,0,0,1-.46,1.89,2,2,0,0,1-2.24.33C92.41,51.64,92.24,51.27,91.64,51.33Z"/><path class="cls-12" d="M82.5,49.89c.55-.73.55-1.88.37-1.94s-.35.22-.74.37-.92.29-1.07.94a3.31,3.31,0,0,0-.16,1.47c.09.38.19.57.6.19A5.19,5.19,0,0,0,82.5,49.89Z"/><path class="cls-8" d="M120.51,70.93a9.6,9.6,0,0,0,5.08,5.83c2,.8,5.13,1,6.38-.41.83-.92-.71-1.78-1.29-2.31s.58-1.66.58-1.66-2.2,1.21-1.46,2.13c.46.58.5.69-.58.49s-4-2.07-4.54-3.65"/><path class="cls-13" d="M65,47.52s4.89,4.64,6.74,7.9,3.62,5.32,3.34,7S73.79,64,73.79,64s-.62,2.29-4.41,2.84c-4.91.71-9.84.59-12.24,3s-3.77,8.59-11.42,8.76-12.45,1.55-19,0-11-5.32-12-9.79S13.35,62,18.16,52.16s8.41-12.71,13.56-13.74,12.21.86,15.21,5.33a22.71,22.71,0,0,1,6.6-.69A26.11,26.11,0,0,0,59,42.89s2-5.5,3.18-6S67.48,43.92,65,47.52Z"/><path class="cls-13" d="M35.63,75.3s4.4,6.8,5.67,8.62S43.06,86.59,43,87a5,5,0,0,1-1.29,2c-.6.51-1,1.29-.26,1.55s1.72.17,2-.43a1.53,1.53,0,0,1,1.29-1,2.89,2.89,0,0,1,2,.34c.77.51,1,.94,1.72.86,0,0,1.24,0,.77-1,0,0,.39-.34,1.2,0s1.12,1,2.11,1,1.37-.56,1.11-1.08-.51-.55-.51-.55.58.13.59-.43-.12-.86-.55-.78a10.44,10.44,0,0,1-3.09.09,3,3,0,0,1-2.27-1.67c-.52-1.25-2.45-9.15-2.45-9.15"/><path class="cls-13" d="M28.76,78.39a4.89,4.89,0,0,1,0,2.14A7.25,7.25,0,0,1,27,82.77c-.52.3-3.82.21-4.81.6s-1.76.43-2-.19c0,0-2.31,1.09-3,.74s-.73-.74-.73-.74-.95,1-1.72.62-1.1-1.59-.59-1.85a22.13,22.13,0,0,1,2.18-.76s-.34-.83.26-1,2.75.38,3.35.3a22.07,22.07,0,0,0,3.26-1A1.18,1.18,0,0,0,24,78.39c0-.6.08-1.68.08-1.68"/><path class="cls-13" d="M37.81,78.84a4.45,4.45,0,0,0,0,2,6.7,6.7,0,0,0,1.66,2c.47.28,3.51.2,4.42.56s1.62.4,1.86-.18c0,0,2.13,1,2.76.69s.67-.69.67-.69.87.89,1.58.57,1-1.46.55-1.7-2-.7-2-.7.32-.76-.23-1-2.53.36-3.08.28a19.89,19.89,0,0,1-3-.87,1.09,1.09,0,0,1-.79-1c0-.55-.07-1.55-.07-1.55"/><path class="cls-13" d="M49.41,77.16s6,8.48,6.44,9a4.21,4.21,0,0,0,2.53.94,13.14,13.14,0,0,1,3.09.39c.47.26,1.25,0,1.12-.39s-.86-.64-.86-.64a1.74,1.74,0,0,1,.87-.09,4.63,4.63,0,0,0,1.7.13c.35-.13,0-.77,0-.77a3.7,3.7,0,0,0,1.46-.13c.35-.21-.34-1-.34-1a12,12,0,0,0-2.27,0,13.39,13.39,0,0,1-4.38-.77c-.56-.39-4-11.42-4-11.42"/><path class="cls-14" d="M45.93,53.73a2.75,2.75,0,0,0-1.8-1.68c-1.29-.26-4.83-1.29-5.34-4.25s-.58-5.47.9-6.24,2.57-.52,4.18.64,2.58,1.87,3.48,1.87,1.54,3.47,0,4.31-1.93,1.1-1.61,2S47.09,53,45.93,53.73Z"/><path class="cls-12" d="M58.46,53.18A1.67,1.67,0,0,0,57.3,51.6c-.74-.19-2.29.26-2.55,1s-.25,1.93.74,2.25A2.14,2.14,0,0,0,58.46,53.18Z"/><path class="cls-15" d="M73.62,63.79S71.94,66,67.7,66s-6.12-2.84-7.15-2.65"/><path class="cls-13" d="M52.72,70.13A29.07,29.07,0,0,0,58,74c2,.88,7.25,1.92,9.75,1.31s-3.63-2.06-3.63-2.06,4.75,0,5.5,1.76-3.12,2.45-6,2.29-6.56-.58-9-2"/><path class="cls-16" d="M45,93.55c2.79-1.35,3.47-3.66,7.22-7.58s9.63-4.9,13.37-4.46,9.81,1.7,11.41,1.88a6.86,6.86,0,0,0,3-.45c.89-.18,3.39-1.87,7.31-1.87s6.69,3.47,7.58,5.08A16.31,16.31,0,0,0,99.24,91a3,3,0,0,1,1.6,3.12c-.27.89-2.85,2.77-4.28,3a18.49,18.49,0,0,1-4,0A1.24,1.24,0,0,1,92,98.27c-.62.36-2-.35-2-.35s.54,1.19-.14,1.51-1.67-.66-5.89-.29c-1.69.15-6.36,0-7.61-.87a13.58,13.58,0,0,0-2.58-1.42c-3.48.71-9.54.26-10.52.26s-1.25.13-1,.66.37.87-.21,1.4a15.74,15.74,0,0,0-2.64-.81,1.45,1.45,0,0,1,.32,1.75c-2.29-.71-5.52-.63-7.3-.72s-2-1.47-2.11-2.46-2.23-.53-2.23-.53-5.14.2-6.33,3.89S54.55,105.16,60,105s10.82,0,12.13,0,1.9.7-.12.94-12.84.71-18.31.71-11.84-1.37-13.9-3.44C37.55,101,37.49,97.15,45,93.55Z"/><path class="cls-17" d="M86.81,88.31c1.14.69-1.54,1.13-3.32.42s-4-3.68-3-5,3.74-1.25,5.05,0,2,1.28,1.3,2.19A1.67,1.67,0,0,0,86.81,88.31Z"/><path class="cls-17" d="M92,98.27c-.62.36-2-.35-2-.35s.54,1.19-.14,1.51-1.67-.66-5.89-.29c-1.69.15-6.36,0-7.61-.87a13.58,13.58,0,0,0-2.58-1.42c-3.48.71-9.54.26-10.52.26s-1.25.13-1,.66.37.87-.21,1.4a15.74,15.74,0,0,0-2.64-.81,1.45,1.45,0,0,1,.32,1.75c-2.29-.71-5.52-.63-7.3-.72s-2-1.47-2.11-2.46-2.23-.53-2.23-.53-5.14.2-6.33,3.89a1.43,1.43,0,0,0-.06.64c-.62-.68-.9-1.68.47-3C45,95.29,48.66,94,50,94.68s.8,1.91,1.07,2.78,2.67,1.31,4,1.31.71-2.08-.36-2.56-3.56-.37-2.49-1.71,2.23-1.75,5.44-.61,9.5.91,12,.64c3.48-.38,4.82-2.71,7.94-2.62s4.1.78,3.84,2-.72,1.47,1.33,1.43,7.64-.59,9.75,1.78A1.24,1.24,0,0,1,92,98.27Z"/><ellipse class="cls-18" cx="91.39" cy="88.65" rx="1.17" ry="1.58" transform="translate(-29.1 129.78) rotate(-62.98)"/><circle class="cls-19" cx="91.39" cy="88.65" r="0.62"/><path class="cls-20" d="M133.05,81.49c-.48-.75-.71-2-1.86-1.76s-3.71-.62-4.68-.58A7.31,7.31,0,0,1,123,77.93a11.73,11.73,0,0,1,1.16-2.71,7.33,7.33,0,0,0,1.61,1c2,.8,5.13,1,6.38-.41.83-.92-.71-1.78-1.3-2.31s.59-1.66.59-1.66S129.23,73,130,73.92c.46.58.5.69-.58.49a9.2,9.2,0,0,1-3.87-2.55,27.1,27.1,0,0,0,1.15-4.38,15.13,15.13,0,0,0,.45-3.64c.08-7.27-.25-11.61-6.52-17.87s-11.38-7.21-11.38-7.21,1-3.58-1.58-3.92-5.16,2.7-5.16,2.7-9.18.16-11.43.5a23.44,23.44,0,0,0-4.43,1.17s-2.14-4.14-3.45-4.79-2.31-.22-2.81,2.2-.25,6.18,1,7.18.84,1.67.42,2.84a38.81,38.81,0,0,0-2.67,12.94,36.7,36.7,0,0,0,0,7.85c.5,3.17,2.25,9.18,2.25,11s.17,3.26-.5,3.34-1-.5-2,0a12.23,12.23,0,0,0-1.71,1h0c-1.61-.18-7.67-1.43-11.41-1.88a18,18,0,0,0-7.45.83c-.62-1.61-1.5-4.27-2.2-6.43a26,26,0,0,0,7.7,1.39c2.88.15,6.75-.49,6-2.3s-5.5-1.76-5.5-1.76,6.13,1.44,3.63,2.06-7.79-.43-9.75-1.31a15,15,0,0,1-2.63-1.68,14.8,14.8,0,0,1,1.79-2.46c2.41-2.41,7.33-2.29,12.24-3,3.79-.54,4.42-2.84,4.42-2.84s1,.17,1.31-1.55-1.48-3.78-3.33-7-6.74-7.9-6.74-7.9c2.45-3.6-1.72-11.16-2.91-10.64s-3.17,6-3.17,6a26.19,26.19,0,0,1-5.42.17,22.71,22.71,0,0,0-6.6.69c-3-4.47-10.06-6.36-15.21-5.33s-8.76,4-13.56,13.74-4.47,12.19-3.44,16.66c.88,3.81,4.27,7.12,9.31,9,0,.22,0,.43,0,.61a1.18,1.18,0,0,1-.85,1.11,22.19,22.19,0,0,1-3.27,1c-.6.08-2.74-.52-3.35-.3s-.25,1-.25,1a22.09,22.09,0,0,0-2.19.76c-.51.26-.17,1.5.6,1.85s1.72-.62,1.72-.62,0,.4.73.75,3-.75,3-.75c.26.62,1,.57,2,.19s4.29-.3,4.81-.6a7.25,7.25,0,0,0,1.8-2.24A3.44,3.44,0,0,0,29,78.42a37.43,37.43,0,0,0,8.91.1,3.76,3.76,0,0,0,0,1.7,6.42,6.42,0,0,0,1.66,2,4.12,4.12,0,0,0,1.23.2l.59.87c1.27,1.82,1.76,2.66,1.68,3.09a4.84,4.84,0,0,1-1.29,2c-.6.52-1,1.29-.26,1.55s1.72.17,2-.43a1.54,1.54,0,0,1,1.28-1,2.91,2.91,0,0,1,2,.34c.77.51,1,.94,1.72.86l.19,0A10,10,0,0,1,45.11,93c-7.45,3.6-7.39,7.45-5.14,9.71,2.07,2.07,8.44,3.45,13.91,3.45s16.28-.48,18.3-.72,1.43-1,.12-.94-6.65-.13-12.12,0c-5.2.11-18-1-18.24-4.24a.55.55,0,0,1,0-.18A1.91,1.91,0,0,1,42,99.7a4.67,4.67,0,0,1,1.49-2.16c.17-.14.34-.26.51-.38a6.52,6.52,0,0,1,1.07-.57,10,10,0,0,1,1.66-.54c.29-.06.55-.12.78-.15a7.17,7.17,0,0,1,.82-.09,5.67,5.67,0,0,1,1.08-.1,2.07,2.07,0,0,1,.77.14.58.58,0,0,1,.38.5c0,.12,0,.25.05.38a2.06,2.06,0,0,0,2.06,2.08l.73,0c1,0,2.35,0,3.66.17l.19,0c.56.06,1.13.14,1.67.24.36.07.73.16,1.06.26a1.44,1.44,0,0,0-.33-1.75,15.71,15.71,0,0,1,2.65.81,1,1,0,0,0,.42-.7,1.14,1.14,0,0,0-.12-.51l-.09-.19c-.27-.53,0-.66,1-.66h.24l.79,0,.54,0c1,0,2.21.08,3.54.08a29.29,29.29,0,0,0,5.41-.4s.33.13.82.38a13.08,13.08,0,0,1,1.76,1,1.75,1.75,0,0,0,.27.16,8,8,0,0,0,2.24.55c.73.1,1.52.16,2.28.19l1.09,0H83c.48,0,.9,0,1.22-.06a19.45,19.45,0,0,1,2-.08,12.36,12.36,0,0,1,1.87.15l.65.12.26.05a2.27,2.27,0,0,0,.9.1l.07,0,.08,0c.69-.32.15-1.51.15-1.51a4.3,4.3,0,0,0,1.39.45,1,1,0,0,0,.57-.1,1.2,1.2,0,0,0,.54-1.12v0a18.49,18.49,0,0,0,4,0c1.42-.26,4-2.14,4.28-3a3,3,0,0,0-1.61-3.12A16.58,16.58,0,0,1,95,85.56a11.33,11.33,0,0,0-2.3-2.83,1.74,1.74,0,0,0,1.35-.53c.68-.82,2.08-.62,3.66-.71s3,0,4.4-1c.77-.5.94-1.71,1-3a6.57,6.57,0,0,0,4.22-.5c1.08-.65,1.25.1,1.83,1.36s1.84,3.42,2.43,4.84.66,1.25,0,1.92-1.84.68-1.59,1.64a1.36,1.36,0,0,0,2.06.78,4.44,4.44,0,0,0,1.2-.78s-.76,1.2,0,1.53a1.13,1.13,0,0,0,1.58-.41c.34-.51.42-1.24,1.26-1.12a3.86,3.86,0,0,1,1.83.78c.67.42,1.84.5,1.84-.42,0,0,.25.27.83-.36s0-1-.75-1.64-1.33-1-2.09-.75-1.92.92-2.08.42.42-1.42.83-3.09.92-4.43.59-6a10.86,10.86,0,0,0,1.33-.5c.13,2-.34,4.94,1,5.82s2.82.88,4.41,1,3-.11,3.66.71,2.46.58,2.21,0a.71.71,0,0,0,1.08-.28s.95-.24,1.14.38.71.54.92-.41C132.91,82.1,133.53,82.23,133.05,81.49Zm-75.17.18a18.91,18.91,0,0,0-5.54,3.71c-.56.59-3.16,3.77-3.6,4.29M50.85,87a2.64,2.64,0,0,1-.67-.09,3.06,3.06,0,0,1-2.28-1.67c-.13-.33-.37-1.11-.63-2.09a2.33,2.33,0,0,0,1.41.16c.63-.32.67-.69.67-.69s.87.89,1.58.57,1-1.46.55-1.7-2-.7-2-.7.32-.76-.24-.95a12.86,12.86,0,0,0-2.77.27c-.19-.76-.38-1.5-.54-2.13A10.67,10.67,0,0,0,50,77.16c.89,1.27,3,4.32,4.53,6.4m38.21-.83c-2.73-2.06-4.29-2.28-5.27-2.25a19.86,19.86,0,0,0-6.6,1.31m4.4-1.12A9.84,9.84,0,0,1,86.79,77c.92-1.23,3.67-3.69,6.59-3.25,2.11.31,2.87,1,4.48,1.87.48,1,.79,1.64.71,1.77a7.27,7.27,0,0,1-3.51,1.22c-1,0-3.54.84-4.68.58-1-.22-1.3.67-1.67,1.4"/></g></g></svg>