<?xml version="1.0" encoding="utf-8"?>
<!-- Generator: Adobe Illustrator 22.0.1, SVG Export Plug-In . SVG Version: 6.00 Build 0)  -->
<svg version="1.1" id="Layer_1" xmlns="http://www.w3.org/2000/svg" xmlns:xlink="http://www.w3.org/1999/xlink" x="0px" y="0px"
	 viewBox="0 0 119 79" style="enable-background:new 0 0 119 79;" xml:space="preserve">
<style type="text/css">
	.st0{fill:#FFCB31;}
	.st1{fill:#00A0E3;}
	.st2{fill:#231F20;}
	.st3{fill:#0065D3;}
	.st4{fill:#FFFFFF;}
	.st5{fill:#EA6A26;}
	.st6{fill:#3BB54A;}
	.st7{fill:#DB1E3B;}
	.st8{fill:#F1A61E;}
	.st9{fill:#4B96D0;}
	.st10{fill:#32639A;}
	.st11{fill:#2A3F63;}
	.st12{fill:#666666;}
	.st13{fill:#F06045;}
</style>
<g>
	<path class="st0" d="M107.2,37.4c-1,3.6-3.3,6.2-7.7,6.2c0,0-0.2,0-0.3,0c-4.4,0-8-1.3-8-9.4c0-0.5,0-11.8,0-11.8h8.3
		c5.4,0,8.2,4.7,8.2,10.6C107.7,34.6,107.5,36.1,107.2,37.4z"/>
	<path class="st1" d="M68.9,22.4c6.8,0,8,7.5,8,8H60.9C61.5,25.7,64.6,22.4,68.9,22.4z"/>
	<g>
		<path class="st2" d="M99.5,17.1c-0.1,0-0.2,0-0.3,0l-8,0c-2.9,0-5.3,2.4-5.3,5.3l0,37.1c0,0,0,0,0,0c0,1.5,1.2,2.7,2.6,2.7
			c1.5,0,2.6-1.2,2.7-2.6c0,0,0,0,0,0h0v-13c2,1.5,4.8,2.4,8.2,2.4c9.9,0,13.5-7.1,13.5-15.9C113,24.2,108.3,17.1,99.5,17.1z
			 M107.2,37.4c-1,3.6-3.3,6.2-7.7,6.2c0,0-0.2,0-0.3,0c-4.4,0-8-1.3-8-9.4c0-0.5,0-11.8,0-11.8h8.3c5.4,0,8.2,4.7,8.2,10.6
			C107.7,34.6,107.5,36.1,107.2,37.4z"/>
		<path class="st2" d="M78.6,67.2c-0.2,0-0.3,0.1-0.4,0.2C78,67.5,78,67.7,78,67.9v3.5c0,0.2,0.1,0.4,0.2,0.6
			c0.1,0.1,0.3,0.2,0.4,0.2c0.2,0,0.3-0.1,0.4-0.2c0.1-0.1,0.2-0.3,0.2-0.6v-3.6c0-0.2-0.1-0.4-0.2-0.5
			C78.9,67.2,78.8,67.2,78.6,67.2z"/>
		<path class="st2" d="M13,71H9.8v-1.9h2.8c0.2,0,0.4,0,0.5-0.1c0.1-0.1,0.1-0.2,0.1-0.4c0-0.2-0.1-0.3-0.2-0.4
			c-0.1-0.1-0.3-0.1-0.5-0.1H9.8v-1.6h3c0.2,0,0.4,0,0.5-0.1c0.1-0.1,0.2-0.2,0.2-0.4c0-0.2-0.1-0.3-0.2-0.4
			c-0.1-0.1-0.3-0.1-0.5-0.1H9.3c-0.2,0-0.3,0-0.5,0.1c-0.1,0.1-0.2,0.1-0.3,0.3c-0.1,0.1-0.1,0.3-0.1,0.5v5c0,0.3,0.1,0.5,0.2,0.6
			C8.8,72,9,72.1,9.3,72.1H13c0.2,0,0.4,0,0.5-0.1c0.1-0.1,0.2-0.2,0.2-0.4c0-0.2-0.1-0.3-0.2-0.4C13.4,71.1,13.2,71,13,71z"/>
		<path class="st2" d="M18.8,65.3c-0.2,0-0.3,0.1-0.4,0.2c-0.1,0.1-0.2,0.3-0.2,0.6v1.8c-0.2-0.3-0.5-0.4-0.7-0.6
			c-0.2-0.1-0.5-0.2-0.9-0.2c-0.6,0-1.1,0.2-1.5,0.6c-0.4,0.4-0.6,1-0.6,1.8c0,0.4,0,0.7,0.1,1c0.1,0.3,0.2,0.6,0.4,0.8
			c0.2,0.2,0.4,0.4,0.7,0.5c0.3,0.1,0.5,0.2,0.8,0.2c0.2,0,0.4,0,0.6-0.1c0.2-0.1,0.4-0.2,0.5-0.3c0.2-0.1,0.3-0.3,0.5-0.5v0.1
			c0,0.2,0.1,0.4,0.2,0.5c0.1,0.1,0.3,0.2,0.4,0.2c0.2,0,0.3-0.1,0.4-0.2c0.1-0.1,0.2-0.3,0.2-0.5V66c0-0.2,0-0.4-0.2-0.5
			C19.1,65.4,19,65.3,18.8,65.3z M18,70.6c-0.1,0.2-0.3,0.4-0.4,0.5c-0.2,0.1-0.4,0.2-0.6,0.2c-0.2,0-0.4-0.1-0.6-0.2
			c-0.2-0.1-0.3-0.3-0.4-0.5c-0.1-0.2-0.2-0.5-0.2-0.9c0-0.3,0-0.6,0.1-0.8c0.1-0.2,0.2-0.4,0.4-0.6c0.2-0.1,0.4-0.2,0.6-0.2
			c0.2,0,0.4,0.1,0.6,0.2c0.2,0.1,0.3,0.3,0.4,0.5c0.1,0.2,0.2,0.5,0.2,0.9C18.1,70,18.1,70.3,18,70.6z"/>
		<path class="st2" d="M29.7,70.1c-0.1,0-0.2,0-0.3,0.1c-0.1,0.1-0.2,0.2-0.2,0.3c-0.1,0.2-0.3,0.4-0.5,0.5
			c-0.2,0.1-0.4,0.2-0.6,0.2c-0.2,0-0.4,0-0.5-0.1c-0.2-0.1-0.3-0.2-0.4-0.3c-0.1-0.1-0.2-0.3-0.3-0.5c-0.1-0.2-0.1-0.4-0.1-0.6
			c0-0.5,0.1-0.9,0.3-1.2c0.2-0.3,0.5-0.4,0.9-0.4c0.3,0,0.5,0.1,0.6,0.2c0.2,0.1,0.3,0.3,0.5,0.5c0.1,0.1,0.2,0.2,0.2,0.3
			c0.1,0.1,0.2,0.1,0.3,0.1c0.2,0,0.3-0.1,0.4-0.2c0.1-0.1,0.2-0.2,0.2-0.4c0-0.1,0-0.3-0.1-0.5c-0.1-0.2-0.2-0.3-0.4-0.5
			c-0.2-0.1-0.4-0.3-0.7-0.4c-0.3-0.1-0.6-0.1-0.9-0.1c-0.5,0-1,0.1-1.3,0.3c-0.4,0.2-0.7,0.5-0.9,0.9c-0.2,0.4-0.3,0.8-0.3,1.3
			c0,0.8,0.2,1.4,0.6,1.8c0.4,0.4,1,0.7,1.8,0.7c0.4,0,0.7,0,1-0.1c0.3-0.1,0.5-0.2,0.7-0.4c0.2-0.2,0.3-0.3,0.4-0.5
			c0.1-0.2,0.1-0.3,0.1-0.5c0-0.1-0.1-0.3-0.1-0.4C30,70.2,29.9,70.1,29.7,70.1z"/>
		<path class="st2" d="M25.6,56.8c0-0.2-0.1-0.4-0.2-0.5c-0.1-0.1-0.3-0.2-0.4-0.2c-0.2,0-0.3,0.1-0.4,0.2c-0.1,0.1-0.2,0.3-0.2,0.6
			v3.5c0,0.2,0.1,0.4,0.2,0.6c0.1,0.1,0.3,0.2,0.4,0.2c0.2,0,0.3-0.1,0.4-0.2c0.1-0.1,0.2-0.3,0.2-0.6V56.8z"/>
		<path class="st2" d="M24.1,67.2c-0.2,0-0.3,0.1-0.4,0.2c-0.1,0.1-0.2,0.3-0.2,0.6v1.5c0,0.6,0,1-0.1,1.2c-0.1,0.2-0.2,0.4-0.4,0.5
			c-0.2,0.1-0.4,0.2-0.6,0.2c-0.2,0-0.4-0.1-0.5-0.2c-0.1-0.1-0.2-0.3-0.3-0.5c0-0.2-0.1-0.4-0.1-0.7v-2c0-0.2-0.1-0.4-0.2-0.6
			c-0.1-0.1-0.3-0.2-0.5-0.2c-0.2,0-0.3,0.1-0.4,0.2c-0.1,0.1-0.2,0.3-0.2,0.6v2.5c0,0.5,0.1,0.9,0.2,1.1c0.1,0.2,0.3,0.4,0.6,0.5
			c0.2,0.1,0.5,0.2,0.8,0.2c0.2,0,0.5,0,0.7-0.1c0.2-0.1,0.4-0.2,0.5-0.3c0.2-0.1,0.3-0.3,0.5-0.5v0.2c0,0.2,0.1,0.4,0.2,0.5
			c0.1,0.1,0.3,0.2,0.4,0.2c0.2,0,0.3-0.1,0.4-0.2c0.1-0.1,0.2-0.3,0.2-0.5v-3.6c0-0.2-0.1-0.4-0.2-0.6
			C24.4,67.2,24.2,67.2,24.1,67.2z"/>
		<path class="st2" d="M16.5,9.2c0-2.9-2.4-5.3-5.3-5.3c-2.9,0-5.3,2.4-5.3,5.3c0,2.9,2.4,5.3,5.3,5.3C14.1,14.5,16.5,12.1,16.5,9.2
			z"/>
		<path class="st2" d="M21,57c0.3,0,0.6,0.1,0.7,0.3c0.1,0.2,0.2,0.5,0.2,0.9v2.1c0,0.2,0.1,0.4,0.2,0.6c0.1,0.1,0.3,0.2,0.4,0.2
			c0.2,0,0.3-0.1,0.4-0.2c0.1-0.1,0.2-0.3,0.2-0.6v-2.3c0-0.3,0-0.5,0-0.7c0-0.2-0.1-0.3-0.2-0.5c-0.1-0.3-0.3-0.5-0.6-0.6
			c-0.3-0.1-0.5-0.2-0.9-0.2c-0.3,0-0.6,0.1-0.9,0.2c-0.3,0.1-0.5,0.3-0.7,0.6v-0.1c0-0.2,0-0.3-0.1-0.4c-0.1-0.1-0.1-0.2-0.2-0.2
			c-0.1-0.1-0.2-0.1-0.3-0.1c-0.2,0-0.3,0.1-0.4,0.2c-0.1,0.1-0.2,0.3-0.2,0.5v3.6c0,0.2,0.1,0.4,0.2,0.6c0.1,0.1,0.3,0.2,0.4,0.2
			c0.2,0,0.3-0.1,0.5-0.2c0.1-0.1,0.2-0.3,0.2-0.6v-1.6c0-0.5,0-0.9,0.1-1c0.1-0.2,0.2-0.4,0.4-0.5C20.6,57.1,20.8,57,21,57z"/>
		<path class="st2" d="M39.4,58.8c0.2-0.1,0.3-0.3,0.3-0.6c0-0.3-0.1-0.7-0.3-1c-0.2-0.3-0.4-0.6-0.8-0.8c-0.3-0.2-0.8-0.3-1.2-0.3
			c-0.4,0-0.7,0.1-1,0.2c-0.3,0.1-0.6,0.3-0.8,0.5c-0.2,0.2-0.4,0.5-0.5,0.8c-0.1,0.3-0.2,0.7-0.2,1c0,0.8,0.2,1.4,0.7,1.8
			c0.4,0.5,1.1,0.7,1.9,0.7c0.3,0,0.7,0,0.9-0.1c0.3-0.1,0.5-0.2,0.7-0.3c0.2-0.1,0.3-0.3,0.4-0.4c0.1-0.1,0.1-0.3,0.1-0.4
			c0-0.1,0-0.2-0.1-0.3c-0.1-0.1-0.2-0.1-0.3-0.1c-0.1,0-0.2,0-0.3,0.1c-0.2,0.1-0.3,0.3-0.4,0.3c-0.1,0.1-0.2,0.2-0.3,0.2
			c-0.1,0.1-0.2,0.1-0.4,0.2c-0.1,0-0.3,0.1-0.4,0.1c-0.2,0-0.4-0.1-0.6-0.2c-0.2-0.1-0.3-0.3-0.4-0.5c-0.1-0.2-0.2-0.5-0.2-0.7h2.4
			C39,58.9,39.2,58.9,39.4,58.8z M36.2,58.2c0-0.4,0.2-0.7,0.4-0.9c0.2-0.2,0.5-0.3,0.8-0.3c0.3,0,0.6,0.1,0.8,0.3
			c0.2,0.2,0.3,0.5,0.3,1H36.2z"/>
		<path class="st2" d="M45.8,54.4c-0.1-0.1-0.3-0.2-0.4-0.2c-0.2,0-0.3,0.1-0.4,0.2c-0.1,0.1-0.2,0.3-0.2,0.4c0,0.2,0.1,0.3,0.2,0.4
			c0.1,0.1,0.3,0.2,0.4,0.2c0.2,0,0.3-0.1,0.4-0.2c0.1-0.1,0.2-0.3,0.2-0.4C46,54.7,46,54.5,45.8,54.4z"/>
		<path class="st2" d="M45,56.3c-0.1,0.1-0.2,0.3-0.2,0.6v3.5c0,0.2,0.1,0.4,0.2,0.6c0.1,0.1,0.3,0.2,0.4,0.2c0.2,0,0.3-0.1,0.4-0.2
			c0.1-0.1,0.2-0.3,0.2-0.6v-3.6c0-0.2-0.1-0.4-0.2-0.5c-0.1-0.1-0.3-0.2-0.4-0.2C45.2,56.1,45.1,56.1,45,56.3z"/>
		<path class="st2" d="M46.4,65.9l-0.2,0.4c-0.1,0.1-0.1,0.2-0.1,0.3c0,0.1,0.1,0.1,0.2,0.1c0.2,0,0.4,0,0.6-0.1
			c0.1,0,0.2-0.1,0.4-0.3c0.2-0.2,0.3-0.3,0.5-0.5c0.2-0.2,0.3-0.3,0.3-0.3c0,0-0.1-0.1-0.2-0.1h-0.6c-0.2,0-0.3,0-0.4,0.1
			C46.6,65.6,46.5,65.7,46.4,65.9z"/>
		<path class="st2" d="M39.9,14.5c2.9,0,5.3-2.4,5.3-5.3c0-2.9-2.4-5.3-5.3-5.3c-2.9,0-5.3,2.4-5.3,5.3C34.6,12.1,37,14.5,39.9,14.5
			z"/>
		<path class="st2" d="M8.5,22.4l0,23.8h0c0,0,0,0,0,0c0,1.5,1.2,2.6,2.7,2.6c1.5,0,2.6-1.2,2.6-2.7c0,0,0,0,0,0l0-23.8
			c0,0,6.8,0,6.9,0c0,0,0,0,0,0c4.6,0,6.9,4,6.9,9h0v14.8h0c0,0,0,0,0,0c0,1.5,1.2,2.6,2.7,2.6c1.5,0,2.6-1.2,2.6-2.7c0,0,0,0,0,0
			l0-14.8c0-5,2.3-9,6.9-9c4.6,0,6.9,4,6.9,9l0,14.8c0,0,0,0,0,0c0,1.5,1.2,2.7,2.6,2.7c1.5,0,2.7-1.2,2.7-2.6c0,0,0,0,0,0h0V31.5
			c0-7.9-4.3-14.3-12.2-14.3c0,0,0,0,0,0c0,0,0,0,0,0c0,0,0,0,0,0s0,0,0,0c-4.3,0-7.5,1.9-9.6,4.9c-2.1-3-5.3-4.9-9.6-4.9
			c0,0,0,0,0,0h-6.9C10.9,17.1,8.5,19.5,8.5,22.4z"/>
		<path class="st2" d="M17.3,54.4c-0.1-0.1-0.3-0.2-0.4-0.2c-0.2,0-0.3,0.1-0.4,0.2c-0.1,0.1-0.2,0.3-0.2,0.4c0,0.2,0.1,0.3,0.2,0.4
			c0.1,0.1,0.3,0.2,0.4,0.2c0.2,0,0.3-0.1,0.4-0.2c0.1-0.1,0.2-0.3,0.2-0.4C17.5,54.7,17.4,54.5,17.3,54.4z"/>
		<path class="st2" d="M24.5,54.5c-0.1,0.1-0.2,0.3-0.2,0.4c0,0.2,0.1,0.3,0.2,0.4c0.1,0.1,0.3,0.2,0.4,0.2c0.2,0,0.3-0.1,0.4-0.2
			c0.1-0.1,0.2-0.3,0.2-0.4c0-0.2-0.1-0.3-0.2-0.4c-0.1-0.1-0.3-0.2-0.4-0.2C24.8,54.3,24.7,54.3,24.5,54.5z"/>
		<path class="st2" d="M16.4,56.3c-0.1,0.1-0.2,0.3-0.2,0.6v3.5c0,0.2,0.1,0.4,0.2,0.6c0.1,0.1,0.3,0.2,0.4,0.2
			c0.2,0,0.3-0.1,0.4-0.2c0.1-0.1,0.2-0.3,0.2-0.6v-3.6c0-0.2-0.1-0.4-0.2-0.5c-0.1-0.1-0.3-0.2-0.4-0.2
			C16.7,56.1,16.5,56.1,16.4,56.3z"/>
		<path class="st2" d="M32.2,60.4c0.1,0.2,0.2,0.4,0.4,0.5c0.2,0.1,0.5,0.2,0.9,0.2c0.4,0,0.7-0.1,0.9-0.2c0.2-0.1,0.3-0.3,0.3-0.5
			c0-0.1,0-0.2-0.1-0.3c-0.1-0.1-0.2-0.1-0.3-0.1c-0.1,0-0.2,0-0.3,0c-0.1,0-0.2,0-0.3,0c-0.1,0-0.2,0-0.3-0.1
			c-0.1-0.1-0.1-0.2-0.1-0.3c0-0.1,0-0.3,0-0.4v-2.3h0.2c0.2,0,0.4,0,0.6-0.1c0.1-0.1,0.2-0.2,0.2-0.3c0-0.1,0-0.2-0.1-0.3
			c-0.1-0.1-0.2-0.1-0.4-0.1h-0.5v-0.8c0-0.2,0-0.4,0-0.5c0-0.1-0.1-0.2-0.2-0.3c-0.1-0.1-0.3-0.2-0.4-0.2c-0.1,0-0.2,0-0.3,0.1
			c-0.1,0.1-0.2,0.1-0.2,0.2c0,0.1-0.1,0.2-0.1,0.3c0,0.1,0,0.3,0,0.5v0.7H32c-0.2,0-0.3,0-0.4,0.1c-0.1,0.1-0.1,0.2-0.1,0.3
			c0,0.1,0,0.2,0.1,0.3c0.1,0.1,0.2,0.1,0.4,0.1h0.2v2.4C32.1,59.8,32.1,60.1,32.2,60.4z"/>
		<path class="st2" d="M30.1,58.4c-0.2-0.1-0.6-0.2-0.9-0.3c-0.3-0.1-0.6-0.1-0.8-0.2c-0.2-0.1-0.3-0.1-0.4-0.2
			c-0.1-0.1-0.2-0.2-0.2-0.3c0-0.1,0.1-0.3,0.2-0.4c0.1-0.1,0.3-0.1,0.6-0.1c0.2,0,0.4,0,0.5,0.1c0.1,0.1,0.2,0.2,0.3,0.3
			c0.1,0.1,0.2,0.3,0.3,0.3c0.1,0.1,0.2,0.1,0.3,0.1c0.2,0,0.3,0,0.4-0.1c0.1-0.1,0.1-0.2,0.1-0.3c0-0.1,0-0.3-0.1-0.4
			c-0.1-0.1-0.2-0.3-0.4-0.4c-0.2-0.1-0.4-0.2-0.6-0.3c-0.3-0.1-0.5-0.1-0.9-0.1c-0.4,0-0.8,0.1-1,0.2c-0.3,0.1-0.5,0.3-0.7,0.5
			c-0.1,0.2-0.2,0.5-0.2,0.7c0,0.3,0.1,0.5,0.2,0.7c0.2,0.2,0.4,0.3,0.6,0.5c0.3,0.1,0.6,0.2,1,0.3c0.4,0.1,0.6,0.2,0.8,0.3
			c0.2,0.1,0.2,0.3,0.2,0.5c0,0.1-0.1,0.3-0.2,0.4c-0.2,0.1-0.4,0.2-0.6,0.2c-0.3,0-0.5-0.1-0.7-0.2c-0.2-0.1-0.3-0.3-0.5-0.5
			c-0.1-0.1-0.1-0.2-0.2-0.3c-0.1-0.1-0.2-0.1-0.3-0.1c-0.1,0-0.3,0-0.4,0.1c-0.1,0.1-0.1,0.2-0.1,0.3c0,0.2,0.1,0.4,0.2,0.6
			c0.2,0.2,0.4,0.4,0.7,0.5c0.3,0.1,0.7,0.2,1.1,0.2c0.5,0,0.9-0.1,1.2-0.2c0.3-0.1,0.6-0.3,0.7-0.6c0.2-0.2,0.2-0.5,0.2-0.9
			c0-0.2-0.1-0.4-0.2-0.6C30.5,58.7,30.4,58.6,30.1,58.4z"/>
		<path class="st2" d="M14.9,60.3v-5.3c0-0.3-0.1-0.5-0.2-0.6c-0.2-0.1-0.4-0.2-0.6-0.2h-0.4c-0.3,0-0.4,0-0.5,0.1
			c-0.1,0-0.2,0.1-0.3,0.2c-0.1,0.1-0.1,0.3-0.2,0.6l-1,3.6l-1-3.6c-0.1-0.3-0.1-0.5-0.2-0.6c-0.1-0.1-0.1-0.2-0.3-0.2
			c-0.1,0-0.3-0.1-0.5-0.1H9.3c-0.3,0-0.5,0.1-0.6,0.2c-0.2,0.1-0.2,0.3-0.2,0.6v5.3c0,0.3,0.1,0.5,0.2,0.6c0.1,0.1,0.3,0.2,0.4,0.2
			c0.2,0,0.3-0.1,0.5-0.2c0.1-0.1,0.2-0.3,0.2-0.6v-4.6l1.1,4.2c0,0.1,0.1,0.3,0.1,0.4c0,0.1,0.1,0.2,0.1,0.3
			c0.1,0.1,0.1,0.2,0.3,0.3c0.1,0.1,0.2,0.1,0.4,0.1c0.2,0,0.4-0.1,0.5-0.2c0.1-0.1,0.2-0.2,0.2-0.4c0-0.1,0.1-0.3,0.2-0.6l1.1-4.2
			v4.6c0,0.3,0.1,0.4,0.2,0.6c0.1,0.1,0.3,0.2,0.4,0.2c0.2,0,0.3-0.1,0.5-0.2C14.9,60.8,14.9,60.6,14.9,60.3z"/>
		<path class="st2" d="M61.8,65.9c-0.2-0.2-0.4-0.3-0.7-0.4c-0.3-0.1-0.7-0.1-1.2-0.1h-1.7c-0.3,0-0.5,0.1-0.6,0.2
			c-0.1,0.1-0.2,0.3-0.2,0.6v5.1c0,0.3,0.1,0.5,0.2,0.6c0.1,0.1,0.3,0.2,0.5,0.2c0.2,0,0.4-0.1,0.5-0.2c0.1-0.1,0.2-0.3,0.2-0.6
			v-1.9h1.2c0.8,0,1.4-0.2,1.9-0.5c0.4-0.3,0.6-0.9,0.6-1.5c0-0.3-0.1-0.6-0.2-0.9C62.2,66.3,62,66.1,61.8,65.9z M60.9,68.1
			c-0.1,0.2-0.3,0.3-0.5,0.3c-0.2,0.1-0.5,0.1-0.8,0.1h-0.9v-2h0.9c0.6,0,1,0.1,1.2,0.3c0.2,0.2,0.3,0.4,0.3,0.7
			C61.1,67.7,61,67.9,60.9,68.1z"/>
		<path class="st2" d="M84.7,70.1c-0.1,0-0.2,0-0.3,0.1c-0.1,0.1-0.2,0.2-0.2,0.3c-0.1,0.2-0.3,0.4-0.5,0.5
			c-0.2,0.1-0.4,0.2-0.6,0.2c-0.2,0-0.4,0-0.5-0.1c-0.2-0.1-0.3-0.2-0.4-0.3c-0.1-0.1-0.2-0.3-0.2-0.5c-0.1-0.2-0.1-0.4-0.1-0.6
			c0-0.5,0.1-0.9,0.3-1.2c0.2-0.3,0.5-0.4,0.9-0.4c0.3,0,0.5,0.1,0.6,0.2c0.2,0.1,0.3,0.3,0.5,0.5c0.1,0.1,0.2,0.2,0.2,0.3
			c0.1,0.1,0.2,0.1,0.3,0.1c0.2,0,0.3-0.1,0.4-0.2c0.1-0.1,0.2-0.2,0.2-0.4c0-0.1,0-0.3-0.1-0.5c-0.1-0.2-0.2-0.3-0.4-0.5
			c-0.2-0.1-0.4-0.3-0.7-0.4c-0.3-0.1-0.6-0.1-0.9-0.1c-0.5,0-1,0.1-1.3,0.3c-0.4,0.2-0.7,0.5-0.9,0.9c-0.2,0.4-0.3,0.8-0.3,1.3
			c0,0.8,0.2,1.4,0.6,1.8c0.4,0.4,1,0.7,1.8,0.7c0.4,0,0.7,0,1-0.1c0.3-0.1,0.5-0.2,0.7-0.4c0.2-0.2,0.3-0.3,0.4-0.5
			c0.1-0.2,0.1-0.3,0.1-0.5c0-0.1-0.1-0.3-0.2-0.4C84.9,70.2,84.8,70.1,84.7,70.1z"/>
		<path class="st2" d="M65,66.6c0,0.1,0.1,0.1,0.2,0.1c0.2,0,0.4,0,0.6-0.1c0.1,0,0.2-0.1,0.4-0.3c0.2-0.2,0.3-0.3,0.5-0.5
			c0.2-0.2,0.3-0.3,0.3-0.3c0,0-0.1-0.1-0.2-0.1H66c-0.2,0-0.3,0-0.4,0.1c-0.1,0.1-0.2,0.2-0.3,0.4l-0.2,0.4
			C65,66.4,65,66.5,65,66.6z"/>
		<path class="st2" d="M81,43.8c0.1-0.2,0.2-0.3,0.3-0.5c0.5-1.4-0.2-2.9-1.6-3.4c-1.1-0.4-2.5,0-3.2,0.9l0,0
			c-1.7,2.3-3.6,2.9-7.5,2.9h0c-4.9,0-7.4-3.2-8.1-7.9c0,0,14.6,0,17.9,0c2.9,0,3.6-1.8,3.7-3.3c0-0.1,0-0.2,0-0.3l0,0c0,0,0,0,0,0
			l0,0c0,0,0,0,0-0.1c0,0,0-0.1,0-0.1l0,0c0-0.9-0.1-1.7-0.2-2.5c-1.1-7.1-5.7-12.1-13.3-12.1c-8.2,0-12.8,6.1-13.5,14
			c0,0.6-0.1,1.3-0.1,1.9c0,1.2,0.1,2.3,0.2,3.4c0.9,7.1,4.7,12.5,13.3,12.5l0,0C75.3,48.9,78.6,47.1,81,43.8L81,43.8z M68.9,22.4
			c6.8,0,8,7.5,8,8H60.9C61.5,25.7,64.6,22.4,68.9,22.4z"/>
		<path class="st2" d="M64.7,60.6c0.2-0.1,0.3-0.3,0.4-0.4c0.1-0.1,0.1-0.3,0.1-0.4c0-0.1,0-0.2-0.1-0.3c-0.1-0.1-0.2-0.1-0.3-0.1
			c-0.1,0-0.2,0-0.3,0.1c-0.2,0.1-0.3,0.3-0.4,0.3c-0.1,0.1-0.2,0.2-0.3,0.2c-0.1,0.1-0.2,0.1-0.4,0.2c-0.1,0-0.3,0.1-0.4,0.1
			c-0.2,0-0.4-0.1-0.6-0.2c-0.2-0.1-0.3-0.3-0.4-0.5c-0.1-0.2-0.2-0.5-0.2-0.7h2.4c0.3,0,0.6,0,0.8-0.1c0.2-0.1,0.3-0.3,0.3-0.6
			c0-0.3-0.1-0.7-0.3-1c-0.2-0.3-0.4-0.6-0.8-0.8c-0.3-0.2-0.8-0.3-1.2-0.3c-0.4,0-0.7,0.1-1,0.2c-0.3,0.1-0.6,0.3-0.8,0.5
			c-0.2,0.2-0.4,0.5-0.5,0.8c-0.1,0.3-0.2,0.7-0.2,1c0,0.8,0.2,1.4,0.7,1.8c0.4,0.5,1.1,0.7,1.9,0.7c0.3,0,0.7,0,0.9-0.1
			C64.3,60.9,64.5,60.8,64.7,60.6z M62.2,57.2c0.2-0.2,0.5-0.3,0.8-0.3c0.3,0,0.6,0.1,0.8,0.3c0.2,0.2,0.3,0.5,0.3,1h-2.2
			C61.9,57.8,62,57.5,62.2,57.2z"/>
		<path class="st2" d="M67.5,67.2c-0.2,0-0.3,0.1-0.5,0.2c-0.1,0.1-0.2,0.3-0.2,0.6v1.5c0,0.6,0,1-0.1,1.2c-0.1,0.2-0.2,0.4-0.4,0.5
			c-0.2,0.1-0.4,0.2-0.6,0.2c-0.2,0-0.4-0.1-0.5-0.2c-0.1-0.1-0.2-0.3-0.3-0.5c-0.1-0.2-0.1-0.4-0.1-0.7v-2c0-0.2-0.1-0.4-0.2-0.6
			c-0.1-0.1-0.3-0.2-0.5-0.2c-0.2,0-0.3,0.1-0.4,0.2c-0.1,0.1-0.2,0.3-0.2,0.6v2.5c0,0.5,0.1,0.9,0.2,1.1c0.1,0.2,0.3,0.4,0.6,0.5
			c0.2,0.1,0.5,0.2,0.8,0.2c0.2,0,0.5,0,0.7-0.1c0.2-0.1,0.4-0.2,0.5-0.3c0.2-0.1,0.3-0.3,0.5-0.5v0.2c0,0.2,0.1,0.4,0.2,0.5
			c0.1,0.1,0.3,0.2,0.4,0.2c0.2,0,0.3-0.1,0.4-0.2c0.1-0.1,0.2-0.3,0.2-0.5v-3.6c0-0.2-0.1-0.4-0.2-0.6
			C67.8,67.2,67.7,67.2,67.5,67.2z"/>
		<path class="st2" d="M76.1,65.3c-0.2,0-0.3,0.1-0.4,0.2c-0.1,0.1-0.2,0.3-0.2,0.6v5.4c0,0.2,0.1,0.4,0.2,0.6
			c0.1,0.1,0.3,0.2,0.4,0.2c0.2,0,0.3-0.1,0.5-0.2c0.1-0.1,0.2-0.3,0.2-0.6v-5.4c0-0.3-0.1-0.4-0.2-0.6
			C76.4,65.4,76.3,65.3,76.1,65.3z"/>
		<path class="st2" d="M73.2,67.5c-0.3-0.2-0.7-0.3-1.1-0.3c-0.4,0-0.7,0.1-0.9,0.2c-0.2,0.1-0.5,0.3-0.7,0.6V66
			c0-0.2-0.1-0.4-0.2-0.5c-0.1-0.1-0.3-0.2-0.4-0.2c-0.2,0-0.3,0.1-0.4,0.2c-0.1,0.1-0.2,0.3-0.2,0.6v5.4c0,0.2,0.1,0.4,0.2,0.5
			c0.1,0.1,0.2,0.2,0.4,0.2c0.2,0,0.3-0.1,0.4-0.2c0.1-0.1,0.2-0.3,0.2-0.5v-0.1c0.1,0.2,0.2,0.3,0.3,0.4c0.1,0.1,0.2,0.2,0.3,0.2
			c0.1,0.1,0.3,0.1,0.4,0.2c0.2,0,0.3,0.1,0.5,0.1c0.3,0,0.6-0.1,0.9-0.2c0.3-0.1,0.5-0.3,0.7-0.5c0.2-0.2,0.3-0.5,0.4-0.8
			c0.1-0.3,0.1-0.7,0.1-1c0-0.5-0.1-0.9-0.3-1.3C73.8,68,73.6,67.7,73.2,67.5z M72.6,70.9c-0.2,0.3-0.5,0.4-0.8,0.4
			c-0.4,0-0.7-0.1-0.9-0.4c-0.2-0.3-0.3-0.6-0.3-1.1c0-0.3,0.1-0.6,0.2-0.9c0.1-0.2,0.3-0.4,0.4-0.6c0.2-0.1,0.4-0.2,0.6-0.2
			c0.2,0,0.4,0.1,0.6,0.2c0.2,0.1,0.3,0.3,0.4,0.5c0.1,0.2,0.1,0.5,0.1,0.8C73,70.2,72.9,70.6,72.6,70.9z"/>
		<path class="st2" d="M78.6,65.4c-0.2,0-0.3,0.1-0.4,0.2C78.1,65.7,78,65.8,78,66c0,0.2,0.1,0.3,0.2,0.4c0.1,0.1,0.3,0.2,0.4,0.2
			c0.2,0,0.3-0.1,0.4-0.2c0.1-0.1,0.2-0.3,0.2-0.4c0-0.2-0.1-0.3-0.2-0.4C78.9,65.4,78.8,65.4,78.6,65.4z"/>
		<path class="st2" d="M57.9,60.7c0.2-0.1,0.3-0.3,0.5-0.5v0.1c0,0.2,0.1,0.4,0.2,0.5c0.1,0.1,0.2,0.2,0.4,0.2
			c0.2,0,0.3-0.1,0.4-0.2c0.1-0.1,0.2-0.3,0.2-0.5v-5.5c0-0.2-0.1-0.4-0.2-0.5c-0.1-0.1-0.2-0.2-0.4-0.2c-0.2,0-0.3,0.1-0.4,0.2
			c-0.1,0.1-0.2,0.3-0.2,0.6v1.8c-0.2-0.3-0.5-0.4-0.7-0.6c-0.2-0.1-0.5-0.2-0.9-0.2c-0.6,0-1.1,0.2-1.5,0.6c-0.4,0.4-0.6,1-0.6,1.8
			c0,0.4,0,0.7,0.1,1c0.1,0.3,0.2,0.6,0.4,0.8c0.2,0.2,0.4,0.4,0.7,0.5c0.3,0.1,0.5,0.2,0.8,0.2c0.2,0,0.4,0,0.6-0.1
			C57.6,61,57.7,60.9,57.9,60.7z M56.5,60c-0.2-0.1-0.3-0.3-0.4-0.5C56,59.2,56,58.9,56,58.6c0-0.3,0.1-0.6,0.1-0.8
			c0.1-0.2,0.2-0.4,0.4-0.6c0.2-0.1,0.4-0.2,0.6-0.2c0.2,0,0.4,0.1,0.6,0.2c0.2,0.1,0.3,0.3,0.4,0.5c0.1,0.2,0.2,0.5,0.2,0.9
			c0,0.4-0.1,0.6-0.2,0.9c-0.1,0.2-0.3,0.4-0.4,0.5c-0.2,0.1-0.4,0.2-0.6,0.2C56.9,60.2,56.7,60.1,56.5,60z"/>
		<path class="st2" d="M43,65.4c-0.2,0-0.3,0.1-0.4,0.2c-0.1,0.1-0.2,0.3-0.2,0.4c0,0.2,0.1,0.3,0.2,0.4c0.1,0.1,0.3,0.2,0.4,0.2
			c0.2,0,0.3-0.1,0.4-0.2c0.1-0.1,0.2-0.3,0.2-0.4c0-0.2-0.1-0.3-0.2-0.4C43.3,65.4,43.1,65.4,43,65.4z"/>
		<path class="st2" d="M43,67.2c-0.2,0-0.3,0.1-0.4,0.2c-0.1,0.1-0.2,0.3-0.2,0.6v3.5c0,0.2,0.1,0.4,0.2,0.6
			c0.1,0.1,0.3,0.2,0.4,0.2c0.2,0,0.3-0.1,0.4-0.2c0.1-0.1,0.2-0.3,0.2-0.6v-3.6c0-0.2-0.1-0.4-0.2-0.5C43.3,67.2,43.1,67.2,43,67.2
			z"/>
		<path class="st2" d="M35.7,70.5c0-0.2,0-0.5,0-0.7c0-0.2,0-0.4,0-0.7c0-0.5-0.1-0.8-0.2-1.1c-0.1-0.3-0.3-0.5-0.7-0.6
			c-0.3-0.1-0.7-0.2-1.3-0.2c-0.5,0-0.9,0.1-1.2,0.2c-0.3,0.1-0.6,0.3-0.7,0.5c-0.2,0.2-0.2,0.4-0.2,0.6c0,0.1,0.1,0.3,0.2,0.3
			c0.1,0.1,0.2,0.1,0.4,0.1c0.2,0,0.3,0,0.3-0.1c0-0.1,0.1-0.2,0.2-0.3c0.1-0.2,0.2-0.3,0.4-0.4c0.2-0.1,0.4-0.1,0.7-0.1
			c0.4,0,0.6,0.1,0.7,0.2c0.1,0.2,0.2,0.4,0.2,0.7c-0.3,0.1-0.5,0.1-0.7,0.2c-0.2,0.1-0.5,0.1-0.8,0.2c-0.3,0.1-0.5,0.1-0.6,0.1
			c-0.4,0.1-0.7,0.2-0.9,0.5c-0.2,0.2-0.3,0.5-0.3,0.9c0,0.2,0.1,0.5,0.2,0.7c0.1,0.2,0.3,0.4,0.6,0.5c0.2,0.1,0.5,0.2,0.8,0.2
			c0.3,0,0.7-0.1,0.9-0.2c0.3-0.1,0.6-0.3,0.9-0.5c0.1,0.2,0.3,0.4,0.4,0.5c0.1,0.1,0.2,0.2,0.4,0.2c0.2,0,0.3-0.1,0.4-0.2
			c0.1-0.1,0.2-0.2,0.2-0.3c0-0.1,0-0.2-0.1-0.5C35.7,71,35.7,70.7,35.7,70.5z M34.4,69.9c0,0.4-0.1,0.7-0.2,0.9
			c-0.1,0.2-0.2,0.3-0.5,0.4c-0.2,0.1-0.4,0.2-0.7,0.2c-0.2,0-0.4-0.1-0.6-0.2c-0.1-0.1-0.2-0.3-0.2-0.5c0-0.2,0.1-0.3,0.2-0.4
			c0.1-0.1,0.2-0.2,0.4-0.2c0.1,0,0.4-0.1,0.7-0.2c0.3-0.1,0.6-0.1,0.8-0.2V69.9z"/>
		<path class="st2" d="M43.8,56.3c-0.2-0.1-0.5-0.2-0.8-0.2c-0.3,0-0.5,0.1-0.6,0.2c-0.2,0.1-0.3,0.3-0.5,0.6c0-0.3-0.1-0.4-0.1-0.6
			c-0.1-0.1-0.2-0.2-0.4-0.2c-0.4,0-0.6,0.3-0.6,0.8v3.4c0,0.2,0.1,0.4,0.2,0.6c0.1,0.1,0.3,0.2,0.4,0.2c0.2,0,0.3-0.1,0.5-0.2
			c0.1-0.1,0.2-0.3,0.2-0.6v-1c0-0.4,0-0.7,0-0.9c0-0.3,0.1-0.5,0.1-0.7c0.1-0.2,0.2-0.3,0.3-0.4c0.1-0.1,0.3-0.1,0.4-0.1
			c0.1,0,0.3,0,0.5,0.1c0.2,0.1,0.3,0.1,0.3,0.1c0.1,0,0.2,0,0.3-0.1c0.1-0.1,0.2-0.2,0.2-0.4C44.1,56.6,44,56.4,43.8,56.3z"/>
		<path class="st2" d="M40.9,70.1c-0.1,0-0.2,0-0.3,0.1c-0.1,0.1-0.2,0.2-0.2,0.3c-0.1,0.2-0.3,0.4-0.5,0.5
			c-0.2,0.1-0.4,0.2-0.6,0.2c-0.2,0-0.4,0-0.5-0.1c-0.2-0.1-0.3-0.2-0.4-0.3c-0.1-0.1-0.2-0.3-0.2-0.5C38,70.2,38,70,38,69.7
			c0-0.5,0.1-0.9,0.3-1.2c0.2-0.3,0.5-0.4,0.9-0.4c0.3,0,0.5,0.1,0.6,0.2c0.2,0.1,0.3,0.3,0.5,0.5c0.1,0.1,0.2,0.2,0.2,0.3
			c0.1,0.1,0.2,0.1,0.3,0.1c0.2,0,0.3-0.1,0.4-0.2c0.1-0.1,0.2-0.2,0.2-0.4c0-0.1,0-0.3-0.1-0.5c-0.1-0.2-0.2-0.3-0.4-0.5
			c-0.2-0.1-0.4-0.3-0.7-0.4c-0.3-0.1-0.6-0.1-0.9-0.1c-0.5,0-1,0.1-1.3,0.3c-0.4,0.2-0.7,0.5-0.9,0.9c-0.2,0.4-0.3,0.8-0.3,1.3
			c0,0.8,0.2,1.4,0.6,1.8c0.4,0.4,1,0.7,1.8,0.7c0.4,0,0.7,0,1-0.1c0.3-0.1,0.5-0.2,0.7-0.4c0.2-0.2,0.3-0.3,0.4-0.5
			c0.1-0.2,0.1-0.3,0.1-0.5c0-0.1,0-0.3-0.1-0.4C41.2,70.2,41.1,70.1,40.9,70.1z"/>
		<path class="st2" d="M54.5,68c-0.1-0.3-0.3-0.5-0.6-0.6c-0.3-0.1-0.5-0.2-0.9-0.2c-0.3,0-0.6,0.1-0.9,0.2
			c-0.3,0.1-0.5,0.3-0.7,0.6v-0.2c0-0.1,0-0.3-0.1-0.4c-0.1-0.1-0.1-0.2-0.2-0.2c-0.1-0.1-0.2-0.1-0.3-0.1c-0.2,0-0.3,0.1-0.4,0.2
			c-0.1,0.1-0.2,0.3-0.2,0.5v3.6c0,0.2,0.1,0.4,0.2,0.6c0.1,0.1,0.3,0.2,0.4,0.2c0.2,0,0.3-0.1,0.5-0.2c0.1-0.1,0.2-0.3,0.2-0.6
			v-1.6c0-0.5,0-0.8,0.1-1c0.1-0.2,0.2-0.4,0.4-0.5c0.2-0.1,0.4-0.2,0.6-0.2c0.3,0,0.6,0.1,0.7,0.3c0.1,0.2,0.2,0.5,0.2,0.9v2.1
			c0,0.2,0.1,0.4,0.2,0.6c0.1,0.1,0.3,0.2,0.4,0.2c0.2,0,0.3-0.1,0.4-0.2c0.1-0.1,0.2-0.3,0.2-0.6v-2.3c0-0.3,0-0.5,0-0.7
			C54.6,68.3,54.6,68.2,54.5,68z"/>
		<path class="st2" d="M51.4,60.4c0.2-0.2,0.4-0.5,0.5-0.8c0.1-0.3,0.2-0.7,0.2-1c0-0.4-0.1-0.7-0.2-1c-0.1-0.3-0.3-0.6-0.5-0.8
			c-0.2-0.2-0.5-0.4-0.8-0.5c-0.3-0.1-0.6-0.2-1-0.2c-0.4,0-0.7,0.1-1,0.2c-0.3,0.1-0.6,0.3-0.8,0.5c-0.2,0.2-0.4,0.5-0.5,0.8
			c-0.1,0.3-0.2,0.7-0.2,1c0,0.4,0.1,0.7,0.2,1s0.3,0.6,0.5,0.8c0.2,0.2,0.5,0.4,0.8,0.5c0.3,0.1,0.6,0.2,1,0.2c0.4,0,0.7-0.1,1-0.2
			C50.9,60.8,51.2,60.6,51.4,60.4z M49.6,60.2c-0.2,0-0.5-0.1-0.6-0.2c-0.2-0.1-0.3-0.3-0.4-0.6c-0.1-0.2-0.1-0.5-0.1-0.8
			c0-0.3,0.1-0.6,0.2-0.9c0.1-0.2,0.2-0.4,0.4-0.6c0.2-0.1,0.4-0.2,0.6-0.2c0.4,0,0.7,0.1,0.9,0.4c0.2,0.3,0.3,0.7,0.3,1.2
			c0,0.5-0.1,0.9-0.3,1.2C50.3,60,50,60.2,49.6,60.2z"/>
		<path class="st2" d="M91,70.5c0-0.2,0-0.5,0-0.7c0-0.2,0-0.4,0-0.7c0-0.5-0.1-0.8-0.2-1.1c-0.1-0.3-0.3-0.5-0.7-0.6
			c-0.3-0.1-0.7-0.2-1.3-0.2c-0.5,0-0.9,0.1-1.2,0.2c-0.3,0.1-0.6,0.3-0.7,0.5c-0.2,0.2-0.2,0.4-0.2,0.6c0,0.1,0.1,0.3,0.2,0.3
			c0.1,0.1,0.2,0.1,0.4,0.1c0.2,0,0.3,0,0.3-0.1c0-0.1,0.1-0.2,0.2-0.3c0.1-0.2,0.2-0.3,0.4-0.4c0.2-0.1,0.4-0.1,0.7-0.1
			c0.4,0,0.6,0.1,0.7,0.2c0.1,0.2,0.2,0.4,0.2,0.7c-0.3,0.1-0.5,0.1-0.7,0.2c-0.2,0.1-0.5,0.1-0.8,0.2c-0.3,0.1-0.5,0.1-0.6,0.1
			c-0.4,0.1-0.7,0.2-0.9,0.5c-0.2,0.2-0.3,0.5-0.3,0.9c0,0.2,0.1,0.5,0.2,0.7c0.1,0.2,0.3,0.4,0.6,0.5c0.2,0.1,0.5,0.2,0.8,0.2
			c0.3,0,0.7-0.1,0.9-0.2c0.3-0.1,0.6-0.3,0.9-0.5c0.1,0.2,0.3,0.4,0.4,0.5c0.1,0.1,0.2,0.2,0.4,0.2c0.2,0,0.3-0.1,0.4-0.2
			c0.1-0.1,0.2-0.2,0.2-0.3c0-0.1,0-0.2-0.1-0.5C91,71,91,70.7,91,70.5z M89.8,69.9c0,0.4-0.1,0.7-0.2,0.9c-0.1,0.2-0.2,0.3-0.5,0.4
			c-0.2,0.1-0.4,0.2-0.7,0.2c-0.2,0-0.4-0.1-0.6-0.2c-0.1-0.1-0.2-0.3-0.2-0.5c0-0.2,0.1-0.3,0.2-0.4c0.1-0.1,0.2-0.2,0.4-0.2
			c0.1,0,0.4-0.1,0.7-0.2c0.3-0.1,0.6-0.1,0.8-0.2V69.9z"/>
		<path class="st2" d="M48.7,67.9c-0.2-0.2-0.5-0.4-0.8-0.5c-0.3-0.1-0.6-0.2-1-0.2c-0.4,0-0.7,0.1-1,0.2c-0.3,0.1-0.6,0.3-0.8,0.5
			c-0.2,0.2-0.4,0.5-0.5,0.8c-0.1,0.3-0.2,0.7-0.2,1c0,0.4,0.1,0.7,0.2,1c0.1,0.3,0.3,0.6,0.5,0.8c0.2,0.2,0.5,0.4,0.8,0.5
			c0.3,0.1,0.6,0.2,1,0.2c0.4,0,0.7-0.1,1-0.2c0.3-0.1,0.6-0.3,0.8-0.5c0.2-0.2,0.4-0.5,0.5-0.8c0.1-0.3,0.2-0.7,0.2-1
			c0-0.4-0.1-0.7-0.2-1C49.1,68.4,49,68.1,48.7,67.9z M47.8,70.9c-0.2,0.3-0.5,0.4-0.9,0.4c-0.2,0-0.5-0.1-0.6-0.2
			c-0.2-0.1-0.3-0.3-0.4-0.6c-0.1-0.2-0.1-0.5-0.1-0.8c0-0.3,0-0.6,0.1-0.9c0.1-0.2,0.2-0.4,0.4-0.6c0.2-0.1,0.4-0.2,0.6-0.2
			c0.4,0,0.7,0.1,0.9,0.4c0.2,0.3,0.3,0.7,0.3,1.2C48.2,70.2,48.1,70.6,47.8,70.9z"/>
	</g>
</g>
</svg>
