<?xml version="1.0" encoding="utf-8"?>
<!-- Generator: Adobe Illustrator 22.0.1, SVG Export Plug-In . SVG Version: 6.00 Build 0)  -->
<svg version="1.1" id="Layer_1" xmlns="http://www.w3.org/2000/svg" xmlns:xlink="http://www.w3.org/1999/xlink" x="0px" y="0px"
	 viewBox="0 0 302.1 80.2" style="enable-background:new 0 0 302.1 80.2;" xml:space="preserve">
<style type="text/css">
	.st0{opacity:0.3;}
	.st1{fill:#FFFFFF;}
	.st2{fill:url(#SVGID_1_);}
	.st3{fill:#005DBA;}
	.st4{fill:#05CDEE;}
	.st5{fill:#056CAE;}
	.st6{fill:#FFFFFF;stroke:#005DBA;stroke-width:3;stroke-miterlimit:10;}
	.st7{fill:url(#SVGID_2_);}
	.st8{fill:#662D91;}
	.st9{fill:#A549A3;}
	.st10{fill:#66336B;}
	.st11{fill:#FFFFFF;stroke:#662D91;stroke-width:3;stroke-miterlimit:10;}
</style>
<g>
	<g>
		<g class="st0">
			<path d="M285.9,76.4h-265c-6.6,0-12-5.4-12-12v-43c0-6.6,5.4-12,12-12h265c6.6,0,12,5.4,12,12v43C297.9,71,292.5,76.4,285.9,76.4
				z"/>
		</g>
		<g>
			<path class="st1" d="M281.9,72.4h-265c-6.6,0-12-5.4-12-12v-43c0-6.6,5.4-12,12-12h265c6.6,0,12,5.4,12,12v43
				C293.9,67,288.5,72.4,281.9,72.4z"/>
		</g>
	</g>
	<g>
		<linearGradient id="SVGID_1_" gradientUnits="userSpaceOnUse" x1="149.4344" y1="7.8345" x2="149.4344" y2="70.0337">
			<stop  offset="0" style="stop-color:#93278F"/>
			<stop  offset="1" style="stop-color:#6E3975"/>
		</linearGradient>
		<path class="st2" d="M20.2,70c-6.5,0-11.9-5.3-11.9-11.9V19.7c0-6.5,5.3-11.9,11.9-11.9h258.6c6.5,0,11.9,5.3,11.9,11.9v38.5
			c0,6.5-5.3,11.9-11.9,11.9H20.2z"/>
		<path class="st8" d="M278.7,8.5c6.2,0,11.2,5,11.2,11.2v38.5c0,6.2-5,11.2-11.2,11.2H20.2C14,69.4,9,64.3,9,58.2V19.7
			c0-6.2,5-11.2,11.2-11.2H278.7 M278.7,7.2H20.2c-6.9,0-12.5,5.6-12.5,12.5v38.5c0,6.9,5.6,12.5,12.5,12.5h258.6
			c6.9,0,12.5-5.6,12.5-12.5V19.7C291.2,12.8,285.6,7.2,278.7,7.2L278.7,7.2z"/>
	</g>
	<g>
		<path class="st1" d="M38.4,53.3c-0.6,0-1.1-0.2-1.6-0.6L23.1,42c-0.6-0.5-1-1.3-1-2.1c0-0.8,0.4-1.6,1-2.1l13.7-10.7
			c0.5-0.4,1-0.6,1.6-0.6c1.5,0,2.6,1.2,2.6,2.6c0,0.6,0.5,2.2,0.8,2.6h4.9c1.4,0,2.6,1.2,2.6,2.6v11c0,1.4-1.2,2.6-2.6,2.6h-4.9
			c-0.4,0.4-0.8,2-0.8,2.6c0,0.7-0.3,1.4-0.8,1.9C39.7,53,39.1,53.3,38.4,53.3C38.4,53.3,38.4,53.3,38.4,53.3z"/>
		<path class="st8" d="M38.4,27.6c0.8,0,1.6,0.7,1.6,1.6v0c0,0.9,0.7,3.6,1.6,3.6h5.1c0.9,0,1.6,0.7,1.6,1.6v11
			c0,0.9-0.7,1.6-1.6,1.6h-5.1c-0.9,0-1.6,2.7-1.6,3.6c0,1-0.8,1.6-1.6,1.6c-0.3,0-0.7-0.1-1-0.3L23.7,41.2c-0.8-0.6-0.8-1.9,0-2.6
			l13.7-10.7C37.7,27.7,38,27.6,38.4,27.6 M38.4,25.6c-0.8,0-1.6,0.3-2.2,0.8L22.5,37.1c-0.9,0.7-1.4,1.7-1.4,2.9
			c0,1.1,0.5,2.2,1.4,2.9l13.7,10.7c0.6,0.5,1.4,0.8,2.2,0.8c2,0,3.6-1.6,3.6-3.6c0-0.3,0.2-1.1,0.4-1.6h4.3c2,0,3.6-1.6,3.6-3.6
			v-11c0-2-1.6-3.6-3.6-3.6h-4.3c-0.2-0.5-0.4-1.3-0.4-1.6C42,27.2,40.4,25.6,38.4,25.6L38.4,25.6z"/>
	</g>
	<path class="st9" d="M14.7,31.4c0.6-2.3,1.2-4.7,1.5-7.1C17,18.5,22,14,28,14l255-4.7c-1.3-0.5-2.7-0.8-4.2-0.8H20.2
		C14,8.5,9,13.5,9,19.7v33.9L14.7,31.4z"/>
	<path class="st10" d="M284.4,46.5c-0.6,2.3-1.2,4.7-1.5,7.1c-0.8,5.8-5.8,10.3-11.8,10.3l-255,4.7c1.3,0.5,2.7,0.8,4.2,0.8h258.6
		c6.2,0,11.2-5,11.2-11.2V24.2L284.4,46.5z"/>
	<g>
		<g>
			<g>
				<path class="st11" d="M58.1,48.2c0,0.5-0.2,0.9-0.5,1.2c-0.3,0.3-0.7,0.5-1.2,0.5c-0.5,0-0.9-0.2-1.2-0.5
					c-0.3-0.3-0.5-0.7-0.5-1.2V32.4c0-0.5,0.2-0.9,0.5-1.2c0.3-0.3,0.7-0.5,1.3-0.5c0.4,0,0.8,0.2,1.2,0.5c0.3,0.3,0.5,0.7,0.5,1.2
					V48.2z"/>
				<path class="st11" d="M69.7,34.9c1.3,0,2.4,0.3,3.1,0.8s1.2,1.3,1.4,2.3c0.3,0.9,0.4,2,0.4,3.1v7c0,0.5-0.2,0.9-0.5,1.2
					c-0.3,0.3-0.7,0.5-1.2,0.5s-0.9-0.2-1.2-0.5c-0.3-0.3-0.5-0.7-0.5-1.2v-7c0-0.6-0.1-1.1-0.2-1.6c-0.2-0.5-0.4-0.9-0.8-1.2
					c-0.4-0.3-1-0.4-1.7-0.4c-0.7,0-1.3,0.1-1.8,0.4c-0.5,0.3-0.9,0.7-1.1,1.2c-0.3,0.5-0.4,1-0.4,1.6v7c0,0.5-0.2,0.9-0.5,1.2
					c-0.3,0.3-0.7,0.5-1.2,0.5c-0.5,0-0.9-0.2-1.2-0.5c-0.3-0.3-0.5-0.7-0.5-1.2V36.9c0-0.5,0.2-0.9,0.5-1.2
					c0.3-0.3,0.7-0.5,1.2-0.5c0.5,0,0.9,0.2,1.2,0.5c0.3,0.3,0.5,0.7,0.5,1.2v1.2L64.8,38c0.2-0.3,0.4-0.6,0.7-1
					c0.3-0.4,0.7-0.7,1.1-1c0.4-0.3,0.9-0.6,1.4-0.8S69.1,34.9,69.7,34.9z"/>
				<path class="st11" d="M78.4,35.5h6.5c0.4,0,0.8,0.1,1.1,0.4c0.3,0.3,0.4,0.7,0.4,1.1c0,0.4-0.1,0.8-0.4,1.1
					c-0.3,0.3-0.7,0.4-1.1,0.4h-6.5c-0.4,0-0.8-0.1-1.1-0.4c-0.3-0.3-0.4-0.7-0.4-1.1c0-0.4,0.1-0.8,0.4-1.1
					C77.6,35.6,77.9,35.5,78.4,35.5z M81.3,32.1c0.5,0,0.9,0.2,1.2,0.5c0.3,0.3,0.5,0.7,0.5,1.2v12.2c0,0.3,0,0.5,0.2,0.6
					c0.1,0.2,0.2,0.3,0.4,0.4C83.6,47,83.8,47,84,47c0.2,0,0.4,0,0.6-0.1c0.2-0.1,0.4-0.1,0.6-0.1c0.3,0,0.5,0.1,0.7,0.4
					c0.2,0.2,0.3,0.6,0.3,1c0,0.5-0.3,0.9-0.8,1.3c-0.6,0.3-1.2,0.5-1.8,0.5c-0.4,0-0.8,0-1.3-0.1c-0.5-0.1-0.9-0.2-1.3-0.5
					c-0.4-0.2-0.8-0.6-1-1.1c-0.3-0.5-0.4-1.2-0.4-2.1V33.7c0-0.5,0.2-0.9,0.5-1.2C80.4,32.2,80.8,32.1,81.3,32.1z"/>
				<path class="st11" d="M96.1,50.1c-1.5,0-2.9-0.3-4-1c-1.1-0.6-2-1.5-2.6-2.6c-0.6-1.1-0.9-2.4-0.9-3.8c0-1.6,0.3-3,1-4.2
					c0.7-1.2,1.5-2,2.6-2.7c1.1-0.6,2.2-0.9,3.4-0.9c0.9,0,1.8,0.2,2.6,0.6c0.8,0.4,1.6,0.9,2.2,1.6s1.1,1.4,1.5,2.3
					c0.4,0.9,0.6,1.8,0.6,2.8c0,0.4-0.2,0.8-0.5,1.1s-0.7,0.4-1.1,0.4H90.4l-0.8-2.7h10L99,41.5v-0.7c0-0.5-0.2-1-0.6-1.4
					c-0.3-0.4-0.8-0.8-1.3-1c-0.5-0.2-1-0.4-1.6-0.4c-0.5,0-1.1,0.1-1.5,0.2s-0.9,0.4-1.2,0.7c-0.3,0.3-0.6,0.8-0.8,1.4
					c-0.2,0.6-0.3,1.3-0.3,2.2c0,1,0.2,1.8,0.6,2.5c0.4,0.7,0.9,1.2,1.6,1.6c0.6,0.4,1.3,0.5,2.1,0.5c0.7,0,1.2-0.1,1.6-0.2
					c0.4-0.1,0.7-0.2,1-0.4c0.2-0.2,0.5-0.3,0.7-0.4c0.3-0.2,0.6-0.2,0.9-0.2c0.4,0,0.7,0.1,1,0.4c0.3,0.3,0.4,0.6,0.4,1
					c0,0.5-0.3,0.9-0.8,1.3c-0.5,0.4-1.1,0.8-2,1.1C97.9,50,97,50.1,96.1,50.1z"/>
				<path class="st11" d="M113,34.9c1.3,0,2.4,0.3,3.1,0.8s1.2,1.3,1.4,2.3c0.3,0.9,0.4,2,0.4,3.1v7c0,0.5-0.2,0.9-0.5,1.2
					c-0.3,0.3-0.7,0.5-1.2,0.5s-0.9-0.2-1.2-0.5c-0.3-0.3-0.5-0.7-0.5-1.2v-7c0-0.6-0.1-1.1-0.2-1.6c-0.2-0.5-0.4-0.9-0.8-1.2
					c-0.4-0.3-1-0.4-1.7-0.4c-0.7,0-1.3,0.1-1.8,0.4c-0.5,0.3-0.9,0.7-1.1,1.2c-0.3,0.5-0.4,1-0.4,1.6v7c0,0.5-0.2,0.9-0.5,1.2
					c-0.3,0.3-0.7,0.5-1.2,0.5s-0.9-0.2-1.2-0.5c-0.3-0.3-0.5-0.7-0.5-1.2V36.9c0-0.5,0.2-0.9,0.5-1.2c0.3-0.3,0.7-0.5,1.2-0.5
					s0.9,0.2,1.2,0.5c0.3,0.3,0.5,0.7,0.5,1.2v1.2l-0.4-0.1c0.2-0.3,0.4-0.6,0.7-1c0.3-0.4,0.7-0.7,1.1-1c0.4-0.3,0.9-0.6,1.4-0.8
					S112.4,34.9,113,34.9z"/>
				<path class="st11" d="M121.7,35.5h6.5c0.4,0,0.8,0.1,1.1,0.4c0.3,0.3,0.4,0.7,0.4,1.1c0,0.4-0.1,0.8-0.4,1.1
					c-0.3,0.3-0.7,0.4-1.1,0.4h-6.5c-0.4,0-0.8-0.1-1.1-0.4c-0.3-0.3-0.4-0.7-0.4-1.1c0-0.4,0.1-0.8,0.4-1.1
					C120.9,35.6,121.2,35.5,121.7,35.5z M124.6,32.1c0.5,0,0.9,0.2,1.2,0.5c0.3,0.3,0.5,0.7,0.5,1.2v12.2c0,0.3,0,0.5,0.2,0.6
					c0.1,0.2,0.2,0.3,0.4,0.4c0.2,0.1,0.4,0.1,0.6,0.1c0.2,0,0.4,0,0.6-0.1c0.2-0.1,0.4-0.1,0.6-0.1c0.3,0,0.5,0.1,0.7,0.4
					c0.2,0.2,0.3,0.6,0.3,1c0,0.5-0.3,0.9-0.8,1.3c-0.6,0.3-1.2,0.5-1.8,0.5c-0.4,0-0.8,0-1.3-0.1c-0.5-0.1-0.9-0.2-1.3-0.5
					c-0.4-0.2-0.8-0.6-1-1.1c-0.3-0.5-0.4-1.2-0.4-2.1V33.7c0-0.5,0.2-0.9,0.5-1.2C123.7,32.2,124.1,32.1,124.6,32.1z"/>
				<path class="st11" d="M144.5,34.9c0.5,0,0.9,0.2,1.2,0.5s0.5,0.7,0.5,1.2v11.6c0,0.5-0.2,0.9-0.5,1.2c-0.3,0.3-0.7,0.5-1.2,0.5
					s-0.9-0.2-1.2-0.5c-0.3-0.3-0.5-0.7-0.5-1.2v-1.3l0.6,0.2c0,0.2-0.1,0.5-0.4,0.9c-0.3,0.3-0.6,0.7-1,1c-0.4,0.3-1,0.6-1.5,0.8
					c-0.6,0.2-1.2,0.3-1.9,0.3c-1.3,0-2.4-0.3-3.4-1c-1-0.6-1.8-1.5-2.4-2.7c-0.6-1.1-0.9-2.4-0.9-3.9c0-1.5,0.3-2.8,0.9-3.9
					c0.6-1.1,1.4-2,2.4-2.7c1-0.6,2.1-1,3.3-1c0.8,0,1.5,0.1,2.2,0.4c0.7,0.2,1.2,0.5,1.7,0.9c0.5,0.4,0.9,0.7,1.1,1.1
					c0.3,0.4,0.4,0.7,0.4,0.9l-1,0.4v-2c0-0.5,0.2-0.9,0.5-1.2C143.7,35.1,144.1,34.9,144.5,34.9z M139,47.1c0.8,0,1.5-0.2,2.1-0.6
					c0.6-0.4,1.1-0.9,1.4-1.6s0.5-1.5,0.5-2.3c0-0.9-0.2-1.7-0.5-2.3c-0.3-0.7-0.8-1.2-1.4-1.6c-0.6-0.4-1.3-0.6-2.1-0.6
					c-0.8,0-1.5,0.2-2.1,0.6c-0.6,0.4-1.1,0.9-1.4,1.6c-0.3,0.7-0.5,1.5-0.5,2.3c0,0.9,0.2,1.6,0.5,2.3c0.3,0.7,0.8,1.2,1.4,1.6
					C137.5,46.9,138.2,47.1,139,47.1z"/>
				<path class="st11" d="M151.4,49.8c-0.5,0-0.9-0.2-1.2-0.5c-0.3-0.3-0.5-0.7-0.5-1.2V36.9c0-0.5,0.2-0.9,0.5-1.2
					c0.3-0.3,0.7-0.5,1.2-0.5s0.9,0.2,1.2,0.5c0.3,0.3,0.5,0.7,0.5,1.2v2.6l-0.2-1.8c0.2-0.4,0.5-0.8,0.8-1.2
					c0.3-0.3,0.7-0.6,1.1-0.8c0.4-0.2,0.8-0.4,1.3-0.5s0.9-0.2,1.4-0.2c0.5,0,1,0.2,1.4,0.5c0.4,0.3,0.6,0.7,0.6,1.1
					c0,0.6-0.2,1-0.5,1.3c-0.3,0.3-0.6,0.4-1,0.4c-0.3,0-0.7-0.1-0.9-0.2c-0.3-0.1-0.6-0.2-1-0.2c-0.3,0-0.7,0.1-1,0.2
					c-0.3,0.2-0.6,0.4-0.9,0.7c-0.3,0.3-0.5,0.7-0.7,1.2c-0.2,0.5-0.3,1.1-0.3,1.7v6.5c0,0.5-0.2,0.9-0.5,1.2
					C152.2,49.7,151.8,49.8,151.4,49.8z"/>
				<path class="st11" d="M183.3,42.5c0,1.5-0.3,2.8-1,3.9c-0.7,1.1-1.6,2-2.7,2.7s-2.4,1-3.8,1c-1.4,0-2.6-0.3-3.8-1
					c-1.1-0.6-2-1.5-2.7-2.7c-0.7-1.1-1-2.5-1-3.9c0-1.5,0.3-2.8,1-3.9c0.7-1.1,1.6-2,2.7-2.7c1.1-0.6,2.4-1,3.8-1
					c1.4,0,2.6,0.3,3.8,1c1.1,0.6,2,1.5,2.7,2.7C182.9,39.7,183.3,41,183.3,42.5z M180,42.5c0-0.9-0.2-1.7-0.6-2.4
					c-0.4-0.7-0.9-1.2-1.5-1.6c-0.6-0.4-1.3-0.6-2.1-0.6c-0.8,0-1.5,0.2-2.1,0.6c-0.6,0.4-1.1,0.9-1.5,1.6c-0.4,0.7-0.6,1.5-0.6,2.4
					c0,0.9,0.2,1.7,0.6,2.4c0.4,0.7,0.9,1.2,1.5,1.6c0.6,0.4,1.3,0.6,2.1,0.6c0.8,0,1.5-0.2,2.1-0.6c0.6-0.4,1.1-0.9,1.5-1.6
					C179.8,44.2,180,43.4,180,42.5z"/>
				<path class="st11" d="M186.2,35.5h6.5c0.4,0,0.8,0.1,1.1,0.4c0.3,0.3,0.4,0.7,0.4,1.1c0,0.4-0.1,0.8-0.4,1.1
					c-0.3,0.3-0.7,0.4-1.1,0.4h-6.5c-0.4,0-0.8-0.1-1.1-0.4c-0.3-0.3-0.4-0.7-0.4-1.1c0-0.4,0.1-0.8,0.4-1.1
					C185.4,35.6,185.7,35.5,186.2,35.5z M189.1,32.1c0.5,0,0.9,0.2,1.2,0.5c0.3,0.3,0.5,0.7,0.5,1.2v12.2c0,0.3,0,0.5,0.2,0.6
					c0.1,0.2,0.2,0.3,0.4,0.4c0.2,0.1,0.4,0.1,0.6,0.1c0.2,0,0.4,0,0.6-0.1c0.2-0.1,0.4-0.1,0.6-0.1c0.3,0,0.5,0.1,0.7,0.4
					c0.2,0.2,0.3,0.6,0.3,1c0,0.5-0.3,0.9-0.8,1.3c-0.6,0.3-1.2,0.5-1.8,0.5c-0.4,0-0.8,0-1.3-0.1c-0.5-0.1-0.9-0.2-1.3-0.5
					c-0.4-0.2-0.8-0.6-1-1.1c-0.3-0.5-0.4-1.2-0.4-2.1V33.7c0-0.5,0.2-0.9,0.5-1.2C188.2,32.2,188.6,32.1,189.1,32.1z"/>
				<path class="st11" d="M198.8,49.8c-0.5,0-0.9-0.2-1.2-0.5c-0.3-0.3-0.5-0.7-0.5-1.2V36.9c0-0.5,0.2-0.9,0.5-1.2
					c0.3-0.3,0.7-0.5,1.2-0.5s0.9,0.2,1.2,0.5c0.3,0.3,0.5,0.7,0.5,1.2v2.6l-0.2-1.8c0.2-0.4,0.5-0.8,0.8-1.2
					c0.3-0.3,0.7-0.6,1.1-0.8c0.4-0.2,0.8-0.4,1.3-0.5s0.9-0.2,1.4-0.2c0.5,0,1,0.2,1.4,0.5c0.4,0.3,0.6,0.7,0.6,1.1
					c0,0.6-0.2,1-0.5,1.3c-0.3,0.3-0.6,0.4-1,0.4c-0.3,0-0.7-0.1-0.9-0.2c-0.3-0.1-0.6-0.2-1-0.2c-0.3,0-0.7,0.1-1,0.2
					c-0.3,0.2-0.6,0.4-0.9,0.7c-0.3,0.3-0.5,0.7-0.7,1.2c-0.2,0.5-0.3,1.1-0.3,1.7v6.5c0,0.5-0.2,0.9-0.5,1.2
					C199.7,49.7,199.3,49.8,198.8,49.8z"/>
				<path class="st11" d="M220.9,34.9c0.5,0,0.9,0.2,1.2,0.5s0.5,0.7,0.5,1.2v11.6c0,0.5-0.2,0.9-0.5,1.2c-0.3,0.3-0.7,0.5-1.2,0.5
					s-0.9-0.2-1.2-0.5c-0.3-0.3-0.5-0.7-0.5-1.2v-1.3l0.6,0.2c0,0.2-0.1,0.5-0.4,0.9c-0.3,0.3-0.6,0.7-1,1c-0.4,0.3-1,0.6-1.5,0.8
					c-0.6,0.2-1.2,0.3-1.9,0.3c-1.3,0-2.4-0.3-3.4-1c-1-0.6-1.8-1.5-2.4-2.7c-0.6-1.1-0.9-2.4-0.9-3.9c0-1.5,0.3-2.8,0.9-3.9
					c0.6-1.1,1.4-2,2.4-2.7c1-0.6,2.1-1,3.3-1c0.8,0,1.5,0.1,2.2,0.4c0.7,0.2,1.2,0.5,1.7,0.9c0.5,0.4,0.9,0.7,1.1,1.1
					c0.3,0.4,0.4,0.7,0.4,0.9l-1,0.4v-2c0-0.5,0.2-0.9,0.5-1.2C220,35.1,220.4,34.9,220.9,34.9z M215.3,47.1c0.8,0,1.5-0.2,2.1-0.6
					c0.6-0.4,1.1-0.9,1.4-1.6s0.5-1.5,0.5-2.3c0-0.9-0.2-1.7-0.5-2.3c-0.3-0.7-0.8-1.2-1.4-1.6c-0.6-0.4-1.3-0.6-2.1-0.6
					c-0.8,0-1.5,0.2-2.1,0.6c-0.6,0.4-1.1,0.9-1.4,1.6c-0.3,0.7-0.5,1.5-0.5,2.3c0,0.9,0.2,1.6,0.5,2.3c0.3,0.7,0.8,1.2,1.4,1.6
					C213.9,46.9,214.6,47.1,215.3,47.1z"/>
				<path class="st11" d="M234.4,35.2c0.3,0,0.7,0.1,1,0.3c0.3,0.2,0.5,0.4,0.7,0.8l4,9.2l-0.6,0.3l4.1-9.4c0.3-0.7,0.8-1.1,1.4-1
					c0.5,0,0.8,0.1,1.1,0.4s0.4,0.6,0.4,1.1c0,0.1,0,0.3-0.1,0.4c0,0.1-0.1,0.3-0.2,0.4l-5.1,11.3c-0.3,0.7-0.8,1-1.4,1
					c-0.3,0.1-0.7,0-1-0.2c-0.3-0.2-0.6-0.5-0.7-0.8l-5.1-11.3c0-0.1-0.1-0.2-0.1-0.4c0-0.1-0.1-0.3-0.1-0.5c0-0.3,0.1-0.7,0.4-1
					C233.5,35.4,233.9,35.2,234.4,35.2z"/>
				<path class="st11" d="M255.8,50.1c-1.5,0-2.9-0.3-4-1c-1.1-0.6-2-1.5-2.6-2.6c-0.6-1.1-0.9-2.4-0.9-3.8c0-1.6,0.3-3,1-4.2
					c0.7-1.2,1.5-2,2.6-2.7c1.1-0.6,2.2-0.9,3.4-0.9c0.9,0,1.8,0.2,2.6,0.6c0.8,0.4,1.6,0.9,2.2,1.6s1.1,1.4,1.5,2.3
					c0.4,0.9,0.6,1.8,0.6,2.8c0,0.4-0.2,0.8-0.5,1.1s-0.7,0.4-1.1,0.4h-10.4l-0.8-2.7h10l-0.6,0.5v-0.7c0-0.5-0.2-1-0.6-1.4
					c-0.3-0.4-0.8-0.8-1.3-1c-0.5-0.2-1-0.4-1.6-0.4c-0.5,0-1.1,0.1-1.5,0.2s-0.9,0.4-1.2,0.7c-0.3,0.3-0.6,0.8-0.8,1.4
					c-0.2,0.6-0.3,1.3-0.3,2.2c0,1,0.2,1.8,0.6,2.5c0.4,0.7,0.9,1.2,1.6,1.6c0.6,0.4,1.3,0.5,2.1,0.5c0.7,0,1.2-0.1,1.6-0.2
					c0.4-0.1,0.7-0.2,1-0.4c0.2-0.2,0.5-0.3,0.7-0.4c0.3-0.2,0.6-0.2,0.9-0.2c0.4,0,0.7,0.1,1,0.4c0.3,0.3,0.4,0.6,0.4,1
					c0,0.5-0.3,0.9-0.8,1.3c-0.5,0.4-1.1,0.8-2,1.1C257.6,50,256.7,50.1,255.8,50.1z"/>
				<path class="st11" d="M274.2,46.8c0.4,0,0.8,0.1,1.1,0.4c0.3,0.3,0.4,0.6,0.4,1.1c0,0.4-0.1,0.8-0.4,1.1
					c-0.3,0.3-0.7,0.4-1.1,0.4h-8.8c-0.5,0-0.8-0.2-1.1-0.5c-0.3-0.3-0.4-0.7-0.4-1c0-0.3,0.1-0.5,0.1-0.7c0.1-0.2,0.2-0.5,0.4-0.7
					l6.8-8.8l-0.1,0.4h-5.5c-0.4,0-0.8-0.1-1.1-0.4c-0.3-0.3-0.4-0.7-0.4-1.1c0-0.4,0.1-0.8,0.4-1.1c0.3-0.3,0.7-0.4,1.1-0.4h8.4
					c0.4,0,0.8,0.2,1.1,0.5c0.3,0.3,0.4,0.7,0.4,1.2c0,0.2-0.1,0.4-0.1,0.5c0,0.2-0.2,0.4-0.4,0.7l-6.7,8.7v-0.2H274.2z"/>
			</g>
		</g>
	</g>
	<g>
		<g>
			<g>
				<path class="st1" d="M58.1,48.2c0,0.5-0.2,0.9-0.5,1.2c-0.3,0.3-0.7,0.5-1.2,0.5c-0.5,0-0.9-0.2-1.2-0.5
					c-0.3-0.3-0.5-0.7-0.5-1.2V32.4c0-0.5,0.2-0.9,0.5-1.2c0.3-0.3,0.7-0.5,1.3-0.5c0.4,0,0.8,0.2,1.2,0.5c0.3,0.3,0.5,0.7,0.5,1.2
					V48.2z"/>
				<path class="st1" d="M69.7,34.9c1.3,0,2.4,0.3,3.1,0.8s1.2,1.3,1.4,2.3c0.3,0.9,0.4,2,0.4,3.1v7c0,0.5-0.2,0.9-0.5,1.2
					c-0.3,0.3-0.7,0.5-1.2,0.5s-0.9-0.2-1.2-0.5c-0.3-0.3-0.5-0.7-0.5-1.2v-7c0-0.6-0.1-1.1-0.2-1.6c-0.2-0.5-0.4-0.9-0.8-1.2
					c-0.4-0.3-1-0.4-1.7-0.4c-0.7,0-1.3,0.1-1.8,0.4c-0.5,0.3-0.9,0.7-1.1,1.2c-0.3,0.5-0.4,1-0.4,1.6v7c0,0.5-0.2,0.9-0.5,1.2
					c-0.3,0.3-0.7,0.5-1.2,0.5c-0.5,0-0.9-0.2-1.2-0.5c-0.3-0.3-0.5-0.7-0.5-1.2V36.9c0-0.5,0.2-0.9,0.5-1.2
					c0.3-0.3,0.7-0.5,1.2-0.5c0.5,0,0.9,0.2,1.2,0.5c0.3,0.3,0.5,0.7,0.5,1.2v1.2L64.8,38c0.2-0.3,0.4-0.6,0.7-1
					c0.3-0.4,0.7-0.7,1.1-1c0.4-0.3,0.9-0.6,1.4-0.8S69.1,34.9,69.7,34.9z"/>
				<path class="st1" d="M78.4,35.5h6.5c0.4,0,0.8,0.1,1.1,0.4c0.3,0.3,0.4,0.7,0.4,1.1c0,0.4-0.1,0.8-0.4,1.1
					c-0.3,0.3-0.7,0.4-1.1,0.4h-6.5c-0.4,0-0.8-0.1-1.1-0.4c-0.3-0.3-0.4-0.7-0.4-1.1c0-0.4,0.1-0.8,0.4-1.1
					C77.6,35.6,77.9,35.5,78.4,35.5z M81.3,32.1c0.5,0,0.9,0.2,1.2,0.5c0.3,0.3,0.5,0.7,0.5,1.2v12.2c0,0.3,0,0.5,0.2,0.6
					c0.1,0.2,0.2,0.3,0.4,0.4C83.6,47,83.8,47,84,47c0.2,0,0.4,0,0.6-0.1c0.2-0.1,0.4-0.1,0.6-0.1c0.3,0,0.5,0.1,0.7,0.4
					c0.2,0.2,0.3,0.6,0.3,1c0,0.5-0.3,0.9-0.8,1.3c-0.6,0.3-1.2,0.5-1.8,0.5c-0.4,0-0.8,0-1.3-0.1c-0.5-0.1-0.9-0.2-1.3-0.5
					c-0.4-0.2-0.8-0.6-1-1.1c-0.3-0.5-0.4-1.2-0.4-2.1V33.7c0-0.5,0.2-0.9,0.5-1.2C80.4,32.2,80.8,32.1,81.3,32.1z"/>
				<path class="st1" d="M96.1,50.1c-1.5,0-2.9-0.3-4-1c-1.1-0.6-2-1.5-2.6-2.6c-0.6-1.1-0.9-2.4-0.9-3.8c0-1.6,0.3-3,1-4.2
					c0.7-1.2,1.5-2,2.6-2.7c1.1-0.6,2.2-0.9,3.4-0.9c0.9,0,1.8,0.2,2.6,0.6c0.8,0.4,1.6,0.9,2.2,1.6s1.1,1.4,1.5,2.3
					c0.4,0.9,0.6,1.8,0.6,2.8c0,0.4-0.2,0.8-0.5,1.1s-0.7,0.4-1.1,0.4H90.4l-0.8-2.7h10L99,41.5v-0.7c0-0.5-0.2-1-0.6-1.4
					c-0.3-0.4-0.8-0.8-1.3-1c-0.5-0.2-1-0.4-1.6-0.4c-0.5,0-1.1,0.1-1.5,0.2s-0.9,0.4-1.2,0.7c-0.3,0.3-0.6,0.8-0.8,1.4
					c-0.2,0.6-0.3,1.3-0.3,2.2c0,1,0.2,1.8,0.6,2.5c0.4,0.7,0.9,1.2,1.6,1.6c0.6,0.4,1.3,0.5,2.1,0.5c0.7,0,1.2-0.1,1.6-0.2
					c0.4-0.1,0.7-0.2,1-0.4c0.2-0.2,0.5-0.3,0.7-0.4c0.3-0.2,0.6-0.2,0.9-0.2c0.4,0,0.7,0.1,1,0.4c0.3,0.3,0.4,0.6,0.4,1
					c0,0.5-0.3,0.9-0.8,1.3c-0.5,0.4-1.1,0.8-2,1.1C97.9,50,97,50.1,96.1,50.1z"/>
				<path class="st1" d="M113,34.9c1.3,0,2.4,0.3,3.1,0.8s1.2,1.3,1.4,2.3c0.3,0.9,0.4,2,0.4,3.1v7c0,0.5-0.2,0.9-0.5,1.2
					c-0.3,0.3-0.7,0.5-1.2,0.5s-0.9-0.2-1.2-0.5c-0.3-0.3-0.5-0.7-0.5-1.2v-7c0-0.6-0.1-1.1-0.2-1.6c-0.2-0.5-0.4-0.9-0.8-1.2
					c-0.4-0.3-1-0.4-1.7-0.4c-0.7,0-1.3,0.1-1.8,0.4c-0.5,0.3-0.9,0.7-1.1,1.2c-0.3,0.5-0.4,1-0.4,1.6v7c0,0.5-0.2,0.9-0.5,1.2
					c-0.3,0.3-0.7,0.5-1.2,0.5s-0.9-0.2-1.2-0.5c-0.3-0.3-0.5-0.7-0.5-1.2V36.9c0-0.5,0.2-0.9,0.5-1.2c0.3-0.3,0.7-0.5,1.2-0.5
					s0.9,0.2,1.2,0.5c0.3,0.3,0.5,0.7,0.5,1.2v1.2l-0.4-0.1c0.2-0.3,0.4-0.6,0.7-1c0.3-0.4,0.7-0.7,1.1-1c0.4-0.3,0.9-0.6,1.4-0.8
					S112.4,34.9,113,34.9z"/>
				<path class="st1" d="M121.7,35.5h6.5c0.4,0,0.8,0.1,1.1,0.4c0.3,0.3,0.4,0.7,0.4,1.1c0,0.4-0.1,0.8-0.4,1.1
					c-0.3,0.3-0.7,0.4-1.1,0.4h-6.5c-0.4,0-0.8-0.1-1.1-0.4c-0.3-0.3-0.4-0.7-0.4-1.1c0-0.4,0.1-0.8,0.4-1.1
					C120.9,35.6,121.2,35.5,121.7,35.5z M124.6,32.1c0.5,0,0.9,0.2,1.2,0.5c0.3,0.3,0.5,0.7,0.5,1.2v12.2c0,0.3,0,0.5,0.2,0.6
					c0.1,0.2,0.2,0.3,0.4,0.4c0.2,0.1,0.4,0.1,0.6,0.1c0.2,0,0.4,0,0.6-0.1c0.2-0.1,0.4-0.1,0.6-0.1c0.3,0,0.5,0.1,0.7,0.4
					c0.2,0.2,0.3,0.6,0.3,1c0,0.5-0.3,0.9-0.8,1.3c-0.6,0.3-1.2,0.5-1.8,0.5c-0.4,0-0.8,0-1.3-0.1c-0.5-0.1-0.9-0.2-1.3-0.5
					c-0.4-0.2-0.8-0.6-1-1.1c-0.3-0.5-0.4-1.2-0.4-2.1V33.7c0-0.5,0.2-0.9,0.5-1.2C123.7,32.2,124.1,32.1,124.6,32.1z"/>
				<path class="st1" d="M144.5,34.9c0.5,0,0.9,0.2,1.2,0.5s0.5,0.7,0.5,1.2v11.6c0,0.5-0.2,0.9-0.5,1.2c-0.3,0.3-0.7,0.5-1.2,0.5
					s-0.9-0.2-1.2-0.5c-0.3-0.3-0.5-0.7-0.5-1.2v-1.3l0.6,0.2c0,0.2-0.1,0.5-0.4,0.9c-0.3,0.3-0.6,0.7-1,1c-0.4,0.3-1,0.6-1.5,0.8
					c-0.6,0.2-1.2,0.3-1.9,0.3c-1.3,0-2.4-0.3-3.4-1c-1-0.6-1.8-1.5-2.4-2.7c-0.6-1.1-0.9-2.4-0.9-3.9c0-1.5,0.3-2.8,0.9-3.9
					c0.6-1.1,1.4-2,2.4-2.7c1-0.6,2.1-1,3.3-1c0.8,0,1.5,0.1,2.2,0.4c0.7,0.2,1.2,0.5,1.7,0.9c0.5,0.4,0.9,0.7,1.1,1.1
					c0.3,0.4,0.4,0.7,0.4,0.9l-1,0.4v-2c0-0.5,0.2-0.9,0.5-1.2C143.7,35.1,144.1,34.9,144.5,34.9z M139,47.1c0.8,0,1.5-0.2,2.1-0.6
					c0.6-0.4,1.1-0.9,1.4-1.6s0.5-1.5,0.5-2.3c0-0.9-0.2-1.7-0.5-2.3c-0.3-0.7-0.8-1.2-1.4-1.6c-0.6-0.4-1.3-0.6-2.1-0.6
					c-0.8,0-1.5,0.2-2.1,0.6c-0.6,0.4-1.1,0.9-1.4,1.6c-0.3,0.7-0.5,1.5-0.5,2.3c0,0.9,0.2,1.6,0.5,2.3c0.3,0.7,0.8,1.2,1.4,1.6
					C137.5,46.9,138.2,47.1,139,47.1z"/>
				<path class="st1" d="M151.4,49.8c-0.5,0-0.9-0.2-1.2-0.5c-0.3-0.3-0.5-0.7-0.5-1.2V36.9c0-0.5,0.2-0.9,0.5-1.2
					c0.3-0.3,0.7-0.5,1.2-0.5s0.9,0.2,1.2,0.5c0.3,0.3,0.5,0.7,0.5,1.2v2.6l-0.2-1.8c0.2-0.4,0.5-0.8,0.8-1.2
					c0.3-0.3,0.7-0.6,1.1-0.8c0.4-0.2,0.8-0.4,1.3-0.5s0.9-0.2,1.4-0.2c0.5,0,1,0.2,1.4,0.5c0.4,0.3,0.6,0.7,0.6,1.1
					c0,0.6-0.2,1-0.5,1.3c-0.3,0.3-0.6,0.4-1,0.4c-0.3,0-0.7-0.1-0.9-0.2c-0.3-0.1-0.6-0.2-1-0.2c-0.3,0-0.7,0.1-1,0.2
					c-0.3,0.2-0.6,0.4-0.9,0.7c-0.3,0.3-0.5,0.7-0.7,1.2c-0.2,0.5-0.3,1.1-0.3,1.7v6.5c0,0.5-0.2,0.9-0.5,1.2
					C152.2,49.7,151.8,49.8,151.4,49.8z"/>
				<path class="st1" d="M183.3,42.5c0,1.5-0.3,2.8-1,3.9c-0.7,1.1-1.6,2-2.7,2.7s-2.4,1-3.8,1c-1.4,0-2.6-0.3-3.8-1
					c-1.1-0.6-2-1.5-2.7-2.7c-0.7-1.1-1-2.5-1-3.9c0-1.5,0.3-2.8,1-3.9c0.7-1.1,1.6-2,2.7-2.7c1.1-0.6,2.4-1,3.8-1
					c1.4,0,2.6,0.3,3.8,1c1.1,0.6,2,1.5,2.7,2.7C182.9,39.7,183.3,41,183.3,42.5z M180,42.5c0-0.9-0.2-1.7-0.6-2.4
					c-0.4-0.7-0.9-1.2-1.5-1.6c-0.6-0.4-1.3-0.6-2.1-0.6c-0.8,0-1.5,0.2-2.1,0.6c-0.6,0.4-1.1,0.9-1.5,1.6c-0.4,0.7-0.6,1.5-0.6,2.4
					c0,0.9,0.2,1.7,0.6,2.4c0.4,0.7,0.9,1.2,1.5,1.6c0.6,0.4,1.3,0.6,2.1,0.6c0.8,0,1.5-0.2,2.1-0.6c0.6-0.4,1.1-0.9,1.5-1.6
					C179.8,44.2,180,43.4,180,42.5z"/>
				<path class="st1" d="M186.2,35.5h6.5c0.4,0,0.8,0.1,1.1,0.4c0.3,0.3,0.4,0.7,0.4,1.1c0,0.4-0.1,0.8-0.4,1.1
					c-0.3,0.3-0.7,0.4-1.1,0.4h-6.5c-0.4,0-0.8-0.1-1.1-0.4c-0.3-0.3-0.4-0.7-0.4-1.1c0-0.4,0.1-0.8,0.4-1.1
					C185.4,35.6,185.7,35.5,186.2,35.5z M189.1,32.1c0.5,0,0.9,0.2,1.2,0.5c0.3,0.3,0.5,0.7,0.5,1.2v12.2c0,0.3,0,0.5,0.2,0.6
					c0.1,0.2,0.2,0.3,0.4,0.4c0.2,0.1,0.4,0.1,0.6,0.1c0.2,0,0.4,0,0.6-0.1c0.2-0.1,0.4-0.1,0.6-0.1c0.3,0,0.5,0.1,0.7,0.4
					c0.2,0.2,0.3,0.6,0.3,1c0,0.5-0.3,0.9-0.8,1.3c-0.6,0.3-1.2,0.5-1.8,0.5c-0.4,0-0.8,0-1.3-0.1c-0.5-0.1-0.9-0.2-1.3-0.5
					c-0.4-0.2-0.8-0.6-1-1.1c-0.3-0.5-0.4-1.2-0.4-2.1V33.7c0-0.5,0.2-0.9,0.5-1.2C188.2,32.2,188.6,32.1,189.1,32.1z"/>
				<path class="st1" d="M198.8,49.8c-0.5,0-0.9-0.2-1.2-0.5c-0.3-0.3-0.5-0.7-0.5-1.2V36.9c0-0.5,0.2-0.9,0.5-1.2
					c0.3-0.3,0.7-0.5,1.2-0.5s0.9,0.2,1.2,0.5c0.3,0.3,0.5,0.7,0.5,1.2v2.6l-0.2-1.8c0.2-0.4,0.5-0.8,0.8-1.2
					c0.3-0.3,0.7-0.6,1.1-0.8c0.4-0.2,0.8-0.4,1.3-0.5s0.9-0.2,1.4-0.2c0.5,0,1,0.2,1.4,0.5c0.4,0.3,0.6,0.7,0.6,1.1
					c0,0.6-0.2,1-0.5,1.3c-0.3,0.3-0.6,0.4-1,0.4c-0.3,0-0.7-0.1-0.9-0.2c-0.3-0.1-0.6-0.2-1-0.2c-0.3,0-0.7,0.1-1,0.2
					c-0.3,0.2-0.6,0.4-0.9,0.7c-0.3,0.3-0.5,0.7-0.7,1.2c-0.2,0.5-0.3,1.1-0.3,1.7v6.5c0,0.5-0.2,0.9-0.5,1.2
					C199.7,49.7,199.3,49.8,198.8,49.8z"/>
				<path class="st1" d="M220.9,34.9c0.5,0,0.9,0.2,1.2,0.5s0.5,0.7,0.5,1.2v11.6c0,0.5-0.2,0.9-0.5,1.2c-0.3,0.3-0.7,0.5-1.2,0.5
					s-0.9-0.2-1.2-0.5c-0.3-0.3-0.5-0.7-0.5-1.2v-1.3l0.6,0.2c0,0.2-0.1,0.5-0.4,0.9c-0.3,0.3-0.6,0.7-1,1c-0.4,0.3-1,0.6-1.5,0.8
					c-0.6,0.2-1.2,0.3-1.9,0.3c-1.3,0-2.4-0.3-3.4-1c-1-0.6-1.8-1.5-2.4-2.7c-0.6-1.1-0.9-2.4-0.9-3.9c0-1.5,0.3-2.8,0.9-3.9
					c0.6-1.1,1.4-2,2.4-2.7c1-0.6,2.1-1,3.3-1c0.8,0,1.5,0.1,2.2,0.4c0.7,0.2,1.2,0.5,1.7,0.9c0.5,0.4,0.9,0.7,1.1,1.1
					c0.3,0.4,0.4,0.7,0.4,0.9l-1,0.4v-2c0-0.5,0.2-0.9,0.5-1.2C220,35.1,220.4,34.9,220.9,34.9z M215.3,47.1c0.8,0,1.5-0.2,2.1-0.6
					c0.6-0.4,1.1-0.9,1.4-1.6s0.5-1.5,0.5-2.3c0-0.9-0.2-1.7-0.5-2.3c-0.3-0.7-0.8-1.2-1.4-1.6c-0.6-0.4-1.3-0.6-2.1-0.6
					c-0.8,0-1.5,0.2-2.1,0.6c-0.6,0.4-1.1,0.9-1.4,1.6c-0.3,0.7-0.5,1.5-0.5,2.3c0,0.9,0.2,1.6,0.5,2.3c0.3,0.7,0.8,1.2,1.4,1.6
					C213.9,46.9,214.6,47.1,215.3,47.1z"/>
				<path class="st1" d="M234.4,35.2c0.3,0,0.7,0.1,1,0.3c0.3,0.2,0.5,0.4,0.7,0.8l4,9.2l-0.6,0.3l4.1-9.4c0.3-0.7,0.8-1.1,1.4-1
					c0.5,0,0.8,0.1,1.1,0.4s0.4,0.6,0.4,1.1c0,0.1,0,0.3-0.1,0.4c0,0.1-0.1,0.3-0.2,0.4l-5.1,11.3c-0.3,0.7-0.8,1-1.4,1
					c-0.3,0.1-0.7,0-1-0.2c-0.3-0.2-0.6-0.5-0.7-0.8l-5.1-11.3c0-0.1-0.1-0.2-0.1-0.4c0-0.1-0.1-0.3-0.1-0.5c0-0.3,0.1-0.7,0.4-1
					C233.5,35.4,233.9,35.2,234.4,35.2z"/>
				<path class="st1" d="M255.8,50.1c-1.5,0-2.9-0.3-4-1c-1.1-0.6-2-1.5-2.6-2.6c-0.6-1.1-0.9-2.4-0.9-3.8c0-1.6,0.3-3,1-4.2
					c0.7-1.2,1.5-2,2.6-2.7c1.1-0.6,2.2-0.9,3.4-0.9c0.9,0,1.8,0.2,2.6,0.6c0.8,0.4,1.6,0.9,2.2,1.6s1.1,1.4,1.5,2.3
					c0.4,0.9,0.6,1.8,0.6,2.8c0,0.4-0.2,0.8-0.5,1.1s-0.7,0.4-1.1,0.4h-10.4l-0.8-2.7h10l-0.6,0.5v-0.7c0-0.5-0.2-1-0.6-1.4
					c-0.3-0.4-0.8-0.8-1.3-1c-0.5-0.2-1-0.4-1.6-0.4c-0.5,0-1.1,0.1-1.5,0.2s-0.9,0.4-1.2,0.7c-0.3,0.3-0.6,0.8-0.8,1.4
					c-0.2,0.6-0.3,1.3-0.3,2.2c0,1,0.2,1.8,0.6,2.5c0.4,0.7,0.9,1.2,1.6,1.6c0.6,0.4,1.3,0.5,2.1,0.5c0.7,0,1.2-0.1,1.6-0.2
					c0.4-0.1,0.7-0.2,1-0.4c0.2-0.2,0.5-0.3,0.7-0.4c0.3-0.2,0.6-0.2,0.9-0.2c0.4,0,0.7,0.1,1,0.4c0.3,0.3,0.4,0.6,0.4,1
					c0,0.5-0.3,0.9-0.8,1.3c-0.5,0.4-1.1,0.8-2,1.1C257.6,50,256.7,50.1,255.8,50.1z"/>
				<path class="st1" d="M274.2,46.8c0.4,0,0.8,0.1,1.1,0.4c0.3,0.3,0.4,0.6,0.4,1.1c0,0.4-0.1,0.8-0.4,1.1
					c-0.3,0.3-0.7,0.4-1.1,0.4h-8.8c-0.5,0-0.8-0.2-1.1-0.5c-0.3-0.3-0.4-0.7-0.4-1c0-0.3,0.1-0.5,0.1-0.7c0.1-0.2,0.2-0.5,0.4-0.7
					l6.8-8.8l-0.1,0.4h-5.5c-0.4,0-0.8-0.1-1.1-0.4c-0.3-0.3-0.4-0.7-0.4-1.1c0-0.4,0.1-0.8,0.4-1.1c0.3-0.3,0.7-0.4,1.1-0.4h8.4
					c0.4,0,0.8,0.2,1.1,0.5c0.3,0.3,0.4,0.7,0.4,1.2c0,0.2-0.1,0.4-0.1,0.5c0,0.2-0.2,0.4-0.4,0.7l-6.7,8.7v-0.2H274.2z"/>
			</g>
		</g>
	</g>
</g>
</svg>
