<svg xmlns="http://www.w3.org/2000/svg" viewBox="0 0 169.85 332.45"><defs><style>.cls-1,.cls-3{fill:#3e3632;}.cls-1,.cls-6{stroke:#33251e;}.cls-1,.cls-2,.cls-4,.cls-6,.cls-7,.cls-8{stroke-miterlimit:10;}.cls-2{fill:#e7cdb4;stroke:#b88d61;}.cls-4{fill:#dca495;stroke:#c98a79;}.cls-5{fill:#986353;}.cls-6,.cls-8{fill:none;}.cls-6,.cls-7,.cls-8{stroke-width:1.19px;}.cls-7{fill:#caa47e;}.cls-7,.cls-8{stroke:#ab855e;}</style></defs><title>Mono</title><g id="Capa_2" data-name="Capa 2"><g id="Capa_5" data-name="Capa 5"><path class="cls-1" d="M156.59,112.44A32.57,32.57,0,0,0,142,117c-1.69.94-3.35,1.92-5.51,3.17-.57-6-1-11.44-1.61-16.85-.72-6.49-1.71-13-2.33-19.44a20.78,20.78,0,0,0-4.16-10.33q-3.48-4.81-7.15-9.5c-.39-.5-1.25-.62-1.9-.92-.06,8.53-.06,17.07-.21,25.59a29.33,29.33,0,0,1-.91,6.45c-1.13,4.58-2.45,9.12-3.73,13.67-.22.8-.58,1.58-.88,2.37l-1-.07c-.69-3.47-1.38-6.93-2.22-11.13l-6.16,14.7c-2.29-1.1-3.76-2.11-2.17-4.56.12-.18-.38-.76-.68-1.32l-3.41,5.1c-.31-3-.52-5.1-.77-7.55L94,108.9V91.07l-5.06,10-4.84-3.5-1.15,5-3.38-5.19c-1.25,3.84-2.26,6.94-3.28,10,.67,3.4,1.33,6.8,2.06,10.55-.8-.06-1.73-.1-2.65-.19-6.81-.6-10.75,1.81-12.16,8.31a40.18,40.18,0,0,0-.77,11.68c.38,4.67,1.58,9.29,2.55,13.9,1.29,6.17-2.07,10.51-8.24,10.55-2.76,0-5.52.16-8.28.25-1.32,3.28,2.44,3.07,3.5,4.44-3.3,3.73-6.35,7.13-9.32,10.6-.32.37-.2,1.12-.28,1.7,1.83,4.56,6.4,5.74,10.08,7.9,1.22.71,3,.34,3.77,2.15.21.45,1.82.52,2.71.35a26.82,26.82,0,0,0,3.86-1.35c.47-1.26.61-2.83,1.46-3.72a23.68,23.68,0,0,0,6.33-12.9c1,.57,1.67.73,2,1.14,4,5.87,10.67,6.71,16.63,8.53,4,1.23,8.42,1.1,13,1.62-.21,1.73-.41,3.39-.6,5,1.78.92,3.56,1.85,5.35,2.75a199.85,199.85,0,0,0,20.27,9l.23-5c-.33-.71-1-1.5-.92-2.12.47-2.38,1.2-4.7,1.83-7.05-1.3-3,.89-4.85,2.53-6.76C137,172,143,165.34,148.69,158.51q8-9.57,15.67-19.46a23.16,23.16,0,0,0,5-14.35C169.36,116.85,164.51,112.13,156.59,112.44Z"/><path class="cls-2" d="M70.41,100.26c-1.27-2.52-1.88-5.37-3-8.63-3.21,6.3-5.61,12.32-10.31,16.88a10.06,10.06,0,0,1-2.3,1.29c-.37-1.18-1.09-2.39-1-3.55.14-2.91.65-5.81,1.12-9.59l-6.27,4.87c1.92-4.44-4-5.31-2.89-9.73-2,1.31-4,2.72-6.11,3.89a54.51,54.51,0,0,1-5.2,2.22,12.76,12.76,0,0,1,.79-2.74C41,84.75,46.9,74.45,52.4,63.92c2.73-5.22,5.7-9.78,12.65-11-1.26-2-2.1-3.45-3-4.84-2.59-3.83-4.23-7.92-3.72-12.65.41-3.88.86-7.76,1.29-11.64a18,18,0,0,1,4.74-10.62C67.41,9.38,69,3.94,75.12,3.55,77.34,7.41,81.47,10,85,9,90,7.52,94.91,5.49,97.78.55c.69-.08,7.37,3.83,9.66,6.22s9,15.34,9.64,17.38a16.29,16.29,0,0,1-2.19,15.55c-2,2.83-3.72,5.85-5.67,8.95,1.58,1.88,3,3.44,4.26,5.13,1.59,2.15,3,4.4,4.53,6.61.45.94.9,1.88,1.34,2.82l0-.13c-.06,8.53-.06,17.07-.21,25.59a29.33,29.33,0,0,1-.91,6.45c-1.13,4.58-2.45,9.12-3.73,13.67-.22.81-.58,1.58-.88,2.37l-1-.07c-.69-3.47-1.38-6.93-2.22-11.13l-6.16,14.7c-2.29-1.1-3.76-2.11-2.17-4.56.12-.18-.38-.76-.68-1.32l-3.41,5.1-.77-7.55L94,108.9V91.07l-5.06,10-4.84-3.5-1.15,5-3.38-5.19c-1.25,3.84-2.26,6.94-3.28,10C72.38,106.64,71.8,103,70.41,100.26Z"/><path class="cls-3" d="M113.49,237.14c-1.23-.52-2.47-1-3.7-1.62-1.13,10.15-2.27,20.29-3.66,30.4-2,14.72-4.69,29.36-10.74,43.1a32.29,32.29,0,0,1-4.93,8c-3,3.43-6.91,4.31-11.77,2.62a28.12,28.12,0,0,1,0-4c.57-3.78,0-5.49-2.3-6.27a5.67,5.67,0,0,0-7,3.92,12.25,12.25,0,0,0,1,10.82c6.08,9.73,17.2,10.35,26,4.8a30.34,30.34,0,0,0,13.15-17.11c2.9-9.45,5.41-19,7.64-28.66a390.43,390.43,0,0,0,7.21-41.82Q118.92,239.4,113.49,237.14Z"/><path class="cls-1" d="M54.92,96.66l-6.27,4.87c1.92-4.44-4-5.31-2.89-9.73-2,1.31-4,2.72-6.11,3.89a54.51,54.51,0,0,1-5.2,2.22c-2.75,3.64-6.5,6.08-10.21,8.62C16.43,111.89,8.66,117.32.89,122.75l.15.1a33.12,33.12,0,0,0,5.58,5.54,33.71,33.71,0,0,0,6,3.74q16.11-5.86,32.25-11.69c5.2-1.86,8.88-5,10-10.64-.37-1.18-1.09-2.39-1-3.55C53.94,103.34,54.45,100.44,54.92,96.66Z"/><path class="cls-1" d="M75.12,3.55C77.34,7.41,81.47,10,85,9,90,7.52,94.91,5.49,97.78.55,90.15,1,82.49,1.16,75.12,3.55Z"/><path class="cls-3" d="M118,60.39l1.34,2.82Z"/><path class="cls-4" d="M74.87,40.47A8,8,0,0,1,76,45.77c-.24,5.19,4.55,6.66,8.84,6.61,2.6,0,4.63-.9,7-1.83,1.58-.62,4.07-1.42,4.87-3a5.8,5.8,0,0,0-.19-5c-.6-1.29-1.15-2-.62-3.4.59-1.56,2.47-2,3.84-2.72a17.54,17.54,0,0,0,5.52-5.12c2.72-4-.11-11.58-5.24-13.57-2.07-.8-5,.81-6.9,1.61a24.91,24.91,0,0,1-9.49,1.62c-2.5-.11-9.5-3.41-13-2-1.71.7-2.43,2.53-3.14,4.22-1.87,4.46,0,11.24,3.67,14.06C73.79,38.14,74,39.08,74.87,40.47Z"/><ellipse class="cls-5" cx="76.15" cy="30.43" rx="2.09" ry="2.99"/><ellipse class="cls-5" cx="94.19" cy="29.98" rx="2.09" ry="2.99"/><path class="cls-5" d="M76.48,47a5.37,5.37,0,0,1,2.35-.71c.81-.07,1.58-.17,2.38-.29a22.93,22.93,0,0,1,4.89-.45c1.67.12,3.21.49,4.77.56a18.74,18.74,0,0,0,2.37,0,6.65,6.65,0,0,0,2.32-.46A8.58,8.58,0,0,1,90.87,47,39.64,39.64,0,0,1,86,46.7a42.77,42.77,0,0,0-4.74.19,19.82,19.82,0,0,1-2.44,0A6.12,6.12,0,0,0,76.48,47Z"/><path class="cls-5" d="M81.68,39.12c.43-.62,2.13.44,1.88,1-.72,1.55-1.83-.26-2.15-.69"/><path class="cls-5" d="M82.06,39.35s-.08.09,0,0,.07-.06,0,0,0,0,0,0,0,0,0,0l.1,0s-.13,0,0,0h.13c-.09,0,0,0,0,0l.07,0,.13,0,.06,0,0,0c-.08,0,0,0,0,0l.06,0,.14.08c.08,0,.15.1.23.15l0,0,0,0,.11.1.07.08s-.07-.1,0,0l0,0s0,0,0,0,0,.06,0,0,0,.14,0,0,0,0,0,0,0,0,0-.06a0,0,0,0,1,0,0s.06-.13,0-.07l0,.06a1,1,0,0,1-.1.17l-.05.07s.07-.07,0,0l0,0,0,0c-.06.05,0,0,0,0l0,0s-.09,0,0,0l-.1,0s.12,0,0,0h-.07s.13,0,0,0h0l0,0c-.06,0,.11.06,0,0l-.1-.06-.06,0h0l0,0c-.07-.07-.15-.12-.21-.19a1.7,1.7,0,0,1-.22-.24l-.1-.12,0,0,0,0,0,0-.29-.4a.45.45,0,1,0-.77.46,8.65,8.65,0,0,0,.76,1,1.41,1.41,0,0,0,1.37.52,1.27,1.27,0,0,0,.71-.62A.9.9,0,0,0,84,39.7a2,2,0,0,0-1-1,1.78,1.78,0,0,0-.84-.22,1,1,0,0,0-.81.41.45.45,0,0,0,.16.61.46.46,0,0,0,.61-.16Z"/><path class="cls-5" d="M88,39.39c.57-1.18,1.55-.37.85.66-1,1.41-2-.3-.94-1.2"/><path class="cls-5" d="M88.33,39.62a2.61,2.61,0,0,1,.17-.28l-.07.09a1.62,1.62,0,0,1,.18-.19l-.09.07.14-.08-.1.05.11,0-.12,0h.12l-.12,0,.09,0-.1,0,.08.05-.09-.07.08.07-.07-.09a.67.67,0,0,1,.06.12l0-.11a.47.47,0,0,1,0,.17v-.12a.89.89,0,0,1,0,.23v-.12a1,1,0,0,1-.08.3l0-.1a1.72,1.72,0,0,1-.22.37l.07-.09a2.23,2.23,0,0,1-.26.27l.09-.07a1.18,1.18,0,0,1-.19.11l.11,0-.16,0h.1a.5.5,0,0,1-.13,0l.1,0L88,40.09l.09.07L87.92,40l.07.09a.81.81,0,0,1-.1-.18l0,.1a.77.77,0,0,1-.07-.26v.12a1,1,0,0,1,0-.3l0,.12a1,1,0,0,1,.08-.29l0,.11a1.75,1.75,0,0,1,.16-.27l-.07.09a1.8,1.8,0,0,1,.19-.2.43.43,0,0,0,.14-.32.41.41,0,0,0-.14-.31.4.4,0,0,0-.31-.13.48.48,0,0,0-.32.13,1.72,1.72,0,0,0-.48.71A1.52,1.52,0,0,0,87,40a1.13,1.13,0,0,0,.85,1,1,1,0,0,0,.79-.16,2.13,2.13,0,0,0,.64-.73,1.52,1.52,0,0,0,.21-.85,1.05,1.05,0,0,0-.33-.7.88.88,0,0,0-.23-.14,1.11,1.11,0,0,0-.26-.07.91.91,0,0,0-.46.1,1.47,1.47,0,0,0-.65.7.47.47,0,0,0,0,.35.42.42,0,0,0,.2.27.46.46,0,0,0,.61-.16Z"/><path class="cls-4" d="M65,17.44c-1-3.15-7.75-4.5-9-.9A5.66,5.66,0,0,0,57,21.41c1,1.5,2.56,1.76,4.29,1.94"/><path class="cls-4" d="M107.3,14.93c1.6-2,4.22-4.19,7-2.45a5.19,5.19,0,0,1,2,5.57,4.55,4.55,0,0,1-3.7,3.24"/><path class="cls-6" d="M116.62,99.74s-1.8,18.28-3.23,21.86-5.37,6.81-6.45,7.89-36.32,39.7-36.32,39.7"/><path class="cls-6" d="M88.31,151.35s7.52,21.5,8.24,27.23"/><path class="cls-6" d="M132.74,129.49S113.39,165,112,177.87"/><path class="cls-7" d="M123.78,181.09c6.51-.32.88,15-4.12,15.61s-1.11-4.44-.16-6.51c1.31-2.89,2.64-6.58,2.49-9.81Z"/><path class="cls-7" d="M119.12,179.3c5.59,1.94-2.72,17.63-6.09,17.07-3.84-.63,4.12-16.05,5.38-17.79Z"/><path class="cls-7" d="M112.18,178.29c.41-.2,1-.26,1.39-.47,3,3.37.26,18.13-5.4,17C104.08,194,112.18,178.29,112.18,178.29Z"/><path class="cls-7" d="M109.81,177.15c-7.49-5.68-9.92,14.15-8.45,18.24,4.66-.93,5.4-8.29,7-11.79Z"/><path class="cls-6" d="M100.85,57.1c-2.17,2.75-4,2.38-4.83,5.89a72.33,72.33,0,0,0-1.86,12.58c-.45,8.49.1,17-.93,25.44-.42,3.49-1,8.77-1,8.77s.36,3.94-3.59,10.39-26.84,41.62-26.84,41.62"/><path class="cls-8" d="M63.1,65a33.09,33.09,0,0,0-1.68,8.64c-.24,2.51-1.12,7.22.48,9.38a9.07,9.07,0,0,0,4-3.39c-1.5,4.5.08,8.64,1.22,13.09"/></g></g></svg>