<svg xmlns="http://www.w3.org/2000/svg" viewBox="0 0 264.27 99.31"><defs><style>.cls-1,.cls-2,.cls-9{fill:#207dcd;}.cls-1{stroke:#185d99;}.cls-1,.cls-14,.cls-3,.cls-4,.cls-6,.cls-9{stroke-miterlimit:10;}.cls-3{fill:#1a67a8;stroke:#145082;}.cls-4,.cls-6{fill:#eff0ef;}.cls-4{stroke:#787878;}.cls-5{fill:#3b3b34;}.cls-6{stroke:#d6d6d6;}.cls-7{fill:#a8a8a8;}.cls-8{fill:#787878;}.cls-9{stroke:#1a67a8;}.cls-10{fill:#adaaa5;}.cls-11{fill:#c2b6c6;}.cls-12{fill:#dad8e8;}.cls-13{fill:#908f96;}.cls-14{fill:#dcdcda;stroke:#adadad;}</style></defs><title>Avion</title><g id="Capa_2" data-name="Capa 2"><g id="Capa_5" data-name="Capa 5"><path class="cls-1" d="M19.27,3.74l6.7-3H26c1.62-.19,3.09-.66,4.59.4a19.79,19.79,0,0,1,2.68,2.89c6.63,8.08,12,14.58,16.27,19.71,1,1.23,21.12,10.78,22,11.86,7.46,8.95-8.2,6.26-7.83,6.89,1.22,2.06-31.7,1.29-38.82,3L18.14,7.78A9.78,9.78,0,0,1,19.27,3.74Z"/><path class="cls-2" d="M25,1.83H25L18.9,4.51a7.76,7.76,0,0,1,.37-.77l6.7-3H26l.64-.08A3.34,3.34,0,0,1,25,1.83Z"/><path class="cls-3" d="M19.27,3.74l6.7-3H26c1.39-.16,2.69-.54,4,0A8.58,8.58,0,0,0,28.72,1c-2.8.73-8.11,2-7.55,5.92,1,6.83,3.21,13.65,4.86,20.37,1.43,5.82,2.68,11.71,4.1,17.54a36.15,36.15,0,0,0-5.2.66L18.14,7.78A9.78,9.78,0,0,1,19.27,3.74Z"/><path class="cls-4" d="M251.84,50c-26.54-22.28-32.8-20.63-55-19.5s-85.51,5.8-108.92,7.13S40,41.25,37.75,41.53a164.39,164.39,0,0,0-18.42,5.11,48,48,0,0,0-6.53,2.43c-1.88,1-.68,6.25,2.36,8.48.71.52,8.78,5.23,8.78,5.23S28,65.67,37.37,68.46c8.05,2.41,94.06,16.41,183.23,11.65,25.43-1.36,43.33-13.86,43.16-19.94C263.6,54.34,251.84,50,251.84,50Z"/><path class="cls-5" d="M213.67,48.06a36.31,36.31,0,0,1-3-6.73,2.51,2.51,0,0,1,1-2.86c2.11-.2,4.46-.39,7-.55.73-.06,1.46-.1,2.11-.14l10.39,12.84a85.64,85.64,0,0,1-10.2,1C217.63,51.63,215.55,51.25,213.67,48.06Z"/><path class="cls-5" d="M249.2,48.21s-9.64-8.58-12.68-9.79c-.73-.3-3.29-1.2-14.36-.82l10.07,12.78C237,49.81,243.77,49.12,249.2,48.21Z"/><path class="cls-6" d="M196.2,58.44c0-.12-.6-12.4-1.17-15.37a2.75,2.75,0,0,0-3-2.38l-.39,0-4.47.34-4.55.29h-.06a1.23,1.23,0,0,0-.93.44c-1.06,1.19-.8,4.31-.8,4.35s.4,11.7,1.17,15.21a3.2,3.2,0,0,0,3.45,2.7,5.17,5.17,0,0,0,.69-.07l7.42-.43C196.59,62.34,196.2,58.5,196.2,58.44Z"/><path class="cls-7" d="M167.6,50.94a1.41,1.41,0,0,1-1.45-1.21,34.17,34.17,0,0,1-.19-4.1,2.46,2.46,0,0,1,.39-1.57.93.93,0,0,1,.67-.3l2.36-.08h.12a1.31,1.31,0,0,1,1.37,1.13c.12.78.17,3.59.18,4.14a1.84,1.84,0,0,1-1.12,1.9l0,0h-.08l-2,.05-.19,0Z"/><path class="cls-8" d="M169.53,43.92a1,1,0,0,1,1.09.92c.13.81.18,4,.18,4.12a1.6,1.6,0,0,1-1,1.65h0l-2,.05h-.22a1.17,1.17,0,0,1-1.21-1,38.18,38.18,0,0,1-.18-4.09,2.16,2.16,0,0,1,.33-1.36A.65.65,0,0,1,167,44h0l2.37-.08h.13m0-.5h-.17l-2.33.08h0a1.21,1.21,0,0,0-.84.37,2.55,2.55,0,0,0-.46,1.74,35.5,35.5,0,0,0,.19,4.15,1.65,1.65,0,0,0,1.7,1.42h.05l.22,0,1.95,0h.07l.07,0h0a2.09,2.09,0,0,0,1.29-2.16c0-.77-.06-3.39-.18-4.16a1.54,1.54,0,0,0-1.59-1.34Z"/><path class="cls-7" d="M160.68,51.1a1.4,1.4,0,0,1-1.45-1.2,36.37,36.37,0,0,1-.19-4.1,2.36,2.36,0,0,1,.4-1.57.89.89,0,0,1,.66-.3l2.38-.08h.1A1.31,1.31,0,0,1,164,45c.14.86.18,4.13.18,4.16A1.81,1.81,0,0,1,163,51l0,0h-.07l-2,.05h-.24Z"/><path class="cls-8" d="M162.62,44.09a1,1,0,0,1,1.09.92c.13.81.17,4,.17,4.12a1.59,1.59,0,0,1-.95,1.65h0l-2,.05h-.22a1.14,1.14,0,0,1-1.2-1,38.75,38.75,0,0,1-.19-4.09,2.23,2.23,0,0,1,.33-1.36.65.65,0,0,1,.49-.22h0l2.37-.08h.14m0-.5h-.18l-2.32.08h0a1.16,1.16,0,0,0-.85.38,2.6,2.6,0,0,0-.46,1.73,35,35,0,0,0,.2,4.15,1.63,1.63,0,0,0,1.69,1.41H161l2-.05h.1l.09,0a2.1,2.1,0,0,0,1.29-2.16h0s0-3.28-.18-4.16a1.54,1.54,0,0,0-1.58-1.34Z"/><path class="cls-7" d="M153.76,51.27a1.41,1.41,0,0,1-1.45-1.2,37.66,37.66,0,0,1-.18-4.14h0a2.37,2.37,0,0,1,.39-1.53.88.88,0,0,1,.61-.29l2.43-.09h.1A1.3,1.3,0,0,1,157,45.14c.12.79.17,3.59.18,4.15a1.87,1.87,0,0,1-1.12,1.9H156l-2,0h-.24Z"/><path class="cls-8" d="M155.7,44.26a1,1,0,0,1,1.09.92c.13.82.18,4,.18,4.12A1.61,1.61,0,0,1,156,51h0l-2,0h-.23a1.15,1.15,0,0,1-1.2-1,38.18,38.18,0,0,1-.18-4.09,2.13,2.13,0,0,1,.32-1.36.68.68,0,0,1,.49-.22h0l2.38-.08h.13m0-.5h-.18l-2.34.08h-.05a1.17,1.17,0,0,0-.79.36,2.62,2.62,0,0,0-.46,1.73,35.79,35.79,0,0,0,.19,4.16,1.64,1.64,0,0,0,1.69,1.41H154l1.95,0h.07l.07,0h0l.05,0a2.1,2.1,0,0,0,1.29-2.16s-.05-3.28-.18-4.16a1.55,1.55,0,0,0-1.59-1.34Z"/><path class="cls-7" d="M146.85,51.44a1.4,1.4,0,0,1-1.45-1.2,38.57,38.57,0,0,1-.19-4.14,2.37,2.37,0,0,1,.4-1.53.89.89,0,0,1,.66-.3l2.48-.09a1.31,1.31,0,0,1,1.37,1.13c.14.86.18,4.13.18,4.16a1.83,1.83,0,0,1-1.12,1.88l0,0h-.08l-2,0h-.24Z"/><path class="cls-8" d="M148.79,44.43a1,1,0,0,1,1.09.92c.12.81.17,4,.17,4.12a1.6,1.6,0,0,1-1,1.65h0l-2,0h-.23a1.16,1.16,0,0,1-1.21-1,38.18,38.18,0,0,1-.18-4.09,2.14,2.14,0,0,1,.33-1.36.65.65,0,0,1,.49-.22h0l2.37-.08h.14m0-.5h-.18l-2.32.08h0a1.16,1.16,0,0,0-.85.38,2.64,2.64,0,0,0-.46,1.74h0a38.86,38.86,0,0,0,.19,4.14,1.64,1.64,0,0,0,1.7,1.41h.05l.22,0,1.95,0h.09l.08,0a2.11,2.11,0,0,0,1.31-2.17h0s0-3.29-.18-4.16a1.54,1.54,0,0,0-1.58-1.34Z"/><path class="cls-7" d="M139.94,51.61a1.4,1.4,0,0,1-1.46-1.2,38.29,38.29,0,0,1-.19-4.14,2.36,2.36,0,0,1,.39-1.53,1,1,0,0,1,.67-.3l2.38-.08h.1a1.3,1.3,0,0,1,1.37,1.13c.12.71.16,3.12.18,3.91v.24a1.84,1.84,0,0,1-1.13,1.89l0,0h-.08l-2,.05h-.23Z"/><path class="cls-8" d="M141.87,44.6a1,1,0,0,1,1.09.92c.13.81.17,4,.18,4.12a1.63,1.63,0,0,1-1,1.65h0l-2,.05h-.21a1.15,1.15,0,0,1-1.21-1,36.19,36.19,0,0,1-.19-4.09,2.24,2.24,0,0,1,.33-1.36.65.65,0,0,1,.49-.22h0l2.37-.08h.14m0-.5h-.18l-2.28.08h-.07a1.21,1.21,0,0,0-.84.37,2.58,2.58,0,0,0-.45,1.74,34.45,34.45,0,0,0,.19,4.16,1.63,1.63,0,0,0,1.7,1.4H140l.2,0,2,0h.09l.08,0a2.11,2.11,0,0,0,1.31-2.17v-.21c0-1.38-.08-3.3-.18-4a1.52,1.52,0,0,0-1.58-1.34Z"/><path class="cls-7" d="M133,51.78a1.41,1.41,0,0,1-1.45-1.2,33.94,33.94,0,0,1-.18-4.09,2.39,2.39,0,0,1,.39-1.58.93.93,0,0,1,.66-.3l2.37-.08h.12a1.31,1.31,0,0,1,1.37,1.13c.07.49.14,1.88.18,4v.13a1.85,1.85,0,0,1-1.12,1.89l0,0h-.08l-2,.05H133Z"/><path class="cls-8" d="M135,44.77a1,1,0,0,1,1.09.92c.13.82.18,4,.18,4.12a1.61,1.61,0,0,1-1,1.65h0l-2,.05H133a1.15,1.15,0,0,1-1.2-1,38.18,38.18,0,0,1-.18-4.09,2.12,2.12,0,0,1,.32-1.36.68.68,0,0,1,.49-.22h0l2.38-.08H135m0-.5h-.18l-2.34.08h-.07a1.18,1.18,0,0,0-.77.36,2.62,2.62,0,0,0-.46,1.75v0a32.13,32.13,0,0,0,.19,4.12A1.64,1.64,0,0,0,133,52h.27l1.95-.05h.08l.07,0h.05a2.09,2.09,0,0,0,1.29-2.16v-.1c-.05-2.19-.11-3.55-.19-4.06A1.52,1.52,0,0,0,135,44.27Z"/><path class="cls-7" d="M126.1,52a1.41,1.41,0,0,1-1.46-1.2,40.7,40.7,0,0,1-.18-4.14,2.37,2.37,0,0,1,.4-1.53.89.89,0,0,1,.66-.3l2.36-.08H128a1.31,1.31,0,0,1,1.37,1.13c.12.78.17,3.59.18,4.14a1.84,1.84,0,0,1-1.13,1.9l0,0h-.08l-2,0h-.24Z"/><path class="cls-8" d="M128,44.94a1,1,0,0,1,1.09.92c.12.81.17,4,.17,4.12a1.6,1.6,0,0,1-1,1.65h0l-2,0h-.23a1.15,1.15,0,0,1-1.2-1,38.18,38.18,0,0,1-.18-4.09,2.16,2.16,0,0,1,.33-1.36.64.64,0,0,1,.48-.22h0L127.9,45H128m0-.5h-.19l-2.34.08a1.16,1.16,0,0,0-.84.38,2.64,2.64,0,0,0-.46,1.74h0a38.86,38.86,0,0,0,.19,4.14,1.64,1.64,0,0,0,1.69,1.41h.28l1.95,0h.08l.08,0a2.1,2.1,0,0,0,1.32-2.17c0-.77-.06-3.38-.18-4.16A1.54,1.54,0,0,0,128,44.44Z"/><path class="cls-7" d="M119.19,52.12a1.41,1.41,0,0,1-1.46-1.2,36.37,36.37,0,0,1-.19-4.1,2.36,2.36,0,0,1,.4-1.57.91.91,0,0,1,.66-.3l2.36-.08h.12A1.29,1.29,0,0,1,122.45,46c.13.77.18,3.58.19,4.14a1.85,1.85,0,0,1-1.13,1.9l0,0h-.08l-2,0h-.23Z"/><path class="cls-8" d="M121.12,45.11a1,1,0,0,1,1.08.92c.14.81.18,4,.18,4.12a1.59,1.59,0,0,1-.95,1.65h0l-2,0h-.21a1.16,1.16,0,0,1-1.22-1c-.17-1-.18-4-.18-4.09a2.24,2.24,0,0,1,.33-1.36.66.66,0,0,1,.49-.22h0l2.37-.08h.14m0-.5h-.18l-2.3.08h0a1.17,1.17,0,0,0-.83.37,2.57,2.57,0,0,0-.47,1.72,35.64,35.64,0,0,0,.19,4.17,1.66,1.66,0,0,0,1.71,1.41h0l.21,0,2,0h.09l.09,0a2.07,2.07,0,0,0,1.3-2.16c0-.77-.06-3.39-.18-4.16a1.52,1.52,0,0,0-1.58-1.34Z"/><path class="cls-7" d="M112.26,52.29a1.4,1.4,0,0,1-1.45-1.2,34.13,34.13,0,0,1-.18-4.09,2.37,2.37,0,0,1,.39-1.58.91.91,0,0,1,.67-.3L114,45h.12a1.3,1.3,0,0,1,1.38,1.13c.07.49.14,1.88.18,4v.13a1.84,1.84,0,0,1-1.13,1.89l0,0h-.08l-2,.05h-.24Z"/><path class="cls-8" d="M114.2,45.28a1,1,0,0,1,1.09.92c.13.82.18,4,.18,4.12a1.61,1.61,0,0,1-1,1.65h0l-2,.05h-.23a1.14,1.14,0,0,1-1.2-1,38.18,38.18,0,0,1-.18-4.09,2.14,2.14,0,0,1,.32-1.36.68.68,0,0,1,.49-.22h0l2.38-.08h.13m0-.5H114l-2.35.08a1.18,1.18,0,0,0-.83.37,2.53,2.53,0,0,0-.46,1.74v0a32.13,32.13,0,0,0,.19,4.12,1.63,1.63,0,0,0,1.69,1.4h.27l2-.05h.1l.08,0A2.11,2.11,0,0,0,116,50.28v-.11c0-2.18-.11-3.54-.19-4.05a1.52,1.52,0,0,0-1.58-1.34Z"/><path class="cls-7" d="M105.34,52.46a1.39,1.39,0,0,1-1.44-1.2,38.38,38.38,0,0,1-.19-4.14,2.37,2.37,0,0,1,.4-1.53.89.89,0,0,1,.66-.3l2.37-.08h.11a1.31,1.31,0,0,1,1.37,1.13c.14.86.18,4.13.18,4.16a1.84,1.84,0,0,1-1.12,1.88l0,0h-.08l-2,.05h-.25Z"/><path class="cls-8" d="M107.29,45.45a1,1,0,0,1,1.08.92c.13.81.18,4,.18,4.12a1.6,1.6,0,0,1-1,1.65h0l-2,.05h-.23a1.16,1.16,0,0,1-1.2-1c-.17-1-.18-4-.18-4.09a2.17,2.17,0,0,1,.33-1.36.65.65,0,0,1,.49-.22h0l2.37-.08h.14m0-.5h-.19l-2.32.08h0a1.16,1.16,0,0,0-.84.38,2.58,2.58,0,0,0-.46,1.74h0a38.77,38.77,0,0,0,.19,4.14,1.64,1.64,0,0,0,1.69,1.41h.06l.22,0,1.95,0h.08l.08,0a2.1,2.1,0,0,0,1.32-2.17h0s0-3.28-.18-4.16A1.54,1.54,0,0,0,107.29,45Z"/><path class="cls-7" d="M98.43,52.63A1.41,1.41,0,0,1,97,51.43a38.38,38.38,0,0,1-.19-4.14,2.44,2.44,0,0,1,.4-1.53.91.91,0,0,1,.66-.3l2.38-.08h.1a1.29,1.29,0,0,1,1.37,1.13c.13.77.18,3.59.19,4.14a1.86,1.86,0,0,1-1.13,1.9l0,0h-.08l-2,0h-.24Z"/><path class="cls-8" d="M100.37,45.62a1,1,0,0,1,1.09.92c.13.81.17,4,.18,4.12a1.63,1.63,0,0,1-1,1.65h0l-2,0h-.22a1.14,1.14,0,0,1-1.2-1A38.75,38.75,0,0,1,97,47.29a2.23,2.23,0,0,1,.33-1.36.65.65,0,0,1,.49-.22h0l2.38-.09h.13m0-.5h-.18l-2.31.08h0a1.17,1.17,0,0,0-.84.37,2.7,2.7,0,0,0-.47,1.75h0a39.13,39.13,0,0,0,.19,4.15,1.66,1.66,0,0,0,1.7,1.4h0l.22,0,2,0h.08l.07,0a2.09,2.09,0,0,0,1.33-2.17c0-.77-.06-3.39-.18-4.16a1.53,1.53,0,0,0-1.58-1.34Z"/><path class="cls-7" d="M91.51,52.81a1.41,1.41,0,0,1-1.45-1.21,34,34,0,0,1-.18-4.09,2.43,2.43,0,0,1,.39-1.58.93.93,0,0,1,.66-.3l2.38-.08h.1a1.3,1.3,0,0,1,1.38,1.13c.08.49.14,1.85.18,4v.13a1.84,1.84,0,0,1-1.13,1.89l0,0h-.08l-2,0h-.24Z"/><path class="cls-8" d="M93.45,45.79a1,1,0,0,1,1.09.92c.13.81.18,4,.18,4.12a1.61,1.61,0,0,1-1,1.65h0l-2,0h-.23a1.16,1.16,0,0,1-1.2-1,38.18,38.18,0,0,1-.18-4.09,2.21,2.21,0,0,1,.32-1.36.68.68,0,0,1,.49-.22h0l2.37-.08h.13m0-.5h-.17l-2.3.08h0a1.21,1.21,0,0,0-.84.37,2.54,2.54,0,0,0-.46,1.74,35.18,35.18,0,0,0,.19,4.16,1.66,1.66,0,0,0,1.69,1.41h.27l2,0h.08l.07,0a2.12,2.12,0,0,0,1.34-2.17v-.08c0-1.51-.08-3.44-.18-4.08a1.54,1.54,0,0,0-1.59-1.34Z"/><path class="cls-7" d="M84.6,53a1.4,1.4,0,0,1-1.45-1.2A38.29,38.29,0,0,1,83,47.63a2.35,2.35,0,0,1,.39-1.53.93.93,0,0,1,.67-.3l2.36-.08h.12a1.31,1.31,0,0,1,1.37,1.13c.12.78.17,3.59.18,4.15a1.84,1.84,0,0,1-1.12,1.89l0,0h-.08l-2,.05H84.6Z"/><path class="cls-8" d="M86.53,46a1,1,0,0,1,1.09.92c.13.81.18,4,.18,4.12a1.6,1.6,0,0,1-1,1.65h0l-2,.05H84.6a1.16,1.16,0,0,1-1.21-1,38.18,38.18,0,0,1-.18-4.09,2.24,2.24,0,0,1,.33-1.36.64.64,0,0,1,.48-.22h0L86.4,46h.13m0-.5h-.18L84,45.55H84a1.14,1.14,0,0,0-.78.36,2.54,2.54,0,0,0-.46,1.74,39.19,39.19,0,0,0,.19,4.16,1.64,1.64,0,0,0,1.7,1.4h.26l2-.05h.09l.08,0A2.11,2.11,0,0,0,88.3,51c0-.54-.06-3.36-.18-4.16a1.54,1.54,0,0,0-1.59-1.34Z"/><path class="cls-7" d="M77.68,53.14a1.41,1.41,0,0,1-1.45-1.2A36.19,36.19,0,0,1,76,47.85a2.52,2.52,0,0,1,.4-1.58.93.93,0,0,1,.66-.3l2.38-.08h.1A1.29,1.29,0,0,1,81,47c.08.49.14,1.88.18,4v.13A1.84,1.84,0,0,1,80,53.05l0,0H79.9l-2,.05h-.24Z"/><path class="cls-8" d="M79.62,46.13a1,1,0,0,1,1.09.92c.13.81.17,4,.18,4.12a1.61,1.61,0,0,1-1,1.65h0l-2,.05h-.22a1.14,1.14,0,0,1-1.2-1,38.75,38.75,0,0,1-.19-4.09,2.24,2.24,0,0,1,.33-1.36.66.66,0,0,1,.49-.22h0l2.37-.08h.14m0-.5h-.18l-2.32.08h0a1.17,1.17,0,0,0-.83.37,2.58,2.58,0,0,0-.46,1.75A35.15,35.15,0,0,0,76,52a1.65,1.65,0,0,0,1.7,1.4l.27,0,2,0H80l.07,0a2.07,2.07,0,0,0,1.33-2.17v-.08c0-1.51-.08-3.44-.18-4.08a1.53,1.53,0,0,0-1.58-1.34Z"/><path class="cls-7" d="M70.76,53.31a1.4,1.4,0,0,1-1.45-1.2,36.42,36.42,0,0,1-.18-4.1,2.32,2.32,0,0,1,.39-1.57.93.93,0,0,1,.67-.3l2.36-.08h.11A1.31,1.31,0,0,1,74,47.18c.12.78.17,3.59.18,4.14a1.85,1.85,0,0,1-1.13,1.9l0,0H73l-2,0h-.24Z"/><path class="cls-8" d="M72.7,46.3a1,1,0,0,1,1.09.92c.13.81.18,4,.18,4.12A1.61,1.61,0,0,1,73,53h0l-2,0h-.23a1.14,1.14,0,0,1-1.2-1A38.18,38.18,0,0,1,69.38,48a2.1,2.1,0,0,1,.33-1.36.64.64,0,0,1,.48-.22h0l2.37-.08h.13m0-.5h-.18l-2.34.08a1.16,1.16,0,0,0-.84.38A2.47,2.47,0,0,0,68.88,48a35.16,35.16,0,0,0,.19,4.17,1.64,1.64,0,0,0,1.69,1.41H71l1.94,0h.1l.09,0a2.12,2.12,0,0,0,1.3-2.16c0-.77-.06-3.39-.19-4.16A1.52,1.52,0,0,0,72.7,45.8Z"/><path class="cls-7" d="M63.84,53.48a1.39,1.39,0,0,1-1.44-1.2,37.26,37.26,0,0,1-.19-4.14,2.32,2.32,0,0,1,.4-1.53.88.88,0,0,1,.66-.3l2.36-.08h.12a1.31,1.31,0,0,1,1.37,1.13c.12.75.17,3.35.18,4.13a1.84,1.84,0,0,1-1.12,1.91l0,0h-.08l-2,0h-.25Z"/><path class="cls-8" d="M65.79,46.47a1,1,0,0,1,1.08.92c.14.82.18,4,.18,4.12a1.6,1.6,0,0,1-1,1.65h0l-2,0h-.23a1.16,1.16,0,0,1-1.2-1,38.18,38.18,0,0,1-.18-4.09,2.23,2.23,0,0,1,.33-1.36.65.65,0,0,1,.49-.22h0l2.37-.08h.14m0-.5H65.6l-2.34.08H63.2a1.13,1.13,0,0,0-.78.37A2.62,2.62,0,0,0,62,48.17a39,39,0,0,0,.19,4.15,1.64,1.64,0,0,0,1.69,1.41h.28l1.95,0h.09l.08,0a2.11,2.11,0,0,0,1.31-2.17c0-.78-.06-3.4-.18-4.16A1.54,1.54,0,0,0,65.79,46Z"/><path class="cls-9" d="M238.28,63.52c14.33-2.3,21.28-4.43,24.65-5.92a5.34,5.34,0,0,1,.83,2.57c.17,6.08-17.73,18.58-43.16,19.94C131.43,84.87,45.42,70.87,37.37,68.46,28,65.67,23.94,62.78,23.94,62.78s-8.07-4.71-8.78-5.23a8.72,8.72,0,0,1-3.25-6.17C77.62,76.77,211.38,67.86,238.28,63.52Z"/><path class="cls-3" d="M25.43,55.36l21.5,1.84a6.61,6.61,0,0,1,3.77,2c.88,1.11,1.4,3.38-.27,4.38-3,1.8-31.18,8.74-31.18,8.74s-5.82,1.12-10-.32c0,0-11.94-1.67-7.94-3.83S19.63,56.61,19.63,56.61,22.82,54.92,25.43,55.36Z"/><path class="cls-9" d="M25.43,55.36l21.5,1.84s6.63,1.57,2.48,4.06c-3,1.8-29.94,9.84-29.94,9.84a17,17,0,0,1-6.14.43s-16-1.18-12-3.34S19.63,56.61,19.63,56.61,22.82,54.92,25.43,55.36Z"/><path class="cls-10" d="M138.92,74.4s15.91-2.72,25.56-2.52l0,24.23,0,.09.61,2.57a122.24,122.24,0,0,1-25.68-2.5c-1.34,0-3.11-4.47-3.26-10.51S137.58,74.43,138.92,74.4Z"/><path class="cls-11" d="M139.41,96.79c-1.89-.07-3.58-5.07-3.73-11-.13-5.57,1.22-11.84,3.15-11.88h0c.14,0,16-2.72,25.65-2.52H165L165,96l.76,3.25-.77,0A124.06,124.06,0,0,1,139.41,96.79Zm-.48-21.87c-.63,0-2.37,4.33-2.21,10.82.16,6.27,2,10,2.73,10h.11a124.74,124.74,0,0,0,24.92,2.51l-.46-2,0-.09,0-23.82C154.41,72.3,139.16,74.89,138.93,74.92Z"/><path class="cls-12" d="M162.08,85.39c.19,7.43,1.57,13.42,3.09,13.38s2.6-6.09,2.42-13.51S166,71.84,164.5,71.88,161.9,78,162.08,85.39Z"/><path class="cls-11" d="M161.56,85.41c-.12-4.84.34-14,2.93-14s3.5,9,3.62,13.88-.34,14-2.93,14.05S161.68,90.24,161.56,85.41Zm1,0c.21,8.37,1.8,12.89,2.56,12.87s2.12-4.62,1.91-13-1.79-12.89-2.55-12.87S162.4,77,162.6,85.38Z"/><path class="cls-13" d="M164.44,76.43c.14-.38.31-.59.49-.6.8,0,1.56,4.13,1.68,9.26s-.42,9.31-1.23,9.33c-.2,0-.41-.27-.6-.77.52-1.33.83-4.74.73-8.73A31.68,31.68,0,0,0,164.44,76.43Z"/><path class="cls-13" d="M164.44,76.43a31.68,31.68,0,0,1,1.07,8.49c.1,4-.21,7.4-.73,8.73a31.17,31.17,0,0,1-1.08-8.49C163.6,81.17,163.91,77.76,164.44,76.43Z"/><path class="cls-14" d="M132.73,64.93l33.41-.82s8.65.48,4.67,4.77-43.25,26.19-43.25,26.19a22.88,22.88,0,0,1-9.26,2.5S93.56,99.92,99.13,94.9s25.06-26.1,25.06-26.1S128.64,64.86,132.73,64.93Z"/></g></g></svg>