<svg xmlns="http://www.w3.org/2000/svg" viewBox="0 0 281.31 337.32"><defs><style>.cls-1{fill:#dbfbff;}.cls-2{fill:#95d0d9;}.cls-3{fill:#1788b3;stroke:#06749e;stroke-miterlimit:10;stroke-width:3px;}.cls-4{fill:#bee3e9;}.cls-5{fill:#fff;}.cls-6{fill:#455254;}.cls-7{fill:#1dcaf0;}.cls-8{fill:#4fe0ff;}</style></defs><title>Delfin</title><g id="Capa_2" data-name="Capa 2"><g id="Capa_5" data-name="Capa 5"><path class="cls-1" d="M105.92,125.89a9.48,9.48,0,0,1-4.65-1.75l-.94-.54c-5.34-2.95-9.61-7.57-13-14.15-3.09-5.92-5.61-12.2-7.84-17.73-.78-2-1.45-2.54-2.88-2.54l-.43,0c-1.67.13-3.37.2-5,.27-2.42.11-4.93.21-7.36.52-6.73.84-15.44,2.43-23.14,7.3a85.09,85.09,0,0,1-11.81,6.11,73,73,0,0,1-7.65,2.66c-1.12.34-2.25.68-3.36,1a1.12,1.12,0,0,1-.31,0,1,1,0,0,1-.59-1.81c.72-.53,1.44-1.14,2.15-1.73a18.68,18.68,0,0,1,5.34-3.54c6-2.18,9-6.9,11.5-11.68C38.1,84.09,41.51,80.79,46.61,78c10.31-5.58,22-8.3,35.81-8.3,1.76,0,3.59,0,5.44.13a10,10,0,0,1,4,1.27c7.76,4.07,13.15,10.76,17,21.06a1,1,0,0,1-.93,1.35h-3.5l.12,1.14a28.1,28.1,0,0,0,.56,3.9c.69,2.87,1.45,5.77,2.19,8.58.83,3.18,1.69,6.47,2.46,9.73.07.29.14.58.22.87.6,2.28,1.41,5.4-1.5,7.34A4.62,4.62,0,0,1,105.92,125.89Z"/><path class="cls-2" d="M82.42,70.72c1.79,0,3.59,0,5.4.13A9,9,0,0,1,91.45,72c8.46,4.44,13.28,11.85,16.51,20.52h-4.62a59.18,59.18,0,0,0,.83,6.28c1.48,6.12,3.19,12.18,4.65,18.3.58,2.43,1.77,5.39-.86,7.14a3.59,3.59,0,0,1-2,.64c-1.79,0-3.52-1.29-5.11-2.16-5.71-3.16-9.7-8.12-12.63-13.74s-5.4-11.68-7.8-17.64c-.81-2-1.73-3.17-3.81-3.17l-.51,0c-4.13.33-8.31.28-12.42.8-8.28,1-16.32,2.87-23.55,7.44a86,86,0,0,1-11.67,6C24.9,104,21.14,105,17.49,106.16c2.4-1.76,4.56-4.16,7.25-5.14,6.06-2.22,9.38-7,12-12.16,2.37-4.64,6-7.63,10.31-10,11.1-6,23-8.18,35.33-8.18m0-2c-14,0-25.82,2.76-36.28,8.42C40.84,80,37.31,83.44,35,88s-5.31,9.13-10.95,11.19a19.38,19.38,0,0,0-5.65,3.72c-.72.6-1.4,1.18-2.09,1.68a2,2,0,0,0,1.18,3.62,1.87,1.87,0,0,0,.62-.1c1.1-.36,2.24-.71,3.34-1a72.08,72.08,0,0,0,7.76-2.69,86,86,0,0,0,11.95-6.19c7.53-4.76,16.1-6.32,22.73-7.15,2.38-.3,4.87-.4,7.27-.51,1.66-.07,3.37-.14,5.06-.27l.35,0c.78,0,1.22.09,2,1.91a193,193,0,0,0,7.87,17.83c3.53,6.75,7.93,11.51,13.45,14.56.3.16.6.34.91.52a10.21,10.21,0,0,0,5.16,1.89,5.64,5.64,0,0,0,3.15-1c3.5-2.34,2.5-6.14,1.91-8.42-.08-.29-.15-.57-.22-.85-.77-3.27-1.64-6.57-2.47-9.76-.73-2.8-1.49-5.7-2.18-8.55a27.3,27.3,0,0,1-.54-3.77v0H108a2,2,0,0,0,1.87-2.7c-3.92-10.54-9.47-17.41-17.45-21.6a10.88,10.88,0,0,0-4.47-1.37c-1.87-.09-3.71-.14-5.49-.14Z"/><path class="cls-1" d="M197,181.54c-.9-1.65-1.77-3.31-2.64-5-1.89-3.61-3.83-7.34-6.06-10.78-3.83-5.89-7.95-11.75-11.94-17.42q-2.57-3.65-5.11-7.31l-5.44-6.64a130.81,130.81,0,0,0-23.16-21.76l-.14-.1-.1-.15c-4.58-7.05-5.76-18-2.39-22.17l.56-.69.75.48.53.32c.42.26.84.52,1.24.81,9.52,6.88,17.67,14.92,26.6,24a124.89,124.89,0,0,1,25,35.64,58.62,58.62,0,0,1,5.63,26.72c0,.23,0,.46,0,.7,0,1.15.1,3.08-2.16,3.84l-.79.26Z"/><path class="cls-2" d="M140.77,90.86c.56.36,1.17.7,1.72,1.1,9.69,7,18.12,15.38,26.47,23.85a123.08,123.08,0,0,1,24.83,35.36,57.28,57.28,0,0,1,5.54,26.26c-.06,1.36.42,3-1.48,3.63-2.89-5.29-5.46-10.78-8.73-15.82-5.46-8.4-11.36-16.52-17.07-24.76q-2.75-3.34-5.48-6.71a133.19,133.19,0,0,0-23.34-21.92c-4.27-6.57-5.59-17.14-2.46-21m-.43-2.64-1.12,1.38c-4,4.94-2.05,16.6,2.33,23.34l.19.3.29.21A130.63,130.63,0,0,1,165,135l5.43,6.65q2.52,3.63,5.08,7.25c4,5.66,8.09,11.51,11.91,17.39,2.2,3.4,4.14,7.11,6,10.7.86,1.64,1.74,3.33,2.65,5l.8,1.47,1.59-.53c3-1,2.88-3.68,2.84-4.82,0-.21,0-.42,0-.63a59.45,59.45,0,0,0-5.71-27.17,125.69,125.69,0,0,0-25.22-35.93c-9-9.07-17.15-17.15-26.73-24.07-.44-.32-.88-.59-1.3-.85l-.51-.32-1.51-1Z"/><path class="cls-3" d="M191.69,82l.67,1.14a.73.73,0,0,0,.18.58l.68,1.21,5.3,12.41,2.74,7.85,5,18.42,3.79,20.45q1,10,2,20l.17,3.58c0,4.17-.22,8.36,0,12.52a24.39,24.39,0,0,0,8.19,17.38c2.25,2,4.68,3.75,7.11,5.5,5.8,4.16,11.64,8.25,17.47,12.36l4.74,5.4,1.18,1.7.91,1.7.93,2.94c.37,3.2,1,6.42.76,9.57-.55,7.38-3.34,13.93-9.22,18.75-3.33,2.72-5.54,1.57-6-3a19.67,19.67,0,0,1-.07-2.17,18,18,0,0,0-9.2-16.58,59.11,59.11,0,0,0-10.84-5.15c-7-2.43-11.8-6.81-14-14,0-.17-.45-.23-.85-.42-.38.54-.81,1.09-1.18,1.67-4.12,6.36-9.56,10.46-17.44,11a17.49,17.49,0,0,0-7.33,2.23c-5.51,3.26-10.78,6.94-16.15,10.45-1,.51-1.95,1-2.93,1.52-2.06,1-3.76.8-4.88-1.45l-.37-2.09.43-6.48.5-2.86.18-.63c.25-1.29.51-2.59.76-3.88l2.68-5a.53.53,0,0,0,.1-.32c5.13-7.06,12.18-11.49,20.08-14.76,3.17-1.31,6.5-2.32,9.48-3.94a35.56,35.56,0,0,0,8.67-6.05c3.44-3.55,4.14-8,1.87-12.67,1.9-.64,1.42-2.27,1.48-3.63a57.28,57.28,0,0,0-5.54-26.26A123.08,123.08,0,0,0,169,115.81C160.61,107.34,152.18,99,142.49,92c-.55-.4-1.16-.74-1.72-1.1-3.13,3.85-1.81,14.42,2.46,21,.36,2.11.83,4.2,1.05,6.32.47,4.34-.64,5.48-4.91,5.35s-7.7-2-11-4.36c-6.23-4.58-10.67-10.7-14.7-17.16-2-3.13-3.83-6.31-5.73-9.47-3.23-8.67-8-16.08-16.51-20.52a9,9,0,0,0-3.64-1.16c-14.23-.68-28,1.16-40.72,8.05-4.29,2.33-7.94,5.32-10.31,10-2.66,5.19-6,9.94-12,12.16-2.69,1-4.85,3.38-7.25,5.14a.28.28,0,0,1-.47,0l-1,.5c-3.57.28-7.17,1.25-10.63-1.35A10,10,0,0,1,1.79,94.94,74.39,74.39,0,0,1,4.4,87.37c.52-1.46,1.31-2.83,2-4.24L7.19,82h0c3.27-2.53,4.48-5.55,3.51-9.09a74.9,74.9,0,0,1-1.22-8.15c-1.32-15.8,1.13-30.1,14-41.33A51.75,51.75,0,0,1,40.63,13.18C59.52,6.63,78.91,6.47,98.45,9.25a14.86,14.86,0,0,0,7.93-.82,100.72,100.72,0,0,1,15.48-5.15c16-3.5,31.39-2.11,45.64,6.67a17.76,17.76,0,0,1,3.15,2.27,3.38,3.38,0,0,1-.74,5.51A23.78,23.78,0,0,1,164.67,20c-5.06,1.58-10.19,2.95-15.25,4.54a37.7,37.7,0,0,0-4.77,2.31c1.35,1.08,2.09,1.74,2.9,2.31a123.22,123.22,0,0,1,32.33,33.05c4,6,7.46,12.24,11.18,18.37Z"/><path class="cls-4" d="M16,106.65l1-.5Z"/><ellipse class="cls-5" cx="43.19" cy="60.98" rx="7.32" ry="9.35" transform="translate(-31.5 58.9) rotate(-53.09)"/><ellipse class="cls-6" cx="42.06" cy="64.64" rx="3.99" ry="4.35" transform="translate(-34.88 59.46) rotate(-53.1)"/><path class="cls-7" d="M163,272.43a1,1,0,0,1,.39.28l.54.39.14.11.5.41.16.14.48.34a68.12,68.12,0,0,1,21.07,26.14,38.79,38.79,0,0,0,4.14,6.88c.61.79,2.39,1,3.64,1.42.25-1.09,1.09-2.39.64-3.23-1.24-2.34-3.17-4.42-4.53-6.71a27.5,27.5,0,0,1-3.1-6.6c-.49-1.78.39-3.62,3-4.15s5,.07,5.87,2.24c1.36,3.34,2.26,6.8,3.36,10.21a38.64,38.64,0,0,0,2.28,6.62c.57,1.07,2.36,1.71,3.61,2.55.64-1.17,2-2.44,1.8-3.5a40.29,40.29,0,0,0-2.88-9.21c-2.35-5.13-5.3-10.07-7.67-15.19a18.37,18.37,0,0,1-1.65-6.93c-.12-3,2.25-5.18,5.24-5.66,2.7-.43,6,.95,7,3.78a156,156,0,0,1,4,15.54c1,4.43,1.68,8.91,2.58,13.36a9.32,9.32,0,0,0,1.07,2.11l1.06.18c.62-1.36,1.68-2.7,1.78-4.08.4-5.74.22-11.52.83-17.24.44-4.08,1.79-8.1,2.73-12.14,2.4-1.72,4.51-3.87,7.25-5.06,5.59-2.42,11.08.79,10.6,6a29,29,0,0,1-1.41,5.11l-.56.67-.55.55c-6.1,5.13-10.29,11.11-12,18.17a15.87,15.87,0,0,0-.45,4.22c.08,2.73,1.24,3.29,4,1.85a36.63,36.63,0,0,0,5.86-3.76c5.53-4.48,10.74-9.25,16.46-13.56a32.3,32.3,0,0,1,9.75-4.87c2-.6,5,0,7,.87,5,2.28,5.45,6.72.72,9.24a106.31,106.31,0,0,1-15.87,6.47c-5.76,1.94-11.49,3.83-15.51,7.87a26.43,26.43,0,0,0-4.49,6.34c-.41.78.2,2.37,1,3,.55.41,2.56.08,3.45-.44,2.78-1.67,5.41-3.52,8-5.42a45.57,45.57,0,0,1,20.58-9c1.2.33,2.38.67,3.58,1,4,1,5.68,3.71,4.35,7-.41,1-1,1.91-1.53,2.86-3.36,1-6.63,2.24-10.08,2.81A47.33,47.33,0,0,0,232.5,328.1a5.81,5.81,0,0,1-3.57,1.75c-11.76.49-23.53.82-35.29,1.14a9.69,9.69,0,0,1-8-3.58,208.18,208.18,0,0,0-15.58-15.26c-5.76-5.09-13.22-7.36-21.69-7.89-3.57-.22-7.05-1.43-10.56-2.19a4.14,4.14,0,0,0-.54-1.23c-4.21-4.72.33-8.72,6-8.73,1.93,0,3.86.08,5.79.12,10.32,2.8,18,8.6,25.1,15,2.62,2.36,5,4.89,7.75,7.13,1,.83,2.77,1,4.19,1.53.37-1.28,1.33-2.69,1-3.82a19.72,19.72,0,0,0-3.45-7,60.16,60.16,0,0,0-18.84-14.38c-4.95-2.51-9.89-5-14.83-7.57-1.47-1.61-3-3.18-4.39-4.86-2-2.45-2.12-5,.19-7.38,2-2.06,5.05-2.75,8.81-1.61C157.49,270.11,160.22,271.35,163,272.43Z"/><path class="cls-8" d="M163,272.43c-2.79-1.08-5.52-2.32-8.41-3.2-3.76-1.14-6.84-.45-8.81,1.61-2.31,2.42-2.16,4.93-.19,7.38,1.35,1.68,2.92,3.25,4.39,4.86-6.2-1.67-11.4-4.53-14.89-9.09-1.71-2.23-1.24-4.6,1.15-6.52a13.47,13.47,0,0,1,10-3A26.45,26.45,0,0,1,163,272.43Z"/><path class="cls-8" d="M171.42,319.12c-6.11,1.48-12.15,3.26-18.36,4.33-3.42.59-6.32-1.3-6.75-3.42-.54-2.66,1.74-4,4.08-5.17,3.68-1.85,7.7-1.76,11.56-.73,3.29.88,6.36,2.29,9.54,3.46Z"/><path class="cls-8" d="M247,270.17c-.91-6.17,6.11-12.81,13.84-12.84,2.39,0,4.19.79,4.91,2.78.88,2.45-.23,4.5-2.65,5.74a33,33,0,0,1-6.89,2.18C253.14,268.82,250,269.47,247,270.17Z"/><path class="cls-8" d="M237.44,276.53a29,29,0,0,0,1.41-5.11c.48-5.2-5-8.41-10.6-6-2.74,1.19-4.85,3.34-7.25,5.06,1.72-5.06,5.23-8.83,11.64-10.25,4.61-1,8.3.77,9.19,4.58C242.87,269.27,241.56,273.3,237.44,276.53Z"/><path class="cls-8" d="M149.09,292.23c-1.93,0-3.86-.12-5.79-.12-5.7,0-10.24,4-6,8.73a4.14,4.14,0,0,1,.54,1.23,12.47,12.47,0,0,1-9-4.51c-1.94-2.26-.67-4.64,3.07-5.77A25.93,25.93,0,0,1,149.09,292.23Z"/><path class="cls-8" d="M271.21,309.53c.51-.95,1.12-1.88,1.53-2.86,1.33-3.27-.37-5.95-4.35-7-1.2-.31-2.38-.65-3.58-1a19.68,19.68,0,0,1,14.2.65c2.48,1,3,3.39,1.32,5.23A14.5,14.5,0,0,1,271.21,309.53Z"/><path class="cls-8" d="M190.45,281.19l-8.38-3.38c-.19-.07-.46-.14-.54-.27a24.82,24.82,0,0,1-2.88-5c-.17-.5,1.54-1.82,2.66-2.13a5.08,5.08,0,0,1,5.95,2.19c1.61,2.62,2.8,5.42,4.17,8.14Z"/><path class="cls-8" d="M163.94,273.1l-.54-.39Z"/><path class="cls-8" d="M164.58,273.62l-.5-.41Z"/><path class="cls-8" d="M165.22,274.1l-.48-.34Z"/><path class="cls-8" d="M236.33,277.75l.55-.55Z"/><path class="cls-7" d="M190.71,328.13c-2.93,2.07-5.81.54-9,1.23-3.83.83-8.82,3.23-12.53,4.71.45,6.13,18.92,1.68,23.78,1.86,8.6.34,16.74,1,25.39,1.2,9.1.19,17.83-.39,26.83-.6,5.89-.14,13,2.34,16.93-3.51-13-.49-24.84-10-38.38-5.49"/></g></g></svg>