<?xml version="1.0" encoding="utf-8"?>
<!-- Generator: Adobe Illustrator 22.0.1, SVG Export Plug-In . SVG Version: 6.00 Build 0)  -->
<svg version="1.1" id="Layer_1" xmlns="http://www.w3.org/2000/svg" xmlns:xlink="http://www.w3.org/1999/xlink" x="0px" y="0px"
	 viewBox="0 0 223.9 79.5" style="enable-background:new 0 0 223.9 79.5;" xml:space="preserve">
<style type="text/css">
	.st0{opacity:0.3;}
	.st1{fill:#FFFFFF;}
	.st2{fill:url(#SVGID_1_);}
	.st3{fill:#005DBA;}
	.st4{fill:#05CDEE;}
	.st5{fill:#056CAE;}
	.st6{fill:#FFFFFF;stroke:#005DBA;stroke-width:3;stroke-miterlimit:10;}
	.st7{fill:url(#SVGID_2_);}
	.st8{fill:#662D91;}
	.st9{fill:#A549A3;}
	.st10{fill:#66336B;}
	.st11{fill:#FFFFFF;stroke:#662D91;stroke-width:3;stroke-miterlimit:10;}
</style>
<g>
	<g>
		<g class="st0">
			<path d="M206.8,76.3h-185c-6.6,0-12-5.4-12-12v-43c0-6.6,5.4-12,12-12h185c6.6,0,12,5.4,12,12v43
				C218.8,70.9,213.4,76.3,206.8,76.3z"/>
		</g>
		<g>
			<path class="st1" d="M202.8,72.3h-185c-6.6,0-12-5.4-12-12v-43c0-6.6,5.4-12,12-12h185c6.6,0,12,5.4,12,12v43
				C214.8,66.9,209.4,72.3,202.8,72.3z"/>
		</g>
	</g>
	<g>
		<linearGradient id="SVGID_1_" gradientUnits="userSpaceOnUse" x1="110.3338" y1="7.7337" x2="110.3338" y2="69.9329">
			<stop  offset="0" style="stop-color:#29ABE2"/>
			<stop  offset="1" style="stop-color:#0071BC"/>
		</linearGradient>
		<path class="st2" d="M21.1,69.9c-6.5,0-11.9-5.3-11.9-11.9V19.6c0-6.5,5.3-11.9,11.9-11.9h178.6c6.5,0,11.9,5.3,11.9,11.9v38.5
			c0,6.5-5.3,11.9-11.9,11.9H21.1z"/>
		<path class="st3" d="M199.6,8.4c6.2,0,11.2,5,11.2,11.2v38.5c0,6.2-5,11.2-11.2,11.2H21.1c-6.2,0-11.2-5-11.2-11.2V19.6
			c0-6.2,5-11.2,11.2-11.2H199.6 M199.6,7.1H21.1c-6.9,0-12.5,5.6-12.5,12.5v38.5c0,6.9,5.6,12.5,12.5,12.5h178.6
			c6.9,0,12.5-5.6,12.5-12.5V19.6C212.1,12.7,206.5,7.1,199.6,7.1L199.6,7.1z"/>
	</g>
	<path class="st4" d="M15.6,31.3c0.6-2.3,1.2-4.7,1.5-7.1c0.8-5.8,5.8-10.3,11.8-10.3l175-4.7c-1.3-0.5-2.7-0.8-4.2-0.8H21.1
		c-6.2,0-11.2,5-11.2,11.2v33.9L15.6,31.3z"/>
	<path class="st5" d="M205.3,46.4c-0.6,2.3-1.2,4.7-1.5,7.1c-0.8,5.8-5.8,10.3-11.8,10.3L17,68.4c1.3,0.5,2.7,0.8,4.2,0.8h178.6
		c6.2,0,11.2-5,11.2-11.2V24.1L205.3,46.4z"/>
	<g>
		<g>
			<path class="st6" d="M47.9,31.5c0.5,0.2,0.8,0.6,0.8,1.1s-0.1,1-0.4,1.4c-0.2,0.3-0.5,0.5-0.9,0.5c-0.4,0-0.8,0-1.1-0.2
				c-0.4-0.2-0.9-0.4-1.4-0.5c-0.5-0.1-1-0.2-1.5-0.2c-1,0-1.9,0.2-2.6,0.5c-0.8,0.3-1.4,0.8-2,1.3c-0.5,0.6-1,1.3-1.2,2
				s-0.4,1.6-0.4,2.6c0,1.1,0.2,2.1,0.5,2.9s0.8,1.5,1.3,2c0.6,0.5,1.2,1,2,1.2c0.8,0.3,1.6,0.4,2.5,0.4c0.5,0,1,0,1.5-0.1
				c0.5-0.1,1-0.3,1.4-0.5c0.4-0.2,0.8-0.2,1.1-0.2c0.4,0.1,0.7,0.2,0.9,0.6c0.4,0.5,0.5,0.9,0.4,1.4c-0.1,0.5-0.4,0.8-0.8,1.1
				c-0.5,0.2-1,0.4-1.5,0.6c-0.5,0.2-1,0.3-1.5,0.4C44.5,50,44,50,43.4,50c-1.3,0-2.6-0.2-3.7-0.6c-1.2-0.4-2.2-1-3.1-1.9
				c-0.9-0.8-1.6-1.8-2.2-3.1c-0.5-1.2-0.8-2.7-0.8-4.3c0-1.4,0.2-2.7,0.7-3.9c0.5-1.2,1.2-2.2,2-3.1c0.9-0.9,1.9-1.5,3.1-2
				s2.5-0.7,3.9-0.7c0.8,0,1.6,0.1,2.3,0.3C46.5,30.9,47.3,31.2,47.9,31.5z"/>
			<path class="st6" d="M65.4,42.4c0,1.5-0.3,2.8-1,3.9c-0.7,1.1-1.6,2-2.7,2.7s-2.4,1-3.8,1c-1.4,0-2.6-0.3-3.8-1
				c-1.1-0.6-2-1.5-2.7-2.7c-0.7-1.1-1-2.5-1-3.9c0-1.5,0.3-2.8,1-3.9c0.7-1.1,1.6-2,2.7-2.7c1.1-0.6,2.4-1,3.8-1
				c1.4,0,2.6,0.3,3.8,1c1.1,0.6,2,1.5,2.7,2.7C65.1,39.6,65.4,40.9,65.4,42.4z M62.2,42.4c0-0.9-0.2-1.7-0.6-2.4
				c-0.4-0.7-0.9-1.2-1.5-1.6c-0.6-0.4-1.3-0.6-2.1-0.6c-0.8,0-1.5,0.2-2.1,0.6c-0.6,0.4-1.1,0.9-1.5,1.6c-0.4,0.7-0.6,1.5-0.6,2.4
				c0,0.9,0.2,1.7,0.6,2.4c0.4,0.7,0.9,1.2,1.5,1.6c0.6,0.4,1.3,0.6,2.1,0.6c0.8,0,1.5-0.2,2.1-0.6c0.6-0.4,1.1-0.9,1.5-1.6
				C62,44.1,62.2,43.3,62.2,42.4z"/>
			<path class="st6" d="M76,34.8c1.3,0,2.4,0.3,3.1,0.8s1.2,1.3,1.4,2.3c0.3,0.9,0.4,2,0.4,3.1v7c0,0.5-0.2,0.9-0.5,1.2
				c-0.3,0.3-0.7,0.5-1.2,0.5s-0.9-0.2-1.2-0.5c-0.3-0.3-0.5-0.7-0.5-1.2v-7c0-0.6-0.1-1.1-0.2-1.6c-0.2-0.5-0.4-0.9-0.8-1.2
				c-0.4-0.3-1-0.4-1.7-0.4c-0.7,0-1.3,0.1-1.8,0.4c-0.5,0.3-0.9,0.7-1.1,1.2c-0.3,0.5-0.4,1-0.4,1.6v7c0,0.5-0.2,0.9-0.5,1.2
				c-0.3,0.3-0.7,0.5-1.2,0.5s-0.9-0.2-1.2-0.5c-0.3-0.3-0.5-0.7-0.5-1.2V36.8c0-0.5,0.2-0.9,0.5-1.2c0.3-0.3,0.7-0.5,1.2-0.5
				s0.9,0.2,1.2,0.5c0.3,0.3,0.5,0.7,0.5,1.2V38l-0.4-0.1c0.2-0.3,0.4-0.6,0.7-1c0.3-0.4,0.7-0.7,1.1-1c0.4-0.3,0.9-0.6,1.4-0.8
				S75.4,34.8,76,34.8z"/>
			<path class="st6" d="M84.6,35.4h6.5c0.4,0,0.8,0.1,1.1,0.4c0.3,0.3,0.4,0.7,0.4,1.1c0,0.4-0.1,0.8-0.4,1.1
				c-0.3,0.3-0.7,0.4-1.1,0.4h-6.5c-0.4,0-0.8-0.1-1.1-0.4c-0.3-0.3-0.4-0.7-0.4-1.1c0-0.4,0.1-0.8,0.4-1.1
				C83.8,35.5,84.2,35.4,84.6,35.4z M87.6,32c0.5,0,0.9,0.2,1.2,0.5c0.3,0.3,0.5,0.7,0.5,1.2v12.2c0,0.3,0,0.5,0.2,0.6
				c0.1,0.2,0.2,0.3,0.4,0.4c0.2,0.1,0.4,0.1,0.6,0.1c0.2,0,0.4,0,0.6-0.1c0.2-0.1,0.4-0.1,0.6-0.1c0.3,0,0.5,0.1,0.7,0.4
				c0.2,0.2,0.3,0.6,0.3,1c0,0.5-0.3,0.9-0.8,1.3c-0.6,0.3-1.2,0.5-1.8,0.5c-0.4,0-0.8,0-1.3-0.1c-0.5-0.1-0.9-0.2-1.3-0.5
				c-0.4-0.2-0.8-0.6-1-1.1c-0.3-0.5-0.4-1.2-0.4-2.1V33.6c0-0.5,0.2-0.9,0.5-1.2C86.7,32.1,87.1,32,87.6,32z"/>
			<path class="st6" d="M97.1,33.3c-0.6,0-1.1-0.1-1.3-0.3c-0.3-0.2-0.4-0.6-0.4-1.1v-0.5c0-0.5,0.1-0.9,0.4-1.1
				c0.3-0.2,0.7-0.3,1.3-0.3c0.6,0,1.1,0.1,1.3,0.3c0.3,0.2,0.4,0.6,0.4,1.1V32c0,0.5-0.1,0.9-0.4,1.1
				C98.1,33.2,97.7,33.3,97.1,33.3z M98.7,48.1c0,0.5-0.2,0.9-0.5,1.2c-0.3,0.3-0.7,0.5-1.2,0.5c-0.5,0-0.9-0.2-1.2-0.5
				c-0.3-0.3-0.5-0.7-0.5-1.2V36.8c0-0.5,0.2-0.9,0.5-1.2c0.3-0.3,0.7-0.5,1.2-0.5c0.5,0,0.9,0.2,1.2,0.5c0.3,0.3,0.5,0.7,0.5,1.2
				V48.1z"/>
			<path class="st6" d="M109.9,34.8c1.3,0,2.4,0.3,3.1,0.8s1.2,1.3,1.4,2.3c0.3,0.9,0.4,2,0.4,3.1v7c0,0.5-0.2,0.9-0.5,1.2
				c-0.3,0.3-0.7,0.5-1.2,0.5s-0.9-0.2-1.2-0.5c-0.3-0.3-0.5-0.7-0.5-1.2v-7c0-0.6-0.1-1.1-0.2-1.6c-0.2-0.5-0.4-0.9-0.8-1.2
				c-0.4-0.3-1-0.4-1.7-0.4c-0.7,0-1.3,0.1-1.8,0.4c-0.5,0.3-0.9,0.7-1.1,1.2c-0.3,0.5-0.4,1-0.4,1.6v7c0,0.5-0.2,0.9-0.5,1.2
				c-0.3,0.3-0.7,0.5-1.2,0.5s-0.9-0.2-1.2-0.5c-0.3-0.3-0.5-0.7-0.5-1.2V36.8c0-0.5,0.2-0.9,0.5-1.2c0.3-0.3,0.7-0.5,1.2-0.5
				s0.9,0.2,1.2,0.5c0.3,0.3,0.5,0.7,0.5,1.2V38l-0.4-0.1c0.2-0.3,0.4-0.6,0.7-1c0.3-0.4,0.7-0.7,1.1-1c0.4-0.3,0.9-0.6,1.4-0.8
				S109.3,34.8,109.9,34.8z"/>
			<path class="st6" d="M129.2,35.1c0.5,0,0.9,0.2,1.2,0.5c0.3,0.3,0.5,0.7,0.5,1.2v6.9c0,1.9-0.5,3.5-1.6,4.6
				c-1.1,1.1-2.6,1.7-4.6,1.7s-3.6-0.6-4.6-1.7c-1.1-1.1-1.6-2.7-1.6-4.6v-6.9c0-0.5,0.2-0.9,0.5-1.2c0.3-0.3,0.7-0.5,1.2-0.5
				s0.9,0.2,1.2,0.5c0.3,0.3,0.5,0.7,0.5,1.2v6.9c0,1.1,0.2,1.9,0.7,2.5c0.5,0.5,1.2,0.8,2.2,0.8c1,0,1.7-0.3,2.2-0.8
				c0.5-0.5,0.7-1.4,0.7-2.5v-6.9c0-0.5,0.2-0.9,0.5-1.2C128.4,35.3,128.7,35.1,129.2,35.1z"/>
			<path class="st6" d="M146.2,34.8c0.5,0,0.9,0.2,1.2,0.5s0.5,0.7,0.5,1.2v11.6c0,0.5-0.2,0.9-0.5,1.2c-0.3,0.3-0.7,0.5-1.2,0.5
				s-0.9-0.2-1.2-0.5c-0.3-0.3-0.5-0.7-0.5-1.2v-1.3l0.6,0.2c0,0.2-0.1,0.5-0.4,0.9c-0.3,0.3-0.6,0.7-1,1c-0.4,0.3-1,0.6-1.5,0.8
				c-0.6,0.2-1.2,0.3-1.9,0.3c-1.3,0-2.4-0.3-3.4-1c-1-0.6-1.8-1.5-2.4-2.7c-0.6-1.1-0.9-2.4-0.9-3.9c0-1.5,0.3-2.8,0.9-3.9
				c0.6-1.1,1.4-2,2.4-2.7c1-0.6,2.1-1,3.3-1c0.8,0,1.5,0.1,2.2,0.4c0.7,0.2,1.2,0.5,1.7,0.9c0.5,0.4,0.9,0.7,1.1,1.1
				c0.3,0.4,0.4,0.7,0.4,0.9l-1,0.4v-2c0-0.5,0.2-0.9,0.5-1.2C145.4,35,145.8,34.8,146.2,34.8z M140.7,47c0.8,0,1.5-0.2,2.1-0.6
				c0.6-0.4,1.1-0.9,1.4-1.6s0.5-1.5,0.5-2.3c0-0.9-0.2-1.7-0.5-2.3c-0.3-0.7-0.8-1.2-1.4-1.6c-0.6-0.4-1.3-0.6-2.1-0.6
				c-0.8,0-1.5,0.2-2.1,0.6c-0.6,0.4-1.1,0.9-1.4,1.6c-0.3,0.7-0.5,1.5-0.5,2.3c0,0.9,0.2,1.6,0.5,2.3c0.3,0.7,0.8,1.2,1.4,1.6
				C139.3,46.8,139.9,47,140.7,47z"/>
			<path class="st6" d="M153.1,49.7c-0.5,0-0.9-0.2-1.2-0.5c-0.3-0.3-0.5-0.7-0.5-1.2V36.8c0-0.5,0.2-0.9,0.5-1.2
				c0.3-0.3,0.7-0.5,1.2-0.5s0.9,0.2,1.2,0.5c0.3,0.3,0.5,0.7,0.5,1.2v2.6l-0.2-1.8c0.2-0.4,0.5-0.8,0.8-1.2
				c0.3-0.3,0.7-0.6,1.1-0.8c0.4-0.2,0.8-0.4,1.3-0.5s0.9-0.2,1.4-0.2c0.5,0,1,0.2,1.4,0.5c0.4,0.3,0.6,0.7,0.6,1.1
				c0,0.6-0.2,1-0.5,1.3c-0.3,0.3-0.6,0.4-1,0.4c-0.3,0-0.7-0.1-0.9-0.2c-0.3-0.1-0.6-0.2-1-0.2c-0.3,0-0.7,0.1-1,0.2
				c-0.3,0.2-0.6,0.4-0.9,0.7c-0.3,0.3-0.5,0.7-0.7,1.2c-0.2,0.5-0.3,1.1-0.3,1.7v6.5c0,0.5-0.2,0.9-0.5,1.2
				C153.9,49.6,153.5,49.7,153.1,49.7z"/>
		</g>
	</g>
	<g>
		<g>
			<path class="st1" d="M47.9,31.5c0.5,0.2,0.8,0.6,0.8,1.1s-0.1,1-0.4,1.4c-0.2,0.3-0.5,0.5-0.9,0.5c-0.4,0-0.8,0-1.1-0.2
				c-0.4-0.2-0.9-0.4-1.4-0.5c-0.5-0.1-1-0.2-1.5-0.2c-1,0-1.9,0.2-2.6,0.5c-0.8,0.3-1.4,0.8-2,1.3c-0.5,0.6-1,1.3-1.2,2
				s-0.4,1.6-0.4,2.6c0,1.1,0.2,2.1,0.5,2.9s0.8,1.5,1.3,2c0.6,0.5,1.2,1,2,1.2c0.8,0.3,1.6,0.4,2.5,0.4c0.5,0,1,0,1.5-0.1
				c0.5-0.1,1-0.3,1.4-0.5c0.4-0.2,0.8-0.2,1.1-0.2c0.4,0.1,0.7,0.2,0.9,0.6c0.4,0.5,0.5,0.9,0.4,1.4c-0.1,0.5-0.4,0.8-0.8,1.1
				c-0.5,0.2-1,0.4-1.5,0.6c-0.5,0.2-1,0.3-1.5,0.4C44.5,50,44,50,43.4,50c-1.3,0-2.6-0.2-3.7-0.6c-1.2-0.4-2.2-1-3.1-1.9
				c-0.9-0.8-1.6-1.8-2.2-3.1c-0.5-1.2-0.8-2.7-0.8-4.3c0-1.4,0.2-2.7,0.7-3.9c0.5-1.2,1.2-2.2,2-3.1c0.9-0.9,1.9-1.5,3.1-2
				s2.5-0.7,3.9-0.7c0.8,0,1.6,0.1,2.3,0.3C46.5,30.9,47.3,31.2,47.9,31.5z"/>
			<path class="st1" d="M65.4,42.4c0,1.5-0.3,2.8-1,3.9c-0.7,1.1-1.6,2-2.7,2.7s-2.4,1-3.8,1c-1.4,0-2.6-0.3-3.8-1
				c-1.1-0.6-2-1.5-2.7-2.7c-0.7-1.1-1-2.5-1-3.9c0-1.5,0.3-2.8,1-3.9c0.7-1.1,1.6-2,2.7-2.7c1.1-0.6,2.4-1,3.8-1
				c1.4,0,2.6,0.3,3.8,1c1.1,0.6,2,1.5,2.7,2.7C65.1,39.6,65.4,40.9,65.4,42.4z M62.2,42.4c0-0.9-0.2-1.7-0.6-2.4
				c-0.4-0.7-0.9-1.2-1.5-1.6c-0.6-0.4-1.3-0.6-2.1-0.6c-0.8,0-1.5,0.2-2.1,0.6c-0.6,0.4-1.1,0.9-1.5,1.6c-0.4,0.7-0.6,1.5-0.6,2.4
				c0,0.9,0.2,1.7,0.6,2.4c0.4,0.7,0.9,1.2,1.5,1.6c0.6,0.4,1.3,0.6,2.1,0.6c0.8,0,1.5-0.2,2.1-0.6c0.6-0.4,1.1-0.9,1.5-1.6
				C62,44.1,62.2,43.3,62.2,42.4z"/>
			<path class="st1" d="M76,34.8c1.3,0,2.4,0.3,3.1,0.8s1.2,1.3,1.4,2.3c0.3,0.9,0.4,2,0.4,3.1v7c0,0.5-0.2,0.9-0.5,1.2
				c-0.3,0.3-0.7,0.5-1.2,0.5s-0.9-0.2-1.2-0.5c-0.3-0.3-0.5-0.7-0.5-1.2v-7c0-0.6-0.1-1.1-0.2-1.6c-0.2-0.5-0.4-0.9-0.8-1.2
				c-0.4-0.3-1-0.4-1.7-0.4c-0.7,0-1.3,0.1-1.8,0.4c-0.5,0.3-0.9,0.7-1.1,1.2c-0.3,0.5-0.4,1-0.4,1.6v7c0,0.5-0.2,0.9-0.5,1.2
				c-0.3,0.3-0.7,0.5-1.2,0.5s-0.9-0.2-1.2-0.5c-0.3-0.3-0.5-0.7-0.5-1.2V36.8c0-0.5,0.2-0.9,0.5-1.2c0.3-0.3,0.7-0.5,1.2-0.5
				s0.9,0.2,1.2,0.5c0.3,0.3,0.5,0.7,0.5,1.2V38l-0.4-0.1c0.2-0.3,0.4-0.6,0.7-1c0.3-0.4,0.7-0.7,1.1-1c0.4-0.3,0.9-0.6,1.4-0.8
				S75.4,34.8,76,34.8z"/>
			<path class="st1" d="M84.6,35.4h6.5c0.4,0,0.8,0.1,1.1,0.4c0.3,0.3,0.4,0.7,0.4,1.1c0,0.4-0.1,0.8-0.4,1.1
				c-0.3,0.3-0.7,0.4-1.1,0.4h-6.5c-0.4,0-0.8-0.1-1.1-0.4c-0.3-0.3-0.4-0.7-0.4-1.1c0-0.4,0.1-0.8,0.4-1.1
				C83.8,35.5,84.2,35.4,84.6,35.4z M87.6,32c0.5,0,0.9,0.2,1.2,0.5c0.3,0.3,0.5,0.7,0.5,1.2v12.2c0,0.3,0,0.5,0.2,0.6
				c0.1,0.2,0.2,0.3,0.4,0.4c0.2,0.1,0.4,0.1,0.6,0.1c0.2,0,0.4,0,0.6-0.1c0.2-0.1,0.4-0.1,0.6-0.1c0.3,0,0.5,0.1,0.7,0.4
				c0.2,0.2,0.3,0.6,0.3,1c0,0.5-0.3,0.9-0.8,1.3c-0.6,0.3-1.2,0.5-1.8,0.5c-0.4,0-0.8,0-1.3-0.1c-0.5-0.1-0.9-0.2-1.3-0.5
				c-0.4-0.2-0.8-0.6-1-1.1c-0.3-0.5-0.4-1.2-0.4-2.1V33.6c0-0.5,0.2-0.9,0.5-1.2C86.7,32.1,87.1,32,87.6,32z"/>
			<path class="st1" d="M97.1,33.3c-0.6,0-1.1-0.1-1.3-0.3c-0.3-0.2-0.4-0.6-0.4-1.1v-0.5c0-0.5,0.1-0.9,0.4-1.1
				c0.3-0.2,0.7-0.3,1.3-0.3c0.6,0,1.1,0.1,1.3,0.3c0.3,0.2,0.4,0.6,0.4,1.1V32c0,0.5-0.1,0.9-0.4,1.1
				C98.1,33.2,97.7,33.3,97.1,33.3z M98.7,48.1c0,0.5-0.2,0.9-0.5,1.2c-0.3,0.3-0.7,0.5-1.2,0.5c-0.5,0-0.9-0.2-1.2-0.5
				c-0.3-0.3-0.5-0.7-0.5-1.2V36.8c0-0.5,0.2-0.9,0.5-1.2c0.3-0.3,0.7-0.5,1.2-0.5c0.5,0,0.9,0.2,1.2,0.5c0.3,0.3,0.5,0.7,0.5,1.2
				V48.1z"/>
			<path class="st1" d="M109.9,34.8c1.3,0,2.4,0.3,3.1,0.8s1.2,1.3,1.4,2.3c0.3,0.9,0.4,2,0.4,3.1v7c0,0.5-0.2,0.9-0.5,1.2
				c-0.3,0.3-0.7,0.5-1.2,0.5s-0.9-0.2-1.2-0.5c-0.3-0.3-0.5-0.7-0.5-1.2v-7c0-0.6-0.1-1.1-0.2-1.6c-0.2-0.5-0.4-0.9-0.8-1.2
				c-0.4-0.3-1-0.4-1.7-0.4c-0.7,0-1.3,0.1-1.8,0.4c-0.5,0.3-0.9,0.7-1.1,1.2c-0.3,0.5-0.4,1-0.4,1.6v7c0,0.5-0.2,0.9-0.5,1.2
				c-0.3,0.3-0.7,0.5-1.2,0.5s-0.9-0.2-1.2-0.5c-0.3-0.3-0.5-0.7-0.5-1.2V36.8c0-0.5,0.2-0.9,0.5-1.2c0.3-0.3,0.7-0.5,1.2-0.5
				s0.9,0.2,1.2,0.5c0.3,0.3,0.5,0.7,0.5,1.2V38l-0.4-0.1c0.2-0.3,0.4-0.6,0.7-1c0.3-0.4,0.7-0.7,1.1-1c0.4-0.3,0.9-0.6,1.4-0.8
				S109.3,34.8,109.9,34.8z"/>
			<path class="st1" d="M129.2,35.1c0.5,0,0.9,0.2,1.2,0.5c0.3,0.3,0.5,0.7,0.5,1.2v6.9c0,1.9-0.5,3.5-1.6,4.6
				c-1.1,1.1-2.6,1.7-4.6,1.7s-3.6-0.6-4.6-1.7c-1.1-1.1-1.6-2.7-1.6-4.6v-6.9c0-0.5,0.2-0.9,0.5-1.2c0.3-0.3,0.7-0.5,1.2-0.5
				s0.9,0.2,1.2,0.5c0.3,0.3,0.5,0.7,0.5,1.2v6.9c0,1.1,0.2,1.9,0.7,2.5c0.5,0.5,1.2,0.8,2.2,0.8c1,0,1.7-0.3,2.2-0.8
				c0.5-0.5,0.7-1.4,0.7-2.5v-6.9c0-0.5,0.2-0.9,0.5-1.2C128.4,35.3,128.7,35.1,129.2,35.1z"/>
			<path class="st1" d="M146.2,34.8c0.5,0,0.9,0.2,1.2,0.5s0.5,0.7,0.5,1.2v11.6c0,0.5-0.2,0.9-0.5,1.2c-0.3,0.3-0.7,0.5-1.2,0.5
				s-0.9-0.2-1.2-0.5c-0.3-0.3-0.5-0.7-0.5-1.2v-1.3l0.6,0.2c0,0.2-0.1,0.5-0.4,0.9c-0.3,0.3-0.6,0.7-1,1c-0.4,0.3-1,0.6-1.5,0.8
				c-0.6,0.2-1.2,0.3-1.9,0.3c-1.3,0-2.4-0.3-3.4-1c-1-0.6-1.8-1.5-2.4-2.7c-0.6-1.1-0.9-2.4-0.9-3.9c0-1.5,0.3-2.8,0.9-3.9
				c0.6-1.1,1.4-2,2.4-2.7c1-0.6,2.1-1,3.3-1c0.8,0,1.5,0.1,2.2,0.4c0.7,0.2,1.2,0.5,1.7,0.9c0.5,0.4,0.9,0.7,1.1,1.1
				c0.3,0.4,0.4,0.7,0.4,0.9l-1,0.4v-2c0-0.5,0.2-0.9,0.5-1.2C145.4,35,145.8,34.8,146.2,34.8z M140.7,47c0.8,0,1.5-0.2,2.1-0.6
				c0.6-0.4,1.1-0.9,1.4-1.6s0.5-1.5,0.5-2.3c0-0.9-0.2-1.7-0.5-2.3c-0.3-0.7-0.8-1.2-1.4-1.6c-0.6-0.4-1.3-0.6-2.1-0.6
				c-0.8,0-1.5,0.2-2.1,0.6c-0.6,0.4-1.1,0.9-1.4,1.6c-0.3,0.7-0.5,1.5-0.5,2.3c0,0.9,0.2,1.6,0.5,2.3c0.3,0.7,0.8,1.2,1.4,1.6
				C139.3,46.8,139.9,47,140.7,47z"/>
			<path class="st1" d="M153.1,49.7c-0.5,0-0.9-0.2-1.2-0.5c-0.3-0.3-0.5-0.7-0.5-1.2V36.8c0-0.5,0.2-0.9,0.5-1.2
				c0.3-0.3,0.7-0.5,1.2-0.5s0.9,0.2,1.2,0.5c0.3,0.3,0.5,0.7,0.5,1.2v2.6l-0.2-1.8c0.2-0.4,0.5-0.8,0.8-1.2
				c0.3-0.3,0.7-0.6,1.1-0.8c0.4-0.2,0.8-0.4,1.3-0.5s0.9-0.2,1.4-0.2c0.5,0,1,0.2,1.4,0.5c0.4,0.3,0.6,0.7,0.6,1.1
				c0,0.6-0.2,1-0.5,1.3c-0.3,0.3-0.6,0.4-1,0.4c-0.3,0-0.7-0.1-0.9-0.2c-0.3-0.1-0.6-0.2-1-0.2c-0.3,0-0.7,0.1-1,0.2
				c-0.3,0.2-0.6,0.4-0.9,0.7c-0.3,0.3-0.5,0.7-0.7,1.2c-0.2,0.5-0.3,1.1-0.3,1.7v6.5c0,0.5-0.2,0.9-0.5,1.2
				C153.9,49.6,153.5,49.7,153.1,49.7z"/>
		</g>
	</g>
	<path class="st6" d="M193.2,37.6l-13.7-10.7c-1.1-0.8-2.6-0.1-2.6,1.3v0c0,0.9-0.7,3.6-1.6,3.6h-5.1c-0.9,0-1.6,0.7-1.6,1.6v11
		c0,0.9,0.7,1.6,1.6,1.6h5.1c0.9,0,1.6,2.7,1.6,3.6v0c0,1.4,1.6,2.1,2.6,1.3l13.7-10.7C194,39.5,194,38.2,193.2,37.6z"/>
	<path class="st1" d="M193.2,37.6l-13.7-10.7c-1.1-0.8-2.6-0.1-2.6,1.3v0c0,0.9-0.7,3.6-1.6,3.6h-5.1c-0.9,0-1.6,0.7-1.6,1.6v11
		c0,0.9,0.7,1.6,1.6,1.6h5.1c0.9,0,1.6,2.7,1.6,3.6v0c0,1.4,1.6,2.1,2.6,1.3l13.7-10.7C194,39.5,194,38.2,193.2,37.6z"/>
</g>
</svg>
