<svg xmlns="http://www.w3.org/2000/svg" viewBox="0 0 505.47 136.22"><defs><style>.cls-1{fill:#dcebf5;stroke:#9fbbcf;stroke-miterlimit:10;stroke-width:1.59px;}</style></defs><title>Nube</title><g id="Capa_2" data-name="Capa 2"><g id="Capa_5" data-name="Capa 5"><path class="cls-1" d="M19.92,113.35c-1.06-10.1.17-13.17,6.3-17.11a29.59,29.59,0,0,1,16.33-4.58c2.77,0,5.54,0,8.61,0,0-3.38-.09-6.35,0-9.31A45.16,45.16,0,0,1,62.34,53.53C71.36,43,82,37.34,93.22,34.14c17.61-5,35-4.45,51.87,5.38,2.42,1.41,4.72,3.21,7.59,5.19C154,30,157.2,17.08,166,8.6c6.4-6.19,13.54-7.9,21.14-7.8C199.21,1,217,15.1,219.43,39c10.06-11.76,21.46-10.3,32.91-7.07,11.8,3.33,22.4,10.54,32,20.92,5.72,6.14,9.21,14.39,12.33,23.2a37.07,37.07,0,0,0,1.69,3.57,82.6,82.6,0,0,0,8.48-2.82,26.32,26.32,0,0,1,24,.64c3.5,1.8,7.3,2.25,10.37,6,.8,1,2.81.2,4.2-.19a117.74,117.74,0,0,1,68.57,1.16c9.08,2.83,17.13,9,25.35,14.68,2.36,1.63,4.39,2.17,7,1.46,17.25-4.74,33.74-1.45,49.18,10.8a37.65,37.65,0,0,1,7.71,8.64c2.55,3.9,1.46,8.33-2.21,9.59a28.55,28.55,0,0,1-8.3,1.44q-44.89,1.65-89.8,3.09c-9.37.29-18.75.26-28.13.29q-103.1.34-206.2.67c-6.06,0-12.13.45-18.19.32-21.7-.43-43.39-1-65.09-1.55-17.76-.46-35.53-.86-53.29-1.51-8.71-.31-17.42-1-26.11-1.85-1.77-.18-4.56-1.33-5-3-1-4,1.85-5.59,3.85-6.91a81.86,81.86,0,0,1,9.22-4.91C15.92,114.77,17.84,114.16,19.92,113.35Z"/></g></g></svg>