<svg xmlns="http://www.w3.org/2000/svg" viewBox="0 0 15.74 245.6"><defs><style>.cls-1{fill:#d6412a;stroke:#966447;stroke-miterlimit:10;stroke-width:2.93px;}.cls-2{fill:#fba644;}.cls-3{fill:#fdcc95;}.cls-4{fill:#e9e8e7;}.cls-5{fill:#b6adab;}.cls-6{fill:#fe9687;}.cls-7{fill:#1f1f1f;}.cls-8{fill:#e59336;}.cls-9{fill:#c18035;}.cls-10{fill:#d3d1d1;}</style></defs><title>Lapiz</title><g id="Capa_2" data-name="Capa 2"><g id="Capa_5" data-name="Capa 5"><path class="cls-1" d="M2,209.85q2.3,12.78,4.58,25.58Q7.27,239.69,8,244l.58.05c.38-2.91.77-5.83,1.16-8.74q1.26-6.36,2.53-12.72l1-5.85q.42-3.21.85-6.42l-3.31-.09-4.87,0Z"/><path class="cls-1" d="M14.23,206.89Q14.13,136.51,14,66.13c0-12.76-.23-25.53-.35-38.29.12,0,.17-17.13.17-17.13h0V8.62l0-.35V5.42l0-1-.07-.47A3.46,3.46,0,0,0,9.91,1.47c-1.19.07-2.38.07-3.58.1a2.55,2.55,0,0,1,0,.39h0a2.55,2.55,0,0,0,0-.39c-3.86-.25-4.87.7-4.87,4.57,0,.65,0,1.31,0,2h0v2.61h0L1.55,28c0,.9-.05,1.79-.05,2.68q.18,54.12.36,108.24Q2,174.38,2,209.85l3.9.39h0l4.87,0h0l3.31.09C14.13,209.16,14.23,208,14.23,206.89ZM5.43,28Zm4.83-14.45c0-1,0-1.91,0-2.86h0C10.27,11.57,10.27,12.54,10.26,13.57Zm0-10.7a3.18,3.18,0,0,1,0,.34,3.18,3.18,0,0,0,0-.34,1.39,1.39,0,0,0-.1-.39A1.39,1.39,0,0,1,10.21,2.87ZM10,2.3a.62.62,0,0,0-.18-.14L9.66,2.1l.14.06A.62.62,0,0,1,10,2.3ZM8.88,2h0ZM5.34,10.71c0,2.58.07,15.26.07,17.2l0-.11c0-1.59,0-14.48,0-17.09Z"/><path class="cls-2" d="M2,209.85q-.06-35.47-.14-70.95Q1.71,84.78,1.5,30.66c0-.89,0-1.78.05-2.68H5.43a.63.63,0,0,0,0,.27c0,1-.09,1.95-.09,2.93q.24,51.69.47,103.4c.08,25.22,0,50.43.06,75.65Z"/><path class="cls-3" d="M13.23,216.71l-1,5.85Q11,228.92,9.71,235.28l-3.13.15Q4.29,222.64,2,209.85l3.9.39,4.87,0,3.31.09Z"/><path class="cls-4" d="M5.43,28H1.55q0-8.86,0-17.75l1.24-.13H4.56l.77.24c.06,1.28.06,15.76.06,17.46Z"/><path class="cls-5" d="M13.65,27.84,10.21,28s0-11.93.06-17.76a14.14,14.14,0,0,1,3.55.46S13.77,27.88,13.65,27.84Z"/><path class="cls-6" d="M13.72,9.82l-3.45.43-.47-.1c0-.05-.07-.14-.1-.14a1.8,1.8,0,0,0-.32.06l-4-.24,0-.53c4.85,0,4.88,0,4.85-3.52,0-4.2.65-3.81-3.89-3.82a2.55,2.55,0,0,0,0-.39c1.2,0,2.39,0,3.58-.1a3.46,3.46,0,0,1,3.87,2.45l.07.47,0,1V8.27Z"/><path class="cls-6" d="M6.33,1.57a2.55,2.55,0,0,1,0,.39C6,2.57,5.46,3.17,5.41,3.8c-.12,1.82,0,3.66,0,5.5,0,.18,0,.35,0,.53a.65.65,0,0,1,0,.31l-.84,0H2.75L1.54,9.73c0-1.2-.07-2.4-.08-3.59C1.46,2.27,2.47,1.32,6.33,1.57Z"/><path class="cls-7" d="M6.58,235.43l3.13-.15c-.39,2.91-.78,5.83-1.16,8.74L8,244Z"/><path class="cls-5" d="M1.54,9.73l1.21.37-1.24.13Z"/><path class="cls-8" d="M10.77,210.2l-4.87,0c0-25.22,0-50.43-.06-75.65q-.16-51.7-.47-103.4c0-1,.06-3.19.06-3.19h4.78c0,24,0,48,0,72Q10.46,155.09,10.77,210.2Z"/><path class="cls-9" d="M13.65,27.84c.12,12.76.32,25.53.35,38.29q.16,70.38.23,140.76c0,1.14-.1,2.27-.15,3.4l-3.31-.09q-.25-55.11-.51-110.22c-.08-24,0-48,0-72Z"/><path class="cls-10" d="M5.41,28c0-1.69,0-16.39-.08-17.67l.08-.2a.65.65,0,0,0,0-.31l4,.24a.33.33,0,0,0,.42.08l.47.1c0,5.83,0,11.94,0,17.77A45.41,45.41,0,0,1,5.41,28Z"/><path class="cls-5" d="M5.41,10.14l-.08.2-.77-.24Z"/><path class="cls-6" d="M5.39,9.3c0-1.84-.1-3.68,0-5.5,0-.63.62-1.23.94-1.84,4.54,0,3.85-.38,3.89,3.82C10.27,9.27,10.24,9.28,5.39,9.3Z"/><path class="cls-5" d="M9.8,10.15a.33.33,0,0,1-.42-.08A1.8,1.8,0,0,1,9.7,10S9.77,10.1,9.8,10.15Z"/><rect class="cls-6" x="1.5" y="8.1" width="12.34" height="2.61"/></g></g></svg>