<svg xmlns="http://www.w3.org/2000/svg" viewBox="0 0 256.47 254.4"><defs><style>.cls-1{isolation:isolate;}.cls-2{fill:#9e4297;stroke:#9e4297;stroke-miterlimit:10;stroke-width:3px;}.cls-3{fill:#dc67f6;}.cls-4{fill:#fcc8de;}.cls-5,.cls-9{opacity:0.5;}.cls-5,.cls-6,.cls-9{mix-blend-mode:soft-light;}.cls-6,.cls-8{fill:#fff;}.cls-7{fill:#036;}</style></defs><title>Pulpo</title><g class="cls-1"><g id="Capa_2" data-name="Capa 2"><g id="Capa_5" data-name="Capa 5"><path class="cls-2" d="M250.85,21.43a34.44,34.44,0,0,0-3.61-5.77c-.27-.33-.52-.65-.79-1-9.09-10.83-24.6-15-38.53-12.51s-26.3,10.76-36,21S154.85,45.76,147.74,58c-2.05,3.53-4.33,7.29-8.07,8.93s-7.89.81-11.78,1.7c-8.41,1.9-12.82,11.9-9.5,19.55a13.36,13.36,0,0,0,2.13,3.19c1.79,2.17,3.74,4.11,3.37,7.28a13,13,0,0,1-1.41,4.34,56.81,56.81,0,0,1-26.83,20.26c-15.36,5.45-32.06,2.64-48,3.81-10,.75-20.36,3.06-28.5,8.86a34.15,34.15,0,0,0-7,6.68c-5.71,7.23-10.9,22.16-2.09,29.14a.61.61,0,0,0,.95-.47c.16-6.29-.53-11.94,2.35-17.84a27.78,27.78,0,0,1,3.29-5.22A29.7,29.7,0,0,1,27.2,140c13.63-6.51,29-5.13,43.66-5.09,11.45,0,22.61-1.27,33-5.66l-.07.06c-.74.59-1.5,1.17-2.26,1.72a55,55,0,0,1-22.38,9.36c-8,1.45-16.34,1.49-24.34,3a50.68,50.68,0,0,0-8.68,2.48A45.8,45.8,0,0,0,21.94,166.8l-.53,1a47.68,47.68,0,0,0-4.92,18.92c-.07,1-.09,2.2-.16,3.41-.22,3.44-.93,7.09-4.67,7.55-6.62.82-6.59-7.35-3.18-10.48a.41.41,0,0,0,.09-.1c.49-.6-.22-1.4-1-1.17-13.22,4-2.66,23.52,9.6,18.5,6.5-2.65,7.72-9.82,8.09-16.08a40.5,40.5,0,0,1,5.25-18.44q.73-1.26,1.59-2.49A37.77,37.77,0,0,1,50.2,153.64c7.74-2.79,16.4-2.92,24.6-3.86,15.46-1.76,29.84-7.74,40.44-18.59.52-.53,1-1.07,1.51-1.63a74.2,74.2,0,0,1-7.75,9.82A67.53,67.53,0,0,1,88.48,154.3c-7.93,3.77-16.76,5.36-25.16,7.7-2,.56-4.21,1.17-6.45,1.89-10.44,3.35-21.78,8.93-20.65,22,.48,5.55,4.19,10.48,9.69,11.16,4.35.54,8.9-1.41,9.41-6.27a1.11,1.11,0,0,0-1-1.1.8.8,0,0,0-.49.14c-6.91,4.88-14-1.86-10.39-9.62,3-6.28,10.86-8,16.89-9.14,2-.4,4.1-.75,6.13-1.09,3.41-.56,6.81-1.06,10.16-1.65,8.53-1.5,16.81-3.57,24.54-8.57,1.65-1.06,3.23-2.18,4.76-3.36,1-.74,1.9-1.51,2.81-2.29l.58-.51a64.64,64.64,0,0,0,5.16-5l.54-.6c.69-.78,1.36-1.57,2-2.38.12-.14.24-.28.35-.43.69-.87,1.35-1.76,2-2.67l.75-1.1.5-.73c-3.28,8.52-8.61,16.31-16.25,21.47-6.72,4.54-14.53,7.15-21.5,11.24-1,.61-2,1.25-3,1.91-13.35,9.23-19,23.35-21.36,39.42-1.25,8.37-1,19-8.56,24.58-8.82,6.46-17.66-1.76-15.85-11.43.13-.69-.93-1-1.28-.43-6.47,10.56,6.53,23,17.2,18.73,15-6,14.33-25.71,18.28-38.67,2.37-7.82,6.28-15.48,12.45-20.92a28.53,28.53,0,0,1,2.26-1.82c6.29-4.6,13.9-7.12,20.78-10.7a54.43,54.43,0,0,0,12.81-9.16l-.16.2-.88,1.11c-1.62,2-3.24,4.05-4.84,6.08l-.21.26c-.69.89-1.38,1.77-2.06,2.66h0c-1,1.35-2.05,2.7-3,4.07q-1.16,1.6-2.28,3.27l-.3.43c-.78,1.16-1.54,2.34-2.29,3.53h0c-.32.51-.64,1-.94,1.53-.19.31-.37.62-.55.93-.27.46-.54.92-.8,1.38l-.07.12-.06.11c-.66,1.17-1.31,2.36-1.92,3.56-.25.51-.5,1-.74,1.53l0,0c-.32.67-.62,1.33-.92,2-.06.12-.11.23-.16.35-.27.61-.53,1.23-.78,1.85l-.21.51c-.23.59-.45,1.17-.66,1.76-.08.21-.16.41-.23.61-.2.57-.39,1.15-.57,1.72-.07.23-.15.45-.22.67-.17.56-.33,1.12-.48,1.69-.07.24-.15.49-.21.73-.14.53-.26,1.06-.38,1.59-.07.29-.14.58-.2.87-.1.46-.18.92-.27,1.38L90,212.55c0,.33-.09.66-.13,1s-.15.93-.2,1.4a.88.88,0,0,1,0,.16c-.08.66-.13,1.32-.18,2,0,.36-.06.71-.07,1.07,0,0,0,0,0,0,0,.64,0,1.27,0,1.9,0,.25,0,.5,0,.75s0,.35,0,.52c.27,3.92,1.25,7.71,1.88,11.55,0,.21.07.42.1.62s.07.47.1.7.07.49.1.74,0,.44.07.66,0,.55.07.82,0,.39,0,.58c0,.47,0,.94,0,1.41,0,4.17-1.62,6.9-6,7.52-.4.05-.78.07-1.15.08l-.41,0a5.09,5.09,0,0,1-.69-.05l-.42-.07a4.56,4.56,0,0,1-.53-.13,4.91,4.91,0,0,1-.51-.15l-.43-.19-.42-.2a5.8,5.8,0,0,1-.52-.34l-.3-.21a5.12,5.12,0,0,1-.59-.55c-.08-.08-.14-.17-.22-.25a5.82,5.82,0,0,1-.36-.47,2,2,0,0,1-.2-.3,5.09,5.09,0,0,1-.3-.5c0-.11-.11-.21-.16-.33s-.16-.37-.24-.56l-.12-.32c-.07-.23-.14-.47-.2-.71l-.06-.23c-.07-.32-.12-.64-.16-1,0-.07,0-.14,0-.21,0-.26,0-.53,0-.8v-.35c0-.22,0-.45,0-.68s0-.25,0-.38,0-.45.09-.67L78,236c0-.23.1-.47.16-.7s0-.21.08-.32c.1-.34.21-.67.34-1a.85.85,0,0,0,0-.65h0a1,1,0,0,0-1.62-.14c-8.23,11.36,6.2,24.67,17.62,17.83,10.21-6.12,6.9-18.58,6.13-29.33a33,33,0,0,1,.19-7.88c2.61-14.86,12.17-27.37,20.74-39.31,8.32-11.59,16.87-23.81,20.41-37.78-1.7,11.64-6.47,22.65-12.45,32.82-6.89,11.73-18.12,22.82-19.77,36.74a28.78,28.78,0,0,0-.07,6.37,21.53,21.53,0,0,0,3.67,9.61c2.81,4.15,7,7.38,11.71,7.56.75,0,1.41-1,.78-1.58a34.86,34.86,0,0,1-6.41-7.5,17.24,17.24,0,0,1-2.56-8.5c-.2-6.88,3.89-14.36,7.5-20,7.79-12.14,16.36-23.07,21.36-36.81a80.87,80.87,0,0,0,3.56-13.27,78.94,78.94,0,0,1-6.18,29.54c-5.44,13.39-9.75,25.6-8.84,40.22,0,.2,0,.39,0,.6.56,7.9,2,16.32-1.73,23.69-3.89,7.62-13.72,10.23-19.95,3.7-.33-.35-1.05-.08-.9.45,1.5,5.5,6.93,8.05,12.34,7.8,7-.33,12.16-5.06,15.07-11.2,3.71-7.83,3.49-16.53,3.34-25a52.66,52.66,0,0,1,.55-8.68c1-6.75,3.28-12.82,6.38-19.51a132.18,132.18,0,0,0,8-21.3,38.12,38.12,0,0,0,3.86,6.28C162.14,169.9,163,171,164,172c2.6,3,5.35,5.9,7.11,9.49a18,18,0,0,1-1.13,17c-.15.26-.31.51-.47.75l-.05.06c-3.48,5.39-8.33,8.18-14.09,10.33-.57.21-.73,1-.13,1.22,11.58,4,23.89-6.85,26.36-18.78a25.9,25.9,0,0,0-3.3-18.73c-3.11-5.24-7.75-9.41-10.69-14.74a23.28,23.28,0,0,1-1.06-2.12c-5.28-12.23-.63-27.59-4.23-40.47,0,0,0-.1,0-.15-.52-2.66-1.2-5.3-.62-7.91a7.44,7.44,0,0,1,.43-1.36c1.74-4.08,6.79-5.94,10.9-6.74,6.64-1.3,13.51-.5,20.28-.68,21.16-.57,42.34-11.81,54.51-29.19,4.89-7,6.15-17.43,7-25.8A41.89,41.89,0,0,0,250.85,21.43Z"/><path class="cls-3" d="M143.12,131.4q-.42,2.7-1.1,5.33c-3.54,14-12.09,26.19-20.41,37.78C113,186.45,103.48,199,100.87,213.82a33,33,0,0,0-.19,7.88c.77,10.75,4.08,23.21-6.13,29.33-11.42,6.84-25.85-6.47-17.62-17.83a1,1,0,0,1,1.62.14h0a.85.85,0,0,1,0,.65c-2.19,5.62.11,12.95,7.27,12,4.41-.62,6.08-3.35,6-7.52-.08-6.86-2.8-13.27-2.46-20.25,0-1,.13-2.07.25-3.1,1.46-13.16,8.18-25.22,15.82-35.83,3.53-4.89,7.41-9.6,11.2-14.39a134.18,134.18,0,0,0,11.45-16.32c.48-1.06,1-2.13,1.4-3.2l.42-1.08a74.72,74.72,0,0,0,4.39-17.47,71.72,71.72,0,0,0-.43-21.55c-.16-.72-.33-1.42-.52-2.12a113.46,113.46,0,0,0-3.4-11c-.08-.27-.18-.52-.28-.79a2.32,2.32,0,0,1-.13-.37,2.5,2.5,0,0,1,.49-2.44,3.27,3.27,0,0,1,.47-.44,2.66,2.66,0,0,1,4.05.88c.22.42.44.83.65,1.25a1,1,0,0,1,.09.18c.46.88.9,1.78,1.31,2.68.15.32.3.62.44.94l.45,1c.75,1.71,1.43,3.46,2.06,5.23s1.16,3.48,1.65,5.26A62.2,62.2,0,0,1,143.12,131.4Z"/><path class="cls-4" d="M129.52,145.36c-.79,2.06-1.66,4.09-2.57,6.08h0c-6.41,14-15.59,26.31-25.24,38.39-5.06,6.32-10.79,13.94-10.7,22.44a27.72,27.72,0,0,0,.44,4.55c.3,1.78.73,3.53,1.19,5.27,1.12,4.23,2.8,8.18,3.25,12.53.39,3.79-.54,7.92-3.35,10.48a9.05,9.05,0,0,1-15.15-7.19,8,8,0,0,1,.17-1.38c.24-1.09.66-2.13,1-3.19a.85.85,0,0,1,0,.65c-1.85,4.75-.49,10.71,4.29,11.85h0a7.38,7.38,0,0,0,2,.19,7.61,7.61,0,0,0,.94-.08c4.41-.62,6.08-3.35,6-7.52s-1-8.1-1.76-12.12a45.6,45.6,0,0,1-.7-5.48c0-.88,0-1.76,0-2.65,0,0,0,0,0,0,0-1,.14-2,.25-3.05a.88.88,0,0,0,0-.16,60.51,60.51,0,0,1,5.85-19.27c.46-1,1-2,1.48-2.93.39-.75.81-1.52,1.24-2.27.75-1.34,1.54-2.67,2.36-4,1.54-2.49,3.19-4.9,4.87-7.24q1.48-2.06,3-4.08c.68-.89,1.37-1.77,2.06-2.66,1.29-1.64,2.59-3.26,3.89-4.89l2-2.56.16-.2c.6-.75,1.19-1.51,1.77-2.26s1.34-1.74,2-2.62a109.83,109.83,0,0,0,7.68-11.44C128.6,147.5,129.08,146.43,129.52,145.36Z"/><path class="cls-5" d="M91.67,224a2.29,2.29,0,0,1-.94,2,1.14,1.14,0,0,1-.63.35,45.6,45.6,0,0,1-.7-5.48,1.4,1.4,0,0,1,1,.58,1.79,1.79,0,0,1,.51.31A2.92,2.92,0,0,1,91.67,224Z"/><path class="cls-5" d="M93.9,228.88v0a1.22,1.22,0,0,0-.32-.85.94.94,0,0,0-.83-.32,1.06,1.06,0,0,0-.79.45c-.42.5-.16,1.27.05,1.82a1.2,1.2,0,0,0,1.34.9,1.11,1.11,0,0,0,.72-1.48A3.47,3.47,0,0,0,93.9,228.88Z"/><path class="cls-5" d="M93.87,233.37a.86.86,0,0,0-.21-.35,1,1,0,0,0-.4-.25.81.81,0,0,0-.55-.06.78.78,0,0,0-.27.09c-.91.5-.69,1.65-.36,2.44a1,1,0,0,0,1,.55,1.09,1.09,0,0,0,.91-.7A1.88,1.88,0,0,0,93.87,233.37Z"/><path class="cls-5" d="M94.57,237.59a1.26,1.26,0,0,0-1-.28,1.07,1.07,0,0,0-.69.28,2.87,2.87,0,0,0-.36,3.12,1.18,1.18,0,0,0,1.81.33A2.36,2.36,0,0,0,94.57,237.59Z"/><path class="cls-5" d="M92.14,243.11a.74.74,0,0,0-.88.07,1.4,1.4,0,0,0-.49.66l-.2.56a.66.66,0,0,0,.34.81.67.67,0,0,0,.74-.11h0l.09-.11s.09-.08.12-.09l.14-.11a1,1,0,0,0,.3-.43s0-.06,0-.09l0,0a2,2,0,0,0,.08-.31A.74.74,0,0,0,92.14,243.11Z"/><path class="cls-5" d="M88.55,245.6a1.41,1.41,0,0,0-.58,0,1.39,1.39,0,0,0-.58.23.64.64,0,0,0-.27.84.66.66,0,0,0,.52.32h0a1.79,1.79,0,0,0,.61-.06,1.34,1.34,0,0,0,.52-.3A.65.65,0,0,0,89,246,.59.59,0,0,0,88.55,245.6Z"/><path class="cls-5" d="M84.89,246.05v0a.66.66,0,0,1-.78.51l-.23-.06-.09,0a2.79,2.79,0,0,1-.4-.07l-.13,0a.54.54,0,0,1-.4-.43.71.71,0,0,1,0-.14A7.38,7.38,0,0,0,84.89,246.05Z"/><path class="cls-5" d="M90.87,217.08a1.42,1.42,0,0,1-.11.79.73.73,0,0,1-.47.41.87.87,0,0,1-.89-.13c0-1,.14-2,.25-3.05a.88.88,0,0,0,0-.16.92.92,0,0,1,.68.26A2.75,2.75,0,0,1,90.87,217.08Z"/><path class="cls-5" d="M97.19,195c-.31.62-1,1.14-1.67.66.46-1,1-2,1.48-2.93a1,1,0,0,1,.23.22,1.09,1.09,0,0,1,.23.29A2.08,2.08,0,0,1,97.19,195Z"/><path class="cls-5" d="M101.7,188a3.29,3.29,0,0,1-2.11,2.87,1,1,0,0,1-1.35-.4c.75-1.34,1.54-2.67,2.36-4A1.43,1.43,0,0,1,101.7,188Z"/><path class="cls-5" d="M104.16,184.47a.89.89,0,0,0-1.33.05,1.87,1.87,0,0,0-.49,1.14.79.79,0,0,0,1.09.83,1.58,1.58,0,0,0,.73-.82l0,0a1.38,1.38,0,0,0,.14-.3A.93.93,0,0,0,104.16,184.47Z"/><path class="cls-5" d="M106.73,180a.79.79,0,0,0-1.1,0,4.54,4.54,0,0,0-.79.79,1.58,1.58,0,0,0-.45,1.19.86.86,0,0,0,1.35.52,2.1,2.1,0,0,0,.71-.9,2,2,0,0,0,.13-.37l.1-.08A.78.78,0,0,0,106.73,180Z"/><path class="cls-5" d="M108.79,177.75a1.19,1.19,0,0,0-.73.57,3.76,3.76,0,0,0-.3.47,1,1,0,0,0,0,1,.84.84,0,0,0,1.12.23,1.37,1.37,0,0,0,.76-1.32,1.17,1.17,0,0,0,.06-.2A.76.76,0,0,0,108.79,177.75Z"/><path class="cls-5" d="M111.6,173.5c.3,1.24-1,3.18-2.39,2.61a1.15,1.15,0,0,1-.69-.92c.68-.89,1.37-1.77,2.06-2.66A1.28,1.28,0,0,1,111.6,173.5Z"/><path class="cls-5" d="M114.29,170.49a.89.89,0,0,0-1.22-.05c-.45.4-1,1-.84,1.61a.94.94,0,0,0,1.1.71,1.39,1.39,0,0,0,.8-.52,1.29,1.29,0,0,0,.34-1A.9.9,0,0,0,114.29,170.49Z"/><path class="cls-5" d="M117.33,167.62c-.38.69-1.1,1.45-2,1.15a1.35,1.35,0,0,1-.9-1.13l2-2.56a1.17,1.17,0,0,1,.93.52A1.8,1.8,0,0,1,117.33,167.62Z"/><path class="cls-5" d="M121.07,160.68a1.91,1.91,0,0,1-1.78,2.36,1.17,1.17,0,0,1-.85-.42c.68-.87,1.34-1.74,2-2.62A1,1,0,0,1,121.07,160.68Z"/><path class="cls-5" d="M119.1,163.23a.71.71,0,0,0-1,.21,3.88,3.88,0,0,0-.44.8.73.73,0,0,0,.23.78.77.77,0,0,0,.81.1.94.94,0,0,0,.57-.61.92.92,0,0,0,0-.33A.71.71,0,0,0,119.1,163.23Z"/><path class="cls-3" d="M181.56,192.09c-2.47,11.93-14.78,22.83-26.36,18.78-.6-.21-.44-1,.13-1.22,5.76-2.15,10.61-4.94,14.09-10.33l.05-.06c.16-.24.32-.49.47-.75a18,18,0,0,0,1.13-17c-1.76-3.59-4.51-6.5-7.11-9.49-.92-1.05-1.82-2.12-2.65-3.23a38.12,38.12,0,0,1-3.86-6.28,35.87,35.87,0,0,1-2.71-7.73c-2.32-10.17-.19-21.18-1.91-31.48A36.36,36.36,0,0,0,148,110.16c-.08-.15-.16-.29-.25-.43a42.78,42.78,0,0,0-8.18-9.46c-.77-.69-1.57-1.35-2.39-2l-.82-.64c-.42-.33-.86-.65-1.29-1l-1-.74a1.72,1.72,0,0,1,.2-2.72,1.41,1.41,0,0,1,.89-.25c.5,0,1,.07,1.49.13s.7.08,1.05.14a2.32,2.32,0,0,1,.38.06,2.66,2.66,0,0,1,.39.07,23.72,23.72,0,0,1,2.43.57h0C151,96.85,159.44,105.81,162.28,116c3.6,12.88-1.05,28.24,4.23,40.47a23.28,23.28,0,0,0,1.06,2.12c2.94,5.33,7.58,9.5,10.69,14.74A25.9,25.9,0,0,1,181.56,192.09Z"/><path class="cls-4" d="M174.43,189.07a34.87,34.87,0,0,1-5,10.19c.16-.24.32-.49.47-.75a18,18,0,0,0,1.13-17c-1.76-3.59-4.51-6.5-7.11-9.49-.92-1.05-1.82-2.12-2.65-3.23a38.12,38.12,0,0,1-3.86-6.28,35.87,35.87,0,0,1-2.71-7.73c-2.32-10.17-.19-21.18-1.91-31.48A36.36,36.36,0,0,0,148,110.16c-.08-.15-.16-.29-.25-.43l.16.1c3.77,2.44,6.64,7.1,7.89,10.92,1.76,5.35,1.78,11.1,1.93,16.73.12,4.82.35,9.75,1.84,14.31.25.76.53,1.52.86,2.27a46.47,46.47,0,0,0,6.19,9.53,60.85,60.85,0,0,1,5.22,7.49C174.87,176.51,176.1,183.08,174.43,189.07Z"/><path class="cls-5" d="M160.55,159.27a3.13,3.13,0,0,0-1.73-1.66.86.86,0,0,0-.8.06,1.12,1.12,0,0,0-.46.24,1.55,1.55,0,0,0-.48,1.61,5,5,0,0,0,.57,1.32c.52.88,1.45,1.69,2.5,1A2,2,0,0,0,160.55,159.27Z"/><path class="cls-5" d="M167.72,170.65a3.49,3.49,0,0,0-2-1.81l-.18-.09a1.18,1.18,0,0,0-1.32.47,1.79,1.79,0,0,0,.21,2,4.74,4.74,0,0,0,1.17,1.39,1.45,1.45,0,0,0,2-.29A1.72,1.72,0,0,0,167.72,170.65Z"/><path class="cls-5" d="M170,172.19a1.1,1.1,0,0,0-.76.75.9.9,0,0,0-.13.45,3.34,3.34,0,0,0,2.16,3.05,1.16,1.16,0,0,0,1.51-1C172.75,174,171.82,171.65,170,172.19Z"/><path class="cls-5" d="M174.09,179.94a2.75,2.75,0,0,0-1-1,.92.92,0,0,0-1.38.95,2.82,2.82,0,0,0,.55,1.33,2.93,2.93,0,0,1,0,.29,1,1,0,0,0,2,.11A2.27,2.27,0,0,0,174.09,179.94Z"/><path class="cls-3" d="M131.52,106.08a69.9,69.9,0,0,1-5,23.49c-.26.63-.51,1.25-.78,1.85a63.74,63.74,0,0,1-19.73,25c-1.53,1.18-3.11,2.3-4.76,3.36-7.73,5-16,7.07-24.54,8.57-3.35.59-6.75,1.09-10.15,1.65-2,.34-4.09.69-6.14,1.09-6,1.18-13.93,2.86-16.89,9.14-3.65,7.76,3.48,14.5,10.39,9.62a.79.79,0,0,1,.48-.14,1.11,1.11,0,0,1,1,1.1c-.51,4.86-5.06,6.81-9.41,6.27-5.5-.68-9.21-5.61-9.69-11.16-1.13-13.09,10.21-18.67,20.65-22,2.24-.72,4.43-1.33,6.45-1.89,8.4-2.34,17.23-3.93,25.16-7.7A67.53,67.53,0,0,0,109,139.38a74.2,74.2,0,0,0,7.75-9.82,69.16,69.16,0,0,0,6.6-12.59c.21-.54.42-1.08.6-1.61A56.52,56.52,0,0,0,126.1,107c.91-4.89,1.43-9.85,2.55-14.81a.38.38,0,0,1,0-.11.47.47,0,0,1,.82,0c.14.39.28.78.4,1.17A39.3,39.3,0,0,1,131.52,106.08Z"/><path class="cls-4" d="M66.52,170c-2,.34-4.09.69-6.14,1.09-6,1.18-13.93,2.86-16.89,9.14-3.65,7.76,3.48,14.5,10.39,9.62a.79.79,0,0,1,.48-.14,8,8,0,0,1-13.72-2.42c-1.46-4,.55-8.66,3.9-11.31,4.5-3.58,10.79-4.57,16.35-5.39Q63.68,170.18,66.52,170Z"/><path class="cls-4" d="M125.7,131.42a63.59,63.59,0,0,1-19.73,25c.35-.39.7-.77,1-1.16,7-7.92,11.88-17.39,17.88-26.05A10.45,10.45,0,0,1,125.7,131.42Z"/><path class="cls-3" d="M135.08,96.66c.12.79.22,1.6.29,2.4,0,.16,0,.31,0,.46.29,3.82.05,7.78.11,11.47.15,8.6-.32,16.79-2.5,25.15a65.39,65.39,0,0,1-6.07,15.3h0a56.79,56.79,0,0,1-10.28,13.43A54.43,54.43,0,0,1,103.86,174c-6.88,3.58-14.49,6.1-20.78,10.7a28.53,28.53,0,0,0-2.26,1.82c-6.17,5.44-10.08,13.1-12.45,20.92-4,13-3.27,32.65-18.28,38.67-10.67,4.28-23.67-8.17-17.2-18.73.35-.55,1.41-.26,1.28.43-1.81,9.67,7,17.89,15.85,11.43,7.6-5.56,7.31-16.21,8.56-24.58,2.4-16.07,8-30.19,21.36-39.42,1-.66,1.94-1.3,3-1.91,7-4.09,14.78-6.7,21.5-11.24,7.64-5.16,13-12.95,16.25-21.47l.16-.4a69.12,69.12,0,0,0,2.66-9A121.09,121.09,0,0,0,126,113.94c0-.22,0-.43.06-.64,0-.06,0-.11,0-.16a59.74,59.74,0,0,0,.06-6.15,83.09,83.09,0,0,1,0-9.73,19.89,19.89,0,0,1,2.26-8.12,2.13,2.13,0,0,1,1.57-1,2.24,2.24,0,0,1,.58,0,2,2,0,0,1,1.64.82,2.8,2.8,0,0,1,.2.32,5.14,5.14,0,0,1,.32.49,17.17,17.17,0,0,1,1.56,3.48A21.52,21.52,0,0,1,135.08,96.66Z"/><path class="cls-3" d="M149.34,142.16v0a80.87,80.87,0,0,1-3.56,13.27c-5,13.74-13.57,24.67-21.36,36.81-3.61,5.62-7.7,13.1-7.5,20a17.24,17.24,0,0,0,2.56,8.5,34.86,34.86,0,0,0,6.41,7.5c.63.59,0,1.61-.78,1.58-4.73-.18-8.9-3.41-11.71-7.56a21.53,21.53,0,0,1-3.67-9.61,28.78,28.78,0,0,1,.07-6.37c1.65-13.92,12.88-25,19.77-36.74,6-10.17,10.75-21.18,12.45-32.82a63,63,0,0,0,.68-8.47,59.36,59.36,0,0,0-7.19-28.93c0-.09-.09-.18-.14-.27q-1.87-3.56-4.16-7.09a1.69,1.69,0,0,1,.18-2,2.46,2.46,0,0,1,1-.7,1.73,1.73,0,0,1,1.75.2c.28.22.57.44.84.67.12.1.25.19.36.3.73.6,1.43,1.23,2.09,1.89.3.3.6.59.88.9.06.06.12.11.16.16a42.23,42.23,0,0,1,9.47,16.48l.09.33C151.15,120.26,151.24,131.62,149.34,142.16Z"/><path class="cls-3" d="M160,136.59a74.37,74.37,0,0,1-.41,15.2,86.12,86.12,0,0,1-2.13,10.72,132.18,132.18,0,0,1-8,21.3c-3.1,6.69-5.38,12.76-6.38,19.51a52.66,52.66,0,0,0-.55,8.68c.15,8.46.37,17.16-3.34,25-2.91,6.14-8.08,10.87-15.07,11.2-5.41.25-10.84-2.3-12.34-7.8-.15-.53.57-.8.9-.45,6.23,6.53,16.06,3.92,19.95-3.7,3.77-7.37,2.29-15.79,1.73-23.69,0-.21,0-.4,0-.6-.91-14.62,3.4-26.83,8.84-40.22a78.94,78.94,0,0,0,6.18-29.54v0a64.24,64.24,0,0,0-.51-8.28c-1.19-9.46-3.44-19.5-7.6-28.35a56.88,56.88,0,0,0-4-7.26l-.37-.55a2.17,2.17,0,0,1-.26-.5,2.89,2.89,0,0,1,.51-3.2,2.86,2.86,0,0,1,.64-.56c.12-.06.23-.13.35-.18l.23-.09a2.44,2.44,0,0,1,2.59.73h0l.14.16c4.93,5.71,10.42,12.34,13.33,19.35A75.33,75.33,0,0,1,160,136.59Z"/><path class="cls-3" d="M137.68,93.22a1,1,0,0,1,0,.24,3.85,3.85,0,0,1-.19,1.58c-.06.18-.13.37-.21.56q-.37.83-.75,1.62c-.07.14-.13.28-.19.41-.28.57-.56,1.13-.86,1.7a1.18,1.18,0,0,1-.1.19c-.63,1.23-1.31,2.43-2,3.62q-.88,1.5-1.86,2.94a63.8,63.8,0,0,1-5.11,6.63c-.12.15-.25.29-.37.43-.68.76-1.37,1.5-2.09,2.22a65.21,65.21,0,0,1-12.19,9.76,58.71,58.71,0,0,1-7.78,4l-.15.06c-10.36,4.4-21.52,5.69-33,5.67-14.65,0-30-1.42-43.66,5.09a29.7,29.7,0,0,0-10.56,8.21,27.78,27.78,0,0,0-3.29,5.22c-2.88,5.9-2.19,11.55-2.35,17.84a.61.61,0,0,1-.95.47c-8.81-7-3.62-21.91,2.09-29.14a34.15,34.15,0,0,1,7-6.68c8.14-5.8,18.48-8.11,28.5-8.86,15.91-1.17,32.61,1.64,48-3.81a56.92,56.92,0,0,0,28.15-22.17c.83-1.23,1.59-2.5,2.32-3.8q1.25-2.24,2.28-4.61a3.16,3.16,0,0,1,.3-.58,4.86,4.86,0,0,1,.87-1.1,4.12,4.12,0,0,1,.47-.38,4.7,4.7,0,0,1,1.35-.66,4.9,4.9,0,0,1,1.3-.21,5.6,5.6,0,0,1,2.27.38,2.21,2.21,0,0,1,.27.12,4.36,4.36,0,0,1,2.18,2.07A3.57,3.57,0,0,1,137.68,93.22Z"/><path class="cls-3" d="M130.06,88.53a2.42,2.42,0,0,1,0,.39c0,.56,0,1.11,0,1.67s0,1-.06,1.54,0,.77-.06,1.15a73,73,0,0,1-3.51,19.43c-.14.41-.28.82-.44,1.23a47.72,47.72,0,0,1-9.22,15.62c-.49.56-1,1.1-1.51,1.63C104.64,142,90.26,148,74.8,149.78c-8.2.94-16.86,1.07-24.6,3.86a37.77,37.77,0,0,0-18.06,13.81q-.86,1.23-1.59,2.49a40.5,40.5,0,0,0-5.25,18.44c-.37,6.26-1.59,13.43-8.09,16.08C5,209.48-5.61,190,7.61,186c.74-.23,1.45.57,1,1.17l-.1.1c-3.41,3.13-3.44,11.3,3.18,10.48,3.74-.46,4.45-4.11,4.67-7.55.07-1.21.09-2.4.16-3.41a47.68,47.68,0,0,1,4.92-18.92l.53-1a45.8,45.8,0,0,1,24.15-20.93,50.68,50.68,0,0,1,8.68-2.48c8-1.53,16.32-1.57,24.34-3A55,55,0,0,0,101.49,131c.79-.57,1.57-1.16,2.34-1.79l.39-.3c8.76-7.11,16.06-17,19.58-27.86a44.83,44.83,0,0,0,2.28-12.5c.08-2.21,3.17-2.19,3.87-.43C130,88.26,130,88.39,130.06,88.53Z"/><path class="cls-4" d="M16.33,190.16a5.63,5.63,0,0,1,0,.71c0,2.4-.3,5-1.79,6.83a6.44,6.44,0,0,1-7.28,1.83,6.89,6.89,0,0,1-4.11-6.37,7.29,7.29,0,0,1,1.75-4.46c.64-.76,2.16-2.36,3.28-1.9a1.17,1.17,0,0,1,.41.33l-.1.1c-3.41,3.13-3.44,11.3,3.18,10.48C15.4,197.25,16.11,193.6,16.33,190.16Z"/><path class="cls-4" d="M104.22,128.92a12.28,12.28,0,0,1-1.29,1.13,71.35,71.35,0,0,1-38.32,14.8c-6,.44-12,.12-18,.93l-.57.09a50.68,50.68,0,0,1,8.68-2.48c8-1.53,16.32-1.57,24.34-3A55,55,0,0,0,101.49,131C102.41,130.34,103.32,129.65,104.22,128.92Z"/><path class="cls-5" d="M5.94,189.84l-.1-.2a.57.57,0,0,0-.46-.3.62.62,0,0,0-.5.25l-.15.19a.72.72,0,0,0,0,.71.7.7,0,0,0,1.25-.65Z"/><path class="cls-5" d="M7.11,187.87a.5.5,0,0,0-.37-.12.45.45,0,0,0-.38.22l-.17.33a.45.45,0,0,0-.06.32.43.43,0,0,0,.15.24.43.43,0,0,0,.56,0l.28-.23a.53.53,0,0,0,.17-.34A.52.52,0,0,0,7.11,187.87Z"/><path class="cls-5" d="M4.92,192.31l-.12-.2a.52.52,0,0,0-.9,0,2.93,2.93,0,0,0-.32.51.72.72,0,0,0,0,.5.83.83,0,0,0,.3.39l0,0a.73.73,0,0,0,.73,0l0,0a.82.82,0,0,0,.34-.35.73.73,0,0,0,.06-.5A1.54,1.54,0,0,0,4.92,192.31Z"/><path class="cls-5" d="M6,194.44a1,1,0,0,0-.17-.33.76.76,0,0,0-.32-.2.69.69,0,0,0-.78.27.72.72,0,0,0-.1.57,1,1,0,0,0,0,.16.79.79,0,0,0,.3.45.71.71,0,0,0,1-.21.66.66,0,0,0,.09-.53A1.21,1.21,0,0,0,6,194.44Z"/><path class="cls-5" d="M6.45,196.54l-.2,0-.09,0-.2,0h-.2a.66.66,0,0,0-.5.78,1.59,1.59,0,0,0,.21.46.83.83,0,0,0,.67.44.82.82,0,0,0,.66-.29.76.76,0,0,0,.18-.69A.77.77,0,0,0,6.45,196.54Z"/><path class="cls-5" d="M8.86,198l-.49.12a.55.55,0,0,0-.42.43.52.52,0,0,0,.24.56l.42.23a.77.77,0,0,0,.75,0,.76.76,0,0,0,.38-.52A.74.74,0,0,0,8.86,198Z"/><path class="cls-5" d="M11.23,198.23l-.28.17a.44.44,0,0,0-.22.47.46.46,0,0,0,.39.35l.33,0a.55.55,0,1,0-.22-1Z"/><path class="cls-3" d="M254.74,44.2c-.85,8.37-2.11,18.81-7,25.8-12.17,17.38-33.35,28.62-54.51,29.19-6.77.18-13.64-.62-20.28.68-4.11.8-9.16,2.66-10.9,6.74a7.44,7.44,0,0,0-.43,1.36c-.8,3.63.82,7.33,1.08,11a15.14,15.14,0,0,1-4,11.36c-6.32,6.8-15.68,6.31-23.36,2.18a36.34,36.34,0,0,1-10.28-8.39c-2.56-3-7-8-6.55-12a17.48,17.48,0,0,1,2.67-6.75,18.17,18.17,0,0,0,2.71-6.75c.37-3.17-1.58-5.11-3.37-7.28a13.36,13.36,0,0,1-2.13-3.19c-3.32-7.65,1.09-17.65,9.5-19.55,3.89-.89,8.12-.1,11.78-1.7s6-5.4,8.07-8.93c7.11-12.22,14.46-24.47,24.18-34.75s22.08-18.57,36-21,29.44,1.68,38.53,12.51c.27.31.52.63.79,1a34.44,34.44,0,0,1,3.61,5.77A41.89,41.89,0,0,1,254.74,44.2Z"/><path class="cls-6" d="M122.34,83.47a8,8,0,0,0,9.93,6,8.64,8.64,0,0,0,6.57-10,8,8,0,0,0-9.94-6A8.65,8.65,0,0,0,122.34,83.47Z"/><path class="cls-7" d="M124,83.06a6.4,6.4,0,0,0,7.91,4.78,6.87,6.87,0,0,0,5.22-8,6.41,6.41,0,0,0-7.9-4.79A6.88,6.88,0,0,0,124,83.06Z"/><path class="cls-8" d="M125.53,80.23A2.36,2.36,0,0,0,128.44,82a2.54,2.54,0,0,0,1.93-2.93,2.36,2.36,0,0,0-2.91-1.77A2.55,2.55,0,0,0,125.53,80.23Z"/><path class="cls-6" d="M144.84,87.87a8,8,0,0,0,9.93,6,8.64,8.64,0,0,0,6.57-10,8,8,0,0,0-9.94-6A8.65,8.65,0,0,0,144.84,87.87Z"/><path class="cls-7" d="M146.52,87.46a6.4,6.4,0,0,0,7.91,4.78,6.87,6.87,0,0,0,5.22-7.95,6.41,6.41,0,0,0-7.9-4.79A6.88,6.88,0,0,0,146.52,87.46Z"/><path class="cls-8" d="M148,84.63a2.36,2.36,0,0,0,2.91,1.76,2.54,2.54,0,0,0,1.93-2.93A2.36,2.36,0,0,0,150,81.69,2.55,2.55,0,0,0,148,84.63Z"/><g class="cls-9"><path d="M193.83,21c-1.56-1.14-4.34-.52-5.91.92a4.87,4.87,0,0,0-2.17,4.78,2.19,2.19,0,0,0,2.59,1.69,17.91,17.91,0,0,0,5.6-2.56A3,3,0,0,0,193.83,21Z"/><path d="M203.67,12.89c-.89-.73-2.26-.23-3.15.28a4.93,4.93,0,0,0-2,1.94,1.58,1.58,0,0,0,1.21,2.42,3.62,3.62,0,0,0,3.35-1.62,2.07,2.07,0,0,0,1.09-.8A1.65,1.65,0,0,0,203.67,12.89Z"/><path d="M182.59,21.31a1.14,1.14,0,0,0-1.68-1.37,3.63,3.63,0,0,0-2.3,2.24,1,1,0,0,0,1.44,1.23A7.85,7.85,0,0,0,182.17,22,1,1,0,0,0,182.59,21.31Z"/><path d="M194.08,15a.94.94,0,0,0-1.39-.16l.06,0h0s0,0,0,0h0a3.16,3.16,0,0,0-.43.16,1.59,1.59,0,0,0-.58.48,1.18,1.18,0,0,0,.23,1.65,1.31,1.31,0,0,0,1.42,0,1.24,1.24,0,0,0,.56-.91A.91.91,0,0,0,194.08,15Z"/><path d="M161.89,43.61a1.09,1.09,0,0,0-1.06-.68h0c-.94-.17-1.83.81-2.31,1.53-.63.94-.78,2.31.41,2.89a2.19,2.19,0,0,0,2.62-.93A3,3,0,0,0,161.89,43.61Z"/><path d="M157.13,50a.66.66,0,0,0-.78,0,1.29,1.29,0,0,0-1.27,1.1,1.33,1.33,0,0,0,1.07,1.42,1.4,1.4,0,0,0,1-2.56Z"/><path d="M163.92,48.71a.9.9,0,0,0-1,.35l-1,1.23a.82.82,0,0,0,0,.91l.13.14s0,.1.06.14a.91.91,0,0,0,1.34.16,2.46,2.46,0,0,0,1-2.06A.9.9,0,0,0,163.92,48.71Z"/><path d="M176.18,34a1.7,1.7,0,0,0-.15-.22,1,1,0,0,0-1.42-.07,2.55,2.55,0,0,0-.9,1.93.92.92,0,0,0,1.34.87,1.8,1.8,0,0,0,1.11-1,1.21,1.21,0,0,0,.05-.68A.93.93,0,0,0,176.18,34Z"/><path d="M238.24,21.38a2.05,2.05,0,0,0-.49.06,1.64,1.64,0,0,0-1.22.67A8.12,8.12,0,0,0,235.31,24a1.8,1.8,0,0,0,.84,2.25c1.41.7,2.79-.6,3.33-1.81S239.82,21.44,238.24,21.38Z"/><path d="M158.79,128.31a1.78,1.78,0,0,0-.44.21,1.62,1.62,0,0,0-.93,1,8,8,0,0,0-.56,2.14,1.81,1.81,0,0,0,1.53,1.86c1.57.2,2.44-1.49,2.56-2.81S160.3,127.85,158.79,128.31Z"/><path d="M228.3,70.79c-2.17.3-6.88,4.43-4.75,6.76a1.2,1.2,0,0,0,.27.28h0c1.24,1,3.08.54,4.47-.51C231.37,76.93,232.1,70.25,228.3,70.79Z"/><path d="M239.38,72.27a1.57,1.57,0,0,0-1.25-1,1.71,1.71,0,0,0-1.71.8l0,0a3.57,3.57,0,0,0-.71,1,1.77,1.77,0,0,0,0,1.57h0a1.34,1.34,0,0,0,1.57,1,3.84,3.84,0,0,0,1.83-1A1.89,1.89,0,0,0,239.38,72.27Z"/><path d="M225.64,82a3.47,3.47,0,0,0-1.86.85,4.32,4.32,0,0,0-1.33,1.85,1,1,0,0,0,.9,1.33,5.05,5.05,0,0,0,2.72-.85c.73-.5,1.56-1.39,1.32-2.36A1.21,1.21,0,0,0,225.64,82Z"/><path d="M248,62.3a.91.91,0,0,0-.67-.16h0a.58.58,0,0,0-.14,0,1,1,0,0,0-.48.21,2.39,2.39,0,0,0-.62,2.45.94.94,0,0,0,1.53.49,2.6,2.6,0,0,0,.85-1.48A1.58,1.58,0,0,0,248,62.3Z"/><path d="M120.7,122.7c2.16-.3,6.87-4.43,4.75-6.76a1.24,1.24,0,0,0-.28-.28h0c-1.24-1-3.09-.54-4.47.51C117.63,116.56,116.89,123.23,120.7,122.7Z"/><path d="M109.62,121.22a1.57,1.57,0,0,0,1.24,1,1.72,1.72,0,0,0,1.72-.8v0a3.32,3.32,0,0,0,.71-1,1.74,1.74,0,0,0,0-1.57h0a1.35,1.35,0,0,0-1.58-1,3.9,3.9,0,0,0-1.83,1.06A1.89,1.89,0,0,0,109.62,121.22Z"/><path d="M123.36,111.54a3.47,3.47,0,0,0,1.86-.85,4.49,4.49,0,0,0,1.33-1.85,1,1,0,0,0-.9-1.33,5,5,0,0,0-2.73.85c-.73.5-1.55,1.39-1.31,2.35A1.21,1.21,0,0,0,123.36,111.54Z"/><path d="M135.09,138.71a.9.9,0,0,0-.66-.16h0l-.14,0a1,1,0,0,0-.48.21,2.39,2.39,0,0,0-.62,2.45.93.93,0,0,0,1.53.49,2.64,2.64,0,0,0,.86-1.48A1.61,1.61,0,0,0,135.09,138.71Z"/><path d="M251.7,43.35a.73.73,0,0,0-.1-.49,1,1,0,0,0-1.37-.44l-.14.12a1.11,1.11,0,0,0-.78.71,1.08,1.08,0,0,0-.06.4,2.19,2.19,0,0,0,0,1.34,1.07,1.07,0,0,0,.68.75,1,1,0,0,0,1-.21,2.33,2.33,0,0,0,.94-1.53A1.46,1.46,0,0,0,251.7,43.35Z"/><path d="M243.8,16.81a.93.93,0,0,0-1-.12c-.81.33-1,1.39-.88,2.16a.78.78,0,0,0,1.28.42,2.46,2.46,0,0,0,.22-.34h0a1.69,1.69,0,0,0,.15-.37l.06-.08a.1.1,0,0,1,0-.05h0l.05,0a1.39,1.39,0,0,0,.35-.61A.89.89,0,0,0,243.8,16.81Z"/><path d="M195.52,56a2.09,2.09,0,0,0-1.56-.51,2.06,2.06,0,0,0-1.36,0c-1.49.56-2.95,2.46-3.78,3.77s-.42,3.36,1.48,3.18c1.61-.16,3.44-1.6,4.63-2.62S196.86,57.19,195.52,56Z"/><path d="M190.06,65.81a.64.64,0,0,0-.67-.33,1.64,1.64,0,0,0-1.94.92,1.32,1.32,0,0,0,.78,1.79A1.68,1.68,0,0,0,190.06,65.81Z"/></g><path class="cls-3" d="M10.05,171.72c-8.81-7-3.62-21.91,2.09-29.14a34.15,34.15,0,0,1,7-6.68,45.85,45.85,0,0,1-1.39,6.6,54.55,54.55,0,0,0-1.15,5.69,27.78,27.78,0,0,0-3.29,5.22c-2.88,5.9-2.19,11.55-2.35,17.84A.61.61,0,0,1,10.05,171.72Z"/><path class="cls-3" d="M25.3,188.38c-.37,6.26-1.59,13.43-8.09,16.08C5,209.48-5.61,190,7.61,186c.74-.23,1.45.57,1,1.17l-.1.1c-3.41,3.13-3.44,11.3,3.18,10.48,3.74-.46,4.45-4.11,4.67-7.55.07-1.21.09-2.4.16-3.41a47.68,47.68,0,0,1,4.92-18.92l.53-1a16.88,16.88,0,0,0,8.61,3.14A40.5,40.5,0,0,0,25.3,188.38Z"/><path class="cls-3" d="M36.22,185.91c-1.13-13.09,10.21-18.67,20.65-22l.92-.2c6.44-1.35,13.91-.69,18.41,4.11.16.18.32.35.47.54-3.35.59-6.75,1.09-10.15,1.65-2,.34-4.09.69-6.14,1.09-6,1.18-13.93,2.86-16.89,9.14-3.65,7.76,3.48,14.5,10.39,9.62a.79.79,0,0,1,.48-.14,1.11,1.11,0,0,1,1,1.1c-.51,4.86-5.06,6.81-9.41,6.27C40.41,196.39,36.7,191.46,36.22,185.91Z"/><path class="cls-3" d="M68.37,207.48c-4,13-3.27,32.65-18.28,38.67-10.67,4.28-23.67-8.17-17.2-18.73.35-.55,1.41-.26,1.28.43-1.81,9.67,7,17.89,15.85,11.43,7.6-5.56,7.31-16.21,8.56-24.58,2.4-16.07,8-30.19,21.36-39.42a53.07,53.07,0,0,1,.88,11.28C74.65,192,70.74,199.66,68.37,207.48Z"/><path class="cls-3" d="M93.25,218.24a23.65,23.65,0,0,0,7.43,3.46c.77,10.75,4.08,23.21-6.13,29.33-11.42,6.84-25.85-6.47-17.62-17.83a1,1,0,0,1,1.62.14h0a.85.85,0,0,1,0,.65c-2.19,5.62.11,12.95,7.27,12,4.41-.62,6.08-3.35,6-7.52-.08-6.86-2.8-13.27-2.46-20.25,0-1,.13-2.07.25-3.1a19.64,19.64,0,0,0,1.8,1.73A22.84,22.84,0,0,0,93.25,218.24Z"/><path class="cls-3" d="M113.4,222.27a32.79,32.79,0,0,0,6.08-1.52,34.86,34.86,0,0,0,6.41,7.5c.63.59,0,1.61-.78,1.58C120.38,229.65,116.21,226.42,113.4,222.27Z"/><path class="cls-3" d="M134.32,212a86,86,0,0,0,8.76-8.63,52.66,52.66,0,0,0-.55,8.68c.15,8.46.37,17.16-3.34,25-2.91,6.14-8.08,10.87-15.07,11.2-5.41.25-10.84-2.3-12.34-7.8-.15-.53.57-.8.9-.45,6.23,6.53,16.06,3.92,19.95-3.7,3.77-7.37,2.29-15.79,1.73-23.69C134.35,212.34,134.34,212.15,134.32,212Z"/></g></g></g></svg>