<svg xmlns="http://www.w3.org/2000/svg" viewBox="0 0 92.66 155.2"><defs><style>.cls-1,.cls-2,.cls-3,.cls-6{fill:#3e3632;}.cls-1,.cls-11,.cls-14,.cls-15,.cls-2,.cls-3,.cls-4{stroke:#33251e;}.cls-1,.cls-11,.cls-13,.cls-15,.cls-2,.cls-3,.cls-4,.cls-5,.cls-7{stroke-miterlimit:10;}.cls-1{stroke-width:0.44px;}.cls-2,.cls-4,.cls-5,.cls-7{stroke-width:0.48px;}.cls-11,.cls-13,.cls-3{stroke-width:0.57px;}.cls-14,.cls-15,.cls-4{fill:#5e534d;}.cls-5{fill:#e7cdb4;stroke:#b88d61;}.cls-7{fill:#dca495;stroke:#c98a79;}.cls-8{fill:#422b24;}.cls-9{fill:#634136;}.cls-10{fill:#986353;}.cls-11,.cls-13{fill:none;}.cls-12{fill:#33251e;}.cls-13{stroke:#ab855e;}.cls-14{stroke-linecap:round;stroke-linejoin:round;stroke-width:0.44px;}.cls-15{stroke-width:0.41px;}</style></defs><title>lab01-icon-mono</title><g id="Capa_2" data-name="Capa 2"><g id="Capa_8" data-name="Capa 8"><path class="cls-1" d="M59.89,82.63c-.55-.14,5.55,13.83,6.92,18.9a160,160,0,0,1,4,20.48c.59,7,.9,14.11-.23,21a15.9,15.9,0,0,1-1.23,4.16,3.73,3.73,0,0,1-4.5,2.19,15,15,0,0,1-.37-1.87c-.13-1.82-.52-2.57-1.52-2.75-1.22-.21-2.34.82-2.47,2.41a6.66,6.66,0,0,0,1.44,5c3.38,4.05,7.93,3.43,11,.11a13.11,13.11,0,0,0,2.72-4.44c2.59-7.38,2.15-15.84,2.12-19.63,0-4.51-.36-8.54-2.13-20.89C72.66,87.14,71.2,81.52,68.81,81,67.61,80.78,61.07,82.94,59.89,82.63Z"/><path class="cls-2" d="M86.33,53.64a15.57,15.57,0,0,0-7,2.15c-.81.45-1.6.92-2.63,1.51-.27-2.86-.48-5.45-.76-8-.35-3.1-.82-6.18-1.12-9.28a9.89,9.89,0,0,0-2-4.92q-1.67-2.31-3.41-4.54c-.19-.24-.6-.29-.91-.44,0,4.07,0,8.14-.1,12.21A14,14,0,0,1,68,45.38c-.54,2.19-1.17,4.35-1.77,6.52-.11.38-.28.75-.43,1.13l-.49,0-1.06-5.31-2.94,7c-1.09-.53-1.79-1-1-2.18,0-.08-.19-.36-.33-.62l-1.62,2.43c-.15-1.44-.25-2.43-.37-3.6L56.46,52V43.44l-2.41,4.78c-.75-.53-1.45-1-2.31-1.67-.23,1-.37,1.6-.55,2.39l-1.61-2.48C49,48.3,48.5,49.77,48,51.25c.32,1.62.43,2.31.78,4.09-.38,0-3.16.22-3.6.18-3.25-.29-5.13.87-5.8,4A15.85,15.85,0,0,0,39,65.06c1.08,7.78,9.34,15.38,9.47,15.58,1.9,2.8,3,5,5.82,5.86a34.23,34.23,0,0,0,6.2.77c-.1.83,12.91-1.08,13.69-2,2.78-3.23,5.63-6.4,8.36-9.66Q86.4,71.06,90,66.34a11,11,0,0,0,2.38-6.85C92.42,55.75,90.11,53.5,86.33,53.64Z"/><path class="cls-3" d="M56,49c-.18,1.57-.38,3.42-.38,3.42s.17,1.88-1.71,5S42.45,75.48,42.45,75.48L46,80S62.13,62.29,62.64,61.78A12.37,12.37,0,0,0,65.72,58c.68-1.71,1.54-10.42,1.54-10.42"/><path class="cls-4" d="M46.29,79.76c.34-.33.73-.78.53-.74a.5.5,0,0,1-.61-.35,6,6,0,0,1-.15-1.33c-.61-.19-.6-.94-.53-1.62a1.88,1.88,0,0,1-1.15.15.81.81,0,0,1-.5-.55,2.17,2.17,0,0,1-.07-.24h0a.45.45,0,0,0-.28.21.51.51,0,0,1-.84-.22s0,0-.07,0c-.57,1.39-2.46,2.14-4.36,2.15-1.31,0-3.86,3.13-5.17,3.23-.43,1.19.47,1.39,1.17,1.68.24.1,2.19-2.7,2.32-2.54l-3,3.44c-.47.54,0,1.43-.5,2-.15.17-.09.53-.13.81C33.76,88,35,88.24,36.8,89.27c.58.34,1.4.16,1.79,1,.1.22.87.25,1.3.17a12.54,12.54,0,0,0,1.84-.64,5.14,5.14,0,0,1,.7-1.78,11.35,11.35,0,0,0,3-5.86A2.88,2.88,0,0,1,46.29,79.76Z"/><path class="cls-4" d="M34.39,87.8a6.73,6.73,0,0,1,0-2.48,5.78,5.78,0,0,1,1-1.72.57.57,0,0,0,.6-.3,1.93,1.93,0,0,0,.15-.64"/><path class="cls-4" d="M36.34,88.92A18.51,18.51,0,0,0,36,87s0-1.8.6-2,1.28-1.28,1.28-1.28"/><path class="cls-4" d="M38.1,89.67a1.76,1.76,0,0,1-.33-1.87c.45-1.09,1.38-2.85,1.38-2.85"/><path class="cls-4" d="M42.64,87.91a3.9,3.9,0,0,0-2.06.3c-.26.26-.86.71-.6-.07a7.35,7.35,0,0,1,1.5-2"/><path class="cls-5" d="M45.22,47.83a31.57,31.57,0,0,1-1.42-4.11c-1.53,3-2.68,5.87-4.92,8.05a4.87,4.87,0,0,1-1.1.61,5.48,5.48,0,0,1-.49-1.69c.07-1.39.31-2.77.54-4.58l-3,2.33c.91-2.12-1.93-2.54-1.39-4.65-1,.63-1.9,1.3-2.91,1.86a26,26,0,0,1-2.48,1.06,5.66,5.66,0,0,1,.38-1.31c2.72-5,5.56-9.88,8.18-14.91,1.31-2.49,2.72-4.66,6-5.26-.6-1-1-1.65-1.45-2.31a8.85,8.85,0,0,1-1.78-6q.3-2.79.62-5.56a8.53,8.53,0,0,1,2.26-5.06c1.47-1.79,2.25-4.39,5.15-4.58,1.06,1.85,3,3.09,4.7,2.6,2.41-.7,4.74-1.67,6.11-4a16.86,16.86,0,0,1,4.61,3c1.08,1.13,4.27,7.32,4.6,8.29a7.79,7.79,0,0,1-1,7.42c-1,1.35-1.78,2.79-2.71,4.27.75.9,1.44,1.64,2,2.45.76,1,1.45,2.1,2.16,3.15l.65,1.35,0-.07c0,4.07,0,8.14-.1,12.21A14,14,0,0,1,68,45.38c-.54,2.19-1.17,4.35-1.77,6.52-.11.38-.28.75-.43,1.13l-.49,0-1.06-5.31-2.94,7c-1.09-.53-1.79-1-1-2.18,0-.08-.19-.36-.33-.62l-1.62,2.43L58,50.73,56.46,52V43.44l-2.41,4.78-2.31-1.67-.55,2.39-1.61-2.48C49,48.3,48.5,49.77,48,51.25,46.16,50.88,45.88,49.14,45.22,47.83Z"/><path class="cls-2" d="M37.83,46.11l-3,2.33c.91-2.12-1.93-2.54-1.39-4.65-1,.63-1.9,1.3-2.91,1.86a26,26,0,0,1-2.48,1.06,19.42,19.42,0,0,1-4.87,4.11c-3.73,2.56-7.43,5.15-11.14,7.74l.07,0a16.15,16.15,0,0,0,2.66,2.64,13.28,13.28,0,0,0,2.55,1.65C22.45,61,27.89,59.3,33,57.46c2.48-.89,4.24-2.39,4.75-5.08a5.48,5.48,0,0,1-.49-1.69C37.36,49.3,37.6,47.92,37.83,46.11Z"/><path class="cls-2" d="M47.46,1.69c1.06,1.85,3,3.09,4.7,2.6,2.41-.7,4.74-1.67,6.11-4C54.63.48,51,.55,47.46,1.69Z"/><path class="cls-6" d="M67.92,28.81l.65,1.35Z"/><path class="cls-7" d="M47.34,19.31a3.79,3.79,0,0,1,.56,2.53C47.78,24.31,50.07,25,52.11,25a8.85,8.85,0,0,0,3.34-.88c.75-.29,1.94-.67,2.32-1.45a2.77,2.77,0,0,0-.09-2.37c-.29-.62-.55-1-.29-1.63s1.17-.93,1.83-1.3a8.29,8.29,0,0,0,2.63-2.44c1.3-1.91-.05-5.52-2.5-6.47-1-.38-2.4.39-3.29.77a12,12,0,0,1-4.53.77c-1.19-.05-4.53-1.63-6.2-.94a3.23,3.23,0,0,0-1.49,2,6.36,6.36,0,0,0,1.75,6.71A2.55,2.55,0,0,1,47.34,19.31Z"/><ellipse class="cls-8" cx="47.95" cy="14.52" rx="1" ry="1.42"/><ellipse class="cls-8" cx="56.56" cy="14.3" rx="1" ry="1.42"/><path class="cls-9" d="M48.11,22.43A6.63,6.63,0,0,1,50.37,22a10.42,10.42,0,0,1,2.33-.21c.8.06,1.53.23,2.28.27a7.12,7.12,0,0,0,1.13,0,3,3,0,0,0,1.1-.22,4,4,0,0,1-2.23.64,17.17,17.17,0,0,1-2.31-.14,19.32,19.32,0,0,0-2.26.09,11.37,11.37,0,0,1-1.17,0A3.09,3.09,0,0,0,48.11,22.43Z"/><path class="cls-10" d="M50.59,18.66c.21-.29,1,.21.9.46-.34.74-.87-.12-1-.33"/><path class="cls-10" d="M50.77,18.77s0,0,0,0h0s0,0,0,0,0,0,0,0H51l0,0,.07,0,.11.08s0,0,0,0l0,0,.05,0,0,0s0-.05,0,0l0,0v0s0,0,0,0,0,.06,0,0,0,0,0,0v0h0s0-.06,0,0v0a.56.56,0,0,1,0,.08s0,0,0,0,0,0,0,0v0l0,0h0l0,0s0,0,0,0l0,0s.06,0,0,0h0s.06,0,0,0h0s0,0,0,0l0,0,0,0h0a.81.81,0,0,1-.1-.09.52.52,0,0,1-.1-.11l-.05-.06h0s0,0,0,0l0,0c0-.06-.09-.12-.13-.19a.23.23,0,0,0-.3-.07.22.22,0,0,0-.07.29,3.17,3.17,0,0,0,.36.46.56.56,0,0,0,1-.05.41.41,0,0,0,.06-.37.89.89,0,0,0-.5-.47.92.92,0,0,0-.4-.11.44.44,0,0,0-.38.2.21.21,0,0,0,.07.29.21.21,0,0,0,.29-.08Z"/><path class="cls-10" d="M53.58,18.79c.27-.56.74-.18.41.32-.46.67-1-.15-.45-.57"/><path class="cls-10" d="M53.77,18.9a.57.57,0,0,1,.08-.13l0,0,.09-.09,0,0,.06,0-.05,0,.06,0h0l0,0,0,0,0,0,0,0,0,0a.05.05,0,0,1,0,.05l0-.05,0,.08v0a.33.33,0,0,1,0,.14l0-.05a1.08,1.08,0,0,1-.11.18l0,0-.12.13,0,0-.09.06,0,0-.07,0h0l-.06,0,0,0-.06,0,.05,0-.06-.06,0,0a.56.56,0,0,1-.05-.08l0,.05,0-.13V19a.33.33,0,0,1,0-.14V19a.57.57,0,0,1,0-.14l0,.05a.54.54,0,0,1,.07-.13l0,0,.09-.09a.22.22,0,0,0,.06-.15.23.23,0,0,0-.06-.16.22.22,0,0,0-.3,0,.89.89,0,0,0-.23.35.67.67,0,0,0,0,.37.56.56,0,0,0,.41.47.54.54,0,0,0,.37-.08,1,1,0,0,0,.31-.35.82.82,0,0,0,.1-.4.52.52,0,0,0-.16-.34.41.41,0,0,0-.11-.07.53.53,0,0,0-.12,0,.42.42,0,0,0-.22.05.66.66,0,0,0-.31.33.21.21,0,0,0,0,.17.24.24,0,0,0,.09.13.23.23,0,0,0,.3-.08Z"/><path class="cls-7" d="M42.64,8.32c-.48-1.5-3.7-2.15-4.29-.43a2.68,2.68,0,0,0,.45,2.32,2.51,2.51,0,0,0,2.05.93"/><path class="cls-7" d="M62.81,7.12c.77-1,2-2,3.37-1.17a2.49,2.49,0,0,1,1,2.66,2.18,2.18,0,0,1-1.76,1.55"/><path class="cls-11" d="M53.75,72.2s3.59,10.26,3.94,13"/><path class="cls-11" d="M75,61.78S65.72,78.7,65,84.85"/><path class="cls-6" d="M65.84,83a21.2,21.2,0,0,1-2.4,1c-.79.27-1.21.49-1.25,1.41a6.22,6.22,0,0,0,.27,2.1c.32,1,1.06,1.29,2.08,1.44s2.2,0,3.29.16l2,.32c.87.15,2,.25,2.45-.71a3.86,3.86,0,0,0,.14-1.06c.07-.39.38-.71.4-1.1l1.8-1.7"/><path class="cls-12" d="M65.72,82.76c-.55.27-1.1.54-1.67.77-.42.17-.88.28-1.28.49a1.46,1.46,0,0,0-.81,1.3c-.12,1.51.25,3.29,1.88,3.73a12.59,12.59,0,0,0,2.94.22A27.38,27.38,0,0,1,70,89.7a2.79,2.79,0,0,0,1.89-.22c.8-.5.55-1.4.86-2.16a3,3,0,0,1,.32-.72,5.12,5.12,0,0,1,.59-.55l1.08-1c.22-.21-.12-.55-.34-.34l-1,.94a4.31,4.31,0,0,0-.84.81,4.66,4.66,0,0,0-.43,1.22c-.12.66,0,1.32-.81,1.56a6.66,6.66,0,0,1-2.8-.23,28.12,28.12,0,0,0-3.3-.21c-1,0-2.18-.23-2.56-1.33-.26-.77-.64-2.43.2-3a10.2,10.2,0,0,1,1.5-.6c.53-.22,1-.47,1.57-.72.27-.14,0-.55-.24-.41Z"/><path class="cls-4" d="M70.68,86.39c3.1-.15.42,7.16-2,7.45s-.53-2.12-.08-3.11a9,9,0,0,0,1-4.29Z"/><path class="cls-4" d="M68.46,85.54c2.66.93-1.3,8.41-2.91,8.14-1.83-.3,1.32-7.23,1.91-8.06Z"/><path class="cls-4" d="M64.44,85.93c.71-1.05,1.16-1,1.37-1.1,1.42,1.61.12,8.65-2.58,8.11C61.28,92.55,64.44,85.93,64.44,85.93Z"/><path class="cls-4" d="M62,84.28c-1.68,1.12-2.36,5.68-2.19,8a.71.71,0,0,0,1.14.51c1.39-1.11,1.83-3.52,2.38-5.17a16.16,16.16,0,0,0,.51-2A1.25,1.25,0,0,0,62,84.28Z"/><path class="cls-5" d="M59.74,27.24c-1,1.31-1.93,1.14-2.31,2.81a33.93,33.93,0,0,0-.88,6c-.2,3.72-.16,7.41-.11,11.41"/><path class="cls-13" d="M41.73,31a15.67,15.67,0,0,0-.8,4.12c-.12,1.2-.54,3.45.22,4.48A4.35,4.35,0,0,0,43.09,38c-.72,2.15,0,4.12.58,6.24"/><path class="cls-2" d="M37.83,46.11l-3,2.33c.91-2.12-1.93-2.54-1.39-4.65-1,.63-1.9,1.3-2.91,1.86a26,26,0,0,1-2.48,1.06,19.42,19.42,0,0,1-4.87,4.11c-3.67,2.52-7.31,5.07-11,7.61a15.23,15.23,0,0,0-1.62,1.16,14.5,14.5,0,0,0-1,1.06c.62.78-.83,1.81.34,2.73s2.39.91,3.22,1.31a44,44,0,0,1,4.45-1.9C22.66,61,28,59.26,33,57.46c2.48-.89,4.24-2.39,4.75-5.08a5.48,5.48,0,0,1-.49-1.69C37.36,49.3,37.6,47.92,37.83,46.11Z"/><path class="cls-14" d="M13.24,64.77c.39-.21.6-.77.41-.79a.47.47,0,0,1-.45-.48,5.8,5.8,0,0,1,.23-1.23c-.49-.33-.27-1,0-1.58a1.77,1.77,0,0,1-1.06-.18.77.77,0,0,1-.29-.62,1.92,1.92,0,0,1,0-.24h0a.45.45,0,0,0-.31.12.47.47,0,0,1-.68-.43s-.07,0-.11.06c-.91,1-3.7.74-3.7.74a13.32,13.32,0,0,0-4.19,1.93A30.87,30.87,0,0,0,.81,64.29a2.35,2.35,0,0,0-.14,2.87C.54,68.4,2.18,69,2.18,69a1.7,1.7,0,0,1,.57.89,14.72,14.72,0,0,0,.74,1.72,1.29,1.29,0,0,0,.85.6A9.65,9.65,0,0,0,6,72.1a2.76,2.76,0,0,0,1.61-.45c.19-.16.49-.48.36-.68s-.42-.64-.51-.76.8-.79,4.28-3.55A2.67,2.67,0,0,1,13.24,64.77Z"/><path class="cls-14" d="M.88,67.93c.06-.09-.35-1.17.22-1.94a5.12,5.12,0,0,1,1.37-1.26L3.57,64"/><path class="cls-14" d="M2.61,69.6c-.89-.44-.7-1.83-.7-1.83a4.4,4.4,0,0,1,.83-1.38,16.05,16.05,0,0,1,2-1.26"/><path class="cls-14" d="M3,70.75A1.85,1.85,0,0,1,3.32,69a16.92,16.92,0,0,1,2.13-2.14"/><path class="cls-14" d="M7.83,69.71c-.68.45-1.88.26-2.19.42s-.6.17-.3-.13A5,5,0,0,0,7,68.54"/><path class="cls-14" d="M12.7,65.05a3.31,3.31,0,0,0-.88,2.22c0,1.44-1.7,2.17-2.12,2.94s-1.83,1.3-1.92.28a3,3,0,0,1,1-2.67,6.2,6.2,0,0,0,.84-1.24"/><path class="cls-6" d="M54.19,82.85c1.87-.07,3.63.22,4,.9a3.26,3.26,0,0,1-.06,2.75c-.27.86-.9,1.11-1.78,1.23s-1.19-.43-3.63-.25-3.64-.39-4-1.53c-.1-.31-.65-1.09.63-2.55S52.33,82.93,54.19,82.85Z"/><path class="cls-12" d="M54.19,83.06a8.47,8.47,0,0,1,3.13.32,1.31,1.31,0,0,1,.8.62,2.48,2.48,0,0,1,.07,1.7,3.71,3.71,0,0,1-.42,1.14,1.59,1.59,0,0,1-1.07.63,3.1,3.1,0,0,1-1.42,0,7.71,7.71,0,0,0-2-.17,9.73,9.73,0,0,1-2.85-.11,2.09,2.09,0,0,1-1.62-2.38,2.63,2.63,0,0,1,2.33-2c1,0,2,.28,3.08.26.26,0,.26-.42,0-.41-1.13,0-2.26-.37-3.38-.23a3,3,0,0,0-2.24,1.77,2.38,2.38,0,0,0,1,3,5.41,5.41,0,0,0,2.84.46,10.6,10.6,0,0,1,2.87.13,3.33,3.33,0,0,0,1.77,0,2.18,2.18,0,0,0,1.47-1.75c.28-.91.38-2.23-.55-2.82a7,7,0,0,0-3.77-.58A.21.21,0,0,0,54.19,83.06Z"/><path class="cls-15" d="M49.68,85.14c-2.66-.14-.36,6.12,1.68,6.37s.46-1.81.07-2.66a7.8,7.8,0,0,1-.81-3.68Z"/><path class="cls-15" d="M51.37,84.71c-2.31.71.84,7.24,2.23,7.06,1.58-.2-.9-6.23-1.38-7Z"/><path class="cls-15" d="M54.89,85.17c-.6-.9-1-.86-1.17-.94-1.21,1.37-.1,7.4,2.21,6.94C57.6,90.84,54.89,85.17,54.89,85.17Z"/><path class="cls-6" d="M49.92,81.76l0,.93s.45-.29.42.16a.92.92,0,0,1-.45.68l3.89,0,2.28,0s-.87-.68-.29-.9.38-.64.38-.64Z"/><path class="cls-15" d="M57,84c1.43,1,2,4.87,1.87,6.82a.61.61,0,0,1-1,.44c-1.19-1-1.56-3-2-4.42a13.89,13.89,0,0,1-.44-1.7A1.07,1.07,0,0,1,57,84Z"/></g></g></svg>