<svg xmlns="http://www.w3.org/2000/svg" viewBox="0 0 428.54 112.01"><defs><style>.cls-1{isolation:isolate;}.cls-2{opacity:0.3;mix-blend-mode:multiply;}.cls-14,.cls-18,.cls-28,.cls-29,.cls-3,.cls-31,.cls-33,.cls-34{font-size:34.8px;}.cls-11,.cls-18,.cls-3{stroke:#000;}.cls-11,.cls-18,.cls-29,.cls-3,.cls-30,.cls-33{stroke-linejoin:round;stroke-width:7.36px;}.cls-14,.cls-29,.cls-3,.cls-31{letter-spacing:-0.01em;}.cls-4{letter-spacing:-0.01em;}.cls-5{letter-spacing:-0.03em;}.cls-6{letter-spacing:-0.01em;}.cls-7{letter-spacing:0em;}.cls-8{letter-spacing:-0.02em;}.cls-9{letter-spacing:-0.03em;}.cls-10{letter-spacing:-0.01em;}.cls-11,.cls-15,.cls-30,.cls-32{font-size:27.64px;}.cls-12{letter-spacing:-0.03em;}.cls-13{letter-spacing:-0.02em;}.cls-16{letter-spacing:-0.01em;}.cls-17{letter-spacing:-0.02em;}.cls-19{letter-spacing:-0.02em;}.cls-20{letter-spacing:-0.01em;}.cls-21{letter-spacing:-0.01em;}.cls-22{letter-spacing:-0.02em;}.cls-23{letter-spacing:-0.04em;}.cls-24{letter-spacing:-0.01em;}.cls-25{letter-spacing:-0.01em;}.cls-26{letter-spacing:0.01em;}.cls-27{letter-spacing:-0.03em;}.cls-29,.cls-30,.cls-33{fill:#ffff95;stroke:#002c6b;}.cls-31,.cls-32,.cls-34{fill:#fff;}</style></defs><title>04</title><g class="cls-1"><g id="Capa_2" data-name="Capa 2"><g id="Layer_1" data-name="Layer 1"><g class="cls-2"><text class="cls-3" transform="translate(58.59 36.26)">s<tspan class="cls-4" x="16.44" y="0">e</tspan><tspan class="cls-5" x="36.22" y="0">r</tspan><tspan class="cls-6" x="50.36" y="0">e</tspan><tspan class="cls-7" x="70.11" y="0">s </tspan><tspan class="cls-8" x="96.62" y="0">vi</tspan><tspan class="cls-9" x="123.23" y="0">v</tspan><tspan class="cls-10" x="141.72" y="0">o</tspan><tspan class="cls-7" x="162.77" y="0">s</tspan></text><text class="cls-11" transform="translate(7.76 36.43)"><tspan class="cls-12">L</tspan><tspan class="cls-13" x="13.85" y="0">o</tspan><tspan x="29.84" y="0">s</tspan></text><text class="cls-14" transform="translate(58.59 36.26)">s<tspan class="cls-4" x="16.44" y="0">e</tspan><tspan class="cls-5" x="36.22" y="0">r</tspan><tspan class="cls-6" x="50.36" y="0">e</tspan><tspan class="cls-7" x="70.11" y="0">s </tspan><tspan class="cls-8" x="96.62" y="0">vi</tspan><tspan class="cls-9" x="123.23" y="0">v</tspan><tspan class="cls-10" x="141.72" y="0">o</tspan><tspan class="cls-7" x="162.77" y="0">s</tspan></text><text class="cls-15" transform="translate(7.76 36.43)"><tspan class="cls-12">L</tspan><tspan class="cls-13" x="13.85" y="0">o</tspan><tspan x="29.84" y="0">s</tspan></text><text class="cls-11" transform="translate(44.38 69.33)"><tspan xml:space="preserve">  y </tspan><tspan class="cls-16" x="38.34" y="0">l</tspan><tspan class="cls-17" x="44.37" y="0">o</tspan><tspan x="60.36" y="0">s </tspan></text><text class="cls-18" transform="translate(128.66 69.24)"><tspan class="cls-19">e</tspan><tspan class="cls-20" x="19.59" y="0">l</tspan><tspan class="cls-4" x="28.55" y="0">e</tspan><tspan class="cls-21" x="48.32" y="0">m</tspan><tspan class="cls-4" x="80.08" y="0">e</tspan><tspan class="cls-22" x="99.85" y="0">n</tspan><tspan class="cls-23" x="119.85" y="0">t</tspan><tspan class="cls-10" x="132.85" y="0">o</tspan><tspan x="153.9" y="0">s </tspan><tspan class="cls-24" x="180.42" y="0">i</tspan><tspan class="cls-25" x="188.44" y="0">n</tspan><tspan class="cls-4" x="208.84" y="0">e</tspan><tspan class="cls-26" x="228.61" y="0">r</tspan><tspan class="cls-27" x="244.11" y="0">t</tspan><tspan class="cls-6" x="257.23" y="0">e</tspan><tspan class="cls-7" x="276.98" y="0">s</tspan></text><text class="cls-15" transform="translate(44.38 69.33)"><tspan xml:space="preserve">  y </tspan><tspan class="cls-16" x="38.34" y="0">l</tspan><tspan class="cls-17" x="44.37" y="0">o</tspan><tspan x="60.36" y="0">s </tspan></text><text class="cls-28" transform="translate(128.66 69.24)"><tspan class="cls-19">e</tspan><tspan class="cls-20" x="19.59" y="0">l</tspan><tspan class="cls-4" x="28.55" y="0">e</tspan><tspan class="cls-21" x="48.32" y="0">m</tspan><tspan class="cls-4" x="80.08" y="0">e</tspan><tspan class="cls-22" x="99.85" y="0">n</tspan><tspan class="cls-23" x="119.85" y="0">t</tspan><tspan class="cls-10" x="132.85" y="0">o</tspan><tspan x="153.9" y="0">s </tspan><tspan class="cls-24" x="180.42" y="0">i</tspan><tspan class="cls-25" x="188.44" y="0">n</tspan><tspan class="cls-4" x="208.84" y="0">e</tspan><tspan class="cls-26" x="228.61" y="0">r</tspan><tspan class="cls-27" x="244.11" y="0">t</tspan><tspan class="cls-6" x="257.23" y="0">e</tspan><tspan class="cls-7" x="276.98" y="0">s</tspan></text></g><text class="cls-29" transform="translate(55.59 33.26)">s<tspan class="cls-4" x="16.44" y="0">e</tspan><tspan class="cls-5" x="36.22" y="0">r</tspan><tspan class="cls-6" x="50.36" y="0">e</tspan><tspan class="cls-7" x="70.11" y="0">s </tspan><tspan class="cls-8" x="96.62" y="0">vi</tspan><tspan class="cls-9" x="123.23" y="0">v</tspan><tspan class="cls-10" x="141.72" y="0">o</tspan><tspan class="cls-7" x="162.77" y="0">s</tspan></text><text class="cls-30" transform="translate(4.76 33.43)"><tspan class="cls-12">L</tspan><tspan class="cls-13" x="13.85" y="0">o</tspan><tspan x="29.84" y="0">s</tspan></text><text class="cls-31" transform="translate(55.59 33.26)">s<tspan class="cls-4" x="16.44" y="0">e</tspan><tspan class="cls-5" x="36.22" y="0">r</tspan><tspan class="cls-6" x="50.36" y="0">e</tspan><tspan class="cls-7" x="70.11" y="0">s </tspan><tspan class="cls-8" x="96.62" y="0">vi</tspan><tspan class="cls-9" x="123.23" y="0">v</tspan><tspan class="cls-10" x="141.72" y="0">o</tspan><tspan class="cls-7" x="162.77" y="0">s</tspan></text><text class="cls-32" transform="translate(4.76 33.43)"><tspan class="cls-12">L</tspan><tspan class="cls-13" x="13.85" y="0">o</tspan><tspan x="29.84" y="0">s</tspan></text><text class="cls-30" transform="translate(41.38 66.33)"><tspan xml:space="preserve">  y </tspan><tspan class="cls-16" x="38.34" y="0">l</tspan><tspan class="cls-17" x="44.37" y="0">o</tspan><tspan x="60.36" y="0">s </tspan></text><text class="cls-33" transform="translate(125.66 66.24)"><tspan class="cls-19">e</tspan><tspan class="cls-20" x="19.59" y="0">l</tspan><tspan class="cls-4" x="28.55" y="0">e</tspan><tspan class="cls-21" x="48.32" y="0">m</tspan><tspan class="cls-4" x="80.08" y="0">e</tspan><tspan class="cls-22" x="99.85" y="0">n</tspan><tspan class="cls-23" x="119.85" y="0">t</tspan><tspan class="cls-10" x="132.85" y="0">o</tspan><tspan x="153.9" y="0">s </tspan><tspan class="cls-24" x="180.42" y="0">i</tspan><tspan class="cls-25" x="188.44" y="0">n</tspan><tspan class="cls-4" x="208.84" y="0">e</tspan><tspan class="cls-26" x="228.61" y="0">r</tspan><tspan class="cls-27" x="244.11" y="0">t</tspan><tspan class="cls-6" x="257.23" y="0">e</tspan><tspan class="cls-7" x="276.98" y="0">s</tspan></text><text class="cls-32" transform="translate(41.38 66.33)"><tspan xml:space="preserve">  y </tspan><tspan class="cls-16" x="38.34" y="0">l</tspan><tspan class="cls-17" x="44.37" y="0">o</tspan><tspan x="60.36" y="0">s </tspan></text><text class="cls-34" transform="translate(125.66 66.24)"><tspan class="cls-19">e</tspan><tspan class="cls-20" x="19.59" y="0">l</tspan><tspan class="cls-4" x="28.55" y="0">e</tspan><tspan class="cls-21" x="48.32" y="0">m</tspan><tspan class="cls-4" x="80.08" y="0">e</tspan><tspan class="cls-22" x="99.85" y="0">n</tspan><tspan class="cls-23" x="119.85" y="0">t</tspan><tspan class="cls-10" x="132.85" y="0">o</tspan><tspan x="153.9" y="0">s </tspan><tspan class="cls-24" x="180.42" y="0">i</tspan><tspan class="cls-25" x="188.44" y="0">n</tspan><tspan class="cls-4" x="208.84" y="0">e</tspan><tspan class="cls-26" x="228.61" y="0">r</tspan><tspan class="cls-27" x="244.11" y="0">t</tspan><tspan class="cls-6" x="257.23" y="0">e</tspan><tspan class="cls-7" x="276.98" y="0">s</tspan></text></g></g></g></svg>