<svg xmlns="http://www.w3.org/2000/svg" viewBox="0 0 153.7 163.17"><defs><style>.cls-1,.cls-3{fill:#fbd31b;}.cls-1,.cls-2{stroke:#edbc1d;stroke-linecap:round;stroke-linejoin:round;stroke-width:3px;}.cls-2,.cls-4{fill:#fcea27;}</style></defs><title>Sol</title><g id="Capa_2" data-name="Capa 2"><g id="Capa_5" data-name="Capa 5"><path class="cls-1" d="M151.9,57.7a2.56,2.56,0,0,0-3.37-1.1c-.4.15-.82.25-1.22.4-.57.2-1.12.43-1.69.65l-.2.05c-.74.21-1.49.4-2.23.64-2.28.72-4.55,1.47-6.83,2.2l-5.14,1.66c-.58.19-1.13.45-1.69.67h0l-.24.05-4.56,1.43-.25.08-.25.17h0l-.43,0a.34.34,0,0,1,0,.1l-.84.32a.11.11,0,0,0-.08,0h0l-.37,0v.12h-.24l-.37.24a.2.2,0,0,1,0,.11h-.12l-.59,1-.07.36-.06.26v.61c0,.09,0,.17.07.26s0,.16.05.23l.65.81h0l.12.35.66.33.14,0c-.07-.11-.13-.24-.2-.34.07.1.13.23.2.34l.23,0,.47-.06-.47.06v.11h1.24l.25-.09.23,0,.75-.36h0l.26-.11h0l.12,0,.36-.07.51-.19.23,0,.25-.1.12-.14h0l.36,0a.21.21,0,0,1,0-.11l.26-.11.23,0a1.78,1.78,0,0,1,1.29-.58,1.78,1.78,0,0,0-1.29.58l1.25-.29.69-.35h0l0,0,.49,0s0-.07,0-.09h0a.08.08,0,0,1,.08.05l.5-.24h.32l.31-.21h0l.61-.11a.2.2,0,0,1,.11,0,.41.41,0,0,1,0-.11h0l.37-.13h0l.25,0a.17.17,0,0,1,.1,0,.5.5,0,0,1,0-.12l.27-.08.84-.15.11,0,.51-.2.22,0a.5.5,0,0,0,0-.12,1.3,1.3,0,0,0-.92,0,1.3,1.3,0,0,1,.92,0l.25-.09.25,0,.61-.17.07-.18s0,0,.06,0h0l.24,0,.14-.12h0L139.1,65a.2.2,0,0,0,0-.11l.13,0,.24,0a.22.22,0,0,1,0-.11l1-.23.86-.26.15-.21h.35l.59-.25c.06,0,.13,0,.18,0,2.39-.77,4.78-1.53,7.16-2.33a10.2,10.2,0,0,0,1.41-.69h0l.12-.11h0l.87-1V58.06A3.37,3.37,0,0,1,151.9,57.7Zm-30,7.9h0l0,0Zm-.22,3.06a2.22,2.22,0,0,1-.23-.39,2.3,2.3,0,0,1-.14-.42,1.92,1.92,0,0,1,.21-1.38,2.12,2.12,0,0,0,.11-.21,2.12,2.12,0,0,1-.11.21,1.92,1.92,0,0,0-.21,1.38,2.3,2.3,0,0,0,.14.42,2.22,2.22,0,0,0,.23.39.41.41,0,0,1,0,.09A.41.41,0,0,0,121.69,68.66Zm2.89-4h0Zm.42,4.78a.22.22,0,0,1,.08,0A.22.22,0,0,0,125,69.39Zm1.2-5.27,1.4-.48Zm11.44.15s.06,0,.1,0h0S137.66,64.26,137.64,64.27Zm.54-1.08.2.09Zm-7.54,4.48,0,0h0Zm6.53-2.84-.24,0-.18,0,.18,0,.24,0Zm1.6-1.22h0a.52.52,0,0,1,.43.26A.52.52,0,0,0,138.77,63.61Zm.73,1.1a.38.38,0,0,1-.32-.09.38.38,0,0,0,.32.09l.67-.19Z"/><path class="cls-1" d="M123,64.94a.49.49,0,0,0,0,.11l.84-.32Z"/><path class="cls-1" d="M149.65,103.58c-3.07-1-6.12-2-9.18-3l-16.2-5.24A2.53,2.53,0,0,0,121.19,97a2.49,2.49,0,0,0,1.44,3.07c1.06.33,2.1.7,3.15,1l9.71,3.17q3.3,1.08,6.6,2.13c2.36.76,4.72,1.54,7.1,2.22a2.22,2.22,0,0,0,1.62-.21A7.49,7.49,0,0,0,152.2,107V105.5A4.08,4.08,0,0,0,149.65,103.58Z"/><path class="cls-1" d="M105.24,45.3a2.56,2.56,0,0,0,2.69-1.2c.69-1,1.43-2.05,2.16-3.05,2.4-3.3,4.81-6.58,7.21-9.87l4-5.55c.13-.17.27-.33.4-.49h0l.24-.37,1-1.35.25-.34v0l.47-.76a2.6,2.6,0,0,0-.31-3.66s0,0,0,0l-.62-.36-.24-.05a2.4,2.4,0,0,0-1.82.3,3,3,0,0,0-.93.94c-.76.94-1.49,1.9-2.24,2.85,0,0-.1.06-.15.1l-.16.29-.38.48h0l-.21.32a1.33,1.33,0,0,0-.14.19l-.6.79a0,0,0,0,1,0,.06l-.74,1-.17.25-.08.1h0l-.21.3a4.53,4.53,0,0,1-.27.48c-1.4,1.93-2.8,3.87-4.21,5.8-2,2.75-4,5.48-6,8.23a3.17,3.17,0,0,0-.89,2.52A2.5,2.5,0,0,0,105.24,45.3Z"/><path class="cls-1" d="M98,17.12a2.08,2.08,0,0,0-2.32.94,7,7,0,0,0-.59,1.47q-2.24,6.76-4.45,13.53a2,2,0,0,0,.6,2.29,2.16,2.16,0,0,0,2.39.46c.94-.34,1.21-1.16,1.48-2q2-6,3.92-12c.27-.83.5-1.68.68-2.29A2.29,2.29,0,0,0,98,17.12Z"/><path class="cls-1" d="M126.38,83.46a2.33,2.33,0,0,0,2.19,1.86c2.46-.06,4.93,0,7.39,0v.06h7.7A2.26,2.26,0,0,0,146,83.64a2.22,2.22,0,0,0-2.44-2.77c-5,0-10,0-15,0a1.68,1.68,0,0,0-.78.1A2.31,2.31,0,0,0,126.38,83.46Z"/><path class="cls-1" d="M26.44,101.58a.06.06,0,0,0,.07,0l1.4-.47h0l0,0,.13,0,.23-.07.5-.19.24-.06.31-.13h0l0,0h0a17,17,0,0,0,1.76-.51,2.11,2.11,0,0,0,1.33-2v-.49a4.09,4.09,0,0,0-.41-1.4,2.76,2.76,0,0,0-3.53-.56l-.12,0-.33.16-.53.13-.31.13a.08.08,0,0,0-.08,0l-.66.24-.43.11-1.06.38-.42.1-.31.15a2.64,2.64,0,0,0-.49.08c-3.17,1-6.34,2.07-9.52,3.09-3,1-6,1.9-8.94,2.89-1.44.48-3.06.69-3.92,2.23v1.72a6.54,6.54,0,0,1,.4.52,2.33,2.33,0,0,0,2.57,1.1c2.39-.74,4.75-1.53,7.12-2.3L13,106l.61-.2,1.42-.49.32-.06c.87-.27,1.75-.53,2.62-.81.48-.15.94-.35,1.41-.53h0a1.43,1.43,0,0,0,.36,0l6.59-2.13C26.36,101.7,26.4,101.63,26.44,101.58Z"/><path class="cls-1" d="M9.14,85.3l.26,0-1-.45.49.37Z"/><path class="cls-1" d="M8.17,84.79h.22l-.34-.26Z"/><path class="cls-1" d="M76.79,33.92a2.45,2.45,0,0,0,2.48-2.61q0-13.64,0-27.29a2.29,2.29,0,0,0-.35-1.27A10.22,10.22,0,0,0,77.53,1.5h-1.6c0,.05-.05.13-.09.15-1.33.64-1.61,1.76-1.6,3.11q0,10,0,19.9c0,2.2,0,4.4,0,6.59A2.55,2.55,0,0,0,76.79,33.92Z"/><path class="cls-1" d="M1.72,60a2.79,2.79,0,0,0,2.07,1.54c1,.31,2,.66,3,1l3.74,1.14.32.14.42.1,1.06.38.23.07.85.28h0l.39.14.44.12,1,.37.24.06.5.19.24.07.12,0,0,0h.05l.41.17.42.1,2.9.95.18,0,.56.22.19,0a1.14,1.14,0,0,0,.3.18c.92.32,1.85.63,2.78.93,1.76.57,3.52,1.15,5.3,1.68a1.68,1.68,0,0,0,1.8-.36h0a3.45,3.45,0,0,1-1,.21,3.45,3.45,0,0,0,1-.21l.36-.26.12-.12c.41-.26.77-.57.67-1.13l0-.24v-.73l0-.24-.42-.8a.09.09,0,0,0,0-.07l-.11-.13h0c-.09-.16-.18-.31-.26-.47l-1.83-.59-.26,0-.73-.26h0L28,64.21h0l-.39-.35h-.38l.14.06-.14-.06-.2-.06a1.45,1.45,0,0,0-.29-.19c-1.29-.43-2.58-.86-3.88-1.27-.87-.27-1.75-.49-2.63-.73h0l-5-1.65-.23,0-.51-.2-.22,0a.13.13,0,0,0-.12,0l-.1,0-2.86-.95-.1,0c-.84-.31-1.68-.64-2.53-.93a10,10,0,0,0-1.2-.29l-.2,0c-.81-.31-1.62-.64-2.44-.92a2.37,2.37,0,0,0-2.58.63,9.65,9.65,0,0,0-.69.84v1.84C1.57,59.85,1.69,59.9,1.72,60Zm28.17,9.77a3.84,3.84,0,0,0,.48,0A3.84,3.84,0,0,1,29.89,69.75Zm-.48-.06.15,0Zm.16,0,.14,0Zm.16,0h0Zm1.84-4.08-.2-.08Zm-2.22,4-.1,0Zm-.14,0-.12,0Z"/><path class="cls-1" d="M35.32,31.06l6.5,9c.86,1.17,1.7,2.36,2.62,3.48a2.4,2.4,0,0,0,2.81.59,2.78,2.78,0,0,0,1.57-2.34,8.08,8.08,0,0,0-.56-1.39c-.43-.7-.94-1.34-1.42-2L40.58,29.7c-1.89-2.61-3.77-5.21-5.67-7.8-1-1.36-2-2.72-3-4a2.33,2.33,0,0,0-2.69-.63,2.58,2.58,0,0,0-1.59,2.22,3.78,3.78,0,0,0,1,2.42C30.89,24.93,33.1,28,35.32,31.06Z"/><path class="cls-1" d="M47.4,119.92c-1,.2-1.55,1-2.1,1.77-1.83,2.52-3.64,5-5.47,7.57-1.62,2.24-3.25,4.47-4.88,6.71s-3.35,4.7-5.08,7a2.41,2.41,0,0,0-.35,2.54A2.22,2.22,0,0,0,31.79,147a1.88,1.88,0,0,0,1.81-.76c.71-.92,1.4-1.86,2.09-2.8l8-11L50,123.8a2.49,2.49,0,0,0-2.59-3.88Z"/><path class="cls-1" d="M36.29,115.08a2.11,2.11,0,0,0,.18-3,2.26,2.26,0,0,0-2.84-.48c-.76.48-1.49,1-2.21,1.54l-5,3.68c-1.77,1.28-3.57,2.54-5.34,3.83a1.85,1.85,0,0,0-.86,1.65,2.12,2.12,0,0,0,1.1,2.09,2.19,2.19,0,0,0,2.39-.11c.73-.49,1.42-1,2.13-1.56,2.14-1.54,4.29-3.07,6.43-4.62C33.62,117.12,35,116.15,36.29,115.08Z"/><path class="cls-1" d="M20.46,44.59c1.71,1.19,3.4,2.43,5.09,3.65,2.39,1.73,4.77,3.48,7.18,5.18a2.25,2.25,0,0,0,3.17-1.11c.43-1.25.09-2.11-1.15-3-1.8-1.27-3.6-2.57-5.39-3.86-2.12-1.54-4.22-3.1-6.36-4.62a6.67,6.67,0,0,0-1.22-.56,2.4,2.4,0,0,0-2.25,1.26A2.36,2.36,0,0,0,20.46,44.59Z"/><path class="cls-1" d="M61.34,28.35c-1-3.06-2-6.12-3-9.19-.42-1.34-1.2-2.1-2.31-2.12a2.25,2.25,0,0,0-2.22,2.77c.31,1,.62,2,.94,3.06q1.85,5.65,3.7,11.33a2.57,2.57,0,0,0,.44.93,2.26,2.26,0,0,0,3,.53,2.3,2.3,0,0,0,.92-2.74C62.33,31.39,61.83,29.87,61.34,28.35Z"/><path class="cls-1" d="M60.6,130.16a2.2,2.2,0,0,0-2.12,1.72c-.63,1.86-1.22,3.73-1.82,5.6-.95,2.9-1.92,5.8-2.83,8.71A2.15,2.15,0,0,0,55,148.91a2.35,2.35,0,0,0,3.16-1.67c.75-2.4,1.54-4.79,2.32-7.19s1.54-4.58,2.26-6.88A2.25,2.25,0,0,0,60.6,130.16Z"/><path class="cls-1" d="M25.67,85.07l.48-.26h0l.26-.22a.14.14,0,0,0,.08,0c.12-.16.23-.33.34-.49s.05-.21.08-.31l.11,0,.1-.38V82.7L26.88,82l-.16-.07-.34-.42-.25-.23L25.71,81h0l-.06-.17h-.38L25,80.81h-.87v0H12.85l-1.24,0L11,80.72l0,.09H9.42l-.28-.08v.13l-.11,0L8.73,81,9,80.89l-.15,0a1.63,1.63,0,0,0-.17.2h0l-.25.14-.12.11-.08,0H8.13l0,.13h0l-.57.42a1.42,1.42,0,0,1,0,.2l-.11.25,0,.38v.58l0,.26.13.37.21.27h0c0,.08,0,.15,0,.23l.14,0,.13.13.34.26h0l1,.45.68,0,7.06,0h8s0,0,0,0l.26-.09h.24Zm-1.75-4.16.25,0h0Z"/><path class="cls-1" d="M132.4,120.73c-.94-.73-1.89-1.43-2.86-2.12-.76-.54-1.55-1-2.33-1.56l-.12-.11-.52-.33a.1.1,0,0,0-.08,0l-.78-.6h0l-.13-.11a.11.11,0,0,0-.08,0h0a2.66,2.66,0,0,0-.32-.35l-2.43-1.83-3.19-2.23H118.2l.73.1.16.09-.16-.09-.73-.1-.25,0-.25,0-.23.14-.54.69h0l-.6,1.19c.18.5,0,1.16.61,1.45l-.32-1,.32,1,.2.31.18.16.5.3.51.41a.34.34,0,0,1,0,.1l.89.62.18.08h0c.84.64,1.66,1.3,2.52,1.91.57.42,1.19.77,1.79,1.16h0l.13.13h0a4,4,0,0,0,.45.47c1.63,1.2,3.24,2.42,4.89,3.58.6.42,1.22,1,2.07.59l.24,0a1.46,1.46,0,0,0,.3,0A2.34,2.34,0,0,0,132.4,120.73Zm-15.64-7-.16.14c.1-.51.2-1,.31-1.54l-.31,1.54Zm.81-.73-.58.52v0h0l.58-.52c.1-.42.32-.65.63-.68C117.89,112.35,117.67,112.58,117.57,113Zm1.61-.85v0l.23.19Zm.74,1.73.73.52-.73-.52s0,0,0-.07S119.92,113.85,119.92,113.88Zm-.16,1.84,1.93-1.7Z"/><path class="cls-1" d="M79.4,148.38v-.25l0-8c0-2.75,0-5.51,0-8.26a2.53,2.53,0,0,0-1.89-2.56,2.42,2.42,0,0,0-2.87,1.37,3.83,3.83,0,0,0-.26,1.55c0,8.73,0,17.46,0,26.18a3.08,3.08,0,0,0,1.86,3.26h1.27c1.6-.56,2-1.79,1.94-3.34-.06-1.28,0-2.58,0-3.87Z"/><path class="cls-1" d="M122.13,140.66c-1.35-1.86-2.68-3.73-4-5.58l-4.21-5.75c-2.09-2.86-4.16-5.74-6.27-8.58a2.46,2.46,0,0,0-3.52-.34,2.59,2.59,0,0,0-.45,3.41c1.24,1.73,2.5,3.44,3.75,5.16q4,5.55,8.08,11.08c.84,1.15,1.71,2.29,2.56,3.43l0,.3c.24.26.46.53.71.78a3.57,3.57,0,0,0,.37.31c.31-.19.62-.37.92-.57-.3.2-.61.38-.92.57l.38.54a2,2,0,0,1,.06-.4,2,2,0,0,0-.06.4l.24.13c0,.21.07.41.1.61l.4.37.43.16a2.42,2.42,0,0,0,2.93-.31,2.87,2.87,0,0,0,.34-3.2Q123,141.94,122.13,140.66Zm-2.5,4.3a.25.25,0,0,1,0-.09A.25.25,0,0,0,119.63,145Z"/><path class="cls-1" d="M99.37,145.53v0c-.26-.7-.53-1.4-.77-2.11-.32-1-.61-1.94-.91-2.91l-.05-.24-.78-2.35-.06-.24c-.11-.33-.22-.66-.32-1l-.06-.24c-.4-1.23-.81-2.46-1.22-3.7l-.06-.33L95,132l0-.14-.74-1.21h0l-1.37-.47-.59,0L91,131l-.17.21a4.07,4.07,0,0,0,.24,3.1c.95,2.87,1.88,5.75,2.82,8.63a1,1,0,0,1,0,.24l0,.24c.17.43.37.84.51,1.27s.28,1,.41,1.45c0,.09.05.18.07.27l0,.06,0,0,0,.19.18.31c0,.14,0,.28.08.42a1.92,1.92,0,0,1,.19.23,2.19,2.19,0,0,0,4,.13l.26-.4c0-.34,0-.67,0-1Z"/><path class="cls-1" d="M123.87,46.14l-.84.75,0,0,0,0,.84-.75-1.62,1-1.33,1-.11.1h0l-.29.33a.2.2,0,0,1-.11,0c-.44.33-.89.65-1.34,1l-1,.56a5.47,5.47,0,0,1-.58.5,2.21,2.21,0,0,0-.8,3c0-.11,0-.22,0-.33,0,.11,0,.22,0,.33h0l.14.18L117,54l.83.69.23.05.25,0h.73l.76-.25.49-.36.17-.12.19-.12.44-.3,0,0L123.25,52h0L125,50.79h0a.16.16,0,0,0,.11,0h0l.68-.53h0l.34-.25.13-.13h0l.24-.15.5-.34.71-.54h0l1.28-.94.43-.31,1.14-.83a.14.14,0,0,0,.1,0l1.75-1.3.12-.11.47-.52h0l.15-.49,0-.18a1.56,1.56,0,0,0-.22-1.62,1.8,1.8,0,0,0-1.92-1h-.23c-1.07,0-1.69.75-2.38,1.38a.13.13,0,0,0-.09,0l-.78.56-.21.17-.27.22-.83.54-.82.6-.17.12-.39.34h0l-.16.12-.18.09-.3.2Zm-5.22,4.76a.66.66,0,0,1-.22-.06.66.66,0,0,0,.22.06h0Zm1.51,0h1.5a.87.87,0,0,0,.39-.08.51.51,0,0,0,.21-.41.75.75,0,0,0,0-.15c0-.66,0-1.33,0-2,0,.66,0,1.33,0,2a.75.75,0,0,1,0,.15.51.51,0,0,1-.21.41.87.87,0,0,1-.39.08Zm3.27.94c.12-.12.24-.24.37-.35C123.67,51.61,123.55,51.73,123.43,51.85Zm2.18-1.66h0Zm-.19,0a.44.44,0,0,0-.15.08A.44.44,0,0,1,125.42,50.21Zm-.18.11a.36.36,0,0,0-.07.1A.36.36,0,0,1,125.24,50.32Z"/><path class="cls-2" d="M119.67,80a32.05,32.05,0,0,0-.42-3.9c-.16-1-.47-2-.72-3.07h0l0-.36h0a7.58,7.58,0,0,0-.24-1.26c-.69-2-1.37-3.92-2.14-5.85a34.19,34.19,0,0,0-4.62-8c-.22-.3-.39-.62-.63-.9-.59-.7-1.2-1.37-1.8-2.06l-.14-.13-1.68-1.76-.25-.24-.34-.26.34.26a.72.72,0,0,0-.14-.26,32.82,32.82,0,0,0-2.59-2.42,8.61,8.61,0,0,0-2.59-1.84.18.18,0,0,0-.09,0l-.53-.34h0L98.83,46l-.17-.08c-.9-.54-1.76-1.14-2.7-1.59q-2.11-1-4.32-1.86c-1.14-.43-2.34-.72-3.51-1.07l-.22,0a5.35,5.35,0,0,0-1-.42c-1.6-.3-3.21-.62-4.82-.83-1.23-.16-2.48-.15-3.71-.22h-2l-2.3,0a32.27,32.27,0,0,0-7.39,1,20.16,20.16,0,0,0-1.94.66l-.2,0a10.14,10.14,0,0,0-1.21.29c-.84.31-1.66.66-2.48,1h0l-.25.11-.66.32-.33,0,0,0-.92.41-.19.09-.26,0-.24.12-.19.3-.3.08-.8.42-.08,0-.4.22-.58.3-.15.09-.36.22h0l-.59.18-.63.37-.07,0-.16.21-.63.36-.74.5-.23.14-.49.27-.37.35-.14.11-.35.25c-.05.11-.1.23-.16.34h0l-.1,0-1.15.92h0l-.1.1,0,0h0l-.44.15a2.07,2.07,0,0,0,0,.22l-.08.05c-.38.43-.74.88-1.14,1.28.4-.4.76-.85,1.14-1.28L46.86,52a.12.12,0,0,0,0,.08l-.57.54-.18.19-.32.3a.2.2,0,0,0,0,.08h0l-1.81,2h0l-1,1.23a.16.16,0,0,0,0,.09l-.12.14h0L42.3,57l-.2.37-1.65,2.57a.36.36,0,0,0,0,.09L39,62.39l-.07.2h0l-.45.77a.16.16,0,0,0,0,.09c-.49,1-1,1.93-1.44,2.93-.48,1.15-.87,2.33-1.29,3.51a6.24,6.24,0,0,0-.16.75c0,.08,0,.16,0,.24a.62.62,0,0,0-.14.19c-.37,1.62-.77,3.23-1.1,4.86A20.93,20.93,0,0,0,34.09,78c0,.12,0,.24,0,.35,0,.29,0,.58,0,.87l0,.31a2,2,0,0,0-.16.44,29.75,29.75,0,0,0-.1,3.13c.09,1.86.23,3.71.46,5.56a32.51,32.51,0,0,0,2,8.3c.85,2.09,1.7,4.19,2.71,6.21a33.78,33.78,0,0,0,2.77,4.52c1.18,1.63,2.51,3.16,3.83,4.69a22.49,22.49,0,0,0,1.83,1.68l1.19-.31-1.19.31.33.3c.42.41.81.85,1.26,1.22,1.1.91,2.17,1.85,3.34,2.64s2.7,1.66,4.09,2.43c.74.41,1.54.7,2.32,1a.12.12,0,0,0,.08,0A1.43,1.43,0,0,0,59,122c.71.3,1.42.62,2.14.9a28.62,28.62,0,0,0,3.09,1.14c1.83.47,3.69.86,5.55,1.2.91.17,1.86.17,2.78.25h.2a1.37,1.37,0,0,0,.43.17,43.61,43.61,0,0,0,8.16-.1,41.5,41.5,0,0,0,9.29-2.07c1.25-.45,2.52-.83,3.73-1.37a37.16,37.16,0,0,0,3.41-1.82c.74-.42,1.44-.91,2.15-1.37l.12-.11a1.55,1.55,0,0,0,.46-.14c1.1-.78,2.23-1.52,3.26-2.39,1.34-1.14,2.61-2.38,3.88-3.61a15.26,15.26,0,0,0,1.16-1.37h0c.19-.21.37-.43.56-.65l.18-.21c.12-.16.24-.33.37-.49h0c.32-.37.63-.75,1-1.13a.32.32,0,0,0,0-.09l.19-.29a.14.14,0,0,0,.05-.08,12.86,12.86,0,0,0,1.16-1.42c1.1-1.82,2.25-3.61,3.19-5.51a34.6,34.6,0,0,0,3-8.21c.21-1,.36-2,.53-3l.06-.57c.06-.83.14-1.67.21-2.5-.07.83-.15,1.67-.21,2.5a2.22,2.22,0,0,0,.2-.48c.14-1.3.33-2.6.38-3.91C119.74,83.49,119.74,81.72,119.67,80ZM46.47,113l.67-.73-.67.73Zm.5.49Zm1.1,1h0l-.24-.13Zm1.33,1.18-1.33-1.18h0l1.33,1.18.54.46Z"/><path class="cls-2" d="M43.65,55.36l-.72.79c0,.1,0,.21,0,.31l1-1.23Z"/><path class="cls-2" d="M60.28,43.05l-.29.31.66-.32Z"/><path class="cls-2" d="M50.42,48.81l-.49.38-.53.57,1.15-.92Z"/><path class="cls-3" d="M151.9,57.7a2.56,2.56,0,0,0-3.37-1.1c-.4.15-.82.25-1.22.4-.57.2-1.12.43-1.69.65l-.2.05c-.74.21-1.49.4-2.23.64-2.28.72-4.55,1.47-6.83,2.2l-5.14,1.66c-.58.19-1.13.45-1.69.67h0l-.24.05-4.56,1.43-.25.08-.25.17h0l-.43,0a.34.34,0,0,1,0,.1l-.84.32a.11.11,0,0,0-.08,0h0l-.37,0v.12h-.24l-.37.24a.2.2,0,0,1,0,.11h-.12l-.59,1-.07.36-.06.26v.61c0,.09,0,.17.07.26s0,.16.05.23l.65.81h0l.12.35.66.33.14,0c-.07-.11-.13-.24-.2-.34.07.1.13.23.2.34l.23,0,.47-.06-.47.06v.11h1.24l.25-.09.23,0,.75-.36h0l.26-.11h0l.12,0,.36-.07.51-.19.23,0,.25-.1.12-.14h0l.36,0a.21.21,0,0,1,0-.11l.26-.11.23,0a1.78,1.78,0,0,1,1.29-.58,1.78,1.78,0,0,0-1.29.58l1.25-.29.69-.35h0l0,0,.49,0s0-.07,0-.09h0a.08.08,0,0,1,.08.05l.5-.24h.32l.31-.21h0l.61-.11a.2.2,0,0,1,.11,0,.41.41,0,0,1,0-.11h0l.37-.13h0l.25,0a.17.17,0,0,1,.1,0,.5.5,0,0,1,0-.12l.27-.08.84-.15.11,0,.51-.2.22,0a.5.5,0,0,0,0-.12,1.3,1.3,0,0,0-.92,0,1.3,1.3,0,0,1,.92,0l.25-.09.25,0,.61-.17.07-.18s0,0,.06,0h0l.24,0,.14-.12h0L139.1,65a.2.2,0,0,0,0-.11l.13,0,.24,0a.22.22,0,0,1,0-.11l1-.23.86-.26.15-.21h.35l.59-.25c.06,0,.13,0,.18,0,2.39-.77,4.78-1.53,7.16-2.33a10.2,10.2,0,0,0,1.41-.69h0l.12-.11h0l.87-1V58.06A3.37,3.37,0,0,1,151.9,57.7Zm-30,7.9h0l0,0Zm-.22,3.06a2.22,2.22,0,0,1-.23-.39,2.3,2.3,0,0,1-.14-.42,1.92,1.92,0,0,1,.21-1.38,2.12,2.12,0,0,0,.11-.21,2.12,2.12,0,0,1-.11.21,1.92,1.92,0,0,0-.21,1.38,2.3,2.3,0,0,0,.14.42,2.22,2.22,0,0,0,.23.39.41.41,0,0,1,0,.09A.41.41,0,0,0,121.69,68.66Zm2.89-4h0Zm.42,4.78a.22.22,0,0,1,.08,0A.22.22,0,0,0,125,69.39Zm1.2-5.27,1.4-.48Zm11.44.15s.06,0,.1,0h0S137.66,64.26,137.64,64.27Zm.54-1.08.2.09Zm-7.54,4.48,0,0h0Zm6.53-2.84-.24,0-.18,0,.18,0,.24,0Zm1.6-1.22h0a.52.52,0,0,1,.43.26A.52.52,0,0,0,138.77,63.61Zm.73,1.1a.38.38,0,0,1-.32-.09.38.38,0,0,0,.32.09l.67-.19Z"/><path class="cls-3" d="M123,64.94a.49.49,0,0,0,0,.11l.84-.32Z"/><path class="cls-3" d="M149.65,103.58c-3.07-1-6.12-2-9.18-3l-16.2-5.24A2.53,2.53,0,0,0,121.19,97a2.49,2.49,0,0,0,1.44,3.07c1.06.33,2.1.7,3.15,1l9.71,3.17q3.3,1.08,6.6,2.13c2.36.76,4.72,1.54,7.1,2.22a2.22,2.22,0,0,0,1.62-.21A7.49,7.49,0,0,0,152.2,107V105.5A4.08,4.08,0,0,0,149.65,103.58Z"/><path class="cls-3" d="M105.24,45.3a2.56,2.56,0,0,0,2.69-1.2c.69-1,1.43-2.05,2.16-3.05,2.4-3.3,4.81-6.58,7.21-9.87l4-5.55c.13-.17.27-.33.4-.49h0l.24-.37,1-1.35.25-.34v0l.47-.76a2.6,2.6,0,0,0-.31-3.66s0,0,0,0l-.62-.36-.24-.05a2.4,2.4,0,0,0-1.82.3,3,3,0,0,0-.93.94c-.76.94-1.49,1.9-2.24,2.85,0,0-.1.06-.15.1l-.16.29-.38.48h0l-.21.32a1.33,1.33,0,0,0-.14.19l-.6.79a0,0,0,0,1,0,.06l-.74,1-.17.25-.08.1h0l-.21.3a4.53,4.53,0,0,1-.27.48c-1.4,1.93-2.8,3.87-4.21,5.8-2,2.75-4,5.48-6,8.23a3.17,3.17,0,0,0-.89,2.52A2.5,2.5,0,0,0,105.24,45.3Z"/><path class="cls-3" d="M98,17.12a2.08,2.08,0,0,0-2.32.94,7,7,0,0,0-.59,1.47q-2.24,6.76-4.45,13.53a2,2,0,0,0,.6,2.29,2.16,2.16,0,0,0,2.39.46c.94-.34,1.21-1.16,1.48-2q2-6,3.92-12c.27-.83.5-1.68.68-2.29A2.29,2.29,0,0,0,98,17.12Z"/><path class="cls-3" d="M126.38,83.46a2.33,2.33,0,0,0,2.19,1.86c2.46-.06,4.93,0,7.39,0v.06h7.7A2.26,2.26,0,0,0,146,83.64a2.22,2.22,0,0,0-2.44-2.77c-5,0-10,0-15,0a1.68,1.68,0,0,0-.78.1A2.31,2.31,0,0,0,126.38,83.46Z"/><path class="cls-3" d="M26.44,101.58a.06.06,0,0,0,.07,0l1.4-.47h0l0,0,.13,0,.23-.07.5-.19.24-.06.31-.13h0l0,0h0a17,17,0,0,0,1.76-.51,2.11,2.11,0,0,0,1.33-2v-.49a4.09,4.09,0,0,0-.41-1.4,2.76,2.76,0,0,0-3.53-.56l-.12,0-.33.16-.53.13-.31.13a.08.08,0,0,0-.08,0l-.66.24-.43.11-1.06.38-.42.1-.31.15a2.64,2.64,0,0,0-.49.08c-3.17,1-6.34,2.07-9.52,3.09-3,1-6,1.9-8.94,2.89-1.44.48-3.06.69-3.92,2.23v1.72a6.54,6.54,0,0,1,.4.52,2.33,2.33,0,0,0,2.57,1.1c2.39-.74,4.75-1.53,7.12-2.3L13,106l.61-.2,1.42-.49.32-.06c.87-.27,1.75-.53,2.62-.81.48-.15.94-.35,1.41-.53h0a1.43,1.43,0,0,0,.36,0l6.59-2.13C26.36,101.7,26.4,101.63,26.44,101.58Z"/><path class="cls-3" d="M9.14,85.3l.26,0-1-.45.49.37Z"/><path class="cls-3" d="M8.17,84.79h.22l-.34-.26Z"/><path class="cls-3" d="M76.79,33.92a2.45,2.45,0,0,0,2.48-2.61q0-13.64,0-27.29a2.29,2.29,0,0,0-.35-1.27A10.22,10.22,0,0,0,77.53,1.5h-1.6c0,.05-.05.13-.09.15-1.33.64-1.61,1.76-1.6,3.11q0,10,0,19.9c0,2.2,0,4.4,0,6.59A2.55,2.55,0,0,0,76.79,33.92Z"/><path class="cls-3" d="M1.72,60a2.79,2.79,0,0,0,2.07,1.54c1,.31,2,.66,3,1l3.74,1.14.32.14.42.1,1.06.38.23.07.85.28h0l.39.14.44.12,1,.37.24.06.5.19.24.07.12,0,0,0h.05l.41.17.42.1,2.9.95.18,0,.56.22.19,0a1.14,1.14,0,0,0,.3.18c.92.32,1.85.63,2.78.93,1.76.57,3.52,1.15,5.3,1.68a1.68,1.68,0,0,0,1.8-.36h0a3.45,3.45,0,0,1-1,.21,3.45,3.45,0,0,0,1-.21l.36-.26.12-.12c.41-.26.77-.57.67-1.13l0-.24v-.73l0-.24-.42-.8a.09.09,0,0,0,0-.07l-.11-.13h0c-.09-.16-.18-.31-.26-.47l-1.83-.59-.26,0-.73-.26h0L28,64.21h0l-.39-.35h-.38l.14.06-.14-.06-.2-.06a1.45,1.45,0,0,0-.29-.19c-1.29-.43-2.58-.86-3.88-1.27-.87-.27-1.75-.49-2.63-.73h0l-5-1.65-.23,0-.51-.2-.22,0a.13.13,0,0,0-.12,0l-.1,0-2.86-.95-.1,0c-.84-.31-1.68-.64-2.53-.93a10,10,0,0,0-1.2-.29l-.2,0c-.81-.31-1.62-.64-2.44-.92a2.37,2.37,0,0,0-2.58.63,9.65,9.65,0,0,0-.69.84v1.84C1.57,59.85,1.69,59.9,1.72,60Zm28.17,9.77a3.84,3.84,0,0,0,.48,0A3.84,3.84,0,0,1,29.89,69.75Zm-.48-.06.15,0Zm.16,0,.14,0Zm.16,0h0Zm1.84-4.08-.2-.08Zm-2.22,4-.1,0Zm-.14,0-.12,0Z"/><path class="cls-3" d="M35.32,31.06l6.5,9c.86,1.17,1.7,2.36,2.62,3.48a2.4,2.4,0,0,0,2.81.59,2.78,2.78,0,0,0,1.57-2.34,8.08,8.08,0,0,0-.56-1.39c-.43-.7-.94-1.34-1.42-2L40.58,29.7c-1.89-2.61-3.77-5.21-5.67-7.8-1-1.36-2-2.72-3-4a2.33,2.33,0,0,0-2.69-.63,2.58,2.58,0,0,0-1.59,2.22,3.78,3.78,0,0,0,1,2.42C30.89,24.93,33.1,28,35.32,31.06Z"/><path class="cls-3" d="M47.4,119.92c-1,.2-1.55,1-2.1,1.77-1.83,2.52-3.64,5-5.47,7.57-1.62,2.24-3.25,4.47-4.88,6.71s-3.35,4.7-5.08,7a2.41,2.41,0,0,0-.35,2.54A2.22,2.22,0,0,0,31.79,147a1.88,1.88,0,0,0,1.81-.76c.71-.92,1.4-1.86,2.09-2.8l8-11L50,123.8a2.49,2.49,0,0,0-2.59-3.88Z"/><path class="cls-3" d="M36.29,115.08a2.11,2.11,0,0,0,.18-3,2.26,2.26,0,0,0-2.84-.48c-.76.48-1.49,1-2.21,1.54l-5,3.68c-1.77,1.28-3.57,2.54-5.34,3.83a1.85,1.85,0,0,0-.86,1.65,2.12,2.12,0,0,0,1.1,2.09,2.19,2.19,0,0,0,2.39-.11c.73-.49,1.42-1,2.13-1.56,2.14-1.54,4.29-3.07,6.43-4.62C33.62,117.12,35,116.15,36.29,115.08Z"/><path class="cls-3" d="M20.46,44.59c1.71,1.19,3.4,2.43,5.09,3.65,2.39,1.73,4.77,3.48,7.18,5.18a2.25,2.25,0,0,0,3.17-1.11c.43-1.25.09-2.11-1.15-3-1.8-1.27-3.6-2.57-5.39-3.86-2.12-1.54-4.22-3.1-6.36-4.62a6.67,6.67,0,0,0-1.22-.56,2.4,2.4,0,0,0-2.25,1.26A2.36,2.36,0,0,0,20.46,44.59Z"/><path class="cls-3" d="M61.34,28.35c-1-3.06-2-6.12-3-9.19-.42-1.34-1.2-2.1-2.31-2.12a2.25,2.25,0,0,0-2.22,2.77c.31,1,.62,2,.94,3.06q1.85,5.65,3.7,11.33a2.57,2.57,0,0,0,.44.93,2.26,2.26,0,0,0,3,.53,2.3,2.3,0,0,0,.92-2.74C62.33,31.39,61.83,29.87,61.34,28.35Z"/><path class="cls-3" d="M60.6,130.16a2.2,2.2,0,0,0-2.12,1.72c-.63,1.86-1.22,3.73-1.82,5.6-.95,2.9-1.92,5.8-2.83,8.71A2.15,2.15,0,0,0,55,148.91a2.35,2.35,0,0,0,3.16-1.67c.75-2.4,1.54-4.79,2.32-7.19s1.54-4.58,2.26-6.88A2.25,2.25,0,0,0,60.6,130.16Z"/><path class="cls-3" d="M25.67,85.07l.48-.26h0l.26-.22a.14.14,0,0,0,.08,0c.12-.16.23-.33.34-.49s.05-.21.08-.31l.11,0,.1-.38V82.7L26.88,82l-.16-.07-.34-.42-.25-.23L25.71,81h0l-.06-.17h-.38L25,80.81h-.87v0H12.85l-1.24,0L11,80.72l0,.09H9.42l-.28-.08v.13l-.11,0L8.73,81,9,80.89l-.15,0a1.63,1.63,0,0,0-.17.2h0l-.25.14-.12.11-.08,0H8.13l0,.13h0l-.57.42a1.42,1.42,0,0,1,0,.2l-.11.25,0,.38v.58l0,.26.13.37.21.27h0c0,.08,0,.15,0,.23l.14,0,.13.13.34.26h0l1,.45.68,0,7.06,0h8s0,0,0,0l.26-.09h.24Zm-1.75-4.16.25,0h0Z"/><path class="cls-3" d="M132.4,120.73c-.94-.73-1.89-1.43-2.86-2.12-.76-.54-1.55-1-2.33-1.56l-.12-.11-.52-.33a.1.1,0,0,0-.08,0l-.78-.6h0l-.13-.11a.11.11,0,0,0-.08,0h0a2.66,2.66,0,0,0-.32-.35l-2.43-1.83-3.19-2.23H118.2l.73.1.16.09-.16-.09-.73-.1-.25,0-.25,0-.23.14-.54.69h0l-.6,1.19c.18.5,0,1.16.61,1.45l-.32-1,.32,1,.2.31.18.16.5.3.51.41a.34.34,0,0,1,0,.1l.89.62.18.08h0c.84.64,1.66,1.3,2.52,1.91.57.42,1.19.77,1.79,1.16h0l.13.13h0a4,4,0,0,0,.45.47c1.63,1.2,3.24,2.42,4.89,3.58.6.42,1.22,1,2.07.59l.24,0a1.46,1.46,0,0,0,.3,0A2.34,2.34,0,0,0,132.4,120.73Zm-15.64-7-.16.14c.1-.51.2-1,.31-1.54l-.31,1.54Zm.81-.73-.58.52v0h0l.58-.52c.1-.42.32-.65.63-.68C117.89,112.35,117.67,112.58,117.57,113Zm1.61-.85v0l.23.19Zm.74,1.73.73.52-.73-.52s0,0,0-.07S119.92,113.85,119.92,113.88Zm-.16,1.84,1.93-1.7Z"/><path class="cls-3" d="M79.4,148.38v-.25l0-8c0-2.75,0-5.51,0-8.26a2.53,2.53,0,0,0-1.89-2.56,2.42,2.42,0,0,0-2.87,1.37,3.83,3.83,0,0,0-.26,1.55c0,8.73,0,17.46,0,26.18a3.08,3.08,0,0,0,1.86,3.26h1.27c1.6-.56,2-1.79,1.94-3.34-.06-1.28,0-2.58,0-3.87Z"/><path class="cls-3" d="M122.13,140.66c-1.35-1.86-2.68-3.73-4-5.58l-4.21-5.75c-2.09-2.86-4.16-5.74-6.27-8.58a2.46,2.46,0,0,0-3.52-.34,2.59,2.59,0,0,0-.45,3.41c1.24,1.73,2.5,3.44,3.75,5.16q4,5.55,8.08,11.08c.84,1.15,1.71,2.29,2.56,3.43l0,.3c.24.26.46.53.71.78a3.57,3.57,0,0,0,.37.31c.31-.19.62-.37.92-.57-.3.2-.61.38-.92.57l.38.54a2,2,0,0,1,.06-.4,2,2,0,0,0-.06.4l.24.13c0,.21.07.41.1.61l.4.37.43.16a2.42,2.42,0,0,0,2.93-.31,2.87,2.87,0,0,0,.34-3.2Q123,141.94,122.13,140.66Zm-2.5,4.3a.25.25,0,0,1,0-.09A.25.25,0,0,0,119.63,145Z"/><path class="cls-3" d="M99.37,145.53v0c-.26-.7-.53-1.4-.77-2.11-.32-1-.61-1.94-.91-2.91l-.05-.24-.78-2.35-.06-.24c-.11-.33-.22-.66-.32-1l-.06-.24c-.4-1.23-.81-2.46-1.22-3.7l-.06-.33L95,132l0-.14-.74-1.21h0l-1.37-.47-.59,0L91,131l-.17.21a4.07,4.07,0,0,0,.24,3.1c.95,2.87,1.88,5.75,2.82,8.63a1,1,0,0,1,0,.24l0,.24c.17.43.37.84.51,1.27s.28,1,.41,1.45c0,.09.05.18.07.27l0,.06,0,0,0,.19.18.31c0,.14,0,.28.08.42a1.92,1.92,0,0,1,.19.23,2.19,2.19,0,0,0,4,.13l.26-.4c0-.34,0-.67,0-1Z"/><path class="cls-3" d="M123.87,46.14l-.84.75,0,0,0,0,.84-.75-1.62,1-1.33,1-.11.1h0l-.29.33a.2.2,0,0,1-.11,0c-.44.33-.89.65-1.34,1l-1,.56a5.47,5.47,0,0,1-.58.5,2.21,2.21,0,0,0-.8,3c0-.11,0-.22,0-.33,0,.11,0,.22,0,.33h0l.14.18L117,54l.83.69.23.05.25,0h.73l.76-.25.49-.36.17-.12.19-.12.44-.3,0,0L123.25,52h0L125,50.79h0a.16.16,0,0,0,.11,0h0l.68-.53h0l.34-.25.13-.13h0l.24-.15.5-.34.71-.54h0l1.28-.94.43-.31,1.14-.83a.14.14,0,0,0,.1,0l1.75-1.3.12-.11.47-.52h0l.15-.49,0-.18a1.56,1.56,0,0,0-.22-1.62,1.8,1.8,0,0,0-1.92-1h-.23c-1.07,0-1.69.75-2.38,1.38a.13.13,0,0,0-.09,0l-.78.56-.21.17-.27.22-.83.54-.82.6-.17.12-.39.34h0l-.16.12-.18.09-.3.2Zm-5.22,4.76a.66.66,0,0,1-.22-.06.66.66,0,0,0,.22.06h0Zm1.51,0h1.5a.87.87,0,0,0,.39-.08.51.51,0,0,0,.21-.41.75.75,0,0,0,0-.15c0-.66,0-1.33,0-2,0,.66,0,1.33,0,2a.75.75,0,0,1,0,.15.51.51,0,0,1-.21.41.87.87,0,0,1-.39.08Zm3.27.94c.12-.12.24-.24.37-.35C123.67,51.61,123.55,51.73,123.43,51.85Zm2.18-1.66h0Zm-.19,0a.44.44,0,0,0-.15.08A.44.44,0,0,1,125.42,50.21Zm-.18.11a.36.36,0,0,0-.07.1A.36.36,0,0,1,125.24,50.32Z"/><path class="cls-4" d="M119.67,80a32.05,32.05,0,0,0-.42-3.9c-.16-1-.47-2-.72-3.07h0l0-.36h0a7.58,7.58,0,0,0-.24-1.26c-.69-2-1.37-3.92-2.14-5.85a34.19,34.19,0,0,0-4.62-8c-.22-.3-.39-.62-.63-.9-.59-.7-1.2-1.37-1.8-2.06l-.14-.13-1.68-1.76-.25-.24-.34-.26.34.26a.72.72,0,0,0-.14-.26,32.82,32.82,0,0,0-2.59-2.42,8.61,8.61,0,0,0-2.59-1.84.18.18,0,0,0-.09,0l-.53-.34h0L98.83,46l-.17-.08c-.9-.54-1.76-1.14-2.7-1.59q-2.11-1-4.32-1.86c-1.14-.43-2.34-.72-3.51-1.07l-.22,0a5.35,5.35,0,0,0-1-.42c-1.6-.3-3.21-.62-4.82-.83-1.23-.16-2.48-.15-3.71-.22h-2l-2.3,0a32.27,32.27,0,0,0-7.39,1,20.16,20.16,0,0,0-1.94.66l-.2,0a10.14,10.14,0,0,0-1.21.29c-.84.31-1.66.66-2.48,1h0l-.25.11-.66.32-.33,0,0,0-.92.41-.19.09-.26,0-.24.12-.19.3-.3.08-.8.42-.08,0-.4.22-.58.3-.15.09-.36.22h0l-.59.18-.63.37-.07,0-.16.21-.63.36-.74.5-.23.14-.49.27-.37.35-.14.11-.35.25c-.05.11-.1.23-.16.34h0l-.1,0-1.15.92h0l-.1.1,0,0h0l-.44.15a2.07,2.07,0,0,0,0,.22l-.08.05c-.38.43-.74.88-1.14,1.28.4-.4.76-.85,1.14-1.28L46.86,52a.12.12,0,0,0,0,.08l-.57.54-.18.19-.32.3a.2.2,0,0,0,0,.08h0l-1.81,2h0l-1,1.23a.16.16,0,0,0,0,.09l-.12.14h0L42.3,57l-.2.37-1.65,2.57a.36.36,0,0,0,0,.09L39,62.39l-.07.2h0l-.45.77a.16.16,0,0,0,0,.09c-.49,1-1,1.93-1.44,2.93-.48,1.15-.87,2.33-1.29,3.51a6.24,6.24,0,0,0-.16.75c0,.08,0,.16,0,.24a.62.62,0,0,0-.14.19c-.37,1.62-.77,3.23-1.1,4.86A20.93,20.93,0,0,0,34.09,78c0,.12,0,.24,0,.35,0,.29,0,.58,0,.87l0,.31a2,2,0,0,0-.16.44,29.75,29.75,0,0,0-.1,3.13c.09,1.86.23,3.71.46,5.56a32.51,32.51,0,0,0,2,8.3c.85,2.09,1.7,4.19,2.71,6.21a33.78,33.78,0,0,0,2.77,4.52c1.18,1.63,2.51,3.16,3.83,4.69a22.49,22.49,0,0,0,1.83,1.68l1.19-.31-1.19.31.33.3c.42.41.81.85,1.26,1.22,1.1.91,2.17,1.85,3.34,2.64s2.7,1.66,4.09,2.43c.74.41,1.54.7,2.32,1a.12.12,0,0,0,.08,0A1.43,1.43,0,0,0,59,122c.71.3,1.42.62,2.14.9a28.62,28.62,0,0,0,3.09,1.14c1.83.47,3.69.86,5.55,1.2.91.17,1.86.17,2.78.25h.2a1.37,1.37,0,0,0,.43.17,43.61,43.61,0,0,0,8.16-.1,41.5,41.5,0,0,0,9.29-2.07c1.25-.45,2.52-.83,3.73-1.37a37.16,37.16,0,0,0,3.41-1.82c.74-.42,1.44-.91,2.15-1.37l.12-.11a1.55,1.55,0,0,0,.46-.14c1.1-.78,2.23-1.52,3.26-2.39,1.34-1.14,2.61-2.38,3.88-3.61a15.26,15.26,0,0,0,1.16-1.37h0c.19-.21.37-.43.56-.65l.18-.21c.12-.16.24-.33.37-.49h0c.32-.37.63-.75,1-1.13a.32.32,0,0,0,0-.09l.19-.29a.14.14,0,0,0,.05-.08,12.86,12.86,0,0,0,1.16-1.42c1.1-1.82,2.25-3.61,3.19-5.51a34.6,34.6,0,0,0,3-8.21c.21-1,.36-2,.53-3l.06-.57c.06-.83.14-1.67.21-2.5-.07.83-.15,1.67-.21,2.5a2.22,2.22,0,0,0,.2-.48c.14-1.3.33-2.6.38-3.91C119.74,83.49,119.74,81.72,119.67,80ZM46.47,113l.67-.73-.67.73Zm.5.49Zm1.1,1h0l-.24-.13Zm1.33,1.18-1.33-1.18h0l1.33,1.18.54.46Z"/><path class="cls-4" d="M43.65,55.36l-.72.79c0,.1,0,.21,0,.31l1-1.23Z"/><path class="cls-4" d="M60.28,43.05l-.29.31.66-.32Z"/><path class="cls-4" d="M50.42,48.81l-.49.38-.53.57,1.15-.92Z"/></g></g></svg>