<?xml version="1.0" encoding="utf-8"?>
<!-- Generator: Adobe Illustrator 24.0.0, SVG Export Plug-In . SVG Version: 6.00 Build 0)  -->
<svg version="1.1" id="Capa_1" xmlns="http://www.w3.org/2000/svg" xmlns:xlink="http://www.w3.org/1999/xlink" x="0px" y="0px"
	 viewBox="0 0 213 71" style="enable-background:new 0 0 213 71;" xml:space="preserve">
<style type="text/css">
	.st0{fill:#B2B2B2;}
	.st1{fill:#FFFFFF;}
	.st2{clip-path:url(#SVGID_2_);fill:#29ABE2;}
	.st3{clip-path:url(#SVGID_2_);fill:#28AAE1;}
	.st4{clip-path:url(#SVGID_2_);fill:#28A9E1;}
	.st5{clip-path:url(#SVGID_2_);fill:#27A8E0;}
	.st6{clip-path:url(#SVGID_2_);fill:#26A7DF;}
	.st7{clip-path:url(#SVGID_2_);fill:#25A6DF;}
	.st8{clip-path:url(#SVGID_2_);fill:#25A5DE;}
	.st9{clip-path:url(#SVGID_2_);fill:#24A4DD;}
	.st10{clip-path:url(#SVGID_2_);fill:#23A3DD;}
	.st11{clip-path:url(#SVGID_2_);fill:#23A2DC;}
	.st12{clip-path:url(#SVGID_2_);fill:#22A1DB;}
	.st13{clip-path:url(#SVGID_2_);fill:#21A0DB;}
	.st14{clip-path:url(#SVGID_2_);fill:#209FDA;}
	.st15{clip-path:url(#SVGID_2_);fill:#209ED9;}
	.st16{clip-path:url(#SVGID_2_);fill:#1F9DD9;}
	.st17{clip-path:url(#SVGID_2_);fill:#1E9CD8;}
	.st18{clip-path:url(#SVGID_2_);fill:#1D9BD7;}
	.st19{clip-path:url(#SVGID_2_);fill:#1D9AD7;}
	.st20{clip-path:url(#SVGID_2_);fill:#1C99D6;}
	.st21{clip-path:url(#SVGID_2_);fill:#1B98D5;}
	.st22{clip-path:url(#SVGID_2_);fill:#1B97D5;}
	.st23{clip-path:url(#SVGID_2_);fill:#1A96D4;}
	.st24{clip-path:url(#SVGID_2_);fill:#1995D3;}
	.st25{clip-path:url(#SVGID_2_);fill:#1894D3;}
	.st26{clip-path:url(#SVGID_2_);fill:#1893D2;}
	.st27{clip-path:url(#SVGID_2_);fill:#1792D1;}
	.st28{clip-path:url(#SVGID_2_);fill:#1691D1;}
	.st29{clip-path:url(#SVGID_2_);fill:#1690D0;}
	.st30{clip-path:url(#SVGID_2_);fill:#158FCF;}
	.st31{clip-path:url(#SVGID_2_);fill:#148DCF;}
	.st32{clip-path:url(#SVGID_2_);fill:#138CCE;}
	.st33{clip-path:url(#SVGID_2_);fill:#138BCD;}
	.st34{clip-path:url(#SVGID_2_);fill:#128ACD;}
	.st35{clip-path:url(#SVGID_2_);fill:#1189CC;}
	.st36{clip-path:url(#SVGID_2_);fill:#1188CB;}
	.st37{clip-path:url(#SVGID_2_);fill:#1087CB;}
	.st38{clip-path:url(#SVGID_2_);fill:#0F86CA;}
	.st39{clip-path:url(#SVGID_2_);fill:#0E85C9;}
	.st40{clip-path:url(#SVGID_2_);fill:#0E84C9;}
	.st41{clip-path:url(#SVGID_2_);fill:#0D83C8;}
	.st42{clip-path:url(#SVGID_2_);fill:#0C82C7;}
	.st43{clip-path:url(#SVGID_2_);fill:#0C81C7;}
	.st44{clip-path:url(#SVGID_2_);fill:#0B80C6;}
	.st45{clip-path:url(#SVGID_2_);fill:#0A7FC5;}
	.st46{clip-path:url(#SVGID_2_);fill:#097EC5;}
	.st47{clip-path:url(#SVGID_2_);fill:#097DC4;}
	.st48{clip-path:url(#SVGID_2_);fill:#087CC3;}
	.st49{clip-path:url(#SVGID_2_);fill:#077BC3;}
	.st50{clip-path:url(#SVGID_2_);fill:#067AC2;}
	.st51{clip-path:url(#SVGID_2_);fill:#0679C1;}
	.st52{clip-path:url(#SVGID_2_);fill:#0578C1;}
	.st53{clip-path:url(#SVGID_2_);fill:#0477C0;}
	.st54{clip-path:url(#SVGID_2_);fill:#0476BF;}
	.st55{clip-path:url(#SVGID_2_);fill:#0375BF;}
	.st56{clip-path:url(#SVGID_2_);fill:#0274BE;}
	.st57{clip-path:url(#SVGID_2_);fill:#0173BD;}
	.st58{clip-path:url(#SVGID_2_);fill:#0172BD;}
	.st59{clip-path:url(#SVGID_2_);fill:#0071BC;}
	.st60{fill:#005DBA;}
	.st61{fill:#00FFFF;}
	.st62{fill:#006AB0;}
</style>
<g>
	<path class="st0" d="M201,4H16C9.4,4,4,9.4,4,16v43c0,6.6,5.4,12,12,12h185c6.6,0,12-5.4,12-12V16C213,9.4,207.6,4,201,4"/>
	<path class="st1" d="M12,0h185c6.6,0,12,5.4,12,12v43c0,6.6-5.4,12-12,12H12C5.4,67,0,61.6,0,55V12C0,5.4,5.4,0,12,0z"/>
	<g>
		<defs>
			<path id="SVGID_1_" d="M15.2,2.4h178.5c6.6,0,11.9,5.3,11.9,11.9v38.5c0,6.5-5.3,11.9-11.9,11.9H15.2c-6.6,0-11.9-5.3-11.9-11.9
				V14.3C3.4,7.7,8.7,2.4,15.2,2.4"/>
		</defs>
		<clipPath id="SVGID_2_">
			<use xlink:href="#SVGID_1_"  style="overflow:visible;"/>
		</clipPath>
		<path class="st2" d="M205.6,2.4H3.4H205.6z"/>
		<rect x="3.4" y="2.4" class="st2" width="202.3" height="1.1"/>
		<rect x="3.4" y="3.5" class="st3" width="202.3" height="1.1"/>
		<rect x="3.4" y="4.5" class="st4" width="202.3" height="1.1"/>
		<rect x="3.4" y="5.6" class="st5" width="202.3" height="1.1"/>
		<rect x="3.4" y="6.7" class="st6" width="202.3" height="1.1"/>
		<rect x="3.4" y="7.8" class="st7" width="202.3" height="1.1"/>
		<rect x="3.4" y="8.8" class="st8" width="202.3" height="1.1"/>
		<rect x="3.4" y="9.9" class="st9" width="202.3" height="1.1"/>
		<rect x="3.4" y="11" class="st10" width="202.3" height="1.1"/>
		<rect x="3.4" y="12.1" class="st11" width="202.3" height="1.1"/>
		<rect x="3.4" y="13.1" class="st12" width="202.3" height="1.1"/>
		<rect x="3.4" y="14.2" class="st13" width="202.3" height="1.1"/>
		<rect x="3.4" y="15.3" class="st14" width="202.3" height="1.1"/>
		<rect x="3.4" y="16.3" class="st15" width="202.3" height="1.1"/>
		<rect x="3.4" y="17.4" class="st16" width="202.3" height="1.1"/>
		<rect x="3.4" y="18.5" class="st17" width="202.3" height="1.1"/>
		<rect x="3.4" y="19.6" class="st18" width="202.3" height="1.1"/>
		<rect x="3.4" y="20.6" class="st19" width="202.3" height="1.1"/>
		<rect x="3.4" y="21.7" class="st20" width="202.3" height="1.1"/>
		<rect x="3.4" y="22.8" class="st21" width="202.3" height="1.1"/>
		<rect x="3.4" y="23.8" class="st22" width="202.3" height="1.1"/>
		<rect x="3.4" y="24.9" class="st23" width="202.3" height="1.1"/>
		<rect x="3.4" y="26" class="st24" width="202.3" height="1.1"/>
		<rect x="3.4" y="27.1" class="st25" width="202.3" height="1.1"/>
		<rect x="3.4" y="28.1" class="st26" width="202.3" height="1.1"/>
		<rect x="3.4" y="29.2" class="st27" width="202.3" height="1.1"/>
		<rect x="3.4" y="30.3" class="st28" width="202.3" height="1.1"/>
		<rect x="3.4" y="31.4" class="st29" width="202.3" height="1.1"/>
		<rect x="3.4" y="32.4" class="st30" width="202.3" height="1.1"/>
		<rect x="3.4" y="33.5" class="st31" width="202.3" height="1.1"/>
		<rect x="3.4" y="34.6" class="st32" width="202.3" height="1.1"/>
		<rect x="3.4" y="35.6" class="st33" width="202.3" height="1.1"/>
		<rect x="3.4" y="36.7" class="st34" width="202.3" height="1.1"/>
		<rect x="3.4" y="37.8" class="st35" width="202.3" height="1.1"/>
		<rect x="3.4" y="38.9" class="st36" width="202.3" height="1.1"/>
		<rect x="3.4" y="39.9" class="st37" width="202.3" height="1.1"/>
		<rect x="3.4" y="41" class="st38" width="202.3" height="1.1"/>
		<rect x="3.4" y="42.1" class="st39" width="202.3" height="1.1"/>
		<rect x="3.4" y="43.2" class="st40" width="202.3" height="1.1"/>
		<rect x="3.4" y="44.2" class="st41" width="202.3" height="1.1"/>
		<rect x="3.4" y="45.3" class="st42" width="202.3" height="1.1"/>
		<rect x="3.4" y="46.4" class="st43" width="202.3" height="1.1"/>
		<rect x="3.4" y="47.4" class="st44" width="202.3" height="1.1"/>
		<rect x="3.4" y="48.5" class="st45" width="202.3" height="1.1"/>
		<rect x="3.4" y="49.6" class="st46" width="202.3" height="1.1"/>
		<rect x="3.4" y="50.7" class="st47" width="202.3" height="1.1"/>
		<rect x="3.4" y="51.7" class="st48" width="202.3" height="1.1"/>
		<rect x="3.4" y="52.8" class="st49" width="202.3" height="1.1"/>
		<rect x="3.4" y="53.9" class="st50" width="202.3" height="1.1"/>
		<rect x="3.4" y="54.9" class="st51" width="202.3" height="1.1"/>
		<rect x="3.4" y="56" class="st52" width="202.3" height="1.1"/>
		<rect x="3.4" y="57.1" class="st53" width="202.3" height="1.1"/>
		<rect x="3.4" y="58.2" class="st54" width="202.3" height="1.1"/>
		<rect x="3.4" y="59.2" class="st55" width="202.3" height="1.1"/>
		<rect x="3.4" y="60.3" class="st56" width="202.3" height="1.1"/>
		<rect x="3.4" y="61.4" class="st57" width="202.3" height="1.1"/>
		<rect x="3.4" y="62.5" class="st58" width="202.3" height="1.1"/>
		<rect x="3.4" y="63.5" class="st59" width="202.3" height="1.1"/>
		<path class="st59" d="M3.4,64.6h202.3H3.4z"/>
	</g>
	<path class="st60" d="M193.8,3.1c6.2,0,11.2,5,11.2,11.2v38.5c0,6.2-5,11.2-11.2,11.2H15.2C9,63.9,4,58.9,4,52.7V14.3
		C4,8.1,9,3.1,15.2,3.1H193.8 M193.8,1.7H15.2C8.3,1.7,2.7,7.3,2.7,14.3v38.5c0,6.9,5.6,12.5,12.5,12.5h178.6
		c6.9,0,12.5-5.6,12.5-12.5V14.3C206.3,7.3,200.7,1.7,193.8,1.7z"/>
	<path class="st61" d="M9.7,26c0.6-2.3,1.1-4.7,1.5-7.1C12.1,13,17.1,8.6,23,8.6l175-4.7c-1.3-0.5-2.8-0.8-4.2-0.8H15.2
		C9,3.1,4,8.1,4,14.3v33.9L9.7,26z"/>
	<path class="st62" d="M199.4,41c-0.6,2.3-1.1,4.7-1.5,7.1c-0.8,5.9-5.9,10.3-11.8,10.3l-175,4.7c1.3,0.5,2.8,0.8,4.2,0.8h178.6
		c6.2,0,11.2-5,11.2-11.2V18.8L199.4,41z"/>
	<path class="st1" d="M43.8,26.2c0.5,0.2,0.8,0.6,0.8,1.1c0.1,0.5-0.1,1-0.4,1.4c-0.2,0.3-0.5,0.5-0.9,0.5c-0.4,0-0.8-0.1-1.1-0.3
		c-0.4-0.2-0.9-0.4-1.4-0.5c-0.5-0.1-1-0.2-1.5-0.2c-0.9,0-1.8,0.1-2.6,0.5c-0.8,0.3-1.4,0.7-2,1.3c-0.5,0.6-1,1.3-1.2,2
		C33.1,33,33,33.9,33,34.8c0,1,0.1,2,0.5,2.9c0.3,0.8,0.7,1.5,1.3,2c0.6,0.5,1.3,1,2,1.2c0.8,0.3,1.6,0.4,2.5,0.4c0.5,0,1,0,1.5-0.1
		c0.5-0.1,1-0.3,1.4-0.5c0.3-0.2,0.7-0.2,1.1-0.2c0.4,0.1,0.7,0.3,0.9,0.6c0.3,0.4,0.5,0.9,0.4,1.4c-0.1,0.5-0.4,0.9-0.8,1
		c-0.5,0.2-1,0.4-1.5,0.6c-0.5,0.2-1,0.3-1.5,0.3c-0.5,0.1-1,0.1-1.6,0.1c-1.3,0-2.5-0.2-3.7-0.7c-1.2-0.4-2.2-1-3.1-1.9
		c-0.9-0.8-1.7-1.9-2.2-3.1c-0.6-1.4-0.8-2.8-0.8-4.3c0-1.3,0.2-2.6,0.7-3.8c0.4-1.2,1.1-2.2,2-3.1c0.9-0.9,2-1.6,3.1-2
		c1.3-0.5,2.6-0.7,3.9-0.7c0.8,0,1.6,0.1,2.4,0.3C42.4,25.6,43.1,25.9,43.8,26.2z"/>
	<path class="st60" d="M39.3,46.2L39.3,46.2c-1.5,0-2.9-0.3-4.2-0.8c-1.3-0.5-2.6-1.2-3.6-2.2c-1.1-1-2-2.2-2.6-3.6
		c-0.6-1.6-0.9-3.2-0.9-4.9c0-1.5,0.3-2.9,0.8-4.3c0.5-1.3,1.3-2.5,2.3-3.6c1.1-1,2.3-1.8,3.6-2.3c1.4-0.6,3-0.9,4.5-0.8h0
		c0.9,0,1.8,0.1,2.7,0.3c0.8,0.2,1.7,0.5,2.5,0.8c0.9,0.4,1.6,1.3,1.7,2.3c0.1,0.9-0.1,1.8-0.7,2.5c-0.5,0.6-1.2,1-1.9,1.1
		c-0.7,0-1.4-0.1-2-0.4c-0.3-0.1-0.6-0.2-1-0.3c-0.4-0.1-0.8-0.1-1.2-0.1c-0.7,0-1.4,0.1-2.1,0.4c-0.5,0.2-1.1,0.5-1.5,1
		c-0.4,0.4-0.7,0.9-0.9,1.5c-0.2,0.7-0.4,1.4-0.4,2.1c0,0.9,0.1,1.7,0.4,2.4c0.2,0.5,0.5,1.1,1,1.5c0.4,0.4,0.9,0.7,1.4,0.9
		c0.6,0.2,1.3,0.3,2,0.3c0.4,0,0.8,0,1.2-0.1c0.4-0.1,0.7-0.2,1-0.3c0.6-0.3,1.3-0.4,2-0.3c0.8,0.1,1.4,0.5,1.9,1.1
		c0.6,0.7,0.9,1.7,0.7,2.6c-0.2,1-0.8,1.8-1.7,2.2c-0.5,0.2-1,0.5-1.6,0.7c-0.6,0.2-1.1,0.3-1.7,0.4C40.5,46.1,39.9,46.2,39.3,46.2z
		 M39.2,26.7c-1.1,0-2.2,0.2-3.3,0.6c-1,0.4-1.9,0.9-2.6,1.7c-0.7,0.7-1.3,1.6-1.6,2.5c-0.4,1-0.6,2.1-0.6,3.2
		c0,1.3,0.2,2.5,0.7,3.7c0.4,1,1,1.8,1.8,2.5c0.8,0.7,1.7,1.2,2.6,1.6c1,0.4,2.1,0.6,3.2,0.6c0.4,0,0.9,0,1.3-0.1
		c0.5-0.1,0.9-0.2,1.3-0.3c0.4-0.1,0.8-0.3,1.2-0.5l0-0.1L43,42l-0.2,0.1c-0.6,0.3-1.2,0.5-1.8,0.6c-0.6,0.1-1.1,0.2-1.7,0.2
		c-1,0-2-0.2-3-0.5c-0.9-0.3-1.8-0.9-2.6-1.5c-0.8-0.7-1.3-1.6-1.7-2.6c-0.4-1.1-0.6-2.3-0.6-3.5c0-1,0.2-2.1,0.5-3.1
		c0.3-1,0.9-1.8,1.6-2.5c0.7-0.7,1.6-1.3,2.5-1.7c1-0.4,2.1-0.6,3.2-0.6c0.6,0,1.2,0.1,1.8,0.2c0.6,0.1,1.1,0.3,1.7,0.6
		c0.1,0.1,0.2,0.1,0.3,0.1l0,0l0-0.1l0,0l0,0c-0.6-0.3-1.2-0.5-1.9-0.6c-0.7-0.2-1.4-0.2-2-0.2L39.2,26.7z"/>
	<path class="st1" d="M60.8,37.1c0,1.4-0.3,2.7-1,4c-0.6,1.1-1.6,2-2.7,2.7c-2.3,1.3-5.2,1.3-7.5,0c-1.1-0.6-2-1.5-2.7-2.7
		c-1.3-2.5-1.3-5.4,0-7.9c0.6-1.1,1.6-2,2.7-2.7c2.3-1.3,5.2-1.3,7.5,0c1.1,0.6,2,1.6,2.7,2.7C60.5,34.4,60.8,35.7,60.8,37.1z
		 M57.5,37.1c0-0.8-0.1-1.7-0.5-2.4c-0.4-0.7-0.9-1.2-1.5-1.6c-0.6-0.4-1.4-0.6-2.1-0.6c-0.7,0-1.5,0.2-2.1,0.6
		c-0.6,0.4-1.2,0.9-1.5,1.6c-0.4,0.7-0.6,1.6-0.6,2.4c0,0.8,0.2,1.7,0.6,2.4c0.3,0.7,0.9,1.2,1.5,1.6c0.6,0.4,1.4,0.6,2.1,0.6
		c0.7,0,1.5-0.2,2.1-0.6c0.6-0.4,1.2-0.9,1.5-1.6C57.4,38.8,57.5,37.9,57.5,37.1z"/>
	<path class="st60" d="M53.3,46.2c-1.5,0-3.1-0.4-4.5-1.1c-1.4-0.8-2.5-1.9-3.3-3.2c-1.6-3-1.6-6.4,0-9.4c0.8-1.4,1.9-2.5,3.3-3.3
		c2.8-1.6,6.2-1.6,9,0c1.4,0.8,2.5,1.9,3.3,3.2c0.8,1.4,1.2,3.1,1.2,4.7c0,1.6-0.4,3.3-1.2,4.7c-0.8,1.4-1.9,2.5-3.2,3.2
		C56.4,45.8,54.9,46.2,53.3,46.2z M53.4,31c-1,0-2.1,0.3-3,0.8c-0.9,0.5-1.6,1.2-2.1,2.1c-1.1,2-1.1,4.4,0,6.4
		c0.5,0.8,1.2,1.6,2.1,2.1c1.9,1,4.2,1,6.1,0c0.9-0.5,1.6-1.2,2.1-2.1c0.5-1,0.8-2.1,0.8-3.2l0,0l0,0c0-1.1-0.3-2.2-0.8-3.2
		c-0.5-0.9-1.2-1.6-2.1-2.1C55.4,31.3,54.4,31,53.4,31z M53.5,43.2h-0.1c-1,0-1.9-0.3-2.8-0.8c-0.9-0.5-1.6-1.3-2.1-2.2
		c-0.5-1-0.8-2-0.7-3.1c0-1,0.2-2.1,0.7-3.1c0.5-0.9,1.2-1.7,2-2.2c0.9-0.5,1.9-0.8,2.9-0.8c1,0,2,0.3,2.9,0.8
		c0.9,0.5,1.6,1.3,2.1,2.2c0.5,1,0.7,2.1,0.7,3.1c0,1.1-0.2,2.1-0.7,3.1c-0.5,0.9-1.2,1.7-2.1,2.2C55.4,42.9,54.4,43.2,53.5,43.2z
		 M53.4,40.2c0.5,0,0.9-0.1,1.3-0.4c0.4-0.2,0.7-0.6,1-1c0.2-0.5,0.4-1.1,0.3-1.6l0-0.1l0-0.1c0-0.6-0.1-1.2-0.4-1.7
		c-0.2-0.4-0.5-0.7-1-1c-0.4-0.2-0.8-0.4-1.3-0.3h0c-0.5,0-0.9,0.1-1.3,0.4c-0.4,0.2-0.7,0.6-0.9,1c-0.3,0.5-0.4,1.1-0.4,1.7
		c0,0.6,0.1,1.2,0.4,1.7c0.2,0.4,0.5,0.8,1,1C52.5,40,52.9,40.2,53.4,40.2z"/>
	<path class="st1" d="M71.1,29.5c1.1-0.1,2.2,0.2,3.1,0.9c0.7,0.6,1.2,1.4,1.4,2.3c0.3,1,0.4,2.1,0.4,3.1v7c0,0.4-0.2,0.9-0.5,1.2
		c-0.3,0.3-0.7,0.5-1.2,0.5c-0.4,0-0.9-0.2-1.2-0.5c-0.3-0.3-0.5-0.7-0.5-1.2v-7c0-0.5-0.1-1.1-0.2-1.6c-0.2-0.4-0.5-0.8-0.8-1.1
		c-0.5-0.3-1.1-0.5-1.7-0.4c-0.6,0-1.3,0.1-1.8,0.4c-0.5,0.3-0.8,0.6-1.1,1.1c-0.3,0.5-0.4,1.1-0.4,1.6v7c0,0.4-0.2,0.9-0.5,1.2
		c-0.7,0.6-1.7,0.6-2.4,0c-0.3-0.3-0.5-0.7-0.5-1.2V31.4c0-0.4,0.2-0.9,0.5-1.2c0.7-0.6,1.7-0.6,2.4,0c0.3,0.3,0.5,0.7,0.5,1.2v1.2
		l-0.4-0.1c0.2-0.4,0.4-0.7,0.7-1c0.3-0.4,0.7-0.7,1.1-1c0.4-0.3,0.9-0.6,1.4-0.8C70,29.6,70.5,29.5,71.1,29.5z"/>
	<path class="st60" d="M74.4,45.9h-0.1c-0.8,0-1.6-0.3-2.2-0.9c-0.6-0.6-0.9-1.4-0.9-2.3l0-7c0-0.4-0.1-0.8-0.2-1.2
		c0-0.1-0.1-0.2-0.3-0.3c-0.2-0.1-0.5-0.2-0.8-0.2l-0.1,0l-0.1,0c-0.4,0-0.7,0.1-1.1,0.3c-0.2,0.1-0.4,0.3-0.5,0.5
		c-0.1,0.2-0.2,0.6-0.2,0.9v7c0,0.8-0.3,1.6-0.9,2.2c-1.3,1.2-3.2,1.2-4.5,0c-0.6-0.6-0.9-1.5-0.9-2.3l0-11.2c0-0.8,0.3-1.6,0.9-2.2
		c1.3-1.2,3.2-1.2,4.5,0l0.1,0.1c0.5-0.4,1.1-0.6,1.7-0.9c0.7-0.2,1.4-0.4,2.1-0.4c1.4-0.1,2.8,0.3,4,1.1l0.1,0.1c1,0.8,1.7,1.9,2,3
		c0.3,1.1,0.5,2.3,0.4,3.5v7c0,0.8-0.3,1.6-0.9,2.2C76,45.6,75.3,45.9,74.4,45.9z M64.8,33.8l0,8.9l0,0.1l0.2,0l0-0.1l0-7
		c0-0.6,0.1-1.2,0.3-1.8L64.8,33.8z M74.3,42.9l0.1,0l0.1-0.1l0-7c0-0.9-0.1-1.9-0.3-2.7c-0.1-0.6-0.5-1.1-0.9-1.4
		c-0.6-0.4-1.3-0.6-2.1-0.6l-0.1,0c-0.2,0-0.4,0-0.7,0.1c0.7,0.1,1.4,0.3,2,0.7c0.7,0.5,1.2,1.1,1.4,1.9c0.2,0.7,0.3,1.4,0.3,2.1v7
		L74.3,42.9L74.3,42.9z M64.8,31.3L64.8,31.3l0,0.6l0-0.1c0.1-0.1,0.1-0.3,0.2-0.4v0l0-0.1L64.8,31.3L64.8,31.3z"/>
	<path class="st1" d="M78.9,30h6.5c0.4,0,0.8,0.2,1.1,0.4c0.3,0.3,0.4,0.7,0.4,1.1c0,0.4-0.1,0.8-0.4,1c-0.3,0.3-0.7,0.4-1.1,0.4
		h-6.5c-0.4,0-0.8-0.2-1.1-0.4c-0.3-0.3-0.4-0.7-0.4-1.1c0-0.4,0.1-0.8,0.4-1.1C78.1,30.2,78.5,30,78.9,30z M81.9,26.6
		c0.4,0,0.9,0.2,1.2,0.5c0.3,0.3,0.5,0.8,0.5,1.2v12.2c0,0.2,0,0.4,0.1,0.6c0.1,0.2,0.2,0.3,0.4,0.4c0.2,0.1,0.4,0.1,0.6,0.1
		c0.2,0,0.4,0,0.6-0.1c0.2-0.1,0.4-0.1,0.6-0.1c0.3,0,0.5,0.1,0.7,0.4c0.2,0.3,0.3,0.6,0.3,1c0,0.5-0.3,1-0.8,1.2
		c-0.5,0.3-1.2,0.5-1.8,0.5c-0.4,0-0.8,0-1.3-0.1c-0.5-0.1-0.9-0.2-1.3-0.5c-0.4-0.3-0.8-0.7-1-1.1c-0.3-0.7-0.4-1.4-0.4-2.1V28.3
		C80.2,27.4,80.9,26.7,81.9,26.6L81.9,26.6L81.9,26.6z"/>
	<path class="st60" d="M84.2,45.9L84.2,45.9c-0.5,0-1,0-1.5-0.1c-0.7-0.1-1.3-0.3-1.9-0.7c-0.7-0.4-1.2-1-1.6-1.7
		c-0.4-0.9-0.6-1.9-0.6-2.8l0-6c-0.7,0-1.4-0.3-1.9-0.9c-0.6-0.6-0.9-1.4-0.9-2.2c0-0.7,0.3-1.5,0.9-2.1c0.5-0.5,1.2-0.8,1.9-0.8
		v-0.3c0-0.8,0.3-1.6,0.8-2.2c0.6-0.6,1.3-1,2.2-1l0.1,0c0.9,0,1.7,0.3,2.3,1c0.6,0.6,0.9,1.4,0.9,2.3v0.2h0.4
		c0.8,0,1.6,0.3,2.2,0.9c0.6,0.6,0.9,1.4,0.9,2.2c0,0.7-0.3,1.5-0.9,2.1c-0.6,0.6-1.4,0.9-2.2,0.8H85l0,5.4c0.3-0.1,0.6-0.1,0.9-0.1
		c0.7,0,1.4,0.4,1.8,0.9c0.5,0.6,0.7,1.3,0.6,2c0,1.1-0.7,2-1.6,2.5C86,45.7,85.1,45.9,84.2,45.9z M81.7,34.6l0,6
		c0,0.6,0.1,1,0.3,1.5c0.1,0.2,0.3,0.4,0.5,0.5c0.2,0.1,0.4,0.2,0.7,0.2c0.1,0,0.3,0,0.4,0l-0.1,0c-0.4-0.2-0.8-0.5-1.1-0.9
		c-0.3-0.5-0.4-1-0.4-1.5l0-5.8H81.7z M85,40.5L85,40.5z M81.7,31.6L81.7,31.6l0.2,0L81.7,31.6z M85,31.6L85,31.6l0.4,0L85,31.6z
		 M81.7,28.5H82v-0.3l0-0.2l0-0.7l0,0.7l0-0.5l0,0.5l-0.1,0.1V28.5z"/>
	<path class="st1" d="M91,28c-0.5,0-0.9-0.1-1.3-0.3c-0.3-0.3-0.4-0.7-0.4-1.1v-0.5c-0.1-0.4,0.1-0.9,0.4-1.1c0.8-0.4,1.8-0.4,2.6,0
		c0.3,0.3,0.4,0.7,0.4,1.1v0.5c0,0.4-0.1,0.8-0.4,1.1C92,27.9,91.5,28,91,28z M92.7,42.7c0,0.4-0.2,0.9-0.5,1.2
		c-0.7,0.6-1.7,0.6-2.4,0c-0.3-0.3-0.5-0.7-0.5-1.2V31.4c0-0.4,0.2-0.9,0.5-1.2c0.7-0.6,1.7-0.6,2.4,0c0.3,0.3,0.5,0.7,0.5,1.2V42.7
		z"/>
	<path class="st60" d="M91,45.9c-0.8,0-1.6-0.3-2.2-0.9c-0.6-0.6-0.9-1.5-0.9-2.3l0-11.2c0-0.8,0.3-1.6,0.9-2.2L89,29l-0.1,0
		l-0.3-0.2c-0.6-0.6-0.9-1.4-0.8-2.2v-0.4c-0.1-0.9,0.3-1.8,1-2.4l0.3-0.2c1.2-0.6,2.7-0.6,3.9,0l0.2,0.1l0.2,0.2
		c0.6,0.6,0.9,1.4,0.8,2.2v0.4c0.1,0.9-0.3,1.7-0.9,2.3l-0.2,0.2l-0.1,0l0.2,0.2c0.6,0.6,1,1.5,0.9,2.3l0,11.2
		c0,0.8-0.3,1.7-0.9,2.3C92.7,45.6,91.8,45.9,91,45.9z M90.9,31.3L90.9,31.3l0,11.4l0,0.1l0.2,0l0,0l0-0.1l0,0V31.4l0-0.1L90.9,31.3
		L90.9,31.3z M90.8,26.2v0.3l0.1,0l0.1,0l0.1,0l0.2,0v-0.3C91.1,26.2,91,26.2,90.8,26.2z"/>
	<path class="st1" d="M103.5,29.5c1.1-0.1,2.2,0.2,3.1,0.9c0.7,0.6,1.2,1.4,1.4,2.3c0.3,1,0.4,2.1,0.4,3.1v7c0,0.4-0.2,0.9-0.5,1.2
		c-0.7,0.6-1.7,0.6-2.3,0c-0.3-0.3-0.5-0.7-0.5-1.2v-7c0-0.5-0.1-1.1-0.2-1.6c-0.1-0.5-0.4-0.9-0.8-1.2c-0.5-0.3-1.1-0.5-1.7-0.4
		c-0.6,0-1.3,0.1-1.9,0.4c-0.5,0.3-0.9,0.7-1.1,1.2c-0.3,0.5-0.4,1.1-0.4,1.6v7c0,0.4-0.2,0.9-0.5,1.2c-0.3,0.3-0.7,0.5-1.2,0.5
		c-0.4,0-0.9-0.2-1.2-0.5c-0.3-0.3-0.5-0.7-0.5-1.2V31.4c0-0.4,0.2-0.9,0.5-1.2c0.3-0.3,0.7-0.5,1.2-0.5c0.4,0,0.9,0.2,1.2,0.5
		c0.3,0.3,0.5,0.7,0.5,1.2v1.2l-0.4-0.1c0.2-0.4,0.4-0.7,0.7-1c0.3-0.4,0.7-0.7,1.1-1c0.4-0.3,0.9-0.6,1.4-0.8
		C102.4,29.6,102.9,29.5,103.5,29.5z"/>
	<path class="st60" d="M97.2,45.9c-0.8,0-1.6-0.3-2.2-0.9c-0.6-0.6-0.9-1.4-0.9-2.3l0-11.3c0-0.8,0.3-1.6,0.9-2.2
		c0.6-0.6,1.4-0.9,2.3-0.9c0.8,0,1.6,0.3,2.2,0.9l0.1,0.1c0.5-0.4,1.1-0.7,1.7-0.9c0.7-0.2,1.4-0.4,2.1-0.4c1.4-0.1,2.8,0.3,4,1.1
		l0.1,0.1c0.9,0.8,1.6,1.8,1.9,3c0.3,1.1,0.5,2.3,0.4,3.5v7c0,0.8-0.3,1.6-0.9,2.2c-1.3,1.2-3.2,1.2-4.5,0c-0.6-0.6-0.9-1.5-0.9-2.3
		l0-7c0-0.4-0.1-0.8-0.2-1.2c-0.1-0.2-0.1-0.3-0.3-0.4c-0.2-0.1-0.5-0.2-0.7-0.2l-0.1,0l-0.1,0c-0.4,0-0.7,0.1-1.1,0.3
		c-0.2,0.1-0.4,0.3-0.6,0.6c-0.1,0.3-0.2,0.6-0.2,0.9l0,7c0,0.8-0.3,1.6-0.9,2.2C99,45.6,98.1,45.9,97.2,45.9L97.2,45.9z M103,31
		c0.7,0.1,1.3,0.3,1.8,0.7c0.7,0.5,1.2,1.2,1.5,2c0.2,0.7,0.3,1.4,0.3,2.1v7l0,0.1l0.2,0l0-0.1l0-7c0-0.9-0.1-1.9-0.3-2.7
		c-0.1-0.6-0.5-1.1-0.9-1.4c-0.6-0.4-1.3-0.6-2.1-0.5l-0.1,0C103.3,31,103.2,31,103,31z M97.3,42.9L97.3,42.9l0.2-0.1l0-7
		c0-0.6,0.1-1.2,0.3-1.8l-0.6-0.1l0,8.9L97.3,42.9L97.3,42.9z M97.3,31.3l-0.1,0.1V32l0.1-0.2c0.1-0.1,0.1-0.3,0.2-0.4l0-0.1l0,0
		L97.3,31.3z"/>
	<path class="st1" d="M122.3,29.8c0.4,0,0.9,0.2,1.2,0.5c0.3,0.3,0.5,0.7,0.5,1.2v6.9c0.1,1.7-0.5,3.4-1.6,4.6
		c-2.7,2.3-6.6,2.3-9.3,0c-1.1-1.3-1.7-2.9-1.6-4.6v-7c0-0.4,0.2-0.9,0.5-1.2c0.7-0.6,1.7-0.6,2.3,0c0.3,0.3,0.5,0.7,0.5,1.2v6.9
		c-0.1,0.9,0.2,1.8,0.7,2.5c0.6,0.6,1.4,0.9,2.2,0.8c0.8,0.1,1.6-0.2,2.2-0.8c0.5-0.7,0.8-1.6,0.7-2.5v-6.9c0-0.4,0.2-0.9,0.5-1.2
		C121.5,29.9,121.9,29.8,122.3,29.8z"/>
	<path class="st60" d="M117.7,46.2c-2,0-4-0.7-5.6-2.1L112,44c-1.4-1.6-2.1-3.6-2-5.7l0-6.9c0-0.8,0.3-1.6,0.9-2.2
		c1.3-1.2,3.2-1.2,4.5,0c0.6,0.6,0.9,1.5,0.9,2.3l0,7l0,0.1c0,0.5,0.1,1,0.4,1.4c0.3,0.2,0.6,0.3,1,0.3l0.1,0l0.1,0
		c0.4,0,0.7-0.1,1-0.3c0.3-0.4,0.4-0.9,0.4-1.3l0-0.1v-6.9c0-0.8,0.3-1.6,0.9-2.2c0.6-0.6,1.4-0.9,2.2-0.9c0.8,0,1.7,0.3,2.2,0.9
		c0.6,0.6,0.9,1.5,0.9,2.3l0,6.9c0.1,2-0.6,4.1-2,5.6l-0.1,0.1C121.7,45.5,119.7,46.2,117.7,46.2z M114.1,41.9
		c2.1,1.7,5.1,1.7,7.2,0c0.8-1,1.2-2.2,1.2-3.5l0-7l0-0.1l0,0l-0.1,0l-0.1,0l0,0.1v6.9c0.1,1.2-0.3,2.5-1,3.4l-0.2,0.2
		c-0.9,0.8-2,1.3-3.3,1.2c-1.2,0.1-2.4-0.4-3.3-1.2l-0.1-0.2c-0.8-1-1.1-2.2-1.1-3.5v-6.9l0-0.1l-0.2,0l0,0.1l0,7
		C112.9,39.7,113.3,41,114.1,41.9z"/>
	<path class="st1" d="M139.1,29.5c0.4,0,0.9,0.2,1.2,0.5c0.3,0.3,0.5,0.8,0.5,1.2v11.6c0,0.4-0.2,0.9-0.5,1.2
		c-0.7,0.6-1.7,0.6-2.3,0c-0.3-0.3-0.5-0.7-0.5-1.2v-1.3l0.6,0.2c0,0.3-0.2,0.6-0.4,0.9c-0.3,0.4-0.6,0.7-1,1
		c-0.5,0.4-1,0.6-1.5,0.8c-0.6,0.2-1.3,0.3-1.9,0.3c-1.2,0-2.4-0.3-3.4-1c-1-0.7-1.9-1.6-2.5-2.7c-1.2-2.5-1.2-5.4,0-7.9
		c0.5-1.1,1.4-2,2.4-2.7c1-0.7,2.1-1,3.3-1c0.7,0,1.5,0.1,2.2,0.4c0.6,0.2,1.2,0.5,1.7,0.9c0.4,0.3,0.8,0.7,1.1,1.2
		c0.2,0.3,0.4,0.6,0.4,0.9l-1,0.4v-2c0-0.4,0.2-0.9,0.5-1.2C138.2,29.7,138.6,29.5,139.1,29.5z M133.5,41.7c0.7,0,1.5-0.2,2.1-0.6
		c0.6-0.4,1.1-1,1.4-1.6c0.3-0.7,0.5-1.5,0.5-2.3c0-0.8-0.2-1.6-0.5-2.3c-0.3-0.7-0.8-1.2-1.4-1.6c-0.6-0.4-1.4-0.6-2.1-0.6
		c-0.7,0-1.5,0.2-2.1,0.6c-0.6,0.4-1.1,1-1.4,1.6c-0.4,0.7-0.5,1.5-0.5,2.3c0,0.8,0.2,1.6,0.5,2.3c0.3,0.7,0.8,1.2,1.4,1.6
		C132.1,41.5,132.8,41.7,133.5,41.7z"/>
	<path class="st60" d="M133.2,46.2L133.2,46.2c-1.5,0-3-0.4-4.3-1.2c-1.3-0.8-2.3-1.9-3-3.3c-1.4-2.9-1.4-6.3,0-9.2
		c0.7-1.4,1.7-2.5,2.9-3.3c1.3-0.8,2.7-1.2,4.2-1.2c0.9,0,1.7,0.2,2.6,0.4c0.4,0.1,0.8,0.3,1.2,0.5c0.5-0.6,1.3-0.9,2.2-0.9l0.1,0
		c0.8,0,1.6,0.3,2.2,0.9c0.6,0.6,0.9,1.5,0.9,2.3l0,11.5c0,0.8-0.3,1.6-0.9,2.2c-1.2,1.2-3.1,1.2-4.4,0.1c-0.4,0.3-0.9,0.5-1.3,0.6
		C134.9,46,134,46.2,133.2,46.2z M133.2,43.2c0.1,0,0.3,0,0.4,0h-0.1c-1,0-2-0.3-2.8-0.9c-0.8-0.6-1.5-1.3-1.9-2.2
		c-0.4-0.9-0.7-2-0.7-3c0-1,0.2-2,0.7-3c0.4-0.9,1.1-1.7,1.9-2.2c0.9-0.6,1.9-0.9,2.9-0.9c0.1,0,0.2,0,0.3,0c-0.3,0-0.5-0.1-0.8-0.1
		c-0.9,0-1.8,0.3-2.5,0.8c-0.8,0.5-1.4,1.3-1.9,2.1c-1,2.1-1,4.5,0,6.5c0.4,0.8,1.1,1.5,1.9,2.1C131.4,42.9,132.3,43.2,133.2,43.2
		L133.2,43.2z M138.4,40.2l0.8,0.3l0-6.4l-0.7,0.2c0.4,0.9,0.6,1.8,0.5,2.8C139.1,38.1,138.9,39.1,138.4,40.2L138.4,40.2z
		 M133.6,40.2L133.6,40.2c0.5,0,0.9-0.1,1.3-0.4c0.4-0.2,0.7-0.6,0.9-1c0.3-0.5,0.4-1.1,0.4-1.7c0-0.6-0.1-1.2-0.4-1.7
		c-0.2-0.4-0.5-0.8-0.9-1c-0.4-0.2-0.8-0.3-1.2-0.3c-0.5,0-0.9,0.1-1.3,0.4c-0.4,0.3-0.7,0.6-0.9,1c-0.3,0.5-0.4,1.1-0.4,1.7
		c0,0.6,0.1,1.2,0.4,1.7c0.2,0.4,0.5,0.8,0.9,1C132.7,40,133.1,40.2,133.6,40.2L133.6,40.2z M139.2,31L139.2,31l1-1L139.2,31z"/>
	<path class="st1" d="M145.5,44.4c-0.4,0-0.9-0.2-1.2-0.5c-0.3-0.3-0.5-0.7-0.5-1.2V31.4c0-0.4,0.2-0.9,0.5-1.2
		c0.7-0.6,1.7-0.6,2.4,0c0.3,0.3,0.5,0.7,0.5,1.2V34l-0.2-1.8c0.2-0.4,0.5-0.8,0.8-1.2c0.3-0.3,0.7-0.6,1.1-0.8
		c0.4-0.2,0.8-0.4,1.3-0.5c0.4-0.1,0.9-0.2,1.4-0.2c0.5,0,1,0.2,1.4,0.5c0.3,0.3,0.6,0.7,0.6,1.1c0,0.5-0.1,1-0.5,1.3
		c-0.3,0.2-0.6,0.4-1,0.4c-0.3,0-0.6-0.1-0.9-0.2c-0.3-0.1-0.7-0.2-1-0.2c-0.3,0-0.7,0.1-1,0.2c-0.4,0.2-0.7,0.4-0.9,0.7
		c-0.3,0.4-0.5,0.8-0.7,1.2c-0.2,0.6-0.3,1.1-0.3,1.7v6.5c0,0.4-0.2,0.9-0.5,1.2C146.4,44.2,146,44.4,145.5,44.4z"/>
	<path class="st60" d="M145.5,45.9c-0.8,0-1.6-0.3-2.2-0.9c-0.6-0.6-0.9-1.4-0.9-2.3l0-11.2c0-0.8,0.3-1.6,0.9-2.2
		c1.3-1.2,3.2-1.2,4.4-0.1c0.1-0.1,0.3-0.2,0.4-0.3c0.5-0.3,1.1-0.5,1.7-0.7c0.5-0.1,1.1-0.2,1.7-0.2c0.8,0,1.7,0.3,2.3,0.8
		c0.6,0.5,1.1,1.3,1.1,2.2c0.1,0.9-0.3,1.8-0.9,2.4l-0.1,0.1c-0.5,0.5-1.2,0.8-2,0.8c-0.5,0-1.1-0.1-1.6-0.3c-0.1,0-0.2-0.1-0.4-0.1
		c-0.1,0-0.3,0-0.4,0.1c-0.1,0.1-0.3,0.2-0.4,0.3c-0.2,0.2-0.3,0.5-0.4,0.7c-0.1,0.4-0.2,0.8-0.2,1.2v6.5c0,0.8-0.3,1.6-0.9,2.2
		C147.2,45.5,146.4,45.9,145.5,45.9L145.5,45.9z M145.5,42.9L145.5,42.9l0.1,0l0.1-0.1v-6.5c0-0.7,0.1-1.4,0.3-2.1l-0.3,0l-0.2-2.2
		l0.2-0.4l0.1-0.1l0-0.1l-0.2,0l0,0.1l0,11.3L145.5,42.9L145.5,42.9z M151.1,31c0.2,0,0.3,0.1,0.5,0.2c0.1,0.1,0.2,0.1,0.3,0.1l0,0
		l0-0.1c-0.2-0.1-0.3-0.2-0.4-0.1C151.4,31,151.3,31,151.1,31z M152,31.2L152,31.2L152,31.2z"/>
	<path class="st1" d="M43.8,26.2c0.5,0.2,0.8,0.6,0.8,1.1c0.1,0.5-0.1,1-0.4,1.4c-0.2,0.3-0.5,0.5-0.9,0.5c-0.4,0-0.8-0.1-1.1-0.3
		c-0.4-0.2-0.9-0.4-1.4-0.5c-0.5-0.1-1-0.2-1.5-0.2c-0.9,0-1.8,0.1-2.6,0.5c-0.8,0.3-1.4,0.7-2,1.3c-0.5,0.6-1,1.3-1.2,2
		C33.1,33,33,33.9,33,34.8c0,1,0.1,2,0.5,2.9c0.3,0.8,0.7,1.5,1.3,2c0.6,0.5,1.3,1,2,1.2c0.8,0.3,1.6,0.4,2.5,0.4c0.5,0,1,0,1.5-0.1
		c0.5-0.1,1-0.3,1.4-0.5c0.3-0.2,0.7-0.2,1.1-0.2c0.4,0.1,0.7,0.3,0.9,0.6c0.3,0.4,0.5,0.9,0.4,1.4c-0.1,0.5-0.4,0.9-0.8,1
		c-0.5,0.2-1,0.4-1.5,0.6c-0.5,0.2-1,0.3-1.5,0.3c-0.5,0.1-1,0.1-1.6,0.1c-1.3,0-2.5-0.2-3.7-0.7c-1.2-0.4-2.2-1-3.1-1.9
		c-0.9-0.8-1.7-1.9-2.2-3.1c-0.6-1.4-0.8-2.8-0.8-4.3c0-1.3,0.2-2.6,0.7-3.8c0.4-1.2,1.1-2.2,2-3.1c0.9-0.9,2-1.6,3.1-2
		c1.3-0.5,2.6-0.7,3.9-0.7c0.8,0,1.6,0.1,2.4,0.3C42.4,25.6,43.1,25.9,43.8,26.2z"/>
	<path class="st1" d="M60.8,37.1c0,1.4-0.3,2.7-1,4c-0.6,1.1-1.6,2-2.7,2.7c-2.3,1.3-5.2,1.3-7.5,0c-1.1-0.6-2-1.5-2.7-2.7
		c-1.3-2.5-1.3-5.4,0-7.9c0.6-1.1,1.6-2,2.7-2.7c2.3-1.3,5.2-1.3,7.5,0c1.1,0.6,2,1.6,2.7,2.7C60.5,34.4,60.8,35.7,60.8,37.1z
		 M57.5,37.1c0-0.8-0.1-1.7-0.5-2.4c-0.4-0.7-0.9-1.2-1.5-1.6c-0.6-0.4-1.4-0.6-2.1-0.6c-0.7,0-1.5,0.2-2.1,0.6
		c-0.6,0.4-1.2,0.9-1.5,1.6c-0.4,0.7-0.6,1.6-0.6,2.4c0,0.8,0.2,1.7,0.6,2.4c0.3,0.7,0.9,1.2,1.5,1.6c0.6,0.4,1.4,0.6,2.1,0.6
		c0.7,0,1.5-0.2,2.1-0.6c0.6-0.4,1.2-0.9,1.5-1.6C57.4,38.8,57.5,37.9,57.5,37.1z"/>
	<path class="st1" d="M71.1,29.5c1.1-0.1,2.2,0.2,3.1,0.9c0.7,0.6,1.2,1.4,1.4,2.3c0.3,1,0.4,2.1,0.4,3.1v7c0,0.4-0.2,0.9-0.5,1.2
		c-0.3,0.3-0.7,0.5-1.2,0.5c-0.4,0-0.9-0.2-1.2-0.5c-0.3-0.3-0.5-0.7-0.5-1.2v-7c0-0.5-0.1-1.1-0.2-1.6c-0.2-0.4-0.5-0.8-0.8-1.1
		c-0.5-0.3-1.1-0.5-1.7-0.4c-0.6,0-1.3,0.1-1.8,0.4c-0.5,0.3-0.8,0.6-1.1,1.1c-0.3,0.5-0.4,1.1-0.4,1.6v7c0,0.4-0.2,0.9-0.5,1.2
		c-0.7,0.6-1.7,0.6-2.4,0c-0.3-0.3-0.5-0.7-0.5-1.2V31.4c0-0.4,0.2-0.9,0.5-1.2c0.7-0.6,1.7-0.6,2.4,0c0.3,0.3,0.5,0.7,0.5,1.2v1.2
		l-0.4-0.1c0.2-0.4,0.4-0.7,0.7-1c0.3-0.4,0.7-0.7,1.1-1c0.4-0.3,0.9-0.6,1.4-0.8C70,29.6,70.5,29.5,71.1,29.5z"/>
	<path class="st1" d="M78.9,30h6.5c0.4,0,0.8,0.2,1.1,0.4c0.3,0.3,0.4,0.7,0.4,1.1c0,0.4-0.1,0.8-0.4,1c-0.3,0.3-0.7,0.4-1.1,0.4
		h-6.5c-0.4,0-0.8-0.2-1.1-0.4c-0.3-0.3-0.4-0.7-0.4-1.1c0-0.4,0.1-0.8,0.4-1.1C78.1,30.2,78.5,30,78.9,30z M81.9,26.6
		c0.4,0,0.9,0.2,1.2,0.5c0.3,0.3,0.5,0.8,0.5,1.2v12.2c0,0.2,0,0.4,0.1,0.6c0.1,0.2,0.2,0.3,0.4,0.4c0.2,0.1,0.4,0.1,0.6,0.1
		c0.2,0,0.4,0,0.6-0.1c0.2-0.1,0.4-0.1,0.6-0.1c0.3,0,0.5,0.1,0.7,0.4c0.2,0.3,0.3,0.6,0.3,1c0,0.5-0.3,1-0.8,1.2
		c-0.5,0.3-1.2,0.5-1.8,0.5c-0.4,0-0.8,0-1.3-0.1c-0.5-0.1-0.9-0.2-1.3-0.5c-0.4-0.3-0.8-0.7-1-1.1c-0.3-0.7-0.4-1.4-0.4-2.1V28.3
		C80.2,27.4,80.9,26.7,81.9,26.6L81.9,26.6L81.9,26.6z"/>
	<path class="st1" d="M91,28c-0.5,0-0.9-0.1-1.3-0.3c-0.3-0.3-0.4-0.7-0.4-1.1v-0.5c-0.1-0.4,0.1-0.9,0.4-1.1c0.8-0.4,1.8-0.4,2.6,0
		c0.3,0.3,0.4,0.7,0.4,1.1v0.5c0,0.4-0.1,0.8-0.4,1.1C92,27.9,91.5,28,91,28z M92.7,42.7c0,0.4-0.2,0.9-0.5,1.2
		c-0.7,0.6-1.7,0.6-2.4,0c-0.3-0.3-0.5-0.7-0.5-1.2V31.4c0-0.4,0.2-0.9,0.5-1.2c0.7-0.6,1.7-0.6,2.4,0c0.3,0.3,0.5,0.7,0.5,1.2V42.7
		z"/>
	<path class="st1" d="M103.5,29.5c1.1-0.1,2.2,0.2,3.1,0.9c0.7,0.6,1.2,1.4,1.4,2.3c0.3,1,0.4,2.1,0.4,3.1v7c0,0.4-0.2,0.9-0.5,1.2
		c-0.7,0.6-1.7,0.6-2.3,0c-0.3-0.3-0.5-0.7-0.5-1.2v-7c0-0.5-0.1-1.1-0.2-1.6c-0.1-0.5-0.4-0.9-0.8-1.2c-0.5-0.3-1.1-0.5-1.7-0.4
		c-0.6,0-1.3,0.1-1.9,0.4c-0.5,0.3-0.9,0.7-1.1,1.2c-0.3,0.5-0.4,1.1-0.4,1.6v7c0,0.4-0.2,0.9-0.5,1.2c-0.3,0.3-0.7,0.5-1.2,0.5
		c-0.4,0-0.9-0.2-1.2-0.5c-0.3-0.3-0.5-0.7-0.5-1.2V31.4c0-0.4,0.2-0.9,0.5-1.2c0.3-0.3,0.7-0.5,1.2-0.5c0.4,0,0.9,0.2,1.2,0.5
		c0.3,0.3,0.5,0.7,0.5,1.2v1.2l-0.4-0.1c0.2-0.4,0.4-0.7,0.7-1c0.3-0.4,0.7-0.7,1.1-1c0.4-0.3,0.9-0.6,1.4-0.8
		C102.4,29.6,102.9,29.5,103.5,29.5z"/>
	<path class="st1" d="M122.3,29.8c0.4,0,0.9,0.2,1.2,0.5c0.3,0.3,0.5,0.7,0.5,1.2v6.9c0.1,1.7-0.5,3.4-1.6,4.6
		c-2.7,2.3-6.6,2.3-9.3,0c-1.1-1.3-1.7-2.9-1.6-4.6v-7c0-0.4,0.2-0.9,0.5-1.2c0.7-0.6,1.7-0.6,2.3,0c0.3,0.3,0.5,0.7,0.5,1.2v6.9
		c-0.1,0.9,0.2,1.8,0.7,2.5c0.6,0.6,1.4,0.9,2.2,0.8c0.8,0.1,1.6-0.2,2.2-0.8c0.5-0.7,0.8-1.6,0.7-2.5v-6.9c0-0.4,0.2-0.9,0.5-1.2
		C121.5,29.9,121.9,29.8,122.3,29.8z"/>
	<path class="st1" d="M139.1,29.5c0.4,0,0.9,0.2,1.2,0.5c0.3,0.3,0.5,0.8,0.5,1.2v11.6c0,0.4-0.2,0.9-0.5,1.2
		c-0.7,0.6-1.7,0.6-2.3,0c-0.3-0.3-0.5-0.7-0.5-1.2v-1.3l0.6,0.2c0,0.3-0.2,0.6-0.4,0.9c-0.3,0.4-0.6,0.7-1,1
		c-0.5,0.4-1,0.6-1.5,0.8c-0.6,0.2-1.3,0.3-1.9,0.3c-1.2,0-2.4-0.3-3.4-1c-1-0.7-1.9-1.6-2.5-2.7c-1.2-2.5-1.2-5.4,0-7.9
		c0.5-1.1,1.4-2,2.4-2.7c1-0.7,2.1-1,3.3-1c0.7,0,1.5,0.1,2.2,0.4c0.6,0.2,1.2,0.5,1.7,0.9c0.4,0.3,0.8,0.7,1.1,1.2
		c0.2,0.3,0.4,0.6,0.4,0.9l-1,0.4v-2c0-0.4,0.2-0.9,0.5-1.2C138.2,29.7,138.6,29.5,139.1,29.5z M133.5,41.7c0.7,0,1.5-0.2,2.1-0.6
		c0.6-0.4,1.1-1,1.4-1.6c0.3-0.7,0.5-1.5,0.5-2.3c0-0.8-0.2-1.6-0.5-2.3c-0.3-0.7-0.8-1.2-1.4-1.6c-0.6-0.4-1.4-0.6-2.1-0.6
		c-0.7,0-1.5,0.2-2.1,0.6c-0.6,0.4-1.1,1-1.4,1.6c-0.4,0.7-0.5,1.5-0.5,2.3c0,0.8,0.2,1.6,0.5,2.3c0.3,0.7,0.8,1.2,1.4,1.6
		C132.1,41.5,132.8,41.7,133.5,41.7z"/>
	<path class="st1" d="M145.5,44.4c-0.4,0-0.9-0.2-1.2-0.5c-0.3-0.3-0.5-0.7-0.5-1.2V31.4c0-0.4,0.2-0.9,0.5-1.2
		c0.7-0.6,1.7-0.6,2.4,0c0.3,0.3,0.5,0.7,0.5,1.2V34l-0.2-1.8c0.2-0.4,0.5-0.8,0.8-1.2c0.3-0.3,0.7-0.6,1.1-0.8
		c0.4-0.2,0.8-0.4,1.3-0.5c0.4-0.1,0.9-0.2,1.4-0.2c0.5,0,1,0.2,1.4,0.5c0.3,0.3,0.6,0.7,0.6,1.1c0,0.5-0.1,1-0.5,1.3
		c-0.3,0.2-0.6,0.4-1,0.4c-0.3,0-0.6-0.1-0.9-0.2c-0.3-0.1-0.7-0.2-1-0.2c-0.3,0-0.7,0.1-1,0.2c-0.4,0.2-0.7,0.4-0.9,0.7
		c-0.3,0.4-0.5,0.8-0.7,1.2c-0.2,0.6-0.3,1.1-0.3,1.7v6.5c0,0.4-0.2,0.9-0.5,1.2C146.4,44.2,146,44.4,145.5,44.4z"/>
	<path class="st1" d="M187.4,32.2l-13.7-10.7c-0.7-0.6-1.7-0.4-2.3,0.3c-0.2,0.3-0.4,0.7-0.4,1c0,0.9-0.7,3.6-1.6,3.6h-5.1
		c-0.9,0-1.6,0.7-1.6,1.6v11c0,0.9,0.7,1.6,1.6,1.6h5.1c0.9,0,1.6,2.7,1.6,3.6c0,0.9,0.7,1.6,1.6,1.6c0.4,0,0.7-0.1,1-0.4l13.7-10.7
		c0.7-0.6,0.8-1.6,0.3-2.3C187.6,32.4,187.5,32.3,187.4,32.2z"/>
	<path class="st60" d="M172.7,47.4L172.7,47.4c-0.9,0-1.6-0.3-2.2-0.9s-0.9-1.4-0.9-2.2c0-0.5-0.3-1.6-0.6-2.1h-4.6
		c-1.7,0-3.1-1.4-3.1-3.1V28c0-1.7,1.4-3.1,3.1-3.1h4.6c0.3-0.5,0.6-1.7,0.6-2.1c0-0.7,0.2-1.4,0.7-2c1.1-1.3,3-1.6,4.4-0.5
		L188.3,31c0.2,0.2,0.4,0.4,0.6,0.6c1.1,1.4,0.8,3.3-0.6,4.4l-13.7,10.7C174.1,47.1,173.4,47.4,172.7,47.4z M172.6,44.3l0.2,0
		l13.7-10.7l0-0.2l0,0l-13.7-10.7l-0.2,0c0,0.8-0.6,5.2-3.1,5.2h-5.1l-0.1,0.1v11l0.1,0.1h5.1C172,39.1,172.6,43.6,172.6,44.3
		L172.6,44.3L172.6,44.3z"/>
	<path class="st1" d="M187.4,32.2l-13.7-10.7c-0.7-0.6-1.7-0.4-2.3,0.3c-0.2,0.3-0.4,0.7-0.4,1c0,0.9-0.7,3.6-1.6,3.6h-5.1
		c-0.9,0-1.6,0.7-1.6,1.6v11c0,0.9,0.7,1.6,1.6,1.6h5.1c0.9,0,1.6,2.7,1.6,3.6c0,0.9,0.7,1.6,1.6,1.6c0.4,0,0.7-0.1,1-0.4l13.7-10.7
		c0.7-0.6,0.8-1.6,0.3-2.3C187.6,32.4,187.5,32.3,187.4,32.2z"/>
</g>
</svg>
