<?xml version="1.0" encoding="utf-8"?>
<!-- Generator: Adobe Illustrator 22.0.1, SVG Export Plug-In . SVG Version: 6.00 Build 0)  -->
<svg version="1.1" id="Layer_1" xmlns="http://www.w3.org/2000/svg" xmlns:xlink="http://www.w3.org/1999/xlink" x="0px" y="0px"
	 viewBox="0 0 140.1 89" style="enable-background:new 0 0 140.1 89;" xml:space="preserve">
<style type="text/css">
	.st0{fill:#FBC013;}
	.st1{fill:#000100;}
	.st2{fill:#40B0E4;}
</style>
<g>
	<g>
		<path class="st0" d="M106.8,27.5h-9.2v17.2c0,1.2,2.8,5.7,7.5,5.7c4.6,0,7.1-4.5,7.6-8.2c0.5-3.6,0.4-8-1.4-11.2
			C109.4,27.9,106.8,27.5,106.8,27.5z"/>
		<path class="st1" d="M113.9,27.9c-2.7-3.1-6.2-3.1-6.2-3.1s-9.9,0-12.4,0c-2.5,0-2.2,1.3-2.2,1.3v34.9c0,0,0.2,1.2,2.3,1.2
			c2.1,0,2.3-1.3,2.3-1.3V49.2c0,0,3.2,3.6,7.6,3.6c4.4,0,7.7-2.3,9.5-5.5c1.8-3.2,2.1-6.1,2.1-9C117,35.2,116.6,31,113.9,27.9z
			 M111.7,41.8c-0.4,3.2-2.6,7.1-6.6,7.1c-4,0-6.5-4-6.5-5v-15h8c0,0,2.3,0.4,3.9,3.1C112,34.8,112.2,38.6,111.7,41.8z"/>
	</g>
	<g>
		<path class="st1" d="M85,43.3c0,0-2.2,6.5-8.7,5.6c-6.5-0.9-7.3-5.7-7-8.3l19.8-1.1c0,0,0.6-7.1-2.3-10.4c-3-3.3-8.2-6.3-16.3-3
			c-8.1,3.3-6.3,15.9-5.2,19.4c0,0,2.6,5.8,9.2,7.2c6.6,1.3,11.6-1.8,14.3-6.6C90.4,43.1,86,41.6,85,43.3z M79.5,28.8
			c4.8,1.1,5,6.6,5,6.6l-15.1,0.6C69.4,30.3,74.7,27.7,79.5,28.8z"/>
		<path class="st2" d="M79.8,28.4c-5.4-1.2-11.3,1.7-11.2,8l16.9-0.6C85.5,35.7,85.2,29.6,79.8,28.4z"/>
	</g>
	<path class="st1" d="M28.5,38v13.1c0,0-0.2,1.6-2.5,1.6c-2.3,0-2.3-1.7-2.3-1.7V37.9V26.6c0,0,0.1-1.8,1.9-1.8c1.8,0,10.7,0,10.7,0
		s4.5-0.5,6.8,4.6c0,0,2.5-3.6,6.3-4.4c3.8-0.8,8,1.2,9.6,3.7c1.6,2.5,2.5,6.1,2.5,9.4v13.1c0,0-0.2,1.6-2.5,1.6
		c-2.3,0-2.3-1.7-2.3-1.7V37.9c0,0,0.2-5-2.1-6.8c-2.4-1.8-5.2-2.2-7.4,0.7c-2,2.5-1.6,6.3-1.6,6.3v13.1c0,0-0.2,1.6-2.5,1.6
		c-2.3,0-2.3-1.7-2.3-1.7V37.9c0,0,0.1-9.1-6.8-9.1h-5.6V38z"/>
	<path class="st1" d="M31.6,17.1c0,3.1-2.5,5.6-5.6,5.6c-3.1,0-5.6-2.5-5.6-5.6c0-3.1,2.5-5.6,5.6-5.6
		C29.1,11.6,31.6,14.1,31.6,17.1z"/>
	<path class="st1" d="M56.7,17.1c0,3.1-2.5,5.6-5.6,5.6c-3.1,0-5.6-2.5-5.6-5.6c0-3.1,2.5-5.6,5.6-5.6
		C54.2,11.6,56.7,14.1,56.7,17.1z"/>
	<g>
		<path class="st1" d="M25.6,64.3l-1-4.5v4.9c0,0.3-0.1,0.5-0.2,0.6c-0.1,0.1-0.3,0.2-0.4,0.2c-0.2,0-0.3-0.1-0.4-0.2
			c-0.1-0.1-0.2-0.3-0.2-0.6v-5.6c0-0.3,0.1-0.5,0.2-0.6c0.1-0.1,0.3-0.2,0.6-0.2h0.4c0.2,0,0.4,0,0.5,0.1c0.1,0,0.2,0.1,0.2,0.3
			c0.1,0.1,0.1,0.3,0.2,0.6l0.9,3.9l0.9-3.9c0.1-0.3,0.1-0.5,0.2-0.6c0.1-0.1,0.1-0.2,0.2-0.3c0.1,0,0.3-0.1,0.5-0.1h0.4
			c0.3,0,0.4,0.1,0.6,0.2c0.1,0.1,0.2,0.3,0.2,0.6v5.6c0,0.3-0.1,0.5-0.2,0.6c-0.1,0.1-0.3,0.2-0.4,0.2c-0.2,0-0.3-0.1-0.4-0.2
			c-0.1-0.1-0.2-0.3-0.2-0.6v-4.9l-1,4.5c-0.1,0.3-0.1,0.5-0.2,0.6c0,0.1-0.1,0.3-0.2,0.4c-0.1,0.1-0.3,0.2-0.5,0.2
			c-0.2,0-0.3,0-0.4-0.1c-0.1-0.1-0.2-0.2-0.2-0.3c-0.1-0.1-0.1-0.2-0.1-0.4C25.7,64.6,25.7,64.5,25.6,64.3z"/>
		<path class="st1" d="M31.5,59.5c-0.2,0-0.3-0.1-0.4-0.2c-0.1-0.1-0.2-0.3-0.2-0.5c0-0.2,0.1-0.3,0.2-0.5c0.1-0.1,0.3-0.2,0.4-0.2
			c0.2,0,0.3,0.1,0.4,0.2c0.1,0.1,0.2,0.3,0.2,0.5c0,0.2-0.1,0.4-0.2,0.5C31.8,59.5,31.7,59.5,31.5,59.5z M32.1,60.9v3.8
			c0,0.3-0.1,0.5-0.2,0.6c-0.1,0.1-0.3,0.2-0.4,0.2c-0.2,0-0.3-0.1-0.4-0.2c-0.1-0.1-0.2-0.3-0.2-0.6v-3.8c0-0.3,0.1-0.5,0.2-0.6
			c0.1-0.1,0.3-0.2,0.4-0.2c0.2,0,0.3,0.1,0.4,0.2C32,60.5,32.1,60.7,32.1,60.9z"/>
		<path class="st1" d="M34.4,60.9V61c0.2-0.3,0.4-0.5,0.7-0.7c0.3-0.1,0.5-0.2,0.9-0.2c0.3,0,0.6,0.1,0.9,0.2
			c0.3,0.2,0.4,0.4,0.6,0.6c0.1,0.2,0.1,0.3,0.2,0.5c0,0.2,0,0.4,0,0.7v2.5c0,0.3-0.1,0.5-0.2,0.6c-0.1,0.1-0.3,0.2-0.4,0.2
			c-0.2,0-0.3-0.1-0.4-0.2c-0.1-0.1-0.2-0.3-0.2-0.6v-2.2c0-0.4-0.1-0.8-0.2-1c-0.1-0.2-0.3-0.3-0.7-0.3c-0.2,0-0.4,0.1-0.6,0.2
			c-0.2,0.1-0.3,0.3-0.4,0.6c-0.1,0.2-0.1,0.6-0.1,1.1v1.7c0,0.3-0.1,0.5-0.2,0.6c-0.1,0.1-0.3,0.2-0.4,0.2c-0.2,0-0.3-0.1-0.4-0.2
			c-0.1-0.1-0.2-0.3-0.2-0.6v-3.8c0-0.3,0-0.4,0.1-0.6c0.1-0.1,0.2-0.2,0.4-0.2c0.1,0,0.2,0,0.3,0.1c0.1,0.1,0.2,0.1,0.2,0.2
			C34.4,60.6,34.4,60.7,34.4,60.9z"/>
		<path class="st1" d="M39.4,59.5c-0.2,0-0.3-0.1-0.4-0.2c-0.1-0.1-0.2-0.3-0.2-0.5c0-0.2,0.1-0.3,0.2-0.5c0.1-0.1,0.3-0.2,0.4-0.2
			c0.2,0,0.3,0.1,0.4,0.2c0.1,0.1,0.2,0.3,0.2,0.5c0,0.2-0.1,0.4-0.2,0.5C39.7,59.5,39.6,59.5,39.4,59.5z M40,60.9v3.8
			c0,0.3-0.1,0.5-0.2,0.6c-0.1,0.1-0.3,0.2-0.4,0.2c-0.2,0-0.3-0.1-0.4-0.2c-0.1-0.1-0.2-0.3-0.2-0.6v-3.8c0-0.3,0.1-0.5,0.2-0.6
			c0.1-0.1,0.3-0.2,0.4-0.2c0.2,0,0.3,0.1,0.4,0.2C39.9,60.5,40,60.7,40,60.9z"/>
		<path class="st1" d="M45.1,63.8c0,0.4-0.1,0.7-0.2,0.9c-0.2,0.3-0.4,0.5-0.7,0.6c-0.3,0.1-0.7,0.2-1.2,0.2c-0.4,0-0.8-0.1-1.1-0.2
			c-0.3-0.1-0.5-0.3-0.7-0.5c-0.1-0.2-0.2-0.4-0.2-0.7c0-0.1,0-0.3,0.1-0.4c0.1-0.1,0.2-0.2,0.4-0.2c0.1,0,0.2,0,0.3,0.1
			c0.1,0.1,0.1,0.2,0.2,0.3c0.1,0.2,0.3,0.4,0.4,0.5c0.2,0.1,0.4,0.2,0.7,0.2c0.2,0,0.4-0.1,0.6-0.2c0.2-0.1,0.2-0.3,0.2-0.4
			c0-0.2-0.1-0.4-0.2-0.5c-0.2-0.1-0.4-0.2-0.8-0.3c-0.4-0.1-0.8-0.2-1-0.4c-0.3-0.1-0.5-0.3-0.6-0.5C41.1,62.2,41,62,41,61.7
			c0-0.3,0.1-0.5,0.2-0.8c0.1-0.2,0.4-0.4,0.6-0.6c0.3-0.1,0.6-0.2,1-0.2c0.3,0,0.6,0,0.8,0.1c0.2,0.1,0.5,0.2,0.6,0.3
			c0.2,0.1,0.3,0.3,0.4,0.4c0.1,0.1,0.1,0.3,0.1,0.4c0,0.2,0,0.3-0.1,0.4c-0.1,0.1-0.2,0.1-0.4,0.1c-0.1,0-0.2,0-0.3-0.1
			c-0.1-0.1-0.2-0.2-0.3-0.3c-0.1-0.1-0.2-0.2-0.3-0.3C43.3,61,43.1,61,42.9,61c-0.2,0-0.4,0-0.5,0.2c-0.1,0.1-0.2,0.2-0.2,0.4
			c0,0.1,0.1,0.3,0.2,0.3c0.1,0.1,0.2,0.2,0.4,0.2c0.2,0.1,0.4,0.1,0.7,0.2c0.4,0.1,0.7,0.2,0.9,0.4c0.2,0.1,0.4,0.3,0.5,0.5
			C45.1,63.3,45.1,63.5,45.1,63.8z"/>
		<path class="st1" d="M46.2,60.3h0.1v-0.8c0-0.2,0-0.4,0-0.5c0-0.1,0-0.2,0.1-0.3c0-0.1,0.1-0.2,0.2-0.2c0.1-0.1,0.2-0.1,0.3-0.1
			c0.2,0,0.3,0.1,0.4,0.2c0.1,0.1,0.1,0.2,0.2,0.3c0,0.1,0,0.3,0,0.5v0.9H48c0.2,0,0.3,0,0.4,0.1c0.1,0.1,0.1,0.2,0.1,0.3
			c0,0.2-0.1,0.3-0.2,0.4c-0.1,0.1-0.3,0.1-0.5,0.1h-0.2v2.4c0,0.2,0,0.4,0,0.5c0,0.1,0,0.2,0.1,0.3c0.1,0.1,0.2,0.1,0.3,0.1
			c0.1,0,0.2,0,0.3,0c0.1,0,0.2,0,0.3,0c0.1,0,0.2,0,0.3,0.1c0.1,0.1,0.1,0.2,0.1,0.3c0,0.2-0.1,0.4-0.3,0.5
			c-0.2,0.1-0.5,0.2-0.9,0.2c-0.4,0-0.7-0.1-0.9-0.2c-0.2-0.1-0.3-0.3-0.4-0.6c-0.1-0.2-0.1-0.6-0.1-1v-2.5h-0.2
			c-0.2,0-0.3,0-0.4-0.1c-0.1-0.1-0.1-0.2-0.1-0.3c0-0.1,0-0.3,0.1-0.3C45.9,60.3,46,60.3,46.2,60.3z"/>
		<path class="st1" d="M52.7,63.2h-2.4c0,0.3,0.1,0.6,0.2,0.8c0.1,0.2,0.2,0.4,0.4,0.5c0.2,0.1,0.4,0.2,0.6,0.2c0.1,0,0.3,0,0.4-0.1
			c0.1,0,0.2-0.1,0.3-0.2c0.1-0.1,0.2-0.2,0.3-0.3c0.1-0.1,0.2-0.2,0.4-0.4c0.1-0.1,0.2-0.1,0.3-0.1c0.1,0,0.2,0,0.3,0.1
			c0.1,0.1,0.1,0.2,0.1,0.3c0,0.1,0,0.3-0.1,0.4c-0.1,0.2-0.2,0.3-0.4,0.5c-0.2,0.1-0.4,0.3-0.6,0.4c-0.3,0.1-0.6,0.1-0.9,0.1
			c-0.8,0-1.4-0.2-1.8-0.7c-0.4-0.5-0.6-1.1-0.6-2c0-0.4,0.1-0.8,0.2-1.1c0.1-0.3,0.3-0.6,0.5-0.9c0.2-0.2,0.5-0.4,0.8-0.5
			c0.3-0.1,0.6-0.2,1-0.2c0.5,0,0.9,0.1,1.2,0.3c0.3,0.2,0.6,0.5,0.8,0.8c0.2,0.3,0.3,0.7,0.3,1.1c0,0.3-0.1,0.5-0.3,0.6
			C53.2,63.1,53,63.2,52.7,63.2z M50.3,62.4h2.2c0-0.5-0.1-0.8-0.3-1c-0.2-0.2-0.4-0.3-0.8-0.3c-0.3,0-0.5,0.1-0.7,0.3
			C50.5,61.6,50.4,62,50.3,62.4z"/>
		<path class="st1" d="M55.9,63.6v1.1c0,0.3-0.1,0.5-0.2,0.6c-0.1,0.1-0.3,0.2-0.4,0.2c-0.2,0-0.3-0.1-0.4-0.2
			c-0.1-0.1-0.2-0.3-0.2-0.6V61c0-0.6,0.2-0.9,0.6-0.9c0.2,0,0.3,0.1,0.4,0.2c0.1,0.1,0.1,0.3,0.1,0.6c0.1-0.3,0.3-0.5,0.4-0.6
			c0.2-0.1,0.4-0.2,0.6-0.2c0.3,0,0.5,0.1,0.7,0.2c0.2,0.1,0.4,0.3,0.4,0.6c0,0.2,0,0.3-0.2,0.4c-0.1,0.1-0.2,0.2-0.3,0.2
			c0,0-0.2,0-0.3-0.1c-0.2-0.1-0.3-0.1-0.4-0.1c-0.2,0-0.3,0-0.4,0.2c-0.1,0.1-0.2,0.3-0.3,0.5c-0.1,0.2-0.1,0.4-0.1,0.7
			C55.9,62.9,55.9,63.2,55.9,63.6z"/>
		<path class="st1" d="M59.3,59.5c-0.2,0-0.3-0.1-0.4-0.2c-0.1-0.1-0.2-0.3-0.2-0.5c0-0.2,0.1-0.3,0.2-0.5c0.1-0.1,0.3-0.2,0.4-0.2
			c0.2,0,0.3,0.1,0.4,0.2c0.1,0.1,0.2,0.3,0.2,0.5c0,0.2-0.1,0.4-0.2,0.5C59.6,59.5,59.4,59.5,59.3,59.5z M59.9,60.9v3.8
			c0,0.3-0.1,0.5-0.2,0.6c-0.1,0.1-0.3,0.2-0.4,0.2s-0.3-0.1-0.4-0.2c-0.1-0.1-0.2-0.3-0.2-0.6v-3.8c0-0.3,0.1-0.5,0.2-0.6
			c0.1-0.1,0.3-0.2,0.4-0.2s0.3,0.1,0.4,0.2C59.8,60.5,59.9,60.7,59.9,60.9z"/>
		<path class="st1" d="M65.6,62.8c0,0.4-0.1,0.8-0.2,1.1c-0.1,0.3-0.3,0.6-0.5,0.9c-0.2,0.2-0.5,0.4-0.8,0.5c-0.3,0.1-0.6,0.2-1,0.2
			c-0.4,0-0.7-0.1-1-0.2c-0.3-0.1-0.5-0.3-0.8-0.6c-0.2-0.2-0.4-0.5-0.5-0.9c-0.1-0.3-0.2-0.7-0.2-1.1c0-0.4,0.1-0.8,0.2-1.1
			c0.1-0.3,0.3-0.6,0.5-0.9c0.2-0.2,0.5-0.4,0.8-0.5c0.3-0.1,0.6-0.2,1-0.2c0.4,0,0.7,0.1,1,0.2c0.3,0.1,0.6,0.3,0.8,0.6
			c0.2,0.2,0.4,0.5,0.5,0.9C65.6,62.1,65.6,62.4,65.6,62.8z M64.4,62.8c0-0.5-0.1-1-0.3-1.3c-0.2-0.3-0.5-0.5-0.9-0.5
			c-0.2,0-0.4,0.1-0.6,0.2c-0.2,0.1-0.3,0.3-0.4,0.6c-0.1,0.3-0.1,0.6-0.1,0.9c0,0.3,0,0.6,0.1,0.9c0.1,0.3,0.2,0.5,0.4,0.6
			c0.2,0.1,0.4,0.2,0.6,0.2c0.4,0,0.7-0.1,0.9-0.5C64.3,63.8,64.4,63.4,64.4,62.8z"/>
		<path class="st1" d="M26.7,74.7v-0.1c-0.2,0.2-0.3,0.4-0.5,0.5c-0.2,0.1-0.3,0.2-0.5,0.3c-0.2,0.1-0.4,0.1-0.6,0.1
			c-0.3,0-0.6-0.1-0.8-0.2c-0.2-0.1-0.5-0.3-0.6-0.6c-0.2-0.2-0.3-0.5-0.4-0.9c-0.1-0.3-0.1-0.7-0.1-1.1c0-0.8,0.2-1.5,0.6-1.9
			c0.4-0.5,0.9-0.7,1.5-0.7c0.3,0,0.6,0.1,0.9,0.2c0.2,0.1,0.5,0.3,0.7,0.6v-2c0-0.3,0-0.5,0.1-0.6c0.1-0.1,0.2-0.2,0.4-0.2
			c0.2,0,0.3,0.1,0.4,0.2c0.1,0.1,0.1,0.3,0.1,0.6v5.8c0,0.3-0.1,0.4-0.2,0.6c-0.1,0.1-0.2,0.2-0.4,0.2c-0.2,0-0.3-0.1-0.4-0.2
			C26.7,75.1,26.7,74.9,26.7,74.7z M24.3,72.7c0,0.4,0.1,0.7,0.2,0.9c0.1,0.3,0.2,0.4,0.4,0.6c0.2,0.1,0.4,0.2,0.6,0.2
			c0.2,0,0.4-0.1,0.6-0.2c0.2-0.1,0.3-0.3,0.4-0.6c0.1-0.2,0.2-0.6,0.2-0.9c0-0.4-0.1-0.7-0.2-0.9c-0.1-0.3-0.2-0.4-0.4-0.6
			c-0.2-0.1-0.4-0.2-0.6-0.2c-0.2,0-0.4,0.1-0.6,0.2c-0.2,0.1-0.3,0.3-0.4,0.6C24.3,72.1,24.3,72.4,24.3,72.7z"/>
		<path class="st1" d="M32.4,73.1H30c0,0.3,0.1,0.6,0.2,0.8c0.1,0.2,0.3,0.4,0.4,0.5c0.2,0.1,0.4,0.2,0.6,0.2c0.1,0,0.3,0,0.4-0.1
			c0.1,0,0.2-0.1,0.3-0.2c0.1-0.1,0.2-0.2,0.3-0.3c0.1-0.1,0.2-0.2,0.4-0.4c0.1-0.1,0.2-0.1,0.3-0.1c0.1,0,0.2,0,0.3,0.1
			c0.1,0.1,0.1,0.2,0.1,0.3c0,0.1,0,0.3-0.1,0.4c-0.1,0.2-0.2,0.3-0.4,0.5c-0.2,0.1-0.4,0.3-0.6,0.4c-0.3,0.1-0.6,0.1-0.9,0.1
			c-0.8,0-1.4-0.2-1.8-0.7c-0.4-0.5-0.6-1.1-0.6-2c0-0.4,0.1-0.8,0.2-1.1c0.1-0.3,0.3-0.6,0.5-0.9c0.2-0.2,0.5-0.4,0.7-0.5
			c0.3-0.1,0.6-0.2,1-0.2c0.5,0,0.9,0.1,1.2,0.3c0.3,0.2,0.6,0.5,0.8,0.8c0.2,0.3,0.3,0.7,0.3,1.1c0,0.3-0.1,0.5-0.3,0.6
			C32.9,73,32.7,73.1,32.4,73.1z M30,72.3h2.2c0-0.5-0.1-0.8-0.3-1c-0.2-0.2-0.4-0.3-0.8-0.3c-0.3,0-0.5,0.1-0.7,0.3
			C30.2,71.5,30.1,71.9,30,72.3z"/>
		<path class="st1" d="M41,69.3h-3v1.7h2.7c0.2,0,0.3,0,0.4,0.1c0.1,0.1,0.1,0.2,0.1,0.4c0,0.2,0,0.3-0.1,0.4
			c-0.1,0.1-0.2,0.2-0.4,0.2H38v2h3.1c0.2,0,0.4,0.1,0.5,0.2c0.1,0.1,0.2,0.2,0.2,0.4c0,0.2-0.1,0.3-0.2,0.4
			c-0.1,0.1-0.3,0.2-0.5,0.2h-3.6c-0.3,0-0.5-0.1-0.6-0.2c-0.1-0.1-0.2-0.4-0.2-0.7v-5.3c0-0.2,0-0.4,0.1-0.5
			c0.1-0.1,0.1-0.2,0.3-0.3c0.1-0.1,0.3-0.1,0.5-0.1H41c0.2,0,0.4,0,0.5,0.2c0.1,0.1,0.2,0.2,0.2,0.4c0,0.2-0.1,0.3-0.2,0.4
			C41.3,69.3,41.2,69.3,41,69.3z"/>
		<path class="st1" d="M46,74.7v-0.1c-0.2,0.2-0.3,0.4-0.5,0.5c-0.2,0.1-0.3,0.2-0.5,0.3c-0.2,0.1-0.4,0.1-0.6,0.1
			c-0.3,0-0.6-0.1-0.8-0.2c-0.2-0.1-0.5-0.3-0.6-0.6c-0.2-0.2-0.3-0.5-0.4-0.9c-0.1-0.3-0.1-0.7-0.1-1.1c0-0.8,0.2-1.5,0.6-1.9
			c0.4-0.5,0.9-0.7,1.5-0.7c0.3,0,0.6,0.1,0.9,0.2c0.2,0.1,0.5,0.3,0.7,0.6v-2c0-0.3,0-0.5,0.1-0.6c0.1-0.1,0.2-0.2,0.4-0.2
			c0.2,0,0.3,0.1,0.4,0.2c0.1,0.1,0.1,0.3,0.1,0.6v5.8c0,0.3-0.1,0.4-0.2,0.6c-0.1,0.1-0.2,0.2-0.4,0.2c-0.2,0-0.3-0.1-0.4-0.2
			C46,75.1,46,74.9,46,74.7z M43.6,72.7c0,0.4,0.1,0.7,0.2,0.9c0.1,0.3,0.2,0.4,0.4,0.6c0.2,0.1,0.4,0.2,0.6,0.2
			c0.2,0,0.4-0.1,0.6-0.2c0.2-0.1,0.3-0.3,0.4-0.6c0.1-0.2,0.2-0.6,0.2-0.9c0-0.4-0.1-0.7-0.2-0.9c-0.1-0.3-0.2-0.4-0.4-0.6
			c-0.2-0.1-0.4-0.2-0.6-0.2c-0.2,0-0.4,0.1-0.6,0.2c-0.2,0.1-0.3,0.3-0.4,0.6C43.6,72.1,43.6,72.4,43.6,72.7z"/>
		<path class="st1" d="M51.4,74.7v-0.2c-0.1,0.2-0.3,0.4-0.5,0.5c-0.2,0.1-0.3,0.2-0.5,0.3c-0.2,0.1-0.4,0.1-0.6,0.1
			c-0.3,0-0.6-0.1-0.8-0.2c-0.2-0.1-0.4-0.3-0.5-0.5c-0.2-0.3-0.2-0.7-0.2-1.2v-2.6c0-0.3,0.1-0.5,0.2-0.6c0.1-0.1,0.3-0.2,0.4-0.2
			c0.2,0,0.3,0.1,0.4,0.2c0.1,0.1,0.2,0.3,0.2,0.6V73c0,0.3,0,0.6,0.1,0.8c0,0.2,0.1,0.4,0.3,0.5c0.1,0.1,0.3,0.2,0.5,0.2
			c0.2,0,0.4-0.1,0.6-0.2c0.2-0.1,0.3-0.3,0.4-0.5c0.1-0.2,0.1-0.6,0.1-1.2v-1.6c0-0.3,0.1-0.5,0.2-0.6c0.1-0.1,0.3-0.2,0.4-0.2
			c0.2,0,0.3,0.1,0.4,0.2c0.1,0.1,0.2,0.3,0.2,0.6v3.8c0,0.3-0.1,0.4-0.2,0.6c-0.1,0.1-0.2,0.2-0.4,0.2c-0.2,0-0.3-0.1-0.4-0.2
			C51.5,75.1,51.4,74.9,51.4,74.7z"/>
		<path class="st1" d="M58.1,73.8c0,0.2,0,0.3-0.1,0.5c-0.1,0.2-0.2,0.4-0.4,0.5c-0.2,0.2-0.4,0.3-0.7,0.4c-0.3,0.1-0.6,0.2-0.9,0.2
			c-0.7,0-1.3-0.2-1.7-0.7c-0.4-0.5-0.6-1.1-0.6-1.9c0-0.5,0.1-1,0.3-1.4c0.2-0.4,0.5-0.7,0.8-1c0.4-0.2,0.8-0.3,1.3-0.3
			c0.3,0,0.6,0.1,0.9,0.2c0.3,0.1,0.5,0.2,0.7,0.4c0.2,0.2,0.3,0.3,0.4,0.5c0.1,0.2,0.1,0.3,0.1,0.5c0,0.2-0.1,0.3-0.2,0.4
			c-0.1,0.1-0.2,0.2-0.4,0.2c-0.1,0-0.2,0-0.2-0.1c-0.1-0.1-0.1-0.1-0.2-0.3c-0.1-0.2-0.3-0.4-0.5-0.6c-0.2-0.1-0.4-0.2-0.6-0.2
			c-0.4,0-0.6,0.2-0.9,0.5c-0.2,0.3-0.3,0.7-0.3,1.3c0,0.2,0,0.5,0.1,0.7c0.1,0.2,0.1,0.4,0.2,0.5c0.1,0.1,0.2,0.3,0.4,0.3
			c0.1,0.1,0.3,0.1,0.5,0.1c0.2,0,0.4-0.1,0.6-0.2c0.2-0.1,0.3-0.3,0.5-0.6c0.1-0.1,0.2-0.3,0.2-0.3c0.1-0.1,0.2-0.1,0.3-0.1
			c0.1,0,0.3,0.1,0.4,0.2C58,73.5,58.1,73.7,58.1,73.8z"/>
		<path class="st1" d="M62.2,74.7c-0.3,0.2-0.6,0.4-0.8,0.6c-0.3,0.1-0.6,0.2-0.9,0.2c-0.3,0-0.6-0.1-0.8-0.2
			c-0.2-0.1-0.4-0.3-0.5-0.5c-0.1-0.2-0.2-0.5-0.2-0.7c0-0.4,0.1-0.7,0.3-0.9c0.2-0.3,0.5-0.4,0.9-0.5c0.1,0,0.3-0.1,0.6-0.1
			c0.3-0.1,0.6-0.1,0.8-0.2c0.2-0.1,0.4-0.1,0.7-0.2c0-0.3-0.1-0.6-0.2-0.8c-0.1-0.2-0.3-0.2-0.7-0.2c-0.3,0-0.5,0-0.7,0.1
			c-0.2,0.1-0.3,0.2-0.4,0.4c-0.1,0.2-0.2,0.3-0.2,0.4c0,0.1-0.1,0.1-0.3,0.1c-0.1,0-0.3,0-0.4-0.1c-0.1-0.1-0.1-0.2-0.1-0.4
			c0-0.2,0.1-0.5,0.2-0.7c0.1-0.2,0.4-0.4,0.7-0.5c0.3-0.1,0.7-0.2,1.2-0.2c0.5,0,0.9,0.1,1.2,0.2c0.3,0.1,0.5,0.4,0.6,0.7
			c0.1,0.3,0.2,0.7,0.2,1.2c0,0.3,0,0.6,0,0.8c0,0.2,0,0.5,0,0.7c0,0.2,0,0.5,0.1,0.8c0.1,0.3,0.1,0.4,0.1,0.5
			c0,0.1-0.1,0.3-0.2,0.4c-0.1,0.1-0.2,0.2-0.4,0.2c-0.1,0-0.2-0.1-0.4-0.2C62.4,75.1,62.3,74.9,62.2,74.7z M62.1,72.8
			c-0.2,0.1-0.4,0.1-0.8,0.2c-0.3,0.1-0.6,0.1-0.7,0.2c-0.1,0-0.3,0.1-0.4,0.2c-0.1,0.1-0.2,0.3-0.2,0.5c0,0.2,0.1,0.4,0.2,0.5
			c0.1,0.1,0.3,0.2,0.5,0.2c0.2,0,0.5-0.1,0.7-0.2c0.2-0.1,0.3-0.3,0.4-0.4c0.1-0.2,0.2-0.5,0.2-1V72.8z"/>
		<path class="st1" d="M68.8,73.8c0,0.2,0,0.3-0.1,0.5c-0.1,0.2-0.2,0.4-0.4,0.5c-0.2,0.2-0.4,0.3-0.7,0.4c-0.3,0.1-0.6,0.2-0.9,0.2
			c-0.7,0-1.3-0.2-1.7-0.7c-0.4-0.5-0.6-1.1-0.6-1.9c0-0.5,0.1-1,0.3-1.4c0.2-0.4,0.5-0.7,0.8-1c0.4-0.2,0.8-0.3,1.3-0.3
			c0.3,0,0.6,0.1,0.9,0.2c0.3,0.1,0.5,0.2,0.7,0.4c0.2,0.2,0.3,0.3,0.4,0.5c0.1,0.2,0.1,0.3,0.1,0.5c0,0.2-0.1,0.3-0.2,0.4
			c-0.1,0.1-0.2,0.2-0.4,0.2c-0.1,0-0.2,0-0.2-0.1c-0.1-0.1-0.1-0.1-0.2-0.3c-0.1-0.2-0.3-0.4-0.5-0.6c-0.2-0.1-0.4-0.2-0.6-0.2
			c-0.4,0-0.6,0.2-0.9,0.5c-0.2,0.3-0.3,0.7-0.3,1.3c0,0.2,0,0.5,0.1,0.7c0.1,0.2,0.1,0.4,0.2,0.5c0.1,0.1,0.2,0.3,0.4,0.3
			c0.1,0.1,0.3,0.1,0.5,0.1c0.2,0,0.4-0.1,0.6-0.2c0.2-0.1,0.3-0.3,0.5-0.6c0.1-0.1,0.2-0.3,0.2-0.3c0.1-0.1,0.2-0.1,0.3-0.1
			c0.1,0,0.3,0.1,0.4,0.2C68.8,73.5,68.8,73.7,68.8,73.8z"/>
		<path class="st1" d="M70.5,69.5c-0.2,0-0.3-0.1-0.4-0.2c-0.1-0.1-0.2-0.3-0.2-0.5c0-0.2,0.1-0.3,0.2-0.5c0.1-0.1,0.3-0.2,0.4-0.2
			c0.2,0,0.3,0.1,0.4,0.2c0.1,0.1,0.2,0.3,0.2,0.5c0,0.2-0.1,0.4-0.2,0.5C70.8,69.4,70.6,69.5,70.5,69.5z M71.1,70.8v3.8
			c0,0.3-0.1,0.5-0.2,0.6c-0.1,0.1-0.3,0.2-0.4,0.2c-0.2,0-0.3-0.1-0.4-0.2c-0.1-0.1-0.2-0.3-0.2-0.6v-3.8c0-0.3,0.1-0.5,0.2-0.6
			c0.1-0.1,0.3-0.2,0.4-0.2c0.2,0,0.3,0.1,0.4,0.2C71,70.4,71.1,70.6,71.1,70.8z"/>
		<path class="st1" d="M76.8,72.8c0,0.4-0.1,0.8-0.2,1.1c-0.1,0.3-0.3,0.6-0.5,0.9c-0.2,0.2-0.5,0.4-0.8,0.5c-0.3,0.1-0.6,0.2-1,0.2
			c-0.4,0-0.7-0.1-1-0.2c-0.3-0.1-0.5-0.3-0.8-0.6c-0.2-0.2-0.4-0.5-0.5-0.9c-0.1-0.3-0.2-0.7-0.2-1.1c0-0.4,0.1-0.8,0.2-1.1
			c0.1-0.3,0.3-0.6,0.5-0.9c0.2-0.2,0.5-0.4,0.8-0.5c0.3-0.1,0.6-0.2,1-0.2c0.4,0,0.7,0.1,1,0.2c0.3,0.1,0.6,0.3,0.8,0.6
			c0.2,0.2,0.4,0.5,0.5,0.9C76.8,72,76.8,72.4,76.8,72.8z M75.6,72.8c0-0.5-0.1-1-0.3-1.3c-0.2-0.3-0.5-0.5-0.9-0.5
			c-0.2,0-0.4,0.1-0.6,0.2c-0.2,0.1-0.3,0.3-0.4,0.6c-0.1,0.3-0.1,0.6-0.1,0.9c0,0.3,0,0.6,0.1,0.9c0.1,0.3,0.2,0.5,0.4,0.6
			c0.2,0.1,0.4,0.2,0.6,0.2c0.4,0,0.7-0.2,0.9-0.5C75.5,73.7,75.6,73.3,75.6,72.8z M74.6,68.2h0.6c0.1,0,0.2,0,0.2,0.1
			c0,0-0.1,0.1-0.2,0.3c-0.2,0.2-0.3,0.4-0.5,0.5c-0.2,0.2-0.3,0.3-0.3,0.3c-0.2,0.1-0.3,0.1-0.5,0.1c-0.1,0-0.2,0-0.2-0.1
			c0-0.1,0-0.2,0.1-0.3l0.2-0.4c0.1-0.2,0.2-0.4,0.3-0.4C74.2,68.2,74.4,68.2,74.6,68.2z"/>
		<path class="st1" d="M78.9,70.8V71c0.2-0.3,0.4-0.5,0.7-0.7c0.3-0.1,0.5-0.2,0.9-0.2c0.3,0,0.6,0.1,0.9,0.2
			c0.2,0.2,0.4,0.4,0.6,0.6c0.1,0.2,0.1,0.3,0.2,0.5c0,0.2,0,0.4,0,0.7v2.5c0,0.3-0.1,0.5-0.2,0.6c-0.1,0.1-0.3,0.2-0.4,0.2
			c-0.2,0-0.3-0.1-0.4-0.2c-0.1-0.1-0.2-0.3-0.2-0.6v-2.2c0-0.4-0.1-0.8-0.2-1c-0.1-0.2-0.3-0.3-0.7-0.3c-0.2,0-0.4,0.1-0.6,0.2
			c-0.2,0.1-0.3,0.3-0.4,0.6c-0.1,0.2-0.1,0.6-0.1,1.1v1.7c0,0.3-0.1,0.5-0.2,0.6c-0.1,0.1-0.3,0.2-0.4,0.2c-0.2,0-0.3-0.1-0.4-0.2
			c-0.1-0.1-0.2-0.3-0.2-0.6v-3.8c0-0.3,0-0.4,0.2-0.6c0.1-0.1,0.2-0.2,0.4-0.2c0.1,0,0.2,0,0.3,0.1c0.1,0.1,0.2,0.1,0.2,0.2
			C78.8,70.5,78.9,70.6,78.9,70.8z"/>
		<path class="st1" d="M88.1,72.6h-1.2v2c0,0.3-0.1,0.5-0.2,0.7c-0.1,0.1-0.3,0.2-0.5,0.2c-0.2,0-0.4-0.1-0.5-0.2
			c-0.1-0.1-0.2-0.4-0.2-0.6v-5.5c0-0.3,0.1-0.5,0.2-0.7c0.1-0.1,0.3-0.2,0.6-0.2h1.7c0.5,0,0.9,0,1.1,0.1c0.3,0.1,0.5,0.2,0.7,0.4
			c0.2,0.2,0.3,0.4,0.4,0.7c0.1,0.3,0.1,0.6,0.1,0.9c0,0.7-0.2,1.3-0.6,1.6C89.5,72.4,88.9,72.6,88.1,72.6z M87.8,69.3h-0.9v2.2h0.9
			c0.3,0,0.6,0,0.8-0.1c0.2-0.1,0.4-0.2,0.5-0.3c0.1-0.2,0.2-0.4,0.2-0.6c0-0.3-0.1-0.6-0.3-0.8C88.7,69.4,88.3,69.3,87.8,69.3z"/>
		<path class="st1" d="M94.6,74.7v-0.2c-0.1,0.2-0.3,0.4-0.5,0.5c-0.2,0.1-0.3,0.2-0.5,0.3c-0.2,0.1-0.4,0.1-0.6,0.1
			c-0.3,0-0.6-0.1-0.8-0.2c-0.2-0.1-0.4-0.3-0.5-0.5c-0.2-0.3-0.2-0.7-0.2-1.2v-2.6c0-0.3,0.1-0.5,0.2-0.6c0.1-0.1,0.3-0.2,0.4-0.2
			c0.2,0,0.3,0.1,0.4,0.2c0.1,0.1,0.2,0.3,0.2,0.6V73c0,0.3,0,0.6,0.1,0.8c0,0.2,0.1,0.4,0.3,0.5c0.1,0.1,0.3,0.2,0.5,0.2
			c0.2,0,0.4-0.1,0.6-0.2c0.2-0.1,0.3-0.3,0.4-0.5c0.1-0.2,0.1-0.6,0.1-1.2v-1.6c0-0.3,0.1-0.5,0.2-0.6c0.1-0.1,0.3-0.2,0.4-0.2
			c0.2,0,0.3,0.1,0.4,0.2c0.1,0.1,0.2,0.3,0.2,0.6v3.8c0,0.3-0.1,0.4-0.2,0.6c-0.1,0.1-0.2,0.2-0.4,0.2c-0.2,0-0.3-0.1-0.4-0.2
			C94.7,75.1,94.6,74.9,94.6,74.7z M93.7,68.2h0.6c0.1,0,0.2,0,0.2,0.1c0,0-0.1,0.1-0.2,0.3c-0.2,0.2-0.3,0.4-0.5,0.5
			c-0.2,0.2-0.3,0.3-0.3,0.3c-0.2,0.1-0.3,0.1-0.5,0.1c-0.1,0-0.2,0-0.2-0.1c0-0.1,0-0.2,0.1-0.3l0.2-0.4c0.1-0.2,0.2-0.4,0.3-0.4
			C93.4,68.2,93.6,68.2,93.7,68.2z"/>
		<path class="st1" d="M98.1,68.9v2c0.2-0.3,0.5-0.5,0.7-0.6c0.2-0.1,0.5-0.2,0.9-0.2c0.4,0,0.7,0.1,1,0.3c0.3,0.2,0.5,0.5,0.7,0.9
			c0.2,0.4,0.2,0.9,0.2,1.4c0,0.4,0,0.8-0.1,1.1c-0.1,0.3-0.2,0.6-0.4,0.9c-0.2,0.2-0.4,0.4-0.6,0.6c-0.3,0.1-0.5,0.2-0.8,0.2
			c-0.2,0-0.4,0-0.5-0.1c-0.2,0-0.3-0.1-0.4-0.2c-0.1-0.1-0.2-0.2-0.3-0.2c-0.1-0.1-0.2-0.2-0.3-0.4v0.1c0,0.2-0.1,0.4-0.2,0.6
			c-0.1,0.1-0.2,0.2-0.4,0.2c-0.2,0-0.3-0.1-0.4-0.2c-0.1-0.1-0.2-0.3-0.2-0.6v-5.8c0-0.3,0-0.5,0.1-0.6c0.1-0.1,0.2-0.2,0.4-0.2
			c0.2,0,0.3,0.1,0.4,0.2C98,68.4,98.1,68.6,98.1,68.9z M98.1,72.8c0,0.5,0.1,0.9,0.3,1.2c0.2,0.3,0.5,0.4,0.9,0.4
			c0.3,0,0.6-0.1,0.8-0.4c0.2-0.3,0.3-0.7,0.3-1.2c0-0.3,0-0.6-0.1-0.9c-0.1-0.3-0.2-0.4-0.4-0.6c-0.2-0.1-0.4-0.2-0.6-0.2
			c-0.2,0-0.4,0.1-0.6,0.2c-0.2,0.1-0.3,0.3-0.4,0.6C98.2,72.1,98.1,72.4,98.1,72.8z"/>
		<path class="st1" d="M102.5,74.6v-5.7c0-0.3,0.1-0.5,0.2-0.6c0.1-0.1,0.3-0.2,0.4-0.2c0.2,0,0.3,0.1,0.4,0.2
			c0.1,0.1,0.2,0.3,0.2,0.6v5.7c0,0.3-0.1,0.5-0.2,0.6c-0.1,0.1-0.3,0.2-0.4,0.2c-0.2,0-0.3-0.1-0.4-0.2
			C102.5,75.1,102.5,74.9,102.5,74.6z"/>
		<path class="st1" d="M105.5,69.5c-0.2,0-0.3-0.1-0.4-0.2c-0.1-0.1-0.2-0.3-0.2-0.5c0-0.2,0.1-0.3,0.2-0.5c0.1-0.1,0.3-0.2,0.4-0.2
			c0.2,0,0.3,0.1,0.4,0.2c0.1,0.1,0.2,0.3,0.2,0.5c0,0.2-0.1,0.4-0.2,0.5C105.8,69.4,105.7,69.5,105.5,69.5z M106.1,70.8v3.8
			c0,0.3-0.1,0.5-0.2,0.6c-0.1,0.1-0.3,0.2-0.4,0.2c-0.2,0-0.3-0.1-0.4-0.2c-0.1-0.1-0.2-0.3-0.2-0.6v-3.8c0-0.3,0.1-0.5,0.2-0.6
			c0.1-0.1,0.3-0.2,0.4-0.2c0.2,0,0.3,0.1,0.4,0.2C106.1,70.4,106.1,70.6,106.1,70.8z"/>
		<path class="st1" d="M111.7,73.8c0,0.2,0,0.3-0.1,0.5c-0.1,0.2-0.2,0.4-0.4,0.5c-0.2,0.2-0.4,0.3-0.7,0.4
			c-0.3,0.1-0.6,0.2-0.9,0.2c-0.7,0-1.3-0.2-1.7-0.7c-0.4-0.5-0.6-1.1-0.6-1.9c0-0.5,0.1-1,0.3-1.4c0.2-0.4,0.5-0.7,0.8-1
			c0.4-0.2,0.8-0.3,1.3-0.3c0.3,0,0.6,0.1,0.9,0.2c0.3,0.1,0.5,0.2,0.7,0.4c0.2,0.2,0.3,0.3,0.4,0.5c0.1,0.2,0.1,0.3,0.1,0.5
			c0,0.2-0.1,0.3-0.2,0.4c-0.1,0.1-0.2,0.2-0.4,0.2c-0.1,0-0.2,0-0.2-0.1c-0.1-0.1-0.1-0.1-0.2-0.3c-0.1-0.2-0.3-0.4-0.5-0.6
			c-0.2-0.1-0.4-0.2-0.6-0.2c-0.4,0-0.6,0.2-0.9,0.5c-0.2,0.3-0.3,0.7-0.3,1.3c0,0.2,0,0.5,0.1,0.7c0.1,0.2,0.1,0.4,0.2,0.5
			c0.1,0.1,0.2,0.3,0.4,0.3c0.1,0.1,0.3,0.1,0.5,0.1c0.2,0,0.4-0.1,0.6-0.2c0.2-0.1,0.3-0.3,0.5-0.6c0.1-0.1,0.2-0.3,0.2-0.3
			c0.1-0.1,0.2-0.1,0.3-0.1c0.1,0,0.3,0.1,0.4,0.2C111.7,73.5,111.7,73.7,111.7,73.8z"/>
		<path class="st1" d="M115.8,74.7c-0.3,0.2-0.6,0.4-0.8,0.6c-0.3,0.1-0.6,0.2-0.9,0.2c-0.3,0-0.6-0.1-0.8-0.2
			c-0.2-0.1-0.4-0.3-0.5-0.5c-0.1-0.2-0.2-0.5-0.2-0.7c0-0.4,0.1-0.7,0.3-0.9c0.2-0.3,0.5-0.4,0.9-0.5c0.1,0,0.3-0.1,0.6-0.1
			c0.3-0.1,0.6-0.1,0.8-0.2c0.2-0.1,0.5-0.1,0.7-0.2c0-0.3-0.1-0.6-0.2-0.8c-0.1-0.2-0.3-0.2-0.7-0.2c-0.3,0-0.5,0-0.7,0.1
			c-0.2,0.1-0.3,0.2-0.4,0.4c-0.1,0.2-0.2,0.3-0.2,0.4c0,0.1-0.1,0.1-0.3,0.1c-0.1,0-0.3,0-0.3-0.1c-0.1-0.1-0.1-0.2-0.1-0.4
			c0-0.2,0.1-0.5,0.2-0.7c0.1-0.2,0.4-0.4,0.7-0.5c0.3-0.1,0.7-0.2,1.2-0.2c0.5,0,0.9,0.1,1.2,0.2c0.3,0.1,0.5,0.4,0.6,0.7
			c0.1,0.3,0.2,0.7,0.2,1.2c0,0.3,0,0.6,0,0.8c0,0.2,0,0.5,0,0.7c0,0.2,0,0.5,0.1,0.8c0.1,0.3,0.1,0.4,0.1,0.5
			c0,0.1-0.1,0.3-0.2,0.4c-0.1,0.1-0.2,0.2-0.4,0.2c-0.1,0-0.2-0.1-0.4-0.2C116.1,75.1,115.9,74.9,115.8,74.7z M115.7,72.8
			c-0.2,0.1-0.4,0.1-0.8,0.2c-0.3,0.1-0.6,0.1-0.7,0.2c-0.1,0-0.3,0.1-0.4,0.2c-0.1,0.1-0.2,0.3-0.2,0.5c0,0.2,0.1,0.4,0.2,0.5
			c0.1,0.1,0.3,0.2,0.5,0.2c0.2,0,0.5-0.1,0.7-0.2c0.2-0.1,0.3-0.3,0.4-0.4c0.1-0.2,0.2-0.5,0.2-1V72.8z"/>
	</g>
</g>
</svg>
