<svg xmlns="http://www.w3.org/2000/svg" viewBox="0 0 150 150"><defs><style>.cls-1{isolation:isolate;}.cls-2{fill:#002451;opacity:0.27;}.cls-3{fill:#fff2cc;}.cls-4{fill:#29abe2;}.cls-5,.cls-7{opacity:0.2;}.cls-5{mix-blend-mode:multiply;}.cls-6{fill:#fff;}.cls-8{fill:#000f56;}.cls-9{fill:#6b5d54;}.cls-10{fill:none;stroke:#1e134d;stroke-linecap:round;stroke-linejoin:round;stroke-width:0.87px;}</style></defs><title>lab02-</title><g class="cls-1"><g id="Layer_1" data-name="Layer 1"><rect class="cls-2" x="18.06" y="13.19" width="120.09" height="120.09" rx="36.12" ry="36.12"/><rect class="cls-3" x="14.96" y="10.09" width="120.09" height="120.09" rx="36.12" ry="36.12"/><path class="cls-4" d="M134.57,99.89H121.63A17.11,17.11,0,0,0,104.51,117v12.74A36.14,36.14,0,0,0,134.57,99.89Z"/><g class="cls-5"><rect x="116.92" y="108.39" width="1.38" height="10.82"/><polygon points="117.58 104.28 114.79 109.11 120.36 109.11 117.58 104.28"/><polygon points="117.61 123.23 120.4 118.4 114.83 118.4 117.61 123.23"/><rect x="112.2" y="113.11" width="10.82" height="1.38"/><polygon points="108.12 113.77 112.95 116.56 112.95 110.99 108.12 113.77"/><polygon points="127.07 113.74 122.24 110.95 122.24 116.53 127.07 113.74"/></g><rect class="cls-6" x="115.92" y="107.39" width="1.38" height="10.82"/><polygon class="cls-6" points="116.58 103.28 113.79 108.11 119.36 108.11 116.58 103.28"/><polygon class="cls-6" points="116.61 122.23 119.4 117.4 113.83 117.4 116.61 122.23"/><rect class="cls-6" x="111.2" y="112.11" width="10.82" height="1.38"/><polygon class="cls-6" points="107.12 112.77 111.95 115.56 111.95 109.99 107.12 112.77"/><polygon class="cls-6" points="126.07 112.74 121.24 109.95 121.24 115.53 126.07 112.74"/><g class="cls-7"><path class="cls-8" d="M69.79,136.64a6.46,6.46,0,0,1-2.6-.56,8.29,8.29,0,0,1-3.41-2.92h0l-.8,0c-3.67.21-7.84.45-10-2.5a5.4,5.4,0,0,1-.6-5.21c.85-2.22,2.58-4.16,4.41-6.21,1.33-1.49,3.34-3.74,3.54-4.87a36.2,36.2,0,0,0,0-9.18l-.1-1.2c-.74-8.12-1.67-18.23-7-25.11-2.44-3.16-5.77-5.67-9.3-8.34-1.58-1.19-3.21-2.42-4.79-3.73-3.2-2.67-15.89-17-18-20.94a4.19,4.19,0,0,1-.17-3.64l.08-.18c.84-2,2.66-4.15,6.57-3a4.14,4.14,0,0,1,1,.43c.1-1.92.2-3.78.29-5.24.2-2.94.36-5.29,2.75-6.36a4.22,4.22,0,0,1,4.05-.53,4.33,4.33,0,0,1,2.66,4.06l0,1.54C38.15,36.85,38,46.12,38,49.67l1,1.08,2.69,2.85a67.16,67.16,0,0,0,1.13-13.33c0-1.75,0-3.67.11-5.69.09-3.35.19-6.81,0-9.76a5.17,5.17,0,0,1,4-5.41c-.39-.8-.77-1.6-1.16-2.39a4.59,4.59,0,0,1-.29-.81c-.44-1.75-1.18-4.69,1.7-6.32s5.07.57,5.89,1.4a4,4,0,0,1,.67.87l2.49,4.31,3.3-6.34A4.18,4.18,0,0,1,66.13,9l.81.73a4.19,4.19,0,0,1,1,4.89l-1.06,2.23c1.25.28,2.94.87,5.45,1.74l2.09.73c-.34-1.6-.77-3.57-1.34-6a5,5,0,0,1-.16-.91c0-.51-.14-1.13-.22-1.66-.77-5.1,2-5.85,2.93-6.09,3.74-1,5.12,2.49,6,4.8a1.15,1.15,0,0,1,.06.17c.67,1.92,2.12,6.79,3.79,12.77a5,5,0,0,1,3.76.78,5.87,5.87,0,0,1,.77.63,4.17,4.17,0,0,1,3.3-.29l.87.3A4.17,4.17,0,0,1,97,28l-.43,7.51,6.1-15.4a1.47,1.47,0,0,1,.1-.22l.84-1.83A4.18,4.18,0,0,1,111.44,21c-.23.81-1.11,4.09-2.12,7.88-.26,1-.51,1.92-.76,2.83a4.37,4.37,0,0,1,1.4.39,4.21,4.21,0,0,1,2.28,2.87,4.36,4.36,0,0,1,.53,2.19,4.48,4.48,0,0,1-1.91,3.43l-.37.3c-.28.22-2.6,2.15-5.8,4.83A201.71,201.71,0,0,1,87.5,83.77l-.65,1.12C82,93.28,76.88,102,79.06,110c1.35,5,7.32,8.65,11.27,11.08a25,25,0,0,1,4,2.81,5.26,5.26,0,0,1,1,7c-2.44,3.46-8.71,3.3-12,1.67-1.07-.54-4.32-2.18-5.21-1.6a11.23,11.23,0,0,0-1.58,1.59C75.34,134,73,136.64,69.79,136.64Zm-5.27-11.88a6.17,6.17,0,0,1,2.59.46A7.58,7.58,0,0,1,70,127.48l.37-.42A16.07,16.07,0,0,1,73.65,124a9,9,0,0,1,4.26-1.41A21.45,21.45,0,0,1,71,112.22c-2.16-8,.22-15.62,3.73-22.69a6.21,6.21,0,0,1-2.33-.25,6.38,6.38,0,0,1-4.52-5.11,39.46,39.46,0,0,1-.54-11,7.91,7.91,0,0,1-4,2.73,7,7,0,0,1-1.8.29c5.32,8.43,6.27,18.7,7,27.1v0l.1,1.19a43.18,43.18,0,0,1-.06,11.35c-.61,3.45-3.21,6.37-5.51,8.94C63.58,124.78,64.07,124.76,64.52,124.76ZM81,65.48l-2.27,1.89c-2.38,1.95-3.44,5.41-3.19,10.52A45.63,45.63,0,0,0,81,65.48ZM53.13,59c.95,1.44,4.9,5.33,7.71,7.88a51.77,51.77,0,0,0,.84-12.22c-.29-2.21-2.15-7.23-4.8-13.52-1.42,1.23-2.73,2.38-3.57,3.14,0,.36-.06.74-.09,1.13C52.91,49.46,52.43,55.59,53.13,59ZM70,61.32c-.1,1.46-.26,3-.47,4.42a16.37,16.37,0,0,1,1.92-2.85l-.22-.17A6,6,0,0,1,70,61.32Zm10.7-12.74A31.46,31.46,0,0,0,79,52.19l2.12-1.58C81,50,80.84,49.28,80.67,48.58ZM65.89,33.29l4.59,8.24,2.68-3.86c.14-.19.49-.75,1-1.53.9-1.39,1.71-2.63,2.44-3.74-.25-1-.48-1.92-.69-2.77-1.14-.51-2.9-1.21-4.46-1.81a6.89,6.89,0,0,1-.59.85A50.7,50.7,0,0,1,65.89,33.29Zm3.21-4.2,0,.05h0Z"/></g><path class="cls-6" d="M69.79,134.69a6.46,6.46,0,0,1-2.6-.56,8.29,8.29,0,0,1-3.41-2.92h0l-.8.05c-3.67.21-7.84.45-10-2.49a5.42,5.42,0,0,1-.6-5.22c.85-2.22,2.58-4.16,4.41-6.21,1.33-1.49,3.34-3.74,3.54-4.87a36.2,36.2,0,0,0,0-9.18l-.1-1.19c-.74-8.13-1.67-18.24-7-25.12-2.44-3.16-5.77-5.67-9.3-8.34-1.58-1.19-3.21-2.42-4.79-3.73-3.2-2.67-15.89-17-18-20.94a4.19,4.19,0,0,1-.17-3.64l.08-.18c.84-2,2.66-4.15,6.57-3a4.14,4.14,0,0,1,1,.43c.1-1.92.2-3.78.29-5.24.2-2.94.36-5.29,2.75-6.36a4.22,4.22,0,0,1,4.05-.53,4.33,4.33,0,0,1,2.66,4.06l0,1.54C38.15,34.91,38,44.18,38,47.72l1,1.09,2.69,2.84a67.09,67.09,0,0,0,1.13-13.33c0-1.75,0-3.66.11-5.69.09-3.35.19-6.8,0-9.76a5.16,5.16,0,0,1,4-5.4l-1.16-2.4a4.59,4.59,0,0,1-.29-.81c-.44-1.75-1.18-4.69,1.7-6.32s5.07.57,5.89,1.4a4,4,0,0,1,.67.87l2.49,4.31,3.3-6.34a4.2,4.2,0,0,1,3-2.19,4.15,4.15,0,0,1,3.54,1l.81.72a4.19,4.19,0,0,1,1,4.89l-1.06,2.23c1.25.28,2.94.87,5.45,1.74l2.09.73c-.34-1.59-.77-3.57-1.34-6a5.24,5.24,0,0,1-.16-.92c0-.5-.14-1.13-.22-1.66-.77-5.1,2-5.84,2.93-6.09,3.74-1,5.12,2.49,6,4.8a1.15,1.15,0,0,1,.06.17c.67,1.92,2.12,6.79,3.79,12.77a5,5,0,0,1,3.76.78,5.87,5.87,0,0,1,.77.63,4.13,4.13,0,0,1,3.3-.28l.87.29A4.18,4.18,0,0,1,97,26l-.43,7.5,6.1-15.4a2.14,2.14,0,0,1,.1-.22l.84-1.83A4.18,4.18,0,0,1,111.44,19c-.23.81-1.11,4.09-2.12,7.88-.26,1-.51,1.92-.76,2.83a4.37,4.37,0,0,1,1.4.39A4.21,4.21,0,0,1,112.24,33a4.36,4.36,0,0,1,.53,2.19,4.48,4.48,0,0,1-1.91,3.43l-.37.3c-.28.22-2.6,2.15-5.8,4.84A201.91,201.91,0,0,1,87.5,81.82l-.65,1.12c-4.9,8.39-10,17.06-7.79,25.15,1.35,5,7.32,8.65,11.27,11.08a24.31,24.31,0,0,1,4,2.82,5.26,5.26,0,0,1,1,7c-2.44,3.45-8.71,3.29-12,1.66-1.07-.54-4.32-2.18-5.21-1.6a11.23,11.23,0,0,0-1.58,1.59C75.34,132.06,73,134.69,69.79,134.69Zm-5.27-11.88a6.17,6.17,0,0,1,2.59.46A7.58,7.58,0,0,1,70,125.53l.37-.42A16.34,16.34,0,0,1,73.65,122a9,9,0,0,1,4.26-1.41A21.4,21.4,0,0,1,71,110.27c-2.16-8,.22-15.61,3.73-22.69a6.42,6.42,0,0,1-6.85-5.36,39.46,39.46,0,0,1-.54-11,7.91,7.91,0,0,1-4,2.73,6.63,6.63,0,0,1-1.8.29c5.32,8.43,6.27,18.7,7,27.11v0l.1,1.19a43.18,43.18,0,0,1-.06,11.35c-.61,3.45-3.21,6.37-5.51,9C63.58,122.84,64.07,122.81,64.52,122.81ZM81,63.53l-2.27,1.89c-2.38,2-3.44,5.41-3.19,10.52A45.63,45.63,0,0,0,81,63.53ZM53.13,57c.95,1.45,4.9,5.33,7.71,7.88a51.77,51.77,0,0,0,.84-12.22c-.29-2.21-2.15-7.23-4.8-13.52-1.42,1.23-2.73,2.38-3.57,3.14,0,.36-.06.74-.09,1.13C52.91,47.51,52.43,53.64,53.13,57ZM70,59.38c-.1,1.45-.26,2.95-.47,4.41a16.37,16.37,0,0,1,1.92-2.85l-.22-.17A6.2,6.2,0,0,1,70,59.38Zm10.7-12.75A31.46,31.46,0,0,0,79,50.24l2.12-1.58C81,48,80.84,47.33,80.67,46.63ZM65.89,31.35l4.59,8.23,2.68-3.86c.14-.19.49-.75,1-1.53.9-1.39,1.71-2.63,2.44-3.74-.25-1-.48-1.92-.69-2.77-1.14-.51-2.9-1.21-4.46-1.81a6.89,6.89,0,0,1-.59.85A51.53,51.53,0,0,1,65.89,31.35Zm3.21-4.21s0,0,0,.05h0Z"/><path class="cls-9" d="M64.35,101.72c-.88-9.56-2-19.69-7.83-27.3-4-5.15-9.72-8.57-14.72-12.73-2.93-2.44-15.24-16.4-17-19.72.44-1,.39-1.17,1.61-.8C27.45,42.54,30,45.35,32,47.44c.48.51.9-18.16,1.39-17.65.23.25.73-.73.73-.36-.1,4.88-.44,19.83-.26,20,2.32,2.46,4.58,4.82,6,6.38a6.38,6.38,0,0,0,3.23,1.45c1.44-.07,1.89-1.36,2.18-2.51A67.21,67.21,0,0,0,47,38.32c0-4.59.39-10.71.15-15.64,0-.7.83-2.33,1.53.55.45,1.88.46,10.67.65,14.07,0,.49,16.61-13.06,17.35-13.56s2-1,.92.37c-1.4,1.74-18.3,15.78-18.34,16.33-.31,4.79-1.27,13.18-.1,17.89.51,2.1,9,9.8,10.62,11.18S64,69.34,64.36,68a51.61,51.61,0,0,0,1.46-15.89C64.9,45,52.2,18.57,49.61,13.25c-.51-2.05-.51-2.05.59-.95l6.3,10.92,6.82-13.11.8.73-6.63,14L70.08,47.47l6.51-9.36c.74-1.06,8.33-13.13,9.55-13.56S88,26.46,88,27.75c-1.8,2-9.08,13.42-10.41,15.72a36.88,36.88,0,0,0-4.4,12.32,1.91,1.91,0,0,0,2.53,2.1l12.36-9.2A4.73,4.73,0,0,0,90,45.37l2-19.88.88.3L91.78,44.27a.81.81,0,0,0,1.28.7l15.1-11.09c.07,1.7,1.08.64-.3,1.75-1,.81-30.78,25.76-31.75,26.55-5.39,4.4-5.3,12.26-4.12,19.36a2.23,2.23,0,0,0,3.81,1.18c.24-.27.47-.55.69-.83a49.76,49.76,0,0,0,10.2-26.75C86.84,53,81.53,33.21,79.56,25c-.22-.93-13.76-5.49-13.88-6.08-.09-.4,10.31,3.62,13.7,4.37.85.19-2.33-13.13-2.33-13.17-.21-2.43-1.12-5.69.68-1.12,2.47,7.16,12.2,42.84,12,47.77,0,.85.62,3.88.91,3.08l15.92-40.17.85-1.83c-.66,2.27-5.81,21.81-6.55,24.06a197.52,197.52,0,0,1-17,37.82C78.57,88.84,72.27,99,75,109.18,77.41,118,89,122.64,91.48,125s-3.27,3.41-6.22,1.92-6.57-3.16-9.35-1.38c-2.55,1.63-4.29,5.94-7.08,4.75-1.49-.64-1.93-2.54-3.41-3.2-1.2-.53-10.47,1.44-9.14-2.06s7.44-7.76,8.16-11.84C65.11,109.41,64.66,105.51,64.35,101.72Z"/><path class="cls-10" d="M108.16,33.88l-6.31,4.63c1.74-6.31,5.06-18.87,5.58-20.67l-.85,1.83L98,41.35,93.06,45a.81.81,0,0,1-1.28-.7l1.07-18.48-.88-.3L90,45.37a4.72,4.72,0,0,1-1.65,3.11c-1-4.46-2.39-10.1-3.87-15.76a56.91,56.91,0,0,1,3.56-5c-.06-1.29-.68-3.64-1.9-3.2-.41.14-1.55,1.61-2.9,3.53C81,19.65,78.74,11.93,77.73,9c-1.8-4.57-.89-1.31-.68,1.12,0,0,3.18,13.36,2.33,13.17-3.39-.75-13.79-4.77-13.7-4.37.12.59,13.66,5.15,13.88,6.08.4,1.67.94,3.83,1.55,6.22C79,34.38,77,37.59,76.59,38.11l-6.51,9.36L60.59,30.41c3.43-3,6.45-5.61,7-6.3,1.1-1.37-.18-.87-.92-.37-.31.21-3.33,2.66-6.78,5.42l-2.4-4.32,6.63-14-.8-.73L56.5,23.22,50.2,12.3c-1.1-1.1-1.1-1.1-.58.95,1.23,2.53,4.75,9.84,8.2,17.57-4.27,3.42-8.48,6.73-8.5,6.48-.19-3.4-.2-12.19-.65-14.07-.7-2.88-1.56-1.25-1.53-.55.24,4.93-.15,11-.15,15.64a67.21,67.21,0,0,1-1.73,16.44c-.29,1.15-.74,2.44-2.18,2.51a6.38,6.38,0,0,1-3.23-1.45c-1.44-1.56-3.7-3.92-6-6.38-.18-.18.16-15.13.26-20,0-.37-.5.61-.73.36C32.87,29.28,32.45,48,32,47.44c-1.93-2.09-4.52-4.9-5.61-6.27-1.22-.37-1.17-.22-1.61.8,1.81,3.32,14.12,17.28,17,19.72,5,4.16,10.75,7.58,14.72,12.73,5.86,7.61,6.95,17.74,7.83,27.3.31,3.79.76,7.69.09,11.47-.72,4.08-6.86,8.41-8.16,11.84s7.94,1.53,9.14,2.06c1.48.66,1.92,2.56,3.41,3.2,2.79,1.19,4.53-3.12,7.08-4.75,2.78-1.78,6.39-.11,9.35,1.38s8.68.44,6.22-1.92S77.41,118,75,109.18C72.27,99,78.57,88.84,83.89,79.72a197.52,197.52,0,0,0,17-37.82c.05-.14.11-.34.19-.6,3.75-3.14,6.5-5.44,6.8-5.67C109.24,34.52,108.23,35.58,108.16,33.88ZM64.36,68c-.41,1.33-3,2.89-4.59,1.5S49.66,60.43,49.15,58.33c-1.17-4.71-.21-13.1.1-17.89,0-.29,4.61-4.23,9.2-8.19,3.58,8.08,6.92,16.34,7.38,19.87A52,52,0,0,1,64.36,68Zm8.87-12.22a36.88,36.88,0,0,1,4.4-12.32c.63-1.09,2.6-4.25,4.69-7.47,1.31,5.15,2.68,10.59,3.53,14.38L75.76,57.89A1.91,1.91,0,0,1,73.23,55.79Zm3.26,26.1c-.22.28-.45.56-.69.83A2.23,2.23,0,0,1,72,81.54c-1.18-7.1-1.27-15,4.12-19.36L86.49,53.5a8.19,8.19,0,0,1,.2,1.64A49.76,49.76,0,0,1,76.49,81.89Zm14.17-22c-.29.8-.94-2.23-.91-3.08A30.81,30.81,0,0,0,89,51.42l7.51-6.29Z"/></g></g></svg>