<?xml version="1.0" encoding="utf-8"?>
<!-- Generator: Adobe Illustrator 24.0.0, SVG Export Plug-In . SVG Version: 6.00 Build 0)  -->
<svg version="1.1" id="Capa_1" xmlns="http://www.w3.org/2000/svg" xmlns:xlink="http://www.w3.org/1999/xlink" x="0px" y="0px"
	 viewBox="0 0 93.2 30.4" style="enable-background:new 0 0 93.2 30.4;" xml:space="preserve">
<style type="text/css">
	.st0{opacity:0.3;}
	.st1{fill:url(#SVGID_1_);}
	.st2{fill:#FFFFFF;}
	.st3{fill:#29ABE2;}
	.st4{fill:#005DBA;}
	.st5{fill:#0071BC;}
</style>
<title>08</title>
<g>
	<g>
		<g class="st0">
			<path d="M18.3,29c-0.6,0-1.2-0.2-1.8-0.6L3.9,18.5c-0.7-0.5-1.1-1.4-1.1-2.3s0.4-1.7,1.1-2.3L16.6,4c0.5-0.4,1.1-0.6,1.8-0.6
				c1.6,0,2.9,1.3,2.9,2.9c0,0.4,0.3,1.5,0.6,2H26c1.6,0,2.9,1.3,2.9,2.9v10.1c0,1.6-1.3,2.9-2.9,2.9h-4.3c-0.3,0.5-0.6,1.6-0.6,2
				c0,0.8-0.3,1.5-0.9,2.1C19.8,28.7,19.1,29,18.3,29L18.3,29z"/>
			<path d="M18.3,4.8c0.8,0,1.5,0.6,1.5,1.5c0,0.8,0.7,3.3,1.5,3.3H26c0.8,0,1.5,0.7,1.5,1.5v10.1c0,0.8-0.7,1.5-1.5,1.5h-4.7
				c-0.8,0-1.5,2.5-1.5,3.3c0,0.9-0.7,1.5-1.5,1.5c-0.3,0-0.6-0.1-0.9-0.3L4.7,17.4C4,16.8,4,15.6,4.7,15l12.6-9.9
				C17.7,4.9,18,4.8,18.3,4.8 M18.3,2.1c-0.9,0-1.8,0.3-2.6,0.9L3.1,12.9c-1,0.8-1.6,2-1.6,3.3s0.6,2.5,1.6,3.3l12.6,9.9
				c0.8,0.6,1.7,0.9,2.6,0.9c2.3,0,4.2-1.9,4.2-4.2c0-0.2,0.1-0.4,0.1-0.7H26c2.3,0,4.2-1.9,4.2-4.2V11.1c0-2.3-1.9-4.2-4.2-4.2
				h-3.3c-0.1-0.3-0.1-0.5-0.1-0.7C22.5,3.9,20.6,2.1,18.3,2.1L18.3,2.1z"/>
		</g>
		<g>
			
				<radialGradient id="SVGID_1_" cx="408.2925" cy="-194.7969" r="18.4057" gradientTransform="matrix(0.7011 0 0 -0.7011 -271.7826 -122.4221)" gradientUnits="userSpaceOnUse">
				<stop  offset="5.008013e-04" style="stop-color:#29E1FF"/>
				<stop  offset="1" style="stop-color:#29ABE2"/>
			</radialGradient>
			<path class="st1" d="M16.9,26.9c-0.6,0-1.2-0.2-1.8-0.6L2.5,16.4c-0.7-0.5-1.1-1.4-1.1-2.3c0-0.9,0.4-1.7,1.1-2.3L15.2,2
				c0.5-0.4,1.1-0.6,1.8-0.6c1.6,0,2.9,1.3,2.9,2.9c0,0.4,0.3,1.5,0.6,2h4.3c1.6,0,2.9,1.3,2.9,2.9v10.1c0,1.6-1.3,2.9-2.9,2.9h-4.3
				c-0.3,0.5-0.6,1.6-0.6,2c0,0.8-0.3,1.5-0.9,2.1C18.4,26.7,17.7,26.9,16.9,26.9L16.9,26.9z"/>
			<g>
				<path class="st2" d="M16.9,2.7c0.8,0,1.5,0.6,1.5,1.5c0,0.8,0.7,3.3,1.5,3.3h4.7c0.8,0,1.5,0.7,1.5,1.5v10.1
					c0,0.8-0.7,1.5-1.5,1.5H20c-0.8,0-1.5,2.5-1.5,3.3c0,0.9-0.7,1.5-1.5,1.5c-0.3,0-0.6-0.1-0.9-0.3L3.4,15.3
					c-0.8-0.6-0.8-1.8,0-2.4L16,3.1C16.3,2.8,16.6,2.7,16.9,2.7 M16.9,0c-0.9,0-1.8,0.3-2.6,0.9L1.7,10.8c-1,0.8-1.6,2-1.6,3.3
					s0.6,2.5,1.6,3.3l12.6,9.9c0.8,0.6,1.7,0.9,2.6,0.9c2.3,0,4.2-1.9,4.2-4.2c0-0.2,0.1-0.4,0.1-0.7h3.3c2.3,0,4.2-1.9,4.2-4.2v-10
					c0-2.3-1.9-4.2-4.2-4.2h-3.3c-0.1-0.3-0.1-0.5-0.1-0.7C21.2,1.9,19.3,0,16.9,0L16.9,0z"/>
			</g>
		</g>
	</g>
	<g>
		<path class="st3" d="M16.9,26.1c-0.4,0-0.9-0.1-1.2-0.4l-12.6-10c-0.5-0.4-0.8-1-0.8-1.6s0.3-1.2,0.8-1.6l12.6-9.9
			c0.4-0.3,0.8-0.4,1.2-0.4c1.1,0,2,0.9,2,2c0,0.9,0.7,2.7,1,2.9h4.7c1.1,0,2,0.9,2,2v10.1c0,1.1-0.9,2-2,2H20c-0.3,0.1-1,2-1,2.8
			c0,0.6-0.2,1.1-0.6,1.4C18,25.9,17.5,26.1,16.9,26.1C17,26.1,17,26.1,16.9,26.1z"/>
		<g>
			<path class="st4" d="M16.9,2.7c0.8,0,1.5,0.6,1.5,1.5l0,0c0,0.8,0.7,3.3,1.5,3.3h4.7c0.8,0,1.5,0.7,1.5,1.5v10.1
				c0,0.8-0.7,1.5-1.5,1.5H20c-0.8,0-1.5,2.5-1.5,3.3c0,0.9-0.7,1.5-1.5,1.5c-0.3,0-0.6-0.1-0.9-0.3L3.4,15.3
				c-0.8-0.6-0.8-1.8,0-2.4L16,3.1C16.3,2.8,16.6,2.7,16.9,2.7 M16.9,1.7c-0.6,0-1.1,0.2-1.5,0.5l-12.6,10c-0.6,0.5-1,1.2-1,2
				s0.3,1.5,1,2L15.4,26c0.4,0.4,1,0.5,1.5,0.5c1.4,0,2.5-1.1,2.5-2.5c0-0.6,0.4-1.9,0.7-2.4h4.5c1.4,0,2.5-1.1,2.5-2.5v-10
				c0-1.4-1.1-2.5-2.5-2.5h-4.5c-0.3-0.4-0.7-1.8-0.7-2.4C19.5,2.9,18.3,1.7,16.9,1.7L16.9,1.7z"/>
		</g>
	</g>
	<g>
		<path class="st5" d="M41,18.8c-0.1-0.1-0.2-0.2-0.2-0.3c-0.1-0.1-0.1-0.2-0.1-0.4s-0.1-0.4-0.1-0.6c0-0.2-0.1-0.5-0.2-0.7
			c-0.1-0.2-0.2-0.4-0.4-0.6c-0.1-0.1-0.3-0.2-0.4-0.3c0.2-0.1,0.4-0.3,0.5-0.5c0.3-0.3,0.5-0.6,0.6-0.9c0.1-0.3,0.2-0.6,0.2-1
			c0-0.6-0.1-1.1-0.4-1.6c-0.2-0.5-0.5-0.8-1-1.1c-0.5-0.3-0.9-0.4-1.4-0.4h-4c-0.2,0-0.4,0-0.6,0.2c-0.1,0.2-0.2,0.4-0.2,0.6v8.1
			c0,0.2,0.1,0.4,0.3,0.6c0.2,0.1,0.4,0.2,0.7,0.2c0.2,0,0.4-0.1,0.5-0.1c0.1-0.2,0.2-0.4,0.2-0.6v-2.7h2.6c0.3,0,0.4,0,0.6,0.1
			c0.2,0,0.3,0.1,0.4,0.2c0.1,0,0.1,0.2,0.2,0.3c0.1,0.1,0.1,0.2,0.1,0.4c0,0.5,0,0.9,0.1,1.2s0.2,0.5,0.4,0.7
			c0.2,0.2,0.3,0.3,0.5,0.4c0.1,0,0.2,0.1,0.4,0.1s0.3,0,0.5,0s0.3-0.1,0.4-0.2c0.2-0.2,0.3-0.4,0.2-0.6
			C41.3,19.1,41.2,18.9,41,18.8z M39,14.3c-0.1,0.2-0.2,0.4-0.4,0.6c-0.2,0.1-0.3,0.2-0.5,0.2h-2.9V12h3c0.2,0,0.5,0.1,0.7,0.4
			c0.2,0.2,0.3,0.6,0.3,1C39.2,13.7,39.1,14,39,14.3z"/>
		<path class="st5" d="M48.1,13.5c-0.3-0.3-0.6-0.6-1.1-0.8s-0.9-0.3-1.4-0.3c-0.6,0-1.2,0.2-1.7,0.5c-0.5,0.4-1,0.9-1.3,1.4
			c-0.3,0.5-0.5,1.3-0.5,2.1c0,0.7,0.2,1.3,0.5,1.9c0.3,0.6,0.7,1.1,1.3,1.4c0.6,0.3,1.3,0.5,2.1,0.5c0.4,0,0.9,0,1.3-0.2
			c0.4-0.1,0.8-0.3,1-0.5c0.3-0.2,0.4-0.4,0.4-0.7c0-0.2-0.1-0.4-0.2-0.5c-0.1-0.1-0.3-0.2-0.5-0.2s-0.3,0-0.5,0.1
			c-0.1,0.1-0.2,0.1-0.3,0.2c-0.1,0.1-0.3,0.1-0.5,0.2c-0.2,0.1-0.5,0.1-0.8,0.1c-0.4,0-0.8-0.1-1.1-0.3s-0.6-0.5-0.8-0.8
			c-0.1-0.3-0.2-0.5-0.2-0.8h4.5c0.2,0,0.4-0.1,0.6-0.2c0.2-0.1,0.3-0.3,0.3-0.5c0-0.5-0.1-1-0.3-1.4C48.7,14.2,48.4,13.8,48.1,13.5
			z M44.3,14.5c0.1-0.2,0.4-0.3,0.6-0.4c0.3-0.1,0.5-0.1,0.8-0.1s0.5,0.1,0.8,0.1c0.2,0.1,0.4,0.3,0.6,0.5c0.2,0.2,0.3,0.4,0.3,0.7
			v0.1h-3.6c0-0.1,0-0.1,0.1-0.2C44,14.9,44.1,14.7,44.3,14.5z"/>
		<path class="st5" d="M56.7,12.7c-0.2,0-0.4,0-0.6,0.2c-0.1,0.2-0.2,0.4-0.2,0.6v0.1c-0.1-0.1-0.3-0.3-0.4-0.4
			c-0.2-0.2-0.5-0.4-0.8-0.5c-0.3-0.1-0.7-0.2-1.1-0.2c-0.6,0-1.2,0.1-1.8,0.3c-0.5,0.4-0.9,0.8-1.2,1.4c-0.3,0.6-0.5,1.2-0.5,2
			c0,0.7,0.2,1.4,0.5,2c0.3,0.6,0.8,1.1,1.3,1.4s1.1,0.5,1.8,0.5c0.4,0,0.7-0.1,1-0.2s0.6-0.2,0.8-0.4c0.2-0.2,0.4-0.3,0.5-0.5v0.7
			c0,0.5-0.2,0.9-0.5,1.2c-0.4,0.3-0.9,0.4-1.6,0.4c-0.2,0-0.4,0-0.7-0.1c-0.3,0-0.5-0.1-0.7-0.2c-0.3-0.1-0.4-0.2-0.5-0.2
			c-0.2-0.1-0.4-0.1-0.6,0c-0.2,0.1-0.3,0.3-0.4,0.6c0,0.2,0,0.4,0,0.7c0.1,0.2,0.3,0.4,0.6,0.5c0.1,0.1,0.3,0.1,0.6,0.2
			c0.3,0.1,0.6,0.2,0.9,0.2c0.3,0.1,0.5,0.1,0.7,0.1c0.6,0,1.2-0.1,1.8-0.3c0.6-0.3,1.1-0.6,1.4-1.1s0.5-1.2,0.5-2v-6.2
			c0-0.2,0-0.4-0.2-0.6C57.1,12.8,56.9,12.7,56.7,12.7z M55.7,17.5c-0.1,0.3-0.4,0.6-0.7,0.8c-0.3,0.2-0.7,0.3-1.1,0.3
			c-0.4,0-0.8-0.1-1.1-0.3c-0.3-0.2-0.5-0.4-0.7-0.8c-0.2-0.4-0.3-0.8-0.3-1.2c0-0.4,0.1-0.8,0.3-1.2c0.1-0.3,0.4-0.6,0.7-0.8
			c0.3-0.2,0.7-0.3,1.1-0.3c0.4,0,0.8,0.1,1.1,0.3c0.3,0.2,0.5,0.4,0.7,0.8c0.2,0.4,0.3,0.8,0.3,1.2C56,16.7,55.9,17.1,55.7,17.5z"
			/>
		<path class="st5" d="M63.2,12.5c-0.2,0-0.5,0-0.7,0.1c-0.3,0.1-0.5,0.2-0.7,0.3c-0.3,0.1-0.4,0.2-0.6,0.4
			c-0.1,0.1-0.2,0.3-0.3,0.4v-0.2c0-0.2,0-0.4-0.2-0.6c-0.2-0.1-0.4-0.2-0.6-0.2c-0.2,0-0.4,0-0.6,0.2c-0.1,0.2-0.2,0.4-0.2,0.6v5.8
			c0,0.2,0,0.4,0.2,0.6c0.2,0.1,0.4,0.2,0.6,0.2c0.3,0,0.5-0.1,0.7-0.3c0.1-0.2,0.2-0.4,0.2-0.6v-3.3c0-0.3,0-0.6,0.2-0.8
			c0-0.2,0.2-0.4,0.3-0.6c0.2-0.2,0.3-0.3,0.5-0.4c0.2-0.1,0.3-0.1,0.5-0.1s0.4,0,0.5,0.1c0.2,0.1,0.3,0.1,0.5,0.1s0.3-0.1,0.5-0.2
			c0.1-0.2,0.2-0.4,0.2-0.7c0-0.3-0.1-0.4-0.3-0.6C63.7,12.6,63.5,12.5,63.2,12.5z"/>
		<path class="st5" d="M70.5,13.5c-0.3-0.3-0.6-0.6-1.1-0.8s-0.9-0.3-1.4-0.3c-0.6,0-1.2,0.2-1.7,0.5c-0.5,0.4-1,0.9-1.3,1.4
			s-0.5,1.3-0.5,2.1c0,0.7,0.2,1.3,0.5,1.9c0.3,0.6,0.7,1.1,1.3,1.4c0.6,0.3,1.3,0.5,2.1,0.5c0.5,0,0.9,0,1.3-0.3
			c0.4-0.1,0.8-0.3,1-0.5c0.3-0.2,0.4-0.4,0.4-0.7c0-0.2-0.1-0.4-0.2-0.5c-0.1-0.1-0.3-0.2-0.5-0.2c-0.2,0-0.3,0-0.5,0.1
			c-0.1,0.1-0.2,0.1-0.3,0.2c-0.1,0.1-0.3,0.1-0.5,0.2c-0.2,0.1-0.5,0.1-0.8,0.1c-0.4,0-0.8-0.1-1.1-0.3c-0.3-0.2-0.6-0.5-0.8-0.8
			c-0.1-0.2-0.2-0.5-0.2-0.7h4.5c0.2,0,0.4-0.1,0.6-0.2c0.2-0.1,0.3-0.3,0.3-0.5c0-0.5-0.1-1-0.3-1.4C71.1,14.2,70.8,13.8,70.5,13.5
			z M66.7,14.4c0.1-0.2,0.4-0.3,0.6-0.4c0.3-0.1,0.5-0.1,0.8-0.1c0.3,0,0.5,0.1,0.8,0.2c0.2,0.1,0.4,0.3,0.6,0.5s0.3,0.4,0.3,0.7
			v0.1h-3.6c0-0.1,0.1-0.2,0.1-0.3C66.4,14.8,66.6,14.6,66.7,14.4z"/>
		<path class="st5" d="M77.7,16c-0.2-0.2-0.5-0.3-0.8-0.4c-0.3-0.1-0.6-0.2-0.9-0.3c-0.3,0-0.6-0.1-0.8-0.2
			c-0.3-0.1-0.5-0.2-0.6-0.3c-0.1-0.1-0.2-0.3-0.2-0.5c0-0.2,0.1-0.4,0.2-0.5c0.1-0.1,0.2-0.2,0.4-0.2s0.4,0,0.5,0
			c0.3,0,0.6,0.1,0.9,0.2c0.2,0.1,0.4,0.3,0.6,0.5c0.2,0.1,0.3,0.2,0.5,0.2c0.2,0.1,0.4,0,0.5-0.1c0.2-0.1,0.3-0.3,0.3-0.5
			s-0.1-0.4-0.2-0.5c-0.2-0.2-0.4-0.4-0.7-0.6c-0.3-0.1-0.6-0.2-0.9-0.3c-0.3-0.1-0.6-0.1-0.9-0.1c-0.4,0-0.9,0.1-1.3,0.3
			c-0.4,0.2-0.7,0.5-1,0.8c-0.3,0.3-0.4,0.7-0.4,1.2c0,0.4,0,0.7,0.2,1c0.1,0.3,0.3,0.5,0.6,0.7c0.2,0.2,0.5,0.3,0.8,0.4
			c0.3,0.1,0.6,0.2,0.9,0.3c0.3,0,0.6,0.1,0.8,0.2c0.3,0.1,0.5,0.2,0.6,0.3c0.1,0.1,0.2,0.3,0.2,0.5s-0.1,0.4-0.2,0.5
			c-0.1,0.1-0.2,0.2-0.4,0.2c-0.2,0.1-0.4,0.1-0.5,0.1c-0.4,0-0.8-0.1-1.1-0.2c-0.3-0.1-0.6-0.3-0.9-0.6c-0.2-0.2-0.3-0.3-0.5-0.3
			c-0.2,0-0.4,0-0.5,0.1c-0.3,0.1-0.4,0.3-0.4,0.5s0,0.4,0.1,0.5c0.3,0.5,0.8,0.9,1.5,0.8c0.6,0.2,1.1,0.3,1.7,0.3
			c0.5,0,0.9-0.1,1.3-0.3c0.4-0.2,0.7-0.5,1-0.8c0.3-0.3,0.4-0.7,0.4-1.2c0-0.4,0-0.7-0.2-1C78.1,16.4,77.9,16.2,77.7,16z"/>
		<path class="st5" d="M85.7,12.5c-0.3,0-0.5,0.1-0.5,0.2c-0.1,0.2-0.2,0.4-0.2,0.6c-0.1-0.1-0.2-0.2-0.3-0.3
			c-0.3-0.2-0.6-0.4-0.9-0.5c-0.3-0.1-0.7-0.2-1.1-0.2c-0.6,0-1.2,0.2-1.7,0.5c-0.5,0.4-0.9,0.8-1.2,1.4c-0.3,0.6-0.5,1.2-0.5,2
			c0,0.7,0.2,1.4,0.5,2c0.3,0.6,0.7,1.1,1.2,1.4s1.1,0.5,1.7,0.5c0.4,0,0.7-0.1,1-0.2s0.6-0.2,0.8-0.4c0.2-0.2,0.3-0.3,0.4-0.4v0.1
			c0,0.2,0,0.4,0.2,0.6c0.2,0.1,0.4,0.2,0.6,0.2s0.4,0,0.6-0.2c0.1-0.2,0.2-0.4,0.2-0.6v-5.9c0-0.2,0-0.4-0.2-0.6
			C86.1,12.6,85.9,12.5,85.7,12.5z M84.7,17.6c-0.2,0.3-0.4,0.6-0.7,0.8s-0.7,0.3-1.1,0.3c-0.4,0-0.8-0.1-1.1-0.3s-0.5-0.4-0.7-0.8
			c-0.2-0.4-0.3-0.8-0.3-1.2s0.1-0.8,0.3-1.2c0.2-0.3,0.4-0.6,0.7-0.8s0.7-0.3,1.1-0.3c0.4,0,0.8,0.1,1.1,0.3s0.5,0.4,0.7,0.8
			c0.2,0.4,0.3,0.8,0.3,1.2S84.9,17.2,84.7,17.6z"/>
		<path class="st5" d="M92.8,12.7c-0.2-0.1-0.4-0.2-0.7-0.2c-0.2,0-0.5,0-0.7,0.1c-0.3,0.1-0.5,0.2-0.7,0.3
			c-0.3,0.1-0.4,0.2-0.6,0.4c-0.1,0.1-0.2,0.3-0.3,0.4v-0.2c0-0.2,0-0.4-0.2-0.6c-0.2-0.1-0.4-0.2-0.6-0.2s-0.4,0-0.6,0.2
			c-0.1,0.2-0.2,0.4-0.2,0.6v5.8c0,0.2,0,0.4,0.2,0.6c0.2,0.1,0.4,0.2,0.6,0.2c0.3,0,0.5-0.1,0.8-0.2c0.1-0.2,0.2-0.4,0.2-0.6V16
			c0-0.4,0-0.7,0.1-0.9c0-0.2,0.2-0.4,0.3-0.6c0.2-0.2,0.3-0.3,0.5-0.4c0.2-0.1,0.3-0.1,0.5-0.1c0.2,0,0.4,0,0.5,0.1
			c0.2,0.1,0.3,0.1,0.5,0.1c0.2,0,0.3-0.1,0.5-0.2c0.1-0.2,0.2-0.4,0.2-0.7C93.1,13,93,12.9,92.8,12.7z"/>
	</g>
</g>
</svg>
