<svg xmlns="http://www.w3.org/2000/svg" viewBox="0 0 213 71"><defs><style>.cls-1{isolation:isolate;}.cls-2{opacity:0.3;mix-blend-mode:multiply;}.cls-3{fill:#fff;}.cls-4{fill:#29abe2;}</style></defs><title>32</title><g class="cls-1"><g id="Capa_2" data-name="Capa 2"><g id="Layer_1" data-name="Layer 1"><g class="cls-2"><rect x="4" y="4" width="209" height="67" rx="12"/></g><rect class="cls-3" width="209" height="67" rx="12"/><rect class="cls-4" x="4.03" y="3.07" width="200.94" height="60.87" rx="11.19"/><path class="cls-3" d="M36.19,25.3l1,3a2.55,2.55,0,0,1-.73,2.73,2.6,2.6,0,0,1-1.68.63,2.46,2.46,0,0,1-1.12-.27L27,28.1a2.53,2.53,0,0,1-1.15-3.4L29.13,18a2.54,2.54,0,0,1,4.68.31l.66,1.94c.41,0,.82-.05,1.23-.05a13.13,13.13,0,1,1-9.4,22.41A2.54,2.54,0,1,1,29.89,39a8,8,0,1,0,6.3-13.7Z"/><path class="cls-3" d="M70.45,44.39a2.1,2.1,0,0,1-1.36-.47,1.47,1.47,0,0,1-.6-1.19V26.93a1.62,1.62,0,0,1,1.66-1.66H78a5.09,5.09,0,0,1,2.67.75,5.74,5.74,0,0,1,2,2.08,6,6,0,0,1,.76,3,5.08,5.08,0,0,1-.42,2,6.55,6.55,0,0,1-1.15,1.78,5.32,5.32,0,0,1-1.63,1.23l0-.63a4.69,4.69,0,0,1,1.27,1,4.53,4.53,0,0,1,.79,1.2,4.25,4.25,0,0,1,.35,1.38c.07.46.12.86.15,1.21a3.38,3.38,0,0,0,.16.87,1,1,0,0,0,.48.55,1.51,1.51,0,0,1,.75,1,1.41,1.41,0,0,1-1.08,1.64,2.42,2.42,0,0,1-.93,0,2.59,2.59,0,0,1-.76-.26,3.9,3.9,0,0,1-.93-.8,4.06,4.06,0,0,1-.75-1.44,7.5,7.5,0,0,1-.29-2.32,2.2,2.2,0,0,0-.17-.86,2,2,0,0,0-.46-.69,2,2,0,0,0-.77-.43A3.54,3.54,0,0,0,77,37.43H71.49l.41-.63v5.93a1.88,1.88,0,0,1-.38,1.19A1.29,1.29,0,0,1,70.45,44.39Zm1.07-9.78h6.37a1.38,1.38,0,0,0,1-.45,3.37,3.37,0,0,0,.77-1.23,4.73,4.73,0,0,0,.3-1.71,3.13,3.13,0,0,0-.64-2,1.8,1.8,0,0,0-1.38-.81H71.57l.33-.87v7.73Z"/><path class="cls-3" d="M93.23,44.67a8.09,8.09,0,0,1-4-1,6.65,6.65,0,0,1-2.62-2.64,7.6,7.6,0,0,1-.92-3.77,8.2,8.2,0,0,1,1-4.19,7,7,0,0,1,2.61-2.67,6.7,6.7,0,0,1,3.41-.93,6.13,6.13,0,0,1,2.64.58,7.09,7.09,0,0,1,2.2,1.57A7.39,7.39,0,0,1,99,34a6.87,6.87,0,0,1,.56,2.78,1.39,1.39,0,0,1-.51,1.07,1.76,1.76,0,0,1-1.15.41H87.49l-.82-2.73h10l-.6.54V35.3a2.53,2.53,0,0,0-.56-1.42,3.63,3.63,0,0,0-1.26-1,3.51,3.51,0,0,0-1.6-.37,5.05,5.05,0,0,0-1.53.22,3,3,0,0,0-1.23.73,3.73,3.73,0,0,0-.82,1.4,6.9,6.9,0,0,0-.3,2.21,4.75,4.75,0,0,0,.62,2.5A4.22,4.22,0,0,0,91,41.13a4.27,4.27,0,0,0,2.06.53,6.38,6.38,0,0,0,1.62-.16,3.54,3.54,0,0,0,1-.4c.24-.15.47-.28.67-.39a2,2,0,0,1,.93-.25,1.38,1.38,0,0,1,1.39,1.37,1.73,1.73,0,0,1-.77,1.34,6.34,6.34,0,0,1-2,1A8,8,0,0,1,93.23,44.67Z"/><path class="cls-3" d="M109.64,29.5a6.27,6.27,0,0,1,3.43,1,6.93,6.93,0,0,1,2.41,2.67,9.17,9.17,0,0,1,0,7.88,7,7,0,0,1-2.38,2.68,6.05,6.05,0,0,1-3.35,1,5.82,5.82,0,0,1-2-.36,6.42,6.42,0,0,1-1.68-.9,5.12,5.12,0,0,1-1.12-1.11,1.74,1.74,0,0,1-.39-.94l.84-.35v7.18a1.63,1.63,0,0,1-.46,1.19,1.57,1.57,0,0,1-1.18.48,1.59,1.59,0,0,1-1.17-.47,1.62,1.62,0,0,1-.46-1.2V31.44a1.64,1.64,0,0,1,.46-1.19,1.7,1.7,0,0,1,2.35,0,1.64,1.64,0,0,1,.46,1.19v1.34l-.46-.24a1.54,1.54,0,0,1,.38-.86,5.61,5.61,0,0,1,1-1,6.13,6.13,0,0,1,1.52-.83A5,5,0,0,1,109.64,29.5Zm-.41,3a3.7,3.7,0,0,0-2.1.6,4.08,4.08,0,0,0-1.41,1.63,5.28,5.28,0,0,0-.5,2.33,5.42,5.42,0,0,0,.5,2.34,4.07,4.07,0,0,0,1.41,1.65,4,4,0,0,0,4.2,0,4.11,4.11,0,0,0,1.39-1.65,5.28,5.28,0,0,0,.5-2.34,5.15,5.15,0,0,0-.5-2.33,4.11,4.11,0,0,0-1.39-1.63A3.67,3.67,0,0,0,109.23,32.51Z"/><path class="cls-3" d="M125.72,44.67a8.09,8.09,0,0,1-4-1,6.65,6.65,0,0,1-2.62-2.64,7.6,7.6,0,0,1-.92-3.77,8.2,8.2,0,0,1,1-4.19,7,7,0,0,1,2.61-2.67,6.7,6.7,0,0,1,3.41-.93,6.13,6.13,0,0,1,2.64.58,7.09,7.09,0,0,1,2.2,1.57A7.39,7.39,0,0,1,131.52,34a6.87,6.87,0,0,1,.56,2.78,1.39,1.39,0,0,1-.51,1.07,1.76,1.76,0,0,1-1.15.41H120l-.82-2.73h10l-.6.54V35.3a2.53,2.53,0,0,0-.56-1.42,3.63,3.63,0,0,0-1.26-1,3.51,3.51,0,0,0-1.6-.37,5.1,5.1,0,0,0-1.53.22,3,3,0,0,0-1.23.73,3.73,3.73,0,0,0-.82,1.4,6.9,6.9,0,0,0-.3,2.21,4.75,4.75,0,0,0,.62,2.5,4.22,4.22,0,0,0,1.58,1.56,4.3,4.3,0,0,0,2.06.53,6.38,6.38,0,0,0,1.62-.16,3.54,3.54,0,0,0,1-.4c.24-.15.47-.28.67-.39a2,2,0,0,1,.93-.25,1.38,1.38,0,0,1,1.39,1.37,1.73,1.73,0,0,1-.77,1.34,6.34,6.34,0,0,1-2,1A8,8,0,0,1,125.72,44.67Z"/><path class="cls-3" d="M134.29,30.05h6.48a1.49,1.49,0,0,1,1.09.44,1.48,1.48,0,0,1,.44,1.09,1.4,1.4,0,0,1-.44,1.05,1.53,1.53,0,0,1-1.09.43h-6.48a1.48,1.48,0,0,1-1.09-.44,1.49,1.49,0,0,1-.44-1.09,1.44,1.44,0,0,1,.44-1.06A1.5,1.5,0,0,1,134.29,30.05Zm2.92-3.42a1.53,1.53,0,0,1,1.17.48,1.68,1.68,0,0,1,.45,1.19V40.46a1.22,1.22,0,0,0,.15.63.83.83,0,0,0,.41.35,1.3,1.3,0,0,0,.56.11,1.46,1.46,0,0,0,.6-.12,1.54,1.54,0,0,1,.63-.12.93.93,0,0,1,.69.35,1.45,1.45,0,0,1,.32,1,1.42,1.42,0,0,1-.84,1.25,3.42,3.42,0,0,1-1.79.49,10.08,10.08,0,0,1-1.27-.09,3.34,3.34,0,0,1-1.31-.47,2.76,2.76,0,0,1-1-1.13,4.4,4.4,0,0,1-.41-2.1V28.3a1.62,1.62,0,0,1,.48-1.19A1.58,1.58,0,0,1,137.21,26.63Z"/><path class="cls-3" d="M146.38,28a2.18,2.18,0,0,1-1.31-.3,1.31,1.31,0,0,1-.38-1.07v-.51a1.22,1.22,0,0,1,.42-1.08,2.3,2.3,0,0,1,1.3-.29,2.22,2.22,0,0,1,1.34.3,1.28,1.28,0,0,1,.38,1.07v.51a1.21,1.21,0,0,1-.41,1.08A2.4,2.4,0,0,1,146.38,28Zm1.67,14.73a1.64,1.64,0,0,1-.46,1.19,1.57,1.57,0,0,1-1.18.47,1.55,1.55,0,0,1-1.17-.47,1.65,1.65,0,0,1-.47-1.19V31.44a1.65,1.65,0,0,1,.47-1.19,1.59,1.59,0,0,1,1.17-.47,1.61,1.61,0,0,1,1.18.47,1.64,1.64,0,0,1,.46,1.19Z"/><path class="cls-3" d="M152.67,44.39a1.55,1.55,0,0,1-1.17-.47,1.64,1.64,0,0,1-.46-1.19V31.44a1.64,1.64,0,0,1,.46-1.19,1.7,1.7,0,0,1,2.35,0,1.64,1.64,0,0,1,.46,1.19V34l-.19-1.83A4.22,4.22,0,0,1,154.9,31a4.66,4.66,0,0,1,1.08-.85,5.24,5.24,0,0,1,1.28-.5,5.84,5.84,0,0,1,1.37-.17A2.08,2.08,0,0,1,160,30a1.39,1.39,0,0,1,.56,1.09,1.63,1.63,0,0,1-.46,1.3,1.55,1.55,0,0,1-1,.39,2.24,2.24,0,0,1-.95-.19,2.43,2.43,0,0,0-1-.19,2.38,2.38,0,0,0-1,.23,2.76,2.76,0,0,0-.93.73,3.83,3.83,0,0,0-.69,1.21,5.21,5.21,0,0,0-.26,1.71v6.48a1.64,1.64,0,0,1-.46,1.19A1.56,1.56,0,0,1,152.67,44.39Z"/></g></g></g></svg>