<svg xmlns="http://www.w3.org/2000/svg" viewBox="0 0 150 150"><defs><style>.cls-1{isolation:isolate;}.cls-2{fill:#002451;opacity:0.27;}.cls-3{fill:#fff2cc;}.cls-4{fill:#29abe2;}.cls-5,.cls-7{opacity:0.2;}.cls-5{mix-blend-mode:multiply;}.cls-6{fill:#fff;}.cls-7{fill:#000f56;}.cls-8{fill:#e7d9ce;}.cls-9{fill:#7d4a25;}.cls-10{fill:#9a2a2f;}.cls-11{fill:#9d6c5d;}.cls-12{fill:#7e6657;}.cls-13{fill:#8e685f;}.cls-14{fill:#b08e87;}.cls-15{fill:#fde3dc;}.cls-16{fill:#514747;}.cls-17{fill:#77493e;}.cls-18{fill:none;stroke:#1e134d;stroke-linecap:round;stroke-linejoin:round;stroke-width:1.17px;}</style></defs><title>lab02-</title><g class="cls-1"><g id="Layer_1" data-name="Layer 1"><rect class="cls-2" x="23.25" y="23.22" width="120.09" height="120.09" rx="36.12" ry="36.12"/><rect class="cls-3" x="20.14" y="20.12" width="120.09" height="120.09" rx="36.12" ry="36.12"/><path class="cls-4" d="M139.76,109.91H126.82A17.12,17.12,0,0,0,109.7,127v12.73A36.15,36.15,0,0,0,139.76,109.91Z"/><g class="cls-5"><rect x="122.11" y="118.41" width="1.38" height="10.82"/><polygon points="122.77 114.31 119.98 119.14 125.55 119.14 122.77 114.31"/><polygon points="122.8 133.26 125.58 128.43 120.01 128.43 122.8 133.26"/><rect x="117.39" y="123.13" width="10.82" height="1.38"/><polygon points="113.31 123.8 118.14 126.59 118.14 121.02 113.31 123.8"/><polygon points="132.25 123.77 127.43 120.98 127.43 126.55 132.25 123.77"/></g><rect class="cls-6" x="121.11" y="117.41" width="1.38" height="10.82"/><polygon class="cls-6" points="121.77 113.31 118.98 118.14 124.55 118.14 121.77 113.31"/><polygon class="cls-6" points="121.8 132.26 124.58 127.43 119.01 127.43 121.8 132.26"/><rect class="cls-6" x="116.39" y="122.13" width="10.82" height="1.38"/><polygon class="cls-6" points="112.31 122.8 117.14 125.59 117.14 120.02 112.31 122.8"/><polygon class="cls-6" points="131.25 122.77 126.43 119.98 126.43 125.55 131.25 122.77"/><path class="cls-7" d="M134,60.39a.39.39,0,0,1,.08.1A19.16,19.16,0,0,1,136,63.9l.16.08a5.92,5.92,0,0,1,1.69,1.36c1.16,1.45.28,2.69,1.37,4a3.66,3.66,0,0,0,.48.49l.09.1c.66.82,1.3,4.19,0,5.5-1,1-1.24,2.19-.84,2.69a.43.43,0,0,0,.12.11,1.11,1.11,0,0,1,.19.18c.7.87-1.24,2.12-1.91,4.29A5.61,5.61,0,0,1,132.92,86a7.34,7.34,0,0,1-.6.51.36.36,0,0,1,0,.1c0,.53-.7.82-.75,1.34,0,.15,0,.32-.08.44a.85.85,0,0,1-.28.16c-.33.21-.23.71-.32,1.09a2,2,0,0,1-.39.71l-.44.58c-1.2,2.72-2.49,5.41-2.77,5.37a.15.15,0,0,1-.08,0c-.56-.7-1.71-7.55-2-9.73a2.72,2.72,0,0,1-.38-.1,3.32,3.32,0,0,1-1.65-1.09c-.81-1-.81-2.28-1.2-2.83l0-.06c-.33-.41-.91-.71-1.18-1a.51.51,0,0,1-.06-.66c.35-.54-.65-1.66-.7-2.11-.67-.1-1.29,0-1.44.47-.89,2.51-1.29,2.76-1.51,2.49s-.21-.65-.29-.74-.09,0-.16.23a.32.32,0,0,1,0,.09c0,.28,0,.56,0,.83a39.23,39.23,0,0,1-.43,4.72,20.71,20.71,0,0,1-12.49,15.35c-2.93,1.22-6.16,1.83-8.94,3.29-2.56,1.34-4.64,3.32-7,4.94-5.31,3.64-12.78,8.07-19.52,7-6.31-1-17.72-5.86-22-11.16a9.38,9.38,0,0,1-.78-1.11c-1.33-2.23-2.24-4.7-3.86-6.73q-.28-.34-.6-.69l-.45-.43a21.66,21.66,0,0,1-1.76,1.38c-.93.48-2.06.17-3.09.31-.82.1-1.59.48-2.4.63a19.8,19.8,0,0,1-2.67.1,8.09,8.09,0,0,0-3.56,1,6.13,6.13,0,0,1-1.46.7,1.48,1.48,0,0,1-1.5-.35v0a.85.85,0,0,1,.31-1.31,2.91,2.91,0,0,1-2.1-.88.35.35,0,0,1-.05-.08,1.33,1.33,0,0,1,.5-2,2.79,2.79,0,0,1,1.68.38,3.74,3.74,0,0,0,2.07.14.28.28,0,0,0-.08-.22.75.75,0,0,0-.26-.2c-.72-.39-1.52-.64-2.23-1a3.69,3.69,0,0,1-1-.86,2.19,2.19,0,0,1-.47-1,1.54,1.54,0,0,1,1.5-.37,6.72,6.72,0,0,1,1.47.67,9.55,9.55,0,0,0,5.17,1,.84.84,0,0,0,.61-.24c.21-.26.06-.63-.16-.91l-.09-.11c-.11-.11-.23-.23-.33-.35a.71.71,0,0,1,.66-1.21,3.25,3.25,0,0,1,1.1.4,5.47,5.47,0,0,0,3.27.39h0l-.15-.17c-2.8-3.5-.88-8.38-.78-13a11.78,11.78,0,0,1,.58-3.22h0c-1-.43-2.14.58-3.17.75s-2-.47-3-.67c-.81-.16-1.66,0-2.48-.15A17.75,17.75,0,0,1,24,75.88a8.08,8.08,0,0,0-3.69-.17,6.36,6.36,0,0,1-1.61.21,1.58,1.58,0,0,1-1.16-.54,1,1,0,0,1-.16-.26c-.2-.5.16-1.2.7-1.17a3.4,3.4,0,0,1-1.41-1,1.79,1.79,0,0,1-.34-.62c-.24-.77.3-1.79,1.11-1.76.59,0,1,.52,1.47.88a3.71,3.71,0,0,0,1.93.79.45.45,0,0,0-.12-.43l-.07-.08c-.56-.6-1.24-1.08-1.79-1.69l-.15-.18A2.67,2.67,0,0,1,18,67.83a1.51,1.51,0,0,1,1.53.11A6.54,6.54,0,0,1,20.72,69a9.44,9.44,0,0,0,4.59,2.58.86.86,0,0,0,.65,0c.33-.21.25-.7.08-1s-.39-.74-.23-1.09a.8.8,0,0,1,1-.29,3.33,3.33,0,0,1,.92.72,5.51,5.51,0,0,0,3,1.4c.89.11,2,.19,2.53.86a1.13,1.13,0,0,1,.16.26c.72-.56,1.69-.13,2.86.55a1.57,1.57,0,0,0,.53,0,42.9,42.9,0,0,1,4.47-6.56,6.57,6.57,0,0,1-.81-.77l-.13-.15a5,5,0,0,1,3.56-8.11,2,2,0,0,1,.41-2.54c.54-.41,1.34-.58,1.59-1.21.38-1-1-2.21-.34-3.06.15-.2.39-.33.48-.56a1,1,0,0,0-.2-.8,7.94,7.94,0,0,0-.69-1.08,1.45,1.45,0,0,0-1.48-.68A1.14,1.14,0,0,1,42.53,47a2,2,0,0,1-.42-1.11,2.33,2.33,0,0,1,1.37-2.08,4.5,4.5,0,0,1,2.57-.28,2,2,0,0,1-1.12-.7,2.46,2.46,0,0,1-.49-1.94,3.33,3.33,0,0,1,2.29-2.35,3.29,3.29,0,0,1-2.45-1.3,3.55,3.55,0,0,1-.54-3.77,1.72,1.72,0,0,1-2-.68,2.38,2.38,0,0,1-.55-1.65,5.12,5.12,0,0,1,2.28-3.32,34.73,34.73,0,0,1,10.17-5,17.15,17.15,0,0,1,3.58-.93,12.71,12.71,0,0,1,3.64.18c.47.09.94.19,1.41.31h0c.4.1.78.21,1.17.34l.37.12.86.32.35.15c.39.16.77.34,1.14.53A18.85,18.85,0,0,1,70,26.39l.29.16a6.93,6.93,0,0,1,1.89,1.6,5.18,5.18,0,0,1,.68,1.1,5.8,5.8,0,0,0,.61,1.25,1.47,1.47,0,0,0,.43.35c-.1-.61-.21-1.23-.31-1.84,0-.29-.07-.64.17-.81s.61,0,.83.31a1.37,1.37,0,0,1,.15.21A10.71,10.71,0,0,1,76,35.6a2,2,0,0,0,.15,1.51l.13.13,1-.83a.71.71,0,0,1,.32-.17.34.34,0,0,1,.32.14,1,1,0,0,1,.18.65,3.28,3.28,0,0,1-.69,1.8c-.36.45-.83.81-1.18,1.27a4.24,4.24,0,0,0-.74,2.34,6.77,6.77,0,0,0,.42.92v0c.15.28.33.57.52.86a31.06,31.06,0,0,0,10.4-.42,26,26,0,0,1,7.26-.5,20.13,20.13,0,0,1,7.08,2.53,43.73,43.73,0,0,1,9,6.74,15.9,15.9,0,0,1,1.63,1.77c.37.46.71.93,1,1.42l.21.11c.33.17.66.36,1,.52l.18.09a3.26,3.26,0,0,0,1.54.41,2.47,2.47,0,0,0,.68-.15,3.26,3.26,0,0,1-.33-.31l-.12-.13a1.28,1.28,0,0,1-.32-.77s0-.07,0-.11a.87.87,0,0,1,.73-.17,1.5,1.5,0,0,1,.44.14l.19.1a3.62,3.62,0,0,1,.33.2l.29.23a7.87,7.87,0,0,0,1.45,1,8.65,8.65,0,0,0,2.19.81l.46.07h.37a.11.11,0,0,0,.08,0l0,0a.55.55,0,0,0,0-.23c-.06-.57-.54-1.77.1-1.81h0a3,3,0,0,1,.56.37l.33.28a5.14,5.14,0,0,0,.63.49,5.93,5.93,0,0,0,1.75.75,2.94,2.94,0,0,1,.34.18c.07,0,.14.06.18,0a.16.16,0,0,0,.07-.07,2.94,2.94,0,0,0-.06-.9.8.8,0,0,1,0-.28.44.44,0,0,1,.23-.41l.13,0a.4.4,0,0,1,.27.06l.13.12,0,0c.18.26.36.51.54.74a7.32,7.32,0,0,0,2.09,1.87h.08c.3-.14.29-2.11.92-1.45l.06.07.09.14a3.23,3.23,0,0,1,.19.3,7.77,7.77,0,0,0,.78,1.26h0c.86,1.07,1.1.11,1.86.71l.15.13a2.81,2.81,0,0,1,.26.3m4.73-3.8a10.45,10.45,0,0,0-.76-.84c-.2-.19-.41-.38-.64-.56a7.57,7.57,0,0,0-1.57-.94l-.36-.49c-.13-.16-.26-.3-.38-.43a6.44,6.44,0,0,0-4.59-2l-.3-.21a6.41,6.41,0,0,0-4.54-1,5.41,5.41,0,0,0-.58.12h0a6.2,6.2,0,0,0-2.94-.58,6.49,6.49,0,0,0-2.15.5l-.53-.26a8,8,0,0,0-2-.61,7.23,7.23,0,0,0-2,0c-.34-.36-.69-.72-1-1.05a49.53,49.53,0,0,0-10.29-7.65,25.47,25.47,0,0,0-9.27-3.24,30.59,30.59,0,0,0-8.78.51l-.17,0-1.79.28c0-.24,0-.47.07-.71a7,7,0,0,0-1.5-4.81,6.67,6.67,0,0,0-.62-.68A17,17,0,0,0,80,25.71a8.27,8.27,0,0,0-.68-1,7,7,0,0,0-4.8-2.63c-.32-.23-.65-.46-1-.67a25.32,25.32,0,0,0-4.56-3c-.47-.24-1-.47-1.54-.72L67,17.5l-.08,0c-.38-.15-.76-.3-1.15-.43l-.08,0-.4-.13c-.55-.18-1-.33-1.54-.45l-.11,0c-.58-.14-1.16-.27-1.73-.37a18.49,18.49,0,0,0-5.39-.23A22.37,22.37,0,0,0,51.66,17a40.06,40.06,0,0,0-11.93,6c-2.79,2.19-4.33,4.74-4.58,7.59a8.5,8.5,0,0,0,1.86,6,7.89,7.89,0,0,0,.66.74,10,10,0,0,0,.87,2.19,1.18,1.18,0,0,0,0,.2c0,.12,0,.24-.07.36a8.17,8.17,0,0,0-2.37,6.14,8,8,0,0,0,1.74,4.58,7.35,7.35,0,0,0,1.11,1.12A8,8,0,0,0,38.26,53a11,11,0,0,0-4.53,12.6,13.89,13.89,0,0,0-2-.36h0a8.18,8.18,0,0,0-2.62-1.75,7,7,0,0,0-5.33,0,8.2,8.2,0,0,0-1.1-.79,7.56,7.56,0,0,0-7.82-.14A6.08,6.08,0,0,0,12,66.89l0,.18-.23.28a7.53,7.53,0,0,0-1.22,6.82A7.81,7.81,0,0,0,11.33,76a7.1,7.1,0,0,0,1.45,3.22A7.65,7.65,0,0,0,18.3,82a10.51,10.51,0,0,0,2.84-.25l.23,0a2.27,2.27,0,0,1,1,0l.56.19a12.62,12.62,0,0,0,4.72.83h.26l.2.07.2.07,0,.17c-.16,1.21-.34,2.55-.39,4a6.92,6.92,0,0,0-1.36.92,8.92,8.92,0,0,0-1.29-.41,7.52,7.52,0,0,0-7.46,2.31,6,6,0,0,0-1.4,4.94l0,.18c0,.11-.09.22-.13.34a7.54,7.54,0,0,0,1,6.86l.27.35a7.8,7.8,0,0,0,1.06,1.09,7,7,0,0,0,.72,1.11l.12.13a7.45,7.45,0,0,0,7.66,2.31A10.6,10.6,0,0,0,29.66,106l.21-.12a2.31,2.31,0,0,1,.93-.26c.2,0,.4,0,.6,0a14.56,14.56,0,0,0,2.91-.19,13.55,13.55,0,0,0,1.83-.49l.25-.08h.21a12.81,12.81,0,0,0,1.79,0l.21.41c.47.93,1,1.89,1.55,2.89a16.7,16.7,0,0,0,1.26,1.79c5.49,6.84,18.45,12.15,25.71,13.35,8.81,1.46,17.42-3.47,23.94-7.93,1-.7,1.92-1.4,2.8-2.09a26.1,26.1,0,0,1,3.57-2.48,28.35,28.35,0,0,1,4.21-1.57c1.38-.44,2.79-.89,4.26-1.49a27.18,27.18,0,0,0,14.36-14c1,4.83,1.59,5.61,2.25,6.43a6.11,6.11,0,0,0,4.08,2.28c4.42.54,6.35-3.31,7.18-4.95.53-1.06,1.11-2.31,1.56-3.34h0a7.91,7.91,0,0,0,1.31-2.42,4.64,4.64,0,0,0,.26-.44,11.5,11.5,0,0,0,6.23-6.62c.07-.15.32-.5.48-.74a8.24,8.24,0,0,0,1.82-5.91,11.89,11.89,0,0,0-.93-11.72,9.14,9.14,0,0,0-1.95-4.65,10.87,10.87,0,0,0-1.85-1.79,19.48,19.48,0,0,0-1.77-2.94l-.18-.23Z"/><path class="cls-6" d="M135.06,57.76l.08.1A21,21,0,0,1,137,61.27l.15.09a6.14,6.14,0,0,1,1.7,1.36c1.16,1.45.28,2.69,1.37,4a3.64,3.64,0,0,0,.48.49.45.45,0,0,1,.09.1c.65.81,1.29,4.19,0,5.5-1,1-1.24,2.18-.84,2.68l.11.11a.91.91,0,0,1,.2.19c.7.86-1.25,2.11-1.92,4.28a5.56,5.56,0,0,1-4.44,3.28,7.31,7.31,0,0,1-.59.52.29.29,0,0,1,0,.09c0,.53-.7.82-.76,1.35,0,.15,0,.32-.07.43s-.19.11-.28.17c-.33.21-.23.7-.32,1.09a1.82,1.82,0,0,1-.4.7c-.14.2-.29.39-.43.58-1.2,2.73-2.49,5.41-2.77,5.38,0,0-.05,0-.08-.06-.56-.7-1.71-7.54-2-9.72l-.38-.1a3.35,3.35,0,0,1-1.65-1.1c-.81-1-.81-2.27-1.21-2.82l0-.07c-.33-.4-.91-.71-1.19-1a.51.51,0,0,1,0-.66c.34-.53-.65-1.66-.7-2.1-.67-.1-1.29,0-1.44.47-.89,2.51-1.3,2.76-1.51,2.48s-.22-.64-.3-.74-.08,0-.15.24l0,.08c0,.28,0,.56,0,.84a41,41,0,0,1-.43,4.71,20.71,20.71,0,0,1-12.5,15.35c-2.92,1.22-6.15,1.84-8.94,3.29-2.56,1.34-4.63,3.33-7,4.94-5.32,3.64-12.78,8.08-19.53,7-6.31-1.05-17.71-5.86-22-11.17a11.19,11.19,0,0,1-.78-1.11c-1.33-2.22-2.23-4.69-3.86-6.72q-.29-.36-.6-.69c-.14-.15-.29-.3-.44-.44-.6.4-1.16,1.07-1.76,1.38-.93.48-2.06.18-3.1.31-.82.1-1.58.48-2.39.63a18.29,18.29,0,0,1-2.67.1,8.37,8.37,0,0,0-3.56,1,7,7,0,0,1-1.46.71,1.49,1.49,0,0,1-1.5-.36h0A.85.85,0,0,1,25.34,97a2.83,2.83,0,0,1-2.1-.88L23.18,96a1.34,1.34,0,0,1,.51-2,2.83,2.83,0,0,1,1.67.38,3.69,3.69,0,0,0,2.08.15.33.33,0,0,0-.08-.22.86.86,0,0,0-.26-.2c-.72-.4-1.52-.64-2.23-1.06a3.69,3.69,0,0,1-1-.85,2.18,2.18,0,0,1-.47-1,1.51,1.51,0,0,1,1.5-.37,6.44,6.44,0,0,1,1.47.66,9.44,9.44,0,0,0,5.17,1,.87.87,0,0,0,.61-.23c.21-.26.06-.64-.16-.91a.52.52,0,0,0-.1-.11c-.11-.12-.23-.23-.33-.36a.83.83,0,0,1-.22-.61.79.79,0,0,1,.88-.59,3.2,3.2,0,0,1,1.11.39,5.4,5.4,0,0,0,3.27.4h0c-.05,0-.09-.11-.14-.17-2.8-3.49-.89-8.37-.78-13a11.35,11.35,0,0,1,.58-3.22h0c-1-.43-2.14.58-3.17.74s-2-.47-3-.67c-.81-.15-1.65,0-2.47-.14A19.75,19.75,0,0,1,25,73.25a8.36,8.36,0,0,0-3.69-.17,6.7,6.7,0,0,1-1.6.22,1.63,1.63,0,0,1-1.16-.54.92.92,0,0,1-.16-.27.86.86,0,0,1,.7-1.17,3.48,3.48,0,0,1-1.42-1,1.94,1.94,0,0,1-.33-.62c-.25-.78.3-1.8,1.11-1.76.58,0,1,.52,1.47.88a3.69,3.69,0,0,0,1.93.78.43.43,0,0,0-.12-.42l-.07-.08c-.56-.6-1.25-1.08-1.8-1.7l-.15-.18A2.74,2.74,0,0,1,19,65.2a1.53,1.53,0,0,1,1.54.12,6.45,6.45,0,0,1,1.19,1.09A9.55,9.55,0,0,0,26.34,69,.82.82,0,0,0,27,69c.32-.2.24-.7.08-1s-.39-.75-.23-1.09a.8.8,0,0,1,1-.29,3.15,3.15,0,0,1,.92.72,5.5,5.5,0,0,0,3,1.39c.9.12,2,.2,2.54.86a2.26,2.26,0,0,1,.16.26c.72-.56,1.68-.12,2.86.55a1.35,1.35,0,0,0,.53,0,44.21,44.21,0,0,1,4.46-6.57,8.28,8.28,0,0,1-.81-.76l-.12-.15a5,5,0,0,1,3.55-8.12,1.94,1.94,0,0,1,.42-2.53c.53-.42,1.34-.59,1.58-1.22.39-1-1-2.21-.33-3.06.15-.2.39-.33.47-.56a1,1,0,0,0-.19-.8,8.49,8.49,0,0,0-.69-1.07,1.45,1.45,0,0,0-1.49-.68,1.16,1.16,0,0,1-1.16-.47,2,2,0,0,1-.41-1.1,2.29,2.29,0,0,1,1.36-2.08,4.45,4.45,0,0,1,2.58-.29,1.84,1.84,0,0,1-1.12-.7,2.36,2.36,0,0,1-.49-1.93,3.28,3.28,0,0,1,2.28-2.35,3.3,3.3,0,0,1-2.44-1.3,3.53,3.53,0,0,1-.54-3.77,1.76,1.76,0,0,1-2-.68,2.41,2.41,0,0,1-.54-1.66,5.13,5.13,0,0,1,2.27-3.32,34.51,34.51,0,0,1,10.18-5,16.64,16.64,0,0,1,3.57-.94,12.7,12.7,0,0,1,3.64.19c.48.08.95.18,1.42.3h0c.39.1.78.22,1.17.34l.36.13c.29.1.58.2.86.32l.36.14c.38.17.76.34,1.14.53A18.77,18.77,0,0,1,71,23.77l.29.16a6.91,6.91,0,0,1,1.89,1.6,4.7,4.7,0,0,1,.67,1.09,5.83,5.83,0,0,0,.62,1.25,1.18,1.18,0,0,0,.42.35l-.3-1.83c-.05-.29-.07-.64.16-.81s.61,0,.84.31l.14.21A10.68,10.68,0,0,1,77,33a2,2,0,0,0,.15,1.51.86.86,0,0,0,.14.13l1-.82a.73.73,0,0,1,.32-.18.37.37,0,0,1,.33.15,1,1,0,0,1,.18.64,3.28,3.28,0,0,1-.7,1.81c-.35.45-.83.8-1.17,1.26a4.25,4.25,0,0,0-.75,2.34,9.37,9.37,0,0,0,.42.92l0,0a7.87,7.87,0,0,0,.52.86,31,31,0,0,0,10.39-.42,26,26,0,0,1,7.26-.49,19.91,19.91,0,0,1,7.09,2.53,43.91,43.91,0,0,1,9,6.74,17.89,17.89,0,0,1,1.63,1.76c.37.46.71.94,1,1.42l.21.11c.32.18.65.37,1,.53l.18.08a3.26,3.26,0,0,0,1.54.42,2.53,2.53,0,0,0,.68-.16,3.18,3.18,0,0,1-.33-.3l-.12-.14a1.3,1.3,0,0,1-.33-.77s0-.07,0-.1a.9.9,0,0,1,.74-.18,2.39,2.39,0,0,1,.43.14l.2.1a3,3,0,0,1,.33.21l.29.23a7.81,7.81,0,0,0,1.45,1,8.16,8.16,0,0,0,2.19.81c.17,0,.32.06.46.07a2.28,2.28,0,0,0,.36,0,.1.1,0,0,0,.08,0s0,0,0-.06a.51.51,0,0,0,0-.22c0-.58-.54-1.78.1-1.81h0a3.1,3.1,0,0,1,.57.36l.32.28a6,6,0,0,0,.63.5,6.49,6.49,0,0,0,1.75.75,3.57,3.57,0,0,1,.34.17.24.24,0,0,0,.19,0,.12.12,0,0,0,.06-.08,2.89,2.89,0,0,0,0-.9.5.5,0,0,1,0-.28.42.42,0,0,1,.23-.4l.12-.05a.45.45,0,0,1,.27.06.4.4,0,0,1,.13.13l0,0a9,9,0,0,0,.54.75,7.23,7.23,0,0,0,2.09,1.86.11.11,0,0,0,.08,0c.3-.14.29-2.11.91-1.44l.06.07a1.47,1.47,0,0,1,.1.13,2.84,2.84,0,0,1,.18.31,8,8,0,0,0,.79,1.25h0c.86,1.07,1.1.11,1.86.71a.87.87,0,0,1,.15.13,2.62,2.62,0,0,1,.26.29M139.79,54a9.07,9.07,0,0,0-.77-.85,6.71,6.71,0,0,0-.63-.55,6.87,6.87,0,0,0-1.58-.94,3.64,3.64,0,0,0-.36-.49c-.13-.16-.25-.31-.37-.43a6.41,6.41,0,0,0-4.59-2.05l-.31-.21a6.37,6.37,0,0,0-4.53-1c-.2,0-.39.07-.59.12h0a6,6,0,0,0-2.94-.58,6.54,6.54,0,0,0-2.16.49l-.52-.26a7.93,7.93,0,0,0-2-.6,7.24,7.24,0,0,0-2,0q-.51-.54-1-1a49.84,49.84,0,0,0-10.28-7.65,25.5,25.5,0,0,0-9.27-3.23,30.59,30.59,0,0,0-8.78.5l-.17,0-1.8.27c0-.23.06-.47.08-.71a7.07,7.07,0,0,0-1.5-4.8,5.89,5.89,0,0,0-.63-.68A16.48,16.48,0,0,0,81,23.09a7.27,7.27,0,0,0-.67-1,6.92,6.92,0,0,0-4.8-2.62c-.32-.24-.66-.46-1-.68a25,25,0,0,0-4.57-3c-.46-.24-1-.48-1.54-.72l-.4-.17-.07,0c-.38-.16-.77-.3-1.15-.43l-.08,0-.41-.14c-.55-.18-1-.32-1.53-.44l-.11,0c-.59-.15-1.17-.27-1.74-.37a18.49,18.49,0,0,0-5.39-.24,22.13,22.13,0,0,0-4.86,1.23,40.3,40.3,0,0,0-11.93,6C38,22.55,36.42,25.1,36.18,28a8.5,8.5,0,0,0,1.85,6,7.84,7.84,0,0,0,.67.73,9.81,9.81,0,0,0,.87,2.19c0,.07,0,.14,0,.2l-.06.37a8,8,0,0,0-.63,10.72,7.77,7.77,0,0,0,1.1,1.12,7.47,7.47,0,0,0-.64,1.18,11,11,0,0,0-4.22,5A11.14,11.14,0,0,0,34.75,63a15.05,15.05,0,0,0-2-.35h0a8.18,8.18,0,0,0-2.62-1.75,7,7,0,0,0-5.34,0,9.52,9.52,0,0,0-1.1-.79A7.52,7.52,0,0,0,15.89,60,6.05,6.05,0,0,0,13,64.26c0,.07,0,.13,0,.19a3.11,3.11,0,0,0-.23.28,7.56,7.56,0,0,0-1.23,6.82,7.84,7.84,0,0,0,.82,1.79,6.74,6.74,0,0,0,1.45,3.21,7.7,7.7,0,0,0,5.51,2.8,10.89,10.89,0,0,0,2.85-.26l.22,0a2.27,2.27,0,0,1,1,0c.19,0,.38.12.57.18a14.47,14.47,0,0,0,2.83.73,13.8,13.8,0,0,0,1.89.1h.26l.2.07.2.07,0,.18c-.15,1.2-.33,2.54-.39,4a6.85,6.85,0,0,0-1.35.92,7.84,7.84,0,0,0-1.29-.41,7.53,7.53,0,0,0-7.47,2.3,6.07,6.07,0,0,0-1.39,4.94l0,.18c-.05.11-.09.23-.13.34a7.56,7.56,0,0,0,1,6.87c.08.12.17.23.26.34A8.41,8.41,0,0,0,19.57,101a7.33,7.33,0,0,0,.73,1.11l.11.14a7.47,7.47,0,0,0,7.66,2.3,10.33,10.33,0,0,0,2.62-1.13l.2-.11a2.11,2.11,0,0,1,.94-.26,5.81,5.81,0,0,1,.59,0,12.5,12.5,0,0,0,4.75-.69l.25-.08h.2a14.74,14.74,0,0,0,1.8,0l.21.41c.47.92.95,1.88,1.55,2.88a16.68,16.68,0,0,0,1.25,1.8c5.49,6.84,18.46,12.15,25.71,13.35,8.82,1.46,17.43-3.48,23.94-7.94,1-.69,1.93-1.4,2.81-2.08a25.24,25.24,0,0,1,3.57-2.48,27.24,27.24,0,0,1,4.21-1.58c1.37-.43,2.79-.88,4.25-1.49a27.09,27.09,0,0,0,14.36-14c1,4.83,1.6,5.61,2.25,6.42a6.21,6.21,0,0,0,4.08,2.29c4.43.53,6.36-3.31,7.18-5,.54-1.06,1.11-2.32,1.57-3.35h0A7.91,7.91,0,0,0,137.68,89a4.79,4.79,0,0,0,.25-.45,11.44,11.44,0,0,0,6.23-6.62,8.47,8.47,0,0,1,.49-.73,8.25,8.25,0,0,0,1.82-5.91,11.9,11.9,0,0,0-.93-11.73,9.08,9.08,0,0,0-1.95-4.64,10.51,10.51,0,0,0-1.85-1.79A19.8,19.8,0,0,0,140,54.2l-.18-.23Z"/><path class="cls-8" d="M102.08,43.36A19.8,19.8,0,0,0,95,40.83a26,26,0,0,0-7.26.49c-3.5.57-7.11,1.08-10.67.38-1.69-.33-3.35-.93-5.06-1.12a15.32,15.32,0,0,0-6.85,1A28.65,28.65,0,0,0,51.47,51.8C50,53.82,48.87,56,47.33,58c-1.23,1.57-2.7,3-4,4.48-3.27,3.82-7.72,9.89-7.83,14.94s-2.41,10.42,1.7,14a56.93,56.93,0,0,1,4.56,3.73c2,2.14,3,4.93,4.46,7.41,3.42,5.73,16,11.16,22.75,12.28s14.21-3.32,19.52-7c2.36-1.61,4.44-3.6,7-4.94,2.78-1.45,6-2.07,8.94-3.28a20.73,20.73,0,0,0,12.49-15.36,38.88,38.88,0,0,0,.43-4.71c.47-9.3,1.68-22-6.23-29.43A43.7,43.7,0,0,0,102.08,43.36Z"/><path class="cls-9" d="M34.31,69.89c.71-.55,1.68-.12,2.86.55.67.13,1.38-.39,2-.15.41.15.67.57,1,.8.7.45,1.63.15,2.45.26a7.75,7.75,0,0,0,2.08.41,5.93,5.93,0,0,1,.82-.16,3.43,3.43,0,0,1,1.14.39,3.46,3.46,0,0,0,2.67-.23,2.36,2.36,0,0,1,1.54-.4c.42.1.72.48,1.12.64.82.34,2-.24,2.57.42a.92.92,0,0,1,.18.3c.52-.07,1-.16,1.57-.28l-.89,5.75a26.79,26.79,0,0,0-4.86-2.11l-.2-.06a4.19,4.19,0,0,1-2.79.34c-1.16-.37-2-1.63-3.18-1.73-1-.08-2,.56-2.78,0a2.53,2.53,0,0,0-.55-.37c-.39-.13-.78.17-1.19.21-.62.06-1.23-.47-1.83-.29-.17.05-.31.15-.48.21a1.4,1.4,0,0,1-1.28-.26l-.28,0c-1-.43-2.13.58-3.17.74s-2-.47-3-.67c-.81-.15-1.65,0-2.47-.14a19.31,19.31,0,0,1-2.57-.74,8.37,8.37,0,0,0-3.69-.17,6.79,6.79,0,0,1-1.61.22,1.47,1.47,0,0,1-1.31-.8.86.86,0,0,1,.7-1.18,2.78,2.78,0,0,1-1.76-1.58c-.24-.78.3-1.8,1.12-1.76.58,0,1,.52,1.47.88a3.66,3.66,0,0,0,1.92.78c.08-.17-.05-.36-.18-.5-.57-.6-1.25-1.08-1.8-1.7a2.82,2.82,0,0,1-.84-2.24,1.53,1.53,0,0,1,1.54.12,6.45,6.45,0,0,1,1.19,1.09,9.49,9.49,0,0,0,4.59,2.58.88.88,0,0,0,.66,0c.32-.21.24-.71.07-1s-.39-.74-.23-1.09a.8.8,0,0,1,1-.29,3.07,3.07,0,0,1,.93.72,5.46,5.46,0,0,0,3,1.39C32.61,68.9,33.87,69,34.31,69.89Z"/><path class="cls-9" d="M39.31,90.81c.51-.76,1.57-.65,2.89-.37.68-.09,1.2-.81,1.89-.78.44,0,.81.33,1.24.44.8.2,1.59-.37,2.41-.52a8.06,8.06,0,0,0,2.1-.26,4.33,4.33,0,0,1,.73-.4,3.29,3.29,0,0,1,1.21,0,3.45,3.45,0,0,0,2.46-1.05c.39-.37.79-.83,1.33-.87a11,11,0,0,1,1.27.27c.89.06,1.79-.84,2.58-.41a1,1,0,0,1,.26.23c.47-.23.94-.47,1.41-.75L62,92.09a26.42,26.42,0,0,0-5.26-.49h-.21A4.19,4.19,0,0,1,54,92.8c-1.22,0-2.38-.94-3.57-.66-.92.22-1.71,1.15-2.62.9a2.56,2.56,0,0,0-.64-.18c-.41,0-.69.4-1.07.57-.57.25-1.31-.06-1.83.29-.14.1-.25.24-.38.35a1.41,1.41,0,0,1-1.3.15l-.26.12c-1-.12-1.85,1.22-2.78,1.69s-2,.18-3.09.31c-.82.11-1.58.48-2.4.64a19.69,19.69,0,0,1-2.67.09,8.32,8.32,0,0,0-3.55,1,7,7,0,0,1-1.46.71,1.48,1.48,0,0,1-1.5-.36.85.85,0,0,1,.3-1.33,2.73,2.73,0,0,1-2.16-1,1.33,1.33,0,0,1,.51-2,2.83,2.83,0,0,1,1.67.38,3.66,3.66,0,0,0,2.07.15c0-.19-.17-.33-.33-.42-.73-.4-1.52-.64-2.24-1.06a2.83,2.83,0,0,1-1.49-1.86,1.5,1.5,0,0,1,1.49-.37,6.32,6.32,0,0,1,1.48.66,9.43,9.43,0,0,0,5.16,1,.85.85,0,0,0,.61-.23c.25-.3,0-.75-.25-1s-.6-.58-.56-1a.81.81,0,0,1,.89-.59,3.15,3.15,0,0,1,1.1.39,5.42,5.42,0,0,0,3.27.4C37.4,90.39,38.61,90.08,39.31,90.81Z"/><path class="cls-10" d="M132.74,81.19s-.27.34,0,1.62c.43,1.89,4.74-.23,5.46-2.56s2.9-3.59,1.72-4.47c-.55-.41-.35-1.68.73-2.79,1.32-1.37.56-5-.13-5.6-2.29-2,.35-3.63-3.54-5.9-1.61-.94-1,0-3.47,3.69s-.08,13-.08,13"/><path class="cls-10" d="M128.72,81.5c-.91-.85-1.73-1.63-2.56-2.38-1.24-1.1-3.49-3-5.11-3.15-.85-.06.92,1.61.48,2.29s.79,1.1,1.28,1.78.32,3.09,2.86,3.92c1.89.61.32-.85,2.12-1.77A6.57,6.57,0,0,0,128.72,81.5Z"/><path class="cls-11" d="M131.84,55.5c-1-1.94-.89,1.13-1.33.93a7.82,7.82,0,0,1-2.66-2.64.41.41,0,0,0-.75.27c-.11.23.21,1.14,0,1.25s-.4-.18-.53-.21c-2.23-.64-2.26-1.41-3.27-1.89-.85,0,.29,2.16-.24,2.1a7.58,7.58,0,0,1-4.46-1.86c-.56-.48-1.42-1-2-.5-.07.42.31.93.79,1.32a2.51,2.51,0,0,1-2.22-.26c-1-.41-1.86-1.22-2.9-1.08-.25.28.09.69.41.87s.73.45.61.81-.65.32-1,.2l-2.13-.7c-1,.23.76,1.94.34,2.18-.26.15-3.13-.53-3.85-.45a3.24,3.24,0,0,0-2.4,1c-.39.55,3.78.71.78,2.41a14.15,14.15,0,0,1-2.72.59,9.32,9.32,0,0,1-5.09-2c-.77-.66-2.3-2.75-3.06-2.84-.39-.05,0,1.23-.32,2-.11.29-1.33-1-1.65-2.38C92,54,90.43,51,89.85,51s.15,2-.33,2S86.3,50.77,84,49c-4.35-4.31-6.71-6.7-7.62-9.1a4.33,4.33,0,0,1,.74-2.34c.35-.46.82-.81,1.18-1.26A3.21,3.21,0,0,0,79,34.53c0-.35-.15-.83-.5-.79a.68.68,0,0,0-.32.18l-1,.83c-.46-.36-.37-1.07-.28-1.65a10.68,10.68,0,0,0-1.28-6.87c-.21-.36-.64-.76-1-.52s-.21.52-.17.81c.11.61.21,1.22.31,1.83-.58-.29-.78-1-1-1.6a6.12,6.12,0,0,0-2.57-2.69,2.69,2.69,0,0,0-.29-.16A18.89,18.89,0,0,0,67,21.27a18.37,18.37,0,0,0-5.3-1.76,12.36,12.36,0,0,0-3.64-.18,17.15,17.15,0,0,0-3.58.93,34.46,34.46,0,0,0-10.17,5,5.09,5.09,0,0,0-2.27,3.33c-.12,1.37,1.27,2.86,2.55,2.33a3.65,3.65,0,0,0,3,5.07,3.31,3.31,0,0,0-2.29,2.35A2.26,2.26,0,0,0,46.92,41a4.45,4.45,0,0,0-2.58.29A2.32,2.32,0,0,0,43,43.35c.05.87.72,1.76,1.58,1.57,1-.24,1.65.83,2.18,1.75a1,1,0,0,1,.19.8c-.09.23-.33.37-.48.56-.64.85.73,2.06.34,3.06-.25.64-1.05.8-1.59,1.22a1.93,1.93,0,0,0-.41,2.53,5,5,0,0,0-3.43,8.27c1.15,1.32,3,2,3.78,3.61A1.38,1.38,0,0,0,45,68.39a4.5,4.5,0,0,0-2,4.51,6.34,6.34,0,0,0,2.88,4.2c-.84-.22-1.33,1-1,1.83s1.1,1.39,1.33,2.22a5,5,0,0,1,0,1.68,9.35,9.35,0,0,0,3.38,7.79,7.43,7.43,0,0,1,1.22,1.09,9.3,9.3,0,0,1,.87,1.76,8.15,8.15,0,0,0,5.17,4.07,24.47,24.47,0,0,0,6.73.73,5.3,5.3,0,0,1,1.59.2,9.57,9.57,0,0,1,1.23.64,6.07,6.07,0,0,0,5.58,0,3.46,3.46,0,0,1,2.11-.71,3.33,3.33,0,0,1,1.18.61,6.2,6.2,0,0,0,4.76,1c.1.7,1.09.74,1.79.58l2.7-.59a.87.87,0,0,0-.56.75,10.35,10.35,0,0,1,2.14-.47l-.49,1.39A22.8,22.8,0,0,0,94,98.26a3.61,3.61,0,0,1,2.67-.94,3.66,3.66,0,0,0-1.39,2.15c2.08-1.21,4.22-2.33,6.39-3.37a3.32,3.32,0,0,0-.36,2.76l5-6.78a3,3,0,0,1,2-1.51,1,1,0,0,0,.44,1.21,31,31,0,0,0,2.78-5.56c1.46-3.3,2.35-5.22,2.89-5.48s.26,1.81.8,1.84a20.18,20.18,0,0,0,2.23-4c.37-1.33.1,3.24,2-2,.23-.67,1.64-.65,2.55-.06.31.19-.32.29,1,1.07.57.36-.78.48,1.1,2,.94.75.19,1.36,1.34,2.87s1.11,2.45,1.87,2.73c2.77,1,6.23-.47,8-3.48,2.41-4.12,4.75-9.92,3.85-15.26s-.94-2.26-1.49-3.52C133.19,53,134.33,60.16,131.84,55.5Z"/><path class="cls-12" d="M128.5,81.77c.19-.09.32-.32.53-.34s.46.3.61.56a1.76,1.76,0,0,0,1.36.85.47.47,0,0,1,.27.07c.13.08.14.26.2.4a3.23,3.23,0,0,0,1.69-.43s0,.08,0,.14a.26.26,0,0,1,.21.19c0,.17-.15.29-.19.44s0,.33.06.49c0,.53-.71.82-.76,1.35,0,.15,0,.32-.07.43s-.19.11-.28.17c-.34.21-.23.71-.32,1.09a2.28,2.28,0,0,1-.4.71l-.44.57c-1.19,2.73-2.48,5.41-2.76,5.38-.55-.07-1.91-8.27-2.18-10.1a.4.4,0,0,0,.19-.07.59.59,0,0,1,0-.13,1.09,1.09,0,0,0,.3-.07c.16-.14.33-.31.51-.49a.84.84,0,0,0,.08-.31c0-.3-.1-.67.12-.88S128.08,82,128.5,81.77Z"/><path class="cls-13" d="M76.39,39.94a4.33,4.33,0,0,1,.74-2.34c.35-.46.82-.81,1.18-1.26A3.21,3.21,0,0,0,79,34.53c0-.35-.15-.83-.5-.79a.68.68,0,0,0-.32.18l-1,.83c-.46-.36-.37-1.07-.28-1.65a10.68,10.68,0,0,0-1.28-6.87c-.21-.36-.64-.76-1-.52s-.21.52-.17.81c.11.61.21,1.22.31,1.83-.58-.29-.78-1-1-1.6a6.12,6.12,0,0,0-2.57-2.69,2.69,2.69,0,0,0-.29-.16A18.89,18.89,0,0,0,67,21.27a18.53,18.53,0,0,0-3.88-1.46,1.84,1.84,0,0,0,1.24,1.05c.75.21,1.64.27,2.09.91s.39,1.86,1.19,2c.15-.6,1.06-.39,1.58,0a8.48,8.48,0,0,1,3.39,3.38c.46,1.08.68,2.56,1.82,2.82a2.47,2.47,0,0,1,.71.18,1.11,1.11,0,0,1,.39.92,6.33,6.33,0,0,1-.43,2.72A3.72,3.72,0,0,0,74.73,35a.94.94,0,0,0,.69,1,2.71,2.71,0,0,1,.41,0c.52.16.28.94.06,1.44a4.11,4.11,0,0,0,.5,3.71A11.73,11.73,0,0,0,79,43.89,13.62,13.62,0,0,1,76.39,39.94Z"/><path class="cls-14" d="M139.05,66.49c-.92-5.49-.94-2.26-1.49-3.52-4.37-9.94-3.23-2.81-5.72-7.47-1-1.94-.89,1.13-1.33.93a7.82,7.82,0,0,1-2.66-2.64.41.41,0,0,0-.75.27c-.11.23.21,1.14,0,1.25s-.4-.18-.53-.21c-2.23-.64-2.26-1.41-3.27-1.89-.85,0,.29,2.16-.24,2.1a7.58,7.58,0,0,1-4.46-1.86c-.56-.48-1.42-1-2-.5-.07.42.31.93.79,1.32a2.51,2.51,0,0,1-2.22-.26c-1-.41-1.86-1.22-2.9-1.08-.25.28.09.69.41.87s.73.46.61.81-.65.32-1,.2l-2.13-.7c-1,.23.76,1.94.34,2.18-.26.15-3.13-.53-3.85-.45a3.24,3.24,0,0,0-2.4,1c-.39.55,3.78.71.78,2.41a14.15,14.15,0,0,1-2.72.59,9.32,9.32,0,0,1-5.09-2c-.77-.66-2.3-2.75-3.06-2.84-.39-.05,0,1.23-.32,2-.11.29-1.33-1-1.65-2.38C92,54,90.43,51,89.85,51s.15,2-.33,2S86.3,50.77,84,49l-.45-.45A2.66,2.66,0,0,0,84,50.91a22.81,22.81,0,0,0,2.72,2.26c1.51,1.38,2.21,3.45,3.64,4.91,1.21,1.24.37-.93,4.44,2.62,8.23,7.17-1.73-4.22,11.92,5a1.61,1.61,0,0,0,1.09.25,2.38,2.38,0,0,0,1.13-.68,9.35,9.35,0,0,1,5.85-2.22,2.4,2.4,0,0,0,1.41-.28c.39-.3.43-1,0-1.19a3.5,3.5,0,0,1,3.7.12c.76.53,1.55,1.42,2.42,1.08.49-.18.74-.7,1-1.14a4.72,4.72,0,0,1,8,.23,2.48,2.48,0,0,0-2.52,1.55,5.81,5.81,0,0,0-.08,1,11.06,11.06,0,0,1-.32,1.58c-.62,2.72-3.16-.06,1.56,8a2.52,2.52,0,0,0,1.85,1.34c1.35.11,2.17-1.45,2.45-2.78a9.35,9.35,0,0,1,1.78-3.48c.46-.49.75,2.27,1.07,2.74s.66-.25,1-.37a6,6,0,0,1,.5,2.09A17.59,17.59,0,0,0,139.05,66.49Z"/><path class="cls-15" d="M131.34,68.05c-.66.16-.94,1.23-.77,1.9s.86,1.29,1.5,1.15a1.55,1.55,0,0,0,.87-1.73C132.78,68.73,132,67.89,131.34,68.05Z"/><path class="cls-16" d="M131.43,68.36a1.41,1.41,0,0,1,1.25,1,1.26,1.26,0,0,1-.63,1.45,1.9,1.9,0,0,0,.23-1.34A2.34,2.34,0,0,0,131.43,68.36Z"/><path class="cls-17" d="M88.72,81.61s-14.3,4-22-2-4.37-11.17-4.37-11.17-1.11.39-4.35-2.86-3.15-8.06-.26-8.8a6.08,6.08,0,0,1-1.7-5.27,4,4,0,0,1,6.27-2.82s-5.77-.11-4,4A18.5,18.5,0,0,0,64,59.69s-7.66-1.28-5.91,1.9,6.25,5.81,9.77,7.84c0,0-5.23-.42-3.67,3.7S75.86,84.5,88.72,81.61Z"/><path class="cls-18" d="M88.72,81.61s-14.3,4-22-2-4.37-11.17-4.37-11.17-1.11.39-4.35-2.86-3.15-8.06-.26-8.8a6.08,6.08,0,0,1-1.7-5.27,4,4,0,0,1,6.27-2.82"/><path class="cls-18" d="M131.11,88.33c.14-.19.29-.38.43-.58a1.82,1.82,0,0,0,.4-.7c.09-.39,0-.88.32-1.09.09-.06.21-.08.28-.17s.06-.28.07-.43c.06-.53.8-.82.76-1.35a.29.29,0,0,0,0-.09,7.31,7.31,0,0,0,.59-.52,5.56,5.56,0,0,0,4.44-3.28c.72-2.32,2.9-3.59,1.72-4.47-.55-.41-.34-1.68.73-2.79,1.32-1.38.56-5-.12-5.6-2.29-2,.34-3.63-3.55-5.9l-.15-.09a21,21,0,0,0-1.87-3.41c-.13-.16-.24-.29-.34-.39a.87.87,0,0,0-.15-.13c-.76-.6-1,.36-1.86-.72a8,8,0,0,1-.79-1.25,2.84,2.84,0,0,0-.18-.31,2,2,0,0,0-.16-.2c-.62-.67-.61,1.3-.92,1.44a.08.08,0,0,1-.07,0A7.93,7.93,0,0,1,128,53.69l0,0h0a.4.4,0,0,0-.13-.13.45.45,0,0,0-.27-.06l-.12.05a.42.42,0,0,0-.23.4.5.5,0,0,0,0,.28,2.89,2.89,0,0,1,0,.9.12.12,0,0,1-.06.08.24.24,0,0,1-.19,0,3.57,3.57,0,0,0-.34-.17,6.49,6.49,0,0,1-1.75-.75,6,6,0,0,1-.63-.5l-.32-.28a3.1,3.1,0,0,0-.57-.36h0c-.64,0-.15,1.23-.1,1.81a.51.51,0,0,1,0,.22s0,0,0,.06a.1.1,0,0,1-.08,0,2.28,2.28,0,0,1-.36,0c-.14,0-.29,0-.46-.07a8.16,8.16,0,0,1-2.19-.81,7.81,7.81,0,0,1-1.45-1l-.29-.23a3,3,0,0,0-.33-.21l-.2-.1a2.39,2.39,0,0,0-.43-.14.9.9,0,0,0-.74.18h0s0,.07,0,.1a1.38,1.38,0,0,0,.45.91,3.18,3.18,0,0,0,.33.3,2.53,2.53,0,0,1-.68.16,3.23,3.23,0,0,1-1.54-.42l-.18-.08c-.34-.16-.67-.35-1-.53l-.21-.11A17.68,17.68,0,0,0,111.28,50a43.91,43.91,0,0,0-9-6.74,19.91,19.91,0,0,0-7.09-2.53,26,26,0,0,0-7.26.49,31,31,0,0,1-10.4.42,9.69,9.69,0,0,1-.51-.86l0,0a9.37,9.37,0,0,1-.42-.92,4.25,4.25,0,0,1,.75-2.34c.34-.46.82-.81,1.17-1.26a3.28,3.28,0,0,0,.7-1.81c0-.36-.15-.83-.51-.79a.73.73,0,0,0-.32.18l-1,.82C76.86,34.25,77,33.55,77,33a10.68,10.68,0,0,0-1.28-6.87c-.2-.37-.63-.76-1-.52s-.21.52-.16.81l.3,1.83c-.58-.29-.77-1-1-1.6a6.16,6.16,0,0,0-2.56-2.69L71,23.77a18.77,18.77,0,0,0-3.84-2.63c-.38-.19-.76-.36-1.14-.53l-.36-.14c-.28-.12-.57-.22-.86-.32L64.47,20c-.39-.12-.78-.24-1.17-.34h0c-.47-.12-.94-.22-1.42-.3a12.7,12.7,0,0,0-3.64-.19,16.64,16.64,0,0,0-3.57.94,34.51,34.51,0,0,0-10.18,5,5.13,5.13,0,0,0-2.27,3.32c-.12,1.38,1.27,2.87,2.55,2.34a3.65,3.65,0,0,0,3,5.07,3.28,3.28,0,0,0-2.28,2.35,2.24,2.24,0,0,0,1.61,2.63,4.45,4.45,0,0,0-2.58.29,2.29,2.29,0,0,0-1.36,2.08c0,.87.71,1.76,1.57,1.57,1-.24,1.65.83,2.18,1.75a1,1,0,0,1,.19.8c-.08.23-.32.36-.47.56-.65.85.72,2.06.33,3.06-.24.63-1,.8-1.58,1.22a1.94,1.94,0,0,0-.42,2.53A5,5,0,0,0,41.51,63a8.28,8.28,0,0,0,.81.76,44.21,44.21,0,0,0-4.46,6.57,1.35,1.35,0,0,1-.53,0c-1.18-.67-2.14-1.11-2.86-.55-.44-.91-1.69-1-2.7-1.12a5.5,5.5,0,0,1-3-1.39,3.15,3.15,0,0,0-.92-.72.8.8,0,0,0-1,.29c-.16.34.06.74.23,1.09s.24.84-.08,1a.82.82,0,0,1-.65,0,9.55,9.55,0,0,1-4.6-2.58,6.45,6.45,0,0,0-1.19-1.09A1.53,1.53,0,0,0,19,65.2a2.82,2.82,0,0,0,.84,2.24c.55.62,1.23,1.1,1.8,1.7.13.14.26.33.19.5a3.69,3.69,0,0,1-1.93-.78C19.45,68.5,19,68,18.44,68c-.81,0-1.36,1-1.11,1.76a2.76,2.76,0,0,0,1.75,1.58.86.86,0,0,0-.7,1.17,1.48,1.48,0,0,0,1.32.81,6.7,6.7,0,0,0,1.6-.22,8.36,8.36,0,0,1,3.69.17,19.75,19.75,0,0,0,2.57.74c.82.11,1.66,0,2.47.14,1,.2,2,.84,3,.67s2.21-1.17,3.17-.74h0a11.35,11.35,0,0,0-.58,3.22c-.11,4.69-2.09,9.66.92,13.16h0a5.4,5.4,0,0,1-3.27-.4,3.2,3.2,0,0,0-1.11-.39.79.79,0,0,0-.88.59c0,.38.29.69.55,1s.5.72.26,1a.87.87,0,0,1-.61.23,9.44,9.44,0,0,1-5.17-1,6.44,6.44,0,0,0-1.47-.66,1.51,1.51,0,0,0-1.5.37A2.81,2.81,0,0,0,24.87,93c.71.42,1.51.66,2.23,1.06.17.09.35.23.34.42a3.69,3.69,0,0,1-2.08-.15A2.83,2.83,0,0,0,23.69,94a1.34,1.34,0,0,0-.51,2,2.77,2.77,0,0,0,2.16,1,.85.85,0,0,0-.3,1.33,1.49,1.49,0,0,0,1.5.36A7,7,0,0,0,28,97.93a8.37,8.37,0,0,1,3.56-1,18.29,18.29,0,0,0,2.67-.1c.81-.15,1.57-.53,2.39-.63,1-.13,2.17.17,3.1-.31.6-.31,1.16-1,1.76-1.38.15.14.3.29.44.44,2,2.14,3,4.93,4.46,7.41,3.43,5.73,16,11.16,22.75,12.28s14.21-3.32,19.53-7c2.36-1.61,4.43-3.6,7-4.94,2.79-1.45,6-2.07,8.94-3.29a20.71,20.71,0,0,0,12.5-15.35,41,41,0,0,0,.43-4.71c0-.28,0-.56,0-.84l0-.08c.37-1.33.1,3.24,2-2,.15-.42.77-.57,1.44-.47.05.44,1,1.57.7,2.1-.45.71.8,1.1,1.28,1.78s.33,3.09,2.86,3.92l.38.1c.35,2.29,1.61,9.72,2.13,9.78C128.62,93.74,129.91,91.06,131.11,88.33Z"/></g></g></svg>