<svg xmlns="http://www.w3.org/2000/svg" viewBox="0 0 150 150"><defs><style>.cls-1{isolation:isolate;}.cls-2{fill:#002451;opacity:0.27;}.cls-3{fill:#fff2cc;}.cls-4{fill:#29abe2;}.cls-5,.cls-7{opacity:0.2;}.cls-5{mix-blend-mode:multiply;}.cls-6{fill:#fff;}.cls-8{fill:#000f56;}.cls-9{fill:#dab363;}.cls-10{fill:#836461;}.cls-11{fill:none;stroke:#1e134d;stroke-linecap:round;stroke-linejoin:round;stroke-width:0.87px;}</style></defs><title>lab02-</title><g class="cls-1"><g id="Layer_1" data-name="Layer 1"><rect class="cls-2" x="16.51" y="15.84" width="120.09" height="120.09" rx="36.12" ry="36.12"/><rect class="cls-3" x="13.41" y="12.74" width="120.09" height="120.09" rx="36.12" ry="36.12"/><path class="cls-4" d="M133,102.54H120.08A17.12,17.12,0,0,0,103,119.66V132.4A36.15,36.15,0,0,0,133,102.54Z"/><g class="cls-5"><rect x="115.37" y="111.04" width="1.38" height="10.82"/><polygon points="116.03 106.94 113.24 111.76 118.81 111.76 116.03 106.94"/><polygon points="116.06 125.88 118.85 121.06 113.27 121.06 116.06 125.88"/><rect x="110.65" y="115.76" width="10.82" height="1.38"/><polygon points="106.57 116.43 111.4 119.21 111.4 113.64 106.57 116.43"/><polygon points="125.52 116.39 120.69 113.61 120.69 119.18 125.52 116.39"/></g><rect class="cls-6" x="114.37" y="110.04" width="1.38" height="10.82"/><polygon class="cls-6" points="115.03 105.94 112.24 110.76 117.81 110.76 115.03 105.94"/><polygon class="cls-6" points="115.06 124.88 117.85 120.06 112.27 120.06 115.06 124.88"/><rect class="cls-6" x="109.65" y="114.76" width="10.82" height="1.38"/><polygon class="cls-6" points="105.57 115.43 110.4 118.21 110.4 112.64 105.57 115.43"/><polygon class="cls-6" points="124.52 115.39 119.69 112.61 119.69 118.18 124.52 115.39"/><g class="cls-7"><path class="cls-8" d="M60.21,99.34a2.25,2.25,0,0,1-2-1.23,3.45,3.45,0,0,0-.93-1.18,7.77,7.77,0,0,0-1.56-.81l-.3-.12a16.42,16.42,0,0,1-2.73-1.46A8,8,0,0,1,52,94l-.1-.07c-.16-.12-.36-.27-.56-.45l-.51-.44-.19-.18-.51-.56L50,92.25a8.67,8.67,0,0,1-1.81-3.7,12.07,12.07,0,0,1-.2-3.68,16.62,16.62,0,0,1,.65-3.28c0-.08.05-.15.07-.22a21.85,21.85,0,0,1-1.88-2.61,18.27,18.27,0,0,1-2.38-5.91,14.76,14.76,0,0,1-.23-1.77c0-.55,0-1.09,0-1.61a15.37,15.37,0,0,1,.42-3.36,12.2,12.2,0,0,1,3.94-6.6,10.33,10.33,0,0,1,6.63-2.44,10.45,10.45,0,0,1,4.29-1.82,16.16,16.16,0,0,1,5.33,0,2.23,2.23,0,0,1,1.65-.11,18.11,18.11,0,0,0,6.18.32,6.87,6.87,0,0,1,7.28,4.42,8.46,8.46,0,0,1-3.14,9.88c-2.33,1.75-7.51,2.51-12.57,1.85a2.26,2.26,0,0,1-1.1-.46,19.59,19.59,0,0,1-6-2,10.5,10.5,0,0,1-2.85-2.26,3.25,3.25,0,0,0-.91,1.56A6.8,6.8,0,0,0,53,69.89c0,.27,0,.56,0,.85a4.72,4.72,0,0,0,0,.68,9.62,9.62,0,0,0,1.08,3.17,13.39,13.39,0,0,0,2.3,3.16,12.42,12.42,0,0,1,1.76-.94A9.16,9.16,0,0,1,61.57,76a7.9,7.9,0,0,1,3.53.77l.56.26a7.5,7.5,0,0,0,1,.44,1.83,1.83,0,0,0,.45.07,8.15,8.15,0,0,0,.85,0,16.33,16.33,0,0,0,3.76-.68,2.26,2.26,0,0,1,2.74,1.32,1.76,1.76,0,0,1,.13.43,7.55,7.55,0,0,1,2-1,6.5,6.5,0,0,1,.87-.22,5.55,5.55,0,0,1,.94-.11l.29,0h.76c.56,0,1.17-.12,1.75-.21a26.07,26.07,0,0,0,3.64-.87c.6-.18,1.19-.39,1.77-.62a9.21,9.21,0,0,0,1.44-.72,2.26,2.26,0,0,1,2.77,3.56,12.44,12.44,0,0,1-2,1.48c-.66.4-1.34.77-2,1.1l-.24.12.43.13c1.06.35,2.1.71,3.11,1.06l1.57.54A30.33,30.33,0,0,0,96,83.94a19.51,19.51,0,0,0,4.31.26,13.38,13.38,0,0,0,2-.27h0a8.12,8.12,0,0,0,1.77-.58,2.26,2.26,0,0,1,2.15,4A14.61,14.61,0,0,1,100.77,89a25.48,25.48,0,0,1-5.46,0,35.93,35.93,0,0,1-5.22-1l-1.49-.4h0c1.14.52,2.29,1.12,3.42,1.77a47.13,47.13,0,0,1,4.21,2.72A2.27,2.27,0,0,1,93.81,96,38.52,38.52,0,0,0,89.74,94a36.37,36.37,0,0,0-4.19-1.43c-.24-.07-.44-.11-.65-.16l-.44-.11h0l-.19,0A12.54,12.54,0,0,1,83,91.89l-.21-.09a5.53,5.53,0,0,1,1.46,1.31,2.27,2.27,0,0,1-3.42,3c-.05,0-.31-.15-.39-.19-.29-.13-.63-.24-.92-.34a20,20,0,0,0-2.16-.5c-1.53-.29-3.11-.44-4.72-.59a13.36,13.36,0,0,1-6.24-1.94,7.85,7.85,0,0,1-2.93-3.3l-.12-.26a19.7,19.7,0,0,1-7.76-2.1c-.23-.11-.46-.24-.68-.36a4.75,4.75,0,0,0-.1,1.16,2.42,2.42,0,0,0,.29,1l.19.28.31.37,0,0,.17.18.12.12a2.64,2.64,0,0,0,.29.29l.06.06a11.33,11.33,0,0,0,1.7,1.27l.28.18a11.6,11.6,0,0,1,2.29,1.77,7.87,7.87,0,0,1,1.86,3.17,2.27,2.27,0,0,1-1.29,2.79A2.21,2.21,0,0,1,60.21,99.34ZM71.72,87.86a9.9,9.9,0,0,0,1.86.61c1.67.41,3.41.86,5.11,1.45.8.29,1.63.6,2.45,1a7.6,7.6,0,0,1-3-4.52l-1.08.21c-1.57.32-3.15.71-4.62,1.08Zm-3.84-1.43h0ZM66.14,67.24c3.83.28,7-.41,7.92-1.11a3.93,3.93,0,0,0,1.64-4.59A2.35,2.35,0,0,0,73.12,60a24.68,24.68,0,0,1-6.78-.21,2.18,2.18,0,0,1-1.08.12,15.29,15.29,0,0,0-4.91-.18A5.34,5.34,0,0,0,57.57,61a2.26,2.26,0,0,1-1.83.65A5.83,5.83,0,0,0,51.48,63a7.27,7.27,0,0,0-2,2.83,7.17,7.17,0,0,1,2.18-2.71A5.62,5.62,0,0,1,55.4,62a2.29,2.29,0,0,1,1.79,1.22,4.9,4.9,0,0,0,2.06,1.9,16.38,16.38,0,0,0,5.87,1.72A2.37,2.37,0,0,1,66.14,67.24Z"/></g><path class="cls-6" d="M60.21,98.34a2.26,2.26,0,0,1-2-1.24,3.45,3.45,0,0,0-.93-1.18,7.29,7.29,0,0,0-1.56-.8l-.3-.13a17.2,17.2,0,0,1-2.73-1.45c-.23-.15-.46-.31-.72-.51l-.1-.07c-.16-.12-.36-.27-.56-.45l-.51-.44a1.07,1.07,0,0,1-.19-.18l-.51-.56L50,91.24a8.67,8.67,0,0,1-1.81-3.7,12.05,12.05,0,0,1-.2-3.68,16.76,16.76,0,0,1,.65-3.28,1.72,1.72,0,0,0,.07-.21,22.68,22.68,0,0,1-1.88-2.61,18.36,18.36,0,0,1-2.38-5.91,14.67,14.67,0,0,1-.23-1.78c0-.55,0-1.08,0-1.6a15.39,15.39,0,0,1,.42-3.37,12.17,12.17,0,0,1,3.94-6.59,10.34,10.34,0,0,1,6.63-2.45,10.59,10.59,0,0,1,4.29-1.82,16.44,16.44,0,0,1,5.33,0,2.23,2.23,0,0,1,1.65-.11,18.34,18.34,0,0,0,6.18.33,6.85,6.85,0,0,1,7.28,4.42,8.45,8.45,0,0,1-3.14,9.87c-2.33,1.75-7.51,2.51-12.57,1.85a2.17,2.17,0,0,1-1.1-.46,19.59,19.59,0,0,1-6-2,10.32,10.32,0,0,1-2.85-2.26,3.3,3.3,0,0,0-.91,1.56A6.91,6.91,0,0,0,53,68.88c0,.28,0,.56,0,.85a4.5,4.5,0,0,0,0,.68,9.47,9.47,0,0,0,1.08,3.17,13.65,13.65,0,0,0,2.3,3.17,12.48,12.48,0,0,1,1.76-1A9.36,9.36,0,0,1,61.57,75a7.78,7.78,0,0,1,3.53.78l.56.25a7.75,7.75,0,0,0,1,.45,2.46,2.46,0,0,0,.45.07H68a16.29,16.29,0,0,0,3.76-.67,2.25,2.25,0,0,1,2.74,1.31,1.71,1.71,0,0,1,.13.44,7.29,7.29,0,0,1,2-1,6.26,6.26,0,0,1,.87-.21,5.63,5.63,0,0,1,.94-.12l.29,0h.76c.56,0,1.17-.11,1.75-.2a27.57,27.57,0,0,0,3.64-.87q.9-.28,1.77-.63a8.42,8.42,0,0,0,1.44-.72,2.27,2.27,0,0,1,2.77,3.57,13.75,13.75,0,0,1-2,1.48c-.66.39-1.34.76-2,1.09l-.24.12.43.14c1.06.34,2.1.7,3.11,1l1.57.55A30.24,30.24,0,0,0,96,82.93a19.51,19.51,0,0,0,4.31.26,13.38,13.38,0,0,0,2-.27h0a7.62,7.62,0,0,0,1.77-.58,2.27,2.27,0,0,1,2.15,4A14.79,14.79,0,0,1,100.77,88a24.85,24.85,0,0,1-5.46,0,35.87,35.87,0,0,1-5.22-1l-1.49-.4h0c1.14.53,2.29,1.12,3.42,1.77a45,45,0,0,1,4.21,2.73,2.26,2.26,0,0,1-2.41,3.82A40.62,40.62,0,0,0,89.74,93a34.47,34.47,0,0,0-4.19-1.42l-.65-.17-.44-.1,0,0-.19,0A12.54,12.54,0,0,1,83,90.88l-.21-.08a5.36,5.36,0,0,1,1.46,1.31,2.27,2.27,0,0,1-3.42,3c-.05,0-.31-.16-.39-.2a8.46,8.46,0,0,0-.92-.33A19.83,19.83,0,0,0,77.32,94c-1.53-.28-3.11-.44-4.72-.59a13.46,13.46,0,0,1-6.24-1.93,7.87,7.87,0,0,1-2.93-3.31l-.12-.25a19.87,19.87,0,0,1-7.76-2.1c-.23-.12-.46-.24-.68-.37a4.83,4.83,0,0,0-.1,1.16,2.38,2.38,0,0,0,.29,1l.19.29.31.36,0,0a1.45,1.45,0,0,0,.17.18l.12.13a4,4,0,0,0,.29.29l.06,0a10.69,10.69,0,0,0,1.7,1.27l.28.18a12,12,0,0,1,2.29,1.77,7.91,7.91,0,0,1,1.86,3.18,2.26,2.26,0,0,1-1.29,2.78A2.22,2.22,0,0,1,60.21,98.34ZM71.72,86.85a10.66,10.66,0,0,0,1.86.62c1.67.41,3.41.86,5.11,1.45a24.52,24.52,0,0,1,2.45,1,7.51,7.51,0,0,1-3-4.51c-.34,0-.7.12-1.08.2-1.57.33-3.15.71-4.62,1.08Zm-3.84-1.42h0ZM66.14,66.24c3.83.28,7-.42,7.92-1.12a3.92,3.92,0,0,0,1.64-4.59A2.36,2.36,0,0,0,73.12,59a25.06,25.06,0,0,1-6.78-.2,2.3,2.3,0,0,1-1.08.11,15,15,0,0,0-4.91-.17A5.27,5.27,0,0,0,57.57,60a2.26,2.26,0,0,1-1.83.65A5.83,5.83,0,0,0,51.48,62a7.35,7.35,0,0,0-2,2.83,7.06,7.06,0,0,1,2.18-2.7A5.51,5.51,0,0,1,55.4,61a2.25,2.25,0,0,1,1.79,1.21,4.84,4.84,0,0,0,2.06,1.9,16.38,16.38,0,0,0,5.87,1.73A2.14,2.14,0,0,1,66.14,66.24Z"/><path class="cls-9" d="M59.92,56.47c-6.16,1.21-7.07,6.71-1.77,9.64,5.46,3,14.25,2.56,16.86.61,4.82-3.61,2.5-10.25-2.43-9.78C67.13,57.47,63.69,55.72,59.92,56.47Z"/><path class="cls-10" d="M64.5,68.35c4.55.59,9.13-.08,10.92-1.42,5-3.78,2.61-10.79-2.54-10.23a20.29,20.29,0,0,1-7.1-.42l-.64,1.07,1.92,1.45-1,1.61.71,1.89-1.6,1.1,1.44.91-1.7,1.25.79,2Z"/><path class="cls-9" d="M55.58,63.34a3.15,3.15,0,0,0-2.61.59,5.29,5.29,0,0,0-1.85,2.82,9.35,9.35,0,0,0-.35,2c0,.35,0,.7,0,1a7.57,7.57,0,0,0,.06,1,11.83,11.83,0,0,0,1.33,4,16.17,16.17,0,0,0,6,6.31,14.84,14.84,0,0,0,8.56,2c.38,0,.76,0,1.14-.11s.73-.1,1.14-.18l2.42-.43c1.61-.29,3.24-.56,4.89-.78a22,22,0,0,1,5.08-.19,23.19,23.19,0,0,1,4.92,1.12c1.57.51,3.11,1.06,4.65,1.59a32.57,32.57,0,0,0,4.69,1.2,22.29,22.29,0,0,0,4.83.3,16.61,16.61,0,0,0,2.41-.33,9.73,9.73,0,0,0,2.3-.77,12.89,12.89,0,0,1-4.68,1.4,23.4,23.4,0,0,1-5,0,35,35,0,0,1-4.86-.93c-1.59-.42-3.16-.86-4.73-1.25a21.27,21.27,0,0,0-4.68-.73,20.72,20.72,0,0,0-4.66.51c-1.57.33-3.15.71-4.73,1.11l-2.37.6c-.39.1-.84.19-1.25.28s-.87.14-1.3.21a17.9,17.9,0,0,1-10.37-1.75,19.73,19.73,0,0,1-7.81-7.25,16.33,16.33,0,0,1-2.09-5.17,12.48,12.48,0,0,1-.19-1.48q0-.7,0-1.41a13.85,13.85,0,0,1,.36-2.89A10,10,0,0,1,50,60.24a8.05,8.05,0,0,1,6.57-1.79Z"/><path class="cls-9" d="M54.79,80.27a14.4,14.4,0,0,0-1.19,2,11.62,11.62,0,0,0-.83,2.21,7.47,7.47,0,0,0-.27,2.24,4.88,4.88,0,0,0,.62,2.07l.31.47.4.47a6,6,0,0,0,.42.46,4.47,4.47,0,0,0,.44.43,13.65,13.65,0,0,0,2,1.53,11.66,11.66,0,0,1,2.16,1.61,5.69,5.69,0,0,1,1.33,2.3,5.62,5.62,0,0,0-1.61-2,11.93,11.93,0,0,0-2.28-1.17,15,15,0,0,1-2.41-1.27c-.2-.12-.38-.26-.57-.4l-.55-.43-.52-.45-.52-.56a6.61,6.61,0,0,1-1.34-2.75,10,10,0,0,1-.16-3,14.85,14.85,0,0,1,.58-2.85,15.73,15.73,0,0,1,1.07-2.73Z"/><path class="cls-9" d="M55.05,81.07a2.37,2.37,0,0,1,.24-.34l.22-.26q.23-.25.45-.48a10.33,10.33,0,0,1,3.14-2.11,6.74,6.74,0,0,1,2.53-.65,5.6,5.6,0,0,1,2.52.56,15,15,0,0,0,1.94.83,4.46,4.46,0,0,0,1,.15,9.37,9.37,0,0,0,1.06,0,18.41,18.41,0,0,0,4.3-.76,19.32,19.32,0,0,1-4.17,1.63c-.37.09-.75.16-1.14.22a5.14,5.14,0,0,1-1.24,0,15.86,15.86,0,0,1-2.25-.53,3.74,3.74,0,0,0-1.79-.13A4.62,4.62,0,0,0,60.2,80a8.32,8.32,0,0,0-1.46,1.24,6.53,6.53,0,0,0-.58.72c-.09.12-.17.25-.25.37l-.1.19s-.07.13-.06.13Z"/><path class="cls-9" d="M68,84.76s0,0,0,0l0,.08a1.21,1.21,0,0,0,0,.18,2.73,2.73,0,0,0-.05.4,2.87,2.87,0,0,0,.09.82,3.11,3.11,0,0,0,1,1.51,9.3,9.3,0,0,0,4.09,1.91c1.63.4,3.29.83,4.89,1.39a22.8,22.8,0,0,1,2.36,1,10.88,10.88,0,0,1,1.11.62,3.5,3.5,0,0,1,1,.82,3.4,3.4,0,0,0-1.06-.65c-.38-.17-.77-.3-1.16-.43a20.23,20.23,0,0,0-2.42-.57c-1.64-.31-3.27-.47-5-.62a11.2,11.2,0,0,1-5.22-1.59,5.74,5.74,0,0,1-2.1-2.35A5.29,5.29,0,0,1,65,85.62a4.8,4.8,0,0,1,0-.85,3.37,3.37,0,0,1,0-.44l0-.23c0-.08,0-.15.07-.29Z"/><path class="cls-9" d="M73.77,82.36c0-.17.09-.25.13-.37l.14-.3c.09-.19.2-.38.31-.57a6.39,6.39,0,0,1,.79-1,5.3,5.3,0,0,1,2.2-1.35,4.15,4.15,0,0,1,.61-.14,3.19,3.19,0,0,1,.61-.08l.31,0h.24c.16,0,.32,0,.49,0a19.84,19.84,0,0,0,2-.22,30.94,30.94,0,0,0,4-1c.66-.2,1.3-.43,1.94-.69a11,11,0,0,0,1.84-.93,10.32,10.32,0,0,1-1.7,1.22c-.6.36-1.21.69-1.84,1a31.12,31.12,0,0,1-3.91,1.6c-.67.21-1.36.42-2.07.57l-.55.1-.26,0-.21,0a2.75,2.75,0,0,0-.41.11,2.06,2.06,0,0,0-.37.16,3.09,3.09,0,0,0-1.17,1,3.78,3.78,0,0,0-.37.69,2.32,2.32,0,0,0-.13.37l0,.18c0,.05,0,.13,0,.13Z"/><path class="cls-9" d="M82.81,82.48c0,.07-.09.25-.13.39s-.07.31-.1.47a4.3,4.3,0,0,0-.07.94A3.33,3.33,0,0,0,83,86a3.9,3.9,0,0,0,1.43,1.29,9.93,9.93,0,0,0,1,.45c.38.16.76.29,1.13.45a38.53,38.53,0,0,1,4.31,2.16,40.94,40.94,0,0,1,4,2.59,43,43,0,0,0-4.29-2,40.19,40.19,0,0,0-4.45-1.51c-.37-.11-.75-.18-1.12-.28s-.84-.22-1.25-.38a5.64,5.64,0,0,1-2.28-1.58,5.45,5.45,0,0,1-1.22-2.63,7.6,7.6,0,0,1-.1-1.42c0-.24,0-.48.06-.71a5.18,5.18,0,0,1,.14-.76Z"/><path class="cls-11" d="M102.86,85.13a16.61,16.61,0,0,1-2.41.33,22.29,22.29,0,0,1-4.83-.3A32.57,32.57,0,0,1,90.93,84c-1.54-.53-3.08-1.08-4.65-1.59a23.19,23.19,0,0,0-4.92-1.12,21.44,21.44,0,0,0-4.32.09,3.1,3.1,0,0,1,1-.77,2.06,2.06,0,0,1,.37-.16,2.75,2.75,0,0,1,.41-.11l.21,0,.26,0,.55-.1c.71-.15,1.4-.36,2.07-.57a31.12,31.12,0,0,0,3.91-1.6c.63-.31,1.24-.64,1.84-1a10.32,10.32,0,0,0,1.7-1.22,11,11,0,0,1-1.84.93c-.64.26-1.28.49-1.94.69a30.94,30.94,0,0,1-4,1,19.84,19.84,0,0,1-2,.22c-.17,0-.33,0-.49,0h-.24l-.31,0a3.19,3.19,0,0,0-.61.08,4.15,4.15,0,0,0-.61.14,5.3,5.3,0,0,0-2.2,1.35,6.39,6.39,0,0,0-.79,1c-.11.19-.22.38-.31.57l0,.08-2.61.45L69,82.65c-.41.08-.76.12-1.14.18s-.76.07-1.14.11a14.9,14.9,0,0,1-8-1.69l.06-.06A8.32,8.32,0,0,1,60.2,80a4.62,4.62,0,0,1,1.62-.75,3.74,3.74,0,0,1,1.79.13,15.86,15.86,0,0,0,2.25.53,5.14,5.14,0,0,0,1.24,0c.39-.06.77-.13,1.14-.22A19.32,19.32,0,0,0,72.41,78a18.41,18.41,0,0,1-4.3.76,9.37,9.37,0,0,1-1.06,0,4.46,4.46,0,0,1-1-.15,14.37,14.37,0,0,1-1.93-.83,5.68,5.68,0,0,0-2.53-.56,6.74,6.74,0,0,0-2.53.65,10.8,10.8,0,0,0-2.17,1.27c-.22.17-.43.35-.64.53a16.24,16.24,0,0,1-4.16-5,12.06,12.06,0,0,1-1.33-4,7.57,7.57,0,0,1-.06-1c0-.35,0-.7,0-1a9.35,9.35,0,0,1,.35-2A5.29,5.29,0,0,1,53,63.93a3.24,3.24,0,0,1,2.21-.66,7.05,7.05,0,0,0,3,2.84,18.64,18.64,0,0,0,6.71,2l-.36.25c4.55.59,9.13-.08,10.92-1.42,5-3.78,2.61-10.79-2.54-10.23a20.29,20.29,0,0,1-7.1-.42l-.21.34a16.58,16.58,0,0,0-5.65-.15,7.59,7.59,0,0,0-4,1.9,8.08,8.08,0,0,0-6,1.87,10,10,0,0,0-3.19,5.38,13.85,13.85,0,0,0-.36,2.89q0,.7,0,1.41a12.48,12.48,0,0,0,.19,1.48,16.33,16.33,0,0,0,2.09,5.17,20.26,20.26,0,0,0,2.52,3.28c-.17.45-.32.9-.46,1.37a14.85,14.85,0,0,0-.58,2.85,10,10,0,0,0,.16,3,6.61,6.61,0,0,0,1.34,2.75l.52.56.52.45.55.43c.19.14.37.28.57.4a15,15,0,0,0,2.41,1.27,11.93,11.93,0,0,1,2.28,1.17,5.62,5.62,0,0,1,1.61,2,5.69,5.69,0,0,0-1.33-2.3,11.66,11.66,0,0,0-2.16-1.61,13.65,13.65,0,0,1-2-1.53,5.93,5.93,0,0,1-.44-.43,6,6,0,0,1-.42-.46l-.4-.47-.31-.47a4.88,4.88,0,0,1-.62-2.07,7.47,7.47,0,0,1,.27-2.24,11.62,11.62,0,0,1,.83-2.21c0-.09.09-.17.13-.26a19.25,19.25,0,0,0,2.85,1.8A17.69,17.69,0,0,0,65,85.71a5.41,5.41,0,0,0,2.55,3.88,11.2,11.2,0,0,0,5.22,1.59c1.68.15,3.31.31,5,.62a20.23,20.23,0,0,1,2.42.57c.39.13.78.26,1.16.43a3.4,3.4,0,0,1,1.06.65,3.5,3.5,0,0,0-1-.82A10.88,10.88,0,0,0,80.31,92a22.8,22.8,0,0,0-2.36-1c-1.6-.56-3.26-1-4.89-1.39A9.3,9.3,0,0,1,69,87.76a3.11,3.11,0,0,1-1-1.51,2.87,2.87,0,0,1-.09-.82h0l.37-.07c.41-.09.86-.18,1.25-.28l2.37-.6c1.58-.4,3.16-.78,4.73-1.11a23.45,23.45,0,0,1,3.59-.49c0,.08,0,.16,0,.25a7.6,7.6,0,0,0,.1,1.42,5.45,5.45,0,0,0,1.22,2.63,5.64,5.64,0,0,0,2.28,1.58c.41.16.86.27,1.25.38s.75.17,1.12.28a40.19,40.19,0,0,1,4.45,1.51,43,43,0,0,1,4.29,2,40.94,40.94,0,0,0-4-2.59,38.53,38.53,0,0,0-4.31-2.16c-.37-.16-.75-.29-1.13-.45a9.93,9.93,0,0,1-1-.45A3.9,3.9,0,0,1,83,86a3.33,3.33,0,0,1-.51-1.73,4.3,4.3,0,0,1,.07-.94c0-.13,0-.25.08-.38a27.45,27.45,0,0,1,3.28.63c1.57.39,3.14.83,4.73,1.25a35,35,0,0,0,4.86.93,23.4,23.4,0,0,0,5,0,12.89,12.89,0,0,0,4.68-1.4A9.73,9.73,0,0,1,102.86,85.13Z"/></g></g></svg>