<svg xmlns="http://www.w3.org/2000/svg" viewBox="0 0 150 150"><defs><style>.cls-1{isolation:isolate;}.cls-2{fill:#002451;opacity:0.27;}.cls-3{fill:#fff2cc;}.cls-4{fill:#29abe2;}.cls-17,.cls-5,.cls-7{opacity:0.2;}.cls-5{mix-blend-mode:multiply;}.cls-6{fill:#fff;}.cls-18,.cls-7{fill:#000f56;}.cls-8{fill:#95c037;}.cls-9{fill:#754c24;}.cls-10{fill:#e85b36;}.cls-11{fill:#3a1840;}.cls-12{fill:#fff945;}.cls-13{fill:#f8d445;}.cls-14{fill:#f8d4a3;}.cls-15{fill:#121212;}.cls-16,.cls-23,.cls-24{fill:none;}.cls-16,.cls-23{stroke:#1e134d;stroke-linecap:round;stroke-linejoin:round;}.cls-16{stroke-width:1.31px;}.cls-19{fill:#9ab635;}.cls-20{fill:#629e00;}.cls-21{fill:#3f7600;}.cls-22{fill:#ddb331;}.cls-23{stroke-width:1.08px;}</style></defs><title>lab02-_mariposa2</title><g class="cls-1"><g id="Layer_2" data-name="Layer 2"><g id="Layer_1-2" data-name="Layer 1"><rect class="cls-2" x="16.51" y="16.94" width="120.09" height="120.09" rx="36.12" ry="36.12"/><rect class="cls-3" x="13.41" y="13.84" width="120.09" height="120.09" rx="36.12" ry="36.12"/><path class="cls-4" d="M133,103.63H120.08A17.12,17.12,0,0,0,103,120.76v12.73A36.15,36.15,0,0,0,133,103.63Z"/><g class="cls-5"><rect x="115.37" y="112.13" width="1.38" height="10.82"/><polygon points="116.03 108.03 113.24 112.86 118.81 112.86 116.03 108.03"/><polygon points="116.06 126.97 118.85 122.15 113.27 122.15 116.06 126.97"/><rect x="110.65" y="116.85" width="10.82" height="1.38"/><polygon points="106.57 117.52 111.4 120.31 111.4 114.73 106.57 117.52"/><polygon points="125.52 117.49 120.69 114.7 120.69 120.27 125.52 117.49"/></g><rect class="cls-6" x="114.37" y="111.13" width="1.38" height="10.82"/><polygon class="cls-6" points="115.03 107.03 112.24 111.86 117.81 111.86 115.03 107.03"/><polygon class="cls-6" points="115.06 125.97 117.85 121.15 112.27 121.15 115.06 125.97"/><rect class="cls-6" x="109.65" y="115.85" width="10.82" height="1.38"/><polygon class="cls-6" points="105.57 116.52 110.4 119.31 110.4 113.73 105.57 116.52"/><polygon class="cls-6" points="124.52 116.49 119.69 113.7 119.69 119.27 124.52 116.49"/><path class="cls-7" d="M102.94,58.61l3,6.79c.28-.22.95-.84,1.16-1h0a18.21,18.21,0,0,1,3.17-2.69h0a6.14,6.14,0,0,1,3.46-1.28c1.55,0,3.32.84,4.68,3.85,0,0,0,.09,0,.13a12.69,12.69,0,0,1,1,2.95c1.24,4.8-.33,7.44-.33,7.44v0a3.68,3.68,0,0,1-.15.47,42,42,0,0,1,14.8,6.93,1.37,1.37,0,0,1-.8,2.45,1.53,1.53,0,0,1-.3,0,19,19,0,0,0-3.9-.38c-4.43,0-9.42,1.35-14.79,3.81-11.32,5.2-16.74,10.09-34.81,12.47-15.76,2.08-30.48,3.36-41.38,3.36A79.91,79.91,0,0,1,27,103.27a81,81,0,0,0-8.47-.72,28.82,28.82,0,0,0-3.2,5.68,3.3,3.3,0,0,1-1,.15c-1.35,0-3.57-.78-3.57-6,0-1.35,1-2.32,2.81-3.23.79-2.67,4.87-5.78,9.17-8.21l-.61-.18-.14,0-.65-.16-.74-.17h0a3.61,3.61,0,0,1-.52-.16h0c-.92-.37-.61-1,2.52-2.93h0l.06,0c.83-.52,1.86-1.14,3.12-1.87.75-.44,1.59-.87,2.5-1.31l.12-.06A99.35,99.35,0,0,1,40.1,79.63h0l.41-.12a17.93,17.93,0,0,0-1-3.18c-.09-.24,0-.35.27-.35A6.58,6.58,0,0,1,43,77.74c.26.24.52.51.76.77,6-1.78,12.07-3.28,16.26-4.25a10.1,10.1,0,0,0-.74-2.45c-.06-.16,0-.23.18-.23a4.32,4.32,0,0,1,2.12,1.15,10.14,10.14,0,0,1,.9,1l1.62-.35.27,0a19.31,19.31,0,0,0-1.51-5.4c-.13-.31,0-.45.34-.45a8.27,8.27,0,0,1,4.13,2.24,21.54,21.54,0,0,1,2.34,2.61l1.92-.36.42-.07.55-.11.48-.09.61-.11.71-.13.25,0,.77-.14.41-.07.6-.11.76-.14.29-.06.85-.15.3-.06.87-.16.27,0L81.9,70l.5-.09.54-.1.44-.08.64-.11.26,0,.73-.13.27,0,.61-.1.34-.06.55-.1.26,0,.54-.1.18,0h0l1.4-.23c1-.17,3.34-.45,5.75-.69h0c2.49-.28,4-.43,5.83-.72-.76-.92-1-3.09-.5-7.5,0,0,2.72,7.15,3,7.15h0a1.29,1.29,0,0,1,.36-.06h.13c.1,0,.18,0,.45-.22-.72-.78-1.7-3.37-1.21-8.13M22.53,87.34h0M103,51.61a6.56,6.56,0,0,0-1.08.09A7,7,0,0,0,98.72,53a7,7,0,0,0-5.45,6.11c-.07.72-.13,1.42-.18,2.09-2,.21-4,.45-5,.63l-1.46.24-.21,0-.54.09h0l-.21,0-.26,0-.31,0-.24,0-.1,0-.62.11-.21,0h-.06l-.36.06-.38.07-.16,0-.11,0-.63.11-.44.08-.32.06-.24,0-.11,0-.39.07-2.18.4-.19,0-.08,0-.67.12-.2,0-.31.06-.85.16L76,64l-.17,0-.7.13h0l-.11,0-.5.09-.4.08-.78.14-.13,0-.11,0-.71.13-.13,0L72,64.5c-2.16-2-5.62-4.06-8.84-4.06a7.38,7.38,0,0,0-6.14,3.19,7.18,7.18,0,0,0-.85,1.71,7.06,7.06,0,0,0-2.72,2.37,7.5,7.5,0,0,0-.6,1.07c-2.32.58-4.89,1.26-7.56,2A10.91,10.91,0,0,0,39.74,69a7.27,7.27,0,0,0-6.06,3.17,7,7,0,0,0-1.1,2.63,74.46,74.46,0,0,0-7.37,3l-.09,0c-1.11.54-2.07,1-2.93,1.54-1.31.76-2.38,1.4-3.26,2h0l-.21.13c-2.46,1.54-6,3.8-6.12,7.94a20.18,20.18,0,0,0-4.46,4.92,9.77,9.77,0,0,0-4.36,8.08c0,4,1,7.19,3,9.49a9.88,9.88,0,0,0,7.6,3.47,10.13,10.13,0,0,0,3.35-.55,7,7,0,0,0,4.18-4h0s.16-.39.47-1c1.1.1,2.32.23,3.7.42a85.72,85.72,0,0,0,11.77.68c10.72,0,25.34-1.18,42.29-3.42,15.07-2,22.28-5.7,29.92-9.63,2.17-1.12,4.41-2.27,6.9-3.42,4.6-2.1,8.59-3.17,11.87-3.17a12.8,12.8,0,0,1,2.47.23A8.36,8.36,0,0,0,138,76.63a45.27,45.27,0,0,0-11.08-6.12,20.82,20.82,0,0,0-.67-4.77,19.77,19.77,0,0,0-1.46-4.21l-.06-.13c-3.23-7.17-8.8-7.95-11-7.95a12.17,12.17,0,0,0-5,1.12,7,7,0,0,0-5.71-3Z"/><path class="cls-6" d="M102.94,56.61l3,6.79c.28-.22.95-.84,1.16-1h0a18.21,18.21,0,0,1,3.17-2.69h0a6.14,6.14,0,0,1,3.46-1.28c1.55,0,3.32.84,4.68,3.85,0,.05,0,.09,0,.13a12.69,12.69,0,0,1,1,2.95c1.24,4.8-.33,7.44-.33,7.44v0a3.68,3.68,0,0,1-.15.47,42,42,0,0,1,14.8,6.93,1.37,1.37,0,0,1-.8,2.45,1.53,1.53,0,0,1-.3,0,19,19,0,0,0-3.9-.38c-4.43,0-9.42,1.35-14.79,3.81-11.32,5.2-16.74,10.09-34.81,12.47-15.76,2.08-30.48,3.36-41.38,3.36A79.91,79.91,0,0,1,27,101.27a81,81,0,0,0-8.47-.72,28.82,28.82,0,0,0-3.2,5.68,3.3,3.3,0,0,1-1,.15c-1.35,0-3.57-.78-3.57-6,0-1.35,1-2.32,2.81-3.23.79-2.67,4.87-5.78,9.17-8.21l-.61-.18-.14,0-.65-.16-.74-.17h0a3.61,3.61,0,0,1-.52-.16h0c-.92-.37-.61-1,2.52-2.93h0l.06,0c.83-.52,1.86-1.14,3.12-1.87.75-.44,1.59-.87,2.5-1.31l.12-.06A99.35,99.35,0,0,1,40.1,77.63h0l.41-.12a17.93,17.93,0,0,0-1-3.18c-.09-.24,0-.35.27-.35A6.58,6.58,0,0,1,43,75.74c.26.24.52.51.76.77,6-1.78,12.07-3.28,16.26-4.25a10.1,10.1,0,0,0-.74-2.45c-.06-.16,0-.23.18-.23a4.32,4.32,0,0,1,2.12,1.15,10.14,10.14,0,0,1,.9,1l1.62-.35.27,0a19.31,19.31,0,0,0-1.51-5.4c-.13-.31,0-.45.34-.45a8.27,8.27,0,0,1,4.13,2.24,21.54,21.54,0,0,1,2.34,2.61l1.92-.36.42-.07.55-.11.48-.09.61-.11.71-.13.25,0,.77-.14.41-.07.6-.11.76-.14.29-.06.85-.15.3-.06.87-.16.27,0L81.9,68l.5-.09.54-.1.44-.08.64-.11.26,0,.73-.13.27,0,.61-.1.34-.06.55-.1.26,0,.54-.1.18,0h0l1.4-.23c1-.17,3.34-.45,5.75-.69h0c2.49-.28,4-.43,5.83-.72-.76-.92-1-3.09-.5-7.5,0,0,2.72,7.15,3,7.15h0a1.29,1.29,0,0,1,.36-.06h.13c.1,0,.18,0,.45-.22-.72-.78-1.7-3.37-1.21-8.13M22.53,85.34h0M103,49.61a6.56,6.56,0,0,0-1.08.09A7,7,0,0,0,98.72,51a7,7,0,0,0-5.45,6.11c-.07.72-.13,1.42-.18,2.09-2,.21-4,.45-5,.63l-1.46.24-.21,0-.54.09h0l-.21,0-.26,0-.31,0-.24,0-.1,0-.62.11-.21,0h-.06l-.36.06-.38.07-.16,0-.11,0-.63.11-.44.08-.32.06-.24,0-.11,0-.39.07-2.18.4-.19,0-.08,0-.67.12-.2,0-.31.06-.85.16L76,62l-.17,0-.7.13h0l-.11,0-.5.09-.4.08-.78.14-.13,0-.11,0-.71.13-.13,0L72,62.5c-2.16-2-5.62-4.06-8.84-4.06a7.38,7.38,0,0,0-6.14,3.19,7.18,7.18,0,0,0-.85,1.71,7.06,7.06,0,0,0-2.72,2.37,7.5,7.5,0,0,0-.6,1.07c-2.32.58-4.89,1.26-7.56,2A10.91,10.91,0,0,0,39.74,67a7.27,7.27,0,0,0-6.06,3.17,7,7,0,0,0-1.1,2.63,74.46,74.46,0,0,0-7.37,3l-.09,0c-1.11.54-2.07,1-2.93,1.54-1.31.76-2.38,1.4-3.26,2h0l-.21.13c-2.46,1.54-6,3.8-6.12,7.94a20.18,20.18,0,0,0-4.46,4.92,9.77,9.77,0,0,0-4.36,8.08c0,4,1,7.19,3,9.49a9.88,9.88,0,0,0,7.6,3.47,10.13,10.13,0,0,0,3.35-.55,7,7,0,0,0,4.18-4h0s.16-.39.47-1c1.1.1,2.32.23,3.7.42a85.72,85.72,0,0,0,11.77.68c10.72,0,25.34-1.18,42.29-3.42,15.07-2,22.28-5.7,29.92-9.63,2.17-1.12,4.41-2.27,6.9-3.42,4.6-2.1,8.59-3.17,11.87-3.17a12.8,12.8,0,0,1,2.47.23A8.36,8.36,0,0,0,138,74.63a45.27,45.27,0,0,0-11.08-6.12,20.82,20.82,0,0,0-.67-4.77,19.77,19.77,0,0,0-1.46-4.21l-.06-.13c-3.23-7.17-8.8-7.95-11-7.95a12.17,12.17,0,0,0-5,1.12,7,7,0,0,0-5.71-3Z"/><path class="cls-8" d="M133.77,80.12a1.37,1.37,0,0,1-1.1,2.43C127.36,81.44,121,82.76,114,86c-11.32,5.19-16.74,10.09-34.81,12.47-21.86,2.88-41.75,4.22-52.17,2.75s-13.59.3-13.59-3.19S20.24,90,26,87.2,57.18,76.42,70.58,73.93C83,71.63,115.31,66.07,133.77,80.12Z"/><path class="cls-9" d="M128.74,79.82C104.5,80.11,62.81,81.76,25.24,95c-6.39,2.24-9.91,11.2-9.91,11.2s-4.58,1.62-4.58-5.81c0-3.22,5.77-4.26,13.51-7.44C47.74,83.29,79.17,74.92,128.74,79.82Z"/><path class="cls-10" d="M40.6,80.1c.42-2.25-.79-5-1.13-5.84s1.83-.13,3.53,1.41a19.63,19.63,0,0,1,2.43,2.86"/><path class="cls-10" d="M64.29,73.23c.54-2.85-1-6.35-1.43-7.41s2.32-.17,4.47,1.79a24,24,0,0,1,3.1,3.64"/><path class="cls-10" d="M60,73.54a7.52,7.52,0,0,0-.74-3.8c-.21-.55,1.19-.09,2.3.91a12.62,12.62,0,0,1,1.58,1.87"/><path class="cls-11" d="M103.34,81.56c-.86,1.17-1.65,1.94-2.74,1.91s-3.29.38-4.08-.39a6,6,0,0,1-.92-1.22l-.31-.11c-1.56-.62-3.41-.12-5.14.52-.56.69-.53,1.31-.84,1.8-.42.67-1.9.05-3.6.7-1.19.45-1.83-.43-2.4-1.07a11.7,11.7,0,0,0-4.66.52,17.79,17.79,0,0,0-1.22,2c-.45,1-1.74.88-3,1a13.67,13.67,0,0,0-3.3.83,2.1,2.1,0,0,1-2.58-1.69l-.17,0a7.3,7.3,0,0,0-4.44-.09c-.1.73-.4,1.7-1.13,1.9a43.1,43.1,0,0,0-4.4,1A2.32,2.32,0,0,1,56,88.52,7.26,7.26,0,0,1,55,88.46a10.13,10.13,0,0,0-5.74.83,4.74,4.74,0,0,1-2.27,2,3.63,3.63,0,0,1-3.25-.47,18.8,18.8,0,0,1-2-.2,12.41,12.41,0,0,0-3,.21A12.87,12.87,0,0,1,37,92c-1.67,1-4.59,2.17-5.74,1.8a4.25,4.25,0,0,1-1.57-1.22,4.2,4.2,0,0,1-3.28-1.42c-3.52-4.66-13-.61-.66-7.82C35.09,77.89,58,72.58,64.1,71.26c0,0,19.44-3.66,25.06-4.57,1.57-.25,6.09-.78,9.42-1h0l1.44-.08a15,15,0,0,0,4.13-.87c2.28-.94,4.48-5.27,8.66-6.15s8,5.73,6.75,12.38c-1.51,8-6.31,8.58-12.52,8.16a7.31,7.31,0,0,1-2.54,1Z"/><path class="cls-12" d="M87.76,66.93A6.79,6.79,0,0,1,85.92,69c-1.26,1-7.06,1.7-10.69,2.07-2.89.29-3.93-.33-4.65-1C76.06,69,83.66,67.63,87.76,66.93Z"/><path class="cls-12" d="M44.09,76.48s.59,1,3.44,1.08,9.95-.84,11.42-2.21,2.47-2.31.8-3.07C59.75,72.28,50.2,74.49,44.09,76.48Z"/><path class="cls-13" d="M20,88.19a13.21,13.21,0,0,1,7.09.67c1.7.94,4.54,1.55,5.71,2s2.38-.61,3.73-2.67,5.31-1.73,6.91-1.33S45.18,89,46.26,89s1.73-1.2,2.85-2.69,5.64-2.31,7-1.7S58.5,87.07,59.85,87s1.68-2.28,2.13-3.21,5.8-1,7.7-1.32,2.35,3.15,3.85,2.77,1.86-1.35,3.23-3.25,4.91-1.6,6.6-1.28,2.17,2.19,3.5,2,1.75-1.22,2.89-3.19,5.09-.65,6.74.53,3.21,1.46,4.16.73.68-1.54,3-2a5.17,5.17,0,0,1,3.17.47,7.19,7.19,0,0,1-2.31.85l-1.16,1.45c-.86,1.17-1.65,1.94-2.74,1.91s-3.29.38-4.08-.39a6,6,0,0,1-.92-1.22l-.31-.11c-1.56-.62-3.41-.12-5.14.52-.56.69-.53,1.31-.84,1.8-.42.67-1.9.05-3.6.7-1.19.45-1.83-.43-2.4-1.07a11.7,11.7,0,0,0-4.66.52,17.79,17.79,0,0,0-1.22,2c-.45,1-1.74.88-3,1a13.67,13.67,0,0,0-3.3.83,2.1,2.1,0,0,1-2.58-1.69l-.17,0a7.3,7.3,0,0,0-4.44-.09c-.1.73-.4,1.7-1.13,1.9a43.1,43.1,0,0,0-4.4,1A2.32,2.32,0,0,1,56,88.52,7.26,7.26,0,0,1,55,88.46a10.13,10.13,0,0,0-5.74.83,4.74,4.74,0,0,1-2.27,2,3.63,3.63,0,0,1-3.25-.47,18.8,18.8,0,0,1-2-.2,12.41,12.41,0,0,0-3,.21A12.87,12.87,0,0,1,37,92c-1.67,1-4.59,2.17-5.74,1.8a4.25,4.25,0,0,1-1.57-1.22,4.2,4.2,0,0,1-3.28-1.42C24.57,88.8,21.24,88.68,20,88.19Z"/><path class="cls-14" d="M94.91,66a21.76,21.76,0,0,1,4.4,2.2c1.68,1.22,5.35,1.09,6.34.18s2.61-6.87,1.41-6c-.36.25-2,2.11-3.61,2.53C102.16,65.21,98.17,65.64,94.91,66Z"/><path class="cls-14" d="M40.1,77.56a6,6,0,0,1-3.82,3.37,36.17,36.17,0,0,0-6.58,2.25c-2.68,1.28-6.2,1.46-7.18,2.08,0,0,3.6-2.17,5.81-3.27A97.63,97.63,0,0,1,40.1,77.56Z"/><path class="cls-15" d="M110.23,59.65s8.24,7.67,8.9,13.1c0,0,2.27-3.78-.76-10.52S110.23,59.65,110.23,59.65Z"/><path class="cls-14" d="M105.12,64.92a4,4,0,0,1-.84-1,6.56,6.56,0,0,1-.53-1.06,8.73,8.73,0,0,1-.55-2.21,12.85,12.85,0,0,1-.09-2.23,19.92,19.92,0,0,1,.25-2.18l.21,0a19.24,19.24,0,0,0,.05,2.15,12.92,12.92,0,0,0,.37,2.08,8.09,8.09,0,0,0,.75,1.9,6.09,6.09,0,0,0,.56.81,2.92,2.92,0,0,0,.62.58Z"/><path class="cls-14" d="M102.26,66.25a4.36,4.36,0,0,1-.84-1,6.56,6.56,0,0,1-.53-1.06,8.49,8.49,0,0,1-.55-2.22,12.73,12.73,0,0,1-.09-2.22c0-.74.13-1.46.24-2.18l.22,0a19.24,19.24,0,0,0,.05,2.15,12.25,12.25,0,0,0,.37,2.08,8.09,8.09,0,0,0,.75,1.9,5.72,5.72,0,0,0,.56.8,2.76,2.76,0,0,0,.62.59Z"/><path class="cls-16" d="M133.77,80.2A42,42,0,0,0,119,73.27a3.68,3.68,0,0,0,.15-.47v0s1.57-2.64.33-7.44a12.69,12.69,0,0,0-1-2.95s0-.08,0-.13c-3-6.74-8.14-2.57-8.14-2.57h0a18.21,18.21,0,0,0-3.17,2.69h0c-.21.14-.88.76-1.16,1l-3-6.79c-.49,4.76.49,7.35,1.21,8.13-.53.38-.34.11-.94.27-.23.06-3-7.15-3-7.15-.46,4.41-.26,6.58.5,7.5-1.82.29-3.34.44-5.83.72h0c-2.41.24-4.72.52-5.75.69l-1.4.23h0l-.18,0-.54.1-.26,0-.55.1-.34.06-.61.1-.27,0-.73.13-.26,0-.64.11-.44.08-.54.1-.5.09-2.17.39-.27,0-.87.16-.3.06-.85.15-.29.06-.76.14-.6.11-.41.07-.77.14-.25,0-.71.13-.61.11-.48.09-.55.11-.42.07-1.92.36a21.54,21.54,0,0,0-2.34-2.61c-2.15-2-4.9-2.85-4.47-1.79a19.31,19.31,0,0,1,1.51,5.4l-.27,0-1.62.35a10.14,10.14,0,0,0-.9-1c-1.11-1-2.51-1.46-2.3-.92A10.1,10.1,0,0,1,60,72.26c-4.19,1-10.22,2.47-16.26,4.25-.24-.26-.5-.53-.76-.77-1.7-1.54-3.86-2.24-3.53-1.41a17.93,17.93,0,0,1,1,3.18l-.41.12h0a99.35,99.35,0,0,0-11.77,4.43l-.12.06c-.91.44-1.75.87-2.5,1.31-1.26.73-2.29,1.35-3.12,1.87l-.06,0h0c-3.13,2-3.44,2.56-2.52,2.93h0a3.61,3.61,0,0,0,.52.16h0l.74.17.65.16.14,0,.61.18c-4.3,2.43-8.38,5.54-9.17,8.21-1.77.91-2.81,1.88-2.81,3.23,0,7.43,4.58,5.81,4.58,5.81a28.82,28.82,0,0,1,3.2-5.68,81,81,0,0,1,8.47.72c10.42,1.48,30.31.13,52.17-2.75,18.07-2.38,23.49-7.27,34.81-12.47,7-3.21,13.38-4.54,18.69-3.43A1.36,1.36,0,0,0,133.77,80.2Z"/><g class="cls-17"><path class="cls-18" d="M30.32,68.81A3.36,3.36,0,0,1,27,65.57c-.15-.53-.86-2.17-1.49-3.61-1.09-2.5-2.59-5.92-3.91-9.69-2.43-6.9-3-10.44-3.28-14.92a10.79,10.79,0,0,1,1.73-6.74,5.66,5.66,0,0,1,.15-.59,5.89,5.89,0,0,1,2-4c1-1,3.56-4,3.9-4.41a10.23,10.23,0,0,1,1.23-1.32,4.76,4.76,0,0,1,.82-.76l.12-.1-.09-.22c-.81,0-2.18.1-3.43.2l-.94.07a51.21,51.21,0,0,1-11.14-.41l-.48-.06c-3.5-.42-3.36-3.15-3.33-3.46a3.11,3.11,0,0,1,.47-1.41A1.42,1.42,0,0,1,9.23,14a3.62,3.62,0,0,1,.61-3.62,3.81,3.81,0,0,1,3.73-1.21c1,.21,2.39.21,9.5.12,6-.07,13.25-1.9,16.33-2.69l1.36-.33c3.27-.75,5.06.6,5.65,2.11a4.26,4.26,0,0,1,.2.8,3.68,3.68,0,0,1,2.7,2.33c.24.7.74,3.09-2.62,4.64s-8.44,2.12-9.89,2.25q.2.44.51,1.05c.26.5.48.91.64,1.3,1.06,1.14,2.26,2.37,3,3A19.52,19.52,0,0,1,44.55,28a4.86,4.86,0,0,1,.69,2.84c1.16,3.48,1.07,8.31-.29,15.43-1.76,9.24-6.24,14.31-6.29,14.36l0,0a39,39,0,0,1-2.25,4.11c-1.57,2.54-2.44,3.66-4.08,3.78a3.11,3.11,0,0,1-.68,0,3.45,3.45,0,0,1-1.17.27ZM27,65.45v0ZM28,65v0Zm2.14-1.6ZM26,31.74a3,3,0,0,1-.78,1.86,4.53,4.53,0,0,0-1,3.39c.21,3.47.55,6.45,3,13.3,1.25,3.57,2.69,6.87,3.74,9.28.26.58.48,1.09.68,1.56a27.51,27.51,0,0,0,1.72-3.28,3.21,3.21,0,0,1,.67-1,1.8,1.8,0,0,0,.19-.2A27.31,27.31,0,0,0,39.1,45.18c1.21-6.34,1.31-10.55.33-12.87a3.06,3.06,0,0,1-.21-1.58A14.58,14.58,0,0,0,37,28.22c-1.17-1-2.83-2.77-3.88-3.94a3.12,3.12,0,0,1-.48-.72c-.29.27-.57.49-.8.67a2.73,2.73,0,0,1-.38.38,3.94,3.94,0,0,0-.62.64c-.48.62-3.23,3.81-4.46,5a.38.38,0,0,0-.09.09A3.16,3.16,0,0,1,26,31.74Zm13.32-1.58Z"/></g><path class="cls-6" d="M30.32,67.44A3.36,3.36,0,0,1,27,64.19c-.15-.52-.86-2.16-1.49-3.61-1.09-2.5-2.59-5.92-3.91-9.68C19.18,44,18.6,40.46,18.33,36a10.77,10.77,0,0,1,1.73-6.74q.06-.3.15-.6a5.89,5.89,0,0,1,2-4c1-1,3.56-4,3.9-4.4A10.08,10.08,0,0,1,27.31,19a5.74,5.74,0,0,1,.82-.76l.12-.09-.09-.23c-.81,0-2.18.1-3.43.2l-.94.08a51.85,51.85,0,0,1-11.14-.41l-.48-.06c-3.5-.42-3.36-3.16-3.33-3.47a3.07,3.07,0,0,1,.47-1.4l-.08-.18A3.62,3.62,0,0,1,9.84,9a3.82,3.82,0,0,1,3.73-1.22c1,.21,2.39.21,9.5.13,6-.08,13.25-1.91,16.33-2.69l1.36-.34C44,4.15,45.82,5.5,46.41,7a4.07,4.07,0,0,1,.2.8,3.66,3.66,0,0,1,2.7,2.33c.24.69.74,3.08-2.62,4.64S38.25,16.89,36.8,17q.2.43.51,1c.26.49.48.91.64,1.29,1.06,1.15,2.26,2.37,3,3a19.51,19.51,0,0,1,3.59,4.23,4.9,4.9,0,0,1,.69,2.84C46.4,33,46.31,37.79,45,44.92c-1.76,9.24-6.24,14.3-6.29,14.35l0,0a39.35,39.35,0,0,1-2.25,4.12C34.82,66,34,67.07,32.31,67.19a3.91,3.91,0,0,1-.68,0,3.23,3.23,0,0,1-1.17.27ZM27,64.08v0Zm1-.47v0ZM30.14,62ZM26,30.37a3,3,0,0,1-.78,1.85,4.54,4.54,0,0,0-1,3.4c.21,3.47.55,6.45,3,13.3,1.25,3.56,2.69,6.87,3.74,9.28.26.58.48,1.09.68,1.55a26.68,26.68,0,0,0,1.72-3.27,3.09,3.09,0,0,1,.67-1l.19-.2A27.31,27.31,0,0,0,39.1,43.8c1.21-6.33,1.31-10.54.33-12.86a3.06,3.06,0,0,1-.21-1.58A14.58,14.58,0,0,0,37,26.85c-1.17-1.05-2.83-2.78-3.88-4a2.92,2.92,0,0,1-.48-.72,9.79,9.79,0,0,1-.8.68,3.41,3.41,0,0,1-.38.38,4.56,4.56,0,0,0-.62.63c-.48.63-3.23,3.82-4.46,5l-.09.1A3.18,3.18,0,0,1,26,30.37Zm13.32-1.58Z"/><path class="cls-19" d="M23.35,29.93A7.19,7.19,0,0,0,21.3,35.8c.24,4,.69,7.2,3.12,14.11S29.84,62.47,30,63.8s1,.29,1-.14a.5.5,0,0,1,.43-.49s.27,1.07.69,1,3.81-5.41,4.36-7.57S39,43,35.25,39.08s-7.5-7.18-7.5-7.18"/><path class="cls-20" d="M23.77,28.8c-.47.38-1.1.75-.6,1.65a45.13,45.13,0,0,0,6,7.13c2.43,2.24,5.29,5.34,5.43,9S33.26,55.83,34,57.39s1.71.73,2.47-.11A29.7,29.7,0,0,0,42,44.36c1.44-7.56,1.49-12.58-.36-15.6"/><path class="cls-21" d="M31,20.07a6.29,6.29,0,0,0-2.58,2c-.39.51-3,3.59-4.18,4.72s-1.59,2.47-.29,2.89a53.16,53.16,0,0,0,9.87,1.17c2.81,0,6.07.63,7.32,0A1.86,1.86,0,0,0,42,28.17a16.46,16.46,0,0,0-3-3.54,52.66,52.66,0,0,1-4.74-5"/><path class="cls-22" d="M12.53,14.72a51.11,51.11,0,0,0,11,.46c4.65-.37,6.56-.64,7.11.91s1,2,.54,3.1S28.75,21.1,29.85,21s1.09.73,2.55.73,1.46-.73,2.28-.64.91.1,0-1.64-1.55-3.37-1.28-4.19.46-1,2.83-1.18a32.11,32.11,0,0,0,9.21-2c2.55-1.19,0-1.82-2.1-1.37s-1.55-1.09-.27-1.82.36-1.55-1.65-1.09-10.84,3-18.32,3.09S14.35,11,13,10.71s-1.73,1.64,1.37,2.1,1.37,1.37-.18,1.28S10.76,14.51,12.53,14.72Z"/><path class="cls-23" d="M43.34,10.71c-2.1.46-1.55-1.09-.27-1.82s.36-1.55-1.65-1.09-10.84,3-18.32,3.09S14.35,11,13,10.71s-1.73,1.64,1.37,2.1,1.37,1.37-.18,1.28-3.41.42-1.64.63a51.11,51.11,0,0,0,11,.46c4.65-.37,6.56-.64,7.11.91s1,2,.54,3.1c-.36.88-1.72,1.58-1.68,1.77a7.59,7.59,0,0,0-1.08,1.12c-.39.51-3,3.59-4.18,4.72-.83.82-1.3,1.77-1,2.38a.91.91,0,0,0-.24,1A7.48,7.48,0,0,0,21.3,35.8c.24,4,.69,7.2,3.12,14.11S29.84,62.47,30,63.8s1,.29,1-.14a.5.5,0,0,1,.43-.49s.27,1.07.69,1,3-4.11,4-6.59c.12-.11.22-.23.33-.34A29.7,29.7,0,0,0,42,44.36c1.29-6.78,1.46-11.51.15-14.59a1.9,1.9,0,0,0-.18-1.6,16.46,16.46,0,0,0-3-3.54c-1-.91-2.56-2.51-3.65-3.72a5.71,5.71,0,0,0-.64-1.45c-.91-1.73-1.55-3.37-1.28-4.19s.46-1,2.83-1.18a32.11,32.11,0,0,0,9.21-2C48,10.89,45.44,10.26,43.34,10.71Z"/><rect class="cls-24" width="150" height="150"/></g></g></g></svg>