<svg xmlns="http://www.w3.org/2000/svg" viewBox="0 0 180 180"><defs><style>.cls-1{isolation:isolate;}.cls-2{opacity:0.2;mix-blend-mode:multiply;}.cls-3{fill:#f7931e;}.cls-12,.cls-4{fill:none;stroke-linecap:round;stroke-linejoin:round;}.cls-4{stroke:#fff;stroke-width:4.11px;}.cls-5{fill:#a56438;}.cls-6{fill:#506b3e;}.cls-7{fill:#ec7024;}.cls-8{fill:#f6863e;}.cls-9{fill:#559e46;}.cls-10{fill:#aeb434;}.cls-11,.cls-13{opacity:0.27;}.cls-12{stroke:#1e134d;stroke-width:1.23px;}.cls-13{fill:#002451;}.cls-14{fill:#fff;}</style></defs><title>25</title><g class="cls-1"><g id="Capa_2" data-name="Capa 2"><g id="Layer_1" data-name="Layer 1"><g class="cls-2"><rect x="4" y="4" width="176" height="176" rx="12"/></g><rect class="cls-3" width="176" height="176" rx="12"/><path class="cls-4" d="M137.19,46.8l-1.07-.12a1.23,1.23,0,0,0,.55-.69,1.18,1.18,0,0,0,0-.67.86.86,0,0,0-.07-.21,1.22,1.22,0,0,0-.67-.59,1.32,1.32,0,0,0-.44-.08,1.12,1.12,0,0,0-.44.09,1.27,1.27,0,0,0,.37-.36,1.45,1.45,0,0,0,.23-.64,1.36,1.36,0,0,0,0-.35,1.76,1.76,0,0,0-.13-.5l-.09-.15a1.2,1.2,0,0,0-.35-.36.7.7,0,0,0-.17-.09l-.05,0-.12,0h-.06l-.12,0h-.43L134,42l-.05,0-.14.05h0l-.17.09h0a1.06,1.06,0,0,1-.67,1,1.33,1.33,0,0,1,.67-1,1.71,1.71,0,0,0-.07-.67v0l-.07-.18,0,0a.64.64,0,0,0-.08-.14.21.21,0,0,0,0-.06.31.31,0,0,0-.09-.11l-.05-.06-.11-.1-.05,0-.18-.11a1.63,1.63,0,0,0-.56-.16l-.19,0a2.74,2.74,0,0,0-1.66.61,2.61,2.61,0,0,0-.31.27l-.14.14a6.5,6.5,0,0,0-.68,1c-.14.23-.26.47-.38.71s-.35.72-.55,1.07c0-.11,0-.22,0-.34v-.09a2.44,2.44,0,0,0,0-.27.2.2,0,0,0,0-.07,1.77,1.77,0,0,0,0-.32s0,0,0-.07a2.5,2.5,0,0,0-.07-.26.24.24,0,0,0,0-.08,4.73,4.73,0,0,0-.25-.62l0-.07-.15-.26,0,0a3,3,0,0,0-.2-.29l0,0-.2-.25,0,0a4.81,4.81,0,0,0-.51-.5l0,0a5,5,0,0,0-1.61-.91h0a3.06,3.06,0,0,1-2.48,0,3.83,3.83,0,0,1,2.48,0l.34-.16h0a1.92,1.92,0,0,0,.31-.18h0a2.83,2.83,0,0,0,.28-.2l0,0,.24-.21,0,0,.2-.21.06-.07.16-.21.06-.08c0-.08.1-.15.14-.23l.06-.09a3.13,3.13,0,0,0,.15-.32h0a2.19,2.19,0,0,0,.12-.33,3.93,3.93,0,0,0,.15-.68,5.32,5.32,0,0,0,0-.69c0-.11,0-.23,0-.34a5.54,5.54,0,0,0-.12-.69,5.93,5.93,0,0,0-1.26-2.5l-.31-.33a10.21,10.21,0,0,0-3.79-2.33,1.84,1.84,0,0,1-.63-.23l.63.23a2.51,2.51,0,0,0,2.56-1.49,3.75,3.75,0,0,0-.73-3.64A7.7,7.7,0,0,0,121.87,23a2.77,2.77,0,0,1-1-.58c.35.19.7.38,1,.58a3,3,0,0,0,3.78-1.58c.66-1.82-1.49-4-3.24-3.19.64-1.63-1.1-3.43-2.85-3.44s-3.28,1.19-4.42,2.52c.5-1-1-2-2-1.52A2.42,2.42,0,0,0,112,17.58a6.63,6.63,0,0,1,0,1,4.83,4.83,0,0,1,0-1,7.52,7.52,0,0,0-.86-3.44,1.35,1.35,0,0,0-.63-.7c-.59-.24-1.19.33-1.56.86A4.53,4.53,0,0,0,108,17l.12,0c1-.1,2.07,1,1.72,1.92A1.92,1.92,0,0,1,108,17v0a2.6,2.6,0,0,0-1.91,2,6.81,6.81,0,0,0,.17,3,6.3,6.3,0,0,0-2.47,2c.12-.36.25-.73.38-1.1a2.36,2.36,0,0,0-2-.66,3.06,3.06,0,0,0,2-1.37c.34-.78-.52-1.91-1.23-1.45.46-.89-.93-2-1.67-1.29a1.78,1.78,0,0,0-.77-1.71,1.47,1.47,0,0,0,.07-1.84l-1.25.13c.16-.5-.38-1-.9-1a2.56,2.56,0,0,0-1.39.65A5.81,5.81,0,0,0,94.8,17a2.48,2.48,0,0,1-.1.71,2.71,2.71,0,0,1,.1-.71,3.58,3.58,0,0,0-2.51-3.31,5.27,5.27,0,0,0-4.83,1.25,2.85,2.85,0,0,0-1.13,1.86,2.46,2.46,0,0,0-4.84-.89l-.84-1.31a5,5,0,0,0-1.76,1.25,1.8,1.8,0,0,0-2.72.07,3.85,3.85,0,0,0-7.67.68,2.83,2.83,0,0,0-4.67.87,1.85,1.85,0,0,0-2.59-.56,5.49,5.49,0,0,0-1.81,2.32,6.07,6.07,0,0,0-10.37,2.25l.45.06A2.61,2.61,0,0,1,53,21.45a15,15,0,0,1-3.48.07,2.59,2.59,0,0,0-1,1.66c-.29,2,1.5,3.83,3.47,4.06a4.68,4.68,0,0,0,3.09-.71l-.66,2A2.89,2.89,0,0,1,57.2,30.1a2,2,0,0,0-2.78,2.67,9.48,9.48,0,0,0-1.76-.19,7,7,0,0,0-.8,0h0l-.35.05h-.06l-.34.07h0l-.37.09,0,0-.3.1-.1,0-.24.1-.1,0-.32.17a4.1,4.1,0,0,0-2.15,4.13c0,.09.05.18.07.27l0,.07c0,.07.05.13.07.2l0,.07c0,.08.08.16.13.24a.21.21,0,0,0,0,.06l.1.17.07.09a1.47,1.47,0,0,1,.1.13l.08.08.16.17.12.11.08.06.14.11,0,0a2.86,2.86,0,0,0,.54.3h0a2.77,2.77,0,0,0,.62.19,1.19,1.19,0,0,1,1.29-.13,2.38,2.38,0,0,1-1.29.13l-.11.08h0l-.1.09h0l-.19.21h0l-.07.11v0l-.06.1v0a1.89,1.89,0,0,0-.11.25h0l0,.11v0s0,.06,0,.09v.31a.3.3,0,0,1,0,.1v0l0,.08v0a.3.3,0,0,1,0,.08s0,0,0,0l.07.11,1.35.34a.9.9,0,0,0-.67.36.88.88,0,0,0-.2.73.66.66,0,0,0,0,.15l0,.06a1.87,1.87,0,0,1,1.14.49,1,1,0,0,1-1.14-.49h-.2a2.57,2.57,0,0,0-.55.06h0a2.64,2.64,0,0,0-.47.17l-.09,0-.11.06-.12.08-.09.06-.15.13-.06.06-.12.12,0,.06a1.27,1.27,0,0,0-.13.19l0,0a.89.89,0,0,0-.08.17l0,.06a2.17,2.17,0,0,0-.07.24h0a2.34,2.34,0,0,0,0,.26v.25s0,.08,0,.12,0,.09,0,.13a.74.74,0,0,0,0,.14l0,.1.06.15,0,.08.08.16,0,.05.12.16,0,0c.05.06.09.12.14.17h0c.9-.39,2.28-.27,2.17.67a2.15,2.15,0,0,1-2.17-.67h0l-.21.11a5.39,5.39,0,0,0-.5.33,7.37,7.37,0,0,0-.93.74,8.9,8.9,0,0,0-1.54,1.81c-.11.17-.21.34-.31.51s-.14.27-.2.41a2,2,0,0,0-.19.86,1.25,1.25,0,0,0,.08.42.61.61,0,0,0,.07.14,2.19,2.19,0,0,0,.8.74,9.24,9.24,0,0,0,3.13,1.24c.27.05.55.09.83.12l.42,0H50a8.66,8.66,0,0,0,1.68-.14h0a1.18,1.18,0,0,0-.11.19h0l-.06.18v0a1.23,1.23,0,0,0,0,.19v0a1.21,1.21,0,0,0,0,.19v0l0,.19v0a.75.75,0,0,0,.07.18v0a.91.91,0,0,0,.09.17v0a1,1,0,0,0,.12.17h0a1.44,1.44,0,0,0,1.51.58.51.51,0,0,1,.17-.07l-.17.07a.53.53,0,0,0-.12.1h0a.51.51,0,0,0-.09.13h0A.91.91,0,0,0,53,57v0l0,.14v0a.56.56,0,0,0,0,.12l0,0a.64.64,0,0,0,.08.14,1.4,1.4,0,0,1,.59.28.58.58,0,0,1-.59-.28h0l-.18,0h-.23l-.18,0h0a2.55,2.55,0,0,0-.53.18l-.05,0-.13.08-.07,0-.11.08-.08.06-.1.08-.09.1-.07.06-.14.18,0,.06-.09.13a.2.2,0,0,1,0,.08l-.06.14,0,.08s0,.1-.05.15a.19.19,0,0,1,0,.07,1.6,1.6,0,0,0,0,.23,3.21,3.21,0,0,0,2.28,3,5.61,5.61,0,0,0,1,.24l.5.06.75,0c.6,0,1.2-.06,1.78-.11a.72.72,0,0,0-.39.08,1.39,1.39,0,0,0-.49,1.64,1.27,1.27,0,0,0,.49.67L57,65a1.72,1.72,0,0,0,.63.09A1.41,1.41,0,0,0,58,65a2,2,0,0,0,.4-.17,2.62,2.62,0,0,0,.83-.73,2.5,2.5,0,0,0,.23-.39,2.05,2.05,0,0,0,.16-.41.93.93,0,0,0,0,.29,1.35,1.35,0,0,0,0,.29,1.5,1.5,0,0,0,.18.41,1.88,1.88,0,0,0,.18.24,1.61,1.61,0,0,0,.48.34,1.28,1.28,0,0,0,.43.1h.25l.17,0h0l.19-.07,0,0,.16-.1h0a1.07,1.07,0,0,0,.16-.14h0a1.35,1.35,0,0,0,.36-.52h0a1.16,1.16,0,0,1,.09-.63,1.23,1.23,0,0,1-.09.63,1.58,1.58,0,0,0,.59.93h0l.16.11h0l.17.09h0l.17.07h0l.17.06h0l.17,0h0l.18,0h.22l.17,0h0l.16-.05h0l.16-.08a2.1,2.1,0,0,0,.82-.85,2.23,2.23,0,0,0,.18-.45,2.4,2.4,0,0,0,.11-.48,3.59,3.59,0,0,0,0-1,2.68,2.68,0,0,0-.11-.49,2.25,2.25,0,0,0-.08-.24c0-.14-.12-.28-.18-.42l-.18-.41c0-.14-.1-.28-.14-.42a24,24,0,0,0,5.12,5.7c3.71,3.08,8,5.61,10.91,9.43,4.35,5.64,5.16,13.14,5.81,20.23a34.06,34.06,0,0,1,.06,8.5c-.53,3-5.08,6.23-6,8.77s5.88,1.14,6.77,1.53c1.09.49,1.42,1.9,2.53,2.37,2.06.88,3.35-2.31,5.24-3.52,2.06-1.32,4.74-.08,6.93,1s6.43.33,4.61-1.42-10.43-5.18-12.2-11.72c-2-7.55,2.63-15.08,6.57-21.83A146.25,146.25,0,0,0,113.92,51.9l.42-.12a5.25,5.25,0,0,0,.59-.28c.28-.16.56-.35.83-.53a1.91,1.91,0,0,0,0,1.25,2,2,0,0,0,.9,1.11l.17.09a1.82,1.82,0,0,0,.52.14h.18a1.53,1.53,0,0,0,.37,0,2,2,0,0,0,.53-.14l.32-.17a1.87,1.87,0,0,0,.63-.65,5.45,5.45,0,0,0,.06,1.89,5.11,5.11,0,0,0,.13.53,5.17,5.17,0,0,0,.18.51c.07.17.15.33.23.49a6.12,6.12,0,0,0,.43.69,4,4,0,0,0,.56-.26,5.24,5.24,0,0,0,.78-.51,5.29,5.29,0,0,0,.88-.89,5.81,5.81,0,0,0,.51-.78,5,5,0,0,0,.45-1.16,1.93,1.93,0,0,1,.32,1,1.09,1.09,0,0,1,0,.18,5.78,5.78,0,0,1,0,.58,1.23,1.23,0,0,0,0,.19c0,.26-.06.52-.08.77,0,.07,0,.13,0,.19a2.37,2.37,0,0,0,.11.78,2.42,2.42,0,0,0,.35.7,1.26,1.26,0,0,0,.54.44.81.81,0,0,0,.66,0,.65.65,0,0,0,.22-.11l.1-.07a2.29,2.29,0,0,0,.27-.27l.15-.19a9.3,9.3,0,0,0,.67-1,10.64,10.64,0,0,0,1.14-2.8c0-.2.09-.4.13-.59,0,.18,0,.37-.05.56s0,.38,0,.57a4.54,4.54,0,0,0,.43,2.14,2.27,2.27,0,0,0,.69.79,2,2,0,0,0,1.23.37,2.68,2.68,0,0,0,.95-.22l.31-.15.14-.09.29-.2.27-.23.12-.12.23-.27a3.33,3.33,0,0,0,.62-1.25,5.91,5.91,0,0,0-.21-3c-.07-.22-.14-.44-.23-.66-.2-.55-.44-1.09-.67-1.62a1.86,1.86,0,0,0,.59.81,3.12,3.12,0,0,0,.43.27l.24.1a2.71,2.71,0,0,0,1,.15l.26,0,.25-.05a2.3,2.3,0,0,0,.5-.18l.22-.12A3.71,3.71,0,0,0,137.19,46.8Zm-60.8,9.94a4.24,4.24,0,0,0,.13.78.72.72,0,0,0-.34-.11.87.87,0,0,0-.63.19,1.4,1.4,0,0,0-.42.45c0-2.15.11-4.44.28-6.61h0l0,.05a.35.35,0,0,0,0,.08.76.76,0,0,0,.08.11l0,0,.06.07,0,.05.08.07,0,0L76,52l0,0,.12.06,0,0,.11,0,0,0,.15,0,.17,0c.63,0,1.28-.11,1.89,0a1.65,1.65,0,0,1,.32.06,1.75,1.75,0,0,1,.32.12,2,2,0,0,0-.36.16,4.16,4.16,0,0,0-1.48,1.25,4.65,4.65,0,0,0-.72,1.4,6.43,6.43,0,0,0-.17.76A5.09,5.09,0,0,0,76.39,56.74Zm-3.56,4.33c-.22.87-.57,1.85-1.7,1.86a2,2,0,0,1-1.57-.79L67.86,60a1.34,1.34,0,0,0,.13-.4,1.75,1.75,0,0,0,0-.51,1.47,1.47,0,0,0-.24-.64l1.08,1.28.27-.11.09-.05.16-.09.1-.07.14-.09.1-.09.11-.09.11-.1L70,59l.11-.12.07-.09a1.34,1.34,0,0,0,.11-.14l.06-.09.11-.16a.35.35,0,0,1,.05-.08,1.62,1.62,0,0,1,.1-.18l0-.07.1-.2,0-.06.09-.22,0,0c0-.08,0-.16.07-.24v0a2.5,2.5,0,0,0,.07-.26v0c0-.09,0-.18,0-.27h0a2.7,2.7,0,0,0,0-.28h0a2.64,2.64,0,0,0,0-.28.75.75,0,0,1-.72-.61L70,51.34a12.08,12.08,0,0,1,1.21,4.57c0,.06,0,.12,0,.18h.31l.14,0h0l.12,0h0l.1-.06,0,0,.09-.06,0,0,.07-.07,0,0,.06-.1h0a.35.35,0,0,1,0-.29.54.54,0,0,1,0,.29.67.67,0,0,0,.13.25h0a.7.7,0,0,0,.24.17h0l.14.05h.17a.3.3,0,0,0,.13,0h0a.38.38,0,0,0,.13-.06,1,1,0,0,0,.35-.46,1.77,1.77,0,0,0,.08-.4,1.62,1.62,0,0,0,0-.22,2.71,2.71,0,0,0,0-.41,5.33,5.33,0,0,0-.2-.81l-.15-.39a5.12,5.12,0,0,0-.39-.73l-.24-.34a4.13,4.13,0,0,0-.56-.62h0l.22.06h.08l.16,0h.81l.14,0h.09l.22-.05.06,0A33.68,33.68,0,0,1,72.83,61.07ZM87,70.89c-.3,1-2.19,2.13-3.4,1.11s-7.49-6.74-7.87-8.29a22.07,22.07,0,0,1-.54-4.25l.07.09.12.13a3.15,3.15,0,0,0,.29.22l.16.08a2.45,2.45,0,0,0,.54.18l.38.05a2.92,2.92,0,0,0,.59,0,2.45,2.45,0,0,0,.37-.08,1.3,1.3,0,0,0,0,.34,1.66,1.66,0,0,0,1.44,1.48h.17l.18,0a1.35,1.35,0,0,0,.47-.18,2.83,2.83,0,0,0,.28-.2l.12-.12a1.86,1.86,0,0,0,.21-.28l.08-.15a1.78,1.78,0,0,0,.14-.5,1.46,1.46,0,0,0,0-.51.82.82,0,0,0,.25.24,1,1,0,0,0,.3.14,1.2,1.2,0,0,0,.33,0h.17l.18,0a2.3,2.3,0,0,0,.34-.12,1.52,1.52,0,0,0,.77-.73,2.21,2.21,0,0,0,.15-.5,2.07,2.07,0,0,0,0-.35,2.38,2.38,0,0,0-.05-.53,3.46,3.46,0,0,0-.14-.53,4.46,4.46,0,0,0-.22-.5l-.18-.32c-.19-.3-.4-.59-.62-.88l-.21-.29a7.72,7.72,0,0,1-.77-1.21c.32-.4.65-.79,1-1.18a2.19,2.19,0,0,0,.51,1.35,3,3,0,0,0,.66.62,3.2,3.2,0,0,0,.53.34l.59.26A6.36,6.36,0,0,0,85,56a4.52,4.52,0,0,0,.62.12,7.24,7.24,0,0,0,2.13,0A28.22,28.22,0,0,1,87,70.89Zm3.57-16.6h0a1,1,0,0,0,.07-.15.54.54,0,0,0,0-.11l.06-.15a.49.49,0,0,0,0-.11c0-.05,0-.1,0-.15l0-.12a2.34,2.34,0,0,0,0-.26.88.88,0,0,0,0-.16s0-.07,0-.11v-.16a.33.33,0,0,0,0-.1.91.91,0,0,0,0-.17.28.28,0,0,0,0-.09,1.1,1.1,0,0,0,0-.18s0-.05,0-.08,0-.11,0-.17a.14.14,0,0,1,0-.06,2.31,2.31,0,0,0-.3-.61h0a1,1,0,0,1-.43-.44,2.23,2.23,0,0,1,.43.44,1.16,1.16,0,0,0,.4.16h0l.13,0h.19l.26,0h0l.1,0,.08,0,.09,0,.1,0,.08,0,.13-.06,0,0,.15-.09,0,0,.1-.08.05,0,.1-.09,0,0,.12-.15a2.39,2.39,0,0,0,.21-.34l.09-.18a2.32,2.32,0,0,0,.13-.37,1.46,1.46,0,0,0,0-.2,2.57,2.57,0,0,0,.07-.4,4.07,4.07,0,0,0,.05-.61c0-.21,0-.42,0-.62s0-.28,0-.42a2.94,2.94,0,0,0,.19,1,3.48,3.48,0,0,0,.49.86,3.32,3.32,0,0,0,.53.53,3.09,3.09,0,0,0,.37.26l-3.76,5.39ZM96,81.17c-.16.2-.33.41-.51.61a1.65,1.65,0,0,1-2.82-.87c-.88-5.26-1-11.08,3-14.35,1.69-1.38,4.21-2.55,4.11-4.74l-4.37,1.57a1.42,1.42,0,0,1-1.88-1.56,27.34,27.34,0,0,1,5.31-12.18,3.37,3.37,0,0,0,.29-.37l0,0a1.63,1.63,0,0,1-.11.17l-.24.44-.23.45c0,.07-.06.15-.1.23-.09.23-.18.46-.25.69a4.54,4.54,0,0,0-.13.72,3.85,3.85,0,0,0,0,.48,3.93,3.93,0,0,0,.06.48,2,2,0,0,0,.16.47l.12.22a2.9,2.9,0,0,0,.48.57,2.17,2.17,0,0,0,1.3.56,1.42,1.42,0,0,0,.88-.26l-.49.39c-.11.09-.22.18-.32.28l-.3.3-.13.15a3.43,3.43,0,0,0-.24.33,2.43,2.43,0,0,0-.2.35,2.29,2.29,0,0,0-.12.37A1.32,1.32,0,0,0,99.6,58a1.63,1.63,0,0,0,.31.27,1.29,1.29,0,0,0,.35.18,1.23,1.23,0,0,0,.37.08h.17a.75.75,0,0,0,.58-.39.62.62,0,0,0,0,.31.69.69,0,0,0,.18.24,1.07,1.07,0,0,0,.59.23h.16l.17,0,.15,0a.63.63,0,0,0,.35-.27.56.56,0,0,0,.09-.3,2.16,2.16,0,0,0,.49,1.82A37,37,0,0,1,96,81.17Zm9.83-18.62c0-.59,0-1.18,0-1.77a2,2,0,0,0,.37-.16,2.92,2.92,0,0,0,.37-.24,3.11,3.11,0,0,0,.32-.31,2.34,2.34,0,0,0,.43-.77,2,2,0,0,0,.08-.43,1.22,1.22,0,0,0,.25.51,1.42,1.42,0,0,0,.31.29l-1.11,3.08A.55.55,0,0,1,105.8,62.55Z"/><path class="cls-5" d="M87,95.86c-.65-7.09-1.46-14.59-5.81-20.23-2.94-3.82-7.2-6.35-10.91-9.43S63.18,59,63.18,54.13l6.38,8a2,2,0,0,0,1.57.79c1.13,0,1.48-1,1.7-1.86a34.11,34.11,0,0,0,.82-12.16,4.61,4.61,0,0,1,.15-2.53c.37-.77,1.45-1.27,2.11-.72-.41,5-1.41,13.16-.2,18.05.38,1.55,6.66,7.26,7.87,8.29s3.1-.13,3.4-1.11A28.48,28.48,0,0,0,85.22,49.1a2.73,2.73,0,0,0,1.85-1.92l4.15,8.48,4.83-6.93a4.64,4.64,0,0,1,2.06-1.94c.9-.32,2.15.19,2.19,1.15a27.25,27.25,0,0,0-6.75,13.89,1.42,1.42,0,0,0,1.88,1.56l4.37-1.57c.1,2.19-2.42,3.36-4.11,4.74-4,3.27-3.93,9.09-3,14.35a1.65,1.65,0,0,0,2.82.87c.18-.2.35-.41.51-.61a36.89,36.89,0,0,0,7.52-25.54c-.16-1.8.42-4.46,2.18-4.06q.33,5.49.13,11a.55.55,0,0,0,1.07.2l4.79-13.3c.64-1.78,2.34-4,3.94-2.94a146.71,146.71,0,0,1-14.15,33.05c-3.94,6.75-8.61,14.28-6.57,21.83,1.77,6.54,10.38,10,12.2,11.72s-2.42,2.52-4.61,1.42-4.87-2.34-6.93-1c-1.89,1.21-3.18,4.4-5.24,3.52-1.11-.47-1.44-1.88-2.53-2.37-.89-.39-7.76,1.07-6.77-1.53s5.51-5.75,6-8.77A34.06,34.06,0,0,0,87,95.86Z"/><path class="cls-6" d="M137.19,46.8l-1.07-.12a1.23,1.23,0,0,0,.55-.69,1.18,1.18,0,0,0,0-.67.86.86,0,0,0-.07-.21,1.22,1.22,0,0,0-.67-.59,1.32,1.32,0,0,0-.44-.08,1.12,1.12,0,0,0-.44.09,1.27,1.27,0,0,0,.37-.36,1.45,1.45,0,0,0,.23-.64,1.36,1.36,0,0,0,0-.35,1.76,1.76,0,0,0-.13-.5l-.09-.15a1.2,1.2,0,0,0-.35-.36.7.7,0,0,0-.17-.09l-.05,0-.12,0h-.06l-.12,0h-.43L134,42l-.05,0-.14.05h0l-.17.09h0a1.06,1.06,0,0,1-.67,1,1.33,1.33,0,0,1,.67-1h0a1.71,1.71,0,0,0-.07-.67v0l-.07-.18,0,0a.64.64,0,0,0-.08-.14.21.21,0,0,0,0-.06.31.31,0,0,0-.09-.11l-.05-.06-.11-.1-.05,0-.18-.11a1.63,1.63,0,0,0-.56-.16l-.19,0a2.74,2.74,0,0,0-1.66.61,2.61,2.61,0,0,0-.31.27l-.14.14a6.5,6.5,0,0,0-.68,1c-.14.23-.26.47-.38.71s-.35.72-.55,1.07c0-.11,0-.22,0-.34v-.09a2.44,2.44,0,0,0,0-.27.2.2,0,0,0,0-.07,1.77,1.77,0,0,0,0-.32s0,0,0-.07a2.5,2.5,0,0,0-.07-.26.24.24,0,0,0,0-.08,4.73,4.73,0,0,0-.25-.62l0-.07-.15-.26,0,0a3,3,0,0,0-.2-.29l0,0-.2-.25,0,0a4.81,4.81,0,0,0-.51-.5l0,0a5,5,0,0,0-1.61-.91h0a3.06,3.06,0,0,1-2.48,0,3.83,3.83,0,0,1,2.48,0h0l.34-.16h0a1.92,1.92,0,0,0,.31-.18h0a2.83,2.83,0,0,0,.28-.2l0,0,.24-.21,0,0,.2-.21.06-.07.16-.21.06-.08c0-.08.1-.15.14-.23l.06-.09a3.13,3.13,0,0,0,.15-.32h0a2.19,2.19,0,0,0,.12-.33,3.93,3.93,0,0,0,.15-.68,5.32,5.32,0,0,0,0-.69c0-.11,0-.23,0-.34a5.54,5.54,0,0,0-.12-.69,5.93,5.93,0,0,0-1.26-2.5l-.31-.33a4.89,4.89,0,0,1-3.65-1.46l-2.82,2.15a2.33,2.33,0,0,1-.73,4.55,3,3,0,0,1-.35,2.91,3.24,3.24,0,0,1,3.9,2.36,2,2,0,0,1,1,2.67,3.6,3.6,0,0,1-.67.79,4.26,4.26,0,0,1-3,1.53c-1.15-.09-2.12-1.62-1.31-2.44a2.32,2.32,0,0,1-3.59-.53,2,2,0,1,1-2.33-2.84,4.1,4.1,0,0,1-5-2.46,3.16,3.16,0,0,1-5.89,2.18c-.84,1-1.67,2.05-2.51,3.08a3.17,3.17,0,0,1-3.28-2.69,2.26,2.26,0,0,1-2.53,1.37,1.67,1.67,0,0,1-.37,2.17,4.19,4.19,0,0,1-3.2.24,1.79,1.79,0,1,1-3.23,1.41,1.79,1.79,0,0,1-3.56-.37c-.09.82-1.51.79-1.85,0a2.18,2.18,0,0,1,.68-2.26,5.51,5.51,0,0,1,5-1.6,1.65,1.65,0,0,1-.89-2.09,4.74,4.74,0,0,1,1.52-2,4.7,4.7,0,0,0-3.39-1.43c.72,1.07-1,2.6-2,1.74a4.41,4.41,0,0,1-4.38,3,4.22,4.22,0,0,1,.68-2.37,2.5,2.5,0,0,1-4.21-1.46,6.09,6.09,0,0,1-.58,3.39c-.69,1.16-2.42,1.78-3.41.87a3.8,3.8,0,0,1,.66,3.16,1.75,1.75,0,0,1-2.37,1,1.51,1.51,0,0,1,.2,1.66,1.49,1.49,0,0,1-1.86.61A3.19,3.19,0,0,1,64,53.32a3.79,3.79,0,0,1-3.17,3c-1.8.22-3.76-1.39-3.41-3.16-1.24.6-3.17.35-3.42-1s1.51-2.27,2.86-2a11.4,11.4,0,0,1,2.48,1,1.21,1.21,0,0,1-.17-.78,3.6,3.6,0,0,1,1.55-1.95,2.85,2.85,0,0,0,1.35-2,1.19,1.19,0,0,1-2,.37,1.54,1.54,0,0,1,.68-2.18,1.34,1.34,0,0,1-.87-1.36,1.86,1.86,0,0,0-1.94,1.45,1.92,1.92,0,0,1-1-2.86c-.53.89-2.08.16-2.17-.86a3.75,3.75,0,0,1,1.36-2.67l1.68-1.8c-.69,0-1.08-.91-.82-1.55a2.86,2.86,0,0,1,1.3-1.27,1.64,1.64,0,0,1-2.18-.88,3.72,3.72,0,0,1-3.39-.12h0a7,7,0,0,0-.8,0h0l-.35.05h-.06l-.34.07h0l-.37.09,0,0-.3.1-.1,0-.24.1-.1,0-.32.17a4.1,4.1,0,0,0-2.15,4.13c0,.09.05.18.07.27l0,.07c0,.07.05.13.07.2l0,.07c0,.08.08.16.13.24a.21.21,0,0,0,0,.06l.1.17.07.09a1.47,1.47,0,0,1,.1.13l.08.08.16.17.12.11.08.06.14.11,0,0a2.86,2.86,0,0,0,.54.3h0a2.77,2.77,0,0,0,.62.19,1.19,1.19,0,0,1,1.29-.13,2.38,2.38,0,0,1-1.29.13l-.11.08h0l-.1.09h0l-.19.21h0l-.07.11v0l-.06.1v0a1.89,1.89,0,0,0-.11.25h0l0,.11v0s0,.06,0,.09v.31a.3.3,0,0,1,0,.1v0l0,.08v0a.3.3,0,0,1,0,.08s0,0,0,0l.07.11,1.35.34a.9.9,0,0,0-.67.36.88.88,0,0,0-.2.73.66.66,0,0,0,0,.15l0,.06a1.87,1.87,0,0,1,1.14.49,1,1,0,0,1-1.14-.49h-.2a2.57,2.57,0,0,0-.55.06h0a2.64,2.64,0,0,0-.47.17l-.09,0-.11.06-.12.08-.09.06-.15.13-.06.06-.12.12,0,.06a1.27,1.27,0,0,0-.13.19l0,0a.89.89,0,0,0-.08.17l0,.06a2.17,2.17,0,0,0-.07.24h0a2.34,2.34,0,0,0,0,.26v.25s0,.08,0,.12,0,.09,0,.13a.74.74,0,0,0,0,.14l0,.1.06.15,0,.08.08.16,0,.05.12.16,0,0c.05.06.09.12.14.17h0c.9-.39,2.28-.27,2.17.67a2.15,2.15,0,0,1-2.17-.67h0l-.21.11a5.39,5.39,0,0,0-.5.33,7.37,7.37,0,0,0-.93.74,8.9,8.9,0,0,0-1.54,1.81c-.11.17-.21.34-.31.51s-.14.27-.2.41a2,2,0,0,0-.19.86,1.25,1.25,0,0,0,.08.42.61.61,0,0,0,.07.14,2.19,2.19,0,0,0,.8.74,9.24,9.24,0,0,0,3.13,1.24c.27.05.55.09.83.12l.42,0H50a8.66,8.66,0,0,0,1.68-.14h0a1.18,1.18,0,0,0-.11.19h0l-.06.18v0a1.23,1.23,0,0,0,0,.19v0a1.21,1.21,0,0,0,0,.19v0l0,.19v0a.75.75,0,0,0,.07.18v0a.91.91,0,0,0,.09.17v0a1,1,0,0,0,.12.17h0a1.44,1.44,0,0,0,1.51.58h0a.51.51,0,0,1,.17-.07l-.17.07h0a.53.53,0,0,0-.12.1h0a.51.51,0,0,0-.09.13h0A.91.91,0,0,0,53,57v0l0,.14v0a.56.56,0,0,0,0,.12l0,0a.64.64,0,0,0,.08.14h0a1.4,1.4,0,0,1,.59.28.58.58,0,0,1-.59-.28h0l-.18,0h-.23l-.18,0h0a2.55,2.55,0,0,0-.53.18l-.05,0-.13.08-.07,0-.11.08-.08.06-.1.08-.09.1-.07.06-.14.18,0,.06-.09.13a.2.2,0,0,1,0,.08l-.06.14,0,.08s0,.1-.05.15a.19.19,0,0,1,0,.07,1.6,1.6,0,0,0,0,.23,3.21,3.21,0,0,0,2.28,3,5.61,5.61,0,0,0,1,.24l.5.06.75,0c.6,0,1.2-.06,1.78-.11h0a.72.72,0,0,0-.39.08,1.39,1.39,0,0,0-.49,1.64,1.27,1.27,0,0,0,.49.67L57,65a1.72,1.72,0,0,0,.63.09A1.41,1.41,0,0,0,58,65a2,2,0,0,0,.4-.17,2.62,2.62,0,0,0,.83-.73,2.5,2.5,0,0,0,.23-.39,2.05,2.05,0,0,0,.16-.41h0a.93.93,0,0,0,0,.29,1.35,1.35,0,0,0,0,.29,1.5,1.5,0,0,0,.18.41,1.88,1.88,0,0,0,.18.24,1.61,1.61,0,0,0,.48.34,1.28,1.28,0,0,0,.43.1h.25l.17,0h0l.19-.07,0,0,.16-.1h0a1.07,1.07,0,0,0,.16-.14h0a1.35,1.35,0,0,0,.36-.52h0a1.16,1.16,0,0,1,.09-.63,1.23,1.23,0,0,1-.09.63h0a1.58,1.58,0,0,0,.59.93h0l.16.11h0l.17.09h0l.17.07h0l.17.06h0l.17,0h0l.18,0h.22l.17,0h0l.16-.05h0l.16-.08a2.1,2.1,0,0,0,.82-.85,2.23,2.23,0,0,0,.18-.45,2.4,2.4,0,0,0,.11-.48,3.59,3.59,0,0,0,0-1,2.68,2.68,0,0,0-.11-.49,2.25,2.25,0,0,0-.08-.24c0-.14-.12-.28-.18-.42l-.18-.41a2.64,2.64,0,0,1-.21-.87,1.1,1.1,0,0,1,.87-1.13.57.57,0,0,1,.22,0,.77.77,0,0,0-.28.37.9.9,0,0,0,0,.46,1.08,1.08,0,0,0,.11.3l.09.15a1.19,1.19,0,0,0,.51.41.86.86,0,0,0,.48,0,1.1,1.1,0,0,0,.66-.45,1.49,1.49,0,0,0,.26-.62,1.75,1.75,0,0,0,0-.51,1.47,1.47,0,0,0-.24-.64h0l1.08,1.28.27-.11.09-.05.16-.09.1-.07.14-.09.1-.09.11-.09.11-.1L70,59l.11-.12.07-.09a1.34,1.34,0,0,0,.11-.14l.06-.09.11-.16a.35.35,0,0,1,.05-.08,1.62,1.62,0,0,1,.1-.18l0-.07.1-.2,0-.06.09-.22,0,0c0-.08,0-.16.07-.24v0a2.5,2.5,0,0,0,.07-.26v0c0-.09,0-.18,0-.27h0a2.7,2.7,0,0,0,0-.28h0a2.64,2.64,0,0,0,0-.28h0a.75.75,0,0,1-.72-.61L70,51.34a12.08,12.08,0,0,1,1.21,4.57c0,.06,0,.12,0,.18h.31l.14,0h0l.12,0h0l.1-.06,0,0,.09-.06,0,0,.07-.07,0,0,.06-.1h0a.35.35,0,0,1,0-.29.54.54,0,0,1,0,.29h0a.67.67,0,0,0,.13.25h0a.7.7,0,0,0,.24.17h0l.14.05h.17a.3.3,0,0,0,.13,0h0a.38.38,0,0,0,.13-.06,1,1,0,0,0,.35-.46,1.77,1.77,0,0,0,.08-.4,1.62,1.62,0,0,0,0-.22,2.71,2.71,0,0,0,0-.41,5.33,5.33,0,0,0-.2-.81l-.15-.39a5.12,5.12,0,0,0-.39-.73l-.24-.34a4.13,4.13,0,0,0-.56-.62h0l.22.06h.08l.16,0h.81l.14,0h.09l.22-.05.11,0,.12,0,.11-.05.11,0,.11,0,.1,0,.11-.07.09-.05.12-.07.07,0,.12-.09,0,0,.28-.25h0a.56.56,0,0,1,.33-.41,4.23,4.23,0,0,1-.33.41h0a.28.28,0,0,0,0,.09v0a.27.27,0,0,0,0,.09v0a1.11,1.11,0,0,0,.08.3l0,0a.59.59,0,0,0,0,.08l0,.05a.35.35,0,0,0,0,.08.76.76,0,0,0,.08.11l0,0,.06.07,0,.05.08.07,0,0A.6.6,0,0,0,76,52l0,0,.12.06,0,0,.11,0,0,0,.15,0,.17,0c.63,0,1.28-.11,1.89,0a1.65,1.65,0,0,1,.32.06,1.75,1.75,0,0,1,.32.12,2,2,0,0,0-.36.16,4.16,4.16,0,0,0-1.48,1.25,4.65,4.65,0,0,0-.72,1.4,6.43,6.43,0,0,0-.17.76,5.09,5.09,0,0,0,0,.78,4.24,4.24,0,0,0,.13.78.72.72,0,0,0-.34-.11.87.87,0,0,0-.63.19A1.38,1.38,0,0,0,75,59.24a2.11,2.11,0,0,0,.21.31l.12.13a3.15,3.15,0,0,0,.29.22l.16.08a2.45,2.45,0,0,0,.54.18l.38.05a2.92,2.92,0,0,0,.59,0,2.45,2.45,0,0,0,.37-.08h0a1.3,1.3,0,0,0,0,.34,1.66,1.66,0,0,0,1.44,1.48h.17l.18,0a1.35,1.35,0,0,0,.47-.18,2.83,2.83,0,0,0,.28-.2l.12-.12a1.86,1.86,0,0,0,.21-.28l.08-.15a1.78,1.78,0,0,0,.14-.5,1.46,1.46,0,0,0,0-.51.82.82,0,0,0,.25.24,1,1,0,0,0,.3.14,1.2,1.2,0,0,0,.33,0h.17l.18,0a2.3,2.3,0,0,0,.34-.12,1.52,1.52,0,0,0,.77-.73,2.21,2.21,0,0,0,.15-.5,2.07,2.07,0,0,0,0-.35,2.38,2.38,0,0,0-.05-.53,3.46,3.46,0,0,0-.14-.53,4.46,4.46,0,0,0-.22-.5l-.18-.32c-.19-.3-.4-.59-.62-.88l-.21-.29a7.72,7.72,0,0,1-.77-1.21c.32-.4.65-.79,1-1.18h0a2.19,2.19,0,0,0,.51,1.35,3,3,0,0,0,.66.62,3.2,3.2,0,0,0,.53.34l.59.26A6.36,6.36,0,0,0,85,56a4.52,4.52,0,0,0,.62.12A5.35,5.35,0,0,0,90,55l.19-.2,0-.07.12-.15.06-.09.09-.14,0-.1a1,1,0,0,0,.07-.15.54.54,0,0,0,0-.11l.06-.15a.49.49,0,0,0,0-.11c0-.05,0-.1,0-.15l0-.12a2.34,2.34,0,0,0,0-.26.88.88,0,0,0,0-.16s0-.07,0-.11v-.16a.33.33,0,0,0,0-.1.91.91,0,0,0,0-.17.28.28,0,0,0,0-.09,1.1,1.1,0,0,0,0-.18s0-.05,0-.08,0-.11,0-.17a.14.14,0,0,1,0-.06,2.31,2.31,0,0,0-.3-.61h0a1,1,0,0,1-.43-.44,2.23,2.23,0,0,1,.43.44h0a1.16,1.16,0,0,0,.4.16h0l.13,0h.19l.26,0h0l.1,0,.08,0,.09,0,.1,0,.08,0,.13-.06,0,0,.15-.09,0,0,.1-.08.05,0,.1-.09,0,0,.12-.15a2.39,2.39,0,0,0,.21-.34l.09-.18a2.32,2.32,0,0,0,.13-.37,1.46,1.46,0,0,0,0-.2,2.57,2.57,0,0,0,.07-.4,4.07,4.07,0,0,0,.05-.61c0-.21,0-.42,0-.62s0-.28,0-.42h0a2.94,2.94,0,0,0,.19,1,3.48,3.48,0,0,0,.49.86,3.32,3.32,0,0,0,.53.53,2.71,2.71,0,0,0,.41.28l.22.12a2.64,2.64,0,0,0,.47.17,3.86,3.86,0,0,0,.49.09h.5a3.2,3.2,0,0,0,1.42-.43,3.71,3.71,0,0,0,.41-.28,3.1,3.1,0,0,0,.66-.74h0a2.39,2.39,0,0,1-.13.21l-.24.44-.23.45c0,.07-.06.15-.1.23-.09.23-.18.46-.25.69a4.54,4.54,0,0,0-.13.72,3.85,3.85,0,0,0,0,.48,3.93,3.93,0,0,0,.06.48,2,2,0,0,0,.16.47l.12.22a2.9,2.9,0,0,0,.48.57,2.17,2.17,0,0,0,1.3.56,1.42,1.42,0,0,0,.88-.26h0l-.49.39c-.11.09-.22.18-.32.28l-.3.3-.13.15a3.43,3.43,0,0,0-.24.33,2.43,2.43,0,0,0-.2.35,2.29,2.29,0,0,0-.12.37A1.32,1.32,0,0,0,99.6,58a1.63,1.63,0,0,0,.31.27,1.29,1.29,0,0,0,.35.18,1.23,1.23,0,0,0,.37.08h.17a.75.75,0,0,0,.58-.39h0a.62.62,0,0,0,0,.31.69.69,0,0,0,.18.24,1.07,1.07,0,0,0,.59.23h.16l.17,0,.15,0a.63.63,0,0,0,.35-.27.56.56,0,0,0,.09-.3,2.28,2.28,0,0,0,1.83,2.62,2,2,0,0,0,.87-.08,2.09,2.09,0,0,0,.41-.17,2.92,2.92,0,0,0,.37-.24,3.11,3.11,0,0,0,.32-.31,2.34,2.34,0,0,0,.43-.77,2,2,0,0,0,.08-.43h0a1.22,1.22,0,0,0,.25.51,1.63,1.63,0,0,0,1.22.57h.3a2.47,2.47,0,0,0,1.15-.36,1.87,1.87,0,0,0,.46-.38A1.5,1.5,0,0,0,111,59a2.24,2.24,0,0,0,.13-.27c0-.09.06-.18.09-.27s0-.06,0-.09l0-.19a.34.34,0,0,0,0-.1c0-.06,0-.12,0-.17v-.12s0-.11,0-.16,0-.08,0-.12,0-.11,0-.17a.36.36,0,0,1,0-.1c0-.06,0-.12,0-.18s0-.07,0-.1l-.09-.26s0,0,0-.05a2,2,0,0,0-.1-.21.31.31,0,0,0,0-.1l-.08-.16-.07-.11-.09-.14-.07-.11-.1-.13-.08-.1-.11-.13-.08-.1-.12-.12-.09-.09-.21-.19h0a1.25,1.25,0,0,1-.51-.38,3.75,3.75,0,0,1,.51.38h0l.17,0,.08,0h.58l.18-.05.07,0,.13,0,.07,0,.12-.05.07,0,.12-.07.06,0,.16-.12,0,0,.13-.12,0,0a.52.52,0,0,0,.1-.11l0-.05L112,54l0-.06a1.62,1.62,0,0,0,.1-.18h0a2.58,2.58,0,0,0,.08-.26l0-.08c0-.06,0-.13,0-.2s0,0,0-.06l0-.27v0a1.85,1.85,0,0,0,0-.23v-.08a1.62,1.62,0,0,0,0-.22v0l0-.28V52a1.7,1.7,0,0,0,0-.22v-.07l-.06-.27h0a1.16,1.16,0,0,1-.31-1.11c.11.36.23.73.31,1.11h0a2,2,0,0,0,.39.31h0l.14.07h0l.14.06h0l.13,0h0l.13,0h.2a1.69,1.69,0,0,0,.32,0,3.32,3.32,0,0,0,.62-.16,5.25,5.25,0,0,0,.59-.28c.28-.16.56-.35.83-.53a1.91,1.91,0,0,0,0,1.25,2,2,0,0,0,.9,1.11l.17.09a1.82,1.82,0,0,0,.52.14h.18a1.53,1.53,0,0,0,.37,0,2,2,0,0,0,.53-.14l.32-.17a1.87,1.87,0,0,0,.63-.65h0a5.45,5.45,0,0,0,.06,1.89,5.11,5.11,0,0,0,.13.53,5.17,5.17,0,0,0,.18.51c.07.17.15.33.23.49a6.12,6.12,0,0,0,.43.69,4,4,0,0,0,.56-.26,5.24,5.24,0,0,0,.78-.51,5.29,5.29,0,0,0,.88-.89,5.81,5.81,0,0,0,.51-.78,5,5,0,0,0,.45-1.16h0a1.93,1.93,0,0,1,.32,1,1.09,1.09,0,0,1,0,.18,5.78,5.78,0,0,1,0,.58,1.23,1.23,0,0,0,0,.19c0,.26-.06.52-.08.77,0,.07,0,.13,0,.19a2.37,2.37,0,0,0,.11.78,2.42,2.42,0,0,0,.35.7,1.26,1.26,0,0,0,.54.44.81.81,0,0,0,.66,0,.65.65,0,0,0,.22-.11l.1-.07a2.29,2.29,0,0,0,.27-.27l.15-.19a9.3,9.3,0,0,0,.67-1,10.64,10.64,0,0,0,1.14-2.8c0-.2.09-.4.13-.59h0c0,.18,0,.37-.05.56s0,.38,0,.57a4.54,4.54,0,0,0,.43,2.14,2.27,2.27,0,0,0,.69.79,2,2,0,0,0,1.23.37,2.68,2.68,0,0,0,.95-.22l.31-.15.14-.09.29-.2.27-.23.12-.12.23-.27a3.33,3.33,0,0,0,.62-1.25,5.91,5.91,0,0,0-.21-3c-.07-.22-.14-.44-.23-.66-.2-.55-.44-1.09-.67-1.62a1.86,1.86,0,0,0,.59.81,3.12,3.12,0,0,0,.43.27l.24.1a2.71,2.71,0,0,0,1,.15l.26,0,.25-.05a2.3,2.3,0,0,0,.5-.18l.22-.12A3.71,3.71,0,0,0,137.19,46.8Z"/><path class="cls-7" d="M74.92,44.53c0,1.65-1.79,3-3.44,3s-3.41-1.34-3.41-3,1-3.14,3.41-3C74,41.34,74.92,42.88,74.92,44.53Z"/><path class="cls-8" d="M74.21,43.67c.16,1-.91,2-2.56,2s-3-.66-3-1.67c0-1.65,1.34-2.36,2.78-2.43A2.49,2.49,0,0,1,74.21,43.67Z"/><path class="cls-7" d="M125.49,46.64a2.46,2.46,0,0,1-4.87,0,2,2,0,0,1,2.43-2.11A2,2,0,0,1,125.49,46.64Z"/><path class="cls-8" d="M125,46c.11.69-.65,1.42-1.82,1.42s-2.1-.47-2.1-1.19c0-1.17,1-1.68,2-1.73A1.78,1.78,0,0,1,125,46Z"/><path class="cls-9" d="M56.05,32.7a1.64,1.64,0,0,0,2.18.88.82.82,0,0,0,.2-.12.82.82,0,0,1-.2.12,2.86,2.86,0,0,0-1.3,1.27c-.26.64.13,1.57.82,1.55l-1.68,1.8a3.75,3.75,0,0,0-1.36,2.67c.09,1,1.64,1.75,2.17.86a1.92,1.92,0,0,0,1,2.86,1.86,1.86,0,0,1,1.94-1.45,1.34,1.34,0,0,0,.87,1.36A1.54,1.54,0,0,0,60,46.68a1.19,1.19,0,0,0,2-.37,2.85,2.85,0,0,1-1.35,2,3.6,3.6,0,0,0-1.55,1.95,1.21,1.21,0,0,0,.17.78c.44.2.29.51,0,0a11.4,11.4,0,0,0-2.48-1c-1.35-.25-3.1.67-2.86,2s2.18,1.6,3.42,1C57,54.9,59,56.51,60.78,56.29a3.79,3.79,0,0,0,3.17-3A3.19,3.19,0,0,0,66.54,49a1.49,1.49,0,0,0,1.86-.61,1.51,1.51,0,0,0-.2-1.66,1.18,1.18,0,0,1-.27-.23,1.18,1.18,0,0,1,.27.23,1.75,1.75,0,0,0,2.37-1,3.8,3.8,0,0,0-.66-3.16c1,.91,2.72.29,3.41-.87a6.09,6.09,0,0,0,.58-3.39,2.45,2.45,0,0,1,0-.54l0,.54a2.5,2.5,0,0,0,4.21,1.46,3.85,3.85,0,0,1,.5-.63,2.36,2.36,0,0,1-.5.63,4.22,4.22,0,0,0-.68,2.37,4.41,4.41,0,0,0,4.38-3c1,.86,2.72-.67,2-1.74a4.7,4.7,0,0,1,3.39,1.43,4.74,4.74,0,0,0-1.52,2,1.65,1.65,0,0,0,.89,2.09,5.51,5.51,0,0,0-5,1.6,2.18,2.18,0,0,0-.68,2.26c.34.76,1.76.79,1.85,0a1.79,1.79,0,0,0,3.56.37,1.79,1.79,0,1,0,3.23-1.41,4.19,4.19,0,0,0,3.2-.24,1.67,1.67,0,0,0,.37-2.17,1.37,1.37,0,0,1-.64-.36.86.86,0,0,1,.64.36,2.26,2.26,0,0,0,2.53-1.37,2.49,2.49,0,0,1,0-.94,1.5,1.5,0,0,1,0,.94,3.17,3.17,0,0,0,3.28,2.69c.84-1,1.67-2.06,2.51-3.08a3.16,3.16,0,0,0,5.89-2.18,4.1,4.1,0,0,0,5,2.46,2,2,0,1,0,2.33,2.84,2.32,2.32,0,0,0,3.59.53c-.81.82.16,2.35,1.31,2.44a4.26,4.26,0,0,0,3-1.53,3.6,3.6,0,0,0,.67-.79,2,2,0,0,0-1-2.67,3.24,3.24,0,0,0-3.9-2.36,3,3,0,0,0,.35-2.91,2.33,2.33,0,0,0,.73-4.55l2.82-2.15a4.89,4.89,0,0,0,3.65,1.46,10.21,10.21,0,0,0-3.79-2.33,1.84,1.84,0,0,1-.63-.23l.63.23a2.51,2.51,0,0,0,2.56-1.49,3.75,3.75,0,0,0-.73-3.64A7.7,7.7,0,0,0,121.87,23a2.77,2.77,0,0,1-1-.58c.35.19.7.38,1,.58a3,3,0,0,0,3.78-1.58c.66-1.82-1.49-4-3.24-3.19.64-1.63-1.1-3.43-2.85-3.44s-3.28,1.19-4.42,2.52c.5-1-1-2-2-1.52A2.42,2.42,0,0,0,112,17.58a6.63,6.63,0,0,1,0,1,4.83,4.83,0,0,1,0-1,7.52,7.52,0,0,0-.86-3.44,1.35,1.35,0,0,0-.63-.7c-.59-.24-1.19.33-1.56.86A4.53,4.53,0,0,0,108,17l.12,0c1-.1,2.07,1,1.72,1.92A1.92,1.92,0,0,1,108,17v0a2.6,2.6,0,0,0-1.91,2,6.81,6.81,0,0,0,.17,3,6.3,6.3,0,0,0-2.47,2c.12-.36.25-.73.38-1.1a2.36,2.36,0,0,0-2-.66,3.06,3.06,0,0,0,2-1.37c.34-.78-.52-1.91-1.23-1.45.46-.89-.93-2-1.67-1.29a1.78,1.78,0,0,0-.77-1.71,1.47,1.47,0,0,0,.07-1.84l-1.25.13c.16-.5-.38-1-.9-1a2.56,2.56,0,0,0-1.39.65A5.81,5.81,0,0,0,94.8,17a2.48,2.48,0,0,1-.1.71,2.71,2.71,0,0,1,.1-.71,3.58,3.58,0,0,0-2.51-3.31,5.27,5.27,0,0,0-4.83,1.25,2.85,2.85,0,0,0-1.13,1.86,2.46,2.46,0,0,0-4.84-.89l-.84-1.31a5,5,0,0,0-1.76,1.25,1.8,1.8,0,0,0-2.72.07,3.85,3.85,0,0,0-7.67.68,2.83,2.83,0,0,0-4.67.87,1.85,1.85,0,0,0-2.59-.56,5.49,5.49,0,0,0-1.81,2.32,6.07,6.07,0,0,0-10.37,2.25l.45.06A2.61,2.61,0,0,1,53,21.45a15,15,0,0,1-3.48.07,2.59,2.59,0,0,0-1,1.66c-.29,2,1.5,3.83,3.47,4.06a4.68,4.68,0,0,0,3.09-.71l-.66,2A2.89,2.89,0,0,1,57.2,30.1a2,2,0,0,0-2.78,2.67,9.48,9.48,0,0,0-1.76-.19A3.72,3.72,0,0,0,56.05,32.7Z"/><path class="cls-10" d="M76.59,21a1.28,1.28,0,0,0,.28.16A.28.28,0,0,0,76.59,21Z"/><path class="cls-10" d="M117.65,25.15a1.55,1.55,0,0,0,.45-.43A1.42,1.42,0,0,0,117.65,25.15Z"/><path class="cls-10" d="M76.07,21.56a.32.32,0,0,0,.09.17A1.4,1.4,0,0,0,76.07,21.56Z"/><path class="cls-10" d="M64.4,23.25a1.9,1.9,0,0,0-.13-.67A1.46,1.46,0,0,0,64.4,23.25Z"/><g class="cls-11"><path class="cls-10" d="M122.11,29.81a1.84,1.84,0,0,1-.63-.23l.63.23a2.51,2.51,0,0,0,2.56-1.49,3.75,3.75,0,0,0-.73-3.64A7.7,7.7,0,0,0,121.87,23a2.77,2.77,0,0,1-1-.58c.35.19.7.38,1,.58a3,3,0,0,0,3.78-1.58c.66-1.82-1.49-4-3.24-3.19.64-1.63-1.1-3.43-2.85-3.44s-3.28,1.19-4.42,2.52c.5-1-1-2-2-1.52A2.42,2.42,0,0,0,112,17.58a6.63,6.63,0,0,1,0,1,4.83,4.83,0,0,1,0-1,7.52,7.52,0,0,0-.86-3.44,1.35,1.35,0,0,0-.63-.7c-.59-.24-1.19.33-1.56.86A4.53,4.53,0,0,0,108,17l.12,0c1-.1,2.07,1,1.72,1.92A1.92,1.92,0,0,1,108,17v0a2.6,2.6,0,0,0-1.91,2,6.81,6.81,0,0,0,.17,3,6.3,6.3,0,0,0-2.47,2l.38-1.1a2.36,2.36,0,0,0-2-.66,3.06,3.06,0,0,0,2-1.37c.34-.78-.52-1.91-1.23-1.45.46-.89-.93-2-1.67-1.29a1.78,1.78,0,0,0-.77-1.71,1.47,1.47,0,0,0,.07-1.84l-1.25.13c.16-.5-.38-1-.9-1a2.56,2.56,0,0,0-1.39.65A5.81,5.81,0,0,0,94.8,17a2.48,2.48,0,0,1-.1.71,2.71,2.71,0,0,1,.1-.71,3.58,3.58,0,0,0-2.51-3.31,5.27,5.27,0,0,0-4.83,1.25,2.85,2.85,0,0,0-1.13,1.86,2.46,2.46,0,0,0-4.84-.89l-.84-1.31a5,5,0,0,0-1.76,1.25,1.8,1.8,0,0,0-2.72.07,3.85,3.85,0,0,0-7.67.68,2.83,2.83,0,0,0-4.67.87,1.85,1.85,0,0,0-2.59-.56,5.49,5.49,0,0,0-1.81,2.32,6.07,6.07,0,0,0-10.37,2.25l.45.06A2.61,2.61,0,0,1,53,21.45a15,15,0,0,1-3.48.07,2.59,2.59,0,0,0-1,1.66c-.29,2,1.5,3.83,3.47,4.06a4.68,4.68,0,0,0,3.09-.71l-.66,2A2.9,2.9,0,0,1,57,29.77c1-.92,1.32-2.59.32-3.44a5.16,5.16,0,0,1,1.94-.87l-1.34-1.2a2.33,2.33,0,0,1,1.37-1.44c.35.42.7.83,1.06,1.24a2.2,2.2,0,0,1,1.54-2.85,2.22,2.22,0,0,1,2.39,1.37,2,2,0,0,1,2.44-1.76,2.59,2.59,0,0,1,1.36,3.48c.94.61,2.1-.25,2.94-1S73.27,22,74,22.85a1.24,1.24,0,0,1,2.12-1.29c0-.24.26-.52.52-.53a1.65,1.65,0,0,1,.17-2.66c1.07-.5,2.44.93,1.84,1.95a6,6,0,0,1,3-1.84c1.18-.17,2.58.7,2.47,1.89.16-2,2.62-3.19,4.45-2.47a4.78,4.78,0,0,1,2.72,4.8,1.86,1.86,0,0,1,3.32-.1c1-.93,2.16-1.82,3.48-1.66s2.28,2,1.24,2.88a2,2,0,0,1,1.41,1.6,1.33,1.33,0,0,1-.19.78,2.65,2.65,0,0,1,3,1.69,4.63,4.63,0,0,1,5.62-1.74c.21-.8.09-1.65.22-2.47a2,2,0,0,1,1.46-1.78c1.12-.11,1.77,1.19,2.1,2.26.44-1.6,2-3,3.62-2.72a2.33,2.33,0,0,1,1.52,3.28,1.69,1.69,0,0,1,2.13.29,1.73,1.73,0,0,1-.61,2.54,6.08,6.08,0,0,0-1.05.43A1.07,1.07,0,1,0,120,29.57l.18,1.19a7.44,7.44,0,0,1,2,0l.07-.05.07.07c.7.07,1.4.17,2.09.19A12,12,0,0,0,122.11,29.81Z"/></g><path class="cls-10" d="M54.76,30.35a1.76,1.76,0,0,0-.27.34,4.66,4.66,0,0,0,2-.57,2.83,2.83,0,0,0,.28-.2A2.05,2.05,0,0,0,54.76,30.35Z"/><path class="cls-7" d="M81.23,27.48c0,2.15-2.34,3.91-4.5,3.91s-4.47-1.76-4.47-3.91,1.32-4.11,4.47-3.89C80.07,23.3,81.23,25.32,81.23,27.48Z"/><path class="cls-8" d="M80.82,27.24a3.87,3.87,0,0,1-4.07,3.68c-2.16,0-4.33-1.52-4.33-3.68s1.16-3.87,4.31-3.65C80.07,23.3,80.82,25.09,80.82,27.24Z"/><path class="cls-7" d="M104.32,34.39c0,1.64-1.79,3-3.44,3s-3.41-1.35-3.41-3,1-3.15,3.41-3C103.43,31.2,104.32,32.74,104.32,34.39Z"/><path class="cls-8" d="M104,34.21A3,3,0,0,1,100.89,37c-1.65,0-3.3-1.17-3.3-2.81s.88-3,3.29-2.8C103.43,31.2,104,32.56,104,34.21Z"/><path class="cls-12" d="M137.19,46.8l-1.07-.12a1.23,1.23,0,0,0,.55-.69,1.18,1.18,0,0,0,0-.67.86.86,0,0,0-.07-.21,1.22,1.22,0,0,0-.67-.59,1.32,1.32,0,0,0-.44-.08,1.12,1.12,0,0,0-.44.09,1.27,1.27,0,0,0,.37-.36,1.45,1.45,0,0,0,.23-.64,1.36,1.36,0,0,0,0-.35,1.76,1.76,0,0,0-.13-.5l-.09-.15a1.2,1.2,0,0,0-.35-.36.7.7,0,0,0-.17-.09l-.05,0-.12,0h-.06l-.12,0h-.43L134,42l-.05,0-.14.05h0l-.17.09h0a1.06,1.06,0,0,1-.67,1,1.33,1.33,0,0,1,.67-1,1.71,1.71,0,0,0-.07-.67v0l-.07-.18,0,0a.64.64,0,0,0-.08-.14.21.21,0,0,0,0-.06.31.31,0,0,0-.09-.11l-.05-.06-.11-.1-.05,0-.18-.11a1.63,1.63,0,0,0-.56-.16l-.19,0a2.74,2.74,0,0,0-1.66.61,2.61,2.61,0,0,0-.31.27l-.14.14a6.5,6.5,0,0,0-.68,1c-.14.23-.26.47-.38.71s-.35.72-.55,1.07c0-.11,0-.22,0-.34v-.09a2.44,2.44,0,0,0,0-.27.2.2,0,0,0,0-.07,1.77,1.77,0,0,0,0-.32s0,0,0-.07a2.5,2.5,0,0,0-.07-.26.24.24,0,0,0,0-.08,4.73,4.73,0,0,0-.25-.62l0-.07-.15-.26,0,0a3,3,0,0,0-.2-.29l0,0-.2-.25,0,0a4.81,4.81,0,0,0-.51-.5l0,0a5,5,0,0,0-1.61-.91h0a3.06,3.06,0,0,1-2.48,0,3.83,3.83,0,0,1,2.48,0l.34-.16h0a1.92,1.92,0,0,0,.31-.18h0a2.83,2.83,0,0,0,.28-.2l0,0,.24-.21,0,0,.2-.21.06-.07.16-.21.06-.08c0-.08.1-.15.14-.23l.06-.09a3.13,3.13,0,0,0,.15-.32h0a2.19,2.19,0,0,0,.12-.33,3.93,3.93,0,0,0,.15-.68,5.32,5.32,0,0,0,0-.69c0-.11,0-.23,0-.34a5.54,5.54,0,0,0-.12-.69,5.93,5.93,0,0,0-1.26-2.5l-.31-.33a10.21,10.21,0,0,0-3.79-2.33,1.84,1.84,0,0,1-.63-.23l.63.23a2.51,2.51,0,0,0,2.56-1.49,3.75,3.75,0,0,0-.73-3.64A7.7,7.7,0,0,0,121.87,23a2.77,2.77,0,0,1-1-.58c.35.19.7.38,1,.58a3,3,0,0,0,3.78-1.58c.66-1.82-1.49-4-3.24-3.19.64-1.63-1.1-3.43-2.85-3.44s-3.28,1.19-4.42,2.52c.5-1-1-2-2-1.52A2.42,2.42,0,0,0,112,17.58a6.63,6.63,0,0,1,0,1,4.83,4.83,0,0,1,0-1,7.52,7.52,0,0,0-.86-3.44,1.35,1.35,0,0,0-.63-.7c-.59-.24-1.19.33-1.56.86A4.53,4.53,0,0,0,108,17l.12,0c1-.1,2.07,1,1.72,1.92A1.92,1.92,0,0,1,108,17v0a2.6,2.6,0,0,0-1.91,2,6.81,6.81,0,0,0,.17,3,6.3,6.3,0,0,0-2.47,2c.12-.36.25-.73.38-1.1a2.36,2.36,0,0,0-2-.66,3.06,3.06,0,0,0,2-1.37c.34-.78-.52-1.91-1.23-1.45.46-.89-.93-2-1.67-1.29a1.78,1.78,0,0,0-.77-1.71,1.47,1.47,0,0,0,.07-1.84l-1.25.13c.16-.5-.38-1-.9-1a2.56,2.56,0,0,0-1.39.65A5.81,5.81,0,0,0,94.8,17a2.48,2.48,0,0,1-.1.71,2.71,2.71,0,0,1,.1-.71,3.58,3.58,0,0,0-2.51-3.31,5.27,5.27,0,0,0-4.83,1.25,2.85,2.85,0,0,0-1.13,1.86,2.46,2.46,0,0,0-4.84-.89l-.84-1.31a5,5,0,0,0-1.76,1.25,1.8,1.8,0,0,0-2.72.07,3.85,3.85,0,0,0-7.67.68,2.83,2.83,0,0,0-4.67.87,1.85,1.85,0,0,0-2.59-.56,5.49,5.49,0,0,0-1.81,2.32,6.07,6.07,0,0,0-10.37,2.25l.45.06A2.61,2.61,0,0,1,53,21.45a15,15,0,0,1-3.48.07,2.59,2.59,0,0,0-1,1.66c-.29,2,1.5,3.83,3.47,4.06a4.68,4.68,0,0,0,3.09-.71l-.66,2A2.89,2.89,0,0,1,57.2,30.1a2,2,0,0,0-2.78,2.67,9.48,9.48,0,0,0-1.76-.19,7,7,0,0,0-.8,0h0l-.35.05h-.06l-.34.07h0l-.37.09,0,0-.3.1-.1,0-.24.1-.1,0-.32.17a4.1,4.1,0,0,0-2.15,4.13c0,.09.05.18.07.27l0,.07c0,.07.05.13.07.2l0,.07c0,.08.08.16.13.24a.21.21,0,0,0,0,.06l.1.17.07.09a1.47,1.47,0,0,1,.1.13l.08.08.16.17.12.11.08.06.14.11,0,0a2.86,2.86,0,0,0,.54.3h0a2.77,2.77,0,0,0,.62.19,1.19,1.19,0,0,1,1.29-.13,2.38,2.38,0,0,1-1.29.13l-.11.08h0l-.1.09h0l-.19.21h0l-.07.11v0l-.06.1v0a1.89,1.89,0,0,0-.11.25h0l0,.11v0s0,.06,0,.09v.31a.3.3,0,0,1,0,.1v0l0,.08v0a.3.3,0,0,1,0,.08s0,0,0,0l.07.11,1.35.34a.9.9,0,0,0-.67.36.88.88,0,0,0-.2.73.66.66,0,0,0,0,.15l0,.06a1.87,1.87,0,0,1,1.14.49,1,1,0,0,1-1.14-.49h-.2a2.57,2.57,0,0,0-.55.06h0a2.64,2.64,0,0,0-.47.17l-.09,0-.11.06-.12.08-.09.06-.15.13-.06.06-.12.12,0,.06a1.27,1.27,0,0,0-.13.19l0,0a.89.89,0,0,0-.08.17l0,.06a2.17,2.17,0,0,0-.07.24h0a2.34,2.34,0,0,0,0,.26v.25s0,.08,0,.12,0,.09,0,.13a.74.74,0,0,0,0,.14l0,.1.06.15,0,.08.08.16,0,.05.12.16,0,0c.05.06.09.12.14.17h0c.9-.39,2.28-.27,2.17.67a2.15,2.15,0,0,1-2.17-.67h0l-.21.11a5.39,5.39,0,0,0-.5.33,7.37,7.37,0,0,0-.93.74,8.9,8.9,0,0,0-1.54,1.81c-.11.17-.21.34-.31.51s-.14.27-.2.41a2,2,0,0,0-.19.86,1.25,1.25,0,0,0,.08.42.61.61,0,0,0,.07.14,2.19,2.19,0,0,0,.8.74,9.24,9.24,0,0,0,3.13,1.24c.27.05.55.09.83.12l.42,0H50a8.66,8.66,0,0,0,1.68-.14h0a1.18,1.18,0,0,0-.11.19h0l-.06.18v0a1.23,1.23,0,0,0,0,.19v0a1.21,1.21,0,0,0,0,.19v0l0,.19v0a.75.75,0,0,0,.07.18v0a.91.91,0,0,0,.09.17v0a1,1,0,0,0,.12.17h0a1.44,1.44,0,0,0,1.51.58.51.51,0,0,1,.17-.07l-.17.07a.53.53,0,0,0-.12.1h0a.51.51,0,0,0-.09.13h0A.91.91,0,0,0,53,57v0l0,.14v0a.56.56,0,0,0,0,.12l0,0a.64.64,0,0,0,.08.14,1.4,1.4,0,0,1,.59.28.58.58,0,0,1-.59-.28h0l-.18,0h-.23l-.18,0h0a2.55,2.55,0,0,0-.53.18l-.05,0-.13.08-.07,0-.11.08-.08.06-.1.08-.09.1-.07.06-.14.18,0,.06-.09.13a.2.2,0,0,1,0,.08l-.06.14,0,.08s0,.1-.05.15a.19.19,0,0,1,0,.07,1.6,1.6,0,0,0,0,.23,3.21,3.21,0,0,0,2.28,3,5.61,5.61,0,0,0,1,.24l.5.06.75,0c.6,0,1.2-.06,1.78-.11a.72.72,0,0,0-.39.08,1.39,1.39,0,0,0-.49,1.64,1.27,1.27,0,0,0,.49.67L57,65a1.72,1.72,0,0,0,.63.09A1.41,1.41,0,0,0,58,65a2,2,0,0,0,.4-.17,2.62,2.62,0,0,0,.83-.73,2.5,2.5,0,0,0,.23-.39,2.05,2.05,0,0,0,.16-.41.93.93,0,0,0,0,.29,1.35,1.35,0,0,0,0,.29,1.5,1.5,0,0,0,.18.41,1.88,1.88,0,0,0,.18.24,1.61,1.61,0,0,0,.48.34,1.28,1.28,0,0,0,.43.1h.25l.17,0h0l.19-.07,0,0,.16-.1h0a1.07,1.07,0,0,0,.16-.14h0a1.35,1.35,0,0,0,.36-.52h0a1.16,1.16,0,0,1,.09-.63,1.23,1.23,0,0,1-.09.63,1.58,1.58,0,0,0,.59.93h0l.16.11h0l.17.09h0l.17.07h0l.17.06h0l.17,0h0l.18,0h.22l.17,0h0l.16-.05h0l.16-.08a2.1,2.1,0,0,0,.82-.85,2.23,2.23,0,0,0,.18-.45,2.4,2.4,0,0,0,.11-.48,3.59,3.59,0,0,0,0-1,2.68,2.68,0,0,0-.11-.49,2.25,2.25,0,0,0-.08-.24c0-.14-.12-.28-.18-.42l-.18-.41c0-.14-.1-.28-.14-.42a24,24,0,0,0,5.12,5.7c3.71,3.08,8,5.61,10.91,9.43,4.35,5.64,5.16,13.14,5.81,20.23a34.06,34.06,0,0,1,.06,8.5c-.53,3-5.08,6.23-6,8.77s5.88,1.14,6.77,1.53c1.09.49,1.42,1.9,2.53,2.37,2.06.88,3.35-2.31,5.24-3.52,2.06-1.32,4.74-.08,6.93,1s6.43.33,4.61-1.42-10.43-5.18-12.2-11.72c-2-7.55,2.63-15.08,6.57-21.83A146.25,146.25,0,0,0,113.92,51.9l.42-.12a5.25,5.25,0,0,0,.59-.28c.28-.16.56-.35.83-.53a1.91,1.91,0,0,0,0,1.25,2,2,0,0,0,.9,1.11l.17.09a1.82,1.82,0,0,0,.52.14h.18a1.53,1.53,0,0,0,.37,0,2,2,0,0,0,.53-.14l.32-.17a1.87,1.87,0,0,0,.63-.65,5.45,5.45,0,0,0,.06,1.89,5.11,5.11,0,0,0,.13.53,5.17,5.17,0,0,0,.18.51c.07.17.15.33.23.49a6.12,6.12,0,0,0,.43.69,4,4,0,0,0,.56-.26,5.24,5.24,0,0,0,.78-.51,5.29,5.29,0,0,0,.88-.89,5.81,5.81,0,0,0,.51-.78,5,5,0,0,0,.45-1.16,1.93,1.93,0,0,1,.32,1,1.09,1.09,0,0,1,0,.18,5.78,5.78,0,0,1,0,.58,1.23,1.23,0,0,0,0,.19c0,.26-.06.52-.08.77,0,.07,0,.13,0,.19a2.37,2.37,0,0,0,.11.78,2.42,2.42,0,0,0,.35.7,1.26,1.26,0,0,0,.54.44.81.81,0,0,0,.66,0,.65.65,0,0,0,.22-.11l.1-.07a2.29,2.29,0,0,0,.27-.27l.15-.19a9.3,9.3,0,0,0,.67-1,10.64,10.64,0,0,0,1.14-2.8c0-.2.09-.4.13-.59,0,.18,0,.37-.05.56s0,.38,0,.57a4.54,4.54,0,0,0,.43,2.14,2.27,2.27,0,0,0,.69.79,2,2,0,0,0,1.23.37,2.68,2.68,0,0,0,.95-.22l.31-.15.14-.09.29-.2.27-.23.12-.12.23-.27a3.33,3.33,0,0,0,.62-1.25,5.91,5.91,0,0,0-.21-3c-.07-.22-.14-.44-.23-.66-.2-.55-.44-1.09-.67-1.62a1.86,1.86,0,0,0,.59.81,3.12,3.12,0,0,0,.43.27l.24.1a2.71,2.71,0,0,0,1,.15l.26,0,.25-.05a2.3,2.3,0,0,0,.5-.18l.22-.12A3.71,3.71,0,0,0,137.19,46.8Zm-60.8,9.94a4.24,4.24,0,0,0,.13.78.72.72,0,0,0-.34-.11.87.87,0,0,0-.63.19,1.4,1.4,0,0,0-.42.45c0-2.15.11-4.44.28-6.61h0l0,.05a.35.35,0,0,0,0,.08.76.76,0,0,0,.08.11l0,0,.06.07,0,.05.08.07,0,0L76,52l0,0,.12.06,0,0,.11,0,0,0,.15,0,.17,0c.63,0,1.28-.11,1.89,0a1.65,1.65,0,0,1,.32.06,1.75,1.75,0,0,1,.32.12,2,2,0,0,0-.36.16,4.16,4.16,0,0,0-1.48,1.25,4.65,4.65,0,0,0-.72,1.4,6.43,6.43,0,0,0-.17.76A5.09,5.09,0,0,0,76.39,56.74Zm-3.56,4.33c-.22.87-.57,1.85-1.7,1.86a2,2,0,0,1-1.57-.79L67.86,60a1.34,1.34,0,0,0,.13-.4,1.75,1.75,0,0,0,0-.51,1.47,1.47,0,0,0-.24-.64l1.08,1.28.27-.11.09-.05.16-.09.1-.07.14-.09.1-.09.11-.09.11-.1L70,59l.11-.12.07-.09a1.34,1.34,0,0,0,.11-.14l.06-.09.11-.16a.35.35,0,0,1,.05-.08,1.62,1.62,0,0,1,.1-.18l0-.07.1-.2,0-.06.09-.22,0,0c0-.08,0-.16.07-.24v0a2.5,2.5,0,0,0,.07-.26v0c0-.09,0-.18,0-.27h0a2.7,2.7,0,0,0,0-.28h0a2.64,2.64,0,0,0,0-.28.75.75,0,0,1-.72-.61L70,51.34a12.08,12.08,0,0,1,1.21,4.57c0,.06,0,.12,0,.18h.31l.14,0h0l.12,0h0l.1-.06,0,0,.09-.06,0,0,.07-.07,0,0,.06-.1h0a.35.35,0,0,1,0-.29.54.54,0,0,1,0,.29.67.67,0,0,0,.13.25h0a.7.7,0,0,0,.24.17h0l.14.05h.17a.3.3,0,0,0,.13,0h0a.38.38,0,0,0,.13-.06,1,1,0,0,0,.35-.46,1.77,1.77,0,0,0,.08-.4,1.62,1.62,0,0,0,0-.22,2.71,2.71,0,0,0,0-.41,5.33,5.33,0,0,0-.2-.81l-.15-.39a5.12,5.12,0,0,0-.39-.73l-.24-.34a4.13,4.13,0,0,0-.56-.62h0l.22.06h.08l.16,0h.81l.14,0h.09l.22-.05.06,0A33.68,33.68,0,0,1,72.83,61.07ZM87,70.89c-.3,1-2.19,2.13-3.4,1.11s-7.49-6.74-7.87-8.29a22.07,22.07,0,0,1-.54-4.25l.07.09.12.13a3.15,3.15,0,0,0,.29.22l.16.08a2.45,2.45,0,0,0,.54.18l.38.05a2.92,2.92,0,0,0,.59,0,2.45,2.45,0,0,0,.37-.08,1.3,1.3,0,0,0,0,.34,1.66,1.66,0,0,0,1.44,1.48h.17l.18,0a1.35,1.35,0,0,0,.47-.18,2.83,2.83,0,0,0,.28-.2l.12-.12a1.86,1.86,0,0,0,.21-.28l.08-.15a1.78,1.78,0,0,0,.14-.5,1.46,1.46,0,0,0,0-.51.82.82,0,0,0,.25.24,1,1,0,0,0,.3.14,1.2,1.2,0,0,0,.33,0h.17l.18,0a2.3,2.3,0,0,0,.34-.12,1.52,1.52,0,0,0,.77-.73,2.21,2.21,0,0,0,.15-.5,2.07,2.07,0,0,0,0-.35,2.38,2.38,0,0,0-.05-.53,3.46,3.46,0,0,0-.14-.53,4.46,4.46,0,0,0-.22-.5l-.18-.32c-.19-.3-.4-.59-.62-.88l-.21-.29a7.72,7.72,0,0,1-.77-1.21c.32-.4.65-.79,1-1.18a2.19,2.19,0,0,0,.51,1.35,3,3,0,0,0,.66.62,3.2,3.2,0,0,0,.53.34l.59.26A6.36,6.36,0,0,0,85,56a4.52,4.52,0,0,0,.62.12,7.24,7.24,0,0,0,2.13,0A28.22,28.22,0,0,1,87,70.89Zm3.57-16.6h0a1,1,0,0,0,.07-.15.54.54,0,0,0,0-.11l.06-.15a.49.49,0,0,0,0-.11c0-.05,0-.1,0-.15l0-.12a2.34,2.34,0,0,0,0-.26.88.88,0,0,0,0-.16s0-.07,0-.11v-.16a.33.33,0,0,0,0-.1.91.91,0,0,0,0-.17.28.28,0,0,0,0-.09,1.1,1.1,0,0,0,0-.18s0-.05,0-.08,0-.11,0-.17a.14.14,0,0,1,0-.06,2.31,2.31,0,0,0-.3-.61h0a1,1,0,0,1-.43-.44,2.23,2.23,0,0,1,.43.44,1.16,1.16,0,0,0,.4.16h0l.13,0h.19l.26,0h0l.1,0,.08,0,.09,0,.1,0,.08,0,.13-.06,0,0,.15-.09,0,0,.1-.08.05,0,.1-.09,0,0,.12-.15a2.39,2.39,0,0,0,.21-.34l.09-.18a2.32,2.32,0,0,0,.13-.37,1.46,1.46,0,0,0,0-.2,2.57,2.57,0,0,0,.07-.4,4.07,4.07,0,0,0,.05-.61c0-.21,0-.42,0-.62s0-.28,0-.42a2.94,2.94,0,0,0,.19,1,3.48,3.48,0,0,0,.49.86,3.32,3.32,0,0,0,.53.53,3.09,3.09,0,0,0,.37.26l-3.76,5.39ZM96,81.17c-.16.2-.33.41-.51.61a1.65,1.65,0,0,1-2.82-.87c-.88-5.26-1-11.08,3-14.35,1.69-1.38,4.21-2.55,4.11-4.74l-4.37,1.57a1.42,1.42,0,0,1-1.88-1.56,27.34,27.34,0,0,1,5.31-12.18,3.37,3.37,0,0,0,.29-.37l0,0a1.63,1.63,0,0,1-.11.17l-.24.44-.23.45c0,.07-.06.15-.1.23-.09.23-.18.46-.25.69a4.54,4.54,0,0,0-.13.72,3.85,3.85,0,0,0,0,.48,3.93,3.93,0,0,0,.06.48,2,2,0,0,0,.16.47l.12.22a2.9,2.9,0,0,0,.48.57,2.17,2.17,0,0,0,1.3.56,1.42,1.42,0,0,0,.88-.26l-.49.39c-.11.09-.22.18-.32.28l-.3.3-.13.15a3.43,3.43,0,0,0-.24.33,2.43,2.43,0,0,0-.2.35,2.29,2.29,0,0,0-.12.37A1.32,1.32,0,0,0,99.6,58a1.63,1.63,0,0,0,.31.27,1.29,1.29,0,0,0,.35.18,1.23,1.23,0,0,0,.37.08h.17a.75.75,0,0,0,.58-.39.62.62,0,0,0,0,.31.69.69,0,0,0,.18.24,1.07,1.07,0,0,0,.59.23h.16l.17,0,.15,0a.63.63,0,0,0,.35-.27.56.56,0,0,0,.09-.3,2.16,2.16,0,0,0,.49,1.82A37,37,0,0,1,96,81.17Zm9.83-18.62c0-.59,0-1.18,0-1.77a2,2,0,0,0,.37-.16,2.92,2.92,0,0,0,.37-.24,3.11,3.11,0,0,0,.32-.31,2.34,2.34,0,0,0,.43-.77,2,2,0,0,0,.08-.43,1.22,1.22,0,0,0,.25.51,1.42,1.42,0,0,0,.31.29l-1.11,3.08A.55.55,0,0,1,105.8,62.55Z"/><path class="cls-13" d="M76.3,79.39c3.13,4.07,3.88,9.85,4.54,17,0,.29,0,.59.07.88A26.86,26.86,0,0,1,81,103a21.91,21.91,0,0,1-1.94,2.36,18.56,18.56,0,0,0-3.84,5.55,7.08,7.08,0,0,0,.72,6.6c2.31,3.34,6.44,3.34,7.8,3.34.49,0,1,0,1.44,0a8.13,8.13,0,0,0,2.68,1.85,7.86,7.86,0,0,0,3.12.65c3.75,0,6-2.56,7.29-4,.54.23,1.14.53,1.41.66a11.68,11.68,0,0,0,5.22,1.17c4,0,7.07-1.78,8.27-4.76a7,7,0,0,0-1.85-7.77,20.71,20.71,0,0,0-3.51-2.49c-2.36-1.45-6.32-3.88-7-6.4C99.54,95,103,89.16,106.29,83.49l.48-.83A151.52,151.52,0,0,0,116.9,61.75a6.24,6.24,0,0,0,3.54,1.11l.54,0a7.65,7.65,0,0,0,1.39.79,6.85,6.85,0,0,0,2.52.57h.27a7,7,0,0,0,2.21-.36c-3.1-.86-4.44-2.88-6.3-2.86a6,6,0,0,1-4.71-2.12s-2.88,6-5.07,11.11S100.21,89.82,98.57,95s1.09,8.21,5,11.08,7.28,4.52,8.1,6.71-.54,5.06-4.81,6.16-9-1.79-9-1.79-3.14,3.29-6.42,4.09S85.7,119,85.7,119c-7.66,0-8.07-3.15-8.56-6.3s5-6.43,5.83-7.8.41-1.78,0-9.44S80,80.79,77.14,77.5s-10.6-8.31-10.6-8.31c-1.36,1.14-7.25,0-7.25,0-4,.41-7.25-2.6-7.25-2.6C48.61,66,46,62.68,44.83,61a9.5,9.5,0,0,0,6.25,7.12l.41.14a7.43,7.43,0,0,0,1.92,1.83,7.67,7.67,0,0,0,1.34.68,7.83,7.83,0,0,0,2.75.5h.39A7.84,7.84,0,0,0,59.48,71a7.39,7.39,0,0,0,1.14.14H61l.46,0,.53.17h0l.09,0,.62.13.16,0h0a6.82,6.82,0,0,0,.79.08h.43l.59,0h0l.12,0c.24,0,.48-.06.72-.1l.19,0h0a6.22,6.22,0,0,0,.87-.25c1.14.94,2.28,1.8,3.39,2.64A32.84,32.84,0,0,1,76.3,79.39Z"/><path class="cls-14" d="M42.89,133.4l-5.61,13.21a1.57,1.57,0,0,1-.56.76,1.4,1.4,0,0,1-.82.28,1.29,1.29,0,0,1-1-.39,1.42,1.42,0,0,1-.34-1,1.79,1.79,0,0,1,.08-.49l6.47-15.55a1.73,1.73,0,0,1,.64-.81,1.39,1.39,0,0,1,.92-.23,1.49,1.49,0,0,1,.87.27,1.57,1.57,0,0,1,.59.77l6.4,15.24a1.86,1.86,0,0,1,.13.62,1.46,1.46,0,0,1-.46,1.12,1.44,1.44,0,0,1-1,.42,1.41,1.41,0,0,1-.85-.29,1.86,1.86,0,0,1-.58-.78l-5.59-13Zm-4.81,10,1.43-3h7l.5,3Zm4.58-15.1a1.17,1.17,0,0,1-.79-.26.87.87,0,0,1-.3-.68.73.73,0,0,1,.09-.35,1.57,1.57,0,0,1,.27-.35l2.24-2a3.56,3.56,0,0,1,.61-.4,1.44,1.44,0,0,1,.66-.17,1.52,1.52,0,0,1,.91.34,1.1,1.1,0,0,1,.47.94,1.32,1.32,0,0,1-.25.76,1.71,1.71,0,0,1-.71.61l-2.6,1.38a.9.9,0,0,1-.31.13Z"/><path class="cls-14" d="M53.73,147.52a1.51,1.51,0,0,1-1.12-.46,1.53,1.53,0,0,1-.44-1.13V135.19a1.53,1.53,0,0,1,.44-1.13,1.5,1.5,0,0,1,1.12-.45,1.48,1.48,0,0,1,1.11.45,1.54,1.54,0,0,1,.45,1.13v2.45l-.19-1.75a4,4,0,0,1,.75-1.1,4.44,4.44,0,0,1,1-.81,5.17,5.17,0,0,1,1.22-.48,5.83,5.83,0,0,1,1.3-.15,2,2,0,0,1,1.32.44,1.32,1.32,0,0,1,.53,1,1.55,1.55,0,0,1-.44,1.23,1.48,1.48,0,0,1-1,.38,2.19,2.19,0,0,1-.9-.18,2.26,2.26,0,0,0-.92-.19,2.21,2.21,0,0,0-1,.23,2.55,2.55,0,0,0-.89.68,3.81,3.81,0,0,0-.65,1.16,5,5,0,0,0-.24,1.63v6.16a1.54,1.54,0,0,1-.45,1.13A1.48,1.48,0,0,1,53.73,147.52Z"/><path class="cls-14" d="M70.54,133.35a5.91,5.91,0,0,1,3.27.92,6.5,6.5,0,0,1,2.28,2.53,8.7,8.7,0,0,1,0,7.5,6.45,6.45,0,0,1-2.26,2.55,5.85,5.85,0,0,1-5.13.59,6.25,6.25,0,0,1-1.6-.86A5.09,5.09,0,0,1,66,145.53a1.69,1.69,0,0,1-.37-.9l.8-.34v1.9a1.57,1.57,0,0,1-.44,1.13,1.61,1.61,0,0,1-2.24,0,1.54,1.54,0,0,1-.44-1.14V129.86a1.57,1.57,0,0,1,.44-1.13,1.62,1.62,0,0,1,2.24,0,1.57,1.57,0,0,1,.44,1.13v6.61l-.44-.24a1.49,1.49,0,0,1,.36-.82,5.69,5.69,0,0,1,1-1,5.55,5.55,0,0,1,1.44-.79A4.82,4.82,0,0,1,70.54,133.35Zm-.39,2.86a3.53,3.53,0,0,0-2,.57,3.86,3.86,0,0,0-1.34,1.54,5,5,0,0,0-.48,2.23,5.08,5.08,0,0,0,.48,2.22,3.82,3.82,0,0,0,1.34,1.57,3.53,3.53,0,0,0,2,.58,3.46,3.46,0,0,0,2-.58,3.8,3.8,0,0,0,1.33-1.57,5.08,5.08,0,0,0,.48-2.22,5,5,0,0,0-.48-2.23,3.84,3.84,0,0,0-1.33-1.54A3.45,3.45,0,0,0,70.15,136.21Z"/><path class="cls-14" d="M92.79,140.57a7.25,7.25,0,0,1-1,3.76,6.78,6.78,0,0,1-2.54,2.53,7.41,7.41,0,0,1-7.15,0,6.73,6.73,0,0,1-2.55-2.53,7.9,7.9,0,0,1,0-7.51,6.79,6.79,0,0,1,2.55-2.55,7.41,7.41,0,0,1,7.15,0,6.83,6.83,0,0,1,2.54,2.55A7.21,7.21,0,0,1,92.79,140.57Zm-3.12,0a4.68,4.68,0,0,0-.53-2.3,4,4,0,0,0-1.43-1.52,3.94,3.94,0,0,0-4,0,4,4,0,0,0-1.43,1.52,4.79,4.79,0,0,0-.53,2.3,4.74,4.74,0,0,0,.53,2.28,4,4,0,0,0,1.43,1.52,3.88,3.88,0,0,0,4,0,4,4,0,0,0,1.43-1.52A4.63,4.63,0,0,0,89.67,140.57Z"/><path class="cls-14" d="M98.48,145.93a1.54,1.54,0,0,1-.45,1.13,1.56,1.56,0,0,1-1.13.46,1.49,1.49,0,0,1-1.1-.46,1.57,1.57,0,0,1-.44-1.13V129.86a1.51,1.51,0,0,1,.46-1.13,1.54,1.54,0,0,1,1.13-.45,1.44,1.44,0,0,1,1.1.45,1.56,1.56,0,0,1,.43,1.13Z"/><path class="cls-14" d="M120.66,128.28a1.51,1.51,0,0,1,1.12.44,1.54,1.54,0,0,1,.44,1.14v16.07a1.57,1.57,0,0,1-.44,1.13,1.59,1.59,0,0,1-2.24,0,1.57,1.57,0,0,1-.44-1.13v-1.28l.57.24a1.49,1.49,0,0,1-.36.82,4.76,4.76,0,0,1-1,.95,6.4,6.4,0,0,1-1.47.79,5,5,0,0,1-1.83.33,5.9,5.9,0,0,1-3.25-.93,6.4,6.4,0,0,1-2.3-2.55,8.65,8.65,0,0,1,0-7.48,6.48,6.48,0,0,1,2.27-2.55,5.7,5.7,0,0,1,3.17-.92,6,6,0,0,1,3.68,1.19,5.09,5.09,0,0,1,1.07,1.05,1.72,1.72,0,0,1,.38.9l-.94.34v-7a1.57,1.57,0,0,1,.44-1.13A1.52,1.52,0,0,1,120.66,128.28Zm-5.25,16.64a3.53,3.53,0,0,0,2-.58,3.86,3.86,0,0,0,1.34-1.56,5,5,0,0,0,.48-2.21,5,5,0,0,0-.48-2.23,3.86,3.86,0,0,0-1.34-1.56,3.53,3.53,0,0,0-2-.57,3.49,3.49,0,0,0-2,.57,3.86,3.86,0,0,0-1.34,1.56,5,5,0,0,0-.48,2.23,5,5,0,0,0,.48,2.21,3.86,3.86,0,0,0,1.34,1.56A3.49,3.49,0,0,0,115.41,144.92Z"/><path class="cls-14" d="M131.79,147.78a7.57,7.57,0,0,1-3.83-.93,6.35,6.35,0,0,1-2.5-2.51,7.3,7.3,0,0,1-.87-3.58,7.92,7.92,0,0,1,1-4,6.65,6.65,0,0,1,2.49-2.53,6.37,6.37,0,0,1,3.25-.88,6,6,0,0,1,2.5.54,6.91,6.91,0,0,1,2.1,1.5,7.43,7.43,0,0,1,1.44,2.19,6.64,6.64,0,0,1,.53,2.65,1.32,1.32,0,0,1-.49,1,1.66,1.66,0,0,1-1.09.39h-9.94l-.77-2.6h9.54l-.57.52v-.7a2.4,2.4,0,0,0-.54-1.35,3.46,3.46,0,0,0-1.19-.95,3.35,3.35,0,0,0-1.52-.35,5.2,5.2,0,0,0-1.46.2,2.91,2.91,0,0,0-1.17.7,3.45,3.45,0,0,0-.78,1.33,6.63,6.63,0,0,0-.29,2.11,4.57,4.57,0,0,0,.59,2.38,4,4,0,0,0,3.47,2,6.17,6.17,0,0,0,1.53-.16,3.73,3.73,0,0,0,.93-.38c.23-.15.44-.27.63-.37a2,2,0,0,1,.89-.24,1.28,1.28,0,0,1,.95.39,1.26,1.26,0,0,1,.37.91,1.65,1.65,0,0,1-.72,1.28,6.32,6.32,0,0,1-1.9,1A7.77,7.77,0,0,1,131.79,147.78Z"/><path class="cls-14" d="M48.26,153.35a4.54,4.54,0,0,1,2.92.8,4.07,4.07,0,0,1,1.38,2.15,11,11,0,0,1,.38,3v6.66a1.57,1.57,0,0,1-.44,1.13,1.52,1.52,0,0,1-1.12.46,1.51,1.51,0,0,1-1.12-.46,1.53,1.53,0,0,1-.44-1.13v-6.66a5.25,5.25,0,0,0-.22-1.54,2.14,2.14,0,0,0-.8-1.11,2.71,2.71,0,0,0-1.63-.41,3.42,3.42,0,0,0-1.76.41,2.83,2.83,0,0,0-1.09,1.11,3.17,3.17,0,0,0-.38,1.54v6.66a1.57,1.57,0,0,1-.44,1.13,1.59,1.59,0,0,1-2.24,0,1.57,1.57,0,0,1-.44-1.13V155.19a1.57,1.57,0,0,1,.44-1.13,1.62,1.62,0,0,1,2.24,0,1.57,1.57,0,0,1,.44,1.13v1.12l-.39-.08a5.35,5.35,0,0,1,.68-.95,6.39,6.39,0,0,1,1-.95,5.41,5.41,0,0,1,1.35-.71A4.82,4.82,0,0,1,48.26,153.35Z"/><path class="cls-14" d="M67.32,153.35a1.51,1.51,0,0,1,1.12.44,1.54,1.54,0,0,1,.44,1.14v11a1.57,1.57,0,0,1-.44,1.13,1.52,1.52,0,0,1-1.12.46,1.51,1.51,0,0,1-1.12-.46,1.57,1.57,0,0,1-.44-1.13v-1.28l.57.24a1.49,1.49,0,0,1-.36.82,5.32,5.32,0,0,1-1,.95,6.4,6.4,0,0,1-1.47.79,5,5,0,0,1-1.83.33,5.9,5.9,0,0,1-3.25-.93,6.42,6.42,0,0,1-2.31-2.55,8.75,8.75,0,0,1,0-7.48,6.58,6.58,0,0,1,2.28-2.55,5.68,5.68,0,0,1,3.17-.92,6,6,0,0,1,3.68,1.19,5.09,5.09,0,0,1,1.07,1.05,1.69,1.69,0,0,1,.37.9l-.93.34v-1.9a1.57,1.57,0,0,1,.44-1.13A1.5,1.5,0,0,1,67.32,153.35Zm-5.25,11.57a3.53,3.53,0,0,0,2-.58,3.86,3.86,0,0,0,1.34-1.56,5,5,0,0,0,.48-2.21,5,5,0,0,0-.48-2.23,3.86,3.86,0,0,0-1.34-1.56,3.53,3.53,0,0,0-2-.57,3.49,3.49,0,0,0-2,.57,3.86,3.86,0,0,0-1.34,1.56,5,5,0,0,0-.48,2.23,5,5,0,0,0,.48,2.21,3.86,3.86,0,0,0,1.34,1.56A3.49,3.49,0,0,0,62.07,164.92Z"/><path class="cls-14" d="M73.47,167.52a1.51,1.51,0,0,1-1.12-.46,1.53,1.53,0,0,1-.44-1.13V155.19a1.53,1.53,0,0,1,.44-1.13,1.5,1.5,0,0,1,1.12-.45,1.48,1.48,0,0,1,1.11.45,1.54,1.54,0,0,1,.45,1.13v2.45l-.19-1.75a4,4,0,0,1,.75-1.1,4.44,4.44,0,0,1,1-.81,5.17,5.17,0,0,1,1.22-.48,5.83,5.83,0,0,1,1.3-.15,2,2,0,0,1,1.32.44,1.32,1.32,0,0,1,.53,1,1.55,1.55,0,0,1-.44,1.23,1.48,1.48,0,0,1-1,.38,2.19,2.19,0,0,1-.9-.18,2.19,2.19,0,0,0-1.87,0,2.55,2.55,0,0,0-.89.68,4,4,0,0,0-.65,1.16,5,5,0,0,0-.24,1.63v6.16a1.54,1.54,0,0,1-.45,1.13A1.48,1.48,0,0,1,73.47,167.52Z"/><path class="cls-14" d="M93.67,153.35a1.49,1.49,0,0,1,1.12.44,1.51,1.51,0,0,1,.44,1.14v11a1.53,1.53,0,0,1-.44,1.13,1.51,1.51,0,0,1-1.12.46,1.48,1.48,0,0,1-1.11-.46,1.54,1.54,0,0,1-.45-1.13v-1.28l.58.24a1.52,1.52,0,0,1-.37.82,4.76,4.76,0,0,1-1,.95,6.12,6.12,0,0,1-1.46.79,5.05,5.05,0,0,1-1.84.33,5.92,5.92,0,0,1-3.25-.93,6.4,6.4,0,0,1-2.3-2.55,8.75,8.75,0,0,1,0-7.48,6.42,6.42,0,0,1,2.28-2.55,5.68,5.68,0,0,1,3.17-.92,6,6,0,0,1,3.68,1.19,5,5,0,0,1,1.06,1.05,1.72,1.72,0,0,1,.38.9l-.94.34v-1.9a1.54,1.54,0,0,1,.45-1.13A1.48,1.48,0,0,1,93.67,153.35Zm-5.25,11.57a3.53,3.53,0,0,0,2-.58,3.78,3.78,0,0,0,1.34-1.56,5,5,0,0,0,.48-2.21,5,5,0,0,0-.48-2.23,3.78,3.78,0,0,0-1.34-1.56,3.53,3.53,0,0,0-2-.57,3.48,3.48,0,0,0-2,.57,3.78,3.78,0,0,0-1.34,1.56,5,5,0,0,0-.48,2.23,5,5,0,0,0,.48,2.21,3.78,3.78,0,0,0,1.34,1.56A3.48,3.48,0,0,0,88.42,164.92Z"/><path class="cls-14" d="M105.7,153.35a4.54,4.54,0,0,1,2.92.8A4.07,4.07,0,0,1,110,156.3a11,11,0,0,1,.38,3v6.66a1.57,1.57,0,0,1-.44,1.13,1.52,1.52,0,0,1-1.12.46,1.51,1.51,0,0,1-1.12-.46,1.57,1.57,0,0,1-.44-1.13v-6.66a5.25,5.25,0,0,0-.22-1.54,2.14,2.14,0,0,0-.8-1.11,2.71,2.71,0,0,0-1.63-.41,3.42,3.42,0,0,0-1.76.41,2.83,2.83,0,0,0-1.09,1.11,3.17,3.17,0,0,0-.38,1.54v6.66a1.53,1.53,0,0,1-.44,1.13,1.51,1.51,0,0,1-1.12.46,1.52,1.52,0,0,1-1.12-.46,1.57,1.57,0,0,1-.44-1.13V155.19a1.57,1.57,0,0,1,.44-1.13,1.52,1.52,0,0,1,1.12-.45,1.5,1.5,0,0,1,1.12.45,1.53,1.53,0,0,1,.44,1.13v1.12l-.39-.08a5.35,5.35,0,0,1,.68-.95,6.39,6.39,0,0,1,1-.95,5.41,5.41,0,0,1,1.35-.71A4.82,4.82,0,0,1,105.7,153.35Z"/><path class="cls-14" d="M116.68,167.78a5.43,5.43,0,0,1-.57,2.56,4.27,4.27,0,0,1-1.53,1.67,4,4,0,0,1-2.16.6,1.35,1.35,0,0,1-1-.43,1.44,1.44,0,0,1-.41-1v-.28a1.16,1.16,0,0,1,.38-.91,2.49,2.49,0,0,1,1-.52,1.63,1.63,0,0,0,.88-.59,2,2,0,0,0,.33-.89,9.61,9.61,0,0,0,.06-1.1V155.19a1.57,1.57,0,0,1,.44-1.13,1.52,1.52,0,0,1,1.12-.45,1.5,1.5,0,0,1,1.12.45,1.53,1.53,0,0,1,.44,1.13Zm-1.61-15.86a2.09,2.09,0,0,1-1.25-.29,1.24,1.24,0,0,1-.36-1v-.49a1.17,1.17,0,0,1,.4-1,2.26,2.26,0,0,1,1.24-.27,2.12,2.12,0,0,1,1.27.29,1.23,1.23,0,0,1,.37,1v.49a1.15,1.15,0,0,1-.4,1A2.27,2.27,0,0,1,115.07,151.92Z"/><path class="cls-14" d="M130.64,153.35a1.49,1.49,0,0,1,1.12.44,1.54,1.54,0,0,1,.44,1.14v11a1.57,1.57,0,0,1-.44,1.13,1.51,1.51,0,0,1-1.12.46,1.52,1.52,0,0,1-1.12-.46,1.57,1.57,0,0,1-.44-1.13v-1.28l.57.24a1.49,1.49,0,0,1-.36.82,4.76,4.76,0,0,1-1,.95,6,6,0,0,1-1.47.79,5,5,0,0,1-1.83.33,5.9,5.9,0,0,1-3.25-.93,6.4,6.4,0,0,1-2.3-2.55,8.65,8.65,0,0,1,0-7.48,6.48,6.48,0,0,1,2.27-2.55,5.73,5.73,0,0,1,3.18-.92,6,6,0,0,1,3.67,1.19,5.09,5.09,0,0,1,1.07,1.05,1.72,1.72,0,0,1,.38.9l-.94.34v-1.9a1.57,1.57,0,0,1,.44-1.13A1.52,1.52,0,0,1,130.64,153.35Zm-5.25,11.57a3.53,3.53,0,0,0,2-.58,3.86,3.86,0,0,0,1.34-1.56,5,5,0,0,0,.48-2.21,5,5,0,0,0-.48-2.23,3.86,3.86,0,0,0-1.34-1.56,3.76,3.76,0,0,0-4,0,3.93,3.93,0,0,0-1.34,1.56,5,5,0,0,0-.48,2.23,5,5,0,0,0,.48,2.21,3.93,3.93,0,0,0,1.34,1.56A3.54,3.54,0,0,0,125.39,164.92Z"/></g></g></g></svg>