<svg xmlns="http://www.w3.org/2000/svg" viewBox="0 0 150 150"><defs><style>.cls-1{isolation:isolate;}.cls-2{fill:#002451;opacity:0.27;}.cls-3{fill:#fff2cc;}.cls-4{fill:#29abe2;}.cls-5,.cls-7{opacity:0.2;}.cls-5{mix-blend-mode:multiply;}.cls-6{fill:#fff;}.cls-8{fill:#000f56;}.cls-9{fill:#493532;}.cls-10{fill:#f8cd32;}.cls-11{fill:#6c5c4f;}.cls-12{fill:#1b2528;}.cls-13{fill:#3e4649;}.cls-14{fill:#8b6452;}.cls-15,.cls-16{fill:none;}.cls-15{stroke:#1e134d;stroke-linecap:round;stroke-linejoin:round;}</style></defs><title>lab02-_raton2</title><g class="cls-1"><g id="Layer_2" data-name="Layer 2"><g id="Layer_1-2" data-name="Layer 1"><rect class="cls-2" x="18.06" y="13.19" width="120.09" height="120.09" rx="36.12" ry="36.12"/><rect class="cls-3" x="14.96" y="10.09" width="120.09" height="120.09" rx="36.12" ry="36.12"/><path class="cls-4" d="M134.57,99.89H121.63A17.11,17.11,0,0,0,104.51,117v12.74A36.14,36.14,0,0,0,134.57,99.89Z"/><g class="cls-5"><rect x="116.92" y="108.39" width="1.38" height="10.82"/><polygon points="117.58 104.28 114.79 109.11 120.36 109.11 117.58 104.28"/><polygon points="117.61 123.23 120.4 118.4 114.83 118.4 117.61 123.23"/><rect x="112.2" y="113.11" width="10.82" height="1.38"/><polygon points="108.12 113.77 112.95 116.56 112.95 110.99 108.12 113.77"/><polygon points="127.07 113.74 122.24 110.95 122.24 116.53 127.07 113.74"/></g><rect class="cls-6" x="115.92" y="107.39" width="1.38" height="10.82"/><polygon class="cls-6" points="116.58 103.28 113.79 108.11 119.36 108.11 116.58 103.28"/><polygon class="cls-6" points="116.61 122.23 119.4 117.4 113.83 117.4 116.61 122.23"/><rect class="cls-6" x="111.2" y="112.11" width="10.82" height="1.38"/><polygon class="cls-6" points="107.12 112.77 111.95 115.56 111.95 109.99 107.12 112.77"/><polygon class="cls-6" points="126.07 112.74 121.24 109.95 121.24 115.53 126.07 112.74"/><g class="cls-7"><path class="cls-8" d="M52.39,106a4.27,4.27,0,0,1-3.59-2c-1.09-1.73-1-4.41,1.77-6.47a36.32,36.32,0,0,1,11.49-6.06l-.4-.06c-2.73-.47-5.79-3.66-6.38-6A4.26,4.26,0,0,1,56.72,81c2.56-2,7.68-3,11.6-3.49a40.05,40.05,0,0,1-5.62-1.32c-.49.41-1.06.91-1.72,1.49l-.74.66c-5.5,4.82-14.79,2.6-16.6,2.11l-1.09-.3a21.62,21.62,0,0,0-4.28-.92c-.28.19-.78.61-1.14.9-1.71,1.43-4.06,3.39-7.24,3.54a7,7,0,0,1-6.72-4,6.16,6.16,0,0,1,.37-6.67,5.18,5.18,0,0,1,1.11-1,.88.88,0,0,1,.05-.15c1.21-3.33,4.94-3.24,11.12-3.09,4,.12,5.06-1.89,5.23-2.29a2,2,0,0,0,.13-.61,9.38,9.38,0,0,0-4.47,0l-2,.51c-4.12,1-8.38,2.11-10.68,3.36l-.25.16a4.78,4.78,0,0,0-.78.53,7.35,7.35,0,0,1-6.66,2.4,6.43,6.43,0,0,1-2.95-1.36,5.89,5.89,0,0,1-.72-.58c-2.44-2.23-3.06-5.71-1.82-10.35,1.05-3.93,2.44-9.86,3.16-13.49a30.81,30.81,0,0,1,4.39-10.84,36.75,36.75,0,0,1-.32-6.86C18.54,24,21,20.54,25.23,19.25c3.2-1,5.88-.79,8,.52a7.11,7.11,0,0,1,3.14,4.61,13.27,13.27,0,0,1,7,.52A37.35,37.35,0,0,1,70.7,15.44c16.66.89,26.75,8.21,31.75,23,3,8.81,2.08,14,1.56,17.06a12.53,12.53,0,0,0-.23,1.71c.09.29.18.66.27,1.06.67,0,1.51.09,2.25.13,4,.22,9.42.51,13.56,1.62h0c4.53,1.21,13.21,5.16,17,12.26a15.33,15.33,0,0,1,.94,12.45c-5.12,15.09-21.08,16.26-32.64,15.82q-3.12-.12-6.47-.29c-4-.2-8.09-.4-12.22-.47h0l-2.51,0H80.87l-2.06.06H78.2l-1.93.11-.71,0-1.8.14-.78.07c-.56,0-1.11.12-1.66.19l-.83.1c-.5.06-1,.14-1.47.22l-.49.08-.44.07c-.49.08-1,.18-1.44.28l-.52.11-.34.07c-.74.17-1.47.35-2.18.55a33.63,33.63,0,0,0-7.8,3l-.42.22A6.63,6.63,0,0,1,52.39,106ZM84.92,88.89c4.11,0,8.5.15,13.3.33.92,0,1.84.06,2.75.07h2.75c13.92-.18,18.81-3.38,20.46-6a4.89,4.89,0,0,0,.61-4.53,9,9,0,0,0-5.67-4.93c-5.16-1.61-15.11-1.36-17-.84a14,14,0,0,1-7.72.14c0,6.4-6.08,10.09-9.81,12.34l-.77.46a34.37,34.37,0,0,1-6.39,3.19C79.87,89,82.34,88.89,84.92,88.89Zm-5.84-18.1c1.75,0,5,.31,6.12,3.25a5.29,5.29,0,0,1,.27.94,2.83,2.83,0,0,0,.94-2.11,10.1,10.1,0,0,0-.43-2A4,4,0,0,1,88.15,66a23.06,23.06,0,0,1,4.76-1.5,4,4,0,0,1,3.17.66,5,5,0,0,0,3.41.23,6.09,6.09,0,0,1-2.79-3.16,4.56,4.56,0,0,1-.24-.95,7.18,7.18,0,0,0-.14-.83V60.4c-.08-.36-.16-.72-.25-1a11.26,11.26,0,0,1,.05-5.17c.45-2.64,1.07-6.26-1.25-13.15C91,29.41,83.59,24.14,70.27,23.43c-12.14-.64-18.82,5.07-22.41,8.14l-.9.76a8.44,8.44,0,0,1-.83.61,4,4,0,0,1-4.36,0,5.19,5.19,0,0,0-4.13-.65c-.69.25-1,.52-1,.63a4,4,0,0,1-3,2.51l-1.16.27a4,4,0,0,1-4.82-5,18.7,18.7,0,0,0,.88-4,6,6,0,0,0-1,.23c-.58.18-1.25.38-1.49,3.17a34.92,34.92,0,0,0,.49,6.67,4,4,0,0,1-.83,3.07,21.79,21.79,0,0,0-3.85,8.85c-.76,3.77-2.2,9.91-3.28,14A10.49,10.49,0,0,0,18.28,64a11.7,11.7,0,0,1,1-.72l.35-.23c3.22-1.91,8-3.11,13.08-4.39l2-.5a18.56,18.56,0,0,1,11.49,1A4,4,0,0,1,48.74,62a12.36,12.36,0,0,1-.31,7.61,11,11,0,0,1-2.16,3.27c3.2.76,7.18.78,8.69-.55l.73-.64a27.2,27.2,0,0,1,4.41-3.44A4,4,0,0,1,63.49,68a32.32,32.32,0,0,0,9.21,2c.2,0,.39,0,.59.09a21.4,21.4,0,0,0,5,.71Z"/></g><path class="cls-6" d="M52.39,104a4.27,4.27,0,0,1-3.59-2c-1.09-1.73-1-4.41,1.77-6.47a36.32,36.32,0,0,1,11.49-6.06l-.4-.06c-2.73-.47-5.79-3.66-6.38-6A4.26,4.26,0,0,1,56.72,79c2.56-2,7.68-3,11.6-3.49a40.05,40.05,0,0,1-5.62-1.32c-.49.41-1.06.91-1.72,1.49l-.74.66c-5.5,4.82-14.79,2.6-16.6,2.11l-1.09-.3a21.62,21.62,0,0,0-4.28-.92c-.28.19-.78.61-1.14.9-1.71,1.43-4.06,3.39-7.24,3.54a7,7,0,0,1-6.72-4,6.16,6.16,0,0,1,.37-6.67,5.18,5.18,0,0,1,1.11-1,.88.88,0,0,1,.05-.15c1.21-3.33,4.94-3.24,11.12-3.09,4,.12,5.06-1.89,5.23-2.29a2,2,0,0,0,.13-.61,9.38,9.38,0,0,0-4.47,0l-2,.51c-4.12,1-8.38,2.11-10.68,3.36l-.25.16a4.78,4.78,0,0,0-.78.53,7.35,7.35,0,0,1-6.66,2.4,6.43,6.43,0,0,1-2.95-1.36,5.89,5.89,0,0,1-.72-.58c-2.44-2.23-3.06-5.71-1.82-10.35,1.05-3.93,2.44-9.86,3.16-13.49a30.81,30.81,0,0,1,4.39-10.84,36.75,36.75,0,0,1-.32-6.86C18.54,22,21,18.54,25.23,17.25c3.2-1,5.88-.79,8,.52a7.11,7.11,0,0,1,3.14,4.61,13.27,13.27,0,0,1,7,.52A37.35,37.35,0,0,1,70.7,13.44c16.66.89,26.75,8.21,31.75,23,3,8.81,2.08,14,1.56,17.06a12.53,12.53,0,0,0-.23,1.71c.09.29.18.66.27,1.06.67,0,1.51.09,2.25.13,4,.22,9.42.51,13.56,1.62h0c4.53,1.21,13.21,5.16,17,12.26a15.33,15.33,0,0,1,.94,12.45C132.69,97.86,116.73,99,105.17,98.59q-3.12-.12-6.47-.29c-4-.2-8.09-.4-12.22-.47h0l-2.51,0H80.87l-2.06.06H78.2L76.27,98l-.71,0-1.8.14-.78.07c-.56,0-1.11.12-1.66.19l-.83.1c-.5.06-1,.14-1.47.22l-.49.08-.44.07c-.49.08-1,.18-1.44.28l-.52.11-.34.07c-.74.17-1.47.35-2.18.55a33.63,33.63,0,0,0-7.8,3l-.42.22A6.63,6.63,0,0,1,52.39,104ZM84.92,86.89c4.11,0,8.5.15,13.3.33.92,0,1.84.06,2.75.07h2.75c13.92-.18,18.81-3.38,20.46-6a4.89,4.89,0,0,0,.61-4.53,9,9,0,0,0-5.67-4.93c-5.16-1.61-15.11-1.36-17-.84a14,14,0,0,1-7.72.14c0,6.4-6.08,10.09-9.81,12.34l-.77.46a34.37,34.37,0,0,1-6.39,3.19C79.87,87,82.34,86.89,84.92,86.89Zm-5.84-18.1c1.75,0,5,.31,6.12,3.25a5.29,5.29,0,0,1,.27.94,2.83,2.83,0,0,0,.94-2.11,10.1,10.1,0,0,0-.43-2A4,4,0,0,1,88.15,64a23.06,23.06,0,0,1,4.76-1.5,4,4,0,0,1,3.17.66,5,5,0,0,0,3.41.23,6.09,6.09,0,0,1-2.79-3.16,4.56,4.56,0,0,1-.24-.95,7.18,7.18,0,0,0-.14-.83V58.4c-.08-.36-.16-.72-.25-1a11.26,11.26,0,0,1,.05-5.17c.45-2.64,1.07-6.26-1.25-13.15C91,27.41,83.59,22.14,70.27,21.43c-12.14-.64-18.82,5.07-22.41,8.14l-.9.76a8.44,8.44,0,0,1-.83.61,4,4,0,0,1-4.36,0,5.19,5.19,0,0,0-4.13-.65c-.69.25-1,.52-1,.63a4,4,0,0,1-3,2.51l-1.16.27a4,4,0,0,1-4.82-5,18.7,18.7,0,0,0,.88-4,6,6,0,0,0-1,.23c-.58.18-1.25.38-1.49,3.17a34.92,34.92,0,0,0,.49,6.67,4,4,0,0,1-.83,3.07,21.79,21.79,0,0,0-3.85,8.85c-.76,3.77-2.2,9.91-3.28,14A10.49,10.49,0,0,0,18.28,62a11.7,11.7,0,0,1,1-.72l.35-.23c3.22-1.91,8-3.11,13.08-4.39l2-.5a18.56,18.56,0,0,1,11.49,1A4,4,0,0,1,48.74,60a12.36,12.36,0,0,1-.31,7.61,11,11,0,0,1-2.16,3.27c3.2.76,7.18.78,8.69-.55l.73-.64a27.2,27.2,0,0,1,4.41-3.44A4,4,0,0,1,63.49,66a32.32,32.32,0,0,0,9.21,2c.2,0,.39,0,.59.09a21.4,21.4,0,0,0,5,.71Z"/><path class="cls-9" d="M22.83,36.92a47.59,47.59,0,0,1-.77-9.18c.28-3.3,1.29-5.75,4.32-6.66S32,20.52,32.5,23.6s-2.38,10.26-2.38,10.26"/><path class="cls-10" d="M34.53,71.31c-1.21-2-1.58-1.92-2.41-2s-1.42.21-1.8,0-2.45-.13-2.83.37a1.49,1.49,0,0,0-.25,1.09s-1.17.7-1.42,1.41-1.62,2-.66,2.54,2.75,1.46,3.33,1,3.92-2.08,3.92-2.08"/><path class="cls-11" d="M118.83,61.92c-5.57-1.49-14.6-1.39-16.69-1.79a2.12,2.12,0,0,1-1.71-1.36c-.05-.38-.11-.75-.19-1.12v0h0c-.09-.49-.2-1-.32-1.38-.84-2.94,2.65-6.9-1.26-18.5S87.07,18.32,70.48,17.44c-14.9-.8-22.84,7.14-26.07,9.81s-7.56.56-15.41,3.36S18.62,42.39,17.92,45.89s-2.1,9.53-3.22,13.74-.14,5.88,1.12,6.72c0,0,1.82,1.82,4.35-.7s9-3.92,15.55-5.6a14.77,14.77,0,0,1,9.11.82,8.58,8.58,0,0,1-.09,5.22c-.77,1.84-3.27,4.89-9,4.75s-6.4,1-5.52,1.13c1.62.29,1,1.13-.52,1.27s-2.37-.44-3.07.4.14,4.21,3.09,4.07S35,74.2,36.85,73.5s4.76.28,7.84,1.12,9.56,1.68,12.91-1.26a32.05,32.05,0,0,1,4.45-3.6A36.12,36.12,0,0,0,72.41,72a26.39,26.39,0,0,0,6.06.81c4.07-.14,3.46,1.25,1.66,2.8S74.69,79.39,73,79.25s-11,.67-13.8,2.9c-.56.45,1.9,3.15,3.13,3.36,2.77.48,6.29-1,7.93-1.85,1.12-.55,1.93-.43,1.64.25a2.13,2.13,0,0,0-.13,1.83c.56,1.29,1.29,1.6,1.56.39A4.42,4.42,0,0,1,75,83.68a26.87,26.87,0,0,0,6.8-3.19c3.58-2.19,9.19-5.17,8.63-10.07a14.67,14.67,0,0,0-.59-2.78,19.51,19.51,0,0,1,4-1.23C96,68,99.23,67.67,101,67.13c2.32-.71,13.26-1,19.32.85s11.54,8.55,7.27,15.4-16.5,8.33-29.51,7.84-22.19-.62-31.18,1.19A32.43,32.43,0,0,0,53,98.76c-1.12.85-1.24,1.79.57.86a37.89,37.89,0,0,1,9-3.54c12.66-3.59,29.59-2,42.8-1.49S130.15,92.9,134,81.48,124.39,63.41,118.83,61.92Z"/><path class="cls-9" d="M33.26,41.7a26.48,26.48,0,0,0-.47-9c-.65-2.34-.09-4.86,3.46-6.17s8.69.37,10.28,3.92S49,36,46.53,38.8s-5,3.83-5.23,5.14a1.73,1.73,0,0,1-3.27,0c-.56-1.78-1.22-1.9-2-1.06S33.08,43.49,33.26,41.7Z"/><circle class="cls-12" cx="27.16" cy="50.06" r="2.51"/><ellipse class="cls-13" cx="26.41" cy="49.15" rx="1.44" ry="0.82" transform="translate(-27.02 33.07) rotate(-45)"/><path class="cls-14" d="M20.24,64c-1.45-.54-.42-2.45-1.62-3.61s-2.38-.31-3.15-.1c-.44.12-.7.17-.89-.08-.88,3.78,0,5.37,1.24,6.17,0,0,1.82,1.82,4.35-.7a8.17,8.17,0,0,1,1.56-1.14C21.29,64.33,20.75,64.16,20.24,64Z"/><path class="cls-14" d="M62.52,96.08C74.83,92.59,91.16,94,104.2,94.54c.73-.44.59-3.06-.43-3.25-1.87,0-3.77,0-5.7-.07-13-.5-22.19-.62-31.18,1.19A32.43,32.43,0,0,0,53,98.76c-1.12.85-1.24,1.79.57.86A37.89,37.89,0,0,1,62.52,96.08Z"/><path class="cls-15" d="M118.83,61.92c-5.57-1.49-14.6-1.39-16.69-1.79a2.12,2.12,0,0,1-1.71-1.36c-.05-.38-.11-.75-.19-1.12v0h0c-.09-.49-.2-1-.32-1.38-.84-2.94,2.65-6.9-1.26-18.5S87.07,18.32,70.48,17.44c-14.9-.8-22.84,7.14-26.07,9.81a4.21,4.21,0,0,1-.48.35,9.08,9.08,0,0,0-7.68-1,5.28,5.28,0,0,0-3.42,3c-.43.09-.87.19-1.32.31.65-2.17,1.23-4.71,1-6.25-.49-3.08-3.08-3.43-6.12-2.52s-4,3.36-4.32,6.66a38.26,38.26,0,0,0,.52,7.59,25.66,25.66,0,0,0-4.66,10.56c-.7,3.5-2.1,9.53-3.22,13.74s-.14,5.88,1.12,6.72c0,0,1.82,1.82,4.35-.7a8.17,8.17,0,0,1,1.56-1.14h0c3.1-1.83,8.5-3,14-4.45a14.77,14.77,0,0,1,9.11.82,8.58,8.58,0,0,1-.09,5.22c-.77,1.84-3.27,4.89-9,4.75-.54,0-1,0-1.49,0-1-1.49-1.36-1.45-2.11-1.48s-1.42.21-1.8,0-2.45-.13-2.83.37a1.49,1.49,0,0,0-.25,1.09s-1.17.7-1.42,1.41-1.62,2-.66,2.54c.37.2.88.46,1.38.69a3.1,3.1,0,0,0,3.16,2.26c2.94-.14,5.32-3.51,7.15-4.21s4.76.28,7.84,1.12,9.56,1.68,12.91-1.26a32.05,32.05,0,0,1,4.45-3.6A36.12,36.12,0,0,0,72.41,72a26.39,26.39,0,0,0,6.06.81c4.07-.14,3.46,1.25,1.66,2.8S74.69,79.39,73,79.25s-11,.67-13.8,2.9c-.56.45,1.9,3.15,3.13,3.36,2.77.48,6.29-1,7.93-1.85,1.12-.55,1.93-.43,1.64.25a2.13,2.13,0,0,0-.13,1.83c.56,1.29,1.29,1.6,1.56.39A4.42,4.42,0,0,1,75,83.68a26.87,26.87,0,0,0,6.8-3.19c3.58-2.19,9.19-5.17,8.63-10.07a14.67,14.67,0,0,0-.59-2.78,19.51,19.51,0,0,1,4-1.23C96,68,99.23,67.67,101,67.13c2.32-.71,13.26-1,19.32.85s11.54,8.55,7.27,15.4c-3.64,5.83-13.06,7.77-23.81,7.91h-2.85c-.94,0-1.89,0-2.85-.07-13-.5-22.19-.62-31.18,1.19A32.43,32.43,0,0,0,53,98.76c-1.12.85-1.24,1.79.57.86a37.89,37.89,0,0,1,9-3.54c.78-.22,1.58-.42,2.39-.6l.76-.16c.57-.12,1.14-.24,1.72-.34l.85-.13c.57-.1,1.14-.19,1.72-.27l.85-.1,1.78-.2.81-.07,1.89-.16L76,94l2-.1.63,0q1.08,0,2.16-.06h.49c.78,0,1.56,0,2.34,0H84l2.56,0h0c6.53.12,13,.55,18.79.76,13.21.5,24.83-1.69,28.7-13.11S124.39,63.41,118.83,61.92Z"/><rect class="cls-16" width="150" height="150"/></g></g></g></svg>