<svg xmlns="http://www.w3.org/2000/svg" xmlns:xlink="http://www.w3.org/1999/xlink" viewBox="0 0 123.19 143.61"><defs><style>.cls-1,.cls-21{fill:none;}.cls-2{isolation:isolate;}.cls-3{fill:#002451;opacity:0.27;}.cls-4{fill:#fff2cc;}.cls-5{fill:#29abe2;}.cls-6{opacity:0.2;mix-blend-mode:multiply;}.cls-7{fill:#fff;}.cls-8{fill:#001156;}.cls-9{clip-path:url(#clip-path);}.cls-10{fill:#9c8272;}.cls-11{fill:#806a5d;}.cls-12{fill:#b77a7f;}.cls-13{fill:#f1d5ab;}.cls-14{fill:#e4c1b7;}.cls-15{fill:#34331b;}.cls-16{fill:#8e685f;}.cls-17{fill:#a76f73;}.cls-18{fill:#1e134d;}.cls-19{fill:#e4e1de;}.cls-20{fill:#dad7d3;}.cls-21{stroke:#1e134d;stroke-linecap:round;stroke-linejoin:round;stroke-width:1.31px;}</style><clipPath id="clip-path"><path class="cls-1" d="M96.27,29.74C103.42,18.09,77.49,4.48,55.08,4.48,24.46,4.48,20,57.74,20,30c0-10-1.11,20.67,3,12.83a4.08,4.08,0,0,0,4.18,2.27l2.63,4.63L26.48,61.27l4.16,7.09,5.7-.46-5.16-.24L27.7,60.92,31,52l2.13-1.84L35.29,48l9.42,6.33,9.6-1.88,1,2.11-2.67,6,2.42,6.93-1.51-7.2L58,55.07l15,.53L78.38,51l4.85,1,2.66-4.41s5-2.52,5.83-3.74C91,42.34,96.27,29.33,96.27,29.74Z"/></clipPath></defs><title>37</title><g class="cls-2"><g id="Capa_2" data-name="Capa 2"><g id="Layer_1" data-name="Layer 1"><rect class="cls-3" x="3.1" y="23.52" width="120.09" height="120.09" rx="36.12"/><rect class="cls-4" y="20.42" width="120.09" height="120.09" rx="36.12"/><path class="cls-5" d="M119.61,110.21H106.68a17.13,17.13,0,0,0-17.13,17.13v12.73A36.13,36.13,0,0,0,119.61,110.21Z"/><g class="cls-6"><rect x="101.97" y="118.71" width="1.38" height="10.82"/><polygon points="102.62 114.61 99.83 119.44 105.41 119.44 102.62 114.61"/><polygon points="102.66 133.56 105.44 128.73 99.87 128.73 102.66 133.56"/><rect x="97.25" y="123.43" width="10.82" height="1.38"/><polygon points="93.17 124.1 97.99 126.89 97.99 121.31 93.17 124.1"/><polygon points="112.11 124.07 107.29 121.28 107.29 126.85 112.11 124.07"/></g><rect class="cls-7" x="100.97" y="117.71" width="1.38" height="10.82"/><polygon class="cls-7" points="101.62 113.61 98.83 118.44 104.41 118.44 101.62 113.61"/><polygon class="cls-7" points="101.66 132.56 104.44 127.73 98.87 127.73 101.66 132.56"/><rect class="cls-7" x="96.25" y="122.43" width="10.82" height="1.38"/><polygon class="cls-7" points="92.17 123.1 96.99 125.89 96.99 120.31 92.17 123.1"/><polygon class="cls-7" points="111.11 123.07 106.29 120.28 106.29 125.85 111.11 123.07"/><g class="cls-6"><path class="cls-8" d="M57.42,8a35.07,35.07,0,0,1,11.35,2.31l.38,1.07a23.28,23.28,0,0,1,12.39,14,20.31,20.31,0,0,1,2.95,1.83c4.45,3.29,7.46,6.15,8.24,8.37.31.86-.16,1.2-.73,1.2a1.81,1.81,0,0,1-.51-.08c-1,.34-3.53,2.35-7.22,2.49s-3.64,1.11-3.64,1.11l0-.12a21.17,21.17,0,0,1-2.29,3.71l7.75,3.69,5.66-1.74a59,59,0,0,1,6,26.21c0,27.71-18.17,50.18-40.58,50.18S16.53,99.77,16.53,72.06c0-.55,0-1.11,0-1.67,0-.11,0-.23,0-.34A54.88,54.88,0,0,1,19,54.84v0a56.3,56.3,0,0,1,4-10L27.65,46c.93-2.23,8.14-11.8,8-14.25a22.4,22.4,0,0,1,1.35-10l-.35-.65-2.12-.79c0-.07.1-.15.16-.22l.06-.08.12-.16.08-.1.12-.15.1-.12.13-.15.11-.12.15-.16.12-.13.16-.17.13-.13c.06-.06.11-.12.17-.17l.14-.15.18-.17.16-.15.18-.18.17-.15.2-.18.17-.16.21-.19.19-.16.22-.19.19-.16.23-.2.2-.16.24-.2.21-.17.26-.2.21-.16.07-.06h0A44.29,44.29,0,0,1,49.59,9.53,20.39,20.39,0,0,1,57.42,8m0-6h0a26.53,26.53,0,0,0-10.1,2A50.56,50.56,0,0,0,35.9,10.65l-.12.08-.24.19-.29.24-.24.19-.27.22-.23.19-.27.22-.22.19-.26.22-.21.19-.25.22-.21.19-.23.21-.2.18-.22.22-.19.18L32,14l-.18.18-.21.21-.17.17-.19.21-.17.18-.18.2,4.41,4.06-4.45-4-.13.15-.19.21-.14.17-.18.22-.13.16c-.08.11-.15.19-.21.28l-.1.13c-.12.16-.22.3-.31.44A6,6,0,0,0,30,24.26a30,30,0,0,0-.45,7,77.57,77.57,0,0,1-4.22,7c-.2.31-.39.59-.56.87L24.41,39A5.67,5.67,0,0,0,23,38.86a6,6,0,0,0-5.31,3.22,61.49,61.49,0,0,0-4.38,10.8,60.73,60.73,0,0,0-2.75,17v.38c0,.61,0,1.22,0,1.82,0,14.77,4.69,28.71,13.22,39.26,8.82,10.91,20.67,16.92,33.36,16.92s24.53-6,33.36-16.92c8.52-10.55,13.22-24.49,13.22-39.26a65.2,65.2,0,0,0-6.6-28.88A5.86,5.86,0,0,0,96,41.6,6.63,6.63,0,0,0,97.61,40a6.9,6.9,0,0,0,.78-6.36c-1.19-3.39-4.28-6.74-10.34-11.21-.53-.39-1.08-.77-1.62-1.11A29.25,29.25,0,0,0,73.8,7a6,6,0,0,0-3.1-2.4A40.6,40.6,0,0,0,57.42,2Z"/></g><path class="cls-7" d="M57.42,6A35.07,35.07,0,0,1,68.77,8.31l.38,1.07a23.28,23.28,0,0,1,12.39,14,20.31,20.31,0,0,1,2.95,1.83c4.45,3.29,7.46,6.15,8.24,8.37.31.86-.16,1.2-.73,1.2a1.81,1.81,0,0,1-.51-.08c-1,.34-3.53,2.35-7.22,2.49s-3.64,1.11-3.64,1.11l0-.12a21.17,21.17,0,0,1-2.29,3.71l7.75,3.69,5.66-1.74a59,59,0,0,1,6,26.21c0,27.71-18.17,50.18-40.58,50.18S16.53,97.77,16.53,70.06c0-.55,0-1.11,0-1.67,0-.11,0-.23,0-.34A54.88,54.88,0,0,1,19,52.84v0a56.3,56.3,0,0,1,4-10L27.65,44c.93-2.23,8.14-11.8,8-14.25a22.4,22.4,0,0,1,1.35-10l-.35-.65-2.12-.79c0-.07.1-.15.16-.22l.06-.08.12-.16.08-.1.12-.15.1-.12.13-.15.11-.12.15-.16.12-.13.16-.17.13-.13c.06-.06.11-.12.17-.17l.14-.15.18-.17.16-.15.18-.18.17-.15.2-.18.17-.16.21-.19.19-.16.22-.19.19-.16.23-.2.2-.16.24-.2.21-.17.26-.2.21-.16.07-.06h0A44.29,44.29,0,0,1,49.59,7.53,20.39,20.39,0,0,1,57.42,6m0-6h0a26.53,26.53,0,0,0-10.1,2A50.56,50.56,0,0,0,35.9,8.65l-.12.08-.24.19-.29.24L35,9.35l-.27.22-.23.19-.27.22-.22.19-.26.22-.21.19-.25.22-.21.19-.23.21-.2.18-.22.22-.19.18L32,12l-.18.18-.21.21-.17.17-.19.21-.17.18-.18.2,4.41,4.06-4.45-4-.13.15-.19.21-.14.17-.18.22-.13.16c-.08.11-.15.19-.21.28l-.1.13c-.12.16-.22.3-.31.44A6,6,0,0,0,30,22.26a30,30,0,0,0-.45,7,77.57,77.57,0,0,1-4.22,7c-.2.31-.39.59-.56.87L24.41,37A5.67,5.67,0,0,0,23,36.86a6,6,0,0,0-5.31,3.22,61.49,61.49,0,0,0-4.38,10.8,60.73,60.73,0,0,0-2.75,17v.38c0,.61,0,1.22,0,1.82,0,14.77,4.69,28.71,13.22,39.26,8.82,10.91,20.67,16.92,33.36,16.92s24.53-6,33.36-16.92C99,98.77,103.69,84.83,103.69,70.06a65.2,65.2,0,0,0-6.6-28.88A5.86,5.86,0,0,0,96,39.6,6.63,6.63,0,0,0,97.61,38a6.9,6.9,0,0,0,.78-6.36c-1.19-3.39-4.28-6.74-10.34-11.21-.53-.39-1.08-.77-1.62-1.11A29.25,29.25,0,0,0,73.8,5a6,6,0,0,0-3.1-2.4A40.6,40.6,0,0,0,57.42,0Z"/><g class="cls-9"><polyline class="cls-10" points="34.49 18.27 36.61 19.06 38.04 21.69 70.03 11.87 68.77 8.31 50.47 7.82"/><path class="cls-11" d="M97.69,70.06c0,27.71-18.17,50.18-40.58,50.18S16.53,97.77,16.53,70.06A58.9,58.9,0,0,1,23,42.86l6.33,1.53,7.28-3.68,4.18-1.56,7.72,4.62,5.39-2,1.54-3.26,6.82,3.72L69.88,40H74.4l11.66,5.55,5.66-1.74A59,59,0,0,1,97.69,70.06Z"/><path class="cls-12" d="M81.38,49.76c-4.26-2-4.74-3.53-4.42-6.26a20.07,20.07,0,0,0,5.57-13.76c0-11.75-10-22.4-23-22.51C45,7.1,34.5,15.14,35.61,29.74,35.79,32.19,26,46.66,25,47.4S23.67,69.68,31,72.54s24.25,8.1,38.64,4S85.46,65.46,87.91,60.22,86.4,52.11,81.38,49.76Z"/><path class="cls-13" d="M80.63,38.31s.05-1,3.64-1.11,6.19-2.15,7.22-2.49c.73.24,1.64,0,1.24-1.12-.78-2.22-3.79-5.08-8.24-8.37-2.36-1.74-4.91-2.94-5.89-2.49s-.21,1.93.66,3.93c1.39,3.22.13,4.84-2,4.84-5.17,0-6.41,4.84,1.78,4.81C80,36.31,80.46,37.59,80.63,38.31Z"/><path class="cls-14" d="M65,26.9c-.62,2.37-4,4.33-7,3.58-3.46-.89-4-4.76-3.76-6.5.46-1.61,3-4.55,6.15-4.1C64.31,20.44,65.14,24,65,26.9Z"/><path class="cls-15" d="M62.58,26.12c-1.17,1.85-2.44,2.14-4,1.79a3.05,3.05,0,0,1-2.09-3.41,3.29,3.29,0,0,1,3.16-2.26C61.7,22.35,62.74,24.15,62.58,26.12Z"/><path class="cls-16" d="M76,14.22c1.9,2.46-.91,4-3.4,3.59s-4.28-2.39-6.8-3.59-11.91-2-16.49-.1-8-2.19-5.71-3.52S51.51,4.7,58.68,6,72.68,10,76,14.22Z"/><path class="cls-17" d="M48.85,34.09a2,2,0,0,0,1.25,2.19c.48.17,1,.15,1.49.33s.89.72.67,1.18c1.16.55,2.51-1,3.71-.54a2.79,2.79,0,0,0,.8.34,1.27,1.27,0,0,0,.84-.37l2-1.52A3.34,3.34,0,0,1,60.76,35a1.13,1.13,0,0,1,1.23.4c.16.25.19.6.41.8.39.36,1,0,1.41-.34L67,33.17c-.86,3-3.78,5.56-6.36,7.15a5.86,5.86,0,0,0,.43-3.6,25.25,25.25,0,0,1-7.85,6.14,10,10,0,0,0,1.08-3.13,9.28,9.28,0,0,1-7.1.91,9.93,9.93,0,0,0,2.89-3.06,7.83,7.83,0,0,1-3-1.22,2.85,2.85,0,0,0,1.66-2.14"/><path class="cls-18" d="M66.41,33c-.92,3-3.52,5.2-6.09,6.81l.86.66a6.67,6.67,0,0,0,.44-3.91.6.6,0,0,0-1-.26,25.41,25.41,0,0,1-7.73,6l.81.81a11.56,11.56,0,0,0,1.14-3.27.6.6,0,0,0-.87-.67,8.84,8.84,0,0,1-6.64.85l.14,1.07a11.3,11.3,0,0,0,3.09-3.26.58.58,0,0,0-.35-.86,8.18,8.18,0,0,1-2.81-1.17c-.63-.42-1.22.6-.59,1a8.68,8.68,0,0,0,3.09,1.29l-.35-.86a10,10,0,0,1-2.67,2.84A.59.59,0,0,0,47,41.2a10,10,0,0,0,7.54-1l-.86-.67a10.18,10.18,0,0,1-1,3,.6.6,0,0,0,.81.81,26.4,26.4,0,0,0,8-6.23l-1-.26a5.75,5.75,0,0,1-.43,3.29.59.59,0,0,0,.86.66c2.84-1.78,5.62-4.21,6.64-7.51.22-.72-.91-1-1.14-.31Z"/><path class="cls-19" d="M68.77,8.31c-5.19-1.76-11.89-3.76-19.18-.78S36,16,34.49,18.27l3-1-.24,4.09,2.07-2.27,2.64,3.12,4-1.38,1.71-5.17-.7,4.82,0,1.45s8.36.1,8.54-.06A24.94,24.94,0,0,0,56.16,19l1-1.12,4.25,2.1,1-1.39L63.29,13,67,12.26,65.32,9.85Z"/><path class="cls-20" d="M51.63,14.75c-4.06.61-10.89,1.3-12.1-1.33a25.31,25.31,0,0,0-5,4.85l3-1-.24,4.09,2.07-2.27,2.64,3.12,4-1.38,1.71-5.17-.7,4.82,0,1.45s8.36.1,8.54-.06A24.94,24.94,0,0,0,56.16,19l1-1.12,4.25,2.1,1-1.39L63.29,13,67,12.26l-1.17-1.73S63.83,12.92,51.63,14.75Z"/></g><path class="cls-19" d="M97.69,70.06c0,27.71-18.17,50.18-40.58,50.18S16.53,97.77,16.53,70.06A58.9,58.9,0,0,1,23,42.86a4.08,4.08,0,0,0,4.18,2.27l2.63,4.63L26.48,61.27l4.16,7.09,5.7-.46-5.16-.24L27.7,60.92,31,52l2.13-1.84L35.29,48l9.42,6.33,9.6-1.88,1,2.11-2.67,6,2.42,6.93-1.51-7.2L58,55.07l6.83-1L73,55.6,78.38,51l4.85,1,2.66-4.41s5-2.52,5.83-3.74A59,59,0,0,1,97.69,70.06Z"/><path class="cls-20" d="M19,52.84c-1.55,4.4-2.45,11.17-2.45,17.22,0,27.71,18.17,50.18,40.58,50.18S97.69,97.77,97.69,70.06c0,0-5.29,19.85-22.19,28.9-12.38,6.63-31,1.91-41.17-8.38C28.36,84.5,21.93,73,19,52.84Z"/><path class="cls-21" d="M91.72,43.85l-5.66,1.74L78.31,41.9a21.17,21.17,0,0,0,2.29-3.71l0,.12s.05-1,3.64-1.11,6.19-2.15,7.22-2.49c.73.24,1.64,0,1.24-1.12-.78-2.22-3.79-5.08-8.24-8.37a20.31,20.31,0,0,0-2.95-1.83,23.28,23.28,0,0,0-12.39-14l-.38-1.07c-5.19-1.76-11.89-3.76-19.18-.78a44.29,44.29,0,0,0-10.06,5.89h0l-.07.06-.21.16-.26.2-.21.17-.24.2-.2.16-.23.2-.19.16-.22.19-.19.16-.21.19-.17.16-.2.18-.17.15-.18.18-.16.15-.18.17-.14.15c-.06.05-.11.11-.17.17l-.13.13-.16.17-.12.13-.15.16-.11.12-.13.15-.1.12-.12.15-.08.1-.12.16-.06.08c-.06.07-.11.15-.16.22l2.12.79.35.65a22.4,22.4,0,0,0-1.35,10c.18,2.45-7,12-8,14.25L23,42.86a56.3,56.3,0,0,0-4,10v0a54.88,54.88,0,0,0-2.42,15.21c0,.11,0,.23,0,.34,0,.56,0,1.12,0,1.67,0,27.71,18.17,50.18,40.58,50.18S97.69,97.77,97.69,70.06A59,59,0,0,0,91.72,43.85Z"/></g></g></g></svg>