<svg xmlns="http://www.w3.org/2000/svg" xmlns:xlink="http://www.w3.org/1999/xlink" viewBox="0 0 150 150"><defs><style>.cls-1,.cls-20{fill:none;}.cls-2{isolation:isolate;}.cls-3{fill:#002451;opacity:0.27;}.cls-4{fill:#fff2cc;}.cls-5{fill:#29abe2;}.cls-6{opacity:0.2;mix-blend-mode:multiply;}.cls-7{fill:#fff;}.cls-8{fill:#001156;}.cls-9{clip-path:url(#clip-path);}.cls-10{fill:#9c8272;}.cls-11{fill:#b77a7f;}.cls-12{fill:#f1d5ab;}.cls-13{fill:#e4c1b7;}.cls-14{fill:#34331b;}.cls-15{fill:#7b6b65;}.cls-16{fill:#a76f73;}.cls-17{fill:#1e134d;}.cls-18{fill:#e4e1de;}.cls-19{fill:#dad7d3;}.cls-20{stroke:#1e134d;stroke-linecap:round;stroke-linejoin:round;stroke-width:1.31px;}</style><clipPath id="clip-path"><path class="cls-1" d="M109.67,32.94C116.83,21.29,90.9,7.68,68.49,7.68c-30.62,0-35.06,53.26-35.06,25.54,0-10-1.12,20.67,3,12.84a4.07,4.07,0,0,0,4.17,2.27L43.21,53,39.88,64.47l4.17,7.09,5.69-.46-5.15-.24-3.48-6.74,3.31-8.9,2.13-1.84,2.14-2.17,9.43,6.32,9.6-1.87,1,2.11-2.68,6,2.42,6.94L67,63.55l4.49-5.28,15,.53,5.37-4.59,4.85,1,2.65-4.41s5-2.52,5.83-3.74C104.38,45.54,109.67,32.53,109.67,32.94Z"/></clipPath></defs><title>lab02-</title><g class="cls-2"><g id="Layer_1" data-name="Layer 1"><rect class="cls-3" x="16.51" y="26.72" width="120.09" height="120.09" rx="36.12" ry="36.12"/><rect class="cls-4" x="13.41" y="23.61" width="120.09" height="120.09" rx="36.12" ry="36.12"/><path class="cls-5" d="M133,113.41H120.08A17.12,17.12,0,0,0,103,130.53v12.74A36.15,36.15,0,0,0,133,113.41Z"/><g class="cls-6"><rect x="115.37" y="121.91" width="1.38" height="10.82"/><polygon points="116.03 117.81 113.24 122.63 118.81 122.63 116.03 117.81"/><polygon points="116.06 136.75 118.85 131.93 113.27 131.93 116.06 136.75"/><rect x="110.65" y="126.63" width="10.82" height="1.38"/><polygon points="106.57 127.3 111.4 130.08 111.4 124.51 106.57 127.3"/><polygon points="125.52 127.26 120.69 124.48 120.69 130.05 125.52 127.26"/></g><rect class="cls-7" x="114.37" y="120.91" width="1.38" height="10.82"/><polygon class="cls-7" points="115.03 116.81 112.24 121.63 117.81 121.63 115.03 116.81"/><polygon class="cls-7" points="115.06 135.75 117.85 130.93 112.27 130.93 115.06 135.75"/><rect class="cls-7" x="109.65" y="125.63" width="10.82" height="1.38"/><polygon class="cls-7" points="105.57 126.3 110.4 129.08 110.4 123.51 105.57 126.3"/><polygon class="cls-7" points="124.52 126.26 119.69 123.48 119.69 129.05 124.52 126.26"/><g class="cls-6"><path class="cls-8" d="M70.83,11.2a35.18,35.18,0,0,1,11.35,2.31l.38,1.07A23.31,23.31,0,0,1,95,28.59a20.86,20.86,0,0,1,3,1.83c4.44,3.28,7.45,6.14,8.24,8.37.3.86-.17,1.2-.73,1.2a1.48,1.48,0,0,1-.51-.09c-1,.34-3.54,2.36-7.22,2.5S94,43.51,94,43.51a.27.27,0,0,0,0-.12,20.54,20.54,0,0,1-2.28,3.71l7.75,3.69,5.65-1.74a59,59,0,0,1,6,26.21c0,27.71-18.16,50.18-40.58,50.18S29.93,103,29.93,75.26c0-.55,0-1.11,0-1.67,0-.11,0-.23,0-.34A54.38,54.38,0,0,1,32.39,58v0a54.83,54.83,0,0,1,4-10l4.65,1.12C42,47,49.2,37.39,49,34.94a22.39,22.39,0,0,1,1.36-10L50,24.25l-2.12-.78.15-.23.06-.08.12-.15.08-.1a1,1,0,0,0,.13-.16l.1-.11.13-.15.11-.13.14-.16a1.59,1.59,0,0,0,.13-.13l.15-.16.14-.14.16-.17.15-.14.17-.17.16-.15.19-.18.16-.15a1.8,1.8,0,0,0,.2-.19l.18-.15.21-.19.18-.16.22-.19.2-.17.23-.19.2-.16.24-.2L52.4,19l.25-.2.21-.17.07-.05h0A44.31,44.31,0,0,1,63,12.72a20.52,20.52,0,0,1,7.83-1.52m0-6h0a26.53,26.53,0,0,0-10.1,2A50.31,50.31,0,0,0,49.3,13.84l-.14.11-.15.12-.06,0-.3.24-.24.19-.27.22-.17.14,0,0-.28.23-.23.2-.24.21-.21.18-.25.22-.21.19-.24.22-.2.18-.22.21-.19.18-.22.22-.18.18-.17.17,0,.05,0,0-.12.12-.18.19-.19.2-.19.21-.16.18-.17.2-.15.17-.18.22-.15.19-.21.27-.08.12-.32.44a6,6,0,0,0,.52,7.32,30,30,0,0,0-.45,7,77.35,77.35,0,0,1-4.21,7l-.57.87-.37-.09a5.67,5.67,0,0,0-1.41-.17,6,6,0,0,0-5.32,3.22,61.46,61.46,0,0,0-4.37,10.8,60.36,60.36,0,0,0-2.75,17v.38c0,.61,0,1.22,0,1.82,0,14.77,4.7,28.71,13.22,39.25,8.83,10.92,20.68,16.93,33.36,16.93s24.54-6,33.36-16.93C112.4,104,117.09,90,117.09,75.26a65.3,65.3,0,0,0-6.59-28.88,6.31,6.31,0,0,0-1.14-1.59A6.55,6.55,0,0,0,111,43.16a6.9,6.9,0,0,0,.79-6.36c-1.2-3.39-4.29-6.74-10.34-11.21-.54-.39-1.08-.77-1.63-1.12A29.29,29.29,0,0,0,87.2,10.22a6.05,6.05,0,0,0-3.09-2.4A40.66,40.66,0,0,0,70.83,5.2Z"/></g><path class="cls-7" d="M70.83,9.2a35.18,35.18,0,0,1,11.35,2.31l.38,1.07A23.31,23.31,0,0,1,95,26.59a20.86,20.86,0,0,1,3,1.83c4.44,3.28,7.45,6.14,8.24,8.37.3.86-.17,1.2-.73,1.2a1.48,1.48,0,0,1-.51-.09c-1,.34-3.54,2.36-7.22,2.5S94,41.51,94,41.51a.27.27,0,0,0,0-.12,20.54,20.54,0,0,1-2.28,3.71l7.75,3.69,5.65-1.74a59,59,0,0,1,6,26.21c0,27.71-18.16,50.18-40.58,50.18S29.93,101,29.93,73.26c0-.55,0-1.11,0-1.67,0-.11,0-.23,0-.34A54.38,54.38,0,0,1,32.39,56v0a54.83,54.83,0,0,1,4-10l4.65,1.12C42,45,49.2,35.39,49,32.94a22.39,22.39,0,0,1,1.36-10L50,22.25l-2.12-.78.15-.23.06-.08.12-.15.08-.1a1,1,0,0,0,.13-.16l.1-.11.13-.15.11-.13.14-.16a1.59,1.59,0,0,0,.13-.13l.15-.16.14-.14.16-.17.15-.14.17-.17.16-.15.19-.18.16-.15a1.8,1.8,0,0,0,.2-.19l.18-.15.21-.19.18-.16.22-.19.2-.17.23-.19.2-.16.24-.2L52.4,17l.25-.2.21-.17.07-.05h0A44.31,44.31,0,0,1,63,10.72,20.52,20.52,0,0,1,70.83,9.2m0-6h0a26.53,26.53,0,0,0-10.1,2A50.31,50.31,0,0,0,49.3,11.84l-.14.11-.15.12-.06,0-.3.24-.24.19-.27.22-.17.14,0,0-.28.23-.23.2-.24.21-.21.18-.25.22-.21.19-.24.22-.2.18-.22.21-.19.18-.22.22-.18.18-.17.17,0,.05,0,0-.12.12-.18.19-.19.2-.19.21-.16.18-.17.2-.15.17-.18.22-.15.19-.21.27-.08.12-.32.44a6,6,0,0,0,.52,7.32,30,30,0,0,0-.45,7,77.35,77.35,0,0,1-4.21,7l-.57.87-.37-.09a5.67,5.67,0,0,0-1.41-.17,6,6,0,0,0-5.32,3.22,61.46,61.46,0,0,0-4.37,10.8,60.36,60.36,0,0,0-2.75,17v.38c0,.61,0,1.22,0,1.82,0,14.77,4.7,28.71,13.22,39.25,8.83,10.92,20.68,16.93,33.36,16.93s24.54-6,33.36-16.93C112.4,102,117.09,88,117.09,73.26a65.3,65.3,0,0,0-6.59-28.88,6.31,6.31,0,0,0-1.14-1.59A6.55,6.55,0,0,0,111,41.16a6.9,6.9,0,0,0,.79-6.36c-1.2-3.39-4.29-6.74-10.34-11.21-.54-.39-1.08-.77-1.63-1.12A29.29,29.29,0,0,0,87.2,8.22a6.05,6.05,0,0,0-3.09-2.4A40.66,40.66,0,0,0,70.83,3.2Z"/><g class="cls-9"><polyline class="cls-10" points="47.9 21.46 50.02 22.25 51.44 24.89 83.44 15.07 82.18 11.51 63.87 11.02"/><path class="cls-10" d="M111.09,73.26c0,27.71-18.16,50.18-40.58,50.18S29.93,101,29.93,73.26a58.72,58.72,0,0,1,6.48-27.2l6.32,1.53L50,43.91l4.17-1.56L61.91,47l5.4-2,1.54-3.26,6.82,3.72,7.61-2.19H87.8l11.67,5.55,5.65-1.74A59,59,0,0,1,111.09,73.26Z"/><path class="cls-11" d="M94.79,53c-4.26-2-4.74-3.52-4.42-6.26a20,20,0,0,0,5.56-13.75c0-11.75-10-22.4-23-22.51-14.6-.14-25.07,7.91-24,22.51.19,2.45-9.57,16.92-10.62,17.66s-1.32,22.28,6,25.14,24.26,8.09,38.65,4,15.77-11.13,18.22-16.36S99.81,55.31,94.79,53Z"/><path class="cls-12" d="M94,41.51s0-1,3.65-1.11,6.19-2.16,7.22-2.5c.73.25,1.63,0,1.24-1.11-.79-2.23-3.8-5.09-8.24-8.37-2.36-1.74-4.91-3-5.89-2.49s-.21,1.93.65,3.93c1.39,3.22.14,4.84-2,4.84-5.17,0-6.41,4.84,1.78,4.81C93.44,39.51,93.86,40.79,94,41.51Z"/><path class="cls-13" d="M78.43,30.1c-.62,2.36-4.05,4.33-7,3.58-3.46-.89-4-4.77-3.75-6.5.46-1.62,3-4.55,6.15-4.1C77.71,23.63,78.55,27.2,78.43,30.1Z"/><path class="cls-14" d="M76,29.32c-1.17,1.84-2.45,2.14-4,1.79a3.07,3.07,0,0,1-2.1-3.41,3.28,3.28,0,0,1,3.17-2.26C75.11,25.55,76.15,27.35,76,29.32Z"/><path class="cls-15" d="M89.41,17.42c1.91,2.46-.9,4-3.39,3.59s-4.28-2.4-6.8-3.59-11.91-2-16.49-.1-8-2.19-5.71-3.52,7.89-5.9,15.07-4.57S86.09,13.15,89.41,17.42Z"/><path class="cls-16" d="M62.25,37.29a2,2,0,0,0,1.26,2.18c.48.18,1,.16,1.48.34s.89.72.67,1.18c1.17.55,2.52-1,3.71-.55.28.11.51.33.81.35a1.34,1.34,0,0,0,.84-.37l2-1.53a3.29,3.29,0,0,1,1.19-.68,1.14,1.14,0,0,1,1.23.4c.16.25.18.59.4.8.4.36,1,0,1.42-.34l3.17-2.71c-.86,3-3.78,5.57-6.37,7.16a5.79,5.79,0,0,0,.43-3.6,25.13,25.13,0,0,1-7.85,6.14,9.7,9.7,0,0,0,1.08-3.13,9.24,9.24,0,0,1-7.09.9,9.87,9.87,0,0,0,2.88-3,7.82,7.82,0,0,1-2.95-1.23,2.85,2.85,0,0,0,1.67-2.13"/><path class="cls-17" d="M79.82,36.21c-1.14,3-3.46,5.07-6.09,6.8l.86.67A8,8,0,0,0,75,39.92c-.05-.46-.63-.84-1-.42a27.71,27.71,0,0,1-7.73,6l.8.81a14.49,14.49,0,0,0,1.14-3.28.59.59,0,0,0-.86-.66,9.57,9.57,0,0,1-6.64.85l.14,1.07A13.67,13.67,0,0,0,64,41.08a.6.6,0,0,0-.35-.87A7.16,7.16,0,0,1,60.82,39a.59.59,0,0,0-.6,1c2,1.2,2.65,1.28.07,3.27-.36.27-.41,1,.14,1.07a11,11,0,0,0,7.55-1l-.86-.67a9.38,9.38,0,0,1-1,3,.59.59,0,0,0,.8.81,28.74,28.74,0,0,0,8-6.23l-1-.42a6.11,6.11,0,0,1-.42,3.44.6.6,0,0,0,.87.67c2.94-1.93,5.38-4.17,6.63-7.51.27-.71-.87-1-1.13-.31Z"/><path class="cls-18" d="M82.18,11.51C77,9.75,70.28,7.74,63,10.72S49.44,19.15,47.9,21.47l3-1-.24,4.08,2.08-2.26,2.63,3.12,4-1.38L61,18.89l-.69,4.82,0,1.45s8.36.09,8.54-.06a23.28,23.28,0,0,0,.78-3l1-1.13,4.25,2.1,1-1.38.85-5.51,3.67-.77L78.73,13Z"/><path class="cls-19" d="M65,18c-4.07.61-10.89,1.3-12.11-1.33a24.91,24.91,0,0,0-5,4.85l3-1-.24,4.08,2.08-2.26,2.63,3.12,4-1.38L61,18.89l-.69,4.82,0,1.45s8.36.09,8.54-.06a23.28,23.28,0,0,0,.78-3l1-1.13,4.25,2.1,1-1.38.85-5.51,3.67-.77L79.2,13.73S77.24,16.11,65,18Z"/></g><path class="cls-18" d="M111.09,73.26c0,27.71-18.16,50.18-40.58,50.18S29.93,101,29.93,73.26a58.72,58.72,0,0,1,6.48-27.2,4.07,4.07,0,0,0,4.17,2.27L43.21,53,39.88,64.47l4.17,7.09,5.69-.46-5.15-.24-3.48-6.74,3.31-8.9,2.13-1.84,2.14-2.17,9.43,6.32,9.6-1.87,1,2.11-2.68,6,2.42,6.94L67,63.55l4.49-5.28,6.83-1,8.15,1.57,5.37-4.59,4.85,1,2.65-4.41s5-2.52,5.83-3.74A59,59,0,0,1,111.09,73.26Z"/><path class="cls-19" d="M32.39,56c-1.56,4.4-2.46,11.17-2.46,17.22,0,27.71,18.17,50.18,40.58,50.18S111.09,101,111.09,73.26c0,0-5.28,19.85-22.18,28.89-12.39,6.63-31.06,1.92-41.17-8.37C41.76,87.7,35.33,76.2,32.39,56Z"/><path class="cls-20" d="M105.12,47.05l-5.65,1.74L91.72,45.1A20.54,20.54,0,0,0,94,41.39a.27.27,0,0,1,0,.12s0-1,3.65-1.11,6.19-2.16,7.22-2.5c.73.25,1.63,0,1.24-1.11-.79-2.23-3.8-5.09-8.24-8.37a20.86,20.86,0,0,0-3-1.83,23.31,23.31,0,0,0-12.39-14l-.38-1.07C77,9.75,70.28,7.74,63,10.72a44.31,44.31,0,0,0-10.06,5.9h0l-.07.05-.21.17-.25.2-.21.17-.24.2-.2.16-.23.19-.2.17-.22.19-.18.16-.21.19-.18.15a1.8,1.8,0,0,1-.2.19l-.16.15-.19.18-.16.15-.17.17-.15.14-.16.17-.14.14-.15.16a1.59,1.59,0,0,1-.13.13l-.14.16-.11.13-.13.15-.1.11a1,1,0,0,1-.13.16l-.08.1-.12.15-.06.08-.15.23,2.12.78.35.66a22.39,22.39,0,0,0-1.36,10c.19,2.45-7,12-7.95,14.24l-4.65-1.12a54.83,54.83,0,0,0-4,10v0A54.38,54.38,0,0,0,30,71.25c0,.11,0,.23,0,.34,0,.56,0,1.12,0,1.67,0,27.71,18.17,50.18,40.58,50.18S111.09,101,111.09,73.26A59,59,0,0,0,105.12,47.05Z"/></g></g></svg>