<svg xmlns="http://www.w3.org/2000/svg" viewBox="0 0 195 185.11"><defs><style>.cls-1{fill:#fbb03b;}</style></defs><title>30</title><g id="Capa_2" data-name="Capa 2"><g id="Layer_1" data-name="Layer 1"><path class="cls-1" d="M180.55,185.11H172.5v-5h8Zm-16,0h-8v-5h8Zm-16,0h-8v-5h8Zm-16,0h-8v-5h8Zm-16,0h-8v-5h8Zm-16,0h-8v-5h8Zm-16,0h-8v-5h8Zm-16,0h-8v-5h8Zm-16,0h-8v-5h8Zm-16,0h-8v-5h8Zm-16,0H14.5a14.41,14.41,0,0,1-2.28-.18L13,180a9.26,9.26,0,0,0,1.49.12h6.1ZM189.5,182l-3.11-3.91a9.59,9.59,0,0,0,3.35-5.24L194.6,174A14.62,14.62,0,0,1,189.5,182ZM3.87,180.45a14.51,14.51,0,0,1-3.82-8.68l5-.4a9.51,9.51,0,0,0,2.51,5.68Zm191.13-15h-5v-8h5ZM5,163.58H0v-8H5Zm190-14.15h-5v-8h5ZM5,147.59H0v-8H5Zm190-14.15h-5v-8h5ZM5,131.6H0v-8H5Zm190-14.15h-5v-8h5ZM5,115.61H0v-8H5Zm190-14.15h-5v-8h5ZM5,99.62H0v-8H5ZM195,85.47h-5v-8h5ZM5,83.63H0v-8H5ZM195,69.48h-5v-8h5ZM5,67.63H0v-8H5ZM195,53.49h-5v-8h5ZM5,51.64H0v-8H5ZM195,37.5h-5v-8h5ZM5,35.66H0v-8H5ZM195,21.51h-5v-7q0-.39,0-.78l5-.4c0,.39.05.78.05,1.18ZM5,19.67H0V14.5a14.89,14.89,0,0,1,.4-3.39l4.86,1.18A9.61,9.61,0,0,0,5,14.5ZM187.45,8.05A9.46,9.46,0,0,0,182,5.12l.78-4.94a14.54,14.54,0,0,1,8.36,4.46ZM8.63,7.05,5.52,3.13a14.56,14.56,0,0,1,9-3.13V5A9.31,9.31,0,0,0,8.63,7.05ZM174.38,5h-8V0h8Zm-16,0h-8V0h8Zm-16,0h-8V0h8Zm-16,0h-8V0h8Zm-16,0h-8V0h8Zm-16,0h-8V0h8Zm-16,0h-8V0h8Zm-16,0h-8V0h8Zm-16,0h-8V0h8Zm-16,0h-8V0h8Z"/></g></g></svg>