<?xml version="1.0" encoding="utf-8"?>
<!-- Generator: Adobe Illustrator 22.0.1, SVG Export Plug-In . SVG Version: 6.00 Build 0)  -->
<svg version="1.1" id="Layer_1" xmlns="http://www.w3.org/2000/svg" xmlns:xlink="http://www.w3.org/1999/xlink" x="0px" y="0px"
	 viewBox="0 0 55.3 55.9" style="enable-background:new 0 0 55.3 55.9;" xml:space="preserve">
<style type="text/css">
	.st0{opacity:0.3;}
	.st1{fill:#FFFFFF;}
	.st2{fill:#FBB03B;}
	.st3{fill:#BF703A;}
</style>
<g>
	<g>
		<g class="st0">
			<circle cx="29.5" cy="29.8" r="25.3"/>
		</g>
		<g>
			<circle class="st1" cx="26.5" cy="26.8" r="25.3"/>
		</g>
	</g>
	<g>
		<path class="st2" d="M26.5,48.7c-12.1,0-22-9.9-22-22s9.9-22,22-22c12.1,0,22,9.9,22,22S38.6,48.7,26.5,48.7z"/>
		<path class="st3" d="M26.5,5.5c11.8,0,21.3,9.5,21.3,21.3c0,11.8-9.5,21.3-21.3,21.3c-11.8,0-21.3-9.5-21.3-21.3
			C5.2,15,14.8,5.5,26.5,5.5 M26.5,4.1C14.1,4.1,3.9,14.3,3.9,26.8s10.2,22.6,22.6,22.6c12.5,0,22.6-10.2,22.6-22.6S39,4.1,26.5,4.1
			L26.5,4.1z"/>
	</g>
	<g>
		<g>
			<path class="st1" d="M35,37.8c-0.5,0-1-0.2-1.4-0.6l-0.2-0.2c-0.7-0.7-0.8-1.8-0.1-2.6c1.9-2.3,3-5.2,3-8.2
				c0-3.1-1.1-6.1-3.2-8.4c-0.7-0.8-0.6-1.9,0.1-2.6l0.2-0.2c0.4-0.4,0.8-0.6,1.3-0.6c0.6,0,1.1,0.2,1.4,0.6c2.7,3.1,4.2,7,4.2,11.1
				c0,3.9-1.4,7.8-3.9,10.8C36.1,37.6,35.6,37.8,35,37.8L35,37.8z M24.7,36.7c-0.4,0-0.9-0.2-1.2-0.4l-6.7-5.5h-3.4
				c-0.5,0-1-0.2-1.4-0.6s-0.6-0.8-0.6-1.4v-5c0-1.1,0.9-1.9,1.9-1.9h3.4l6.7-5.5c0.3-0.3,0.8-0.4,1.2-0.4c0.3,0,0.6,0.1,0.8,0.2
				c0.7,0.3,1.1,1,1.1,1.7v16.9c0,0.7-0.4,1.4-1.1,1.7C25.3,36.7,25,36.7,24.7,36.7z M30.7,33.5c-0.5,0-1-0.2-1.4-0.6l-0.2-0.2
				c-0.7-0.7-0.7-1.7-0.2-2.5c0.9-1.2,1.3-2.5,1.3-3.9c0-1.5-0.5-3-1.5-4.2c-0.6-0.8-0.6-1.9,0.1-2.6l0.2-0.2
				c0.4-0.4,0.8-0.6,1.3-0.6l0.1,0c0.5,0,1,0.3,1.4,0.7c1.6,1.9,2.4,4.3,2.4,6.8c0,2.3-0.7,4.5-2.1,6.4c-0.3,0.4-0.8,0.7-1.4,0.8
				L30.7,33.5z"/>
			<path class="st3" d="M34.8,15.3C34.8,15.3,34.8,15.3,34.8,15.3c0.4,0,0.7,0.2,0.9,0.4c2.6,2.9,4.1,6.7,4.1,10.7
				c0,3.8-1.3,7.5-3.8,10.4c-0.2,0.3-0.6,0.4-0.9,0.4c0,0,0,0-0.1,0c-0.3,0-0.7-0.1-0.9-0.4L34,36.7c-0.5-0.5-0.5-1.2-0.1-1.7
				c2-2.4,3.1-5.5,3.1-8.6c0-3.3-1.2-6.4-3.4-8.9c-0.4-0.5-0.4-1.2,0.1-1.7l0.2-0.2C34.1,15.4,34.4,15.3,34.8,15.3 M24.7,16.6
				c0.2,0,0.4,0,0.5,0.1c0.4,0.2,0.7,0.6,0.7,1.1l0,16.9c0,0.5-0.3,0.9-0.7,1.1c-0.2,0.1-0.4,0.1-0.5,0.1c-0.3,0-0.6-0.1-0.8-0.3
				l-6.9-5.7h-3.6c0,0,0,0,0,0c-0.7,0-1.3-0.6-1.3-1.3v-5c0-0.7,0.6-1.3,1.3-1.3h3.6l6.9-5.7C24.2,16.7,24.4,16.6,24.7,16.6
				 M30.5,19.6C30.5,19.6,30.5,19.6,30.5,19.6c0.4,0,0.8,0.2,1,0.5c1.5,1.8,2.3,4,2.3,6.3c0,2.2-0.7,4.3-2,6
				c-0.2,0.3-0.6,0.5-0.9,0.5c0,0-0.1,0-0.1,0c-0.3,0-0.7-0.1-0.9-0.4l-0.2-0.2c-0.4-0.4-0.5-1.1-0.1-1.6c0.9-1.3,1.4-2.8,1.4-4.3
				c0-1.7-0.6-3.3-1.6-4.6c-0.4-0.5-0.4-1.2,0.1-1.7l0.2-0.2C29.8,19.7,30.1,19.6,30.5,19.6 M34.8,13.9L34.8,13.9
				c-0.7,0-1.3,0.3-1.8,0.8l-0.2,0.2c-1,1-1,2.5-0.1,3.5c2,2.2,3,5,3,8c0,2.8-1,5.6-2.8,7.7c-0.9,1-0.8,2.5,0.2,3.5l0.2,0.2
				c0.5,0.5,1.1,0.8,1.8,0.8l0.1,0c0.7,0,1.4-0.4,1.9-0.9c2.6-3.1,4.1-7.1,4.1-11.2c0-4.3-1.6-8.4-4.4-11.6
				C36.2,14.3,35.6,14,34.8,13.9L34.8,13.9L34.8,13.9L34.8,13.9z M24.7,15.3L24.7,15.3c-0.6,0-1.2,0.2-1.6,0.6l-6.5,5.4h-3.2
				c-1.4,0-2.6,1.2-2.6,2.6v5c0,1.4,1.2,2.6,2.6,2.6h3.2l6.5,5.4c0.5,0.4,1,0.6,1.6,0.6c0.4,0,0.8-0.1,1.1-0.2
				c0.9-0.4,1.5-1.3,1.5-2.3l0-16.9c0-1-0.6-1.9-1.5-2.3C25.5,15.4,25.1,15.3,24.7,15.3L24.7,15.3z M30.5,18.2L30.5,18.2
				c-0.7,0-1.3,0.3-1.8,0.8l-0.2,0.2c-0.9,0.9-1,2.4-0.2,3.4c0.9,1.1,1.3,2.4,1.3,3.8c0,1.3-0.4,2.5-1.2,3.6c-0.8,1-0.6,2.5,0.2,3.3
				l0.2,0.2c0.5,0.5,1.1,0.8,1.8,0.8c0.1,0,0.1,0,0.2,0c0.7-0.1,1.4-0.4,1.9-1c1.5-2,2.3-4.3,2.3-6.8c0-2.7-0.9-5.1-2.6-7.2
				c-0.5-0.6-1.1-0.9-1.9-0.9C30.6,18.2,30.5,18.2,30.5,18.2L30.5,18.2z"/>
		</g>
	</g>
</g>
</svg>
