<svg xmlns="http://www.w3.org/2000/svg" viewBox="0 0 150 150"><defs><style>.cls-1{isolation:isolate;}.cls-2{fill:#002451;opacity:0.27;}.cls-3{fill:#fff2cc;}.cls-4{fill:#29abe2;}.cls-5,.cls-7{opacity:0.2;}.cls-5{mix-blend-mode:multiply;}.cls-6{fill:#fff;}.cls-8{fill:#000f56;}.cls-9{fill:#95c037;}.cls-10{fill:#6e756c;}.cls-11{fill:#fddb8b;}.cls-12{fill:#ffca41;}.cls-13,.cls-20,.cls-24,.cls-25{fill:none;stroke-linecap:round;}.cls-13,.cls-25{stroke:#1e134d;stroke-linejoin:round;}.cls-13{stroke-width:0.75px;}.cls-14{fill:#070000;}.cls-15{fill:#009fc9;}.cls-16{fill:#146fb6;}.cls-17{opacity:0.21;}.cls-18{fill:#fffcdf;}.cls-19{fill:#3b3431;}.cls-20,.cls-24{stroke:#3b3431;stroke-miterlimit:10;}.cls-20{stroke-width:0.38px;}.cls-21{fill:#00b4d4;}.cls-22{fill:#aea9a9;}.cls-23{fill:#0082c4;}.cls-24{stroke-width:0.47px;}.cls-25{stroke-width:1.2px;}</style></defs><title>lab02-</title><g class="cls-1"><g id="Layer_1" data-name="Layer 1"><rect class="cls-2" x="16.51" y="17.35" width="120.09" height="120.09" rx="36.12" ry="36.12"/><rect class="cls-3" x="13.41" y="14.25" width="120.09" height="120.09" rx="36.12" ry="36.12"/><path class="cls-4" d="M133,104H120.08A17.12,17.12,0,0,0,103,121.17V133.9A36.15,36.15,0,0,0,133,104Z"/><g class="cls-5"><rect x="115.37" y="112.54" width="1.38" height="10.82"/><polygon points="116.03 108.44 113.24 113.27 118.81 113.27 116.03 108.44"/><polygon points="116.06 127.39 118.85 122.56 113.27 122.56 116.06 127.39"/><rect x="110.65" y="117.27" width="10.82" height="1.38"/><polygon points="106.57 117.93 111.4 120.72 111.4 115.15 106.57 117.93"/><polygon points="125.52 117.9 120.69 115.11 120.69 120.68 125.52 117.9"/></g><rect class="cls-6" x="114.37" y="111.54" width="1.38" height="10.82"/><polygon class="cls-6" points="115.03 107.44 112.24 112.27 117.81 112.27 115.03 107.44"/><polygon class="cls-6" points="115.06 126.39 117.85 121.56 112.27 121.56 115.06 126.39"/><rect class="cls-6" x="109.65" y="116.27" width="10.82" height="1.38"/><polygon class="cls-6" points="105.57 116.93 110.4 119.72 110.4 114.15 105.57 116.93"/><polygon class="cls-6" points="124.52 116.9 119.69 114.11 119.69 119.68 124.52 116.9"/><g class="cls-7"><path class="cls-8" d="M32.63,142.47a11.4,11.4,0,0,1-5.35-1.3c-4.44-2.35-5-7-4.79-10.32-2.08-4.33-3.75-9.92-2.73-15.65a42.59,42.59,0,0,1-9.23-18.91c-1-5.61,0-14,1.74-20.29l0-.11C11.19,69.22,10,61.72,14,56.72c-1.1-4-.69-9-.06-14.5.09-.78.17-1.45.22-2l.08-1c.24-3.17.64-8.47,6.55-11.63C28.84,23.29,37.61,32,42.23,37.81a14,14,0,0,1,1-3.09c3.52-7.57,14.05-7.28,22.16-5.76a42,42,0,0,1,13.11-6.79,48.74,48.74,0,0,1,18.22-1.94,8.2,8.2,0,0,1,4.18,1.61,41,41,0,0,0,4.84-2.47,9.49,9.49,0,0,1,13.18,2,18,18,0,0,1,3.54,7.44c7.51-.91,16.25-.27,19.28,6.53h0c2.93,6.57-.07,11.1-2.26,14.4l-.69,1.05c-.37.56-.81,1.29-1.31,2.12-3.74,6.17-7.13,11.34-11.27,14.05.66,7.4-5.84,13.48-12.13,19.36-1.32,1.24-2.57,2.4-3.46,3.34-.55.56-1.09,1.08-1.63,1.54,0,2.45-1.15,7.11-13.07,19.57-4.73,4.94-13.74,13.66-21,16.61a46.27,46.27,0,0,1-26.53,2.24c-.13.42-.23.71-.28.83a19.73,19.73,0,0,1-10.89,11.19A13.35,13.35,0,0,1,32.63,142.47Zm7.43-10.28h0Zm3.45-21.51a30.76,30.76,0,0,0,25.3,1.54c4-1.59,11.09-8.14,16.64-14.1a9,9,0,0,1-4.29-6.3c-.43-2.89.16-8.25,9-11.63a23.64,23.64,0,0,0,3.11-1.44,8.17,8.17,0,0,1,6-.78c1.12-1.14,2.39-2.33,3.73-3.59a71.92,71.92,0,0,0,6.43-6.53,16.64,16.64,0,0,0-2-2.11A8.16,8.16,0,0,1,115.66,52a13.85,13.85,0,0,0,2.3.63,58.71,58.71,0,0,0,5.12-7.44,47.5,47.5,0,0,0-6.54,1.47,8.17,8.17,0,0,1-10.36-9.33c-3.83,1.64-8.2,3.1-11.55,3.1h0a8.21,8.21,0,0,1-6.07-2.73,8.08,8.08,0,0,1-.72-.94,36.43,36.43,0,0,0-4.64,1c-3.37,1-7.48,3.41-9.16,5.36a8.17,8.17,0,0,1-8.25,2.59,41.62,41.62,0,0,0-6.41-1.19,8.13,8.13,0,0,1-3.49,5.55A64.14,64.14,0,0,0,47,57.55,8.16,8.16,0,0,1,35.9,58a7.84,7.84,0,0,1,0,2.11,8.16,8.16,0,0,1-7.45,7.15l-.89.1c.14,1.88.54,4.4.8,6,.11.69.21,1.37.31,2a8,8,0,0,1-.3,3.7c-1.75,5.48-2.24,12-1.81,14.24A25.53,25.53,0,0,0,31.67,104l.47.27a8.22,8.22,0,0,1,3.32,3.55,8.13,8.13,0,0,1,4.75,1ZM110.07,69ZM29.59,51.06l.81.29a8.6,8.6,0,0,1,2.1,1,17.39,17.39,0,0,0-1-1.6c-.61-.92-1.22-1.76-1.82-2.53C29.63,49.27,29.58,50.25,29.59,51.06ZM129.82,45h0Zm-3-3h0l7.46-3.32L126.85,42Z"/></g><path class="cls-6" d="M32.63,139.51a11.41,11.41,0,0,1-5.35-1.31c-4.44-2.34-5-7-4.79-10.31-2.08-4.34-3.75-9.92-2.73-15.66a42.54,42.54,0,0,1-9.23-18.91c-1-5.61,0-14,1.74-20.29l0-.11C11.19,66.25,10,58.75,14,53.76c-1.1-4-.69-9-.06-14.51.09-.78.17-1.45.22-2l.08-1c.24-3.17.64-8.47,6.55-11.63,8.08-4.31,16.85,4.44,21.47,10.21a13.76,13.76,0,0,1,1-3.08c3.52-7.58,14.05-7.29,22.16-5.76a41.84,41.84,0,0,1,13.11-6.8,48.53,48.53,0,0,1,18.22-1.93,8.1,8.1,0,0,1,4.18,1.6,41,41,0,0,0,4.84-2.47,9.51,9.51,0,0,1,13.18,2,18.07,18.07,0,0,1,3.54,7.44c7.51-.9,16.25-.27,19.28,6.53h0c2.93,6.57-.07,11.1-2.26,14.4l-.69,1.05c-.37.56-.81,1.29-1.31,2.13-3.74,6.16-7.13,11.33-11.27,14,.66,7.4-5.84,13.48-12.13,19.36-1.32,1.24-2.57,2.41-3.46,3.34-.55.57-1.09,1.08-1.63,1.54,0,2.45-1.15,7.11-13.07,19.58-4.73,4.93-13.74,13.66-21,16.6a46.18,46.18,0,0,1-26.53,2.24c-.13.43-.23.72-.28.83a19.7,19.7,0,0,1-10.89,11.19A13.36,13.36,0,0,1,32.63,139.51Zm7.43-10.29h0Zm3.45-21.51a30.72,30.72,0,0,0,25.3,1.54c4-1.59,11.09-8.14,16.64-14.1a9,9,0,0,1-4.29-6.3c-.43-2.89.16-8.25,9-11.63a23.63,23.63,0,0,0,3.11-1.43,8.13,8.13,0,0,1,6-.79c1.12-1.14,2.39-2.33,3.73-3.59a73.14,73.14,0,0,0,6.43-6.52,16,16,0,0,0-2-2.12,8.16,8.16,0,0,1,8.22-13.72,13.85,13.85,0,0,0,2.3.63,58,58,0,0,0,5.12-7.44,46.23,46.23,0,0,0-6.54,1.48,8.18,8.18,0,0,1-10.36-9.34c-3.83,1.64-8.2,3.1-11.55,3.1h0a8.21,8.21,0,0,1-6.07-2.73,7.31,7.31,0,0,1-.72-.94,36.43,36.43,0,0,0-4.64,1c-3.37,1-7.48,3.41-9.16,5.36a8.17,8.17,0,0,1-8.25,2.59,41.62,41.62,0,0,0-6.41-1.19,8.13,8.13,0,0,1-3.49,5.55A64.14,64.14,0,0,0,47,54.58,8.12,8.12,0,0,1,39.6,56.8,8.22,8.22,0,0,1,35.9,55a7.84,7.84,0,0,1,0,2.11,8.14,8.14,0,0,1-7.45,7.15l-.89.1c.14,1.88.54,4.4.8,6,.11.7.21,1.37.31,2a8,8,0,0,1-.3,3.7c-1.75,5.48-2.24,12-1.81,14.24A25.57,25.57,0,0,0,31.67,101l.47.26a8.22,8.22,0,0,1,3.32,3.55,8.21,8.21,0,0,1,4.75,1ZM110.07,66ZM29.59,48.09l.81.29a8.29,8.29,0,0,1,2.1,1.06,16.33,16.33,0,0,0-1-1.61c-.61-.92-1.22-1.76-1.82-2.53C29.63,46.3,29.58,47.29,29.59,48.09ZM129.82,42h0Zm-3-3h0l7.46-3.33L126.85,39Z"/><path class="cls-9" d="M26.33,107a34.47,34.47,0,0,1-7.72-15.5c-1.08-5.74,1.07-18.42,4.29-23.28-.22,2,.18,4.5,1.47,9.39.34,1.3,3,1.54,2.91-2.54-.2-19.27,27.2-38.83,30.4-38-.34,2.35,0,9.62,2.4,9.26s5.37-7.91,6.54-10c2.46-4.35,9.5-8.19,14.29-9.61a40.92,40.92,0,0,1,15.17-1.63A21.34,21.34,0,0,0,94.67,29c3.67,0,12.45-4.07,15.54-6a2.09,2.09,0,0,1,1.5-.49,1.87,1.87,0,0,1,.94.73c5.56,6.93-.19,21-6.51,27.28,1.11,1.2,6.25-.61,6.25-.61a73.52,73.52,0,0,1-1.66,11c-2.79,11.6-6.1,19.26-17.62,23.67-4.61,1.76-4.62,3.41-2.34,3.56,6,.41,9.33-1.18,9.82-1,3.13.92-18.35,25.29-28.68,29.46a38.69,38.69,0,0,1-32.28-2"/><path class="cls-10" d="M107,38.91c-.49.46-1,.93-1.47,1.37l-.76.66-.77.64c-.52.43-1.07.81-1.6,1.22s-1.09.77-1.66,1.11a27.47,27.47,0,0,1-3.49,1.91,24.58,24.58,0,0,1-3.7,1.38,21.06,21.06,0,0,1-3.83.74,15.66,15.66,0,0,1-1.93.08h-.4c9.34-8.64,16.37-14.5,16.37-14.5S93.11,41.56,80.29,52.58a2.54,2.54,0,0,1,0-.29c-.07-.64-.11-1.29-.13-1.95a25.79,25.79,0,0,1,.24-3.92,26.36,26.36,0,0,1,2.25-7.58A28.7,28.7,0,0,1,87,32.16a37.12,37.12,0,0,1,5.92-5.48,36.87,36.87,0,0,0-6.27,5.16,29.54,29.54,0,0,0-4.87,6.58,27.24,27.24,0,0,0-3.29,11.91c0,.7,0,1.4,0,2.1,0,.35,0,.7.08,1.06l.06.53C72.42,59.4,65.81,65.4,59.7,71.47c-1.79,1.78-3.53,3.59-5.19,5.4-.12-.29-.22-.6-.33-.89s-.23-.72-.35-1.08-.21-.73-.31-1.1-.2-.73-.28-1.11L53,71.57,52.87,71l-.1-.56-.2-1.14a57.6,57.6,0,0,1-.65-9.2l0-2.32c0-.39,0-.77.06-1.16l.09-1.16c.08-1.55.31-3.08.49-4.62.08-.77.23-1.53.36-2.3l.4-2.3c.32-1.52.69-3,1-4.55-.41,1.5-.85,3-1.25,4.5l-.52,2.28c-.16.76-.36,1.52-.48,2.29-.26,1.54-.57,3.08-.73,4.63l-.14,1.17c-.05.39-.11.77-.13,1.16L51,60.08a59.32,59.32,0,0,0,.2,9.42l.14,1.18.07.59.1.58L51.67,73c.07.4.16.78.24,1.17s.17.78.27,1.17.19.77.31,1.15.22.77.36,1.16c.09.24.17.48.27.73a250.13,250.13,0,0,0-18.35,23.18l-.17-.08a12.76,12.76,0,0,1-1.34-.76c-.45-.27-.86-.6-1.28-.91s-.8-.68-1.2-1a24,24,0,0,1-4-5A35.9,35.9,0,0,1,23.9,88c-.37-1-.72-2.06-1.07-3.09L22,81.72,22.6,85c.27,1.06.55,2.13.85,3.19A37.47,37.47,0,0,0,26,94.28a25.63,25.63,0,0,0,3.82,5.53c.41.39.79.82,1.22,1.2a15.75,15.75,0,0,0,1.33,1.09,13.9,13.9,0,0,0,1.41,1c-.44.63-.76,1.07-.94,1.28-1.11,1.36-3,1.09-4.6,3.63-.54.82.42,2.52-.07,4.18-1.59,5.38,1.45,11.44,2.8,13.81,0,0-.61,4.25.23,4.69,2.83,1.5,7.58-1.84,9.4-6.49.26-.67.78-3.55-1.1-3.4-4.6.37-6.27-2.72-5.72-5.16.24-1.08,1.73-2.17,2.49-3,1.75-1.89,0-2.06,2-4.81.23-.32,1.06-1.83,2.42-4.15.33.1.66.19,1,.27.53.14,1.06.27,1.59.38,1.07.23,2.14.44,3.21.6a58.34,58.34,0,0,0,6.47.65,63.86,63.86,0,0,0,6.49,0,63.22,63.22,0,0,0,6.43-.72,59.18,59.18,0,0,0,12.42-3.47,61.59,61.59,0,0,0,11.33-6,62,62,0,0,1-11.49,5.61,59.39,59.39,0,0,1-18.74,3.44q-3.18.06-6.35-.2a57.47,57.47,0,0,1-6.28-.87c-1-.2-2.06-.43-3.08-.69-.51-.13-1-.27-1.51-.42l-.52-.16a193.08,193.08,0,0,1,19-26.7l.26,0,.85.1c.57,0,1.14.09,1.71.11,1.14,0,2.27,0,3.39-.05a44.14,44.14,0,0,0,6.68-.9,56,56,0,0,0,12.64-4.33,72,72,0,0,0,11.41-6.84,93,93,0,0,0,10.12-8.57A91.8,91.8,0,0,1,97.2,63,70.87,70.87,0,0,1,85.67,69.4a55.31,55.31,0,0,1-12.52,3.8,44,44,0,0,1-6.47.64c-1.08,0-2.16,0-3.23-.07-.49,0-1-.09-1.45-.15,7.61-8.57,16.21-17,23.61-24v0l.31,0,.28,0,.55,0c.36,0,.72,0,1.08,0,.71,0,1.41-.1,2.11-.21a24,24,0,0,0,4-1,26.9,26.9,0,0,0,3.8-1.68,29.62,29.62,0,0,0,3.49-2.18c.57-.39,1.1-.83,1.64-1.24s1-.87,1.55-1.34l.75-.69.72-.72c.49-.47.95-1,1.41-1.48a53.05,53.05,0,0,0,5-6.41A54,54,0,0,1,107,38.91Z"/><path class="cls-11" d="M56.71,102.11H56a1.31,1.31,0,0,0-1.13.65l-.36.63a1.28,1.28,0,0,0,0,1.31l.36.63A1.33,1.33,0,0,0,56,106h.73a1.33,1.33,0,0,0,1.14-.65l.36-.63a1.33,1.33,0,0,0,0-1.31l-.36-.63A1.31,1.31,0,0,0,56.71,102.11Z"/><path class="cls-12" d="M57.31,94.36h-.73a1.29,1.29,0,0,0-1.13.66l-.37.63a1.31,1.31,0,0,0,0,1.3l.37.64a1.3,1.3,0,0,0,1.13.65h.73a1.31,1.31,0,0,0,1.13-.65L58.8,97a1.26,1.26,0,0,0,0-1.3L58.44,95A1.3,1.3,0,0,0,57.31,94.36Z"/><path class="cls-11" d="M59.34,107.92h-.73a1.33,1.33,0,0,0-1.13.65l-.36.63a1.28,1.28,0,0,0,0,1.31l.36.63a1.33,1.33,0,0,0,1.13.65h.73a1.33,1.33,0,0,0,1.14-.65l.36-.63a1.33,1.33,0,0,0,0-1.31l-.36-.63A1.33,1.33,0,0,0,59.34,107.92Z"/><path class="cls-11" d="M61.59,97.41h-.74a1.31,1.31,0,0,0-1.13.66l-.36.63a1.28,1.28,0,0,0,0,1.31l.36.63a1.33,1.33,0,0,0,1.13.65h.74a1.33,1.33,0,0,0,1.13-.65l.36-.63a1.33,1.33,0,0,0,0-1.31l-.36-.63A1.31,1.31,0,0,0,61.59,97.41Z"/><path class="cls-12" d="M64.25,102.54h-.73a1.31,1.31,0,0,0-1.13.65l-.36.64a1.26,1.26,0,0,0,0,1.3l.36.64a1.31,1.31,0,0,0,1.13.65h.73a1.3,1.3,0,0,0,1.13-.65l.37-.64a1.31,1.31,0,0,0,0-1.3l-.37-.64A1.3,1.3,0,0,0,64.25,102.54Z"/><path class="cls-11" d="M68.61,97.85h-.73a1.31,1.31,0,0,0-1.13.66l-.36.63a1.28,1.28,0,0,0,0,1.31l.36.63a1.33,1.33,0,0,0,1.13.65h.73a1.33,1.33,0,0,0,1.14-.65l.36-.63a1.33,1.33,0,0,0,0-1.31l-.36-.63A1.32,1.32,0,0,0,68.61,97.85Z"/><path class="cls-12" d="M69.14,92.32h-.73a1.3,1.3,0,0,0-1.13.65l-.37.63a1.33,1.33,0,0,0,0,1.31l.37.63a1.29,1.29,0,0,0,1.13.66h.73a1.29,1.29,0,0,0,1.13-.66l.37-.63a1.33,1.33,0,0,0,0-1.31L70.27,93A1.3,1.3,0,0,0,69.14,92.32Z"/><path class="cls-11" d="M70.65,104.48h-.73a1.3,1.3,0,0,0-1.13.65l-.37.64a1.31,1.31,0,0,0,0,1.3l.37.63a1.29,1.29,0,0,0,1.13.66h.73a1.29,1.29,0,0,0,1.13-.66l.37-.63a1.31,1.31,0,0,0,0-1.3l-.37-.64A1.3,1.3,0,0,0,70.65,104.48Z"/><path class="cls-11" d="M75.12,92.32h-.73a1.3,1.3,0,0,0-1.13.65l-.36.63a1.28,1.28,0,0,0,0,1.31l.36.63a1.29,1.29,0,0,0,1.13.66h.73a1.29,1.29,0,0,0,1.13-.66l.37-.63a1.33,1.33,0,0,0,0-1.31L76.25,93A1.3,1.3,0,0,0,75.12,92.32Z"/><path class="cls-12" d="M74.47,97.85h-.73a1.29,1.29,0,0,0-1.13.66l-.37.63a1.33,1.33,0,0,0,0,1.31l.37.63a1.3,1.3,0,0,0,1.13.65h.73a1.3,1.3,0,0,0,1.13-.65l.37-.63a1.33,1.33,0,0,0,0-1.31l-.37-.63A1.29,1.29,0,0,0,74.47,97.85Z"/><path class="cls-11" d="M52.64,94.36h-.73a1.29,1.29,0,0,0-1.13.66l-.37.63a1.31,1.31,0,0,0,0,1.3l.37.64a1.3,1.3,0,0,0,1.13.65h.73a1.3,1.3,0,0,0,1.13-.65l.37-.64a1.31,1.31,0,0,0,0-1.3L53.77,95A1.29,1.29,0,0,0,52.64,94.36Z"/><path class="cls-12" d="M51.64,99.79h-.73a1.31,1.31,0,0,0-1.13.66l-.36.63a1.26,1.26,0,0,0,0,1.3l.36.64a1.33,1.33,0,0,0,1.13.65h.73a1.33,1.33,0,0,0,1.14-.65l.36-.64a1.31,1.31,0,0,0,0-1.3l-.36-.63A1.32,1.32,0,0,0,51.64,99.79Z"/><path class="cls-11" d="M66.29,85.88h-.73a1.29,1.29,0,0,0-1.13.66l-.37.63a1.31,1.31,0,0,0,0,1.3l.37.64a1.3,1.3,0,0,0,1.13.65h.73a1.3,1.3,0,0,0,1.13-.65l.37-.64a1.31,1.31,0,0,0,0-1.3l-.37-.63A1.29,1.29,0,0,0,66.29,85.88Z"/><path class="cls-12" d="M60.76,80H60a1.3,1.3,0,0,0-1.13.65l-.37.63a1.33,1.33,0,0,0,0,1.31l.37.63A1.29,1.29,0,0,0,60,83.9h.73a1.29,1.29,0,0,0,1.13-.66l.37-.63a1.33,1.33,0,0,0,0-1.31l-.37-.63A1.3,1.3,0,0,0,60.76,80Z"/><path class="cls-11" d="M66.29,80h-.73a1.3,1.3,0,0,0-1.13.65l-.37.63a1.33,1.33,0,0,0,0,1.31l.37.63a1.29,1.29,0,0,0,1.13.66h.73a1.29,1.29,0,0,0,1.13-.66l.37-.63a1.33,1.33,0,0,0,0-1.31l-.37-.63A1.3,1.3,0,0,0,66.29,80Z"/><path class="cls-12" d="M64.25,90.49h-.73a1.29,1.29,0,0,0-1.13.65l-.36.63a1.28,1.28,0,0,0,0,1.31l.36.63a1.31,1.31,0,0,0,1.13.65h.73a1.3,1.3,0,0,0,1.13-.65l.37-.63a1.33,1.33,0,0,0,0-1.31l-.37-.63A1.28,1.28,0,0,0,64.25,90.49Z"/><path class="cls-11" d="M71.18,87.82h-.73a1.3,1.3,0,0,0-1.13.65l-.37.64a1.31,1.31,0,0,0,0,1.3l.37.64a1.3,1.3,0,0,0,1.13.65h.73a1.31,1.31,0,0,0,1.13-.65l.36-.64a1.26,1.26,0,0,0,0-1.3l-.36-.64A1.31,1.31,0,0,0,71.18,87.82Z"/><path class="cls-12" d="M70.06,83.1h-.73a1.31,1.31,0,0,0-1.13.65l-.36.64a1.26,1.26,0,0,0,0,1.3l.36.64a1.31,1.31,0,0,0,1.13.65h.73a1.3,1.3,0,0,0,1.13-.65l.37-.64a1.31,1.31,0,0,0,0-1.3l-.37-.64A1.3,1.3,0,0,0,70.06,83.1Z"/><path class="cls-11" d="M75.12,83.44h-.73a1.29,1.29,0,0,0-1.13.66l-.36.63a1.28,1.28,0,0,0,0,1.31l.36.63a1.3,1.3,0,0,0,1.13.65h.73a1.3,1.3,0,0,0,1.13-.65l.37-.63a1.33,1.33,0,0,0,0-1.31l-.37-.63A1.29,1.29,0,0,0,75.12,83.44Z"/><path class="cls-12" d="M76.51,87.82h-.73a1.3,1.3,0,0,0-1.13.65l-.37.64a1.31,1.31,0,0,0,0,1.3l.37.64a1.3,1.3,0,0,0,1.13.65h.73a1.31,1.31,0,0,0,1.13-.65l.36-.64a1.26,1.26,0,0,0,0-1.3l-.36-.64A1.31,1.31,0,0,0,76.51,87.82Z"/><path class="cls-11" d="M61.59,84.63h-.74a1.31,1.31,0,0,0-1.13.66l-.36.63a1.26,1.26,0,0,0,0,1.3l.36.64a1.33,1.33,0,0,0,1.13.65h.74a1.33,1.33,0,0,0,1.13-.65l.36-.64a1.31,1.31,0,0,0,0-1.3l-.36-.63A1.31,1.31,0,0,0,61.59,84.63Z"/><path class="cls-12" d="M56.23,89.11H55.5a1.31,1.31,0,0,0-1.13.66L54,90.4a1.28,1.28,0,0,0,0,1.31l.36.63A1.33,1.33,0,0,0,55.5,93h.73a1.3,1.3,0,0,0,1.13-.65l.37-.63a1.33,1.33,0,0,0,0-1.31l-.37-.63A1.29,1.29,0,0,0,56.23,89.11Z"/><path class="cls-13" d="M56.71,102.11H56a1.31,1.31,0,0,0-1.13.65l-.36.63a1.28,1.28,0,0,0,0,1.31l.36.63A1.33,1.33,0,0,0,56,106h.73a1.33,1.33,0,0,0,1.14-.65l.36-.63a1.33,1.33,0,0,0,0-1.31l-.36-.63A1.31,1.31,0,0,0,56.71,102.11Z"/><path class="cls-13" d="M57.31,94.36h-.73a1.29,1.29,0,0,0-1.13.66l-.37.63a1.31,1.31,0,0,0,0,1.3l.37.64a1.3,1.3,0,0,0,1.13.65h.73a1.31,1.31,0,0,0,1.13-.65L58.8,97a1.26,1.26,0,0,0,0-1.3L58.44,95A1.3,1.3,0,0,0,57.31,94.36Z"/><path class="cls-13" d="M59.34,107.92h-.73a1.33,1.33,0,0,0-1.13.65l-.36.63a1.28,1.28,0,0,0,0,1.31l.36.63a1.33,1.33,0,0,0,1.13.65h.73a1.33,1.33,0,0,0,1.14-.65l.36-.63a1.33,1.33,0,0,0,0-1.31l-.36-.63A1.33,1.33,0,0,0,59.34,107.92Z"/><path class="cls-13" d="M61.59,97.41h-.74a1.31,1.31,0,0,0-1.13.66l-.36.63a1.28,1.28,0,0,0,0,1.31l.36.63a1.33,1.33,0,0,0,1.13.65h.74a1.33,1.33,0,0,0,1.13-.65l.36-.63a1.33,1.33,0,0,0,0-1.31l-.36-.63A1.31,1.31,0,0,0,61.59,97.41Z"/><path class="cls-13" d="M64.25,102.54h-.73a1.31,1.31,0,0,0-1.13.65l-.36.64a1.26,1.26,0,0,0,0,1.3l.36.64a1.31,1.31,0,0,0,1.13.65h.73a1.3,1.3,0,0,0,1.13-.65l.37-.64a1.31,1.31,0,0,0,0-1.3l-.37-.64A1.3,1.3,0,0,0,64.25,102.54Z"/><path class="cls-13" d="M68.61,97.85h-.73a1.31,1.31,0,0,0-1.13.66l-.36.63a1.28,1.28,0,0,0,0,1.31l.36.63a1.33,1.33,0,0,0,1.13.65h.73a1.33,1.33,0,0,0,1.14-.65l.36-.63a1.33,1.33,0,0,0,0-1.31l-.36-.63A1.32,1.32,0,0,0,68.61,97.85Z"/><path class="cls-13" d="M69.14,92.32h-.73a1.3,1.3,0,0,0-1.13.65l-.37.63a1.33,1.33,0,0,0,0,1.31l.37.63a1.29,1.29,0,0,0,1.13.66h.73a1.29,1.29,0,0,0,1.13-.66l.37-.63a1.33,1.33,0,0,0,0-1.31L70.27,93A1.3,1.3,0,0,0,69.14,92.32Z"/><path class="cls-13" d="M70.65,104.48h-.73a1.3,1.3,0,0,0-1.13.65l-.37.64a1.31,1.31,0,0,0,0,1.3l.37.63a1.29,1.29,0,0,0,1.13.66h.73a1.29,1.29,0,0,0,1.13-.66l.37-.63a1.31,1.31,0,0,0,0-1.3l-.37-.64A1.3,1.3,0,0,0,70.65,104.48Z"/><path class="cls-13" d="M75.12,92.32h-.73a1.3,1.3,0,0,0-1.13.65l-.36.63a1.28,1.28,0,0,0,0,1.31l.36.63a1.29,1.29,0,0,0,1.13.66h.73a1.29,1.29,0,0,0,1.13-.66l.37-.63a1.33,1.33,0,0,0,0-1.31L76.25,93A1.3,1.3,0,0,0,75.12,92.32Z"/><path class="cls-13" d="M74.47,97.85h-.73a1.29,1.29,0,0,0-1.13.66l-.37.63a1.33,1.33,0,0,0,0,1.31l.37.63a1.3,1.3,0,0,0,1.13.65h.73a1.3,1.3,0,0,0,1.13-.65l.37-.63a1.33,1.33,0,0,0,0-1.31l-.37-.63A1.29,1.29,0,0,0,74.47,97.85Z"/><path class="cls-13" d="M52.64,94.36h-.73a1.29,1.29,0,0,0-1.13.66l-.37.63a1.31,1.31,0,0,0,0,1.3l.37.64a1.3,1.3,0,0,0,1.13.65h.73a1.3,1.3,0,0,0,1.13-.65l.37-.64a1.31,1.31,0,0,0,0-1.3L53.77,95A1.29,1.29,0,0,0,52.64,94.36Z"/><path class="cls-13" d="M51.64,99.79h-.73a1.31,1.31,0,0,0-1.13.66l-.36.63a1.26,1.26,0,0,0,0,1.3l.36.64a1.33,1.33,0,0,0,1.13.65h.73a1.33,1.33,0,0,0,1.14-.65l.36-.64a1.31,1.31,0,0,0,0-1.3l-.36-.63A1.32,1.32,0,0,0,51.64,99.79Z"/><path class="cls-13" d="M66.29,85.88h-.73a1.29,1.29,0,0,0-1.13.66l-.37.63a1.31,1.31,0,0,0,0,1.3l.37.64a1.3,1.3,0,0,0,1.13.65h.73a1.3,1.3,0,0,0,1.13-.65l.37-.64a1.31,1.31,0,0,0,0-1.3l-.37-.63A1.29,1.29,0,0,0,66.29,85.88Z"/><path class="cls-13" d="M60.76,80H60a1.3,1.3,0,0,0-1.13.65l-.37.63a1.33,1.33,0,0,0,0,1.31l.37.63A1.29,1.29,0,0,0,60,83.9h.73a1.29,1.29,0,0,0,1.13-.66l.37-.63a1.33,1.33,0,0,0,0-1.31l-.37-.63A1.3,1.3,0,0,0,60.76,80Z"/><path class="cls-13" d="M66.29,80h-.73a1.3,1.3,0,0,0-1.13.65l-.37.63a1.33,1.33,0,0,0,0,1.31l.37.63a1.29,1.29,0,0,0,1.13.66h.73a1.29,1.29,0,0,0,1.13-.66l.37-.63a1.33,1.33,0,0,0,0-1.31l-.37-.63A1.3,1.3,0,0,0,66.29,80Z"/><path class="cls-13" d="M64.25,90.49h-.73a1.29,1.29,0,0,0-1.13.65l-.36.63a1.28,1.28,0,0,0,0,1.31l.36.63a1.31,1.31,0,0,0,1.13.65h.73a1.3,1.3,0,0,0,1.13-.65l.37-.63a1.33,1.33,0,0,0,0-1.31l-.37-.63A1.28,1.28,0,0,0,64.25,90.49Z"/><path class="cls-13" d="M71.18,87.82h-.73a1.3,1.3,0,0,0-1.13.65l-.37.64a1.31,1.31,0,0,0,0,1.3l.37.64a1.3,1.3,0,0,0,1.13.65h.73a1.31,1.31,0,0,0,1.13-.65l.36-.64a1.26,1.26,0,0,0,0-1.3l-.36-.64A1.31,1.31,0,0,0,71.18,87.82Z"/><path class="cls-13" d="M70.06,83.1h-.73a1.31,1.31,0,0,0-1.13.65l-.36.64a1.26,1.26,0,0,0,0,1.3l.36.64a1.31,1.31,0,0,0,1.13.65h.73a1.3,1.3,0,0,0,1.13-.65l.37-.64a1.31,1.31,0,0,0,0-1.3l-.37-.64A1.3,1.3,0,0,0,70.06,83.1Z"/><path class="cls-13" d="M75.12,83.44h-.73a1.29,1.29,0,0,0-1.13.66l-.36.63a1.28,1.28,0,0,0,0,1.31l.36.63a1.3,1.3,0,0,0,1.13.65h.73a1.3,1.3,0,0,0,1.13-.65l.37-.63a1.33,1.33,0,0,0,0-1.31l-.37-.63A1.29,1.29,0,0,0,75.12,83.44Z"/><path class="cls-13" d="M76.51,87.82h-.73a1.3,1.3,0,0,0-1.13.65l-.37.64a1.31,1.31,0,0,0,0,1.3l.37.64a1.3,1.3,0,0,0,1.13.65h.73a1.31,1.31,0,0,0,1.13-.65l.36-.64a1.26,1.26,0,0,0,0-1.3l-.36-.64A1.31,1.31,0,0,0,76.51,87.82Z"/><path class="cls-13" d="M61.59,84.63h-.74a1.31,1.31,0,0,0-1.13.66l-.36.63a1.26,1.26,0,0,0,0,1.3l.36.64a1.33,1.33,0,0,0,1.13.65h.74a1.33,1.33,0,0,0,1.13-.65l.36-.64a1.31,1.31,0,0,0,0-1.3l-.36-.63A1.31,1.31,0,0,0,61.59,84.63Z"/><path class="cls-13" d="M56.23,89.11H55.5a1.31,1.31,0,0,0-1.13.66L54,90.4a1.28,1.28,0,0,0,0,1.31l.36.63A1.33,1.33,0,0,0,55.5,93h.73a1.3,1.3,0,0,0,1.13-.65l.37-.63a1.33,1.33,0,0,0,0-1.31l-.37-.63A1.29,1.29,0,0,0,56.23,89.11Z"/><path class="cls-14" d="M42.26,62.91s-5.51,8.23-7.07,10.68S30,82,27,81.06s-5.46-.27-6-5.51-3-14.76-.29-17.35,10-3,13.64-1.89,9.24,4.78,9.24,4.78"/><path class="cls-15" d="M42.74,62.39c-.9.23-6.37,8.58-7.93,11s-7.81,8.65-10,3.25c-2-4.88-3.91-16.07-1-18.48C25.63,56.61,31.38,55.8,35,57a52.09,52.09,0,0,1,8.57,4.14"/><path class="cls-16" d="M39.17,66.86c1.62-2.34,3.14-4.36,3.57-4.47l.82-1.3a59.66,59.66,0,0,0-7.09-3.6c-1.22.38-1.66,1.44-.09,2.29,2,1.1,2.47.78,2.56,1.18s-3.26.66-2.56,2.16,2.68,0,3.2.17S37.12,65.05,38,66.2A1.81,1.81,0,0,0,39.17,66.86Z"/><path class="cls-14" d="M44.37,60.62s-.95-10.1-6-17.66S26.86,30.32,24.66,31.49s-2.05,2.61-2.35,6.13-1.95,13,.48,15.36,5.71,3,9,4S42,60.48,43.22,61.46"/><path class="cls-15" d="M44,60.62a49.46,49.46,0,0,0-5.63-16.17c-1.45-2.51-6.8-8.38-8.13-9.68-2.84-2.77-4.94.52-5.15,2.92-.3,3.52-2.84,15.27.53,16.11,5.86,1.47,16.48,6.54,17.74,7.52"/><path class="cls-16" d="M44,60.62a49.13,49.13,0,0,0-3.11-11c-3.48-3.65-4.55-3-3.62,0,1,3.22,2,4.18,1.36,4.08s-2.72-2.89-3.36-1.28,3.57,3.66,3.69,4.1-2.51-1.72-3.29-1.08S35,57.11,37,58.16c.21.1.89.46,1.15.62a25.89,25.89,0,0,1,5.22,2.54Z"/><g class="cls-17"><path class="cls-18" d="M34.77,41.47a31.5,31.5,0,0,1,6.46,11.58c.67,2,1.7,4.49,2.64,6.81a49.77,49.77,0,0,0-5.51-15.41c-1.45-2.51-7.31-8.54-8.64-9.84-2.84-2.77-4.55,1.52-4.76,3.92-.3,3.52-2.75,14.72.61,15.56.68.17,1.38.37,2.09.58l-.85-.55a2.15,2.15,0,0,1-.63-.53,2.17,2.17,0,0,1-.31-1.12c-.2-2.15,3.24-9.4,4.46-11.16A2.88,2.88,0,0,1,32,40C33.05,39.78,34,40.64,34.77,41.47Z"/></g><path class="cls-14" d="M42,64.35s-5.57,8.2-7.26,10.56-5.86,8-3.84,10.42,2.3,5,7.36,3.5,14.81-2.74,16.19-6.23-.94-10.45-3.36-13.35-7.89-6.79-7.89-6.79"/><path class="cls-15" d="M42.34,63.71c.13.92-5.56,9.12-7.25,11.48s-5.1,10.49.75,10.53c5.26,0,16.36-2.4,17.51-6,.76-2.34-.64-8-3.06-10.89a51.73,51.73,0,0,0-7-6.4"/><path class="cls-16" d="M39.54,68.7c1.55-2.38,2.86-4.54,2.8-5l.9-1.25a59.44,59.44,0,0,1,6,5.23c.11,1.27-.71,2.08-2.08.94-1.79-1.48-1.65-2-2.06-1.92s.61,3.26-1,3.18-1-2.51-1.36-2.9-.71,2.93-2.08,2.6A1.81,1.81,0,0,1,39.54,68.7Z"/><path class="cls-14" d="M43.37,61.54S53.09,58.63,62,60.48s16,5.94,15.77,8.42-1.65,2.87-4.8,4.47-11.35,6.7-14.42,5.31-4.92-4.17-7.07-6.88S44.4,63.72,43,62.92"/><path class="cls-15" d="M43.51,61.89a49.53,49.53,0,0,1,17.1-.84c2.88.4,10.32,3.17,12,3.91,3.63,1.6,1.37,4.78-.77,5.87-3.16,1.6-13.09,8.35-15.13,5.55C53.16,71.5,44.48,63.55,43.1,62.75"/><path class="cls-16" d="M43.51,61.89a49.61,49.61,0,0,1,11.36-1.24c4.69,1.87,4.52,3.09,1.38,3.36-3.36.28-4.65-.33-4.3.26s3.7,1.44,2.44,2.64S49.66,65,49.22,65s2.52,1.67,2.22,2.64-1.31,1.24-3-.2c-.18-.16-.77-.66-1-.84a25.33,25.33,0,0,0-4.31-3.88Z"/><g class="cls-17"><path class="cls-18" d="M64.72,63.26a31.36,31.36,0,0,0-13.15-1.64c-2.14.14-4.81.1-7.31.1a49.73,49.73,0,0,1,16.35-.67c2.88.4,10.66,3.58,12.36,4.33,3.64,1.59.3,4.79-1.85,5.87-3.15,1.6-12.61,8.07-14.65,5.27-.41-.56-.85-1.14-1.32-1.72l.82.58a2.15,2.15,0,0,0,.73.39,2.24,2.24,0,0,0,1.17-.13c2.05-.62,7.49-6.52,8.67-8.32a2.85,2.85,0,0,0,.59-2C66.94,64.23,65.77,63.63,64.72,63.26Z"/></g><ellipse class="cls-19" cx="46.36" cy="59.69" rx="1.27" ry="1.49" transform="translate(-28.96 53.48) rotate(-47.46)"/><path class="cls-19" d="M45.36,59.54s-1.17-.1-2.81,2.09-5.24,7.87-5.34,8.68-.22,1.23.94.54a53.91,53.91,0,0,0,7-7.25,6.61,6.61,0,0,0,1.51-3.27"/><path class="cls-20" d="M46.39,58.72s2.17-3.24,1.31-6.25"/><path class="cls-20" d="M47,59.19s3.25-2.58,5.39-2.64"/><path class="cls-14" d="M91.05,52.66s.67,12.11.94,15.65,1.11,12.07-2.54,13.36-5.55,3.75-9.93-1-13.81-12.22-13-16.76,7.58-10.36,12-11.88S91,49.92,91,49.92"/><path class="cls-21" d="M91.14,51.79c-.72.89.08,13.08.35,16.63s-.6,9.73-6.75,6.08c-5.54-3.29-13.37-11.56-12.32-16,.68-2.93,2.75-4.76,7.12-6.28A63.42,63.42,0,0,1,91,49.92"/><circle class="cls-22" cx="72.24" cy="69.03" r="0.88"/><circle class="cls-22" cx="82.8" cy="78.67" r="0.88"/><circle class="cls-22" cx="69.7" cy="63.11" r="0.88"/><circle class="cls-22" cx="77.23" cy="74.57" r="0.88"/><path class="cls-23" d="M90.93,58.79c-.13-3.47-.14-6.57.21-7L91,49.92a73.08,73.08,0,0,0-9.58,1.69c-.91,1.27-.57,2.64,1.59,2.31,2.81-.43,3-1.05,3.37-.72s-2.7,3-.92,4,2.6-2,3.27-2.18-1.11,3.53.54,4A2.23,2.23,0,0,0,90.93,58.79Z"/><path class="cls-14" d="M93.73,52.47s-.86,12.1-1.2,15.64-1.3,12,2.33,13.39,5.48,3.85,9.94-.81,14-12,13.33-16.54-7.41-10.49-11.76-12.08-12.52-2.34-12.52-2.34"/><path class="cls-21" d="M93.66,51.6c.7.9-.29,13.08-.63,16.62s.45,9.75,6.65,6.19c5.6-3.2,13.56-11.34,12.59-15.84-.63-2.93-2.68-4.79-7-6.39a63.77,63.77,0,0,0-11.4-2.45"/><circle class="cls-22" cx="112.28" cy="69.15" r="0.88"/><circle class="cls-22" cx="101.56" cy="78.61" r="0.88"/><circle class="cls-22" cx="114.91" cy="63.28" r="0.88"/><circle class="cls-22" cx="107.2" cy="74.61" r="0.88"/><path class="cls-23" d="M93.75,58.61c.19-3.48.25-6.57-.09-7l.19-1.87a73.28,73.28,0,0,1,9.55,1.85c.89,1.29.52,2.65-1.62,2.29-2.81-.48-3-1.11-3.37-.78s2.66,3.08.86,4S96.7,55,96,54.86s1,3.55-.61,4A2.19,2.19,0,0,1,93.75,58.61Z"/><path class="cls-14" d="M91.43,48.87S83.08,39.68,72.57,36,52,32.1,50.71,34.86s-.09,4.06,2.21,7.73S60.6,56.79,64.7,57.27,72.48,56,76.46,54.51s12.51-4,14.46-4"/><path class="cls-21" d="M91.06,49.14a60.62,60.62,0,0,0-17.4-11.67,38.25,38.25,0,0,0-9.13-2.66c-4.81-.62-5.65,3.91-4.08,6.4,2.29,3.67,7.5,16.06,11.41,14.42C78.68,52.75,89,50.27,91,50.3"/><path class="cls-23" d="M91.06,49.14a60.75,60.75,0,0,0-11.13-8.47c-6.1-1-6.69.39-3.56,2.65,3.33,2.42,5.08,2.59,4.33,3s-4.78-.82-4.22,1.23,6.18,1,6.62,1.29-3.71.16-4,1.37.59,2.13,3.3,1.69c.28,0,1.21-.21,1.58-.24a31.78,31.78,0,0,1,7-1.35Z"/><circle class="cls-22" cx="54.22" cy="37.41" r="0.88"/><circle class="cls-22" cx="59.16" cy="47.33" r="0.88"/><circle class="cls-22" cx="56.05" cy="42.36" r="0.88"/><circle class="cls-22" cx="62.74" cy="52.72" r="0.88"/><g class="cls-17"><path class="cls-18" d="M68,37.19a38.32,38.32,0,0,1,14.83,6.58c2.16,1.5,5,3.14,7.61,4.72a61.07,61.07,0,0,0-16.73-11,38.25,38.25,0,0,0-9.13-2.66c-4.81-.62-5.65,3.91-4.08,6.4,2.29,3.67,7.5,16.06,11.41,14.42.79-.33,1.62-.66,2.47-1l-1.23.1a2.86,2.86,0,0,1-1-.06A2.66,2.66,0,0,1,71,53.82a45.63,45.63,0,0,1-5-6.14,15.17,15.17,0,0,1-2.52-7.38,3.51,3.51,0,0,1,.64-2.48C65,36.8,66.61,36.91,68,37.19Z"/></g><path class="cls-14" d="M93.42,48.67s8.5-9,19.07-12.56,20.63-3.56,21.87-.77,0,4.06-2.34,7.69-7.91,14.07-12,14.48-7.76-1.39-11.72-2.95S95.85,50.35,93.9,50.35"/><path class="cls-21" d="M93.78,49a60.48,60.48,0,0,1,17.6-11.39,38.83,38.83,0,0,1,9.16-2.51c4.82-.54,5.59,4,4,6.47-2.36,3.63-7.77,15.94-11.65,14.22-6.77-3-17-5.63-19-5.63"/><path class="cls-23" d="M93.78,49a61,61,0,0,1,11.27-8.29c6.12-.9,6.69.49,3.52,2.71-3.38,2.36-5.12,2.5-4.39,2.91s4.8-.74,4.21,1.3-6.2.86-6.64,1.18,3.71.23,4,1.44-.62,2.12-3.32,1.64c-.28-.05-1.21-.23-1.58-.27a31.24,31.24,0,0,0-7-1.46Z"/><circle class="cls-22" cx="130.81" cy="37.83" r="0.88"/><circle class="cls-22" cx="125.71" cy="47.67" r="0.88"/><circle class="cls-22" cx="128.9" cy="42.75" r="0.88"/><circle class="cls-22" cx="122.04" cy="53" r="0.88"/><g class="cls-17"><path class="cls-18" d="M117.09,37.38A38.38,38.38,0,0,0,102.25,44c-2.15,1.49-4.71,2.37-7.34,4a52.45,52.45,0,0,1,16.47-10.26A48.06,48.06,0,0,1,120.5,35c4.82-.62,5.66,3.9,4.09,6.4-2.3,3.67-7.5,16.06-11.42,14.41-.78-.33-1.61-.65-2.47-1l1.24.09a2.65,2.65,0,0,0,1,0,2.74,2.74,0,0,0,1.13-.87,44.79,44.79,0,0,0,5-6.14,15.11,15.11,0,0,0,2.53-7.39,3.49,3.49,0,0,0-.64-2.47C120,37,118.42,37.11,117.09,37.38Z"/></g><ellipse class="cls-19" cx="92.69" cy="46.49" rx="1.56" ry="1.83" transform="translate(37.37 134.19) rotate(-84.4)"/><path class="cls-19" d="M91.6,47.08s-1.21.77-1.21,4.11.66,11.56,1.17,12.43.68,1.35,1.3-.17,1.56-9.93,1.49-12.22-.45-3.74-.92-4.32"/><path class="cls-24" d="M92,45.52s-.25-4.77-3.31-7.09"/><path class="cls-24" d="M93,45.5s1.29-4.92,3.34-6.55"/><path class="cls-25" d="M134.31,35.68c-1.17-2.63-10.21-2.74-20.1.21,1.1-4.66.9-9.25-1.61-12.37a1.87,1.87,0,0,0-.94-.73,2,2,0,0,0-1.5.49c-3.09,2-11.87,6-15.54,6A20.63,20.63,0,0,1,96,25.4,41,41,0,0,0,80.85,27c-4.13,1.22-9.95,4.26-13,7.87-8.64-2.25-16.06-2-17.15.3-.94,2-.55,3.26.62,5.2a72.8,72.8,0,0,0-10.07,8.4,32.1,32.1,0,0,0-2.88-5.5c-5-7.57-11.52-12.64-13.72-11.47S22.56,34.44,22.26,38s-2,13,.48,15.36a13,13,0,0,0,5.08,2.81c-2.87.23-5.71,1-7.19,2.41-2.36,2.24-.82,9.69,0,15-1.88,5.88-2.87,14-2.07,18.24a34.55,34.55,0,0,0,7.73,15.49l1.83,1c-.47.84.44,2.51,0,4.13-1.59,5.38,1.45,11.44,2.8,13.81,0,0-.61,4.25.23,4.69,2.83,1.5,7.58-1.84,9.4-6.49.26-.67.78-3.55-1.1-3.4-4.6.37-6.28-2.72-5.72-5.16.24-1.08,1.73-2.17,2.48-3l0,0,3.39,1.93a38.67,38.67,0,0,0,32.29,2c10.32-4.16,31.81-28.53,28.68-29.45-.49-.14-3.81,1.45-9.82,1-2.28-.15-2.27-1.8,2.34-3.56a33,33,0,0,0,4.17-1.93c2.28,1.06,4.15,1.63,7.52-1.89,4.46-4.66,14-12,13.33-16.54-.37-2.48-2.54-5.37-5.13-7.74a16,16,0,0,0,7,1.1c4.1-.41,9.65-10.86,12-14.48S135.55,38.47,134.31,35.68Z"/></g></g></svg>