<?xml version="1.0" encoding="utf-8"?>
<!-- Generator: Adobe Illustrator 24.0.0, SVG Export Plug-In . SVG Version: 6.00 Build 0)  -->
<svg version="1.1" id="Capa_1" xmlns="http://www.w3.org/2000/svg" xmlns:xlink="http://www.w3.org/1999/xlink" x="0px" y="0px"
	 viewBox="0 0 265 110" style="enable-background:new 0 0 265 110;" xml:space="preserve">
<style type="text/css">
	.st0{clip-path:url(#SVGID_2_);}
	.st1{clip-path:url(#SVGID_4_);}
	.st2{fill:#83582A;}
	.st3{opacity:0.24;}
	.st4{fill:#573C22;stroke:#83582A;stroke-width:1.9;stroke-miterlimit:10;}
	.st5{fill:#421E0A;}
	.st6{fill:#573C22;}
	.st7{fill:#0F0502;}
	.st8{fill:#714A23;}
	.st9{fill:#0F0502;stroke:#0F0502;stroke-width:3.45;stroke-miterlimit:10;}
	.st10{fill:#6B4220;}
	.st11{fill:#523D2B;}
	.st12{fill:#7B5126;}
</style>
<title>Recurso 32</title>
<g id="Capa_2_1_">
	<g id="Capa_5">
		<g>
			<defs>
				<path id="SVGID_1_" d="M28.7,104.5c4.8,1.4,9.7,2.7,14.7,2.3c5.7-0.5,40.8,3.2,52.6,0.5c2.3-0.5,10.6-1.7,12.5-1.5
					c9.7,0.9,19.4,0.6,29.1,0.3l29.2-1l13.6-0.5l19.7-0.7c1.6-0.1,3.3,0,4.9,0.3c1.3,0.3,25.8-2.3,30.2-1.5c3.1,0.1,6.1-0.1,9.1-0.7
					c2-0.6,12.3-2.4,16.5-1.8c1.9-3.4,2-7.5,0.1-10.9c-3-5.3-10.8-7-15.8-3.5c2.5-5.2,0.3-11.5-5-14c-2.8-1.3-6-1.4-8.9-0.1
					c0.9-3.5-1.2-7.1-4.8-8c-2.8-0.7-5.7,0.5-7.2,2.9c1-7.3-4.7-14.8-12-15.7c3-1.8,2.3-6.8-0.2-9.3s-6.2-3.5-9.3-5.1
					c-3.4-1.8-6.3-4.5-9.9-5.7s-8.5-0.1-9.7,3.5c-0.2-5.9-6.8-10.7-12.5-9c1.4-5-0.9-10.3-5.6-12.5c-1.5-0.7-3.3-1-4.5-2.2
					c-1.6-1.5-2-3.8-3.2-5.7c-3-4.8-11.9-3.7-13.6,1.8c-2.8-4.1-8.4-5.2-12.5-2.4c-2.3,1.6-3.8,4.1-3.9,6.9
					c-8.3,1.6-12.8,13.1-7.7,19.9c-2.9-1-5.9,1.3-7.5,4s-2.7,5.7-5.1,7.6c-3.7,2.9-9.1,1.7-13.5,3.4c-3.8,1.5-6.4,4.9-7,8.9
					c-6.8-2.5-14.4-0.5-21.4,1.6c-3.1,0.9-6.4,1.9-8.8,4.2s-3.6,6.2-1.8,8.9c-5.2-1.8-11.4,2.9-11,8.4c-5.9-1-11.8,5.1-10.7,11
					c-2.2-2.3-6-1-8.9,0.5c-4.8,2.6-9.4,5.5-13.9,8.7c0.6,0.6-3,6.1-2.4,6.6C9.7,106.2,23,102.9,28.7,104.5z"/>
			</defs>
			<clipPath id="SVGID_2_">
				<use xlink:href="#SVGID_1_"  style="overflow:visible;"/>
			</clipPath>
			<g class="st0">
				<g id="Capa_2-2">
					<g id="Capa_5-2">
						<g>
							<defs>
								<path id="SVGID_3_" d="M-25,138.3c-2.2-1.1-3.9-2.5-5.8,0.8c-1,1.8-3.2,2.4-5,1.4c-0.2-0.1-0.4-0.3-0.6-0.4
									c-1.1-0.6-2.3-1-3.6-1.1c-4.2-1.1-5.2-2.7-4.2-8.2c-2-0.4-3.8-3-5.8,0.6c-0.3,0.6-1.9,0.6-2.7,0.4c-0.6-0.6-1-1.4-0.9-2.3
									c0.2-2.9-1.4-2.7-2.8-3c-0.6,4.4-1.6,5.5-5.3,5.3c-2.9-0.2-5.8-0.6-8.6-1.3c-2.5-0.8-2.8-2.3-1.6-4.9
									c0.9-1.9,2.2-3.8,3.3-5.7c0.8-2.1,3.2-3.2,5.3-2.3c0,0,0.1,0,0.1,0.1c1,0.5,2.2,0.1,2.7-0.9c0.1-0.1,0.1-0.3,0.1-0.4
									c0-0.2,0-0.2,0.2-0.4c1.9-4.6,3.9-9.1,6.3-13.5c1.9-2.7,4.1-5.2,6.7-7.2c3.1-2.8,7-4.4,9.2-8.6c0.3-0.7,0.9-1.3,1.6-1.5
									c3.6-1,6.1-4.2,8.4-7c3.1-4.3,5.9-8.8,8.4-13.5c1.9-3.2,3.4-6.5,5.3-9.7c1.6-2.7,3.3-5.3,5.2-7.8c1.5-2.1,3.3-3.9,5.3-5.5
									c2.7-2.1,6.1-3,8.1-5.7c3.3-4.2,7.2-5.3,11.4-6.7c3.3-1,6.4-1,8.8,2.8c0.3,0.6,0.8,1,1.4,1.1c4.2,1.5,8.3,3.4,13,2.3
									c4.6-1,9.2-1.5,13.9-1.5c2.2,0,4.3-1.4,5.2-3.4c1.3-2.3,2.8-4,5.3-3.8s3.6-1.9,4.9-3.8c2.2-3.4,4.1-7.4,6.9-9.5
									c3.1-2.5,7-3.4,10.6-4.6c4.4-1.3,8.9-1.9,13.1-3.6c2-0.8,3.4-3.4,5.2-5.1c0.7-0.7,1.5-1.4,2.4-2.1c3.2-2.3,5.9-5.3,8-8.7
									c2.6-4.3,5.6-8.2,9.2-11.7c2.7-2.5,6.3-2.3,9.7-1.1c7.2,2.5,11.9,8.6,15.6,16c1.8,4.1,3.9,8,6.3,11.8c1.7,3,4.8,5,8.3,5.2
									c3.6,0,6.9,1.9,9.5,4.9c4.4,4.9,8.8,10.1,15,11.8c0.7,0.3,1.5,0.3,2.2,0.2c7.4-1.7,12.7,2.1,17.5,8.4
									c1.7,2.1,3.7,3.9,5.9,5.3c3.8,2.5,3.6,2.3,6.4-2.1c3.4-5.3,7.4-10.3,13-12c2.7-0.7,5.6-0.6,8.3,0.2c5.8,2,11.4,4.3,16.9,7
									c4.2,2.4,7.7,5.8,10.2,9.9c3.4,5,6.4,10.5,11,14.3c4.4,3.8,7.6,9.1,11.6,13.7l3.8,4c3,3.2,6.1,6.3,8.9,9.9
									c2.2,3.2,4.4,6.5,6.3,9.9c2.5,4.2,5.1,8.2,7.8,12.5c1.1-0.5,2.2-1,3.3-1.3c3.1-0.2,6.3-0.4,8.1,3.6c0.7,1.6,2.1,2.9,3.8,3.4
									c2.4,1.2,4.6,2.7,6.6,4.6c1.7,1.5,0.6,2.7-0.6,3.8c-3.8,3.2-8.3,3.6-12.7,3.6c-2,0-3.9-0.6-5.2,2.1c-0.7,1-1.9,1.5-3.1,1.3
									c-2.5-1.3-4.4,0-6.9,1.3l3.8,2.1c2.4,1.2,3.7,3.8,3.3,6.5c-0.3,2.9-2,5.3-4.4,5.9c-2.8,1-5.4,2.3-8,3.8l0.1,1.1
									c1.4,0.5,2.8,1.1,4.1,1.9c1.1,0.8,1.9,1.9,2.2,3.2c0.2,0.9-1.1,2.7-2,3.2c-2.8,1.6-6,2.3-9.2,1.9c-3-0.2-5-2.9-3-6.5
									c0.6-1.1,1.1-2.3,1.6-3.2c-3.9-1.7-7.5-3.2-11.1-4.6c-0.9-0.1-1.8,0.2-2.5,0.8c-2.7,2.3-5.3,4.7-7.8,7.2
									c-3.1,3.2-6.3,6.1-10.5,6.1c-0.2,0.4-0.3,0.6-0.2,0.8c2,6.1,0.9,8.9-4.4,10.6c-4.2,1.3-8.3,3-12.5,4.4c-1,0.2-2,0.2-3-0.2
									c-4.7-2.1-9.4-4.4-14.2-6.5c-2.2-0.9-3.8-2.3-3.6-5.3c-3.3,2.1-7.3,2.7-11.1,1.8c-2.7-0.2-5.4-0.2-8.1,0
									c0.1,1,0.2,1.9,0.3,2.9c1.6,7.2-1.4,13.1-7.5,14.1c-3.6,0.6-7.3,0.8-10.9,0.6c-6.9-0.2-13.9-0.8-20.8-1.1
									c-1.7,0.2-3.4,0-5-0.4c-2.2-1-4.2-2.3-6.1-3.8c-1.7-1.3-3-3.2-4.8-0.2c-1.3,1.9-8.8,1.1-9.5-1c-0.5-2.1-0.5-4.2,0-6.3
									c0.2-0.8,2.2-1.5,3.1-1.1c2.2,0.6,2.7-0.8,3.3-3c-17-5.5-33.9-10.3-52.2-8l2,4.6c-0.9,2.1-2.9,3.4-5.2,3.2
									c-5.3-0.6-10.6-1.1-15.9-1.9c-1.9-0.2-3.6-1.1-3.3-4.2c-16.5,0.4-33.1-0.4-49.5-2.5c-0.9,5.9-2.3,8-7.3,8.7
									c-3.9,0.4-7.8,0.5-11.7,0.2c-5.3,0-10.7-0.4-15.9-1.1c-5.9-1.2-11.3-4.3-15.5-8.7c-3.8-3.6-6.4-9.7-2.3-15.4
									C-25.2,139.7-25.3,139-25,138.3z"/>
							</defs>
							<clipPath id="SVGID_4_">
								<use xlink:href="#SVGID_3_"  style="overflow:visible;"/>
							</clipPath>
							<g class="st1">
								<rect x="-81.6" y="-42.3" class="st2" width="434.4" height="270.9"/>
								<rect x="-95.1" y="-227.6" class="st2" width="553.3" height="314"/>
								<path class="st2" d="M458.3,43.9V95l-9.8,1.7c-3.6,0.6-7.2,1.3-10.8,1.9c-2.1,0-4.2,0.2-6.3,0.6c-3.3,0.9-6.6,0-9.9-0.2
									c-4.5-0.2-9.1-1.3-13.6-1.9s-9.5-1.1-14.2-1.5l-4.8-0.6c-3.5-0.6-7.1-1.1-10.6-1.3c-2,0-4.1-0.8-6.1-0.8c-3,0-5.9-0.8-9.1-1
									c-7.2-0.2-14.4,0.1-21.6,1c-2.8,0.4-5.5,0.4-8.3,0.6l-5.5,0.6c-3.4,0.4-6.9,1-10.3,1.5s-6.7,0.8-10,1.1s-6.9,1-10.5,1.5
									l-6.7,0.6c-3,0.5-6,0.9-9.1,1c-7.1,0.3-14.3,0.2-21.4-0.4c-4.7-0.6-9.4-0.8-14.1-1.1c-4.4-0.4-8.8-0.8-13.1-1
									c-6.6-0.6-13.1-1.1-19.7-1.5c-3.8-0.2-6.6,14.5-10.3,14.5c-12.3-1.5-11.1-2.3-27.5,4.8c-3.3,0.2-37.5,0-40.2-0.2
									c-3,0-4.1-2.9-6.9-2.7s-5.5-14.6-8.3-14.4l-10.2,0.6l-8.3,0.6l-17.8,1.1l-8,0.2l-10.8,0.6l-9.7,0.6
									c-4.5,0.2-9.2,0.6-13.8,0.6c-7.3,0-14.5,0.6-21.9-0.4c-3.9-0.4-7.8-0.4-11.9-0.6l-7.8-0.6l-11.4-0.6c-1.5,0-2.9-0.2-4.4-0.4
									c-2.5-0.2-4.8-0.6-7.3-0.6l-10.8-0.6h-0.6c-3-0.4-5.9-0.8-8.8-1l-7.2-0.6c-4.2-0.4-8.6-1.3-12.8-1.3
									c-10.5-0.2-20.8,0-31.3,0V47.8c0-1.1,0-2.3,0.2-3.4c0.3-0.4,0.9-0.6,1.1-1c0.3-0.7,0.5-1.5,0.6-2.3c1.4,0.2,2.5,1,3.1,2.3
									c0.6,1.2,1.4,2.5,0.3,4c-0.1,0.2-0.1,0.5,0,0.8c0.3,1.7,0.9,3.3,1.7,4.8c1.3,1.5,3,2.7,4.8,3.4c1.2,0.2,2.3-0.4,3-1.3
									c0.6-1.3,0.5-2.8-0.3-4c-0.5-0.8-1.1-1.3-1.6-2.1c-0.5-0.7-0.5-1.6,0-2.3c0.2-0.2,0.3-0.2,0.5-0.4l1.4,1.3
									c0.9-0.4,1.5-1.3,1.4-2.2c0-0.8,0.2-1.5,0.2-2.3c7-5.9,13-13.3,19.7-20.2c0.2,1.2,0.5,2.3,0.8,3.4c0.9,3.2,2,6.5,3,9.7
									c0.4,1.6,0.7,3.2,0.9,4.8c-0.3,0.4-0.5,1-0.8,1c-2.5-0.6-4.7,1.1-7,1.1c-1.6,0.4-3,1-4.4,1.9h-0.8c-2.2,1.3-4.7,2-7.2,2.1
									c-0.2,0-0.3,0.6-0.3,1c-1.3,0.7-2.5,1.4-3.6,2.3c-0.5,0.5-0.8,1.2-0.8,1.9c0.6,2.3,1.6,4.4,2.3,6.5c0,0.8-0.2,1.6-0.5,2.3
									c-1.9,2.6-2.5,5.9-1.6,9c-1.9-0.8-3,1-4.4,1.7c-1,0.6-1.7,1.7-1.6,2.8c0,0.9,0.2,2.1,0.2,3l-0.2,2.5
									c1.4,0.5,2.9,0.3,4.2-0.4c0.3,0.2,0.9,0.6,1.1,0.4c0.9-1,2-1.5,2.2-3v-4c0.5,0,1,0,1.4,0.2c3,1.5,6.2,2.1,9.5,1.9h6.4
									l0.6,3.2c-0.5,2.9-0.3,3,2,3.8c1,0.3,2,0,2.7-0.8l1.3-1.1c1.3-1.5,1.5-3.6,0.6-5.3c3.4-0.4,6.7-1.1,10-1.9
									c4.9-1.5,9.6-3.4,14.4-5.3h2.5c1.8-0.1,3.3-1.3,3.8-3c0.5-1.9,1.3-4,1.9-5.9l3.4-4.4l0,0l1.7-2.1l0,0l1.6-2.1l0,0
									c0.6-0.9,1.2-1.8,1.9-2.7c1.1-1.1,0.8-2.7,0.8-4.2s-0.8-1.5-1.7-0.8c-1.4,1.1-2.5,2.6-3,4.4l-0.5,1.3l-0.5,0.6l-0.5,0.8
									l-0.9,1.5l-0.5,0.6h-0.8c0-0.6,0.2-1,0.2-1.5c0.4-1.1,0.7-2.1,0.9-3.2c0.5-1.9,0.6-3.8,1.1-5.7h4.2l11.9,1.1L10,45
									c2.3,0.8,4.7,1.3,7.2,2.1c2.7,0.8,5.3,1.5,8,2.5c1.4,0.6,2.8,1,4.1,1.3c1.5,0.5,3,1.2,4.4,2.1c1.6,0.8,3.3,1.5,3.6,3.8
									L36,58.5c0.3,0.9,0.6,1.3,1.4,1.1c3.9-1.1,7.8-2.1,11.7-3.2c5-1.7,10.2-3.4,15.2-5.5c7.9-3.3,15.5-7.3,22.7-12
									c0.9-0.6,1.7-1.3,2.4-2.1c0.6-0.6,0.8-1.5,0.3-2.3l-0.2-0.2l0.2-3.6l0.8-1.7l4.2,2.3c0.8-0.4,1.6-0.8,2.5-1
									c0.6-0.2,1.4,0.2,1.9-0.2c1.3-0.5,2.4-1.4,3.3-2.4c0.8-1.3-0.6-2.1-1.4-3c0-0.2,0-0.4-0.1-0.6l1.3-1.3l7.3,0.4l-0.8-2.1
									c1.7,0.6,3.7,0.1,5-1.1h3.4l-0.8,1.1c2-0.6,3.4,0.6,5.2,1.3l-1.9,1.1l3.8,2.2l-2.8,0.8v0.4l2.4,0.8l0,0l0.3,1.3l0.5-1h0.5
									c0.1,1,0.6,1,1.3,0.6l0,0c0,0.5,0.1,1,0.3,1.5c0.8,1.5,2.2,1,3.4,1c1.3,2.5,0.9,5.3,2,7.8c0.2,0.2-0.2,0.6-0.3,0.9l-1,2.7
									c-1.9-0.7-3.4-2.3-3.8-4.4l2-1.1c0.2-0.9,0.2-1.8,0-2.7c-0.2-0.8-0.6-1.6-1.3-2.1c-1.2-0.6-2.7-0.2-3.4,1
									c-0.9,1.2-1.1,2.8-0.5,4.2c0.6,1.2,1.2,2.3,1.9,3.4c0.9,1.3,1.9,2.5,2.8,3.6c-5.4,0.2-10.7,1-15.9,2.3c-2,0.6-4,1.3-5.9,2.3
									c-0.7,0.4-1.2,1-1.6,1.7c-0.6,1.1-1.1,2.3-1.7,3.4c-1.6,3-1.3,4.2,1.7,4.8c2.9,0.6,5.8,0.9,8.8,1c4.1,0,8.1-0.2,12.2-0.6
									c1.8,0,3.6-0.2,5.3-0.6c4.1-0.8,8-1.5,12-2.5c4.7-1.1,9.5-2.3,14.2-3.6c3.4-1,6.7-2.3,10.2-3.4c0.3,0.4,0.5,0.9,0.6,1.3
									c0.4,2.8,1.5,5.5,3.3,7.8c1.3,2.1,3.3,3.8,5.6,4.8c0.1,0.2,0.2,0.5,0.2,0.8c1.1,0.6,2.3,1.1,3.4,1.7c1,0.2,2-0.2,2.6-1
									l2.7-1.6c0.3,0,0.6,0.4,0.8,0.2c0.9-0.6,2-1.3,3-1.9c1.7-1.3,3.4-2.7,5.2-3.8c2.5-1.3,5.2-2.5,7.8-3.6
									c1.3-0.6,2.5-1.3,3.6,0.6c0.4,0.5,1.1,0.8,1.7,0.8c1.7,0.4,3.5,0.6,5.3,0.6c7.2,0,14.5,0.6,21.7-1c3.3-0.6,6.7-0.9,10-1.7
									c5.6-1.3,11.3-2.9,16.9-4.6c3.6-1.1,7.2-2.7,10.8-4l8.1-0.6c0.9-0.2,1.7-0.6,2.5-1h2.5c2.3,0,4.4-1.2,5.8-3
									c1.8-2.8,3-6,3.6-9.3c0.3-0.4,0.8-0.8,0.8-1c-0.1-1-0.5-2.1-0.9-3c-1.4-2.3-1.3-3.4,0.8-5.1c1.1-0.8,2.4-1.1,3.8-0.8
									c1.3,0.2,2.3,1.3,2.5,2.7c0.1,1.7-0.8,2.1-1.9,2.7c-0.6,0.4-1.1,0.9-1.6,1.5c-1.1,1.3-1.1,1.9,0.2,3c0.4,0.4,0.9,0.7,1.4,1
									c1.6,0.2,3.2,0.4,4.9,0.4c1.7,0,2.2-0.8,2.2-2.7v-3c1.4,0.3,2.8,0.8,4.1,1.5c1,0.9,1.7,2,2.2,3.2c0.2,0.6,0.1,1.3-0.2,1.9
									c-0.2,0.6-0.8,1-1.4,0.8c-0.1,0-0.1,0-0.2-0.1c-2.4-0.6-2.7,0-1.9,2.8l0.2,0.4c1.1,0.7,2.2,1.2,3.4,1.7
									c1.2,0.2,2.5,0.2,3.8,0c0.2-1.5,0.5-2.7,0.6-4c0.5,0,1.1,0,1.6,0.2c1.1,1,2.2,2.1,3.1,3.2c1.1,1.3,1.1,3.2,0.2,4.6l-3.3,0.8
									c0.1,1.2,0,2.3,0.5,3c1,1.7,2.3,3.3,3.6,4.8c1.7,1.7,3,1.1,3.6-1.3c0-0.4,0.1-0.8,0.1-0.9c0-0.8,0.3-1.7,1.1-1.5
									c0.5,0,0.9,0.8,1.1,1.3c0.9,2.5,0.2,4.9-0.5,7.4c-1.4,0.4-2.8,0.8-4.1,1.1c-0.5,0.2-0.9,0.6-1.1,1.1
									c-0.5,0.8-0.9,1.5-1.6,2.5c0.2,0.2,0.3,0.4,0.5,0.4c1.6,0.8,3.3,1.5,4.9,2.3l1.4,1.1c-2,0.2-4.1-0.6-6.3-0.6
									c-2.5,0-5.2-0.8-7.8-1c-4.5-0.4-9.1-0.6-13.6-0.6c-9.9,0.2-19.7-0.6-29.5,0.4c-5.1,0.6-10.3-0.2-15.5,0.6
									c-3.6,0.6-7.2,0.4-10.8,0.6l-7.2,0.6l-10.2,0.6l-9.2,0.6h-0.6c-2.4,0.4-4.7,0.8-7,1l-7.2,0.6c-0.9,0-1.8,0.2-2.7,0.4
									l-9.7,1.1l-5,0.6c-2.8,0.4-5.6,1-8.3,1.5l-9.7,1.9c-1.2,0.4-2.5,0.2-3.4-0.6c-1-0.9-2.2-1.5-3.4-1.7c-2.9-0.8-6-1.2-9-1.4
									c-8.1,0-16.3,0.2-24.4,0.4h-0.5l-7.2,1c-2.8,0.4-5.6,0.6-8.3,1.1c-3.3,0.6-6.4,1.5-9.7,2.3c-0.6,0-1.1-0.2-1.6-0.6
									c-2.1-1.3-4.3-2.4-6.6-3.4c-4.7-1.4-9.6-2.2-14.5-2.5c-4.7-0.4-9.4-0.4-14.2-0.6c-2.3-0.2-4.7-0.2-7,0
									c-3.1,0.6-6.3,0.6-9.4,0c-0.4,0-0.9,0.2-1.3,0.4c-1.1,0.4-2.3,0.6-3.4,0.6c-1.2-0.2-2.4,0-3.6,0.4c-0.3,0.2-0.7,0.2-1.1,0.2
									c-3.5,0.1-6.9,0.4-10.3,1c-3.8,0.6-7.7,1-11.6,1.5l-6.3,0.9c-2,0.4-4.1,0.6-6.1,1C0.3,73.7-4.8,75-9.7,76.6
									c-2.4,0.7-4.6,1.7-6.7,3c-2.8,1.5-3,3.8-0.6,6.3c3.4,3.4,7.5,4.9,11.7,6.1c3.6,1.1,7.2,1.7,10.6,2.5c2.3,0.6,4.7,1,7.1,1.2
									c2.3,0.2,5,0.4,7.5,0.6c3.8,0.4,7.5,1,11.1,1c4.4,0.2,8.9,0,13.3-0.4c4.4-0.6,9.1-0.4,13.8-1.1c1.6-0.2,3.1-0.4,4.5-0.6
									c4.1-0.4,8.2-0.9,12.2-1.7l15-4c4.3-1.2,8.4-3.1,12.2-5.5c0.7-0.4,1.4-0.6,2.2-0.6c1.1,0,2.1,0.2,3.1,0.6
									c3.8,1.2,7.8,1.8,11.9,1.9c8.6,0.2,17,0.6,25.6-1c2.7-0.3,5.4-0.8,8-1.5c3.3-1.1,6.9-2.3,10,0.6l1.4,0.6
									c4.2,1.4,8.5,2.4,12.8,3.2c2.8,0.3,5.6,0.8,8.3,1.5l5,0.6c3.3,0.6,6.6,1.1,9.8,1.5c3.6,0.4,7,0.4,10.6,0.6h1.3
									c3.9,0.4,7.7,1,11.6,1c14.2-0.2,28.3,0.6,42.5-0.4c2.5-0.2,5.1,0,7.6,0c3-0.2,5.9-0.8,9.1-1l9.5-0.6h0.6l6.7-1
									c1.6,0,3.1-0.2,4.7-0.4c3.4-1,6.9-1.1,10.5-1.7c4.5-0.8,8.9-1.1,13.3-2.3c5.2-0.9,10.2-2.3,15.2-4.2
									c1.9-0.8,3.6-1.9,5.5-2.9c0.8-0.5,1.3-1.3,1.3-2.3c0.2-1.5-0.8-2.7-0.9-4.2c2.6,0.4,5.3,0.9,8,1.3c1.3,0.2,2.5,0.2,3.6,0.4
									c2.4,0.5,4.9,0.9,7.4,1c5.5,0.2,10.9,0,16.4,0c4,0.4,8,0,11.9-1.1l1.3-0.4l0,0c1-0.2,2-0.5,3-0.9c2-1,3.9-1.9,5.9-2.8l3-1
									c0.5,0.6,1.1,0.6,1.1,0c0-0.9,0.8-0.6,1.1-1.1l4.1-2.1c4.7-2.2,9.1-4.8,13.3-7.8c1.4-1.1,3.2-1.7,5-1.7
									c1.4,0,2.7-0.2,4.1-0.4l1.7-0.6h1.6c1.1,0.8,2.2-0.8,3.1-0.2c1.6-1.3,3.6-2,5.6-2.1c1.9,0,3.4-1.7,3.8-4
									c0.2-0.8,0.4-1.7,0.6-2.5l-2-1.1l-0.3-0.8c-0.6,0.2-1.4,0.6-1.6-0.8c0-0.2-0.6-0.2-0.9-0.4l-2.2-0.6l-4.4-1.3
									c-0.2-0.2-0.5-0.6-0.6-0.4c-1.9,0-3.8,0.2-5.6,0.4c-0.6,0-1.4,0.6-1.4-0.8l0.8-0.6l0,0c2-1,4.5,0.4,6.4-1.9
									c-0.5-0.9-1.1-1.7-1.7-2.5c-0.5-0.6-0.6-1.4-0.2-2.1l0.2-0.2c0.9-1.7,3-2.3,4.7-1.3c0.8,0.4,1.6,0.6,1.6,1.7
									s-0.6,1.3-1.3,1.9s-2,1-2.2,2.5c1.8,2.1,5,2.4,7.2,0.8v-1.3c0-2.1,0.5-2.7,2.2-2.3c0.6,0.2,1.4,0.4,2,0.6l0,0
									c0,0.8,0.3,1.1,0.9,1l0,0l0.5,1.1c0.6,1.9,0.6,1.9-0.5,2.7h-2.8v2.1C455,43.1,456.6,44.2,458.3,43.9z"/>
								<g class="st3">
									<path class="st4" d="M118.3,47.8c-1.1,0.6-2.1,1.3-3.1,2.1c-0.6,0.4-1.1,1-1.7,1.3c-1.4,0.7-3,0.1-3.7-1.3
										c-0.1-0.2-0.2-0.4-0.2-0.6c0-0.2-0.2-0.2-0.2-0.4c0-0.5,0.1-0.9,0.3-1.3c0.5-0.8,1.3-1.5,1.7-2.3c0.6-0.8,1.6-1.1,2.5-0.8
										c1.2,0.6,2.4,1.2,3.6,1.9C117.8,46.7,117.8,47.3,118.3,47.8z"/>
									<path class="st4" d="M161.6,43.9c-0.6-0.8-0.5-1.9,0.2-2.7c0.2-0.2,0.4-0.3,0.6-0.4l2.4-0.6c1.6-0.6,3.3,0.6,3.6,2.7
										c0,0.2,0,0.4,0.2,0.6c0,0.4,0,0.8-0.2,1.2c-0.9,1.2-2.3,2-3.8,2.3c-0.3,0-0.5,0-0.8-0.2C163.2,45.8,162.4,44.8,161.6,43.9z
										"/>
									<path class="st4" d="M137,27.9c0.6,0.5,0.8,1.4,0.3,2.1c-0.1,0.2-0.1,0.4-0.3,0.4c-0.8,0.7-1.6,1.3-2.5,1.9
										c-1.2,0.9-2.9,0.7-3.8-0.5c-0.2-0.3-0.3-0.5-0.4-0.9c-0.1-0.1-0.1-0.2-0.2-0.4c-0.2-0.4-0.1-0.9,0.2-1.3
										c0.6-1.1,1.4-2.1,2.3-2.8c0.5-0.3,1.2-0.4,1.7-0.2C135.1,26.7,136,27.3,137,27.9z"/>
									<path class="st5" d="M118.1,34.3c1.2,0.1,2.2,1.1,2.2,2.3c-0.3,1.3-1.1,2.3-2.2,2.3c-1.2-0.2-2.1-1.3-2.2-2.5
										C116.2,35.4,117.1,34.6,118.1,34.3z"/>
									<path class="st6" d="M124.1,48c-0.9,0.2-1.9-0.8-2-1.9c0.2-1.5,1.1-2.7,2.4-2.7c0.8-0.2,1.6,0.6,1.7,1.7v0.4
										C126.2,47.1,125.4,48,124.1,48L124.1,48z"/>
									<path class="st6" d="M112.5,34.3c-1.6,0-2.2-0.8-2.2-2.3c0-1.3,0.6-1.9,1.9-1.9c1.2-0.1,2.3,0.8,2.3,2c0,0,0,0,0,0.1
										C114.4,33.6,113.5,34.6,112.5,34.3z"/>
									<path class="st6" d="M154.7,37.8c0.1,1.2-0.7,2.3-1.9,2.7h-0.2c-0.9,0-1.7-1-1.7-2.3l0,0c0-1.2,1-2.3,2.2-2.5
										C154.2,35.7,154.7,36.2,154.7,37.8z"/>
									<path class="st6" d="M144.2,36.4c0,1.5-0.9,2.7-2,2.7c-0.9,0.2-1.7-0.8-1.9-1.7V37c-0.1-1.3,0.8-2.5,2.1-2.7c0,0,0,0,0.1,0
										C143.8,34.6,144.2,35.1,144.2,36.4z"/>
									<path class="st6" d="M143.5,48c1-0.1,1.9,0.7,2,1.8c0,0.1,0,0.2,0,0.3c0,1.1-0.9,2.1-2,2.3c-1.2-0.1-2.1-1.1-2-2.3
										c0,0,0,0,0,0v-0.2C141.4,48.6,141.9,48,143.5,48z"/>
									<path class="st6" d="M101.6,44.2c1.1-0.2,2,0.8,2.2,2.3v0.2c-0.3,1.1-1.3,2.1-2.2,1.9c-1.1-0.1-1.9-1-1.9-2.1v-0.2
										C99.7,45.3,100.5,44.3,101.6,44.2z"/>
									<path class="st6" d="M150.8,30.2c-1.4,0-2-0.6-2-2.1c-0.2-1,0.5-2,1.5-2.3h0.3c0.9-0.2,1.9,0.8,2,2.1v0.4
										c0.1,0.9-0.6,1.8-1.5,1.9C151,30.2,150.9,30.2,150.8,30.2z"/>
									<path class="st5" d="M72,34.3v-0.8c0.3-0.4,0.6-0.7,0.9-1c0.6-0.5,1.4-0.5,2,0c0.7,0.7,0.9,1.8,0.5,2.7
										c-0.3,0.5-0.6,1-0.9,1.5l-0.9-0.2L72,34.3z"/>
									<path class="st6" d="M191,36.1V34c0.6,0,1.2,0,1.7-0.2c0.5-0.2,0.6-1,0.9-1.5c1.1,0.3,1.7,1.4,1.6,2.5
										c-0.1,0.7-0.6,1.4-1.3,1.7c-0.9,0-1.8,0-2.7-0.2L191,36.1z"/>
									<path class="st6" d="M109.4,39.1c0,1.3-0.5,1.9-1.7,1.9s-1.6-0.6-1.6-1.9c0-1.1,0.6-2.3,1.7-2.3
										C108.8,37.1,109.4,38.1,109.4,39.1z"/>
									<path class="st6" d="M174.6,35.9c-1.1-1.3-1.4-2.5-0.9-3.4c0.4-0.7,1.3-0.9,2-0.5c0.1,0,0.1,0.1,0.2,0.1
										c0.4,0.4,0.6,0.8,0.6,1.3C176.4,35.1,176.3,35.3,174.6,35.9z"/>
									<path class="st5" d="M168.2,29.4c0,0.7-0.6,1.3-1.3,1.5c-0.5,0-0.9-0.4-0.9-1v-0.2c0-0.8,0.3-1.3,0.9-1.3
										S168.2,28.8,168.2,29.4z"/>
									<path class="st5" d="M133.6,35.9c0.3-0.8,0.9-1.3,1.7-1c0.3,0.4,0.5,0.8,0.5,1.3c-0.2,0.4-0.4,0.8-0.8,1
										C134.2,37.4,133.8,36.8,133.6,35.9z"/>
									<path class="st5" d="M94.2,40.4c0.2,1.7,0,2.1-0.8,2.3c-0.5,0.2-0.9-0.2-1.1-1v-0.4C92.5,40.4,92.8,40.2,94.2,40.4z"/>
									<path class="st5" d="M131.9,37c-0.1,1.1-0.6,1.5-1.4,1.3c-0.3,0-0.8-0.6-0.8-0.8c0.1-0.5,0.3-0.9,0.6-1.3
										C131.3,35.7,131.6,36.4,131.9,37z"/>
									<path class="st5" d="M79.2,41.2c-0.3-0.5-0.5-1-0.6-1.5c0-0.8,0.3-1.1,0.9-1.1c0.6,0,1,0.5,1,1c0,0.1,0,0.2-0.1,0.3
										C80.4,40.6,79.8,40.4,79.2,41.2z"/>
									<path class="st5" d="M187.1,28.8c-0.7-0.2-1.3-0.4-1.9-0.8c-1-0.8-2.5-0.5-3.3,0.5c-0.1,0.2-0.3,0.4-0.3,0.6
										c-0.2,0.2-0.2,0.4-0.3,0.8l0,0c-1.1-0.2-0.9,0.8-0.9,1.5v0.8c0,1.2,0.9,2.2,2,2.5c0.2,0.2,0.5,0.3,0.8,0.4
										c0.7-0.4,1.4-1,2-1.5l2-1.1v-0.4l0.3-0.2c0.6-0.3,0.9-1,0.8-1.7c-0.1-0.3-0.3-0.5-0.5-0.8
										C187.4,29.4,187.2,29.2,187.1,28.8z"/>
									<path class="st5" d="M88.6,46.9c1.2,0.1,2.1,1.1,2.2,2.3c-0.3,1.3-1.1,2.3-2.2,2.3c-1.2-0.3-2.1-1.3-2.2-2.5
										C86.5,47.9,87.5,47,88.6,46.9z"/>
									<path class="st5" d="M86.4,36.1c-0.2,1.1-0.6,1.5-1.4,1.3c-0.3-0.2-0.8-0.6-0.8-0.8c0.1-0.5,0.3-0.9,0.6-1.3
										C85.6,34.6,86.1,35.3,86.4,36.1z"/>
								</g>
								<g class="st3">
									<path class="st4" d="M117.8,76.4c-1.1,0.6-2.1,1.3-3.1,2.1c-0.6,0.4-1.1,1-1.7,1.3c-1.4,0.7-3,0.1-3.7-1.3
										c-0.1-0.2-0.2-0.4-0.2-0.6c0-0.2-0.2-0.2-0.2-0.4c0-0.5,0.1-0.9,0.3-1.3c0.5-0.8,1.3-1.5,1.7-2.3c0.5-0.9,1.6-1.2,2.5-0.8
										c1.2,0.6,2.4,1.2,3.6,1.9C117.4,75.4,117.6,75.9,117.8,76.4z"/>
									<path class="st7" d="M161.3,72.6c-0.6-0.8-0.5-1.9,0.1-2.7c0.2-0.2,0.4-0.3,0.6-0.4l2.3-0.6c1.6-0.6,3.1,0.6,3.6,2.7
										c0,0.2,0,0.4,0.2,0.6c0,0.4,0,0.8-0.2,1.1c-0.9,1.2-2.3,2-3.8,2.2c-0.3,0-0.5,0-0.8-0.2C162.7,74.5,162,73.5,161.3,72.6z"
										/>
									<path class="st4" d="M136.5,56.6c0.6,0.5,0.8,1.4,0.5,2.1l-0.5,0.6c-0.9,0.6-1.9,1.5-2.5,1.9c-1.2,0.9-2.8,0.7-3.8-0.5
										c-0.2-0.3-0.4-0.6-0.5-0.9c-0.1-0.1-0.1-0.2-0.2-0.4c-0.2-0.4-0.1-0.9,0.2-1.3c0.6-1.1,1.4-2.1,2.3-2.8
										c0.5-0.3,1.2-0.4,1.7-0.2C134.6,55.4,135.5,56,136.5,56.6z"/>
									<path class="st4" d="M107.7,57.9c-1.4,1.1-2.8,2.3-4.2,3.2c-0.7,0.4-1.5,0.5-2.3,0.4c-1.3-0.3-2.1-1.6-1.9-2.8
										c0-0.7,0.3-1.3,0.8-1.7c1.6-2.3,2.7-2.7,5-1.3c0.4,0.2,0.8,0.4,1.3,0.6C106.9,56.6,107.5,56.8,107.7,57.9z"/>
									<path class="st5" d="M117.8,63.1c1.2,0.1,2.1,1.1,2.2,2.3c-0.3,1.3-1.1,2.3-2.2,2.3c-1.3,0-2.3-1-2.3-2.3
										C115.6,64.1,116.6,63.1,117.8,63.1z"/>
									<path class="st6" d="M123.6,76.9c-1.1-0.1-2-1-2-2.1c0.1-1.5,1.1-2.7,2.3-2.7c1,0,1.7,0.8,1.7,1.8c0,0,0,0.1,0,0.1v0.2
										C125.8,75.5,125,76.7,123.6,76.9L123.6,76.9z"/>
									<path class="st5" d="M91.7,52c1.3,0,2,0.8,1.9,1.9c-0.1,1.2-1,2.3-2.2,2.6c-1.1-0.1-2-1-2-2.1C89.5,53.2,90.5,52.1,91.7,52
										L91.7,52z"/>
									<path class="st5" d="M94.7,67.8c0,1.2-0.9,2.2-2,2.5c-1.3-0.2-2.2-1.4-2.2-2.7c0.1-1.1,0.9-1.9,2-1.9
										C93.6,65.6,94.5,66.5,94.7,67.8z"/>
									<path class="st6" d="M112,63.1c-1.6,0-2.2-0.8-2.2-2.3c0-1.3,0.6-1.9,1.9-1.9c1.2-0.1,2.3,0.8,2.3,2c0,0,0,0,0,0.1
										C113.9,62.3,113.1,63.2,112,63.1z"/>
									<path class="st6" d="M154.2,66.3c0.1,1.2-0.7,2.3-1.9,2.7h-0.2c-0.9,0-1.7-1-1.7-2.3l0,0c0-1.2,1-2.3,2.2-2.5
										C153.8,64.4,154.2,65,154.2,66.3z"/>
									<path class="st6" d="M143.9,65.1c0,1.5-0.9,2.7-2,2.7l0,0c-0.9,0.2-1.7-0.8-1.9-1.7v-0.4c0-1.5,0.9-2.7,2.2-2.5
										C143.4,63.1,143.9,63.8,143.9,65.1z"/>
									<path class="st7" d="M143,76.9c1-0.1,1.9,0.7,2,1.8c0,0.1,0,0.2,0,0.3c0,1.1-0.9,2.1-2,2.3c-1.2-0.1-2.1-1.1-2-2.3
										c0,0,0,0,0,0v-0.2C141,77.3,141.6,76.9,143,76.9z"/>
									<path class="st6" d="M101.1,72.9c1.1-0.1,2.1,0.7,2.2,1.8c0,0.2,0,0.3,0,0.5v0.2c-0.1,1.1-1.1,2-2.2,1.9
										c-0.9,0.2-1.9-0.8-1.9-1.9c-0.2-1,0.5-2.1,1.5-2.3c0,0,0,0,0.1,0C100.9,73,101,73,101.1,72.9z"/>
									<path class="st6" d="M150.4,58.9c-1.4,0-1.9-0.6-2-2.1c-0.2-1.1,0.5-2.1,1.6-2.3h0.4c1.1,0.1,1.9,1,2,2.1v0.2
										C152.4,57.9,151.5,58.8,150.4,58.9z"/>
									<path class="st5" d="M71.7,63.1v-0.8c0.3-0.4,0.6-0.6,0.9-1c0.6-0.5,1.4-0.5,2,0c0.6,0.7,0.8,1.8,0.5,2.7
										c-0.3,0.5-0.6,1-0.9,1.5l-0.9-0.2L71.7,63.1z"/>
									<path class="st7" d="M190.5,64.6v-2.1c0.6,0.1,1.2-0.1,1.7-0.4c0.4-0.4,0.7-1,0.9-1.5c1.1,0.3,1.7,1.4,1.6,2.5
										c-0.1,0.7-0.6,1.4-1.3,1.7c-0.9,0-1.8,0-2.7-0.2C190.7,64.8,190.5,64.8,190.5,64.6z"/>
									<path class="st6" d="M108.9,67.8c0,1.3-0.5,1.9-1.7,1.9s-1.6-0.6-1.6-1.9c0-1.1,0.6-2.3,1.7-2.3
										C108.4,65.8,109,66.8,108.9,67.8z"/>
									<path class="st5" d="M123.8,58.3c0,1.5-0.5,2.3-1.6,2.1c-1.1-0.3-1.8-1.3-1.7-2.5c0.2-1,0.9-1.9,1.7-1.9
										C123.4,56,123.8,56.8,123.8,58.3z"/>
									<path class="st7" d="M174.1,64.6c-1.1-1.3-1.4-2.5-0.9-3.4c0.2-0.6,0.8-1,1.4-0.9c0.1,0,0.2,0.1,0.3,0.1
										c0.8,0.2,1.3,1.1,1.1,1.9C176,63.8,176,64,174.1,64.6z"/>
									<path class="st5" d="M167.8,58.1c0,0.7-0.5,1.3-1.3,1.5c-0.5,0-0.9-0.4-0.9-0.9v-0.2c-0.2-0.5,0.1-1.1,0.6-1.3
										c0.1,0,0.2-0.1,0.3-0.1C167.2,57.1,167.7,57.5,167.8,58.1z"/>
									<path class="st5" d="M133.4,64.6c0.3-0.8,0.9-1.3,1.7-1c0.3,0.4,0.5,0.8,0.5,1.3c-0.2,0.4-0.4,0.7-0.8,0.9
										C133.8,66.1,133.5,65.6,133.4,64.6z"/>
									<path class="st5" d="M84.8,52.6c0.2,1.7,0,2.1-0.8,2.3c-0.5,0.2-0.9-0.4-1.1-0.9v-0.3C83.1,52.6,83.4,52.6,84.8,52.6z"/>
									<path class="st5" d="M131.6,65.7c-0.2,1.1-0.6,1.5-1.4,1.3c-0.3-0.2-0.8-0.6-0.8-0.8c0.1-0.5,0.3-0.9,0.6-1.3
										C130.8,64.4,131.1,65.1,131.6,65.7z"/>
									<path class="st5" d="M79.8,56.4c-0.3-0.5-0.5-1-0.6-1.5c-0.2-0.5,0.1-0.9,0.5-1.1c0.1,0,0.3-0.1,0.4,0c0.5,0,0.9,0.4,1,0.9
										c0,0.1,0,0.2,0,0.2C80.9,55.4,80.5,55.6,79.8,56.4z"/>
									<path class="st5" d="M186.6,57.6c-0.7-0.2-1.3-0.4-1.9-0.8c-1-0.8-2.5-0.5-3.3,0.5c-0.1,0.2-0.3,0.4-0.3,0.6
										c-0.2,0.2-0.2,0.6-0.3,0.8l0,0c-1.1-0.2-0.9,0.8-0.9,1.5V61c0.1,1.1,0.9,2,2,2.3c0.2,0.2,0.5,0.3,0.8,0.4
										c0.7-0.4,1.4-1,2-1.5l1.9-1.2v-0.4l0.3-0.2c0.6-0.3,0.9-1,0.8-1.7c-0.1-0.3-0.3-0.5-0.5-0.8
										C186.9,57.9,186.7,57.7,186.6,57.6z"/>
									<path class="st5" d="M88.1,75.6c1.2,0.1,2.1,1.1,2.2,2.3c0.1,1.2-0.8,2.3-2.1,2.3c-1.2,0.1-2.3-0.8-2.3-2.1
										c0-0.2,0-0.3,0-0.5C86.1,76.5,87,75.6,88.1,75.6z"/>
									<path class="st5" d="M86.1,64.6c-0.1,1.1-0.6,1.5-1.4,1.3c-0.3-0.2-0.8-0.6-0.8-0.8c0.1-0.5,0.3-0.9,0.6-1.3
										C85.4,63.2,85.6,64,86.1,64.6z"/>
								</g>
								<path class="st8" d="M90.5,64.2c-1.1-0.4-2.1-0.9-3.1-1.5c-1-0.3-2.1-0.6-3.1-0.8c-2.7-0.6-4.1-2.9-5.8-5.1
									s-4.7-2.3-7.2-3.2c-3-0.9-5.7-2.4-8.1-4.4c-2.6-1.7-4.7-3.9-6.4-6.5l-0.2-0.4c-1.1-0.8-2-1.7-3.1-2.5
									c-1.1-0.6-2.1-1.3-3.1-2.1c-1.7-1.3-3.6-2.5-5.3-3.6c-0.7-0.3-1.4-0.8-2-1.3l-2.2-1.1l-9.1,3.6c4.3,2.3,12.6,2.7,16.6,5.5
									s5.9,8.6,9.8,11.8c3.4,2.8,7.8,3.4,11.6,5.5c5.5,3,10.5,9.3,16.3,7.8c0.6-0.2,5,1.7,6.3,1C93,66.5,91.9,65.3,90.5,64.2z"/>
								<path class="st2" d="M-95.1,95c10.5,0,20.8-0.2,31.3,0c4.2,0,8.6,0.9,12.8,1.3l7.2,0.6c3,0.4,5.9,0.6,8.7,1h0.6
									c3.6,0.2,3.8-2.3,7.4-2.1l7.3,0.6c1.4,0.2,6.3,2.9,7.8,3l11.4,0.6l7.9,0.6c3.9,0.2,8,0.2,11.9,0.6
									c7.3,0.8,14.5,0.4,21.9,0.4c4.5,0,9.2-0.4,13.8-0.6l9.7-0.6l10.8-0.6l8.3-0.6l17.8-1.2l8.3-0.6l10.2-0.6l8-0.6
									c2.9-0.3,5.8-0.4,8.8-0.4c2.7,0,5,4.4,7.8,4.6s5.6-5,8.3-5.1c3.3-0.2,21.1,5.3,24.4,5.1c13.1-1,11.7-5.9,24.9-6.1
									c3.8,0,7.5,0.2,11.3,0.6c6.6,0.4,13.1,0.9,19.7,1.5c4.4,0.4,8.8,0.8,13.1,1c4.7,0.4,9.4,0.6,14.1,1.2
									c7.1,0.6,14.3,0.7,21.4,0.4c3-0.1,6.1-0.5,9.1-1l6.7-0.6c3.4-0.4,11.6-10.1,15-10.4s2.2,8.4,5.5,7.8s6.9-0.9,10.3-1.5
									l5.5-0.6c2.8-0.2,5.5-0.2,8.3-0.6c7.2-0.9,14.4-1.2,21.6-1c3,0,6.1,1,9.1,1c2,0,4.1,0.6,6.1,0.8c3.6,0.2,7,1,10.6,1.3
									l4.8,0.6c4.7,0.6,9.5,1,14.2,1.5s9.1,1.7,13.6,1.9c3.3,0.2,6.6,1.3,9.8,0.2c2.1-0.4,4.2-0.6,6.3-0.6
									c3.6-0.6,7.2-1.1,10.8-1.9l9.8-1.7v18.1l-0.6-3.4c-2.5-0.2-5-0.6-7.5-0.8c-5.2-0.2-10.5-0.2-15.6-0.4
									c-7.2-0.5-14.4-0.4-21.6,0.4c-3.3,0.4-6.6,0.4-10,0.6l-8.9,0.6l-9.4,0.6c-5.2,0.2-10.2,0.6-15.3,0.6c-8.4,0-17,0.6-25.5-0.4
									c-4.1-0.4-8.1-0.4-12.4-0.6l-8.6-0.6c-4.9-0.4-9.7-0.8-14.5-0.9l-11.6-0.6h-1.1c-3.4-0.4-7-0.6-10.5-0.9
									c-1.1-0.2-9.4-0.8-12.5-1l-8.3-0.6c-4.2-0.2-8.3-0.6-12.5-0.6c-23.1,0.2-46.3-0.6-69.6,0.4c-6.7,0.4-13.3-0.4-20,0.6
									c-3.2,0.4-6.4,0.6-9.5,0.6c-4.5,0-9,0.3-13.4,0.9c-3.3,0.6-6.4,0.8-9.7,1.1c-4.7,0.6-9.4,1.1-14.1,1.5
									c-3.8,0.4-7.5,0.8-11.4,1.1c-4.5,0.4-9.1,0.8-13.4,0.9c-3.9,0.2-7.8,0.6-11.6,0.6c-9.9-0.2-19.9,0.6-29.7-0.4
									c-4.7-0.4-9.4-0.4-14.2-0.6l-6.1-0.6c-3.1-0.4-6.3-0.8-9.4-1l-11.9-0.5H7.6c-2.7-0.4-5.3-0.8-8-0.9
									c-4.1-0.4-8.1-0.4-12.2-0.6h-0.6c-1.5-0.3-3.1-0.4-4.7-0.4c-1.6,0.2-3.1-1.5-4.7,0.2c0,0-0.2-0.2-0.3-0.2l-1.9-0.6
									c-1.2-0.2-2.5-0.3-3.8-0.4c-1.1,0.2-2.1,0.4-3.1,0.8c-0.2-0.8-0.9-1.4-1.7-1.3c-0.6,0-1.6,0.4-2.3,0.4
									c-1.4,0-2.8-0.6-4.2-0.4c-5.9,0.2-11.7-0.2-17.7,0.4c-5.1,0.6-10.3,0.6-15.5,1.2c-2.8,0.4-5.8,0.4-8.6,0.6l-6.1,0.6
									c-2.5,0.4-4.8,0.6-7.3,0.9V95z"/>
								<path class="st2" d="M-95.1,114v-4.6c2.5-0.4,4.8-0.8,7.3-0.9l6.1-0.6c2.8-0.2,5.8-0.2,8.6-0.6c5.2-0.6,10.3-0.6,15.5-1.1
									c5.9-0.6,11.7-0.2,17.7-0.4c1.4,0,2.8,0.4,4.2,0.4c0.8,0,1.6-0.6,2.3-0.4s1.7,0.4,1.7,1.3c1-0.3,2.1-0.6,3.1-0.8
									c1.3,0,2.5,0.2,3.8,0.4l1.9,0.6c0.2,0,0.3,0.2,0.3,0.2c1.6-1.7,3.1,0,4.7-0.2c1.6-0.1,3.1,0.1,4.7,0.4h0.5l12.2,0.6
									c2.7,0.2,5.3,0.6,8,0.9h0.8l11.9,0.6c3.1,0.2,6.3,0.6,9.4,1l6.1,0.6c4.7,0.2,9.5,0.2,14.2,0.6c9.8,1,19.8,0.2,29.7,0.4
									c3.9,0,7.7-0.2,11.6-0.6c4.5-0.4,9.1-0.6,13.4-0.9c3.8-0.4,7.5-0.6,11.4-1.1c4.7-0.6,9.4-0.9,14.1-1.5
									c3.3-0.4,6.4-0.6,9.7-1.1c4.4-0.7,8.9-1,13.4-0.9c3.2,0,6.4-0.2,9.5-0.6c6.7-0.9,13.3-0.2,20-0.6
									c23.1-1.1,46.3-0.2,69.6-0.4c4.2,0,8.3,0.4,12.5,0.6l8.3,0.6c3.1,0.2,11.4,0.8,12.5,0.9c3.4,0.4,7,0.8,10.5,0.9h1.1
									l11.6,0.6c4.8,0.4,9.7,0.8,14.5,0.9l8.6,0.6c4.1,0.2,8.1,0.2,12.4,0.6c8.4,1,17,0.4,25.5,0.4c5.2,0,10.2-0.4,15.3-0.6
									l9.4-0.6l8.9-0.6c3.3-0.2,6.6-0.2,10-0.6c7.2-0.7,14.4-0.8,21.6-0.4c5.3,0.2,10.5,0.2,15.6,0.4c2.5,0.2,4.8,0.4,7.5,0.8
									l0.6,3.4v1.7h-0.5c-5.2-0.2-10.5-0.6-15.6-0.6c-9.2-0.2-18.6-0.4-27.8-0.4c-4.4,0-8.8,0.6-13.1,0.9h-0.5l-15.3,0.6
									l-14.2,0.6c-6.7,0.2-13.6,0.4-20.3,0.4c-4.7,0-9.4-0.2-14.1-0.6c-5.6-0.4-11.1-0.6-16.7-1c-4.7-0.4-9.4-0.8-13.9-0.9
									s-9.4-0.6-14.2-1.1c-4.2-0.4-17-1.5-17.4-1.5l-15.3-0.6c-8.3-0.2-16.7-0.6-25-0.6h-55.4c-5.5,0-10.9,0.4-16.3,0.6l-9.4,0.6
									c-4.7,0.4-9.2,0.6-13.9,1.1s-9.5,1-14.4,1.5c-3.3,0.4-6.6,0.6-9.9,1.1c-3,0.4-5.9,0.8-8.8,1.1c-2.1-0.2-4.2,0-6.3,0.6
									l-10.9,0.8h-1.3l-30.2,0.6c-3.8,0-7.7-0.2-11.4-0.6c-5.3-0.4-10.6-0.6-15.8-1l-14.1-1.1c-4.2-0.4-8.4-0.6-12.7-0.9
									c-4.8-0.4-9.7-0.9-14.5-1.5h-1.2c-4.2-0.4-8.3-0.8-12.5-0.9c-2.2-0.2-4.4,0-6.6-0.2c-0.7-0.1-1.4-0.3-2-0.6
									c0.8-1.5,0-2.1-1.3-2.7l-1.6,2.6l-1.3,0.8c-0.6-0.2-1.2-0.2-1.9-0.2c-6.1,0-12-0.2-18,0c-3.5,0.1-7,0.4-10.5,0.9l-8,0.6
									l-9.1,0.6c-3,0.2-6.3,0.6-9.5,0.9C-94.2,114.2-94.6,114.1-95.1,114z"/>
								<path class="st2" d="M458.3,160.8c-0.6-0.6-0.6-1,0-1.5V160.8z"/>
								<path class="st2" d="M458,114.6h0.5v0.6L458,114.6z"/>
								<path class="st2" d="M349,71.6c0.1,1.3,1.1,2.5,0.9,4.2c0,0.9-0.4,1.8-1.3,2.3c-1.9,0.9-3.6,1.9-5.5,2.9
									c-4.9,1.9-10,3.3-15.2,4.2c-4.4,1-8.9,1.5-13.3,2.3c-3.4,0.6-7,0.8-10.5,1.7c-1.6,0.2-3.1,0.3-4.7,0.4l-6.7,1h-0.6l-9.5,0.6
									c-3.1,0.2-6.1,0.8-9.1,1c-2.5,0.2-5.1,0-7.6,0c-14.2,1-28.3,0.4-42.5,0.4c-3.9,0-7.7-0.6-11.6-1h-1.3
									c-3.6-0.2-7-0.2-10.6-0.6c-3.3-0.4-6.6-1-9.8-1.5l-5-0.6c-2.8-0.4-5.5-1.1-8.3-1.5c-4.3-0.8-8.6-1.9-12.8-3.2
									c-0.5,0-1-0.2-1.4-0.6c-3.3-2.7-6.7-1.5-10-0.6c-2.6,0.7-5.3,1.2-8,1.5c-8.4,1.5-17,1.1-25.6,0.9c-4-0.1-8-0.7-11.9-1.9
									c-1-0.4-2.1-0.6-3.1-0.6c-0.8,0-1.5,0.2-2.2,0.6c-3.8,2.8-7.4,7-11.6,8.2c-5,1.5-10,3.4-15,4.8c-2.5,0.6-15.2,0.9-16.7,1.1
									c-4.5,0.8-9.7-1.5-14.2-1c-4.5,0.4-8.9,0.4-13.3,0.4c-3.7-0.1-7.4-0.5-11.1-1l-7.5-0.6c-2.4-0.2-4.7-0.6-7-1.1
									c-3.6-0.8-7.2-1.5-10.6-2.5c-4.2-1.3-8.3-2.7-11.7-6.1c-2.3-2.5-2.2-4.8,0.6-6.3c2.1-1.3,4.4-2.3,6.7-3
									c5-1.5,10.2-2.7,15.2-3.8c2-0.4,4.1-0.8,6.1-1l6.3-1c3.9-0.6,7.7-0.9,11.6-1.5c3.4-0.6,6.9-0.9,10.3-1
									c0.3,0,23.6-1.5,25.9-1.5c4.7,0.2,9.5,0.2,14.2,0.6c5,0.3,9.9,1.2,14.7,2.7c2.4,0.8,4.2,5.7,6.4,6.7
									c1.3,0.1,2.5-0.1,3.8-0.4c3.3-0.8,12.4,9.7,14.7,9.5c-1.6,1.1,25.2-16.9,33.3-16.9c3,0.2,6,0.7,8.9,1.5
									c1.3,0.3,2.4,0.9,3.4,1.7c0.9,0.8,2.3,1.1,3.4,0.6l9.7-1.9c2.8-0.6,5.6-0.9,8.3-1.5l5-0.6l9.7-1.1c0.9,0,1.7-0.4,2.7-0.4
									l7.2-0.6c2.4-0.2,4.7-0.6,7-1h0.5l9.2-0.6l10.2-0.6l7.2-0.6c3.6-0.2,7.2,0,10.8-0.6c5.2-0.8,10.3,0,15.5-0.6
									c9.8-1,19.7-0.4,29.5-0.4c4.5,0,9.1,0.2,13.6,0.6c2.5,0.2,5.2,1,7.8,1c2.2,0,4.1,0.6,6.3,0.6h0.8l0.6,1.3l0.9-0.8
									c3.9,1.5,7.7,3.2,11.6,4.8C344.4,70.5,346.7,70.8,349,71.6z M48,80.9c1.9,2.7,3.1,2.7,4.5,0C51.1,78.8,49.7,78.8,48,80.9z"
									/>
								<g class="st3">
									<path class="st7" d="M11.2,90.8c-1.1,0.6-2.1,1.3-3.1,2.1c-0.6,0.4-1.1,1-1.7,1.3c-1.4,0.7-3,0.1-3.7-1.3
										c-0.1-0.2-0.2-0.4-0.2-0.6c0-0.2-0.2-0.2-0.2-0.4c0-0.5,0.1-0.9,0.3-1.3c0.5-0.8,1.3-1.5,1.7-2.3c0.5-0.8,1.6-1.2,2.5-0.8
										c1.2,0.6,2.4,1.2,3.6,1.9C10.7,89.9,10.9,90.4,11.2,90.8z"/>
									<path class="st7" d="M54.5,86.8c-0.6-0.8-0.5-1.9,0.2-2.7c0.2-0.2,0.4-0.3,0.6-0.4l2.3-0.6c1.6-0.6,3.1,0.6,3.6,2.7
										c0,0.2,0,0.4,0.2,0.6c0,0.4-0.1,0.8-0.3,1.1c-1,1.2-2.3,2-3.7,2.3c-0.3,0-0.5,0-0.8-0.2C56,88.6,55.3,87.7,54.5,86.8z"/>
									<path class="st7" d="M30.3,70.8c0.7,0.5,0.8,1.4,0.3,2.1c-0.2,0.2-0.2,0.4-0.3,0.4c-0.9,0.6-1.9,1.5-2.5,1.9
										c-1.2,0.9-2.9,0.7-3.8-0.5c-0.2-0.3-0.3-0.5-0.4-0.9c-0.1-0.1-0.1-0.2-0.2-0.4c-0.2-0.4-0.1-0.9,0.2-1.3
										c0.6-1.1,1.4-2.1,2.3-3c0.5-0.3,1.2-0.4,1.7-0.2C28.5,69.7,29.3,70.3,30.3,70.8z"/>
									<path class="st7" d="M0.9,72.2c-1.6,1.1-2.8,2.3-4.2,3.2c-0.7,0.4-1.5,0.5-2.3,0.4c-1.3-0.3-2.1-1.6-1.9-2.8
										c0-0.7,0.3-1.3,0.8-1.7c1.6-2.3,2.7-2.7,5-1.3c0.4,0.2,0.8,0.4,1.3,0.6C0.2,70.8,0.8,71.4,0.9,72.2z"/>
									<path class="st5" d="M11.1,77.5c1.2,0.1,2.1,1.1,2.2,2.3c-0.2,1.2-1,2.1-2.2,2.3c-1.2-0.3-2.1-1.3-2.2-2.5
										C9,78.4,9.9,77.6,11.1,77.5z"/>
									<path class="st7" d="M17,91.2c-1.1-0.1-2-1-2-2.1c0.2-1.5,1.1-2.7,2.3-2.7c1,0,1.7,0.8,1.7,1.8c0,0,0,0.1,0,0.1v0.2
										C19.1,90.1,18.3,91.2,17,91.2L17,91.2z"/>
									<path class="st5" d="M-15,66.5c1-0.1,1.8,0.6,1.9,1.6c0,0.1,0,0.2,0,0.3c-0.1,1.3-1,2.3-2.2,2.7c-1.1-0.1-2-1-2-2.1
										C-17.2,67.7-16.3,66.6-15,66.5L-15,66.5z"/>
									<path class="st5" d="M-12.1,82.1c0,1.1-0.8,2.1-1.9,2.5c-1.3-0.2-2.3-1.3-2.2-2.7c0.1-1.1,0.9-1.9,2-1.9
										C-13.2,79.8-12.1,80.7-12.1,82.1z"/>
									<path class="st7" d="M5.3,77.5c-1.6,0-2.2-0.8-2.2-2.3c0-1.3,0.6-1.9,1.9-1.9c1.2-0.1,2.3,0.8,2.4,2c0,0,0,0.1,0,0.1
										C7.4,76.6,6.4,77.5,5.3,77.5C5.3,77.5,5.3,77.5,5.3,77.5z"/>
									<path class="st7" d="M47.5,80.7c0.1,1.2-0.7,2.3-1.9,2.7h-0.2c-1.1-0.1-2-1.1-1.9-2.3l0,0c0-1.3,1-2.4,2.3-2.5
										C47,78.6,47.5,79.2,47.5,80.7z"/>
									<path class="st7" d="M37.2,79.4c0,1.5-0.8,2.7-2,2.7l0,0c-0.9,0.2-1.7-0.8-1.9-1.7V80c0-1.5,0.9-2.7,2.2-2.5
										C36.5,77.5,37.2,78.1,37.2,79.4z"/>
									<path class="st7" d="M36.2,91.2c1-0.1,1.9,0.7,2,1.8c0,0.1,0,0.2,0,0.3c-0.2,1.3-0.9,2.3-2,2.3c-1.2-0.1-2.1-1.1-2-2.3
										c0,0,0,0,0,0v-0.2C34.2,91.8,34.8,91.2,36.2,91.2z"/>
									<path class="st7" d="M-5.6,87.2c0.9-0.4,2,0.4,2.2,1.7s-0.3,2.5-1.4,2.7h-0.9c-0.9,0.2-1.9-0.8-1.9-1.9
										c-0.2-1,0.5-2.1,1.5-2.3c0,0,0,0,0.1,0C-6,87.3-5.8,87.2-5.6,87.2z"/>
									<path class="st7" d="M43.7,73.1c-1.4,0-1.9-0.6-2-2.1c-0.2-1.1,0.5-2.1,1.6-2.3h0.5c1.1-0.2,1.9,0.8,2,2.1v0.4
										C45.7,72.3,44.9,73.1,43.7,73.1C43.8,73.1,43.8,73.1,43.7,73.1z"/>
									<path class="st5" d="M-35,77.5v-0.8c0.3-0.4,0.6-0.7,0.9-1c0.6-0.5,1.4-0.5,2,0c0.7,0.7,0.9,1.7,0.6,2.7
										c-0.3,0.5-0.6,1-0.9,1.5l-0.9-0.2L-35,77.5z"/>
									<path class="st7" d="M83.8,79v-2.1c0.6,0.1,1.2-0.1,1.7-0.4c0.5-0.2,0.6-0.9,0.9-1.5c1,0.3,1.7,1.4,1.6,2.5
										c-0.1,0.7-0.6,1.4-1.3,1.7c-0.9,0-1.8,0-2.7-0.2L83.8,79z"/>
									<path class="st7" d="M2.2,82.3c0,1.3-0.5,1.9-1.7,1.9s-1.6-0.6-1.6-1.9c0-1.1,0.6-2.3,1.7-2.3S2.2,81.1,2.2,82.3z"/>
									<path class="st5" d="M17.2,72.6c0,1.5-0.5,2.3-1.6,2.1c-1.1-0.3-1.8-1.3-1.7-2.5c0.2-0.9,0.8-1.6,1.7-1.9
										C16.7,70.3,17.2,71,17.2,72.6z"/>
									<path class="st7" d="M67.5,79c-1.1-1.3-1.4-2.5-0.9-3.4c0.4-0.6,1.2-0.9,1.8-0.5c0.1,0.1,0.3,0.2,0.4,0.3
										c0.3,0.4,0.5,0.8,0.6,1.3C69.2,78.3,69.2,78.3,67.5,79z"/>
									<path class="st5" d="M61.1,72.4c0,0.6-0.6,1.5-1.3,1.5c-0.5,0-0.9-0.4-0.9-0.9c0,0,0,0,0-0.1v-0.2c0-0.8,0.3-1.3,1.1-1.3
										S61.1,71.8,61.1,72.4z"/>
									<path class="st5" d="M26.5,79c0.3-0.8,0.9-1.3,1.7-0.9c0.3,0.4,0.5,0.8,0.5,1.3c-0.2,0.4-0.4,0.8-0.8,1
										C27,80.4,26.7,79.8,26.5,79z"/>
									<path class="st5" d="M-21.9,67c0.2,1.7,0,2.1-0.8,2.3c-0.5,0.2-0.9-0.2-1.1-0.8v-0.4C-23.6,67-23.3,66.9-21.9,67z"/>
									<path class="st5" d="M24.8,80c-0.2,1.1-0.6,1.5-1.4,1.3c-0.3,0-0.8-0.6-0.8-0.8c0.1-0.5,0.3-0.9,0.6-1.3
										C24,78.6,24.4,79.4,24.8,80z"/>
									<path class="st5" d="M-26.8,70.8c-0.3-0.6-0.5-1.1-0.8-1.7c-0.2-0.5,0.1-0.9,0.6-1.1c0.1,0,0.2,0,0.3,0
										c0.5-0.1,1,0.3,1,0.8c0,0.1,0,0.2,0,0.3C-25.8,69.7-26.3,70.1-26.8,70.8z"/>
									<path class="st5" d="M79.8,72c-0.7-0.2-1.3-0.4-1.9-0.8c-1-0.8-2.5-0.5-3.3,0.5c-0.1,0.2-0.3,0.4-0.3,0.6
										c-0.2,0.2-0.2,0.4-0.3,0.8l0,0c-1.1-0.2-0.9,0.8-0.9,1.5v0.8c0.1,1.1,0.9,2,2,2.3c0.2,0.2,0.5,0.3,0.8,0.4
										c0.6-0.4,1.4-1,2-1.3l1.9-1.1v-0.4l0.3-0.2c0.6-0.3,1-1,0.8-1.7c-0.1-0.3-0.3-0.5-0.5-0.8C80.2,72.4,80,72.2,79.8,72z"/>
									<path class="st5" d="M-18.5,89.9c1.2,0.1,2.1,1.1,2.2,2.3c-0.2,1.1-1.1,2.1-2.2,2.3c-1.2-0.2-2.1-1.2-2.2-2.5
										C-20.4,90.9-19.5,90.1-18.5,89.9z"/>
									<path class="st5" d="M-20.6,79c-0.2,1.2-0.6,1.5-1.4,1.3c-0.3,0-0.8-0.6-0.8-0.8c0.1-0.5,0.3-0.9,0.6-1.3
										C-21.4,77.7-21.1,78.4-20.6,79z"/>
								</g>
								<path class="st7" d="M364.2,137.2c0.4-0.2,0.9-0.2,1.4-0.2c1.2,0.1,2.4-0.1,3.4-0.8c0.8-0.4,1.6-0.6,2.5-0.8
									c1.6-0.4,3,0.6,3.8,2.3c0.9,1.2,0.8,2.9-0.2,4c-0.2,0.2-0.3,0.4-0.5,0.4c-1,0.9-2.2,1.5-3.4,1.9c-0.8,0-1.5-0.2-2.2-0.6
									C366.9,141.8,365.2,139.7,364.2,137.2z"/>
								<path class="st7" d="M402.6,123.7l-5.9,4.4c-1.5,1.1-3.6,0.9-4.7-0.6c-0.2-0.2-0.3-0.5-0.4-0.7c-0.1-0.2-0.1-0.4-0.3-0.6
									c-0.1-0.5-0.2-1-0.2-1.5c0.5-2.5,3.4-5.3,5.5-4.6c2,0.8,3.9,1.8,5.6,3C402.4,122.9,402.5,123.6,402.6,123.7z"/>
								<path class="st7" d="M317.9,122.7c-2,1.5-3.8,3-5.6,4.2c-2,1.3-4.5,0.4-5.6-2.1c0,0,0-0.2-0.2-0.2c-0.5-1.5,0.5-2.7,1.3-3.6
									c2.2-2.9,4.4-3,7.7-0.9C317.1,121.4,317.1,121.4,317.9,122.7z"/>
								<path class="st5" d="M449,130.7c1.3,2.7,1.4,3.4,0.2,5c-0.7,1.1-2.1,1.5-3.3,0.9c-1-0.8-1.4-2.2-1.1-3.4
									C445.5,130.9,446.1,130.6,449,130.7z"/>
								<path class="st7" d="M324.6,132.4c0.2,1.6-0.9,3.1-2.5,3.4h-0.3c-1.2,0.1-2.3-0.9-2.4-2.2c0-0.1,0-0.2,0-0.3
									c-0.3-1.7,0.8-3.3,2.5-3.6h0.3c1.2-0.1,2.3,0.8,2.3,2c0,0,0,0,0,0.1V132.4z"/>
								<path class="st7" d="M448.7,154.5c-1.4,0-2.5-1.3-2.7-3.1c0.2-1.6,1.3-2.9,2.8-3.2c1.4,0,2.7,1.5,2.7,3.2v0.2
									C451.4,153.6,450.1,154.7,448.7,154.5z"/>
								<path class="st7" d="M352.8,133c-0.3-1.5,0.7-3.1,2.2-3.4h0.6c1.7,0,2.5,0.8,2.5,2.5c0,1.7-1.2,3.2-2.8,3.6
									c-1.3,0.1-2.3-0.9-2.5-2.1V133z"/>
								<path class="st7" d="M292.7,132.6c0.2,1.5-1,2.9-2.5,3c0,0,0,0,0,0c-1.3,0-3-1.9-3-3.2c0.3-1.5,1.4-2.6,2.8-3
									C291.6,129.8,292.7,131.1,292.7,132.6z"/>
								<path class="st7" d="M352.6,116.7c1.4-0.1,2.6,1.1,2.7,2.5c0.1,1.7-1.1,3.1-2.8,3.2c0,0,0,0-0.1,0h-0.1
									c-1.5-0.1-2.6-1.4-2.5-2.9c0-1.7,1.1-3,2.5-2.9L352.6,116.7z"/>
								<path class="st5" d="M331.5,120.8c1.9,0,2.5,0.8,2.5,2.7c0.1,1.6-1.1,2.9-2.7,3c-1.4,0-2.5-1.5-2.5-3.2
									C328.8,121.4,329.6,120.8,331.5,120.8z"/>
								<path class="st5" d="M386.4,127.3c0,1.3-1.1,2.9-2,2.9c-1.4-0.2-2.3-1.7-2.3-3.4c0.1-1.5,1.1-2.7,2.3-2.7
									C385.4,124.1,386.4,125.8,386.4,127.3z"/>
								<path class="st5" d="M298.2,123.3c0,1.7-0.8,2.7-2,2.7c-1.3-0.1-2.4-1.1-2.3-2.5v-0.2c0-1.4,0.9-2.6,2.2-3
									C297.4,120.7,298.3,121.9,298.2,123.3z"/>
								<path class="st7" d="M408.6,125l0.8-0.2c0,0,0,0.2,0.2,0.2c1.4,1.7,1.6,3,0.6,4.4c-0.7,1.1-2.2,1.4-3.3,0.7
									c-0.2-0.1-0.4-0.3-0.6-0.5l-0.2-0.2l-0.5-0.6v-0.6C407,128.1,408.1,126.7,408.6,125z"/>
								<path class="st7" d="M439.7,120.7c-2-1.1-4.1-1.9-5.9,0.6l-0.9,0.6v0.9l-0.9,1.5c-0.3,2.5,2.2,2.9,2.7,4.8
									c0,0.2,0.6,0.2,0.9,0.4h0.1c0.2-0.8,1-1.3,1.8-1.1v-0.6c0-0.2,0.5,0,0.6-0.2c1.4-1.5,2.9-2.7,4.7-3.6l1.1-0.6
									C442.5,122.3,441.2,121.4,439.7,120.7z"/>
								<path class="st5" d="M339.4,130l1.9-1.9c1.4,1.5,1.6,2.1,0.8,3S340.7,131.7,339.4,130z"/>
								<path class="st5" d="M312.6,130c0.8,1.7,0.8,2.9,0,3.2s-1.6-0.2-2.2-1.9L312.6,130z"/>
								<path class="st5" d="M372.9,120.5c1.1-0.2,2-0.6,2.4,1c0.1,0.9-0.8,2.1-1.6,1.9C372.5,122.9,372.8,121.8,372.9,120.5z"/>
								<path class="st9" d="M38.1,122.4l-5.6,4.4c-1.9,1.5-4.4,0.8-5.6-1.3c-0.2-0.2-0.2-0.4-0.3-0.6c-0.2-0.5-0.2-1,0-1.5
									c0.6-2.1,2-3.8,3.9-4.8c0.3-0.2,0.7-0.2,0.9,0c2,1.1,4.1,2.1,6.1,3.2C38,121.8,38,122.2,38.1,122.4z"/>
								<path class="st9" d="M79.1,122.4c-2.4,1.7-4.4,3.2-6.4,4.6c-2,1.1-4.4,0.2-5.5-2.3c-0.2-0.5-0.2-1,0-1.5
									c0.5-1.8,1.7-3.3,3.2-4.4c0.8-0.8,2.1-0.9,3-0.2c1.4,1,3,1.7,4.4,2.5C78.2,121.5,78.6,121.9,79.1,122.4z"/>
								<path class="st7" d="M-67.9,119.7c-0.3,0.4-0.3,0.8-0.5,0.8c-1.9,1.3-3.9,2.7-5.8,4c-1.1,0.7-2.6,0.6-3.6-0.4
									c-0.9-0.8-1.9-1.3-1.7-3.2c0.6-3.2,3.3-5.5,5.9-4.8h0.2C-71.3,116.9-69.4,118.1-67.9,119.7z"/>
								<path class="st7" d="M11.4,139.5c-1,0.9-2.1,1.8-3.3,2.7c-1.3,0.9-3.1,0.8-4.2-0.4c-1.1-1.1-2.2-2.3-3.3-3.6
									c-0.4-0.7-0.8-1.5-0.9-2.3c2.7-0.6,4.8-1.1,7.2-1.5s3.1,0.6,3.9,3.2C11,138.2,11.2,138.8,11.4,139.5z"/>
								<path class="st7" d="M-59,141.6h1.4c0.9,0.3,1.4,1.2,1.4,2.1c0,0.3-0.1,0.6-0.3,0.8c-0.4,0.7-0.8,1.5-1.3,2.2
									c-1.4,0.6-2.5,1.6-3.3,2.9l-1.6-0.2c-0.8-2.7-1.4-3.2-3.1-2.5c-0.6-0.6-1.1-1.1-0.6-2.1c0.8-1.4,1.8-2.7,2.8-4
									c0.9-1.1,2-0.6,3.3-0.8v0.9c-0.8,0.6-1.5,1.3-2.2,2.1c-0.2,0.5-0.1,1.1,0.2,1.5c0.3,0.4,0.8,0.4,1.3,0.2
									C-60.2,143.7-59.5,142.6-59,141.6z"/>
								<path class="st7" d="M-20.6,129.4c0.1,1.8-1.2,3.5-3,3.8c-1.2-0.3-2-1.4-2-2.6c0-1.8,1.1-3.3,2.8-3.8
									c1.1-0.2,2.2,0.8,2.3,2.3C-20.5,129.2-20.6,129.3-20.6,129.4z"/>
								<path class="st7" d="M-76.5,145.7c-1.5,0-2.8-1.2-2.8-2.7c0-1.6,1.1-3,2.6-3.4c1.6,0.3,2.7,1.6,2.8,3.2
									C-73.9,144.4-75,145.6-76.5,145.7z"/>
								<path class="st7" d="M-24.4,149.6c-0.2-3,0.2-4,1.9-4.6c1.2-0.3,2.5,0.2,3.1,1.3c0.5,1.2,0.4,2.5-0.2,3.6
									C-20.5,150.7-22.4,150.7-24.4,149.6z"/>
								<path class="st7" d="M-94.9,119.3v-2.1c0.3-1.5,1.8-2.4,3.3-2.1c1.3,0.1,2.2,1.2,2.2,2.5c0.2,1.5-0.8,2.8-2.2,3.2
									C-92.9,121-94.2,120.4-94.9,119.3z"/>
								<path class="st5" d="M83.3,129.6c1.6,0,2.2,0.8,2.2,2.7s-1.1,3.4-2.7,3.6c-1.4-0.1-2.4-1.3-2.3-2.7c0,0,0,0,0,0v-0.4
									c0-1.7,1.3-3.2,2.6-3.2H83.3z"/>
								<path class="st5" d="M-9.7,134.3c-1.6,0-2.3-0.8-2.3-2.5c0.2-1.6,1.3-3,2.8-3.6c1.5,0.2,2.6,1.4,2.7,2.9
									C-6.6,132.8-8,134.2-9.7,134.3z"/>
								<path class="st5" d="M-65.4,123.9c-0.1-1.5,1-2.9,2.5-3h0.2c1.4,0,2.6,1.3,3,3c-0.2,1.5-1.5,2.8-3,3
									C-64.1,127.1-65.4,125.6-65.4,123.9z"/>
								<path class="st5" d="M43.4,123.9c1.4-0.1,2.7,1,2.8,2.4c0,0.1,0,0.1,0,0.2l0,0c0.1,1.5-1.1,2.9-2.7,3h-0.2
									c-1.3,0.1-2.4-0.8-2.5-2c0-0.1,0-0.2,0-0.2v-0.7C40.8,124.6,41.6,123.9,43.4,123.9z"/>
								<path class="st7" d="M-9.6,118.2c0.2,1.4-0.6,2.7-1.9,3.2h-0.6c-1.4,0.2-2.7-1-3-2.7v-0.4c0-1.5,1.3-2.7,2.7-2.7
									c0,0,0,0,0.1,0C-10.6,115.7-9.6,116.5-9.6,118.2z"/>
								<path class="st5" d="M53.4,131.3c0,1.5,0.5,3.4-1.3,4.2c-1.4,0.4-2.8-0.1-3.6-1.3c-0.4-1.3-0.1-2.8,0.9-3.8
									C50.5,129.2,51.7,129.4,53.4,131.3z"/>
								<path class="st7" d="M89.1,151.3c0,0.6-0.5,1.3-0.5,1.9c-1.5,0.2-3,0.2-4.5,0.2c-1.3,0-2.3-1.1-2.5-2.9
									c-0.2-1.4,0.6-2.8,2-3.2c1.8-0.2,3.6-0.4,5.5-0.4L89.1,151.3L89.1,151.3z"/>
								<path class="st5" d="M-70.8,132.8c0-1.9,0.6-2.7,1.9-2.7c1.3-0.2,2.2,1,2.3,2.5v0.4c0.2,1.3-0.6,2.6-1.9,2.9H-69
									C-70.2,135.9-70.8,134.9-70.8,132.8z"/>
								<path class="st9" d="M58.9,124.5c-1.9,1.7-2.4,1.7-3.4,0.6c-0.7-0.8-0.9-2-0.5-3c0.4-1.2,1.6-1.9,2.8-1.7
									C59.4,121.2,59.1,122.9,58.9,124.5z"/>
								<path class="st5" d="M17.6,125.8c-0.1-1.3,0.7-2.5,2-2.9c1.2,0.3,2.1,1.4,2.2,2.6c0,1.4-1,2.7-2.3,3
									C18.3,128.6,17.6,127.7,17.6,125.8z"/>
								<path class="st7" d="M-49.1,122.9c-1.1,0.2-2-0.8-2-2.1v-0.4c0.2-1.5,1.1-2.7,2.4-2.7s1.9,0.9,1.9,2.5
									C-46.9,122.2-47.5,122.9-49.1,122.9z"/>
								<path class="st7" d="M-31.3,122.4l-1.6-2.3c0.8-1.1,1.4-2.7,2.8-3c0.8,1.1,2.5,0.8,3,2.9L-31.3,122.4z"/>
								<path class="st10" d="M-44.9,138c0.1,0.8,0.3,1.5,0.5,2.1c0.1,0.6,0.3,1.3,0.5,2.1c-0.1,2.9-2.6,4.8-4.4,3.4
									c-0.2-0.2-0.2-0.6-0.3-0.9c1.1-1.3,2-2.9,3.3-4.2c0.4-0.4,0.5-1,0.2-1.5L-44.9,138z"/>
								<path class="st10" d="M-45.4,139.1c0.3,0.5,0.3,1.1-0.2,1.5c-1.1,1.3-2.2,2.7-3.3,4.2c-1.3-1.3-0.8-3-0.8-4.6l0.5-0.6
									L-45.4,139.1z"/>
								<path class="st7" d="M-38.5,132.2l-1.7-1.3c1.1-2.7,1.6-2.9,3.4-1.9C-36.9,130.7-37.1,132.1-38.5,132.2z"/>
								<path class="st5" d="M11.1,120.3l-1.7,2.5c-0.9-0.8-1.9-1.3-1.3-2.7C8.6,119.1,9.5,119.1,11.1,120.3z"/>
								<path class="st5" d="M-82.7,128.1c1.4,1.5,1.4,1.5,0.6,3.4l-1.6-0.6C-84.3,129.6-83.8,128.8-82.7,128.1z"/>
								<path class="st5" d="M0.4,119.7c0.4,0.5,0.7,1.1,0.9,1.7c0.2,0.9-0.3,1.3-1.1,1.5s-1.3-0.4-1.3-1.3
									C-1.1,120.7-0.4,119.9,0.4,119.7z"/>
								<path class="st7" d="M-62.7,149.2c-0.8-0.2-1.5-0.4-2.2-0.8c-0.4-0.2-0.9-0.5-1.3-0.8l0.3-1
									C-64.1,145.9-63.5,146.6-62.7,149.2z"/>
								<path class="st5" d="M74.2,130.9c-0.6,2.1-1.1,2.7-1.9,2.1c-0.6-0.5-0.8-1.4-0.5-2.1l0,0C72.8,129.6,73.4,130.6,74.2,130.9z
									"/>
								<path class="st5" d="M-28.6,138.1c-0.4-0.8-0.6-1.6-0.8-2.5c-0.1-0.6,0.2-1.1,0.8-1.3h0.5c0.6,0.2,1,0.9,0.9,1.5v0.4
									C-27.7,136.9-28.2,137.5-28.6,138.1z"/>
								<path class="st5" d="M-33.8,111l-1.7-0.2l1.4-2.5c1.1,0.6,2,1.1,1.3,2.7H-33.8z"/>
								<path class="st7" d="M421.7,121.4c1.3,0.3,2.2,1.6,2,3l0,0c0,1.3-1,2.5-2.3,2.7c-1.3,0-1.9-1.5-1.7-3.4
									c-0.1-1.1,0.7-2.1,1.9-2.3L421.7,121.4z"/>
								<path class="st5" d="M436.5,131.1c1.4,0.2,1.6,1.5,2.2,2.7l-0.9,0.6c-1.4,0.2-1.7-0.4-1.4-2.1L436.5,131.1z"/>
								<path class="st11" d="M412.8,131.7l1.3-0.6l0,0L412.8,131.7z"/>
								<path class="st5" d="M98.1,131.5c0-3.4,1.3-4.9,3.9-4.9c2.8,0,5.2,2.5,5.3,5.9c0.2,2.9-1.6,5.1-3.8,5.5h-0.8
									c-2.7,0-4.7-2.5-4.7-5.7V131.5z"/>
								<path class="st2" d="M48,80.9c1.7-2.1,3.1-2.1,4.5,0C51.1,83.6,49.8,83.6,48,80.9z"/>
								<path class="st7" d="M-59,141.6c-0.6,1.1-1.4,2.2-2.2,3.2c-0.4,0.2-0.9,0.2-1.3-0.2c-0.3-0.5-0.3-1-0.2-1.5
									c0.6-0.8,1.4-1.5,2.2-2.1L-59,141.6z"/>
								<path class="st10" d="M-45.4,139.1l-3.8,0.4c0.2-1.9,1.6-2.3,2.7-3c0.7-0.2,1.4,0.2,1.5,0.9c0,0.1,0,0.1,0,0.2v0.4
									L-45.4,139.1z"/>
								<path class="st5" d="M412.8,131.7l1.3-0.6c1.3-0.4,2.4-1.1,3.4,0.4c0.9,0.9,1.1,2.3,0.5,3.4c-0.3,1.1-1.5,1.8-2.7,1.5
									C413.4,136.1,412.8,134.9,412.8,131.7z"/>
								<path class="st7" d="M184.4,144.6c-1.4,0.8-2.8,1.7-4.1,2.7c-0.8,0.6-1.4,1.3-2.2,1.9c-2,1.1-4.2,0-5.2-2.5
									c0-0.2-0.1-0.4-0.1-0.6c0-0.6,0.1-1.2,0.3-1.7c0.7-1,1.5-2,2.3-2.9c0.7-1.1,2.1-1.5,3.3-0.9c1.6,0.7,3.2,1.5,4.7,2.5
									C183.8,143.1,183.9,143.8,184.4,144.6z"/>
								<path class="st7" d="M241.5,139.5c-0.8-1-0.8-2.5,0.1-3.4c0.2-0.3,0.6-0.5,0.9-0.6l3.1-1c2-0.6,4.2,1,4.7,3.4
									c0,0.2,0.2,0.6,0.2,0.8c0.1,0.5,0,0.9-0.3,1.3c-1.3,1.6-3,2.6-5,3c-0.3,0-0.7,0-0.9-0.2L241.5,139.5z"/>
								<path class="st7" d="M209.7,118.6c0.8,0.7,1,1.7,0.6,2.7c-0.1,0.3-0.3,0.6-0.6,0.8c-1.1,0.9-2.5,1.9-3.3,2.5
									c-2.5,1.7-4.5,0.4-5.8-2.1c-0.2-0.6-0.1-1.3,0.1-1.9c1-1.3,2-2.6,3.1-3.8c0.6-0.5,1.4-0.7,2.2-0.4
									C207.4,116.9,208.6,117.7,209.7,118.6z"/>
								<path class="st7" d="M171,120.3c-1.8,1.5-3.7,2.9-5.6,4.2c-0.9,0.5-2,0.6-3,0.4c-2.5-0.8-3.1-3.4-1.6-5.9
									c2.2-3,3.6-3.4,6.7-1.7c0.5,0.4,1.1,0.4,1.6,0.8C170.1,118.3,170.9,119.2,171,120.3z"/>
								<path class="st5" d="M184.3,127.1c1.6,0.2,2.8,1.4,2.8,3c-0.3,1.5-1.5,2.7-3,3c-1.3,0-3-1.9-3-3.2
									C181.6,128.4,182.9,127.1,184.3,127.1z"/>
								<path class="st7" d="M192.1,145.2c-1.4-0.1-2.6-1.2-2.7-2.7c0-1.8,1.4-3.2,3.1-3.4c1.3,0.1,2.3,1.2,2.3,2.5v0.2
									c0.2,1.9-1.1,3.4-2.5,3.4H192.1z"/>
								<path class="st5" d="M150,112.5c1.3-0.1,2.4,0.9,2.5,2.2c0,0.2,0,0.3,0,0.5c-0.1,1.7-1.2,3.1-2.8,3.6
									c-1.4-0.1-2.6-1.2-2.7-2.7c0-1.9,1.3-3.4,2.8-3.4L150,112.5z"/>
								<path class="st7" d="M176.8,127.1c-2,0-2.8-0.9-2.8-3c0-1.7,0.8-2.5,2.5-2.7c1.5-0.1,2.9,1,3,2.5c0,0,0,0.1,0,0.1
									C179.5,125.7,178.3,127,176.8,127.1z"/>
								<path class="st7" d="M232.2,131.3c0,1.9-1.1,3.4-2.5,3.4h-0.1c-1.4-0.2-2.4-1.4-2.4-2.9l0,0c0.2-1.9,1.4-3.2,3-3.2
									C231.6,128.6,232.2,129.6,232.2,131.3z"/>
								<path class="st7" d="M218.6,129.8c0,1.9-1.1,3.4-2.6,3.6c-1.3,0.2-2.2-1-2.4-2.3v-0.6c0-1.9,1.3-3.4,2.8-3.4
									C217.9,127.1,218.6,127.9,218.6,129.8z"/>
								<path class="st7" d="M217.6,145.2c1.5,0,2.7,1.2,2.8,2.7c-0.1,1.5-1.3,2.8-2.8,3c-1.4,0-2.6-1.1-2.7-2.5c0-0.1,0-0.2,0-0.3
									v-0.2C214.9,145.7,215.5,145,217.6,145.2z"/>
								<path class="st7" d="M162.4,140c1.6,0,3,1.2,3,2.9v0.2c-0.1,1.5-1.4,2.6-2.9,2.5c0,0-0.1,0-0.1,0c-1.3,0.2-2.5-1.1-2.5-2.7
									v-0.2C160,141.2,161.1,139.9,162.4,140z"/>
								<path class="st7" d="M227.2,121.4c-1.9,0-2.5-0.8-2.7-2.7c-0.2-1.4,0.7-2.7,2-3h0.5c1.3-0.2,2.5,1,2.7,2.7v0.6
									c0.1,1.3-0.9,2.4-2.2,2.4C227.4,121.4,227.3,121.4,227.2,121.4z"/>
								<path class="st7" d="M279.9,129v-2.7c0.8,0.1,1.5-0.1,2.2-0.4c0.5-0.6,0.9-1.3,1.3-2.1c1.3,0.5,2.1,1.8,2,3.2
									c-0.1,1-0.8,1.9-1.7,2.3c-1.1,0.1-2.3,0.1-3.4-0.2C280.1,129.2,280.1,129.2,279.9,129z"/>
								<path class="st7" d="M172.7,133.2c0,1.9-0.8,2.7-2.2,2.7c-0.9,0.2-1.9-0.8-2-1.9v-0.6c0-1.5,0.9-3,2.2-3
									C171.9,130.7,172.8,131.9,172.7,133.2z"/>
								<path class="st5" d="M192.2,120.7c0,1.9-0.6,2.9-2,2.9c-1.3-0.4-2.3-1.6-2.2-3c0-1.3,1-2.4,2.3-2.5
									C191.6,117.8,192.2,118.8,192.2,120.7z"/>
								<path class="st7" d="M258.5,129c-1.4-1.7-1.9-3.2-1.4-4.6c0.4-0.8,1.3-1.3,2.2-1.1c1,0.4,1.6,1.4,1.4,2.5
									C260.9,128.1,260.9,128.3,258.5,129z"/>
								<path class="st5" d="M250.1,120.5c-0.1,1-0.8,1.9-1.7,1.9c-0.6,0.1-1.1-0.3-1.2-0.8c0-0.1,0-0.2,0-0.3V121
									c-0.1-1.1,0.3-1.7,1.4-1.7S250.1,119.7,250.1,120.5z"/>
								<path class="st5" d="M204.7,129c0.5-1.1,1.3-1.9,2.2-1.3c0.5,0.4,0.7,1.1,0.6,1.7c-0.2,0.5-0.6,0.9-1.1,1.1
									C205.4,130.9,204.9,130.2,204.7,129z"/>
								<path class="st5" d="M202.4,130.6c-0.2,1.3-0.8,2.1-1.7,1.7c-0.5-0.2-1.1-0.8-0.9-0.9c0.1-0.7,0.5-1.4,0.9-1.9
									C201.5,128.6,201.9,129.8,202.4,130.6z"/>
								<path class="st5" d="M134.6,118.4c-0.5-0.9-0.9-1.5-0.9-2.1c-0.2-0.7,0.2-1.3,0.9-1.5c0.1,0,0.2,0,0.4,0
									c0.6,0,1.1,0.5,1.2,1.1c0,0.1,0,0.3-0.1,0.4C135.6,117,135.1,117.7,134.6,118.4z"/>
								<path class="st5" d="M274.8,119.9c-0.9-0.3-1.7-0.7-2.5-1.1c-1.7-1.1-3.9-0.4-4.9,1.7c-0.2,0.3-0.3,0.6-0.3,1l0,0
									c-1.4-0.2-1.3,0.9-1.3,2.1v1c0.2,1.5,1.2,2.7,2.7,3c0.3,0.2,0.8,0.6,1.1,0.4c1-0.5,1.8-1.2,2.7-1.9l2.5-1.5v-0.6l0.3-0.2
									c0.8-0.5,1.2-1.5,0.9-2.5c-0.1-0.3-0.3-0.5-0.5-0.8C275.2,120.3,275.1,120.1,274.8,119.9z"/>
								<path class="st5" d="M145.4,143.5c1.6,0.2,2.8,1.4,2.8,3c-0.3,1.5-1.5,2.7-3,3c-1.3,0-3-1.9-3-3.2
									C142.7,144.8,143.9,143.5,145.4,143.5z"/>
								<path class="st5" d="M142.5,129c-0.2,1.3-0.8,2.1-1.9,1.7c-0.5-0.2-1.1-0.8-0.9-0.9c0.1-0.7,0.4-1.4,0.9-1.9
									C141.6,127.3,142.1,128.3,142.5,129z"/>
								<path class="st2" d="M458.3,117.2v-2.1l-0.5-0.6c-5.2-0.2-10.5-0.6-15.6-0.6c-9.2-0.2-18.6-0.4-27.8-0.4
									c-4.4,0-8.8,0.6-13.1,0.9h-0.5l-15.3,0.6l-14.2,0.6c-6.9,0.2-13.6,0.4-20.3,0.4c-4.7,0-9.4-0.2-14.1-0.6
									c-5.6-0.4-11.1-0.6-16.7-1c-4.7-0.4-9.4-0.8-13.9-0.9s-9.4-0.6-14.2-1.1c-4.2-0.4-16.3-1.5-16.4-1.3s-11.1-0.6-16.3-0.6
									c-8.3-0.2-16.7-0.6-25-0.6h-55.3c-5.5,0-10.9,0.4-16.3,0.6l-9.4,0.6c-4.7,0.4-9.2,0.6-13.9,1.1s-9.5,1-14.4,1.5
									c-3.3,0.4-6.6,0.6-9.8,1.1c-3,0.4-5.9,0.8-8.8,1.1c-2.1-0.2-4.2,0-6.3,0.6l-10.9,0.8H88l-30.2,0.6c-3.8,0-7.7-0.2-11.4-0.6
									c-5.3-0.4-10.6-0.6-15.8-1l-14.1-1.1c-4.2-0.4-8.4-0.6-12.7-1c-4.8-0.4-9.7-0.9-14.5-1.5h-1.2c-4.2-0.4-8.3-0.8-12.5-1
									c-2.2-0.2-4.4,0-6.6-0.2c-0.7-0.1-1.4-0.3-2-0.6h-2.9l-0.9,0.2c-0.6-0.2-1.2-0.2-1.9-0.2c-6.1,0-12-0.2-18,0
									c-3.5,0.1-7,0.4-10.5,0.9l-8,0.6l-9.1,0.6c-3,0.2-6.3,0.6-9.5,0.9H-95v3.2c0.3-1.5,1.8-2.4,3.3-2.1c1.2,0.2,2.1,1.2,2.2,2.5
									c0.3,1.5-0.7,3-2.2,3.4c-1.3,0.1-2.5-0.4-3.3-1.5c0,5.1-0.2,10.3-0.2,15.4v24.7l0,0V318h553.5V159.4h-0.3l0.3-0.4v-37.6l0,0
									v-4.2L458.3,117.2z M8.1,119.9c0.5-0.8,1.3-0.8,3,0.4l-1.7,2.3C8.4,121.8,7.5,121.2,8.1,119.9z M-53,135.1l-0.8,0.9
									L-53,135.1c0.6-0.6,1.1-1.3,1.6-2.1c0.3-0.5,0.7-0.8,1.3-0.9c-0.6,0.1-1,0.4-1.3,0.9C-51.9,133.8-52.4,134.5-53,135.1z
									 M-53.3,142.1c0.1,0.9,0,1.7-0.5,2.5C-53.5,143.8-53.3,143-53.3,142.1z M-54.7,139.6c0.5,0.6,0.6,0.9,0.9,1.3
									C-54.2,140.6-54.5,140.1-54.7,139.6c-0.6-0.8-1.5-1.3-2.5-1.3C-56.2,138.4-55.3,138.9-54.7,139.6z M-51.5,138.6L-51.5,138.6
									l0.2,0.2L-51.5,138.6z M-50.4,136.7l0.5-0.8l0.3-0.4l-0.3,0.4L-50.4,136.7z M-52.1,130.1L-52.1,130.1
									c1.9-1.1,2.6-1.5,3.8-0.8C-49.4,128.7-50.2,128.9-52.1,130.1z M-46.6,131.1L-46.6,131.1c-0.2,0.9-0.8,2.1,0.3,3.2l0,0
									C-47.5,133.2-46.8,132-46.6,131.1z M-49,117.8c1.3,0,1.9,0.9,1.9,2.5c0,1.9-0.6,2.7-2,2.7c-1.1,0.2-2-0.9-2.2-2.1v-0.4
									C-51.2,119.1-50.2,118-49,117.8L-49,117.8z M-52.2,129.9c-0.3-0.6-0.8-1.3-1.1-1.9C-52.9,128.6-52.5,129.3-52.2,129.9z
									 M-54.4,127.1c-0.2,0-0.5-0.2-0.6-0.2C-54.7,126.9-54.6,127.1-54.4,127.1z M-56.1,127.3l-0.9,0.6l0,0
									C-56.8,127.7-56.5,127.3-56.1,127.3z M-62.7,121c1.4,0,2.6,1.3,3,3c-0.2,1.5-1.5,2.8-3,3c-1.4,0-2.5-1.5-2.5-3.2
									c-0.1-1.4,0.9-2.7,2.3-2.8C-62.8,120.9-62.8,120.9-62.7,121L-62.7,121z M-82.2,131.7l-1.6-0.6c-0.5-1.1,0-2.4,1.1-2.9
									C-81.3,129.6-81.3,129.6-82.2,131.7z M-79.4,121c0.6-3.2,3.3-5.5,5.9-4.8h0.2c2,0.8,3.9,1.9,5.5,3.4
									c-0.3,0.4-0.3,0.8-0.5,0.8c-1.9,1.3-3.8,2.7-5.8,4c-1.1,0.7-2.6,0.6-3.6-0.4C-78.5,123.3-79.6,122.8-79.4,121L-79.4,121z
									 M-76.6,145.7c-1.5,0-2.8-1.2-2.8-2.7c0-1.9,1.3-3.4,2.7-3.4c1.6,0.3,2.7,1.6,2.8,3.2C-73.9,144.4-75.1,145.7-76.6,145.7
									C-76.6,145.7-76.6,145.7-76.6,145.7z M-69,135.9c-1.4,0-1.9-0.9-1.9-3.1s0.6-2.7,1.9-2.7c1.3-0.1,2.4,1,2.5,2.3v0.4
									c0.2,1.3-0.6,2.5-1.9,2.9C-68.5,135.8-68.8,135.9-69,135.9z M-66,150.3L-66,150.3c0.2-0.2,0.3-0.2,0.6-0.4
									C-65.5,150.1-65.7,150.3-66,150.3z M-56.5,144.6c-0.4,0.7-0.8,1.4-1.3,2.1c-1.4,0.4-2.6,1.4-3.4,2.7c0.5,1,1,2,1.6,3l0,0
									c-0.6-0.9-1.1-2-1.6-3l-1.6-0.2c-0.8-0.2-1.5-0.4-2.2-0.8c-0.4-0.2-0.9-0.5-1.3-0.8l0.3-1c-0.6-0.6-1.1-1.1-0.6-2.1
									c0.9-1.5,1.9-2.9,3-4.2c0.9-1.1,2-0.6,3.3-0.8v0.9l1.4,0.6h1.4c0.9,0.3,1.4,1.2,1.2,2.1C-56.1,144-56.1,144.4-56.5,144.6
									L-56.5,144.6z M-49.3,149.2c0.6-0.8,0.6-1.1,0.2-1.7C-48.5,147.8-48.6,148.4-49.3,149.2z M-41.9,138.9
									c0,0.4-0.1,0.8-0.3,1.1c-0.4,0.9-1.1,1.7-1.9,2.3c-0.2,2.9-2.7,4.8-4.2,3.2c-0.2-0.2-0.2-0.6-0.3-0.9
									c-1.3-1.3-0.8-3-0.8-4.6l0,0l0.5-0.6c0.2-1.9,1.6-2.3,2.7-3c0.7-0.2,1.4,0.2,1.5,0.9c0,0.1,0,0.1,0,0.2v0.4
									c0.2,0.8,0.3,1.5,0.5,2.1s0.3,1.3,0.5,2.1c0.8-0.6,1.4-1.4,1.9-2.3C-42.1,139.6-41.9,139.3-41.9,138.9l0-1.4
									c-0.1-1-0.6-2-1.3-2.9c-0.3-0.6-0.9-0.9-1.6-1c0.7,0.1,1.2,0.4,1.6,1c0.6,0.8,1.1,1.8,1.3,2.9
									C-41.8,138-41.8,138.5-41.9,138.9L-41.9,138.9z M-38.5,132.2c0.3,0.8,0.6,1.5,0.9,2.5l-1.4,1.9l1.4-1.9
									C-37.9,133.7-38.2,133-38.5,132.2l-1.7-1.3c1.1-2.7,1.6-2.9,3.4-1.9C-36.9,130.7-37.1,132.1-38.5,132.2z M-27.4,136.1
									c-0.2,0.6-0.6,0.9-1.3,1.9c-0.4-0.8-0.6-1.6-0.8-2.5c-0.1-0.6,0.2-1.1,0.8-1.3h0.5c0.6,0.2,0.9,0.9,0.8,1.5
									C-27.4,136.1-27.5,136.1-27.4,136.1z M-31.1,122.4v0.4l-0.6,0.4l0.6-0.4V122.4l-1.5-2.3c0.8-1.1,1.4-2.7,2.8-3l0,0
									c0.8,1.1,2.5,0.8,3,2.9L-31.1,122.4z M-25.6,130.6c0-1.8,1.1-3.3,2.8-3.8c1.2-0.1,2.3,0.8,2.3,2c0,0,0,0,0,0.1v0.6
									c0.1,1.8-1.2,3.5-3,3.8C-24.8,133-25.7,131.9-25.6,130.6z M-19.5,149.8c-0.8,1.1-2.8,0.9-4.7-0.2c-0.2-3,0.2-4,1.9-4.6
									c1.2-0.3,2.5,0.2,3.1,1.3C-18.8,147.5-18.9,148.7-19.5,149.8z M-15,118.4c0-1.5,1.3-2.7,2.7-2.7c0,0,0,0,0.1,0
									c1.3-0.1,2.5,0.8,2.6,2.1c0,0.1,0,0.2,0,0.4c0.2,1.4-0.6,2.7-1.9,3.2H-12c-1.4,0.1-2.7-1-2.8-2.4c0-0.1,0-0.1,0-0.2
									C-15,118.6-15,118.6-15,118.4L-15,118.4z M-9.7,134.4c-1.6,0-2.3-0.8-2.3-2.5c0.2-1.6,1.3-3,2.8-3.6
									c1.5,0.2,2.6,1.4,2.7,2.9C-6.6,132.9-8,134.3-9.7,134.4z M-0.9,121.7c-0.1-0.9,0.5-1.7,1.4-1.9c0.4,0.5,0.7,1.1,0.9,1.7
									c0.2,0.9-0.3,1.3-1.1,1.5S-1,122.6-0.9,121.7L-0.9,121.7z M8.1,142.2c-1.3,0.9-3.1,0.8-4.2-0.4c-1.2-1.1-2.3-2.3-3.3-3.6
									c-0.4-0.7-0.8-1.5-0.9-2.3c2.7-0.6,4.8-1.1,7.2-1.5s3.1,0.6,3.9,3.2c0.2,0.6,0.4,1.3,0.5,1.9
									C10.3,140.5,9.2,141.4,8.1,142.2z M32.5,127c-1.9,1.5-4.4,0.8-5.6-1.3c-0.2-0.2-0.2-0.4-0.3-0.6c-0.2-0.5-0.2-1,0-1.5
									c0.6-2,2-3.7,3.9-4.8c0.3-0.2,0.7-0.2,0.9,0c2,1.1,4.1,2.1,6.1,3.2c0.2,0.2,0.2,0.4,0.3,0.6L32.5,127z M59.1,124.7
									c-1.9,1.7-2.3,1.7-3.4,0.6c-0.7-0.8-0.9-2-0.5-3c0.3-1.2,1.6-2,2.8-1.7C59.4,121.3,59.1,123,59.1,124.7L59.1,124.7z
									 M72.8,127.2c-2,1.1-4.4,0.2-5.5-2.3c-0.2-0.5-0.2-1,0-1.5c0.5-1.8,1.6-3.3,3.1-4.4c0.8-0.8,2.1-0.9,3-0.2
									c1.4,1,3,1.7,4.4,2.5c0.5,0.3,0.9,0.7,1.3,1.1C76.9,124.1,74.9,125.7,72.8,127.2L72.8,127.2z M86.6,151.7
									c0,0.6-1.9,1.7-2.5,1.7c-1.3,0-2.3-1.1-2.5-2.9c-0.2-1.4,0.6-2.8,2-3.2c1.7,0.1,3.1,1.5,3,3.3c0,0.1,0,0.1,0,0.2
									C86.8,151.1,86.8,151.4,86.6,151.7L86.6,151.7z M176.5,121.5c1.6-0.1,2.9,1.1,3,2.7c0.1,1.6-1.1,2.9-2.7,3
									c-2,0-2.8-0.9-2.8-3C174,122.3,174.7,121.5,176.5,121.5L176.5,121.5z M160.8,119c2.2-3,3.6-3.4,6.7-1.7
									c0.5,0.4,1.1,0.4,1.6,0.8c0.8,0.6,1.7,0.9,1.9,2.3c-1.9,1.5-3.8,2.9-5.6,4.2c-0.9,0.6-2,0.7-3,0.4
									C159.7,124.1,159.1,121.5,160.8,119L160.8,119z M162.4,145.8c-1.3,0.2-2.5-1.1-2.5-2.7V143c0.2-1.5,1.3-2.9,2.5-2.7
									c1.6,0,3,1.2,3,2.9v0.2C165.2,144.8,163.9,145.9,162.4,145.8z M170.4,135.9c-0.9,0.2-1.9-0.8-2-1.9v-0.6c0-1.5,0.9-3,2.2-3
									c1.3,0.4,2.1,1.7,2,3C172.7,135.2,172,135.9,170.4,135.9L170.4,135.9z M180.4,147.3c-0.8,0.6-1.4,1.3-2.2,1.9
									c-2,1.1-4.2,0-5.2-2.5c0-0.2-0.1-0.4-0.1-0.6c0-0.6,0.1-1.2,0.3-1.7c0.7-1,1.5-2,2.3-2.9c0.7-1.1,2.1-1.5,3.3-0.9
									c1.6,0.7,3.2,1.5,4.7,2.5c0.5,0.2,0.6,0.9,1.1,1.7C183.1,145.5,181.7,146.3,180.4,147.3L180.4,147.3z M192.1,145.2
									c-1.4-0.1-2.6-1.2-2.7-2.7c0-1.8,1.4-3.2,3.1-3.4c1.3,0.1,2.3,1.2,2.3,2.5v0.2C194.9,143.7,193.7,145.2,192.1,145.2z
									 M206.5,124.5c-2.5,1.7-4.5,0.4-5.8-2.1c-0.2-0.6-0.1-1.3,0.1-1.9c0.8-1.5,1.9-2.8,3.1-4c0.6-0.5,1.4-0.7,2.2-0.4
									C207.9,117.1,208.1,123.1,206.5,124.5L206.5,124.5z M213.5,130.5c0-1.9,1.3-3.4,2.8-3.4l0,0c1.6,0,2.2,1,2.2,2.7
									c0,1.9-1.1,3.4-2.7,3.6c-1.3,0.2-2.2-1-2.3-2.5V130.5L213.5,130.5z M217.5,150.9c-1.4,0-2.6-1.1-2.7-2.5c0-0.1,0-0.2,0-0.3
									v-0.4c0-1.9,0.8-2.5,2.7-2.5c1.5,0,2.7,1.2,2.8,2.7C220,149.5,218.8,150.8,217.5,150.9L217.5,150.9z M224.5,118.8
									c-0.2-1.4,0.7-2.7,2-3h0.5c1.3-0.2,2.5,1,2.7,2.7v0.6c0.2,1.2-0.7,2.3-1.9,2.5c-0.2,0-0.4,0-0.6,0c-1.3,0.2-2.5-0.8-2.7-2.1
									C224.5,119.2,224.5,119,224.5,118.8L224.5,118.8z M229.5,134.9c-1.4-0.2-2.4-1.4-2.4-2.9l0,0c0.2-1.9,1.4-3.2,3-3.2
									c1.4,0,2.2,0.9,2.2,2.7C232.3,133.1,231.2,134.6,229.5,134.9L229.5,134.9z M248.4,119.3c0.9,0,1.6,0.4,1.6,1.1
									c-0.1,1-0.8,1.9-1.7,1.9c-0.6,0.1-1.1-0.3-1.2-0.8c0-0.1,0-0.2,0-0.3V121C247,120.1,247.5,119.3,248.4,119.3L248.4,119.3z
									 M250.1,140.2c-1.3,1.6-3,2.6-5,3c-0.3,0-0.7,0-0.9-0.2c-0.6-0.8-1.6-1.9-2.4-3c-0.9-1.1-0.8-2.7,0.2-3.8
									c0.3-0.3,0.7-0.6,1.1-0.8l2.7-0.8c2-0.6,4.2,1,4.7,3.4c0,0.2,0.2,0.6,0.2,0.8C250.4,139.3,250.3,139.8,250.1,140.2z
									 M258.4,129.2c-1.4-1.7-1.9-3.2-1.4-4.6c0.4-0.8,1.3-1.3,2.2-1.1c1,0.4,1.6,1.4,1.4,2.5
									C260.8,128.1,260.8,128.3,258.4,129.2z M274.8,124.1L274.8,124.1v0.6l-2.5,1.5c-0.8,0.7-1.7,1.4-2.6,1.9
									c-0.3,0.2-0.8-0.2-1.1-0.4c-1.4-0.3-2.5-1.5-2.6-3v-1c0-1.1-0.2-2.3,1.3-2.1l0,0c0.3-2,2.1-3.3,4.1-3.1c0.1,0,0.2,0,0.3,0.1
									c0.3,0,0.6,0.1,0.8,0.4c0.8,0.4,1.7,0.8,2.5,1.1l0.5,0.6c0.7,0.8,0.8,1.9,0.3,2.9C275.3,123.6,275.2,123.9,274.8,124.1
									L274.8,124.1z M283.6,129.6c-1.1,0.1-2.3,0.1-3.4-0.2c-0.1,0-0.2-0.1-0.2-0.2c0,0,0,0,0,0v-1c0-1,0.5-1.7,1.3-1.7
									c0.3,0,0.7-0.2,0.9-0.4c0.3-0.3,0.6-0.7,0.8-1.1c0.2-0.6,0.8-0.8,1.1-0.4l0,0c0.8,0.6,1.2,1.6,1.1,2.7
									C285,128.2,284.4,129.1,283.6,129.6L283.6,129.6z M290.2,135.9c-1.3,0-3-1.9-3-3.2c0.3-1.5,1.4-2.6,2.8-3
									c1.4,0,2.6,1.1,2.7,2.5c0,0.1,0,0.2,0,0.3c0.2,1.7-0.9,3.2-2.3,3.2C290.3,135.8,290.2,135.9,290.2,135.9
									C290.1,135.9,290.1,135.9,290.2,135.9L290.2,135.9z M296.3,126.2c-1.3,0-2.4-1.1-2.3-2.5v-0.2c-0.1-1.4,0.8-2.6,2.2-3
									c1.3,0.2,2,1.5,2.2,3C298.3,124.8,297.5,125.9,296.3,126.2L296.3,126.2z M312.7,133.4c-0.8,0.4-1.6-0.2-2.2-1.9l2-1.3
									C313.4,131.7,313.4,132.8,312.7,133.4L312.7,133.4z M312.2,127.1c-2,1.3-4.5,0.4-5.6-2.1c0,0,0-0.2-0.2-0.2
									c-0.5-1.5,0.5-2.7,1.3-3.6c2.2-2.9,4.4-3,7.7-0.9c1.7,1.1,1.7,1.1,2.5,2.7C315.8,124.3,314.1,125.8,312.2,127.1z
									 M321.7,135.9c-1.2,0.1-2.3-0.9-2.4-2.2c0-0.1,0-0.2,0-0.3c-0.3-1.7,0.8-3.3,2.5-3.6h0.3c1.2-0.1,2.3,0.8,2.3,2
									c0,0,0,0,0,0.1v0.8c0,1.7-1.1,3.2-2.5,3.2H321.7z M331.4,126.6c-1.4,0-2.5-1.5-2.5-3.2l0,0c0-1.9,0.6-2.7,2.7-2.7
									s2.5,0.8,2.5,2.7S332.8,126.6,331.4,126.6z M372.9,120.7c1.1-0.2,2-0.6,2.4,1c0.1,0.9-0.9,2.1-1.6,1.9
									C372.5,123,372.8,121.9,372.9,120.7L372.9,120.7z M342,131.1c-0.8,0.9-1.3,0.8-2.5-1l1.9-1.9
									C342.6,129.4,342.6,129.9,342,131.1L342,131.1z M349.8,119.7c0-1.7,1.1-3,2.5-2.9h0.3c1.4-0.1,2.6,1.1,2.7,2.5
									c0.1,1.5-1,2.9-2.6,3c-0.1,0-0.2,0-0.3,0l0,0C351.1,122.5,350,121.2,349.8,119.7L349.8,119.7z M355.1,135.9
									c-1.1,0.2-2.2-0.8-2.3-2.3V133c-0.3-1.5,0.7-3.1,2.2-3.5h0.6c1.7,0,2.5,0.8,2.5,2.5C357.9,133.8,356.8,135.3,355.1,135.9
									L355.1,135.9z M374.5,142.1c-1,0.9-2.2,1.5-3.4,1.9c-0.8,0-1.5-0.2-2.2-0.6c-2.2-1.6-3.8-3.8-4.9-6.3
									c0.5-0.2,0.9-0.2,1.4-0.2c1.2,0.1,2.4-0.1,3.4-0.8c0.8-0.4,1.6-0.6,2.5-0.8c1.6-0.4,3,0.6,3.8,2.3c0.8,1.2,0.8,2.8-0.2,4
									C374.8,142,374.7,142.2,374.5,142.1L374.5,142.1z M384.3,130.1c-1.4-0.2-2.3-1.7-2.3-3.4c0.1-1.5,1.1-2.7,2.3-2.7
									c0.9,0,1.9,1.7,1.9,3.2C386.2,128.8,385.3,130.1,384.3,130.1z M396.7,128.1c-1.7,1.3-4.1,0.6-5.2-1.5
									c-0.1-0.2-0.1-0.4-0.3-0.6c-0.1-0.5-0.2-1-0.2-1.5c0.5-2.5,3.4-5.3,5.5-4.6c2,0.8,3.9,1.8,5.6,3c0.2,0.3,0.3,0.6,0.3,1
									L396.7,128.1z M410,129.6c-0.7,1.1-2.2,1.4-3.4,0.7c-0.2-0.1-0.4-0.3-0.6-0.5l-0.2-0.2l-0.5-0.6v-0.6l2.4-2.3
									c0.2-0.4,0.5-0.9,0.6-1.3l0,0l0.8-0.2c0,0,0,0.2,0.1,0.2C410.9,126.9,411.1,128.4,410,129.6L410,129.6z M418,135.1
									c-0.3,1.1-1.5,1.8-2.7,1.5c-1.9-0.6-2.5-1.7-2.5-4.8l0,0l1.3-0.6l0.2-0.2l-0.2,0.2l0,0c1.3-0.4,2.4-1.1,3.4,0.4
									C418.4,132.6,418.6,134,418,135.1L418,135.1z M421.4,127.1c-1.3,0-1.9-1.5-1.7-3.4c-0.1-1.1,0.7-2.1,1.9-2.3h0.3
									c1.3,0.3,2.2,1.6,2,3l0,0C423.7,125.7,422.7,126.8,421.4,127.1L421.4,127.1z M437.8,134.3c-1.4,0.2-1.7-0.4-1.4-2.1l0.2-0.9
									c1.4,0.2,1.6,1.5,2.2,2.7C438.4,134,438.1,134.1,437.8,134.3L437.8,134.3z M442.8,124.4c-1.8,0.8-3.4,2-4.7,3.6
									c-0.1,0.2-0.5,0-0.6,0.2s0,0.4,0,0.6l0,0c-0.8,0-1.4,0-1.7,1.1h-0.2c-0.3-0.2-0.9-0.2-0.9-0.4c-0.5-1.9-3-2.3-2.6-4.8
									l0.9-1.5v-0.9c0.3-0.2,0.7-0.3,0.9-0.6c1.9-2.5,3.9-1.9,5.9-0.6c1.6,0.6,3.1,1.8,4.1,3.2L442.8,124.4z M445,133.2
									c0.6-2.3,1.1-2.5,4.1-2.3c1.3,2.7,1.4,3.4,0.2,4.9c-0.7,1.1-2.1,1.5-3.3,0.9C445.1,135.8,444.8,134.4,445,133.2L445,133.2z
									 M448.8,154.5c-1.4,0-2.5-1.3-2.7-3.1c0.2-1.6,1.3-2.9,2.8-3.2c1.4,0,2.7,1.5,2.7,3.2v0.2
									C451.4,153.6,450.1,154.7,448.8,154.5L448.8,154.5z"/>
								<path class="st10" d="M407.9,126.4l-2.3,2.3C406.6,128.2,407.4,127.4,407.9,126.4z"/>
								<polygon class="st10" points="409.3,125 407.9,126.4 407.9,126.4 								"/>
								<path class="st12" d="M208.2,28.1c-5-0.8-1.6,9.5-5.9,12.7c-0.9,0.8-8.4,2.1-9.5,2.9c-3.4,2.7-2.5,1.9-5.8,4.8
									c-2.1,1.9-4.4,3.7-6.7,5.3c-2,1.3-7,6.8-9.1,7.8c-7.2,3-11.3,2.3-17.2,8c-2.8,2.7-5.5,5.7-8.8,7.4c-3,1.5-6.4,1.7-8.8,4
									c-1.2,1.3-2.3,2.9-3,4.6c-3.3,5.7-8,11.4-13.6,11c-0.5,0-1-0.2-1.4-0.6c-0.3-0.5-0.5-1.1-0.5-1.7
									c-1.1-6.5-5.3-11.6-10.6-13.1l-0.5-0.2c3.1,3.5,5.6,7.5,7.4,11.8c0.6,1,1,2.2,0.9,3.4c0.1,1.1-0.6,2.2-1.7,2.5
									c0,3,3.1,4.6,5.6,4.4c4.2-0.6,7.8-3.2,9.5-7c1.1-2.1,1.7-4.6,2.8-6.8c1.9-4.1,5.8-6.9,10.3-7.4c1.1,0,2.2-0.2,3.3-0.6
									c1.6-0.8,2.5-2.9,3.8-4c2.5-2.5,5.9-2.3,9.1-2.8c4.2-1,8.3-2.7,12-4.9c1.5-0.6,2.8-1.7,3.8-3c1.1-1.7,1.6-4,2.8-5.7
									c2.8-3.8,8.3-2.5,11.3-5.9c0.6-1.1,1.4-2.1,2.2-3c1-0.7,2.1-1.2,3.3-1.3c8.8-1.7,18.4-3,24.7-10.7L208.2,28.1z"/>
								<path class="st12" d="M208.2,27.1c-3.6-0.6-3.8,4.2-4.2,7.4c0.1,1.9-0.6,3.8-1.9,5.3c-1.2,0.7-2.5,1.2-3.9,1.3
									c-1.7,0.4-3.4,0.8-5,1.3c-1.4,0.8-2.7,1.7-3.9,2.9l-4.7,4c-1.6,1.3-3.4,2.7-5.3,4.2c-3.3,2.7-5.9,6.3-9.7,7.8
									c-4.4,1.7-9.1,2.3-13.1,5c-2.3,1.8-4.5,3.7-6.6,5.9c-2.1,2.1-4.6,3.7-7.4,4.8c-2.6,0.6-5,1.8-6.9,3.6c-2,2.1-3.3,5.1-5,7.6
									c-1.5,2.4-3.5,4.5-5.9,6.1c-1.1,0.7-2.4,1.1-3.7,1.3c-0.6,0.2-1.3,0.2-1.9,0c-0.8-0.4-0.8-1.3-0.9-2.3
									c-1.3-5.5-4.5-10.1-8.9-12.3c-0.9-0.4-1.7-0.8-2.7-1c-0.5-0.1-0.9,0.2-1.1,0.7c-0.1,0.3,0,0.7,0.3,0.9
									c2.2,2.2,3.9,4.8,5.2,7.6c0.6,1.1,4.5,8.2,1.9,8.4c-0.5,0-0.8,0.4-0.8,1c0.2,4.6,4.7,5.7,7.8,4.9c4.1-1,7.5-4,9.4-8.6
									c0.9-2.6,2-5.2,3.4-7.6c1.4-1.9,3.2-3.4,5.3-4.4c0.9-0.5,2-0.7,3-0.8c1.2,0.1,2.3-0.1,3.4-0.4c2-0.8,3-3,4.4-4.4
									c1.7-1.4,3.8-2.1,5.9-2.1c2.2-0.2,4.4-0.6,6.6-1.3c2.3-0.9,4.6-2,6.7-3.2c2.2-0.9,4.1-2.3,5.6-4c1.4-1.9,1.7-4.7,3.3-6.3
									c1.4-1.2,3.2-2,5-2.3c1.8-0.4,3.4-1.2,4.9-2.3c0.6-0.7,1.2-1.5,1.7-2.3c0.7-1.1,1.8-2,3.1-2.3c4.7-1.1,9.5-1.7,14.1-3.2
									c4.6-1.4,8.7-4.1,11.9-7.8c0.3-0.4,0.3-0.9,0-1.3L208,27.3c-0.2-0.3-0.6-0.4-0.9-0.2c-0.1,0-0.1,0.1-0.2,0.2
									c-0.3,0.4-0.3,0.9,0,1.3l0,0l9.5,11.6v-1.3c-5.9,7-14.7,8.6-22.5,10.1c-1.9,0.4-4.1,0.6-5.6,2.1c-0.7,0.9-1.3,1.7-1.9,2.7
									c-0.6,0.8-1.3,1.4-2.2,1.9c-3.1,1.5-6.9,1.1-9.2,4.6c-1.3,1.9-1.7,4.6-3.1,6.3c-1.7,1.6-3.7,2.8-5.9,3.6
									c-2.2,1.2-4.6,2.2-7,2.8c-2,0.6-4.2,0.6-6.3,1c-1.9,0.2-3.7,1.1-5.2,2.5c-1.6,1.7-2.5,4-4.8,4.2c-2,0-4,0.4-5.9,1.1
									c-1.8,0.9-3.5,2.2-4.9,3.8c-1.6,2.2-2.9,4.6-3.8,7.2c-0.9,2.6-2.4,5-4.5,6.8c-1.7,1.5-3.8,2.4-6.1,2.5c-1.7,0-4.2-1-4.4-3.4
									l-0.8,1c1.4-0.3,2.4-1.5,2.5-3c0.2-2.1-1.1-4-1.9-5.7c-1.6-3.8-3.8-7.3-6.6-10.4l-0.8,1.5c2.2,0.6,4.2,1.8,5.8,3.4
									c2,2,3.4,4.5,4.2,7.2c0.1,1.4,0.5,2.7,1.1,4c0.7,0.9,1.9,1.3,3,1.1c2.5-0.2,4.9-1.2,6.7-2.8c2.1-2,3.9-4.2,5.5-6.7
									c1.7-2.7,3-5.7,5.5-7.2s5-1.7,7.5-3c2.5-1.6,4.7-3.4,6.7-5.6c1.9-2.1,4.1-3.9,6.6-5.3c2-1,4.1-1.7,6.3-2.3
									c2.3-0.5,4.6-1.4,6.7-2.5c1.7-1.2,3.3-2.6,4.7-4.2c3.3-3,6.7-5.5,10-8.4c1.4-1.1,2.8-2.3,4.1-3.4c0.6-0.6,1.4-1.1,2.2-1.7
									c0.6-0.4,1.3-0.6,2-0.6c1.7-0.5,3.5-1,5.3-1.3c1.5-0.3,2.7-1.2,3.4-2.5c0.9-1.8,1.5-3.7,1.6-5.7c0-1.7,0.3-3.4,0.9-4.9
									c0.4-0.5,1.1-0.8,1.7-0.6C209.1,29,209.1,27.1,208.2,27.1z"/>
								<path class="st2" d="M71.1,102l12-2.7l6.1-1.3c1-0.3,2-0.5,3-0.6c1,0,2,0.2,3,0.6c1.8,0.4,3.6,0.4,5.3-0.2
									c2-0.2,4.1-0.2,6.1,0l2.8,0.2c0.5,0,1,0,1.4,0.2c0.5,0.2,0.6,0.8,0.9,1.3c0.6,1.5,1.5,2.8,2.7,4c1.3,0.9,3,1,4.4,0.2
									c1.9-1,3.8-1.7,5.8-2.7l2.6-1.3c0.9-0.6,2-1,3.1-1c0.4,0.2,0.8,0.6,0.9,1c0.1,0.5-0.2,0.9-0.6,1.1c-0.9,0.6-1.9,1-2.8,1.5
									c-7,3-14.7,2.7-22.2,2.5L78,104.5c-0.5,0-0.8,0.4-0.8,0.9s0.3,1,0.8,1l26.7,0.4c7.8,0.2,16.1,0.6,23.8-2.7
									c1.4-0.6,3.6-1.3,4.2-3c0.5-1.5-0.2-3.2-1.6-4H131c-1.9-0.8-3.8,0.6-5.5,1.3l-6.2,2.8c-0.9,0.5-1.8,0.9-2.8,1.1
									c-1-0.1-1.8-0.7-2.3-1.5c-0.9-1.3-1.4-3.6-2.8-4.4c-0.8-0.3-1.8-0.5-2.7-0.4c-1.1-0.2-2.3-0.2-3.4-0.2
									c-2.1-0.1-4.2-0.1-6.3,0.2c-1.2,0.4-2.4,0.4-3.6,0c-1.1-0.4-2.2-0.6-3.3-0.6c-2.3,0.3-4.6,0.8-6.9,1.5l-14.5,3
									C69.8,100.3,70.1,102.2,71.1,102L71.1,102z"/>
								<g class="st3">
									<path class="st7" d="M221.4,88.7c-1.1,0.6-2.1,1.3-3.1,2.1c-0.6,0.4-1.1,1-1.7,1.3c-1.4,0.7-3,0.1-3.7-1.3
										c-0.1-0.2-0.2-0.4-0.2-0.6c0-0.2-0.2-0.2-0.2-0.4c0-0.5,0.1-0.9,0.3-1.3c0.5-0.8,1.3-1.5,1.7-2.3c0.6-0.8,1.6-1.1,2.5-0.8
										c1.2,0.6,2.4,1.2,3.6,1.9C220.8,87.9,221,88.3,221.4,88.7z"/>
									<path class="st7" d="M264.6,84.9c-0.6-0.8-0.5-1.9,0.2-2.7c0.2-0.2,0.4-0.3,0.6-0.4l2.4-0.6c1.6-0.6,3.1,0.6,3.6,2.5
										c0,0.2,0,0.4,0.2,0.6c0,0.4,0,0.8-0.2,1.1c-0.9,1.2-2.3,2-3.8,2.3c-0.3,0-0.5,0-0.8-0.2L264.6,84.9z"/>
									<path class="st7" d="M240.5,68.9c0.6,0.5,0.8,1.4,0.5,2.1l-0.5,0.6c-0.9,0.6-1.9,1.5-2.5,1.9c-1.2,0.9-2.9,0.7-3.8-0.5
										c-0.2-0.3-0.3-0.5-0.4-0.9c-0.1-0.1-0.1-0.2-0.2-0.4c-0.2-0.4-0.1-0.9,0.2-1.3c0.6-1.1,1.4-2.1,2.3-2.8
										c0.5-0.3,1.2-0.4,1.7-0.2C238.7,67.8,239.6,68.4,240.5,68.9z"/>
									<path class="st7" d="M211,70.3c-1.4,1.1-2.8,2.3-4.2,3.2c-0.7,0.4-1.5,0.5-2.3,0.4c-1.3-0.3-2.1-1.6-1.9-2.8
										c0-0.7,0.3-1.3,0.8-1.7c1.6-2.3,2.6-2.7,5-1.3c0.4,0.2,0.8,0.4,1.3,0.6C210.2,68.9,210.8,69.1,211,70.3z"/>
									<path class="st5" d="M221.1,75.4c1.2,0.1,2.1,1.1,2.2,2.3c0,1.2-1.1,2.1-2.3,2.1c-1.2,0-2.1-1.1-2.1-2.3
										C219,76.3,220,75.4,221.1,75.4z"/>
									<path class="st7" d="M227.1,89.3c-1.1-0.1-2-1-2-2.1c0.2-1.5,1.1-2.7,2.4-2.7c1,0,1.7,0.8,1.7,1.8c0,0,0,0.1,0,0.1v0.2
										C229.3,87.9,228.4,89,227.1,89.3L227.1,89.3z"/>
									<path class="st5" d="M195.2,64.4c0.9-0.1,1.8,0.6,1.9,1.6c0,0.1,0,0.2,0,0.3c-0.1,1.3-1,2.3-2.2,2.7c-1-0.1-1.9-0.9-2-1.9
										c0-1.5,0.9-2.7,2-2.7H195.2z"/>
									<path class="st5" d="M198,80.2c0,1.2-0.9,2.2-2,2.5c-1.3-0.2-2.3-1.3-2.2-2.7c0.1-1.1,0.9-1.9,2-1.9
										c1.1-0.1,2.1,0.7,2.2,1.8C198,80,198,80.1,198,80.2z"/>
									<path class="st7" d="M215.4,75.4c-1.6,0-2.2-0.8-2.2-2.3c0-1.3,0.6-1.9,1.9-1.9c1.2-0.1,2.2,0.9,2.3,2.1c0,0,0,0,0,0
										C217.4,74.6,216.5,75.6,215.4,75.4z"/>
									<path class="st7" d="M257.6,78.6c0.1,1.2-0.7,2.3-1.9,2.7h-0.2c-0.9,0-1.7-1-1.7-2.3l0,0c-0.1-1.3,0.9-2.4,2.2-2.5
										c0,0,0,0,0,0C257.1,76.6,257.6,77.3,257.6,78.6z"/>
									<path class="st7" d="M247.3,77.5c0,1.5-0.9,2.7-2,2.7l0,0c-0.9,0.2-1.7-0.8-1.9-1.7v-0.4c0-1.5,0.9-2.7,2.2-2.5
										C246.6,75.4,247.3,76.2,247.3,77.5z"/>
									<path class="st7" d="M246.4,89.3c1-0.1,1.9,0.7,2,1.8c0,0.1,0,0.2,0,0.3c0,1.1-0.9,2.1-2,2.3c-1.2-0.1-2.1-1.1-2-2.3
										c0,0,0,0,0,0v-0.2C244.4,89.7,244.9,89.1,246.4,89.3z"/>
									<path class="st7" d="M204.6,85.3c1.1-0.2,2.2,0.8,2.2,2.3v0.2c-0.1,1.1-1.1,2-2.2,1.9c-0.9,0.2-1.9-0.8-1.9-1.9
										c-0.2-1,0.5-2.1,1.5-2.3c0,0,0,0,0,0C204.3,85.3,204.4,85.3,204.6,85.3z"/>
									<path class="st7" d="M253.8,71c-1.4,0-1.9-0.6-2-2.1c-0.2-1,0.5-2,1.5-2.3h0.5c1.1-0.2,1.9,0.8,2,2.1v0.4
										C255.7,70.5,255.1,71,253.8,71z"/>
									<path class="st5" d="M175,75.4v-0.8c0.3-0.4,0.6-0.6,0.9-1c0.6-0.5,1.4-0.5,2,0c0.6,0.7,0.8,1.8,0.5,2.7
										c-0.3,0.5-0.6,1-0.9,1.5l-0.9-0.2L175,75.4z"/>
									<path class="st7" d="M293.8,76.9v-2.1c0.6,0.1,1.2-0.1,1.7-0.4c0.5-0.2,0.6-1,0.9-1.5c1,0.3,1.7,1.4,1.6,2.5
										c-0.1,0.7-0.6,1.4-1.3,1.7c-0.9,0-1.8,0-2.7-0.2C294,77.1,294,77.1,293.8,76.9z"/>
									<path class="st7" d="M212.2,80.2c0,1.3-0.6,1.9-1.7,1.9s-1.6-0.6-1.6-1.9c0-1.2,0.6-2.3,1.7-2.3
										C211.7,78.1,212.4,79.1,212.2,80.2z"/>
									<path class="st5" d="M227.2,70.7c0,1.5-0.5,2.3-1.6,2.1c-1.1-0.3-1.8-1.3-1.7-2.5c0.2-0.9,0.8-1.6,1.7-1.9
										C226.8,68.4,227.2,68.9,227.2,70.7z"/>
									<path class="st7" d="M277.6,76.9c-1.1-1.3-1.4-2.5-0.9-3.4c0.2-0.6,0.8-1,1.4-0.9c0.1,0,0.2,0.1,0.3,0.1
										c0.8,0.2,1.3,1.1,1.1,1.9C279.3,76.2,279.3,76.4,277.6,76.9z"/>
									<path class="st5" d="M271.2,70.5c0,0.7-0.5,1.3-1.3,1.5c-0.5,0-0.9-0.4-0.9-0.9c0,0,0,0,0-0.1v-0.2
										c-0.2-0.5,0.1-1.1,0.6-1.3c0.1,0,0.2-0.1,0.3-0.1C270.5,69.6,271.2,69.9,271.2,70.5z"/>
									<path class="st5" d="M236.6,76.9c0.3-0.8,0.9-1.3,1.7-1c0.3,0.4,0.5,0.8,0.5,1.3c-0.2,0.4-0.4,0.8-0.8,1
										C237.1,78.4,236.8,77.9,236.6,76.9z"/>
									<path class="st5" d="M188.2,65c0.2,1.7,0,2.1-0.8,2.3c-0.5,0.2-0.9-0.4-1.1-1v-0.4C186.4,65,186.8,64.8,188.2,65z"/>
									<path class="st5" d="M234.9,78.1c-0.2,1.1-0.6,1.5-1.4,1.3c-0.3,0-0.8-0.6-0.8-0.8c0.1-0.5,0.3-0.9,0.6-1.3
										C234.1,76.6,234.4,77.5,234.9,78.1z"/>
									<path class="st5" d="M183.4,68.8c-0.3-0.5-0.5-1.1-0.6-1.7c0-0.8,0.3-1.1,0.9-1.1c0.5,0,0.9,0.4,1,0.9c0,0.1,0,0.1,0,0.2
										C184.3,67.7,183.9,68.3,183.4,68.8z"/>
									<path class="st5" d="M289.9,69.9c-0.7-0.2-1.3-0.4-1.9-0.8c-1-0.8-2.5-0.5-3.3,0.5c-0.1,0.2-0.3,0.4-0.3,0.6
										c-0.2,0.2-0.2,0.6-0.3,0.8l0,0c-1.1-0.2-0.9,0.8-0.9,1.5v0.8c0.1,1.1,0.8,2,1.9,2.3c0.2,0.2,0.5,0.3,0.8,0.4
										c0.7-0.4,1.4-1,2-1.5l1.9-1.1v-0.4l0.3-0.2c0.6-0.3,0.9-1,0.8-1.7c-0.1-0.3-0.3-0.5-0.5-0.8
										C290.2,70.3,290.1,70.1,289.9,69.9z"/>
									<path class="st5" d="M191.6,87.8c1.2,0.1,2.1,1.1,2.2,2.3c0.1,1.2-0.9,2.2-2.1,2.3c-1.2,0.1-2.2-0.9-2.3-2.1
										c0-0.1,0-0.2,0-0.4C189.7,88.8,190.5,88,191.6,87.8z"/>
									<path class="st5" d="M189.4,76.9c-0.1,1.1-0.6,1.5-1.4,1.3c-0.3-0.2-0.8-0.6-0.8-0.8c0.1-0.5,0.3-0.9,0.6-1.3
										C188.6,75.6,189,76.4,189.4,76.9z"/>
								</g>
							</g>
						</g>
					</g>
				</g>
			</g>
		</g>
	</g>
</g>
</svg>
