<?xml version="1.0" encoding="utf-8"?>
<!-- Generator: Adobe Illustrator 22.0.1, SVG Export Plug-In . SVG Version: 6.00 Build 0)  -->
<svg version="1.1" id="Layer_1" xmlns="http://www.w3.org/2000/svg" xmlns:xlink="http://www.w3.org/1999/xlink" x="0px" y="0px"
	 viewBox="0 0 38 37" style="enable-background:new 0 0 38 37;" xml:space="preserve">
<style type="text/css">
	.st0{opacity:0.3;}
	.st1{fill:#FFFFFF;}
	.st2{fill:url(#SVGID_1_);}
	.st3{fill:#005DBA;}
	.st4{fill:#05CDEE;}
	.st5{fill:#056CAE;}
	.st6{fill:#FFFFFF;stroke:#005DBA;stroke-width:3;stroke-miterlimit:10;}
	.st7{fill:url(#SVGID_2_);}
	.st8{fill:#662D91;}
	.st9{fill:#A549A3;}
	.st10{fill:#66336B;}
	.st11{fill:#FFFFFF;stroke:#662D91;stroke-width:3;stroke-miterlimit:10;}
	.st12{fill:url(#SVGID_3_);}
	.st13{fill:url(#SVGID_4_);}
	.st14{fill:#06DFF7;}
	.st15{fill:#25B2D8;}
</style>
<g>
	<g>
		<g class="st0">
			<path d="M21.4,33.3c-0.6,0-1.2-0.2-1.8-0.6L7,22.7c-0.7-0.5-1.1-1.4-1.1-2.3s0.4-1.7,1.1-2.3l12.7-9.9c0.5-0.4,1.1-0.6,1.8-0.6
				c1.6,0,2.9,1.3,2.9,2.9c0,0.4,0.3,1.5,0.6,2h4.3c1.6,0,2.9,1.3,2.9,2.9v10.1c0,1.6-1.3,2.9-2.9,2.9h-4.3c-0.3,0.5-0.6,1.6-0.6,2
				c0,0.8-0.3,1.5-0.9,2.1C22.8,33,22.1,33.3,21.4,33.3L21.4,33.3z"/>
			<path d="M21.4,9c0.8,0,1.5,0.6,1.5,1.5v0c0,0.8,0.7,3.4,1.5,3.4h4.7c0.8,0,1.5,0.7,1.5,1.5v10.1c0,0.8-0.7,1.5-1.5,1.5h-4.7
				c-0.8,0-1.5,2.5-1.5,3.4v0c0,0.9-0.7,1.5-1.5,1.5c-0.3,0-0.6-0.1-0.9-0.3L7.8,21.7c-0.8-0.6-0.8-1.8,0-2.4l12.7-9.9
				C20.8,9.1,21.1,9,21.4,9 M21.4,6.3c-0.9,0-1.8,0.3-2.6,0.9L6.1,17.1c-1,0.8-1.6,2-1.6,3.3c0,1.3,0.6,2.5,1.6,3.3l12.7,9.9
				c0.8,0.6,1.7,0.9,2.6,0.9c2.3,0,4.2-1.9,4.2-4.2c0-0.1,0.1-0.4,0.1-0.6h3.3c2.3,0,4.2-1.9,4.2-4.2V15.4c0-2.3-1.9-4.2-4.2-4.2
				h-3.3c-0.1-0.3-0.1-0.5-0.1-0.7C25.6,8.2,23.7,6.3,21.4,6.3L21.4,6.3z"/>
		</g>
		<g>
			<radialGradient id="SVGID_1_" cx="17.5422" cy="18.4268" r="12.9133" gradientUnits="userSpaceOnUse">
				<stop  offset="5.008013e-04" style="stop-color:#29E1FF"/>
				<stop  offset="1" style="stop-color:#29ABE2"/>
			</radialGradient>
			<path class="st2" d="M20,31.2c-0.6,0-1.2-0.2-1.8-0.6L5.6,20.7c-0.7-0.5-1.1-1.4-1.1-2.3s0.4-1.7,1.1-2.3l12.7-9.9
				c0.5-0.4,1.1-0.6,1.8-0.6c1.6,0,2.9,1.3,2.9,2.9c0,0.4,0.3,1.5,0.6,2h4.3c1.6,0,2.9,1.3,2.9,2.9v10.1c0,1.6-1.3,2.9-2.9,2.9h-4.3
				c-0.3,0.5-0.6,1.6-0.6,2c0,0.8-0.3,1.5-0.9,2.1C21.5,30.9,20.8,31.2,20,31.2L20,31.2z"/>
			<g>
				<path class="st1" d="M20,7c0.8,0,1.5,0.6,1.5,1.5v0c0,0.8,0.7,3.4,1.5,3.4h4.7c0.8,0,1.5,0.7,1.5,1.5v10.1
					c0,0.8-0.7,1.5-1.5,1.5H23c-0.8,0-1.5,2.5-1.5,3.4v0c0,0.9-0.7,1.5-1.5,1.5c-0.3,0-0.6-0.1-0.9-0.3L6.4,19.6
					c-0.8-0.6-0.8-1.8,0-2.4l12.7-9.9C19.4,7.1,19.7,7,20,7 M20,4.3c-0.9,0-1.8,0.3-2.6,0.9L4.8,15.1c-1,0.8-1.6,2-1.6,3.3
					c0,1.3,0.6,2.5,1.6,3.3l12.7,9.9c0.8,0.6,1.7,0.9,2.6,0.9c2.3,0,4.2-1.9,4.2-4.2c0-0.1,0.1-0.4,0.1-0.6h3.3
					c2.3,0,4.2-1.9,4.2-4.2V13.4c0-2.3-1.9-4.2-4.2-4.2h-3.3c-0.1-0.3-0.1-0.5-0.1-0.7C24.3,6.2,22.4,4.3,20,4.3L20,4.3z"/>
			</g>
		</g>
	</g>
	<g>
		<radialGradient id="SVGID_2_" cx="17.542" cy="18.4268" r="12.0499" gradientUnits="userSpaceOnUse">
			<stop  offset="5.008013e-04" style="stop-color:#29E1FF"/>
			<stop  offset="1" style="stop-color:#29ABE2"/>
		</radialGradient>
		<path class="st7" d="M20,30.4c-0.4,0-0.9-0.1-1.2-0.4L6.1,20c-0.5-0.4-0.8-1-0.8-1.6s0.3-1.2,0.8-1.6l12.7-9.9
			c0.4-0.3,0.8-0.4,1.2-0.4c1.1,0,2,0.9,2,2c0,0.9,0.7,2.7,1,2.9l4.7,0c1.1,0,2,0.9,2,2v10.1c0,1.1-0.9,2-2,2H23c-0.3,0.1-1,2-1,2.9
			c0,0.6-0.2,1.1-0.6,1.4C21,30.2,20.5,30.4,20,30.4L20,30.4z"/>
		<g>
			<path class="st3" d="M20,7c0.8,0,1.5,0.6,1.5,1.5v0c0,0.8,0.7,3.4,1.5,3.4h4.7c0.8,0,1.5,0.7,1.5,1.5v10.1c0,0.8-0.7,1.5-1.5,1.5
				H23c-0.8,0-1.5,2.5-1.5,3.4v0c0,0.9-0.7,1.5-1.5,1.5c-0.3,0-0.6-0.1-0.9-0.3L6.4,19.6c-0.8-0.6-0.8-1.8,0-2.4l12.7-9.9
				C19.4,7.1,19.7,7,20,7 M20,6c-0.6,0-1.1,0.2-1.5,0.5L5.8,16.5c-0.6,0.5-1,1.2-1,2s0.3,1.5,1,2l12.7,9.9c0.4,0.4,1,0.5,1.5,0.5
				c1.4,0,2.5-1.1,2.5-2.5c0-0.6,0.4-1.9,0.7-2.4h4.5c1.4,0,2.5-1.1,2.5-2.5V13.4c0-1.4-1.1-2.5-2.5-2.5h-4.5
				c-0.3-0.4-0.7-1.8-0.7-2.4C22.5,7.1,21.4,6,20,6L20,6z"/>
		</g>
	</g>
	<g>
		<path class="st14" d="M24.3,14.7H29c0.1,0,0.2,0,0.2,0v-1.4c0-0.8-0.7-1.5-1.5-1.5H23c-0.1,0-0.1,0-0.2-0.1
			C23,12.8,23.6,14.7,24.3,14.7z"/>
		<path class="st14" d="M7.7,20.1l12.7-9.9c0.4-0.3,1-0.4,1.4-0.2c-0.2-0.6-0.3-1.2-0.3-1.5c0-1.3-1.4-2-2.4-1.2L6.4,17.2
			c-0.8,0.6-0.8,1.8,0,2.4l1,0.8C7.5,20.3,7.6,20.2,7.7,20.1z"/>
	</g>
	<g>
		<path class="st15" d="M24.3,22.1H29c0.1,0,0.2,0,0.2,0v1.4c0,0.8-0.7,1.5-1.5,1.5H23c-0.1,0-0.1,0-0.2,0.1
			C23,24,23.6,22.1,24.3,22.1z"/>
		<path class="st15" d="M9.9,18.4l10.5,8.2c0.4,0.3,1,0.4,1.4,0.2c-0.2,0.6-0.3,1.2-0.3,1.5c0,1.3-1.4,2-2.4,1.2L7.4,20.4"/>
	</g>
</g>
</svg>
