<svg xmlns="http://www.w3.org/2000/svg" viewBox="0 0 151.73 56.1"><defs><style>.cls-1{fill:#534741;}.cls-2{fill:#473a34;}.cls-3{fill:#87746a;}.cls-4{fill:#735d52;}</style></defs><title>Piedra</title><g id="Capa_2" data-name="Capa 2"><g id="Capa_5" data-name="Capa 5"><path class="cls-1" d="M97.92,22.38c-.81-.67-1.55.81-1.52-.78,15-12.34,37.51-3.49,50.36,6.74C165,42.88,112.91,44.75,105.51,44c-11.9-1.23-19.94-7.95-8.39-18.4" transform="translate(0 -0.43)"/><path class="cls-2" d="M98.09,22.21a1.17,1.17,0,0,0-1-.43.83.83,0,0,0-.22,0h-.07c.18.06.21.06.09,0a.47.47,0,0,0-.24,0l.36.27V21.6l-.33.57a29.23,29.23,0,0,1,8.74-4.49,29.69,29.69,0,0,1,9.47-1.14,48.13,48.13,0,0,1,19,5.05,65.77,65.77,0,0,1,8.43,4.85,32.11,32.11,0,0,1,5.56,4.43l.36.4.15.18a1.13,1.13,0,0,0,.1.13l0,0a8.52,8.52,0,0,1,.53.8l.21.39c.15.31,0-.12.08.19s.14.48.2.72,0-.25,0,.13c0,.12,0,.23,0,.35s-.07.4,0,.08c0,.11,0,.23-.07.34s-.08.22-.11.34,0,0,0-.08l-.09.18c-.11.21-.25.4-.37.61s.14-.17,0,0l-.11.12c-.09.11-.19.22-.29.32a8,8,0,0,1-.61.55c-.18.15,0,0,0,0l-.19.14-.39.26c-.27.18-.54.34-.82.49s-.63.34-1,.49l-.47.22-.22.09c-.19.08,0,0,0,0l-.16.06c-.75.3-1.52.58-2.29.83a69.87,69.87,0,0,1-11.37,2.4l-1.34.18-1.6.19c-1.05.12-2.09.23-3.14.33q-3,.28-6.1.46c-3.32.19-6.66.31-10,.27A28.29,28.29,0,0,1,98.12,41,13.63,13.63,0,0,1,95,39.21a6.37,6.37,0,0,1-1.94-2.45c.08.19-.06-.13-.08-.19l-.12-.38c0-.11,0-.23-.08-.34s-.07-.47,0-.25a6.79,6.79,0,0,1,0-.78c0-.14,0-.28,0-.43s0-.12,0-.18,0,.15,0-.06a9.22,9.22,0,0,1,1.54-3.6,22.78,22.78,0,0,1,3.61-4.17c1.06-1-.52-2.55-1.6-1.59C93.73,27.08,91,30,90.43,33.57a7.72,7.72,0,0,0,2.51,7,18.15,18.15,0,0,0,8.24,3.9,31.59,31.59,0,0,0,5.9.79c3.18.12,6.37,0,9.54-.14,4.35-.2,8.69-.56,13-1.12a79.53,79.53,0,0,0,12.62-2.47c2.83-.84,6.21-2,8.19-4.32a5,5,0,0,0,1.29-3.43A6.9,6.9,0,0,0,150,29.86a26.73,26.73,0,0,0-5.47-4.58,65.33,65.33,0,0,0-8.85-5.2,49.67,49.67,0,0,0-20.69-5.43,31.1,31.1,0,0,0-10.18,1.45A25.09,25.09,0,0,0,100,18.21a23.3,23.3,0,0,0-2.2,1.46c-.35.25-.69.52-1,.79s-.89.6-1,1.05.15,1.37.8,1.46A.71.71,0,0,0,97,22.9c.07,0,.11-.12.17-.16.22-.15-.19.13,0,0s.39-.28.71-.16.38-.24.23-.41Z" transform="translate(0 -0.43)"/><path class="cls-3" d="M4.52,45.78C3.38,40.34.11,30.39,3.06,24.94c3.23-6,16-9.31,21.78-11.58C41,7.05,59.2-3.32,76.56,4c14.29,6,33.11,25.28,28.14,42.53C100.11,62.45,73.32,51.74,61,52.18c-17,.62-47.46,4.9-59.64-10.4Z" transform="translate(0 -0.43)"/><path class="cls-4" d="M4.84,45.78c-.56-4.53-1.93-8.94-2.19-13.51a13.77,13.77,0,0,1,.83-6.4A9.88,9.88,0,0,1,6.85,22c3.44-2.5,7.55-4,11.52-5.43,1.83-.64,3.67-1.25,5.5-1.9,2.34-.83,4.63-1.78,6.92-2.73,10.44-4.29,21.27-9.38,32.8-9.4a32.5,32.5,0,0,1,15.1,3.69,53.15,53.15,0,0,1,10.86,7.58c6.77,6,12.91,14,14.47,23.14a21.39,21.39,0,0,1,.15,6.34,18.7,18.7,0,0,1-.64,3,9.6,9.6,0,0,1-.87,2.14,10.14,10.14,0,0,1-6.47,4.85,20.27,20.27,0,0,1-4.71.75A45.25,45.25,0,0,1,86,54,107.15,107.15,0,0,1,74.89,52.4c-3.54-.61-7.1-1.24-10.7-1.52a75.76,75.76,0,0,0-10,.25c-8.49.49-17,1-25.52.35a60,60,0,0,1-12.38-2.1A30.41,30.41,0,0,1,6.11,44.47c-.37-.28.21.17-.15-.12l-.22-.18c-.19-.15-.37-.3-.54-.46-.32-.27-.63-.56-1-.85-.68-.64-1.28-1.41-2-2a1.39,1.39,0,0,0-1.88,0,1.35,1.35,0,0,0,0,1.88l3.69,3.1a.41.41,0,0,0,.46.06h0l-.38,0L4.3,46c.25.32.7-.13.44-.44l-.14-.19v.45h0a.41.41,0,0,0,.06-.46l-2.2-4.25L.18,42.45a11.76,11.76,0,0,0,2,2.46,23.08,23.08,0,0,0,2.32,2,28.4,28.4,0,0,0,5.05,3,45.81,45.81,0,0,0,12.25,3.61c8.88,1.43,17.93,1.2,26.88.72,3.87-.21,7.75-.49,11.62-.65a34.84,34.84,0,0,1,4.57.12c.86.08,1.73.18,2.59.29l.25,0c-.27,0,0,0,.09,0l.65.09,1.39.2c1.94.3,3.65.56,5.74.86s4.07.59,6.12.81a50.87,50.87,0,0,0,11.3.31,16.51,16.51,0,0,0,9.21-3.56c2.9-2.53,4-6.37,4.37-10.09.86-9.6-4.46-18.77-10.65-25.68A60.2,60.2,0,0,0,85,7.4,39.85,39.85,0,0,0,72,1.35C60.28-1.43,48.44,2.56,37.71,7c-5,2-9.88,4.33-14.94,6.17a121.9,121.9,0,0,0-12.1,4.75c-3.46,1.69-7.31,4-8.76,7.72a15.64,15.64,0,0,0-.74,6.66A42.58,42.58,0,0,0,2.43,39.7c.28,1.11.58,2.22.88,3.33s.62,1.89.91,2.84C4.31,46.19,4.88,46.15,4.84,45.78Z" transform="translate(0 -0.43)"/></g></g></svg>