<?xml version="1.0" encoding="utf-8"?>
<!-- Generator: Adobe Illustrator 22.0.1, SVG Export Plug-In . SVG Version: 6.00 Build 0)  -->
<svg version="1.1" id="Layer_1" xmlns="http://www.w3.org/2000/svg" xmlns:xlink="http://www.w3.org/1999/xlink" x="0px" y="0px"
	 viewBox="0 0 309.3 140.7" style="enable-background:new 0 0 309.3 140.7;" xml:space="preserve">
<style type="text/css">
	.st0{opacity:0.3;}
	.st1{fill:url(#SVGID_1_);}
	.st2{fill:#FFFFFF;}
	.st3{fill:#39B54A;}
	.st4{fill:#006837;}
	.st5{fill:#3FC72F;}
	.st6{fill:#33A343;}
	.st7{fill:#FFFFFF;stroke:#006837;stroke-width:4;stroke-miterlimit:10;}
</style>
<g>
	<g>
		<g class="st0">
			<path d="M219.8,133.9c-6.1,0-11.1-5-11.1-11.1c0-4-3.4-10.6-6-10.6H19.5c-6.1,0-11-5-11-11V43.5c0-6.1,5-11,11-11h183.1
				c2.7,0,6-6.6,6-10.6c0-6.1,5-11.1,11.1-11.1c2.4,0,4.8,0.8,6.7,2.3l72,50.5l0.1,0c2.7,2.1,4.2,5.3,4.2,8.7c0,3.4-1.5,6.6-4.2,8.7
				l-0.1,0.1l-72,50.4C224.5,133.1,222.2,133.9,219.8,133.9z"/>
			<path d="M219.8,13.3c1.8,0,3.6,0.6,5.2,1.8l72,50.5c4.4,3.4,4.4,10,0,13.5l-72,50.5c-1.6,1.3-3.4,1.8-5.2,1.8
				c-4.4,0-8.6-3.5-8.6-8.6v0c0-4.7-3.8-13.1-8.5-13.1H19.5c-4.7,0-8.5-3.8-8.5-8.5V43.5c0-4.7,3.8-8.5,8.5-8.5h183.1
				c4.7,0,8.5-8.4,8.5-13.1v0C211.2,16.8,215.4,13.3,219.8,13.3 M219.8,8.3L219.8,8.3c-7.5,0-13.6,6.1-13.6,13.6
				c0,3-2.4,7.4-3.7,8.1H19.5C12.1,29.9,6,36,6,43.5v57.7c0,7.5,6.1,13.5,13.5,13.5h182.9c1.3,0.7,3.7,5.1,3.7,8.1
				c0,7.5,6.1,13.6,13.6,13.6c3,0,5.8-1,8.2-2.8l71.9-50.4l0.1-0.1l0.1-0.1c3.3-2.6,5.2-6.5,5.2-10.7c0-4.2-1.9-8.1-5.2-10.7
				l-0.1-0.1l-0.1-0.1L228,11.1C225.6,9.3,222.8,8.3,219.8,8.3L219.8,8.3z"/>
		</g>
		<g>
			
				<radialGradient id="SVGID_1_" cx="9125.3711" cy="67.3335" r="112.7948" gradientTransform="matrix(-1 0 0 1 9280.0381 0)" gradientUnits="userSpaceOnUse">
				<stop  offset="5.008013e-04" style="stop-color:#29E1FF"/>
				<stop  offset="1" style="stop-color:#29ABE2"/>
			</radialGradient>
			<path class="st1" d="M218.8,128.9c-6.1,0-11.1-5-11.1-11.1c0-4-3.4-10.6-6-10.6H18.5c-6.1,0-11-5-11-11V38.5c0-6.1,5-11,11-11
				h183.1c2.7,0,6-6.6,6-10.6c0-6.1,5-11.1,11.1-11.1c2.4,0,4.8,0.8,6.7,2.3l72,50.5l0.1,0c2.7,2.1,4.2,5.3,4.2,8.7
				c0,3.4-1.5,6.6-4.2,8.7l-0.1,0.1l-72,50.4C223.5,128.1,221.2,128.9,218.8,128.9z"/>
			<g>
				<path class="st2" d="M218.8,8.3c1.8,0,3.6,0.6,5.2,1.8l72,50.5c4.4,3.4,4.4,10,0,13.5l-72,50.5c-1.6,1.3-3.4,1.8-5.2,1.8
					c-4.4,0-8.6-3.5-8.6-8.6v0c0-4.7-3.8-13.1-8.5-13.1H18.5c-4.7,0-8.5-3.8-8.5-8.5V38.5c0-4.7,3.8-8.5,8.5-8.5h183.1
					c4.7,0,8.5-8.4,8.5-13.1v0C210.2,11.8,214.4,8.3,218.8,8.3 M218.8,3.3L218.8,3.3c-7.5,0-13.6,6.1-13.6,13.6c0,3-2.4,7.4-3.7,8.1
					H18.5C11.1,24.9,5,31,5,38.5v57.7c0,7.5,6.1,13.5,13.5,13.5h182.9c1.3,0.7,3.7,5.1,3.7,8.1c0,7.5,6.1,13.6,13.6,13.6
					c3,0,5.8-1,8.2-2.8l71.9-50.4l0.1-0.1l0.1-0.1c3.3-2.6,5.2-6.5,5.2-10.7c0-4.2-1.9-8.1-5.2-10.7l-0.1-0.1l-0.1-0.1L227,6.1
					C224.6,4.3,221.8,3.3,218.8,3.3L218.8,3.3z"/>
			</g>
		</g>
	</g>
	<g>
		<path class="st3" d="M218.8,127.4c-5.3,0-9.6-4.3-9.6-9.6c0-4.5-3.7-12.1-7.5-12.1H18.5c-5.3,0-9.5-4.3-9.5-9.5V38.5
			c0-5.3,4.3-9.5,9.5-9.5h183.1c3.9,0,7.5-7.5,7.5-12.1c0-5.3,4.3-9.6,9.6-9.6c2.1,0,4.1,0.7,5.9,2l72,50.4c2.4,1.9,3.7,4.6,3.7,7.5
			c0,3-1.3,5.7-3.7,7.5l-72.1,50.5C222.9,126.7,220.9,127.4,218.8,127.4z"/>
		<g>
			<path class="st4" d="M218.8,8.3c1.8,0,3.6,0.6,5.2,1.8l72,50.5c4.4,3.4,4.4,10,0,13.5l-72,50.5c-1.6,1.3-3.4,1.8-5.2,1.8
				c-4.4,0-8.6-3.5-8.6-8.6v0c0-4.7-3.8-13.1-8.5-13.1H18.5c-4.7,0-8.5-3.8-8.5-8.5V38.5c0-4.7,3.8-8.5,8.5-8.5h183.1
				c4.7,0,8.5-8.4,8.5-13.1v0C210.2,11.8,214.4,8.3,218.8,8.3 M218.8,6.3L218.8,6.3c-5.8,0-10.6,4.7-10.6,10.6
				c0,4.3-3.6,11.1-6.5,11.1H18.5C12.7,27.9,8,32.7,8,38.5v57.7c0,5.8,4.7,10.5,10.5,10.5h183.1c3,0,6.5,6.8,6.5,11.1
				c0,5.8,4.7,10.6,10.6,10.6c2.3,0,4.5-0.8,6.4-2.2l72-50.4l0,0l0,0c2.6-2,4-5,4-8.3s-1.5-6.3-4-8.3l0,0l0,0l-72-50.4
				C223.3,7.1,221.1,6.3,218.8,6.3L218.8,6.3z"/>
		</g>
	</g>
	<g>
		<path class="st5" d="M194.5,38H11.4c-0.5,0-0.9,0-1.4,0.1v-4c0-2.4,3.8-4.3,8.5-4.3h183.1c0.4,0,0.8-0.1,1.2-0.2
			C202,32.6,198.6,38,194.5,38z"/>
		<path class="st5" d="M288.9,77l-72-56.5c-2.5-2-6.6-1.8-6.6-3.6c0-7.1,8.2-11.1,13.8-6.7l72,50.5c4.4,3.4,4.4,10,0,13.5l-5.7,4.4
			C290,78,289.5,77.4,288.9,77z"/>
	</g>
	<g>
		<path class="st6" d="M194.5,96.7H11.4c-0.5,0-0.9,0-1.4-0.1v4c0,2.4,3.8,4.3,8.5,4.3h183.1c0.4,0,0.8,0.1,1.2,0.2
			C202,102.1,198.6,96.7,194.5,96.7z"/>
		<path class="st6" d="M276.6,67.3l-59.7,40.8c-2.5,2-5.6,2.2-8.2,1.2c1,3.3,1.6,6.6,1.6,8.4c0,7.1,8.2,11.1,13.8,6.7l66.4-46"/>
	</g>
	<g>
		<path class="st7" d="M81,83.2c-2,0-3.8-0.4-5.5-1.2c-1.7-0.8-3.1-1.9-4.1-3.4c-0.4-0.6-0.6-1.2-0.6-1.8c0-0.9,0.3-1.6,1-2.2
			c0.7-0.6,1.3-0.9,2-0.9c0.5,0,1,0.2,1.5,0.5c0.5,0.3,1,0.7,1.4,1.1c0.7,0.6,1.4,1.1,2,1.3c0.7,0.3,1.4,0.4,2.3,0.4
			c1,0,2-0.3,2.9-0.8c0.9-0.5,1.6-1.2,2.2-2.1c0.6-0.9,0.8-1.8,0.8-2.8V49.6c0-0.9,0.3-1.6,1-2.3c0.7-0.6,1.4-0.9,2.3-0.9
			c1,0,1.7,0.3,2.3,0.9c0.6,0.6,0.9,1.4,0.9,2.3v21.8c0,2.1-0.6,4.1-1.7,5.9c-1.1,1.8-2.6,3.2-4.5,4.4C85.4,82.7,83.3,83.2,81,83.2z
			"/>
		<path class="st7" d="M119.7,55c0.9,0,1.6,0.3,2.2,0.9c0.6,0.6,0.9,1.4,0.9,2.3v13.2c0,3.7-1,6.6-3.1,8.7c-2,2.1-5,3.2-8.8,3.2
			s-6.8-1.1-8.8-3.2c-2-2.1-3-5-3-8.7V58.2c0-0.9,0.3-1.6,0.9-2.3c0.6-0.6,1.3-0.9,2.2-0.9c0.9,0,1.6,0.3,2.2,0.9
			c0.6,0.6,0.9,1.4,0.9,2.3v13.2c0,2.1,0.5,3.7,1.4,4.7c0.9,1,2.3,1.5,4.2,1.5c1.9,0,3.3-0.5,4.3-1.5c0.9-1,1.4-2.6,1.4-4.7V58.2
			c0-0.9,0.3-1.6,0.9-2.3C118.1,55.3,118.8,55,119.7,55z"/>
		<path class="st7" d="M139.8,54.5c1.5,0,2.8,0.2,4,0.7c1.2,0.4,2.3,1,3.1,1.7c0.9,0.7,1.6,1.4,2.1,2.1c0.5,0.7,0.8,1.3,0.8,1.8
			l-1.3,0.7v-3.8c0-0.9,0.3-1.6,0.9-2.3c0.6-0.6,1.3-0.9,2.2-0.9s1.6,0.3,2.2,0.9c0.6,0.6,0.9,1.3,0.9,2.3v23.1c0,3-0.6,5.4-1.9,7.2
			c-1.3,1.8-3,3.1-5.1,3.9c-2.1,0.8-4.4,1.2-6.8,1.2c-0.7,0-1.6-0.1-2.7-0.3c-1.1-0.2-2.2-0.4-3.2-0.6c-1-0.2-1.8-0.5-2.3-0.7
			c-1-0.5-1.8-1-2.2-1.7c-0.4-0.7-0.5-1.4-0.2-2.2c0.3-1,0.8-1.7,1.5-2c0.7-0.4,1.4-0.4,2.2-0.1c0.3,0.1,0.9,0.3,1.7,0.6
			c0.8,0.3,1.7,0.6,2.6,0.9c1,0.3,1.8,0.4,2.5,0.4c2.6,0,4.5-0.5,5.8-1.6c1.2-1,1.9-2.5,1.9-4.3V77l0.6,0.5c0,0.5-0.2,1-0.7,1.6
			c-0.5,0.6-1.1,1.3-1.9,1.9c-0.8,0.6-1.8,1.1-2.9,1.6c-1.1,0.4-2.3,0.6-3.5,0.6c-2.5,0-4.7-0.6-6.6-1.8s-3.5-2.9-4.7-5.1
			c-1.1-2.2-1.7-4.6-1.7-7.4c0-2.8,0.6-5.3,1.7-7.5c1.1-2.2,2.7-3.9,4.6-5.1S137.4,54.5,139.8,54.5z M140.7,60.2
			c-1.6,0-2.9,0.4-4.1,1.1c-1.2,0.8-2.1,1.8-2.7,3.1c-0.7,1.3-1,2.8-1,4.5c0,1.6,0.3,3.1,1,4.4s1.6,2.4,2.7,3.1
			c1.2,0.8,2.5,1.1,4.1,1.1c1.6,0,3-0.4,4.1-1.1s2.1-1.8,2.7-3.1s1-2.8,1-4.4c0-1.7-0.3-3.1-1-4.5c-0.7-1.3-1.6-2.3-2.7-3.1
			C143.7,60.6,142.3,60.2,140.7,60.2z"/>
		<path class="st7" d="M182.9,54.5c0.9,0,1.6,0.3,2.2,0.9c0.6,0.6,0.9,1.3,0.9,2.3v21.9c0,0.9-0.3,1.7-0.9,2.3
			c-0.6,0.6-1.3,0.9-2.2,0.9s-1.6-0.3-2.2-0.9c-0.6-0.6-0.9-1.4-0.9-2.3V77l1.1,0.5c0,0.5-0.2,1-0.7,1.6c-0.5,0.6-1.1,1.3-2,1.9
			s-1.8,1.1-2.9,1.6s-2.3,0.6-3.7,0.6c-2.4,0-4.5-0.6-6.5-1.8s-3.5-2.9-4.6-5.1c-1.1-2.2-1.7-4.6-1.7-7.4c0-2.8,0.6-5.3,1.7-7.5
			c1.1-2.2,2.6-3.9,4.5-5.1s4-1.8,6.3-1.8c1.5,0,2.9,0.2,4.1,0.7c1.2,0.4,2.3,1,3.2,1.7c0.9,0.7,1.6,1.4,2.1,2.1
			c0.5,0.7,0.8,1.3,0.8,1.8l-1.9,0.7v-3.8c0-0.9,0.3-1.6,0.9-2.3C181.2,54.8,182,54.5,182.9,54.5z M172.4,77.5c1.5,0,2.9-0.4,4-1.1
			c1.1-0.8,2-1.8,2.7-3.1c0.6-1.3,1-2.8,1-4.4c0-1.7-0.3-3.1-1-4.5c-0.6-1.3-1.5-2.3-2.7-3.1c-1.1-0.8-2.5-1.1-4-1.1
			c-1.5,0-2.8,0.4-3.9,1.1c-1.1,0.8-2,1.8-2.7,3.1c-0.6,1.3-1,2.8-1,4.5c0,1.6,0.3,3.1,1,4.4c0.6,1.3,1.5,2.4,2.7,3.1
			C169.6,77.2,170.9,77.5,172.4,77.5z"/>
		<path class="st7" d="M194.7,82.7c-0.9,0-1.6-0.3-2.2-0.9c-0.6-0.6-0.9-1.4-0.9-2.3V58.2c0-0.9,0.3-1.6,0.9-2.3
			c0.6-0.6,1.3-0.9,2.2-0.9c0.9,0,1.6,0.3,2.2,0.9c0.6,0.6,0.9,1.4,0.9,2.3V63l-0.4-3.5c0.4-0.8,0.9-1.6,1.5-2.2
			c0.6-0.6,1.3-1.2,2-1.6c0.8-0.4,1.6-0.8,2.4-1c0.9-0.2,1.7-0.3,2.6-0.3c1,0,1.9,0.3,2.6,0.9c0.7,0.6,1.1,1.3,1.1,2.1
			c0,1.1-0.3,2-0.9,2.5c-0.6,0.5-1.2,0.8-1.9,0.8c-0.7,0-1.3-0.1-1.8-0.4c-0.5-0.2-1.1-0.4-1.8-0.4c-0.6,0-1.3,0.1-1.9,0.4
			c-0.6,0.3-1.2,0.8-1.8,1.4c-0.5,0.6-1,1.4-1.3,2.3c-0.3,0.9-0.5,2-0.5,3.2v12.3c0,0.9-0.3,1.7-0.9,2.3
			C196.3,82.4,195.6,82.7,194.7,82.7z"/>
	</g>
	<g>
		<path class="st2" d="M81,83.2c-2,0-3.8-0.4-5.5-1.2c-1.7-0.8-3.1-1.9-4.1-3.4c-0.4-0.6-0.6-1.2-0.6-1.8c0-0.9,0.3-1.6,1-2.2
			c0.7-0.6,1.3-0.9,2-0.9c0.5,0,1,0.2,1.5,0.5c0.5,0.3,1,0.7,1.4,1.1c0.7,0.6,1.4,1.1,2,1.3c0.7,0.3,1.4,0.4,2.3,0.4
			c1,0,2-0.3,2.9-0.8c0.9-0.5,1.6-1.2,2.2-2.1c0.6-0.9,0.8-1.8,0.8-2.8V49.6c0-0.9,0.3-1.6,1-2.3c0.7-0.6,1.4-0.9,2.3-0.9
			c1,0,1.7,0.3,2.3,0.9c0.6,0.6,0.9,1.4,0.9,2.3v21.8c0,2.1-0.6,4.1-1.7,5.9c-1.1,1.8-2.6,3.2-4.5,4.4C85.4,82.7,83.3,83.2,81,83.2z
			"/>
		<path class="st2" d="M119.7,55c0.9,0,1.6,0.3,2.2,0.9c0.6,0.6,0.9,1.4,0.9,2.3v13.2c0,3.7-1,6.6-3.1,8.7c-2,2.1-5,3.2-8.8,3.2
			s-6.8-1.1-8.8-3.2c-2-2.1-3-5-3-8.7V58.2c0-0.9,0.3-1.6,0.9-2.3c0.6-0.6,1.3-0.9,2.2-0.9c0.9,0,1.6,0.3,2.2,0.9
			c0.6,0.6,0.9,1.4,0.9,2.3v13.2c0,2.1,0.5,3.7,1.4,4.7c0.9,1,2.3,1.5,4.2,1.5c1.9,0,3.3-0.5,4.3-1.5c0.9-1,1.4-2.6,1.4-4.7V58.2
			c0-0.9,0.3-1.6,0.9-2.3C118.1,55.3,118.8,55,119.7,55z"/>
		<path class="st2" d="M139.8,54.5c1.5,0,2.8,0.2,4,0.7c1.2,0.4,2.3,1,3.1,1.7c0.9,0.7,1.6,1.4,2.1,2.1c0.5,0.7,0.8,1.3,0.8,1.8
			l-1.3,0.7v-3.8c0-0.9,0.3-1.6,0.9-2.3c0.6-0.6,1.3-0.9,2.2-0.9s1.6,0.3,2.2,0.9c0.6,0.6,0.9,1.3,0.9,2.3v23.1c0,3-0.6,5.4-1.9,7.2
			c-1.3,1.8-3,3.1-5.1,3.9c-2.1,0.8-4.4,1.2-6.8,1.2c-0.7,0-1.6-0.1-2.7-0.3c-1.1-0.2-2.2-0.4-3.2-0.6c-1-0.2-1.8-0.5-2.3-0.7
			c-1-0.5-1.8-1-2.2-1.7c-0.4-0.7-0.5-1.4-0.2-2.2c0.3-1,0.8-1.7,1.5-2c0.7-0.4,1.4-0.4,2.2-0.1c0.3,0.1,0.9,0.3,1.7,0.6
			c0.8,0.3,1.7,0.6,2.6,0.9c1,0.3,1.8,0.4,2.5,0.4c2.6,0,4.5-0.5,5.8-1.6c1.2-1,1.9-2.5,1.9-4.3V77l0.6,0.5c0,0.5-0.2,1-0.7,1.6
			c-0.5,0.6-1.1,1.3-1.9,1.9c-0.8,0.6-1.8,1.1-2.9,1.6c-1.1,0.4-2.3,0.6-3.5,0.6c-2.5,0-4.7-0.6-6.6-1.8s-3.5-2.9-4.7-5.1
			c-1.1-2.2-1.7-4.6-1.7-7.4c0-2.8,0.6-5.3,1.7-7.5c1.1-2.2,2.7-3.9,4.6-5.1S137.4,54.5,139.8,54.5z M140.7,60.2
			c-1.6,0-2.9,0.4-4.1,1.1c-1.2,0.8-2.1,1.8-2.7,3.1c-0.7,1.3-1,2.8-1,4.5c0,1.6,0.3,3.1,1,4.4s1.6,2.4,2.7,3.1
			c1.2,0.8,2.5,1.1,4.1,1.1c1.6,0,3-0.4,4.1-1.1s2.1-1.8,2.7-3.1s1-2.8,1-4.4c0-1.7-0.3-3.1-1-4.5c-0.7-1.3-1.6-2.3-2.7-3.1
			C143.7,60.6,142.3,60.2,140.7,60.2z"/>
		<path class="st2" d="M182.9,54.5c0.9,0,1.6,0.3,2.2,0.9c0.6,0.6,0.9,1.3,0.9,2.3v21.9c0,0.9-0.3,1.7-0.9,2.3
			c-0.6,0.6-1.3,0.9-2.2,0.9s-1.6-0.3-2.2-0.9c-0.6-0.6-0.9-1.4-0.9-2.3V77l1.1,0.5c0,0.5-0.2,1-0.7,1.6c-0.5,0.6-1.1,1.3-2,1.9
			s-1.8,1.1-2.9,1.6s-2.3,0.6-3.7,0.6c-2.4,0-4.5-0.6-6.5-1.8s-3.5-2.9-4.6-5.1c-1.1-2.2-1.7-4.6-1.7-7.4c0-2.8,0.6-5.3,1.7-7.5
			c1.1-2.2,2.6-3.9,4.5-5.1s4-1.8,6.3-1.8c1.5,0,2.9,0.2,4.1,0.7c1.2,0.4,2.3,1,3.2,1.7c0.9,0.7,1.6,1.4,2.1,2.1
			c0.5,0.7,0.8,1.3,0.8,1.8l-1.9,0.7v-3.8c0-0.9,0.3-1.6,0.9-2.3C181.2,54.8,182,54.5,182.9,54.5z M172.4,77.5c1.5,0,2.9-0.4,4-1.1
			c1.1-0.8,2-1.8,2.7-3.1c0.6-1.3,1-2.8,1-4.4c0-1.7-0.3-3.1-1-4.5c-0.6-1.3-1.5-2.3-2.7-3.1c-1.1-0.8-2.5-1.1-4-1.1
			c-1.5,0-2.8,0.4-3.9,1.1c-1.1,0.8-2,1.8-2.7,3.1c-0.6,1.3-1,2.8-1,4.5c0,1.6,0.3,3.1,1,4.4c0.6,1.3,1.5,2.4,2.7,3.1
			C169.6,77.2,170.9,77.5,172.4,77.5z"/>
		<path class="st2" d="M194.7,82.7c-0.9,0-1.6-0.3-2.2-0.9c-0.6-0.6-0.9-1.4-0.9-2.3V58.2c0-0.9,0.3-1.6,0.9-2.3
			c0.6-0.6,1.3-0.9,2.2-0.9c0.9,0,1.6,0.3,2.2,0.9c0.6,0.6,0.9,1.4,0.9,2.3V63l-0.4-3.5c0.4-0.8,0.9-1.6,1.5-2.2
			c0.6-0.6,1.3-1.2,2-1.6c0.8-0.4,1.6-0.8,2.4-1c0.9-0.2,1.7-0.3,2.6-0.3c1,0,1.9,0.3,2.6,0.9c0.7,0.6,1.1,1.3,1.1,2.1
			c0,1.1-0.3,2-0.9,2.5c-0.6,0.5-1.2,0.8-1.9,0.8c-0.7,0-1.3-0.1-1.8-0.4c-0.5-0.2-1.1-0.4-1.8-0.4c-0.6,0-1.3,0.1-1.9,0.4
			c-0.6,0.3-1.2,0.8-1.8,1.4c-0.5,0.6-1,1.4-1.3,2.3c-0.3,0.9-0.5,2-0.5,3.2v12.3c0,0.9-0.3,1.7-0.9,2.3
			C196.3,82.4,195.6,82.7,194.7,82.7z"/>
	</g>
</g>
<g id="Layer_2_1_">
</g>
</svg>
