<svg xmlns="http://www.w3.org/2000/svg" viewBox="0 0 235.18 350.15"><defs><style>.cls-1,.cls-4{fill:#76ab35;}.cls-1{stroke:#619422;stroke-miterlimit:10;stroke-width:2px;}.cls-2{fill:#6e952a;}.cls-3{fill:#856034;}.cls-5{fill:#76c535;}</style></defs><title>Arbol</title><g id="Capa_2" data-name="Capa 2"><g id="Capa_5" data-name="Capa 5"><path class="cls-1" d="M15.58,182.45a13.79,13.79,0,0,1,13.09-18.19,13.48,13.48,0,0,1,3.26.4,23.66,23.66,0,0,1,43.7-10.11,25.84,25.84,0,0,1,36.65,23.52c0,.18,0,.34,0,.52A16.64,16.64,0,0,1,104.67,211a25.84,25.84,0,0,1-22.1,12.45c-.71,0-1.41,0-2.11-.1a25.86,25.86,0,0,1-40.28-.49,23.69,23.69,0,1,1-24.6-40.41Z"/><path class="cls-2" d="M17.49,214.44a20.1,20.1,0,0,0,11.37-3.51,22,22,0,0,0,34.24.41c.59,0,1.19.09,1.79.09a22,22,0,0,0,18.79-10.58,14.15,14.15,0,0,0,6.45-27.56c0-.14,0-.29,0-.43a22,22,0,0,0-11.64-19.41,25.4,25.4,0,0,1,7.88-1.27,25.89,25.89,0,0,1,25.89,25.89c0,.18,0,.34,0,.52A16.64,16.64,0,0,1,104.67,211a25.84,25.84,0,0,1-22.1,12.45c-.71,0-1.41,0-2.11-.1a25.86,25.86,0,0,1-40.28-.49A23.66,23.66,0,0,1,3.86,209.1,20,20,0,0,0,17.49,214.44Z"/><path class="cls-1" d="M51.19,106.34A17.84,17.84,0,0,1,86.82,105,14.59,14.59,0,1,1,98.5,128.3a15.25,15.25,0,0,1-1.66-.1c0,.08,0,.15,0,.23A19.49,19.49,0,0,1,61,139.07a17.85,17.85,0,1,1-9.84-32.73Z"/><path class="cls-2" d="M46.56,134.26a15.48,15.48,0,0,0,8.6-2.59,17,17,0,0,0,31.3-9.3c0-.07,0-.13,0-.19a13.94,13.94,0,0,0,1.45.08,12.74,12.74,0,0,0,7.78-22.85A14.58,14.58,0,1,1,98.5,128.3a15.25,15.25,0,0,1-1.66-.1c0,.08,0,.15,0,.23A19.49,19.49,0,0,1,61,139.07a17.82,17.82,0,0,1-27.38-11.65A15.58,15.58,0,0,0,46.56,134.26Z"/><path class="cls-1" d="M76.68,25.57c1,0,2,.06,3,.16a29.81,29.81,0,0,1,58.38-1.8A17,17,0,0,1,164,38.41c0,.49,0,1-.07,1.44a29.84,29.84,0,1,1-29.75,50,29.81,29.81,0,0,1-52.71-5,29.83,29.83,0,1,1-4.77-59.27Z"/><path class="cls-2" d="M48.56,45.5a25.83,25.83,0,0,0-.17,2.8A25,25,0,0,0,77.6,73.13a25.16,25.16,0,0,0,44.48,4.2,25.17,25.17,0,1,0,25.1-42.16c0-.4.07-.81.07-1.22a14.34,14.34,0,0,0-5.86-11.55,16.67,16.67,0,0,1,5.59-1,17,17,0,0,1,17,17c0,.49,0,1-.07,1.44a29.84,29.84,0,1,1-29.75,50,29.81,29.81,0,0,1-52.71-5A29.64,29.64,0,0,1,46.83,55.42,29.58,29.58,0,0,1,48.56,45.5Z"/><polygon class="cls-3" points="114 250.19 108.38 254.25 64 190.41 67.31 188.02 114 250.19"/><polygon class="cls-3" points="114 156.93 109.2 160.4 71.28 105.86 74.11 103.81 114 156.93"/><polygon class="cls-3" points="109.1 100.47 112.66 103.04 140.74 62.65 138.64 61.14 109.1 100.47"/><path class="cls-3" d="M102.79,346.07a4.94,4.94,0,0,1,2.28,1.19,9.21,9.21,0,0,1,1.89,2.89c1.52-.74,9.57-7.19,12.93-7.56L113.17,43.81h-3.55Z"/><path class="cls-1" d="M107.39,180.67a21,21,0,0,0,29.16,11.17,32.92,32.92,0,0,0,56.2-3.36c.11.08.2.17.31.24A25.91,25.91,0,0,0,223.84,147a17.88,17.88,0,0,0,2.51-9.15,18.09,18.09,0,0,0-16.88-18,29.8,29.8,0,0,0-53.38-12.22,22.33,22.33,0,0,0-37.15,16.71,22.92,22.92,0,0,0,.27,3.34,27.2,27.2,0,0,0-11.82,53Z"/><path class="cls-2" d="M88,150a24.63,24.63,0,0,0,17.48,19.35,19,19,0,0,0,26.35,10.09,29.75,29.75,0,0,0,50.78-3l.28.22A23.41,23.41,0,0,0,210.72,139a16.3,16.3,0,0,0-13-24.57,27,27,0,0,0-13.47-18.71,29.85,29.85,0,0,1,25.21,24.13,18.09,18.09,0,0,1,16.88,18,17.88,17.88,0,0,1-2.51,9.15,25.91,25.91,0,0,1-30.78,41.69c-.11-.07-.2-.16-.31-.24a32.92,32.92,0,0,1-56.2,3.36,21,21,0,0,1-29.16-11.17,27.22,27.22,0,0,1-19.77-26.16A27.54,27.54,0,0,1,88,150Z"/><polygon class="cls-3" points="111.14 208.48 116.11 212.07 155.39 155.58 152.45 153.46 111.14 208.48"/><path class="cls-4" d="M71,27.32c-1.27-4.79-6.62-7.51-6.62-7.51s-3.31,5-2,9.8S69,37.12,69,37.12,72.26,32.1,71,27.32Z"/><path class="cls-4" d="M168.64,59.74c-3-3.94-9-4.43-9-4.43s-1.15,5.9,1.84,9.85,9,4.43,9,4.43S171.63,63.69,168.64,59.74Z"/><path class="cls-5" d="M65.4,119.39c-3-3.94-9-4.43-9-4.43s-1.15,5.9,1.84,9.85,9,4.43,9,4.43S68.39,123.33,65.4,119.39Z"/><path class="cls-5" d="M98.66,26.67c-2.42,4.32-.46,10-.46,10s5.86-1.32,8.28-5.64.46-10,.46-10S101.07,22.35,98.66,26.67Z"/><path class="cls-5" d="M44.65,176.13c-4.32,2.41-5.64,8.28-5.64,8.28s5.68,2,10-.45,5.64-8.28,5.64-8.28S49,173.72,44.65,176.13Z"/><path class="cls-5" d="M82.64,48.33C78.31,50.74,77,56.61,77,56.61s5.69,2,10-.45,5.64-8.28,5.64-8.28S87,45.92,82.64,48.33Z"/><path class="cls-2" d="M48.62,216.15c4.51,2,10-.37,10-.37s-1.79-5.73-6.3-7.78-10,.37-10,.37S44.12,214.1,48.62,216.15Z"/><path class="cls-2" d="M190.38,150.07c4.59-1.85,6.64-7.5,6.64-7.5s-5.4-2.66-10-.81-6.64,7.49-6.64,7.49S185.79,151.91,190.38,150.07Z"/><path class="cls-4" d="M10,194.16c4.41-2.24,6-8,6-8s-5.6-2.19-10,0-6,8-6,8S5.6,196.39,10,194.16Z"/><path class="cls-4" d="M14.18,170.67c2.77,4.1,8.72,4.92,8.72,4.92s1.47-5.83-1.29-9.93-8.73-4.92-8.73-4.92S11.41,166.57,14.18,170.67Z"/><path class="cls-2" d="M228.72,132c2.81-4.08,1.39-9.92,1.39-9.92s-6,.77-8.77,4.84-1.38,9.92-1.38,9.92S225.92,136.1,228.72,132Z"/><path class="cls-2" d="M190.54,195.06c2.87,4,8.84,4.71,8.84,4.71s1.33-5.86-1.53-9.9-8.84-4.71-8.84-4.71S187.68,191,190.54,195.06Z"/><path class="cls-2" d="M131.52,141.93c3,3.91,9,4.33,9,4.33s1.08-5.91-2-9.82-9-4.33-9-4.33S128.48,138,131.52,141.93Z"/><path class="cls-2" d="M180.15,135.81c-1.17-4.81-6.47-7.65-6.47-7.65s-3.41,5-2.24,9.76,6.47,7.65,6.47,7.65S181.32,140.61,180.15,135.81Z"/></g></g></svg>