<svg xmlns="http://www.w3.org/2000/svg" viewBox="0 0 1145.7 353.2"><defs><style>.cls-1{fill:#8c6239;}.cls-2{fill:#6e3f14;}.cls-3{fill:#76c23c;}.cls-4{fill:#61a82a;}</style></defs><title>Cerca</title><g id="Capa_2" data-name="Capa 2"><g id="Capa_5" data-name="Capa 5"><path class="cls-1" d="M448.14,45.65c-12.36-2.79-23.28-.37-24.81,15.66-1.76,18.36,4.92,20.25,21.85,20.24,38.3,0,76.7-2.55,115.08-4.27C580.07,76.39,654,84,664.19,76.05c11.84-9.26,10.4-28.86-1.74-33.28-6.89-2.5-197.06,4.42-221.5,2.54Z" transform="translate(-0.24 -0.22)"/><path class="cls-2" d="M448.19,45.48c-4.77-1.12-10-1.77-14.75-.19A14.85,14.85,0,0,0,424.15,55a34,34,0,0,0-1.5,9.29A30.19,30.19,0,0,0,423,71.8a11,11,0,0,0,5.84,8.12c4,2,8.82,2,13.17,2.14,8.54.17,17.11,0,25.64-.19,18.24-.34,36.45-1.16,54.67-2l27.58-1.32c5.26-.24,10.51-.57,15.78-.51,8.94.1,17.89.66,26.82,1.11,10.84.54,21.68,1.09,32.53,1.35,9.27.22,18.64.38,27.88-.57a42.28,42.28,0,0,0,8.92-1.6c3.62-1.22,6.41-4.22,8.34-7.43,5.19-8.67,4.61-22.34-4.79-28a10,10,0,0,0-4.53-1.54c-1.35-.12-2.71-.16-4.07-.2-4.78-.14-9.56-.12-14.35-.09-7,0-14,.14-20.93.25q-12.91.21-25.82.5-14.31.3-28.62.64l-29.79.69c-9.65.22-19.31.48-29,.71-8.71.2-17.42.4-26.13.54-7.22.11-14.44.21-21.66.25-5,0-10.09,0-15.13-.06-1.49,0-3,0-4.48-.14v1.76a28.78,28.78,0,0,0,3.71-.15,27.42,27.42,0,0,1,3.48-.31c.1,0,.1-.15,0-.16a25.71,25.71,0,0,1-3.44-.65,31.8,31.8,0,0,0-3.75-.49c-1.14-.07-1.11,1.66,0,1.76,3.67.34,7.38.4,11.06.42,6.06,0,12.11,0,18.17,0,7.8-.07,15.6-.2,23.39-.32q13.55-.21,27.08-.47,14.39-.27,28.76-.6l29-.66q13.64-.3,27.26-.57c7.93-.15,15.86-.3,23.8-.4,6.17-.08,12.33-.15,18.5-.14,3.87,0,7.76,0,11.62.22.54,0,1.08.07,1.61.12l.29,0c.38,0-.22,0,0,0l.44.08c3.71.94,6.64,4.6,8,8A20.77,20.77,0,0,1,669.64,67a21.07,21.07,0,0,1-4.57,6.88,9.68,9.68,0,0,1-3.13,2.29A30.25,30.25,0,0,1,653.8,78c-4,.49-8.07.65-12.11.75-10.21.26-20.43-.07-30.63-.48s-20.48-1-30.72-1.4c-8.07-.35-16.09-.58-24.16-.19-17.91.86-35.82,1.86-53.73,2.69S466.83,80.89,449,81c-5.48,0-11.29.36-16.67-1-3.56-.87-6.5-2.8-7.78-6.35a20.65,20.65,0,0,1-1-6.66,40.09,40.09,0,0,1,.83-9.47c1.13-5.09,4-9.63,9-11.5,4.68-1.73,9.92-1.24,14.69-.24C448.32,45.87,448.41,45.53,448.19,45.48Z" transform="translate(-0.24 -0.22)"/><path class="cls-1" d="M421.74,47.68C401,55.34,228,67.2,206.55,73.89c-10.07,3.14-8.62,1.65-9.82,12.71-.78,7.16-.44,14.86-.29,22,8-.14,196.61-24.24,216-27.54,9.15-1.56,9.83-.28,13.36-8,2.45-5.4,2.44-16,.7-21.68Z" transform="translate(-0.24 -0.22)"/><path class="cls-2" d="M421.68,47.46A66.82,66.82,0,0,1,409.53,50c-7,1.1-14,2-21,2.85-9.05,1.11-18.12,2.1-27.19,3.06q-15.45,1.64-30.93,3.15l-32.08,3.15q-15.56,1.51-31.11,3.1-13.59,1.38-27.16,2.92c-7,.81-14.08,1.66-21.08,2.71a88.13,88.13,0,0,0-12.48,2.41,59.84,59.84,0,0,0-6.45,2.08,4.49,4.49,0,0,0-2.65,2.4,18.66,18.66,0,0,0-.87,5.46c-.38,4-.76,8.05-.81,12.11-.06,4.4.1,8.8.19,13.21a.52.52,0,0,0,.5.5c3.07-.06,6.18-.57,9.22-.91q10-1.14,20.06-2.37,13.93-1.68,27.85-3.42,16.37-2,32.72-4.11,17.15-2.17,34.28-4.38,16.46-2.11,32.9-4.26,14.29-1.87,28.57-3.78c7-.94,14-1.87,21-2.85,5.33-.75,10.75-1.38,16-2.41A7.29,7.29,0,0,0,423.76,78a21.7,21.7,0,0,0,3.7-8,40.06,40.06,0,0,0,.85-11.19,33.43,33.43,0,0,0-.65-5.27c-.21-1-.3-2.24-1.16-2.88-1.48-1.11-3.17-2-4.63-3.11-.18-.14-.45.12-.26.27.63.49,1.19,1.09,1.79,1.64a29.78,29.78,0,0,1,2.44,2.19c.23.26.19.39.3.88a26,26,0,0,1,.47,2.64,46.21,46.21,0,0,1,.42,5.63,32.1,32.1,0,0,1-1.45,11c-.76,2.18-1.95,5.14-3.87,6.59-1.72,1.31-4.31,1.36-6.36,1.66-1.48.22-3,.47-4.43.71q-2.91.47-5.83.88c-6.44.94-12.89,1.83-19.34,2.71-9.07,1.24-18.15,2.43-27.23,3.63q-16,2.1-32,4.17-16.87,2.18-33.77,4.33-16.41,2.08-32.82,4.15-14.38,1.8-28.78,3.56-10.86,1.33-21.73,2.6c-4,.46-7.92,1-11.89,1.27-.35,0-.7.06-1.06.07l.5.5c-.1-4.48-.26-9-.2-13.43.06-4,.45-8,.82-12,.16-1.68.11-3.74.92-5.26.67-1.25,2.19-1.7,3.45-2.11a92.46,92.46,0,0,1,14.39-3.45c6.52-1.06,13.09-1.87,19.64-2.65,8.72-1,17.44-2,26.17-2.89q15.12-1.57,30.26-3.05l31.91-3.14q15.51-1.53,31-3.14c9.36-1,18.71-2,28.05-3.12,7.4-.88,14.8-1.78,22.16-3a123.6,123.6,0,0,0,14.28-2.87c.68-.19,1.35-.4,2-.65C422.07,47.79,422,47.36,421.68,47.46Z" transform="translate(-0.24 -0.22)"/><path class="cls-1" d="M42.21,303c-13.82,19.52,27.09,30,35.4,8.91,3-7.75,99.3-126.11,109.34-147.72,6.48-14,25.09-84.71-2.55-65.73C184.4,98.48,48.49,294.16,42.21,303Z" transform="translate(-0.24 -0.22)"/><path class="cls-2" d="M42.05,302.92c-2.86,4-4.12,9-1.24,13.34,2.7,4.06,7.67,6.25,12.32,7.14a25.77,25.77,0,0,0,15.94-1.82,18.15,18.15,0,0,0,6.42-5.11,33.39,33.39,0,0,0,2.73-4.84,45.47,45.47,0,0,1,3.28-4.9c2.09-2.91,4.25-5.77,6.41-8.63,6.47-8.53,13-17,19.61-25.45q12.32-15.86,24.6-31.71c8.34-10.78,16.66-21.6,24.86-32.49,6.83-9.06,13.61-18.17,20.1-27.48,2.32-3.33,4.61-6.68,6.76-10.11a54.26,54.26,0,0,0,3.95-7.11,105.77,105.77,0,0,0,4.1-11.73q2.46-8.18,4.29-16.51a162.37,162.37,0,0,0,3-17.66,56.32,56.32,0,0,0,.09-14.56c-.46-3-1.48-6.63-4.42-8-3.41-1.64-7.45.54-10.28,2.41a6.34,6.34,0,0,0-1.64,1.92L179.88,104l-11.29,16.25-16.69,24q-10.1,14.53-20.2,29.08l-22,31.61L88.13,236,68.66,264c-5.15,7.41-10.32,14.79-15.44,22.22-3.15,4.58-6.47,9.08-9.38,13.82-.6,1-1.18,2-1.79,2.89-.14.2.19.39.33.19.55-.78,1.41-1.78,2.14-2.7,1.41-1.79,2.71-3.64,4-5.5q6.32-9,12.6-18l17.41-25L99,222.42l21.69-31.22,21.12-30.39,18.71-26.94L175,113q4.23-6.07,8.45-12.17a17.71,17.71,0,0,1,1.4-2l0,0c-.24.23.25-.11.25-.1.31-.17.59-.39.9-.58a19.48,19.48,0,0,1,3-1.53,7.34,7.34,0,0,1,4.54-.55c2.95.79,4,4.28,4.45,6.92.86,4.69.53,9.63.05,14.35a186.42,186.42,0,0,1-7.15,33.92,112.57,112.57,0,0,1-4,11.68,51.55,51.55,0,0,1-3.82,7c-4.81,7.72-10.18,15.09-15.53,22.42-7.41,10.14-15,20.15-22.58,30.13Q132.53,238.76,120,255q-11.33,14.62-22.62,29.26C92,291.12,86.72,298,81.62,305.08c-1.3,1.81-2.64,3.62-3.79,5.53-.54.9-.87,1.87-1.35,2.8a16.82,16.82,0,0,1-5.69,6.3A23.83,23.83,0,0,1,54.88,323c-4.86-.61-10.23-2.53-13.27-6.59s-2-9.22.77-13.27C42.51,302.91,42.19,302.73,42.05,302.92Z" transform="translate(-0.24 -0.22)"/><path class="cls-1" d="M36.75,215.29c24.74.49,49.82-.49,74.52-2.24s56.2-10.34,80.79-5.49c7.84,1.55,15.9,7.44,10.2,18.14-4.1,7.7-17.35,6.66-26.11,8.09-28.24,4.61-55.28,8.42-84.13,9-13.59.28-29,2.46-42.35.33-11.81-1.88-25.31-16.79-10.55-26.61" transform="translate(-0.24 -0.22)"/><path class="cls-2" d="M36.75,215.52c14.47.64,29,.26,43.5-.29q10.78-.42,21.58-1.08c6.39-.39,12.77-.79,19.13-1.55,12.4-1.48,24.71-3.68,37.14-4.95a161.81,161.81,0,0,1,18.54-1c2.93,0,5.87.18,8.79.49a50.53,50.53,0,0,1,8,1.33c4,1.09,8.37,3.51,9.71,7.72a10.81,10.81,0,0,1-.54,7.26,10.65,10.65,0,0,1-4.15,5.35c-3.87,2.48-8.83,2.94-13.29,3.36-2.39.22-4.78.38-7.16.67-3.08.38-6.14.95-9.2,1.44-14,2.21-28,4.21-42,5.63-7,.71-14.09,1.28-21.14,1.67-6.89.37-13.79.42-20.67.79s-13.53.88-20.31.95c-3.35,0-6.71,0-10-.32a33,33,0,0,1-7.9-1.37A22.24,22.24,0,0,1,36.05,234c-2.39-3.29-3.61-7.55-1.78-11.39a14.79,14.79,0,0,1,5.11-5.6c.54-.37,0-1.25-.51-.88a16.47,16.47,0,0,0-5.53,5.48,10.71,10.71,0,0,0-1.38,6c.34,4.32,3.12,8.12,6.34,10.84a24.46,24.46,0,0,0,12.8,5.61,113.46,113.46,0,0,0,20.44.49c6.94-.32,13.86-.89,20.81-1.05q11-.24,21.89-1.08c14.47-1.1,28.87-2.9,43.22-5q5.37-.81,10.75-1.67c3.29-.52,6.59-1.16,9.9-1.57,4.89-.6,9.86-.69,14.68-1.79a19.8,19.8,0,0,0,6.31-2.44,11.41,11.41,0,0,0,4.22-5,13.65,13.65,0,0,0,1.38-7.48,10.34,10.34,0,0,0-2.81-5.65c-3.32-3.49-8.1-4.7-12.7-5.39a98.55,98.55,0,0,0-18.17-.87c-12.93.45-25.73,2.55-38.5,4.42-6.14.9-12.29,1.77-18.47,2.33-7.16.64-14.35,1-21.53,1.42-14.93.81-29.89,1.29-44.85,1.3-3.64,0-7.28,0-10.92,0a.23.23,0,0,0,0,.45Z" transform="translate(-0.24 -0.22)"/><path class="cls-1" d="M190.7,87.91C177.19,94.26,26.48,205.31,12.82,211.22c8.46,4.91-3.06,30.29,6.68,26.54,14.78-5.7,174.68-108,175.36-117.36.52-7.28,5.47-21.45,1.72-26.37Z" transform="translate(-0.24 -0.22)"/><path class="cls-2" d="M190.53,87.63a54.34,54.34,0,0,0-7.72,4.53c-4.72,3.06-9.4,6.21-14,9.41q-9.39,6.5-18.71,13.08-11,7.75-22,15.54l-23.74,16.9q-12,8.52-23.93,17-11.23,8-22.51,16-9.8,6.9-19.64,13.73c-5.07,3.51-10.15,7-15.3,10.4-3.05,2-6.11,4.09-9.34,5.83-.39.21-.78.41-1.19.59a.69.69,0,0,0,0,1.18c1.92,1.15,2.58,3.44,2.83,5.53a39.65,39.65,0,0,1-.11,8.15c-.23,2.61-.58,5.24-.58,7.88,0,1.59.06,3.7,1.37,4.83,1.77,1.53,4.41,0,6.17-.9,2.12-1.07,4.19-2.23,6.26-3.4,6.76-3.83,13.4-7.85,20-11.89q13.74-8.37,27.33-17,15.45-9.75,30.78-19.71,15.57-10.11,31-20.41,13.77-9.21,27.36-18.7c7-4.87,13.85-9.87,20.52-15.14,2.2-1.73,4.38-3.51,6.44-5.4a19.24,19.24,0,0,0,3.48-3.79,5.15,5.15,0,0,0,.62-2.39c.41-3.71,1.34-7.35,2-11s1.37-7.53.74-11.26a6.89,6.89,0,0,0-1.62-3.72c-.53-.55-1.15-1-1.72-1.55-1.52-1.36-3.19-2.66-4.6-4.13a.14.14,0,0,0-.2.2c1.45,1.51,2.72,3.29,4.06,4.91a16.7,16.7,0,0,1,1.41,1.76,8.45,8.45,0,0,1,.89,4c.2,7.38-2.48,14.48-3.14,21.78,0-.32,0-.22,0,0-.08.34.13-.18,0,.07s-.25.44-.4.65l-.11.15c-.16.24.15-.17,0,0l-.36.44c-.27.3-.55.6-.83.89a63.26,63.26,0,0,1-5.17,4.65c-5.86,4.86-12,9.32-18.24,13.8q-12.81,9.21-25.84,18.06-14.94,10.2-30.07,20.13-15.34,10.1-30.81,20-14,8.94-28,17.69c-7.29,4.52-14.61,9-22,13.34A113.23,113.23,0,0,1,19.58,237l-.24.1a6.22,6.22,0,0,1-1.21.35,1.47,1.47,0,0,1-1.42-.46c-1-1.33-.73-3.77-.65-5.32.27-5.26,1.5-10.75.35-16a7.45,7.45,0,0,0-3.24-5v1.18a55.07,55.07,0,0,0,7.68-4.56c4.72-3.05,9.37-6.22,14-9.4q9.4-6.47,18.72-13,11-7.74,21.95-15.53,11.88-8.44,23.73-16.91t23.91-17.07q11.24-8,22.48-16,9.78-6.93,19.61-13.82c5.06-3.53,10.12-7.08,15.22-10.55,3-2.07,6.08-4.18,9.24-6.07.38-.23.76-.45,1.15-.65S190.91,87.46,190.53,87.63Z" transform="translate(-0.24 -0.22)"/><path class="cls-1" d="M676.28,43.31c32.66.87,65,4.89,97.92,5.54,38.57.76,77.65-1.62,115.83,2.32,14.45,1.49,25.19-.55,25.83,17,.59,16.09-1.87,12.31-18.17,11.74C858,78.51,817.28,77.66,777.4,75.06c-26.82-1.75-54.28-.88-81-.32-20.85.45-35.47,10.76-31.31-13.65Z" transform="translate(-0.24 -0.22)"/><path class="cls-2" d="M676.28,43.64c22.63.81,45.19,2.93,67.79,4.44,22.79,1.51,45.57,1.72,68.41,1.56,22.68-.15,45.4-.33,68,1.43,4.72.37,9.43.91,14.16,1.26a82.06,82.06,0,0,1,9.39,1,14.1,14.1,0,0,1,6.93,3c2.24,2,3.24,5,3.72,7.88a44.6,44.6,0,0,1,.35,10.52c-.11,1.52-.28,3.62-1.67,4.56s-3.38.68-4.9.59c-3.14-.18-6.26-.54-9.41-.69-11.09-.54-22.21-.77-33.31-1.14q-17.06-.56-34.1-1.16t-34.11-1.49C786.27,74.77,775,73.9,763.7,73.5c-22.52-.79-45.09-.24-67.6.36-6.51.18-12.85,1.48-19.3,2.24-3.46.41-8.69,1.08-10.55-2.72-1.16-2.35-1-5.28-.84-7.81a16.57,16.57,0,0,1,.47-4.19,10.33,10.33,0,0,1,.87-1.47l7.81-13.36c.62-1,1.2-2.13,1.85-3.16.11-.17-.16-.33-.27-.16-2.21,3.53-4.65,6.93-7,10.38l-4,6a8.17,8.17,0,0,0-.71,1.06,8.52,8.52,0,0,0-.47,2.37c-.13.94-.26,1.88-.34,2.82-.39,4.41,0,10,4.86,11.73a16,16,0,0,0,6.54.46c2.85-.23,5.67-.72,8.49-1.15,3.54-.53,7.09-1,10.66-1.19,5.29-.29,10.6-.28,15.89-.39,11.64-.26,23.28-.47,34.93-.42,23.32.1,46.56,2,69.84,3s46.75,1.64,70.12,2.37c5.36.17,10.73.24,16.08.58,2.87.18,5.74.55,8.61.6,1.69,0,3.61,0,5-1.18s1.74-3.06,1.93-4.76a45.28,45.28,0,0,0-.17-10.6,16.85,16.85,0,0,0-3.13-8.47c-3.56-4.48-9.82-5-15.1-5.4-10-.78-19.91-1.78-29.9-2.26-11.66-.57-23.33-.72-35-.72-23.39,0-46.81.7-70.19-.2s-46.53-3.15-69.82-4.31q-8.47-.43-17-.59A.33.33,0,0,0,676.28,43.64Z" transform="translate(-0.24 -0.22)"/><path class="cls-1" d="M640.5,31.8c-13.81-.1-210.61,132.1-213.93,146.56-.89,3.84.23,15.51,1.48,19.47,3.48,11,4.82,9.12,13.63,6.54,17.52-5.14,207-132.68,211.49-145.91,4.28-12.53,5.46-18.72-5.52-24.12Z" transform="translate(-0.24 -0.22)"/><path class="cls-2" d="M640.5,31.49a10.28,10.28,0,0,0-3.76,1c-2.23.88-4.38,1.95-6.52,3-6.81,3.5-13.43,7.38-20,11.32-9.09,5.46-18.09,11.09-27,16.79q-15.76,10-31.35,20.39Q535.3,95,519,106.23q-15.92,10.9-31.63,22.09c-9.27,6.6-18.48,13.28-27.56,20.12-7.07,5.31-14.08,10.7-20.86,16.39-4,3.34-8.25,6.76-11.45,10.9a10.12,10.12,0,0,0-1.13,1.71,11.6,11.6,0,0,0-.63,4.9,72.56,72.56,0,0,0,1,11.86,30.52,30.52,0,0,0,3.19,9.85c1.07,1.92,2.6,3.06,4.86,2.8a37.36,37.36,0,0,0,7.37-2,33.8,33.8,0,0,0,4.79-2.17c5.95-3.06,11.68-6.54,17.39-10,8.61-5.24,17.13-10.64,25.6-16.08q15.53-10,30.87-20.2,16.62-11,33.11-22.3,16.32-11.14,32.51-22.51Q601,101.23,615.48,90.66c7.63-5.61,15.23-11.28,22.63-17.2,4.58-3.65,9.32-7.3,13.35-11.57a11.06,11.06,0,0,0,2.7-4.26c2.08-6.07,5-14,.12-19.46a17.27,17.27,0,0,0-7.17-4.72c-2.15-.74-4.44-1.07-6.56-1.83-.23-.08-.33.28-.1.36,2.14.76,4.16,2,6.31,2.75A15.6,15.6,0,0,1,654,40c1.8,2.62,1.8,5.82,1.23,8.84a47.9,47.9,0,0,1-1.43,5.54c-.32,1.07-.67,2.13-1,3.19-.08.25-.15.51-.25.75s.08-.16,0,0a12.67,12.67,0,0,1-2.66,3.34c-1.8,1.85-3.74,3.57-5.69,5.26-6,5.21-12.35,10.06-18.7,14.86-8.69,6.57-17.5,13-26.36,19.31Q583.64,112.21,568,123q-16.32,11.28-32.8,22.36Q519.37,156,503.39,166.48q-14,9.15-28.14,18.07c-7.09,4.45-14.21,8.86-21.46,13-3.8,2.19-7.87,4.8-12,6.16a34.58,34.58,0,0,1-7.3,2c-2.64.25-3.75-2.1-4.61-4.23A40.65,40.65,0,0,1,427.35,191a51,51,0,0,1-.43-11.45,6.81,6.81,0,0,1,1.95-3.87,58.65,58.65,0,0,1,4.84-4.88c5.44-5,11.26-9.63,17.1-14.17,8.18-6.38,16.51-12.55,24.91-18.65q14.79-10.75,29.82-21.19,16-11.15,32.19-22,15.9-10.71,32-21.2,14.41-9.4,29-18.52c7.69-4.78,15.42-9.47,23.26-14A136.79,136.79,0,0,1,637,33.15a10.13,10.13,0,0,1,3.46-1A.31.31,0,0,0,640.5,31.49Z" transform="translate(-0.24 -0.22)"/><path class="cls-1" d="M891.13,42.76a4.51,4.51,0,0,1,3.35-1c-30,30.69-226,108-236.16,121.06-8,10.3-2.56,36.19,13.19,36.92,14.14.66,209.79-108.65,224.93-122.16,10.37-9.27,21.09-21.85-.68-26.29Z" transform="translate(-0.24 -0.22)"/><path class="cls-2" d="M891.24,43a4.66,4.66,0,0,1,3.24-.93l-.21-.51c-5,4.87-11,8.74-16.89,12.41-8.76,5.48-17.86,10.43-27,15.23C839.24,75,828,80.54,816.64,86q-18.51,8.91-37.19,17.47T742,120.59c-11.42,5.19-22.84,10.37-34.23,15.63-9.24,4.27-18.46,8.57-27.59,13.07a197,197,0,0,0-17.72,9.51,21.38,21.38,0,0,0-4.25,3.19c-3.42,3.65-4.26,9.57-4.15,14.35.15,6.32,2,12.92,6,17.89,2.78,3.45,7.49,6.59,12.13,6.07A21.33,21.33,0,0,0,677,199c2.54-.91,5-2,7.51-3,7.4-3.23,14.66-6.78,21.89-10.38,9.72-4.84,19.38-9.84,29-14.9q16.65-8.76,33.19-17.77,17.25-9.39,34.39-19,16.49-9.19,32.86-18.57,14.33-8.2,28.55-16.61c7.14-4.24,14.25-8.53,21.27-13a91.76,91.76,0,0,0,11.22-7.71,68.77,68.77,0,0,0,6.83-6.72A25.07,25.07,0,0,0,908.5,64a8.23,8.23,0,0,0-.12-6.8C907,54.5,904,53,901.28,52a25.3,25.3,0,0,0-3.19-.93c-.57-.12-1.2-.16-1.76-.32-.39-.12.17.34-.16,0a12.13,12.13,0,0,1-1.5-2.48c-1.13-1.87-2.37-3.72-3.41-5.63-.09-.17-.35,0-.26.15,1.07,1.95,2,4,3,6a14.78,14.78,0,0,0,1.28,2.62c.35.47,1,.49,1.56.64,1.17.33,2.34.67,3.48,1.07,2.68.94,6,2.46,7.05,5.31.87,2.27,0,4.75-1.08,6.78a34.27,34.27,0,0,1-5.79,7.45,64.88,64.88,0,0,1-5,4.77c-1.32,1.09-2.92,2.2-4.47,3.25-5.58,3.8-11.34,7.33-17.12,10.83-8.42,5.11-16.91,10.1-25.42,15q-15.42,9-31,17.7-16.8,9.49-33.72,18.8T750,161.45q-15.42,8.25-31,16.26c-8.43,4.33-16.88,8.6-25.44,12.65-5.59,2.65-11.23,5.34-17.06,7.42-.88.32-1.77.62-2.66.86-.35.1-.7.19-1,.26l-.45.09a1.11,1.11,0,0,1-.29,0c-5,.45-9.56-3.26-12.14-7.13a29.84,29.84,0,0,1-4.57-18.8c.31-3.75,1.36-8.29,4.32-10.87a34.16,34.16,0,0,1,4.88-3.34c2.62-1.57,5.31-3,8-4.44,7.85-4.12,15.86-7.95,23.88-11.73,10.49-4.95,21-9.79,31.57-14.61,12-5.5,24-11,36-16.47q18.67-8.56,37.27-17.31c11.82-5.58,23.59-11.26,35.27-17.13,10.13-5.1,20.2-10.33,30.06-15.94a195,195,0,0,0,21.59-13.74,49.57,49.57,0,0,0,6.42-5.59.3.3,0,0,0-.21-.51,5.12,5.12,0,0,0-3.5,1.19C890.78,42.76,891,43.09,891.24,43Z" transform="translate(-0.24 -0.22)"/><path class="cls-1" d="M419.29,50C356.74,100.21,278,139.33,221.92,198.58c-6.43,6.8-21.54,23.54-2.91,24,12.07.28,27-14.81,36.72-21,38.11-24.07,73.31-53.74,111.18-78,17.87-11.44,37-21.28,54.61-32.69,13.85-9,22.73-36.71-3.57-33.73Z" transform="translate(-0.24 -0.22)"/><path class="cls-2" d="M419.12,49.86c-16.35,12.9-33.36,24.94-50.58,36.65C351,98.42,333.3,110,315.79,121.91s-34.66,24-51.17,37.18c-15.68,12.47-30.85,25.78-44.5,40.46a84.06,84.06,0,0,0-6,7.16,26.49,26.49,0,0,0-4.26,7.67c-.67,2.17-.71,4.64,1,6.36,2.17,2.23,6,2.55,8.92,2.48,4-.09,7.75-1.6,11.21-3.41a84,84,0,0,0,11.3-7.38c3.5-2.61,6.9-5.36,10.44-7.93,4.07-2.95,8.43-5.52,12.62-8.29,19.66-13,38.51-27.17,57.52-41.08s38-27.44,58.22-39.36c10.26-6.06,20.66-11.85,30.85-18q3.83-2.31,7.6-4.71a45.78,45.78,0,0,0,4.69-3.22,32,32,0,0,0,5.8-6.33c3.13-4.43,5.59-9.92,5.57-15.44,0-5-2.7-9.28-7.57-10.83a23.27,23.27,0,0,0-10-.49l.46.6c.4-2.41.6-4.86,1-7.26,0-.21-.29-.31-.33-.09-.45,2.38-1.14,4.72-1.63,7.1-.06.27.13.63.45.6,5.32-.49,12.42-.07,15.16,5.36,2.25,4.45.77,10.11-1.19,14.38a30.88,30.88,0,0,1-10.73,12.94c-9.69,6.38-19.82,12.08-29.87,17.87s-20,11.65-29.65,18S342.76,139,333.49,145.71c-18.72,13.48-37.08,27.46-56,40.63q-7,4.86-14.12,9.55c-4,2.66-8.2,5.13-12.09,8-7,5.18-13.68,11.07-21.51,15-3.41,1.73-7.15,3.09-11,3-2.53-.08-6.49-.39-7.7-3.1-1-2.13.2-4.75,1.18-6.66a43.89,43.89,0,0,1,5.25-7.57,219,219,0,0,1,16.94-17.66c7.36-7.09,15-13.86,22.88-20.39C273.22,153.26,290,141,307,129.2s34.18-23.14,51.29-34.68c16.93-11.42,33.75-23,50-35.45,3.78-2.89,7.5-5.86,11.19-8.87C419.71,50,419.36,49.67,419.12,49.86Z" transform="translate(-0.24 -0.22)"/><path class="cls-1" d="M207.19,103.84a30.52,30.52,0,0,1-3.22-1.11c15.56,15.14,51.63,34.39,71.58,43.83,17.56,8.32,35.37,16.59,53.25,24.25,28.11,12,58.19,22.05,86.08,32.7,2-6.6,12.44-15.88,11.57-22.81-1-7.69-16-13.67-22-16.94-20.63-11.1-42.83-17.68-64.63-26.16-35.74-13.9-77.58-40-115.52-48.75-6.79-1.57-20.71-3.4-25.28,4-5.61,9.06,8.61,21.83,16.3,26.79Z" transform="translate(-0.24 -0.22)"/><path class="cls-2" d="M207.22,103.72c-1.11-.27-2.12-.79-3.2-1.16a.17.17,0,0,0-.17.29,103.11,103.11,0,0,0,12.72,10.5c5.42,3.91,11.05,7.53,16.75,11,11.3,6.88,22.95,13.22,34.8,19.11,14.38,7.16,29,13.84,43.66,20.42q23.91,10.74,48.41,20c16.17,6.09,32.48,11.84,48.66,17.91l5.89,2.23a.52.52,0,0,0,.63-.36c1.32-4.17,4.47-7.73,6.9-11.29,2.18-3.18,5-7.13,4.73-11.2-.21-3.61-3.08-6.43-5.77-8.52A65.74,65.74,0,0,0,410.05,166c-4.34-2.16-8.62-4.47-13-6.58-5.77-2.78-11.68-5.3-17.64-7.66-12.13-4.81-24.5-9-36.68-13.65-22.31-8.53-43.4-19.84-65-30-10.84-5.08-21.82-9.92-33.1-14-5.37-1.92-10.82-3.65-16.35-5.08a69.72,69.72,0,0,0-12.4-2.26c-7-.53-17.91.57-18.82,9.52-.4,3.94,1.63,7.79,3.86,10.88a50.33,50.33,0,0,0,9.43,9.58c1.48,1.17,3,2.28,4.59,3.31.58.37,1.17-.35.89-.89C213.13,114,210,109,207.27,103.79a.09.09,0,0,0-.16.1c2.7,5.26,4.92,10.77,7.61,16l.89-.89a55.88,55.88,0,0,1-9.52-7.83c-2.92-3-5.81-6.45-7.12-10.48-1.17-3.6-.46-7.44,2.67-9.82s7.76-2.86,11.71-2.79a53.21,53.21,0,0,1,11.43,1.55c5.26,1.24,10.44,2.77,15.57,4.49a337.13,337.13,0,0,1,32.37,13.12c20.88,9.54,41.18,20.39,62.44,29.09,11.34,4.63,23,8.55,34.45,12.81a286.25,286.25,0,0,1,34.71,15.1c3.3,1.76,6.71,3.29,10,5.11,3.55,2,7.35,4.21,9.86,7.48a7.7,7.7,0,0,1,1.82,4.74,12.61,12.61,0,0,1-1.73,5.59c-2.09,4-5,7.45-7.4,11.23a21,21,0,0,0-2.47,4.94L415,203c-16-6.12-32.18-11.83-48.25-17.79-16.37-6.08-32.56-12.54-48.54-19.59-15.41-6.79-30.75-13.81-45.9-21.14-11.5-5.57-22.82-11.54-33.86-18s-22-13.11-31.56-21.41c-1-.83-1.89-1.67-2.8-2.53l-.18.3c1.09.33,2.12.83,3.23,1.06C207.31,104,207.38,103.76,207.22,103.72Z" transform="translate(-0.24 -0.22)"/><path class="cls-1" d="M433.29,70.71c-5-3.53,1.78,2,3.06,3,7.73,6.48,16,12.68,24.08,18.81,10.53,8,21.71,15.25,32.8,22.49,22.13,14.44,45.11,27.62,67.24,42,14.33,9.3,28.92,19,43.37,27.53,7.77,4.59,30.92,20.24,40.48,19.83,4.76-.2,15.42-8.63,18-12.7,5.66-9,2.37-11.08-5.34-18.1-13.14-12-28.64-21.22-43.11-31.73-33.18-24.09-72.94-37.91-106-60.89-16.42-11.4-29.7-24.31-48.29-32.21-8.88-3.78-18.1-8.81-26.11-1.78-7.17,6.3-6.84,18-3.79,26.09Z" transform="translate(-0.24 -0.22)"/><path class="cls-2" d="M433.4,70.51c-.2-.14-1.82-1.6-2.14-1.09s.87,1.13,1.08,1.32c2.48,2.17,5,4.28,7.57,6.36,9.13,7.42,18.48,14.65,28,21.49,19.23,13.76,39.43,26.16,59.6,38.49,10.17,6.22,20.35,12.45,30.38,18.9s20.11,13.15,30.26,19.55c7.37,4.65,14.87,9.07,22.27,13.66a214.62,214.62,0,0,0,19.91,11.31,55,55,0,0,0,9.15,3.63c2.48.68,4.91,1,7.36.09a35,35,0,0,0,9-5.54,28.91,28.91,0,0,0,7-7.13c1.72-2.79,3.54-6.29,2.26-9.61s-4.71-5.83-7.29-8.17a248.22,248.22,0,0,0-26.07-20.05c-4.59-3.16-9.2-6.29-13.75-9.5s-8.84-6.35-13.4-9.33c-9-5.9-18.43-11.21-27.94-16.28-19-10.09-38.43-19.26-56.75-30.51a302.57,302.57,0,0,1-26-18.27c-8.28-6.36-16.6-12.73-25.8-17.72A150.4,150.4,0,0,0,454,45.59c-4.27-1.76-8.93-3.38-13.62-2.7-9.15,1.33-13.56,10.63-13.49,19a27.55,27.55,0,0,0,2.32,11.37.49.49,0,0,0,.67.18c1.14-.87,2.26-1.86,3.47-2.63.15-.1,0-.34-.14-.24-1.2.76-2.56,1.36-3.83,2l.72.29c-2.14-7.54-3.28-16.58,1.79-23.29a13.61,13.61,0,0,1,12.32-5.42c4.88.47,9.46,2.75,13.9,4.67a135,135,0,0,1,26,15.23c8.21,6,16.1,12.45,24.51,18.19,17,11.63,35.54,20.82,53.85,30.19C571.76,117.21,581,122,590,127.17s17.68,10.91,26.19,17c8.73,6.19,17.72,12,26.35,18.35,4.37,3.21,8.64,6.57,12.71,10.16,1.81,1.61,3.62,3.22,5.37,4.89a16.92,16.92,0,0,1,3.31,3.9c1.85,3.36-.14,7.12-2,10a29.92,29.92,0,0,1-6.87,6.79c-2.73,2.13-5.83,4.38-9.19,5.39-2.41.72-5,0-7.35-.76-6.84-2.2-13.23-5.93-19.39-9.56-5.44-3.2-10.73-6.64-16.15-9.87-19.74-11.77-38.66-24.85-58.18-37s-38.92-23.76-58-36.21c-9.5-6.19-18.85-12.54-27.88-19.38-8.1-6.12-16.12-12.31-24-18.72-.89-.72-1.78-1.43-2.64-2.19-.12-.11-1-.89-.7-.14.11.29,1.41.92,1.65,1.08S433.64,70.68,433.4,70.51Z" transform="translate(-0.24 -0.22)"/><path class="cls-1" d="M683.06,39.39c-12.41.84-25.67-2.85-23.86,18,2,22.89,206.67,149.05,219.12,150,16.21,1.29,20.48-20.92,10.71-32C865.49,148.71,710.29,48,689.57,38.77Z" transform="translate(-0.24 -0.22)"/><path class="cls-2" d="M683.06,39.26c-5.48.23-11.35-.67-16.66,1a10.26,10.26,0,0,0-5.5,3.92c-1.77,2.58-2.22,5.9-2.29,9-.05,2.87,0,5.28,1.44,7.75a32.63,32.63,0,0,0,4,5.26,137.45,137.45,0,0,0,15,14c7.3,6.1,14.86,11.88,22.51,17.54,9.13,6.75,18.4,13.3,27.74,19.74q15.22,10.5,30.69,20.63,15.63,10.25,31.45,20.21,14.73,9.28,29.6,18.31,12.84,7.78,25.82,15.3c6.42,3.71,12.89,7.36,19.46,10.8,3.51,1.82,7.16,4,11,5.05,3.64,1,8.1-.31,11-2.56,4.71-3.66,6.63-10,6.49-15.74a22.87,22.87,0,0,0-6.11-15.19c-2.08-2.23-4.33-4.31-6.61-6.33-6.74-6-13.87-11.51-21-16.95-9.48-7.2-19.13-14.18-28.85-21.06q-16.35-11.59-33-22.84-16.95-11.51-34.07-22.76Q749.42,74,733.59,64c-8.48-5.36-17-10.67-25.61-15.8-5.36-3.2-10.74-6.43-16.35-9.18a5.16,5.16,0,0,0-2.41-.86c-2.07.15-4.1.93-6.16,1.12-.14,0-.14.23,0,.22.91-.09,1.87,0,2.8,0H688a4.82,4.82,0,0,0,1.42,0c.23-.08.18,0-.08-.08a2.21,2.21,0,0,1,.27.12,6,6,0,0,0,.57.28l1.23.62c2.31,1.2,4.56,2.49,6.8,3.8,7.16,4.16,14.21,8.47,21.25,12.83Q733.77,65.89,748,75.06q16.45,10.59,32.76,21.38,16.89,11.18,33.61,22.62,15.64,10.72,31.07,21.79c8.59,6.2,17.12,12.49,25.42,19.07a164.06,164.06,0,0,1,16.43,14.27,22.24,22.24,0,0,1,6.42,14c.43,5.89-1.29,12.62-6.23,16.3a13.18,13.18,0,0,1-8.58,2.45,5.32,5.32,0,0,1-1.61-.3,34.88,34.88,0,0,1-4.34-1.81c-5.29-2.49-10.42-5.33-15.53-8.18-7.67-4.27-15.26-8.7-22.82-13.18q-13.87-8.24-27.6-16.74-15.23-9.43-30.3-19.11-15.57-10-30.94-20.26-14.75-9.85-29.25-20.07c-8.54-6-17-12.18-25.27-18.55-6.57-5.07-13.07-10.27-19.2-15.87-3.91-3.57-8-7.35-10.87-11.87a10.23,10.23,0,0,1-1.63-5.48c-.16-3.45,0-7.27,1.76-10.33a9.51,9.51,0,0,1,5.71-4.3c5.14-1.55,10.8-.9,16.1-1.37C683.22,39.51,683.23,39.25,683.06,39.26Z" transform="translate(-0.24 -0.22)"/><path class="cls-1" d="M905.43,47.85c32.67.86,65,4.88,97.93,5.53,38.56.77,77.65-1.61,115.82,2.32,14.46,1.5,25.2-.54,25.84,17,.58,16.08-1.88,12.3-18.17,11.73-39.72-1.38-80.42-2.24-120.3-4.84-26.82-1.75-54.28-.88-81-.31-20.85.44-35.46,10.75-31.3-13.65Z" transform="translate(-0.24 -0.22)"/><path class="cls-2" d="M905.43,48.17c22.64.81,45.2,2.94,67.79,4.44,22.8,1.51,45.57,1.72,68.41,1.57,22.68-.16,45.4-.33,68,1.43,4.73.36,9.43.9,14.16,1.25a82.48,82.48,0,0,1,9.4,1,13.93,13.93,0,0,1,6.92,3c2.24,2,3.24,5,3.73,7.87a45.23,45.23,0,0,1,.35,10.53c-.11,1.51-.28,3.62-1.68,4.56s-3.38.67-4.89.58c-3.14-.18-6.27-.53-9.41-.68-11.1-.55-22.21-.78-33.31-1.14-11.37-.37-22.74-.74-34.11-1.17s-22.74-.9-34.1-1.49-22.57-1.46-33.87-1.86c-22.51-.79-45.08-.24-67.59.37-6.51.17-12.86,1.48-19.3,2.24-3.47.41-8.69,1.08-10.56-2.72-1.16-2.36-1-5.28-.84-7.82a17,17,0,0,1,.48-4.19,11.5,11.5,0,0,1,.86-1.47l7.82-13.36c.61-1,1.2-2.12,1.85-3.16.1-.17-.17-.32-.27-.15-2.21,3.52-4.65,6.92-7,10.38l-4,6a9.92,9.92,0,0,0-.71,1.07,8.82,8.82,0,0,0-.46,2.36c-.14.94-.26,1.88-.34,2.83-.4,4.41,0,10,4.86,11.72a15.85,15.85,0,0,0,6.54.47c2.84-.24,5.67-.72,8.49-1.15,3.54-.54,7.08-1,10.66-1.2,5.28-.28,10.6-.27,15.89-.39,11.64-.25,23.28-.47,34.92-.42,23.32.1,46.56,2,69.85,3s46.74,1.65,70.12,2.38c5.35.17,10.73.24,16.08.57,2.86.18,5.73.55,8.61.61,1.68,0,3.61,0,5-1.18s1.75-3.06,1.94-4.76a45.93,45.93,0,0,0-.18-10.61A16.83,16.83,0,0,0,1142.4,61c-3.56-4.48-9.81-5-15.1-5.4-10-.78-19.91-1.77-29.89-2.26-11.66-.56-23.33-.71-35-.71-23.4,0-46.81.7-70.2-.2s-46.52-3.16-69.81-4.32q-8.48-.42-17-.58A.33.33,0,0,0,905.43,48.17Z" transform="translate(-0.24 -0.22)"/><path class="cls-1" d="M1120.28,47.3a4.53,4.53,0,0,1,3.35-1c-30,30.7-226,108-236.15,121.07-8,10.29-2.57,36.18,13.19,36.91,14.13.66,209.79-108.64,224.93-122.16,10.37-9.26,21.09-21.85-.68-26.28Z" transform="translate(-0.24 -0.22)"/><path class="cls-2" d="M1120.4,47.49a4.59,4.59,0,0,1,3.23-.94l-.21-.51c-5,4.87-11,8.74-16.88,12.42-8.77,5.47-17.86,10.42-27,15.22-11.14,5.84-22.41,11.4-33.73,16.85q-18.52,8.91-37.2,17.48t-37.44,17.11q-17.13,7.78-34.24,15.64c-9.24,4.26-18.46,8.56-27.58,13.07a191,191,0,0,0-17.73,9.51,21.27,21.27,0,0,0-4.24,3.18c-3.42,3.65-4.27,9.57-4.15,14.36.14,6.32,2,12.91,6,17.89,2.77,3.44,7.48,6.58,12.12,6.07a21.73,21.73,0,0,0,4.75-1.31c2.55-.92,5-2,7.52-3.05,7.4-3.23,14.66-6.78,21.88-10.37q14.6-7.28,29-14.9,16.66-8.78,33.19-17.78,17.25-9.37,34.4-19,16.47-9.19,32.85-18.57,14.34-8.2,28.56-16.61c7.14-4.23,14.24-8.53,21.27-13a92.46,92.46,0,0,0,11.22-7.7,69.78,69.78,0,0,0,6.82-6.72,25.15,25.15,0,0,0,4.83-7.4,8.21,8.21,0,0,0-.12-6.79c-1.41-2.69-4.36-4.2-7.11-5.19a23.29,23.29,0,0,0-3.19-.92c-.57-.12-1.19-.17-1.75-.33-.39-.11.17.35-.16.05a12.07,12.07,0,0,1-1.51-2.49c-1.13-1.87-2.36-3.71-3.41-5.63-.09-.17-.34,0-.25.15,1.06,2,2,4,2.94,6a15.9,15.9,0,0,0,1.28,2.62c.36.47,1,.5,1.56.65,1.17.33,2.35.67,3.49,1.07,2.68.94,6,2.46,7,5.3.87,2.28,0,4.76-1.07,6.79a34.26,34.26,0,0,1-5.8,7.44,61.38,61.38,0,0,1-5,4.77c-1.32,1.1-2.92,2.2-4.46,3.25-5.58,3.81-11.35,7.33-17.12,10.83-8.42,5.11-16.91,10.1-25.43,15q-15.42,9-31,17.71-16.81,9.48-33.72,18.79T979.16,166q-15.42,8.25-31,16.27c-8.42,4.32-16.88,8.59-25.43,12.65-5.59,2.65-11.23,5.33-17.07,7.42-.88.31-1.76.61-2.66.86l-1,.26-.45.09-.3,0c-5,.45-9.55-3.27-12.14-7.13a30,30,0,0,1-4.57-18.81c.31-3.75,1.36-8.28,4.33-10.87a33.8,33.8,0,0,1,4.88-3.33c2.62-1.58,5.3-3,8-4.45,7.85-4.12,15.86-7.94,23.88-11.73,10.48-4.95,21-9.78,31.57-14.61q18-8.23,36-16.47,18.68-8.57,37.26-17.3c11.82-5.59,23.6-11.26,35.28-17.14,10.13-5.09,20.19-10.33,30-15.93a195.24,195.24,0,0,0,21.6-13.75,50.86,50.86,0,0,0,6.42-5.58.31.31,0,0,0-.22-.52,5.14,5.14,0,0,0-3.5,1.19C1119.94,47.29,1120.19,47.63,1120.4,47.49Z" transform="translate(-0.24 -0.22)"/><path class="cls-1" d="M912.21,43.93c-12.4.83-25.66-2.85-23.86,18C890.33,84.8,1095,211,1107.47,212c16.21,1.28,20.49-20.93,10.72-32-23.55-26.7-178.75-127.38-199.47-136.64Z" transform="translate(-0.24 -0.22)"/><path class="cls-2" d="M912.21,43.79c-5.47.24-11.34-.67-16.66,1a10.28,10.28,0,0,0-5.5,3.91c-1.76,2.58-2.22,5.9-2.28,9-.06,2.88,0,5.29,1.44,7.76a32.06,32.06,0,0,0,3.95,5.25,138.31,138.31,0,0,0,15,14c7.3,6.1,14.87,11.89,22.52,17.54,9.12,6.75,18.39,13.3,27.74,19.74q15.21,10.5,30.68,20.63,15.65,10.26,31.46,20.22,14.71,9.27,29.6,18.3,12.83,7.78,25.81,15.31c6.43,3.7,12.89,7.36,19.47,10.79,3.5,1.83,7.15,3.95,11,5.06,3.63,1.05,8.09-.31,11-2.56,4.71-3.66,6.63-10,6.49-15.74a22.92,22.92,0,0,0-6.11-15.19c-2.08-2.24-4.34-4.31-6.62-6.34-6.73-6-13.86-11.5-21-16.94-9.48-7.2-19.13-14.18-28.84-21.07q-16.35-11.59-33-22.83-16.93-11.52-34.07-22.77-15.68-10.25-31.5-20.27c-8.48-5.36-17-10.67-25.6-15.81-5.37-3.19-10.75-6.42-16.36-9.18a5.13,5.13,0,0,0-2.4-.86c-2.08.15-4.11.93-6.17,1.13-.14,0-.14.23,0,.22.92-.09,1.88,0,2.81,0h2.08a5.6,5.6,0,0,0,1.42,0c.24-.08.19,0-.07-.08a1,1,0,0,1,.26.12c.18.1.39.18.57.27l1.24.63c2.3,1.19,4.56,2.49,6.8,3.79,7.15,4.16,14.21,8.48,21.24,12.83q14.37,8.9,28.55,18.05,16.44,10.59,32.76,21.38,16.89,11.19,33.61,22.62,15.64,10.74,31.06,21.8c8.59,6.19,17.12,12.49,25.42,19.06a161.79,161.79,0,0,1,16.43,14.28,22.11,22.11,0,0,1,6.42,14c.44,5.88-1.28,12.61-6.22,16.29a13.2,13.2,0,0,1-8.58,2.46,5.38,5.38,0,0,1-1.62-.3,35.65,35.65,0,0,1-4.33-1.81c-5.29-2.49-10.43-5.33-15.54-8.18-7.67-4.28-15.26-8.7-22.81-13.19q-13.89-8.24-27.6-16.74-15.24-9.42-30.31-19.11-15.56-10-30.94-20.26-14.75-9.85-29.25-20.06c-8.53-6-17-12.18-25.27-18.56-6.57-5.06-13.07-10.26-19.2-15.86-3.9-3.57-8-7.35-10.87-11.88a10.17,10.17,0,0,1-1.62-5.48c-.16-3.44,0-7.26,1.75-10.33a9.53,9.53,0,0,1,5.71-4.3c5.14-1.54,10.81-.9,16.1-1.36C912.38,44,912.38,43.79,912.21,43.79Z" transform="translate(-0.24 -0.22)"/><path class="cls-1" d="M634.73,201.92c16.68,1.38,34.48-1.72,51.64-1.38" transform="translate(-0.24 -0.22)"/><path class="cls-2" d="M634.73,202.13a76.41,76.41,0,0,0,9.92.54c3.36,0,6.73-.09,10.09-.25,6.73-.3,13.44-.85,20.17-1.15,1.91-.08,3.83-.14,5.74-.18s3.82,0,5.72-.09a.46.46,0,0,0,0-.92,70,70,0,0,0-10.14.06c-3.41.14-6.81.36-10.21.58-6.69.45-13.37,1-20.08,1.14-3.74.07-7.47-.05-11.21-.15-.28,0-.26.39,0,.42Z" transform="translate(-0.24 -0.22)"/><path class="cls-1" d="M448.35,37.4c.24-10.45-11.1-18.68-21.25-14.7-17.68,6.94-14.82,48-15.71,62.85-1.41,23.43-4.52,46.26-5,69.84-.3,14.83,2.27,32.76-.22,46.93,13.94,2.08,31.11,7.21,35.45-7.76,5.06-17.47,2.46-43.17,3.66-61.52,2.09-31.89.12-64,.65-95.69Z" transform="translate(-0.24 -0.22)"/><path class="cls-2" d="M448.61,37.4a16.06,16.06,0,0,0-10-15.08,15.58,15.58,0,0,0-16,2.34c-3.62,3.05-5.79,7.53-7.28,11.93a77.57,77.57,0,0,0-3.32,16.67c-1.11,10.42-.78,20.86-1.26,31.3-.43,9.23-1.35,18.45-2.17,27.65-.88,9.85-1.77,19.7-2.34,29.57a276,276,0,0,0-.23,27.74c.39,8.79,1,17.64.27,26.43-.16,2.08-.41,4.14-.77,6.2-.05.3.08.73.45.78,5,.76,10,1.82,15.11,2.33,4.46.44,9.25.54,13.44-1.27,4.38-1.89,6.76-5.77,8-10.22a90.93,90.93,0,0,0,2.63-18c.82-12.95.1-25.92.59-38.88.29-7.51.83-15,1-22.5.19-7.93.21-15.87.15-23.8-.1-15.82-.4-31.63-.36-47.45,0-1.95,0-3.87-.16-5.81l-.44.44c.79-.07,1.61-.23,2.4-.22.22,0,.22-.34,0-.34a21.92,21.92,0,0,1-2.4-.32c-.26,0-.41.23-.44.44A92.05,92.05,0,0,0,445.19,49q0,5.82.06,11.66c.08,7.74.2,15.48.29,23.22.18,15.57.19,31.15-.73,46.7-.75,12.63-.29,25.25-.62,37.89a133.93,133.93,0,0,1-1.58,18.87c-.82,4.79-1.72,10.37-5.62,13.7-3.31,2.82-7.94,3.31-12.12,3.2a106.2,106.2,0,0,1-14.95-1.95c-1.18-.2-2.37-.39-3.56-.57l.45.79c1.44-8.29,1.23-16.78.89-25.15-.36-8.74-.83-17.45-.54-26.21.63-19.21,2.89-38.32,4.32-57.48.42-5.65.7-11.26.78-16.93.08-5.37.17-10.74.48-16.11a115.88,115.88,0,0,1,2.08-17c1-4.88,2.49-9.84,5.24-14S426.9,22.48,432,22.3a16.11,16.11,0,0,1,15.27,10.31,14.22,14.22,0,0,1,.85,4.79A.26.26,0,0,0,448.61,37.4Z" transform="translate(-0.24 -0.22)"/><path class="cls-1" d="M221.46,222.3c4.18-29.32-.11-158-8.15-169.91-5.3-7.84-14.38-2-19,4.53-6.41,9-5.78,24.46-6.77,36.22-2.59,30.6,3.11,136.45,6.13,139.76,2.78,3,10.27-2.49,13.68-2.92,5.15-.66,10.38,1.07,15.75.93Z" transform="translate(-0.24 -0.22)"/><path class="cls-2" d="M221.74,222.38A122.91,122.91,0,0,0,223,210c.35-5.87.53-11.74.62-17.61q.15-10.63,0-21.25-.09-11.67-.42-23.33-.33-11.92-.86-23.84c-.35-7.6-.76-15.2-1.28-22.8-.45-6.76-1-13.52-1.65-20.27-.54-5.38-1.15-10.76-2-16.09a57.9,57.9,0,0,0-2.31-10.34,10.54,10.54,0,0,0-2.49-4.12c-3.19-3.21-7.68-2.85-11.4-.78a23.42,23.42,0,0,0-9.33,10c-2.2,4.5-3.14,9.51-3.73,14.44-.63,5.28-.79,10.58-1.12,15.88-.18,2.81-.43,5.62-.57,8.44-.27,5.86-.33,11.73-.32,17.6,0,7.31.12,14.63.3,21.94q.3,12,.8,24t1.15,23.7c.4,7,.84,14.08,1.36,21.12.4,5.41.83,10.82,1.41,16.21a59.06,59.06,0,0,0,1.37,9.19c1.57,5.8,10.57,0,13.7-1,2.34-.78,5-.48,7.42-.21a51.7,51.7,0,0,0,9.46.62.55.55,0,0,0,.52-.69.36.36,0,0,0,0-.1c0-.11-.12-.16-.14-.26s.11.22.08.08c-.06-.32-.14-.64-.21-1l-.69-2.93c-.34-1.44-.75-2.89-1-4.34,0-.2-.34-.11-.3.08.27,1.47.43,3,.64,4.45l.43,2.94.15,1s0,.21,0,0,0,.15,0,.2a.45.45,0,0,1,0,.12l.53-.69c-3.17-.11-6.31-.72-9.46-1.06-2.48-.28-5.25-.56-7.66.21-1.82.58-3.52,1.48-5.27,2.22-1.58.67-3.58,1.59-5.33,1.25a2.17,2.17,0,0,1-.86-.35c-.14-.1-.46-.45-.25-.2-.1-.13-.14-.31-.08-.14a9.25,9.25,0,0,1-.31-1.06c-.29-1.23-.47-2.5-.64-3.76-.6-4.27-1-8.8-1.37-13.18-.54-6.31-1-12.62-1.38-18.94-.48-7.47-.88-14.94-1.24-22.42q-.57-11.91-1-23.82-.39-11.4-.56-22.81c-.09-6.6-.13-13.2,0-19.79.1-5.34.42-10.64.77-16S189,80.16,189.53,75c.54-5,1.41-10.12,3.63-14.66a21.71,21.71,0,0,1,9.41-9.82,8.6,8.6,0,0,1,5.89-.94A7.43,7.43,0,0,1,212.79,53,11.44,11.44,0,0,1,214,55.82c.47,1.56.84,3.15,1.16,4.75.93,4.55,1.55,9.15,2.1,13.76.74,6.13,1.31,12.29,1.81,18.44q.87,10.82,1.47,21.66.66,11.58,1.09,23.18t.69,23.43q.22,11,.24,22,0,9.61-.21,19.24c-.11,4.94-.28,9.89-.66,14.83-.14,1.74-.27,3.48-.48,5.21C221.13,222.62,221.68,222.7,221.74,222.38Z" transform="translate(-0.24 -0.22)"/><path class="cls-1" d="M52.05,341c5.83-30.31-1.46-163.52-13.21-175.87-7.75-8.16-20.87-2.2-27.54,4.53-9.21,9.3-8.17,25.26-9.52,37.42-3.5,31.63,5.64,141.21,10,144.65,4.06,3.18,14.88-2.49,19.82-2.91,7.47-.63,15.06,1.2,22.85,1.1Z" transform="translate(-0.24 -0.22)"/><path class="cls-2" d="M52.33,341a96.53,96.53,0,0,0,1.61-13.35c.44-6.33.63-12.68.69-19,.07-7.65,0-15.29-.19-22.93q-.3-12.54-.93-25.06-.63-12.72-1.6-25.41c-.62-8-1.34-16-2.22-24-.77-6.93-1.64-13.86-2.75-20.74a159.14,159.14,0,0,0-3.23-15.89c-.86-3.2-1.74-6.62-3.68-9.3a13,13,0,0,0-9.54-4.93c-4.89-.36-9.83,1.54-13.93,4.08a27.09,27.09,0,0,0-10,10.5c-2.39,4.63-3.43,9.81-4.06,15s-.79,10.48-1.29,15.72C.91,208.32.66,211,.53,213.6.2,220,.2,226.47.29,232.91c.11,7.91.38,15.81.75,23.71q.59,12.87,1.49,25.71.87,12.51,2,25c.65,7.22,1.38,14.43,2.24,21.63.63,5.26,1.29,10.53,2.24,15.75.3,1.61.61,3.22,1.05,4.8a6.37,6.37,0,0,0,1.11,2.62,5.37,5.37,0,0,0,3.57,1.29,20.16,20.16,0,0,0,6.3-.92c2.25-.6,4.45-1.36,6.68-2a24,24,0,0,1,6.69-1,88.5,88.5,0,0,1,9.77.6,52.38,52.38,0,0,0,10.32.38.54.54,0,0,0,.5-.66c-.82-3-2-5.85-2.79-8.82a.16.16,0,0,0-.3.08c.81,3,1.28,6,2.09,9l.5-.66c-3.44-.28-6.88-.54-10.32-.87a87.63,87.63,0,0,0-10.11-.6,24.17,24.17,0,0,0-6.44,1c-2.19.64-4.34,1.38-6.54,2a20,20,0,0,1-6.26,1,4.68,4.68,0,0,1-2.29-.62,2,2,0,0,1-.25-.19c-.15-.12.09.16,0,0s-.16-.28-.24-.43,0,.1,0-.1l-.12-.32c-.19-.54-.35-1.09-.49-1.64a108.43,108.43,0,0,1-2.13-12.11c-.88-6.3-1.58-12.63-2.23-18.95q-1.18-11.68-2.1-23.39-1-12.62-1.73-25.26c-.47-8.21-.87-16.42-1.13-24.64-.22-7.2-.36-14.41-.28-21.61.06-5.45.28-10.89.83-16.31,1-10.1.42-21.12,5.15-30.42a25.81,25.81,0,0,1,10.11-10.4c4.09-2.43,9.15-4.27,14-3.38a11.88,11.88,0,0,1,6.3,3.33,5.66,5.66,0,0,1,1,1.3,20.08,20.08,0,0,1,1.77,3.9,89.47,89.47,0,0,1,3.38,13.21c1.21,6.19,2.14,12.43,3,18.69,1,7.52,1.78,15.06,2.47,22.61q1.13,12.29,1.91,24.61.81,12.48,1.29,25,.47,11.85.6,23.7c.07,6.91,0,13.83-.13,20.73-.13,5.38-.35,10.77-.89,16.12-.19,1.87-.4,3.73-.72,5.58C51.71,341.24,52.25,341.4,52.33,341Z" transform="translate(-0.24 -0.22)"/><path class="cls-1" d="M633.65,195.9c.61-30.64,4-62.11,1.83-92.38-1.91-26.24,3.41-51.35,3.94-77.94.57-28.8,34.61-37.25,38.37,2a449.67,449.67,0,0,1-.57,90.84c-1.58,14.4,1.95,31.72.26,46-1.64,13.89,4.71,29.08,1.57,42-12.8-.16-33,2.88-44.32-4.48Z" transform="translate(-0.24 -0.22)"/><path class="cls-2" d="M633.77,195.9c.58-16.69,1.76-33.35,2.45-50,.34-8.32.57-16.65.48-25q-.06-6.11-.37-12.19c-.21-4.17-.56-8.34-.66-12.51-.4-16.31,1.6-32.54,3.06-48.75.37-4.12.7-8.23.95-12.36.23-3.69.23-7.4.48-11.09a29.05,29.05,0,0,1,3.32-12c3.06-5.63,8.69-10.36,15.38-10.25,7.43.12,12.6,6.35,15.13,12.76,2.28,5.76,2.86,11.87,3.37,18q1,12.24,1.36,24.52a447.66,447.66,0,0,1-1.26,49.41c-.62,7.66-1.68,15.24-1.53,22.94s.89,15.16,1.08,22.76a91.43,91.43,0,0,1-.27,10.73,65.07,65.07,0,0,0-.26,10.9c.55,7.41,2.18,14.71,2.5,22.15a36.92,36.92,0,0,1-.8,10.22l.87-.66c-11.73-.13-23.76,1.79-35.33-.92a27.46,27.46,0,0,1-8.56-3.39l.39.51a22.48,22.48,0,0,0-.85-3.12,19.4,19.4,0,0,1-.93-2.72c0-.15-.27-.09-.24.07a16.76,16.76,0,0,1,.06,2.36,19.89,19.89,0,0,0,.27,3.54c.25,1.18,2,1.8,3,2.28A30.5,30.5,0,0,0,642,206c7.88,2.14,16.3,1.91,24.39,1.62,4.2-.14,8.41-.38,12.62-.33a.92.92,0,0,0,.87-.66c1.68-7.12.7-14.48-.29-21.62-.54-3.84-1.11-7.67-1.37-11.54a55,55,0,0,1-.13-5.6c0-1.82.29-3.62.44-5.43.65-7.53.07-15.12-.38-22.64a137.51,137.51,0,0,1,.08-22.78,441.33,441.33,0,0,0,2.43-49.84q-.09-12.57-.87-25.14-.41-6.22-1-12.45A71.64,71.64,0,0,0,677.47,20C675.68,12.25,671.54,3.64,663.4,1c-6.36-2.1-13.08.55-17.51,5.28a25.9,25.9,0,0,0-5.64,9.84c-1.71,5.39-1.47,11-1.72,16.57-.76,16.61-3.1,33.11-3.81,49.73-.18,4.2-.25,8.41-.17,12.61s.41,8.34.65,12.51c.49,8.38.57,16.77.45,25.16-.24,17-1.39,34-1.91,51-.13,4.09-.19,8.18-.22,12.27A.13.13,0,0,0,633.77,195.9Z" transform="translate(-0.24 -0.22)"/><path class="cls-1" d="M921.74,39.83c4-12-16.11-40.15-28.72-29.15-14.86,13-11.35,52.87-12.45,71.49-2.56,43.34-3.89,87.86-2.33,131.52,8.07.65,16.38.58,24.37,1.3,10.29.93,10.53,3.25,13.89-6.13,6.27-17.5,3.2-45,4-63.84,1.73-38.8,5.4-67.74,2.39-106.42Z" transform="translate(-0.24 -0.22)"/><path class="cls-2" d="M921.93,39.88c1.89-5.19-.35-11.28-2.71-15.93C916.4,18.4,912.15,13,906.75,9.8a14.32,14.32,0,0,0-7.51-2.28,10.66,10.66,0,0,0-7,2.93C887.56,14.68,885.13,21,883.6,27a114.2,114.2,0,0,0-3,22.55c-.39,7.58-.39,15.16-.46,22.75-.08,8.68-.71,17.33-1.16,26Q878,116,877.49,133.73c-.73,23.71-.91,47.45-.28,71.17q.12,4.4.27,8.79a.78.78,0,0,0,.76.76c8.4.67,16.86.52,25.24,1.38,2.25.23,4.48.68,6.73.83a4.84,4.84,0,0,0,3.71-1c1.33-1.19,2-3.11,2.61-4.72a57.18,57.18,0,0,0,2.57-8.58,111.8,111.8,0,0,0,2.1-20c.43-13.92-.39-27.83.29-41.76.78-16,2-31.95,2.72-47.95a418.84,418.84,0,0,0-.1-47.67c-.15-2.12-.31-4.25-.5-6.38a.68.68,0,0,0-1.15-.48l-1.19,1.24c-.6.61.34,1.55.93.94l1.22-1.22-1.16-.48A451.47,451.47,0,0,1,923,86.28c-.56,15.45-1.72,30.87-2.58,46.3-.4,7.22-.81,14.44-.79,21.68,0,6.85.2,13.7.18,20.54a166.42,166.42,0,0,1-1.07,20.58,57.35,57.35,0,0,1-4.42,16.93c-.52,1.13-1.17,2.47-2.49,2.78-1.52.36-3.31-.12-4.81-.33-7.46-1-15-1.09-22.52-1.44-2.09-.1-4.19-.22-6.28-.38l.76.75c-.83-23.09-.86-46.2-.33-69.3q.41-17.26,1.18-34.53c.46-10.27,1.24-20.53,1.58-30.8.46-14.46-.27-29,1.86-43.35,1-6.59,2.48-13.42,5.9-19.21a18.29,18.29,0,0,1,5.54-6.25,9.12,9.12,0,0,1,7-1.13c5.73,1.32,10.38,6.21,13.64,10.83s6.32,10.52,6.51,16.43a11.14,11.14,0,0,1-.38,3.4A.2.2,0,0,0,921.93,39.88Z" transform="translate(-0.24 -0.22)"/><path class="cls-3" d="M929.61,221c7.2.17,18.4-8.39,23.79-13.48-7.66-.82-14.93,4.38-22.28,1.6a24.41,24.41,0,0,0,.5-2.66c-1.49.53-5,.31-7.11,1.17,1.39-2.15,1.79-5,3-7-3.4,1.19-6.88,5.91-9.9,6.69-8.93,2.3-2.55-.3-9.91-1.75-5.86-1.15-14.25-8.48-15,5.1-9.6-9.68-7.6-2-14.52-.55-1.1.23-6,2.35-7,2.64.07,0-6.51-3.82-8.44-3.75,1.17,10.86-8.07,6.23-11.64,0-.26,2-2.8,4.74-3.25,6.14-4.57-5-10.86-12.2-16.77-4.56-1.39-1.43-5.73-2.91-6.67-3.87-.61,4.5.59,9,2.13,13.23,21.21,5.56,44.83,8.22,66.86,8.73" transform="translate(-0.24 -0.22)"/><path class="cls-4" d="M929.61,221.23c3.43.22,6.77-1.3,9.73-2.87a65.64,65.64,0,0,0,10-6.71q2.3-1.82,4.43-3.83a.49.49,0,0,0-.34-.82c-7.46-.74-14.81,4.32-22.15,1.62l.33.59a26.71,26.71,0,0,0,.5-2.67c0-.33-.2-.71-.58-.58a15,15,0,0,1-3.4.46,13.84,13.84,0,0,0-3.72.71l.55.71c1.37-2.18,1.73-4.8,3-7,.2-.35-.14-.87-.55-.72a18.07,18.07,0,0,0-5.24,3.56,32.71,32.71,0,0,1-2.61,2.09,8.22,8.22,0,0,1-2.76,1.21,29.39,29.39,0,0,1-3,.64,2.81,2.81,0,0,1-1.19,0c-.07,0-.17-.15-.3-.32a4.16,4.16,0,0,0-.7-.81,9.81,9.81,0,0,0-4.16-1.54,27.11,27.11,0,0,1-3.65-1.26c-2.21-.88-4.75-2.07-7.19-1.6-3.7.71-4.25,5.5-4.42,8.53l.93-.39c-1.67-1.69-3.52-3.64-5.75-4.6a3.47,3.47,0,0,0-3.39.18c-1,.66-1.8,1.62-2.78,2.33a8,8,0,0,1-2,1.07c-.72.25-1.47.39-2.19.65-2,.71-3.91,1.65-5.92,2.29l.75.56c0-.5-.77-.81-1.12-1-.83-.47-1.66-.92-2.51-1.35s-2-1-3-1.38a6.41,6.41,0,0,0-2.39-.62.62.62,0,0,0-.61.61c.18,1.78.45,5.55-2.09,5.89-2.05.27-4.19-1.39-5.58-2.7a15.09,15.09,0,0,1-2.79-3.52.67.67,0,0,0-1.21.16c-.37,2.35-2.5,4-3.27,6.14l1.15-.31c-2.44-2.68-5-5.72-8.31-7.29a7.33,7.33,0,0,0-4.67-.69,8.69,8.69,0,0,0-4.79,3.39h1a12.88,12.88,0,0,0-3.49-2.15,12.14,12.14,0,0,1-3.17-1.72.74.74,0,0,0-1.25.52,22.74,22.74,0,0,0,.52,8.09c.3,1.3.68,2.58,1.1,3.85a5.06,5.06,0,0,0,.72,1.81c.37.39,1.29.45,1.79.58,5.15,1.32,10.36,2.45,15.59,3.42a296.4,296.4,0,0,0,32,4.13q9,.67,18,.87a.79.79,0,0,0,0-1.58c-8.74-.2-17.47-.77-26.17-1.63s-17.56-2.12-26.24-3.8q-7.17-1.39-14.25-3.23l.52.52c-1.51-4.18-2.69-8.55-2.12-13l-1.25.52a12.1,12.1,0,0,0,3.17,1.8,12.76,12.76,0,0,1,3.51,2.06.72.72,0,0,0,1,0A7.45,7.45,0,0,1,836,208a6.18,6.18,0,0,1,4,.87c2.94,1.61,5.21,4.3,7.46,6.73a.7.7,0,0,0,1.15-.31,14.55,14.55,0,0,1,1.71-2.85,9.06,9.06,0,0,0,1.5-3.3l-1.2.16a15.33,15.33,0,0,0,6.29,6c2,1,4.59,1.23,5.86-1a9.06,9.06,0,0,0,.66-5.42l-.6.6a5.64,5.64,0,0,1,2,.52c.92.36,1.82.79,2.71,1.24s1.57.81,2.34,1.24l.77.44c.1.05.41.31.24.13l-.17-.42h0a.58.58,0,0,0,.74.57c1.72-.55,3.37-1.33,5.06-2a35.57,35.57,0,0,0,4.41-1.58,17.75,17.75,0,0,0,3.09-2.44,2.58,2.58,0,0,1,2.41-.83,6.79,6.79,0,0,1,2.38,1.28,33.28,33.28,0,0,1,3.64,3.28.55.55,0,0,0,.93-.39c.14-2.49.44-6.83,3.53-7.49a6.79,6.79,0,0,1,3.19.29c1.24.35,2.43.84,3.63,1.31a24.71,24.71,0,0,0,3.55,1.2c1.28.3,2.85.47,3.87,1.41.38.35.59.93,1.13,1.18,1,.47,2.47,0,3.46-.26a13,13,0,0,0,3.41-1,16.19,16.19,0,0,0,2.62-1.87c1.85-1.52,3.66-3.45,6-4.29l-.55-.72c-1.28,2.22-1.64,4.85-3,7-.21.33.15.87.55.71a13.5,13.5,0,0,1,3.83-.71,13.9,13.9,0,0,0,3.28-.48l-.59-.58a26.52,26.52,0,0,1-.5,2.66.5.5,0,0,0,.34.59c7.48,2.75,14.84-2.34,22.4-1.58l-.34-.82a76.53,76.53,0,0,1-8.27,6.77,44.19,44.19,0,0,1-10,5.6,16.65,16.65,0,0,1-5.19,1.17.28.28,0,0,0,0,.55Z" transform="translate(-0.24 -0.22)"/><path class="cls-3" d="M688.39,219.79c5.23-8.36,15.05-15.43,22.91-21.33-7.4,3.93-21.58,10.87-28.66,9.07,1.76-6.63,6.92-15.32,10.64-21.21-5.88,1.33-10.62,6.22-15.16,9.62,2.83-8.42,7.78-18.07,9-26.27-8,7.75-10.22,21.49-18.72,29.31-3.48-3.14-6.5-19.27-12.5-19.14-7.43.15-9.4,18.06-10.3,22.86-4.45-3.88-7.5-9.6-13.18-12.55-2.19,6.23-.18,14.16-2.84,20-5.87-1.68-9.9-8.24-15.22-11.86-2.45,3.06-2.21,6.76-.27,10.59-4.8,1.06-10.15-1.38-15.11-1.22,1.28,5.21,6.88,8.68,11.4,11.81" transform="translate(-0.24 -0.22)"/><path class="cls-4" d="M688.69,220c4.52-6.79,11.07-12.09,17.5-17,1.79-1.36,3.59-2.69,5.4-4a.56.56,0,0,0-.57-1c-3.52,1.86-7.09,3.62-10.76,5.18a52.94,52.94,0,0,1-12,3.83,14,14,0,0,1-5.43,0l.41.72a52.94,52.94,0,0,1,4.58-10.84c1.86-3.49,3.91-6.89,6-10.23a.61.61,0,0,0-.68-.88c-6.06,1.41-10.5,6.06-15.31,9.67l.9.69c2.35-7,5.62-13.59,7.71-20.64a41.62,41.62,0,0,0,1.3-5.62.63.63,0,0,0-1-.61c-6.59,6.41-9,15.72-13.88,23.33a29.63,29.63,0,0,1-4.85,6h.9a10.72,10.72,0,0,1-2.13-3.46c-.82-1.74-1.51-3.54-2.26-5.31a55.59,55.59,0,0,0-2.49-5.37,13.24,13.24,0,0,0-3-4,4.69,4.69,0,0,0-4-1.09,6.35,6.35,0,0,0-3.55,2.26c-2.42,2.84-3.56,6.72-4.45,10.27s-1.38,7.13-2.05,10.71l1.17-.31c-4.62-4.09-7.73-9.73-13.32-12.68a.74.74,0,0,0-1.06.42c-1.1,3.22-1.16,6.67-1.26,10s-.15,6.73-1.51,9.77l.83-.34c-3-.89-5.46-3.06-7.69-5.21a59.56,59.56,0,0,0-7.35-6.59.75.75,0,0,0-.91.11,9,9,0,0,0-2,5.45,13.47,13.47,0,0,0,1.61,6.07l.46-1.12a19.54,19.54,0,0,1-7.42-.34,36.35,36.35,0,0,0-7.49-.91.77.77,0,0,0-.73,1c1.48,5.79,7.21,9,11.77,12.21.75.51,1.45-.7.71-1.22a67.17,67.17,0,0,1-6.66-5,13.29,13.29,0,0,1-4.35-6.41l-.74,1c5.15-.14,10.15,2.28,15.31,1.19a.78.78,0,0,0,.46-1.12c-1.56-3.11-2.14-6.76.14-9.68l-.91.11c5.31,3.64,9,10,15.41,11.93a.75.75,0,0,0,.83-.34c2.85-6.37.66-13.64,2.89-20.15l-1.06.42c5.48,2.89,8.52,8.46,13.06,12.43a.7.7,0,0,0,1.16-.3c.55-3,1-6,1.59-8.93.77-3.55,1.71-7.29,3.69-10.38,1.32-2.07,3.79-4.13,6.22-2.46a10.26,10.26,0,0,1,2.83,3.47,46.58,46.58,0,0,1,2.46,5.14c.81,1.92,1.57,3.87,2.44,5.77a12.16,12.16,0,0,0,2.45,3.93.65.65,0,0,0,.9,0c6.82-6.32,9.4-15.63,14.11-23.38a30.16,30.16,0,0,1,4.6-5.94l-1-.61c-1.08,7.15-4.24,13.86-6.86,20.53-.75,1.9-1.47,3.81-2.13,5.74-.16.48.47,1,.9.69,4.71-3.54,9.08-8.18,15-9.56l-.68-.89c-2.15,3.41-4.22,6.86-6.1,10.43a53.25,53.25,0,0,0-4.59,10.94.59.59,0,0,0,.41.72c3.54.87,7.44-.1,10.83-1.13a86.81,86.81,0,0,0,12.45-5.06q2.94-1.42,5.83-3l-.57-1c-6.6,5-13.49,9.88-18.93,16.16a38.41,38.41,0,0,0-4,5.47c-.23.39.36.73.61.35Z" transform="translate(-0.24 -0.22)"/><path class="cls-3" d="M458.13,210.43a6.83,6.83,0,0,0-2.08,2.2c9.05-2.58,19.2-7.79,28.56-11.1-4.37,4.46-20.19,9.44-15.48-2.46-7.3-1.26-13.72,6.5-21.33,5.92.91-2.2.56-5.77,1.8-8.14-1.7.22-9.17,3.91-10.8,3.31-6-2.2-2.14-5.34-6.06-7.58-10.69-6.11-11.65,1.43-19.06,10.66-4.55-3-13.59-11.7-19.86-9.6-3,1-.6,7.42-3.54,8.69s-6.27-.39-9.37.61c-3.86,1.25-5.92-3.73-9,.6-1.37,1.93,6.12,7.44,4.46,10.15-3.21,5.28-14.58,0-18.55-2.22a36,36,0,0,0,12.45,10.42" transform="translate(-0.24 -0.22)"/><path class="cls-4" d="M458,210.26a7.68,7.68,0,0,0-2.27,2.2.34.34,0,0,0,.38.5,79.17,79.17,0,0,0,11-3.8c3.78-1.53,7.52-3.15,11.3-4.67,2.09-.85,4.2-1.68,6.35-2.41l-.56-1a14.78,14.78,0,0,1-3.46,2.35,21.83,21.83,0,0,1-4.57,1.8,12,12,0,0,1-4.38.49,3.1,3.1,0,0,1-2.53-1.4c-.81-1.48-.06-3.63.52-5.12a.69.69,0,0,0-.48-.85c-6.08-1-11.1,3.39-16.56,5.18a13,13,0,0,1-4.95.71l.68.89c1-2.54.49-5.5,1.74-8a.72.72,0,0,0-.8-1.05,16.37,16.37,0,0,0-3.33,1.14c-1.52.6-3,1.22-4.59,1.71a10.17,10.17,0,0,1-1.88.48l-.5,0A6.1,6.1,0,0,1,438,199a4.33,4.33,0,0,1-1.82-1.51,4.93,4.93,0,0,1-.52-1.63,5.17,5.17,0,0,0-1.74-3.39,13.27,13.27,0,0,0-2.77-1.57,15.75,15.75,0,0,0-2.66-1,7.6,7.6,0,0,0-4.28,0,8.45,8.45,0,0,0-3.34,2.28,35.5,35.5,0,0,0-3.44,4.55c-1.36,2-2.73,4-4.25,5.92l.89-.11c-2.49-1.65-4.76-3.61-7.2-5.32-2.63-1.86-5.52-3.71-8.69-4.44a8.7,8.7,0,0,0-4.15,0,3.24,3.24,0,0,0-2.4,2.47,27.46,27.46,0,0,0-.46,3.95c-.14,1.14-.4,2.18-1.59,2.56-2.08.67-4.29,0-6.41.05-1.66,0-3.16.83-4.79.31a17,17,0,0,0-3.49-1.2,4.18,4.18,0,0,0-3.65,2.19,2.66,2.66,0,0,0,.25,2.65,23.28,23.28,0,0,0,2.13,3,15,15,0,0,1,2,3,4.29,4.29,0,0,1,.22.72.66.66,0,0,1,0,.19s0,.33,0,.22a2.16,2.16,0,0,1-.75,1.11c-1.86,1.73-5.1,1.14-7.31.6a38.94,38.94,0,0,1-8.11-3.12l-1.41-.74c-.64-.36-1.62.42-1.1,1.1A39.57,39.57,0,0,0,362.9,218a33.52,33.52,0,0,0,7,4.52c.79.38,1.49-.8.69-1.19a32.76,32.76,0,0,1-6.6-4.47,39,39,0,0,1-5.51-5.76l-1.1,1.1a46.85,46.85,0,0,0,7.42,3.3c2.71.92,5.79,1.71,8.65,1.09,2.23-.49,4.57-2.4,3.75-4.9s-2.79-4.16-4.1-6.23a3.91,3.91,0,0,1-.56-1.17c-.05-.18,0,0,0-.11s0-.09,0-.08c0-.18,0,.05,0-.07a3.05,3.05,0,0,1,.45-.57,2.34,2.34,0,0,1,1.4-.9,3.38,3.38,0,0,1,1.53.33,9.48,9.48,0,0,0,3.77,1.06c.92,0,1.76-.41,2.67-.5a17.34,17.34,0,0,1,3.22.09c1.79.14,4.08.31,5.59-.86a4.78,4.78,0,0,0,1.44-3.36,22.34,22.34,0,0,1,.44-3.73c.35-1.16,1.3-1.42,2.43-1.48,3.05-.16,6,1.52,8.5,3.1,2.71,1.71,5.21,3.74,7.78,5.64.5.36,1,.72,1.51,1.06a.73.73,0,0,0,.89-.12c1.37-1.71,2.63-3.49,3.86-5.3,1-1.43,1.9-2.89,3-4.23a9.28,9.28,0,0,1,3-2.63,5.59,5.59,0,0,1,3.76-.32,16.39,16.39,0,0,1,5.19,2.33c1,.82,1.08,2,1.36,3.17a6,6,0,0,0,4.91,4.16,6.2,6.2,0,0,0,1.66-.27,42.77,42.77,0,0,0,5-1.78,18,18,0,0,1,3.85-1.35l-.8-1c-1.32,2.62-.81,5.64-1.88,8.32-.18.45.28.86.69.89,3.84.26,7.38-1.46,10.73-3.12s6.72-3.44,10.41-2.85l-.48-.85c-.65,1.69-1.26,3.76-.63,5.55a4,4,0,0,0,2.95,2.51,10.83,10.83,0,0,0,4.67-.14A23,23,0,0,0,480.6,205a15.62,15.62,0,0,0,4.42-3c.37-.39,0-1.17-.56-1-7.55,2.8-14.83,6.27-22.35,9.16-2,.78-4.09,1.48-6.15,2.17l.38.49a7.13,7.13,0,0,1,1.93-2.23c.17-.14-.06-.43-.24-.31Z" transform="translate(-0.24 -0.22)"/><path class="cls-3" d="M235.65,232.43c2.15-5.68,6.33-9.72,9.29-15.08-6.57,4-13.18,9.65-20.15,12.37-1.06-6.69-.19-28.88-13.62-10-.69-2.11-3-4.24-3.66-5.85-4.24,3.22-3.38,9.71-1.92,15-3.54-5.35-6.23-11.44-11.64-15-5.52,4-2.76,11-5.21,16-4.17-2.29-7.64-5.56-11.86-6.72-1.85,5.08,1.48,9,2.1,14.28-5.91-.09-12-3.3-17.38-5a31,31,0,0,0,6.32,10.69c-4.3,1.64-9,.94-13.57-.41,7-.72,13.45,3.95,19.75,6.42" transform="translate(-0.24 -0.22)"/><path class="cls-4" d="M236,232.53c2.23-5.48,6.49-9.79,9.36-14.92a.52.52,0,0,0-.71-.71C238,221,232,226.28,224.63,229.15l.73.41c-.59-3.87-.53-8-1.34-11.88a10.5,10.5,0,0,0-2-4.93,3.45,3.45,0,0,0-4.21-.71,11,11,0,0,0-3.15,2.36,38,38,0,0,0-4.07,5l1.3.17a12.1,12.1,0,0,0-1.81-3.13,12.58,12.58,0,0,1-1.84-2.73.74.74,0,0,0-1.21-.31c-4.73,3.66-3.48,10.73-2.12,15.72l1.35-.57c-3.55-5.38-6.34-11.57-11.9-15.23a.72.72,0,0,0-.76,0,9.17,9.17,0,0,0-3,3.61,14.5,14.5,0,0,0-1.07,4.2c-.35,2.8-.15,5.85-1.41,8.45l1-.27c-4-2.24-7.54-5.53-12-6.81a.78.78,0,0,0-.94.53,11.73,11.73,0,0,0,0,7.2c.7,2.43,1.72,4.77,2,7.29l.77-.77c-6-.13-11.53-3.17-17.18-4.94a.78.78,0,0,0-1,.95,31.1,31.1,0,0,0,6.52,11l.34-1.3c-4.3,1.6-8.88.85-13.16-.41l-.2,1.53c7.08-.67,13.26,3.86,19.56,6.34.88.35,1.26-1.07.39-1.41-6.47-2.55-12.65-7.18-20-6.49a.78.78,0,0,0-.21,1.53c4.52,1.33,9.45,2.1,14,.4a.78.78,0,0,0,.35-1.29,29.2,29.2,0,0,1-6.13-10.34l-1,1c5.8,1.82,11.38,4.85,17.59,5a.77.77,0,0,0,.77-.76,41.91,41.91,0,0,0-1.92-7.15,10.7,10.7,0,0,1-.21-6.93l-.94.53c4.35,1.24,7.78,4.49,11.67,6.65a.76.76,0,0,0,1-.27c2.41-5,0-12,4.94-15.73h-.76c5.31,3.49,8,9.54,11.39,14.68a.74.74,0,0,0,1.34-.57c-1.24-4.51-2.57-11,1.72-14.31l-1.2-.32c.87,2.15,2.89,3.65,3.66,5.85a.73.73,0,0,0,1.31.17,40.07,40.07,0,0,1,3.43-4.27,12.08,12.08,0,0,1,2.66-2.28,3.19,3.19,0,0,1,1.89-.57,1.27,1.27,0,0,1,.32.06.6.6,0,0,1,.3.13,2,2,0,0,1,.61.48,9.45,9.45,0,0,1,1.76,4.29,51.22,51.22,0,0,1,.86,6c.18,2,.29,4,.6,5.9a.6.6,0,0,0,.73.41c7.42-2.95,13.53-8.32,20.26-12.49l-.72-.71c-2.88,5.21-7.18,9.56-9.22,15.24-.17.48.57.66.76.2Z" transform="translate(-0.24 -0.22)"/></g></g></svg>