<svg xmlns="http://www.w3.org/2000/svg" viewBox="0 0 112.76 69.16"><defs><style>.cls-1{fill:#1dcaf0;}.cls-2{fill:#4fe0ff;}.cls-3{fill:#1579a0;stroke:#05668b;}.cls-3,.cls-4{stroke-miterlimit:10;stroke-width:0.91px;}.cls-4{fill:#1788b3;stroke:#06749e;}.cls-5{fill:#8eb7c1;}.cls-6{fill:#659ca6;}.cls-7{fill:#303c49;}.cls-8{fill:#1e9ac9;}.cls-9{fill:#147599;}.cls-10{fill:#12191f;}.cls-11{fill:#b8c0cc;}.cls-12{fill:#2c333d;}</style></defs><title>lab01-icon-delfin</title><g id="Capa_2" data-name="Capa 2"><g id="Capa_8" data-name="Capa 8"><path class="cls-1" d="M69.81,52.4a.15.15,0,0,1,.09.06l.12.08,0,0,.12.09,0,0,.11.08c2.2,1.6,5.62,6.69,6.26,7.51.24.3.93.37,1.42.54.09-.41.42-.91.25-1.23C77.75,58.7,77,57.91,76.47,57a10.37,10.37,0,0,1-1.2-2.52c-.19-.68.15-1.38,1.15-1.58a1.88,1.88,0,0,1,2.28.85c.53,1.28.88,2.6,1.31,3.9a13.45,13.45,0,0,0,.88,2.52c.22.41.92.65,1.4,1,.25-.45.78-.93.7-1.33a14.79,14.79,0,0,0-1.12-3.51c-.91-2-2.05-3.84-3-5.8a7,7,0,0,1-.64-2.64,2.2,2.2,0,0,1,2-2.15A2.47,2.47,0,0,1,83,47.19a58.57,58.57,0,0,1,1.55,5.92c.39,1.69.65,3.4,1,5.09A3.3,3.3,0,0,0,86,59l.41.07a5.22,5.22,0,0,0,.69-1.56c.15-2.19.08-4.39.32-6.57a38.17,38.17,0,0,1,1.06-4.63,15.94,15.94,0,0,1,2.82-1.92c2.17-.93,4.3.29,4.11,2.28a11,11,0,0,1-.55,2l-.22.25-.21.21A13.08,13.08,0,0,0,89.73,56a6.19,6.19,0,0,0-.18,1.6c0,1,.49,1.26,1.55.71a14.17,14.17,0,0,0,2.28-1.43c2.15-1.71,4.17-3.53,6.39-5.17a12.46,12.46,0,0,1,3.78-1.86,4.56,4.56,0,0,1,2.73.33c1.93.87,2.11,2.57.28,3.52a41.67,41.67,0,0,1-6.16,2.47c-2.24.74-4.46,1.46-6,3a10.37,10.37,0,0,0-1.74,2.42,1.1,1.1,0,0,0,.4,1.13,1.8,1.8,0,0,0,1.33-.16,37.13,37.13,0,0,0,3.1-2.07,17.91,17.91,0,0,1,8-3.43l1.39.37c1.54.39,2.2,1.42,1.68,2.66a9.58,9.58,0,0,1-.59,1.09A33.25,33.25,0,0,1,104,62.27a18.45,18.45,0,0,0-11.11,6c-.3.33-1.55-1-2-1-4.57.19-6.24-.28-10.81-.16-1.34,0-5.34.44-6.19-.47-1.88-2-3.08-2.62-5.21-4.48a13.83,13.83,0,0,0-8.43-3,28.11,28.11,0,0,1-4.1-.83,1.52,1.52,0,0,0-.2-.47c-1.64-1.8.12-3.32,2.34-3.33.75,0,1.49,0,2.24,0a24,24,0,0,1,9.75,5.71c1,.9,1.94,1.87,3,2.72.39.31,2.14-.44,2-.87-.29-.93.1-2.61-5.06-5.73-1.07-.65-2.23-1.12-3.35-1.68-.33-.36-.69-.71-1-1.08a1.11,1.11,0,0,1,0-1.64,1.9,1.9,0,0,1,2-.35C68.57,51.88,69.18,52.16,69.81,52.4Z"/><path class="cls-2" d="M104.88,51.4a1.71,1.71,0,0,1,.76,2.34,2.9,2.9,0,0,1-.49.66c.48-.21.95-.44,1.41-.68,1.83-.95,1.65-2.65-.28-3.52a4.56,4.56,0,0,0-2.73-.33,13.28,13.28,0,0,0-2.49,1.05A5.25,5.25,0,0,1,104.88,51.4Z"/><path class="cls-2" d="M69.81,52.4c-.63-.24-1.24-.52-1.9-.71a1.9,1.9,0,0,0-2,.35,1.11,1.11,0,0,0,0,1.64c.3.37.66.72,1,1.08a6.09,6.09,0,0,1-3.36-2,.94.94,0,0,1,.26-1.44A3.06,3.06,0,0,1,66,50.63,6,6,0,0,1,69.81,52.4Z"/><path class="cls-2" d="M69.19,64.86c-2.37.56-4.71,1.24-7.13,1.65a2.23,2.23,0,0,1-2.62-1.31c-.2-1,.68-1.52,1.59-2A6.33,6.33,0,0,1,65.52,63c1.27.33,2.47.87,3.7,1.31Z"/><path class="cls-2" d="M96.18,50.76c3.5-4.32,5.09-6.74,8.09-6.66a1.77,1.77,0,0,1,1.87,1.11,1.68,1.68,0,0,1-1.09,2.16c-.8.37-1.71-.3-4.12.08S97.57,49.45,96.18,50.76Z"/><path class="cls-2" d="M94.82,48.63a11,11,0,0,0,.55-2c.19-2-1.94-3.21-4.11-2.28a15.94,15.94,0,0,0-2.82,1.92A5.7,5.7,0,0,1,93,42.42c1.79-.39,3.22.29,3.57,1.74A4.13,4.13,0,0,1,94.82,48.63Z"/><path class="cls-2" d="M60.52,54.61c-.75,0-1.49,0-2.24,0-2.22,0-4,1.53-2.34,3.33a1.52,1.52,0,0,1,.2.47,4.9,4.9,0,0,1-3.5-1.72c-.75-.86-.26-1.77,1.2-2.2A10.2,10.2,0,0,1,60.52,54.61Z"/><path class="cls-2" d="M107.93,61.2a9.58,9.58,0,0,0,.59-1.09c.52-1.24-.14-2.27-1.68-2.66l-1.39-.37a7.74,7.74,0,0,1,5.51.25,1.16,1.16,0,0,1,.51,2A5.66,5.66,0,0,1,107.93,61.2Z"/><path class="cls-2" d="M77.3,50.9a21.88,21.88,0,0,1-4.11-1.79c-1-.61-1.5-1.16-1.29-1.79a1.23,1.23,0,0,1,.95-.9,2,2,0,0,1,2.38.61A19,19,0,0,1,77.3,50.9Z"/><path class="cls-2" d="M70,52.54l-.12-.08Z"/><path class="cls-2" d="M70.17,52.66l-.12-.09Z"/><path class="cls-2" d="M70.31,52.77l-.11-.08Z"/><path class="cls-2" d="M94.39,49.09l.21-.21Z"/><path class="cls-3" d="M75.63,14.79c-3.24-2.19-12.67-6.26-18-3.26,2.75,4.33,6.37,8.6,9.48,12.88,2.63-4.07,3.81-5.52,9.19-6C77.49,18.3,80,17.74,75.63,14.79Z"/><path class="cls-4" d="M53.86,7.32C42,.31,30.68-.13,19.74.84c-5.78.51-6.82,2-8.48,3.47s-4.44,5.1-4.33,8.92a9.28,9.28,0,0,1-.69.93C4.58,16.11.76,16.45.46,19.45s13.46-.71,14.59-.52c3.31.55,4.77,1.63,7.35,2.55a5.71,5.71,0,0,1,1,.49c2.58,1.3,5,2.64,7.77,3.91.24.11.67.29,1.16.55,4.56,2.36,8.92,4.22,13.54,7A89.22,89.22,0,0,1,65,48.61a19.28,19.28,0,0,1,1.83,2.45,42.38,42.38,0,0,0,4.24,4.83,55.14,55.14,0,0,0,7.72,6.91c.38.27.62.61.95.85.06,0,0-.18.06-.17a31.52,31.52,0,0,0,3.08,1.75c2.35,1.06,4.74,1.21,7.23,1.69.06-.23.22-.26.21-.54s.16-.4-.14-.69c-7.67-7.34-13.4-8.24-15-20.88C73.47,31.32,65.69,14.32,53.86,7.32Z"/><path class="cls-3" d="M86.63,64.3c-.07,0-.15-.14-.09-.1.42.26,2.31,1.25,2.67.52,2.74-5.6,8.1-8.94,12.7-12.93-.19,3.79-1.27,7.36-2,11.06,4.23-1.72,12.54-4.5,12.38-4.36-2.3,2-4.74,4.28-7.5,5.46C97.94,66.91,93.59,66.13,86.63,64.3Z"/><path class="cls-4" d="M40,45.6c3.23-6.49,3.49-15.19-.61-20.82S32.12,22.11,33,27.9,38,40,40,45.6Z"/><path class="cls-5" d="M23.1,13.18c-2.6,3.77-5.7,4.71-10,5.9-2.16.23-4.26.56-6.4.83l-.46.1-.31,0c-.85.19-1.72.32-2.58.43v.09c4.51,2.52,5.48,1.38,11.19,2C39.92,25.45,58.11,43.71,76,60.6,66.65,36.78,45.3,19.78,23.1,13.18Z"/><path class="cls-5" d="M23.44,13s.51-.12.71.25a11.54,11.54,0,0,1,.47,1.89s-3,1.14-3.46,1.36a90,90,0,0,1-9,3.54c-1.34.23-7.22.21-7.22.21s9.56-1.08,14.6-4.36S23.44,13,23.44,13Z"/><path class="cls-6" d="M75.36,58.47c-18.58-15.24-36-33.15-60.82-36.25a17.73,17.73,0,0,0-1.78-.12C8,22,5.77,21.9,4,20.4l-.65.09v.1C7.76,23.31,8.72,22.33,14.44,23,39.83,25.89,57.59,44.3,76,60.6A4.94,4.94,0,0,0,75.36,58.47Z"/><path class="cls-4" d="M46.59,19.48c-2.55.18-3.2,1.15-2.89,4.59.6,6.59,6,14.79,8.36,21.55,2-2.7,2.35-6,2.75-9.3s-1-9.35-2.36-11.52C50.73,22.07,49.14,19.3,46.59,19.48Z"/><path class="cls-7" d="M24,12.89l-.76-.25c-5.75,5.52-12.39,6.73-20.08,7.71,0,.09,0,.18,0,.27C11.1,19.61,18,18.35,24,12.89Z"/><path class="cls-8" d="M7,15.11A32.8,32.8,0,0,0,.85,18.67,20,20,0,0,1,6.7,14.6,1.47,1.47,0,0,0,7,15.11Z"/><path class="cls-8" d="M75.52,44c-2-13.5-9.67-31.16-22.4-37.44C41.67,1,31.73.6,21.29,1.07c-.24.06-1.5.25-1.69.33C29.88.19,41,4.49,51.76,7.14c11.9,2.92,19.72,24.79,21.45,32.45,3.32,14.71,3.84,14.78,12.84,23,0,0,0,0,0-.06C79.76,56,77.07,54.46,75.52,44Z"/><path class="cls-9" d="M18,11.3c.95-.26,2.07-.26,2.47.79S20,13.76,19,14s-2.09.29-2.48-.77S17.05,11.56,18,11.3Z"/><path class="cls-10" d="M18.29,11.7c.45-.07,1,0,1.11.51s-.29.75-.74.83-1,0-1.11-.51S17.84,11.78,18.29,11.7Z"/><path class="cls-11" d="M18.07,11.89c.12,0,.27,0,.31.14s-.08.22-.21.24-.28,0-.31-.15S17.94,11.91,18.07,11.89Z"/><path class="cls-9" d="M13.57,5.93c1.15,1.72,9.18.4,8.4-1.53S11.77,3.23,13.57,5.93Z"/><path class="cls-8" d="M36.37,3.43c-.77,2.1,13.5,7.67,8.23,2.78C42.75,4.49,37.15,1.32,36.37,3.43Z"/><path class="cls-9" d="M25.52,5.84c.42.47,2.5.72,2.23.11C27.35,5,24.07,4.19,25.52,5.84Z"/><path class="cls-8" d="M2.85,18.3c-.75-.21-2.67.75-1.22,1.26C3.76,20.3,6.68,19.35,2.85,18.3Z"/><path class="cls-12" d="M25,14.5s.11,0,.15.06c-.81-1.4-1.5-2.34-3.08-1.35C23.54,12.71,24.19,13.34,25,14.5Z"/><path class="cls-1" d="M100.32,62.22c-2.89-.2-5.62-.1-8.53-.06a5.9,5.9,0,0,0,.87.61A7.61,7.61,0,0,1,95.16,64c.36.35.09.79-.42.85-1.25.14-2.48.16-3.72.39a17.65,17.65,0,0,1-3.41.3A49.12,49.12,0,0,1,80.53,65c-2.45-.35-4.88-.79-7.34-1-1.14-.12-2.27-.15-3.42-.17s1.18.59.25.24a.46.46,0,0,1-.22-.68A4.44,4.44,0,0,1,71.74,62c-.94.07-1.87.13-2.81.14a104.79,104.79,0,0,1-13.5-.7c-4.1-.6-10.49.57-10,3.27.41,2.53,8.49,2.36,10.14,2.36,8.1,0,16.26.26,24.33,1,7.86.72,16.05,1.68,23.91.52,1.12-.17,8.29-.56,8.17-2.93S102,62.34,100.32,62.22Z"/><path class="cls-2" d="M90.73,66.21a3.94,3.94,0,0,0,2.35-3.36c.24-1.28.79-3.71-1.73-3.53-2.28.15-1.25,1.78-1.94,2.92a3.71,3.71,0,0,1-1.61,1.6c-.57.26-1.18.28-1.73.57s-.61.59-1.34.32-1.32-1.35-1.68-2c-.49-.83-.83-2.79-2.37-2.71-1.34.08-.69,1.12-.4,1.77.41.9-.75,1.43-1.91,1.36-1-.06-2.27-1.82-2.83-.06-.23.74.37,1,1.16,1.24a55.13,55.13,0,0,0,5.7,1"/><path class="cls-1" d="M73.37,63.09,73.28,63c-1.07-.85-2-1.82-3-2.72a24,24,0,0,0-9.75-5.71c-.75,0-1.49,0-2.24,0-2.22,0-4,1.53-2.34,3.33a1.52,1.52,0,0,1,.2.47,28.11,28.11,0,0,0,4.1.83,13.83,13.83,0,0,1,8.43,3C69.8,63.19,73.41,63.29,73.37,63.09Z"/><path class="cls-1" d="M106.84,57.45l-1.39-.37a17.91,17.91,0,0,0-8,3.43c-.77.57-1.58,1.1-2.4,1.62l.18.09c1,.46,2.49,1.24,2.63,2.39A16.44,16.44,0,0,1,104,62.27a33.25,33.25,0,0,0,3.91-1.07,9.58,9.58,0,0,0,.59-1.09C109,58.87,108.38,57.84,106.84,57.45Z"/><path class="cls-1" d="M45.28,64.63c-.77.47-3.49.57-3.84-.2-.43-1,.48-1.62,1.44-2.21a8.38,8.38,0,0,1,5.11-1c1.45.12,4,.24,5.51.46a.07.07,0,0,1,0,.14c-.93.33-5.29,1.09-6,1.51A11.25,11.25,0,0,0,45.28,64.63Z"/><path class="cls-2" d="M107.93,61.2a9.58,9.58,0,0,0,.59-1.09c.52-1.24-.14-2.27-1.68-2.66l-1.39-.37a7.74,7.74,0,0,1,5.51.25,1.16,1.16,0,0,1,.51,2A5.66,5.66,0,0,1,107.93,61.2Z"/><path class="cls-2" d="M96.34,63.43a3.23,3.23,0,0,1,1,.83c.31.35.46.54,0,.6-1.06.14-2.11.16-3.15.39a12.78,12.78,0,0,1-2.89.3,35.56,35.56,0,0,1-6-.59c-2.07-.35-4.12-.79-6.21-1a28,28,0,0,0-2.89-.17,6.07,6.07,0,0,1-2.46-.45.49.49,0,0,1-.22-.57c-3.25,0-7.62,0-8.48.59-1.25.85,5.22,1.5,6.1,1.5l13.21,1.25c4.21.36,8.59.84,12.79.26.6-.08,4.43-.28,4.37-1.46C101.5,64,98.59,63.58,96.34,63.43Z"/></g></g></svg>