<svg xmlns="http://www.w3.org/2000/svg" viewBox="0 0 501.36 83.13"><defs><style>.cls-1{isolation:isolate;}.cls-2{opacity:0.27;}.cls-3{fill:#002451;}.cls-4{fill:#fff2cc;}.cls-5{fill:none;}.cls-6{fill:#29abe2;}.cls-7{opacity:0.2;mix-blend-mode:multiply;}.cls-8{fill:#fff;}.cls-9{fill:#4d4d4d;}</style></defs><title>lab03-bxB3</title><g class="cls-1"><g id="Layer_2" data-name="Layer 2"><g id="Layer_1-2" data-name="Layer 1"><g class="cls-2"><rect class="cls-3" x="2.96" y="2.84" width="498.39" height="80.29" rx="11.44" ry="11.44"/></g><rect class="cls-4" width="498.39" height="80.29" rx="11.44" ry="11.44"/><path class="cls-5" d="M471.49,78.36v-15A8.38,8.38,0,0,1,480,55.14h15.68a8.68,8.68,0,0,1,2.67.42V11.2A11.45,11.45,0,0,0,486.7,0h-475A11.45,11.45,0,0,0,0,11.2V69.09a11.45,11.45,0,0,0,11.69,11.2H471.74A7.74,7.74,0,0,1,471.49,78.36Z"/><path class="cls-6" d="M487.18,55.14c-8.66,0-15.69,6.73-15.69,15v8.18a7.74,7.74,0,0,0,.25,1.93h15a11.45,11.45,0,0,0,11.69-11.2V55.56a8.68,8.68,0,0,0-2.67-.42Z"/><g class="cls-7"><rect x="485.25" y="63.6" width="1.36" height="10.24"/><polygon points="485.89 59.72 483.14 64.28 488.65 64.28 485.89 59.72"/><polygon points="485.93 77.65 488.68 73.08 483.18 73.08 485.93 77.65"/><rect x="480.58" y="68.07" width="10.69" height="1.3"/><polygon points="476.55 68.7 481.32 71.33 481.32 66.06 476.55 68.7"/><polygon points="495.27 68.67 490.5 66.03 490.5 71.3 495.27 68.67"/></g><rect class="cls-8" x="484.28" y="62.63" width="1.36" height="10.24"/><polygon class="cls-8" points="484.93 58.75 482.18 63.32 487.68 63.32 484.93 58.75"/><polygon class="cls-8" points="484.96 76.68 487.71 72.11 482.21 72.11 484.96 76.68"/><rect class="cls-8" x="479.62" y="67.1" width="10.69" height="1.3"/><polygon class="cls-8" points="475.58 67.73 480.35 70.37 480.35 65.09 475.58 67.73"/><polygon class="cls-8" points="494.3 67.7 489.54 65.06 489.54 70.34 494.3 67.7"/><path class="cls-9" d="M16.13,11.78h6.61a.51.51,0,0,1,.37.15.51.51,0,0,1,.17.39.5.5,0,0,1-.17.38.55.55,0,0,1-.37.14H16.55l.18-.31v5.06l-.2-.23h5.4a.52.52,0,0,1,.38.16.55.55,0,0,1,.16.38.53.53,0,0,1-.16.38.59.59,0,0,1-.38.14H16.56l.17-.18v5.18l-.09-.1h6.1a.49.49,0,0,1,.37.16.52.52,0,0,1,.17.38.47.47,0,0,1-.17.37.51.51,0,0,1-.37.15H16.13a.55.55,0,0,1-.54-.54V12.32a.55.55,0,0,1,.16-.38A.52.52,0,0,1,16.13,11.78Z"/><path class="cls-9" d="M29.54,15a3.36,3.36,0,0,1,1.9.48,2.69,2.69,0,0,1,1,1.3,5,5,0,0,1,.32,1.81v5.29a.53.53,0,0,1-.17.38.52.52,0,0,1-.37.16.51.51,0,0,1-.54-.54V18.6a3.43,3.43,0,0,0-.24-1.31,2,2,0,0,0-.76-1A2.46,2.46,0,0,0,29.3,16a3.26,3.26,0,0,0-2.59,1.32,2.14,2.14,0,0,0-.43,1.31v5.24a.52.52,0,0,1-.16.38.57.57,0,0,1-.38.16.54.54,0,0,1-.4-.16.59.59,0,0,1-.14-.38V15.77a.51.51,0,0,1,.15-.37.51.51,0,0,1,.39-.17.52.52,0,0,1,.39.17.51.51,0,0,1,.15.37v1.52l-.42.64a2.4,2.4,0,0,1,.37-1.1,3.9,3.9,0,0,1,.86-1,4.15,4.15,0,0,1,1.16-.66A3.48,3.48,0,0,1,29.54,15Z"/><path class="cls-9" d="M41.7,23.84a.52.52,0,0,1-.16.38.55.55,0,0,1-.38.16.53.53,0,0,1-.38-.16.57.57,0,0,1-.16-.38V11.6a.52.52,0,0,1,.17-.38.49.49,0,0,1,.37-.16.5.5,0,0,1,.39.16.54.54,0,0,1,.15.38Z"/><path class="cls-9" d="M52,15.18a.5.5,0,0,1,.39.16.57.57,0,0,1,.15.4v8.1a.52.52,0,0,1-.16.38.55.55,0,0,1-.38.16.52.52,0,0,1-.39-.16.55.55,0,0,1-.15-.38V21.7l.31-.15a2.13,2.13,0,0,1-.28,1,3.82,3.82,0,0,1-.76,1,4.1,4.1,0,0,1-1.15.73,3.68,3.68,0,0,1-1.43.28A3.91,3.91,0,0,1,46,23.93a4.39,4.39,0,0,1-1.51-1.73,5.5,5.5,0,0,1-.55-2.47,5.29,5.29,0,0,1,.56-2.47A4.25,4.25,0,0,1,46,15.58,3.89,3.89,0,0,1,48.11,15a3.84,3.84,0,0,1,1.44.27,3.75,3.75,0,0,1,1.18.74A3.42,3.42,0,0,1,51.52,17a2.76,2.76,0,0,1,.29,1.25L51.43,18V15.74a.57.57,0,0,1,.15-.4A.48.48,0,0,1,52,15.18Zm-3.74,8.37a3,3,0,0,0,1.69-.5,3.37,3.37,0,0,0,1.16-1.36,4.34,4.34,0,0,0,.43-2,4.09,4.09,0,0,0-.43-1.9,3.4,3.4,0,0,0-1.16-1.35A2.88,2.88,0,0,0,48.23,16a3,3,0,0,0-1.68.49,3.29,3.29,0,0,0-1.17,1.33A4.3,4.3,0,0,0,45,19.73a4.47,4.47,0,0,0,.42,2,3.22,3.22,0,0,0,1.16,1.36A3,3,0,0,0,48.23,23.55Z"/><path class="cls-9" d="M65,14.57a4.08,4.08,0,0,1,2.26.64A4.54,4.54,0,0,1,68.83,17a5.53,5.53,0,0,1,.59,2.59,5.54,5.54,0,0,1-.59,2.6,4.64,4.64,0,0,1-1.56,1.77,4,4,0,0,1-2.21.64,3.76,3.76,0,0,1-1.35-.24,4.19,4.19,0,0,1-1.11-.59,3.35,3.35,0,0,1-.73-.73,1.11,1.11,0,0,1-.26-.62l.55-.23v1.31a1.09,1.09,0,0,1-.3.78,1.06,1.06,0,0,1-.78.32,1,1,0,0,1-.77-.31,1,1,0,0,1-.31-.79V12.16a1.06,1.06,0,0,1,.31-.79,1,1,0,0,1,.77-.31,1.06,1.06,0,0,1,.78.31,1.09,1.09,0,0,1,.3.79v4.57l-.3-.16a1,1,0,0,1,.25-.57,3.61,3.61,0,0,1,.68-.67,4.16,4.16,0,0,1,1-.55A3.44,3.44,0,0,1,65,14.57Zm-.27,2a2.49,2.49,0,0,0-1.39.39A2.74,2.74,0,0,0,62.41,18a3.66,3.66,0,0,0,0,3.08,2.67,2.67,0,0,0,.92,1.09,2.41,2.41,0,0,0,1.39.4,2.36,2.36,0,0,0,1.38-.4A2.72,2.72,0,0,0,67,21.09,3.66,3.66,0,0,0,67,18a2.8,2.8,0,0,0-.91-1.07A2.43,2.43,0,0,0,64.72,16.55Z"/><path class="cls-9" d="M80.47,19.57a5,5,0,0,1-.66,2.6,4.72,4.72,0,0,1-1.76,1.76,5.18,5.18,0,0,1-5,0,4.74,4.74,0,0,1-1.77-1.76,5.12,5.12,0,0,1-.65-2.6,5.15,5.15,0,0,1,.65-2.6,4.74,4.74,0,0,1,1.77-1.76,5.11,5.11,0,0,1,5,0A4.72,4.72,0,0,1,79.81,17,5.05,5.05,0,0,1,80.47,19.57Zm-2.16,0A3.22,3.22,0,0,0,77.94,18a2.78,2.78,0,0,0-1-1.05,2.68,2.68,0,0,0-2.75,0,2.64,2.64,0,0,0-1,1.05,3.58,3.58,0,0,0,0,3.17,2.64,2.64,0,0,0,1,1.05,2.68,2.68,0,0,0,2.75,0,2.78,2.78,0,0,0,1-1.05A3.21,3.21,0,0,0,78.31,19.57Z"/><path class="cls-9" d="M86.43,14.57a6.82,6.82,0,0,1,1.79.21,3,3,0,0,1,1.19.61,1.21,1.21,0,0,1,.42.92,1.15,1.15,0,0,1-.22.68.7.7,0,0,1-.63.31,1.07,1.07,0,0,1-.47-.08,1.27,1.27,0,0,1-.34-.2,1.47,1.47,0,0,0-.34-.24,1.62,1.62,0,0,0-.55-.17,3.71,3.71,0,0,0-.55-.06,2.9,2.9,0,0,0-1.55.39,2.59,2.59,0,0,0-1,1.07,3.38,3.38,0,0,0-.35,1.56,3.33,3.33,0,0,0,.35,1.54,2.74,2.74,0,0,0,1,1.07,2.54,2.54,0,0,0,1.43.4,4.22,4.22,0,0,0,.77-.06,1.73,1.73,0,0,0,.54-.16,3.2,3.2,0,0,0,.45-.3.91.91,0,0,1,.6-.17.89.89,0,0,1,.72.3,1.13,1.13,0,0,1,.25.73,1,1,0,0,1-.51.82,4.06,4.06,0,0,1-1.32.59,6.7,6.7,0,0,1-1.77.23,4.54,4.54,0,0,1-2.47-.66,4.43,4.43,0,0,1-1.61-1.79,5.58,5.58,0,0,1-.57-2.54A5.45,5.45,0,0,1,82.3,17,4.43,4.43,0,0,1,84,15.21,4.68,4.68,0,0,1,86.43,14.57Z"/><path class="cls-9" d="M99.14,14.57a1.09,1.09,0,0,1,.78.3,1.1,1.1,0,0,1,.3.8v7.61a1.09,1.09,0,0,1-.3.78,1.06,1.06,0,0,1-.78.32,1,1,0,0,1-.77-.32,1.06,1.06,0,0,1-.31-.78V22.4l.4.16a1.09,1.09,0,0,1-.25.57,3.35,3.35,0,0,1-.69.65,4.12,4.12,0,0,1-1,.55,3.5,3.5,0,0,1-1.27.23A4.21,4.21,0,0,1,93,23.92a4.55,4.55,0,0,1-1.59-1.77,5.51,5.51,0,0,1-.58-2.58,5.56,5.56,0,0,1,.58-2.6A4.5,4.5,0,0,1,93,15.21a3.92,3.92,0,0,1,2.19-.64,4.11,4.11,0,0,1,2.55.83,3.64,3.64,0,0,1,.74.72,1.22,1.22,0,0,1,.26.63l-.65.23V15.67a1.06,1.06,0,0,1,.31-.79A1,1,0,0,1,99.14,14.57Zm-3.63,8a2.38,2.38,0,0,0,1.38-.4,2.59,2.59,0,0,0,.93-1.08,3.44,3.44,0,0,0,.33-1.53A3.56,3.56,0,0,0,97.82,18a2.71,2.71,0,0,0-.93-1.08,2.45,2.45,0,0,0-1.38-.39,2.42,2.42,0,0,0-1.37.39A2.71,2.71,0,0,0,93.21,18a3.56,3.56,0,0,0-.33,1.55,3.44,3.44,0,0,0,.33,1.53,2.59,2.59,0,0,0,.93,1.08A2.35,2.35,0,0,0,95.51,22.58Z"/><path class="cls-9" d="M103.87,24.32a2.17,2.17,0,0,1-.15.79,3,3,0,0,1-.41.71,2.87,2.87,0,0,1-.55.51,1,1,0,0,1-.58.19.51.51,0,0,1-.32-.1.33.33,0,0,1-.14-.3c0-.19.06-.3.2-.33a2.08,2.08,0,0,0,.44-.15,1,1,0,0,0,.39-.39,1,1,0,0,0,.14-.51.52.52,0,0,0-.11-.33.38.38,0,0,0-.29-.12,1,1,0,0,0-.25,0,.88.88,0,0,0-.24.11,1.08,1.08,0,0,1-.16-.2.34.34,0,0,1,0-.27.63.63,0,0,1,.17-.38.91.91,0,0,1,.39-.27,1.15,1.15,0,0,1,1.23.19A1.11,1.11,0,0,1,103.87,24.32Z"/><path class="cls-9" d="M112.08,23.84a.52.52,0,0,1-.16.38.55.55,0,0,1-.38.16.53.53,0,0,1-.38-.16.52.52,0,0,1-.16-.38V11.6a.52.52,0,0,1,.17-.38.49.49,0,0,1,.37-.16.5.5,0,0,1,.39.16.54.54,0,0,1,.15.38Z"/><path class="cls-9" d="M123.38,19.77a5,5,0,0,1-.6,2.46,4.7,4.7,0,0,1-1.63,1.71,4.65,4.65,0,0,1-4.64,0,4.64,4.64,0,0,1-1.64-1.71,5.36,5.36,0,0,1,0-4.93,4.64,4.64,0,0,1,1.64-1.71,4.59,4.59,0,0,1,4.64,0,4.7,4.7,0,0,1,1.63,1.71A5,5,0,0,1,123.38,19.77Zm-1.08,0a4.12,4.12,0,0,0-.45-1.95,3.49,3.49,0,0,0-1.23-1.35,3.3,3.3,0,0,0-1.79-.5,3.27,3.27,0,0,0-1.78.5,3.59,3.59,0,0,0-1.24,1.35,4,4,0,0,0-.46,1.95,4,4,0,0,0,.46,1.94,3.56,3.56,0,0,0,1.24,1.34,3.27,3.27,0,0,0,1.78.5,3.3,3.3,0,0,0,1.79-.5,3.46,3.46,0,0,0,1.23-1.34A4.05,4.05,0,0,0,122.3,19.77Z"/><path class="cls-9" d="M124.83,22.92a.73.73,0,0,1-.14-.42.44.44,0,0,1,.23-.34.41.41,0,0,1,.33-.1.52.52,0,0,1,.35.18,3.94,3.94,0,0,0,1.18,1,3.3,3.3,0,0,0,1.65.39,3.14,3.14,0,0,0,1-.17,2,2,0,0,0,.82-.52,1.3,1.3,0,0,0,.32-.89,1.25,1.25,0,0,0-.32-.9,2.26,2.26,0,0,0-.84-.54,8.19,8.19,0,0,0-1.09-.35,11.74,11.74,0,0,1-1.19-.37,3.85,3.85,0,0,1-1-.52,2.45,2.45,0,0,1-.71-.76,2.11,2.11,0,0,1-.27-1.1,2.19,2.19,0,0,1,.41-1.33,2.67,2.67,0,0,1,1.13-.9,3.77,3.77,0,0,1,1.61-.33,4.35,4.35,0,0,1,1,.12,4,4,0,0,1,1,.39,2.88,2.88,0,0,1,.9.74.49.49,0,0,1,.17.36.47.47,0,0,1-.18.37.51.51,0,0,1-.34.11.41.41,0,0,1-.31-.14,2.8,2.8,0,0,0-1-.74,3.18,3.18,0,0,0-1.28-.25,2.7,2.7,0,0,0-1,.17,1.83,1.83,0,0,0-.76.51,1.28,1.28,0,0,0-.31.9,1.31,1.31,0,0,0,.37.85,2.87,2.87,0,0,0,.88.54,12.21,12.21,0,0,0,1.24.39,9.42,9.42,0,0,1,1.1.35,3.63,3.63,0,0,1,.94.49,2.24,2.24,0,0,1,.65.75,2.39,2.39,0,0,1,.24,1.13,2.2,2.2,0,0,1-.44,1.37,2.78,2.78,0,0,1-1.18.88,4.13,4.13,0,0,1-1.64.31,4.89,4.89,0,0,1-1.88-.38A4.06,4.06,0,0,1,124.83,22.92Z"/><path class="cls-9" d="M146.25,11.06a1,1,0,0,1,.77.3,1.07,1.07,0,0,1,.31.8V23.28a1.06,1.06,0,0,1-.31.78,1.09,1.09,0,0,1-1.54,0,1.06,1.06,0,0,1-.31-.78V22.4l.4.16a1,1,0,0,1-.26.57,3,3,0,0,1-.68.65,4.12,4.12,0,0,1-1,.55,3.5,3.5,0,0,1-1.27.23,4.21,4.21,0,0,1-2.25-.64,4.55,4.55,0,0,1-1.59-1.77,5.51,5.51,0,0,1-.58-2.58,5.56,5.56,0,0,1,.58-2.6,4.5,4.5,0,0,1,1.58-1.76,3.92,3.92,0,0,1,2.19-.64,4.27,4.27,0,0,1,1.42.23,4.32,4.32,0,0,1,1.13.6,3.64,3.64,0,0,1,.74.72,1.22,1.22,0,0,1,.26.63l-.65.23V12.16a1.06,1.06,0,0,1,.31-.79A1,1,0,0,1,146.25,11.06Zm-3.64,11.52a2.39,2.39,0,0,0,1.39-.4,2.59,2.59,0,0,0,.93-1.08,3.44,3.44,0,0,0,.33-1.53,3.56,3.56,0,0,0-.33-1.55,2.71,2.71,0,0,0-.93-1.08,2.46,2.46,0,0,0-1.39-.39,2.41,2.41,0,0,0-1.36.39,2.71,2.71,0,0,0-.93,1.08,3.56,3.56,0,0,0-.33,1.55,3.44,3.44,0,0,0,.33,1.53,2.59,2.59,0,0,0,.93,1.08A2.34,2.34,0,0,0,142.61,22.58Z"/><path class="cls-9" d="M150.6,13.58a1.41,1.41,0,0,1-.86-.2.84.84,0,0,1-.26-.7v-.34a.84.84,0,0,1,.28-.72,1.62,1.62,0,0,1,.86-.18,1.49,1.49,0,0,1,.88.19.86.86,0,0,1,.25.71v.34a.81.81,0,0,1-.27.71A1.62,1.62,0,0,1,150.6,13.58Zm1.1,9.7a1.06,1.06,0,0,1-.31.78,1,1,0,0,1-.77.32,1.06,1.06,0,0,1-.78-.32,1.09,1.09,0,0,1-.3-.78V15.85a1.09,1.09,0,0,1,.3-.79,1.06,1.06,0,0,1,.78-.31,1,1,0,0,1,.77.31,1.06,1.06,0,0,1,.31.79Z"/><path class="cls-9" d="M158.34,24.56a5.37,5.37,0,0,1-2.66-.64A4.43,4.43,0,0,1,154,22.18a5,5,0,0,1-.61-2.48,5.49,5.49,0,0,1,.66-2.77,4.66,4.66,0,0,1,1.72-1.75,4.43,4.43,0,0,1,2.25-.61,4,4,0,0,1,1.74.38,4.86,4.86,0,0,1,1.45,1,5,5,0,0,1,1,1.52,4.58,4.58,0,0,1,.37,1.84.9.9,0,0,1-.34.7,1.13,1.13,0,0,1-.75.27h-6.88l-.54-1.8h6.61l-.4.36v-.49a1.69,1.69,0,0,0-.37-.93,2.34,2.34,0,0,0-.83-.66,2.38,2.38,0,0,0-1.05-.24,3.62,3.62,0,0,0-1,.14,2,2,0,0,0-.81.49,2.29,2.29,0,0,0-.54.92,4.57,4.57,0,0,0-.2,1.45,3.15,3.15,0,0,0,.41,1.65,2.74,2.74,0,0,0,2.4,1.38,4.19,4.19,0,0,0,1.06-.11,2.29,2.29,0,0,0,.64-.26l.44-.26a1.35,1.35,0,0,1,.61-.16.87.87,0,0,1,.66.27.85.85,0,0,1,.26.63,1.15,1.15,0,0,1-.5.88,4.3,4.3,0,0,1-1.31.69A5.24,5.24,0,0,1,158.34,24.56Z"/><path class="cls-9" d="M169.36,14.57a3.13,3.13,0,0,1,2,.56,2.79,2.79,0,0,1,1,1.48,7.4,7.4,0,0,1,.26,2.06v4.61a1.09,1.09,0,0,1-.3.78,1.06,1.06,0,0,1-.78.32,1,1,0,0,1-.77-.32,1.06,1.06,0,0,1-.31-.78V18.67a3.59,3.59,0,0,0-.15-1.07,1.46,1.46,0,0,0-.55-.76,1.83,1.83,0,0,0-1.13-.29,2.32,2.32,0,0,0-1.22.29,1.89,1.89,0,0,0-.75.76,2.15,2.15,0,0,0-.27,1.07v4.61a1.09,1.09,0,0,1-.3.78,1,1,0,0,1-.78.32,1,1,0,0,1-.77-.32,1.1,1.1,0,0,1-.31-.78V15.85a1.1,1.1,0,0,1,.31-.79,1,1,0,0,1,.77-.31,1,1,0,0,1,.78.31,1.09,1.09,0,0,1,.3.79v.77l-.27-.05a3.54,3.54,0,0,1,.47-.66,5.09,5.09,0,0,1,.72-.66,3.64,3.64,0,0,1,.94-.49A3.19,3.19,0,0,1,169.36,14.57Z"/><path class="cls-9" d="M174.76,14.93H179a.94.94,0,0,1,.72.29,1,1,0,0,1,.29.72.94.94,0,0,1-.29.69,1,1,0,0,1-.72.28h-4.27a1,1,0,0,1-1-1,.91.91,0,0,1,.29-.69A1,1,0,0,1,174.76,14.93Zm1.93-2.25a1,1,0,0,1,.76.31,1.09,1.09,0,0,1,.3.79v8a.76.76,0,0,0,.1.41.47.47,0,0,0,.27.23.91.91,0,0,0,.37.08.86.86,0,0,0,.39-.09,1.08,1.08,0,0,1,.42-.08.6.6,0,0,1,.46.24.92.92,0,0,1,.2.65.93.93,0,0,1-.55.82,2.2,2.2,0,0,1-1.17.33,5.09,5.09,0,0,1-.84-.07,2.31,2.31,0,0,1-.87-.3,1.9,1.9,0,0,1-.67-.75,2.94,2.94,0,0,1-.27-1.38v-8.1a1.06,1.06,0,0,1,.31-.79A1.08,1.08,0,0,1,176.69,12.68Z"/><path class="cls-9" d="M186,24.56a5.37,5.37,0,0,1-2.66-.64,4.52,4.52,0,0,1-1.73-1.74,5.08,5.08,0,0,1-.6-2.48,5.49,5.49,0,0,1,.66-2.77,4.66,4.66,0,0,1,1.72-1.75,4.37,4.37,0,0,1,2.25-.61,3.94,3.94,0,0,1,1.73.38,4.62,4.62,0,0,1,1.45,1,5,5,0,0,1,1,1.52,4.58,4.58,0,0,1,.37,1.84.93.93,0,0,1-.34.7,1.16,1.16,0,0,1-.76.27h-6.87l-.54-1.8h6.6l-.39.36v-.49a1.69,1.69,0,0,0-.37-.93,2.34,2.34,0,0,0-.83-.66,2.38,2.38,0,0,0-1.05-.24,3.62,3.62,0,0,0-1,.14,2,2,0,0,0-.81.49,2.29,2.29,0,0,0-.54.92,4.57,4.57,0,0,0-.2,1.45,3.15,3.15,0,0,0,.41,1.65,2.78,2.78,0,0,0,1,1,2.84,2.84,0,0,0,1.36.35,4.25,4.25,0,0,0,1.06-.11,2.42,2.42,0,0,0,.64-.26L188,22a1.35,1.35,0,0,1,.61-.16.87.87,0,0,1,.66.27.89.89,0,0,1,.26.63,1.15,1.15,0,0,1-.5.88,4.37,4.37,0,0,1-1.32.69A5.14,5.14,0,0,1,186,24.56Z"/><path class="cls-9" d="M191.29,22.88a.93.93,0,0,1-.16-.64.86.86,0,0,1,.47-.69,1,1,0,0,1,.61-.15,1.08,1.08,0,0,1,.63.33,4.1,4.1,0,0,0,1.1.81,3.21,3.21,0,0,0,1.44.29,4.84,4.84,0,0,0,.59-.08,1.15,1.15,0,0,0,.57-.29.9.9,0,0,0,.24-.69.77.77,0,0,0-.27-.63,2.28,2.28,0,0,0-.71-.4,9.54,9.54,0,0,0-1-.3l-1.15-.36a5.31,5.31,0,0,1-1.07-.52,2.36,2.36,0,0,1-1.09-2.15,2.35,2.35,0,0,1,.5-1.53,3.35,3.35,0,0,1,1.3-1,4.25,4.25,0,0,1,1.69-.34,5.44,5.44,0,0,1,1.17.13,5,5,0,0,1,1.17.43,2.84,2.84,0,0,1,.93.79,1.34,1.34,0,0,1,.24.65.78.78,0,0,1-.34.68.91.91,0,0,1-.63.19,1,1,0,0,1-.6-.24,2,2,0,0,0-.82-.63,2.73,2.73,0,0,0-1.18-.24,3.09,3.09,0,0,0-.58.06,1.35,1.35,0,0,0-.55.27.83.83,0,0,0-.23.66.84.84,0,0,0,.27.66,2,2,0,0,0,.72.39q.47.16,1,.3c.36.1.72.21,1.09.34a4.55,4.55,0,0,1,1,.53,2.53,2.53,0,0,1,.76.83,2.68,2.68,0,0,1,.28,1.31,2.35,2.35,0,0,1-.54,1.56,3.32,3.32,0,0,1-1.35,1,4.17,4.17,0,0,1-1.65.34,6.63,6.63,0,0,1-2.13-.37A3.71,3.71,0,0,1,191.29,22.88Z"/><path class="cls-9" d="M205.22,15.22h4.2a.45.45,0,0,1,.35.15.5.5,0,0,1,.15.37.46.46,0,0,1-.15.34.45.45,0,0,1-.35.14h-4.2a.51.51,0,0,1-.37-.15.49.49,0,0,1-.15-.35.49.49,0,0,1,.15-.36A.5.5,0,0,1,205.22,15.22Zm1.85-2.54a.5.5,0,0,1,.39.16.54.54,0,0,1,.15.38v9a1.66,1.66,0,0,0,.14.76.65.65,0,0,0,.35.33,1.09,1.09,0,0,0,.43.08.68.68,0,0,0,.26,0,.76.76,0,0,1,.27-.05.37.37,0,0,1,.27.13.44.44,0,0,1,.12.32.49.49,0,0,1-.29.43,1.34,1.34,0,0,1-.68.17l-.49,0a1.78,1.78,0,0,1-.66-.2,1.28,1.28,0,0,1-.57-.6,2.74,2.74,0,0,1-.23-1.24V13.22a.55.55,0,0,1,.16-.38A.49.49,0,0,1,207.07,12.68Z"/><path class="cls-9" d="M212.22,24.38a.5.5,0,0,1-.39-.16.55.55,0,0,1-.15-.38V15.77a.51.51,0,0,1,.15-.37.52.52,0,0,1,.39-.17.51.51,0,0,1,.39.17.51.51,0,0,1,.15.37v2.7l-.27.06a4,4,0,0,1,.32-1.25,4.16,4.16,0,0,1,.71-1.15,3.53,3.53,0,0,1,1.07-.84A2.91,2.91,0,0,1,216,15a1.52,1.52,0,0,1,.63.14.45.45,0,0,1,.31.44.53.53,0,0,1-.15.41.45.45,0,0,1-.34.15.86.86,0,0,1-.35-.09,1.13,1.13,0,0,0-.49-.09,2,2,0,0,0-1,.29,3.48,3.48,0,0,0-.92.81,4.47,4.47,0,0,0-.66,1.12,3.43,3.43,0,0,0-.24,1.25v4.45a.52.52,0,0,1-.16.38A.55.55,0,0,1,212.22,24.38Z"/><path class="cls-9" d="M219.05,13.81a.86.86,0,0,1-.57-.17.64.64,0,0,1-.18-.49V13a.6.6,0,0,1,.2-.5.9.9,0,0,1,.57-.17.78.78,0,0,1,.53.17.62.62,0,0,1,.19.5v.18a.61.61,0,0,1-.19.49A.82.82,0,0,1,219.05,13.81Zm.54,10a.52.52,0,0,1-.16.38.55.55,0,0,1-.38.16.57.57,0,0,1-.39-.16.55.55,0,0,1-.15-.38V15.56a.54.54,0,0,1,.15-.38.53.53,0,0,1,.39-.16.5.5,0,0,1,.39.16.54.54,0,0,1,.15.38Z"/><path class="cls-9" d="M221.73,15.22h4.2a.45.45,0,0,1,.35.15.5.5,0,0,1,.15.37.46.46,0,0,1-.15.34.45.45,0,0,1-.35.14h-4.2a.51.51,0,0,1-.37-.15.49.49,0,0,1-.15-.35.49.49,0,0,1,.15-.36A.5.5,0,0,1,221.73,15.22Zm1.85-2.54a.5.5,0,0,1,.39.16.54.54,0,0,1,.15.38v9a1.66,1.66,0,0,0,.14.76.65.65,0,0,0,.35.33,1.09,1.09,0,0,0,.43.08.68.68,0,0,0,.26,0,.75.75,0,0,1,.26-.05.37.37,0,0,1,.28.13.44.44,0,0,1,.12.32.51.51,0,0,1-.29.43,1.34,1.34,0,0,1-.68.17l-.49,0a1.72,1.72,0,0,1-.66-.2,1.28,1.28,0,0,1-.57-.6,2.74,2.74,0,0,1-.23-1.24V13.22a.55.55,0,0,1,.16-.38A.49.49,0,0,1,223.58,12.68Z"/><path class="cls-9" d="M235.07,15.23a.5.5,0,0,1,.38.17.49.49,0,0,1,.16.37v5.08a3.55,3.55,0,0,1-1,2.72,3.85,3.85,0,0,1-2.72.93,3.79,3.79,0,0,1-2.69-.93,3.54,3.54,0,0,1-1-2.72V15.77a.51.51,0,0,1,.15-.37.52.52,0,0,1,.39-.17.51.51,0,0,1,.39.17.51.51,0,0,1,.15.37v5.08a2.74,2.74,0,0,0,4.55,2,2.61,2.61,0,0,0,.71-2V15.77a.5.5,0,0,1,.14-.37A.51.51,0,0,1,235.07,15.23Z"/><path class="cls-9" d="M238.78,24.38a.51.51,0,0,1-.54-.54V15.77a.51.51,0,0,1,.15-.37.51.51,0,0,1,.39-.17.5.5,0,0,1,.38.17.49.49,0,0,1,.16.37v2.7l-.27.06a4,4,0,0,1,.31-1.25,4.41,4.41,0,0,1,.71-1.15,3.66,3.66,0,0,1,1.07-.84,3,3,0,0,1,1.4-.33,1.56,1.56,0,0,1,.63.14.47.47,0,0,1,.31.44.53.53,0,0,1-.15.41.46.46,0,0,1-.34.15.79.79,0,0,1-.35-.09,1.18,1.18,0,0,0-.5-.09,2,2,0,0,0-1,.29,3.34,3.34,0,0,0-.92.81,3.94,3.94,0,0,0-.66,1.12,3.43,3.43,0,0,0-.24,1.25v4.45a.53.53,0,0,1-.17.38A.52.52,0,0,1,238.78,24.38Z"/><path class="cls-9" d="M252.19,15.18a.5.5,0,0,1,.39.16.57.57,0,0,1,.15.4v8.1a.52.52,0,0,1-.16.38.55.55,0,0,1-.38.16.5.5,0,0,1-.39-.16.55.55,0,0,1-.15-.38V21.7l.31-.15a2.25,2.25,0,0,1-.28,1,3.66,3.66,0,0,1-.77,1,3.91,3.91,0,0,1-1.14.73,3.72,3.72,0,0,1-1.43.28,3.88,3.88,0,0,1-2.17-.63,4.31,4.31,0,0,1-1.51-1.73,5.37,5.37,0,0,1-.55-2.47,5.29,5.29,0,0,1,.56-2.47,4.18,4.18,0,0,1,1.51-1.68A3.92,3.92,0,0,1,251,16a3.42,3.42,0,0,1,.79,1.07,2.9,2.9,0,0,1,.29,1.25l-.38-.27V15.74a.57.57,0,0,1,.15-.4A.47.47,0,0,1,252.19,15.18Zm-3.74,8.37a3,3,0,0,0,1.69-.5,3.37,3.37,0,0,0,1.16-1.36,4.47,4.47,0,0,0,.42-2,4.21,4.21,0,0,0-.42-1.9,3.4,3.4,0,0,0-1.16-1.35,3.09,3.09,0,0,0-3.37,0,3.29,3.29,0,0,0-1.17,1.33,4.17,4.17,0,0,0-.43,1.94,4.47,4.47,0,0,0,.42,2,3.22,3.22,0,0,0,1.16,1.36A3,3,0,0,0,248.45,23.55Z"/><path class="cls-9" d="M259.73,15a3.34,3.34,0,0,1,1.9.48,2.65,2.65,0,0,1,1,1.3,5,5,0,0,1,.31,1.81v5.29a.52.52,0,0,1-.16.38.55.55,0,0,1-.38.16.5.5,0,0,1-.39-.16.55.55,0,0,1-.15-.38V18.6a3.64,3.64,0,0,0-.23-1.31,2,2,0,0,0-.77-1A2.43,2.43,0,0,0,259.5,16a3.13,3.13,0,0,0-1.47.36,3.08,3.08,0,0,0-1.12,1,2.15,2.15,0,0,0-.44,1.31v5.24a.52.52,0,0,1-.16.38.55.55,0,0,1-.38.16.52.52,0,0,1-.39-.16.55.55,0,0,1-.15-.38V15.77a.49.49,0,0,1,.16-.37.5.5,0,0,1,.38-.17.51.51,0,0,1,.39.17.51.51,0,0,1,.15.37v1.52l-.41.64a2.29,2.29,0,0,1,.37-1.1,3.86,3.86,0,0,1,.85-1,4.3,4.3,0,0,1,1.16-.66A3.48,3.48,0,0,1,259.73,15Z"/><path class="cls-9" d="M271.9,23.84a.52.52,0,0,1-.16.38.57.57,0,0,1-.38.16.53.53,0,0,1-.39-.16.55.55,0,0,1-.15-.38V11.6a.51.51,0,0,1,.16-.38.52.52,0,0,1,.38-.16.51.51,0,0,1,.39.16.54.54,0,0,1,.15.38Z"/><path class="cls-9" d="M282.17,15.18a.51.51,0,0,1,.39.16.57.57,0,0,1,.15.4v8.1a.52.52,0,0,1-.16.38.57.57,0,0,1-.38.16.54.54,0,0,1-.4-.16.59.59,0,0,1-.14-.38V21.7l.31-.15a2.25,2.25,0,0,1-.28,1,3.66,3.66,0,0,1-.77,1,3.91,3.91,0,0,1-1.14.73,3.76,3.76,0,0,1-1.43.28,3.86,3.86,0,0,1-2.17-.63,4.31,4.31,0,0,1-1.51-1.73,5.37,5.37,0,0,1-.55-2.47,5.17,5.17,0,0,1,.56-2.47,4.18,4.18,0,0,1,1.51-1.68,3.92,3.92,0,0,1,4.77.39,3.58,3.58,0,0,1,.79,1.07,2.9,2.9,0,0,1,.29,1.25l-.38-.27V15.74a.61.61,0,0,1,.14-.4A.51.51,0,0,1,282.17,15.18Zm-3.74,8.37a3,3,0,0,0,1.69-.5,3.37,3.37,0,0,0,1.16-1.36,4.47,4.47,0,0,0,.42-2,4.21,4.21,0,0,0-.42-1.9,3.4,3.4,0,0,0-1.16-1.35,2.91,2.91,0,0,0-1.69-.51,3,3,0,0,0-1.69.49,3.37,3.37,0,0,0-1.17,1.33,4.29,4.29,0,0,0-.42,1.94,4.61,4.61,0,0,0,.41,2,3.31,3.31,0,0,0,1.17,1.36A3,3,0,0,0,278.43,23.55Z"/><path class="cls-9" d="M294.43,15a6.52,6.52,0,0,1,1.58.19,3.38,3.38,0,0,1,1.16.52.87.87,0,0,1,.44.7.54.54,0,0,1-.13.35.42.42,0,0,1-.33.17.58.58,0,0,1-.37-.11,1.52,1.52,0,0,1-.26-.25,1.16,1.16,0,0,0-.38-.27,3.35,3.35,0,0,0-.68-.2,4.88,4.88,0,0,0-1-.09,3.35,3.35,0,0,0-1.82.51,3.51,3.51,0,0,0-1.27,1.35,3.85,3.85,0,0,0-.47,1.92,4.18,4.18,0,0,0,.44,1.95,3.37,3.37,0,0,0,1.24,1.35,3.44,3.44,0,0,0,1.85.5,3.69,3.69,0,0,0,1.12-.13,3.41,3.41,0,0,0,.68-.28,2,2,0,0,0,.51-.39.48.48,0,0,1,.4-.19.46.46,0,0,1,.35.13.52.52,0,0,1,.12.36q0,.28-.42.63a3.79,3.79,0,0,1-1.16.62,5.21,5.21,0,0,1-1.71.26,4.37,4.37,0,0,1-2.35-.63,4.33,4.33,0,0,1-1.59-1.72,5.37,5.37,0,0,1-.56-2.46,5.05,5.05,0,0,1,.57-2.39A4.64,4.64,0,0,1,292,15.62,4.33,4.33,0,0,1,294.43,15Z"/><path class="cls-9" d="M307.85,19.77a5,5,0,0,1-.61,2.46,4.54,4.54,0,0,1-1.63,1.71,4.63,4.63,0,0,1-4.63,0,4.57,4.57,0,0,1-1.64-1.71,5.36,5.36,0,0,1,0-4.93A4.57,4.57,0,0,1,301,15.59a4.57,4.57,0,0,1,4.63,0,4.54,4.54,0,0,1,1.63,1.71A5,5,0,0,1,307.85,19.77Zm-1.08,0a4.13,4.13,0,0,0-.46-1.95,3.41,3.41,0,0,0-1.23-1.35,3.28,3.28,0,0,0-1.79-.5,3.24,3.24,0,0,0-1.77.5,3.51,3.51,0,0,0-1.24,1.35,4,4,0,0,0-.46,1.95,4,4,0,0,0,.46,1.94,3.48,3.48,0,0,0,1.24,1.34,3.24,3.24,0,0,0,1.77.5,3.28,3.28,0,0,0,1.79-.5,3.39,3.39,0,0,0,1.23-1.34A4.06,4.06,0,0,0,306.77,19.77Z"/><path class="cls-9" d="M314.1,15.11a3.12,3.12,0,0,1,1.91.58,2.94,2.94,0,0,1,1.08,1.74l-.25.07.11-.32a2.79,2.79,0,0,1,.78-1A4.27,4.27,0,0,1,319,15.4a3.57,3.57,0,0,1,1.42-.29,3.15,3.15,0,0,1,1.83.48,2.81,2.81,0,0,1,1,1.31,5.07,5.07,0,0,1,.31,1.84v5.1a.55.55,0,0,1-.15.38.53.53,0,0,1-.39.16.57.57,0,0,1-.39-.16.55.55,0,0,1-.15-.38v-5a3.9,3.9,0,0,0-.23-1.35,2.06,2.06,0,0,0-.74-1,2.29,2.29,0,0,0-1.35-.36,3,3,0,0,0-1.41.36,3,3,0,0,0-1.1,1,2.34,2.34,0,0,0-.42,1.35v5a.57.57,0,0,1-.16.38.53.53,0,0,1-.38.16.53.53,0,0,1-.39-.16.55.55,0,0,1-.15-.38v-5.1a4,4,0,0,0-.22-1.33,2,2,0,0,0-.7-.94,2.18,2.18,0,0,0-1.32-.35,2.84,2.84,0,0,0-1.39.35,2.92,2.92,0,0,0-1.06.94,2.32,2.32,0,0,0-.41,1.33v5.1a.52.52,0,0,1-.16.38.55.55,0,0,1-.38.16.5.5,0,0,1-.39-.16.55.55,0,0,1-.15-.38V15.77a.51.51,0,0,1,.15-.37.54.54,0,0,1,.39-.17.51.51,0,0,1,.39.17.51.51,0,0,1,.15.37v1.68l-.48.66a2.68,2.68,0,0,1,.35-1.08,3.78,3.78,0,0,1,.78-1,3.71,3.71,0,0,1,1.11-.69A3.21,3.21,0,0,1,314.1,15.11Z"/><path class="cls-9" d="M326.69,13.81a.86.86,0,0,1-.57-.17.64.64,0,0,1-.18-.49V13a.6.6,0,0,1,.2-.5.9.9,0,0,1,.57-.17.78.78,0,0,1,.53.17.62.62,0,0,1,.19.5v.18a.61.61,0,0,1-.19.49A.82.82,0,0,1,326.69,13.81Zm.54,10a.52.52,0,0,1-.16.38.55.55,0,0,1-.38.16.53.53,0,0,1-.54-.54V15.56a.54.54,0,0,1,.15-.38.51.51,0,0,1,.39-.16.5.5,0,0,1,.39.16.54.54,0,0,1,.15.38Z"/><path class="cls-9" d="M337.39,11.06a.54.54,0,0,1,.39.15.53.53,0,0,1,.15.39V23.84a.52.52,0,0,1-.16.38.57.57,0,0,1-.38.16.54.54,0,0,1-.4-.16.59.59,0,0,1-.14-.38V21.7l.31-.26a2.41,2.41,0,0,1-.27,1.06,3.62,3.62,0,0,1-.77,1,3.78,3.78,0,0,1-1.15.76,3.58,3.58,0,0,1-1.43.29,3.84,3.84,0,0,1-2.15-.63,4.35,4.35,0,0,1-1.52-1.71,5.2,5.2,0,0,1-.56-2.47,5.24,5.24,0,0,1,.56-2.46,4.4,4.4,0,0,1,1.51-1.71,3.86,3.86,0,0,1,2.14-.62,3.74,3.74,0,0,1,1.42.27,3.87,3.87,0,0,1,1.18.74,3.65,3.65,0,0,1,.81,1.07,2.77,2.77,0,0,1,.3,1.25l-.38-.27V11.6a.57.57,0,0,1,.14-.38A.51.51,0,0,1,337.39,11.06Zm-3.74,12.49a3,3,0,0,0,1.69-.5,3.4,3.4,0,0,0,1.16-1.35,4.37,4.37,0,0,0,.42-1.95,4.31,4.31,0,0,0-.42-1.93,3.4,3.4,0,0,0-1.16-1.35,3.11,3.11,0,0,0-3.38,0,3.35,3.35,0,0,0-1.17,1.35,4.31,4.31,0,0,0-.42,1.93,4.43,4.43,0,0,0,.42,1.95A3.35,3.35,0,0,0,332,23.05,3,3,0,0,0,333.65,23.55Z"/><path class="cls-9" d="M348.14,15.18a.49.49,0,0,1,.38.16.54.54,0,0,1,.16.4v8.1a.55.55,0,0,1-.54.54.54.54,0,0,1-.4-.16.59.59,0,0,1-.14-.38V21.7l.3-.15a2.13,2.13,0,0,1-.28,1,3.61,3.61,0,0,1-.76,1,4,4,0,0,1-1.14.73,3.76,3.76,0,0,1-1.43.28,3.86,3.86,0,0,1-2.17-.63,4.24,4.24,0,0,1-1.51-1.73,5.37,5.37,0,0,1-.55-2.47,5.29,5.29,0,0,1,.55-2.47,4.27,4.27,0,0,1,1.52-1.68,3.92,3.92,0,0,1,4.77.39,3.58,3.58,0,0,1,.79,1.07,2.9,2.9,0,0,1,.29,1.25L347.6,18V15.74a.61.61,0,0,1,.14-.4A.51.51,0,0,1,348.14,15.18Zm-3.75,8.37a3,3,0,0,0,1.7-.5,3.44,3.44,0,0,0,1.16-1.36,4.47,4.47,0,0,0,.42-2,4.21,4.21,0,0,0-.42-1.9,3.48,3.48,0,0,0-1.16-1.35,2.94,2.94,0,0,0-1.7-.51,3,3,0,0,0-1.68.49,3.29,3.29,0,0,0-1.17,1.33,4.29,4.29,0,0,0-.42,1.94,4.61,4.61,0,0,0,.41,2,3.29,3.29,0,0,0,1.16,1.36A3,3,0,0,0,344.39,23.55Z"/><path class="cls-9" d="M363.28,15a.49.49,0,0,1,.38.16.55.55,0,0,1,.16.38V23.5a4.85,4.85,0,0,1-.58,2.45,3.75,3.75,0,0,1-1.55,1.51,4.57,4.57,0,0,1-2.21.52,5.78,5.78,0,0,1-1.43-.17,3.71,3.71,0,0,1-1.07-.44.9.9,0,0,1-.33-.31.39.39,0,0,1,0-.38.53.53,0,0,1,.28-.33.45.45,0,0,1,.39,0,8.33,8.33,0,0,0,.88.39,3.41,3.41,0,0,0,1.32.24,3.33,3.33,0,0,0,1.71-.42,2.71,2.71,0,0,0,1.13-1.19,4.19,4.19,0,0,0,.4-1.87V22.22l.12.43a3.13,3.13,0,0,1-.76,1,3.89,3.89,0,0,1-2.5.92,3.39,3.39,0,0,1-1.79-.44,2.71,2.71,0,0,1-1.05-1.22,4.41,4.41,0,0,1-.34-1.82V15.56a.57.57,0,0,1,.14-.38A.51.51,0,0,1,357,15a.49.49,0,0,1,.38.16.51.51,0,0,1,.16.38v5.36a3,3,0,0,0,.55,1.95,2.17,2.17,0,0,0,1.79.68,2.79,2.79,0,0,0,1.42-.37,3.09,3.09,0,0,0,1.06-1,2.21,2.21,0,0,0,.42-1.29V15.56a.54.54,0,0,1,.15-.38A.5.5,0,0,1,363.28,15Z"/><path class="cls-9" d="M372.87,25.21a2.56,2.56,0,0,1-.41,1.46,2.92,2.92,0,0,1-1,.93,2.45,2.45,0,0,1-1.19.32.46.46,0,0,1-.37-.14.49.49,0,0,1-.14-.34v-.07a.44.44,0,0,1,.15-.35.74.74,0,0,1,.32-.16,2.57,2.57,0,0,0,.77-.3,1.7,1.7,0,0,0,.56-.6,1.77,1.77,0,0,0,.22-.92V15.76a.54.54,0,0,1,.15-.38.5.5,0,0,1,.39-.16.53.53,0,0,1,.39.16.54.54,0,0,1,.15.38Zm-.54-11.42a.81.81,0,0,1-.57-.17.65.65,0,0,1-.19-.49V13a.61.61,0,0,1,.21-.5.9.9,0,0,1,.57-.17.8.8,0,0,1,.53.17.67.67,0,0,1,.19.5v.18a.65.65,0,0,1-.19.49A.77.77,0,0,1,372.33,13.79Z"/><path class="cls-9" d="M382.7,15.23a.51.51,0,0,1,.39.17.51.51,0,0,1,.15.37v5.08a3.55,3.55,0,0,1-1,2.72,4.4,4.4,0,0,1-5.41,0,3.58,3.58,0,0,1-1-2.72V15.77a.52.52,0,0,1,.16-.37.5.5,0,0,1,.38-.17.51.51,0,0,1,.39.17.51.51,0,0,1,.15.37v5.08a2.4,2.4,0,0,0,2.62,2.65,2.7,2.7,0,0,0,1.94-.68,2.6,2.6,0,0,0,.7-2V15.77a.51.51,0,0,1,.15-.37A.48.48,0,0,1,382.7,15.23Z"/><path class="cls-9" d="M390.21,15a3.36,3.36,0,0,1,1.9.48,2.69,2.69,0,0,1,1,1.3,5,5,0,0,1,.32,1.81v5.29a.52.52,0,0,1-.16.38.57.57,0,0,1-.38.16.54.54,0,0,1-.4-.16.59.59,0,0,1-.14-.38V18.6a3.43,3.43,0,0,0-.24-1.31,2,2,0,0,0-.76-1A2.43,2.43,0,0,0,390,16a3.13,3.13,0,0,0-1.47.36,3.2,3.2,0,0,0-1.13,1A2.21,2.21,0,0,0,387,18.6v5.24a.52.52,0,0,1-.16.38.55.55,0,0,1-.38.16.5.5,0,0,1-.39-.16.55.55,0,0,1-.15-.38V15.77a.51.51,0,0,1,.15-.37.52.52,0,0,1,.39-.17.51.51,0,0,1,.39.17.51.51,0,0,1,.15.37v1.52l-.41.64a2.19,2.19,0,0,1,.37-1.1,3.67,3.67,0,0,1,.85-1,4.3,4.3,0,0,1,1.16-.66A3.48,3.48,0,0,1,390.21,15Z"/><path class="cls-9" d="M395.31,15.22h4.19a.46.46,0,0,1,.36.15.5.5,0,0,1,.15.37.46.46,0,0,1-.15.34.45.45,0,0,1-.36.14h-4.19a.5.5,0,0,1-.37-.86A.49.49,0,0,1,395.31,15.22Zm1.85-2.54a.5.5,0,0,1,.39.16.54.54,0,0,1,.15.38v9a1.66,1.66,0,0,0,.14.76.62.62,0,0,0,.35.33,1.09,1.09,0,0,0,.43.08.71.71,0,0,0,.26,0,.71.71,0,0,1,.26-.05.39.39,0,0,1,.28.13.44.44,0,0,1,.12.32.51.51,0,0,1-.29.43,1.36,1.36,0,0,1-.69.17l-.48,0a1.77,1.77,0,0,1-.67-.2,1.32,1.32,0,0,1-.56-.6,2.74,2.74,0,0,1-.23-1.24V13.22a.54.54,0,0,1,.15-.38A.53.53,0,0,1,397.16,12.68Z"/><path class="cls-9" d="M409.89,19.77a5,5,0,0,1-.6,2.46,4.62,4.62,0,0,1-1.63,1.71,4.65,4.65,0,0,1-4.64,0,4.54,4.54,0,0,1-1.63-1.71,5.29,5.29,0,0,1,0-4.93A4.54,4.54,0,0,1,403,15.59a4.59,4.59,0,0,1,4.64,0,4.62,4.62,0,0,1,1.63,1.71A5,5,0,0,1,409.89,19.77Zm-1.08,0a4.12,4.12,0,0,0-.45-1.95,3.49,3.49,0,0,0-1.23-1.35,3.44,3.44,0,0,0-3.57,0,3.59,3.59,0,0,0-1.24,1.35,4.13,4.13,0,0,0-.46,1.95,4.06,4.06,0,0,0,.46,1.94,3.56,3.56,0,0,0,1.24,1.34,3.44,3.44,0,0,0,3.57,0,3.46,3.46,0,0,0,1.23-1.34A4.05,4.05,0,0,0,408.81,19.77Z"/><path class="cls-9" d="M421,15a6.52,6.52,0,0,1,1.58.19,3.38,3.38,0,0,1,1.16.52.9.9,0,0,1,.44.7.54.54,0,0,1-.13.35.42.42,0,0,1-.34.17.57.57,0,0,1-.36-.11,2.05,2.05,0,0,1-.27-.25,1.11,1.11,0,0,0-.37-.27,3.57,3.57,0,0,0-.68-.2,4.88,4.88,0,0,0-1-.09,3.35,3.35,0,0,0-1.82.51A3.61,3.61,0,0,0,418,17.83a4,4,0,0,0-.46,1.92,4.18,4.18,0,0,0,.44,1.95,3.37,3.37,0,0,0,1.24,1.35,3.43,3.43,0,0,0,1.84.5,3.76,3.76,0,0,0,1.13-.13,3.3,3.3,0,0,0,.67-.28,2,2,0,0,0,.52-.39.47.47,0,0,1,.4-.19.42.42,0,0,1,.34.13.48.48,0,0,1,.13.36q0,.28-.42.63a3.92,3.92,0,0,1-1.16.62,5.3,5.3,0,0,1-1.71.26A4.3,4.3,0,0,1,417,22.21a5.37,5.37,0,0,1-.56-2.46,5.05,5.05,0,0,1,.57-2.39,4.7,4.7,0,0,1,1.6-1.74A4.39,4.39,0,0,1,421,15Z"/><path class="cls-9" d="M434.41,19.77a5,5,0,0,1-.6,2.46,4.54,4.54,0,0,1-1.63,1.71,4.63,4.63,0,0,1-4.63,0,4.57,4.57,0,0,1-1.64-1.71,5.36,5.36,0,0,1,0-4.93,4.57,4.57,0,0,1,1.64-1.71,4.57,4.57,0,0,1,4.63,0,4.54,4.54,0,0,1,1.63,1.71A5,5,0,0,1,434.41,19.77Zm-1.08,0a4.12,4.12,0,0,0-.45-1.95,3.49,3.49,0,0,0-1.23-1.35,3.28,3.28,0,0,0-1.79-.5,3.24,3.24,0,0,0-1.77.5,3.54,3.54,0,0,0-1.25,1.35,4.12,4.12,0,0,0-.45,1.95,4.05,4.05,0,0,0,.45,1.94,3.51,3.51,0,0,0,1.25,1.34,3.24,3.24,0,0,0,1.77.5,3.28,3.28,0,0,0,1.79-.5,3.46,3.46,0,0,0,1.23-1.34A4.05,4.05,0,0,0,433.33,19.77Z"/><path class="cls-9" d="M440.87,15a3.36,3.36,0,0,1,1.9.48,2.69,2.69,0,0,1,1,1.3,5,5,0,0,1,.32,1.81v5.29a.55.55,0,0,1-.54.54.54.54,0,0,1-.4-.16.59.59,0,0,1-.14-.38V18.6a3.43,3.43,0,0,0-.24-1.31,2,2,0,0,0-.76-1,2.44,2.44,0,0,0-1.4-.36A3.26,3.26,0,0,0,438,17.29a2.14,2.14,0,0,0-.43,1.31v5.24a.52.52,0,0,1-.16.38.57.57,0,0,1-.38.16.54.54,0,0,1-.4-.16.59.59,0,0,1-.14-.38V15.77a.51.51,0,0,1,.15-.37.53.53,0,0,1,.78,0,.51.51,0,0,1,.15.37v1.52l-.41.64a2.28,2.28,0,0,1,.36-1.1,3.9,3.9,0,0,1,.86-1,4.15,4.15,0,0,1,1.16-.66A3.48,3.48,0,0,1,440.87,15Z"/><path class="cls-9" d="M16.51,43.84a.55.55,0,0,1-.54.54.53.53,0,0,1-.39-.16.55.55,0,0,1-.15-.38V31.6a.55.55,0,0,1,.54-.54.53.53,0,0,1,.39.16.54.54,0,0,1,.15.38Z"/><path class="cls-9" d="M26.78,35.18a.51.51,0,0,1,.39.16.57.57,0,0,1,.15.4v8.1a.52.52,0,0,1-.16.38.57.57,0,0,1-.38.16.54.54,0,0,1-.4-.16.59.59,0,0,1-.14-.38V41.7l.31-.15a2.25,2.25,0,0,1-.28,1,3.66,3.66,0,0,1-.77,1,3.91,3.91,0,0,1-1.14.73,3.76,3.76,0,0,1-1.43.28,3.86,3.86,0,0,1-2.17-.63,4.31,4.31,0,0,1-1.51-1.73,5.37,5.37,0,0,1-.55-2.47,5.17,5.17,0,0,1,.56-2.47,4.18,4.18,0,0,1,1.51-1.68,3.92,3.92,0,0,1,4.77.39A3.58,3.58,0,0,1,26.33,37a2.9,2.9,0,0,1,.29,1.25L26.24,38V35.74a.61.61,0,0,1,.14-.4A.51.51,0,0,1,26.78,35.18ZM23,43.55a3,3,0,0,0,1.69-.5,3.37,3.37,0,0,0,1.16-1.36,4.47,4.47,0,0,0,.42-2,4.21,4.21,0,0,0-.42-1.9,3.4,3.4,0,0,0-1.16-1.35A2.93,2.93,0,0,0,23,36a3,3,0,0,0-1.69.49,3.29,3.29,0,0,0-1.17,1.33,4.29,4.29,0,0,0-.42,1.94,4.61,4.61,0,0,0,.41,2,3.37,3.37,0,0,0,1.16,1.36A3,3,0,0,0,23,43.55Z"/><path class="cls-9" d="M34.54,42.92a.73.73,0,0,1-.14-.42.42.42,0,0,1,.23-.34.39.39,0,0,1,.33-.1.54.54,0,0,1,.35.18,3.94,3.94,0,0,0,1.18,1,3.3,3.3,0,0,0,1.65.39,3.18,3.18,0,0,0,1-.17A2,2,0,0,0,40,43a1.3,1.3,0,0,0,.32-.89,1.25,1.25,0,0,0-.32-.9,2.26,2.26,0,0,0-.84-.54A8.69,8.69,0,0,0,38,40.27a11.74,11.74,0,0,1-1.19-.37,4.08,4.08,0,0,1-1-.52,2.57,2.57,0,0,1-.71-.76,2.11,2.11,0,0,1-.27-1.1,2.2,2.2,0,0,1,.42-1.33,2.64,2.64,0,0,1,1.12-.9A3.8,3.8,0,0,1,38,35a4.44,4.44,0,0,1,1,.12,4.27,4.27,0,0,1,1,.39,2.88,2.88,0,0,1,.9.74.48.48,0,0,1,.16.36.49.49,0,0,1-.51.48.4.4,0,0,1-.31-.14,2.8,2.8,0,0,0-1-.74,3.21,3.21,0,0,0-1.28-.25,2.66,2.66,0,0,0-1,.17,1.76,1.76,0,0,0-.76.51,1.28,1.28,0,0,0-.31.9,1.26,1.26,0,0,0,.37.85,2.75,2.75,0,0,0,.88.54,12.82,12.82,0,0,0,1.23.39,9,9,0,0,1,1.11.35,3.8,3.8,0,0,1,.94.49,2.21,2.21,0,0,1,.64.75A2.28,2.28,0,0,1,41.29,42a2.2,2.2,0,0,1-.44,1.37,2.85,2.85,0,0,1-1.18.88,4.13,4.13,0,0,1-1.64.31,4.86,4.86,0,0,1-1.88-.38A4,4,0,0,1,34.54,42.92Z"/><path class="cls-9" d="M50.84,35.18a.5.5,0,0,1,.39.16.57.57,0,0,1,.15.4v8.1a.52.52,0,0,1-.16.38.55.55,0,0,1-.38.16.5.5,0,0,1-.39-.16.55.55,0,0,1-.15-.38V41.7l.31-.15a2.13,2.13,0,0,1-.28,1,3.66,3.66,0,0,1-.77,1,3.91,3.91,0,0,1-1.14.73,3.72,3.72,0,0,1-1.43.28,3.88,3.88,0,0,1-2.17-.63,4.39,4.39,0,0,1-1.51-1.73,5.37,5.37,0,0,1-.55-2.47,5.29,5.29,0,0,1,.56-2.47,4.18,4.18,0,0,1,1.51-1.68A3.92,3.92,0,0,1,49.6,36,3.42,3.42,0,0,1,50.39,37a2.9,2.9,0,0,1,.29,1.25L50.3,38V35.74a.57.57,0,0,1,.15-.4A.47.47,0,0,1,50.84,35.18ZM47.1,43.55a3,3,0,0,0,1.69-.5A3.37,3.37,0,0,0,50,41.69a4.47,4.47,0,0,0,.42-2,4.21,4.21,0,0,0-.42-1.9,3.4,3.4,0,0,0-1.16-1.35,3.09,3.09,0,0,0-3.37,0,3.29,3.29,0,0,0-1.17,1.33,4.17,4.17,0,0,0-.43,1.94,4.47,4.47,0,0,0,.42,2,3.22,3.22,0,0,0,1.16,1.36A3,3,0,0,0,47.1,43.55Z"/><path class="cls-9" d="M55.18,43.84a.55.55,0,0,1-.54.54.53.53,0,0,1-.39-.16.55.55,0,0,1-.15-.38V31.6a.55.55,0,0,1,.54-.54.49.49,0,0,1,.38.16.51.51,0,0,1,.16.38Z"/><path class="cls-9" d="M58.42,33.81a.81.81,0,0,1-.56-.17.61.61,0,0,1-.19-.49V33a.63.63,0,0,1,.2-.5.9.9,0,0,1,.57-.17.77.77,0,0,1,.53.17.62.62,0,0,1,.19.5v.18a.61.61,0,0,1-.19.49A.8.8,0,0,1,58.42,33.81Zm.54,10a.52.52,0,0,1-.16.38.55.55,0,0,1-.38.16.53.53,0,0,1-.38-.16.52.52,0,0,1-.16-.38V35.56a.51.51,0,0,1,.16-.38.49.49,0,0,1,.38-.16.5.5,0,0,1,.39.16.54.54,0,0,1,.15.38Z"/><path class="cls-9" d="M61.31,35a.57.57,0,0,1,.29.09.58.58,0,0,1,.21.27L65,42.83l-.23.14L68,35.34a.5.5,0,0,1,.52-.34.56.56,0,0,1,.34.12.38.38,0,0,1,.17.33.4.4,0,0,1,0,.17.58.58,0,0,0,0,.14L65.38,44a.57.57,0,0,1-.81.26.68.68,0,0,1-.22-.26L60.8,35.76a.81.81,0,0,1,0-.11.77.77,0,0,1,0-.15.56.56,0,0,1,.14-.36A.57.57,0,0,1,61.31,35Z"/><path class="cls-9" d="M78,35.18a.49.49,0,0,1,.38.16.54.54,0,0,1,.16.4v8.1a.53.53,0,0,1-.17.38.52.52,0,0,1-.37.16.51.51,0,0,1-.54-.54V41.7l.3-.15a2.13,2.13,0,0,1-.28,1,3.61,3.61,0,0,1-.76,1,4.19,4.19,0,0,1-1.14.73,3.77,3.77,0,0,1-1.44.28A3.85,3.85,0,0,1,72,43.93a4.34,4.34,0,0,1-1.52-1.73,5.5,5.5,0,0,1-.55-2.47,5.29,5.29,0,0,1,.56-2.47A4.33,4.33,0,0,1,72,35.58a4,4,0,0,1,3.6-.35,3.87,3.87,0,0,1,1.18.74A3.76,3.76,0,0,1,77.56,37a2.9,2.9,0,0,1,.29,1.25L77.47,38V35.74a.56.56,0,0,1,.14-.4A.51.51,0,0,1,78,35.18Zm-3.75,8.37a3,3,0,0,0,1.69-.5,3.39,3.39,0,0,0,1.17-1.36,4.47,4.47,0,0,0,.42-2,4.21,4.21,0,0,0-.42-1.9A3.43,3.43,0,0,0,76,36.48,2.88,2.88,0,0,0,74.26,36a3,3,0,0,0-1.68.49,3.29,3.29,0,0,0-1.17,1.33A4.29,4.29,0,0,0,71,39.73a4.47,4.47,0,0,0,.41,2,3.29,3.29,0,0,0,1.16,1.36A3,3,0,0,0,74.26,43.55Z"/><path class="cls-9" d="M82.78,44.32a2.17,2.17,0,0,1-.15.79,2.71,2.71,0,0,1-.42.71,2.57,2.57,0,0,1-.54.51,1,1,0,0,1-.58.19.51.51,0,0,1-.32-.1.33.33,0,0,1-.15-.3q0-.28.21-.33a2.29,2.29,0,0,0,.44-.15,1,1,0,0,0,.39-.39,1,1,0,0,0,.13-.51.47.47,0,0,0-.11-.33.35.35,0,0,0-.28-.12,1.15,1.15,0,0,0-.26,0,1,1,0,0,0-.23.11,1.08,1.08,0,0,1-.16-.2.39.39,0,0,1-.06-.27.63.63,0,0,1,.17-.38,1.05,1.05,0,0,1,.39-.27,1.14,1.14,0,0,1,.47-.1,1,1,0,0,1,.76.29A1.12,1.12,0,0,1,82.78,44.32Z"/><path class="cls-9" d="M89.21,35.22H93.4a.46.46,0,0,1,.36.15.5.5,0,0,1,.15.37.46.46,0,0,1-.15.34.45.45,0,0,1-.36.14H89.21a.5.5,0,0,1-.37-.15.49.49,0,0,1-.15-.35.5.5,0,0,1,.52-.5Zm1.85-2.54a.5.5,0,0,1,.39.16.54.54,0,0,1,.15.38v9a1.66,1.66,0,0,0,.14.76.62.62,0,0,0,.35.33,1.09,1.09,0,0,0,.43.08.71.71,0,0,0,.26,0,.71.71,0,0,1,.26-.05.39.39,0,0,1,.28.13.44.44,0,0,1,.12.32.51.51,0,0,1-.29.43,1.34,1.34,0,0,1-.68.17l-.49,0a1.77,1.77,0,0,1-.67-.2,1.32,1.32,0,0,1-.56-.6,2.74,2.74,0,0,1-.23-1.24V33.22a.54.54,0,0,1,.15-.38A.53.53,0,0,1,91.06,32.68Z"/><path class="cls-9" d="M96.21,44.38a.51.51,0,0,1-.54-.54V35.77a.51.51,0,0,1,.15-.37.51.51,0,0,1,.39-.17.5.5,0,0,1,.38.17.49.49,0,0,1,.16.37v2.7l-.27.06a4,4,0,0,1,.31-1.25,4.41,4.41,0,0,1,.71-1.15,3.66,3.66,0,0,1,1.07-.84A3,3,0,0,1,100,35a1.56,1.56,0,0,1,.63.14.46.46,0,0,1,.3.44.53.53,0,0,1-.14.41.46.46,0,0,1-.34.15.79.79,0,0,1-.35-.09,1.18,1.18,0,0,0-.5-.09,2.08,2.08,0,0,0-1,.29,3.45,3.45,0,0,0-.91.81A3.94,3.94,0,0,0,97,38.14a3.43,3.43,0,0,0-.24,1.25v4.45a.53.53,0,0,1-.17.38A.52.52,0,0,1,96.21,44.38Z"/><path class="cls-9" d="M109.62,35.18a.5.5,0,0,1,.39.16.57.57,0,0,1,.15.4v8.1a.52.52,0,0,1-.16.38.55.55,0,0,1-.38.16.5.5,0,0,1-.39-.16.55.55,0,0,1-.15-.38V41.7l.31-.15a2.25,2.25,0,0,1-.28,1,3.66,3.66,0,0,1-.77,1,3.91,3.91,0,0,1-1.14.73,3.72,3.72,0,0,1-1.43.28,3.88,3.88,0,0,1-2.17-.63,4.31,4.31,0,0,1-1.51-1.73,5.37,5.37,0,0,1-.55-2.47,5.29,5.29,0,0,1,.56-2.47,4.18,4.18,0,0,1,1.51-1.68,3.92,3.92,0,0,1,4.77.39,3.42,3.42,0,0,1,.79,1.07,2.9,2.9,0,0,1,.29,1.25l-.38-.27V35.74a.57.57,0,0,1,.15-.4A.47.47,0,0,1,109.62,35.18Zm-3.74,8.37a3,3,0,0,0,1.69-.5,3.37,3.37,0,0,0,1.16-1.36,4.47,4.47,0,0,0,.42-2,4.21,4.21,0,0,0-.42-1.9,3.4,3.4,0,0,0-1.16-1.35,2.91,2.91,0,0,0-1.69-.51,3,3,0,0,0-1.69.49A3.44,3.44,0,0,0,103,37.79a4.29,4.29,0,0,0-.42,1.94,4.47,4.47,0,0,0,.42,2,3.22,3.22,0,0,0,1.16,1.36A3,3,0,0,0,105.88,43.55Z"/><path class="cls-9" d="M117.16,35a3.34,3.34,0,0,1,1.9.48,2.71,2.71,0,0,1,1,1.3,5,5,0,0,1,.31,1.81v5.29a.52.52,0,0,1-.16.38.55.55,0,0,1-.38.16.5.5,0,0,1-.39-.16.55.55,0,0,1-.15-.38V38.6a3.64,3.64,0,0,0-.23-1.31,2,2,0,0,0-.77-1,2.43,2.43,0,0,0-1.39-.36,3.13,3.13,0,0,0-1.47.36,3.08,3.08,0,0,0-1.12,1,2.15,2.15,0,0,0-.44,1.31v5.24a.52.52,0,0,1-.16.38.55.55,0,0,1-.38.16.52.52,0,0,1-.39-.16.55.55,0,0,1-.15-.38V35.77a.49.49,0,0,1,.16-.37.5.5,0,0,1,.38-.17.51.51,0,0,1,.39.17.51.51,0,0,1,.15.37v1.52l-.41.64a2.29,2.29,0,0,1,.37-1.1,3.86,3.86,0,0,1,.85-1,4.3,4.3,0,0,1,1.16-.66A3.48,3.48,0,0,1,117.16,35Z"/><path class="cls-9" d="M122.47,42.92a.73.73,0,0,1-.14-.42.42.42,0,0,1,.23-.34.4.4,0,0,1,.33-.1.54.54,0,0,1,.35.18,3.94,3.94,0,0,0,1.18,1,3.3,3.3,0,0,0,1.65.39,3.18,3.18,0,0,0,1-.17,2,2,0,0,0,.82-.52,1.3,1.3,0,0,0,.32-.89,1.25,1.25,0,0,0-.32-.9,2.26,2.26,0,0,0-.84-.54,8.69,8.69,0,0,0-1.09-.35,11.74,11.74,0,0,1-1.19-.37,4.08,4.08,0,0,1-1-.52,2.57,2.57,0,0,1-.71-.76,2.11,2.11,0,0,1-.27-1.1,2.2,2.2,0,0,1,.42-1.33,2.64,2.64,0,0,1,1.12-.9,3.8,3.8,0,0,1,1.61-.33,4.44,4.44,0,0,1,1,.12,4.12,4.12,0,0,1,1,.39,2.88,2.88,0,0,1,.9.74.48.48,0,0,1,.16.36.49.49,0,0,1-.51.48.41.41,0,0,1-.31-.14,2.8,2.8,0,0,0-1-.74,3.21,3.21,0,0,0-1.28-.25,2.66,2.66,0,0,0-1,.17,1.76,1.76,0,0,0-.76.51,1.28,1.28,0,0,0-.31.9,1.26,1.26,0,0,0,.37.85,2.87,2.87,0,0,0,.88.54,12.82,12.82,0,0,0,1.23.39,9,9,0,0,1,1.11.35,3.8,3.8,0,0,1,.94.49,2.35,2.35,0,0,1,.65.75,2.39,2.39,0,0,1,.24,1.13,2.2,2.2,0,0,1-.44,1.37,2.85,2.85,0,0,1-1.18.88,4.13,4.13,0,0,1-1.64.31,4.89,4.89,0,0,1-1.88-.38A4,4,0,0,1,122.47,42.92Z"/><path class="cls-9" d="M135.41,35.36a.48.48,0,0,1,.5.5.5.5,0,0,1-.5.51H131a.46.46,0,0,1-.35-.16.47.47,0,0,1-.15-.35.48.48,0,0,1,.15-.37.51.51,0,0,1,.35-.13Zm-.68-4.23a4.26,4.26,0,0,1,.58.05,1.78,1.78,0,0,1,.55.19.44.44,0,0,1,.23.41.47.47,0,0,1-.14.35.45.45,0,0,1-.32.15,1.27,1.27,0,0,1-.45-.1,1.86,1.86,0,0,0-.58-.1,1.23,1.23,0,0,0-.65.17,1.1,1.1,0,0,0-.41.49,1.79,1.79,0,0,0-.15.77V43.84a.55.55,0,0,1-.15.38.53.53,0,0,1-.39.16.53.53,0,0,1-.38-.16.52.52,0,0,1-.16-.38V33.51a2.28,2.28,0,0,1,.68-1.77A2.48,2.48,0,0,1,134.73,31.13Z"/><path class="cls-9" d="M145.78,39.77a5,5,0,0,1-.6,2.46,4.62,4.62,0,0,1-1.63,1.71,4.42,4.42,0,0,1-2.32.62,4.4,4.4,0,0,1-3.95-2.33,5.29,5.29,0,0,1,0-4.93,4.54,4.54,0,0,1,1.63-1.71,4.42,4.42,0,0,1,2.32-.63,4.34,4.34,0,0,1,2.32.63,4.62,4.62,0,0,1,1.63,1.71A5,5,0,0,1,145.78,39.77Zm-1.08,0a4.12,4.12,0,0,0-.45-2A3.49,3.49,0,0,0,143,36.47a3.44,3.44,0,0,0-3.57,0,3.59,3.59,0,0,0-1.24,1.35,4.13,4.13,0,0,0-.46,2,4.06,4.06,0,0,0,.46,1.94,3.56,3.56,0,0,0,1.24,1.34,3.44,3.44,0,0,0,3.57,0,3.46,3.46,0,0,0,1.23-1.34A4.05,4.05,0,0,0,144.7,39.77Z"/><path class="cls-9" d="M148.44,44.38a.54.54,0,0,1-.4-.16.59.59,0,0,1-.14-.38V35.77a.51.51,0,0,1,.15-.37.51.51,0,0,1,.39-.17.52.52,0,0,1,.39.17.51.51,0,0,1,.15.37v2.7l-.27.06a4,4,0,0,1,.31-1.25,4.69,4.69,0,0,1,.71-1.15,3.57,3.57,0,0,1,1.08-.84A2.91,2.91,0,0,1,152.2,35a1.52,1.52,0,0,1,.63.14.47.47,0,0,1,.31.44A.53.53,0,0,1,153,36a.45.45,0,0,1-.34.15.83.83,0,0,1-.35-.09,1.16,1.16,0,0,0-.49-.09,2,2,0,0,0-1,.29,3.34,3.34,0,0,0-.92.81,3.94,3.94,0,0,0-.66,1.12,3.43,3.43,0,0,0-.24,1.25v4.45a.52.52,0,0,1-.16.38A.57.57,0,0,1,148.44,44.38Z"/><path class="cls-9" d="M158.89,35.11a3.14,3.14,0,0,1,1.91.58,3,3,0,0,1,1.08,1.74l-.26.07.11-.32a2.94,2.94,0,0,1,.79-1,4.27,4.27,0,0,1,1.25-.76,3.54,3.54,0,0,1,1.42-.29,3.19,3.19,0,0,1,1.83.48,2.79,2.79,0,0,1,1,1.31,5.07,5.07,0,0,1,.32,1.84v5.1a.55.55,0,0,1-.15.38.57.57,0,0,1-.39.16.53.53,0,0,1-.39-.16.55.55,0,0,1-.15-.38v-5a3.68,3.68,0,0,0-.24-1.35,2,2,0,0,0-.73-1,2.29,2.29,0,0,0-1.35-.36,3,3,0,0,0-1.42.36,3.12,3.12,0,0,0-1.1,1A2.34,2.34,0,0,0,162,38.8v5a.55.55,0,0,1-.15.38.53.53,0,0,1-.39.16.57.57,0,0,1-.39-.16.55.55,0,0,1-.15-.38v-5.1a4,4,0,0,0-.21-1.33,2,2,0,0,0-.71-.94,2.14,2.14,0,0,0-1.31-.35,2.88,2.88,0,0,0-1.4.35,3,3,0,0,0-1.06.94,2.31,2.31,0,0,0-.4,1.33v5.1a.55.55,0,0,1-.54.54.54.54,0,0,1-.4-.16.59.59,0,0,1-.14-.38V35.77a.51.51,0,0,1,.15-.37.51.51,0,0,1,.39-.17.5.5,0,0,1,.38.17.49.49,0,0,1,.16.37v1.68l-.49.66a2.85,2.85,0,0,1,.35-1.08,3.62,3.62,0,0,1,.79-1,3.79,3.79,0,0,1,1.1-.69A3.26,3.26,0,0,1,158.89,35.11Z"/><path class="cls-9" d="M178.51,35.18a.5.5,0,0,1,.39.16.57.57,0,0,1,.15.4v8.1a.52.52,0,0,1-.16.38.55.55,0,0,1-.38.16.52.52,0,0,1-.39-.16.55.55,0,0,1-.15-.38V41.7l.31-.15a2.13,2.13,0,0,1-.28,1,3.82,3.82,0,0,1-.76,1,4.1,4.1,0,0,1-1.15.73,3.68,3.68,0,0,1-1.43.28,3.91,3.91,0,0,1-2.17-.63A4.39,4.39,0,0,1,171,42.2a5.5,5.5,0,0,1-.55-2.47,5.29,5.29,0,0,1,.56-2.47,4.25,4.25,0,0,1,1.51-1.68,3.89,3.89,0,0,1,2.15-.62,3.84,3.84,0,0,1,1.44.27,3.75,3.75,0,0,1,1.18.74,3.42,3.42,0,0,1,.79,1.07,2.76,2.76,0,0,1,.29,1.25L178,38V35.74a.57.57,0,0,1,.15-.4A.48.48,0,0,1,178.51,35.18Zm-3.74,8.37a3,3,0,0,0,1.69-.5,3.37,3.37,0,0,0,1.16-1.36,4.34,4.34,0,0,0,.43-2,4.09,4.09,0,0,0-.43-1.9,3.4,3.4,0,0,0-1.16-1.35,2.88,2.88,0,0,0-1.69-.51,3,3,0,0,0-1.68.49,3.29,3.29,0,0,0-1.17,1.33,4.3,4.3,0,0,0-.43,1.94,4.47,4.47,0,0,0,.42,2,3.22,3.22,0,0,0,1.16,1.36A3,3,0,0,0,174.77,43.55Z"/><path class="cls-9" d="M186.05,35a3.32,3.32,0,0,1,1.9.48,2.65,2.65,0,0,1,1,1.3,5,5,0,0,1,.31,1.81v5.29a.52.52,0,0,1-.16.38.55.55,0,0,1-.38.16.52.52,0,0,1-.39-.16.55.55,0,0,1-.15-.38V38.6a3.43,3.43,0,0,0-.23-1.31,2.06,2.06,0,0,0-.76-1,2.46,2.46,0,0,0-1.4-.36,3.13,3.13,0,0,0-1.47.36,3.17,3.17,0,0,0-1.12,1,2.14,2.14,0,0,0-.43,1.31v5.24a.53.53,0,0,1-.17.38.52.52,0,0,1-.37.16.51.51,0,0,1-.54-.54V35.77a.51.51,0,0,1,.15-.37.51.51,0,0,1,.39-.17.5.5,0,0,1,.38.17.49.49,0,0,1,.16.37v1.52l-.42.64a2.4,2.4,0,0,1,.37-1.1,3.71,3.71,0,0,1,.86-1,4,4,0,0,1,1.16-.66A3.39,3.39,0,0,1,186.05,35Z"/><path class="cls-9" d="M198.22,43.84a.52.52,0,0,1-.16.38.55.55,0,0,1-.38.16.57.57,0,0,1-.39-.16.55.55,0,0,1-.15-.38V31.6a.55.55,0,0,1,.16-.38.52.52,0,0,1,.38-.16.5.5,0,0,1,.39.16.54.54,0,0,1,.15.38Z"/><path class="cls-9" d="M209.52,39.77a5,5,0,0,1-.6,2.46,4.7,4.7,0,0,1-1.63,1.71,4.65,4.65,0,0,1-4.64,0A4.64,4.64,0,0,1,201,42.23a5.36,5.36,0,0,1,0-4.93,4.64,4.64,0,0,1,1.64-1.71,4.59,4.59,0,0,1,4.64,0,4.7,4.7,0,0,1,1.63,1.71A5,5,0,0,1,209.52,39.77Zm-1.08,0a4.12,4.12,0,0,0-.45-2,3.49,3.49,0,0,0-1.23-1.35A3.3,3.3,0,0,0,205,36a3.27,3.27,0,0,0-1.78.5A3.59,3.59,0,0,0,202,37.82a4,4,0,0,0-.46,2,4,4,0,0,0,.46,1.94,3.56,3.56,0,0,0,1.24,1.34,3.27,3.27,0,0,0,1.78.5,3.3,3.3,0,0,0,1.79-.5A3.46,3.46,0,0,0,208,41.71,4.05,4.05,0,0,0,208.44,39.77Z"/><path class="cls-9" d="M211,42.92a.73.73,0,0,1-.14-.42.44.44,0,0,1,.23-.34.41.41,0,0,1,.33-.1.52.52,0,0,1,.35.18,3.94,3.94,0,0,0,1.18,1,3.3,3.3,0,0,0,1.65.39,3.14,3.14,0,0,0,1-.17,2,2,0,0,0,.82-.52,1.3,1.3,0,0,0,.32-.89,1.25,1.25,0,0,0-.32-.9,2.26,2.26,0,0,0-.84-.54,8.19,8.19,0,0,0-1.09-.35,11.74,11.74,0,0,1-1.19-.37,3.85,3.85,0,0,1-1-.52,2.45,2.45,0,0,1-.71-.76,2.11,2.11,0,0,1-.27-1.1,2.19,2.19,0,0,1,.41-1.33,2.7,2.7,0,0,1,1.12-.9,3.84,3.84,0,0,1,1.62-.33,4.35,4.35,0,0,1,1,.12,4,4,0,0,1,1,.39,2.88,2.88,0,0,1,.9.74.49.49,0,0,1,.17.36.47.47,0,0,1-.18.37.51.51,0,0,1-.34.11.41.41,0,0,1-.31-.14,2.8,2.8,0,0,0-1-.74,3.18,3.18,0,0,0-1.28-.25,2.7,2.7,0,0,0-1,.17,1.83,1.83,0,0,0-.76.51,1.28,1.28,0,0,0-.31.9,1.31,1.31,0,0,0,.37.85,2.87,2.87,0,0,0,.88.54,12.21,12.21,0,0,0,1.24.39,9.42,9.42,0,0,1,1.1.35,3.63,3.63,0,0,1,.94.49,2.35,2.35,0,0,1,.65.75,2.39,2.39,0,0,1,.24,1.13,2.2,2.2,0,0,1-.44,1.37,2.85,2.85,0,0,1-1.18.88,4.13,4.13,0,0,1-1.64.31,4.89,4.89,0,0,1-1.88-.38A4.06,4.06,0,0,1,211,42.92Z"/><path class="cls-9" d="M232.32,35.18a.49.49,0,0,1,.38.16.54.54,0,0,1,.16.4v8.1a.53.53,0,0,1-.17.38.52.52,0,0,1-.37.16.51.51,0,0,1-.54-.54V41.7l.3-.15a2.13,2.13,0,0,1-.28,1,3.61,3.61,0,0,1-.76,1,4,4,0,0,1-1.14.73,3.76,3.76,0,0,1-1.43.28,3.86,3.86,0,0,1-2.17-.63,4.34,4.34,0,0,1-1.52-1.73,5.5,5.5,0,0,1-.55-2.47,5.29,5.29,0,0,1,.56-2.47,4.27,4.27,0,0,1,1.52-1.68,3.92,3.92,0,0,1,4.77.39,3.58,3.58,0,0,1,.79,1.07,2.9,2.9,0,0,1,.29,1.25l-.38-.27V35.74a.56.56,0,0,1,.14-.4A.51.51,0,0,1,232.32,35.18Zm-3.75,8.37a3,3,0,0,0,1.7-.5,3.44,3.44,0,0,0,1.16-1.36,4.47,4.47,0,0,0,.42-2,4.21,4.21,0,0,0-.42-1.9,3.48,3.48,0,0,0-1.16-1.35,2.94,2.94,0,0,0-1.7-.51,3,3,0,0,0-1.68.49,3.29,3.29,0,0,0-1.17,1.33,4.29,4.29,0,0,0-.42,1.94,4.61,4.61,0,0,0,.41,2,3.29,3.29,0,0,0,1.16,1.36A3,3,0,0,0,228.57,43.55Z"/><path class="cls-9" d="M236.65,43.84a.52.52,0,0,1-.16.38.55.55,0,0,1-.38.16.57.57,0,0,1-.39-.16.55.55,0,0,1-.15-.38V31.6a.55.55,0,0,1,.16-.38.52.52,0,0,1,.38-.16.5.5,0,0,1,.39.16.54.54,0,0,1,.15.38Z"/><path class="cls-9" d="M239.9,33.81a.84.84,0,0,1-.57-.17.61.61,0,0,1-.19-.49V33a.6.6,0,0,1,.21-.5.85.85,0,0,1,.56-.17.77.77,0,0,1,.53.17.62.62,0,0,1,.19.5v.18a.61.61,0,0,1-.19.49A.78.78,0,0,1,239.9,33.81Zm.54,10a.53.53,0,0,1-.17.38.52.52,0,0,1-.37.16.53.53,0,0,1-.39-.16.55.55,0,0,1-.15-.38V35.56a.54.54,0,0,1,.15-.38.5.5,0,0,1,.39-.16.49.49,0,0,1,.38.16.51.51,0,0,1,.16.38Z"/><path class="cls-9" d="M247.23,35.11a3.14,3.14,0,0,1,1.91.58,3,3,0,0,1,1.08,1.74l-.25.07.1-.32a2.94,2.94,0,0,1,.79-1,4.27,4.27,0,0,1,1.25-.76,3.57,3.57,0,0,1,1.42-.29,3.17,3.17,0,0,1,1.83.48,2.79,2.79,0,0,1,1,1.31,5.07,5.07,0,0,1,.32,1.84v5.1a.53.53,0,0,1-.54.54.53.53,0,0,1-.39-.16.55.55,0,0,1-.15-.38v-5a3.9,3.9,0,0,0-.23-1.35,2.13,2.13,0,0,0-.74-1,2.29,2.29,0,0,0-1.35-.36,3.08,3.08,0,0,0-2.51,1.33,2.28,2.28,0,0,0-.43,1.35v5a.55.55,0,0,1-.15.38.53.53,0,0,1-.39.16.53.53,0,0,1-.38-.16.52.52,0,0,1-.16-.38v-5.1a4,4,0,0,0-.21-1.33,2,2,0,0,0-.7-.94,2.2,2.2,0,0,0-1.32-.35,2.81,2.81,0,0,0-1.39.35,3,3,0,0,0-1.07.94,2.31,2.31,0,0,0-.4,1.33v5.1a.52.52,0,0,1-.16.38.57.57,0,0,1-.38.16.54.54,0,0,1-.4-.16.59.59,0,0,1-.14-.38V35.77a.51.51,0,0,1,.15-.37.51.51,0,0,1,.39-.17.52.52,0,0,1,.39.17.51.51,0,0,1,.15.37v1.68l-.49.66A3,3,0,0,1,244,37a3.62,3.62,0,0,1,.79-1,3.79,3.79,0,0,1,1.1-.69A3.26,3.26,0,0,1,247.23,35.11Z"/><path class="cls-9" d="M263.47,44.56A4.91,4.91,0,0,1,261,44a4.16,4.16,0,0,1-1.65-1.65,5,5,0,0,1-.6-2.49,5.3,5.3,0,0,1,.61-2.61,4.39,4.39,0,0,1,1.56-1.66A3.92,3.92,0,0,1,263,35a4.45,4.45,0,0,1,1.53.28,3.92,3.92,0,0,1,1.33.83,4.34,4.34,0,0,1,.93,1.34,4.57,4.57,0,0,1,.38,1.84.5.5,0,0,1-.16.37.54.54,0,0,1-.38.15H259.4l-.21-1h7.09l-.23.21v-.36a2.79,2.79,0,0,0-.56-1.44,3.18,3.18,0,0,0-1.13-.9,3.17,3.17,0,0,0-2.48-.09,3,3,0,0,0-1,.68,3.4,3.4,0,0,0-.74,1.17,4.75,4.75,0,0,0,.14,3.61,3.41,3.41,0,0,0,1.24,1.37,3.71,3.71,0,0,0,2,.5,3.33,3.33,0,0,0,1.12-.18,3.16,3.16,0,0,0,.89-.48,3.45,3.45,0,0,0,.64-.62.59.59,0,0,1,.38-.16.45.45,0,0,1,.33.14.49.49,0,0,1,.14.33.51.51,0,0,1-.18.38,4.88,4.88,0,0,1-1.41,1.12A3.79,3.79,0,0,1,263.47,44.56Z"/><path class="cls-9" d="M273.6,35a3.32,3.32,0,0,1,1.9.48,2.65,2.65,0,0,1,1,1.3,5,5,0,0,1,.31,1.81v5.29a.52.52,0,0,1-.16.38.55.55,0,0,1-.38.16.52.52,0,0,1-.39-.16.55.55,0,0,1-.15-.38V38.6a3.43,3.43,0,0,0-.23-1.31,2.06,2.06,0,0,0-.76-1,2.46,2.46,0,0,0-1.4-.36,3.13,3.13,0,0,0-1.47.36,3.17,3.17,0,0,0-1.12,1,2.14,2.14,0,0,0-.43,1.31v5.24a.53.53,0,0,1-.17.38.52.52,0,0,1-.37.16.51.51,0,0,1-.54-.54V35.77a.51.51,0,0,1,.15-.37.51.51,0,0,1,.39-.17.5.5,0,0,1,.38.17.49.49,0,0,1,.16.37v1.52l-.42.64a2.4,2.4,0,0,1,.37-1.1,3.71,3.71,0,0,1,.86-1,4,4,0,0,1,1.16-.66A3.39,3.39,0,0,1,273.6,35Z"/><path class="cls-9" d="M278.7,35.22h4.2a.49.49,0,0,1,.36.15.53.53,0,0,1,.14.37.49.49,0,0,1-.14.34.48.48,0,0,1-.36.14h-4.2a.53.53,0,0,1-.37-.15.49.49,0,0,1-.15-.35.49.49,0,0,1,.15-.36A.52.52,0,0,1,278.7,35.22Zm1.86-2.54a.49.49,0,0,1,.38.16.51.51,0,0,1,.16.38v9a1.67,1.67,0,0,0,.13.76.65.65,0,0,0,.35.33,1.12,1.12,0,0,0,.43.08.77.77,0,0,0,.27,0,.67.67,0,0,1,.26-.05.41.41,0,0,1,.28.13.48.48,0,0,1,.11.32.49.49,0,0,1-.29.43,1.34,1.34,0,0,1-.68.17l-.49,0a1.78,1.78,0,0,1-.66-.2,1.28,1.28,0,0,1-.57-.6,2.75,2.75,0,0,1-.22-1.24V33.22a.54.54,0,0,1,.15-.38A.5.5,0,0,1,280.56,32.68Z"/><path class="cls-9" d="M293.29,39.77a5,5,0,0,1-.61,2.46,4.54,4.54,0,0,1-1.63,1.71,4.63,4.63,0,0,1-4.63,0,4.57,4.57,0,0,1-1.64-1.71,5.36,5.36,0,0,1,0-4.93,4.57,4.57,0,0,1,1.64-1.71,4.57,4.57,0,0,1,4.63,0,4.54,4.54,0,0,1,1.63,1.71A5,5,0,0,1,293.29,39.77Zm-1.08,0a4.12,4.12,0,0,0-.45-2,3.51,3.51,0,0,0-1.24-1.35,3.28,3.28,0,0,0-1.79-.5,3.24,3.24,0,0,0-1.77.5,3.51,3.51,0,0,0-1.24,1.35,4,4,0,0,0-.46,2,4,4,0,0,0,.46,1.94A3.48,3.48,0,0,0,287,43.05a3.24,3.24,0,0,0,1.77.5,3.28,3.28,0,0,0,1.79-.5,3.48,3.48,0,0,0,1.24-1.34A4.05,4.05,0,0,0,292.21,39.77Z"/><path class="cls-9" d="M294.74,42.92a.73.73,0,0,1-.14-.42.42.42,0,0,1,.23-.34.39.39,0,0,1,.33-.1.54.54,0,0,1,.35.18,3.94,3.94,0,0,0,1.18,1,3.3,3.3,0,0,0,1.65.39,3.18,3.18,0,0,0,1-.17,2,2,0,0,0,.82-.52,1.3,1.3,0,0,0,.32-.89,1.25,1.25,0,0,0-.32-.9,2.26,2.26,0,0,0-.84-.54,8.69,8.69,0,0,0-1.09-.35A11.74,11.74,0,0,1,297,39.9a4.08,4.08,0,0,1-1-.52,2.57,2.57,0,0,1-.71-.76,2.11,2.11,0,0,1-.27-1.1,2.2,2.2,0,0,1,.42-1.33,2.64,2.64,0,0,1,1.12-.9,3.8,3.8,0,0,1,1.61-.33,4.44,4.44,0,0,1,1,.12,4.12,4.12,0,0,1,1,.39,2.88,2.88,0,0,1,.9.74.48.48,0,0,1,.16.36.49.49,0,0,1-.51.48.4.4,0,0,1-.31-.14,2.8,2.8,0,0,0-1-.74,3.21,3.21,0,0,0-1.28-.25,2.66,2.66,0,0,0-1,.17,1.76,1.76,0,0,0-.76.51,1.28,1.28,0,0,0-.31.9,1.26,1.26,0,0,0,.37.85,2.75,2.75,0,0,0,.88.54,12.82,12.82,0,0,0,1.23.39,9,9,0,0,1,1.11.35,3.8,3.8,0,0,1,.94.49,2.21,2.21,0,0,1,.64.75,2.28,2.28,0,0,1,.25,1.13,2.2,2.2,0,0,1-.44,1.37,2.85,2.85,0,0,1-1.18.88,4.13,4.13,0,0,1-1.64.31,4.86,4.86,0,0,1-1.88-.38A4,4,0,0,1,294.74,42.92Z"/><path class="cls-9" d="M312.7,44.56a4.91,4.91,0,0,1-2.45-.6,4.1,4.1,0,0,1-1.65-1.65,5,5,0,0,1-.6-2.49,5.19,5.19,0,0,1,.61-2.61,4.39,4.39,0,0,1,1.56-1.66,3.87,3.87,0,0,1,2.05-.59,4.45,4.45,0,0,1,1.53.28,3.92,3.92,0,0,1,1.33.83,4.34,4.34,0,0,1,.93,1.34,4.57,4.57,0,0,1,.38,1.84.5.5,0,0,1-.16.37.55.55,0,0,1-.38.15h-7.22l-.21-1h7.09l-.24.21v-.36a2.78,2.78,0,0,0-.55-1.44,3.14,3.14,0,0,0-2.5-1.2,3.2,3.2,0,0,0-1.11.21,3,3,0,0,0-1,.68,3.57,3.57,0,0,0-.75,1.17,4.48,4.48,0,0,0-.28,1.68,4.24,4.24,0,0,0,.43,1.93,3.41,3.41,0,0,0,1.24,1.37,3.68,3.68,0,0,0,2,.5,3.22,3.22,0,0,0,2-.66,3.45,3.45,0,0,0,.64-.62.59.59,0,0,1,.38-.16.45.45,0,0,1,.33.14.49.49,0,0,1,.14.33A.52.52,0,0,1,316,43a4.7,4.7,0,0,1-1.4,1.12A3.79,3.79,0,0,1,312.7,44.56Z"/><path class="cls-9" d="M322.83,35a3.32,3.32,0,0,1,1.9.48,2.65,2.65,0,0,1,1,1.3,5,5,0,0,1,.31,1.81v5.29a.52.52,0,0,1-.16.38.55.55,0,0,1-.38.16.52.52,0,0,1-.39-.16.55.55,0,0,1-.15-.38V38.6a3.43,3.43,0,0,0-.23-1.31,2,2,0,0,0-.77-1A2.41,2.41,0,0,0,322.6,36a3.13,3.13,0,0,0-1.47.36,3.17,3.17,0,0,0-1.12,1,2.14,2.14,0,0,0-.43,1.31v5.24a.53.53,0,0,1-.17.38.52.52,0,0,1-.37.16.51.51,0,0,1-.54-.54V35.77a.51.51,0,0,1,.15-.37.51.51,0,0,1,.39-.17.5.5,0,0,1,.38.17.52.52,0,0,1,.16.37v1.52l-.42.64a2.4,2.4,0,0,1,.37-1.1,3.71,3.71,0,0,1,.86-1,4,4,0,0,1,1.16-.66A3.39,3.39,0,0,1,322.83,35Z"/><path class="cls-9" d="M340.69,35.23a.52.52,0,0,1,.39.17.51.51,0,0,1,.15.37v5.08a3.55,3.55,0,0,1-1,2.72,3.85,3.85,0,0,1-2.72.93,3.81,3.81,0,0,1-2.69-.93,3.58,3.58,0,0,1-1-2.72V35.77a.49.49,0,0,1,.16-.37.5.5,0,0,1,.38-.17.51.51,0,0,1,.39.17.51.51,0,0,1,.15.37v5.08a2.4,2.4,0,0,0,2.61,2.65,2.71,2.71,0,0,0,1.95-.68,2.6,2.6,0,0,0,.7-2V35.77a.55.55,0,0,1,.14-.37A.51.51,0,0,1,340.69,35.23Z"/><path class="cls-9" d="M348.2,35a3.36,3.36,0,0,1,1.9.48,2.69,2.69,0,0,1,1,1.3,5,5,0,0,1,.32,1.81v5.29a.53.53,0,0,1-.17.38.52.52,0,0,1-.37.16.51.51,0,0,1-.54-.54V38.6a3.43,3.43,0,0,0-.24-1.31,2,2,0,0,0-.76-1A2.46,2.46,0,0,0,348,36a3.26,3.26,0,0,0-2.59,1.32,2.14,2.14,0,0,0-.43,1.31v5.24a.52.52,0,0,1-.16.38.57.57,0,0,1-.38.16.54.54,0,0,1-.4-.16.59.59,0,0,1-.14-.38V35.77a.51.51,0,0,1,.15-.37.51.51,0,0,1,.39-.17.52.52,0,0,1,.39.17.51.51,0,0,1,.15.37v1.52l-.42.64a2.4,2.4,0,0,1,.37-1.1,3.9,3.9,0,0,1,.86-1,4.15,4.15,0,0,1,1.16-.66A3.48,3.48,0,0,1,348.2,35Z"/><path class="cls-9" d="M361.6,35.18a.5.5,0,0,1,.39.16.57.57,0,0,1,.15.4v8.1a.52.52,0,0,1-.16.38.55.55,0,0,1-.38.16.52.52,0,0,1-.39-.16.55.55,0,0,1-.15-.38V41.7l.31-.15a2.13,2.13,0,0,1-.28,1,3.82,3.82,0,0,1-.76,1,4.1,4.1,0,0,1-1.15.73,3.68,3.68,0,0,1-1.43.28,3.91,3.91,0,0,1-2.17-.63,4.39,4.39,0,0,1-1.51-1.73,5.5,5.5,0,0,1-.55-2.47,5.29,5.29,0,0,1,.56-2.47,4.25,4.25,0,0,1,1.51-1.68,4,4,0,0,1,3.59-.35,3.75,3.75,0,0,1,1.18.74,3.42,3.42,0,0,1,.79,1.07,2.76,2.76,0,0,1,.29,1.25l-.38-.27V35.74a.57.57,0,0,1,.15-.4A.48.48,0,0,1,361.6,35.18Zm-3.74,8.37a3,3,0,0,0,1.69-.5,3.37,3.37,0,0,0,1.16-1.36,4.34,4.34,0,0,0,.43-2,4.09,4.09,0,0,0-.43-1.9,3.4,3.4,0,0,0-1.16-1.35,2.88,2.88,0,0,0-1.69-.51,3,3,0,0,0-1.68.49A3.29,3.29,0,0,0,355,37.79a4.3,4.3,0,0,0-.43,1.94,4.47,4.47,0,0,0,.42,2,3.22,3.22,0,0,0,1.16,1.36A3,3,0,0,0,357.86,43.55Z"/><path class="cls-9" d="M374,35.11a3.12,3.12,0,0,1,1.91.58A2.94,2.94,0,0,1,377,37.43l-.25.07.11-.32a2.9,2.9,0,0,1,.78-1,4.41,4.41,0,0,1,1.25-.76,3.57,3.57,0,0,1,1.42-.29,3.15,3.15,0,0,1,1.83.48,2.81,2.81,0,0,1,1,1.31,5.07,5.07,0,0,1,.31,1.84v5.1a.55.55,0,0,1-.15.38.53.53,0,0,1-.39.16.53.53,0,0,1-.38-.16.52.52,0,0,1-.16-.38v-5a3.68,3.68,0,0,0-.23-1.35,2.06,2.06,0,0,0-.74-1,2.25,2.25,0,0,0-1.35-.36,3,3,0,0,0-1.41.36,3,3,0,0,0-1.1,1,2.34,2.34,0,0,0-.42,1.35v5a.55.55,0,0,1-.15.38.57.57,0,0,1-.39.16.53.53,0,0,1-.39-.16.55.55,0,0,1-.15-.38v-5.1a3.75,3.75,0,0,0-.22-1.33,2,2,0,0,0-.7-.94,2.14,2.14,0,0,0-1.31-.35,2.85,2.85,0,0,0-1.4.35,2.92,2.92,0,0,0-1.06.94,2.32,2.32,0,0,0-.41,1.33v5.1a.52.52,0,0,1-.16.38.55.55,0,0,1-.38.16.52.52,0,0,1-.39-.16.55.55,0,0,1-.15-.38V35.77a.52.52,0,0,1,.16-.37.5.5,0,0,1,.38-.17.51.51,0,0,1,.39.17.51.51,0,0,1,.15.37v1.68l-.48.66a2.68,2.68,0,0,1,.35-1.08,3.78,3.78,0,0,1,.78-1,4,4,0,0,1,1.11-.69A3.21,3.21,0,0,1,374,35.11Z"/><path class="cls-9" d="M393.65,35.18a.5.5,0,0,1,.39.16.57.57,0,0,1,.15.4v8.1a.52.52,0,0,1-.16.38.55.55,0,0,1-.38.16.5.5,0,0,1-.39-.16.55.55,0,0,1-.15-.38V41.7l.31-.15a2.25,2.25,0,0,1-.28,1,3.66,3.66,0,0,1-.77,1,3.91,3.91,0,0,1-1.14.73,3.76,3.76,0,0,1-1.43.28,3.88,3.88,0,0,1-2.17-.63,4.31,4.31,0,0,1-1.51-1.73,5.37,5.37,0,0,1-.55-2.47,5.29,5.29,0,0,1,.56-2.47,4.18,4.18,0,0,1,1.51-1.68,3.92,3.92,0,0,1,4.77.39A3.58,3.58,0,0,1,393.2,37a2.9,2.9,0,0,1,.29,1.25l-.38-.27V35.74a.57.57,0,0,1,.15-.4A.47.47,0,0,1,393.65,35.18Zm-3.74,8.37a3,3,0,0,0,1.69-.5,3.37,3.37,0,0,0,1.16-1.36,4.47,4.47,0,0,0,.42-2,4.21,4.21,0,0,0-.42-1.9,3.4,3.4,0,0,0-1.16-1.35,2.91,2.91,0,0,0-1.69-.51,3,3,0,0,0-1.69.49,3.44,3.44,0,0,0-1.17,1.33,4.29,4.29,0,0,0-.42,1.94,4.47,4.47,0,0,0,.42,2,3.22,3.22,0,0,0,1.16,1.36A3,3,0,0,0,389.91,43.55Z"/><path class="cls-9" d="M396.31,42.92a.66.66,0,0,1-.14-.42.42.42,0,0,1,.23-.34.39.39,0,0,1,.33-.1.57.57,0,0,1,.35.18,3.82,3.82,0,0,0,1.18,1,3.29,3.29,0,0,0,1.64.39,3.14,3.14,0,0,0,1-.17,1.93,1.93,0,0,0,.82-.52,1.26,1.26,0,0,0,.33-.89,1.22,1.22,0,0,0-.33-.9,2.14,2.14,0,0,0-.83-.54,9.25,9.25,0,0,0-1.09-.35,11,11,0,0,1-1.19-.37,3.91,3.91,0,0,1-1-.52,2.57,2.57,0,0,1-.71-.76,2.11,2.11,0,0,1-.27-1.1,2.26,2.26,0,0,1,.41-1.33,2.73,2.73,0,0,1,1.13-.9,3.77,3.77,0,0,1,1.61-.33,4.35,4.35,0,0,1,1,.12,4.18,4.18,0,0,1,1,.39,3,3,0,0,1,.9.74.48.48,0,0,1,.16.36.47.47,0,0,1-.18.37.51.51,0,0,1-.33.11.43.43,0,0,1-.32-.14,2.85,2.85,0,0,0-1-.74,3.21,3.21,0,0,0-1.28-.25,2.62,2.62,0,0,0-1,.17,1.86,1.86,0,0,0-.77.51,1.32,1.32,0,0,0-.3.9,1.22,1.22,0,0,0,.37.85,2.75,2.75,0,0,0,.88.54,11.24,11.24,0,0,0,1.23.39,10.23,10.23,0,0,1,1.11.35,3.73,3.73,0,0,1,.93.49,2.24,2.24,0,0,1,.65.75,2.39,2.39,0,0,1,.25,1.13,2.15,2.15,0,0,1-.45,1.37,2.75,2.75,0,0,1-1.17.88,4.17,4.17,0,0,1-1.64.31,4.86,4.86,0,0,1-1.88-.38A3.93,3.93,0,0,1,396.31,42.92Z"/><path class="cls-9" d="M412.61,35.18a.5.5,0,0,1,.39.16.57.57,0,0,1,.15.4v8.1a.52.52,0,0,1-.16.38.57.57,0,0,1-.38.16.54.54,0,0,1-.4-.16.59.59,0,0,1-.14-.38V41.7l.31-.15a2.25,2.25,0,0,1-.28,1,3.66,3.66,0,0,1-.77,1,3.91,3.91,0,0,1-1.14.73,3.76,3.76,0,0,1-1.43.28,3.86,3.86,0,0,1-2.17-.63,4.31,4.31,0,0,1-1.51-1.73,5.37,5.37,0,0,1-.55-2.47,5.17,5.17,0,0,1,.56-2.47,4.18,4.18,0,0,1,1.51-1.68,3.92,3.92,0,0,1,4.77.39,3.58,3.58,0,0,1,.79,1.07,2.9,2.9,0,0,1,.29,1.25l-.38-.27V35.74a.61.61,0,0,1,.14-.4A.51.51,0,0,1,412.61,35.18Zm-3.74,8.37a3,3,0,0,0,1.69-.5,3.37,3.37,0,0,0,1.16-1.36,4.47,4.47,0,0,0,.42-2,4.21,4.21,0,0,0-.42-1.9,3.4,3.4,0,0,0-1.16-1.35,2.91,2.91,0,0,0-1.69-.51,3,3,0,0,0-1.69.49A3.44,3.44,0,0,0,406,37.79a4.29,4.29,0,0,0-.42,1.94,4.61,4.61,0,0,0,.41,2,3.31,3.31,0,0,0,1.17,1.36A3,3,0,0,0,408.87,43.55Z"/><path class="cls-9" d="M19.3,55a6.52,6.52,0,0,1,1.58.19,3.38,3.38,0,0,1,1.16.52.87.87,0,0,1,.44.7.54.54,0,0,1-.13.35.42.42,0,0,1-.33.17.58.58,0,0,1-.37-.11,1.52,1.52,0,0,1-.26-.25,1.16,1.16,0,0,0-.38-.27,3.35,3.35,0,0,0-.68-.2,4.88,4.88,0,0,0-1-.09,3.35,3.35,0,0,0-1.82.51,3.51,3.51,0,0,0-1.27,1.35,3.85,3.85,0,0,0-.47,1.92,4.3,4.3,0,0,0,.44,2,3.37,3.37,0,0,0,1.24,1.35,3.46,3.46,0,0,0,1.85.5,3.69,3.69,0,0,0,1.12-.13,3.41,3.41,0,0,0,.68-.28,2,2,0,0,0,.51-.39.48.48,0,0,1,.4-.19.46.46,0,0,1,.35.13.52.52,0,0,1,.12.36q0,.29-.42.63a3.79,3.79,0,0,1-1.16.62,5.21,5.21,0,0,1-1.71.26,4.37,4.37,0,0,1-2.35-.63,4.23,4.23,0,0,1-1.58-1.72,5.25,5.25,0,0,1-.57-2.46,5.05,5.05,0,0,1,.57-2.39,4.64,4.64,0,0,1,1.61-1.74A4.33,4.33,0,0,1,19.3,55Z"/><path class="cls-9" d="M32.72,59.77a4.93,4.93,0,0,1-.61,2.46,4.54,4.54,0,0,1-1.63,1.71,4.63,4.63,0,0,1-4.63,0,4.57,4.57,0,0,1-1.64-1.71,5.36,5.36,0,0,1,0-4.93,4.57,4.57,0,0,1,1.64-1.71,4.57,4.57,0,0,1,4.63,0,4.54,4.54,0,0,1,1.63,1.71A4.92,4.92,0,0,1,32.72,59.77Zm-1.08,0a4.12,4.12,0,0,0-.45-2A3.44,3.44,0,0,0,30,56.47a3.28,3.28,0,0,0-1.79-.5,3.24,3.24,0,0,0-1.77.5,3.51,3.51,0,0,0-1.24,1.35,4,4,0,0,0-.46,2,4,4,0,0,0,.46,1.94,3.48,3.48,0,0,0,1.24,1.34,3.24,3.24,0,0,0,1.77.5,3.28,3.28,0,0,0,1.79-.5,3.41,3.41,0,0,0,1.24-1.34A4.05,4.05,0,0,0,31.64,59.77Z"/><path class="cls-9" d="M39.17,55a3.34,3.34,0,0,1,1.9.48,2.71,2.71,0,0,1,1,1.3,5,5,0,0,1,.31,1.81v5.29a.52.52,0,0,1-.16.38.57.57,0,0,1-.38.16.5.5,0,0,1-.39-.16.55.55,0,0,1-.15-.38V58.6a3.64,3.64,0,0,0-.23-1.31,2,2,0,0,0-.77-1A2.43,2.43,0,0,0,38.94,56a3.13,3.13,0,0,0-1.47.36,3.2,3.2,0,0,0-1.13,1,2.21,2.21,0,0,0-.43,1.31v5.24a.52.52,0,0,1-.16.38.55.55,0,0,1-.38.16.5.5,0,0,1-.39-.16.55.55,0,0,1-.15-.38V55.77A.49.49,0,0,1,35,55.4a.5.5,0,0,1,.38-.17.51.51,0,0,1,.39.17.51.51,0,0,1,.15.37v1.52l-.41.64a2.29,2.29,0,0,1,.37-1.1,3.67,3.67,0,0,1,.85-1,4.3,4.3,0,0,1,1.16-.66A3.48,3.48,0,0,1,39.17,55Z"/><path class="cls-9" d="M53.57,59.77a5,5,0,0,1-.6,2.46,4.54,4.54,0,0,1-1.63,1.71,4.63,4.63,0,0,1-4.63,0,4.57,4.57,0,0,1-1.64-1.71,5.36,5.36,0,0,1,0-4.93,4.57,4.57,0,0,1,1.64-1.71,4.57,4.57,0,0,1,4.63,0A4.54,4.54,0,0,1,53,57.3,5,5,0,0,1,53.57,59.77Zm-1.08,0a4.12,4.12,0,0,0-.45-2,3.49,3.49,0,0,0-1.23-1.35A3.28,3.28,0,0,0,49,56a3.24,3.24,0,0,0-1.77.5A3.62,3.62,0,0,0,46,57.82a4.12,4.12,0,0,0-.45,2A4.05,4.05,0,0,0,46,61.71a3.59,3.59,0,0,0,1.25,1.34,3.24,3.24,0,0,0,1.77.5,3.28,3.28,0,0,0,1.79-.5A3.46,3.46,0,0,0,52,61.71,4.05,4.05,0,0,0,52.49,59.77Z"/><path class="cls-9" d="M59.73,55a6.45,6.45,0,0,1,1.58.19,3.38,3.38,0,0,1,1.16.52.88.88,0,0,1,.45.7.56.56,0,0,1-.14.35.42.42,0,0,1-.33.17.58.58,0,0,1-.37-.11,1.52,1.52,0,0,1-.26-.25,1.16,1.16,0,0,0-.38-.27,3.35,3.35,0,0,0-.68-.2,4.88,4.88,0,0,0-1-.09,3.32,3.32,0,0,0-1.81.51,3.54,3.54,0,0,0-1.28,1.35,4,4,0,0,0-.47,1.92,4.3,4.3,0,0,0,.44,2,3.37,3.37,0,0,0,1.24,1.35,3.46,3.46,0,0,0,1.85.5,3.69,3.69,0,0,0,1.12-.13,3.41,3.41,0,0,0,.68-.28,2,2,0,0,0,.51-.39.49.49,0,0,1,.41-.19.45.45,0,0,1,.34.13.52.52,0,0,1,.12.36q0,.29-.42.63a3.79,3.79,0,0,1-1.16.62,5.21,5.21,0,0,1-1.71.26,4.37,4.37,0,0,1-2.35-.63,4.23,4.23,0,0,1-1.58-1.72,5.25,5.25,0,0,1-.57-2.46,4.94,4.94,0,0,1,.58-2.39,4.54,4.54,0,0,1,1.6-1.74A4.35,4.35,0,0,1,59.73,55Z"/><path class="cls-9" d="M65.25,53.81a.81.81,0,0,1-.56-.17.61.61,0,0,1-.19-.49V53a.63.63,0,0,1,.2-.5.9.9,0,0,1,.57-.17.77.77,0,0,1,.53.17A.62.62,0,0,1,66,53v.18a.61.61,0,0,1-.19.49A.8.8,0,0,1,65.25,53.81Zm.54,10a.52.52,0,0,1-.16.38.55.55,0,0,1-.38.16.53.53,0,0,1-.38-.16.52.52,0,0,1-.16-.38V55.56a.51.51,0,0,1,.16-.38.49.49,0,0,1,.38-.16.5.5,0,0,1,.39.16.54.54,0,0,1,.15.38Z"/><path class="cls-9" d="M76,51.06a.51.51,0,0,1,.54.54V63.84a.52.52,0,0,1-.16.38.55.55,0,0,1-.38.16.5.5,0,0,1-.39-.16.55.55,0,0,1-.15-.38V61.7l.31-.26a2.41,2.41,0,0,1-.27,1.06,3.62,3.62,0,0,1-.77,1,3.78,3.78,0,0,1-1.15.76,3.55,3.55,0,0,1-1.43.29A3.84,3.84,0,0,1,70,63.93a4.42,4.42,0,0,1-1.52-1.71,5.71,5.71,0,0,1,0-4.93,4.48,4.48,0,0,1,1.51-1.71A3.88,3.88,0,0,1,72.08,55a3.79,3.79,0,0,1,1.43.27,3.94,3.94,0,0,1,1.17.74A3.33,3.33,0,0,1,75.49,57a2.77,2.77,0,0,1,.3,1.25L75.41,58V51.6a.54.54,0,0,1,.15-.38A.47.47,0,0,1,76,51.06ZM72.21,63.55a3,3,0,0,0,1.69-.5,3.4,3.4,0,0,0,1.16-1.35,4.37,4.37,0,0,0,.42-2,4.31,4.31,0,0,0-.42-1.93,3.4,3.4,0,0,0-1.16-1.35,3.09,3.09,0,0,0-3.37,0,3.35,3.35,0,0,0-1.17,1.35,4.18,4.18,0,0,0-.43,1.93,4.3,4.3,0,0,0,.43,2,3.35,3.35,0,0,0,1.17,1.35A2.94,2.94,0,0,0,72.21,63.55Z"/><path class="cls-9" d="M86.7,55.18a.51.51,0,0,1,.39.16.57.57,0,0,1,.15.4v8.1a.52.52,0,0,1-.16.38.57.57,0,0,1-.38.16.54.54,0,0,1-.4-.16.59.59,0,0,1-.14-.38V61.7l.31-.15a2.25,2.25,0,0,1-.28,1,3.66,3.66,0,0,1-.77,1,3.91,3.91,0,0,1-1.14.73,3.76,3.76,0,0,1-1.43.28,3.86,3.86,0,0,1-2.17-.63,4.31,4.31,0,0,1-1.51-1.73,5.37,5.37,0,0,1-.55-2.47,5.17,5.17,0,0,1,.56-2.47,4.18,4.18,0,0,1,1.51-1.68,3.92,3.92,0,0,1,4.77.39A3.58,3.58,0,0,1,86.25,57a2.9,2.9,0,0,1,.29,1.25L86.16,58V55.74a.61.61,0,0,1,.14-.4A.51.51,0,0,1,86.7,55.18ZM83,63.55a3,3,0,0,0,1.69-.5,3.37,3.37,0,0,0,1.16-1.36,4.47,4.47,0,0,0,.42-2,4.21,4.21,0,0,0-.42-1.9,3.4,3.4,0,0,0-1.16-1.35A2.91,2.91,0,0,0,83,56a3,3,0,0,0-1.69.49,3.37,3.37,0,0,0-1.17,1.33,4.29,4.29,0,0,0-.42,1.94,4.61,4.61,0,0,0,.41,2,3.31,3.31,0,0,0,1.17,1.36A3,3,0,0,0,83,63.55Z"/><path class="cls-9" d="M99,55a6.52,6.52,0,0,1,1.58.19,3.38,3.38,0,0,1,1.16.52.87.87,0,0,1,.44.7.54.54,0,0,1-.13.35.42.42,0,0,1-.33.17.58.58,0,0,1-.37-.11,1.52,1.52,0,0,1-.26-.25,1.16,1.16,0,0,0-.38-.27,3.35,3.35,0,0,0-.68-.2A4.88,4.88,0,0,0,99,56a3.35,3.35,0,0,0-1.82.51,3.51,3.51,0,0,0-1.27,1.35,3.85,3.85,0,0,0-.47,1.92,4.3,4.3,0,0,0,.44,2,3.37,3.37,0,0,0,1.24,1.35,3.44,3.44,0,0,0,1.85.5,3.69,3.69,0,0,0,1.12-.13,3.41,3.41,0,0,0,.68-.28,2,2,0,0,0,.51-.39.48.48,0,0,1,.4-.19.46.46,0,0,1,.35.13.52.52,0,0,1,.12.36q0,.29-.42.63a3.79,3.79,0,0,1-1.16.62,5.21,5.21,0,0,1-1.71.26,4.37,4.37,0,0,1-2.35-.63,4.23,4.23,0,0,1-1.58-1.72,5.25,5.25,0,0,1-.57-2.46,5.05,5.05,0,0,1,.57-2.39,4.64,4.64,0,0,1,1.61-1.74A4.33,4.33,0,0,1,99,55Z"/><path class="cls-9" d="M112.38,59.77a5,5,0,0,1-.61,2.46,4.54,4.54,0,0,1-1.63,1.71,4.63,4.63,0,0,1-4.63,0,4.57,4.57,0,0,1-1.64-1.71,5.36,5.36,0,0,1,0-4.93,4.57,4.57,0,0,1,1.64-1.71,4.57,4.57,0,0,1,4.63,0,4.54,4.54,0,0,1,1.63,1.71A5,5,0,0,1,112.38,59.77Zm-1.08,0a4.12,4.12,0,0,0-.45-2,3.51,3.51,0,0,0-1.24-1.35,3.28,3.28,0,0,0-1.79-.5,3.24,3.24,0,0,0-1.77.5,3.51,3.51,0,0,0-1.24,1.35,4,4,0,0,0-.46,2,4,4,0,0,0,.46,1.94,3.48,3.48,0,0,0,1.24,1.34,3.24,3.24,0,0,0,1.77.5,3.28,3.28,0,0,0,1.79-.5,3.48,3.48,0,0,0,1.24-1.34A4.05,4.05,0,0,0,111.3,59.77Z"/><path class="cls-9" d="M118.63,55.11a3.12,3.12,0,0,1,1.91.58,2.94,2.94,0,0,1,1.08,1.74l-.25.07.11-.32a2.79,2.79,0,0,1,.78-1,4.27,4.27,0,0,1,1.25-.76,3.57,3.57,0,0,1,1.42-.29,3.15,3.15,0,0,1,1.83.48,2.81,2.81,0,0,1,1,1.31,5.07,5.07,0,0,1,.31,1.84v5.1a.55.55,0,0,1-.15.38.53.53,0,0,1-.39.16.57.57,0,0,1-.39-.16.55.55,0,0,1-.15-.38v-5a3.9,3.9,0,0,0-.23-1.35,2.06,2.06,0,0,0-.74-1,2.29,2.29,0,0,0-1.35-.36,3,3,0,0,0-1.41.36,3,3,0,0,0-1.1,1,2.34,2.34,0,0,0-.42,1.35v5a.57.57,0,0,1-.16.38.53.53,0,0,1-.38.16.53.53,0,0,1-.39-.16.55.55,0,0,1-.15-.38v-5.1a4,4,0,0,0-.22-1.33,2,2,0,0,0-.7-.94,2.18,2.18,0,0,0-1.32-.35,2.84,2.84,0,0,0-1.39.35,2.92,2.92,0,0,0-1.06.94,2.32,2.32,0,0,0-.41,1.33v5.1a.52.52,0,0,1-.16.38.55.55,0,0,1-.38.16.5.5,0,0,1-.39-.16.55.55,0,0,1-.15-.38V55.77a.49.49,0,0,1,.16-.37.5.5,0,0,1,.38-.17.51.51,0,0,1,.39.17.51.51,0,0,1,.15.37v1.68l-.48.66a2.68,2.68,0,0,1,.35-1.08,3.78,3.78,0,0,1,.78-1,3.71,3.71,0,0,1,1.11-.69A3.21,3.21,0,0,1,118.63,55.11Z"/><path class="cls-9" d="M139.25,59.77a5,5,0,0,1-.6,2.46A4.54,4.54,0,0,1,137,63.94a4.63,4.63,0,0,1-4.63,0,4.57,4.57,0,0,1-1.64-1.71,5.36,5.36,0,0,1,0-4.93,4.57,4.57,0,0,1,1.64-1.71,4.57,4.57,0,0,1,4.63,0,4.54,4.54,0,0,1,1.63,1.71A5,5,0,0,1,139.25,59.77Zm-1.08,0a4.12,4.12,0,0,0-.45-2,3.49,3.49,0,0,0-1.23-1.35,3.28,3.28,0,0,0-1.79-.5,3.24,3.24,0,0,0-1.77.5,3.51,3.51,0,0,0-1.24,1.35,4,4,0,0,0-.46,2,4,4,0,0,0,.46,1.94,3.48,3.48,0,0,0,1.24,1.34,3.24,3.24,0,0,0,1.77.5,3.28,3.28,0,0,0,1.79-.5,3.46,3.46,0,0,0,1.23-1.34A4.05,4.05,0,0,0,138.17,59.77Z"/><path class="cls-9" d="M150.47,64.56A4.89,4.89,0,0,1,148,64a4.18,4.18,0,0,1-1.66-1.65,5.09,5.09,0,0,1-.59-2.49,5.3,5.3,0,0,1,.6-2.61,4.41,4.41,0,0,1,1.57-1.66,3.86,3.86,0,0,1,2-.59,4.51,4.51,0,0,1,1.54.28,3.79,3.79,0,0,1,1.32.83,4.2,4.2,0,0,1,.94,1.34,4.57,4.57,0,0,1,.38,1.84.54.54,0,0,1-.16.37.55.55,0,0,1-.38.15H146.4l-.22-1h7.1L153,59v-.36a2.7,2.7,0,0,0-.56-1.44,3.14,3.14,0,0,0-1.12-.9A3.3,3.3,0,0,0,150,56a3.11,3.11,0,0,0-1.1.21,3,3,0,0,0-1,.68,3.28,3.28,0,0,0-.75,1.17,4.47,4.47,0,0,0-.29,1.68,4.25,4.25,0,0,0,.44,1.93,3.34,3.34,0,0,0,1.24,1.37,3.68,3.68,0,0,0,2,.5,3.22,3.22,0,0,0,2-.66,3.45,3.45,0,0,0,.64-.62.57.57,0,0,1,.37-.16.46.46,0,0,1,.34.14.48.48,0,0,1,.13.33.51.51,0,0,1-.18.38,5,5,0,0,1-1.4,1.12A3.85,3.85,0,0,1,150.47,64.56Z"/><path class="cls-9" d="M157.4,63.84a.53.53,0,0,1-.17.38.52.52,0,0,1-.37.16.53.53,0,0,1-.39-.16.55.55,0,0,1-.15-.38V51.6a.55.55,0,0,1,.54-.54.49.49,0,0,1,.38.16.51.51,0,0,1,.16.38Z"/><path class="cls-9" d="M169.64,55a3.91,3.91,0,0,1,2.17.62,4.23,4.23,0,0,1,1.5,1.68,5.29,5.29,0,0,1,.56,2.47,5.38,5.38,0,0,1-.56,2.47,4.47,4.47,0,0,1-1.51,1.73,3.82,3.82,0,0,1-2.15.63,3.62,3.62,0,0,1-1.19-.2,4.09,4.09,0,0,1-1.87-1.31,3.86,3.86,0,0,1-.57-1l.32-.23v2a.51.51,0,0,1-.54.54.52.52,0,0,1-.38-.15.5.5,0,0,1-.16-.39V51.62a.53.53,0,0,1,.15-.39.5.5,0,0,1,.39-.15.51.51,0,0,1,.54.54v6l-.25-.15a3.54,3.54,0,0,1,.53-1,4.44,4.44,0,0,1,.82-.8,4,4,0,0,1,1-.53A3.77,3.77,0,0,1,169.64,55Zm-.09,1a3,3,0,0,0-1.71.49,3.27,3.27,0,0,0-1.16,1.33,4.17,4.17,0,0,0-.43,1.94,4.34,4.34,0,0,0,.43,2,3.29,3.29,0,0,0,1.16,1.36,3,3,0,0,0,1.71.5,2.94,2.94,0,0,0,1.68-.5,3.58,3.58,0,0,0,1.16-1.38,4.28,4.28,0,0,0,.43-1.94,4.17,4.17,0,0,0-.43-1.94,3.42,3.42,0,0,0-1.16-1.33A2.93,2.93,0,0,0,169.55,56Z"/><path class="cls-9" d="M184.56,59.77a5,5,0,0,1-.6,2.46,4.7,4.7,0,0,1-1.63,1.71,4.65,4.65,0,0,1-4.64,0,4.57,4.57,0,0,1-1.64-1.71,5.36,5.36,0,0,1,0-4.93,4.57,4.57,0,0,1,1.64-1.71,4.59,4.59,0,0,1,4.64,0A4.7,4.7,0,0,1,184,57.3,5,5,0,0,1,184.56,59.77Zm-1.08,0a4.12,4.12,0,0,0-.45-2,3.49,3.49,0,0,0-1.23-1.35A3.31,3.31,0,0,0,180,56a3.24,3.24,0,0,0-1.77.5A3.59,3.59,0,0,0,177,57.82a4,4,0,0,0-.46,2,4,4,0,0,0,.46,1.94,3.56,3.56,0,0,0,1.24,1.34,3.24,3.24,0,0,0,1.77.5,3.31,3.31,0,0,0,1.8-.5A3.46,3.46,0,0,0,183,61.71,4.05,4.05,0,0,0,183.48,59.77Z"/><path class="cls-9" d="M187.81,63.84a.52.52,0,0,1-.16.38.57.57,0,0,1-.38.16.53.53,0,0,1-.39-.16.55.55,0,0,1-.15-.38V51.6a.51.51,0,0,1,.16-.38.52.52,0,0,1,.38-.16.51.51,0,0,1,.39.16.54.54,0,0,1,.15.38Z"/><path class="cls-9" d="M199.11,59.77a5,5,0,0,1-.61,2.46,4.54,4.54,0,0,1-1.63,1.71,4.63,4.63,0,0,1-4.63,0,4.57,4.57,0,0,1-1.64-1.71,5.36,5.36,0,0,1,0-4.93,4.57,4.57,0,0,1,1.64-1.71,4.57,4.57,0,0,1,4.63,0,4.54,4.54,0,0,1,1.63,1.71A5,5,0,0,1,199.11,59.77Zm-1.08,0a4.12,4.12,0,0,0-.45-2,3.51,3.51,0,0,0-1.24-1.35,3.28,3.28,0,0,0-1.79-.5,3.24,3.24,0,0,0-1.77.5,3.51,3.51,0,0,0-1.24,1.35,4,4,0,0,0-.46,2,4,4,0,0,0,.46,1.94,3.48,3.48,0,0,0,1.24,1.34,3.24,3.24,0,0,0,1.77.5,3.28,3.28,0,0,0,1.79-.5,3.48,3.48,0,0,0,1.24-1.34A4.05,4.05,0,0,0,198,59.77Z"/><path class="cls-9" d="M213.7,55.18a.5.5,0,0,1,.39.16.57.57,0,0,1,.15.4v8.1a.52.52,0,0,1-.16.38.55.55,0,0,1-.38.16.52.52,0,0,1-.39-.16.55.55,0,0,1-.15-.38V61.7l.31-.15a2.13,2.13,0,0,1-.28,1,3.82,3.82,0,0,1-.76,1,4.1,4.1,0,0,1-1.15.73,3.68,3.68,0,0,1-1.43.28,3.88,3.88,0,0,1-2.17-.63,4.39,4.39,0,0,1-1.51-1.73,5.5,5.5,0,0,1-.55-2.47,5.29,5.29,0,0,1,.56-2.47,4.25,4.25,0,0,1,1.51-1.68,4,4,0,0,1,3.59-.35,3.75,3.75,0,0,1,1.18.74,3.42,3.42,0,0,1,.79,1.07,2.76,2.76,0,0,1,.29,1.25l-.38-.27V55.74a.57.57,0,0,1,.15-.4A.48.48,0,0,1,213.7,55.18ZM210,63.55a3,3,0,0,0,1.69-.5,3.37,3.37,0,0,0,1.16-1.36,4.34,4.34,0,0,0,.43-2,4.09,4.09,0,0,0-.43-1.9,3.4,3.4,0,0,0-1.16-1.35A2.88,2.88,0,0,0,210,56a3,3,0,0,0-1.68.49,3.29,3.29,0,0,0-1.17,1.33,4.17,4.17,0,0,0-.43,1.94,4.47,4.47,0,0,0,.42,2,3.22,3.22,0,0,0,1.16,1.36A3,3,0,0,0,210,63.55Z"/><path class="cls-9" d="M218,63.84a.55.55,0,0,1-.54.54.53.53,0,0,1-.39-.16.55.55,0,0,1-.15-.38V51.6a.55.55,0,0,1,.54-.54.53.53,0,0,1,.39.16.54.54,0,0,1,.15.38Z"/><path class="cls-9" d="M221.28,53.81a.81.81,0,0,1-.56-.17.61.61,0,0,1-.19-.49V53a.63.63,0,0,1,.2-.5.9.9,0,0,1,.57-.17.77.77,0,0,1,.53.17.62.62,0,0,1,.19.5v.18a.61.61,0,0,1-.19.49A.8.8,0,0,1,221.28,53.81Zm.54,10a.52.52,0,0,1-.16.38.55.55,0,0,1-.38.16.53.53,0,0,1-.38-.16.52.52,0,0,1-.16-.38V55.56a.51.51,0,0,1,.16-.38.49.49,0,0,1,.38-.16.5.5,0,0,1,.39.16.54.54,0,0,1,.15.38Z"/><path class="cls-9" d="M228.62,55.11a3.09,3.09,0,0,1,1.9.58,2.94,2.94,0,0,1,1.08,1.74l-.25.07.11-.32a3,3,0,0,1,.78-1,4.55,4.55,0,0,1,1.25-.76,3.62,3.62,0,0,1,1.43-.29,3.13,3.13,0,0,1,1.82.48,2.81,2.81,0,0,1,1,1.31,5.07,5.07,0,0,1,.32,1.84v5.1a.52.52,0,0,1-.16.38.53.53,0,0,1-.38.16.53.53,0,0,1-.39-.16.55.55,0,0,1-.15-.38v-5a3.68,3.68,0,0,0-.24-1.35,2,2,0,0,0-.74-1,2.25,2.25,0,0,0-1.35-.36,3,3,0,0,0-1.41.36,3.12,3.12,0,0,0-1.1,1,2.34,2.34,0,0,0-.42,1.35v5a.55.55,0,0,1-.15.38.56.56,0,0,1-.78,0,.55.55,0,0,1-.15-.38v-5.1a3.75,3.75,0,0,0-.22-1.33,1.89,1.89,0,0,0-.7-.94,2.14,2.14,0,0,0-1.31-.35,2.88,2.88,0,0,0-1.4.35,3,3,0,0,0-1.06.94,2.31,2.31,0,0,0-.4,1.33v5.1a.53.53,0,0,1-.17.38.52.52,0,0,1-.37.16.51.51,0,0,1-.54-.54V55.77a.51.51,0,0,1,.15-.37.51.51,0,0,1,.39-.17.5.5,0,0,1,.38.17.49.49,0,0,1,.16.37v1.68l-.49.66a2.85,2.85,0,0,1,.35-1.08,3.78,3.78,0,0,1,.78-1,4,4,0,0,1,1.11-.69A3.26,3.26,0,0,1,228.62,55.11Z"/><path class="cls-9" d="M244.86,64.56a4.91,4.91,0,0,1-2.45-.6,4.1,4.1,0,0,1-1.65-1.65,5,5,0,0,1-.6-2.49,5.3,5.3,0,0,1,.6-2.61,4.49,4.49,0,0,1,1.57-1.66,3.86,3.86,0,0,1,2-.59,4.51,4.51,0,0,1,1.54.28,3.79,3.79,0,0,1,1.32.83,4.2,4.2,0,0,1,.94,1.34,4.57,4.57,0,0,1,.38,1.84.54.54,0,0,1-.16.37.55.55,0,0,1-.38.15h-7.22l-.22-1h7.1l-.24.21v-.36a2.78,2.78,0,0,0-.55-1.44,3.14,3.14,0,0,0-2.51-1.2,3.11,3.11,0,0,0-1.1.21,3,3,0,0,0-1,.68,3.42,3.42,0,0,0-.75,1.17,4.47,4.47,0,0,0-.29,1.68,4.25,4.25,0,0,0,.44,1.93,3.41,3.41,0,0,0,1.24,1.37,3.68,3.68,0,0,0,2,.5,3.22,3.22,0,0,0,2-.66,3.45,3.45,0,0,0,.64-.62.57.57,0,0,1,.37-.16.46.46,0,0,1,.34.14.48.48,0,0,1,.13.33.51.51,0,0,1-.18.38,5,5,0,0,1-1.4,1.12A3.85,3.85,0,0,1,244.86,64.56Z"/><path class="cls-9" d="M255,55a3.34,3.34,0,0,1,1.9.48,2.71,2.71,0,0,1,1,1.3,5,5,0,0,1,.31,1.81v5.29a.52.52,0,0,1-.16.38.57.57,0,0,1-.38.16.5.5,0,0,1-.39-.16.55.55,0,0,1-.15-.38V58.6a3.64,3.64,0,0,0-.23-1.31,2,2,0,0,0-.77-1,2.43,2.43,0,0,0-1.39-.36,3.13,3.13,0,0,0-1.47.36,3.2,3.2,0,0,0-1.13,1,2.21,2.21,0,0,0-.43,1.31v5.24a.52.52,0,0,1-.16.38.55.55,0,0,1-.38.16.5.5,0,0,1-.39-.16.55.55,0,0,1-.15-.38V55.77a.49.49,0,0,1,.16-.37.5.5,0,0,1,.38-.17.51.51,0,0,1,.39.17.51.51,0,0,1,.15.37v1.52l-.41.64a2.29,2.29,0,0,1,.37-1.1,3.67,3.67,0,0,1,.85-1,4.3,4.3,0,0,1,1.16-.66A3.48,3.48,0,0,1,255,55Z"/><path class="cls-9" d="M260.09,55.22h4.19a.46.46,0,0,1,.36.15.5.5,0,0,1,.15.37.46.46,0,0,1-.15.34.45.45,0,0,1-.36.14h-4.19a.51.51,0,0,1-.37-.15.49.49,0,0,1-.15-.35.49.49,0,0,1,.15-.36A.5.5,0,0,1,260.09,55.22Zm1.85-2.54a.5.5,0,0,1,.39.16.54.54,0,0,1,.15.38v9a1.66,1.66,0,0,0,.14.76.65.65,0,0,0,.35.33,1.09,1.09,0,0,0,.43.08.68.68,0,0,0,.26,0,.75.75,0,0,1,.26-.05.37.37,0,0,1,.28.13.44.44,0,0,1,.12.32.51.51,0,0,1-.29.43,1.34,1.34,0,0,1-.68.17l-.49,0a1.72,1.72,0,0,1-.66-.2,1.28,1.28,0,0,1-.57-.6,2.74,2.74,0,0,1-.23-1.24V53.22a.55.55,0,0,1,.16-.38A.49.49,0,0,1,261.94,52.68Z"/><path class="cls-9" d="M267.07,53.81a.81.81,0,0,1-.56-.17.61.61,0,0,1-.19-.49V53a.63.63,0,0,1,.2-.5.9.9,0,0,1,.57-.17.78.78,0,0,1,.53.17.62.62,0,0,1,.19.5v.18a.61.61,0,0,1-.19.49A.82.82,0,0,1,267.07,53.81Zm.54,10a.52.52,0,0,1-.16.38.55.55,0,0,1-.38.16.53.53,0,0,1-.38-.16.52.52,0,0,1-.16-.38V55.56a.51.51,0,0,1,.16-.38.49.49,0,0,1,.38-.16.5.5,0,0,1,.39.16.54.54,0,0,1,.15.38Z"/><path class="cls-9" d="M274.28,55a6.52,6.52,0,0,1,1.58.19,3.38,3.38,0,0,1,1.16.52.87.87,0,0,1,.44.7.54.54,0,0,1-.13.35.42.42,0,0,1-.33.17.58.58,0,0,1-.37-.11,1.52,1.52,0,0,1-.26-.25,1.16,1.16,0,0,0-.38-.27,3.35,3.35,0,0,0-.68-.2,4.88,4.88,0,0,0-1-.09,3.35,3.35,0,0,0-1.82.51,3.51,3.51,0,0,0-1.27,1.35,3.85,3.85,0,0,0-.47,1.92,4.3,4.3,0,0,0,.44,2,3.37,3.37,0,0,0,1.24,1.35,3.44,3.44,0,0,0,1.85.5,3.69,3.69,0,0,0,1.12-.13,3.41,3.41,0,0,0,.68-.28,2,2,0,0,0,.51-.39.48.48,0,0,1,.4-.19.46.46,0,0,1,.35.13.52.52,0,0,1,.12.36q0,.29-.42.63a3.79,3.79,0,0,1-1.16.62,5.21,5.21,0,0,1-1.71.26,4.37,4.37,0,0,1-2.35-.63,4.23,4.23,0,0,1-1.58-1.72,5.25,5.25,0,0,1-.57-2.46,5.05,5.05,0,0,1,.57-2.39,4.64,4.64,0,0,1,1.61-1.74A4.33,4.33,0,0,1,274.28,55Z"/><path class="cls-9" d="M279.8,53.81a.81.81,0,0,1-.56-.17.61.61,0,0,1-.19-.49V53a.63.63,0,0,1,.2-.5.9.9,0,0,1,.57-.17.77.77,0,0,1,.53.17.62.62,0,0,1,.19.5v.18a.61.61,0,0,1-.19.49A.8.8,0,0,1,279.8,53.81Zm.54,10a.52.52,0,0,1-.16.38.55.55,0,0,1-.38.16.53.53,0,0,1-.38-.16.52.52,0,0,1-.16-.38V55.56a.51.51,0,0,1,.16-.38.49.49,0,0,1,.38-.16.5.5,0,0,1,.39.16.54.54,0,0,1,.15.38Z"/><path class="cls-9" d="M291.53,59.77a4.93,4.93,0,0,1-.61,2.46,4.54,4.54,0,0,1-1.63,1.71,4.63,4.63,0,0,1-4.63,0A4.57,4.57,0,0,1,283,62.23a5.36,5.36,0,0,1,0-4.93,4.57,4.57,0,0,1,1.64-1.71,4.57,4.57,0,0,1,4.63,0,4.54,4.54,0,0,1,1.63,1.71A4.92,4.92,0,0,1,291.53,59.77Zm-1.08,0a4.12,4.12,0,0,0-.45-2,3.44,3.44,0,0,0-1.24-1.35,3.42,3.42,0,0,0-3.56,0A3.51,3.51,0,0,0,284,57.82a4,4,0,0,0-.46,2,4,4,0,0,0,.46,1.94,3.48,3.48,0,0,0,1.24,1.34,3.42,3.42,0,0,0,3.56,0A3.41,3.41,0,0,0,290,61.71,4.05,4.05,0,0,0,290.45,59.77Z"/><path class="cls-9" d="M293.68,64.38a.58.58,0,0,1-.47-.2.75.75,0,0,1-.16-.5V63.3a.73.73,0,0,1,.16-.51.6.6,0,0,1,.47-.18h.13a.59.59,0,0,1,.46.18.73.73,0,0,1,.17.51v.38a.76.76,0,0,1-.17.5.57.57,0,0,1-.46.2Z"/></g></g></g></svg>