<?xml version="1.0" encoding="utf-8"?>
<!-- Generator: Adobe Illustrator 22.0.1, SVG Export Plug-In . SVG Version: 6.00 Build 0)  -->
<svg version="1.1" id="Layer_1" xmlns="http://www.w3.org/2000/svg" xmlns:xlink="http://www.w3.org/1999/xlink" x="0px" y="0px"
	 viewBox="0 0 501.4 83.1" style="enable-background:new 0 0 501.4 83.1;" xml:space="preserve">
<style type="text/css">
	.st0{opacity:0.27;}
	.st1{fill:#002451;}
	.st2{fill:#FFF2CC;}
	.st3{fill:none;}
	.st4{fill:#29ABE2;}
	.st5{opacity:0.2;}
	.st6{fill:#FFFFFF;}
	.st7{fill:#4D4D4D;}
</style>
<title>lab03-bxB1</title>
<g>
	<g id="Layer_2_1_">
		<g id="Layer_1-2">
			<g class="st0">
				<path class="st1" d="M14.4,2.8h475.5c6.3,0,11.4,5.1,11.4,11.4v57.4c0,6.3-5.1,11.4-11.4,11.4H14.4C8.1,83.1,3,78,3,71.7V14.3
					C3,8,8.1,2.8,14.4,2.8z"/>
			</g>
			<path class="st2" d="M11.4,0H487c6.3,0,11.4,5.1,11.4,11.4v57.4c0,6.3-5.1,11.4-11.4,11.4H11.4C5.1,80.3,0,75.2,0,68.8V11.4
				C0,5.1,5.1,0,11.4,0z"/>
			<path class="st3" d="M471.5,78.4v-15c0.1-4.6,3.9-8.3,8.5-8.2h15.7c0.9,0,1.8,0.1,2.7,0.4V11.2C498.2,4.9,493-0.1,486.7,0h-475
				C5.4-0.1,0.1,4.9,0,11.2c0,0,0,0,0,0v57.9c0.1,6.3,5.4,11.3,11.7,11.2h460C471.6,79.7,471.5,79,471.5,78.4z"/>
			<path class="st4" d="M487.2,55.1c-8.7,0-15.7,6.7-15.7,15v8.2c0,0.7,0.1,1.3,0.2,1.9h15c6.3,0.1,11.6-4.9,11.7-11.2V55.6
				c-0.9-0.3-1.8-0.4-2.7-0.4L487.2,55.1z"/>
			<g class="st5">
				<rect x="485.2" y="63.6" width="1.4" height="10.2"/>
				<polygon points="485.9,59.7 483.1,64.3 488.6,64.3 				"/>
				<polygon points="485.9,77.7 488.7,73.1 483.2,73.1 				"/>
				<rect x="480.6" y="68.1" width="10.7" height="1.3"/>
				<polygon points="476.5,68.7 481.3,71.3 481.3,66.1 				"/>
				<polygon points="495.3,68.7 490.5,66 490.5,71.3 				"/>
			</g>
			<rect x="484.3" y="62.6" class="st6" width="1.4" height="10.2"/>
			<polygon class="st6" points="484.9,58.8 482.2,63.3 487.7,63.3 			"/>
			<polygon class="st6" points="485,76.7 487.7,72.1 482.2,72.1 			"/>
			<rect x="479.6" y="67.1" class="st6" width="10.7" height="1.3"/>
			<polygon class="st6" points="475.6,67.7 480.4,70.4 480.4,65.1 			"/>
			<polygon class="st6" points="494.3,67.7 489.5,65.1 489.5,70.3 			"/>
			<path class="st7" d="M215.7,64.8c-0.2,0-0.3-0.1-0.5-0.2c-0.1-0.1-0.2-0.3-0.2-0.5v-0.4c0-0.2,0.1-0.4,0.2-0.5
				c0.1-0.1,0.3-0.2,0.5-0.2h0.1c0.2,0,0.3,0.1,0.5,0.2c0.1,0.1,0.2,0.3,0.2,0.5v0.4c0,0.2,0,0.4-0.2,0.5c-0.1,0.1-0.3,0.2-0.5,0.2
				H215.7z"/>
			<g>
				<g>
					<path class="st7" d="M23.9,33.7c0.2,0,0.3,0.1,0.4,0.2c0.1,0.1,0.2,0.2,0.2,0.4c0,0.2-0.1,0.3-0.2,0.4
						c-0.1,0.1-0.2,0.2-0.4,0.2h-6.4c-0.2,0-0.3-0.1-0.4-0.2C17,34.5,17,34.3,17,34.2V22.7c0-0.1,0.1-0.3,0.2-0.4
						c0.1-0.1,0.2-0.2,0.4-0.2c0.1,0,0.3,0.1,0.4,0.2c0.1,0.1,0.2,0.2,0.2,0.4V34l-0.3-0.3H23.9z"/>
					<path class="st7" d="M33.3,25.5c0.2,0,0.3,0.1,0.4,0.2c0.1,0.1,0.2,0.2,0.2,0.4v8.1c0,0.1-0.1,0.3-0.2,0.4
						c-0.1,0.1-0.2,0.2-0.4,0.2c-0.2,0-0.3-0.1-0.4-0.2c-0.1-0.1-0.2-0.2-0.2-0.4V32l0.3-0.1c0,0.3-0.1,0.7-0.3,1
						c-0.2,0.4-0.4,0.7-0.8,1c-0.3,0.3-0.7,0.5-1.1,0.7c-0.4,0.2-0.9,0.3-1.4,0.3c-0.8,0-1.5-0.2-2.2-0.6c-0.6-0.4-1.1-1-1.5-1.7
						c-0.4-0.7-0.5-1.6-0.5-2.5c0-0.9,0.2-1.8,0.6-2.5s0.9-1.3,1.5-1.7s1.4-0.6,2.1-0.6c0.5,0,1,0.1,1.4,0.3
						c0.5,0.2,0.8,0.4,1.2,0.7c0.3,0.3,0.6,0.7,0.8,1.1c0.2,0.4,0.3,0.8,0.3,1.3l-0.4-0.3v-2.3c0-0.2,0.1-0.3,0.2-0.4
						C33,25.6,33.1,25.5,33.3,25.5z M29.6,33.9c0.6,0,1.2-0.2,1.7-0.5s0.9-0.8,1.2-1.4c0.3-0.6,0.4-1.2,0.4-2c0-0.7-0.1-1.3-0.4-1.9
						s-0.7-1-1.2-1.3s-1.1-0.5-1.7-0.5c-0.6,0-1.2,0.2-1.7,0.5c-0.5,0.3-0.9,0.8-1.2,1.3s-0.4,1.2-0.4,1.9c0,0.7,0.1,1.4,0.4,2
						c0.3,0.6,0.7,1,1.2,1.4C28.4,33.7,28.9,33.9,29.6,33.9z"/>
					<path class="st7" d="M43.7,33.6c0,0.3-0.1,0.6-0.3,0.8c-0.2,0.2-0.5,0.3-0.8,0.3c-0.3,0-0.6-0.1-0.8-0.3
						c-0.2-0.2-0.3-0.5-0.3-0.8V22.5c0-0.3,0.1-0.6,0.3-0.8s0.5-0.3,0.8-0.3c0.3,0,0.6,0.1,0.8,0.3s0.3,0.5,0.3,0.8V33.6z"/>
					<path class="st7" d="M50.5,34.9c-1,0-1.9-0.2-2.7-0.6s-1.3-1-1.7-1.7c-0.4-0.7-0.6-1.6-0.6-2.5c0-1.1,0.2-2,0.7-2.8
						c0.4-0.8,1-1.3,1.7-1.8c0.7-0.4,1.5-0.6,2.2-0.6c0.6,0,1.2,0.1,1.7,0.4s1,0.6,1.4,1c0.4,0.4,0.8,0.9,1,1.5
						c0.2,0.6,0.4,1.2,0.4,1.8c0,0.3-0.1,0.5-0.3,0.7s-0.5,0.3-0.8,0.3h-6.9l-0.5-1.8h6.6l-0.4,0.4v-0.5c0-0.3-0.1-0.7-0.4-0.9
						c-0.2-0.3-0.5-0.5-0.8-0.7s-0.7-0.2-1.1-0.2c-0.4,0-0.7,0-1,0.1c-0.3,0.1-0.6,0.3-0.8,0.5c-0.2,0.2-0.4,0.5-0.5,0.9
						c-0.1,0.4-0.2,0.9-0.2,1.5c0,0.6,0.1,1.2,0.4,1.6c0.3,0.5,0.6,0.8,1,1c0.4,0.2,0.9,0.4,1.4,0.4c0.4,0,0.8,0,1.1-0.1
						c0.3-0.1,0.5-0.2,0.6-0.3s0.3-0.2,0.4-0.3c0.2-0.1,0.4-0.2,0.6-0.2c0.3,0,0.5,0.1,0.7,0.3C54,32.6,54,32.8,54,33
						c0,0.3-0.2,0.6-0.5,0.9c-0.3,0.3-0.8,0.5-1.3,0.7C51.7,34.8,51.1,34.9,50.5,34.9z"/>
					<path class="st7" d="M61.5,24.9c0.9,0,1.6,0.2,2,0.6s0.8,0.9,1,1.5s0.3,1.3,0.3,2.1v4.6c0,0.3-0.1,0.6-0.3,0.8
						c-0.2,0.2-0.5,0.3-0.8,0.3c-0.3,0-0.6-0.1-0.8-0.3c-0.2-0.2-0.3-0.5-0.3-0.8V29c0-0.4-0.1-0.8-0.2-1.1
						c-0.1-0.3-0.3-0.6-0.5-0.8c-0.3-0.2-0.6-0.3-1.1-0.3c-0.5,0-0.9,0.1-1.2,0.3c-0.3,0.2-0.6,0.4-0.8,0.8
						c-0.2,0.3-0.3,0.7-0.3,1.1v4.6c0,0.3-0.1,0.6-0.3,0.8c-0.2,0.2-0.5,0.3-0.8,0.3c-0.3,0-0.6-0.1-0.8-0.3
						c-0.2-0.2-0.3-0.5-0.3-0.8v-7.4c0-0.3,0.1-0.6,0.3-0.8c0.2-0.2,0.5-0.3,0.8-0.3c0.3,0,0.6,0.1,0.8,0.3c0.2,0.2,0.3,0.5,0.3,0.8
						V27l-0.3-0.1c0.1-0.2,0.3-0.4,0.5-0.7c0.2-0.2,0.4-0.5,0.7-0.7c0.3-0.2,0.6-0.4,0.9-0.5C60.7,25,61.1,24.9,61.5,24.9z"/>
					<path class="st7" d="M70.8,24.9c0.5,0,1,0.1,1.4,0.2c0.4,0.2,0.8,0.4,1.1,0.6c0.3,0.2,0.5,0.5,0.7,0.7c0.2,0.2,0.3,0.5,0.3,0.6
						l-0.5,0.2V26c0-0.3,0.1-0.6,0.3-0.8s0.5-0.3,0.8-0.3c0.3,0,0.6,0.1,0.8,0.3S76,25.7,76,26v8c0,1-0.2,1.9-0.7,2.5
						c-0.5,0.6-1,1.1-1.8,1.4c-0.7,0.3-1.5,0.4-2.4,0.4c-0.2,0-0.6,0-0.9-0.1c-0.4-0.1-0.8-0.1-1.1-0.2s-0.6-0.2-0.8-0.2
						c-0.4-0.2-0.6-0.4-0.7-0.6c-0.1-0.2-0.2-0.5-0.1-0.7c0.1-0.3,0.3-0.6,0.5-0.7s0.5-0.1,0.8,0c0.1,0,0.3,0.1,0.6,0.2
						c0.3,0.1,0.6,0.2,0.9,0.3c0.3,0.1,0.6,0.1,0.9,0.1c0.9,0,1.6-0.2,2-0.5s0.6-0.9,0.6-1.5v-1.6l0.2,0.2c0,0.2-0.1,0.3-0.2,0.6
						s-0.4,0.4-0.7,0.7c-0.3,0.2-0.6,0.4-1,0.5c-0.4,0.1-0.8,0.2-1.2,0.2c-0.9,0-1.6-0.2-2.3-0.6c-0.7-0.4-1.2-1-1.6-1.8
						c-0.4-0.8-0.6-1.6-0.6-2.6c0-1,0.2-1.9,0.6-2.6c0.4-0.8,0.9-1.3,1.6-1.8S70,24.9,70.8,24.9z M71.2,26.9c-0.5,0-1,0.1-1.4,0.4
						c-0.4,0.3-0.7,0.6-1,1.1c-0.2,0.5-0.3,1-0.3,1.5c0,0.6,0.1,1.1,0.3,1.5c0.2,0.5,0.5,0.8,1,1.1c0.4,0.3,0.9,0.4,1.4,0.4
						c0.6,0,1-0.1,1.4-0.4c0.4-0.3,0.7-0.6,1-1.1c0.2-0.5,0.3-1,0.3-1.5c0-0.6-0.1-1.1-0.3-1.5c-0.2-0.5-0.5-0.8-1-1.1
						C72.2,27,71.7,26.9,71.2,26.9z"/>
					<path class="st7" d="M85.3,25.1c0.3,0,0.6,0.1,0.8,0.3c0.2,0.2,0.3,0.5,0.3,0.8v4.6c0,1.3-0.4,2.3-1.1,3s-1.7,1.1-3.1,1.1
						s-2.3-0.4-3.1-1.1c-0.7-0.7-1.1-1.8-1.1-3v-4.6c0-0.3,0.1-0.6,0.3-0.8c0.2-0.2,0.5-0.3,0.8-0.3c0.3,0,0.6,0.1,0.8,0.3
						c0.2,0.2,0.3,0.5,0.3,0.8v4.6c0,0.7,0.2,1.3,0.5,1.6c0.3,0.4,0.8,0.5,1.5,0.5c0.7,0,1.2-0.2,1.5-0.5c0.3-0.4,0.5-0.9,0.5-1.6
						v-4.6c0-0.3,0.1-0.6,0.3-0.8C84.7,25.2,84.9,25.1,85.3,25.1z"/>
					<path class="st7" d="M96.3,24.9c0.3,0,0.6,0.1,0.8,0.3s0.3,0.5,0.3,0.8v7.6c0,0.3-0.1,0.6-0.3,0.8c-0.2,0.2-0.5,0.3-0.8,0.3
						s-0.6-0.1-0.8-0.3c-0.2-0.2-0.3-0.5-0.3-0.8v-0.9l0.4,0.2c0,0.2-0.1,0.3-0.3,0.6c-0.2,0.2-0.4,0.4-0.7,0.7s-0.6,0.4-1,0.5
						c-0.4,0.1-0.8,0.2-1.3,0.2c-0.8,0-1.6-0.2-2.2-0.6s-1.2-1-1.6-1.8S88,30.9,88,29.9c0-1,0.2-1.9,0.6-2.6s0.9-1.3,1.6-1.8
						s1.4-0.6,2.2-0.6c0.5,0,1,0.1,1.4,0.2c0.4,0.2,0.8,0.4,1.1,0.6c0.3,0.2,0.6,0.5,0.7,0.7c0.2,0.2,0.3,0.5,0.3,0.6l-0.6,0.2V26
						c0-0.3,0.1-0.6,0.3-0.8C95.8,25,96,24.9,96.3,24.9z M92.7,32.9c0.5,0,1-0.1,1.4-0.4c0.4-0.3,0.7-0.6,0.9-1.1
						c0.2-0.5,0.3-1,0.3-1.5c0-0.6-0.1-1.1-0.3-1.5c-0.2-0.5-0.5-0.8-0.9-1.1c-0.4-0.3-0.9-0.4-1.4-0.4c-0.5,0-1,0.1-1.4,0.4
						c-0.4,0.3-0.7,0.6-0.9,1.1c-0.2,0.5-0.3,1-0.3,1.5c0,0.6,0.1,1.1,0.3,1.5c0.2,0.5,0.5,0.8,0.9,1.1
						C91.7,32.8,92.2,32.9,92.7,32.9z"/>
					<path class="st7" d="M109.1,34.9c-0.9,0-1.8-0.2-2.5-0.6c-0.7-0.4-1.3-0.9-1.6-1.7c-0.4-0.7-0.6-1.5-0.6-2.5
						c0-1,0.2-1.9,0.6-2.6c0.4-0.7,0.9-1.3,1.6-1.7c0.6-0.4,1.3-0.6,2-0.6c0.5,0,1,0.1,1.5,0.3c0.5,0.2,0.9,0.5,1.3,0.8
						s0.7,0.8,0.9,1.3c0.2,0.5,0.4,1.1,0.4,1.8c0,0.1-0.1,0.3-0.2,0.4c-0.1,0.1-0.2,0.2-0.4,0.2h-7.2l-0.2-1h7.1l-0.2,0.2V29
						c0-0.6-0.2-1-0.5-1.4c-0.3-0.4-0.7-0.7-1.1-0.9c-0.4-0.2-0.9-0.3-1.4-0.3c-0.4,0-0.7,0.1-1.1,0.2c-0.4,0.1-0.7,0.4-1,0.7
						c-0.3,0.3-0.6,0.7-0.7,1.2c-0.2,0.5-0.3,1-0.3,1.7c0,0.7,0.1,1.3,0.4,1.9s0.7,1,1.2,1.4s1.2,0.5,2,0.5c0.4,0,0.8-0.1,1.1-0.2
						c0.3-0.1,0.6-0.3,0.9-0.5c0.3-0.2,0.5-0.4,0.6-0.6c0.1-0.1,0.2-0.2,0.4-0.2s0.2,0,0.3,0.1c0.1,0.1,0.1,0.2,0.1,0.3
						c0,0.1-0.1,0.3-0.2,0.4c-0.4,0.4-0.8,0.8-1.4,1.1C110.5,34.7,109.8,34.9,109.1,34.9z"/>
					<path class="st7" d="M119.1,25.5c0.7,0,1.4,0.2,1.9,0.6c0.5,0.4,0.9,1,1.1,1.7l-0.3,0.1l0.1-0.3c0.2-0.4,0.4-0.7,0.8-1
						c0.4-0.3,0.8-0.6,1.3-0.8c0.5-0.2,0.9-0.3,1.4-0.3c0.8,0,1.4,0.2,1.8,0.5c0.5,0.3,0.8,0.8,1,1.3c0.2,0.5,0.3,1.2,0.3,1.8v5.1
						c0,0.1-0.1,0.3-0.2,0.4c-0.1,0.1-0.2,0.2-0.4,0.2c-0.2,0-0.3-0.1-0.4-0.2c-0.1-0.1-0.1-0.2-0.1-0.4v-5c0-0.5-0.1-0.9-0.2-1.3
						c-0.2-0.4-0.4-0.7-0.7-1c-0.3-0.2-0.8-0.4-1.3-0.4c-0.5,0-1,0.1-1.4,0.4c-0.4,0.2-0.8,0.6-1.1,1c-0.3,0.4-0.4,0.9-0.4,1.3v5
						c0,0.1-0.1,0.3-0.2,0.4c-0.1,0.1-0.2,0.2-0.4,0.2s-0.3-0.1-0.4-0.2c-0.1-0.1-0.2-0.2-0.2-0.4v-5.1c0-0.5-0.1-0.9-0.2-1.3
						c-0.1-0.4-0.4-0.7-0.7-0.9c-0.3-0.2-0.8-0.4-1.3-0.4c-0.5,0-1,0.1-1.4,0.4c-0.4,0.2-0.8,0.6-1.1,0.9c-0.3,0.4-0.4,0.8-0.4,1.3
						v5.1c0,0.1-0.1,0.3-0.2,0.4c-0.1,0.1-0.2,0.2-0.4,0.2c-0.2,0-0.3-0.1-0.4-0.2c-0.1-0.1-0.2-0.2-0.2-0.4v-8.1
						c0-0.1,0.1-0.3,0.2-0.4c0.1-0.1,0.2-0.2,0.4-0.2s0.3,0.1,0.4,0.2c0.1,0.1,0.2,0.2,0.2,0.4v1.7l-0.5,0.7c0-0.4,0.2-0.7,0.4-1.1
						c0.2-0.4,0.5-0.7,0.8-1c0.3-0.3,0.7-0.5,1.1-0.7S118.6,25.5,119.1,25.5z"/>
					<path class="st7" d="M135.5,25.5c0.8,0,1.5,0.2,2.2,0.6s1.1,1,1.5,1.7s0.6,1.5,0.6,2.4s-0.2,1.7-0.6,2.4s-0.9,1.3-1.5,1.7
						c-0.6,0.4-1.3,0.6-2.1,0.6c-0.4,0-0.8-0.1-1.2-0.2c-0.4-0.1-0.7-0.3-1-0.5c-0.3-0.2-0.6-0.5-0.8-0.8s-0.4-0.6-0.6-0.9l0.3-0.3
						v5.6c0,0.1-0.1,0.3-0.2,0.4c-0.1,0.1-0.2,0.2-0.4,0.2s-0.3-0.1-0.4-0.2c-0.1-0.1-0.2-0.2-0.2-0.4V26.1c0-0.2,0.1-0.3,0.2-0.4
						c0.1-0.1,0.2-0.2,0.4-0.2c0.2,0,0.3,0.1,0.4,0.2c0.1,0.1,0.2,0.2,0.2,0.4V28l-0.3-0.1c0.1-0.4,0.3-0.7,0.5-1
						c0.2-0.3,0.5-0.5,0.8-0.8c0.3-0.2,0.7-0.4,1-0.5C134.7,25.5,135.1,25.5,135.5,25.5z M135.4,26.5c-0.6,0-1.2,0.2-1.7,0.5
						c-0.5,0.3-0.9,0.8-1.2,1.3c-0.3,0.5-0.4,1.2-0.4,1.9c0,0.7,0.1,1.3,0.4,1.9c0.3,0.6,0.7,1,1.2,1.3c0.5,0.3,1.1,0.5,1.7,0.5
						c0.6,0,1.2-0.2,1.7-0.5c0.5-0.3,0.9-0.8,1.2-1.3c0.3-0.6,0.4-1.2,0.4-1.9s-0.1-1.3-0.4-1.9c-0.3-0.6-0.7-1-1.2-1.3
						C136.6,26.6,136.1,26.5,135.4,26.5z"/>
					<path class="st7" d="M148.7,25.6c0.2,0,0.3,0.1,0.4,0.2c0.1,0.1,0.2,0.2,0.2,0.4v5.1c0,1.2-0.3,2.1-1,2.7s-1.6,0.9-2.7,0.9
						c-1.1,0-2-0.3-2.7-0.9s-1-1.5-1-2.7v-5.1c0-0.1,0.1-0.3,0.2-0.4c0.1-0.1,0.2-0.2,0.4-0.2s0.3,0.1,0.4,0.2
						c0.1,0.1,0.2,0.2,0.2,0.4v5.1c0,0.9,0.2,1.5,0.7,2c0.5,0.4,1.1,0.7,1.9,0.7c0.8,0,1.5-0.2,1.9-0.7c0.5-0.5,0.7-1.1,0.7-2v-5.1
						c0-0.1,0.1-0.3,0.2-0.4C148.4,25.6,148.5,25.6,148.7,25.6z"/>
					<path class="st7" d="M153,35.6c0,0.6-0.1,1.1-0.4,1.5c-0.3,0.4-0.6,0.7-1,0.9c-0.4,0.2-0.8,0.3-1.2,0.3c-0.2,0-0.3,0-0.4-0.1
						c-0.1-0.1-0.1-0.2-0.1-0.3v-0.1c0-0.1,0-0.3,0.1-0.3c0.1-0.1,0.2-0.1,0.3-0.2c0.3-0.1,0.5-0.2,0.8-0.3c0.2-0.1,0.4-0.3,0.6-0.6
						c0.1-0.3,0.2-0.6,0.2-0.9v-9.3c0-0.2,0.1-0.3,0.2-0.4c0.1-0.1,0.2-0.2,0.4-0.2c0.2,0,0.3,0.1,0.4,0.2c0.1,0.1,0.2,0.2,0.2,0.4
						V35.6z M152.5,24.1c-0.3,0-0.4-0.1-0.6-0.2s-0.2-0.3-0.2-0.5v-0.2c0-0.2,0.1-0.4,0.2-0.5c0.1-0.1,0.3-0.2,0.6-0.2
						c0.2,0,0.4,0.1,0.5,0.2s0.2,0.3,0.2,0.5v0.2c0,0.2-0.1,0.4-0.2,0.5S152.7,24.1,152.5,24.1z"/>
					<path class="st7" d="M163.5,25.5c0.2,0,0.3,0.1,0.4,0.2c0.1,0.1,0.2,0.2,0.2,0.4v8.1c0,0.1-0.1,0.3-0.2,0.4
						c-0.1,0.1-0.2,0.2-0.4,0.2c-0.2,0-0.3-0.1-0.4-0.2c-0.1-0.1-0.2-0.2-0.2-0.4V32l0.3-0.1c0,0.3-0.1,0.7-0.3,1
						c-0.2,0.4-0.4,0.7-0.8,1c-0.3,0.3-0.7,0.5-1.1,0.7c-0.4,0.2-0.9,0.3-1.4,0.3c-0.8,0-1.5-0.2-2.2-0.6c-0.6-0.4-1.1-1-1.5-1.7
						c-0.4-0.7-0.5-1.6-0.5-2.5c0-0.9,0.2-1.8,0.6-2.5s0.9-1.3,1.5-1.7s1.4-0.6,2.1-0.6c0.5,0,1,0.1,1.4,0.3
						c0.5,0.2,0.8,0.4,1.2,0.7c0.3,0.3,0.6,0.7,0.8,1.1c0.2,0.4,0.3,0.8,0.3,1.3l-0.4-0.3v-2.3c0-0.2,0.1-0.3,0.2-0.4
						C163.2,25.6,163.3,25.5,163.5,25.5z M159.7,33.9c0.6,0,1.2-0.2,1.7-0.5s0.9-0.8,1.2-1.4c0.3-0.6,0.4-1.2,0.4-2
						c0-0.7-0.1-1.3-0.4-1.9s-0.7-1-1.2-1.3s-1.1-0.5-1.7-0.5c-0.6,0-1.2,0.2-1.7,0.5c-0.5,0.3-0.9,0.8-1.2,1.3s-0.4,1.2-0.4,1.9
						c0,0.7,0.1,1.4,0.4,2c0.3,0.6,0.7,1,1.2,1.4C158.5,33.7,159.1,33.9,159.7,33.9z"/>
					<path class="st7" d="M175.8,34.9c-0.9,0-1.8-0.2-2.5-0.6c-0.7-0.4-1.3-0.9-1.6-1.7c-0.4-0.7-0.6-1.5-0.6-2.5
						c0-1,0.2-1.9,0.6-2.6c0.4-0.7,0.9-1.3,1.6-1.7c0.6-0.4,1.3-0.6,2-0.6c0.5,0,1,0.1,1.5,0.3c0.5,0.2,0.9,0.5,1.3,0.8
						s0.7,0.8,0.9,1.3c0.2,0.5,0.4,1.1,0.4,1.8c0,0.1-0.1,0.3-0.2,0.4c-0.1,0.1-0.2,0.2-0.4,0.2h-7.2l-0.2-1h7.1l-0.2,0.2V29
						c0-0.6-0.2-1-0.5-1.4c-0.3-0.4-0.7-0.7-1.1-0.9c-0.4-0.2-0.9-0.3-1.4-0.3c-0.4,0-0.7,0.1-1.1,0.2c-0.4,0.1-0.7,0.4-1,0.7
						c-0.3,0.3-0.6,0.7-0.7,1.2c-0.2,0.5-0.3,1-0.3,1.7c0,0.7,0.1,1.3,0.4,1.9s0.7,1,1.2,1.4s1.2,0.5,2,0.5c0.4,0,0.8-0.1,1.1-0.2
						c0.3-0.1,0.6-0.3,0.9-0.5c0.3-0.2,0.5-0.4,0.6-0.6c0.1-0.1,0.2-0.2,0.4-0.2s0.2,0,0.3,0.1c0.1,0.1,0.1,0.2,0.1,0.3
						c0,0.1-0.1,0.3-0.2,0.4c-0.4,0.4-0.8,0.8-1.4,1.1C177.1,34.7,176.5,34.9,175.8,34.9z"/>
					<path class="st7" d="M182.8,34.2c0,0.1-0.1,0.3-0.2,0.4c-0.1,0.1-0.2,0.2-0.4,0.2c-0.2,0-0.3-0.1-0.4-0.2
						c-0.1-0.1-0.2-0.2-0.2-0.4V21.9c0-0.1,0.1-0.3,0.2-0.4c0.1-0.1,0.2-0.2,0.4-0.2c0.2,0,0.3,0.1,0.4,0.2c0.1,0.1,0.2,0.2,0.2,0.4
						V34.2z"/>
					<path class="st7" d="M195,25.3c0.8,0,1.5,0.2,2.2,0.6s1.1,1,1.5,1.7s0.6,1.5,0.6,2.5c0,0.9-0.2,1.7-0.6,2.5
						c-0.4,0.7-0.9,1.3-1.5,1.7c-0.6,0.4-1.3,0.6-2.1,0.6c-0.4,0-0.8-0.1-1.2-0.2c-0.4-0.1-0.7-0.3-1-0.5c-0.3-0.2-0.6-0.5-0.8-0.8
						s-0.4-0.6-0.6-1l0.3-0.3v2c0,0.2-0.1,0.3-0.2,0.4c-0.1,0.1-0.2,0.2-0.4,0.2s-0.3-0.1-0.4-0.2c-0.1-0.1-0.2-0.2-0.2-0.4V22
						c0-0.1,0.1-0.3,0.2-0.4c0.1-0.1,0.2-0.2,0.4-0.2c0.2,0,0.3,0.1,0.4,0.2c0.1,0.1,0.2,0.2,0.2,0.4v6l-0.3-0.1
						c0.1-0.4,0.3-0.7,0.5-1c0.2-0.3,0.5-0.6,0.8-0.8c0.3-0.2,0.7-0.4,1-0.5S194.6,25.3,195,25.3z M194.9,26.3
						c-0.6,0-1.2,0.2-1.7,0.5c-0.5,0.3-0.9,0.8-1.2,1.3s-0.4,1.2-0.4,1.9c0,0.7,0.1,1.4,0.4,2c0.3,0.6,0.7,1,1.2,1.4
						s1.1,0.5,1.7,0.5c0.6,0,1.2-0.2,1.7-0.5c0.5-0.3,0.9-0.8,1.2-1.4s0.4-1.2,0.4-1.9c0-0.7-0.1-1.4-0.4-1.9s-0.7-1-1.2-1.3
						C196.1,26.5,195.6,26.3,194.9,26.3z"/>
					<path class="st7" d="M210,30.1c0,0.9-0.2,1.7-0.6,2.5c-0.4,0.7-0.9,1.3-1.6,1.7c-0.7,0.4-1.5,0.6-2.3,0.6
						c-0.9,0-1.6-0.2-2.3-0.6s-1.2-1-1.6-1.7c-0.4-0.7-0.6-1.5-0.6-2.5c0-0.9,0.2-1.7,0.6-2.5c0.4-0.7,0.9-1.3,1.6-1.7
						s1.5-0.6,2.3-0.6c0.9,0,1.6,0.2,2.3,0.6c0.7,0.4,1.2,1,1.6,1.7C209.8,28.4,210,29.2,210,30.1z M208.9,30.1c0-0.7-0.2-1.4-0.5-2
						c-0.3-0.6-0.7-1-1.2-1.3c-0.5-0.3-1.1-0.5-1.8-0.5c-0.7,0-1.3,0.2-1.8,0.5c-0.5,0.3-0.9,0.8-1.2,1.3c-0.3,0.6-0.5,1.2-0.5,2
						c0,0.7,0.2,1.4,0.5,1.9c0.3,0.6,0.7,1,1.2,1.3c0.5,0.3,1.1,0.5,1.8,0.5c0.7,0,1.3-0.2,1.8-0.5c0.5-0.3,0.9-0.8,1.2-1.3
						C208.7,31.5,208.9,30.9,208.9,30.1z"/>
					<path class="st7" d="M213.2,34.2c0,0.1-0.1,0.3-0.2,0.4c-0.1,0.1-0.2,0.2-0.4,0.2c-0.2,0-0.3-0.1-0.4-0.2
						c-0.1-0.1-0.2-0.2-0.2-0.4V21.9c0-0.1,0.1-0.3,0.2-0.4c0.1-0.1,0.2-0.2,0.4-0.2c0.2,0,0.3,0.1,0.4,0.2c0.1,0.1,0.2,0.2,0.2,0.4
						V34.2z"/>
					<path class="st7" d="M224.5,30.1c0,0.9-0.2,1.7-0.6,2.5c-0.4,0.7-0.9,1.3-1.6,1.7c-0.7,0.4-1.5,0.6-2.3,0.6
						c-0.9,0-1.6-0.2-2.3-0.6s-1.2-1-1.6-1.7c-0.4-0.7-0.6-1.5-0.6-2.5c0-0.9,0.2-1.7,0.6-2.5c0.4-0.7,0.9-1.3,1.6-1.7
						s1.5-0.6,2.3-0.6c0.9,0,1.6,0.2,2.3,0.6c0.7,0.4,1.2,1,1.6,1.7C224.3,28.4,224.5,29.2,224.5,30.1z M223.4,30.1
						c0-0.7-0.2-1.4-0.5-2c-0.3-0.6-0.7-1-1.2-1.3c-0.5-0.3-1.1-0.5-1.8-0.5c-0.7,0-1.3,0.2-1.8,0.5c-0.5,0.3-0.9,0.8-1.2,1.3
						c-0.3,0.6-0.5,1.2-0.5,2c0,0.7,0.2,1.4,0.5,1.9c0.3,0.6,0.7,1,1.2,1.3c0.5,0.3,1.1,0.5,1.8,0.5c0.7,0,1.3-0.2,1.8-0.5
						c0.5-0.3,0.9-0.8,1.2-1.3C223.2,31.5,223.4,30.9,223.4,30.1z"/>
					<path class="st7" d="M239.1,25.5c0.2,0,0.3,0.1,0.4,0.2c0.1,0.1,0.2,0.2,0.2,0.4v8.1c0,0.1-0.1,0.3-0.2,0.4
						c-0.1,0.1-0.2,0.2-0.4,0.2c-0.2,0-0.3-0.1-0.4-0.2c-0.1-0.1-0.2-0.2-0.2-0.4V32l0.3-0.1c0,0.3-0.1,0.7-0.3,1
						c-0.2,0.4-0.4,0.7-0.8,1c-0.3,0.3-0.7,0.5-1.1,0.7c-0.4,0.2-0.9,0.3-1.4,0.3c-0.8,0-1.5-0.2-2.2-0.6c-0.6-0.4-1.1-1-1.5-1.7
						c-0.4-0.7-0.5-1.6-0.5-2.5c0-0.9,0.2-1.8,0.6-2.5s0.9-1.3,1.5-1.7s1.4-0.6,2.1-0.6c0.5,0,1,0.1,1.4,0.3
						c0.5,0.2,0.8,0.4,1.2,0.7c0.3,0.3,0.6,0.7,0.8,1.1c0.2,0.4,0.3,0.8,0.3,1.3l-0.4-0.3v-2.3c0-0.2,0.1-0.3,0.2-0.4
						C238.8,25.6,238.9,25.5,239.1,25.5z M235.3,33.9c0.6,0,1.2-0.2,1.7-0.5s0.9-0.8,1.2-1.4c0.3-0.6,0.4-1.2,0.4-2
						c0-0.7-0.1-1.3-0.4-1.9s-0.7-1-1.2-1.3s-1.1-0.5-1.7-0.5c-0.6,0-1.2,0.2-1.7,0.5c-0.5,0.3-0.9,0.8-1.2,1.3s-0.4,1.2-0.4,1.9
						c0,0.7,0.1,1.4,0.4,2c0.3,0.6,0.7,1,1.2,1.4C234.1,33.7,234.7,33.9,235.3,33.9z"/>
					<path class="st7" d="M246.8,25.6h4.2c0.1,0,0.3,0.1,0.4,0.2s0.1,0.2,0.1,0.4c0,0.1,0,0.3-0.1,0.4c-0.1,0.1-0.2,0.1-0.4,0.1
						h-4.2c-0.1,0-0.3-0.1-0.4-0.2c-0.1-0.1-0.2-0.2-0.2-0.4c0-0.1,0.1-0.3,0.2-0.4C246.5,25.6,246.6,25.6,246.8,25.6z M248.6,23
						c0.2,0,0.3,0.1,0.4,0.2c0.1,0.1,0.2,0.2,0.2,0.4v9c0,0.3,0,0.6,0.1,0.8c0.1,0.2,0.2,0.3,0.4,0.3s0.3,0.1,0.4,0.1
						c0.1,0,0.2,0,0.3,0c0.1,0,0.2,0,0.3,0c0.1,0,0.2,0,0.3,0.1c0.1,0.1,0.1,0.2,0.1,0.3c0,0.2-0.1,0.3-0.3,0.4
						c-0.2,0.1-0.4,0.2-0.7,0.2c-0.1,0-0.3,0-0.5,0c-0.2,0-0.4-0.1-0.7-0.2c-0.2-0.1-0.4-0.3-0.6-0.6c-0.2-0.3-0.2-0.7-0.2-1.2v-9.1
						c0-0.1,0.1-0.3,0.2-0.4C248.3,23.1,248.5,23,248.6,23z"/>
					<path class="st7" d="M253.8,34.7c-0.2,0-0.3-0.1-0.4-0.2c-0.1-0.1-0.2-0.2-0.2-0.4v-8.1c0-0.1,0.1-0.3,0.2-0.4
						c0.1-0.1,0.2-0.2,0.4-0.2s0.3,0.1,0.4,0.2c0.1,0.1,0.2,0.2,0.2,0.4v2.7l-0.3,0.1c0-0.4,0.1-0.8,0.3-1.3s0.4-0.8,0.7-1.1
						c0.3-0.3,0.7-0.6,1.1-0.8s0.9-0.3,1.4-0.3c0.2,0,0.4,0,0.6,0.1s0.3,0.2,0.3,0.4c0,0.2,0,0.3-0.1,0.4c-0.1,0.1-0.2,0.1-0.3,0.1
						c-0.1,0-0.2,0-0.4-0.1c-0.1-0.1-0.3-0.1-0.5-0.1c-0.3,0-0.7,0.1-1,0.3s-0.6,0.5-0.9,0.8c-0.3,0.3-0.5,0.7-0.7,1.1
						s-0.2,0.8-0.2,1.3v4.4c0,0.1-0.1,0.3-0.2,0.4C254.1,34.7,254,34.7,253.8,34.7z"/>
					<path class="st7" d="M267.2,25.5c0.2,0,0.3,0.1,0.4,0.2c0.1,0.1,0.2,0.2,0.2,0.4v8.1c0,0.1-0.1,0.3-0.2,0.4
						c-0.1,0.1-0.2,0.2-0.4,0.2c-0.2,0-0.3-0.1-0.4-0.2c-0.1-0.1-0.2-0.2-0.2-0.4V32l0.3-0.1c0,0.3-0.1,0.7-0.3,1
						c-0.2,0.4-0.4,0.7-0.8,1c-0.3,0.3-0.7,0.5-1.1,0.7c-0.4,0.2-0.9,0.3-1.4,0.3c-0.8,0-1.5-0.2-2.2-0.6c-0.6-0.4-1.1-1-1.5-1.7
						c-0.4-0.7-0.5-1.6-0.5-2.5c0-0.9,0.2-1.8,0.6-2.5s0.9-1.3,1.5-1.7s1.4-0.6,2.1-0.6c0.5,0,1,0.1,1.4,0.3
						c0.5,0.2,0.8,0.4,1.2,0.7c0.3,0.3,0.6,0.7,0.8,1.1c0.2,0.4,0.3,0.8,0.3,1.3l-0.4-0.3v-2.3c0-0.2,0.1-0.3,0.2-0.4
						C266.9,25.6,267,25.5,267.2,25.5z M263.5,33.9c0.6,0,1.2-0.2,1.7-0.5s0.9-0.8,1.2-1.4c0.3-0.6,0.4-1.2,0.4-2
						c0-0.7-0.1-1.3-0.4-1.9s-0.7-1-1.2-1.3s-1.1-0.5-1.7-0.5c-0.6,0-1.2,0.2-1.7,0.5c-0.5,0.3-0.9,0.8-1.2,1.3s-0.4,1.2-0.4,1.9
						c0,0.7,0.1,1.4,0.4,2c0.3,0.6,0.7,1,1.2,1.4C262.3,33.7,262.8,33.9,263.5,33.9z"/>
					<path class="st7" d="M270.1,25.3c0.1,0,0.2,0,0.3,0.1c0.1,0.1,0.2,0.1,0.2,0.3l3.2,7.5l-0.2,0.1l3.2-7.6
						c0.1-0.2,0.3-0.4,0.5-0.3c0.1,0,0.2,0,0.3,0.1s0.2,0.2,0.2,0.3c0,0.1,0,0.1,0,0.2c0,0,0,0.1,0,0.1l-3.5,8.3
						c-0.1,0.2-0.3,0.3-0.5,0.3c-0.1,0-0.2,0-0.3-0.1c-0.1-0.1-0.2-0.2-0.2-0.3l-3.5-8.3c0,0,0-0.1,0-0.1c0,0,0-0.1,0-0.1
						c0-0.1,0-0.3,0.1-0.4C269.8,25.4,269.9,25.3,270.1,25.3z"/>
					<path class="st7" d="M283.4,34.9c-0.9,0-1.8-0.2-2.5-0.6c-0.7-0.4-1.3-0.9-1.6-1.7c-0.4-0.7-0.6-1.5-0.6-2.5
						c0-1,0.2-1.9,0.6-2.6c0.4-0.7,0.9-1.3,1.6-1.7c0.6-0.4,1.3-0.6,2-0.6c0.5,0,1,0.1,1.5,0.3c0.5,0.2,0.9,0.5,1.3,0.8
						s0.7,0.8,0.9,1.3c0.2,0.5,0.4,1.1,0.4,1.8c0,0.1-0.1,0.3-0.2,0.4c-0.1,0.1-0.2,0.2-0.4,0.2h-7.2l-0.2-1h7.1l-0.2,0.2V29
						c0-0.6-0.2-1-0.5-1.4c-0.3-0.4-0.7-0.7-1.1-0.9c-0.4-0.2-0.9-0.3-1.4-0.3c-0.4,0-0.7,0.1-1.1,0.2c-0.4,0.1-0.7,0.4-1,0.7
						c-0.3,0.3-0.6,0.7-0.7,1.2c-0.2,0.5-0.3,1-0.3,1.7c0,0.7,0.1,1.3,0.4,1.9s0.7,1,1.2,1.4s1.2,0.5,2,0.5c0.4,0,0.8-0.1,1.1-0.2
						c0.3-0.1,0.6-0.3,0.9-0.5c0.3-0.2,0.5-0.4,0.6-0.6c0.1-0.1,0.2-0.2,0.4-0.2s0.2,0,0.3,0.1c0.1,0.1,0.1,0.2,0.1,0.3
						c0,0.1-0.1,0.3-0.2,0.4c-0.4,0.4-0.8,0.8-1.4,1.1C284.7,34.7,284.1,34.9,283.4,34.9z M282.7,24.8c-0.1,0-0.1,0-0.2-0.1
						c-0.1-0.1-0.1-0.1-0.1-0.2c0-0.1,0-0.2,0.1-0.3l1.1-1.7c0.1-0.1,0.1-0.2,0.2-0.3c0.1-0.1,0.2-0.1,0.4-0.1c0.2,0,0.3,0,0.5,0.1
						c0.1,0.1,0.2,0.2,0.1,0.4c0,0.1,0,0.2,0,0.2c0,0.1-0.1,0.1-0.1,0.2l-1.3,1.4c-0.1,0.1-0.2,0.2-0.3,0.2
						C282.9,24.8,282.8,24.8,282.7,24.8z"/>
					<path class="st7" d="M288.7,33.3c-0.1-0.1-0.1-0.3-0.1-0.4s0.1-0.2,0.2-0.3c0.1-0.1,0.2-0.1,0.3-0.1c0.1,0,0.2,0.1,0.4,0.2
						c0.3,0.4,0.7,0.8,1.2,1s1,0.4,1.6,0.4c0.3,0,0.7-0.1,1-0.2c0.3-0.1,0.6-0.3,0.8-0.5c0.2-0.2,0.3-0.5,0.3-0.9
						c0-0.4-0.1-0.7-0.3-0.9c-0.2-0.2-0.5-0.4-0.8-0.5c-0.3-0.1-0.7-0.3-1.1-0.4c-0.4-0.1-0.8-0.2-1.2-0.4s-0.7-0.3-1-0.5
						s-0.5-0.5-0.7-0.8s-0.3-0.7-0.3-1.1c0-0.5,0.1-0.9,0.4-1.3c0.3-0.4,0.6-0.7,1.1-0.9c0.5-0.2,1-0.3,1.6-0.3c0.3,0,0.6,0,1,0.1
						c0.3,0.1,0.7,0.2,1,0.4s0.6,0.4,0.9,0.7c0.1,0.1,0.2,0.2,0.2,0.4s-0.1,0.3-0.2,0.4c-0.1,0.1-0.2,0.1-0.3,0.1
						c-0.1,0-0.2-0.1-0.3-0.2c-0.3-0.3-0.6-0.6-1-0.7c-0.4-0.2-0.8-0.2-1.3-0.2c-0.3,0-0.7,0.1-1,0.2c-0.3,0.1-0.6,0.3-0.8,0.5
						c-0.2,0.2-0.3,0.5-0.3,0.9c0,0.3,0.1,0.6,0.4,0.8c0.2,0.2,0.5,0.4,0.9,0.5c0.4,0.1,0.8,0.3,1.2,0.4c0.4,0.1,0.8,0.2,1.1,0.3
						c0.4,0.1,0.7,0.3,0.9,0.5c0.3,0.2,0.5,0.4,0.6,0.7s0.2,0.7,0.2,1.1c0,0.5-0.1,1-0.4,1.4s-0.7,0.7-1.2,0.9
						c-0.5,0.2-1,0.3-1.6,0.3c-0.6,0-1.3-0.1-1.9-0.4C289.7,34.3,289.2,33.9,288.7,33.3z"/>
					<path class="st7" d="M310,21.4c0.2,0,0.3,0.1,0.4,0.2c0.1,0.1,0.2,0.2,0.2,0.4v12.2c0,0.1-0.1,0.3-0.2,0.4
						c-0.1,0.1-0.2,0.2-0.4,0.2c-0.2,0-0.3-0.1-0.4-0.2c-0.1-0.1-0.2-0.2-0.2-0.4V32l0.3-0.3c0,0.3-0.1,0.7-0.3,1.1
						c-0.2,0.4-0.4,0.7-0.8,1c-0.3,0.3-0.7,0.6-1.2,0.7c-0.4,0.2-0.9,0.3-1.4,0.3c-0.8,0-1.5-0.2-2.2-0.6s-1.1-1-1.5-1.7
						S302,31,302,30.1c0-0.9,0.2-1.7,0.6-2.5c0.4-0.7,0.9-1.3,1.5-1.7s1.4-0.6,2.1-0.6c0.5,0,1,0.1,1.4,0.3c0.4,0.2,0.8,0.4,1.2,0.7
						c0.3,0.3,0.6,0.7,0.8,1.1s0.3,0.8,0.3,1.3l-0.4-0.3v-6.4c0-0.1,0.1-0.3,0.2-0.4C309.7,21.5,309.9,21.4,310,21.4z M306.3,33.9
						c0.6,0,1.2-0.2,1.7-0.5s0.9-0.8,1.2-1.3s0.4-1.2,0.4-2c0-0.7-0.1-1.4-0.4-1.9c-0.3-0.6-0.7-1-1.2-1.3c-0.5-0.3-1.1-0.5-1.7-0.5
						c-0.6,0-1.2,0.2-1.7,0.5c-0.5,0.3-0.9,0.8-1.2,1.3c-0.3,0.6-0.4,1.2-0.4,1.9s0.1,1.4,0.4,1.9c0.3,0.6,0.7,1,1.2,1.4
						S305.7,33.9,306.3,33.9z"/>
					<path class="st7" d="M317.4,34.9c-0.9,0-1.8-0.2-2.5-0.6c-0.7-0.4-1.3-0.9-1.6-1.7c-0.4-0.7-0.6-1.5-0.6-2.5
						c0-1,0.2-1.9,0.6-2.6c0.4-0.7,0.9-1.3,1.6-1.7c0.6-0.4,1.3-0.6,2-0.6c0.5,0,1,0.1,1.5,0.3c0.5,0.2,0.9,0.5,1.3,0.8
						s0.7,0.8,0.9,1.3c0.2,0.5,0.4,1.1,0.4,1.8c0,0.1-0.1,0.3-0.2,0.4c-0.1,0.1-0.2,0.2-0.4,0.2h-7.2l-0.2-1h7.1l-0.2,0.2V29
						c0-0.6-0.2-1-0.5-1.4c-0.3-0.4-0.7-0.7-1.1-0.9c-0.4-0.2-0.9-0.3-1.4-0.3c-0.4,0-0.7,0.1-1.1,0.2c-0.4,0.1-0.7,0.4-1,0.7
						c-0.3,0.3-0.6,0.7-0.7,1.2c-0.2,0.5-0.3,1-0.3,1.7c0,0.7,0.1,1.3,0.4,1.9s0.7,1,1.2,1.4s1.2,0.5,2,0.5c0.4,0,0.8-0.1,1.1-0.2
						c0.3-0.1,0.6-0.3,0.9-0.5c0.3-0.2,0.5-0.4,0.6-0.6c0.1-0.1,0.2-0.2,0.4-0.2s0.2,0,0.3,0.1c0.1,0.1,0.1,0.2,0.1,0.3
						c0,0.1-0.1,0.3-0.2,0.4c-0.4,0.4-0.8,0.8-1.4,1.1C318.7,34.7,318.1,34.9,317.4,34.9z"/>
					<path class="st7" d="M329.4,34.2c0,0.1-0.1,0.3-0.2,0.4c-0.1,0.1-0.2,0.2-0.4,0.2c-0.2,0-0.3-0.1-0.4-0.2
						c-0.1-0.1-0.2-0.2-0.2-0.4V21.9c0-0.1,0.1-0.3,0.2-0.4c0.1-0.1,0.2-0.2,0.4-0.2c0.2,0,0.3,0.1,0.4,0.2c0.1,0.1,0.2,0.2,0.2,0.4
						V34.2z"/>
					<path class="st7" d="M339.7,25.5c0.2,0,0.3,0.1,0.4,0.2c0.1,0.1,0.2,0.2,0.2,0.4v8.1c0,0.1-0.1,0.3-0.2,0.4
						c-0.1,0.1-0.2,0.2-0.4,0.2c-0.2,0-0.3-0.1-0.4-0.2c-0.1-0.1-0.2-0.2-0.2-0.4V32l0.3-0.1c0,0.3-0.1,0.7-0.3,1
						c-0.2,0.4-0.4,0.7-0.8,1c-0.3,0.3-0.7,0.5-1.1,0.7c-0.4,0.2-0.9,0.3-1.4,0.3c-0.8,0-1.5-0.2-2.2-0.6c-0.6-0.4-1.1-1-1.5-1.7
						c-0.4-0.7-0.5-1.6-0.5-2.5c0-0.9,0.2-1.8,0.6-2.5s0.9-1.3,1.5-1.7s1.4-0.6,2.1-0.6c0.5,0,1,0.1,1.4,0.3
						c0.5,0.2,0.8,0.4,1.2,0.7c0.3,0.3,0.6,0.7,0.8,1.1c0.2,0.4,0.3,0.8,0.3,1.3l-0.4-0.3v-2.3c0-0.2,0.1-0.3,0.2-0.4
						C339.4,25.6,339.5,25.5,339.7,25.5z M335.9,33.9c0.6,0,1.2-0.2,1.7-0.5s0.9-0.8,1.2-1.4c0.3-0.6,0.4-1.2,0.4-2
						c0-0.7-0.1-1.3-0.4-1.9s-0.7-1-1.2-1.3s-1.1-0.5-1.7-0.5c-0.6,0-1.2,0.2-1.7,0.5c-0.5,0.3-0.9,0.8-1.2,1.3s-0.4,1.2-0.4,1.9
						c0,0.7,0.1,1.4,0.4,2c0.3,0.6,0.7,1,1.2,1.4C334.7,33.7,335.3,33.9,335.9,33.9z"/>
					<path class="st7" d="M352.9,25.3c0.3,0,0.5,0.1,0.7,0.3c0.2,0.2,0.3,0.4,0.3,0.7s-0.1,0.5-0.3,0.7c-0.2,0.2-0.4,0.3-0.7,0.3
						h-4.8c-0.3,0-0.5-0.1-0.7-0.3c-0.2-0.2-0.3-0.4-0.3-0.7s0.1-0.5,0.3-0.7c0.2-0.2,0.4-0.3,0.7-0.3H352.9z M352.7,21.4
						c0.3,0,0.5,0,0.8,0.1c0.3,0.1,0.5,0.2,0.6,0.4c0.2,0.2,0.3,0.4,0.3,0.6c0,0.3-0.1,0.5-0.3,0.7s-0.4,0.3-0.6,0.3
						c-0.1,0-0.3,0-0.5-0.1s-0.4-0.1-0.6-0.1c-0.3,0-0.5,0.1-0.7,0.2c-0.2,0.1-0.3,0.3-0.3,0.5c-0.1,0.2-0.1,0.3-0.1,0.5v9.2
						c0,0.3-0.1,0.6-0.3,0.8c-0.2,0.2-0.5,0.3-0.8,0.3c-0.3,0-0.6-0.1-0.8-0.3c-0.2-0.2-0.3-0.5-0.3-0.8v-9.2c0-0.9,0.3-1.6,0.9-2.2
						C350.6,21.7,351.5,21.4,352.7,21.4z"/>
					<path class="st7" d="M362.5,24.9c0.3,0,0.6,0.1,0.8,0.3s0.3,0.5,0.3,0.8v7.6c0,0.3-0.1,0.6-0.3,0.8c-0.2,0.2-0.5,0.3-0.8,0.3
						s-0.6-0.1-0.8-0.3c-0.2-0.2-0.3-0.5-0.3-0.8v-0.9l0.4,0.2c0,0.2-0.1,0.3-0.3,0.6c-0.2,0.2-0.4,0.4-0.7,0.7s-0.6,0.4-1,0.5
						c-0.4,0.1-0.8,0.2-1.3,0.2c-0.8,0-1.6-0.2-2.2-0.6s-1.2-1-1.6-1.8s-0.6-1.6-0.6-2.6c0-1,0.2-1.9,0.6-2.6s0.9-1.3,1.6-1.8
						s1.4-0.6,2.2-0.6c0.5,0,1,0.1,1.4,0.2c0.4,0.2,0.8,0.4,1.1,0.6c0.3,0.2,0.6,0.5,0.7,0.7c0.2,0.2,0.3,0.5,0.3,0.6l-0.6,0.2V26
						c0-0.3,0.1-0.6,0.3-0.8C361.9,25,362.2,24.9,362.5,24.9z M358.9,32.9c0.5,0,1-0.1,1.4-0.4c0.4-0.3,0.7-0.6,0.9-1.1
						c0.2-0.5,0.3-1,0.3-1.5c0-0.6-0.1-1.1-0.3-1.5c-0.2-0.5-0.5-0.8-0.9-1.1c-0.4-0.3-0.9-0.4-1.4-0.4c-0.5,0-1,0.1-1.4,0.4
						c-0.4,0.3-0.7,0.6-0.9,1.1c-0.2,0.5-0.3,1-0.3,1.5c0,0.6,0.1,1.1,0.3,1.5c0.2,0.5,0.5,0.8,0.9,1.1
						C357.9,32.8,358.4,32.9,358.9,32.9z"/>
					<path class="st7" d="M366.8,34.7c-0.3,0-0.6-0.1-0.8-0.3c-0.2-0.2-0.3-0.5-0.3-0.8v-7.4c0-0.3,0.1-0.6,0.3-0.8
						c0.2-0.2,0.5-0.3,0.8-0.3c0.3,0,0.6,0.1,0.8,0.3c0.2,0.2,0.3,0.5,0.3,0.8v1.7l-0.1-1.2c0.1-0.3,0.3-0.5,0.5-0.8
						c0.2-0.2,0.4-0.4,0.7-0.6c0.3-0.1,0.5-0.3,0.8-0.3c0.3-0.1,0.6-0.1,0.9-0.1c0.4,0,0.7,0.1,0.9,0.3s0.4,0.4,0.4,0.7
						c0,0.4-0.1,0.7-0.3,0.9c-0.2,0.2-0.4,0.3-0.7,0.3c-0.2,0-0.4,0-0.6-0.1c-0.2-0.1-0.4-0.1-0.6-0.1c-0.2,0-0.4,0.1-0.7,0.2
						c-0.2,0.1-0.4,0.3-0.6,0.5c-0.2,0.2-0.3,0.5-0.5,0.8c-0.1,0.3-0.2,0.7-0.2,1.1v4.3c0,0.3-0.1,0.6-0.3,0.8
						C367.4,34.6,367.1,34.7,366.8,34.7z"/>
					<path class="st7" d="M374.5,23.9c-0.4,0-0.7-0.1-0.9-0.2s-0.3-0.4-0.3-0.7v-0.3c0-0.3,0.1-0.6,0.3-0.7c0.2-0.1,0.5-0.2,0.9-0.2
						c0.4,0,0.7,0.1,0.9,0.2c0.2,0.1,0.3,0.4,0.3,0.7V23c0,0.3-0.1,0.6-0.3,0.7C375.2,23.9,374.9,23.9,374.5,23.9z M375.6,33.6
						c0,0.3-0.1,0.6-0.3,0.8c-0.2,0.2-0.5,0.3-0.8,0.3c-0.3,0-0.6-0.1-0.8-0.3c-0.2-0.2-0.3-0.5-0.3-0.8v-7.4c0-0.3,0.1-0.6,0.3-0.8
						c0.2-0.2,0.5-0.3,0.8-0.3c0.3,0,0.6,0.1,0.8,0.3c0.2,0.2,0.3,0.5,0.3,0.8V33.6z"/>
					<path class="st7" d="M382.7,24.9c0.9,0,1.6,0.2,2,0.6s0.8,0.9,1,1.5s0.3,1.3,0.3,2.1v4.6c0,0.3-0.1,0.6-0.3,0.8
						c-0.2,0.2-0.5,0.3-0.8,0.3c-0.3,0-0.6-0.1-0.8-0.3c-0.2-0.2-0.3-0.5-0.3-0.8V29c0-0.4-0.1-0.8-0.2-1.1
						c-0.1-0.3-0.3-0.6-0.5-0.8c-0.3-0.2-0.6-0.3-1.1-0.3c-0.5,0-0.9,0.1-1.2,0.3c-0.3,0.2-0.6,0.4-0.8,0.8
						c-0.2,0.3-0.3,0.7-0.3,1.1v4.6c0,0.3-0.1,0.6-0.3,0.8c-0.2,0.2-0.5,0.3-0.8,0.3c-0.3,0-0.6-0.1-0.8-0.3
						c-0.2-0.2-0.3-0.5-0.3-0.8v-7.4c0-0.3,0.1-0.6,0.3-0.8c0.2-0.2,0.5-0.3,0.8-0.3c0.3,0,0.6,0.1,0.8,0.3c0.2,0.2,0.3,0.5,0.3,0.8
						V27l-0.3-0.1c0.1-0.2,0.3-0.4,0.5-0.7c0.2-0.2,0.4-0.5,0.7-0.7c0.3-0.2,0.6-0.4,0.9-0.5C381.9,25,382.3,24.9,382.7,24.9z"/>
					<path class="st7" d="M392.1,24.9c0.5,0,1,0.1,1.4,0.2c0.4,0.2,0.8,0.4,1.1,0.6c0.3,0.2,0.5,0.5,0.7,0.7
						c0.2,0.2,0.3,0.5,0.3,0.6l-0.5,0.2V26c0-0.3,0.1-0.6,0.3-0.8s0.5-0.3,0.8-0.3c0.3,0,0.6,0.1,0.8,0.3s0.3,0.5,0.3,0.8v8
						c0,1-0.2,1.9-0.7,2.5c-0.5,0.6-1,1.1-1.8,1.4c-0.7,0.3-1.5,0.4-2.4,0.4c-0.2,0-0.6,0-0.9-0.1c-0.4-0.1-0.8-0.1-1.1-0.2
						s-0.6-0.2-0.8-0.2c-0.4-0.2-0.6-0.4-0.7-0.6c-0.1-0.2-0.2-0.5-0.1-0.7c0.1-0.3,0.3-0.6,0.5-0.7s0.5-0.1,0.8,0
						c0.1,0,0.3,0.1,0.6,0.2c0.3,0.1,0.6,0.2,0.9,0.3c0.3,0.1,0.6,0.1,0.9,0.1c0.9,0,1.6-0.2,2-0.5s0.6-0.9,0.6-1.5v-1.6l0.2,0.2
						c0,0.2-0.1,0.3-0.2,0.6s-0.4,0.4-0.7,0.7c-0.3,0.2-0.6,0.4-1,0.5c-0.4,0.1-0.8,0.2-1.2,0.2c-0.9,0-1.6-0.2-2.3-0.6
						c-0.7-0.4-1.2-1-1.6-1.8c-0.4-0.8-0.6-1.6-0.6-2.6c0-1,0.2-1.9,0.6-2.6c0.4-0.8,0.9-1.3,1.6-1.8S391.2,24.9,392.1,24.9z
						 M392.4,26.9c-0.5,0-1,0.1-1.4,0.4c-0.4,0.3-0.7,0.6-1,1.1c-0.2,0.5-0.3,1-0.3,1.5c0,0.6,0.1,1.1,0.3,1.5
						c0.2,0.5,0.5,0.8,1,1.1c0.4,0.3,0.9,0.4,1.4,0.4c0.6,0,1-0.1,1.4-0.4c0.4-0.3,0.7-0.6,1-1.1c0.2-0.5,0.3-1,0.3-1.5
						c0-0.6-0.1-1.1-0.3-1.5c-0.2-0.5-0.5-0.8-1-1.1C393.4,27,392.9,26.9,392.4,26.9z"/>
					<path class="st7" d="M403.9,34.9c-1,0-1.9-0.2-2.7-0.6s-1.3-1-1.7-1.7c-0.4-0.7-0.6-1.6-0.6-2.5c0-1.1,0.2-2,0.7-2.8
						c0.4-0.8,1-1.3,1.7-1.8c0.7-0.4,1.5-0.6,2.2-0.6c0.6,0,1.2,0.1,1.7,0.4s1,0.6,1.4,1c0.4,0.4,0.8,0.9,1,1.5
						c0.2,0.6,0.4,1.2,0.4,1.8c0,0.3-0.1,0.5-0.3,0.7s-0.5,0.3-0.8,0.3h-6.9l-0.5-1.8h6.6l-0.4,0.4v-0.5c0-0.3-0.1-0.7-0.4-0.9
						c-0.2-0.3-0.5-0.5-0.8-0.7s-0.7-0.2-1.1-0.2c-0.4,0-0.7,0-1,0.1c-0.3,0.1-0.6,0.3-0.8,0.5c-0.2,0.2-0.4,0.5-0.5,0.9
						c-0.1,0.4-0.2,0.9-0.2,1.5c0,0.6,0.1,1.2,0.4,1.6c0.3,0.5,0.6,0.8,1,1c0.4,0.2,0.9,0.4,1.4,0.4c0.4,0,0.8,0,1.1-0.1
						c0.3-0.1,0.5-0.2,0.6-0.3s0.3-0.2,0.4-0.3c0.2-0.1,0.4-0.2,0.6-0.2c0.3,0,0.5,0.1,0.7,0.3c0.2,0.2,0.3,0.4,0.3,0.6
						c0,0.3-0.2,0.6-0.5,0.9c-0.3,0.3-0.8,0.5-1.3,0.7C405.1,34.8,404.5,34.9,403.9,34.9z"/>
					<path class="st7" d="M422,25.4c0.2,0,0.3,0.1,0.4,0.2c0.1,0.1,0.2,0.2,0.2,0.4v7.9c0,1-0.2,1.8-0.6,2.5
						c-0.4,0.7-0.9,1.2-1.5,1.5c-0.6,0.3-1.4,0.5-2.2,0.5c-0.5,0-1-0.1-1.4-0.2c-0.4-0.1-0.8-0.3-1.1-0.4c-0.1-0.1-0.3-0.2-0.3-0.3
						c-0.1-0.1-0.1-0.3,0-0.4c0.1-0.2,0.2-0.3,0.3-0.3c0.1-0.1,0.3-0.1,0.4,0c0.2,0.1,0.5,0.2,0.9,0.4c0.4,0.2,0.8,0.2,1.3,0.2
						c0.7,0,1.2-0.1,1.7-0.4c0.5-0.3,0.9-0.7,1.1-1.2c0.3-0.5,0.4-1.1,0.4-1.9v-1.3l0.1,0.5c-0.2,0.4-0.4,0.7-0.8,1
						s-0.7,0.5-1.1,0.7c-0.4,0.2-0.9,0.2-1.3,0.2c-0.7,0-1.3-0.1-1.8-0.4c-0.5-0.3-0.8-0.7-1.1-1.2c-0.2-0.5-0.4-1.1-0.4-1.8v-5.5
						c0-0.1,0.1-0.3,0.2-0.4c0.1-0.1,0.2-0.2,0.4-0.2c0.2,0,0.3,0.1,0.4,0.2c0.1,0.1,0.2,0.2,0.2,0.4v5.4c0,0.8,0.2,1.5,0.5,1.9
						s1,0.7,1.8,0.7c0.5,0,1-0.1,1.4-0.4c0.4-0.2,0.8-0.6,1.1-1c0.3-0.4,0.4-0.8,0.4-1.3v-5.4c0-0.1,0-0.3,0.1-0.4
						C421.7,25.4,421.9,25.4,422,25.4z"/>
					<path class="st7" d="M20.8,54.9c-0.9,0-1.8-0.2-2.5-0.6c-0.7-0.4-1.3-0.9-1.6-1.7c-0.4-0.7-0.6-1.5-0.6-2.5
						c0-1,0.2-1.9,0.6-2.6c0.4-0.7,0.9-1.3,1.6-1.7c0.6-0.4,1.3-0.6,2-0.6c0.5,0,1,0.1,1.5,0.3c0.5,0.2,0.9,0.5,1.3,0.8
						s0.7,0.8,0.9,1.3c0.2,0.5,0.4,1.1,0.4,1.8c0,0.1-0.1,0.3-0.2,0.4c-0.1,0.1-0.2,0.2-0.4,0.2h-7.2l-0.2-1h7.1l-0.2,0.2V49
						c0-0.6-0.2-1-0.5-1.4c-0.3-0.4-0.7-0.7-1.1-0.9c-0.4-0.2-0.9-0.3-1.4-0.3c-0.4,0-0.7,0.1-1.1,0.2c-0.4,0.1-0.7,0.4-1,0.7
						c-0.3,0.3-0.6,0.7-0.7,1.2c-0.2,0.5-0.3,1-0.3,1.7c0,0.7,0.1,1.3,0.4,1.9s0.7,1,1.2,1.4s1.2,0.5,2,0.5c0.4,0,0.8-0.1,1.1-0.2
						c0.3-0.1,0.6-0.3,0.9-0.5c0.3-0.2,0.5-0.4,0.6-0.6c0.1-0.1,0.2-0.2,0.4-0.2s0.2,0,0.3,0.1c0.1,0.1,0.1,0.2,0.1,0.3
						c0,0.1-0.1,0.3-0.2,0.4c-0.4,0.4-0.8,0.8-1.4,1.1C22.1,54.7,21.5,54.9,20.8,54.9z"/>
					<path class="st7" d="M26.1,53.3C26,53.1,26,53,26,52.8s0.1-0.2,0.2-0.3c0.1-0.1,0.2-0.1,0.3-0.1c0.1,0,0.2,0.1,0.4,0.2
						c0.3,0.4,0.7,0.8,1.2,1s1,0.4,1.6,0.4c0.3,0,0.7-0.1,1-0.2c0.3-0.1,0.6-0.3,0.8-0.5c0.2-0.2,0.3-0.5,0.3-0.9
						c0-0.4-0.1-0.7-0.3-0.9c-0.2-0.2-0.5-0.4-0.8-0.5c-0.3-0.1-0.7-0.3-1.1-0.4c-0.4-0.1-0.8-0.2-1.2-0.4s-0.7-0.3-1-0.5
						s-0.5-0.5-0.7-0.8s-0.3-0.7-0.3-1.1c0-0.5,0.1-0.9,0.4-1.3c0.3-0.4,0.6-0.7,1.1-0.9c0.5-0.2,1-0.3,1.6-0.3c0.3,0,0.6,0,1,0.1
						c0.3,0.1,0.7,0.2,1,0.4s0.6,0.4,0.9,0.7c0.1,0.1,0.2,0.2,0.2,0.4s-0.1,0.3-0.2,0.4c-0.1,0.1-0.2,0.1-0.3,0.1
						c-0.1,0-0.2-0.1-0.3-0.2c-0.3-0.3-0.6-0.6-1-0.7c-0.4-0.2-0.8-0.2-1.3-0.2c-0.3,0-0.7,0.1-1,0.2c-0.3,0.1-0.6,0.3-0.8,0.5
						c-0.2,0.2-0.3,0.5-0.3,0.9c0,0.3,0.1,0.6,0.4,0.8c0.2,0.2,0.5,0.4,0.9,0.5c0.4,0.1,0.8,0.3,1.2,0.4c0.4,0.1,0.8,0.2,1.1,0.3
						c0.4,0.1,0.7,0.3,0.9,0.5c0.3,0.2,0.5,0.4,0.6,0.7s0.2,0.7,0.2,1.1c0,0.5-0.1,1-0.4,1.4s-0.7,0.7-1.2,0.9
						c-0.5,0.2-1,0.3-1.6,0.3c-0.6,0-1.3-0.1-1.9-0.4C27.1,54.3,26.6,53.9,26.1,53.3z"/>
					<path class="st7" d="M34.5,45.6h4.2c0.1,0,0.3,0.1,0.4,0.2s0.1,0.2,0.1,0.4c0,0.1,0,0.3-0.1,0.4c-0.1,0.1-0.2,0.1-0.4,0.1h-4.2
						c-0.1,0-0.3-0.1-0.4-0.2C34,46.3,34,46.2,34,46.1c0-0.1,0.1-0.3,0.2-0.4C34.2,45.6,34.3,45.6,34.5,45.6z M36.3,43
						c0.2,0,0.3,0.1,0.4,0.2c0.1,0.1,0.2,0.2,0.2,0.4v9c0,0.3,0,0.6,0.1,0.8c0.1,0.2,0.2,0.3,0.4,0.3s0.3,0.1,0.4,0.1
						c0.1,0,0.2,0,0.3,0c0.1,0,0.2,0,0.3,0c0.1,0,0.2,0,0.3,0.1c0.1,0.1,0.1,0.2,0.1,0.3c0,0.2-0.1,0.3-0.3,0.4
						c-0.2,0.1-0.4,0.2-0.7,0.2c-0.1,0-0.3,0-0.5,0c-0.2,0-0.4-0.1-0.7-0.2c-0.2-0.1-0.4-0.3-0.6-0.6c-0.2-0.3-0.2-0.7-0.2-1.2v-9.1
						c0-0.1,0.1-0.3,0.2-0.4C36.1,43.1,36.2,43,36.3,43z"/>
					<path class="st7" d="M44.7,54.9c-0.9,0-1.8-0.2-2.5-0.6c-0.7-0.4-1.3-0.9-1.6-1.7c-0.4-0.7-0.6-1.5-0.6-2.5
						c0-1,0.2-1.9,0.6-2.6c0.4-0.7,0.9-1.3,1.6-1.7c0.6-0.4,1.3-0.6,2-0.6c0.5,0,1,0.1,1.5,0.3c0.5,0.2,0.9,0.5,1.3,0.8
						s0.7,0.8,0.9,1.3c0.2,0.5,0.4,1.1,0.4,1.8c0,0.1-0.1,0.3-0.2,0.4c-0.1,0.1-0.2,0.2-0.4,0.2h-7.2l-0.2-1h7.1l-0.2,0.2V49
						c0-0.6-0.2-1-0.5-1.4c-0.3-0.4-0.7-0.7-1.1-0.9c-0.4-0.2-0.9-0.3-1.4-0.3c-0.4,0-0.7,0.1-1.1,0.2c-0.4,0.1-0.7,0.4-1,0.7
						c-0.3,0.3-0.6,0.7-0.7,1.2c-0.2,0.5-0.3,1-0.3,1.7c0,0.7,0.1,1.3,0.4,1.9s0.7,1,1.2,1.4s1.2,0.5,2,0.5c0.4,0,0.8-0.1,1.1-0.2
						c0.3-0.1,0.6-0.3,0.9-0.5c0.3-0.2,0.5-0.4,0.6-0.6c0.1-0.1,0.2-0.2,0.4-0.2s0.2,0,0.3,0.1c0.1,0.1,0.1,0.2,0.1,0.3
						c0,0.1-0.1,0.3-0.2,0.4c-0.4,0.4-0.8,0.8-1.4,1.1C46,54.7,45.4,54.9,44.7,54.9z"/>
					<path class="st7" d="M55,53.3c-0.1-0.1-0.1-0.3-0.1-0.4s0.1-0.2,0.2-0.3c0.1-0.1,0.2-0.1,0.3-0.1c0.1,0,0.2,0.1,0.4,0.2
						c0.3,0.4,0.7,0.8,1.2,1s1,0.4,1.6,0.4c0.3,0,0.7-0.1,1-0.2c0.3-0.1,0.6-0.3,0.8-0.5c0.2-0.2,0.3-0.5,0.3-0.9
						c0-0.4-0.1-0.7-0.3-0.9c-0.2-0.2-0.5-0.4-0.8-0.5c-0.3-0.1-0.7-0.3-1.1-0.4c-0.4-0.1-0.8-0.2-1.2-0.4s-0.7-0.3-1-0.5
						s-0.5-0.5-0.7-0.8s-0.3-0.7-0.3-1.1c0-0.5,0.1-0.9,0.4-1.3c0.3-0.4,0.6-0.7,1.1-0.9c0.5-0.2,1-0.3,1.6-0.3c0.3,0,0.6,0,1,0.1
						c0.3,0.1,0.7,0.2,1,0.4s0.6,0.4,0.9,0.7c0.1,0.1,0.2,0.2,0.2,0.4s-0.1,0.3-0.2,0.4c-0.1,0.1-0.2,0.1-0.3,0.1
						c-0.1,0-0.2-0.1-0.3-0.2c-0.3-0.3-0.6-0.6-1-0.7c-0.4-0.2-0.8-0.2-1.3-0.2c-0.3,0-0.7,0.1-1,0.2c-0.3,0.1-0.6,0.3-0.8,0.5
						c-0.2,0.2-0.3,0.5-0.3,0.9c0,0.3,0.1,0.6,0.4,0.8c0.2,0.2,0.5,0.4,0.9,0.5c0.4,0.1,0.8,0.3,1.2,0.4c0.4,0.1,0.8,0.2,1.1,0.3
						c0.4,0.1,0.7,0.3,0.9,0.5c0.3,0.2,0.5,0.4,0.6,0.7s0.2,0.7,0.2,1.1c0,0.5-0.1,1-0.4,1.4s-0.7,0.7-1.2,0.9
						c-0.5,0.2-1,0.3-1.6,0.3c-0.6,0-1.3-0.1-1.9-0.4C56,54.3,55.5,53.9,55,53.3z"/>
					<path class="st7" d="M67.9,54.9c-0.9,0-1.8-0.2-2.5-0.6c-0.7-0.4-1.3-0.9-1.6-1.7c-0.4-0.7-0.6-1.5-0.6-2.5
						c0-1,0.2-1.9,0.6-2.6c0.4-0.7,0.9-1.3,1.6-1.7c0.6-0.4,1.3-0.6,2-0.6c0.5,0,1,0.1,1.5,0.3c0.5,0.2,0.9,0.5,1.3,0.8
						s0.7,0.8,0.9,1.3c0.2,0.5,0.4,1.1,0.4,1.8c0,0.1-0.1,0.3-0.2,0.4c-0.1,0.1-0.2,0.2-0.4,0.2h-7.2l-0.2-1h7.1l-0.2,0.2V49
						c0-0.6-0.2-1-0.5-1.4c-0.3-0.4-0.7-0.7-1.1-0.9c-0.4-0.2-0.9-0.3-1.4-0.3c-0.4,0-0.7,0.1-1.1,0.2c-0.4,0.1-0.7,0.4-1,0.7
						c-0.3,0.3-0.6,0.7-0.7,1.2c-0.2,0.5-0.3,1-0.3,1.7c0,0.7,0.1,1.3,0.4,1.9s0.7,1,1.2,1.4s1.2,0.5,2,0.5c0.4,0,0.8-0.1,1.1-0.2
						c0.3-0.1,0.6-0.3,0.9-0.5c0.3-0.2,0.5-0.4,0.6-0.6c0.1-0.1,0.2-0.2,0.4-0.2s0.2,0,0.3,0.1c0.1,0.1,0.1,0.2,0.1,0.3
						c0,0.1-0.1,0.3-0.2,0.4c-0.4,0.4-0.8,0.8-1.4,1.1C69.2,54.7,68.6,54.9,67.9,54.9z"/>
					<path class="st7" d="M86.2,41.4c0.2,0,0.3,0.1,0.4,0.2c0.1,0.1,0.2,0.2,0.2,0.4v12.2c0,0.1-0.1,0.3-0.2,0.4
						c-0.1,0.1-0.2,0.2-0.4,0.2c-0.2,0-0.3-0.1-0.4-0.2c-0.1-0.1-0.2-0.2-0.2-0.4V52l0.3-0.3c0,0.3-0.1,0.7-0.3,1.1
						c-0.2,0.4-0.4,0.7-0.8,1c-0.3,0.3-0.7,0.6-1.2,0.7c-0.4,0.2-0.9,0.3-1.4,0.3c-0.8,0-1.5-0.2-2.2-0.6s-1.1-1-1.5-1.7
						s-0.6-1.5-0.6-2.5c0-0.9,0.2-1.7,0.6-2.5c0.4-0.7,0.9-1.3,1.5-1.7s1.4-0.6,2.1-0.6c0.5,0,1,0.1,1.4,0.3
						c0.4,0.2,0.8,0.4,1.2,0.7c0.3,0.3,0.6,0.7,0.8,1.1s0.3,0.8,0.3,1.3l-0.4-0.3v-6.4c0-0.1,0.1-0.3,0.2-0.4
						C85.9,41.5,86.1,41.4,86.2,41.4z M82.5,53.9c0.6,0,1.2-0.2,1.7-0.5s0.9-0.8,1.2-1.3s0.4-1.2,0.4-2c0-0.7-0.1-1.4-0.4-1.9
						c-0.3-0.6-0.7-1-1.2-1.3c-0.5-0.3-1.1-0.5-1.7-0.5c-0.6,0-1.2,0.2-1.7,0.5c-0.5,0.3-0.9,0.8-1.2,1.3c-0.3,0.6-0.4,1.2-0.4,1.9
						s0.1,1.4,0.4,1.9c0.3,0.6,0.7,1,1.2,1.4S81.9,53.9,82.5,53.9z"/>
					<path class="st7" d="M93.6,54.9c-0.9,0-1.8-0.2-2.5-0.6c-0.7-0.4-1.3-0.9-1.6-1.7c-0.4-0.7-0.6-1.5-0.6-2.5
						c0-1,0.2-1.9,0.6-2.6c0.4-0.7,0.9-1.3,1.6-1.7c0.6-0.4,1.3-0.6,2-0.6c0.5,0,1,0.1,1.5,0.3c0.5,0.2,0.9,0.5,1.3,0.8
						s0.7,0.8,0.9,1.3c0.2,0.5,0.4,1.1,0.4,1.8c0,0.1-0.1,0.3-0.2,0.4c-0.1,0.1-0.2,0.2-0.4,0.2h-7.2l-0.2-1h7.1l-0.2,0.2V49
						c0-0.6-0.2-1-0.5-1.4c-0.3-0.4-0.7-0.7-1.1-0.9c-0.4-0.2-0.9-0.3-1.4-0.3c-0.4,0-0.7,0.1-1.1,0.2c-0.4,0.1-0.7,0.4-1,0.7
						c-0.3,0.3-0.6,0.7-0.7,1.2c-0.2,0.5-0.3,1-0.3,1.7c0,0.7,0.1,1.3,0.4,1.9s0.7,1,1.2,1.4s1.2,0.5,2,0.5c0.4,0,0.8-0.1,1.1-0.2
						c0.3-0.1,0.6-0.3,0.9-0.5c0.3-0.2,0.5-0.4,0.6-0.6c0.1-0.1,0.2-0.2,0.4-0.2s0.2,0,0.3,0.1c0.1,0.1,0.1,0.2,0.1,0.3
						c0,0.1-0.1,0.3-0.2,0.4c-0.4,0.4-0.8,0.8-1.4,1.1C94.9,54.7,94.3,54.9,93.6,54.9z"/>
					<path class="st7" d="M98.9,53.3c-0.1-0.1-0.1-0.3-0.1-0.4s0.1-0.2,0.2-0.3c0.1-0.1,0.2-0.1,0.3-0.1c0.1,0,0.2,0.1,0.4,0.2
						c0.3,0.4,0.7,0.8,1.2,1s1,0.4,1.6,0.4c0.3,0,0.7-0.1,1-0.2c0.3-0.1,0.6-0.3,0.8-0.5c0.2-0.2,0.3-0.5,0.3-0.9
						c0-0.4-0.1-0.7-0.3-0.9c-0.2-0.2-0.5-0.4-0.8-0.5c-0.3-0.1-0.7-0.3-1.1-0.4c-0.4-0.1-0.8-0.2-1.2-0.4s-0.7-0.3-1-0.5
						s-0.5-0.5-0.7-0.8s-0.3-0.7-0.3-1.1c0-0.5,0.1-0.9,0.4-1.3c0.3-0.4,0.6-0.7,1.1-0.9c0.5-0.2,1-0.3,1.6-0.3c0.3,0,0.6,0,1,0.1
						c0.3,0.1,0.7,0.2,1,0.4s0.6,0.4,0.9,0.7c0.1,0.1,0.2,0.2,0.2,0.4s-0.1,0.3-0.2,0.4c-0.1,0.1-0.2,0.1-0.3,0.1
						c-0.1,0-0.2-0.1-0.3-0.2c-0.3-0.3-0.6-0.6-1-0.7c-0.4-0.2-0.8-0.2-1.3-0.2c-0.3,0-0.7,0.1-1,0.2c-0.3,0.1-0.6,0.3-0.8,0.5
						c-0.2,0.2-0.3,0.5-0.3,0.9c0,0.3,0.1,0.6,0.4,0.8c0.2,0.2,0.5,0.4,0.9,0.5c0.4,0.1,0.8,0.3,1.2,0.4c0.4,0.1,0.8,0.2,1.1,0.3
						c0.4,0.1,0.7,0.3,0.9,0.5c0.3,0.2,0.5,0.4,0.6,0.7s0.2,0.7,0.2,1.1c0,0.5-0.1,1-0.4,1.4s-0.7,0.7-1.2,0.9
						c-0.5,0.2-1,0.3-1.6,0.3c-0.6,0-1.3-0.1-1.9-0.4C99.9,54.3,99.4,53.9,98.9,53.3z"/>
					<path class="st7" d="M112,45.5c0.8,0,1.5,0.2,2.2,0.6s1.1,1,1.5,1.7s0.6,1.5,0.6,2.4s-0.2,1.7-0.6,2.4s-0.9,1.3-1.5,1.7
						c-0.6,0.4-1.3,0.6-2.1,0.6c-0.4,0-0.8-0.1-1.2-0.2c-0.4-0.1-0.7-0.3-1-0.5c-0.3-0.2-0.6-0.5-0.8-0.8s-0.4-0.6-0.6-0.9l0.3-0.3
						v5.6c0,0.1-0.1,0.3-0.2,0.4c-0.1,0.1-0.2,0.2-0.4,0.2s-0.3-0.1-0.4-0.2c-0.1-0.1-0.2-0.2-0.2-0.4V46.1c0-0.2,0.1-0.3,0.2-0.4
						c0.1-0.1,0.2-0.2,0.4-0.2c0.2,0,0.3,0.1,0.4,0.2c0.1,0.1,0.2,0.2,0.2,0.4V48l-0.3-0.1c0.1-0.4,0.3-0.7,0.5-1
						c0.2-0.3,0.5-0.5,0.8-0.8c0.3-0.2,0.7-0.4,1-0.5C111.2,45.5,111.6,45.5,112,45.5z M111.9,46.5c-0.6,0-1.2,0.2-1.7,0.5
						c-0.5,0.3-0.9,0.8-1.2,1.3c-0.3,0.5-0.4,1.2-0.4,1.9c0,0.7,0.1,1.3,0.4,1.9c0.3,0.6,0.7,1,1.2,1.3c0.5,0.3,1.1,0.5,1.7,0.5
						c0.6,0,1.2-0.2,1.7-0.5c0.5-0.3,0.9-0.8,1.2-1.3c0.3-0.6,0.4-1.2,0.4-1.9s-0.1-1.3-0.4-1.9c-0.3-0.6-0.7-1-1.2-1.3
						C113.1,46.6,112.5,46.5,111.9,46.5z"/>
					<path class="st7" d="M119.5,54.2c0,0.1-0.1,0.3-0.2,0.4c-0.1,0.1-0.2,0.2-0.4,0.2c-0.2,0-0.3-0.1-0.4-0.2
						c-0.1-0.1-0.2-0.2-0.2-0.4V41.9c0-0.1,0.1-0.3,0.2-0.4c0.1-0.1,0.2-0.2,0.4-0.2c0.2,0,0.3,0.1,0.4,0.2c0.1,0.1,0.2,0.2,0.2,0.4
						V54.2z"/>
					<path class="st7" d="M129.7,45.5c0.2,0,0.3,0.1,0.4,0.2c0.1,0.1,0.2,0.2,0.2,0.4v8.1c0,0.1-0.1,0.3-0.2,0.4
						c-0.1,0.1-0.2,0.2-0.4,0.2c-0.2,0-0.3-0.1-0.4-0.2c-0.1-0.1-0.2-0.2-0.2-0.4V52l0.3-0.1c0,0.3-0.1,0.7-0.3,1
						c-0.2,0.4-0.4,0.7-0.8,1c-0.3,0.3-0.7,0.5-1.1,0.7c-0.4,0.2-0.9,0.3-1.4,0.3c-0.8,0-1.5-0.2-2.2-0.6c-0.6-0.4-1.1-1-1.5-1.7
						c-0.4-0.7-0.5-1.6-0.5-2.5c0-0.9,0.2-1.8,0.6-2.5s0.9-1.3,1.5-1.7s1.4-0.6,2.1-0.6c0.5,0,1,0.1,1.4,0.3
						c0.5,0.2,0.8,0.4,1.2,0.7c0.3,0.3,0.6,0.7,0.8,1.1c0.2,0.4,0.3,0.8,0.3,1.3l-0.4-0.3v-2.3c0-0.2,0.1-0.3,0.2-0.4
						C129.4,45.6,129.6,45.5,129.7,45.5z M126,53.9c0.6,0,1.2-0.2,1.7-0.5s0.9-0.8,1.2-1.4c0.3-0.6,0.4-1.2,0.4-2
						c0-0.7-0.1-1.3-0.4-1.9s-0.7-1-1.2-1.3s-1.1-0.5-1.7-0.5c-0.6,0-1.2,0.2-1.7,0.5c-0.5,0.3-0.9,0.8-1.2,1.3s-0.4,1.2-0.4,1.9
						c0,0.7,0.1,1.4,0.4,2c0.3,0.6,0.7,1,1.2,1.4C124.8,53.7,125.4,53.9,126,53.9z"/>
					<path class="st7" d="M138.5,53.7c0.1,0,0.3,0.1,0.4,0.2c0.1,0.1,0.2,0.2,0.2,0.4c0,0.1-0.1,0.3-0.2,0.4
						c-0.1,0.1-0.2,0.1-0.4,0.1h-5.8c-0.2,0-0.3-0.1-0.4-0.2s-0.1-0.2-0.1-0.3c0-0.1,0-0.1,0-0.2c0-0.1,0.1-0.1,0.1-0.2l5.5-7.5
						l0.1,0.2h-4.7c-0.1,0-0.3-0.1-0.4-0.2c-0.1-0.1-0.2-0.2-0.2-0.4c0-0.1,0.1-0.2,0.2-0.4c0.1-0.1,0.2-0.2,0.4-0.2h5.5
						c0.1,0,0.3,0.1,0.4,0.2c0.1,0.1,0.2,0.2,0.2,0.4c0,0.1,0,0.1,0,0.2c0,0.1-0.1,0.1-0.1,0.2l-5.4,7.5l-0.2-0.1H138.5z"/>
					<path class="st7" d="M148,45.5c0.2,0,0.3,0.1,0.4,0.2c0.1,0.1,0.2,0.2,0.2,0.4v8.1c0,0.1-0.1,0.3-0.2,0.4
						c-0.1,0.1-0.2,0.2-0.4,0.2c-0.2,0-0.3-0.1-0.4-0.2c-0.1-0.1-0.2-0.2-0.2-0.4V52l0.3-0.1c0,0.3-0.1,0.7-0.3,1
						c-0.2,0.4-0.4,0.7-0.8,1c-0.3,0.3-0.7,0.5-1.1,0.7c-0.4,0.2-0.9,0.3-1.4,0.3c-0.8,0-1.5-0.2-2.2-0.6c-0.6-0.4-1.1-1-1.5-1.7
						c-0.4-0.7-0.5-1.6-0.5-2.5c0-0.9,0.2-1.8,0.6-2.5s0.9-1.3,1.5-1.7s1.4-0.6,2.1-0.6c0.5,0,1,0.1,1.4,0.3
						c0.5,0.2,0.8,0.4,1.2,0.7c0.3,0.3,0.6,0.7,0.8,1.1c0.2,0.4,0.3,0.8,0.3,1.3l-0.4-0.3v-2.3c0-0.2,0.1-0.3,0.2-0.4
						C147.7,45.6,147.9,45.5,148,45.5z M144.3,53.9c0.6,0,1.2-0.2,1.7-0.5s0.9-0.8,1.2-1.4c0.3-0.6,0.4-1.2,0.4-2
						c0-0.7-0.1-1.3-0.4-1.9s-0.7-1-1.2-1.3s-1.1-0.5-1.7-0.5c-0.6,0-1.2,0.2-1.7,0.5c-0.5,0.3-0.9,0.8-1.2,1.3s-0.4,1.2-0.4,1.9
						c0,0.7,0.1,1.4,0.4,2c0.3,0.6,0.7,1,1.2,1.4C143.1,53.7,143.6,53.9,144.3,53.9z"/>
					<path class="st7" d="M160.5,45.5c0.8,0,1.4,0.2,1.8,0.5s0.8,0.8,1,1.3c0.2,0.6,0.3,1.2,0.3,1.8v5.1c0,0.1-0.1,0.3-0.2,0.4
						c-0.1,0.1-0.2,0.2-0.4,0.2c-0.2,0-0.3-0.1-0.4-0.2c-0.1-0.1-0.2-0.2-0.2-0.4v-5.1c0-0.5-0.1-0.9-0.2-1.3
						c-0.2-0.4-0.4-0.7-0.7-0.9c-0.3-0.2-0.8-0.4-1.3-0.4c-0.5,0-1,0.1-1.4,0.4c-0.5,0.2-0.8,0.6-1.1,0.9s-0.4,0.8-0.4,1.3v5.1
						c0,0.1-0.1,0.3-0.2,0.4c-0.1,0.1-0.2,0.2-0.4,0.2c-0.2,0-0.3-0.1-0.4-0.2c-0.1-0.1-0.2-0.2-0.2-0.4V41.9c0-0.1,0.1-0.3,0.2-0.4
						c0.1-0.1,0.2-0.2,0.4-0.2s0.3,0.1,0.4,0.2c0.1,0.1,0.2,0.2,0.2,0.4v5.8l-0.4,0.6c0-0.4,0.1-0.7,0.4-1.1c0.2-0.4,0.5-0.7,0.8-1
						c0.3-0.3,0.7-0.5,1.1-0.7S160.1,45.5,160.5,45.5z"/>
					<path class="st7" d="M173.8,45.5c0.2,0,0.3,0.1,0.4,0.2c0.1,0.1,0.2,0.2,0.2,0.4v8.1c0,0.1-0.1,0.3-0.2,0.4
						c-0.1,0.1-0.2,0.2-0.4,0.2c-0.2,0-0.3-0.1-0.4-0.2c-0.1-0.1-0.2-0.2-0.2-0.4V52l0.3-0.1c0,0.3-0.1,0.7-0.3,1
						c-0.2,0.4-0.4,0.7-0.8,1c-0.3,0.3-0.7,0.5-1.1,0.7c-0.4,0.2-0.9,0.3-1.4,0.3c-0.8,0-1.5-0.2-2.2-0.6c-0.6-0.4-1.1-1-1.5-1.7
						c-0.4-0.7-0.5-1.6-0.5-2.5c0-0.9,0.2-1.8,0.6-2.5s0.9-1.3,1.5-1.7s1.4-0.6,2.1-0.6c0.5,0,1,0.1,1.4,0.3
						c0.5,0.2,0.8,0.4,1.2,0.7c0.3,0.3,0.6,0.7,0.8,1.1c0.2,0.4,0.3,0.8,0.3,1.3l-0.4-0.3v-2.3c0-0.2,0.1-0.3,0.2-0.4
						C173.5,45.6,173.7,45.5,173.8,45.5z M170.1,53.9c0.6,0,1.2-0.2,1.7-0.5s0.9-0.8,1.2-1.4c0.3-0.6,0.4-1.2,0.4-2
						c0-0.7-0.1-1.3-0.4-1.9s-0.7-1-1.2-1.3s-1.1-0.5-1.7-0.5c-0.6,0-1.2,0.2-1.7,0.5c-0.5,0.3-0.9,0.8-1.2,1.3s-0.4,1.2-0.4,1.9
						c0,0.7,0.1,1.4,0.4,2c0.3,0.6,0.7,1,1.2,1.4C168.9,53.7,169.5,53.9,170.1,53.9z"/>
					<path class="st7" d="M181,45.3c0.6,0,1.1,0.1,1.6,0.2c0.5,0.1,0.9,0.3,1.2,0.5s0.4,0.5,0.4,0.7c0,0.1,0,0.2-0.1,0.4
						c-0.1,0.1-0.2,0.2-0.4,0.2c-0.1,0-0.3,0-0.4-0.1c-0.1-0.1-0.2-0.2-0.3-0.3s-0.2-0.2-0.4-0.3c-0.2-0.1-0.4-0.2-0.7-0.2
						c-0.3-0.1-0.6-0.1-1-0.1c-0.7,0-1.3,0.2-1.8,0.5s-1,0.8-1.3,1.3c-0.3,0.6-0.5,1.2-0.5,1.9c0,0.7,0.1,1.4,0.4,1.9
						c0.3,0.6,0.7,1,1.2,1.4c0.5,0.3,1.1,0.5,1.8,0.5c0.5,0,0.9,0,1.1-0.1c0.3-0.1,0.5-0.2,0.7-0.3c0.2-0.1,0.4-0.3,0.5-0.4
						c0.1-0.1,0.2-0.2,0.4-0.2c0.1,0,0.3,0,0.3,0.1c0.1,0.1,0.1,0.2,0.1,0.4c0,0.2-0.1,0.4-0.4,0.6c-0.3,0.2-0.7,0.4-1.2,0.6
						s-1.1,0.3-1.7,0.3c-0.9,0-1.7-0.2-2.3-0.6s-1.2-1-1.6-1.7c-0.4-0.7-0.6-1.5-0.6-2.5c0-0.9,0.2-1.7,0.6-2.4
						c0.4-0.7,0.9-1.3,1.6-1.7C179.3,45.5,180.1,45.3,181,45.3z"/>
					<path class="st7" d="M186.5,44.2c-0.3,0-0.4-0.1-0.6-0.2c-0.1-0.1-0.2-0.3-0.2-0.5v-0.2c0-0.2,0.1-0.4,0.2-0.5
						c0.1-0.1,0.3-0.2,0.6-0.2c0.2,0,0.4,0.1,0.5,0.2c0.1,0.1,0.2,0.3,0.2,0.5v0.2c0,0.2-0.1,0.4-0.2,0.5
						C187,44.1,186.8,44.2,186.5,44.2z M187.1,54.2c0,0.1-0.1,0.3-0.2,0.4c-0.1,0.1-0.2,0.2-0.4,0.2c-0.2,0-0.3-0.1-0.4-0.2
						c-0.1-0.1-0.1-0.2-0.1-0.4v-8.3c0-0.1,0.1-0.3,0.2-0.4c0.1-0.1,0.2-0.2,0.4-0.2s0.3,0.1,0.4,0.2c0.1,0.1,0.2,0.2,0.2,0.4V54.2z
						"/>
					<path class="st7" d="M197.2,45.5c0.2,0,0.3,0.1,0.4,0.2c0.1,0.1,0.2,0.2,0.2,0.4v8.1c0,0.1-0.1,0.3-0.2,0.4
						c-0.1,0.1-0.2,0.2-0.4,0.2c-0.2,0-0.3-0.1-0.4-0.2c-0.1-0.1-0.2-0.2-0.2-0.4V52l0.3-0.1c0,0.3-0.1,0.7-0.3,1
						c-0.2,0.4-0.4,0.7-0.8,1c-0.3,0.3-0.7,0.5-1.1,0.7c-0.4,0.2-0.9,0.3-1.4,0.3c-0.8,0-1.5-0.2-2.2-0.6c-0.6-0.4-1.1-1-1.5-1.7
						c-0.4-0.7-0.5-1.6-0.5-2.5c0-0.9,0.2-1.8,0.6-2.5s0.9-1.3,1.5-1.7s1.4-0.6,2.1-0.6c0.5,0,1,0.1,1.4,0.3
						c0.5,0.2,0.8,0.4,1.2,0.7c0.3,0.3,0.6,0.7,0.8,1.1c0.2,0.4,0.3,0.8,0.3,1.3l-0.4-0.3v-2.3c0-0.2,0.1-0.3,0.2-0.4
						C196.9,45.6,197.1,45.5,197.2,45.5z M193.5,53.9c0.6,0,1.2-0.2,1.7-0.5s0.9-0.8,1.2-1.4c0.3-0.6,0.4-1.2,0.4-2
						c0-0.7-0.1-1.3-0.4-1.9s-0.7-1-1.2-1.3s-1.1-0.5-1.7-0.5c-0.6,0-1.2,0.2-1.7,0.5c-0.5,0.3-0.9,0.8-1.2,1.3s-0.4,1.2-0.4,1.9
						c0,0.7,0.1,1.4,0.4,2c0.3,0.6,0.7,1,1.2,1.4C192.3,53.7,192.8,53.9,193.5,53.9z"/>
					<path class="st7" d="M209.6,54.9c-0.9,0-1.8-0.2-2.5-0.6c-0.7-0.4-1.3-0.9-1.6-1.7c-0.4-0.7-0.6-1.5-0.6-2.5
						c0-1,0.2-1.9,0.6-2.6c0.4-0.7,0.9-1.3,1.6-1.7c0.6-0.4,1.3-0.6,2-0.6c0.5,0,1,0.1,1.5,0.3c0.5,0.2,0.9,0.5,1.3,0.8
						s0.7,0.8,0.9,1.3c0.2,0.5,0.4,1.1,0.4,1.8c0,0.1-0.1,0.3-0.2,0.4c-0.1,0.1-0.2,0.2-0.4,0.2h-7.2l-0.2-1h7.1l-0.2,0.2V49
						c0-0.6-0.2-1-0.5-1.4c-0.3-0.4-0.7-0.7-1.1-0.9c-0.4-0.2-0.9-0.3-1.4-0.3c-0.4,0-0.7,0.1-1.1,0.2c-0.4,0.1-0.7,0.4-1,0.7
						c-0.3,0.3-0.6,0.7-0.7,1.2c-0.2,0.5-0.3,1-0.3,1.7c0,0.7,0.1,1.3,0.4,1.9s0.7,1,1.2,1.4s1.2,0.5,2,0.5c0.4,0,0.8-0.1,1.1-0.2
						c0.3-0.1,0.6-0.3,0.9-0.5c0.3-0.2,0.5-0.4,0.6-0.6c0.1-0.1,0.2-0.2,0.4-0.2s0.2,0,0.3,0.1c0.1,0.1,0.1,0.2,0.1,0.3
						c0,0.1-0.1,0.3-0.2,0.4c-0.4,0.4-0.8,0.8-1.4,1.1C210.9,54.7,210.3,54.9,209.6,54.9z"/>
					<path class="st7" d="M216.5,54.2c0,0.1-0.1,0.3-0.2,0.4c-0.1,0.1-0.2,0.2-0.4,0.2c-0.2,0-0.3-0.1-0.4-0.2
						c-0.1-0.1-0.2-0.2-0.2-0.4V41.9c0-0.1,0.1-0.3,0.2-0.4c0.1-0.1,0.2-0.2,0.4-0.2c0.2,0,0.3,0.1,0.4,0.2c0.1,0.1,0.2,0.2,0.2,0.4
						V54.2z"/>
					<path class="st7" d="M228.6,54.9c-1,0-1.9-0.2-2.7-0.6s-1.3-1-1.7-1.7c-0.4-0.7-0.6-1.6-0.6-2.5c0-1.1,0.2-2,0.7-2.8
						c0.4-0.8,1-1.3,1.7-1.8c0.7-0.4,1.5-0.6,2.2-0.6c0.6,0,1.2,0.1,1.7,0.4s1,0.6,1.4,1c0.4,0.4,0.8,0.9,1,1.5
						c0.2,0.6,0.4,1.2,0.4,1.8c0,0.3-0.1,0.5-0.3,0.7s-0.5,0.3-0.8,0.3h-6.9l-0.5-1.8h6.6l-0.4,0.4v-0.5c0-0.3-0.1-0.7-0.4-0.9
						c-0.2-0.3-0.5-0.5-0.8-0.7s-0.7-0.2-1.1-0.2c-0.4,0-0.7,0-1,0.1c-0.3,0.1-0.6,0.3-0.8,0.5c-0.2,0.2-0.4,0.5-0.5,0.9
						c-0.1,0.4-0.2,0.9-0.2,1.5c0,0.6,0.1,1.2,0.4,1.6c0.3,0.5,0.6,0.8,1,1c0.4,0.2,0.9,0.4,1.4,0.4c0.4,0,0.8,0,1.1-0.1
						c0.3-0.1,0.5-0.2,0.6-0.3s0.3-0.2,0.4-0.3c0.2-0.1,0.4-0.2,0.6-0.2c0.3,0,0.5,0.1,0.7,0.3c0.2,0.2,0.3,0.4,0.3,0.6
						c0,0.3-0.2,0.6-0.5,0.9c-0.3,0.3-0.8,0.5-1.3,0.7C229.8,54.8,229.2,54.9,228.6,54.9z"/>
					<path class="st7" d="M234,53.2c-0.1-0.2-0.2-0.4-0.2-0.6c0-0.3,0.2-0.5,0.5-0.7c0.2-0.1,0.4-0.2,0.6-0.2c0.2,0,0.4,0.1,0.6,0.3
						c0.3,0.3,0.7,0.6,1.1,0.8c0.4,0.2,0.9,0.3,1.4,0.3c0.2,0,0.4,0,0.6-0.1s0.4-0.1,0.6-0.3s0.2-0.4,0.2-0.7c0-0.3-0.1-0.5-0.3-0.6
						c-0.2-0.2-0.4-0.3-0.7-0.4c-0.3-0.1-0.6-0.2-1-0.3c-0.4-0.1-0.8-0.2-1.1-0.4c-0.4-0.1-0.7-0.3-1.1-0.5
						c-0.3-0.2-0.6-0.5-0.8-0.8c-0.2-0.3-0.3-0.8-0.3-1.3c0-0.6,0.2-1.1,0.5-1.5s0.8-0.7,1.3-1c0.5-0.2,1.1-0.3,1.7-0.3
						c0.4,0,0.8,0,1.2,0.1c0.4,0.1,0.8,0.2,1.2,0.4s0.7,0.5,0.9,0.8c0.1,0.2,0.2,0.4,0.2,0.6c0,0.3-0.1,0.5-0.3,0.7
						c-0.2,0.1-0.4,0.2-0.6,0.2c-0.2,0-0.4-0.1-0.6-0.2c-0.2-0.3-0.5-0.5-0.8-0.6c-0.3-0.2-0.7-0.2-1.2-0.2c-0.2,0-0.4,0-0.6,0.1
						c-0.2,0-0.4,0.1-0.5,0.3s-0.2,0.4-0.2,0.7c0,0.3,0.1,0.5,0.3,0.7c0.2,0.2,0.4,0.3,0.7,0.4c0.3,0.1,0.6,0.2,1,0.3
						c0.4,0.1,0.7,0.2,1.1,0.3c0.4,0.1,0.7,0.3,1,0.5c0.3,0.2,0.6,0.5,0.8,0.8s0.3,0.8,0.3,1.3c0,0.6-0.2,1.1-0.5,1.6
						c-0.4,0.4-0.8,0.8-1.3,1c-0.5,0.2-1.1,0.3-1.7,0.3c-0.7,0-1.4-0.1-2.1-0.4C235,54.3,234.4,53.9,234,53.2z"/>
					<path class="st7" d="M252.3,49.9c0,1-0.2,1.9-0.7,2.6c-0.4,0.8-1,1.3-1.8,1.8s-1.6,0.6-2.5,0.6c-0.9,0-1.7-0.2-2.5-0.6
						c-0.7-0.4-1.3-1-1.8-1.8c-0.4-0.8-0.7-1.6-0.7-2.6c0-1,0.2-1.9,0.7-2.6c0.4-0.8,1-1.3,1.8-1.8c0.7-0.4,1.6-0.6,2.5-0.6
						c0.9,0,1.7,0.2,2.5,0.6s1.3,1,1.8,1.8C252.1,48.1,252.3,48.9,252.3,49.9z M250.2,49.9c0-0.6-0.1-1.1-0.4-1.6
						c-0.2-0.4-0.6-0.8-1-1.1s-0.9-0.4-1.4-0.4s-1,0.1-1.4,0.4s-0.7,0.6-1,1.1c-0.2,0.5-0.4,1-0.4,1.6c0,0.6,0.1,1.1,0.4,1.6
						c0.2,0.5,0.6,0.8,1,1.1s0.9,0.4,1.4,0.4s1-0.1,1.4-0.4s0.7-0.6,1-1.1C250,51,250.2,50.5,250.2,49.9z M247.5,44.5
						c-0.1,0-0.2-0.1-0.4-0.2c-0.2-0.1-0.2-0.2-0.2-0.4c0-0.1,0-0.2,0.1-0.3l1-1.8c0.1-0.2,0.2-0.4,0.4-0.5c0.2-0.1,0.4-0.2,0.6-0.2
						c0.3,0,0.6,0.1,0.7,0.3s0.2,0.4,0.2,0.6c0,0.1,0,0.2-0.1,0.4s-0.1,0.3-0.2,0.4l-1.4,1.5c-0.1,0.1-0.3,0.2-0.4,0.3
						C247.8,44.5,247.6,44.5,247.5,44.5z"/>
					<path class="st7" d="M258.8,45.3c0.3,0,0.5,0.1,0.7,0.3c0.2,0.2,0.3,0.4,0.3,0.7s-0.1,0.5-0.3,0.7c-0.2,0.2-0.4,0.3-0.7,0.3
						H254c-0.3,0-0.5-0.1-0.7-0.3c-0.2-0.2-0.3-0.4-0.3-0.7s0.1-0.5,0.3-0.7c0.2-0.2,0.4-0.3,0.7-0.3H258.8z M258.6,41.4
						c0.3,0,0.5,0,0.8,0.1c0.3,0.1,0.5,0.2,0.6,0.4c0.2,0.2,0.3,0.4,0.3,0.6c0,0.3-0.1,0.5-0.3,0.7s-0.4,0.3-0.6,0.3
						c-0.1,0-0.3,0-0.5-0.1s-0.4-0.1-0.6-0.1c-0.3,0-0.5,0.1-0.7,0.2c-0.2,0.1-0.3,0.3-0.3,0.5c-0.1,0.2-0.1,0.3-0.1,0.5v9.2
						c0,0.3-0.1,0.6-0.3,0.8c-0.2,0.2-0.5,0.3-0.8,0.3c-0.3,0-0.6-0.1-0.8-0.3c-0.2-0.2-0.3-0.5-0.3-0.8v-9.2c0-0.9,0.3-1.6,0.9-2.2
						C256.5,41.7,257.4,41.4,258.6,41.4z"/>
					<path class="st7" d="M268.4,44.9c0.3,0,0.6,0.1,0.8,0.3s0.3,0.5,0.3,0.8v7.6c0,0.3-0.1,0.6-0.3,0.8c-0.2,0.2-0.5,0.3-0.8,0.3
						s-0.6-0.1-0.8-0.3c-0.2-0.2-0.3-0.5-0.3-0.8v-0.9l0.4,0.2c0,0.2-0.1,0.3-0.3,0.6c-0.2,0.2-0.4,0.4-0.7,0.7s-0.6,0.4-1,0.5
						c-0.4,0.1-0.8,0.2-1.3,0.2c-0.8,0-1.6-0.2-2.2-0.6s-1.2-1-1.6-1.8s-0.6-1.6-0.6-2.6c0-1,0.2-1.9,0.6-2.6s0.9-1.3,1.6-1.8
						s1.4-0.6,2.2-0.6c0.5,0,1,0.1,1.4,0.2c0.4,0.2,0.8,0.4,1.1,0.6c0.3,0.2,0.6,0.5,0.7,0.7c0.2,0.2,0.3,0.5,0.3,0.6l-0.6,0.2V46
						c0-0.3,0.1-0.6,0.3-0.8C267.9,45,268.1,44.9,268.4,44.9z M264.8,52.9c0.5,0,1-0.1,1.4-0.4c0.4-0.3,0.7-0.6,0.9-1.1
						c0.2-0.5,0.3-1,0.3-1.5c0-0.6-0.1-1.1-0.3-1.5c-0.2-0.5-0.5-0.8-0.9-1.1c-0.4-0.3-0.9-0.4-1.4-0.4c-0.5,0-1,0.1-1.4,0.4
						c-0.4,0.3-0.7,0.6-0.9,1.1c-0.2,0.5-0.3,1-0.3,1.5c0,0.6,0.1,1.1,0.3,1.5c0.2,0.5,0.5,0.8,0.9,1.1
						C263.8,52.8,264.3,52.9,264.8,52.9z"/>
					<path class="st7" d="M275.6,44.9c0.5,0,1,0.1,1.4,0.2c0.4,0.2,0.8,0.4,1.1,0.6c0.3,0.2,0.5,0.5,0.7,0.7
						c0.2,0.2,0.3,0.5,0.3,0.6l-0.5,0.2V46c0-0.3,0.1-0.6,0.3-0.8s0.5-0.3,0.8-0.3c0.3,0,0.6,0.1,0.8,0.3s0.3,0.5,0.3,0.8v8
						c0,1-0.2,1.9-0.7,2.5c-0.5,0.6-1,1.1-1.8,1.4c-0.7,0.3-1.5,0.4-2.4,0.4c-0.2,0-0.6,0-0.9-0.1c-0.4-0.1-0.8-0.1-1.1-0.2
						s-0.6-0.2-0.8-0.2c-0.4-0.2-0.6-0.4-0.7-0.6c-0.1-0.2-0.2-0.5-0.1-0.7c0.1-0.3,0.3-0.6,0.5-0.7s0.5-0.1,0.8,0
						c0.1,0,0.3,0.1,0.6,0.2c0.3,0.1,0.6,0.2,0.9,0.3c0.3,0.1,0.6,0.1,0.9,0.1c0.9,0,1.6-0.2,2-0.5s0.6-0.9,0.6-1.5v-1.6l0.2,0.2
						c0,0.2-0.1,0.3-0.2,0.6s-0.4,0.4-0.7,0.7c-0.3,0.2-0.6,0.4-1,0.5c-0.4,0.1-0.8,0.2-1.2,0.2c-0.9,0-1.6-0.2-2.3-0.6
						c-0.7-0.4-1.2-1-1.6-1.8c-0.4-0.8-0.6-1.6-0.6-2.6c0-1,0.2-1.9,0.6-2.6c0.4-0.8,0.9-1.3,1.6-1.8S274.8,44.9,275.6,44.9z
						 M276,46.9c-0.5,0-1,0.1-1.4,0.4c-0.4,0.3-0.7,0.6-1,1.1c-0.2,0.5-0.3,1-0.3,1.5c0,0.6,0.1,1.1,0.3,1.5c0.2,0.5,0.5,0.8,1,1.1
						c0.4,0.3,0.9,0.4,1.4,0.4c0.6,0,1-0.1,1.4-0.4c0.4-0.3,0.7-0.6,1-1.1c0.2-0.5,0.3-1,0.3-1.5c0-0.6-0.1-1.1-0.3-1.5
						c-0.2-0.5-0.5-0.8-1-1.1C277,47,276.5,46.9,276,46.9z"/>
					<path class="st7" d="M292.2,49.9c0,1-0.2,1.9-0.7,2.6c-0.4,0.8-1,1.3-1.8,1.8s-1.6,0.6-2.5,0.6c-0.9,0-1.7-0.2-2.5-0.6
						c-0.7-0.4-1.3-1-1.8-1.8c-0.4-0.8-0.7-1.6-0.7-2.6c0-1,0.2-1.9,0.7-2.6c0.4-0.8,1-1.3,1.8-1.8c0.7-0.4,1.6-0.6,2.5-0.6
						c0.9,0,1.7,0.2,2.5,0.6s1.3,1,1.8,1.8C292,48.1,292.2,48.9,292.2,49.9z M290.1,49.9c0-0.6-0.1-1.1-0.4-1.6
						c-0.2-0.4-0.6-0.8-1-1.1s-0.9-0.4-1.4-0.4s-1,0.1-1.4,0.4s-0.7,0.6-1,1.1c-0.2,0.5-0.4,1-0.4,1.6c0,0.6,0.1,1.1,0.4,1.6
						c0.2,0.5,0.6,0.8,1,1.1s0.9,0.4,1.4,0.4s1-0.1,1.4-0.4s0.7-0.6,1-1.1C290,51,290.1,50.5,290.1,49.9z"/>
					<path class="st7" d="M293.9,54.7c-0.2,0-0.4-0.1-0.5-0.2c-0.1-0.1-0.2-0.3-0.2-0.5v-0.4c0-0.2,0.1-0.4,0.2-0.5
						c0.1-0.1,0.3-0.2,0.5-0.2h0.1c0.2,0,0.4,0.1,0.5,0.2c0.1,0.1,0.2,0.3,0.2,0.5V54c0,0.2-0.1,0.4-0.2,0.5
						c-0.1,0.1-0.3,0.2-0.5,0.2H293.9z"/>
				</g>
			</g>
		</g>
	</g>
</g>
</svg>
