<svg xmlns="http://www.w3.org/2000/svg" viewBox="0 0 501.36 83.13"><defs><style>.cls-1{isolation:isolate;}.cls-2{opacity:0.27;}.cls-3{fill:#002451;}.cls-4{fill:#fff2cc;}.cls-5{fill:none;}.cls-6{fill:#29abe2;}.cls-7{opacity:0.2;mix-blend-mode:multiply;}.cls-8{fill:#fff;}.cls-9{fill:#4d4d4d;}</style></defs><title>lab03-bxB2</title><g class="cls-1"><g id="Layer_2" data-name="Layer 2"><g id="Layer_1-2" data-name="Layer 1"><g class="cls-2"><rect class="cls-3" x="2.96" y="2.84" width="498.39" height="80.29" rx="11.44" ry="11.44"/></g><rect class="cls-4" width="498.39" height="80.29" rx="11.44" ry="11.44"/><path class="cls-5" d="M471.49,78.36v-15A8.38,8.38,0,0,1,480,55.14h15.68a8.68,8.68,0,0,1,2.67.42V11.2A11.45,11.45,0,0,0,486.7,0h-475A11.45,11.45,0,0,0,0,11.2V69.09a11.45,11.45,0,0,0,11.69,11.2H471.74A7.74,7.74,0,0,1,471.49,78.36Z"/><path class="cls-6" d="M487.18,55.14c-8.66,0-15.69,6.73-15.69,15v8.18a7.74,7.74,0,0,0,.25,1.93h15a11.45,11.45,0,0,0,11.69-11.2V55.56a8.68,8.68,0,0,0-2.67-.42Z"/><g class="cls-7"><rect x="485.25" y="63.6" width="1.36" height="10.24"/><polygon points="485.89 59.72 483.14 64.28 488.65 64.28 485.89 59.72"/><polygon points="485.93 77.65 488.68 73.08 483.18 73.08 485.93 77.65"/><rect x="480.58" y="68.07" width="10.69" height="1.3"/><polygon points="476.55 68.7 481.32 71.33 481.32 66.06 476.55 68.7"/><polygon points="495.27 68.67 490.5 66.03 490.5 71.3 495.27 68.67"/></g><rect class="cls-8" x="484.28" y="62.63" width="1.36" height="10.24"/><polygon class="cls-8" points="484.93 58.75 482.18 63.32 487.68 63.32 484.93 58.75"/><polygon class="cls-8" points="484.96 76.68 487.71 72.11 482.21 72.11 484.96 76.68"/><rect class="cls-8" x="479.62" y="67.1" width="10.69" height="1.3"/><polygon class="cls-8" points="475.58 67.73 480.35 70.37 480.35 65.09 475.58 67.73"/><polygon class="cls-8" points="494.3 67.7 489.54 65.06 489.54 70.34 494.3 67.7"/><path class="cls-9" d="M22.56,24.61a.55.55,0,0,1,.38.15.54.54,0,0,1,.16.37.53.53,0,0,1-.16.39.55.55,0,0,1-.38.15H16.13a.53.53,0,0,1-.39-.16.54.54,0,0,1-.15-.38V13.61a.57.57,0,0,1,.16-.38.61.61,0,0,1,.42-.16.57.57,0,0,1,.38.16.51.51,0,0,1,.18.38V24.92l-.35-.31Z"/><path class="cls-9" d="M32.9,21.06a5,5,0,0,1-.6,2.46,4.47,4.47,0,0,1-1.63,1.71,4.33,4.33,0,0,1-2.32.62,4.4,4.4,0,0,1-4-2.33,5.27,5.27,0,0,1,0-4.92A4.54,4.54,0,0,1,26,16.89a4.42,4.42,0,0,1,2.32-.63,4.34,4.34,0,0,1,2.32.63A4.62,4.62,0,0,1,32.3,18.6,5,5,0,0,1,32.9,21.06Zm-1.08,0a4.12,4.12,0,0,0-.45-1.95,3.49,3.49,0,0,0-1.23-1.35,3.5,3.5,0,0,0-3.57,0,3.59,3.59,0,0,0-1.24,1.35,4.13,4.13,0,0,0-.46,1.95,4.07,4.07,0,0,0,.46,2,3.64,3.64,0,0,0,1.24,1.34,3.5,3.5,0,0,0,3.57,0A3.53,3.53,0,0,0,31.37,23,4.07,4.07,0,0,0,31.82,21.06Z"/><path class="cls-9" d="M40.57,25.67a.51.51,0,0,1-.4-.16.57.57,0,0,1-.14-.38V17.07a.55.55,0,0,1,.15-.38.56.56,0,0,1,.78,0,.55.55,0,0,1,.15.38v2.7l-.27.05a4.4,4.4,0,0,1,.31-1.25,4.56,4.56,0,0,1,.72-1.14,3.56,3.56,0,0,1,1.07-.85,3,3,0,0,1,1.39-.32,1.51,1.51,0,0,1,.63.13.46.46,0,0,1,.31.45.56.56,0,0,1-.15.41.48.48,0,0,1-.34.14.83.83,0,0,1-.35-.09,1.13,1.13,0,0,0-.49-.09,1.94,1.94,0,0,0-1,.3,3.44,3.44,0,0,0-.92.8,4.24,4.24,0,0,0-.66,1.13,3.43,3.43,0,0,0-.24,1.25v4.44a.51.51,0,0,1-.16.38A.52.52,0,0,1,40.57,25.67Z"/><path class="cls-9" d="M50.58,25.85a4.91,4.91,0,0,1-2.45-.59,4.25,4.25,0,0,1-1.65-1.66,5,5,0,0,1-.6-2.48,5.3,5.3,0,0,1,.61-2.61,4.42,4.42,0,0,1,1.56-1.67,3.91,3.91,0,0,1,2.05-.58,4.32,4.32,0,0,1,1.54.28,3.83,3.83,0,0,1,1.32.83,4.41,4.41,0,0,1,.94,1.34,4.73,4.73,0,0,1,.37,1.83.47.47,0,0,1-.16.37.54.54,0,0,1-.38.15H46.52l-.22-1h7.09l-.23.22V20a2.75,2.75,0,0,0-.56-1.44,3,3,0,0,0-1.13-.9A3.06,3.06,0,0,0,49,17.52a3,3,0,0,0-1,.67,3.61,3.61,0,0,0-.74,1.17,4.37,4.37,0,0,0-.29,1.69A4.17,4.17,0,0,0,47.36,23a3.29,3.29,0,0,0,1.24,1.37,3.62,3.62,0,0,0,2,.5,3.33,3.33,0,0,0,1.12-.17,3.16,3.16,0,0,0,.89-.48,3.8,3.8,0,0,0,.64-.62.59.59,0,0,1,.38-.16.42.42,0,0,1,.33.14.47.47,0,0,1,.14.32.49.49,0,0,1-.18.38,4.9,4.9,0,0,1-1.41,1.13A3.89,3.89,0,0,1,50.58,25.85Z"/><path class="cls-9" d="M55.86,24.22a.69.69,0,0,1-.14-.43.4.4,0,0,1,.22-.33.47.47,0,0,1,.34-.11.57.57,0,0,1,.35.18,3.85,3.85,0,0,0,1.18,1,3.29,3.29,0,0,0,1.64.38,2.88,2.88,0,0,0,1-.17,1.84,1.84,0,0,0,.82-.52,1.38,1.38,0,0,0,0-1.79,2.14,2.14,0,0,0-.83-.54c-.35-.13-.71-.24-1.09-.34s-.81-.23-1.19-.37a4.25,4.25,0,0,1-1-.52,2.6,2.6,0,0,1-.71-.77,2.09,2.09,0,0,1-.27-1.1,2.28,2.28,0,0,1,.41-1.33,2.9,2.9,0,0,1,1.13-.9,3.92,3.92,0,0,1,1.61-.32,4.35,4.35,0,0,1,1,.12,3.79,3.79,0,0,1,1,.38,3.29,3.29,0,0,1,.9.74.5.5,0,0,1,.16.37.49.49,0,0,1-.18.37.57.57,0,0,1-.33.11.41.41,0,0,1-.32-.15,2.82,2.82,0,0,0-1-.73,3.25,3.25,0,0,0-1.28-.26,2.84,2.84,0,0,0-1,.17,2,2,0,0,0-.77.52,1.32,1.32,0,0,0-.3.9,1.17,1.17,0,0,0,.37.84,2.44,2.44,0,0,0,.88.54,9.37,9.37,0,0,0,1.23.4c.38.1.75.21,1.11.34a3.75,3.75,0,0,1,.93.5,2.11,2.11,0,0,1,.65.74,2.4,2.4,0,0,1,.25,1.14,2.17,2.17,0,0,1-.45,1.37,2.8,2.8,0,0,1-1.18.88,4.26,4.26,0,0,1-1.63.3,4.68,4.68,0,0,1-1.88-.38A4,4,0,0,1,55.86,24.22Z"/><path class="cls-9" d="M64.26,16.51h4.2a.49.49,0,0,1,.36.15A.57.57,0,0,1,69,17a.5.5,0,0,1-.14.35.52.52,0,0,1-.36.14h-4.2a.51.51,0,0,1-.37-.15.51.51,0,0,1-.15-.36.45.45,0,0,1,.15-.35A.51.51,0,0,1,64.26,16.51ZM66.12,14a.53.53,0,0,1,.38.16.52.52,0,0,1,.16.38v9a1.63,1.63,0,0,0,.13.75.72.72,0,0,0,.35.34,1.35,1.35,0,0,0,.43.08.76.76,0,0,0,.27,0,.68.68,0,0,1,.26,0,.37.37,0,0,1,.28.13.48.48,0,0,1,.11.32.47.47,0,0,1-.29.42,1.25,1.25,0,0,1-.68.17l-.49,0a2,2,0,0,1-.66-.2,1.36,1.36,0,0,1-.57-.61,2.72,2.72,0,0,1-.22-1.24V14.51a.55.55,0,0,1,.15-.38A.53.53,0,0,1,66.12,14Z"/><path class="cls-9" d="M77.87,16.47a.51.51,0,0,1,.39.17.56.56,0,0,1,.15.39v8.1a.51.51,0,0,1-.16.38.49.49,0,0,1-.38.16.48.48,0,0,1-.39-.16.54.54,0,0,1-.15-.38V23l.31-.14a2.1,2.1,0,0,1-.28,1,3.46,3.46,0,0,1-.76,1,3.89,3.89,0,0,1-1.15.73,3.51,3.51,0,0,1-1.43.28,3.91,3.91,0,0,1-2.17-.63,4.36,4.36,0,0,1-1.51-1.72A5.57,5.57,0,0,1,69.79,21a5.33,5.33,0,0,1,.56-2.48,4.39,4.39,0,0,1,1.51-1.68A3.88,3.88,0,0,1,74,16.26a3.84,3.84,0,0,1,1.44.27,3.75,3.75,0,0,1,1.18.74,3.61,3.61,0,0,1,.8,1.07,2.89,2.89,0,0,1,.28,1.25l-.38-.27V17a.56.56,0,0,1,.15-.39A.49.49,0,0,1,77.87,16.47Zm-3.74,8.37a2.94,2.94,0,0,0,1.69-.49A3.4,3.4,0,0,0,77,23,4.3,4.3,0,0,0,77.41,21,4.1,4.1,0,0,0,77,19.12a3.55,3.55,0,0,0-1.16-1.35,2.88,2.88,0,0,0-1.69-.5,3.05,3.05,0,0,0-1.68.48,3.32,3.32,0,0,0-1.17,1.34A4.29,4.29,0,0,0,70.86,21,4.42,4.42,0,0,0,71.27,23a3.25,3.25,0,0,0,1.16,1.37A3,3,0,0,0,74.13,24.84Z"/><path class="cls-9" d="M85.41,16.26a3.32,3.32,0,0,1,1.9.48,2.63,2.63,0,0,1,1,1.29,5,5,0,0,1,.31,1.81v5.29a.51.51,0,0,1-.16.38.49.49,0,0,1-.38.16.48.48,0,0,1-.39-.16.54.54,0,0,1-.15-.38V19.89a3.5,3.5,0,0,0-.23-1.31,2,2,0,0,0-.76-.95,2.46,2.46,0,0,0-1.4-.36,3.25,3.25,0,0,0-2.59,1.31,2.19,2.19,0,0,0-.43,1.31v5.24a.52.52,0,0,1-.17.38.49.49,0,0,1-.37.16.51.51,0,0,1-.4-.16.53.53,0,0,1-.14-.38V17.07a.55.55,0,0,1,.15-.38.5.5,0,0,1,.39-.16.49.49,0,0,1,.38.16.52.52,0,0,1,.16.38v1.51l-.42.65a2.44,2.44,0,0,1,.37-1.11,3.84,3.84,0,0,1,.86-.95,4,4,0,0,1,1.16-.67A3.58,3.58,0,0,1,85.41,16.26Z"/><path class="cls-9" d="M90.51,16.51h4.2a.49.49,0,0,1,.36.15.57.57,0,0,1,.14.37.5.5,0,0,1-.14.35.52.52,0,0,1-.36.14h-4.2a.49.49,0,0,1-.36-.15A.48.48,0,0,1,90,17a.43.43,0,0,1,.16-.35A.49.49,0,0,1,90.51,16.51ZM92.37,14a.57.57,0,0,1,.39.16.55.55,0,0,1,.15.38v9a1.63,1.63,0,0,0,.13.75.72.72,0,0,0,.35.34,1.36,1.36,0,0,0,.44.08.75.75,0,0,0,.26,0,.68.68,0,0,1,.26,0,.35.35,0,0,1,.28.13.48.48,0,0,1-.17.74,1.29,1.29,0,0,1-.69.17l-.48,0a2,2,0,0,1-.67-.2,1.36,1.36,0,0,1-.57-.61,2.72,2.72,0,0,1-.22-1.24V14.51a.55.55,0,0,1,.15-.38A.53.53,0,0,1,92.37,14Z"/><path class="cls-9" d="M100.72,25.85a4.91,4.91,0,0,1-2.45-.59,4.31,4.31,0,0,1-1.65-1.66,5,5,0,0,1-.6-2.48,5.3,5.3,0,0,1,.61-2.61,4.42,4.42,0,0,1,1.56-1.67,3.91,3.91,0,0,1,2-.58,4.28,4.28,0,0,1,1.54.28,3.73,3.73,0,0,1,1.32.83,4.24,4.24,0,0,1,.94,1.34,4.73,4.73,0,0,1,.37,1.83.47.47,0,0,1-.16.37.54.54,0,0,1-.38.15H96.66l-.22-1h7.09l-.23.22V20a2.75,2.75,0,0,0-.56-1.44,3,3,0,0,0-1.13-.9,3.06,3.06,0,0,0-2.48-.09,3,3,0,0,0-1,.67,3.61,3.61,0,0,0-.74,1.17,4.56,4.56,0,0,0-.29,1.69A4.17,4.17,0,0,0,97.5,23a3.29,3.29,0,0,0,1.24,1.37,3.63,3.63,0,0,0,2,.5,3.31,3.31,0,0,0,1.11-.17,3.16,3.16,0,0,0,.89-.48,3.8,3.8,0,0,0,.64-.62.59.59,0,0,1,.38-.16.42.42,0,0,1,.33.14.47.47,0,0,1,.14.32.49.49,0,0,1-.18.38,4.9,4.9,0,0,1-1.41,1.13A3.89,3.89,0,0,1,100.72,25.85Z"/><path class="cls-9" d="M119,12.35a.51.51,0,0,1,.39.16.52.52,0,0,1,.15.38V25.13a.51.51,0,0,1-.16.38.52.52,0,0,1-.38.16.51.51,0,0,1-.4-.16.57.57,0,0,1-.14-.38V23l.31-.25a2.23,2.23,0,0,1-.28,1.05,3.31,3.31,0,0,1-.76,1,3.94,3.94,0,0,1-1.15.75,3.42,3.42,0,0,1-1.43.29,3.84,3.84,0,0,1-2.15-.63,4.35,4.35,0,0,1-1.52-1.71,5.19,5.19,0,0,1-.56-2.46,5.21,5.21,0,0,1,.56-2.46A4.26,4.26,0,0,1,113,16.88a3.86,3.86,0,0,1,2.14-.62,3.74,3.74,0,0,1,1.42.27,4,4,0,0,1,1.18.74,3.65,3.65,0,0,1,.81,1.07,2.77,2.77,0,0,1,.3,1.25l-.38-.27V12.89a.59.59,0,0,1,.14-.38A.54.54,0,0,1,119,12.35Zm-3.74,12.49a3,3,0,0,0,1.69-.49A3.4,3.4,0,0,0,118.14,23a4.71,4.71,0,0,0,0-3.89A3.4,3.4,0,0,0,117,17.76a3.16,3.16,0,0,0-3.38,0,3.35,3.35,0,0,0-1.17,1.35,4.69,4.69,0,0,0,0,3.88,3.31,3.31,0,0,0,1.17,1.36A3,3,0,0,0,115.29,24.84Z"/><path class="cls-9" d="M126.39,25.85a4.91,4.91,0,0,1-2.45-.59,4.25,4.25,0,0,1-1.65-1.66,5,5,0,0,1-.6-2.48,5.3,5.3,0,0,1,.61-2.61,4.42,4.42,0,0,1,1.56-1.67,3.91,3.91,0,0,1,2-.58,4.23,4.23,0,0,1,1.53.28,3.77,3.77,0,0,1,1.33.83,4.22,4.22,0,0,1,.93,1.34,4.56,4.56,0,0,1,.38,1.83.47.47,0,0,1-.16.37.54.54,0,0,1-.38.15h-7.22l-.21-1h7.09l-.23.22V20a2.75,2.75,0,0,0-.56-1.44,3,3,0,0,0-1.13-.9,3.06,3.06,0,0,0-2.48-.09,3,3,0,0,0-1,.67,3.61,3.61,0,0,0-.74,1.17,4.37,4.37,0,0,0-.29,1.69,4.17,4.17,0,0,0,.43,1.92,3.29,3.29,0,0,0,1.24,1.37,3.62,3.62,0,0,0,2,.5,3.33,3.33,0,0,0,1.12-.17,3.16,3.16,0,0,0,.89-.48,3.8,3.8,0,0,0,.64-.62.59.59,0,0,1,.38-.16.42.42,0,0,1,.33.14.47.47,0,0,1,.14.32.49.49,0,0,1-.18.38,4.9,4.9,0,0,1-1.41,1.13A3.89,3.89,0,0,1,126.39,25.85Z"/><path class="cls-9" d="M133.32,25.13a.51.51,0,0,1-.16.38.52.52,0,0,1-.38.16.51.51,0,0,1-.39-.16.54.54,0,0,1-.15-.38V12.89a.52.52,0,0,1,.16-.38.57.57,0,0,1,.38-.16.53.53,0,0,1,.54.54Z"/><path class="cls-9" d="M148.66,16.44a.49.49,0,0,1,.38.16.54.54,0,0,1,.16.4V28.73a.52.52,0,0,1-.17.38.49.49,0,0,1-.37.16.51.51,0,0,1-.4-.16.53.53,0,0,1-.14-.38V23l.3-.25a2.34,2.34,0,0,1-.27,1.05,3.48,3.48,0,0,1-.76,1,4,4,0,0,1-1.16.75,3.36,3.36,0,0,1-1.43.29,3.86,3.86,0,0,1-2.15-.63,4.42,4.42,0,0,1-1.52-1.71,5.68,5.68,0,0,1,0-4.92,4.34,4.34,0,0,1,1.51-1.71,3.89,3.89,0,0,1,2.15-.62,3.78,3.78,0,0,1,1.42.27,4,4,0,0,1,1.18.74,3.65,3.65,0,0,1,.81,1.07,2.76,2.76,0,0,1,.29,1.25l-.37-.27V17a.56.56,0,0,1,.14-.4A.51.51,0,0,1,148.66,16.44Zm-3.75,8.4a2.94,2.94,0,0,0,1.69-.49A3.43,3.43,0,0,0,147.77,23a4.71,4.71,0,0,0,0-3.89,3.43,3.43,0,0,0-1.17-1.35,2.94,2.94,0,0,0-1.69-.49,3,3,0,0,0-1.68.49,3.35,3.35,0,0,0-1.17,1.35,4.69,4.69,0,0,0,0,3.88,3.31,3.31,0,0,0,1.17,1.36A3,3,0,0,0,144.91,24.84Z"/><path class="cls-9" d="M158.71,16.53a.5.5,0,0,1,.39.16.55.55,0,0,1,.15.38v5.07a3.5,3.5,0,0,1-1,2.72,3.79,3.79,0,0,1-2.71.94,3.74,3.74,0,0,1-2.69-.94,3.53,3.53,0,0,1-1-2.72V17.07a.55.55,0,0,1,.15-.38.5.5,0,0,1,.39-.16.49.49,0,0,1,.38.16.52.52,0,0,1,.16.38v5.07a2.37,2.37,0,0,0,2.61,2.65,2.68,2.68,0,0,0,1.94-.67,2.61,2.61,0,0,0,.7-2V17.07a.55.55,0,0,1,.15-.38A.47.47,0,0,1,158.71,16.53Z"/><path class="cls-9" d="M162.37,15.11a.84.84,0,0,1-.57-.17.63.63,0,0,1-.19-.5v-.18a.59.59,0,0,1,.21-.49.85.85,0,0,1,.57-.18.76.76,0,0,1,.53.18.65.65,0,0,1,.19.49v.18a.67.67,0,0,1-.19.5A.82.82,0,0,1,162.37,15.11Zm.54,10a.52.52,0,0,1-.17.38.49.49,0,0,1-.37.16.5.5,0,0,1-.39-.16.54.54,0,0,1-.15-.38V16.85a.55.55,0,0,1,.15-.38.53.53,0,0,1,.39-.16.53.53,0,0,1,.38.16.52.52,0,0,1,.16.38Z"/><path class="cls-9" d="M169.7,16.4a3.14,3.14,0,0,1,1.91.59,3,3,0,0,1,1.08,1.73l-.25.08.1-.33a2.82,2.82,0,0,1,.79-1,4.3,4.3,0,0,1,1.25-.77A3.76,3.76,0,0,1,176,16.4a3.09,3.09,0,0,1,1.83.49,2.78,2.78,0,0,1,1,1.3,5.13,5.13,0,0,1,.31,1.85v5.09a.54.54,0,0,1-.15.38.56.56,0,0,1-.78,0,.54.54,0,0,1-.15-.38v-5a3.9,3.9,0,0,0-.23-1.35,2.18,2.18,0,0,0-.74-1,2.29,2.29,0,0,0-1.35-.36,3,3,0,0,0-1.41.36,3.13,3.13,0,0,0-1.1,1,2.35,2.35,0,0,0-.43,1.35v5a.54.54,0,0,1-.15.38.5.5,0,0,1-.39.16.49.49,0,0,1-.38-.16.51.51,0,0,1-.16-.38V20a4,4,0,0,0-.21-1.33,2,2,0,0,0-.7-.95,2.27,2.27,0,0,0-1.32-.35,3,3,0,0,0-1.39.35,2.87,2.87,0,0,0-1.06.95,2.23,2.23,0,0,0-.41,1.33v5.09a.51.51,0,0,1-.16.38.52.52,0,0,1-.38.16.51.51,0,0,1-.4-.16.57.57,0,0,1-.14-.38V17.07a.55.55,0,0,1,.15-.38.56.56,0,0,1,.78,0,.55.55,0,0,1,.15.38v1.67l-.49.67a2.87,2.87,0,0,1,.36-1.08,3.27,3.27,0,0,1,.78-1,4,4,0,0,1,1.11-.7A3.35,3.35,0,0,1,169.7,16.4Z"/><path class="cls-9" d="M190.32,21.06a5,5,0,0,1-.6,2.46,4.47,4.47,0,0,1-1.63,1.71,4.63,4.63,0,0,1-4.63,0,4.42,4.42,0,0,1-1.64-1.71,5.27,5.27,0,0,1,0-4.92,4.57,4.57,0,0,1,1.64-1.71,4.57,4.57,0,0,1,4.63,0,4.62,4.62,0,0,1,1.63,1.71A5,5,0,0,1,190.32,21.06Zm-1.08,0a4.12,4.12,0,0,0-.45-1.95,3.49,3.49,0,0,0-1.23-1.35,3.27,3.27,0,0,0-1.79-.49,3.23,3.23,0,0,0-1.77.49,3.54,3.54,0,0,0-1.25,1.35,4.13,4.13,0,0,0-.46,1.95,4.07,4.07,0,0,0,.46,2A3.58,3.58,0,0,0,184,24.35a3.23,3.23,0,0,0,1.77.49,3.27,3.27,0,0,0,1.79-.49A3.53,3.53,0,0,0,188.79,23,4.07,4.07,0,0,0,189.24,21.06Z"/><path class="cls-9" d="M201.54,25.85a4.88,4.88,0,0,1-2.45-.59,4.27,4.27,0,0,1-1.66-1.66,5.05,5.05,0,0,1-.59-2.48,5.3,5.3,0,0,1,.6-2.61A4.44,4.44,0,0,1,199,16.84a3.85,3.85,0,0,1,2-.58,4.28,4.28,0,0,1,1.54.28,3.65,3.65,0,0,1,1.32.83,4.09,4.09,0,0,1,.94,1.34,4.73,4.73,0,0,1,.38,1.83.48.48,0,0,1-.17.37.51.51,0,0,1-.37.15h-7.22l-.22-1h7.1l-.24.22V20a2.75,2.75,0,0,0-.56-1.44,2.94,2.94,0,0,0-1.12-.9,3.31,3.31,0,0,0-1.38-.31,3.22,3.22,0,0,0-1.11.22,2.91,2.91,0,0,0-1,.67,3.47,3.47,0,0,0-.75,1.17,4.56,4.56,0,0,0-.29,1.69,4.3,4.3,0,0,0,.43,1.92,3.31,3.31,0,0,0,1.25,1.37,3.59,3.59,0,0,0,2,.5,3.13,3.13,0,0,0,2-.65,3.71,3.71,0,0,0,.63-.62.62.62,0,0,1,.38-.16.44.44,0,0,1,.34.14.45.45,0,0,1,.13.32.49.49,0,0,1-.18.38,5,5,0,0,1-1.4,1.13A4,4,0,0,1,201.54,25.85Z"/><path class="cls-9" d="M206.81,24.22a.76.76,0,0,1-.14-.43.39.39,0,0,1,.23-.33.44.44,0,0,1,.33-.11.52.52,0,0,1,.35.18,4,4,0,0,0,1.18,1,3.3,3.3,0,0,0,1.65.38,2.92,2.92,0,0,0,1-.17,1.89,1.89,0,0,0,.82-.52,1.41,1.41,0,0,0,0-1.79,2.26,2.26,0,0,0-.84-.54,10,10,0,0,0-1.09-.34c-.41-.11-.8-.23-1.19-.37a4.17,4.17,0,0,1-1-.52,2.51,2.51,0,0,1-.72-.77,2.09,2.09,0,0,1-.27-1.1,2.22,2.22,0,0,1,.42-1.33,2.8,2.8,0,0,1,1.12-.9,4,4,0,0,1,1.62-.32,4.42,4.42,0,0,1,1,.12,3.72,3.72,0,0,1,1,.38,3,3,0,0,1,.9.74.5.5,0,0,1,.16.37.51.51,0,0,1-.17.37.58.58,0,0,1-.34.11.39.39,0,0,1-.31-.15,2.77,2.77,0,0,0-1-.73,3.22,3.22,0,0,0-1.28-.26,2.88,2.88,0,0,0-1,.17,2,2,0,0,0-.76.52,1.28,1.28,0,0,0-.31.9,1.22,1.22,0,0,0,.37.84,2.53,2.53,0,0,0,.88.54,10.46,10.46,0,0,0,1.23.4,11.12,11.12,0,0,1,1.11.34,3.65,3.65,0,0,1,.94.5,2.22,2.22,0,0,1,.65.74,2.41,2.41,0,0,1,.24,1.14,2.22,2.22,0,0,1-.44,1.37,2.94,2.94,0,0,1-1.18.88,4.32,4.32,0,0,1-1.64.3,4.72,4.72,0,0,1-1.88-.38A4.06,4.06,0,0,1,206.81,24.22Z"/><path class="cls-9" d="M224.77,25.85a4.91,4.91,0,0,1-2.45-.59,4.25,4.25,0,0,1-1.65-1.66,5,5,0,0,1-.6-2.48,5.3,5.3,0,0,1,.61-2.61,4.42,4.42,0,0,1,1.56-1.67,3.91,3.91,0,0,1,2-.58,4.32,4.32,0,0,1,1.54.28,3.73,3.73,0,0,1,1.32.83,4.24,4.24,0,0,1,.94,1.34,4.73,4.73,0,0,1,.37,1.83.47.47,0,0,1-.16.37.54.54,0,0,1-.38.15h-7.21l-.22-1h7.09l-.23.22V20a2.75,2.75,0,0,0-.56-1.44,3,3,0,0,0-1.13-.9,3.06,3.06,0,0,0-2.48-.09,3,3,0,0,0-1,.67,3.61,3.61,0,0,0-.74,1.17,4.56,4.56,0,0,0-.29,1.69,4.17,4.17,0,0,0,.43,1.92,3.29,3.29,0,0,0,1.24,1.37,3.63,3.63,0,0,0,2,.5,3.31,3.31,0,0,0,1.11-.17,3.16,3.16,0,0,0,.89-.48,3.8,3.8,0,0,0,.64-.62.59.59,0,0,1,.38-.16.42.42,0,0,1,.33.14.47.47,0,0,1,.14.32.49.49,0,0,1-.18.38,4.9,4.9,0,0,1-1.41,1.13A3.89,3.89,0,0,1,224.77,25.85Z"/><path class="cls-9" d="M230.12,16.38a.5.5,0,0,1,.43.24l6.37,8.24a.5.5,0,0,1,0,.7.53.53,0,0,1-.38.17.57.57,0,0,1-.45-.24l-6.39-8.24a.48.48,0,0,1-.11-.32.51.51,0,0,1,.17-.39A.57.57,0,0,1,230.12,16.38Zm0,9.35a.61.61,0,0,1-.35-.13.4.4,0,0,1-.17-.36.52.52,0,0,1,.12-.34l3-3.91.6.87-2.81,3.65A.5.5,0,0,1,230.12,25.73Zm6.39-9.35a.51.51,0,0,1,.37.14.44.44,0,0,1,.13.33.57.57,0,0,1,0,.18.4.4,0,0,1-.09.17l-3,4-.56-.86,2.78-3.71A.57.57,0,0,1,236.51,16.38Z"/><path class="cls-9" d="M243.21,16.4a3.88,3.88,0,0,1,2.17.61,4.28,4.28,0,0,1,1.5,1.65,5.53,5.53,0,0,1,0,4.85,4.31,4.31,0,0,1-1.51,1.68,4,4,0,0,1-2.14.61,3.68,3.68,0,0,1-1.2-.19,4.3,4.3,0,0,1-1-.51,3.8,3.8,0,0,1-.83-.77,3.9,3.9,0,0,1-.58-1l.33-.24v5.6a.55.55,0,0,1-.16.38.49.49,0,0,1-.38.16.5.5,0,0,1-.39-.16.54.54,0,0,1-.15-.38V17a.56.56,0,0,1,.14-.4.51.51,0,0,1,.4-.16.49.49,0,0,1,.38.16.58.58,0,0,1,.16.4v1.94l-.26-.14a3.2,3.2,0,0,1,.53-1A3.69,3.69,0,0,1,241,17a3.87,3.87,0,0,1,1-.48A4.47,4.47,0,0,1,243.21,16.4Zm-.09,1a3.06,3.06,0,0,0-1.71.48,3.36,3.36,0,0,0-1.16,1.29,4.12,4.12,0,0,0-.42,1.9,4.22,4.22,0,0,0,.42,1.91,3.25,3.25,0,0,0,1.16,1.32,3.06,3.06,0,0,0,1.71.48,3,3,0,0,0,1.68-.48A3.25,3.25,0,0,0,246,23a4.1,4.1,0,0,0,.44-1.91,4.05,4.05,0,0,0-.44-1.89,3.32,3.32,0,0,0-1.16-1.3A3,3,0,0,0,243.12,17.41Z"/><path class="cls-9" d="M256.36,16.53a.49.49,0,0,1,.38.16.57.57,0,0,1,.16.38v5.07a3.53,3.53,0,0,1-1,2.72,3.81,3.81,0,0,1-2.72.94,3.74,3.74,0,0,1-2.69-.94,3.53,3.53,0,0,1-1-2.72V17.07a.55.55,0,0,1,.15-.38.5.5,0,0,1,.39-.16.51.51,0,0,1,.39.16.55.55,0,0,1,.15.38v5.07a2.75,2.75,0,0,0,4.55,2,2.61,2.61,0,0,0,.7-2V17.07a.55.55,0,0,1,.15-.38A.51.51,0,0,1,256.36,16.53Z"/><path class="cls-9" d="M260.66,25.13a.55.55,0,0,1-.16.38.52.52,0,0,1-.38.16.5.5,0,0,1-.39-.16.54.54,0,0,1-.15-.38V12.89a.52.52,0,0,1,.16-.38.55.55,0,0,1,.38-.16.53.53,0,0,1,.38.16.52.52,0,0,1,.16.38Z"/><path class="cls-9" d="M262.84,24.22a.69.69,0,0,1-.14-.43.39.39,0,0,1,.23-.33.43.43,0,0,1,.33-.11.57.57,0,0,1,.35.18,3.85,3.85,0,0,0,1.18,1,3.3,3.3,0,0,0,1.65.38,2.87,2.87,0,0,0,1-.17,1.84,1.84,0,0,0,.82-.52,1.38,1.38,0,0,0,0-1.79,2.14,2.14,0,0,0-.83-.54c-.35-.13-.71-.24-1.09-.34s-.81-.23-1.19-.37a4.25,4.25,0,0,1-1-.52,2.6,2.6,0,0,1-.71-.77,2.09,2.09,0,0,1-.27-1.1,2.22,2.22,0,0,1,.42-1.33,2.8,2.8,0,0,1,1.12-.9,3.92,3.92,0,0,1,1.61-.32,4.35,4.35,0,0,1,1,.12,3.79,3.79,0,0,1,1,.38,3.15,3.15,0,0,1,.9.74.5.5,0,0,1,.16.37.49.49,0,0,1-.18.37.57.57,0,0,1-.33.11.41.41,0,0,1-.32-.15,2.82,2.82,0,0,0-1-.73,3.22,3.22,0,0,0-1.28-.26,2.84,2.84,0,0,0-1,.17,2,2,0,0,0-.77.52,1.32,1.32,0,0,0-.3.9,1.17,1.17,0,0,0,.37.84,2.44,2.44,0,0,0,.88.54,9.37,9.37,0,0,0,1.23.4c.38.1.75.21,1.11.34a3.75,3.75,0,0,1,.93.5,2.11,2.11,0,0,1,.65.74,2.4,2.4,0,0,1,.25,1.14,2.17,2.17,0,0,1-.45,1.37,2.84,2.84,0,0,1-1.17.88,4.35,4.35,0,0,1-1.64.3,4.68,4.68,0,0,1-1.88-.38A4,4,0,0,1,262.84,24.22Z"/><path class="cls-9" d="M279.14,16.47a.51.51,0,0,1,.39.17.56.56,0,0,1,.15.39v8.1a.51.51,0,0,1-.16.38.52.52,0,0,1-.38.16.51.51,0,0,1-.4-.16.57.57,0,0,1-.14-.38V23l.31-.14a2.21,2.21,0,0,1-.28,1,3.5,3.5,0,0,1-.77,1,3.71,3.71,0,0,1-1.14.73,3.58,3.58,0,0,1-1.43.28,3.86,3.86,0,0,1-2.17-.63,4.29,4.29,0,0,1-1.51-1.72,5.43,5.43,0,0,1-.55-2.47,5.21,5.21,0,0,1,.56-2.48,4.31,4.31,0,0,1,1.51-1.68,3.93,3.93,0,0,1,4.77.4,3.58,3.58,0,0,1,.79,1.07,2.9,2.9,0,0,1,.29,1.25l-.38-.27V17a.6.6,0,0,1,.14-.39A.51.51,0,0,1,279.14,16.47Zm-3.74,8.37a3,3,0,0,0,1.69-.49A3.4,3.4,0,0,0,278.25,23a4.43,4.43,0,0,0,.42-1.95,4.22,4.22,0,0,0-.42-1.91,3.55,3.55,0,0,0-1.16-1.35,2.9,2.9,0,0,0-1.69-.5,3.06,3.06,0,0,0-1.69.48,3.48,3.48,0,0,0-1.17,1.34,4.29,4.29,0,0,0-.42,1.94,4.57,4.57,0,0,0,.41,1.95,3.34,3.34,0,0,0,1.17,1.37A3,3,0,0,0,275.4,24.84Z"/><path class="cls-9" d="M289.89,12.35a.53.53,0,0,1,.39.16.52.52,0,0,1,.15.38V25.13a.55.55,0,0,1-.16.38.52.52,0,0,1-.38.16.51.51,0,0,1-.4-.16.57.57,0,0,1-.14-.38V23l.3-.25a2.34,2.34,0,0,1-.27,1.05,3.48,3.48,0,0,1-.76,1,3.94,3.94,0,0,1-1.15.75,3.42,3.42,0,0,1-1.43.29,3.82,3.82,0,0,1-2.15-.63,4.45,4.45,0,0,1-1.53-1.71,5.78,5.78,0,0,1,0-4.92,4.36,4.36,0,0,1,1.52-1.71,3.86,3.86,0,0,1,2.14-.62,3.74,3.74,0,0,1,1.42.27,4,4,0,0,1,1.18.74,3.65,3.65,0,0,1,.81,1.07,2.77,2.77,0,0,1,.3,1.25l-.38-.27V12.89a.59.59,0,0,1,.14-.38A.54.54,0,0,1,289.89,12.35Zm-3.74,12.49a3,3,0,0,0,1.69-.49A3.4,3.4,0,0,0,289,23a4.71,4.71,0,0,0,0-3.89,3.4,3.4,0,0,0-1.16-1.35,3.16,3.16,0,0,0-3.38,0,3.35,3.35,0,0,0-1.17,1.35,4.69,4.69,0,0,0,0,3.88,3.31,3.31,0,0,0,1.17,1.36A3,3,0,0,0,286.15,24.84Z"/><path class="cls-9" d="M301.66,21.06a5,5,0,0,1-.6,2.46,4.47,4.47,0,0,1-1.63,1.71,4.63,4.63,0,0,1-4.63,0,4.42,4.42,0,0,1-1.64-1.71,5.27,5.27,0,0,1,0-4.92,4.57,4.57,0,0,1,1.64-1.71,4.57,4.57,0,0,1,4.63,0,4.62,4.62,0,0,1,1.63,1.71A5,5,0,0,1,301.66,21.06Zm-1.08,0a4.12,4.12,0,0,0-.45-1.95,3.49,3.49,0,0,0-1.23-1.35,3.27,3.27,0,0,0-1.79-.49,3.23,3.23,0,0,0-1.77.49,3.54,3.54,0,0,0-1.25,1.35,4.13,4.13,0,0,0-.46,1.95,4.07,4.07,0,0,0,.46,2,3.58,3.58,0,0,0,1.25,1.34,3.23,3.23,0,0,0,1.77.49,3.27,3.27,0,0,0,1.79-.49A3.53,3.53,0,0,0,300.13,23,4.07,4.07,0,0,0,300.58,21.06Z"/><path class="cls-9" d="M316.26,16.47a.51.51,0,0,1,.39.17.56.56,0,0,1,.15.39v8.1a.51.51,0,0,1-.16.38.52.52,0,0,1-.38.16.51.51,0,0,1-.4-.16.57.57,0,0,1-.14-.38V23l.31-.14a2.21,2.21,0,0,1-.28,1,3.5,3.5,0,0,1-.77,1,3.71,3.71,0,0,1-1.14.73,3.58,3.58,0,0,1-1.43.28,3.88,3.88,0,0,1-2.17-.63,4.29,4.29,0,0,1-1.51-1.72,5.43,5.43,0,0,1-.55-2.47,5.21,5.21,0,0,1,.56-2.48,4.31,4.31,0,0,1,1.51-1.68,3.93,3.93,0,0,1,4.77.4,3.58,3.58,0,0,1,.79,1.07,2.9,2.9,0,0,1,.29,1.25l-.38-.27V17a.6.6,0,0,1,.14-.39A.51.51,0,0,1,316.26,16.47Zm-3.74,8.37a3,3,0,0,0,1.69-.49A3.4,3.4,0,0,0,315.37,23a4.43,4.43,0,0,0,.42-1.95,4.22,4.22,0,0,0-.42-1.91,3.55,3.55,0,0,0-1.16-1.35,2.9,2.9,0,0,0-1.69-.5,3.06,3.06,0,0,0-1.69.48,3.48,3.48,0,0,0-1.17,1.34,4.29,4.29,0,0,0-.42,1.94,4.57,4.57,0,0,0,.41,1.95,3.34,3.34,0,0,0,1.17,1.37A3,3,0,0,0,312.52,24.84Z"/><path class="cls-9" d="M320.6,25.13a.52.52,0,0,1-.17.38.53.53,0,0,1-.76,0,.54.54,0,0,1-.15-.38V12.89a.52.52,0,0,1,.16-.38.53.53,0,0,1,.76,0,.57.57,0,0,1,.16.38Z"/><path class="cls-9" d="M329.15,14.87a1.47,1.47,0,0,1-.87-.19A.86.86,0,0,1,328,14v-.34a.79.79,0,0,1,.28-.71,1.49,1.49,0,0,1,.85-.19,1.46,1.46,0,0,1,.88.2.84.84,0,0,1,.26.7V14a.8.8,0,0,1-.27.71A1.55,1.55,0,0,1,329.15,14.87Zm1.09,9.71a1.09,1.09,0,0,1-.3.78,1.06,1.06,0,0,1-.78.31,1,1,0,0,1-.77-.31,1.06,1.06,0,0,1-.31-.78V17.14a1.06,1.06,0,0,1,.31-.78,1,1,0,0,1,.77-.32,1.06,1.06,0,0,1,.78.32,1.09,1.09,0,0,1,.3.78Z"/><path class="cls-9" d="M337.6,15.86a3.18,3.18,0,0,1,2,.56,2.82,2.82,0,0,1,.95,1.49,7.29,7.29,0,0,1,.27,2.06v4.61a1.1,1.1,0,0,1-.31.78,1,1,0,0,1-.77.31,1,1,0,0,1-.78-.31,1.09,1.09,0,0,1-.3-.78V20a3.49,3.49,0,0,0-.16-1.07,1.44,1.44,0,0,0-.55-.77,1.9,1.9,0,0,0-1.13-.29,2.42,2.42,0,0,0-1.22.29,1.91,1.91,0,0,0-.75.77,2.1,2.1,0,0,0-.26,1.07v4.61a1.06,1.06,0,0,1-.31.78,1,1,0,0,1-.77.31,1.06,1.06,0,0,1-.78-.31,1.09,1.09,0,0,1-.3-.78V17.14a1.09,1.09,0,0,1,.3-.78,1.06,1.06,0,0,1,.78-.32,1,1,0,0,1,.77.32,1.06,1.06,0,0,1,.31.78v.78l-.27-.06a3.74,3.74,0,0,1,.47-.66,4.14,4.14,0,0,1,.72-.65,3.45,3.45,0,0,1,.93-.5A3.49,3.49,0,0,1,337.6,15.86Z"/><path class="cls-9" d="M343,16.22h4.26a1,1,0,0,1,1,1,.91.91,0,0,1-.29.69,1,1,0,0,1-.72.28H343a1,1,0,0,1-1-1,.94.94,0,0,1,.28-.7A1.05,1.05,0,0,1,343,16.22ZM344.92,14a1,1,0,0,1,.77.32,1.12,1.12,0,0,1,.29.78v8a.87.87,0,0,0,.1.42.67.67,0,0,0,.27.23.94.94,0,0,0,.37.07,1,1,0,0,0,.4-.08,1.07,1.07,0,0,1,.41-.08.62.62,0,0,1,.46.23,1,1,0,0,1-.34,1.48,2.35,2.35,0,0,1-1.18.32,6.62,6.62,0,0,1-.84-.06,2.13,2.13,0,0,1-.86-.31,1.89,1.89,0,0,1-.68-.74,3,3,0,0,1-.27-1.39v-8.1a1.09,1.09,0,0,1,1.1-1.1Z"/><path class="cls-9" d="M354.22,25.85a5.27,5.27,0,0,1-2.66-.64,4.34,4.34,0,0,1-1.72-1.73,5.1,5.1,0,0,1-.61-2.49,5.42,5.42,0,0,1,.66-2.76,4.69,4.69,0,0,1,1.72-1.76,4.53,4.53,0,0,1,2.25-.61,4.16,4.16,0,0,1,1.74.38,4.77,4.77,0,0,1,1.45,1,5,5,0,0,1,1,1.52,4.67,4.67,0,0,1,.36,1.83.92.92,0,0,1-.34.71,1.18,1.18,0,0,1-.75.26h-6.88l-.54-1.8h6.61l-.4.37v-.49a1.65,1.65,0,0,0-.37-.94,2.43,2.43,0,0,0-.83-.65,2.26,2.26,0,0,0-1.05-.25,3.29,3.29,0,0,0-1,.15,2,2,0,0,0-.81.48,2.36,2.36,0,0,0-.54.92,4.63,4.63,0,0,0-.2,1.46,3.15,3.15,0,0,0,.41,1.65,2.76,2.76,0,0,0,2.4,1.37,3.77,3.77,0,0,0,1.06-.11,2,2,0,0,0,.64-.26l.44-.26a1.36,1.36,0,0,1,.62-.16.9.9,0,0,1,.91.9,1.1,1.1,0,0,1-.5.88,4.09,4.09,0,0,1-1.31.7A5.49,5.49,0,0,1,354.22,25.85Z"/><path class="cls-9" d="M359.52,24.18a1,1,0,0,1-.16-.65.86.86,0,0,1,.47-.68,1,1,0,0,1,.61-.16,1,1,0,0,1,.63.34,4.1,4.1,0,0,0,1.1.81,3.21,3.21,0,0,0,1.44.29,4.72,4.72,0,0,0,.59-.09,1.1,1.1,0,0,0,.57-.28.91.91,0,0,0,.24-.7.8.8,0,0,0-.27-.63A2.16,2.16,0,0,0,364,22c-.29-.11-.62-.21-1-.31l-1.14-.36a4.59,4.59,0,0,1-1.07-.51A2.48,2.48,0,0,1,360,20a2.59,2.59,0,0,1-.3-1.31,2.4,2.4,0,0,1,.5-1.53,3.22,3.22,0,0,1,1.31-1,4.18,4.18,0,0,1,1.68-.35,5.48,5.48,0,0,1,1.17.14,4.45,4.45,0,0,1,1.17.43,3.09,3.09,0,0,1,.94.78,1.27,1.27,0,0,1,.23.65.8.8,0,0,1-.34.69.87.87,0,0,1-.63.18,1,1,0,0,1-.6-.24,2.16,2.16,0,0,0-.81-.63,3,3,0,0,0-1.18-.23,3.19,3.19,0,0,0-.59.06A1.14,1.14,0,0,0,362,18a.87.87,0,0,0-.23.66.83.83,0,0,0,.27.65,1.88,1.88,0,0,0,.73.4l1,.3c.36.09.72.21,1.1.34a4.45,4.45,0,0,1,1,.52,2.56,2.56,0,0,1,.76.84A2.66,2.66,0,0,1,367,23a2.36,2.36,0,0,1-.54,1.57,3.42,3.42,0,0,1-1.35,1,4.39,4.39,0,0,1-1.66.33,6.27,6.27,0,0,1-2.12-.37A3.67,3.67,0,0,1,359.52,24.18Z"/><path class="cls-9" d="M368.89,16.22h4.27a1,1,0,0,1,1,1,.91.91,0,0,1-.29.69,1,1,0,0,1-.72.28h-4.27a1,1,0,0,1-.72-.28,1,1,0,0,1-.29-.72,1,1,0,0,1,.29-.7A1,1,0,0,1,368.89,16.22ZM370.82,14a1,1,0,0,1,.76.32,1.09,1.09,0,0,1,.3.78v8a.77.77,0,0,0,.1.42.67.67,0,0,0,.27.23.9.9,0,0,0,.37.07,1.06,1.06,0,0,0,.4-.08,1,1,0,0,1,.41-.08.62.62,0,0,1,.46.23,1,1,0,0,1-.34,1.48,2.35,2.35,0,0,1-1.18.32,6.5,6.5,0,0,1-.84-.06,2.08,2.08,0,0,1-.86-.31,1.89,1.89,0,0,1-.68-.74,3,3,0,0,1-.27-1.39v-8.1a1.09,1.09,0,0,1,1.1-1.1Z"/><path class="cls-9" d="M376.82,14.87a1.42,1.42,0,0,1-.86-.19.86.86,0,0,1-.26-.71v-.34a.82.82,0,0,1,.28-.71,1.52,1.52,0,0,1,.86-.19,1.48,1.48,0,0,1,.88.2.84.84,0,0,1,.25.7V14a.8.8,0,0,1-.27.71A1.53,1.53,0,0,1,376.82,14.87Zm1.1,9.71a1.06,1.06,0,0,1-.31.78,1,1,0,0,1-.77.31,1.06,1.06,0,0,1-.78-.31,1.09,1.09,0,0,1-.3-.78V17.14a1.09,1.09,0,0,1,.3-.78,1.06,1.06,0,0,1,.78-.32,1,1,0,0,1,.77.32,1.06,1.06,0,0,1,.31.78Z"/><path class="cls-9" d="M385.27,15.86a3.21,3.21,0,0,1,2,.56,2.82,2.82,0,0,1,.95,1.49,7.69,7.69,0,0,1,.26,2.06v4.61a1.09,1.09,0,0,1-.3.78,1.06,1.06,0,0,1-.78.31,1,1,0,0,1-.77-.31,1.06,1.06,0,0,1-.31-.78V20a3.5,3.5,0,0,0-.15-1.07,1.49,1.49,0,0,0-.55-.77,1.9,1.9,0,0,0-1.13-.29,2.42,2.42,0,0,0-1.22.29,2,2,0,0,0-.76.77,2.2,2.2,0,0,0-.26,1.07v4.61a1.09,1.09,0,0,1-.3.78,1,1,0,0,1-.78.31,1,1,0,0,1-.77-.31,1.1,1.1,0,0,1-.31-.78V17.14a1.1,1.1,0,0,1,.31-.78,1,1,0,0,1,.77-.32,1,1,0,0,1,.78.32,1.09,1.09,0,0,1,.3.78v.78l-.27-.06a4.35,4.35,0,0,1,.47-.66,5,5,0,0,1,.72-.65,3.67,3.67,0,0,1,.94-.5A3.43,3.43,0,0,1,385.27,15.86Z"/><path class="cls-9" d="M400,20.87a5.05,5.05,0,0,1-.66,2.6,4.76,4.76,0,0,1-1.76,1.75,4.94,4.94,0,0,1-2.48.63,4.88,4.88,0,0,1-2.47-.63,4.72,4.72,0,0,1-1.77-1.75,5,5,0,0,1-.65-2.6,5,5,0,0,1,.65-2.6,4.81,4.81,0,0,1,4.24-2.41,5,5,0,0,1,2.48.64,4.9,4.9,0,0,1,1.76,1.77A5,5,0,0,1,400,20.87Zm-2.16,0a3.37,3.37,0,0,0-.37-1.6,2.78,2.78,0,0,0-1-1.05,2.7,2.7,0,0,0-2.76,0,2.78,2.78,0,0,0-1,1.05,3.37,3.37,0,0,0-.36,1.6,3.28,3.28,0,0,0,.36,1.57,2.89,2.89,0,0,0,1,1.06,2.76,2.76,0,0,0,2.76,0,2.89,2.89,0,0,0,1-1.06A3.28,3.28,0,0,0,397.86,20.87Z"/><path class="cls-9" d="M19,35.86a3.85,3.85,0,0,1,1.38.24,3.91,3.91,0,0,1,1.09.59,3.29,3.29,0,0,1,.72.73,1.19,1.19,0,0,1,.26.62l-.47.23V37a1.06,1.06,0,0,1,.31-.78,1,1,0,0,1,.77-.32A1,1,0,0,1,24.12,37v8a4.24,4.24,0,0,1-.67,2.51,3.81,3.81,0,0,1-1.77,1.37,6.59,6.59,0,0,1-2.36.42,6.45,6.45,0,0,1-.94-.09c-.38-.06-.75-.13-1.1-.21a8.13,8.13,0,0,1-.79-.24,1.54,1.54,0,0,1-.75-.58.93.93,0,0,1-.08-.75,1.11,1.11,0,0,1,.53-.71.89.89,0,0,1,.75,0l.59.22a8.83,8.83,0,0,0,.91.3,3.35,3.35,0,0,0,.88.13,3.05,3.05,0,0,0,2-.54A1.82,1.82,0,0,0,22,45.26V43.69l.22.16a1,1,0,0,1-.24.57,3.82,3.82,0,0,1-.67.66,4,4,0,0,1-1,.55,3.3,3.3,0,0,1-1.22.22,4.25,4.25,0,0,1-2.31-.64,4.52,4.52,0,0,1-1.62-1.76,6,6,0,0,1,0-5.18,4.6,4.6,0,0,1,1.61-1.77A4.16,4.16,0,0,1,19,35.86Zm.34,2a2.49,2.49,0,0,0-1.42.4,2.65,2.65,0,0,0-1,1.08,3.66,3.66,0,0,0,0,3.08,2.79,2.79,0,0,0,1,1.08,2.56,2.56,0,0,0,1.42.39,2.63,2.63,0,0,0,1.44-.39,2.84,2.84,0,0,0,.95-1.08,3.66,3.66,0,0,0,0-3.08,2.7,2.7,0,0,0-.95-1.08A2.56,2.56,0,0,0,19.32,37.84Z"/><path class="cls-9" d="M27.48,45.67a1,1,0,0,1-.78-.31,1.09,1.09,0,0,1-.3-.78V37.14a1.09,1.09,0,0,1,.3-.78,1,1,0,0,1,.78-.32,1,1,0,0,1,.77.32,1.1,1.1,0,0,1,.31.78v1.69l-.13-1.2a2.72,2.72,0,0,1,.51-.77,3.19,3.19,0,0,1,.71-.56A3.26,3.26,0,0,1,30.5,36a4,4,0,0,1,.9-.11,1.41,1.41,0,0,1,.91.31.89.89,0,0,1,.37.72,1,1,0,0,1-.31.85,1,1,0,0,1-.66.27,1.52,1.52,0,0,1-.62-.13,1.62,1.62,0,0,0-.64-.13,1.46,1.46,0,0,0-.66.16,1.79,1.79,0,0,0-.61.47,2.49,2.49,0,0,0-.45.8,3.24,3.24,0,0,0-.17,1.13v4.27a1.1,1.1,0,0,1-.31.78A1,1,0,0,1,27.48,45.67Z"/><path class="cls-9" d="M41.18,36a1.06,1.06,0,0,1,.78.32,1.09,1.09,0,0,1,.3.78v4.57a4.21,4.21,0,0,1-1.06,3,4,4,0,0,1-3.06,1.11,4,4,0,0,1-3-1.11,4.25,4.25,0,0,1-1.05-3V37.14a1.09,1.09,0,0,1,.3-.78,1,1,0,0,1,.78-.32,1,1,0,0,1,.77.32,1.1,1.1,0,0,1,.31.78v4.57a2.35,2.35,0,0,0,.48,1.63,1.87,1.87,0,0,0,1.46.53,1.9,1.9,0,0,0,1.48-.53,2.35,2.35,0,0,0,.48-1.63V37.14a1.06,1.06,0,0,1,.31-.78A1,1,0,0,1,41.18,36Z"/><path class="cls-9" d="M48.93,45.85a5.27,5.27,0,0,1-2.66-.64,4.34,4.34,0,0,1-1.72-1.73A5,5,0,0,1,43.94,41a5.42,5.42,0,0,1,.66-2.76,4.69,4.69,0,0,1,1.72-1.76,4.53,4.53,0,0,1,2.25-.61,4.16,4.16,0,0,1,1.74.38,4.9,4.9,0,0,1,1.45,1,4.76,4.76,0,0,1,1,1.52,4.5,4.5,0,0,1,.37,1.83.92.92,0,0,1-.34.71,1.21,1.21,0,0,1-.76.26H45.15l-.54-1.8h6.61l-.4.37v-.49a1.72,1.72,0,0,0-.37-.94,2.43,2.43,0,0,0-.83-.65,2.26,2.26,0,0,0-1-.25,3.29,3.29,0,0,0-1,.15,2,2,0,0,0-.81.48,2.36,2.36,0,0,0-.54.92,4.63,4.63,0,0,0-.2,1.46,3.15,3.15,0,0,0,.41,1.65,2.76,2.76,0,0,0,2.4,1.37,3.77,3.77,0,0,0,1.06-.11,2,2,0,0,0,.64-.26l.44-.26a1.35,1.35,0,0,1,.61-.16.87.87,0,0,1,.66.27.85.85,0,0,1,.26.63,1.13,1.13,0,0,1-.5.88,4.09,4.09,0,0,1-1.31.7A5.49,5.49,0,0,1,48.93,45.85Z"/><path class="cls-9" d="M54.23,44.18a1,1,0,0,1-.16-.65.86.86,0,0,1,.47-.68,1,1,0,0,1,.61-.16,1,1,0,0,1,.63.34,4.1,4.1,0,0,0,1.1.81,3.21,3.21,0,0,0,1.44.29,4.72,4.72,0,0,0,.59-.09,1.1,1.1,0,0,0,.57-.28.91.91,0,0,0,.24-.7.8.8,0,0,0-.27-.63,2.27,2.27,0,0,0-.71-.39c-.29-.11-.62-.21-1-.31l-1.14-.36a4.59,4.59,0,0,1-1.07-.51,2.48,2.48,0,0,1-.8-.84,2.59,2.59,0,0,1-.3-1.31,2.4,2.4,0,0,1,.5-1.53,3.22,3.22,0,0,1,1.31-1,4.18,4.18,0,0,1,1.68-.35,5.48,5.48,0,0,1,1.17.14,4.45,4.45,0,0,1,1.17.43,3.09,3.09,0,0,1,.94.78,1.27,1.27,0,0,1,.23.65.8.8,0,0,1-.34.69.87.87,0,0,1-.63.18,1,1,0,0,1-.6-.24,2.12,2.12,0,0,0-.82-.63,2.87,2.87,0,0,0-1.17-.23,3.19,3.19,0,0,0-.59.06,1.14,1.14,0,0,0-.55.27.87.87,0,0,0-.23.66.83.83,0,0,0,.27.65,1.88,1.88,0,0,0,.73.4l1,.3c.36.09.72.21,1.1.34a4.45,4.45,0,0,1,1,.52,2.56,2.56,0,0,1,.76.84,2.66,2.66,0,0,1,.29,1.3,2.36,2.36,0,0,1-.54,1.57,3.42,3.42,0,0,1-1.35,1,4.39,4.39,0,0,1-1.66.33A6.27,6.27,0,0,1,56,45.48,3.67,3.67,0,0,1,54.23,44.18Z"/><path class="cls-9" d="M72.61,40.87a5.05,5.05,0,0,1-.66,2.6,4.62,4.62,0,0,1-1.76,1.75,5.18,5.18,0,0,1-5,0,4.62,4.62,0,0,1-1.76-1.75,5.45,5.45,0,0,1,0-5.2,4.75,4.75,0,0,1,1.76-1.77,5.11,5.11,0,0,1,5,0A4.75,4.75,0,0,1,72,38.27,5,5,0,0,1,72.61,40.87Zm-2.16,0a3.26,3.26,0,0,0-.37-1.6,2.64,2.64,0,0,0-1-1.05,2.68,2.68,0,0,0-2.75,0,2.64,2.64,0,0,0-1,1.05,3.26,3.26,0,0,0-.37,1.6,3.17,3.17,0,0,0,.37,1.57,2.73,2.73,0,0,0,1,1.06,2.74,2.74,0,0,0,2.75,0,2.73,2.73,0,0,0,1-1.06A3.17,3.17,0,0,0,70.45,40.87Z"/><path class="cls-9" d="M75.19,45.62a2.16,2.16,0,0,1-.15.78,2.73,2.73,0,0,1-1,1.23,1.09,1.09,0,0,1-.58.18.57.57,0,0,1-.32-.09.34.34,0,0,1-.14-.3c0-.19.06-.3.2-.33a1.68,1.68,0,0,0,.44-.16,1,1,0,0,0,.39-.38,1.1,1.1,0,0,0,.14-.52.48.48,0,0,0-.11-.32.39.39,0,0,0-.29-.13.73.73,0,0,0-.25,0,.74.74,0,0,0-.24.11,1.56,1.56,0,0,1-.16-.2.39.39,0,0,1,0-.27.68.68,0,0,1,.17-.39,1.13,1.13,0,0,1,.39-.27,1.27,1.27,0,0,1,.46-.1,1,1,0,0,1,.77.3A1.1,1.1,0,0,1,75.19,45.62Z"/><path class="cls-9" d="M89.69,32.35a.49.49,0,0,1,.38.16.53.53,0,0,1,.16.38V45.13a.52.52,0,0,1-.17.38.49.49,0,0,1-.37.16.51.51,0,0,1-.4-.16.53.53,0,0,1-.14-.38V43l.3-.25a2.34,2.34,0,0,1-.27,1,3.48,3.48,0,0,1-.76,1,4,4,0,0,1-1.16.75,3.36,3.36,0,0,1-1.43.29,3.84,3.84,0,0,1-2.15-.63,4.42,4.42,0,0,1-1.52-1.71,5.68,5.68,0,0,1,0-4.92,4.34,4.34,0,0,1,1.51-1.71,3.89,3.89,0,0,1,2.15-.62,3.78,3.78,0,0,1,1.42.27,4.12,4.12,0,0,1,1.18.74,3.65,3.65,0,0,1,.81,1.07,2.9,2.9,0,0,1,.29,1.25l-.37-.27V32.89a.51.51,0,0,1,.54-.54ZM85.94,44.84a2.94,2.94,0,0,0,1.69-.49A3.33,3.33,0,0,0,88.79,43a4.61,4.61,0,0,0,0-3.89,3.33,3.33,0,0,0-1.16-1.35,2.94,2.94,0,0,0-1.69-.49,3,3,0,0,0-1.68.49,3.35,3.35,0,0,0-1.17,1.35,4.69,4.69,0,0,0,0,3.88,3.31,3.31,0,0,0,1.17,1.36A3,3,0,0,0,85.94,44.84Z"/><path class="cls-9" d="M101.46,41.06a5,5,0,0,1-.6,2.46,4.55,4.55,0,0,1-1.63,1.71,4.65,4.65,0,0,1-4.64,0A4.5,4.5,0,0,1,93,43.52a5.34,5.34,0,0,1,0-4.92,4.64,4.64,0,0,1,1.64-1.71,4.59,4.59,0,0,1,4.64,0,4.7,4.7,0,0,1,1.63,1.71A5,5,0,0,1,101.46,41.06Zm-1.08,0a4.12,4.12,0,0,0-.45-2,3.49,3.49,0,0,0-1.23-1.35,3.3,3.3,0,0,0-1.79-.49,3.26,3.26,0,0,0-1.78.49,3.59,3.59,0,0,0-1.24,1.35,4,4,0,0,0-.46,2A4,4,0,0,0,93.89,43a3.64,3.64,0,0,0,1.24,1.34,3.26,3.26,0,0,0,1.78.49,3.3,3.3,0,0,0,1.79-.49A3.53,3.53,0,0,0,99.93,43,4.07,4.07,0,0,0,100.38,41.06Z"/><path class="cls-9" d="M107.91,36.26a3.32,3.32,0,0,1,1.9.48,2.63,2.63,0,0,1,1,1.29,5,5,0,0,1,.31,1.81v5.29a.55.55,0,0,1-.54.54.48.48,0,0,1-.39-.16.54.54,0,0,1-.15-.38V39.89a3.5,3.5,0,0,0-.23-1.31,2,2,0,0,0-.77-.95,2.41,2.41,0,0,0-1.39-.36,3.25,3.25,0,0,0-2.59,1.31,2.19,2.19,0,0,0-.43,1.31v5.24a.52.52,0,0,1-.17.38.49.49,0,0,1-.37.16.51.51,0,0,1-.4-.16.53.53,0,0,1-.14-.38V37.07a.55.55,0,0,1,.15-.38.5.5,0,0,1,.39-.16.49.49,0,0,1,.38.16.52.52,0,0,1,.16.38v1.51l-.42.65a2.44,2.44,0,0,1,.37-1.11,3.84,3.84,0,0,1,.86-.95,4,4,0,0,1,1.16-.67A3.58,3.58,0,0,1,107.91,36.26Z"/><path class="cls-9" d="M121.32,32.35a.5.5,0,0,1,.39.16.52.52,0,0,1,.15.38V45.13a.55.55,0,0,1-.54.54.47.47,0,0,1-.39-.16.54.54,0,0,1-.15-.38V43l.31-.25a2.34,2.34,0,0,1-.27,1,3.52,3.52,0,0,1-.77,1,3.94,3.94,0,0,1-1.15.75,3.42,3.42,0,0,1-1.43.29,3.84,3.84,0,0,1-2.15-.63,4.42,4.42,0,0,1-1.52-1.71,5.68,5.68,0,0,1,0-4.92,4.26,4.26,0,0,1,1.51-1.71,3.86,3.86,0,0,1,2.14-.62,3.7,3.7,0,0,1,1.42.27,3.87,3.87,0,0,1,1.18.74,3.65,3.65,0,0,1,.81,1.07,2.77,2.77,0,0,1,.3,1.25l-.38-.27V32.89a.55.55,0,0,1,.15-.38A.5.5,0,0,1,121.32,32.35Zm-3.74,12.49a3,3,0,0,0,1.69-.49A3.4,3.4,0,0,0,120.43,43a4.71,4.71,0,0,0,0-3.89,3.4,3.4,0,0,0-1.16-1.35,3.16,3.16,0,0,0-3.38,0,3.51,3.51,0,0,0-1.17,1.35,4.69,4.69,0,0,0,0,3.88,3.47,3.47,0,0,0,1.17,1.36A3,3,0,0,0,117.58,44.84Z"/><path class="cls-9" d="M128.69,45.85a4.86,4.86,0,0,1-2.45-.59,4.27,4.27,0,0,1-1.66-1.66,5.05,5.05,0,0,1-.59-2.48,5.3,5.3,0,0,1,.6-2.61,4.36,4.36,0,0,1,1.57-1.67,3.85,3.85,0,0,1,2-.58,4.28,4.28,0,0,1,1.54.28,3.65,3.65,0,0,1,1.32.83,4.24,4.24,0,0,1,.94,1.34,4.73,4.73,0,0,1,.38,1.83.48.48,0,0,1-.17.37.51.51,0,0,1-.37.15h-7.22l-.22-1h7.09l-.23.22V40a2.75,2.75,0,0,0-.56-1.44,3,3,0,0,0-1.12-.9,3.31,3.31,0,0,0-1.38-.31,3.22,3.22,0,0,0-1.11.22,2.83,2.83,0,0,0-1,.67,3.47,3.47,0,0,0-.75,1.17,4.56,4.56,0,0,0-.29,1.69,4.3,4.3,0,0,0,.43,1.92,3.31,3.31,0,0,0,1.25,1.37,3.59,3.59,0,0,0,2,.5,3.27,3.27,0,0,0,1.11-.17,3,3,0,0,0,.89-.48,3.45,3.45,0,0,0,.64-.62.59.59,0,0,1,.38-.16.42.42,0,0,1,.33.14.47.47,0,0,1,.14.32.49.49,0,0,1-.18.38,5,5,0,0,1-1.4,1.13A4,4,0,0,1,128.69,45.85Z"/><path class="cls-9" d="M139,44.22a.76.76,0,0,1-.14-.43.39.39,0,0,1,.23-.33.46.46,0,0,1,.33-.11.52.52,0,0,1,.35.18,4,4,0,0,0,1.18,1,3.3,3.3,0,0,0,1.65.38,2.88,2.88,0,0,0,1-.17,1.89,1.89,0,0,0,.82-.52,1.41,1.41,0,0,0,0-1.79,2.26,2.26,0,0,0-.84-.54,10,10,0,0,0-1.09-.34c-.41-.11-.8-.23-1.19-.37a4.17,4.17,0,0,1-1-.52,2.64,2.64,0,0,1-.72-.77,2.18,2.18,0,0,1-.26-1.1,2.21,2.21,0,0,1,.41-1.33,2.8,2.8,0,0,1,1.12-.9,4,4,0,0,1,1.62-.32,4.35,4.35,0,0,1,1,.12,3.72,3.72,0,0,1,1,.38,3,3,0,0,1,.9.74.51.51,0,0,1,.17.37.52.52,0,0,1-.18.37.58.58,0,0,1-.34.11.39.39,0,0,1-.31-.15,2.77,2.77,0,0,0-1-.73,3.18,3.18,0,0,0-1.28-.26,2.88,2.88,0,0,0-1,.17,2,2,0,0,0-.76.52,1.28,1.28,0,0,0-.31.9,1.26,1.26,0,0,0,.37.84,2.53,2.53,0,0,0,.88.54,10.46,10.46,0,0,0,1.23.4,11.12,11.12,0,0,1,1.11.34,3.65,3.65,0,0,1,.94.5,2.22,2.22,0,0,1,.65.74,2.41,2.41,0,0,1,.24,1.14,2.22,2.22,0,0,1-.44,1.37,2.94,2.94,0,0,1-1.18.88,4.32,4.32,0,0,1-1.64.3,4.72,4.72,0,0,1-1.88-.38A4.06,4.06,0,0,1,139,44.22Z"/><path class="cls-9" d="M151.93,45.85a4.91,4.91,0,0,1-2.45-.59,4.25,4.25,0,0,1-1.65-1.66,5,5,0,0,1-.6-2.48,5.3,5.3,0,0,1,.61-2.61,4.42,4.42,0,0,1,1.56-1.67,3.91,3.91,0,0,1,2-.58,4.23,4.23,0,0,1,1.53.28,3.77,3.77,0,0,1,1.33.83,4.22,4.22,0,0,1,.93,1.34,4.56,4.56,0,0,1,.38,1.83.47.47,0,0,1-.16.37.54.54,0,0,1-.38.15h-7.22l-.21-1h7.09l-.23.22V40a2.75,2.75,0,0,0-.56-1.44,3,3,0,0,0-1.13-.9,3.06,3.06,0,0,0-2.48-.09,3,3,0,0,0-1,.67,3.61,3.61,0,0,0-.74,1.17,4.37,4.37,0,0,0-.29,1.69,4.17,4.17,0,0,0,.43,1.92A3.29,3.29,0,0,0,150,44.34a3.62,3.62,0,0,0,2,.5,3.33,3.33,0,0,0,1.12-.17,3.16,3.16,0,0,0,.89-.48,3.8,3.8,0,0,0,.64-.62.59.59,0,0,1,.38-.16.42.42,0,0,1,.33.14.47.47,0,0,1,.14.32.49.49,0,0,1-.18.38,4.9,4.9,0,0,1-1.41,1.13A3.89,3.89,0,0,1,151.93,45.85Z"/><path class="cls-9" d="M162.17,36.51h4.2a.49.49,0,0,1,.36.15.57.57,0,0,1,.14.37.5.5,0,0,1-.14.35.52.52,0,0,1-.36.14h-4.2a.49.49,0,0,1-.36-.15.48.48,0,0,1-.16-.36.43.43,0,0,1,.16-.35A.49.49,0,0,1,162.17,36.51ZM164,34a.57.57,0,0,1,.39.16.55.55,0,0,1,.15.38v9a1.63,1.63,0,0,0,.13.75.72.72,0,0,0,.35.34,1.36,1.36,0,0,0,.44.08.75.75,0,0,0,.26,0,.68.68,0,0,1,.26,0,.35.35,0,0,1,.28.13.48.48,0,0,1-.17.74,1.29,1.29,0,0,1-.69.17l-.48,0a2,2,0,0,1-.67-.2,1.36,1.36,0,0,1-.57-.61,2.72,2.72,0,0,1-.22-1.24V34.51a.55.55,0,0,1,.15-.38A.53.53,0,0,1,164,34Z"/><path class="cls-9" d="M169.17,45.67a.48.48,0,0,1-.39-.16.54.54,0,0,1-.15-.38V37.07a.57.57,0,0,1,.16-.38.49.49,0,0,1,.38-.16.5.5,0,0,1,.39.16.55.55,0,0,1,.15.38v2.7l-.27,0a4.43,4.43,0,0,1,.32-1.25,4.26,4.26,0,0,1,.71-1.14,3.69,3.69,0,0,1,1.07-.85,3.07,3.07,0,0,1,1.4-.32,1.58,1.58,0,0,1,.63.13.46.46,0,0,1,.3.45.6.6,0,0,1-.14.41.49.49,0,0,1-.34.14.79.79,0,0,1-.35-.09,1.21,1.21,0,0,0-.5-.09,2,2,0,0,0-1,.3,3.6,3.6,0,0,0-.92.8,4.21,4.21,0,0,0-.65,1.13,3.44,3.44,0,0,0-.25,1.25v4.44a.55.55,0,0,1-.54.54Z"/><path class="cls-9" d="M182.59,36.47a.54.54,0,0,1,.39.17.56.56,0,0,1,.15.39v8.1a.55.55,0,0,1-.16.38.52.52,0,0,1-.38.16.51.51,0,0,1-.4-.16.57.57,0,0,1-.14-.38V43l.31-.14a2.21,2.21,0,0,1-.28,1,3.5,3.5,0,0,1-.77,1,3.71,3.71,0,0,1-1.14.73,3.58,3.58,0,0,1-1.43.28,3.86,3.86,0,0,1-2.17-.63,4.29,4.29,0,0,1-1.51-1.72,5.43,5.43,0,0,1-.55-2.47,5.33,5.33,0,0,1,.55-2.48,4.41,4.41,0,0,1,1.52-1.68,3.85,3.85,0,0,1,2.14-.61,3.84,3.84,0,0,1,2.63,1,3.58,3.58,0,0,1,.79,1.07,2.9,2.9,0,0,1,.29,1.25l-.38-.27V37a.6.6,0,0,1,.14-.39A.51.51,0,0,1,182.59,36.47Zm-3.74,8.37a3,3,0,0,0,1.69-.49A3.4,3.4,0,0,0,181.7,43a4.43,4.43,0,0,0,.42-1.95,4.22,4.22,0,0,0-.42-1.91,3.55,3.55,0,0,0-1.16-1.35,2.92,2.92,0,0,0-1.69-.5,3.06,3.06,0,0,0-1.69.48A3.32,3.32,0,0,0,176,39.09a4.29,4.29,0,0,0-.42,1.94A4.57,4.57,0,0,0,176,43a3.4,3.4,0,0,0,1.16,1.37A3,3,0,0,0,178.85,44.84Z"/><path class="cls-9" d="M190.13,36.26a3.36,3.36,0,0,1,1.9.48,2.67,2.67,0,0,1,1,1.29,5,5,0,0,1,.32,1.81v5.29a.51.51,0,0,1-.16.38.52.52,0,0,1-.38.16.51.51,0,0,1-.4-.16.57.57,0,0,1-.14-.38V39.89a3.72,3.72,0,0,0-.23-1.31,2.05,2.05,0,0,0-.77-.95,2.43,2.43,0,0,0-1.39-.36,3.13,3.13,0,0,0-1.47.36,3.18,3.18,0,0,0-1.13.95,2.25,2.25,0,0,0-.43,1.31v5.24a.55.55,0,0,1-.54.54.47.47,0,0,1-.39-.16.54.54,0,0,1-.15-.38V37.07a.55.55,0,0,1,.15-.38.53.53,0,0,1,.39-.16.5.5,0,0,1,.39.16.55.55,0,0,1,.15.38v1.51l-.41.65a2.22,2.22,0,0,1,.37-1.11,3.8,3.8,0,0,1,.85-.95,4.33,4.33,0,0,1,1.16-.67A3.68,3.68,0,0,1,190.13,36.26Z"/><path class="cls-9" d="M195.44,44.22a.69.69,0,0,1-.14-.43.4.4,0,0,1,.22-.33.47.47,0,0,1,.34-.11.57.57,0,0,1,.35.18,3.85,3.85,0,0,0,1.18,1,3.29,3.29,0,0,0,1.64.38,2.88,2.88,0,0,0,1-.17,1.84,1.84,0,0,0,.82-.52,1.38,1.38,0,0,0,0-1.79,2.14,2.14,0,0,0-.83-.54c-.35-.13-.71-.24-1.09-.34s-.81-.23-1.19-.37a4.25,4.25,0,0,1-1-.52,2.6,2.6,0,0,1-.71-.77,2.09,2.09,0,0,1-.27-1.1,2.28,2.28,0,0,1,.41-1.33,2.9,2.9,0,0,1,1.13-.9,3.92,3.92,0,0,1,1.61-.32,4.35,4.35,0,0,1,1,.12,3.79,3.79,0,0,1,1,.38,3.29,3.29,0,0,1,.9.74.5.5,0,0,1,.16.37.49.49,0,0,1-.18.37.57.57,0,0,1-.33.11.41.41,0,0,1-.32-.15,2.82,2.82,0,0,0-1-.73,3.25,3.25,0,0,0-1.28-.26,2.84,2.84,0,0,0-1,.17,2,2,0,0,0-.77.52,1.32,1.32,0,0,0-.3.9,1.17,1.17,0,0,0,.37.84,2.44,2.44,0,0,0,.88.54,9.37,9.37,0,0,0,1.23.4c.38.1.75.21,1.11.34a3.75,3.75,0,0,1,.93.5,2.11,2.11,0,0,1,.65.74,2.4,2.4,0,0,1,.25,1.14,2.17,2.17,0,0,1-.45,1.37,2.8,2.8,0,0,1-1.18.88,4.26,4.26,0,0,1-1.63.3,4.68,4.68,0,0,1-1.88-.38A4,4,0,0,1,195.44,44.22Z"/><path class="cls-9" d="M208.38,36.66a.48.48,0,0,1,.36.14.51.51,0,0,1,.14.36.52.52,0,0,1-.14.36.48.48,0,0,1-.36.14H204a.49.49,0,0,1-.35-.15.5.5,0,0,1-.16-.35.47.47,0,0,1,.16-.37.51.51,0,0,1,.35-.13Zm-.69-4.23a3.13,3.13,0,0,1,.59,0,1.56,1.56,0,0,1,.55.19.44.44,0,0,1,.23.4.5.5,0,0,1-.14.35.44.44,0,0,1-.33.16,1.54,1.54,0,0,1-.45-.1,1.56,1.56,0,0,0-.57-.1,1.23,1.23,0,0,0-.65.17,1,1,0,0,0-.41.49,1.75,1.75,0,0,0-.15.76V45.13a.54.54,0,0,1-.15.38.5.5,0,0,1-.39.16.49.49,0,0,1-.38-.16.51.51,0,0,1-.16-.38V34.8A2.25,2.25,0,0,1,206,33,2.47,2.47,0,0,1,207.69,32.43Z"/><path class="cls-9" d="M218.75,41.06a5,5,0,0,1-.6,2.46,4.47,4.47,0,0,1-1.63,1.71,4.49,4.49,0,0,1-6.27-1.71,5.27,5.27,0,0,1,0-4.92,4.54,4.54,0,0,1,1.63-1.71,4.59,4.59,0,0,1,4.64,0,4.62,4.62,0,0,1,1.63,1.71A5,5,0,0,1,218.75,41.06Zm-1.08,0a4.12,4.12,0,0,0-.45-2A3.49,3.49,0,0,0,216,37.76a3.5,3.5,0,0,0-3.57,0,3.59,3.59,0,0,0-1.24,1.35,4.13,4.13,0,0,0-.46,2,4.07,4.07,0,0,0,.46,1.95,3.64,3.64,0,0,0,1.24,1.34,3.5,3.5,0,0,0,3.57,0A3.53,3.53,0,0,0,217.22,43,4.07,4.07,0,0,0,217.67,41.06Z"/><path class="cls-9" d="M221.41,45.67a.51.51,0,0,1-.4-.16.53.53,0,0,1-.14-.38V37.07a.55.55,0,0,1,.15-.38.5.5,0,0,1,.39-.16.49.49,0,0,1,.38.16.52.52,0,0,1,.16.38v2.7l-.27,0a4.09,4.09,0,0,1,.31-1.25,4.53,4.53,0,0,1,.71-1.14,3.69,3.69,0,0,1,1.07-.85,3.07,3.07,0,0,1,1.4-.32,1.55,1.55,0,0,1,.63.13.47.47,0,0,1,.31.45.56.56,0,0,1-.15.41.49.49,0,0,1-.34.14.79.79,0,0,1-.35-.09,1.18,1.18,0,0,0-.5-.09,1.93,1.93,0,0,0-1,.3,3.3,3.3,0,0,0-.92.8,4,4,0,0,0-.66,1.13,3.43,3.43,0,0,0-.24,1.25v4.44a.52.52,0,0,1-.17.38A.49.49,0,0,1,221.41,45.67Z"/><path class="cls-9" d="M231.86,36.4a3.11,3.11,0,0,1,1.9.59,3,3,0,0,1,1.08,1.73l-.25.08.11-.33a2.9,2.9,0,0,1,.78-1,4.58,4.58,0,0,1,1.25-.77,3.81,3.81,0,0,1,1.43-.29,3.06,3.06,0,0,1,1.82.49,2.78,2.78,0,0,1,1,1.3,5.13,5.13,0,0,1,.32,1.85v5.09a.55.55,0,0,1-.16.38.49.49,0,0,1-.38.16.5.5,0,0,1-.39-.16.54.54,0,0,1-.15-.38v-5a3.68,3.68,0,0,0-.24-1.35,2,2,0,0,0-.74-1,2.25,2.25,0,0,0-1.35-.36,3,3,0,0,0-1.41.36,3.13,3.13,0,0,0-1.1,1,2.34,2.34,0,0,0-.42,1.35v5a.54.54,0,0,1-.15.38.51.51,0,0,1-.39.16.5.5,0,0,1-.39-.16.54.54,0,0,1-.15-.38V40a3.71,3.71,0,0,0-.22-1.33,1.92,1.92,0,0,0-.7-1,2.21,2.21,0,0,0-1.31-.35,3,3,0,0,0-1.4.35,3,3,0,0,0-1.06,1,2.29,2.29,0,0,0-.4,1.33v5.09a.52.52,0,0,1-.17.38.49.49,0,0,1-.37.16.51.51,0,0,1-.4-.16.53.53,0,0,1-.14-.38V37.07a.55.55,0,0,1,.15-.38.5.5,0,0,1,.39-.16.49.49,0,0,1,.38.16.57.57,0,0,1,.16.38v1.67l-.49.67a2.85,2.85,0,0,1,.35-1.08,3.62,3.62,0,0,1,.78-1,4.25,4.25,0,0,1,1.11-.7A3.4,3.4,0,0,1,231.86,36.4Z"/><path class="cls-9" d="M251.48,36.47a.51.51,0,0,1,.39.17A.56.56,0,0,1,252,37v8.1a.55.55,0,0,1-.54.54.47.47,0,0,1-.39-.16.54.54,0,0,1-.15-.38V43l.31-.14a2.1,2.1,0,0,1-.28,1,3.66,3.66,0,0,1-.76,1,3.89,3.89,0,0,1-1.15.73,3.54,3.54,0,0,1-1.43.28,3.88,3.88,0,0,1-2.17-.63A4.36,4.36,0,0,1,244,43.5,5.43,5.43,0,0,1,243.4,41a5.33,5.33,0,0,1,.56-2.48,4.39,4.39,0,0,1,1.51-1.68,3.93,3.93,0,0,1,4.77.4,3.42,3.42,0,0,1,.79,1.07,2.76,2.76,0,0,1,.29,1.25l-.38-.27V37a.56.56,0,0,1,.15-.39A.48.48,0,0,1,251.48,36.47Zm-3.74,8.37a2.94,2.94,0,0,0,1.69-.49A3.4,3.4,0,0,0,250.59,43,4.43,4.43,0,0,0,251,41a4.23,4.23,0,0,0-.43-1.91,3.55,3.55,0,0,0-1.16-1.35,2.88,2.88,0,0,0-1.69-.5,3,3,0,0,0-1.68.48,3.32,3.32,0,0,0-1.17,1.34,4.17,4.17,0,0,0-.43,1.94,4.43,4.43,0,0,0,.42,1.95A3.25,3.25,0,0,0,246,44.35,3,3,0,0,0,247.74,44.84Z"/><path class="cls-9" d="M263.85,45.85a4.91,4.91,0,0,1-2.45-.59,4.18,4.18,0,0,1-1.65-1.66,5,5,0,0,1-.6-2.48,5.3,5.3,0,0,1,.6-2.61,4.52,4.52,0,0,1,1.57-1.67,3.85,3.85,0,0,1,2-.58,4.28,4.28,0,0,1,1.54.28,3.77,3.77,0,0,1,1.33.83,4.22,4.22,0,0,1,.93,1.34,4.56,4.56,0,0,1,.38,1.83.51.51,0,0,1-.16.37.55.55,0,0,1-.38.15h-7.22l-.22-1h7.1l-.24.22V40a2.74,2.74,0,0,0-.55-1.44,3.05,3.05,0,0,0-1.13-.9,3.31,3.31,0,0,0-1.38-.31,3.12,3.12,0,0,0-1.1.22,3,3,0,0,0-1,.67,3.63,3.63,0,0,0-.75,1.17,4.56,4.56,0,0,0-.29,1.69,4.18,4.18,0,0,0,.44,1.92,3.29,3.29,0,0,0,1.24,1.37,3.59,3.59,0,0,0,2,.5,3.13,3.13,0,0,0,2-.65,3.8,3.8,0,0,0,.64-.62.57.57,0,0,1,.38-.16.42.42,0,0,1,.33.14.45.45,0,0,1,.13.32.49.49,0,0,1-.18.38,5,5,0,0,1-1.4,1.13A4,4,0,0,1,263.85,45.85Z"/><path class="cls-9" d="M274,36.26a3.34,3.34,0,0,1,1.9.48,2.68,2.68,0,0,1,1,1.29,5,5,0,0,1,.31,1.81v5.29a.51.51,0,0,1-.16.38.52.52,0,0,1-.38.16.47.47,0,0,1-.39-.16.54.54,0,0,1-.15-.38V39.89a3.72,3.72,0,0,0-.23-1.31,2,2,0,0,0-.77-.95,2.43,2.43,0,0,0-1.39-.36,3.13,3.13,0,0,0-1.47.36,3.18,3.18,0,0,0-1.13.95,2.25,2.25,0,0,0-.43,1.31v5.24a.55.55,0,0,1-.54.54.48.48,0,0,1-.39-.16.54.54,0,0,1-.15-.38V37.07a.52.52,0,0,1,.16-.38.49.49,0,0,1,.38-.16.5.5,0,0,1,.39.16.55.55,0,0,1,.15.38v1.51l-.41.65a2.33,2.33,0,0,1,.37-1.11,4,4,0,0,1,.85-.95,4.33,4.33,0,0,1,1.16-.67A3.68,3.68,0,0,1,274,36.26Z"/><path class="cls-9" d="M289.1,36.4A3.14,3.14,0,0,1,291,37a3,3,0,0,1,1.08,1.73l-.25.08.1-.33a2.82,2.82,0,0,1,.79-1,4.3,4.3,0,0,1,1.25-.77,3.76,3.76,0,0,1,1.42-.29,3.07,3.07,0,0,1,1.83.49,2.78,2.78,0,0,1,1,1.3,5.13,5.13,0,0,1,.31,1.85v5.09a.54.54,0,0,1-.15.38.5.5,0,0,1-.39.16.51.51,0,0,1-.39-.16.54.54,0,0,1-.15-.38v-5a3.9,3.9,0,0,0-.23-1.35,2.18,2.18,0,0,0-.74-1,2.29,2.29,0,0,0-1.35-.36,3,3,0,0,0-1.41.36,3.13,3.13,0,0,0-1.1,1,2.35,2.35,0,0,0-.43,1.35v5a.54.54,0,0,1-.15.38.5.5,0,0,1-.39.16.49.49,0,0,1-.38-.16.55.55,0,0,1-.16-.38V40a4,4,0,0,0-.21-1.33,2,2,0,0,0-.7-1,2.27,2.27,0,0,0-1.32-.35,3,3,0,0,0-2.45,1.3A2.3,2.3,0,0,0,286,40v5.09a.55.55,0,0,1-.54.54.47.47,0,0,1-.39-.16.54.54,0,0,1-.15-.38V37.07a.55.55,0,0,1,.15-.38.51.51,0,0,1,.39-.16.5.5,0,0,1,.39.16.55.55,0,0,1,.15.38v1.67l-.49.67a2.87,2.87,0,0,1,.36-1.08,3.27,3.27,0,0,1,.78-1,4,4,0,0,1,1.11-.7A3.35,3.35,0,0,1,289.1,36.4Z"/><path class="cls-9" d="M308.73,36.47a.5.5,0,0,1,.38.17.53.53,0,0,1,.16.39v8.1a.55.55,0,0,1-.16.38.52.52,0,0,1-.38.16.51.51,0,0,1-.4-.16.53.53,0,0,1-.14-.38V43l.3-.14a2.1,2.1,0,0,1-.28,1,3.46,3.46,0,0,1-.76,1,3.84,3.84,0,0,1-1.14.73,3.58,3.58,0,0,1-1.43.28,3.86,3.86,0,0,1-2.17-.63,4.31,4.31,0,0,1-1.52-1.72,5.56,5.56,0,0,1-.54-2.47,5.33,5.33,0,0,1,.55-2.48,4.41,4.41,0,0,1,1.52-1.68,3.85,3.85,0,0,1,2.14-.61,3.84,3.84,0,0,1,2.63,1,3.58,3.58,0,0,1,.79,1.07,2.9,2.9,0,0,1,.29,1.25l-.38-.27V37a.55.55,0,0,1,.14-.39A.51.51,0,0,1,308.73,36.47ZM305,44.84a3,3,0,0,0,1.7-.49A3.48,3.48,0,0,0,307.84,43a4.43,4.43,0,0,0,.42-1.95,4.22,4.22,0,0,0-.42-1.91,3.63,3.63,0,0,0-1.16-1.35,2.93,2.93,0,0,0-1.7-.5,3.05,3.05,0,0,0-1.68.48,3.32,3.32,0,0,0-1.17,1.34,4.29,4.29,0,0,0-.42,1.94,4.57,4.57,0,0,0,.41,1.95,3.32,3.32,0,0,0,1.16,1.37A3,3,0,0,0,305,44.84Z"/><path class="cls-9" d="M311.42,36.51h4.19a.46.46,0,0,1,.36.15.53.53,0,0,1,.15.37.47.47,0,0,1-.15.35.49.49,0,0,1-.36.14h-4.19a.5.5,0,0,1-.37-.15.51.51,0,0,1-.15-.36.45.45,0,0,1,.15-.35A.5.5,0,0,1,311.42,36.51ZM313.27,34a.53.53,0,0,1,.39.16.55.55,0,0,1,.15.38v9a1.61,1.61,0,0,0,.14.75.68.68,0,0,0,.35.34,1.31,1.31,0,0,0,.43.08.71.71,0,0,0,.26,0,.75.75,0,0,1,.26,0,.35.35,0,0,1,.28.13.44.44,0,0,1,.12.32.49.49,0,0,1-.29.42,1.25,1.25,0,0,1-.68.17l-.49,0a2,2,0,0,1-.67-.2,1.4,1.4,0,0,1-.56-.61,2.71,2.71,0,0,1-.23-1.24V34.51a.52.52,0,0,1,.16-.38A.53.53,0,0,1,313.27,34Z"/><path class="cls-9" d="M321.63,45.85a4.88,4.88,0,0,1-2.45-.59,4.27,4.27,0,0,1-1.66-1.66,5.05,5.05,0,0,1-.59-2.48,5.3,5.3,0,0,1,.6-2.61,4.44,4.44,0,0,1,1.57-1.67,3.85,3.85,0,0,1,2-.58,4.28,4.28,0,0,1,1.54.28,3.65,3.65,0,0,1,1.32.83,4.09,4.09,0,0,1,.94,1.34,4.56,4.56,0,0,1,.38,1.83.51.51,0,0,1-.16.37.55.55,0,0,1-.38.15h-7.22l-.22-1h7.1l-.24.22V40a2.67,2.67,0,0,0-.56-1.44,2.94,2.94,0,0,0-1.12-.9,3.31,3.31,0,0,0-1.38-.31,3.22,3.22,0,0,0-1.11.22,2.91,2.91,0,0,0-1,.67,3.47,3.47,0,0,0-.75,1.17,4.56,4.56,0,0,0-.29,1.69,4.18,4.18,0,0,0,.44,1.92,3.22,3.22,0,0,0,1.24,1.37,3.59,3.59,0,0,0,2,.5,3.13,3.13,0,0,0,2-.65,4.22,4.22,0,0,0,.64-.62.57.57,0,0,1,.37-.16.42.42,0,0,1,.34.14.45.45,0,0,1,.13.32.49.49,0,0,1-.18.38,5,5,0,0,1-1.4,1.13A4,4,0,0,1,321.63,45.85Z"/><path class="cls-9" d="M328,45.67a.47.47,0,0,1-.39-.16.54.54,0,0,1-.15-.38V37.07a.55.55,0,0,1,.15-.38.53.53,0,0,1,.39-.16.5.5,0,0,1,.39.16.55.55,0,0,1,.15.38v2.7l-.27,0a4.12,4.12,0,0,1,.32-1.25,4.26,4.26,0,0,1,.71-1.14,3.56,3.56,0,0,1,1.07-.85,3,3,0,0,1,1.39-.32,1.51,1.51,0,0,1,.63.13.46.46,0,0,1,.31.45.6.6,0,0,1-.14.41.5.5,0,0,1-.35.14.86.86,0,0,1-.35-.09,1.13,1.13,0,0,0-.49-.09,2,2,0,0,0-1,.3,3.44,3.44,0,0,0-.92.8,4.53,4.53,0,0,0-.66,1.13,3.43,3.43,0,0,0-.24,1.25v4.44a.55.55,0,0,1-.54.54Z"/><path class="cls-9" d="M334.79,35.11a.81.81,0,0,1-.56-.17.63.63,0,0,1-.19-.5v-.18a.62.62,0,0,1,.2-.49.85.85,0,0,1,.57-.18.72.72,0,0,1,.53.18.61.61,0,0,1,.19.49v.18a.63.63,0,0,1-.19.5A.8.8,0,0,1,334.79,35.11Zm.54,10a.55.55,0,0,1-.54.54.49.49,0,0,1-.38-.16.51.51,0,0,1-.16-.38V36.85a.52.52,0,0,1,.16-.38.53.53,0,0,1,.38-.16.53.53,0,0,1,.39.16.55.55,0,0,1,.15.38Z"/><path class="cls-9" d="M345.49,36.47a.51.51,0,0,1,.39.17A.56.56,0,0,1,346,37v8.1a.55.55,0,0,1-.54.54.47.47,0,0,1-.39-.16.54.54,0,0,1-.15-.38V43l.31-.14a2.21,2.21,0,0,1-.28,1,3.5,3.5,0,0,1-.77,1,3.71,3.71,0,0,1-1.14.73,3.58,3.58,0,0,1-1.43.28,3.88,3.88,0,0,1-2.17-.63A4.29,4.29,0,0,1,338,43.5a5.43,5.43,0,0,1-.55-2.47,5.33,5.33,0,0,1,.56-2.48,4.31,4.31,0,0,1,1.51-1.68,3.93,3.93,0,0,1,4.77.4,3.58,3.58,0,0,1,.79,1.07,2.9,2.9,0,0,1,.29,1.25l-.38-.27V37a.56.56,0,0,1,.15-.39A.48.48,0,0,1,345.49,36.47Zm-3.74,8.37a3,3,0,0,0,1.69-.49A3.4,3.4,0,0,0,344.6,43,4.43,4.43,0,0,0,345,41a4.22,4.22,0,0,0-.42-1.91,3.55,3.55,0,0,0-1.16-1.35,2.9,2.9,0,0,0-1.69-.5,3.06,3.06,0,0,0-1.69.48,3.48,3.48,0,0,0-1.17,1.34,4.29,4.29,0,0,0-.42,1.94,4.43,4.43,0,0,0,.42,1.95,3.25,3.25,0,0,0,1.16,1.37A3,3,0,0,0,341.75,44.84Z"/><path class="cls-9" d="M357.78,36.66a.49.49,0,0,1,.37.14.51.51,0,0,1,.14.36.52.52,0,0,1-.14.36.49.49,0,0,1-.37.14h-4.4a.51.51,0,0,1-.36-.15.49.49,0,0,1-.15-.35.47.47,0,0,1,.15-.37.53.53,0,0,1,.36-.13Zm-.68-4.23a3.13,3.13,0,0,1,.59,0,1.44,1.44,0,0,1,.54.19.43.43,0,0,1,.24.4.47.47,0,0,1-.15.35.4.4,0,0,1-.32.16,1.54,1.54,0,0,1-.45-.1,1.56,1.56,0,0,0-.57-.1,1.21,1.21,0,0,0-.65.17,1.13,1.13,0,0,0-.42.49,1.91,1.91,0,0,0-.14.76V45.13a.54.54,0,0,1-.15.38.51.51,0,0,1-.39.16.5.5,0,0,1-.39-.16.54.54,0,0,1-.15-.38V34.8a2.25,2.25,0,0,1,.67-1.76A2.48,2.48,0,0,1,357.1,32.43Z"/><path class="cls-9" d="M363.78,45.85a4.85,4.85,0,0,1-2.44-.59,4.27,4.27,0,0,1-1.66-1.66,5,5,0,0,1-.59-2.48,5.3,5.3,0,0,1,.6-2.61,4.42,4.42,0,0,1,1.56-1.67,3.91,3.91,0,0,1,2.05-.58,4.28,4.28,0,0,1,1.54.28,3.73,3.73,0,0,1,1.32.83,4.24,4.24,0,0,1,.94,1.34,4.56,4.56,0,0,1,.37,1.83.47.47,0,0,1-.16.37.54.54,0,0,1-.38.15h-7.21l-.22-1h7.09l-.23.22V40a2.75,2.75,0,0,0-.56-1.44,3,3,0,0,0-1.12-.9,3.31,3.31,0,0,0-1.38-.31,3.22,3.22,0,0,0-1.11.22,3,3,0,0,0-1,.67,3.61,3.61,0,0,0-.74,1.17,4.56,4.56,0,0,0-.29,1.69,4.17,4.17,0,0,0,.43,1.92,3.29,3.29,0,0,0,1.24,1.37,3.63,3.63,0,0,0,2,.5,3.27,3.27,0,0,0,1.11-.17,3,3,0,0,0,.89-.48,3.8,3.8,0,0,0,.64-.62.59.59,0,0,1,.38-.16.42.42,0,0,1,.33.14.47.47,0,0,1,.14.32.49.49,0,0,1-.18.38,4.9,4.9,0,0,1-1.41,1.13A3.89,3.89,0,0,1,363.78,45.85Z"/><path class="cls-9" d="M373.65,36.26a6.06,6.06,0,0,1,1.58.19,3.38,3.38,0,0,1,1.16.51.88.88,0,0,1,.44.7.54.54,0,0,1-.13.35.39.39,0,0,1-.33.17.58.58,0,0,1-.37-.1,2,2,0,0,1-.26-.25,1.34,1.34,0,0,0-.38-.28,3.45,3.45,0,0,0-.68-.19,4.88,4.88,0,0,0-1-.09,3.34,3.34,0,0,0-1.82.5,3.61,3.61,0,0,0-1.27,1.36,3.85,3.85,0,0,0-.47,1.92,4.11,4.11,0,0,0,.44,1.94,3.33,3.33,0,0,0,1.24,1.36,3.43,3.43,0,0,0,1.85.49,4.1,4.1,0,0,0,1.12-.12,3.38,3.38,0,0,0,.68-.29A1.6,1.6,0,0,0,376,44a.51.51,0,0,1,.4-.19.47.47,0,0,1,.35.14.51.51,0,0,1,.12.35.93.93,0,0,1-.42.64,3.79,3.79,0,0,1-1.16.61,5,5,0,0,1-1.71.26,4.37,4.37,0,0,1-2.35-.63,4.33,4.33,0,0,1-1.59-1.72,5.29,5.29,0,0,1-.56-2.45,5.06,5.06,0,0,1,.57-2.4,4.54,4.54,0,0,1,1.61-1.73A4.33,4.33,0,0,1,373.65,36.26Z"/><path class="cls-9" d="M386.07,36.47a.5.5,0,0,1,.38.17.53.53,0,0,1,.16.39v8.1a.52.52,0,0,1-.17.38.49.49,0,0,1-.37.16.51.51,0,0,1-.4-.16.53.53,0,0,1-.14-.38V43l.3-.14a2.1,2.1,0,0,1-.28,1,3.46,3.46,0,0,1-.76,1,4,4,0,0,1-1.14.73,3.59,3.59,0,0,1-1.44.28,3.85,3.85,0,0,1-2.16-.63,4.31,4.31,0,0,1-1.52-1.72A5.57,5.57,0,0,1,378,41a5.33,5.33,0,0,1,.56-2.48,4.39,4.39,0,0,1,1.51-1.68,4.07,4.07,0,0,1,3.6-.34,3.7,3.7,0,0,1,1.17.74,3.61,3.61,0,0,1,.8,1.07,2.89,2.89,0,0,1,.28,1.25l-.37-.27V37a.55.55,0,0,1,.14-.39A.51.51,0,0,1,386.07,36.47Zm-3.75,8.37a2.94,2.94,0,0,0,1.69-.49A3.42,3.42,0,0,0,385.18,43,4.43,4.43,0,0,0,385.6,41a4.22,4.22,0,0,0-.42-1.91A3.57,3.57,0,0,0,384,37.77a2.88,2.88,0,0,0-1.69-.5,3.05,3.05,0,0,0-1.68.48,3.32,3.32,0,0,0-1.17,1.34,4.29,4.29,0,0,0-.42,1.94,4.42,4.42,0,0,0,.41,1.95,3.32,3.32,0,0,0,1.16,1.37A3,3,0,0,0,382.32,44.84Z"/><path class="cls-9" d="M390.4,45.13a.51.51,0,0,1-.16.38.52.52,0,0,1-.38.16.51.51,0,0,1-.39-.16.54.54,0,0,1-.15-.38V32.89a.52.52,0,0,1,.16-.38.57.57,0,0,1,.38-.16.53.53,0,0,1,.39.16.55.55,0,0,1,.15.38Z"/><path class="cls-9" d="M405.12,36.31a.53.53,0,0,1,.39.16.55.55,0,0,1,.15.38v7.94a4.92,4.92,0,0,1-.57,2.46,3.88,3.88,0,0,1-1.55,1.51,4.71,4.71,0,0,1-2.21.51,5.34,5.34,0,0,1-1.43-.17,3.62,3.62,0,0,1-1.08-.44.87.87,0,0,1-.32-.31.38.38,0,0,1,0-.37.57.57,0,0,1,.28-.34.48.48,0,0,1,.39,0c.2.11.5.24.88.4a3.37,3.37,0,0,0,1.31.23,3.47,3.47,0,0,0,1.72-.41,2.85,2.85,0,0,0,1.13-1.2,4.12,4.12,0,0,0,.39-1.86v-1.3l.13.44a3,3,0,0,1-.77,1,3.59,3.59,0,0,1-1.13.68,3.81,3.81,0,0,1-1.36.24,3.3,3.3,0,0,1-1.79-.44,2.69,2.69,0,0,1-1.05-1.21,4.45,4.45,0,0,1-.34-1.82V36.85a.51.51,0,0,1,.54-.54.53.53,0,0,1,.38.16.52.52,0,0,1,.16.38v5.37a3,3,0,0,0,.55,1.94,2.14,2.14,0,0,0,1.79.68,2.88,2.88,0,0,0,1.42-.36,3.21,3.21,0,0,0,1.06-1,2.19,2.19,0,0,0,.41-1.28V36.85a.57.57,0,0,1,.16-.38A.53.53,0,0,1,405.12,36.31Z"/><path class="cls-9" d="M417.49,45.85a4.91,4.91,0,0,1-2.45-.59,4.18,4.18,0,0,1-1.65-1.66,5,5,0,0,1-.6-2.48,5.19,5.19,0,0,1,.61-2.61A4.42,4.42,0,0,1,415,36.84a3.85,3.85,0,0,1,2-.58,4.28,4.28,0,0,1,1.54.28,3.77,3.77,0,0,1,1.33.83,4.22,4.22,0,0,1,.93,1.34,4.56,4.56,0,0,1,.38,1.83.47.47,0,0,1-.16.37.55.55,0,0,1-.38.15h-7.22l-.21-1h7.09l-.24.22V40a2.74,2.74,0,0,0-.55-1.44,3.05,3.05,0,0,0-1.13-.9A3.31,3.31,0,0,0,417,37.3a3.12,3.12,0,0,0-1.1.22,3,3,0,0,0-1,.67,3.63,3.63,0,0,0-.75,1.17,4.57,4.57,0,0,0-.28,1.69,4.17,4.17,0,0,0,.43,1.92,3.29,3.29,0,0,0,1.24,1.37,3.59,3.59,0,0,0,2,.5,3.13,3.13,0,0,0,2-.65,3.8,3.8,0,0,0,.64-.62.59.59,0,0,1,.38-.16.42.42,0,0,1,.33.14.45.45,0,0,1,.13.32.49.49,0,0,1-.18.38,4.86,4.86,0,0,1-1.4,1.13A4,4,0,0,1,417.49,45.85Z"/><path class="cls-9" d="M422.76,44.22a.74.74,0,0,1-.13-.43.38.38,0,0,1,.22-.33.47.47,0,0,1,.34-.11.57.57,0,0,1,.35.18,3.82,3.82,0,0,0,1.17,1,3.35,3.35,0,0,0,1.65.38,2.88,2.88,0,0,0,1-.17,1.89,1.89,0,0,0,.82-.52,1.41,1.41,0,0,0,0-1.79,2.18,2.18,0,0,0-.84-.54,10,10,0,0,0-1.09-.34c-.4-.11-.8-.23-1.18-.37a4.07,4.07,0,0,1-1-.52,2.48,2.48,0,0,1-.71-.77,2.09,2.09,0,0,1-.27-1.1,2.28,2.28,0,0,1,.41-1.33,2.83,2.83,0,0,1,1.13-.9,3.92,3.92,0,0,1,1.61-.32,4.35,4.35,0,0,1,1,.12,3.79,3.79,0,0,1,1,.38,3.29,3.29,0,0,1,.9.74.54.54,0,0,1,.16.37.49.49,0,0,1-.18.37.57.57,0,0,1-.33.11.39.39,0,0,1-.32-.15,2.77,2.77,0,0,0-1-.73,3.17,3.17,0,0,0-1.27-.26,2.94,2.94,0,0,0-1,.17,2,2,0,0,0-.76.52,1.33,1.33,0,0,0-.31.9,1.26,1.26,0,0,0,.37.84,2.58,2.58,0,0,0,.89.54,9.37,9.37,0,0,0,1.23.4c.38.1.75.21,1.11.34a3.75,3.75,0,0,1,.93.5,2.11,2.11,0,0,1,.65.74,2.41,2.41,0,0,1,.24,1.14,2.22,2.22,0,0,1-.44,1.37,2.87,2.87,0,0,1-1.18.88,4.32,4.32,0,0,1-1.64.3,4.75,4.75,0,0,1-1.88-.38A4.13,4.13,0,0,1,422.76,44.22Z"/><path class="cls-9" d="M19.41,65.85A4.88,4.88,0,0,1,17,65.26,4.27,4.27,0,0,1,15.3,63.6a5.05,5.05,0,0,1-.59-2.48,5.3,5.3,0,0,1,.6-2.61,4.44,4.44,0,0,1,1.57-1.67,3.85,3.85,0,0,1,2-.58,4.28,4.28,0,0,1,1.54.28,3.65,3.65,0,0,1,1.32.83,4.09,4.09,0,0,1,.94,1.34,4.73,4.73,0,0,1,.38,1.83.51.51,0,0,1-.16.37.55.55,0,0,1-.38.15H15.34l-.22-1h7.1l-.24.22V60a2.75,2.75,0,0,0-.56-1.44,2.94,2.94,0,0,0-1.12-.9,3.31,3.31,0,0,0-1.38-.31,3.22,3.22,0,0,0-1.11.22,2.91,2.91,0,0,0-1,.67A3.47,3.47,0,0,0,16,59.36a4.56,4.56,0,0,0-.29,1.69A4.18,4.18,0,0,0,16.19,63a3.22,3.22,0,0,0,1.24,1.37,3.59,3.59,0,0,0,2,.5,3.13,3.13,0,0,0,2-.65,3.71,3.71,0,0,0,.63-.62.62.62,0,0,1,.38-.16.44.44,0,0,1,.34.14.45.45,0,0,1,.13.32.49.49,0,0,1-.18.38,5,5,0,0,1-1.4,1.13A4,4,0,0,1,19.41,65.85Z"/><path class="cls-9" d="M24.75,56.38a.5.5,0,0,1,.43.24l6.37,8.24a.48.48,0,0,1,.13.33.49.49,0,0,1-.16.37.53.53,0,0,1-.38.17.57.57,0,0,1-.45-.24L24.3,57.25a.48.48,0,0,1-.11-.32.51.51,0,0,1,.17-.39A.61.61,0,0,1,24.75,56.38Zm0,9.35a.61.61,0,0,1-.35-.13.42.42,0,0,1-.17-.36.48.48,0,0,1,.13-.34l3-3.91.59.87-2.81,3.65A.5.5,0,0,1,24.75,65.73Zm6.39-9.35a.5.5,0,0,1,.37.14.45.45,0,0,1,.14.33.57.57,0,0,1,0,.18.42.42,0,0,1-.1.17l-3,4-.56-.86,2.77-3.71A.57.57,0,0,1,31.14,56.38Z"/><path class="cls-9" d="M37.84,56.4A3.88,3.88,0,0,1,40,57a4.38,4.38,0,0,1,1.51,1.65,5.62,5.62,0,0,1,0,4.85A4.41,4.41,0,0,1,40,65.19a3.93,3.93,0,0,1-2.14.61,3.58,3.58,0,0,1-1.19-.19,4.37,4.37,0,0,1-1-.51,4,4,0,0,1-.83-.77,3.58,3.58,0,0,1-.57-1l.32-.24v5.6a.54.54,0,0,1-.15.38.5.5,0,0,1-.39.16.51.51,0,0,1-.39-.16.54.54,0,0,1-.15-.38V57a.61.61,0,0,1,.14-.4.51.51,0,0,1,.4-.16.5.5,0,0,1,.39.16.57.57,0,0,1,.15.4v1.94l-.25-.14a3.2,3.2,0,0,1,.53-1,3.48,3.48,0,0,1,.82-.76,3.67,3.67,0,0,1,1-.48A4.59,4.59,0,0,1,37.84,56.4Zm-.09,1a3.1,3.1,0,0,0-1.71.48,3.45,3.45,0,0,0-1.16,1.29,4.12,4.12,0,0,0-.42,1.9A4.22,4.22,0,0,0,34.88,63,3.32,3.32,0,0,0,36,64.31a3.1,3.1,0,0,0,1.71.48,3,3,0,0,0,1.69-.48A3.4,3.4,0,0,0,40.6,63,4.1,4.1,0,0,0,41,61.08a4,4,0,0,0-.43-1.89,3.49,3.49,0,0,0-1.16-1.3A3,3,0,0,0,37.75,57.41Z"/><path class="cls-9" d="M51,56.53a.51.51,0,0,1,.39.16.55.55,0,0,1,.15.38v5.07a3.53,3.53,0,0,1-1,2.72,3.81,3.81,0,0,1-2.72.94,3.77,3.77,0,0,1-2.69-.94,3.56,3.56,0,0,1-1-2.72V57.07a.52.52,0,0,1,.16-.38.49.49,0,0,1,.38-.16.5.5,0,0,1,.39.16.55.55,0,0,1,.15.38v5.07a2.39,2.39,0,0,0,2.61,2.65,2.7,2.7,0,0,0,2-.67,2.61,2.61,0,0,0,.7-2V57.07a.59.59,0,0,1,.14-.38A.51.51,0,0,1,51,56.53Z"/><path class="cls-9" d="M55.29,65.13a.55.55,0,0,1-.54.54.53.53,0,0,1-.39-.16.54.54,0,0,1-.15-.38V52.89a.55.55,0,0,1,.54-.54.53.53,0,0,1,.39.16.55.55,0,0,1,.15.38Z"/><path class="cls-9" d="M57.47,64.22a.76.76,0,0,1-.14-.43.39.39,0,0,1,.23-.33.44.44,0,0,1,.33-.11.52.52,0,0,1,.35.18,4,4,0,0,0,1.18,1,3.3,3.3,0,0,0,1.65.38,2.92,2.92,0,0,0,1-.17,1.89,1.89,0,0,0,.82-.52,1.41,1.41,0,0,0,0-1.79,2.26,2.26,0,0,0-.84-.54A10,10,0,0,0,61,61.57c-.41-.11-.8-.23-1.19-.37a4.17,4.17,0,0,1-1-.52,2.64,2.64,0,0,1-.72-.77,2.09,2.09,0,0,1-.27-1.1,2.22,2.22,0,0,1,.42-1.33,2.8,2.8,0,0,1,1.12-.9,4,4,0,0,1,1.62-.32,4.35,4.35,0,0,1,1,.12,3.72,3.72,0,0,1,1,.38,3,3,0,0,1,.9.74.5.5,0,0,1,.16.37.51.51,0,0,1-.17.37.58.58,0,0,1-.34.11.39.39,0,0,1-.31-.15,2.77,2.77,0,0,0-1-.73,3.22,3.22,0,0,0-1.28-.26,2.88,2.88,0,0,0-1,.17,2,2,0,0,0-.76.52,1.28,1.28,0,0,0-.31.9,1.22,1.22,0,0,0,.37.84,2.53,2.53,0,0,0,.88.54,10.46,10.46,0,0,0,1.23.4,11.12,11.12,0,0,1,1.11.34,3.65,3.65,0,0,1,.94.5,2.22,2.22,0,0,1,.65.74,2.41,2.41,0,0,1,.24,1.14,2.22,2.22,0,0,1-.44,1.37,2.94,2.94,0,0,1-1.18.88,4.32,4.32,0,0,1-1.64.3,4.72,4.72,0,0,1-1.88-.38A4.06,4.06,0,0,1,57.47,64.22Z"/><path class="cls-9" d="M73.78,56.47a.5.5,0,0,1,.38.17.53.53,0,0,1,.16.39v8.1a.52.52,0,0,1-.17.38.49.49,0,0,1-.37.16.51.51,0,0,1-.4-.16.53.53,0,0,1-.14-.38V63l.3-.14a2.1,2.1,0,0,1-.28,1,3.46,3.46,0,0,1-.76,1,4,4,0,0,1-1.14.73,3.59,3.59,0,0,1-1.44.28,3.85,3.85,0,0,1-2.16-.63,4.31,4.31,0,0,1-1.52-1.72A5.57,5.57,0,0,1,65.69,61a5.33,5.33,0,0,1,.56-2.48,4.39,4.39,0,0,1,1.51-1.68,4.07,4.07,0,0,1,3.6-.34,3.7,3.7,0,0,1,1.17.74,3.61,3.61,0,0,1,.8,1.07,2.89,2.89,0,0,1,.28,1.25l-.37-.27V57a.55.55,0,0,1,.14-.39A.51.51,0,0,1,73.78,56.47ZM70,64.84a2.94,2.94,0,0,0,1.69-.49A3.42,3.42,0,0,0,72.89,63,4.43,4.43,0,0,0,73.31,61a4.22,4.22,0,0,0-.42-1.91,3.57,3.57,0,0,0-1.17-1.35,2.88,2.88,0,0,0-1.69-.5,3.05,3.05,0,0,0-1.68.48,3.32,3.32,0,0,0-1.17,1.34A4.29,4.29,0,0,0,66.76,61,4.42,4.42,0,0,0,67.17,63a3.32,3.32,0,0,0,1.16,1.37A3,3,0,0,0,70,64.84Z"/><path class="cls-9" d="M84.52,52.35a.5.5,0,0,1,.39.16.52.52,0,0,1,.15.38V65.13a.55.55,0,0,1-.54.54.48.48,0,0,1-.39-.16.54.54,0,0,1-.15-.38V63l.31-.25a2.34,2.34,0,0,1-.27,1,3.52,3.52,0,0,1-.77,1,3.94,3.94,0,0,1-1.15.75,3.39,3.39,0,0,1-1.43.29,3.84,3.84,0,0,1-2.15-.63A4.42,4.42,0,0,1,77,63.51a5.68,5.68,0,0,1,0-4.92,4.34,4.34,0,0,1,1.51-1.71,3.88,3.88,0,0,1,2.14-.62,3.79,3.79,0,0,1,1.43.27,3.94,3.94,0,0,1,1.17.74,3.33,3.33,0,0,1,.81,1.07,2.77,2.77,0,0,1,.3,1.25L84,59.32V52.89a.55.55,0,0,1,.15-.38A.52.52,0,0,1,84.52,52.35ZM80.78,64.84a2.94,2.94,0,0,0,1.69-.49A3.4,3.4,0,0,0,83.63,63a4.61,4.61,0,0,0,0-3.89,3.4,3.4,0,0,0-1.16-1.35,3.14,3.14,0,0,0-3.37,0,3.35,3.35,0,0,0-1.17,1.35,4.59,4.59,0,0,0,0,3.88,3.31,3.31,0,0,0,1.17,1.36A2.93,2.93,0,0,0,80.78,64.84Z"/><path class="cls-9" d="M95.27,56.47a.51.51,0,0,1,.39.17.56.56,0,0,1,.15.39v8.1a.55.55,0,0,1-.54.54.47.47,0,0,1-.39-.16.54.54,0,0,1-.15-.38V63l.31-.14a2.21,2.21,0,0,1-.28,1,3.5,3.5,0,0,1-.77,1,3.71,3.71,0,0,1-1.14.73,3.54,3.54,0,0,1-1.43.28,3.88,3.88,0,0,1-2.17-.63,4.29,4.29,0,0,1-1.51-1.72A5.43,5.43,0,0,1,87.19,61a5.33,5.33,0,0,1,.56-2.48,4.31,4.31,0,0,1,1.51-1.68,3.93,3.93,0,0,1,4.77.4,3.58,3.58,0,0,1,.79,1.07,2.9,2.9,0,0,1,.29,1.25l-.38-.27V57a.56.56,0,0,1,.15-.39A.48.48,0,0,1,95.27,56.47Zm-3.74,8.37a3,3,0,0,0,1.69-.49A3.4,3.4,0,0,0,94.38,63,4.43,4.43,0,0,0,94.8,61a4.22,4.22,0,0,0-.42-1.91,3.55,3.55,0,0,0-1.16-1.35,2.9,2.9,0,0,0-1.69-.5,3.06,3.06,0,0,0-1.69.48,3.48,3.48,0,0,0-1.17,1.34A4.29,4.29,0,0,0,88.25,61,4.43,4.43,0,0,0,88.67,63a3.25,3.25,0,0,0,1.16,1.37A3,3,0,0,0,91.53,64.84Z"/><path class="cls-9" d="M111,56.47a.51.51,0,0,1,.39.17.56.56,0,0,1,.15.39v8.1a.55.55,0,0,1-.54.54.47.47,0,0,1-.39-.16.54.54,0,0,1-.15-.38V63l.31-.14a2.21,2.21,0,0,1-.28,1,3.5,3.5,0,0,1-.77,1,3.71,3.71,0,0,1-1.14.73,3.54,3.54,0,0,1-1.43.28,3.88,3.88,0,0,1-2.17-.63,4.29,4.29,0,0,1-1.51-1.72,5.43,5.43,0,0,1-.55-2.47,5.33,5.33,0,0,1,.56-2.48A4.31,4.31,0,0,1,105,56.87a3.93,3.93,0,0,1,4.77.4,3.58,3.58,0,0,1,.79,1.07,2.9,2.9,0,0,1,.29,1.25l-.38-.27V57a.56.56,0,0,1,.15-.39A.48.48,0,0,1,111,56.47Zm-3.74,8.37a3,3,0,0,0,1.69-.49A3.4,3.4,0,0,0,110.13,63a4.43,4.43,0,0,0,.42-1.95,4.22,4.22,0,0,0-.42-1.91A3.55,3.55,0,0,0,109,57.77a2.9,2.9,0,0,0-1.69-.5,3.06,3.06,0,0,0-1.69.48,3.48,3.48,0,0,0-1.17,1.34A4.29,4.29,0,0,0,104,61a4.43,4.43,0,0,0,.42,1.95,3.25,3.25,0,0,0,1.16,1.37A3,3,0,0,0,107.28,64.84Z"/><path class="cls-9" d="M115.36,65.13a.52.52,0,0,1-.17.38.49.49,0,0,1-.37.16.5.5,0,0,1-.39-.16.54.54,0,0,1-.15-.38V52.89a.52.52,0,0,1,.16-.38.55.55,0,0,1,.38-.16.53.53,0,0,1,.38.16.57.57,0,0,1,.16.38Z"/><path class="cls-9" d="M127.31,65.85a4.88,4.88,0,0,1-2.45-.59,4.27,4.27,0,0,1-1.66-1.66,5.05,5.05,0,0,1-.59-2.48,5.3,5.3,0,0,1,.6-2.61,4.44,4.44,0,0,1,1.57-1.67,3.85,3.85,0,0,1,2-.58,4.28,4.28,0,0,1,1.54.28,3.65,3.65,0,0,1,1.32.83,4.09,4.09,0,0,1,.94,1.34,4.73,4.73,0,0,1,.38,1.83.51.51,0,0,1-.16.37.55.55,0,0,1-.38.15h-7.22l-.22-1h7.1l-.24.22V60a2.67,2.67,0,0,0-.56-1.44,2.94,2.94,0,0,0-1.12-.9,3.31,3.31,0,0,0-1.38-.31,3.22,3.22,0,0,0-1.11.22,2.91,2.91,0,0,0-1,.67,3.47,3.47,0,0,0-.75,1.17,4.56,4.56,0,0,0-.29,1.69,4.18,4.18,0,0,0,.44,1.92,3.22,3.22,0,0,0,1.24,1.37,3.59,3.59,0,0,0,2,.5,3.13,3.13,0,0,0,2-.65,4.22,4.22,0,0,0,.64-.62.57.57,0,0,1,.37-.16.44.44,0,0,1,.34.14.45.45,0,0,1,.13.32.49.49,0,0,1-.18.38,5,5,0,0,1-1.4,1.13A4,4,0,0,1,127.31,65.85Z"/><path class="cls-9" d="M132.65,56.38a.49.49,0,0,1,.43.24l6.37,8.24a.48.48,0,0,1,.13.33.49.49,0,0,1-.16.37.52.52,0,0,1-.38.17.57.57,0,0,1-.45-.24l-6.39-8.24a.48.48,0,0,1-.11-.32.51.51,0,0,1,.17-.39A.61.61,0,0,1,132.65,56.38Zm0,9.35a.61.61,0,0,1-.35-.13.42.42,0,0,1-.17-.36.48.48,0,0,1,.13-.34l3-3.91.59.87-2.81,3.65A.49.49,0,0,1,132.65,65.73ZM139,56.38a.5.5,0,0,1,.37.14.45.45,0,0,1,.14.33.57.57,0,0,1,0,.18.42.42,0,0,1-.1.17l-3,4-.56-.86,2.77-3.71A.57.57,0,0,1,139,56.38Z"/><path class="cls-9" d="M141.31,56.51h4.2a.49.49,0,0,1,.36.15A.57.57,0,0,1,146,57a.5.5,0,0,1-.14.35.52.52,0,0,1-.36.14h-4.2a.53.53,0,0,1-.37-.15.51.51,0,0,1-.15-.36.45.45,0,0,1,.15-.35A.53.53,0,0,1,141.31,56.51ZM143.17,54a.53.53,0,0,1,.38.16.52.52,0,0,1,.16.38v9a1.63,1.63,0,0,0,.13.75.72.72,0,0,0,.35.34,1.35,1.35,0,0,0,.43.08.76.76,0,0,0,.27,0,.68.68,0,0,1,.26,0,.37.37,0,0,1,.28.13.48.48,0,0,1,.11.32.47.47,0,0,1-.29.42,1.25,1.25,0,0,1-.68.17l-.49,0a2,2,0,0,1-.66-.2,1.36,1.36,0,0,1-.57-.61,2.72,2.72,0,0,1-.22-1.24V54.51a.55.55,0,0,1,.15-.38A.53.53,0,0,1,143.17,54Z"/><path class="cls-9" d="M151.52,65.85a4.91,4.91,0,0,1-2.45-.59,4.25,4.25,0,0,1-1.65-1.66,5,5,0,0,1-.6-2.48,5.19,5.19,0,0,1,.61-2.61A4.42,4.42,0,0,1,149,56.84a3.91,3.91,0,0,1,2-.58,4.23,4.23,0,0,1,1.53.28,3.77,3.77,0,0,1,1.33.83,4.22,4.22,0,0,1,.93,1.34,4.56,4.56,0,0,1,.38,1.83.47.47,0,0,1-.16.37.54.54,0,0,1-.38.15h-7.22l-.21-1h7.09l-.23.22V60a2.75,2.75,0,0,0-.56-1.44,3,3,0,0,0-1.13-.9,3.06,3.06,0,0,0-2.48-.09,3,3,0,0,0-1,.67,3.61,3.61,0,0,0-.74,1.17,4.37,4.37,0,0,0-.29,1.69A4.17,4.17,0,0,0,148.3,63a3.29,3.29,0,0,0,1.24,1.37,3.62,3.62,0,0,0,2,.5,3.33,3.33,0,0,0,1.12-.17,3.16,3.16,0,0,0,.89-.48,3.8,3.8,0,0,0,.64-.62.59.59,0,0,1,.38-.16.42.42,0,0,1,.33.14.47.47,0,0,1,.14.32.49.49,0,0,1-.18.38,4.9,4.9,0,0,1-1.41,1.13A3.89,3.89,0,0,1,151.52,65.85Z"/><path class="cls-9" d="M157.86,65.67a.51.51,0,0,1-.4-.16.53.53,0,0,1-.14-.38V57.07a.55.55,0,0,1,.15-.38.5.5,0,0,1,.39-.16.49.49,0,0,1,.38.16.52.52,0,0,1,.16.38v2.7l-.27,0a4.09,4.09,0,0,1,.31-1.25,4.26,4.26,0,0,1,.71-1.14,3.69,3.69,0,0,1,1.07-.85,3.07,3.07,0,0,1,1.4-.32,1.58,1.58,0,0,1,.63.13.46.46,0,0,1,.3.45.55.55,0,0,1-.14.41.49.49,0,0,1-.34.14.79.79,0,0,1-.35-.09,1.18,1.18,0,0,0-.5-.09,2,2,0,0,0-1,.3,3.4,3.4,0,0,0-.91.8,4,4,0,0,0-.66,1.13,3.43,3.43,0,0,0-.24,1.25v4.44a.52.52,0,0,1-.17.38A.49.49,0,0,1,157.86,65.67Z"/><path class="cls-9" d="M164.69,55.11a.84.84,0,0,1-.57-.17.63.63,0,0,1-.19-.5v-.18a.59.59,0,0,1,.21-.49.8.8,0,0,1,.56-.18.72.72,0,0,1,.53.18.61.61,0,0,1,.19.49v.18a.63.63,0,0,1-.19.5A.78.78,0,0,1,164.69,55.11Zm.54,10a.52.52,0,0,1-.17.38.49.49,0,0,1-.37.16.5.5,0,0,1-.39-.16.54.54,0,0,1-.15-.38V56.85a.55.55,0,0,1,.15-.38.53.53,0,0,1,.39-.16.53.53,0,0,1,.38.16.52.52,0,0,1,.16.38Z"/><path class="cls-9" d="M176.41,61.06a5,5,0,0,1-.6,2.46,4.47,4.47,0,0,1-1.63,1.71,4.33,4.33,0,0,1-2.32.62,4.4,4.4,0,0,1-4-2.33,5.27,5.27,0,0,1,0-4.92,4.54,4.54,0,0,1,1.63-1.71,4.39,4.39,0,0,1,2.32-.63,4.34,4.34,0,0,1,2.32.63,4.62,4.62,0,0,1,1.63,1.71A5,5,0,0,1,176.41,61.06Zm-1.08,0a4.12,4.12,0,0,0-.45-2,3.49,3.49,0,0,0-1.23-1.35,3.5,3.5,0,0,0-3.57,0,3.59,3.59,0,0,0-1.24,1.35,4.13,4.13,0,0,0-.46,2,4.07,4.07,0,0,0,.46,1.95,3.64,3.64,0,0,0,1.24,1.34,3.5,3.5,0,0,0,3.57,0A3.53,3.53,0,0,0,174.88,63,4.07,4.07,0,0,0,175.33,61.06Z"/><path class="cls-9" d="M179.07,65.67a.51.51,0,0,1-.4-.16.57.57,0,0,1-.14-.38V57.07a.55.55,0,0,1,.15-.38.5.5,0,0,1,.39-.16.49.49,0,0,1,.38.16.52.52,0,0,1,.16.38v2.7l-.27,0a4.09,4.09,0,0,1,.31-1.25,4.53,4.53,0,0,1,.71-1.14,3.6,3.6,0,0,1,1.08-.85,3,3,0,0,1,1.39-.32,1.51,1.51,0,0,1,.63.13.47.47,0,0,1,.31.45.56.56,0,0,1-.15.41.48.48,0,0,1-.34.14.83.83,0,0,1-.35-.09,1.18,1.18,0,0,0-.5-.09,1.93,1.93,0,0,0-1,.3,3.3,3.3,0,0,0-.92.8,4,4,0,0,0-.66,1.13,3.43,3.43,0,0,0-.24,1.25v4.44a.55.55,0,0,1-.16.38A.52.52,0,0,1,179.07,65.67Z"/><path class="cls-9" d="M197.84,52.35a.5.5,0,0,1,.39.16.52.52,0,0,1,.15.38V65.13a.55.55,0,0,1-.54.54.47.47,0,0,1-.39-.16.54.54,0,0,1-.15-.38V63l.31-.25a2.34,2.34,0,0,1-.27,1,3.52,3.52,0,0,1-.77,1,3.94,3.94,0,0,1-1.15.75,3.39,3.39,0,0,1-1.43.29,3.84,3.84,0,0,1-2.15-.63,4.42,4.42,0,0,1-1.52-1.71,5.68,5.68,0,0,1,0-4.92,4.26,4.26,0,0,1,1.51-1.71,3.88,3.88,0,0,1,2.14-.62,3.7,3.7,0,0,1,1.42.27,3.87,3.87,0,0,1,1.18.74,3.48,3.48,0,0,1,.81,1.07,2.77,2.77,0,0,1,.3,1.25l-.38-.27V52.89a.55.55,0,0,1,.15-.38A.5.5,0,0,1,197.84,52.35ZM194.1,64.84a3,3,0,0,0,1.69-.49A3.4,3.4,0,0,0,197,63a4.71,4.71,0,0,0,0-3.89,3.4,3.4,0,0,0-1.16-1.35,3.16,3.16,0,0,0-3.38,0,3.51,3.51,0,0,0-1.17,1.35,4.69,4.69,0,0,0,0,3.88,3.47,3.47,0,0,0,1.17,1.36A3,3,0,0,0,194.1,64.84Z"/><path class="cls-9" d="M205.21,65.85a4.88,4.88,0,0,1-2.45-.59,4.27,4.27,0,0,1-1.66-1.66,5.05,5.05,0,0,1-.59-2.48,5.3,5.3,0,0,1,.6-2.61,4.36,4.36,0,0,1,1.57-1.67,3.85,3.85,0,0,1,2-.58,4.28,4.28,0,0,1,1.54.28,3.65,3.65,0,0,1,1.32.83,4.09,4.09,0,0,1,.94,1.34,4.73,4.73,0,0,1,.38,1.83.48.48,0,0,1-.17.37.51.51,0,0,1-.37.15h-7.22l-.22-1H208l-.23.22V60a2.75,2.75,0,0,0-.56-1.44,3,3,0,0,0-1.12-.9,3.31,3.31,0,0,0-1.38-.31,3.22,3.22,0,0,0-1.11.22,2.83,2.83,0,0,0-1,.67,3.47,3.47,0,0,0-.75,1.17,4.56,4.56,0,0,0-.29,1.69A4.3,4.3,0,0,0,202,63a3.31,3.31,0,0,0,1.25,1.37,3.59,3.59,0,0,0,2,.5,3.23,3.23,0,0,0,1.11-.17,3,3,0,0,0,.89-.48,3.45,3.45,0,0,0,.64-.62.62.62,0,0,1,.38-.16.42.42,0,0,1,.33.14.47.47,0,0,1,.14.32.49.49,0,0,1-.18.38,5,5,0,0,1-1.4,1.13A4,4,0,0,1,205.21,65.85Z"/><path class="cls-9" d="M212.13,65.13a.55.55,0,0,1-.54.54.49.49,0,0,1-.38-.16.55.55,0,0,1-.16-.38V52.89a.53.53,0,0,1,.17-.38.52.52,0,0,1,.37-.16.53.53,0,0,1,.39.16.55.55,0,0,1,.15.38Z"/><path class="cls-9" d="M224,56.26a6.06,6.06,0,0,1,1.58.19,3.38,3.38,0,0,1,1.16.51.88.88,0,0,1,.44.7A.54.54,0,0,1,227,58a.39.39,0,0,1-.33.17.58.58,0,0,1-.37-.1,2,2,0,0,1-.26-.25,1.34,1.34,0,0,0-.38-.28,3.45,3.45,0,0,0-.68-.19,4.88,4.88,0,0,0-1-.09,3.34,3.34,0,0,0-1.82.5,3.61,3.61,0,0,0-1.27,1.36,3.85,3.85,0,0,0-.47,1.92,4.11,4.11,0,0,0,.44,1.94,3.33,3.33,0,0,0,1.24,1.36,3.43,3.43,0,0,0,1.85.49,4.1,4.1,0,0,0,1.12-.12,3.38,3.38,0,0,0,.68-.29,1.6,1.6,0,0,0,.51-.39.51.51,0,0,1,.4-.19.47.47,0,0,1,.35.14.51.51,0,0,1,.12.35.93.93,0,0,1-.42.64,3.79,3.79,0,0,1-1.16.61,5,5,0,0,1-1.71.26,4.37,4.37,0,0,1-2.35-.63A4.33,4.33,0,0,1,220,63.5a5.29,5.29,0,0,1-.56-2.45,5.06,5.06,0,0,1,.57-2.4,4.54,4.54,0,0,1,1.61-1.73A4.33,4.33,0,0,1,224,56.26Z"/><path class="cls-9" d="M235.86,56.53a.49.49,0,0,1,.38.16.57.57,0,0,1,.16.38v5.07a3.53,3.53,0,0,1-1,2.72,3.81,3.81,0,0,1-2.72.94,3.74,3.74,0,0,1-2.69-.94,3.53,3.53,0,0,1-1-2.72V57.07a.55.55,0,0,1,.15-.38.5.5,0,0,1,.39-.16.51.51,0,0,1,.39.16.55.55,0,0,1,.15.38v5.07a2.75,2.75,0,0,0,4.55,2,2.61,2.61,0,0,0,.7-2V57.07a.55.55,0,0,1,.15-.38A.51.51,0,0,1,235.86,56.53Z"/><path class="cls-9" d="M243.16,65.85a4.88,4.88,0,0,1-2.45-.59,4.18,4.18,0,0,1-1.65-1.66,5,5,0,0,1-.6-2.48,5.3,5.3,0,0,1,.6-2.61,4.52,4.52,0,0,1,1.57-1.67,3.85,3.85,0,0,1,2-.58,4.28,4.28,0,0,1,1.54.28,3.65,3.65,0,0,1,1.32.83,4.09,4.09,0,0,1,.94,1.34,4.56,4.56,0,0,1,.38,1.83.51.51,0,0,1-.16.37.55.55,0,0,1-.38.15h-7.22l-.22-1H246l-.24.22V60a2.74,2.74,0,0,0-.55-1.44,3.05,3.05,0,0,0-1.13-.9,3.31,3.31,0,0,0-1.38-.31,3.12,3.12,0,0,0-1.1.22,3,3,0,0,0-1,.67,3.47,3.47,0,0,0-.75,1.17,4.56,4.56,0,0,0-.29,1.69,4.18,4.18,0,0,0,.44,1.92,3.29,3.29,0,0,0,1.24,1.37,3.59,3.59,0,0,0,2,.5,3.13,3.13,0,0,0,2-.65,3.8,3.8,0,0,0,.64-.62.57.57,0,0,1,.37-.16.42.42,0,0,1,.34.14.45.45,0,0,1,.13.32.49.49,0,0,1-.18.38,5,5,0,0,1-1.4,1.13A4,4,0,0,1,243.16,65.85Z"/><path class="cls-9" d="M249.49,65.67a.47.47,0,0,1-.39-.16.54.54,0,0,1-.15-.38V57.07a.52.52,0,0,1,.16-.38.49.49,0,0,1,.38-.16.5.5,0,0,1,.39.16.55.55,0,0,1,.15.38v2.7l-.27,0a4.12,4.12,0,0,1,.32-1.25,4.26,4.26,0,0,1,.71-1.14,3.69,3.69,0,0,1,1.07-.85,3,3,0,0,1,1.39-.32,1.51,1.51,0,0,1,.63.13.46.46,0,0,1,.31.45.6.6,0,0,1-.14.41.5.5,0,0,1-.35.14.86.86,0,0,1-.35-.09,1.13,1.13,0,0,0-.49-.09,2,2,0,0,0-1,.3,3.6,3.6,0,0,0-.92.8,4.21,4.21,0,0,0-.65,1.13,3.24,3.24,0,0,0-.25,1.25v4.44a.55.55,0,0,1-.54.54Z"/><path class="cls-9" d="M260.18,56.4a3.87,3.87,0,0,1,2.16.61,4.3,4.3,0,0,1,1.51,1.65,5.53,5.53,0,0,1,0,4.85,4.39,4.39,0,0,1-1.51,1.68,4,4,0,0,1-2.15.61,3.58,3.58,0,0,1-1.19-.19,4.37,4.37,0,0,1-1-.51,4,4,0,0,1-.83-.77,3.58,3.58,0,0,1-.57-1l.32-.24v5.6a.54.54,0,0,1-.15.38.5.5,0,0,1-.39.16.53.53,0,0,1-.39-.16.54.54,0,0,1-.15-.38V57a.57.57,0,0,1,.15-.4.47.47,0,0,1,.39-.16.5.5,0,0,1,.39.16.57.57,0,0,1,.15.4v1.94l-.25-.14a3.2,3.2,0,0,1,.53-1A3.48,3.48,0,0,1,258,57a3.6,3.6,0,0,1,1-.48A4.47,4.47,0,0,1,260.18,56.4Zm-.09,1a3.06,3.06,0,0,0-1.71.48,3.39,3.39,0,0,0-1.17,1.29,4.12,4.12,0,0,0-.42,1.9,4.22,4.22,0,0,0,.42,1.91,3.27,3.27,0,0,0,1.17,1.32,3.06,3.06,0,0,0,1.71.48,3,3,0,0,0,1.68-.48A3.4,3.4,0,0,0,262.93,63a4.1,4.1,0,0,0,.43-1.91,4,4,0,0,0-.43-1.89,3.49,3.49,0,0,0-1.16-1.3A3,3,0,0,0,260.09,57.41Z"/><path class="cls-9" d="M275.1,61.06a4.88,4.88,0,0,1-.61,2.46,4.4,4.4,0,0,1-1.63,1.71,4.63,4.63,0,0,1-4.63,0,4.42,4.42,0,0,1-1.64-1.71,5.34,5.34,0,0,1,0-4.92,4.57,4.57,0,0,1,1.64-1.71,4.57,4.57,0,0,1,4.63,0,4.54,4.54,0,0,1,1.63,1.71A4.88,4.88,0,0,1,275.1,61.06Zm-1.08,0a4.12,4.12,0,0,0-.45-2,3.44,3.44,0,0,0-1.24-1.35,3.48,3.48,0,0,0-3.56,0,3.51,3.51,0,0,0-1.24,1.35,4,4,0,0,0-.46,2,4,4,0,0,0,.46,1.95,3.56,3.56,0,0,0,1.24,1.34,3.48,3.48,0,0,0,3.56,0A3.48,3.48,0,0,0,273.57,63,4.07,4.07,0,0,0,274,61.06Z"/><path class="cls-9" d="M277.25,65.67a.55.55,0,0,1-.47-.2.73.73,0,0,1-.16-.5v-.38a.72.72,0,0,1,.16-.5.6.6,0,0,1,.47-.18h.12a.6.6,0,0,1,.47.18.72.72,0,0,1,.16.5V65a.73.73,0,0,1-.16.5.55.55,0,0,1-.47.2Z"/></g></g></g></svg>