<svg xmlns="http://www.w3.org/2000/svg" viewBox="0 0 504.03 95.86"><defs><style>.cls-1{fill:#fff;}.cls-2{fill:#fbb03b;}</style></defs><title>lab03-bxA3</title><g id="Layer_2" data-name="Layer 2"><g id="Layer_1-2" data-name="Layer 1"><rect class="cls-1" x="1.24" y="1.24" width="501.56" height="93.38" rx="13.1" ry="13.1"/><path class="cls-2" d="M489.74,95.86h-6.61V93.38h6.56Zm-13.17,0H470V93.38h6.55Zm-13.11,0H456.9V93.38h6.56Zm-13.12,0h-6.55V93.38h6.55Zm-13.11,0h-6.56V93.38h6.56Zm-13.12,0h-6.56V93.38h6.56Zm-13.11,0h-6.56V93.38H411Zm-13.12,0h-6.56V93.38h6.56Zm-13.12,0h-6.55V93.38h6.55Zm-13.11,0h-6.56V93.38h6.56Zm-13.12,0H352V93.38h6.56Zm-13.11,0h-6.56V93.38h6.56Zm-13.12,0h-6.56V93.38h6.56Zm-13.12,0h-6.55V93.38h6.55Zm-13.11,0h-6.56V93.38h6.56Zm-13.12,0h-6.56V93.38H293Zm-13.11,0h-6.56V93.38h6.56Zm-13.12,0h-6.56V93.38h6.56Zm-13.11,0h-6.56V93.38h6.56Zm-13.12,0h-6.56V93.38h6.56Zm-13.12,0h-6.55V93.38h6.55Zm-13.11,0H207.7V93.38h6.56Zm-13.12,0h-6.56V93.38h6.56Zm-13.11,0h-6.56V93.38H188Zm-13.12,0h-6.56V93.38h6.56Zm-13.12,0h-6.55V93.38h6.55Zm-13.11,0h-6.56V93.38h6.56Zm-13.12,0H129V93.38h6.56Zm-13.11,0h-6.56V93.38h6.56Zm-13.12,0h-6.56V93.38h6.56Zm-13.12,0H89.66V93.38h6.55Zm-13.11,0H76.54V93.38H83.1ZM70,95.86H63.42V93.38H70Zm-13.11,0H50.31V93.38h6.56Zm-13.12,0H37.19V93.38h6.56Zm-13.12,0H24.08V93.38h6.55Zm-13.11,0H14.34a14.09,14.09,0,0,1-3.66-.48L11.32,93a11.8,11.8,0,0,0,3,.39h3.18Zm479.1-1.8-1.2-2.16a12.07,12.07,0,0,0,4.28-4l2.09,1.33A14.51,14.51,0,0,1,496.62,94.06ZM4.49,91.91a14.41,14.41,0,0,1-3.8-6l2.36-.76a11.91,11.91,0,0,0,3.14,5ZM504,82.45l-2.47-.16c0-.26,0-.51,0-.77V75.81H504v5.71Q504,82,504,82.45ZM2.47,79H0V72.48H2.47ZM504,69.25h-2.47V62.7H504ZM2.47,65.93H0V59.37H2.47ZM504,56.14h-2.47V49.58H504ZM2.47,52.81H0V46.25H2.47ZM504,43h-2.47V36.46H504ZM2.47,39.69H0V33.14H2.47ZM504,29.91h-2.47V23.35H504ZM2.47,26.58H0V20H2.47ZM504,16.79h-2.47V14.34a12,12,0,0,0-.58-3.66l2.35-.76a14.09,14.09,0,0,1,.7,4.42ZM2.5,13.55,0,13.38A14.24,14.24,0,0,1,2.26,6.64L4.34,8A11.81,11.81,0,0,0,2.5,13.55ZM497.82,5.72a11.87,11.87,0,0,0-5.13-2.86l.63-2.39a14.43,14.43,0,0,1,6.2,3.45ZM8.63,4,7.44,1.78A14.24,14.24,0,0,1,14.31,0V2.47A11.91,11.91,0,0,0,8.63,4ZM486.49,2.47h-6.56V0h6.56Zm-13.12,0h-6.56V0h6.56Zm-13.12,0H453.7V0h6.55Zm-13.11,0h-6.56V0h6.56ZM434,2.47h-6.56V0H434Zm-13.11,0h-6.56V0h6.56Zm-13.12,0h-6.56V0h6.56Zm-13.12,0h-6.55V0h6.55Zm-13.11,0H375V0h6.56Zm-13.12,0h-6.56V0h6.56Zm-13.11,0h-6.56V0h6.56Zm-13.12,0h-6.56V0h6.56Zm-13.11,0h-6.56V0h6.56ZM316,2.47h-6.56V0H316Zm-13.12,0h-6.55V0h6.55Zm-13.11,0h-6.56V0h6.56Zm-13.12,0h-6.56V0h6.56Zm-13.11,0H257V0h6.56Zm-13.12,0h-6.56V0h6.56Zm-13.12,0h-6.55V0h6.55Zm-13.11,0h-6.56V0h6.56Zm-13.12,0H204.5V0h6.55Zm-13.11,0h-6.56V0h6.56Zm-13.12,0h-6.56V0h6.56Zm-13.11,0h-6.56V0h6.56Zm-13.12,0H152V0h6.56Zm-13.12,0h-6.55V0h6.55Zm-13.11,0H125.8V0h6.56Zm-13.12,0h-6.56V0h6.56Zm-13.11,0H99.57V0h6.56ZM93,2.47H86.45V0H93Zm-13.12,0H73.34V0h6.55Zm-13.11,0H60.22V0h6.56Zm-13.12,0H47.1V0h6.56Zm-13.11,0H34V0h6.56Zm-13.12,0H20.87V0h6.56Z"/><path class="cls-2" d="M24.37,54.53a2.07,2.07,0,0,1,.53.08,2.13,2.13,0,0,1,.63.33,5.19,5.19,0,0,0,1.1.62,3.71,3.71,0,0,0,1.47.27,3.17,3.17,0,0,0,1.58-.42,3.58,3.58,0,0,0,1.23-1.19,3.42,3.42,0,0,0,.48-1.85,3.17,3.17,0,0,0-.42-1.7,2.73,2.73,0,0,0-1.1-1,3.25,3.25,0,0,0-1.47-.35,3.87,3.87,0,0,0-1,.11l-.76.23a2.68,2.68,0,0,1-.85.12,1.12,1.12,0,0,1-.95-.43,1.6,1.6,0,0,1-.34-1,1.47,1.47,0,0,1,.15-.67A3,3,0,0,1,25.1,47l4.75-5.18.73.62H23.94A1.5,1.5,0,0,1,22.86,42a1.46,1.46,0,0,1-.43-1.08,1.37,1.37,0,0,1,.43-1,1.49,1.49,0,0,1,1.08-.42H32.2a1.61,1.61,0,0,1,1.26.46,1.64,1.64,0,0,1,.42,1.16,1.35,1.35,0,0,1-.18.67,2.48,2.48,0,0,1-.47.62l-4.78,5.27-.73-.92a3.92,3.92,0,0,1,.82-.24,4.86,4.86,0,0,1,.88-.11,4.77,4.77,0,0,1,2.77.82A5.46,5.46,0,0,1,34,49.31a6.9,6.9,0,0,1-.26,6.27,5.84,5.84,0,0,1-2.51,2.25,8.62,8.62,0,0,1-3.78.78,8.23,8.23,0,0,1-2-.24,6.61,6.61,0,0,1-1.67-.65A1.85,1.85,0,0,1,23,57a1.68,1.68,0,0,1-.2-.74,1.9,1.9,0,0,1,.44-1.18A1.41,1.41,0,0,1,24.37,54.53Z"/></g></g></svg>