<svg xmlns="http://www.w3.org/2000/svg" viewBox="0 0 336.47 105.85"><defs><style>.cls-1{fill:#00a99d;}.cls-2{fill:#fff;}</style></defs><title>lab03-indicacion</title><g id="Layer_2" data-name="Layer 2"><g id="Layer_1-2" data-name="Layer 1"><rect class="cls-1" width="336.47" height="88.22" rx="6.45" ry="6.45"/><path class="cls-2" d="M36.22,21.81,30.88,35.1a.71.71,0,0,1-.24.33.57.57,0,0,1-.36.11.6.6,0,0,1-.46-.16.66.66,0,0,1-.17-.41.48.48,0,0,1,0-.26l5.81-14.22a.73.73,0,0,1,.27-.34.81.81,0,0,1,.39-.1.58.58,0,0,1,.38.13.76.76,0,0,1,.25.31l5.79,14.15a.82.82,0,0,1,0,.26.59.59,0,0,1-.19.48.72.72,0,0,1-.47.16.64.64,0,0,1-.38-.12.72.72,0,0,1-.25-.32L35.83,21.73Zm-4.07,9.27.55-1.3h6.82l.27,1.3Z"/><path class="cls-2" d="M45.38,35.52a.63.63,0,0,1-.48-.2.65.65,0,0,1-.18-.46V25a.68.68,0,0,1,.19-.46.66.66,0,0,1,1,0A.67.67,0,0,1,46,25v3.3l-.33.07a5.39,5.39,0,0,1,.39-1.53,5.27,5.27,0,0,1,.87-1.4,4.4,4.4,0,0,1,1.31-1A3.64,3.64,0,0,1,50,24a1.88,1.88,0,0,1,.77.17.56.56,0,0,1,.38.54.65.65,0,0,1-.18.5.58.58,0,0,1-.42.18,1.09,1.09,0,0,1-.43-.11,1.43,1.43,0,0,0-.6-.11,2.42,2.42,0,0,0-1.23.36,4.31,4.31,0,0,0-1.13,1,5.25,5.25,0,0,0-.8,1.38,4.09,4.09,0,0,0-.3,1.53v5.43a.62.62,0,0,1-.19.46A.67.67,0,0,1,45.38,35.52Z"/><path class="cls-2" d="M53.72,35.52a.63.63,0,0,1-.48-.2.65.65,0,0,1-.18-.46V25a.63.63,0,0,1,.19-.46.65.65,0,0,1,.94,0,.63.63,0,0,1,.19.46v3.3l-.33.07a5.07,5.07,0,0,1,.39-1.53,5.27,5.27,0,0,1,.87-1.4,4.36,4.36,0,0,1,1.3-1,3.72,3.72,0,0,1,1.71-.4,1.91,1.91,0,0,1,.77.17.55.55,0,0,1,.37.54.65.65,0,0,1-.17.5.58.58,0,0,1-.42.18,1.09,1.09,0,0,1-.43-.11,1.43,1.43,0,0,0-.6-.11,2.42,2.42,0,0,0-1.23.36,4.16,4.16,0,0,0-1.13,1,5,5,0,0,0-.8,1.38,4.09,4.09,0,0,0-.3,1.53v5.43a.62.62,0,0,1-.19.46A.67.67,0,0,1,53.72,35.52Z"/><path class="cls-2" d="M70.08,24.28a.62.62,0,0,1,.48.2.68.68,0,0,1,.18.48v9.9a.59.59,0,0,1-.2.46.65.65,0,0,1-.94,0,.65.65,0,0,1-.18-.46V32.24l.38-.17a2.74,2.74,0,0,1-.34,1.25,4.52,4.52,0,0,1-.94,1.19,5,5,0,0,1-1.4.89,4.34,4.34,0,0,1-1.75.34A4.78,4.78,0,0,1,62.72,35a5.26,5.26,0,0,1-1.84-2.11,6.64,6.64,0,0,1-.68-3,6.38,6.38,0,0,1,.69-3,5.33,5.33,0,0,1,1.84-2.06,4.94,4.94,0,0,1,4.39-.42,4.47,4.47,0,0,1,1.44.91,4.06,4.06,0,0,1,1,1.3,3.49,3.49,0,0,1,.35,1.53l-.46-.33V25a.68.68,0,0,1,.18-.48A.59.59,0,0,1,70.08,24.28ZM65.51,34.51a3.62,3.62,0,0,0,2.07-.61A4.07,4.07,0,0,0,69,32.23a5.34,5.34,0,0,0,.52-2.39A5.08,5.08,0,0,0,69,27.51a4.21,4.21,0,0,0-1.41-1.65,3.85,3.85,0,0,0-4.13,0A4,4,0,0,0,62,27.47a5.3,5.3,0,0,0-.52,2.37A5.47,5.47,0,0,0,62,32.23a4,4,0,0,0,1.42,1.67A3.63,3.63,0,0,0,65.51,34.51Z"/><path class="cls-2" d="M73.29,33.74a.9.9,0,0,1-.16-.52.49.49,0,0,1,.27-.41.56.56,0,0,1,.41-.13.74.74,0,0,1,.43.22,4.4,4.4,0,0,0,1.44,1.24,4,4,0,0,0,2,.48,3.68,3.68,0,0,0,1.22-.21,2.3,2.3,0,0,0,1-.64,1.7,1.7,0,0,0,0-2.19,2.65,2.65,0,0,0-1-.66,12.19,12.19,0,0,0-1.33-.42c-.5-.13-1-.28-1.45-.45a5.07,5.07,0,0,1-1.25-.64,3.06,3.06,0,0,1-.86-.93,2.56,2.56,0,0,1-.33-1.34,2.76,2.76,0,0,1,.5-1.63,3.37,3.37,0,0,1,1.38-1.1,4.75,4.75,0,0,1,2-.4,5.15,5.15,0,0,1,1.18.15,4.7,4.7,0,0,1,1.26.47,3.76,3.76,0,0,1,1.1.9.62.62,0,0,1,.2.45.61.61,0,0,1-.22.45.68.68,0,0,1-.41.14.51.51,0,0,1-.39-.18,3.36,3.36,0,0,0-1.25-.9,3.85,3.85,0,0,0-1.56-.31,3.36,3.36,0,0,0-1.2.21,2.36,2.36,0,0,0-.94.63,1.56,1.56,0,0,0-.37,1.1,1.53,1.53,0,0,0,.45,1,3.31,3.31,0,0,0,1.08.66,11.7,11.7,0,0,0,1.51.48,13.31,13.31,0,0,1,1.35.42,4.42,4.42,0,0,1,1.14.61,2.7,2.7,0,0,1,.8.91,3,3,0,0,1,.29,1.39A2.67,2.67,0,0,1,81,34.29a3.43,3.43,0,0,1-1.44,1.08,5.16,5.16,0,0,1-2,.37,5.9,5.9,0,0,1-2.3-.46A5,5,0,0,1,73.29,33.74Z"/><path class="cls-2" d="M83.54,24.32h5.12a.56.56,0,0,1,.44.19.61.61,0,0,1,.18.45.6.6,0,0,1-.62.59H83.54a.61.61,0,0,1-.45-.18.59.59,0,0,1-.19-.43.56.56,0,0,1,.19-.44A.61.61,0,0,1,83.54,24.32Zm2.26-3.1a.67.67,0,0,1,.66.66v11a2.05,2.05,0,0,0,.17.93.85.85,0,0,0,.43.41,1.58,1.58,0,0,0,.52.09.8.8,0,0,0,.32-.05.87.87,0,0,1,.32-.06.44.44,0,0,1,.34.16.53.53,0,0,1,.15.39.61.61,0,0,1-.35.52,1.64,1.64,0,0,1-.84.21l-.59,0a2.21,2.21,0,0,1-.82-.25,1.54,1.54,0,0,1-.69-.73A3.27,3.27,0,0,1,85.14,33V21.88a.67.67,0,0,1,.66-.66Z"/><path class="cls-2" d="M92.06,35.52a.63.63,0,0,1-.49-.2.69.69,0,0,1-.17-.46V25a.67.67,0,0,1,.18-.46.66.66,0,0,1,.48-.2.62.62,0,0,1,.47.2.68.68,0,0,1,.19.46v3.3l-.33.07a5.05,5.05,0,0,1,.38-1.53,5.27,5.27,0,0,1,.87-1.4,4.4,4.4,0,0,1,1.31-1,3.69,3.69,0,0,1,1.71-.4,1.91,1.91,0,0,1,.77.17.55.55,0,0,1,.37.54.65.65,0,0,1-.18.5.54.54,0,0,1-.42.18,1,1,0,0,1-.42-.11,1.51,1.51,0,0,0-.61-.11,2.42,2.42,0,0,0-1.23.36,4.12,4.12,0,0,0-1.12,1A4.75,4.75,0,0,0,93,27.9a4.09,4.09,0,0,0-.3,1.53v5.43a.63.63,0,0,1-.2.46A.65.65,0,0,1,92.06,35.52Z"/><path class="cls-2" d="M108.42,24.28a.59.59,0,0,1,.47.2.65.65,0,0,1,.19.48v9.9a.63.63,0,0,1-.2.46.65.65,0,0,1-.46.2.63.63,0,0,1-.49-.2.69.69,0,0,1-.17-.46V32.24l.37-.17a2.62,2.62,0,0,1-.34,1.25,4.69,4.69,0,0,1-.93,1.19,5.14,5.14,0,0,1-1.4.89,4.4,4.4,0,0,1-1.75.34,4.75,4.75,0,0,1-2.65-.77,5.28,5.28,0,0,1-1.85-2.11,6.64,6.64,0,0,1-.67-3,6.49,6.49,0,0,1,.68-3,5.36,5.36,0,0,1,1.85-2.06,4.94,4.94,0,0,1,4.39-.42,4.47,4.47,0,0,1,1.44.91,4.38,4.38,0,0,1,1,1.3,3.63,3.63,0,0,1,.35,1.53l-.46-.33V25a.72.72,0,0,1,.17-.48A.6.6,0,0,1,108.42,24.28Zm-4.58,10.23a3.58,3.58,0,0,0,2.07-.61,4.16,4.16,0,0,0,1.42-1.67,5.48,5.48,0,0,0,.52-2.39,5.22,5.22,0,0,0-.52-2.33,4.31,4.31,0,0,0-1.42-1.65,3.58,3.58,0,0,0-2.07-.61,3.67,3.67,0,0,0-2.06.59,4.1,4.1,0,0,0-1.42,1.63,5.17,5.17,0,0,0-.52,2.37,5.62,5.62,0,0,0,.5,2.39,4,4,0,0,0,1.42,1.67A3.63,3.63,0,0,0,103.84,34.51Zm-.15-11.13a.33.33,0,0,1-.23-.12.41.41,0,0,1-.12-.28.56.56,0,0,1,.11-.31l1.34-2.09a1.15,1.15,0,0,1,.3-.33.68.68,0,0,1,.45-.15.77.77,0,0,1,.52.17.59.59,0,0,1,.18.51.76.76,0,0,1,0,.27,1,1,0,0,1-.17.24L104.37,23a1.1,1.1,0,0,1-.31.26A.82.82,0,0,1,103.69,23.38Z"/><path class="cls-2" d="M120,34.86a.68.68,0,0,1-.66.66.67.67,0,0,1-.66-.66v-15a.68.68,0,0,1,.66-.66.67.67,0,0,1,.66.66Z"/><path class="cls-2" d="M132.51,24.28a.59.59,0,0,1,.47.2.65.65,0,0,1,.19.48v9.9a.67.67,0,0,1-1.15.46.69.69,0,0,1-.17-.46V32.24l.37-.17a2.62,2.62,0,0,1-.34,1.25,4.48,4.48,0,0,1-.93,1.19,5,5,0,0,1-1.4.89,4.37,4.37,0,0,1-1.75.34,4.78,4.78,0,0,1-2.65-.77,5.36,5.36,0,0,1-1.85-2.11,6.77,6.77,0,0,1-.67-3,6.49,6.49,0,0,1,.68-3,5.36,5.36,0,0,1,1.85-2.06,4.94,4.94,0,0,1,4.39-.42,4.47,4.47,0,0,1,1.44.91,4.38,4.38,0,0,1,1,1.3,3.63,3.63,0,0,1,.35,1.53l-.46-.33V25a.72.72,0,0,1,.17-.48A.6.6,0,0,1,132.51,24.28Zm-4.58,10.23A3.58,3.58,0,0,0,130,33.9a4.09,4.09,0,0,0,1.42-1.67,5.34,5.34,0,0,0,.52-2.39,5.08,5.08,0,0,0-.52-2.33A4.23,4.23,0,0,0,130,25.86a3.58,3.58,0,0,0-2.07-.61,3.64,3.64,0,0,0-2.05.59,4,4,0,0,0-1.43,1.63,5.17,5.17,0,0,0-.52,2.37,5.47,5.47,0,0,0,.51,2.39,3.94,3.94,0,0,0,1.42,1.67A3.6,3.6,0,0,0,127.93,34.51Z"/><path class="cls-2" d="M135.72,33.74a.92.92,0,0,1-.17-.52.5.5,0,0,1,.28-.41.55.55,0,0,1,.41-.13.78.78,0,0,1,.43.22,4.4,4.4,0,0,0,1.44,1.24,4,4,0,0,0,2,.48,3.68,3.68,0,0,0,1.22-.21,2.36,2.36,0,0,0,1-.64,1.7,1.7,0,0,0,0-2.19,2.65,2.65,0,0,0-1-.66A12.19,12.19,0,0,0,140,30.5c-.5-.13-1-.28-1.45-.45a5.07,5.07,0,0,1-1.25-.64,3,3,0,0,1-.87-.93,2.56,2.56,0,0,1-.33-1.34,2.7,2.7,0,0,1,.51-1.63,3.37,3.37,0,0,1,1.38-1.1,4.7,4.7,0,0,1,2-.4,5.17,5.17,0,0,1,1.19.15,4.7,4.7,0,0,1,1.26.47,3.89,3.89,0,0,1,1.1.9.62.62,0,0,1,.2.45.59.59,0,0,1-.23.45.63.63,0,0,1-.4.14.48.48,0,0,1-.39-.18,3.36,3.36,0,0,0-1.25-.9,3.88,3.88,0,0,0-1.56-.31,3.36,3.36,0,0,0-1.2.21,2.3,2.3,0,0,0-.94.63,1.56,1.56,0,0,0-.37,1.1,1.53,1.53,0,0,0,.45,1,3.31,3.31,0,0,0,1.08.66,11.53,11.53,0,0,0,1.5.48c.47.12.92.26,1.36.42a4.42,4.42,0,0,1,1.14.61,2.57,2.57,0,0,1,.79.91,2.89,2.89,0,0,1,.3,1.39,2.67,2.67,0,0,1-.54,1.67A3.43,3.43,0,0,1,142,35.37a5.16,5.16,0,0,1-2,.37,5.9,5.9,0,0,1-2.3-.46A5,5,0,0,1,135.72,33.74Z"/><path class="cls-2" d="M157.68,35.74a6,6,0,0,1-3-.73,5.1,5.1,0,0,1-2-2,6.19,6.19,0,0,1-.73-3,6.48,6.48,0,0,1,.74-3.19,5.42,5.42,0,0,1,1.91-2,4.73,4.73,0,0,1,2.5-.72,5.48,5.48,0,0,1,1.88.34,4.73,4.73,0,0,1,1.62,1A5,5,0,0,1,161.72,27a5.55,5.55,0,0,1,.47,2.24.59.59,0,0,1-.2.45.64.64,0,0,1-.47.19H152.7l-.26-1.19h8.67l-.29.26v-.44a3.35,3.35,0,0,0-.68-1.76,3.82,3.82,0,0,0-1.37-1.1,4,4,0,0,0-1.69-.37,3.89,3.89,0,0,0-1.35.26,3.78,3.78,0,0,0-1.26.83,4.34,4.34,0,0,0-.91,1.43,5.55,5.55,0,0,0-.35,2.06,5.2,5.2,0,0,0,.53,2.35,4.08,4.08,0,0,0,1.52,1.67,4.43,4.43,0,0,0,2.39.62,4.23,4.23,0,0,0,1.37-.22,3.94,3.94,0,0,0,1.09-.59,4.67,4.67,0,0,0,.78-.75.69.69,0,0,1,.46-.2.56.56,0,0,1,.57.57.58.58,0,0,1-.22.46A6,6,0,0,1,160,35.16,4.72,4.72,0,0,1,157.68,35.74Z"/><path class="cls-2" d="M163.71,24.32h5.13a.58.58,0,0,1,.44.19.64.64,0,0,1,.17.45.61.61,0,0,1-.17.42.6.6,0,0,1-.44.17h-5.13a.61.61,0,0,1-.45-.18.59.59,0,0,1-.19-.43.56.56,0,0,1,.19-.44A.61.61,0,0,1,163.71,24.32Zm2.27-3.1a.63.63,0,0,1,.47.2.66.66,0,0,1,.19.46v11a2.07,2.07,0,0,0,.16.93.85.85,0,0,0,.43.41,1.64,1.64,0,0,0,.53.09.86.86,0,0,0,.32-.05.79.79,0,0,1,.32-.06.47.47,0,0,1,.34.16.56.56,0,0,1,.14.39.61.61,0,0,1-.35.52,1.61,1.61,0,0,1-.84.21l-.59,0a2.21,2.21,0,0,1-.82-.25,1.59,1.59,0,0,1-.69-.73,3.42,3.42,0,0,1-.27-1.52V21.88a.65.65,0,0,1,.18-.46A.64.64,0,0,1,166,21.22Z"/><path class="cls-2" d="M180.31,24.28a.59.59,0,0,1,.47.2A.65.65,0,0,1,181,25v9.9a.68.68,0,0,1-.66.66.6.6,0,0,1-.48-.2.65.65,0,0,1-.18-.46V32.24l.37-.17a2.62,2.62,0,0,1-.34,1.25,4.69,4.69,0,0,1-.93,1.19,5,5,0,0,1-1.4.89,4.4,4.4,0,0,1-1.75.34A4.75,4.75,0,0,1,173,35a5.36,5.36,0,0,1-1.85-2.11,6.77,6.77,0,0,1-.67-3,6.49,6.49,0,0,1,.68-3A5.36,5.36,0,0,1,173,24.76a4.94,4.94,0,0,1,4.39-.42,4.47,4.47,0,0,1,1.44.91,4.38,4.38,0,0,1,1,1.3,3.63,3.63,0,0,1,.35,1.53l-.46-.33V25a.68.68,0,0,1,.18-.48A.57.57,0,0,1,180.31,24.28Zm-4.58,10.23a3.58,3.58,0,0,0,2.07-.61,4.09,4.09,0,0,0,1.42-1.67,5.48,5.48,0,0,0,.52-2.39,5.22,5.22,0,0,0-.52-2.33,4.23,4.23,0,0,0-1.42-1.65,3.58,3.58,0,0,0-2.07-.61,3.62,3.62,0,0,0-2,.59,4,4,0,0,0-1.43,1.63,5.17,5.17,0,0,0-.52,2.37,5.47,5.47,0,0,0,.51,2.39,4,4,0,0,0,1.41,1.67A3.65,3.65,0,0,0,175.73,34.51Z"/><path class="cls-2" d="M189.54,24.19a4.85,4.85,0,0,1,2.65.74A5.19,5.19,0,0,1,194,27a6.19,6.19,0,0,1,.69,3,6.26,6.26,0,0,1-.69,3,5.3,5.3,0,0,1-1.84,2,4.82,4.82,0,0,1-2.62.74,4.38,4.38,0,0,1-1.46-.23,4.84,4.84,0,0,1-1.27-.62,5,5,0,0,1-1-.94,4.58,4.58,0,0,1-.71-1.18l.4-.28v6.84a.66.66,0,0,1-1.32,0V24.92a.69.69,0,0,1,.18-.49.6.6,0,0,1,.48-.2.62.62,0,0,1,.47.2.66.66,0,0,1,.19.49v2.37l-.31-.17a4,4,0,0,1,.65-1.23,4.86,4.86,0,0,1,1-.92,4.26,4.26,0,0,1,1.26-.58A5.15,5.15,0,0,1,189.54,24.19Zm-.11,1.23a3.74,3.74,0,0,0-2.09.59,3.88,3.88,0,0,0-1.42,1.58,4.93,4.93,0,0,0-.52,2.32,5.06,5.06,0,0,0,.52,2.33,3.93,3.93,0,0,0,1.42,1.62,3.73,3.73,0,0,0,2.09.58,3.64,3.64,0,0,0,2-.58,4.08,4.08,0,0,0,1.42-1.62,5.06,5.06,0,0,0,.53-2.33,4.92,4.92,0,0,0-.53-2.31A4.06,4.06,0,0,0,191.48,26,3.65,3.65,0,0,0,189.43,25.42Z"/><path class="cls-2" d="M206.49,24.28a.59.59,0,0,1,.47.2.65.65,0,0,1,.19.48v9.9a.63.63,0,0,1-.2.46.65.65,0,0,1-.46.2.63.63,0,0,1-.49-.2.69.69,0,0,1-.17-.46V32.24l.37-.17a2.62,2.62,0,0,1-.34,1.25,4.69,4.69,0,0,1-.93,1.19,5.14,5.14,0,0,1-1.4.89,4.4,4.4,0,0,1-1.75.34,4.75,4.75,0,0,1-2.65-.77,5.28,5.28,0,0,1-1.85-2.11,6.64,6.64,0,0,1-.67-3,6.49,6.49,0,0,1,.68-3,5.36,5.36,0,0,1,1.85-2.06,4.94,4.94,0,0,1,4.39-.42,4.47,4.47,0,0,1,1.44.91,4.38,4.38,0,0,1,1,1.3,3.63,3.63,0,0,1,.35,1.53l-.46-.33V25a.72.72,0,0,1,.17-.48A.6.6,0,0,1,206.49,24.28Zm-4.58,10.23A3.58,3.58,0,0,0,204,33.9a4.16,4.16,0,0,0,1.42-1.67,5.48,5.48,0,0,0,.52-2.39,5.22,5.22,0,0,0-.52-2.33A4.31,4.31,0,0,0,204,25.86a3.58,3.58,0,0,0-2.07-.61,3.62,3.62,0,0,0-2,.59,4.15,4.15,0,0,0-1.44,1.63,5.29,5.29,0,0,0-.51,2.37,5.62,5.62,0,0,0,.5,2.39,4,4,0,0,0,1.42,1.67A3.63,3.63,0,0,0,201.91,34.51Z"/><path class="cls-2" d="M209.7,33.74a.85.85,0,0,1-.17-.52.5.5,0,0,1,.28-.41.53.53,0,0,1,.4-.13.72.72,0,0,1,.43.22,4.62,4.62,0,0,0,1.44,1.24,4.05,4.05,0,0,0,2,.48,3.73,3.73,0,0,0,1.22-.21,2.43,2.43,0,0,0,1-.64,1.73,1.73,0,0,0,0-2.19,2.81,2.81,0,0,0-1-.66A12.38,12.38,0,0,0,214,30.5c-.49-.13-1-.28-1.45-.45a5,5,0,0,1-1.24-.64,3,3,0,0,1-.87-.93,2.56,2.56,0,0,1-.33-1.34,2.7,2.7,0,0,1,.51-1.63,3.27,3.27,0,0,1,1.37-1.1,4.78,4.78,0,0,1,2-.4,5.24,5.24,0,0,1,1.19.15,4.77,4.77,0,0,1,1.25.47,3.76,3.76,0,0,1,1.1.9.59.59,0,0,1,.2.45.58.58,0,0,1-.22.45.66.66,0,0,1-.41.14.48.48,0,0,1-.38-.18,3.32,3.32,0,0,0-1.26-.9,3.85,3.85,0,0,0-1.56-.31,3.44,3.44,0,0,0-1.2.21,2.33,2.33,0,0,0-.93.63,1.56,1.56,0,0,0-.38,1.1,1.53,1.53,0,0,0,.45,1,3.54,3.54,0,0,0,1.08.66,11.7,11.7,0,0,0,1.51.48,13.31,13.31,0,0,1,1.35.42,4.33,4.33,0,0,1,1.15.61,2.67,2.67,0,0,1,.79.91,2.89,2.89,0,0,1,.3,1.39,2.67,2.67,0,0,1-.54,1.67A3.43,3.43,0,0,1,216,35.37a5.21,5.21,0,0,1-2,.37,5.85,5.85,0,0,1-2.29-.46A5,5,0,0,1,209.7,33.74Z"/><path class="cls-2" d="M235.79,19.24a.65.65,0,0,1,.66.66v15a.63.63,0,0,1-.2.46.65.65,0,0,1-.46.2.63.63,0,0,1-.49-.2.69.69,0,0,1-.17-.46V32.24l.37-.31a2.94,2.94,0,0,1-.33,1.29,4.34,4.34,0,0,1-.93,1.24,5.23,5.23,0,0,1-1.41.93,4.41,4.41,0,0,1-1.75.35,4.74,4.74,0,0,1-2.63-.77,5.47,5.47,0,0,1-1.86-2.09,7,7,0,0,1,0-6,5.45,5.45,0,0,1,1.85-2.09,4.75,4.75,0,0,1,2.62-.76,4.64,4.64,0,0,1,1.74.33,4.69,4.69,0,0,1,1.44.91,4.28,4.28,0,0,1,1,1.3,3.5,3.5,0,0,1,.36,1.53l-.46-.33V19.9a.69.69,0,0,1,.17-.46A.63.63,0,0,1,235.79,19.24Zm-4.58,15.27a3.58,3.58,0,0,0,2.07-.61,4.09,4.09,0,0,0,1.42-1.65,5.68,5.68,0,0,0,0-4.75,4.09,4.09,0,0,0-1.42-1.65,3.84,3.84,0,0,0-4.12,0,4.14,4.14,0,0,0-1.44,1.65,5.76,5.76,0,0,0,0,4.74,4.1,4.1,0,0,0,1.44,1.66A3.56,3.56,0,0,0,231.21,34.51Z"/><path class="cls-2" d="M244.76,35.74a6,6,0,0,1-3-.73,5.1,5.1,0,0,1-2-2,6.19,6.19,0,0,1-.73-3,6.48,6.48,0,0,1,.74-3.19,5.42,5.42,0,0,1,1.91-2,4.73,4.73,0,0,1,2.5-.72,5.48,5.48,0,0,1,1.88.34,4.73,4.73,0,0,1,1.62,1A5,5,0,0,1,248.8,27a5.55,5.55,0,0,1,.47,2.24.59.59,0,0,1-.2.45.63.63,0,0,1-.46.19h-8.83l-.26-1.19h8.67l-.29.26v-.44a3.35,3.35,0,0,0-.68-1.76,3.82,3.82,0,0,0-1.37-1.1,4,4,0,0,0-1.69-.37,3.89,3.89,0,0,0-1.35.26,3.78,3.78,0,0,0-1.26.83,4.34,4.34,0,0,0-.91,1.43,5.55,5.55,0,0,0-.35,2.06,5.2,5.2,0,0,0,.53,2.35,4.08,4.08,0,0,0,1.52,1.67,4.43,4.43,0,0,0,2.39.62,4.23,4.23,0,0,0,1.37-.22,3.94,3.94,0,0,0,1.09-.59A4.67,4.67,0,0,0,248,33a.69.69,0,0,1,.46-.2.56.56,0,0,1,.57.57.58.58,0,0,1-.22.46,6,6,0,0,1-1.71,1.38A4.72,4.72,0,0,1,244.76,35.74Z"/><path class="cls-2" d="M253.19,34.86a.68.68,0,0,1-.66.66.67.67,0,0,1-.66-.66v-15a.63.63,0,0,1,.2-.46.65.65,0,0,1,.46-.2.67.67,0,0,1,.66.66Z"/><path class="cls-2" d="M36.09,50.59a4.82,4.82,0,0,1,2.65.74,5.29,5.29,0,0,1,1.84,2,6.27,6.27,0,0,1,.68,3,6.37,6.37,0,0,1-.68,3,5.4,5.4,0,0,1-1.85,2,4.82,4.82,0,0,1-2.62.74,4.42,4.42,0,0,1-1.46-.23,4.93,4.93,0,0,1-1.26-.62,5.07,5.07,0,0,1-1-.94,4.84,4.84,0,0,1-.7-1.18l.4-.28v6.84a.66.66,0,0,1-.19.46.66.66,0,0,1-.95,0,.65.65,0,0,1-.18-.46V51.32a.68.68,0,0,1,.17-.49.68.68,0,0,1,1,0,.7.7,0,0,1,.19.49v2.37l-.31-.18a3.68,3.68,0,0,1,.65-1.22,4.38,4.38,0,0,1,1-.92,4.32,4.32,0,0,1,1.25-.58A5.2,5.2,0,0,1,36.09,50.59ZM36,51.82a3.84,3.84,0,0,0-2.09.58A4.13,4.13,0,0,0,32.47,54,5,5,0,0,0,32,56.31a5.18,5.18,0,0,0,.51,2.33,4.08,4.08,0,0,0,1.42,1.62,3.75,3.75,0,0,0,2.09.58A3.68,3.68,0,0,0,38,60.26a4.16,4.16,0,0,0,1.42-1.62A5.06,5.06,0,0,0,40,56.31,4.92,4.92,0,0,0,39.46,54,4.17,4.17,0,0,0,38,52.4,3.76,3.76,0,0,0,36,51.82Z"/><path class="cls-2" d="M44.46,61.92a.61.61,0,0,1-.48-.2.67.67,0,0,1-.18-.46V51.4a.63.63,0,0,1,.19-.46.65.65,0,0,1,.94,0,.63.63,0,0,1,.19.46v3.3l-.33.07a5.07,5.07,0,0,1,.39-1.53,5.33,5.33,0,0,1,.86-1.4,4.53,4.53,0,0,1,1.31-1,3.72,3.72,0,0,1,1.71-.4,1.91,1.91,0,0,1,.77.17.55.55,0,0,1,.37.54.69.69,0,0,1-.17.5.58.58,0,0,1-.42.18,1.05,1.05,0,0,1-.43-.11,1.51,1.51,0,0,0-.61-.11,2.42,2.42,0,0,0-1.23.36,4.27,4.27,0,0,0-1.12,1,4.75,4.75,0,0,0-.8,1.38,4.09,4.09,0,0,0-.3,1.53v5.43a.65.65,0,0,1-.2.46A.63.63,0,0,1,44.46,61.92Z"/><path class="cls-2" d="M62,56.29a6.12,6.12,0,0,1-.74,3,5.48,5.48,0,0,1-2,2.09,5.67,5.67,0,0,1-5.67,0,5.51,5.51,0,0,1-2-2.09,6.49,6.49,0,0,1,0-6,5.65,5.65,0,0,1,2-2.09,5.6,5.6,0,0,1,5.67,0,5.63,5.63,0,0,1,2,2.09A6.11,6.11,0,0,1,62,56.29Zm-1.32,0a5.14,5.14,0,0,0-.55-2.39,4.23,4.23,0,0,0-1.51-1.65,4.05,4.05,0,0,0-2.19-.61,4,4,0,0,0-2.17.61,4.3,4.3,0,0,0-1.51,1.65,4.91,4.91,0,0,0-.56,2.39,4.83,4.83,0,0,0,.56,2.37,4.34,4.34,0,0,0,1.51,1.64,3.92,3.92,0,0,0,2.17.61,4,4,0,0,0,2.19-.61,4.27,4.27,0,0,0,1.51-1.64A5.05,5.05,0,0,0,60.68,56.29Z"/><path class="cls-2" d="M69.49,50.41a7.74,7.74,0,0,1,1.93.23,4.36,4.36,0,0,1,1.42.63,1.1,1.1,0,0,1,.54.86.68.68,0,0,1-.16.43.51.51,0,0,1-.41.21.69.69,0,0,1-.45-.14,2.24,2.24,0,0,1-.32-.3,1.44,1.44,0,0,0-.46-.33,3.69,3.69,0,0,0-.83-.24,5.54,5.54,0,0,0-1.2-.12,4.13,4.13,0,0,0-2.22.62,4.44,4.44,0,0,0-1.56,1.66,4.82,4.82,0,0,0-.57,2.34,5.15,5.15,0,0,0,.54,2.38,4.06,4.06,0,0,0,1.52,1.66,4.12,4.12,0,0,0,2.25.61,4.49,4.49,0,0,0,1.37-.16,3.83,3.83,0,0,0,.83-.35,2.33,2.33,0,0,0,.63-.47.58.58,0,0,1,.49-.23.54.54,0,0,1,.42.16.63.63,0,0,1,.15.43,1.12,1.12,0,0,1-.51.78,4.59,4.59,0,0,1-1.42.75,6.33,6.33,0,0,1-2.09.32,5.36,5.36,0,0,1-2.87-.77,5.24,5.24,0,0,1-1.94-2.1,6.45,6.45,0,0,1-.69-3,6.09,6.09,0,0,1,.7-2.92,5.55,5.55,0,0,1,2-2.12A5.33,5.33,0,0,1,69.49,50.41Z"/><path class="cls-2" d="M80.51,62.14a6,6,0,0,1-3-.73,5.1,5.1,0,0,1-2-2,6.19,6.19,0,0,1-.73-3,6.48,6.48,0,0,1,.74-3.19,5.35,5.35,0,0,1,1.91-2,4.73,4.73,0,0,1,2.5-.72,5.48,5.48,0,0,1,1.88.34,4.73,4.73,0,0,1,1.62,1,5,5,0,0,1,1.14,1.64A5.55,5.55,0,0,1,85,55.65a.59.59,0,0,1-.2.45.68.68,0,0,1-.46.19H75.53l-.26-1.19h8.67l-.29.26v-.44A3.35,3.35,0,0,0,83,53.16a3.77,3.77,0,0,0-1.38-1.1,3.83,3.83,0,0,0-3-.11,3.63,3.63,0,0,0-1.26.83,4.18,4.18,0,0,0-.91,1.43,5.53,5.53,0,0,0-.35,2,5.09,5.09,0,0,0,.53,2.36,4.13,4.13,0,0,0,1.51,1.67,4.46,4.46,0,0,0,2.4.62,4.23,4.23,0,0,0,1.37-.22,3.94,3.94,0,0,0,1.09-.59,4.34,4.34,0,0,0,.78-.76.73.73,0,0,1,.46-.19.57.57,0,0,1,.41.17.61.61,0,0,1,.16.4.6.6,0,0,1-.22.46,5.87,5.87,0,0,1-1.72,1.38A4.76,4.76,0,0,1,80.51,62.14Z"/><path class="cls-2" d="M86.92,60.14a.85.85,0,0,1-.17-.52.5.5,0,0,1,.28-.41.53.53,0,0,1,.4-.13.72.72,0,0,1,.43.22,4.75,4.75,0,0,0,1.44,1.24,4.05,4.05,0,0,0,2,.48,3.73,3.73,0,0,0,1.22-.21,2.43,2.43,0,0,0,1-.64,1.7,1.7,0,0,0,0-2.19,2.81,2.81,0,0,0-1-.66,12.93,12.93,0,0,0-1.33-.42c-.5-.13-1-.28-1.46-.45a5,5,0,0,1-1.24-.64,3,3,0,0,1-.87-.93,2.56,2.56,0,0,1-.33-1.34,2.7,2.7,0,0,1,.51-1.63,3.27,3.27,0,0,1,1.37-1.1,4.78,4.78,0,0,1,2-.4,5.24,5.24,0,0,1,1.19.15,4.77,4.77,0,0,1,1.25.47,3.76,3.76,0,0,1,1.1.9.62.62,0,0,1,.2.45.58.58,0,0,1-.22.45.66.66,0,0,1-.41.14.48.48,0,0,1-.38-.18,3.32,3.32,0,0,0-1.26-.9,3.85,3.85,0,0,0-1.56-.31,3.44,3.44,0,0,0-1.2.21,2.33,2.33,0,0,0-.93.63,1.55,1.55,0,0,0-.38,1.09,1.5,1.5,0,0,0,.46,1,3.37,3.37,0,0,0,1.07.66,13.5,13.5,0,0,0,1.51.48,13.31,13.31,0,0,1,1.35.42,4.33,4.33,0,0,1,1.15.61,2.67,2.67,0,0,1,.79.91,2.87,2.87,0,0,1,.3,1.38,2.68,2.68,0,0,1-.54,1.68,3.33,3.33,0,0,1-1.44,1.07,5.17,5.17,0,0,1-2,.38,5.87,5.87,0,0,1-2.3-.46A4.88,4.88,0,0,1,86.92,60.14Z"/><path class="cls-2" d="M108.07,56.29a6.12,6.12,0,0,1-.74,3,5.48,5.48,0,0,1-2,2.09,5.67,5.67,0,0,1-5.67,0,5.51,5.51,0,0,1-2-2.09,6.57,6.57,0,0,1,0-6,5.65,5.65,0,0,1,2-2.09,5.6,5.6,0,0,1,5.67,0,5.63,5.63,0,0,1,2,2.09A6.11,6.11,0,0,1,108.07,56.29Zm-1.32,0a5.14,5.14,0,0,0-.55-2.39,4.23,4.23,0,0,0-1.51-1.65,4.05,4.05,0,0,0-2.19-.61,4,4,0,0,0-2.17.61,4.23,4.23,0,0,0-1.51,1.65,4.91,4.91,0,0,0-.57,2.39,4.83,4.83,0,0,0,.57,2.37,4.27,4.27,0,0,0,1.51,1.64,3.92,3.92,0,0,0,2.17.61,4,4,0,0,0,2.19-.61,4.27,4.27,0,0,0,1.51-1.64A5.05,5.05,0,0,0,106.75,56.29Z"/><path class="cls-2" d="M116.14,60.14a.92.92,0,0,1-.17-.52.5.5,0,0,1,.28-.41.55.55,0,0,1,.41-.13.78.78,0,0,1,.43.22,4.53,4.53,0,0,0,1.44,1.24,4,4,0,0,0,2,.48,3.68,3.68,0,0,0,1.22-.21,2.36,2.36,0,0,0,1-.64,1.7,1.7,0,0,0,0-2.19,2.65,2.65,0,0,0-1-.66,12.19,12.19,0,0,0-1.33-.42c-.5-.13-1-.28-1.45-.45a5.07,5.07,0,0,1-1.25-.64,3,3,0,0,1-.87-.93,2.56,2.56,0,0,1-.33-1.34,2.7,2.7,0,0,1,.51-1.63,3.37,3.37,0,0,1,1.38-1.1,4.7,4.7,0,0,1,2-.4,5.17,5.17,0,0,1,1.19.15,4.7,4.7,0,0,1,1.26.47,3.89,3.89,0,0,1,1.1.9.62.62,0,0,1,.2.45.59.59,0,0,1-.23.45.63.63,0,0,1-.4.14.48.48,0,0,1-.39-.18,3.36,3.36,0,0,0-1.25-.9,3.88,3.88,0,0,0-1.56-.31,3.36,3.36,0,0,0-1.2.21,2.3,2.3,0,0,0-.94.63,1.59,1.59,0,0,0,.08,2.13,3.31,3.31,0,0,0,1.08.66,13.3,13.3,0,0,0,1.5.48c.47.12.92.26,1.36.42a4.42,4.42,0,0,1,1.14.61,2.57,2.57,0,0,1,.79.91,2.87,2.87,0,0,1,.3,1.38,2.68,2.68,0,0,1-.54,1.68,3.33,3.33,0,0,1-1.44,1.07,5.17,5.17,0,0,1-2,.38,5.9,5.9,0,0,1-2.3-.46A5,5,0,0,1,116.14,60.14Z"/><path class="cls-2" d="M131.91,62.14a5.94,5.94,0,0,1-3-.73,5,5,0,0,1-2-2,6.08,6.08,0,0,1-.73-3,6.48,6.48,0,0,1,.74-3.19,5.35,5.35,0,0,1,1.91-2,4.73,4.73,0,0,1,2.5-.72,5.53,5.53,0,0,1,1.88.34,4.73,4.73,0,0,1,1.62,1A5.17,5.17,0,0,1,136,53.41a5.55,5.55,0,0,1,.46,2.24.56.56,0,0,1-.2.45.66.66,0,0,1-.46.19h-8.82l-.26-1.19h8.66l-.28.26v-.44a3.43,3.43,0,0,0-.68-1.76,3.85,3.85,0,0,0-1.38-1.1,3.85,3.85,0,0,0-3-.11,3.6,3.6,0,0,0-1.25.83,4.18,4.18,0,0,0-.91,1.43,5.33,5.33,0,0,0-.36,2,5.22,5.22,0,0,0,.53,2.36,4.15,4.15,0,0,0,1.52,1.67,4.46,4.46,0,0,0,2.4.62,4.17,4.17,0,0,0,1.36-.22,4.23,4.23,0,0,0,1.87-1.35.75.75,0,0,1,.47-.19.54.54,0,0,1,.4.17.58.58,0,0,1,.17.4.63.63,0,0,1-.22.46,5.87,5.87,0,0,1-1.72,1.38A4.77,4.77,0,0,1,131.91,62.14Z"/><path class="cls-2" d="M143.67,50.41a4.81,4.81,0,0,1,1.8.34,5.37,5.37,0,0,1,1.47.88,4.69,4.69,0,0,1,1,1.15,2.34,2.34,0,0,1,.35,1.15l-.35-.52v-2a.68.68,0,0,1,.18-.48.62.62,0,0,1,.48-.2.59.59,0,0,1,.47.2.65.65,0,0,1,.19.48v9.52a5.59,5.59,0,0,1-.73,3,4.72,4.72,0,0,1-2,1.84,6.17,6.17,0,0,1-2.83.63,7.16,7.16,0,0,1-1.61-.2,6.44,6.44,0,0,1-1.45-.5c-.41-.21-.64-.42-.7-.64a.59.59,0,0,1-.14-.39.44.44,0,0,1,.19-.32.41.41,0,0,1,.45,0c.17.08.41.19.74.32l.58.2a9,9,0,0,0,.9.23,6.26,6.26,0,0,0,1.07.1A3.86,3.86,0,0,0,147.92,61V58.86l.24.07a3.54,3.54,0,0,1-.66,1.38,4.45,4.45,0,0,1-1.08,1,4.69,4.69,0,0,1-1.32.62,4.92,4.92,0,0,1-1.41.21,5.08,5.08,0,0,1-2.74-.77A5.46,5.46,0,0,1,139,59.28a6.82,6.82,0,0,1,0-6,5.51,5.51,0,0,1,1.91-2.09A5.1,5.1,0,0,1,143.67,50.41Zm.13,1.23a4,4,0,0,0-2.14.61,4.13,4.13,0,0,0-1.5,1.65,5.06,5.06,0,0,0-.54,2.36,5.15,5.15,0,0,0,.54,2.38,4.16,4.16,0,0,0,1.5,1.66,3.87,3.87,0,0,0,2.14.61,3.94,3.94,0,0,0,2.16-.6,4.08,4.08,0,0,0,1.49-1.64,5.44,5.44,0,0,0,0-4.81,4,4,0,0,0-3.65-2.22Z"/><path class="cls-2" d="M160.83,50.74a.62.62,0,0,1,.47.2.63.63,0,0,1,.19.46v6.21a4.31,4.31,0,0,1-1.23,3.32,4.7,4.7,0,0,1-3.32,1.14,4.62,4.62,0,0,1-3.29-1.14,4.3,4.3,0,0,1-1.22-3.32V51.4a.67.67,0,0,1,.18-.46.66.66,0,0,1,.48-.2.62.62,0,0,1,.47.2.63.63,0,0,1,.19.46v6.21a2.91,2.91,0,0,0,3.19,3.23,3.27,3.27,0,0,0,2.37-.82,3.17,3.17,0,0,0,.86-2.41V51.4a.67.67,0,0,1,.18-.46A.61.61,0,0,1,160.83,50.74Zm-4.14-1a.37.37,0,0,1-.23-.13.37.37,0,0,1-.12-.27.65.65,0,0,1,.11-.31L157.8,47a1.28,1.28,0,0,1,.29-.33.72.72,0,0,1,.45-.15.8.8,0,0,1,.53.17.62.62,0,0,1,.18.51.72.72,0,0,1-.22.5l-1.65,1.74a1.1,1.1,0,0,1-.31.26A.83.83,0,0,1,156.69,49.78Z"/><path class="cls-2" d="M170,50.41a4.09,4.09,0,0,1,2.32.59,3.24,3.24,0,0,1,1.26,1.58,6.25,6.25,0,0,1,.38,2.21v6.47a.63.63,0,0,1-.19.46.67.67,0,0,1-.47.2.63.63,0,0,1-.48-.2.67.67,0,0,1-.18-.46v-6.4a4.39,4.39,0,0,0-.28-1.61,2.43,2.43,0,0,0-.94-1.16,2.92,2.92,0,0,0-1.7-.45,3.81,3.81,0,0,0-1.8.45,3.88,3.88,0,0,0-1.37,1.16,2.7,2.7,0,0,0-.53,1.61v6.4a.61.61,0,0,1-.2.46.63.63,0,0,1-.46.2.61.61,0,0,1-.48-.2.67.67,0,0,1-.18-.46V51.4a.63.63,0,0,1,.19-.46.65.65,0,0,1,.94,0,.63.63,0,0,1,.19.46v1.85l-.5.79a2.85,2.85,0,0,1,.45-1.35,5,5,0,0,1,1-1.17,5.39,5.39,0,0,1,1.42-.81A4.33,4.33,0,0,1,170,50.41Z"/><path class="cls-2" d="M188.26,50.41a7.74,7.74,0,0,1,1.93.23,4.36,4.36,0,0,1,1.42.63,1.1,1.1,0,0,1,.54.86.64.64,0,0,1-.17.43.49.49,0,0,1-.4.21.69.69,0,0,1-.45-.14,2.24,2.24,0,0,1-.32-.3,1.56,1.56,0,0,0-.46-.33,3.86,3.86,0,0,0-.83-.24,5.54,5.54,0,0,0-1.2-.12,4.13,4.13,0,0,0-2.22.62,4.44,4.44,0,0,0-1.56,1.66,4.83,4.83,0,0,0-.58,2.34,5.15,5.15,0,0,0,.54,2.38A4.13,4.13,0,0,0,186,60.3a4.18,4.18,0,0,0,2.26.61,4.54,4.54,0,0,0,1.37-.16,3.83,3.83,0,0,0,.83-.35,2.33,2.33,0,0,0,.63-.47.63.63,0,0,1,.91-.07.63.63,0,0,1,.15.43,1.11,1.11,0,0,1-.52.78,4.41,4.41,0,0,1-1.41.75,6.37,6.37,0,0,1-2.09.32,5.39,5.39,0,0,1-2.88-.77,5.22,5.22,0,0,1-1.93-2.1,6.45,6.45,0,0,1-.69-3,6.09,6.09,0,0,1,.7-2.92,5.55,5.55,0,0,1,2-2.12A5.3,5.3,0,0,1,188.26,50.41Z"/><path class="cls-2" d="M204.62,56.29a6.12,6.12,0,0,1-.74,3,5.56,5.56,0,0,1-2,2.09,5.67,5.67,0,0,1-5.67,0,5.51,5.51,0,0,1-2-2.09,6.49,6.49,0,0,1,0-6,5.65,5.65,0,0,1,2-2.09,5.6,5.6,0,0,1,5.67,0,5.71,5.71,0,0,1,2,2.09A6.11,6.11,0,0,1,204.62,56.29Zm-1.32,0a5.14,5.14,0,0,0-.55-2.39,4.23,4.23,0,0,0-1.51-1.65,4.05,4.05,0,0,0-2.19-.61,4,4,0,0,0-2.17.61,4.4,4.4,0,0,0-1.52,1.65,5,5,0,0,0-.56,2.39,4.94,4.94,0,0,0,.56,2.37,4.45,4.45,0,0,0,1.52,1.64,3.92,3.92,0,0,0,2.17.61,4,4,0,0,0,2.19-.61,4.27,4.27,0,0,0,1.51-1.64A5.05,5.05,0,0,0,203.3,56.29Z"/><path class="cls-2" d="M207.83,61.92a.6.6,0,0,1-.48-.2.67.67,0,0,1-.18-.46V51.4a.63.63,0,0,1,.19-.46.65.65,0,0,1,.94,0,.63.63,0,0,1,.19.46v3.3l-.33.07a4.79,4.79,0,0,1,.39-1.53,5.12,5.12,0,0,1,.87-1.4,4.36,4.36,0,0,1,1.3-1,3.72,3.72,0,0,1,1.71-.4,1.91,1.91,0,0,1,.77.17.55.55,0,0,1,.37.54.69.69,0,0,1-.17.5.58.58,0,0,1-.42.18,1.05,1.05,0,0,1-.43-.11,1.48,1.48,0,0,0-.61-.11,2.42,2.42,0,0,0-1.23.36,4.27,4.27,0,0,0-1.12,1,5,5,0,0,0-.8,1.38,4.09,4.09,0,0,0-.3,1.53v5.43a.61.61,0,0,1-.2.46A.63.63,0,0,1,207.83,61.92Z"/><path class="cls-2" d="M216.17,61.92a.6.6,0,0,1-.48-.2.67.67,0,0,1-.18-.46V51.4a.67.67,0,0,1,.18-.46.66.66,0,0,1,.48-.2.62.62,0,0,1,.47.2.63.63,0,0,1,.19.46v3.3l-.33.07a5.05,5.05,0,0,1,.38-1.53,5.65,5.65,0,0,1,.87-1.4,4.53,4.53,0,0,1,1.31-1,3.72,3.72,0,0,1,1.71-.4,1.91,1.91,0,0,1,.77.17.55.55,0,0,1,.37.54.65.65,0,0,1-.18.5.54.54,0,0,1-.41.18,1.05,1.05,0,0,1-.43-.11,1.51,1.51,0,0,0-.61-.11,2.42,2.42,0,0,0-1.23.36,4.27,4.27,0,0,0-1.12,1,4.75,4.75,0,0,0-.8,1.38,4.09,4.09,0,0,0-.3,1.53v5.43a.65.65,0,0,1-.2.46A.63.63,0,0,1,216.17,61.92Z"/><path class="cls-2" d="M228.37,62.14a6,6,0,0,1-3-.73,5,5,0,0,1-2-2,6.08,6.08,0,0,1-.73-3,6.38,6.38,0,0,1,.74-3.19,5.35,5.35,0,0,1,1.91-2,4.73,4.73,0,0,1,2.5-.72,5.53,5.53,0,0,1,1.88.34,4.6,4.6,0,0,1,1.61,1,4.89,4.89,0,0,1,1.15,1.64,5.55,5.55,0,0,1,.46,2.24.56.56,0,0,1-.2.45.66.66,0,0,1-.46.19H223.4l-.26-1.19h8.66l-.28.26v-.44a3.43,3.43,0,0,0-.68-1.76,3.85,3.85,0,0,0-1.38-1.1,3.83,3.83,0,0,0-3-.11,3.46,3.46,0,0,0-1.26.83,4.18,4.18,0,0,0-.91,1.43,5.33,5.33,0,0,0-.35,2,5.21,5.21,0,0,0,.52,2.36A4.15,4.15,0,0,0,226,60.29a4.46,4.46,0,0,0,2.4.62,4.17,4.17,0,0,0,1.36-.22,4.23,4.23,0,0,0,1.87-1.35.77.77,0,0,1,.47-.19.54.54,0,0,1,.4.17.58.58,0,0,1,.17.4.63.63,0,0,1-.22.46,5.87,5.87,0,0,1-1.72,1.38A4.77,4.77,0,0,1,228.37,62.14Z"/><path class="cls-2" d="M234.78,60.14a.9.9,0,0,1-.16-.52.49.49,0,0,1,.27-.41.56.56,0,0,1,.41-.13.74.74,0,0,1,.43.22,4.64,4.64,0,0,0,1.44,1.24,4,4,0,0,0,2,.48,3.68,3.68,0,0,0,1.22-.21,2.3,2.3,0,0,0,1-.64,1.7,1.7,0,0,0,0-2.19,2.65,2.65,0,0,0-1-.66,12.19,12.19,0,0,0-1.33-.42c-.5-.13-1-.28-1.45-.45a4.83,4.83,0,0,1-1.24-.64,3,3,0,0,1-.87-.93,2.56,2.56,0,0,1-.33-1.34,2.76,2.76,0,0,1,.5-1.63,3.37,3.37,0,0,1,1.38-1.1,4.75,4.75,0,0,1,2-.4,5.15,5.15,0,0,1,1.18.15,4.7,4.7,0,0,1,1.26.47,3.76,3.76,0,0,1,1.1.9.62.62,0,0,1,.2.45.61.61,0,0,1-.22.45.68.68,0,0,1-.41.14.51.51,0,0,1-.39-.18,3.36,3.36,0,0,0-1.25-.9,3.85,3.85,0,0,0-1.56-.31,3.36,3.36,0,0,0-1.2.21,2.36,2.36,0,0,0-.94.63,1.59,1.59,0,0,0,.08,2.13,3.31,3.31,0,0,0,1.08.66,13.5,13.5,0,0,0,1.51.48,13.31,13.31,0,0,1,1.35.42,4.42,4.42,0,0,1,1.14.61,2.7,2.7,0,0,1,.8.91A3,3,0,0,1,243,59a2.68,2.68,0,0,1-.54,1.68,3.33,3.33,0,0,1-1.44,1.07,5.17,5.17,0,0,1-2,.38,5.9,5.9,0,0,1-2.3-.46A5,5,0,0,1,234.78,60.14Z"/><path class="cls-2" d="M250.86,50.59a4.85,4.85,0,0,1,2.65.74,5.19,5.19,0,0,1,1.83,2,6.16,6.16,0,0,1,.68,3,6.25,6.25,0,0,1-.68,3,5.37,5.37,0,0,1-1.84,2,4.82,4.82,0,0,1-2.62.74,4.48,4.48,0,0,1-1.47-.23,4.93,4.93,0,0,1-1.26-.62,5,5,0,0,1-1-.94,4.58,4.58,0,0,1-.71-1.18l.4-.28v6.84a.66.66,0,0,1-1.32,0V51.32a.69.69,0,0,1,.18-.49.6.6,0,0,1,.48-.2.62.62,0,0,1,.47.2.66.66,0,0,1,.19.49v2.37l-.31-.18a3.87,3.87,0,0,1,.65-1.22,4.6,4.6,0,0,1,1-.92,4.26,4.26,0,0,1,1.26-.58A5.15,5.15,0,0,1,250.86,50.59Zm-.11,1.23a3.81,3.81,0,0,0-2.09.58A4,4,0,0,0,247.24,54a4.93,4.93,0,0,0-.52,2.32,5.06,5.06,0,0,0,.52,2.33,3.93,3.93,0,0,0,1.42,1.62,3.73,3.73,0,0,0,2.09.58,3.64,3.64,0,0,0,2.05-.58,4.08,4.08,0,0,0,1.42-1.62,5.06,5.06,0,0,0,.53-2.33,4.92,4.92,0,0,0-.53-2.31,4.09,4.09,0,0,0-1.42-1.6A3.72,3.72,0,0,0,250.75,51.82Z"/><path class="cls-2" d="M269.06,56.29a6.12,6.12,0,0,1-.74,3,5.48,5.48,0,0,1-2,2.09,5.65,5.65,0,0,1-5.66,0,5.43,5.43,0,0,1-2-2.09,6.49,6.49,0,0,1,0-6,5.58,5.58,0,0,1,2-2.09,5.59,5.59,0,0,1,5.66,0,5.63,5.63,0,0,1,2,2.09A6.11,6.11,0,0,1,269.06,56.29Zm-1.32,0a5,5,0,0,0-.55-2.39,4.23,4.23,0,0,0-1.51-1.65,4.18,4.18,0,0,0-4.35,0,4.25,4.25,0,0,0-1.52,1.65,5,5,0,0,0-.56,2.39,4.94,4.94,0,0,0,.56,2.37,4.29,4.29,0,0,0,1.52,1.64,4.18,4.18,0,0,0,4.35,0,4.27,4.27,0,0,0,1.51-1.64A4.93,4.93,0,0,0,267.74,56.29Z"/><path class="cls-2" d="M276.92,50.41a4.11,4.11,0,0,1,2.32.59,3.22,3.22,0,0,1,1.25,1.58,6,6,0,0,1,.39,2.21v6.47a.68.68,0,0,1-.66.66.63.63,0,0,1-.49-.2.66.66,0,0,1-.17-.46v-6.4a4.39,4.39,0,0,0-.29-1.61,2.46,2.46,0,0,0-.93-1.16,3,3,0,0,0-1.71-.45,3.74,3.74,0,0,0-1.79.45,3.83,3.83,0,0,0-1.38,1.16,2.7,2.7,0,0,0-.53,1.61v6.4a.63.63,0,0,1-.19.46.67.67,0,0,1-.47.2.63.63,0,0,1-.48-.2.67.67,0,0,1-.18-.46V51.4a.68.68,0,0,1,.19-.46.63.63,0,0,1,.47-.2.66.66,0,0,1,.48.2.67.67,0,0,1,.18.46v1.85l-.5.79a2.85,2.85,0,0,1,.45-1.35,5,5,0,0,1,1-1.17,5.39,5.39,0,0,1,1.42-.81A4.38,4.38,0,0,1,276.92,50.41Z"/><path class="cls-2" d="M293.27,45.64a.65.65,0,0,1,.66.66v15a.65.65,0,0,1-.2.46.63.63,0,0,1-.46.2.61.61,0,0,1-.48-.2.67.67,0,0,1-.18-.46V58.64l.38-.31a3.08,3.08,0,0,1-.33,1.29,4.38,4.38,0,0,1-.94,1.24,4.94,4.94,0,0,1-1.41.93,4.37,4.37,0,0,1-1.75.35,4.7,4.7,0,0,1-2.62-.77,5.31,5.31,0,0,1-1.86-2.09,6.91,6.91,0,0,1,0-6,5.42,5.42,0,0,1,1.84-2.09,4.75,4.75,0,0,1,2.62-.76,4.57,4.57,0,0,1,1.74.33,4.86,4.86,0,0,1,1.44.9,4.45,4.45,0,0,1,1,1.31,3.5,3.5,0,0,1,.36,1.53l-.46-.33V46.3a.65.65,0,0,1,.18-.46A.61.61,0,0,1,293.27,45.64Zm-4.58,15.27a3.58,3.58,0,0,0,2.07-.61,4.09,4.09,0,0,0,1.42-1.65,5.68,5.68,0,0,0,0-4.75,4.09,4.09,0,0,0-1.42-1.65,3.78,3.78,0,0,0-4.12,0,4,4,0,0,0-1.43,1.65,5.18,5.18,0,0,0-.52,2.36,5.27,5.27,0,0,0,.52,2.38,4.07,4.07,0,0,0,1.43,1.66A3.58,3.58,0,0,0,288.69,60.91Z"/><path class="cls-2" d="M306.37,50.68a.61.61,0,0,1,.48.2.68.68,0,0,1,.18.48v9.9a.63.63,0,0,1-.19.46.67.67,0,0,1-.47.2.63.63,0,0,1-.48-.2.67.67,0,0,1-.18-.46V58.64l.38-.17a2.74,2.74,0,0,1-.34,1.25,4.69,4.69,0,0,1-.94,1.19,4.94,4.94,0,0,1-1.39.89,4.4,4.4,0,0,1-1.75.34,4.73,4.73,0,0,1-2.65-.77,5.21,5.21,0,0,1-1.85-2.11,6.64,6.64,0,0,1-.67-3,6.37,6.37,0,0,1,.68-3A5.28,5.28,0,0,1,299,51.16a4.71,4.71,0,0,1,2.61-.75,4.77,4.77,0,0,1,1.78.33,4.62,4.62,0,0,1,1.44.9,4.55,4.55,0,0,1,1,1.31,3.63,3.63,0,0,1,.35,1.53l-.47-.33V51.36a.68.68,0,0,1,.18-.48A.59.59,0,0,1,306.37,50.68ZM301.8,60.91a3.58,3.58,0,0,0,2.07-.61,4.16,4.16,0,0,0,1.42-1.67,5.47,5.47,0,0,0,.51-2.39,5.21,5.21,0,0,0-.51-2.33,4.31,4.31,0,0,0-1.42-1.65,3.58,3.58,0,0,0-2.07-.62,3.68,3.68,0,0,0-2.06.6,4.06,4.06,0,0,0-1.43,1.63,5.3,5.3,0,0,0-.52,2.37,5.47,5.47,0,0,0,.51,2.39,4,4,0,0,0,1.42,1.67A3.63,3.63,0,0,0,301.8,60.91Z"/><path class="cls-2" d="M310.69,61.92a.69.69,0,0,1-.57-.24,1,1,0,0,1-.2-.62V60.6a.92.92,0,0,1,.2-.62.74.74,0,0,1,.57-.22h.16a.74.74,0,0,1,.57.22.92.92,0,0,1,.2.62v.46a1,1,0,0,1-.2.62.69.69,0,0,1-.57.24Z"/><rect class="cls-1" x="155.77" y="75.76" width="24.93" height="24.93" transform="translate(-13.11 144.8) rotate(-45)"/></g></g></svg>