<svg xmlns="http://www.w3.org/2000/svg" viewBox="0 0 403.27 71"><defs><style>.cls-1{isolation:isolate;}.cls-2{opacity:0.3;mix-blend-mode:multiply;}.cls-3{fill:#fff;}.cls-4{fill:#c1272d;}</style></defs><title>lab03-tit2</title><g class="cls-1"><g id="Layer_2" data-name="Layer 2"><g id="Layer_1-2" data-name="Layer 1"><g class="cls-2"><rect x="4" y="4" width="399.27" height="67" rx="12" ry="12"/></g><rect class="cls-3" width="399.27" height="67" rx="12" ry="12"/><rect class="cls-4" x="4.03" y="3.07" width="391.21" height="60.87" rx="11.19" ry="11.19"/><path class="cls-3" d="M42.17,33.17a9.28,9.28,0,0,1-.6,3.36,8.5,8.5,0,0,1-1.69,2.75A7.81,7.81,0,0,1,34,41.81a7.81,7.81,0,0,1-3.27-.67,8,8,0,0,1-2.58-1.86,8.5,8.5,0,0,1-1.69-2.75,9.71,9.71,0,0,1,0-6.72,8.5,8.5,0,0,1,1.69-2.75,8,8,0,0,1,2.58-1.86,8.31,8.31,0,0,1,6.54,0,7.9,7.9,0,0,1,2.59,1.86,8.5,8.5,0,0,1,1.69,2.75A9.28,9.28,0,0,1,42.17,33.17Zm-3.11,0a6.55,6.55,0,0,0-.65-2.92,5.29,5.29,0,0,0-1.78-2.07,4.83,4.83,0,0,0-5.23,0,5.31,5.31,0,0,0-1.77,2.06,7.11,7.11,0,0,0,0,5.85,5.27,5.27,0,0,0,1.77,2.07,4.83,4.83,0,0,0,5.23,0,5.29,5.29,0,0,0,1.78-2.07A6.55,6.55,0,0,0,39.06,33.17Zm-5-9.31a1.07,1.07,0,0,1-.73-.24.8.8,0,0,1-.27-.63.61.61,0,0,1,.08-.32,1.34,1.34,0,0,1,.25-.32l2.06-1.83a3.47,3.47,0,0,1,.57-.37,1.35,1.35,0,0,1,.61-.16,1.45,1.45,0,0,1,.84.32,1,1,0,0,1,.43.86,1.22,1.22,0,0,1-.23.71,1.63,1.63,0,0,1-.65.56l-2.41,1.27a.57.57,0,0,1-.28.12Z"/><path class="cls-3" d="M46.16,41.57a1.4,1.4,0,0,1-1-.42,1.44,1.44,0,0,1-.4-1V30.19a1.44,1.44,0,0,1,.4-1,1.4,1.4,0,0,1,1-.42,1.38,1.38,0,0,1,1,.42,1.45,1.45,0,0,1,.41,1v2.26l-.17-1.61a3.71,3.71,0,0,1,.68-1,4.26,4.26,0,0,1,1-.74,4.45,4.45,0,0,1,1.13-.45,5.46,5.46,0,0,1,1.2-.14,1.85,1.85,0,0,1,1.21.41,1.2,1.2,0,0,1,.49,1A1.39,1.39,0,0,1,52.68,31a1.33,1.33,0,0,1-.88.35,2,2,0,0,1-.83-.17,2.08,2.08,0,0,0-.85-.17,2.2,2.2,0,0,0-.88.2,2.44,2.44,0,0,0-.82.64,3.65,3.65,0,0,0-.6,1.07,4.48,4.48,0,0,0-.22,1.5v5.69a1.45,1.45,0,0,1-.41,1A1.38,1.38,0,0,1,46.16,41.57Z"/><path class="cls-3" d="M59.8,28.49a5.24,5.24,0,0,1,1.85.31,5.42,5.42,0,0,1,1.45.79,4.63,4.63,0,0,1,1,1,1.54,1.54,0,0,1,.35.82l-.63.32V30a1.45,1.45,0,0,1,.41-1,1.38,1.38,0,0,1,1-.42,1.43,1.43,0,0,1,1,.41,1.42,1.42,0,0,1,.4,1.05V40.63a5.63,5.63,0,0,1-.9,3.35,5.1,5.1,0,0,1-2.36,1.83,8.79,8.79,0,0,1-3.14.56A8.44,8.44,0,0,1,59,46.25c-.51-.08-1-.18-1.47-.29a7.43,7.43,0,0,1-1-.31,2.11,2.11,0,0,1-1-.78,1.2,1.2,0,0,1-.11-1,1.5,1.5,0,0,1,.7-.94,1.19,1.19,0,0,1,1-.06c.16,0,.42.14.79.28a10.73,10.73,0,0,0,1.21.4,4.51,4.51,0,0,0,1.17.18A4.1,4.1,0,0,0,62.92,43a2.43,2.43,0,0,0,.86-2V38.93l.29.22a1.4,1.4,0,0,1-.32.75,4.37,4.37,0,0,1-.89.88,5.44,5.44,0,0,1-1.33.73,4.45,4.45,0,0,1-1.63.3A5.71,5.71,0,0,1,56.82,41a6.06,6.06,0,0,1-2.16-2.35,8,8,0,0,1,0-6.92,6.08,6.08,0,0,1,2.14-2.35A5.49,5.49,0,0,1,59.8,28.49Zm.46,2.64a3.43,3.43,0,0,0-1.9.53,3.56,3.56,0,0,0-1.27,1.44,4.8,4.8,0,0,0,0,4.1,3.56,3.56,0,0,0,1.27,1.44,3.43,3.43,0,0,0,1.9.53,3.5,3.5,0,0,0,1.92-.53,3.63,3.63,0,0,0,1.27-1.44,4.89,4.89,0,0,0,0-4.1,3.63,3.63,0,0,0-1.27-1.44A3.5,3.5,0,0,0,60.26,31.13Z"/><path class="cls-3" d="M80.1,28.49a1.39,1.39,0,0,1,1,.41A1.42,1.42,0,0,1,81.54,30V40.11a1.45,1.45,0,0,1-.41,1,1.36,1.36,0,0,1-1,.42,1.38,1.38,0,0,1-1-.42,1.45,1.45,0,0,1-.41-1V38.93l.53.22a1.31,1.31,0,0,1-.34.75,4.51,4.51,0,0,1-.91.88,5.41,5.41,0,0,1-1.35.73,4.71,4.71,0,0,1-1.7.3,5.49,5.49,0,0,1-3-.85,6,6,0,0,1-2.12-2.35,8.06,8.06,0,0,1,0-6.92,6.07,6.07,0,0,1,2.1-2.35,5.28,5.28,0,0,1,2.93-.85,5.47,5.47,0,0,1,1.89.31,5.6,5.6,0,0,1,1.5.79,4.6,4.6,0,0,1,1,1,1.51,1.51,0,0,1,.34.82l-.86.32V30a1.45,1.45,0,0,1,.41-1A1.38,1.38,0,0,1,80.1,28.49ZM75.25,39.17a3.27,3.27,0,0,0,1.85-.53,3.56,3.56,0,0,0,1.24-1.44,5,5,0,0,0,0-4.1,3.56,3.56,0,0,0-1.24-1.44,3.44,3.44,0,0,0-3.67,0,3.56,3.56,0,0,0-1.24,1.44,5,5,0,0,0,0,4.1,3.56,3.56,0,0,0,1.24,1.44A3.24,3.24,0,0,0,75.25,39.17Z"/><path class="cls-3" d="M91.39,28.49a4.24,4.24,0,0,1,2.7.74,3.77,3.77,0,0,1,1.27,2A9.86,9.86,0,0,1,95.71,34v6.15a1.44,1.44,0,0,1-.4,1,1.4,1.4,0,0,1-1,.42,1.38,1.38,0,0,1-1-.42,1.45,1.45,0,0,1-.41-1V34a4.58,4.58,0,0,0-.2-1.43,2,2,0,0,0-.73-1,2.61,2.61,0,0,0-1.51-.38,3.18,3.18,0,0,0-1.62.38,2.6,2.6,0,0,0-1,1A2.86,2.86,0,0,0,87.41,34v6.15a1.45,1.45,0,0,1-.41,1,1.47,1.47,0,0,1-2.06,0,1.41,1.41,0,0,1-.41-1V30.19a1.41,1.41,0,0,1,.41-1,1.47,1.47,0,0,1,2.06,0,1.45,1.45,0,0,1,.41,1v1l-.36-.08a4.59,4.59,0,0,1,.62-.87,6.27,6.27,0,0,1,1-.88,5.13,5.13,0,0,1,1.25-.66A4.39,4.39,0,0,1,91.39,28.49Z"/><path class="cls-3" d="M111,35.16a6.8,6.8,0,0,1-.87,3.47A6.31,6.31,0,0,1,107.78,41a6.88,6.88,0,0,1-6.59,0,6.31,6.31,0,0,1-2.36-2.34,7.36,7.36,0,0,1,0-6.94,6.56,6.56,0,0,1,11.31,0A6.8,6.8,0,0,1,111,35.16Zm-2.88,0a4.34,4.34,0,0,0-.49-2.12,3.74,3.74,0,0,0-1.32-1.41,3.62,3.62,0,0,0-3.67,0A3.74,3.74,0,0,0,101.33,33a4.34,4.34,0,0,0-.49,2.12,4.29,4.29,0,0,0,.49,2.1,3.74,3.74,0,0,0,1.32,1.41,3.62,3.62,0,0,0,3.67,0,3.74,3.74,0,0,0,1.32-1.41A4.29,4.29,0,0,0,108.13,35.16Z"/><path class="cls-3" d="M112.53,39.58a1.4,1.4,0,0,1-.22-.87,1.16,1.16,0,0,1,.63-.91,1.23,1.23,0,0,1,.81-.2,1.33,1.33,0,0,1,.84.44,5.39,5.39,0,0,0,1.47,1.08,4.21,4.21,0,0,0,1.92.39c.24,0,.5-.06.79-.11a1.51,1.51,0,0,0,.75-.39,1.17,1.17,0,0,0,.33-.92,1.06,1.06,0,0,0-.36-.84,3.15,3.15,0,0,0-.95-.53c-.39-.14-.83-.28-1.31-.41s-1-.3-1.52-.48a6.08,6.08,0,0,1-1.43-.68A3.26,3.26,0,0,1,113.22,34a3.41,3.41,0,0,1-.4-1.75,3.15,3.15,0,0,1,.67-2A4.37,4.37,0,0,1,115.23,29a5.55,5.55,0,0,1,2.24-.46,7.19,7.19,0,0,1,1.56.18,5.87,5.87,0,0,1,1.56.58,3.83,3.83,0,0,1,1.25,1,1.65,1.65,0,0,1,.31.86,1,1,0,0,1-.46.92,1.15,1.15,0,0,1-.83.25,1.27,1.27,0,0,1-.8-.33,2.82,2.82,0,0,0-1.09-.84,3.86,3.86,0,0,0-1.57-.31,3.74,3.74,0,0,0-.78.09,1.44,1.44,0,0,0-.73.36,1.09,1.09,0,0,0-.32.87,1.11,1.11,0,0,0,.37.88,2.86,2.86,0,0,0,1,.53l1.31.39c.47.13,1,.28,1.46.46a5.87,5.87,0,0,1,1.37.69,3.41,3.41,0,0,1,1,1.12,3.61,3.61,0,0,1,.38,1.74,3.16,3.16,0,0,1-.72,2.09,4.66,4.66,0,0,1-1.8,1.31,5.88,5.88,0,0,1-2.21.44,8.52,8.52,0,0,1-2.83-.49A4.92,4.92,0,0,1,112.53,39.58Z"/><path class="cls-3" d="M142,23.81a1.39,1.39,0,0,1,1,.41,1.42,1.42,0,0,1,.41,1.05V40.11a1.45,1.45,0,0,1-.41,1,1.47,1.47,0,0,1-2.06,0,1.45,1.45,0,0,1-.41-1V38.93l.53.22a1.31,1.31,0,0,1-.34.75,4.51,4.51,0,0,1-.91.88,5.59,5.59,0,0,1-1.35.73,4.75,4.75,0,0,1-1.7.3,5.49,5.49,0,0,1-3-.85,6,6,0,0,1-2.12-2.35,8.06,8.06,0,0,1,0-6.92,6.07,6.07,0,0,1,2.1-2.35,5.26,5.26,0,0,1,2.93-.85,5.47,5.47,0,0,1,1.89.31,5.6,5.6,0,0,1,1.5.79,4.6,4.6,0,0,1,1,1,1.51,1.51,0,0,1,.34.82l-.86.32V25.27a1.45,1.45,0,0,1,.41-1A1.36,1.36,0,0,1,142,23.81ZM137.1,39.17a3.27,3.27,0,0,0,1.85-.53,3.56,3.56,0,0,0,1.24-1.44,5,5,0,0,0,0-4.1A3.56,3.56,0,0,0,139,31.66a3.27,3.27,0,0,0-1.85-.53,3.22,3.22,0,0,0-1.82.53A3.56,3.56,0,0,0,134,33.1a5,5,0,0,0,0,4.1,3.56,3.56,0,0,0,1.24,1.44A3.22,3.22,0,0,0,137.1,39.17Z"/><path class="cls-3" d="M152.32,41.81a7,7,0,0,1-3.54-.85,5.9,5.9,0,0,1-2.3-2.32,6.7,6.7,0,0,1-.8-3.31,7.29,7.29,0,0,1,.87-3.68,6.21,6.21,0,0,1,2.29-2.34,5.89,5.89,0,0,1,3-.82,5.56,5.56,0,0,1,2.32.5,6.44,6.44,0,0,1,1.93,1.38,6.61,6.61,0,0,1,1.33,2,6.17,6.17,0,0,1,.5,2.45,1.26,1.26,0,0,1-.46.94,1.52,1.52,0,0,1-1,.36h-9.17l-.72-2.4h8.81l-.53.48v-.65a2.14,2.14,0,0,0-.49-1.25,3.18,3.18,0,0,0-1.1-.88,3.24,3.24,0,0,0-1.41-.32,4.48,4.48,0,0,0-1.34.19,2.59,2.59,0,0,0-1.08.65,3.09,3.09,0,0,0-.72,1.22,6,6,0,0,0-.26,2,4.09,4.09,0,0,0,.54,2.19,3.65,3.65,0,0,0,1.39,1.37,3.73,3.73,0,0,0,1.81.47A6,6,0,0,0,153.6,39a3.63,3.63,0,0,0,.85-.35c.21-.14.41-.25.59-.35a1.86,1.86,0,0,1,.81-.22,1.21,1.21,0,0,1,1.23,1.2,1.5,1.5,0,0,1-.68,1.18,5.47,5.47,0,0,1-1.75.92A6.84,6.84,0,0,1,152.32,41.81Z"/><path class="cls-3" d="M163.11,40.11a1.43,1.43,0,0,1-1.46,1.46,1.35,1.35,0,0,1-1-.42,1.45,1.45,0,0,1-.41-1V25.27a1.43,1.43,0,0,1,1.46-1.46,1.36,1.36,0,0,1,1,.42,1.48,1.48,0,0,1,.39,1Z"/><path class="cls-3" d="M172.45,39.58a1.33,1.33,0,0,1-.22-.87,1.16,1.16,0,0,1,.63-.91,1.23,1.23,0,0,1,.81-.2,1.33,1.33,0,0,1,.84.44A5.25,5.25,0,0,0,176,39.12a4.21,4.21,0,0,0,1.92.39c.23,0,.5-.06.79-.11a1.51,1.51,0,0,0,.75-.39,1.17,1.17,0,0,0,.33-.92,1.06,1.06,0,0,0-.36-.84,3.15,3.15,0,0,0-.95-.53c-.39-.14-.83-.28-1.31-.41s-1-.3-1.52-.48a6.08,6.08,0,0,1-1.43-.68A3.26,3.26,0,0,1,173.14,34a3.41,3.41,0,0,1-.41-1.75,3.16,3.16,0,0,1,.68-2A4.23,4.23,0,0,1,175.15,29a5.55,5.55,0,0,1,2.24-.46,7.19,7.19,0,0,1,1.56.18,6,6,0,0,1,1.56.58,3.83,3.83,0,0,1,1.25,1,1.75,1.75,0,0,1,.31.86,1,1,0,0,1-.46.92,1.18,1.18,0,0,1-.84.25A1.26,1.26,0,0,1,180,32a2.82,2.82,0,0,0-1.09-.84,3.86,3.86,0,0,0-1.57-.31,3.74,3.74,0,0,0-.78.09,1.4,1.4,0,0,0-.73.36,1.09,1.09,0,0,0-.32.87,1.11,1.11,0,0,0,.37.88,2.77,2.77,0,0,0,1,.53c.4.13.84.26,1.3.39s1,.28,1.47.46a6.07,6.07,0,0,1,1.37.69,3.41,3.41,0,0,1,1,1.12,3.61,3.61,0,0,1,.38,1.74,3.16,3.16,0,0,1-.72,2.09,4.66,4.66,0,0,1-1.8,1.31,5.88,5.88,0,0,1-2.21.44,8.52,8.52,0,0,1-2.83-.49A4.88,4.88,0,0,1,172.45,39.58Z"/><path class="cls-3" d="M186,27.17a2,2,0,0,1-1.15-.26,1.15,1.15,0,0,1-.33-.94v-.46a1,1,0,0,1,.37-.94,2,2,0,0,1,1.14-.26,2,2,0,0,1,1.18.27,1.13,1.13,0,0,1,.33.93V26a1.1,1.1,0,0,1-.36,1A2.09,2.09,0,0,1,186,27.17Zm1.47,12.94a1.45,1.45,0,0,1-.41,1,1.47,1.47,0,0,1-2.06,0,1.41,1.41,0,0,1-.41-1V30.19a1.41,1.41,0,0,1,.41-1,1.47,1.47,0,0,1,2.06,0,1.45,1.45,0,0,1,.41,1Z"/><path class="cls-3" d="M189.68,39.58a1.33,1.33,0,0,1-.22-.87,1.17,1.17,0,0,1,.62-.91,1.27,1.27,0,0,1,.82-.2,1.33,1.33,0,0,1,.84.44,5.35,5.35,0,0,0,1.46,1.08,4.27,4.27,0,0,0,1.92.39c.24,0,.51-.06.8-.11a1.55,1.55,0,0,0,.75-.39,1.17,1.17,0,0,0,.33-.92,1.06,1.06,0,0,0-.36-.84,3.15,3.15,0,0,0-.95-.53c-.39-.14-.83-.28-1.31-.41s-1-.3-1.52-.48a6.08,6.08,0,0,1-1.43-.68A3.26,3.26,0,0,1,190.37,34a3.41,3.41,0,0,1-.41-1.75,3.16,3.16,0,0,1,.68-2A4.23,4.23,0,0,1,192.38,29a5.55,5.55,0,0,1,2.24-.46,7.19,7.19,0,0,1,1.56.18,6,6,0,0,1,1.56.58,3.83,3.83,0,0,1,1.25,1,1.75,1.75,0,0,1,.31.86,1,1,0,0,1-.46.92,1.18,1.18,0,0,1-.84.25,1.26,1.26,0,0,1-.79-.33,2.82,2.82,0,0,0-1.09-.84,3.89,3.89,0,0,0-1.57-.31,3.74,3.74,0,0,0-.78.09,1.4,1.4,0,0,0-.73.36,1.09,1.09,0,0,0-.32.87,1.13,1.13,0,0,0,.36.88,2.91,2.91,0,0,0,1,.53c.4.13.84.26,1.3.39s1,.28,1.47.46a6.07,6.07,0,0,1,1.37.69,3.27,3.27,0,0,1,1,1.12,3.5,3.5,0,0,1,.39,1.74,3.16,3.16,0,0,1-.72,2.09,4.66,4.66,0,0,1-1.8,1.31,5.88,5.88,0,0,1-2.21.44,8.52,8.52,0,0,1-2.83-.49A4.88,4.88,0,0,1,189.68,39.58Z"/><path class="cls-3" d="M202.13,29h5.69a1.34,1.34,0,0,1,1,.38,1.3,1.3,0,0,1,.38,1,1.23,1.23,0,0,1-.38.93,1.33,1.33,0,0,1-1,.37h-5.69a1.3,1.3,0,0,1-1.34-1.34,1.27,1.27,0,0,1,.38-.93A1.33,1.33,0,0,1,202.13,29Zm2.57-3a1.33,1.33,0,0,1,1,.42,1.48,1.48,0,0,1,.4,1V38.11a1.06,1.06,0,0,0,.13.56.83.83,0,0,0,.36.31,1.3,1.3,0,0,0,.49.09,1.32,1.32,0,0,0,.53-.1,1.2,1.2,0,0,1,.55-.11.8.8,0,0,1,.61.31,1.24,1.24,0,0,1,.28.86,1.29,1.29,0,0,1-.73,1.11,3.05,3.05,0,0,1-1.58.43,9.34,9.34,0,0,1-1.11-.08,3.17,3.17,0,0,1-1.15-.41,2.52,2.52,0,0,1-.9-1,4,4,0,0,1-.36-1.85V27.43a1.42,1.42,0,0,1,.42-1A1.4,1.4,0,0,1,204.7,26Z"/><path class="cls-3" d="M217.05,41.81a7,7,0,0,1-3.54-.85,5.83,5.83,0,0,1-2.3-2.32,6.71,6.71,0,0,1-.81-3.31,7.19,7.19,0,0,1,.88-3.68,6.13,6.13,0,0,1,2.29-2.34,5.84,5.84,0,0,1,3-.82,5.56,5.56,0,0,1,2.32.5,6.56,6.56,0,0,1,1.93,1.38,6.8,6.8,0,0,1,1.33,2,6.16,6.16,0,0,1,.49,2.45,1.25,1.25,0,0,1-.45.94,1.54,1.54,0,0,1-1,.36H212l-.72-2.4h8.81l-.53.48v-.65a2.21,2.21,0,0,0-.49-1.25,3.31,3.31,0,0,0-1.11-.88,3.19,3.19,0,0,0-1.4-.32,4.43,4.43,0,0,0-1.34.19,2.59,2.59,0,0,0-1.08.65,3,3,0,0,0-.72,1.22,6,6,0,0,0-.27,2,4.18,4.18,0,0,0,.54,2.19,3.72,3.72,0,0,0,1.39,1.37,3.77,3.77,0,0,0,1.82.47,5.84,5.84,0,0,0,1.41-.14,3.46,3.46,0,0,0,.85-.35l.59-.35a1.9,1.9,0,0,1,.82-.22,1.15,1.15,0,0,1,.87.36,1.14,1.14,0,0,1,.35.84,1.48,1.48,0,0,1-.67,1.18,5.58,5.58,0,0,1-1.75.92A6.84,6.84,0,0,1,217.05,41.81Z"/><path class="cls-3" d="M231.58,28.49a3.88,3.88,0,0,1,2.84.92,4.72,4.72,0,0,1,1.2,2.39l-.41-.21.19-.39a5.73,5.73,0,0,1,2.34-2.27,4.13,4.13,0,0,1,1.91-.44,4.08,4.08,0,0,1,2.63.74,3.77,3.77,0,0,1,1.23,2,10.25,10.25,0,0,1,.34,2.75v6.15a1.45,1.45,0,0,1-.41,1,1.38,1.38,0,0,1-1,.42,1.36,1.36,0,0,1-1-.42,1.41,1.41,0,0,1-.41-1V34a5.27,5.27,0,0,0-.19-1.43,2,2,0,0,0-.7-1,2.4,2.4,0,0,0-1.44-.38,3.05,3.05,0,0,0-1.56.38,2.5,2.5,0,0,0-1,1,3.07,3.07,0,0,0-.33,1.43v6.15a1.44,1.44,0,0,1-.4,1,1.4,1.4,0,0,1-1,.42,1.38,1.38,0,0,1-1-.42,1.45,1.45,0,0,1-.41-1V34a4.9,4.9,0,0,0-.19-1.43,2,2,0,0,0-.69-1,2.4,2.4,0,0,0-1.44-.38,3.05,3.05,0,0,0-1.56.38,2.52,2.52,0,0,0-1,1,3.2,3.2,0,0,0-.32,1.43v6.15a1.45,1.45,0,0,1-.41,1,1.47,1.47,0,0,1-2.06,0,1.45,1.45,0,0,1-.41-1V30.19a1.45,1.45,0,0,1,.41-1,1.47,1.47,0,0,1,2.06,0,1.45,1.45,0,0,1,.41,1v1l-.36-.08a4.88,4.88,0,0,1,.6-.87,5.31,5.31,0,0,1,.94-.88,4.93,4.93,0,0,1,1.22-.66A4.11,4.11,0,0,1,231.58,28.49Z"/><path class="cls-3" d="M257.22,28.49a1.41,1.41,0,0,1,1,.41,1.42,1.42,0,0,1,.41,1.05V40.11a1.45,1.45,0,0,1-.41,1,1.38,1.38,0,0,1-1,.42,1.4,1.4,0,0,1-1-.42,1.44,1.44,0,0,1-.4-1V38.93l.52.22a1.35,1.35,0,0,1-.33.75,4.8,4.8,0,0,1-.91.88,5.66,5.66,0,0,1-1.36.73,4.66,4.66,0,0,1-1.69.3,5.44,5.44,0,0,1-3-.85,6,6,0,0,1-2.13-2.35,8.06,8.06,0,0,1,0-6.92,6.07,6.07,0,0,1,2.1-2.35,5.28,5.28,0,0,1,2.93-.85,5.53,5.53,0,0,1,1.9.31,5.92,5.92,0,0,1,1.5.79,4.53,4.53,0,0,1,1,1,1.54,1.54,0,0,1,.35.82l-.86.32V30a1.44,1.44,0,0,1,.4-1A1.4,1.4,0,0,1,257.22,28.49Zm-4.85,10.68a3.29,3.29,0,0,0,1.85-.53,3.54,3.54,0,0,0,1.23-1.44,4.89,4.89,0,0,0,0-4.1,3.54,3.54,0,0,0-1.23-1.44,3.29,3.29,0,0,0-1.85-.53,3.25,3.25,0,0,0-1.83.53,3.54,3.54,0,0,0-1.23,1.44,4.89,4.89,0,0,0,0,4.1,3.54,3.54,0,0,0,1.23,1.44A3.25,3.25,0,0,0,252.37,39.17Z"/><path class="cls-3" d="M278.89,23.81a1.41,1.41,0,0,1,1,.41,1.42,1.42,0,0,1,.41,1.05V40.11a1.45,1.45,0,0,1-.41,1,1.38,1.38,0,0,1-1,.42,1.36,1.36,0,0,1-1-.42,1.41,1.41,0,0,1-.41-1V38.93l.53.22a1.38,1.38,0,0,1-.34.75,4.51,4.51,0,0,1-.91.88,5.66,5.66,0,0,1-1.36.73,4.66,4.66,0,0,1-1.69.3,5.49,5.49,0,0,1-3-.85,6,6,0,0,1-2.12-2.35,8.06,8.06,0,0,1,0-6.92,6.07,6.07,0,0,1,2.1-2.35,5.25,5.25,0,0,1,2.92-.85,5.53,5.53,0,0,1,1.9.31,5.6,5.6,0,0,1,1.5.79,4.53,4.53,0,0,1,1,1,1.46,1.46,0,0,1,.35.82l-.86.32V25.27a1.41,1.41,0,0,1,.41-1A1.36,1.36,0,0,1,278.89,23.81ZM274,39.17a3.29,3.29,0,0,0,1.85-.53,3.47,3.47,0,0,0,1.23-1.44,4.89,4.89,0,0,0,0-4.1,3.47,3.47,0,0,0-1.23-1.44,3.29,3.29,0,0,0-1.85-.53,3.19,3.19,0,0,0-1.82.53A3.56,3.56,0,0,0,271,33.1a5,5,0,0,0,0,4.1,3.56,3.56,0,0,0,1.24,1.44A3.19,3.19,0,0,0,274,39.17Z"/><path class="cls-3" d="M284.65,27.17a2,2,0,0,1-1.16-.26,1.15,1.15,0,0,1-.33-.94v-.46a1,1,0,0,1,.37-.94,2,2,0,0,1,1.14-.26,2,2,0,0,1,1.18.27,1.13,1.13,0,0,1,.33.93V26a1.1,1.1,0,0,1-.36,1A2.07,2.07,0,0,1,284.65,27.17Zm1.46,12.94a1.45,1.45,0,0,1-.41,1,1.47,1.47,0,0,1-2.06,0,1.41,1.41,0,0,1-.41-1V30.19a1.41,1.41,0,0,1,.41-1,1.47,1.47,0,0,1,2.06,0,1.45,1.45,0,0,1,.41,1Z"/><path class="cls-3" d="M294.25,28.49a5.28,5.28,0,0,1,1.85.31,5.58,5.58,0,0,1,1.45.79,4.89,4.89,0,0,1,1,1,1.54,1.54,0,0,1,.35.82l-.63.32V30a1.45,1.45,0,0,1,.41-1,1.38,1.38,0,0,1,1-.42A1.4,1.4,0,0,1,301.11,30V40.63a5.63,5.63,0,0,1-.9,3.35,5.15,5.15,0,0,1-2.36,1.83,8.85,8.85,0,0,1-3.15.56,8.33,8.33,0,0,1-1.24-.12c-.52-.08-1-.18-1.47-.29a7.43,7.43,0,0,1-1.05-.31,2.06,2.06,0,0,1-1-.78,1.2,1.2,0,0,1-.11-1,1.5,1.5,0,0,1,.7-.94,1.19,1.19,0,0,1,1-.06c.15,0,.42.14.79.28a10.1,10.1,0,0,0,1.21.4,4.51,4.51,0,0,0,1.16.18,4.13,4.13,0,0,0,2.67-.72,2.46,2.46,0,0,0,.86-2V38.93l.29.22a1.35,1.35,0,0,1-.33.75,4.3,4.3,0,0,1-.88.88,5.44,5.44,0,0,1-1.33.73,4.5,4.5,0,0,1-1.64.3,5.68,5.68,0,0,1-3.07-.85,6.06,6.06,0,0,1-2.16-2.35,8,8,0,0,1,0-6.92,6.08,6.08,0,0,1,2.14-2.35A5.44,5.44,0,0,1,294.25,28.49Zm.45,2.64a3.4,3.4,0,0,0-1.89.53,3.49,3.49,0,0,0-1.27,1.44,4.8,4.8,0,0,0,0,4.1,3.49,3.49,0,0,0,1.27,1.44,3.4,3.4,0,0,0,1.89.53,3.45,3.45,0,0,0,1.92-.53,3.58,3.58,0,0,0,1.28-1.44,4.89,4.89,0,0,0,0-4.1,3.58,3.58,0,0,0-1.28-1.44A3.45,3.45,0,0,0,294.7,31.13Z"/><path class="cls-3" d="M310.08,41.81a7,7,0,0,1-3.53-.85,5.86,5.86,0,0,1-2.31-2.32,6.7,6.7,0,0,1-.8-3.31,7.29,7.29,0,0,1,.87-3.68,6.16,6.16,0,0,1,2.3-2.34,5.84,5.84,0,0,1,3-.82,5.55,5.55,0,0,1,2.31.5,6.44,6.44,0,0,1,1.93,1.38,6.83,6.83,0,0,1,1.34,2,6.34,6.34,0,0,1,.49,2.45,1.26,1.26,0,0,1-.46.94,1.52,1.52,0,0,1-1,.36h-9.16l-.73-2.4h8.81l-.52.48v-.65a2.22,2.22,0,0,0-.5-1.25,3.18,3.18,0,0,0-1.1-.88,3.23,3.23,0,0,0-1.4-.32,4.5,4.5,0,0,0-1.35.19,2.59,2.59,0,0,0-1.08.65,3.21,3.21,0,0,0-.72,1.22,6,6,0,0,0-.26,2,4.18,4.18,0,0,0,.54,2.19,3.65,3.65,0,0,0,1.39,1.37,3.73,3.73,0,0,0,1.81.47,6,6,0,0,0,1.42-.14,3.63,3.63,0,0,0,.85-.35l.59-.35a1.86,1.86,0,0,1,.81-.22,1.21,1.21,0,0,1,1.23,1.2,1.5,1.5,0,0,1-.68,1.18,5.47,5.47,0,0,1-1.75.92A6.8,6.8,0,0,1,310.08,41.81Z"/><path class="cls-3" d="M317.11,39.58a1.33,1.33,0,0,1-.21-.87,1.14,1.14,0,0,1,.62-.91,1.27,1.27,0,0,1,.82-.2,1.38,1.38,0,0,1,.84.44,5.35,5.35,0,0,0,1.46,1.08,4.21,4.21,0,0,0,1.92.39c.24,0,.5-.06.79-.11a1.58,1.58,0,0,0,.76-.39,1.21,1.21,0,0,0,.32-.92,1.06,1.06,0,0,0-.36-.84,3,3,0,0,0-.95-.53c-.39-.14-.82-.28-1.3-.41s-1-.3-1.53-.48a6.28,6.28,0,0,1-1.43-.68A3.23,3.23,0,0,1,317.81,34a3.41,3.41,0,0,1-.41-1.75,3.15,3.15,0,0,1,.67-2A4.37,4.37,0,0,1,319.81,29a5.56,5.56,0,0,1,2.25-.46,7.33,7.33,0,0,1,1.56.18,6,6,0,0,1,1.56.58,3.79,3.79,0,0,1,1.24,1,1.76,1.76,0,0,1,.32.86,1,1,0,0,1-.46.92,1.18,1.18,0,0,1-.84.25,1.26,1.26,0,0,1-.79-.33,2.9,2.9,0,0,0-1.09-.84,3.91,3.91,0,0,0-1.58-.31,3.74,3.74,0,0,0-.78.09,1.44,1.44,0,0,0-.73.36,1.09,1.09,0,0,0-.31.87,1.13,1.13,0,0,0,.36.88,2.86,2.86,0,0,0,1,.53l1.31.39c.48.13,1,.28,1.46.46a5.68,5.68,0,0,1,1.37.69,3.3,3.3,0,0,1,1,1.12A3.5,3.5,0,0,1,327,38a3.16,3.16,0,0,1-.72,2.09,4.66,4.66,0,0,1-1.8,1.31,5.83,5.83,0,0,1-2.2.44,8.57,8.57,0,0,1-2.84-.49A5,5,0,0,1,317.11,39.58Z"/><path class="cls-3" d="M329.57,29h5.69a1.3,1.3,0,0,1,1.34,1.34,1.27,1.27,0,0,1-.38.93,1.33,1.33,0,0,1-1,.37h-5.69a1.32,1.32,0,0,1-1.35-1.34,1.24,1.24,0,0,1,.39-.93A1.3,1.3,0,0,1,329.57,29Zm2.57-3a1.36,1.36,0,0,1,1,.42,1.48,1.48,0,0,1,.39,1V38.11a1.16,1.16,0,0,0,.13.56A.83.83,0,0,0,334,39a1.39,1.39,0,0,0,.5.09,1.27,1.27,0,0,0,.52-.1,1.25,1.25,0,0,1,.56-.11.81.81,0,0,1,.61.31,1.28,1.28,0,0,1,.27.86,1.27,1.27,0,0,1-.73,1.11,3,3,0,0,1-1.57.43,9.35,9.35,0,0,1-1.12-.08,3.24,3.24,0,0,1-1.15-.41,2.52,2.52,0,0,1-.9-1,4,4,0,0,1-.36-1.85V27.43A1.44,1.44,0,0,1,332.14,26Z"/><path class="cls-3" d="M340.09,27.17a2,2,0,0,1-1.15-.26,1.15,1.15,0,0,1-.34-.94v-.46a1,1,0,0,1,.38-.94,2,2,0,0,1,1.14-.26,1.9,1.9,0,0,1,1.17.27,1.1,1.1,0,0,1,.34.93V26a1.1,1.1,0,0,1-.36,1A2.09,2.09,0,0,1,340.09,27.17Zm1.47,12.94a1.45,1.45,0,0,1-.41,1,1.38,1.38,0,0,1-1,.42,1.4,1.4,0,0,1-1-.42,1.44,1.44,0,0,1-.4-1V30.19a1.44,1.44,0,0,1,.4-1,1.4,1.4,0,0,1,1-.42,1.38,1.38,0,0,1,1,.42,1.45,1.45,0,0,1,.41,1Z"/><path class="cls-3" d="M344.76,28.73a1.6,1.6,0,0,1,.84.23,1.39,1.39,0,0,1,.58.68l3.53,8.07-.53.24,3.6-8.28a1.27,1.27,0,0,1,1.27-.92,1.3,1.3,0,0,1,1,.38,1.25,1.25,0,0,1,.32,1.28,3,3,0,0,1-.14.36l-4.48,9.89a1.39,1.39,0,0,1-1.23.91,1.29,1.29,0,0,1-.87-.17,1.51,1.51,0,0,1-.64-.74l-4.46-9.89a2.14,2.14,0,0,1-.11-.31,1.56,1.56,0,0,1-.06-.46,1.28,1.28,0,0,1,.38-.85A1.33,1.33,0,0,1,344.76,28.73Z"/><path class="cls-3" d="M369.36,35.16a6.8,6.8,0,0,1-.87,3.47A6.31,6.31,0,0,1,366.13,41a6.9,6.9,0,0,1-6.6,0,6.36,6.36,0,0,1-2.35-2.34,7.36,7.36,0,0,1,0-6.94,6.56,6.56,0,0,1,11.31,0A6.8,6.8,0,0,1,369.36,35.16Zm-2.88,0A4.34,4.34,0,0,0,366,33a3.74,3.74,0,0,0-1.32-1.41,3.62,3.62,0,0,0-3.67,0A3.74,3.74,0,0,0,359.68,33a4.34,4.34,0,0,0-.49,2.12,4.29,4.29,0,0,0,.49,2.1A3.74,3.74,0,0,0,361,38.67a3.62,3.62,0,0,0,3.67,0A3.74,3.74,0,0,0,366,37.26,4.29,4.29,0,0,0,366.48,35.16Z"/></g></g></g></svg>