<svg xmlns="http://www.w3.org/2000/svg" viewBox="0 0 414.59 71"><defs><style>.cls-1{isolation:isolate;}.cls-2{opacity:0.3;mix-blend-mode:multiply;}.cls-3{fill:#fff;}.cls-4{fill:#29abe2;}</style></defs><title>lab03-tit4</title><g class="cls-1"><g id="Layer_2" data-name="Layer 2"><g id="Layer_1-2" data-name="Layer 1"><g class="cls-2"><rect x="4" y="4" width="410.59" height="67" rx="12" ry="12"/></g><rect class="cls-3" width="410.59" height="67" rx="12" ry="12"/><rect class="cls-4" x="4.03" y="3.07" width="402.53" height="60.87" rx="11.19" ry="11.19"/><path class="cls-3" d="M38.48,27.58a1.29,1.29,0,0,1,.73,1,1.47,1.47,0,0,1-.35,1.22,1.07,1.07,0,0,1-.8.48,1.9,1.9,0,0,1-1-.19,6.16,6.16,0,0,0-1.21-.41,5.77,5.77,0,0,0-1.33-.14,6.24,6.24,0,0,0-2.32.4,4.9,4.9,0,0,0-1.74,1.17,5,5,0,0,0-1.09,1.79A6.57,6.57,0,0,0,29,35.17a7,7,0,0,0,.42,2.54,5,5,0,0,0,1.16,1.8,4.7,4.7,0,0,0,1.75,1.07,6.75,6.75,0,0,0,2.19.35,7,7,0,0,0,1.29-.12,4.33,4.33,0,0,0,1.25-.44,1.7,1.7,0,0,1,1-.16,1.23,1.23,0,0,1,.83.5A1.44,1.44,0,0,1,39.23,42a1.24,1.24,0,0,1-.73.92,8.37,8.37,0,0,1-1.28.52,10.65,10.65,0,0,1-1.33.31,8.94,8.94,0,0,1-1.37.11,9.66,9.66,0,0,1-3.28-.56,8.2,8.2,0,0,1-2.76-1.63,7.6,7.6,0,0,1-1.91-2.7,9.5,9.5,0,0,1-.69-3.75,9,9,0,0,1,.63-3.41,8.09,8.09,0,0,1,1.8-2.7,8.52,8.52,0,0,1,2.75-1.78,9.3,9.3,0,0,1,3.46-.63,8.86,8.86,0,0,1,2.06.24A8.6,8.6,0,0,1,38.48,27.58Z"/><path class="cls-3" d="M50.48,30.73a1.38,1.38,0,0,1,1,.42,1.43,1.43,0,0,1,.41,1v6.1a5.59,5.59,0,0,1-1.42,4,5.36,5.36,0,0,1-4.08,1.49,5.35,5.35,0,0,1-4.07-1.49,5.66,5.66,0,0,1-1.4-4v-6.1a1.43,1.43,0,0,1,.41-1,1.47,1.47,0,0,1,2.06,0,1.43,1.43,0,0,1,.41,1v6.1a3.14,3.14,0,0,0,.65,2.17,2.51,2.51,0,0,0,1.94.71,2.55,2.55,0,0,0,2-.71A3.14,3.14,0,0,0,49,38.29v-6.1a1.39,1.39,0,0,1,.41-1A1.36,1.36,0,0,1,50.48,30.73Z"/><path class="cls-3" d="M56.13,29.17A1.87,1.87,0,0,1,55,28.9a1.13,1.13,0,0,1-.34-.93v-.46a1.08,1.08,0,0,1,.38-1,2,2,0,0,1,1.14-.25,2,2,0,0,1,1.17.26,1.12,1.12,0,0,1,.34.94V28a1.06,1.06,0,0,1-.36.94A2.08,2.08,0,0,1,56.13,29.17ZM57.6,42.1a1.46,1.46,0,0,1-.41,1,1.38,1.38,0,0,1-1,.42,1.4,1.4,0,0,1-1-.42,1.45,1.45,0,0,1-.4-1V32.19a1.43,1.43,0,0,1,.4-1,1.4,1.4,0,0,1,1-.42,1.38,1.38,0,0,1,1,.42,1.43,1.43,0,0,1,.41,1Z"/><path class="cls-3" d="M70.92,25.81a1.4,1.4,0,0,1,1,.4,1.46,1.46,0,0,1,.41,1.06V42.1a1.46,1.46,0,0,1-.41,1,1.38,1.38,0,0,1-1,.42,1.36,1.36,0,0,1-1-.42,1.42,1.42,0,0,1-.41-1V40.93l.53.21a1.41,1.41,0,0,1-.34.76,4.49,4.49,0,0,1-.91.87,5.68,5.68,0,0,1-1.36.74,4.66,4.66,0,0,1-1.69.3,5.5,5.5,0,0,1-3-.86,5.89,5.89,0,0,1-2.12-2.35,8,8,0,0,1,0-6.91,6.07,6.07,0,0,1,2.1-2.35,5.25,5.25,0,0,1,2.92-.85,5.53,5.53,0,0,1,1.9.31,5.6,5.6,0,0,1,1.5.79,4.51,4.51,0,0,1,1,1,1.51,1.51,0,0,1,.35.83l-.86.31V27.27a1.39,1.39,0,0,1,.41-1A1.36,1.36,0,0,1,70.92,25.81ZM66.07,41.17a3.29,3.29,0,0,0,1.85-.53,3.47,3.47,0,0,0,1.23-1.44,4.56,4.56,0,0,0,.45-2,4.63,4.63,0,0,0-.45-2.07,3.6,3.6,0,0,0-1.23-1.44,3.28,3.28,0,0,0-1.85-.52,3.19,3.19,0,0,0-1.82.52A3.7,3.7,0,0,0,63,35.09a4.63,4.63,0,0,0-.44,2.07,4.56,4.56,0,0,0,.44,2,3.56,3.56,0,0,0,1.24,1.44A3.19,3.19,0,0,0,66.07,41.17Z"/><path class="cls-3" d="M85.8,30.49a1.4,1.4,0,0,1,1,.4A1.46,1.46,0,0,1,87.24,32V42.1a1.46,1.46,0,0,1-.41,1,1.38,1.38,0,0,1-1,.42,1.4,1.4,0,0,1-1-.42,1.45,1.45,0,0,1-.4-1V40.93l.52.21a1.38,1.38,0,0,1-.33.76,4.77,4.77,0,0,1-.91.87,5.68,5.68,0,0,1-1.36.74,4.66,4.66,0,0,1-1.69.3,5.45,5.45,0,0,1-3-.86,5.92,5.92,0,0,1-2.13-2.35,8,8,0,0,1,0-6.91,6.07,6.07,0,0,1,2.1-2.35,5.28,5.28,0,0,1,2.93-.85,5.53,5.53,0,0,1,1.9.31,5.92,5.92,0,0,1,1.5.79,4.51,4.51,0,0,1,1,1,1.59,1.59,0,0,1,.35.83l-.86.31V32a1.43,1.43,0,0,1,.4-1A1.4,1.4,0,0,1,85.8,30.49ZM81,41.17a3.29,3.29,0,0,0,1.85-.53A3.54,3.54,0,0,0,84,39.2a4.56,4.56,0,0,0,.45-2A4.63,4.63,0,0,0,84,35.09a3.68,3.68,0,0,0-1.23-1.44A3.28,3.28,0,0,0,81,33.13a3.24,3.24,0,0,0-1.83.52,3.68,3.68,0,0,0-1.23,1.44,4.63,4.63,0,0,0-.45,2.07,4.56,4.56,0,0,0,.45,2,3.54,3.54,0,0,0,1.23,1.44A3.25,3.25,0,0,0,81,41.17Z"/><path class="cls-3" d="M100.67,25.81a1.39,1.39,0,0,1,1,.4,1.42,1.42,0,0,1,.41,1.06V42.1a1.42,1.42,0,0,1-.41,1,1.36,1.36,0,0,1-1,.42,1.38,1.38,0,0,1-1-.42,1.46,1.46,0,0,1-.41-1V40.93l.53.21a1.38,1.38,0,0,1-.33.76,4.56,4.56,0,0,1-.92.87,5.42,5.42,0,0,1-1.35.74,4.69,4.69,0,0,1-1.69.3,5.45,5.45,0,0,1-3-.86,5.92,5.92,0,0,1-2.13-2.35,8,8,0,0,1,0-6.91,6.07,6.07,0,0,1,2.1-2.35,5.28,5.28,0,0,1,2.93-.85,5.53,5.53,0,0,1,1.9.31,5.92,5.92,0,0,1,1.5.79,4.51,4.51,0,0,1,1,1,1.59,1.59,0,0,1,.35.83l-.87.31V27.27a1.43,1.43,0,0,1,.41-1A1.38,1.38,0,0,1,100.67,25.81ZM95.82,41.17a3.24,3.24,0,0,0,1.85-.53,3.56,3.56,0,0,0,1.24-1.44,4.69,4.69,0,0,0,.44-2,4.76,4.76,0,0,0-.44-2.07,3.7,3.7,0,0,0-1.24-1.44,3.5,3.5,0,0,0-3.67,0,3.6,3.6,0,0,0-1.23,1.44,4.63,4.63,0,0,0-.45,2.07,4.56,4.56,0,0,0,.45,2A3.47,3.47,0,0,0,94,40.64,3.24,3.24,0,0,0,95.82,41.17Z"/><path class="cls-3" d="M117.45,37.16a6.8,6.8,0,0,1-.87,3.47A6.36,6.36,0,0,1,114.23,43a6.9,6.9,0,0,1-6.6,0,6.31,6.31,0,0,1-2.36-2.34,7.36,7.36,0,0,1,0-6.94,6.42,6.42,0,0,1,5.66-3.2,6.39,6.39,0,0,1,5.65,3.2A6.8,6.8,0,0,1,117.45,37.16Zm-2.88,0a4.35,4.35,0,0,0-.49-2.13,3.71,3.71,0,0,0-1.32-1.4,3.62,3.62,0,0,0-3.67,0,3.71,3.71,0,0,0-1.32,1.4,4.35,4.35,0,0,0-.49,2.13,4.29,4.29,0,0,0,.49,2.1,3.64,3.64,0,0,0,1.32,1.4,3.56,3.56,0,0,0,3.67,0,3.64,3.64,0,0,0,1.32-1.4A4.29,4.29,0,0,0,114.57,37.16Z"/><path class="cls-3" d="M119,41.57a1.36,1.36,0,0,1-.22-.86,1.17,1.17,0,0,1,.63-.91,1.3,1.3,0,0,1,.81-.21A1.4,1.4,0,0,1,121,40a5.84,5.84,0,0,0,1.47,1.08,4.35,4.35,0,0,0,1.92.38,5,5,0,0,0,.79-.11A1.42,1.42,0,0,0,126,41a1.19,1.19,0,0,0,.33-.92,1,1,0,0,0-.36-.84,3,3,0,0,0-1-.53,13.65,13.65,0,0,0-1.31-.41c-.49-.14-1-.3-1.52-.48a6.5,6.5,0,0,1-1.43-.68,3.17,3.17,0,0,1-1.46-2.87,3.15,3.15,0,0,1,.67-2,4.48,4.48,0,0,1,1.74-1.3,5.71,5.71,0,0,1,2.24-.45,7.19,7.19,0,0,1,1.56.18,6.07,6.07,0,0,1,1.56.57,3.85,3.85,0,0,1,1.25,1.05,1.62,1.62,0,0,1,.31.86,1,1,0,0,1-.45.91,1.14,1.14,0,0,1-.84.25,1.28,1.28,0,0,1-.8-.32,2.82,2.82,0,0,0-1.09-.84,3.7,3.7,0,0,0-1.57-.31,4.49,4.49,0,0,0-.78.08,1.62,1.62,0,0,0-.73.36,1.12,1.12,0,0,0-.31.88,1.1,1.1,0,0,0,.36.87,2.55,2.55,0,0,0,1,.53c.41.14.84.27,1.31.4s1,.28,1.46.45a5.9,5.9,0,0,1,1.37.7,3.41,3.41,0,0,1,1,1.12,3.56,3.56,0,0,1,.38,1.74,3.13,3.13,0,0,1-.72,2.08,4.47,4.47,0,0,1-1.8,1.31,5.71,5.71,0,0,1-2.21.45,8.53,8.53,0,0,1-2.83-.5A4.8,4.8,0,0,1,119,41.57Z"/><path class="cls-3" d="M148.39,25.81a1.39,1.39,0,0,1,1,.4,1.42,1.42,0,0,1,.41,1.06V42.1a1.42,1.42,0,0,1-.41,1,1.36,1.36,0,0,1-1,.42,1.38,1.38,0,0,1-1-.42,1.46,1.46,0,0,1-.41-1V40.93l.53.21a1.33,1.33,0,0,1-.34.76,4.24,4.24,0,0,1-.91.87,5.42,5.42,0,0,1-1.35.74,4.71,4.71,0,0,1-1.7.3,5.5,5.5,0,0,1-3-.86,6,6,0,0,1-2.12-2.35,8,8,0,0,1,0-6.91,6.07,6.07,0,0,1,2.1-2.35,5.28,5.28,0,0,1,2.93-.85,5.43,5.43,0,0,1,1.89.31,5.6,5.6,0,0,1,1.5.79,4.36,4.36,0,0,1,1,1,1.59,1.59,0,0,1,.35.83l-.87.31V27.27a1.43,1.43,0,0,1,.41-1A1.38,1.38,0,0,1,148.39,25.81Zm-4.85,15.36a3.27,3.27,0,0,0,1.85-.53,3.56,3.56,0,0,0,1.24-1.44,4.69,4.69,0,0,0,.44-2,4.76,4.76,0,0,0-.44-2.07,3.7,3.7,0,0,0-1.24-1.44,3.5,3.5,0,0,0-3.67,0,3.7,3.7,0,0,0-1.24,1.44,4.76,4.76,0,0,0-.44,2.07,4.69,4.69,0,0,0,.44,2,3.56,3.56,0,0,0,1.24,1.44A3.24,3.24,0,0,0,143.54,41.17Z"/><path class="cls-3" d="M158.76,43.81a7,7,0,0,1-3.54-.86,5.87,5.87,0,0,1-2.3-2.31,6.73,6.73,0,0,1-.8-3.31,7.35,7.35,0,0,1,.87-3.69,6.35,6.35,0,0,1,2.29-2.34,6,6,0,0,1,3-.81,5.41,5.41,0,0,1,2.32.5,6.52,6.52,0,0,1,3.26,3.41,6.13,6.13,0,0,1,.5,2.45,1.24,1.24,0,0,1-.46.93,1.52,1.52,0,0,1-1,.36h-9.17l-.72-2.4h8.81l-.53.48v-.65a2.11,2.11,0,0,0-.49-1.24,3.18,3.18,0,0,0-1.1-.88,3.1,3.1,0,0,0-1.41-.32,4.48,4.48,0,0,0-1.34.19,2.49,2.49,0,0,0-1.08.65,3.21,3.21,0,0,0-.72,1.22,6,6,0,0,0-.26,1.94,4.2,4.2,0,0,0,.54,2.2,3.65,3.65,0,0,0,1.39,1.37,3.73,3.73,0,0,0,1.81.47A5.45,5.45,0,0,0,160,41a2.94,2.94,0,0,0,.85-.35c.21-.13.41-.25.59-.34a1.73,1.73,0,0,1,.81-.22,1.21,1.21,0,0,1,1.23,1.2,1.52,1.52,0,0,1-.68,1.18,5.47,5.47,0,0,1-1.75.92A7.09,7.09,0,0,1,158.76,43.81Z"/><path class="cls-3" d="M169.55,42.1a1.44,1.44,0,0,1-1.46,1.47,1.35,1.35,0,0,1-1-.42,1.46,1.46,0,0,1-.41-1V27.27a1.4,1.4,0,0,1,.42-1,1.42,1.42,0,0,1,1-.42,1.36,1.36,0,0,1,1,.42,1.46,1.46,0,0,1,.39,1Z"/><path class="cls-3" d="M178.89,41.57a1.36,1.36,0,0,1-.22-.86,1.17,1.17,0,0,1,.63-.91,1.3,1.3,0,0,1,.81-.21A1.4,1.4,0,0,1,181,40a5.84,5.84,0,0,0,1.47,1.08,4.35,4.35,0,0,0,1.92.38,5,5,0,0,0,.79-.11,1.42,1.42,0,0,0,.75-.38,1.19,1.19,0,0,0,.33-.92,1,1,0,0,0-.36-.84,3,3,0,0,0-.95-.53,13.65,13.65,0,0,0-1.31-.41c-.49-.14-1-.3-1.52-.48a6.5,6.5,0,0,1-1.43-.68,3.17,3.17,0,0,1-1.46-2.87,3.15,3.15,0,0,1,.67-2,4.48,4.48,0,0,1,1.74-1.3,5.71,5.71,0,0,1,2.24-.45,7.19,7.19,0,0,1,1.56.18,6.07,6.07,0,0,1,1.56.57,3.85,3.85,0,0,1,1.25,1.05,1.62,1.62,0,0,1,.31.86,1,1,0,0,1-.45.91,1.14,1.14,0,0,1-.84.25,1.28,1.28,0,0,1-.8-.32,2.82,2.82,0,0,0-1.09-.84,3.7,3.7,0,0,0-1.57-.31,4.49,4.49,0,0,0-.78.08,1.62,1.62,0,0,0-.73.36,1.12,1.12,0,0,0-.31.88,1.1,1.1,0,0,0,.36.87,2.55,2.55,0,0,0,1,.53c.41.14.84.27,1.31.4s1,.28,1.46.45a5.9,5.9,0,0,1,1.37.7,3.41,3.41,0,0,1,1,1.12A3.56,3.56,0,0,1,188.8,40a3.13,3.13,0,0,1-.72,2.08,4.47,4.47,0,0,1-1.8,1.31,5.71,5.71,0,0,1-2.21.45,8.53,8.53,0,0,1-2.83-.5A4.8,4.8,0,0,1,178.89,41.57Z"/><path class="cls-3" d="M192.43,29.17a1.9,1.9,0,0,1-1.16-.27,1.13,1.13,0,0,1-.33-.93v-.46a1.07,1.07,0,0,1,.37-1,2.77,2.77,0,0,1,2.32,0,1.15,1.15,0,0,1,.33.94V28a1.06,1.06,0,0,1-.36.94A2.06,2.06,0,0,1,192.43,29.17Zm1.46,12.93a1.46,1.46,0,0,1-.41,1,1.47,1.47,0,0,1-2.06,0,1.46,1.46,0,0,1-.41-1V32.19a1.43,1.43,0,0,1,.41-1,1.47,1.47,0,0,1,2.06,0,1.43,1.43,0,0,1,.41,1Z"/><path class="cls-3" d="M196.12,41.57a1.36,1.36,0,0,1-.22-.86,1.15,1.15,0,0,1,.62-.91,1.35,1.35,0,0,1,.82-.21,1.4,1.4,0,0,1,.84.45,5.84,5.84,0,0,0,1.47,1.08,4.35,4.35,0,0,0,1.92.38,5,5,0,0,0,.79-.11,1.42,1.42,0,0,0,.75-.38,1.19,1.19,0,0,0,.33-.92,1,1,0,0,0-.36-.84,3,3,0,0,0-1-.53,13.65,13.65,0,0,0-1.31-.41c-.5-.14-1-.3-1.52-.48a6.5,6.5,0,0,1-1.43-.68A3.35,3.35,0,0,1,196.81,36a3.43,3.43,0,0,1-.41-1.75,3.16,3.16,0,0,1,.68-2,4.41,4.41,0,0,1,1.74-1.3,5.71,5.71,0,0,1,2.24-.45,7.19,7.19,0,0,1,1.56.18,6.21,6.21,0,0,1,1.56.57,3.85,3.85,0,0,1,1.25,1.05,1.62,1.62,0,0,1,.31.86,1,1,0,0,1-.46.91,1.11,1.11,0,0,1-.84.25,1.25,1.25,0,0,1-.79-.32,2.82,2.82,0,0,0-1.09-.84,3.7,3.7,0,0,0-1.57-.31,4.49,4.49,0,0,0-.78.08,1.62,1.62,0,0,0-.73.36,1.13,1.13,0,0,0-.32.88,1.1,1.1,0,0,0,.36.87,2.68,2.68,0,0,0,1,.53c.4.14.84.27,1.31.4s1,.28,1.46.45a5.9,5.9,0,0,1,1.37.7,3.41,3.41,0,0,1,1,1.12A3.56,3.56,0,0,1,206,40a3.13,3.13,0,0,1-.72,2.08,4.47,4.47,0,0,1-1.8,1.31,5.71,5.71,0,0,1-2.21.45,8.53,8.53,0,0,1-2.83-.5A4.75,4.75,0,0,1,196.12,41.57Z"/><path class="cls-3" d="M208.57,31h5.69a1.28,1.28,0,0,1,1,.38,1.3,1.3,0,0,1,.39,1,1.2,1.2,0,0,1-.39.92,1.32,1.32,0,0,1-1,.38h-5.69a1.32,1.32,0,0,1-1.34-1.35,1.24,1.24,0,0,1,.38-.92A1.33,1.33,0,0,1,208.57,31Zm2.57-3a1.33,1.33,0,0,1,1,.42,1.43,1.43,0,0,1,.4,1V40.11a1,1,0,0,0,.13.55.72.72,0,0,0,.36.31,1.13,1.13,0,0,0,.49.1,1.32,1.32,0,0,0,.53-.11,1.35,1.35,0,0,1,.55-.11.79.79,0,0,1,.61.32,1.2,1.2,0,0,1,.28.86,1.25,1.25,0,0,1-.73,1.1,3,3,0,0,1-1.58.44,7.74,7.74,0,0,1-1.11-.09,2.84,2.84,0,0,1-1.15-.41,2.42,2.42,0,0,1-.9-1,4,4,0,0,1-.36-1.85V29.43a1.4,1.4,0,0,1,.42-1A1.42,1.42,0,0,1,211.14,28Z"/><path class="cls-3" d="M223.49,43.81A7,7,0,0,1,220,43a5.81,5.81,0,0,1-2.3-2.31,6.73,6.73,0,0,1-.81-3.31,7.35,7.35,0,0,1,.88-3.69A6.28,6.28,0,0,1,220,31.3a6,6,0,0,1,3-.81,5.41,5.41,0,0,1,2.32.5,6.44,6.44,0,0,1,1.93,1.38,6.68,6.68,0,0,1,1.33,2,6.13,6.13,0,0,1,.49,2.45,1.2,1.2,0,0,1-.45.93,1.54,1.54,0,0,1-1,.36h-9.17l-.72-2.4h8.81l-.53.48v-.65a2.11,2.11,0,0,0-.49-1.24,3.27,3.27,0,0,0-1.1-.88,3.1,3.1,0,0,0-1.41-.32,4.43,4.43,0,0,0-1.34.19,2.49,2.49,0,0,0-1.08.65,3,3,0,0,0-.72,1.22,5.92,5.92,0,0,0-.27,1.94,4.2,4.2,0,0,0,.54,2.2,3.72,3.72,0,0,0,3.21,1.84,5.31,5.31,0,0,0,1.41-.15,2.83,2.83,0,0,0,.85-.35l.59-.34a1.77,1.77,0,0,1,.82-.22,1.19,1.19,0,0,1,.88.36,1.17,1.17,0,0,1,.34.84,1.51,1.51,0,0,1-.67,1.18,5.58,5.58,0,0,1-1.75.92A7.09,7.09,0,0,1,223.49,43.81Z"/><path class="cls-3" d="M238,30.49a3.82,3.82,0,0,1,2.84.92,4.68,4.68,0,0,1,1.2,2.39l-.41-.22.19-.38a5.31,5.31,0,0,1,.89-1.19,5.54,5.54,0,0,1,1.45-1.08,4.74,4.74,0,0,1,4.54.3,3.77,3.77,0,0,1,1.23,2,10.2,10.2,0,0,1,.34,2.75V42.1a1.46,1.46,0,0,1-.41,1,1.47,1.47,0,0,1-2.06,0,1.42,1.42,0,0,1-.41-1V36a4.85,4.85,0,0,0-.19-1.43,2,2,0,0,0-.7-1,2.31,2.31,0,0,0-1.44-.38,3,3,0,0,0-1.56.38,2.57,2.57,0,0,0-1,1,3,3,0,0,0-.32,1.43V42.1a1.46,1.46,0,0,1-.41,1,1.4,1.4,0,0,1-1,.42,1.38,1.38,0,0,1-1-.42,1.45,1.45,0,0,1-.4-1V36a4.84,4.84,0,0,0-.2-1.43,2,2,0,0,0-.69-1,2.33,2.33,0,0,0-1.44-.38,3,3,0,0,0-1.56.38,2.52,2.52,0,0,0-1,1,3.17,3.17,0,0,0-.32,1.43V42.1a1.46,1.46,0,0,1-.41,1,1.36,1.36,0,0,1-1,.42,1.38,1.38,0,0,1-1-.42,1.46,1.46,0,0,1-.41-1V32.19a1.43,1.43,0,0,1,.41-1,1.38,1.38,0,0,1,1-.42,1.36,1.36,0,0,1,1,.42,1.43,1.43,0,0,1,.41,1v1l-.36-.07a6,6,0,0,1,.6-.88,5.27,5.27,0,0,1,.94-.87,4.93,4.93,0,0,1,1.22-.66A4.11,4.11,0,0,1,238,30.49Z"/><path class="cls-3" d="M263.66,30.49a1.4,1.4,0,0,1,1,.4A1.46,1.46,0,0,1,265.1,32V42.1a1.46,1.46,0,0,1-.41,1,1.38,1.38,0,0,1-1,.42,1.36,1.36,0,0,1-1-.42,1.42,1.42,0,0,1-.41-1V40.93l.53.21a1.41,1.41,0,0,1-.34.76,4.49,4.49,0,0,1-.91.87,5.68,5.68,0,0,1-1.36.74,4.66,4.66,0,0,1-1.69.3,5.5,5.5,0,0,1-3-.86,5.89,5.89,0,0,1-2.12-2.35,8,8,0,0,1,0-6.91,6.07,6.07,0,0,1,2.1-2.35,5.25,5.25,0,0,1,2.92-.85,5.53,5.53,0,0,1,1.9.31,5.6,5.6,0,0,1,1.5.79,4.51,4.51,0,0,1,1,1,1.51,1.51,0,0,1,.35.83l-.86.31V32a1.39,1.39,0,0,1,.41-1A1.36,1.36,0,0,1,263.66,30.49Zm-4.85,10.68a3.29,3.29,0,0,0,1.85-.53,3.47,3.47,0,0,0,1.23-1.44,4.56,4.56,0,0,0,.45-2,4.63,4.63,0,0,0-.45-2.07,3.6,3.6,0,0,0-1.23-1.44,3.28,3.28,0,0,0-1.85-.52,3.24,3.24,0,0,0-1.83.52,3.76,3.76,0,0,0-1.23,1.44,4.63,4.63,0,0,0-.44,2.07,4.56,4.56,0,0,0,.44,2A3.62,3.62,0,0,0,257,40.64,3.25,3.25,0,0,0,258.81,41.17Z"/><path class="cls-3" d="M285.33,25.81a1.4,1.4,0,0,1,1,.4,1.46,1.46,0,0,1,.41,1.06V42.1a1.46,1.46,0,0,1-.41,1,1.38,1.38,0,0,1-1,.42,1.36,1.36,0,0,1-1-.42,1.42,1.42,0,0,1-.41-1V40.93l.53.21a1.41,1.41,0,0,1-.34.76,4.49,4.49,0,0,1-.91.87,5.68,5.68,0,0,1-1.36.74,4.66,4.66,0,0,1-1.69.3,5.5,5.5,0,0,1-3-.86A5.89,5.89,0,0,1,275,40.6a8,8,0,0,1,0-6.91,6.07,6.07,0,0,1,2.1-2.35,5.25,5.25,0,0,1,2.92-.85,5.53,5.53,0,0,1,1.9.31,5.6,5.6,0,0,1,1.5.79,4.51,4.51,0,0,1,1,1,1.51,1.51,0,0,1,.35.83l-.86.31V27.27a1.39,1.39,0,0,1,.41-1A1.36,1.36,0,0,1,285.33,25.81Zm-4.85,15.36a3.27,3.27,0,0,0,1.85-.53,3.56,3.56,0,0,0,1.24-1.44,4.69,4.69,0,0,0,.44-2,4.76,4.76,0,0,0-.44-2.07,3.7,3.7,0,0,0-1.24-1.44,3.26,3.26,0,0,0-1.85-.52,3.21,3.21,0,0,0-1.82.52,3.7,3.7,0,0,0-1.24,1.44,4.63,4.63,0,0,0-.44,2.07,4.56,4.56,0,0,0,.44,2,3.56,3.56,0,0,0,1.24,1.44A3.22,3.22,0,0,0,280.48,41.17Z"/><path class="cls-3" d="M291.09,29.17a1.9,1.9,0,0,1-1.16-.27,1.13,1.13,0,0,1-.33-.93v-.46a1.07,1.07,0,0,1,.37-1,2.77,2.77,0,0,1,2.32,0,1.15,1.15,0,0,1,.33.94V28a1.06,1.06,0,0,1-.36.94A2.06,2.06,0,0,1,291.09,29.17Zm1.46,12.93a1.46,1.46,0,0,1-.41,1,1.47,1.47,0,0,1-2.06,0,1.46,1.46,0,0,1-.41-1V32.19a1.43,1.43,0,0,1,.41-1,1.47,1.47,0,0,1,2.06,0,1.43,1.43,0,0,1,.41,1Z"/><path class="cls-3" d="M300.69,30.49a5.24,5.24,0,0,1,1.85.31,5.42,5.42,0,0,1,1.45.79,4.61,4.61,0,0,1,1,1,1.59,1.59,0,0,1,.35.83l-.63.31V32a1.43,1.43,0,0,1,.41-1,1.5,1.5,0,0,1,2.06,0,1.42,1.42,0,0,1,.41,1.06V42.63a5.65,5.65,0,0,1-.9,3.35,5.06,5.06,0,0,1-2.36,1.82,8.64,8.64,0,0,1-3.15.57,8.33,8.33,0,0,1-1.24-.12c-.52-.08-1-.18-1.47-.29a9.07,9.07,0,0,1-1.05-.31,2.06,2.06,0,0,1-1-.78,1.21,1.21,0,0,1-.11-1,1.55,1.55,0,0,1,.7-.95,1.19,1.19,0,0,1,1-.06l.79.29c.37.14.77.28,1.21.4a4.51,4.51,0,0,0,1.16.18,4.13,4.13,0,0,0,2.67-.72,2.48,2.48,0,0,0,.86-2V40.93l.29.21a1.43,1.43,0,0,1-.32.76,4.61,4.61,0,0,1-.89.87,5.46,5.46,0,0,1-1.33.74,4.5,4.5,0,0,1-1.64.3,5.68,5.68,0,0,1-3.07-.86,6,6,0,0,1-2.16-2.35,7.95,7.95,0,0,1,0-6.91,6.08,6.08,0,0,1,2.14-2.35A5.44,5.44,0,0,1,300.69,30.49Zm.45,2.64a3.39,3.39,0,0,0-1.89.52A3.61,3.61,0,0,0,298,35.09a4.5,4.5,0,0,0-.46,2.07,4.43,4.43,0,0,0,.46,2,3.49,3.49,0,0,0,1.27,1.44,3.4,3.4,0,0,0,1.89.53,3.45,3.45,0,0,0,1.92-.53,3.58,3.58,0,0,0,1.28-1.44,4.56,4.56,0,0,0,.45-2,4.63,4.63,0,0,0-.45-2.07,3.72,3.72,0,0,0-1.28-1.44A3.45,3.45,0,0,0,301.14,33.13Z"/><path class="cls-3" d="M316.53,43.81A7,7,0,0,1,313,43a5.9,5.9,0,0,1-2.31-2.31,6.84,6.84,0,0,1-.8-3.31,7.35,7.35,0,0,1,.87-3.69,6.3,6.3,0,0,1,2.3-2.34,5.93,5.93,0,0,1,3-.81,5.4,5.4,0,0,1,2.31.5,6.44,6.44,0,0,1,1.93,1.38,6.7,6.7,0,0,1,1.34,2,6.3,6.3,0,0,1,.49,2.45,1.24,1.24,0,0,1-.46.93,1.52,1.52,0,0,1-1,.36h-9.16l-.72-2.4h8.8l-.52.48v-.65a2.19,2.19,0,0,0-.5-1.24,3.18,3.18,0,0,0-1.1-.88,3.09,3.09,0,0,0-1.4-.32,4.54,4.54,0,0,0-1.35.19,2.61,2.61,0,0,0-1.08.65,3.21,3.21,0,0,0-.72,1.22,6.23,6.23,0,0,0-.26,1.94,4.2,4.2,0,0,0,.54,2.2,3.65,3.65,0,0,0,1.39,1.37,3.73,3.73,0,0,0,1.81.47A5.4,5.4,0,0,0,317.8,41a2.94,2.94,0,0,0,.85-.35c.22-.13.41-.25.59-.34a1.77,1.77,0,0,1,.81-.22,1.16,1.16,0,0,1,.88.36,1.18,1.18,0,0,1,.35.84,1.54,1.54,0,0,1-.67,1.18,5.53,5.53,0,0,1-1.76.92A7,7,0,0,1,316.53,43.81Z"/><path class="cls-3" d="M323.55,41.57a1.3,1.3,0,0,1-.21-.86,1.13,1.13,0,0,1,.62-.91,1.35,1.35,0,0,1,.82-.21,1.43,1.43,0,0,1,.84.45,5.8,5.8,0,0,0,1.46,1.08,4.35,4.35,0,0,0,1.92.38,5,5,0,0,0,.79-.11,1.49,1.49,0,0,0,.76-.38,1.22,1.22,0,0,0,.32-.92,1,1,0,0,0-.36-.84,2.9,2.9,0,0,0-.94-.53c-.4-.15-.83-.28-1.31-.41s-1-.3-1.53-.48a6.73,6.73,0,0,1-1.43-.68A3.32,3.32,0,0,1,324.25,36a3.43,3.43,0,0,1-.41-1.75,3.15,3.15,0,0,1,.67-2,4.48,4.48,0,0,1,1.74-1.3,5.72,5.72,0,0,1,2.25-.45,7.33,7.33,0,0,1,1.56.18,6.36,6.36,0,0,1,1.56.57,3.82,3.82,0,0,1,1.24,1.05,1.72,1.72,0,0,1,.32.86,1,1,0,0,1-.46.91,1.14,1.14,0,0,1-.84.25,1.25,1.25,0,0,1-.79-.32,2.9,2.9,0,0,0-1.09-.84,3.74,3.74,0,0,0-1.58-.31,4.38,4.38,0,0,0-.77.08,1.61,1.61,0,0,0-.74.36,1.12,1.12,0,0,0-.31.88A1.1,1.1,0,0,0,327,35a2.55,2.55,0,0,0,1,.53c.41.14.85.27,1.31.4s1,.28,1.46.45a5.7,5.7,0,0,1,1.37.7,3.3,3.3,0,0,1,1,1.12,3.45,3.45,0,0,1,.38,1.74,3.13,3.13,0,0,1-.72,2.08,4.47,4.47,0,0,1-1.8,1.31,5.66,5.66,0,0,1-2.2.45,8.59,8.59,0,0,1-2.84-.5A4.84,4.84,0,0,1,323.55,41.57Z"/><path class="cls-3" d="M336,31h5.69a1.3,1.3,0,0,1,1,.38,1.34,1.34,0,0,1,.38,1,1.23,1.23,0,0,1-.38.92,1.34,1.34,0,0,1-1,.38H336a1.33,1.33,0,0,1-1.35-1.35,1.22,1.22,0,0,1,.39-.92A1.3,1.3,0,0,1,336,31Zm2.57-3a1.36,1.36,0,0,1,1,.42,1.46,1.46,0,0,1,.39,1V40.11a1.12,1.12,0,0,0,.13.55.72.72,0,0,0,.36.31,1.21,1.21,0,0,0,.5.1,1.27,1.27,0,0,0,.52-.11,1.4,1.4,0,0,1,.56-.11.82.82,0,0,1,.61.32,1.3,1.3,0,0,1-.46,2,3,3,0,0,1-1.57.44,7.76,7.76,0,0,1-1.12-.09,2.89,2.89,0,0,1-1.15-.41,2.42,2.42,0,0,1-.9-1,4,4,0,0,1-.36-1.85V29.43a1.4,1.4,0,0,1,.42-1A1.42,1.42,0,0,1,338.58,28Z"/><path class="cls-3" d="M346.53,29.17a1.87,1.87,0,0,1-1.15-.27A1.13,1.13,0,0,1,345,28v-.46a1.08,1.08,0,0,1,.38-1,2,2,0,0,1,1.14-.25,2,2,0,0,1,1.17.26,1.12,1.12,0,0,1,.34.94V28a1.06,1.06,0,0,1-.36.94A2.08,2.08,0,0,1,346.53,29.17ZM348,42.1a1.46,1.46,0,0,1-.41,1,1.38,1.38,0,0,1-1,.42,1.4,1.4,0,0,1-1-.42,1.45,1.45,0,0,1-.4-1V32.19a1.43,1.43,0,0,1,.4-1,1.4,1.4,0,0,1,1-.42,1.38,1.38,0,0,1,1,.42,1.43,1.43,0,0,1,.41,1Z"/><path class="cls-3" d="M351.21,30.73a1.65,1.65,0,0,1,.84.22,1.45,1.45,0,0,1,.57.69l3.53,8.06-.53.24,3.6-8.28a1.26,1.26,0,0,1,1.27-.91,1.33,1.33,0,0,1,1,.37,1.3,1.3,0,0,1,.37.93,1.23,1.23,0,0,1-.06.36l-.13.36-4.49,9.88a1.4,1.4,0,0,1-1.23.92,1.35,1.35,0,0,1-.87-.17,1.54,1.54,0,0,1-.64-.75L350,32.77c0-.08-.07-.19-.11-.32a1.49,1.49,0,0,1-.06-.45,1.28,1.28,0,0,1,.38-.85A1.34,1.34,0,0,1,351.21,30.73Z"/><path class="cls-3" d="M375.8,37.16a6.8,6.8,0,0,1-.87,3.47A6.31,6.31,0,0,1,372.57,43a6.9,6.9,0,0,1-6.6,0,6.36,6.36,0,0,1-2.35-2.34,7.36,7.36,0,0,1,0-6.94,6.56,6.56,0,0,1,11.31,0A6.8,6.8,0,0,1,375.8,37.16Zm-2.88,0a4.35,4.35,0,0,0-.49-2.13,3.71,3.71,0,0,0-1.32-1.4,3.62,3.62,0,0,0-3.67,0,3.71,3.71,0,0,0-1.32,1.4,4.35,4.35,0,0,0-.49,2.13,4.29,4.29,0,0,0,.49,2.1,3.64,3.64,0,0,0,1.32,1.4,3.56,3.56,0,0,0,3.67,0,3.64,3.64,0,0,0,1.32-1.4A4.29,4.29,0,0,0,372.92,37.16Z"/></g></g></g></svg>