<svg xmlns="http://www.w3.org/2000/svg" viewBox="0 0 501.36 83.13"><defs><style>.cls-1{isolation:isolate;}.cls-2{opacity:0.27;}.cls-3{fill:#002451;}.cls-4{fill:#fff2cc;}.cls-5{fill:none;}.cls-6{fill:#29abe2;}.cls-7{opacity:0.2;mix-blend-mode:multiply;}.cls-8{fill:#fff;}.cls-9{fill:#4d4d4d;}</style></defs><title>lab03-bxB1</title><g class="cls-1"><g id="Layer_2" data-name="Layer 2"><g id="Layer_1-2" data-name="Layer 1"><g class="cls-2"><rect class="cls-3" x="2.96" y="2.84" width="498.39" height="80.29" rx="11.44" ry="11.44"/></g><rect class="cls-4" width="498.39" height="80.29" rx="11.44" ry="11.44"/><path class="cls-5" d="M471.49,78.36v-15A8.38,8.38,0,0,1,480,55.14h15.68a8.68,8.68,0,0,1,2.67.42V11.2A11.45,11.45,0,0,0,486.7,0h-475A11.45,11.45,0,0,0,0,11.2V69.09a11.45,11.45,0,0,0,11.69,11.2H471.74A7.74,7.74,0,0,1,471.49,78.36Z"/><path class="cls-6" d="M487.18,55.14c-8.66,0-15.69,6.73-15.69,15v8.18a7.74,7.74,0,0,0,.25,1.93h15a11.45,11.45,0,0,0,11.69-11.2V55.56a8.68,8.68,0,0,0-2.67-.42Z"/><g class="cls-7"><rect x="485.25" y="63.6" width="1.36" height="10.24"/><polygon points="485.89 59.72 483.14 64.28 488.65 64.28 485.89 59.72"/><polygon points="485.93 77.65 488.68 73.08 483.18 73.08 485.93 77.65"/><rect x="480.58" y="68.07" width="10.69" height="1.3"/><polygon points="476.55 68.7 481.32 71.33 481.32 66.06 476.55 68.7"/><polygon points="495.27 68.67 490.5 66.03 490.5 71.3 495.27 68.67"/></g><rect class="cls-8" x="484.28" y="62.63" width="1.36" height="10.24"/><polygon class="cls-8" points="484.93 58.75 482.18 63.32 487.68 63.32 484.93 58.75"/><polygon class="cls-8" points="484.96 76.68 487.71 72.11 482.21 72.11 484.96 76.68"/><rect class="cls-8" x="479.62" y="67.1" width="10.69" height="1.3"/><polygon class="cls-8" points="475.58 67.73 480.35 70.37 480.35 65.09 475.58 67.73"/><polygon class="cls-8" points="494.3 67.7 489.54 65.06 489.54 70.34 494.3 67.7"/><path class="cls-9" d="M22.56,23.71a.55.55,0,0,1,.38.15.51.51,0,0,1,.16.37.53.53,0,0,1-.16.38.52.52,0,0,1-.38.16H16.13a.57.57,0,0,1-.39-.16.55.55,0,0,1-.15-.38V12.71a.55.55,0,0,1,.16-.38.57.57,0,0,1,.42-.16.52.52,0,0,1,.38.16.49.49,0,0,1,.18.38V24l-.35-.3Z"/><path class="cls-9" d="M31.92,15.57a.5.5,0,0,1,.39.16.57.57,0,0,1,.15.4v8.1a.52.52,0,0,1-.16.38.57.57,0,0,1-.38.16.54.54,0,0,1-.4-.16.59.59,0,0,1-.14-.38V22.09l.31-.15a2.25,2.25,0,0,1-.28,1,3.66,3.66,0,0,1-.77,1,3.91,3.91,0,0,1-1.14.73,3.76,3.76,0,0,1-1.43.28,3.88,3.88,0,0,1-2.17-.63,4.31,4.31,0,0,1-1.51-1.73,5.37,5.37,0,0,1-.55-2.47,5.17,5.17,0,0,1,.56-2.47A4.18,4.18,0,0,1,25.91,16a3.92,3.92,0,0,1,4.77.39,3.58,3.58,0,0,1,.79,1.07,2.93,2.93,0,0,1,.29,1.25l-.38-.27V16.13a.61.61,0,0,1,.14-.4A.51.51,0,0,1,31.92,15.57Zm-3.74,8.37a3,3,0,0,0,1.69-.5A3.37,3.37,0,0,0,31,22.08a4.47,4.47,0,0,0,.42-2,4.21,4.21,0,0,0-.42-1.9,3.4,3.4,0,0,0-1.16-1.35,2.91,2.91,0,0,0-1.69-.51,3,3,0,0,0-1.69.49,3.44,3.44,0,0,0-1.17,1.33,4.29,4.29,0,0,0-.42,1.94,4.61,4.61,0,0,0,.41,2,3.31,3.31,0,0,0,1.17,1.36A3,3,0,0,0,28.18,23.94Z"/><path class="cls-9" d="M42.29,23.67a1.09,1.09,0,0,1-1.1,1.1,1,1,0,0,1-.75-.32,1.06,1.06,0,0,1-.31-.78V12.55a1.06,1.06,0,0,1,1.1-1.1,1,1,0,0,1,.76.31,1.09,1.09,0,0,1,.3.79Z"/><path class="cls-9" d="M49.12,25a5.37,5.37,0,0,1-2.66-.64,4.52,4.52,0,0,1-1.73-1.74,5.08,5.08,0,0,1-.6-2.48,5.49,5.49,0,0,1,.66-2.77,4.66,4.66,0,0,1,1.72-1.75A4.43,4.43,0,0,1,48.76,15a3.94,3.94,0,0,1,1.73.38,4.62,4.62,0,0,1,1.45,1,5,5,0,0,1,1,1.52,4.58,4.58,0,0,1,.37,1.84.9.9,0,0,1-.34.7,1.16,1.16,0,0,1-.76.27H45.34l-.54-1.8h6.6l-.39.36v-.49a1.69,1.69,0,0,0-.37-.93,2.34,2.34,0,0,0-.83-.66,2.38,2.38,0,0,0-1.05-.24,3.62,3.62,0,0,0-1,.14,2,2,0,0,0-.81.49,2.29,2.29,0,0,0-.54.92,4.57,4.57,0,0,0-.2,1.45,3.15,3.15,0,0,0,.41,1.65,2.78,2.78,0,0,0,1,1A2.84,2.84,0,0,0,49,23a4.25,4.25,0,0,0,1.06-.11,2.29,2.29,0,0,0,.64-.26l.44-.26a1.35,1.35,0,0,1,.61-.16.87.87,0,0,1,.66.27.89.89,0,0,1,.26.63,1.15,1.15,0,0,1-.5.88,4.25,4.25,0,0,1-1.32.69A5.14,5.14,0,0,1,49.12,25Z"/><path class="cls-9" d="M60.14,15a3.1,3.1,0,0,1,2,.56,2.8,2.8,0,0,1,1,1.48,7.79,7.79,0,0,1,.26,2.06v4.61a1.06,1.06,0,0,1-.31.78,1.09,1.09,0,0,1-1.54,0,1.06,1.06,0,0,1-.31-.78V19.06A3.59,3.59,0,0,0,61.07,18a1.52,1.52,0,0,0-.55-.76,1.87,1.87,0,0,0-1.14-.29,2.28,2.28,0,0,0-1.21.29,2,2,0,0,0-.76.76,2.26,2.26,0,0,0-.26,1.07v4.61a1.09,1.09,0,0,1-.3.78,1.06,1.06,0,0,1-.78.32,1,1,0,0,1-.77-.32,1.06,1.06,0,0,1-.31-.78V16.24a1.06,1.06,0,0,1,.31-.79,1,1,0,0,1,.77-.31,1.06,1.06,0,0,1,.78.31,1.09,1.09,0,0,1,.3.79V17L56.88,17a3.54,3.54,0,0,1,.47-.66,4.19,4.19,0,0,1,.72-.66,3.64,3.64,0,0,1,.94-.49A3.15,3.15,0,0,1,60.14,15Z"/><path class="cls-9" d="M69.54,15a4.14,4.14,0,0,1,1.39.23,4,4,0,0,1,1.08.6,3.49,3.49,0,0,1,.72.72,1.17,1.17,0,0,1,.27.63l-.47.23V16.06a1.09,1.09,0,0,1,.3-.79,1.14,1.14,0,0,1,1.55,0,1.07,1.07,0,0,1,.31.8v8A4.24,4.24,0,0,1,74,26.58a3.79,3.79,0,0,1-1.77,1.36,6.34,6.34,0,0,1-2.36.43,6.22,6.22,0,0,1-.93-.09,10.69,10.69,0,0,1-1.1-.22,5.82,5.82,0,0,1-.79-.23,1.55,1.55,0,0,1-.75-.59.84.84,0,0,1-.08-.74,1.16,1.16,0,0,1,.52-.72.91.91,0,0,1,.76,0l.59.22c.28.1.58.2.91.29a3.39,3.39,0,0,0,.87.14,3.08,3.08,0,0,0,2-.54,1.85,1.85,0,0,0,.65-1.5V22.79l.21.16a1,1,0,0,1-.24.57,3,3,0,0,1-.67.65,3.91,3.91,0,0,1-1,.55,3.4,3.4,0,0,1-1.23.23,4.3,4.3,0,0,1-2.3-.64,4.44,4.44,0,0,1-1.62-1.76,5.44,5.44,0,0,1-.6-2.59,5.45,5.45,0,0,1,.6-2.6,4.47,4.47,0,0,1,1.6-1.76A4.07,4.07,0,0,1,69.54,15Zm.34,2a2.59,2.59,0,0,0-1.42.39,2.69,2.69,0,0,0-.95,1.08A3.43,3.43,0,0,0,67.16,20a3.32,3.32,0,0,0,.35,1.53,2.56,2.56,0,0,0,.95,1.08,2.51,2.51,0,0,0,1.42.4,2.57,2.57,0,0,0,2.39-1.48A3.32,3.32,0,0,0,72.62,20a3.43,3.43,0,0,0-.35-1.55,2.69,2.69,0,0,0-1-1.08A2.63,2.63,0,0,0,69.88,16.94Z"/><path class="cls-9" d="M84.06,15.14a1.06,1.06,0,0,1,.78.31,1.09,1.09,0,0,1,.3.79v4.57a4.18,4.18,0,0,1-1.06,3,4.73,4.73,0,0,1-6.11,0,4.22,4.22,0,0,1-1-3V16.24a1.09,1.09,0,0,1,.3-.79,1,1,0,0,1,.78-.31,1,1,0,0,1,.77.31,1.1,1.1,0,0,1,.31.79v4.57a2.39,2.39,0,0,0,.48,1.63A1.9,1.9,0,0,0,81,23a1.94,1.94,0,0,0,1.48-.53A2.39,2.39,0,0,0,83,20.81V16.24a1.06,1.06,0,0,1,.31-.79A1,1,0,0,1,84.06,15.14Z"/><path class="cls-9" d="M95.19,15a1,1,0,0,1,.77.3,1.07,1.07,0,0,1,.31.8v7.61a1.06,1.06,0,0,1-.31.78,1.09,1.09,0,0,1-1.54,0,1.06,1.06,0,0,1-.31-.78v-.88l.4.16a1,1,0,0,1-.26.57,3,3,0,0,1-.68.65,4.12,4.12,0,0,1-1,.55,3.5,3.5,0,0,1-1.27.23A4.21,4.21,0,0,1,89,24.31a4.52,4.52,0,0,1-1.59-1.76A5.55,5.55,0,0,1,86.86,20a5.56,5.56,0,0,1,.58-2.6A4.5,4.5,0,0,1,89,15.6,3.92,3.92,0,0,1,91.21,15a4.27,4.27,0,0,1,1.42.23,4.32,4.32,0,0,1,1.13.6,3.64,3.64,0,0,1,.74.72,1.22,1.22,0,0,1,.26.63l-.65.23V16.06a1.06,1.06,0,0,1,.31-.79A1,1,0,0,1,95.19,15Zm-3.64,8a2.41,2.41,0,0,0,1.39-.4,2.59,2.59,0,0,0,.93-1.08A3.44,3.44,0,0,0,94.2,20a3.56,3.56,0,0,0-.33-1.55,2.71,2.71,0,0,0-.93-1.08,2.49,2.49,0,0,0-1.39-.39,2.41,2.41,0,0,0-1.36.39,2.71,2.71,0,0,0-.93,1.08A3.56,3.56,0,0,0,88.93,20a3.44,3.44,0,0,0,.33,1.53,2.59,2.59,0,0,0,.93,1.08A2.34,2.34,0,0,0,91.55,23Z"/><path class="cls-9" d="M108,25a4.89,4.89,0,0,1-2.45-.6,4.18,4.18,0,0,1-1.66-1.65,5.09,5.09,0,0,1-.59-2.49,5.3,5.3,0,0,1,.6-2.61,4.41,4.41,0,0,1,1.57-1.66,3.86,3.86,0,0,1,2-.59,4.51,4.51,0,0,1,1.54.28,3.79,3.79,0,0,1,1.32.83,4.2,4.2,0,0,1,.94,1.34,4.57,4.57,0,0,1,.38,1.84.54.54,0,0,1-.16.37.55.55,0,0,1-.38.15h-7.22l-.22-1h7.1l-.24.21V19A2.7,2.7,0,0,0,110,17.6a3.14,3.14,0,0,0-1.12-.9,3.3,3.3,0,0,0-1.38-.3,3.11,3.11,0,0,0-1.1.21,3,3,0,0,0-1,.68,3.28,3.28,0,0,0-.75,1.17,4.47,4.47,0,0,0-.29,1.68,4.25,4.25,0,0,0,.44,1.93A3.34,3.34,0,0,0,106,23.44a3.68,3.68,0,0,0,2,.5,3.22,3.22,0,0,0,2-.66,3.44,3.44,0,0,0,.64-.62.57.57,0,0,1,.37-.16.46.46,0,0,1,.34.14.48.48,0,0,1,.13.33.51.51,0,0,1-.18.38,5,5,0,0,1-1.4,1.12A3.85,3.85,0,0,1,108,25Z"/><path class="cls-9" d="M117.92,15.5a3.12,3.12,0,0,1,1.91.58,2.94,2.94,0,0,1,1.08,1.74l-.25.07.11-.32a2.79,2.79,0,0,1,.78-1,4.27,4.27,0,0,1,1.25-.76,3.57,3.57,0,0,1,1.42-.29,3.15,3.15,0,0,1,1.83.48,2.81,2.81,0,0,1,1,1.31,5.11,5.11,0,0,1,.31,1.84v5.1a.55.55,0,0,1-.15.38.53.53,0,0,1-.39.16.57.57,0,0,1-.39-.16.55.55,0,0,1-.15-.38v-5a3.9,3.9,0,0,0-.23-1.35,2.06,2.06,0,0,0-.74-1,2.29,2.29,0,0,0-1.35-.36,3,3,0,0,0-1.41.36,3,3,0,0,0-1.1,1,2.34,2.34,0,0,0-.42,1.35v5a.57.57,0,0,1-.16.38.53.53,0,0,1-.38.16.53.53,0,0,1-.39-.16.55.55,0,0,1-.15-.38v-5.1a4,4,0,0,0-.22-1.33,2,2,0,0,0-.7-.94,2.18,2.18,0,0,0-1.32-.35,2.84,2.84,0,0,0-1.39.35,2.92,2.92,0,0,0-1.06.94,2.32,2.32,0,0,0-.41,1.33v5.1a.52.52,0,0,1-.16.38.55.55,0,0,1-.38.16.5.5,0,0,1-.39-.16.55.55,0,0,1-.15-.38V16.16a.49.49,0,0,1,.16-.37.5.5,0,0,1,.38-.17.51.51,0,0,1,.39.17.51.51,0,0,1,.15.37v1.68l-.48.66a2.68,2.68,0,0,1,.35-1.08,3.78,3.78,0,0,1,.78-1,3.71,3.71,0,0,1,1.11-.69A3.39,3.39,0,0,1,117.92,15.5Z"/><path class="cls-9" d="M134.39,15.5a4,4,0,0,1,2.17.6,4.24,4.24,0,0,1,1.5,1.66,5.11,5.11,0,0,1,.56,2.42,5.18,5.18,0,0,1-.56,2.43,4.36,4.36,0,0,1-1.51,1.67,3.88,3.88,0,0,1-2.15.61,3.62,3.62,0,0,1-1.19-.19,3.73,3.73,0,0,1-1-.51,4,4,0,0,1-.83-.76,3.8,3.8,0,0,1-.57-1l.32-.23v5.6a.55.55,0,0,1-.15.38.53.53,0,0,1-.39.16.53.53,0,0,1-.38-.16.52.52,0,0,1-.16-.38V16.09a.54.54,0,0,1,.15-.39.48.48,0,0,1,.39-.17.51.51,0,0,1,.39.17.54.54,0,0,1,.15.39V18l-.25-.15a3.31,3.31,0,0,1,.53-1,3.89,3.89,0,0,1,.82-.75,3.6,3.6,0,0,1,1-.48A4.08,4.08,0,0,1,134.39,15.5Zm-.09,1a3.13,3.13,0,0,0-1.71.47,3.25,3.25,0,0,0-1.16,1.3,4,4,0,0,0-.43,1.9,4.13,4.13,0,0,0,.43,1.91,3.24,3.24,0,0,0,1.16,1.32,3.06,3.06,0,0,0,1.71.48,3,3,0,0,0,1.68-.48,3.39,3.39,0,0,0,1.16-1.32,4.13,4.13,0,0,0,.43-1.91,4,4,0,0,0-.43-1.89A3.43,3.43,0,0,0,136,17,3.08,3.08,0,0,0,134.3,16.51Z"/><path class="cls-9" d="M147.53,15.62a.51.51,0,0,1,.39.17.51.51,0,0,1,.15.37v5.08a3.51,3.51,0,0,1-1,2.72,4.4,4.4,0,0,1-5.41,0,3.57,3.57,0,0,1-1-2.72V16.16a.51.51,0,0,1,.15-.37.51.51,0,0,1,.39-.17.5.5,0,0,1,.38.17.49.49,0,0,1,.16.37v5.08a2.39,2.39,0,0,0,2.61,2.65,2.7,2.7,0,0,0,1.94-.68,2.6,2.6,0,0,0,.7-2V16.16a.51.51,0,0,1,.15-.37A.48.48,0,0,1,147.53,15.62Z"/><path class="cls-9" d="M151.84,25.6a2.55,2.55,0,0,1-.4,1.46,2.85,2.85,0,0,1-1,.93,2.42,2.42,0,0,1-1.19.32.48.48,0,0,1-.37-.14.48.48,0,0,1-.13-.34v-.07a.47.47,0,0,1,.14-.35.84.84,0,0,1,.33-.16A2.51,2.51,0,0,0,150,27a1.82,1.82,0,0,0,.57-.6,1.87,1.87,0,0,0,.21-.92V16.15a.51.51,0,0,1,.16-.38.49.49,0,0,1,.38-.16.5.5,0,0,1,.39.16.54.54,0,0,1,.15.38Zm-.54-11.42a.77.77,0,0,1-.56-.17.61.61,0,0,1-.19-.49v-.18a.64.64,0,0,1,.2-.5.9.9,0,0,1,.57-.17.77.77,0,0,1,.53.17.63.63,0,0,1,.19.5v.18a.61.61,0,0,1-.19.49A.76.76,0,0,1,151.3,14.18Z"/><path class="cls-9" d="M162.37,15.57a.49.49,0,0,1,.38.16.54.54,0,0,1,.16.4v8.1a.53.53,0,0,1-.17.38.52.52,0,0,1-.37.16.51.51,0,0,1-.54-.54V22.09l.3-.15a2.13,2.13,0,0,1-.28,1,3.61,3.61,0,0,1-.76,1,4,4,0,0,1-1.14.73,3.76,3.76,0,0,1-1.43.28,3.86,3.86,0,0,1-2.17-.63,4.34,4.34,0,0,1-1.52-1.73,5.5,5.5,0,0,1-.55-2.47,5.29,5.29,0,0,1,.56-2.47A4.27,4.27,0,0,1,156.36,16a3.92,3.92,0,0,1,4.77.39,3.58,3.58,0,0,1,.79,1.07,2.93,2.93,0,0,1,.29,1.25l-.38-.27V16.13a.56.56,0,0,1,.14-.4A.51.51,0,0,1,162.37,15.57Zm-3.75,8.37a3,3,0,0,0,1.69-.5,3.39,3.39,0,0,0,1.17-1.36,4.47,4.47,0,0,0,.42-2,4.21,4.21,0,0,0-.42-1.9,3.43,3.43,0,0,0-1.17-1.35,2.88,2.88,0,0,0-1.69-.51,3,3,0,0,0-1.68.49,3.29,3.29,0,0,0-1.17,1.33,4.29,4.29,0,0,0-.42,1.94,4.47,4.47,0,0,0,.41,2,3.29,3.29,0,0,0,1.16,1.36A3,3,0,0,0,158.62,23.94Z"/><path class="cls-9" d="M174.73,25a4.91,4.91,0,0,1-2.45-.6,4.16,4.16,0,0,1-1.65-1.65,5,5,0,0,1-.6-2.49,5.3,5.3,0,0,1,.61-2.61,4.39,4.39,0,0,1,1.56-1.66,3.92,3.92,0,0,1,2.05-.59,4.55,4.55,0,0,1,1.54.28,3.88,3.88,0,0,1,1.32.83,4.36,4.36,0,0,1,.94,1.34,4.75,4.75,0,0,1,.37,1.84.5.5,0,0,1-.16.37.54.54,0,0,1-.38.15h-7.21l-.22-1h7.09l-.23.21V19a2.79,2.79,0,0,0-.56-1.44,3.18,3.18,0,0,0-1.13-.9,3.17,3.17,0,0,0-2.48-.09,3,3,0,0,0-1,.68,3.4,3.4,0,0,0-.74,1.17,4.47,4.47,0,0,0-.29,1.68,4.24,4.24,0,0,0,.43,1.93,3.41,3.41,0,0,0,1.24,1.37,3.72,3.72,0,0,0,2,.5,3.31,3.31,0,0,0,1.11-.18,3.47,3.47,0,0,0,1.53-1.1.59.59,0,0,1,.38-.16.45.45,0,0,1,.33.14.49.49,0,0,1,.14.33.51.51,0,0,1-.18.38,4.88,4.88,0,0,1-1.41,1.12A3.79,3.79,0,0,1,174.73,25Z"/><path class="cls-9" d="M181.66,24.23a.52.52,0,0,1-.16.38.55.55,0,0,1-.38.16.57.57,0,0,1-.39-.16.55.55,0,0,1-.15-.38V12a.55.55,0,0,1,.16-.38.52.52,0,0,1,.38-.16.5.5,0,0,1,.39.16.54.54,0,0,1,.15.38Z"/><path class="cls-9" d="M193.9,15.35a3.88,3.88,0,0,1,2.17.62,4.23,4.23,0,0,1,1.5,1.68,5.29,5.29,0,0,1,.56,2.47,5.38,5.38,0,0,1-.56,2.47,4.39,4.39,0,0,1-1.51,1.73,3.81,3.81,0,0,1-2.14.63,3.68,3.68,0,0,1-1.2-.2,4,4,0,0,1-1-.53,3.85,3.85,0,0,1-.83-.78,4.22,4.22,0,0,1-.58-1l.33-.23v2a.5.5,0,0,1-.16.39.52.52,0,0,1-.38.15.51.51,0,0,1-.54-.54V12a.52.52,0,0,1,.14-.39.54.54,0,0,1,.4-.15.52.52,0,0,1,.38.15.5.5,0,0,1,.16.39v6l-.25-.15a3.15,3.15,0,0,1,.53-1,3.89,3.89,0,0,1,.81-.81,4.37,4.37,0,0,1,1-.53A3.77,3.77,0,0,1,193.9,15.35Zm-.09,1a3,3,0,0,0-1.71.49,3.34,3.34,0,0,0-1.16,1.33,4.29,4.29,0,0,0-.42,1.94,4.47,4.47,0,0,0,.42,2,3.37,3.37,0,0,0,1.16,1.36,3,3,0,0,0,1.71.5,2.9,2.9,0,0,0,1.68-.5,3.49,3.49,0,0,0,1.16-1.38,4.29,4.29,0,0,0,.44-1.94,4.17,4.17,0,0,0-.44-1.94,3.34,3.34,0,0,0-1.16-1.33A2.89,2.89,0,0,0,193.81,16.36Z"/><path class="cls-9" d="M208.82,20.16a5,5,0,0,1-.6,2.46,4.62,4.62,0,0,1-1.63,1.71,4.63,4.63,0,0,1-4.63,0,4.57,4.57,0,0,1-1.64-1.71,5.29,5.29,0,0,1,0-4.93A4.57,4.57,0,0,1,202,16a4.57,4.57,0,0,1,4.63,0,4.62,4.62,0,0,1,1.63,1.71A5,5,0,0,1,208.82,20.16Zm-1.08,0a4.12,4.12,0,0,0-.45-1.95,3.49,3.49,0,0,0-1.23-1.35,3.28,3.28,0,0,0-1.79-.5,3.24,3.24,0,0,0-1.77.5,3.54,3.54,0,0,0-1.25,1.35,4.13,4.13,0,0,0-.46,1.95,4.06,4.06,0,0,0,.46,1.94,3.51,3.51,0,0,0,1.25,1.34,3.24,3.24,0,0,0,1.77.5,3.28,3.28,0,0,0,1.79-.5,3.46,3.46,0,0,0,1.23-1.34A4.05,4.05,0,0,0,207.74,20.16Z"/><path class="cls-9" d="M212.07,24.23a.52.52,0,0,1-.16.38.55.55,0,0,1-.38.16.53.53,0,0,1-.38-.16.52.52,0,0,1-.16-.38V12a.52.52,0,0,1,.17-.38.49.49,0,0,1,.37-.16.5.5,0,0,1,.39.16.54.54,0,0,1,.15.38Z"/><path class="cls-9" d="M223.37,20.16a5,5,0,0,1-.6,2.46,4.7,4.7,0,0,1-1.63,1.71,4.65,4.65,0,0,1-4.64,0,4.64,4.64,0,0,1-1.64-1.71,5.36,5.36,0,0,1,0-4.93A4.64,4.64,0,0,1,216.5,16a4.59,4.59,0,0,1,4.64,0,4.7,4.7,0,0,1,1.63,1.71A5,5,0,0,1,223.37,20.16Zm-1.08,0a4.12,4.12,0,0,0-.45-1.95,3.49,3.49,0,0,0-1.23-1.35,3.3,3.3,0,0,0-1.79-.5,3.27,3.27,0,0,0-1.78.5,3.59,3.59,0,0,0-1.24,1.35,4,4,0,0,0-.46,1.95,4,4,0,0,0,.46,1.94A3.56,3.56,0,0,0,217,23.44a3.27,3.27,0,0,0,1.78.5,3.3,3.3,0,0,0,1.79-.5,3.46,3.46,0,0,0,1.23-1.34A4.05,4.05,0,0,0,222.29,20.16Z"/><path class="cls-9" d="M238,15.57a.53.53,0,0,1,.39.16.57.57,0,0,1,.15.4v8.1a.55.55,0,0,1-.54.54.54.54,0,0,1-.4-.16.59.59,0,0,1-.14-.38V22.09l.3-.15a2.13,2.13,0,0,1-.28,1,3.61,3.61,0,0,1-.76,1,4,4,0,0,1-1.14.73,3.76,3.76,0,0,1-1.43.28,3.86,3.86,0,0,1-2.17-.63,4.24,4.24,0,0,1-1.51-1.73,5.37,5.37,0,0,1-.55-2.47,5.29,5.29,0,0,1,.55-2.47A4.27,4.27,0,0,1,232,16a3.92,3.92,0,0,1,4.77.39,3.58,3.58,0,0,1,.79,1.07,2.93,2.93,0,0,1,.29,1.25l-.38-.27V16.13a.61.61,0,0,1,.14-.4A.51.51,0,0,1,238,15.57Zm-3.75,8.37a3,3,0,0,0,1.7-.5,3.44,3.44,0,0,0,1.16-1.36,4.47,4.47,0,0,0,.42-2,4.21,4.21,0,0,0-.42-1.9,3.48,3.48,0,0,0-1.16-1.35,2.94,2.94,0,0,0-1.7-.51,3,3,0,0,0-1.68.49,3.29,3.29,0,0,0-1.17,1.33,4.29,4.29,0,0,0-.42,1.94,4.61,4.61,0,0,0,.41,2,3.29,3.29,0,0,0,1.16,1.36A3,3,0,0,0,234.22,23.94Z"/><path class="cls-9" d="M245.65,15.61h4.2a.49.49,0,0,1,.36.15.53.53,0,0,1,.14.37.49.49,0,0,1-.14.34.48.48,0,0,1-.36.14h-4.2a.53.53,0,0,1-.37-.15.49.49,0,0,1-.15-.35.49.49,0,0,1,.15-.36A.52.52,0,0,1,245.65,15.61Zm1.86-2.54a.53.53,0,0,1,.39.16.54.54,0,0,1,.15.38v9a1.67,1.67,0,0,0,.13.76.65.65,0,0,0,.35.33,1.14,1.14,0,0,0,.44.08.75.75,0,0,0,.26,0,.67.67,0,0,1,.26-.05.39.39,0,0,1,.28.13.48.48,0,0,1,.11.32.5.5,0,0,1-.28.43,1.38,1.38,0,0,1-.69.17l-.48,0a1.77,1.77,0,0,1-.67-.2,1.28,1.28,0,0,1-.57-.6A2.75,2.75,0,0,1,247,22.7V13.61a.54.54,0,0,1,.15-.38A.5.5,0,0,1,247.51,13.07Z"/><path class="cls-9" d="M252.65,24.77a.52.52,0,0,1-.39-.16.55.55,0,0,1-.15-.38V16.16a.49.49,0,0,1,.16-.37.5.5,0,0,1,.38-.17.51.51,0,0,1,.39.17.51.51,0,0,1,.15.37v2.7l-.27.06a4,4,0,0,1,.32-1.25,4.16,4.16,0,0,1,.71-1.15,3.66,3.66,0,0,1,1.07-.84,3,3,0,0,1,1.4-.33,1.6,1.6,0,0,1,.63.14.46.46,0,0,1,.3.44.56.56,0,0,1-.14.41.46.46,0,0,1-.34.15.79.79,0,0,1-.35-.09,1.21,1.21,0,0,0-.5-.09,2,2,0,0,0-1,.29,3.65,3.65,0,0,0-.92.81,4.16,4.16,0,0,0-.65,1.12,3.24,3.24,0,0,0-.25,1.25v4.45a.52.52,0,0,1-.16.38A.55.55,0,0,1,252.65,24.77Z"/><path class="cls-9" d="M266.07,15.57a.51.51,0,0,1,.39.16.57.57,0,0,1,.15.4v8.1a.52.52,0,0,1-.16.38.57.57,0,0,1-.38.16.54.54,0,0,1-.4-.16.59.59,0,0,1-.14-.38V22.09l.31-.15a2.25,2.25,0,0,1-.28,1,3.66,3.66,0,0,1-.77,1,3.91,3.91,0,0,1-1.14.73,3.76,3.76,0,0,1-1.43.28,3.86,3.86,0,0,1-2.17-.63,4.31,4.31,0,0,1-1.51-1.73,5.37,5.37,0,0,1-.55-2.47,5.17,5.17,0,0,1,.56-2.47A4.18,4.18,0,0,1,260.06,16a3.92,3.92,0,0,1,4.77.39,3.58,3.58,0,0,1,.79,1.07,2.93,2.93,0,0,1,.29,1.25l-.38-.27V16.13a.61.61,0,0,1,.14-.4A.51.51,0,0,1,266.07,15.57Zm-3.74,8.37a3,3,0,0,0,1.69-.5,3.37,3.37,0,0,0,1.16-1.36,4.47,4.47,0,0,0,.42-2,4.21,4.21,0,0,0-.42-1.9A3.4,3.4,0,0,0,264,16.87a2.93,2.93,0,0,0-1.69-.51,3,3,0,0,0-1.69.49,3.29,3.29,0,0,0-1.17,1.33,4.29,4.29,0,0,0-.42,1.94,4.61,4.61,0,0,0,.41,2,3.37,3.37,0,0,0,1.16,1.36A3,3,0,0,0,262.33,23.94Z"/><path class="cls-9" d="M269,15.37a.51.51,0,0,1,.28.09.54.54,0,0,1,.22.27l3.15,7.49-.23.14,3.22-7.63a.49.49,0,0,1,.52-.34.56.56,0,0,1,.34.12.38.38,0,0,1,.16.33.72.72,0,0,1,0,.17.58.58,0,0,0-.05.14L273,24.43a.55.55,0,0,1-.8.26.68.68,0,0,1-.22-.26l-3.55-8.28a.81.81,0,0,1,0-.11.39.39,0,0,1,0-.15.56.56,0,0,1,.14-.36A.57.57,0,0,1,269,15.37Z"/><path class="cls-9" d="M282.27,25a4.91,4.91,0,0,1-2.45-.6,4.16,4.16,0,0,1-1.65-1.65,5,5,0,0,1-.6-2.49,5.19,5.19,0,0,1,.61-2.61,4.39,4.39,0,0,1,1.56-1.66,3.92,3.92,0,0,1,2.05-.59,4.45,4.45,0,0,1,1.53.28,3.92,3.92,0,0,1,1.33.83,4.34,4.34,0,0,1,.93,1.34,4.57,4.57,0,0,1,.38,1.84.5.5,0,0,1-.16.37.54.54,0,0,1-.38.15H278.2l-.21-1h7.09l-.23.21V19a2.79,2.79,0,0,0-.56-1.44,3.18,3.18,0,0,0-1.13-.9,3.17,3.17,0,0,0-2.48-.09,3,3,0,0,0-1,.68,3.4,3.4,0,0,0-.74,1.17,4.75,4.75,0,0,0,.14,3.61,3.41,3.41,0,0,0,1.24,1.37,3.71,3.71,0,0,0,2,.5,3.33,3.33,0,0,0,1.12-.18,3.47,3.47,0,0,0,1.53-1.1.59.59,0,0,1,.38-.16.45.45,0,0,1,.33.14.49.49,0,0,1,.14.33.51.51,0,0,1-.18.38,4.88,4.88,0,0,1-1.41,1.12A3.79,3.79,0,0,1,282.27,25Zm-.65-10.12a.24.24,0,0,1-.18-.1.28.28,0,0,1-.1-.22.48.48,0,0,1,.09-.25l1.09-1.71a1.06,1.06,0,0,1,.25-.27.52.52,0,0,1,.37-.13.65.65,0,0,1,.43.14.49.49,0,0,1,.14.42.51.51,0,0,1,0,.22.62.62,0,0,1-.14.19l-1.35,1.42a.72.72,0,0,1-.25.21A.68.68,0,0,1,281.62,14.83Z"/><path class="cls-9" d="M287.54,23.31a.71.71,0,0,1-.13-.42.4.4,0,0,1,.22-.34.42.42,0,0,1,.34-.1.57.57,0,0,1,.35.18,3.59,3.59,0,0,0,1.18,1,3.29,3.29,0,0,0,1.64.39,3.14,3.14,0,0,0,1-.17,1.93,1.93,0,0,0,.82-.52,1.26,1.26,0,0,0,.33-.89,1.22,1.22,0,0,0-.33-.9,2.14,2.14,0,0,0-.83-.54,9.25,9.25,0,0,0-1.09-.35c-.41-.1-.81-.23-1.19-.36a4.08,4.08,0,0,1-1-.53,2.57,2.57,0,0,1-.71-.76,2.11,2.11,0,0,1-.27-1.1,2.26,2.26,0,0,1,.41-1.33,2.67,2.67,0,0,1,1.13-.9,3.77,3.77,0,0,1,1.61-.33,4.35,4.35,0,0,1,1,.12,4.18,4.18,0,0,1,1,.39,3.12,3.12,0,0,1,.9.74.49.49,0,0,1,.16.37.47.47,0,0,1-.18.36.51.51,0,0,1-.33.11.43.43,0,0,1-.32-.14,2.85,2.85,0,0,0-1-.74,3.25,3.25,0,0,0-1.28-.25,2.62,2.62,0,0,0-1,.17,1.86,1.86,0,0,0-.77.51,1.32,1.32,0,0,0-.3.9,1.25,1.25,0,0,0,.36.85,2.93,2.93,0,0,0,.89.54,11.24,11.24,0,0,0,1.23.39,10.23,10.23,0,0,1,1.11.35,3.73,3.73,0,0,1,.93.49,2.24,2.24,0,0,1,.65.75,2.39,2.39,0,0,1,.24,1.13,2.14,2.14,0,0,1-.44,1.37,2.72,2.72,0,0,1-1.18.88A4.08,4.08,0,0,1,291,25a4.94,4.94,0,0,1-1.89-.38A4.06,4.06,0,0,1,287.54,23.31Z"/><path class="cls-9" d="M308.89,11.45a.51.51,0,0,1,.54.54V24.23a.52.52,0,0,1-.16.38.55.55,0,0,1-.38.16.5.5,0,0,1-.39-.16.55.55,0,0,1-.15-.38V22.09l.31-.26a2.41,2.41,0,0,1-.27,1.06,3.62,3.62,0,0,1-.77,1,3.78,3.78,0,0,1-1.15.76A3.55,3.55,0,0,1,305,25a3.84,3.84,0,0,1-2.15-.63,4.42,4.42,0,0,1-1.52-1.71,5.71,5.71,0,0,1,0-4.93A4.4,4.4,0,0,1,302.88,16a3.88,3.88,0,0,1,2.14-.62,3.7,3.7,0,0,1,1.42.27,3.87,3.87,0,0,1,1.18.74,3.65,3.65,0,0,1,.81,1.07,2.8,2.8,0,0,1,.3,1.25l-.38-.27V12a.54.54,0,0,1,.15-.38A.47.47,0,0,1,308.89,11.45Zm-3.74,12.49a3,3,0,0,0,1.69-.5A3.34,3.34,0,0,0,308,22.09a4.37,4.37,0,0,0,.42-1.95,4.31,4.31,0,0,0-.42-1.93,3.4,3.4,0,0,0-1.16-1.35,3.11,3.11,0,0,0-3.38,0,3.51,3.51,0,0,0-1.17,1.35,4.31,4.31,0,0,0-.42,1.93,4.43,4.43,0,0,0,.42,1.95,3.51,3.51,0,0,0,1.17,1.35A3,3,0,0,0,305.15,23.94Z"/><path class="cls-9" d="M316.26,25a4.89,4.89,0,0,1-2.45-.6,4.18,4.18,0,0,1-1.66-1.65,5.09,5.09,0,0,1-.59-2.49,5.3,5.3,0,0,1,.6-2.61,4.34,4.34,0,0,1,1.57-1.66,3.86,3.86,0,0,1,2-.59,4.51,4.51,0,0,1,1.54.28,3.79,3.79,0,0,1,1.32.83,4.2,4.2,0,0,1,.94,1.34,4.75,4.75,0,0,1,.38,1.84.55.55,0,0,1-.54.52h-7.22l-.22-1h7.09l-.23.21V19a2.79,2.79,0,0,0-.56-1.44,3.23,3.23,0,0,0-1.12-.9,3.3,3.3,0,0,0-1.38-.3,3.2,3.2,0,0,0-1.11.21,2.85,2.85,0,0,0-1,.68,3.28,3.28,0,0,0-.75,1.17,4.47,4.47,0,0,0-.29,1.68,4.38,4.38,0,0,0,.43,1.93,3.44,3.44,0,0,0,1.25,1.37,3.68,3.68,0,0,0,2,.5,3.23,3.23,0,0,0,1.11-.18,3,3,0,0,0,.89-.48,2.92,2.92,0,0,0,.64-.62.62.62,0,0,1,.38-.16.45.45,0,0,1,.33.14.49.49,0,0,1,.14.33.51.51,0,0,1-.18.38,5,5,0,0,1-1.4,1.12A3.85,3.85,0,0,1,316.26,25Z"/><path class="cls-9" d="M328.28,24.23a.52.52,0,0,1-.16.38.57.57,0,0,1-.38.16.53.53,0,0,1-.39-.16.55.55,0,0,1-.15-.38V12a.51.51,0,0,1,.16-.38.52.52,0,0,1,.38-.16.51.51,0,0,1,.39.16.54.54,0,0,1,.15.38Z"/><path class="cls-9" d="M338.55,15.57a.51.51,0,0,1,.39.16.57.57,0,0,1,.15.4v8.1a.52.52,0,0,1-.16.38.57.57,0,0,1-.38.16.54.54,0,0,1-.4-.16.59.59,0,0,1-.14-.38V22.09l.31-.15a2.25,2.25,0,0,1-.28,1,3.66,3.66,0,0,1-.77,1,3.91,3.91,0,0,1-1.14.73,3.76,3.76,0,0,1-1.43.28,3.86,3.86,0,0,1-2.17-.63A4.31,4.31,0,0,1,331,22.59a5.37,5.37,0,0,1-.55-2.47,5.17,5.17,0,0,1,.56-2.47A4.18,4.18,0,0,1,332.54,16a3.92,3.92,0,0,1,4.77.39,3.58,3.58,0,0,1,.79,1.07,2.93,2.93,0,0,1,.29,1.25l-.38-.27V16.13a.61.61,0,0,1,.14-.4A.51.51,0,0,1,338.55,15.57Zm-3.74,8.37a3,3,0,0,0,1.69-.5,3.37,3.37,0,0,0,1.16-1.36,4.47,4.47,0,0,0,.42-2,4.21,4.21,0,0,0-.42-1.9,3.4,3.4,0,0,0-1.16-1.35,2.91,2.91,0,0,0-1.69-.51,3,3,0,0,0-1.69.49A3.29,3.29,0,0,0,332,18.18a4.29,4.29,0,0,0-.42,1.94,4.61,4.61,0,0,0,.41,2,3.31,3.31,0,0,0,1.17,1.36A3,3,0,0,0,334.81,23.94Z"/><path class="cls-9" d="M351.73,15.32a1,1,0,0,1,.72.28.93.93,0,0,1,.28.71,1,1,0,0,1-.28.71,1,1,0,0,1-.72.28H347a1,1,0,0,1-.72-.28.92.92,0,0,1-.29-.71.91.91,0,0,1,.29-.71,1,1,0,0,1,.72-.28Zm-.2-3.87a2.52,2.52,0,0,1,.77.11,1.39,1.39,0,0,1,.63.35.83.83,0,0,1,.25.64.94.94,0,0,1-.26.71.83.83,0,0,1-.6.26,2.52,2.52,0,0,1-.49-.08,2.27,2.27,0,0,0-.63-.08,1.07,1.07,0,0,0-.69.19,1.1,1.1,0,0,0-.33.46,1.48,1.48,0,0,0-.09.46v9.2a1.06,1.06,0,0,1-.31.78,1,1,0,0,1-.77.32,1.06,1.06,0,0,1-.78-.32,1.09,1.09,0,0,1-.3-.78V14.49a2.91,2.91,0,0,1,.9-2.16A3.7,3.7,0,0,1,351.53,11.45Z"/><path class="cls-9" d="M361.65,15a1.07,1.07,0,0,1,.78.3,1.1,1.1,0,0,1,.3.8v7.61a1.09,1.09,0,0,1-.3.78,1,1,0,0,1-.78.32,1,1,0,0,1-.77-.32,1.06,1.06,0,0,1-.31-.78v-.88l.4.16a1,1,0,0,1-.25.57,3.35,3.35,0,0,1-.69.65,4,4,0,0,1-1,.55,3.54,3.54,0,0,1-1.27.23,4.16,4.16,0,0,1-2.25-.64,4.47,4.47,0,0,1-1.6-1.76,5.55,5.55,0,0,1-.58-2.59,5.56,5.56,0,0,1,.58-2.6,4.5,4.5,0,0,1,1.58-1.76,3.93,3.93,0,0,1,2.2-.64,4.36,4.36,0,0,1,1.42.23,4.41,4.41,0,0,1,1.12.6,3.4,3.4,0,0,1,.74.72,1.22,1.22,0,0,1,.26.63l-.65.23V16.06a1.06,1.06,0,0,1,.31-.79A1,1,0,0,1,361.65,15ZM358,23a2.38,2.38,0,0,0,1.38-.4,2.59,2.59,0,0,0,.93-1.08,3.44,3.44,0,0,0,.33-1.53,3.56,3.56,0,0,0-.33-1.55,2.71,2.71,0,0,0-.93-1.08,2.62,2.62,0,0,0-2.75,0,2.71,2.71,0,0,0-.93,1.08,3.56,3.56,0,0,0-.33,1.55,3.44,3.44,0,0,0,.33,1.53,2.59,2.59,0,0,0,.93,1.08A2.37,2.37,0,0,0,358,23Z"/><path class="cls-9" d="M366.08,24.77a1,1,0,0,1-.77-.32,1.1,1.1,0,0,1-.31-.78V16.24a1.1,1.1,0,0,1,.31-.79,1,1,0,0,1,.77-.31,1,1,0,0,1,.78.31,1.09,1.09,0,0,1,.3.79v1.69L367,16.72a2.67,2.67,0,0,1,.51-.76,2.92,2.92,0,0,1,.71-.56,3.26,3.26,0,0,1,.85-.33A3.47,3.47,0,0,1,370,15a1.4,1.4,0,0,1,.91.3,1,1,0,0,1,.37.72,1.08,1.08,0,0,1-.31.86,1,1,0,0,1-.67.26,1.44,1.44,0,0,1-.62-.13,1.61,1.61,0,0,0-1.29,0,1.71,1.71,0,0,0-.61.48,2.29,2.29,0,0,0-.45.8,3.17,3.17,0,0,0-.18,1.12v4.27a1.09,1.09,0,0,1-.3.78A1,1,0,0,1,366.08,24.77Z"/><path class="cls-9" d="M373.65,14a1.46,1.46,0,0,1-.87-.2.84.84,0,0,1-.25-.7v-.34a.81.81,0,0,1,.28-.72,1.58,1.58,0,0,1,.85-.18,1.53,1.53,0,0,1,.89.19.9.9,0,0,1,.25.71v.34a.81.81,0,0,1-.27.71A1.64,1.64,0,0,1,373.65,14Zm1.09,9.7a1.09,1.09,0,0,1-.3.78,1,1,0,0,1-.78.32,1,1,0,0,1-.77-.32,1.1,1.1,0,0,1-.31-.78V16.24a1.1,1.1,0,0,1,.31-.79,1,1,0,0,1,.77-.31,1,1,0,0,1,.78.31,1.09,1.09,0,0,1,.3.79Z"/><path class="cls-9" d="M382.1,15a3.12,3.12,0,0,1,2,.56,2.86,2.86,0,0,1,1,1.48,7.79,7.79,0,0,1,.26,2.06v4.61a1.1,1.1,0,0,1-.31.78,1,1,0,0,1-.77.32,1,1,0,0,1-.78-.32,1.09,1.09,0,0,1-.3-.78V19.06A3.29,3.29,0,0,0,383,18a1.45,1.45,0,0,0-.54-.76,1.89,1.89,0,0,0-1.14-.29,2.28,2.28,0,0,0-1.21.29,1.92,1.92,0,0,0-.76.76,2.26,2.26,0,0,0-.26,1.07v4.61a1.06,1.06,0,0,1-.31.78,1,1,0,0,1-.77.32,1.06,1.06,0,0,1-.78-.32,1.09,1.09,0,0,1-.3-.78V16.24a1.09,1.09,0,0,1,.3-.79,1.06,1.06,0,0,1,.78-.31,1,1,0,0,1,.77.31,1.06,1.06,0,0,1,.31.79V17l-.27-.05a3.13,3.13,0,0,1,.47-.66,4.19,4.19,0,0,1,.72-.66,3.43,3.43,0,0,1,.93-.49A3.25,3.25,0,0,1,382.1,15Z"/><path class="cls-9" d="M391.5,15a4.08,4.08,0,0,1,1.38.23,4.21,4.21,0,0,1,1.09.6,3.49,3.49,0,0,1,.72.72,1.22,1.22,0,0,1,.26.63l-.47.23V16.06a1.1,1.1,0,0,1,.31-.79,1,1,0,0,1,.77-.31,1.07,1.07,0,0,1,.78.3,1.1,1.1,0,0,1,.3.8v8a4.24,4.24,0,0,1-.67,2.51,3.79,3.79,0,0,1-1.77,1.36,6.38,6.38,0,0,1-2.36.43,6.45,6.45,0,0,1-.94-.09c-.38-.06-.75-.13-1.1-.22a6.3,6.3,0,0,1-.79-.23,1.55,1.55,0,0,1-.75-.59.91.91,0,0,1-.08-.74,1.17,1.17,0,0,1,.53-.72.89.89,0,0,1,.75,0l.6.22c.27.1.57.2.9.29a3.46,3.46,0,0,0,.88.14,3.1,3.1,0,0,0,2-.54,1.85,1.85,0,0,0,.64-1.5V22.79l.22.16a1,1,0,0,1-.24.57,3.47,3.47,0,0,1-.67.65,3.81,3.81,0,0,1-1,.55,3.31,3.31,0,0,1-1.22.23,4.36,4.36,0,0,1-2.31-.64,4.59,4.59,0,0,1-1.62-1.76,5.55,5.55,0,0,1-.59-2.59,5.57,5.57,0,0,1,.59-2.6,4.5,4.5,0,0,1,1.61-1.76A4.07,4.07,0,0,1,391.5,15Zm.34,2a2.56,2.56,0,0,0-1.42.39,2.79,2.79,0,0,0-1,1.08,3.43,3.43,0,0,0-.34,1.55,3.31,3.31,0,0,0,.34,1.53,2.65,2.65,0,0,0,1,1.08,2.49,2.49,0,0,0,1.42.4,2.56,2.56,0,0,0,1.44-.4,2.63,2.63,0,0,0,1-1.08,3.31,3.31,0,0,0,.34-1.53,3.43,3.43,0,0,0-.34-1.55,2.76,2.76,0,0,0-1-1.08A2.63,2.63,0,0,0,391.84,16.94Z"/><path class="cls-9" d="M403.41,25a5.37,5.37,0,0,1-2.66-.64A4.45,4.45,0,0,1,399,22.57a5.08,5.08,0,0,1-.6-2.48,5.49,5.49,0,0,1,.66-2.77,4.59,4.59,0,0,1,1.72-1.75,4.37,4.37,0,0,1,2.25-.61,3.94,3.94,0,0,1,1.73.38,4.62,4.62,0,0,1,1.45,1,5.21,5.21,0,0,1,1,1.52,4.58,4.58,0,0,1,.37,1.84.93.93,0,0,1-.34.7,1.16,1.16,0,0,1-.76.27h-6.87l-.54-1.8h6.6l-.39.36v-.49a1.69,1.69,0,0,0-.37-.93,2.43,2.43,0,0,0-.83-.66,2.38,2.38,0,0,0-1.05-.24,3.62,3.62,0,0,0-1,.14,2,2,0,0,0-.81.49,2.29,2.29,0,0,0-.54.92,4.57,4.57,0,0,0-.2,1.45,3.06,3.06,0,0,0,.41,1.65,2.71,2.71,0,0,0,1,1,2.81,2.81,0,0,0,1.36.35,4.25,4.25,0,0,0,1.06-.11,2.42,2.42,0,0,0,.64-.26l.44-.26a1.35,1.35,0,0,1,.61-.16.9.9,0,0,1,.92.9,1.15,1.15,0,0,1-.5.88,4.37,4.37,0,0,1-1.32.69A5.14,5.14,0,0,1,403.41,25Z"/><path class="cls-9" d="M421.42,15.41a.5.5,0,0,1,.39.16A.54.54,0,0,1,422,16v7.94a4.85,4.85,0,0,1-.57,2.45,3.81,3.81,0,0,1-1.55,1.51,4.59,4.59,0,0,1-2.21.52,5.92,5.92,0,0,1-1.44-.17,4,4,0,0,1-1.07-.44,1,1,0,0,1-.32-.31.39.39,0,0,1,0-.38.5.5,0,0,1,.28-.33.45.45,0,0,1,.39,0,7.48,7.48,0,0,0,.88.39,3.72,3.72,0,0,0,3-.18,2.77,2.77,0,0,0,1.13-1.19,4.19,4.19,0,0,0,.39-1.87V22.61L421,23a3.16,3.16,0,0,1-.77,1,3.56,3.56,0,0,1-1.13.67,3.65,3.65,0,0,1-1.36.25,3.37,3.37,0,0,1-1.79-.44,2.71,2.71,0,0,1-1-1.22,4.41,4.41,0,0,1-.35-1.82V16a.54.54,0,0,1,.15-.38.51.51,0,0,1,.4-.16.49.49,0,0,1,.38.16.55.55,0,0,1,.16.38v5.36a3.1,3.1,0,0,0,.54,2,2.19,2.19,0,0,0,1.79.68,2.8,2.8,0,0,0,1.43-.37,3.18,3.18,0,0,0,1.06-1,2.27,2.27,0,0,0,.41-1.29V16a.51.51,0,0,1,.16-.38A.49.49,0,0,1,421.42,15.41Z"/><path class="cls-9" d="M433.79,25a4.89,4.89,0,0,1-2.45-.6,4.1,4.1,0,0,1-1.65-1.65,5,5,0,0,1-.6-2.49,5.3,5.3,0,0,1,.6-2.61,4.49,4.49,0,0,1,1.57-1.66,3.86,3.86,0,0,1,2-.59,4.51,4.51,0,0,1,1.54.28,3.79,3.79,0,0,1,1.32.83,4.2,4.2,0,0,1,.94,1.34,4.57,4.57,0,0,1,.38,1.84.54.54,0,0,1-.16.37.55.55,0,0,1-.38.15h-7.22l-.22-1h7.1l-.24.21V19a2.78,2.78,0,0,0-.55-1.44,3.14,3.14,0,0,0-2.51-1.2,3.11,3.11,0,0,0-1.1.21,3,3,0,0,0-1,.68,3.28,3.28,0,0,0-.75,1.17,4.47,4.47,0,0,0-.29,1.68,4.25,4.25,0,0,0,.44,1.93,3.41,3.41,0,0,0,1.24,1.37,3.68,3.68,0,0,0,2,.5,3.22,3.22,0,0,0,2-.66,3.16,3.16,0,0,0,.64-.62.57.57,0,0,1,.37-.16.46.46,0,0,1,.34.14.48.48,0,0,1,.13.33.51.51,0,0,1-.18.38,5,5,0,0,1-1.4,1.12A3.85,3.85,0,0,1,433.79,25Z"/><path class="cls-9" d="M439.06,23.31a.65.65,0,0,1-.13-.42.4.4,0,0,1,.22-.34.41.41,0,0,1,.33-.1.52.52,0,0,1,.35.18,3.8,3.8,0,0,0,1.18,1,3.33,3.33,0,0,0,1.65.39,3.14,3.14,0,0,0,1-.17,2,2,0,0,0,.82-.52,1.3,1.3,0,0,0,.32-.89,1.25,1.25,0,0,0-.32-.9,2.26,2.26,0,0,0-.84-.54,8.19,8.19,0,0,0-1.09-.35c-.4-.1-.8-.23-1.19-.36a4.19,4.19,0,0,1-1-.53,2.45,2.45,0,0,1-.71-.76,2.11,2.11,0,0,1-.27-1.1,2.19,2.19,0,0,1,.41-1.33,2.67,2.67,0,0,1,1.13-.9,3.77,3.77,0,0,1,1.61-.33,4.35,4.35,0,0,1,1,.12,4,4,0,0,1,1,.39,2.88,2.88,0,0,1,.9.74.5.5,0,0,1,.17.37.47.47,0,0,1-.18.36.51.51,0,0,1-.34.11.41.41,0,0,1-.31-.14,2.8,2.8,0,0,0-1-.74,3.18,3.18,0,0,0-1.28-.25,2.7,2.7,0,0,0-1,.17,1.83,1.83,0,0,0-.76.51,1.28,1.28,0,0,0-.31.9,1.31,1.31,0,0,0,.37.85,2.87,2.87,0,0,0,.88.54,12.21,12.21,0,0,0,1.24.39A9.42,9.42,0,0,1,444,20a3.63,3.63,0,0,1,.94.49,2.24,2.24,0,0,1,.65.75,2.39,2.39,0,0,1,.24,1.13,2.2,2.2,0,0,1-.44,1.37,2.78,2.78,0,0,1-1.18.88,4.13,4.13,0,0,1-1.64.31,4.89,4.89,0,0,1-1.88-.38A4.06,4.06,0,0,1,439.06,23.31Z"/><path class="cls-9" d="M447.47,15.61h4.19a.46.46,0,0,1,.36.15.5.5,0,0,1,.15.37.46.46,0,0,1-.15.34.45.45,0,0,1-.36.14h-4.19a.5.5,0,0,1-.37-.15.49.49,0,0,1-.15-.35.5.5,0,0,1,.52-.5Zm1.85-2.54a.5.5,0,0,1,.39.16.54.54,0,0,1,.15.38v9a1.66,1.66,0,0,0,.14.76.62.62,0,0,0,.35.33,1.09,1.09,0,0,0,.43.08.71.71,0,0,0,.26,0,.75.75,0,0,1,.26-.05.39.39,0,0,1,.28.13.44.44,0,0,1,.12.32.51.51,0,0,1-.29.43,1.34,1.34,0,0,1-.68.17l-.49,0a1.77,1.77,0,0,1-.67-.2,1.32,1.32,0,0,1-.56-.6,2.74,2.74,0,0,1-.23-1.24V13.61a.51.51,0,0,1,.16-.38A.49.49,0,0,1,449.32,13.07Z"/><path class="cls-9" d="M457.68,25a4.89,4.89,0,0,1-2.45-.6,4.18,4.18,0,0,1-1.66-1.65,5.09,5.09,0,0,1-.59-2.49,5.3,5.3,0,0,1,.6-2.61,4.41,4.41,0,0,1,1.57-1.66,3.86,3.86,0,0,1,2-.59,4.51,4.51,0,0,1,1.54.28,3.79,3.79,0,0,1,1.32.83A4.2,4.2,0,0,1,461,17.8a4.57,4.57,0,0,1,.38,1.84.54.54,0,0,1-.16.37.55.55,0,0,1-.38.15h-7.22l-.22-1h7.1l-.24.21V19a2.7,2.7,0,0,0-.56-1.44,3.14,3.14,0,0,0-1.12-.9,3.3,3.3,0,0,0-1.38-.3,3.2,3.2,0,0,0-1.11.21,2.94,2.94,0,0,0-1,.68,3.28,3.28,0,0,0-.75,1.17,4.47,4.47,0,0,0-.29,1.68,4.25,4.25,0,0,0,.44,1.93,3.34,3.34,0,0,0,1.24,1.37,3.68,3.68,0,0,0,2,.5,3.22,3.22,0,0,0,2-.66,3.44,3.44,0,0,0,.64-.62.57.57,0,0,1,.37-.16.46.46,0,0,1,.47.47.51.51,0,0,1-.18.38,5,5,0,0,1-1.4,1.12A3.85,3.85,0,0,1,457.68,25Z"/><path class="cls-9" d="M14.8,43.31a.73.73,0,0,1-.14-.42.42.42,0,0,1,.23-.34.4.4,0,0,1,.33-.1.52.52,0,0,1,.35.18,3.8,3.8,0,0,0,1.18,1A3.3,3.3,0,0,0,18.4,44a3.18,3.18,0,0,0,1-.17,2,2,0,0,0,.82-.52,1.3,1.3,0,0,0,.32-.89,1.25,1.25,0,0,0-.32-.9,2.26,2.26,0,0,0-.84-.54,8.19,8.19,0,0,0-1.09-.35c-.41-.1-.8-.23-1.19-.36a4.19,4.19,0,0,1-1-.53,2.6,2.6,0,0,1-.72-.76,2.11,2.11,0,0,1-.26-1.1,2.19,2.19,0,0,1,.41-1.33,2.64,2.64,0,0,1,1.12-.9,3.81,3.81,0,0,1,1.62-.33,4.35,4.35,0,0,1,1,.12,4.12,4.12,0,0,1,1,.39,2.88,2.88,0,0,1,.9.74.49.49,0,0,1,.16.37.49.49,0,0,1-.17.36.51.51,0,0,1-.34.11.41.41,0,0,1-.31-.14,2.8,2.8,0,0,0-1-.74,3.21,3.21,0,0,0-1.28-.25,2.66,2.66,0,0,0-1,.17,1.83,1.83,0,0,0-.76.51,1.28,1.28,0,0,0-.31.9,1.26,1.26,0,0,0,.37.85,2.87,2.87,0,0,0,.88.54,12.82,12.82,0,0,0,1.23.39,9,9,0,0,1,1.11.35,3.63,3.63,0,0,1,.94.49,2.35,2.35,0,0,1,.65.75,2.39,2.39,0,0,1,.24,1.13,2.2,2.2,0,0,1-.44,1.37,2.85,2.85,0,0,1-1.18.88,4.13,4.13,0,0,1-1.64.31,4.89,4.89,0,0,1-1.88-.38A4,4,0,0,1,14.8,43.31Z"/><path class="cls-9" d="M27.73,45a4.91,4.91,0,0,1-2.45-.6,4.16,4.16,0,0,1-1.65-1.65,5,5,0,0,1-.6-2.49,5.19,5.19,0,0,1,.61-2.61,4.39,4.39,0,0,1,1.56-1.66,3.92,3.92,0,0,1,2.05-.59,4.45,4.45,0,0,1,1.53.28,3.92,3.92,0,0,1,1.33.83A4.34,4.34,0,0,1,31,37.8a4.57,4.57,0,0,1,.38,1.84.5.5,0,0,1-.16.37.54.54,0,0,1-.38.15H23.66l-.21-1h7.09l-.23.21V39a2.79,2.79,0,0,0-.56-1.44,3.18,3.18,0,0,0-1.13-.9,3.17,3.17,0,0,0-2.48-.09,3,3,0,0,0-1,.68,3.4,3.4,0,0,0-.74,1.17,4.75,4.75,0,0,0,.14,3.61,3.41,3.41,0,0,0,1.24,1.37,3.71,3.71,0,0,0,2,.5,3.33,3.33,0,0,0,1.12-.18,3.47,3.47,0,0,0,1.53-1.1.59.59,0,0,1,.38-.16.45.45,0,0,1,.33.14.49.49,0,0,1,.14.33.51.51,0,0,1-.18.38,4.88,4.88,0,0,1-1.41,1.12A3.79,3.79,0,0,1,27.73,45Z"/><path class="cls-9" d="M46,31.45a.56.56,0,0,1,.39.15.53.53,0,0,1,.15.39V44.23a.55.55,0,0,1-.54.54.54.54,0,0,1-.4-.16.59.59,0,0,1-.14-.38V42.09l.3-.26a2.41,2.41,0,0,1-.27,1.06,3.58,3.58,0,0,1-.76,1,3.78,3.78,0,0,1-1.15.76,3.58,3.58,0,0,1-1.43.29A3.87,3.87,0,0,1,40,44.32a4.51,4.51,0,0,1-1.52-1.71,5.8,5.8,0,0,1,0-4.93A4.51,4.51,0,0,1,40,36a3.86,3.86,0,0,1,2.14-.62,3.74,3.74,0,0,1,1.42.27,4,4,0,0,1,1.18.74,3.65,3.65,0,0,1,.81,1.07,2.8,2.8,0,0,1,.3,1.25l-.38-.27V32a.57.57,0,0,1,.14-.38A.51.51,0,0,1,46,31.45ZM42.29,43.94a3,3,0,0,0,1.7-.5,3.41,3.41,0,0,0,1.16-1.35,4.37,4.37,0,0,0,.42-2,4.31,4.31,0,0,0-.42-1.93A3.48,3.48,0,0,0,44,36.86a3.11,3.11,0,0,0-3.38,0,3.35,3.35,0,0,0-1.17,1.35A4.31,4.31,0,0,0,39,40.14a4.43,4.43,0,0,0,.42,2,3.35,3.35,0,0,0,1.17,1.35A3,3,0,0,0,42.29,43.94Z"/><path class="cls-9" d="M53.4,45a4.91,4.91,0,0,1-2.45-.6A4.16,4.16,0,0,1,49.3,42.7a5,5,0,0,1-.6-2.49,5.19,5.19,0,0,1,.61-2.61,4.39,4.39,0,0,1,1.56-1.66,3.92,3.92,0,0,1,2.05-.59,4.45,4.45,0,0,1,1.53.28,3.92,3.92,0,0,1,1.33.83,4.34,4.34,0,0,1,.93,1.34,4.57,4.57,0,0,1,.38,1.84.5.5,0,0,1-.16.37.54.54,0,0,1-.38.15H49.33l-.21-1h7.09L56,39.4V39a2.79,2.79,0,0,0-.56-1.44,3.18,3.18,0,0,0-1.13-.9,3.17,3.17,0,0,0-2.48-.09,3,3,0,0,0-1,.68A3.4,3.4,0,0,0,50,38.46a4.75,4.75,0,0,0,.14,3.61,3.41,3.41,0,0,0,1.24,1.37,3.71,3.71,0,0,0,2,.5,3.33,3.33,0,0,0,1.12-.18A3.47,3.47,0,0,0,56,42.66a.59.59,0,0,1,.38-.16.45.45,0,0,1,.33.14.49.49,0,0,1,.14.33.51.51,0,0,1-.18.38,4.88,4.88,0,0,1-1.41,1.12A3.79,3.79,0,0,1,53.4,45Z"/><path class="cls-9" d="M58.67,43.31a.71.71,0,0,1-.13-.42.4.4,0,0,1,.22-.34.42.42,0,0,1,.34-.1.57.57,0,0,1,.35.18,3.59,3.59,0,0,0,1.18,1,3.29,3.29,0,0,0,1.64.39,3.14,3.14,0,0,0,1-.17,1.93,1.93,0,0,0,.82-.52,1.26,1.26,0,0,0,.33-.89,1.22,1.22,0,0,0-.33-.9,2.14,2.14,0,0,0-.83-.54,9.25,9.25,0,0,0-1.09-.35c-.41-.1-.81-.23-1.19-.36a4.08,4.08,0,0,1-1-.53,2.57,2.57,0,0,1-.71-.76,2.11,2.11,0,0,1-.27-1.1,2.26,2.26,0,0,1,.41-1.33,2.67,2.67,0,0,1,1.13-.9,3.77,3.77,0,0,1,1.61-.33,4.35,4.35,0,0,1,1,.12,4.18,4.18,0,0,1,1,.39,3.12,3.12,0,0,1,.9.74.49.49,0,0,1,.16.37.47.47,0,0,1-.18.36.51.51,0,0,1-.33.11.43.43,0,0,1-.32-.14,2.85,2.85,0,0,0-1-.74,3.25,3.25,0,0,0-1.28-.25,2.62,2.62,0,0,0-1,.17,1.86,1.86,0,0,0-.77.51,1.32,1.32,0,0,0-.3.9,1.25,1.25,0,0,0,.36.85,2.93,2.93,0,0,0,.89.54,11.24,11.24,0,0,0,1.23.39A10.23,10.23,0,0,1,63.6,40a3.73,3.73,0,0,1,.93.49,2.24,2.24,0,0,1,.65.75,2.39,2.39,0,0,1,.24,1.13A2.14,2.14,0,0,1,65,43.76a2.72,2.72,0,0,1-1.18.88,4.08,4.08,0,0,1-1.63.31,4.94,4.94,0,0,1-1.89-.38A4.06,4.06,0,0,1,58.67,43.31Z"/><path class="cls-9" d="M71.85,35.5a4,4,0,0,1,2.17.6,4.24,4.24,0,0,1,1.5,1.66,5,5,0,0,1,.56,2.42,5.06,5.06,0,0,1-.56,2.43A4.28,4.28,0,0,1,74,44.28a3.85,3.85,0,0,1-2.14.61,3.68,3.68,0,0,1-1.2-.19,3.81,3.81,0,0,1-1-.51,4,4,0,0,1-.83-.76,4.16,4.16,0,0,1-.58-1l.33-.23v5.6a.53.53,0,0,1-.54.54.53.53,0,0,1-.39-.16.55.55,0,0,1-.15-.38V36.09a.58.58,0,0,1,.14-.39.51.51,0,0,1,.4-.17.52.52,0,0,1,.39.17.54.54,0,0,1,.15.39V38l-.25-.15a3.1,3.1,0,0,1,.53-1,3.73,3.73,0,0,1,1.84-1.23A4.13,4.13,0,0,1,71.85,35.5Zm-.09,1a3.16,3.16,0,0,0-1.71.47,3.32,3.32,0,0,0-1.16,1.3,4.12,4.12,0,0,0-.42,1.9,4.25,4.25,0,0,0,.42,1.91,3.31,3.31,0,0,0,1.16,1.32,3.08,3.08,0,0,0,1.71.48,3,3,0,0,0,1.69-.48,3.47,3.47,0,0,0,1.16-1.32A4.13,4.13,0,0,0,75,40.18a4,4,0,0,0-.43-1.89A3.52,3.52,0,0,0,73.45,37,3.09,3.09,0,0,0,71.76,36.51Z"/><path class="cls-9" d="M79.32,44.23a.52.52,0,0,1-.16.38.55.55,0,0,1-.38.16.57.57,0,0,1-.39-.16.55.55,0,0,1-.15-.38V32a.55.55,0,0,1,.16-.38.52.52,0,0,1,.38-.16.5.5,0,0,1,.39.16.54.54,0,0,1,.15.38Z"/><path class="cls-9" d="M89.59,35.57a.5.5,0,0,1,.39.16.57.57,0,0,1,.15.4v8.1a.52.52,0,0,1-.16.38.55.55,0,0,1-.38.16.5.5,0,0,1-.39-.16.55.55,0,0,1-.15-.38V42.09l.31-.15a2.25,2.25,0,0,1-.28,1,3.66,3.66,0,0,1-.77,1,3.91,3.91,0,0,1-1.14.73,3.72,3.72,0,0,1-1.43.28,3.88,3.88,0,0,1-2.17-.63,4.31,4.31,0,0,1-1.51-1.73,5.37,5.37,0,0,1-.55-2.47,5.29,5.29,0,0,1,.56-2.47A4.18,4.18,0,0,1,83.58,36a3.92,3.92,0,0,1,4.77.39,3.42,3.42,0,0,1,.79,1.07,2.93,2.93,0,0,1,.29,1.25l-.38-.27V36.13a.57.57,0,0,1,.15-.4A.47.47,0,0,1,89.59,35.57Zm-3.74,8.37a3,3,0,0,0,1.69-.5,3.37,3.37,0,0,0,1.16-1.36,4.47,4.47,0,0,0,.42-2,4.21,4.21,0,0,0-.42-1.9,3.4,3.4,0,0,0-1.16-1.35,2.91,2.91,0,0,0-1.69-.51,3,3,0,0,0-1.69.49A3.44,3.44,0,0,0,83,38.18a4.29,4.29,0,0,0-.42,1.94,4.47,4.47,0,0,0,.42,2,3.22,3.22,0,0,0,1.16,1.36A3,3,0,0,0,85.85,43.94Z"/><path class="cls-9" d="M98.38,43.76a.51.51,0,0,1,.37.15.49.49,0,0,1,.15.35.46.46,0,0,1-.15.36.51.51,0,0,1-.37.15H92.53a.46.46,0,0,1-.38-.18.6.6,0,0,1-.14-.34A.66.66,0,0,1,92,44a.8.8,0,0,1,.13-.21l5.45-7.54.08.16H93a.51.51,0,0,1-.37-.15.49.49,0,0,1-.15-.35.46.46,0,0,1,.15-.36.51.51,0,0,1,.37-.15h5.53a.47.47,0,0,1,.35.17A.51.51,0,0,1,99,36a.6.6,0,0,1,0,.2l-.11.2-5.42,7.47-.22-.09Z"/><path class="cls-9" d="M108,35.57a.5.5,0,0,1,.39.16.57.57,0,0,1,.15.4v8.1a.52.52,0,0,1-.16.38.55.55,0,0,1-.38.16.5.5,0,0,1-.39-.16.55.55,0,0,1-.15-.38V42.09l.31-.15a2.25,2.25,0,0,1-.28,1,3.66,3.66,0,0,1-.77,1,3.91,3.91,0,0,1-1.14.73,3.72,3.72,0,0,1-1.43.28,3.88,3.88,0,0,1-2.17-.63,4.31,4.31,0,0,1-1.51-1.73,5.37,5.37,0,0,1-.55-2.47,5.29,5.29,0,0,1,.56-2.47A4.18,4.18,0,0,1,102,36a3.92,3.92,0,0,1,4.77.39,3.58,3.58,0,0,1,.79,1.07,2.93,2.93,0,0,1,.29,1.25l-.38-.27V36.13a.57.57,0,0,1,.15-.4A.47.47,0,0,1,108,35.57Zm-3.74,8.37a3,3,0,0,0,1.69-.5,3.37,3.37,0,0,0,1.16-1.36,4.47,4.47,0,0,0,.42-2,4.21,4.21,0,0,0-.42-1.9A3.4,3.4,0,0,0,106,36.87a2.91,2.91,0,0,0-1.69-.51,3,3,0,0,0-1.69.49,3.44,3.44,0,0,0-1.17,1.33,4.29,4.29,0,0,0-.42,1.94,4.47,4.47,0,0,0,.42,2,3.22,3.22,0,0,0,1.16,1.36A3,3,0,0,0,104.28,43.94Z"/><path class="cls-9" d="M120.5,35.5a3.19,3.19,0,0,1,1.83.48,3,3,0,0,1,1,1.32,4.89,4.89,0,0,1,.33,1.83v5.1a.52.52,0,0,1-.16.38.57.57,0,0,1-.38.16.54.54,0,0,1-.4-.16.59.59,0,0,1-.14-.38v-5.1a3.75,3.75,0,0,0-.23-1.33,2,2,0,0,0-.72-.94,2.31,2.31,0,0,0-1.36-.35,3,3,0,0,0-1.43.35,2.9,2.9,0,0,0-1.08.94,2.26,2.26,0,0,0-.42,1.33v5.1a.52.52,0,0,1-.16.38.55.55,0,0,1-.38.16.5.5,0,0,1-.39-.16.55.55,0,0,1-.15-.38V32a.54.54,0,0,1,.15-.38.53.53,0,0,1,.39-.16.5.5,0,0,1,.39.16.54.54,0,0,1,.15.38v5.83l-.41.63a2.41,2.41,0,0,1,.35-1.09,3.67,3.67,0,0,1,.82-1,4.06,4.06,0,0,1,1.11-.67A3.43,3.43,0,0,1,120.5,35.5Z"/><path class="cls-9" d="M133.87,35.57a.49.49,0,0,1,.38.16.54.54,0,0,1,.16.4v8.1a.53.53,0,0,1-.17.38.52.52,0,0,1-.37.16.51.51,0,0,1-.54-.54V42.09l.3-.15a2.13,2.13,0,0,1-.28,1,3.61,3.61,0,0,1-.76,1,4,4,0,0,1-1.14.73A3.76,3.76,0,0,1,130,45a3.86,3.86,0,0,1-2.17-.63,4.34,4.34,0,0,1-1.52-1.73,5.5,5.5,0,0,1-.55-2.47,5.29,5.29,0,0,1,.56-2.47A4.27,4.27,0,0,1,127.86,36a3.92,3.92,0,0,1,4.77.39,3.58,3.58,0,0,1,.79,1.07,2.93,2.93,0,0,1,.29,1.25l-.38-.27V36.13a.56.56,0,0,1,.14-.4A.51.51,0,0,1,133.87,35.57Zm-3.75,8.37a3,3,0,0,0,1.69-.5A3.39,3.39,0,0,0,133,42.08a4.47,4.47,0,0,0,.42-2,4.21,4.21,0,0,0-.42-1.9,3.43,3.43,0,0,0-1.17-1.35,2.88,2.88,0,0,0-1.69-.51,3,3,0,0,0-1.68.49,3.29,3.29,0,0,0-1.17,1.33,4.29,4.29,0,0,0-.42,1.94,4.47,4.47,0,0,0,.41,2,3.29,3.29,0,0,0,1.16,1.36A3,3,0,0,0,130.12,43.94Z"/><path class="cls-9" d="M141.12,35.35a6.54,6.54,0,0,1,1.59.19,3.47,3.47,0,0,1,1.16.52.9.9,0,0,1,.44.7.56.56,0,0,1-.14.35.42.42,0,0,1-.33.17.6.6,0,0,1-.37-.11,2,2,0,0,1-.26-.25,1.06,1.06,0,0,0-.38-.27,3.23,3.23,0,0,0-.67-.2,5,5,0,0,0-1-.09,3.35,3.35,0,0,0-1.82.51,3.54,3.54,0,0,0-1.28,1.35,4,4,0,0,0-.47,1.92,4.3,4.3,0,0,0,.44,2,3.4,3.4,0,0,0,3.09,1.85,3.76,3.76,0,0,0,1.13-.13,3.3,3.3,0,0,0,.67-.28,2,2,0,0,0,.51-.39.5.5,0,0,1,.41-.19.41.41,0,0,1,.34.14.5.5,0,0,1,.13.35c0,.19-.14.4-.43.63a3.79,3.79,0,0,1-1.16.62A5.21,5.21,0,0,1,141,45a4.27,4.27,0,0,1-3.93-2.35,5.25,5.25,0,0,1-.57-2.46,5.06,5.06,0,0,1,.58-2.39,4.62,4.62,0,0,1,1.6-1.74A4.38,4.38,0,0,1,141.12,35.35Z"/><path class="cls-9" d="M146.65,34.2a.86.86,0,0,1-.57-.17.61.61,0,0,1-.19-.49v-.18a.6.6,0,0,1,.21-.5.9.9,0,0,1,.57-.17.8.8,0,0,1,.53.17.65.65,0,0,1,.19.5v.18a.65.65,0,0,1-.19.49A.82.82,0,0,1,146.65,34.2Zm.54,10a.53.53,0,0,1-.17.38.52.52,0,0,1-.37.16.53.53,0,0,1-.39-.16.55.55,0,0,1-.15-.38V36a.54.54,0,0,1,.15-.38.5.5,0,0,1,.39-.16.49.49,0,0,1,.38.16.51.51,0,0,1,.16.38Z"/><path class="cls-9" d="M157.35,35.57a.49.49,0,0,1,.38.16.54.54,0,0,1,.16.4v8.1a.53.53,0,0,1-.17.38.52.52,0,0,1-.37.16.51.51,0,0,1-.54-.54V42.09l.3-.15a2.13,2.13,0,0,1-.28,1,3.61,3.61,0,0,1-.76,1,4.19,4.19,0,0,1-1.14.73,3.77,3.77,0,0,1-1.44.28,3.85,3.85,0,0,1-2.16-.63,4.34,4.34,0,0,1-1.52-1.73,5.5,5.5,0,0,1-.55-2.47,5.29,5.29,0,0,1,.56-2.47A4.25,4.25,0,0,1,151.33,36a4,4,0,0,1,3.6-.35,3.87,3.87,0,0,1,1.18.74,3.76,3.76,0,0,1,.79,1.07,2.93,2.93,0,0,1,.29,1.25l-.38-.27V36.13a.56.56,0,0,1,.14-.4A.51.51,0,0,1,157.35,35.57Zm-3.75,8.37a3,3,0,0,0,1.69-.5,3.39,3.39,0,0,0,1.17-1.36,4.47,4.47,0,0,0,.42-2,4.21,4.21,0,0,0-.42-1.9,3.43,3.43,0,0,0-1.17-1.35,2.88,2.88,0,0,0-1.69-.51,3,3,0,0,0-1.68.49,3.29,3.29,0,0,0-1.17,1.33,4.29,4.29,0,0,0-.42,1.94,4.47,4.47,0,0,0,.41,2,3.29,3.29,0,0,0,1.16,1.36A3,3,0,0,0,153.6,43.94Z"/><path class="cls-9" d="M169.71,45a4.91,4.91,0,0,1-2.45-.6,4.16,4.16,0,0,1-1.65-1.65,5,5,0,0,1-.6-2.49,5.3,5.3,0,0,1,.61-2.61,4.39,4.39,0,0,1,1.56-1.66,3.92,3.92,0,0,1,2-.59,4.55,4.55,0,0,1,1.54.28,4,4,0,0,1,1.32.83A4.34,4.34,0,0,1,173,37.8a4.57,4.57,0,0,1,.38,1.84.5.5,0,0,1-.16.37.54.54,0,0,1-.38.15h-7.21l-.22-1h7.09l-.23.21V39a2.79,2.79,0,0,0-.56-1.44,3.18,3.18,0,0,0-1.13-.9,3.17,3.17,0,0,0-2.48-.09,3,3,0,0,0-1,.68,3.4,3.4,0,0,0-.74,1.17,4.75,4.75,0,0,0,.14,3.61,3.41,3.41,0,0,0,1.24,1.37,3.71,3.71,0,0,0,2,.5,3.33,3.33,0,0,0,1.12-.18,3.47,3.47,0,0,0,1.53-1.1.59.59,0,0,1,.38-.16.45.45,0,0,1,.33.14.49.49,0,0,1,.14.33.51.51,0,0,1-.18.38,4.88,4.88,0,0,1-1.41,1.12A3.79,3.79,0,0,1,169.71,45Z"/><path class="cls-9" d="M176.64,44.23a.52.52,0,0,1-.16.38.57.57,0,0,1-.38.16.53.53,0,0,1-.39-.16.55.55,0,0,1-.15-.38V32a.51.51,0,0,1,.16-.38.52.52,0,0,1,.38-.16.51.51,0,0,1,.39.16.54.54,0,0,1,.15.38Z"/><path class="cls-9" d="M188.7,45a5.37,5.37,0,0,1-2.66-.64,4.43,4.43,0,0,1-1.72-1.74,5,5,0,0,1-.61-2.48,5.49,5.49,0,0,1,.66-2.77,4.66,4.66,0,0,1,1.72-1.75,4.43,4.43,0,0,1,2.25-.61,4,4,0,0,1,1.74.38,4.74,4.74,0,0,1,1.45,1,5,5,0,0,1,1,1.52,4.58,4.58,0,0,1,.37,1.84.9.9,0,0,1-.34.7,1.13,1.13,0,0,1-.75.27h-6.88l-.54-1.8H191l-.4.36v-.49a1.69,1.69,0,0,0-.37-.93,2.34,2.34,0,0,0-.83-.66,2.38,2.38,0,0,0-1-.24,3.62,3.62,0,0,0-1,.14,2,2,0,0,0-.81.49,2.29,2.29,0,0,0-.54.92,4.57,4.57,0,0,0-.2,1.45,3.15,3.15,0,0,0,.41,1.65,2.74,2.74,0,0,0,2.4,1.38,4.19,4.19,0,0,0,1.06-.11,2.29,2.29,0,0,0,.64-.26l.44-.26a1.36,1.36,0,0,1,.62-.16.9.9,0,0,1,.91.9,1.12,1.12,0,0,1-.5.88,4.3,4.3,0,0,1-1.31.69A5.24,5.24,0,0,1,188.7,45Z"/><path class="cls-9" d="M194,43.27a1,1,0,0,1-.16-.64.86.86,0,0,1,.47-.69,1,1,0,0,1,.61-.15,1,1,0,0,1,.63.33,4.1,4.1,0,0,0,1.1.81,3.21,3.21,0,0,0,1.44.29,4.59,4.59,0,0,0,.59-.08,1.11,1.11,0,0,0,.57-.29.9.9,0,0,0,.24-.69.77.77,0,0,0-.27-.63,2.17,2.17,0,0,0-.71-.4,8.83,8.83,0,0,0-1-.3l-1.14-.36a5.06,5.06,0,0,1-1.07-.52,2.54,2.54,0,0,1-.8-.83,2.63,2.63,0,0,1-.3-1.32,2.4,2.4,0,0,1,.5-1.53,3.31,3.31,0,0,1,1.31-1,4.17,4.17,0,0,1,1.68-.34,5.44,5.44,0,0,1,1.17.13,4.83,4.83,0,0,1,1.17.43,3,3,0,0,1,.94.79,1.24,1.24,0,0,1,.23.65.78.78,0,0,1-.34.68.88.88,0,0,1-.63.19,1,1,0,0,1-.6-.24,2,2,0,0,0-.81-.63,2.8,2.8,0,0,0-1.18-.24,3.19,3.19,0,0,0-.59.06,1.35,1.35,0,0,0-.55.27.87.87,0,0,0-.23.66.84.84,0,0,0,.27.66,2,2,0,0,0,.73.39c.3.11.63.21,1,.3s.72.21,1.1.34a4.48,4.48,0,0,1,1,.53,2.43,2.43,0,0,1,.76.83,2.67,2.67,0,0,1,.29,1.31,2.35,2.35,0,0,1-.54,1.56,3.32,3.32,0,0,1-1.35,1,4.22,4.22,0,0,1-1.66.34,6.53,6.53,0,0,1-2.12-.37A3.69,3.69,0,0,1,194,43.27Z"/><path class="cls-9" d="M212.38,40a5,5,0,0,1-.66,2.6A4.65,4.65,0,0,1,210,44.32a5.18,5.18,0,0,1-5,0,4.65,4.65,0,0,1-1.76-1.76,5.45,5.45,0,0,1,0-5.2A4.65,4.65,0,0,1,205,35.6a5.11,5.11,0,0,1,5,0,4.65,4.65,0,0,1,1.76,1.76A5.05,5.05,0,0,1,212.38,40Zm-2.16,0a3.22,3.22,0,0,0-.37-1.59,2.64,2.64,0,0,0-1-1,2.68,2.68,0,0,0-2.75,0,2.64,2.64,0,0,0-1,1,3.58,3.58,0,0,0,0,3.17,2.64,2.64,0,0,0,1,1.05,2.68,2.68,0,0,0,2.75,0,2.64,2.64,0,0,0,1-1.05A3.21,3.21,0,0,0,210.22,40Zm-2.64-5.43a.75.75,0,0,1-.37-.16.47.47,0,0,1-.21-.44.68.68,0,0,1,.11-.34l1-1.84a1.83,1.83,0,0,1,.42-.5.87.87,0,0,1,.57-.22.93.93,0,0,1,.74.27.83.83,0,0,1,.22.63,2,2,0,0,1-.1.38,1.75,1.75,0,0,1-.25.4l-1.36,1.51a.79.79,0,0,1-.4.25A1.51,1.51,0,0,1,207.58,34.53Z"/><path class="cls-9" d="M218.89,35.32a1,1,0,0,1,.72.28.93.93,0,0,1,.28.71,1,1,0,0,1-.28.71,1,1,0,0,1-.72.28h-4.78a1,1,0,0,1-.71-.28.92.92,0,0,1-.29-.71.91.91,0,0,1,.29-.71,1,1,0,0,1,.71-.28Zm-.2-3.87a2.52,2.52,0,0,1,.77.11,1.39,1.39,0,0,1,.63.35.83.83,0,0,1,.25.64.94.94,0,0,1-.26.71.83.83,0,0,1-.6.26,2.52,2.52,0,0,1-.49-.08,2.27,2.27,0,0,0-.63-.08,1.07,1.07,0,0,0-.69.19,1.1,1.1,0,0,0-.33.46,1.48,1.48,0,0,0-.09.46v9.2a1.06,1.06,0,0,1-.31.78,1,1,0,0,1-.77.32,1.06,1.06,0,0,1-.78-.32,1.09,1.09,0,0,1-.3-.78V34.49a2.91,2.91,0,0,1,.9-2.16A3.7,3.7,0,0,1,218.69,31.45Z"/><path class="cls-9" d="M228.81,35a1.09,1.09,0,0,1,.78.3,1.1,1.1,0,0,1,.3.8v7.61a1.09,1.09,0,0,1-.3.78,1.06,1.06,0,0,1-.78.32,1,1,0,0,1-.77-.32,1.06,1.06,0,0,1-.31-.78v-.88l.4.16a1.06,1.06,0,0,1-.25.57,3.35,3.35,0,0,1-.69.65,4.12,4.12,0,0,1-1,.55,3.5,3.5,0,0,1-1.27.23,4.21,4.21,0,0,1-2.25-.64,4.52,4.52,0,0,1-1.59-1.76,6.1,6.1,0,0,1,0-5.19,4.5,4.5,0,0,1,1.58-1.76,3.92,3.92,0,0,1,2.19-.64,4.11,4.11,0,0,1,2.55.83,3.64,3.64,0,0,1,.74.72,1.22,1.22,0,0,1,.26.63l-.65.23V36.06a1.06,1.06,0,0,1,.31-.79A1,1,0,0,1,228.81,35Zm-3.63,8a2.38,2.38,0,0,0,1.38-.4,2.59,2.59,0,0,0,.93-1.08,3.44,3.44,0,0,0,.33-1.53,3.56,3.56,0,0,0-.33-1.55,2.71,2.71,0,0,0-.93-1.08,2.45,2.45,0,0,0-1.38-.39,2.42,2.42,0,0,0-1.37.39,2.71,2.71,0,0,0-.93,1.08,3.56,3.56,0,0,0-.33,1.55,3.44,3.44,0,0,0,.33,1.53,2.59,2.59,0,0,0,.93,1.08A2.35,2.35,0,0,0,225.18,43Z"/><path class="cls-9" d="M236.11,35a4.09,4.09,0,0,1,1.39.23,4.21,4.21,0,0,1,1.09.6,3.76,3.76,0,0,1,.72.72,1.22,1.22,0,0,1,.26.63l-.47.23V36.06a1.06,1.06,0,0,1,.31-.79,1,1,0,0,1,.77-.31,1.09,1.09,0,0,1,.78.3,1.1,1.1,0,0,1,.3.8v8a4.24,4.24,0,0,1-.67,2.51,3.77,3.77,0,0,1-1.78,1.36,6.06,6.06,0,0,1-3.29.34c-.38-.06-.75-.13-1.1-.22a5.82,5.82,0,0,1-.79-.23,1.55,1.55,0,0,1-.75-.59.87.87,0,0,1-.08-.74,1.16,1.16,0,0,1,.52-.72.92.92,0,0,1,.76,0l.59.22c.28.1.58.2.91.29a3.4,3.4,0,0,0,.88.14,3.05,3.05,0,0,0,2-.54,1.82,1.82,0,0,0,.65-1.5V42.79l.22.16a1,1,0,0,1-.25.57,3.14,3.14,0,0,1-.66.65,4,4,0,0,1-1,.55,3.31,3.31,0,0,1-1.22.23,4.34,4.34,0,0,1-2.31-.64,4.59,4.59,0,0,1-1.62-1.76,6,6,0,0,1,0-5.19,4.55,4.55,0,0,1,1.6-1.76A4.12,4.12,0,0,1,236.11,35Zm.35,2a2.62,2.62,0,0,0-1.43.39,2.84,2.84,0,0,0-.95,1.08,3.43,3.43,0,0,0-.34,1.55,3.31,3.31,0,0,0,.34,1.53,2.7,2.7,0,0,0,.95,1.08,2.77,2.77,0,0,0,2.87,0,2.7,2.7,0,0,0,.95-1.08,3.31,3.31,0,0,0,.34-1.53,3.43,3.43,0,0,0-.34-1.55,2.84,2.84,0,0,0-.95-1.08A2.63,2.63,0,0,0,236.46,36.94Z"/><path class="cls-9" d="M252.8,40a5,5,0,0,1-.66,2.6,4.72,4.72,0,0,1-1.76,1.76,5.18,5.18,0,0,1-4.95,0,4.74,4.74,0,0,1-1.77-1.76,5.52,5.52,0,0,1,0-5.2,4.74,4.74,0,0,1,1.77-1.76,5.11,5.11,0,0,1,4.95,0,4.72,4.72,0,0,1,1.76,1.76A5.05,5.05,0,0,1,252.8,40Zm-2.16,0a3.22,3.22,0,0,0-.37-1.59,2.78,2.78,0,0,0-1-1,2.68,2.68,0,0,0-2.75,0,2.64,2.64,0,0,0-1,1,3.58,3.58,0,0,0,0,3.17,2.64,2.64,0,0,0,1,1.05,2.68,2.68,0,0,0,2.75,0,2.78,2.78,0,0,0,1-1.05A3.21,3.21,0,0,0,250.64,40Z"/><path class="cls-9" d="M255.38,44.71a2.17,2.17,0,0,1-.15.79,2.79,2.79,0,0,1-.41.71,2.87,2.87,0,0,1-.55.51,1,1,0,0,1-.58.19.51.51,0,0,1-.32-.1.33.33,0,0,1-.15-.3q0-.28.21-.33a2.08,2.08,0,0,0,.44-.15,1,1,0,0,0,.39-.39,1,1,0,0,0,.13-.51.52.52,0,0,0-.1-.33.38.38,0,0,0-.29-.12,1,1,0,0,0-.25,0,.88.88,0,0,0-.24.11,1.08,1.08,0,0,1-.16-.2.34.34,0,0,1,0-.27.58.58,0,0,1,.17-.38.94.94,0,0,1,.38-.27,1.17,1.17,0,0,1,.47-.1,1.08,1.08,0,0,1,.77.29A1.16,1.16,0,0,1,255.38,44.71Z"/><path class="cls-9" d="M261.81,35.61H266a.46.46,0,0,1,.36.15.5.5,0,0,1,.15.37.46.46,0,0,1-.15.34.45.45,0,0,1-.36.14h-4.19a.51.51,0,0,1-.37-.15.49.49,0,0,1-.15-.35.49.49,0,0,1,.15-.36A.5.5,0,0,1,261.81,35.61Zm1.85-2.54a.5.5,0,0,1,.39.16.54.54,0,0,1,.15.38v9a1.66,1.66,0,0,0,.14.76.65.65,0,0,0,.35.33,1.09,1.09,0,0,0,.43.08.68.68,0,0,0,.26,0,.75.75,0,0,1,.26-.05.37.37,0,0,1,.28.13.44.44,0,0,1,.12.32.51.51,0,0,1-.29.43,1.34,1.34,0,0,1-.68.17l-.49,0a1.72,1.72,0,0,1-.66-.2,1.28,1.28,0,0,1-.57-.6,2.74,2.74,0,0,1-.23-1.24V33.61a.55.55,0,0,1,.16-.38A.49.49,0,0,1,263.66,33.07Z"/><path class="cls-9" d="M275.15,35.62a.5.5,0,0,1,.38.17.49.49,0,0,1,.16.37v5.08a3.55,3.55,0,0,1-1,2.72,3.85,3.85,0,0,1-2.72.93,3.79,3.79,0,0,1-2.69-.93,3.54,3.54,0,0,1-1-2.72V36.16a.51.51,0,0,1,.15-.37.53.53,0,0,1,.78,0,.51.51,0,0,1,.15.37v5.08a2.74,2.74,0,0,0,4.55,2,2.61,2.61,0,0,0,.71-2V36.16a.5.5,0,0,1,.14-.37A.51.51,0,0,1,275.15,35.62Z"/><path class="cls-9" d="M282.69,35.35a3.88,3.88,0,0,1,2.17.62,4.23,4.23,0,0,1,1.5,1.68,5.29,5.29,0,0,1,.56,2.47,5.38,5.38,0,0,1-.56,2.47,4.39,4.39,0,0,1-1.51,1.73,3.81,3.81,0,0,1-2.14.63,3.68,3.68,0,0,1-1.2-.2,4,4,0,0,1-1-.53,3.85,3.85,0,0,1-.83-.78,4.22,4.22,0,0,1-.58-1l.33-.23v2a.5.5,0,0,1-.16.39.52.52,0,0,1-.38.15.51.51,0,0,1-.54-.54V32a.52.52,0,0,1,.14-.39.54.54,0,0,1,.4-.15.52.52,0,0,1,.38.15.5.5,0,0,1,.16.39v6l-.26-.15a3.18,3.18,0,0,1,.54-1,3.89,3.89,0,0,1,.81-.81,4.37,4.37,0,0,1,1-.53A3.77,3.77,0,0,1,282.69,35.35Zm-.09,1a3,3,0,0,0-1.71.49,3.34,3.34,0,0,0-1.16,1.33,4.29,4.29,0,0,0-.42,1.94,4.47,4.47,0,0,0,.42,2,3.37,3.37,0,0,0,1.16,1.36,3,3,0,0,0,1.71.5,2.9,2.9,0,0,0,1.68-.5,3.49,3.49,0,0,0,1.16-1.38,4.29,4.29,0,0,0,.44-1.94,4.17,4.17,0,0,0-.44-1.94,3.34,3.34,0,0,0-1.16-1.33A2.89,2.89,0,0,0,282.6,36.36Z"/><path class="cls-9" d="M297.61,40.16a5,5,0,0,1-.6,2.46,4.62,4.62,0,0,1-1.63,1.71,4.42,4.42,0,0,1-2.32.62,4.4,4.4,0,0,1-3.95-2.33,5.29,5.29,0,0,1,0-4.93A4.54,4.54,0,0,1,290.74,36a4.42,4.42,0,0,1,2.32-.63,4.34,4.34,0,0,1,2.32.63A4.62,4.62,0,0,1,297,37.69,5,5,0,0,1,297.61,40.16Zm-1.08,0a4.12,4.12,0,0,0-.45-1.95,3.49,3.49,0,0,0-1.23-1.35,3.44,3.44,0,0,0-3.57,0A3.59,3.59,0,0,0,290,38.21a4.13,4.13,0,0,0-.46,1.95A4.06,4.06,0,0,0,290,42.1a3.56,3.56,0,0,0,1.24,1.34,3.44,3.44,0,0,0,3.57,0,3.46,3.46,0,0,0,1.23-1.34A4.05,4.05,0,0,0,296.53,40.16Z"/><path class="cls-9" d="M312.21,35.53a.52.52,0,0,1,.39.17.54.54,0,0,1,.15.39V47.83a.52.52,0,0,1-.16.38.57.57,0,0,1-.38.16.54.54,0,0,1-.4-.16.59.59,0,0,1-.14-.38V42.09l.31-.26a2.41,2.41,0,0,1-.27,1.06,3.62,3.62,0,0,1-.77,1,3.78,3.78,0,0,1-1.15.76,3.58,3.58,0,0,1-1.43.29,3.84,3.84,0,0,1-2.15-.63,4.35,4.35,0,0,1-1.52-1.71,5.71,5.71,0,0,1,0-4.93A4.4,4.4,0,0,1,306.2,36a3.86,3.86,0,0,1,2.14-.62,3.74,3.74,0,0,1,1.42.27,3.87,3.87,0,0,1,1.18.74,3.65,3.65,0,0,1,.81,1.07,2.8,2.8,0,0,1,.3,1.25l-.38-.27V36.09a.58.58,0,0,1,.14-.39A.51.51,0,0,1,312.21,35.53Zm-3.74,8.41a3,3,0,0,0,1.69-.5,3.34,3.34,0,0,0,1.16-1.35,4.37,4.37,0,0,0,.42-2,4.31,4.31,0,0,0-.42-1.93,3.4,3.4,0,0,0-1.16-1.35,3.11,3.11,0,0,0-3.38,0,3.43,3.43,0,0,0-1.17,1.35,4.31,4.31,0,0,0-.42,1.93,4.43,4.43,0,0,0,.42,2,3.43,3.43,0,0,0,1.17,1.35A3,3,0,0,0,308.47,43.94Z"/><path class="cls-9" d="M322.27,35.62a.5.5,0,0,1,.38.17.49.49,0,0,1,.16.37v5.08a3.55,3.55,0,0,1-1,2.72,3.85,3.85,0,0,1-2.72.93,3.79,3.79,0,0,1-2.69-.93,3.54,3.54,0,0,1-1-2.72V36.16a.51.51,0,0,1,.15-.37.52.52,0,0,1,.39-.17.51.51,0,0,1,.39.17.51.51,0,0,1,.15.37v5.08a2.74,2.74,0,0,0,4.55,2,2.61,2.61,0,0,0,.71-2V36.16a.5.5,0,0,1,.14-.37A.51.51,0,0,1,322.27,35.62Z"/><path class="cls-9" d="M329.57,45a4.91,4.91,0,0,1-2.45-.6,4.1,4.1,0,0,1-1.65-1.65,5,5,0,0,1-.6-2.49,5.3,5.3,0,0,1,.6-2.61A4.49,4.49,0,0,1,327,35.94a3.86,3.86,0,0,1,2-.59,4.51,4.51,0,0,1,1.54.28,3.79,3.79,0,0,1,1.32.83,4.2,4.2,0,0,1,.94,1.34,4.57,4.57,0,0,1,.38,1.84.54.54,0,0,1-.16.37.55.55,0,0,1-.38.15H325.5l-.22-1h7.1l-.24.21V39a2.78,2.78,0,0,0-.55-1.44,3.14,3.14,0,0,0-2.51-1.2,3.11,3.11,0,0,0-1.1.21,3,3,0,0,0-1,.68,3.42,3.42,0,0,0-.75,1.17,4.47,4.47,0,0,0-.29,1.68,4.25,4.25,0,0,0,.44,1.93,3.41,3.41,0,0,0,1.24,1.37,3.68,3.68,0,0,0,2,.5,3.22,3.22,0,0,0,2-.66,3.16,3.16,0,0,0,.64-.62.57.57,0,0,1,.37-.16.46.46,0,0,1,.34.14A.48.48,0,0,1,333,43a.51.51,0,0,1-.18.38,5,5,0,0,1-1.4,1.12A3.85,3.85,0,0,1,329.57,45Z"/><path class="cls-9" d="M344.38,35.35a6.54,6.54,0,0,1,1.59.19,3.47,3.47,0,0,1,1.16.52.9.9,0,0,1,.44.7.56.56,0,0,1-.14.35.42.42,0,0,1-.33.17.58.58,0,0,1-.37-.11,2,2,0,0,1-.26-.25,1.06,1.06,0,0,0-.38-.27,3.23,3.23,0,0,0-.67-.2,5,5,0,0,0-1-.09,3.35,3.35,0,0,0-1.82.51,3.54,3.54,0,0,0-1.28,1.35,4,4,0,0,0-.47,1.92,4.3,4.3,0,0,0,.44,2,3.4,3.4,0,0,0,3.09,1.85,3.76,3.76,0,0,0,1.13-.13,3.3,3.3,0,0,0,.67-.28,2,2,0,0,0,.51-.39.5.5,0,0,1,.41-.19.41.41,0,0,1,.34.14.5.5,0,0,1,.13.35c0,.19-.14.4-.43.63a3.79,3.79,0,0,1-1.16.62,5.21,5.21,0,0,1-1.71.26,4.27,4.27,0,0,1-3.93-2.35,5.25,5.25,0,0,1-.57-2.46,4.94,4.94,0,0,1,.58-2.39A4.62,4.62,0,0,1,342,36,4.35,4.35,0,0,1,344.38,35.35Z"/><path class="cls-9" d="M357.8,40.16a5,5,0,0,1-.6,2.46,4.62,4.62,0,0,1-1.63,1.71,4.65,4.65,0,0,1-4.64,0,4.54,4.54,0,0,1-1.63-1.71,5.29,5.29,0,0,1,0-4.93A4.54,4.54,0,0,1,350.93,36a4.59,4.59,0,0,1,4.64,0,4.62,4.62,0,0,1,1.63,1.71A5,5,0,0,1,357.8,40.16Zm-1.08,0a4.12,4.12,0,0,0-.45-1.95A3.49,3.49,0,0,0,355,36.86a3.44,3.44,0,0,0-3.57,0,3.59,3.59,0,0,0-1.24,1.35,4.13,4.13,0,0,0-.46,1.95,4.06,4.06,0,0,0,.46,1.94,3.56,3.56,0,0,0,1.24,1.34,3.44,3.44,0,0,0,3.57,0,3.46,3.46,0,0,0,1.23-1.34A4.05,4.05,0,0,0,356.72,40.16Z"/><path class="cls-9" d="M364.25,35.35a3.32,3.32,0,0,1,1.9.48,2.65,2.65,0,0,1,1,1.3,5,5,0,0,1,.31,1.81v5.29a.52.52,0,0,1-.16.38.53.53,0,0,1-.38.16.52.52,0,0,1-.39-.16.55.55,0,0,1-.15-.38V39a3.43,3.43,0,0,0-.23-1.31,2.06,2.06,0,0,0-.76-1,2.46,2.46,0,0,0-1.4-.36,3.22,3.22,0,0,0-2.59,1.32A2.14,2.14,0,0,0,361,39v5.24a.53.53,0,0,1-.17.38.52.52,0,0,1-.37.16.51.51,0,0,1-.54-.54V36.16a.51.51,0,0,1,.15-.37.51.51,0,0,1,.39-.17.5.5,0,0,1,.38.17.49.49,0,0,1,.16.37v1.52l-.42.64a2.4,2.4,0,0,1,.37-1.1,3.88,3.88,0,0,1,.86-1A4,4,0,0,1,363,35.6,3.39,3.39,0,0,1,364.25,35.35Z"/><path class="cls-9" d="M374.28,45a4.89,4.89,0,0,1-2.45-.6,4.18,4.18,0,0,1-1.66-1.65,5.09,5.09,0,0,1-.59-2.49,5.3,5.3,0,0,1,.6-2.61,4.41,4.41,0,0,1,1.57-1.66,3.86,3.86,0,0,1,2-.59,4.51,4.51,0,0,1,1.54.28,3.79,3.79,0,0,1,1.32.83,4.2,4.2,0,0,1,.94,1.34,4.57,4.57,0,0,1,.38,1.84.54.54,0,0,1-.16.37.55.55,0,0,1-.38.15h-7.22l-.22-1h7.1l-.24.21V39a2.7,2.7,0,0,0-.56-1.44,3.14,3.14,0,0,0-1.12-.9,3.3,3.3,0,0,0-1.38-.3,3.11,3.11,0,0,0-1.1.21,3,3,0,0,0-1,.68,3.28,3.28,0,0,0-.75,1.17,4.47,4.47,0,0,0-.29,1.68,4.25,4.25,0,0,0,.44,1.93,3.34,3.34,0,0,0,1.24,1.37,3.68,3.68,0,0,0,2,.5,3.22,3.22,0,0,0,2-.66,3.44,3.44,0,0,0,.64-.62.57.57,0,0,1,.37-.16.46.46,0,0,1,.34.14.48.48,0,0,1,.13.33.51.51,0,0,1-.18.38,5,5,0,0,1-1.4,1.12A3.85,3.85,0,0,1,374.28,45Z"/><path class="cls-9" d="M384.14,35.35a6.54,6.54,0,0,1,1.59.19,3.47,3.47,0,0,1,1.16.52.9.9,0,0,1,.44.7.56.56,0,0,1-.14.35.42.42,0,0,1-.33.17.58.58,0,0,1-.37-.11,1.52,1.52,0,0,1-.26-.25,1.06,1.06,0,0,0-.38-.27,3.23,3.23,0,0,0-.67-.2,5,5,0,0,0-1-.09,3.33,3.33,0,0,0-1.82.51,3.54,3.54,0,0,0-1.28,1.35,4,4,0,0,0-.47,1.92,4.3,4.3,0,0,0,.44,2,3.37,3.37,0,0,0,3.09,1.85,3.64,3.64,0,0,0,1.12-.13,3.17,3.17,0,0,0,.68-.28,2,2,0,0,0,.51-.39.49.49,0,0,1,.41-.19.41.41,0,0,1,.34.14.5.5,0,0,1,.13.35c0,.19-.15.4-.43.63a3.79,3.79,0,0,1-1.16.62,5.21,5.21,0,0,1-1.71.26,4.37,4.37,0,0,1-2.35-.63,4.3,4.3,0,0,1-1.58-1.72,5.25,5.25,0,0,1-.57-2.46,4.94,4.94,0,0,1,.58-2.39,4.62,4.62,0,0,1,1.6-1.74A4.35,4.35,0,0,1,384.14,35.35Z"/><path class="cls-9" d="M389.09,35.61h4.19a.5.5,0,0,1,.5.52.45.45,0,0,1-.14.34.48.48,0,0,1-.36.14h-4.19a.5.5,0,0,1-.37-.15.46.46,0,0,1-.16-.35.46.46,0,0,1,.16-.36A.49.49,0,0,1,389.09,35.61Zm1.85-2.54a.5.5,0,0,1,.39.16.54.54,0,0,1,.15.38v9a1.53,1.53,0,0,0,.14.76.62.62,0,0,0,.35.33,1.06,1.06,0,0,0,.43.08.75.75,0,0,0,.26,0,.71.71,0,0,1,.26-.05.39.39,0,0,1,.28.13.44.44,0,0,1,.12.32.51.51,0,0,1-.29.43,1.36,1.36,0,0,1-.69.17l-.48,0a1.77,1.77,0,0,1-.67-.2,1.22,1.22,0,0,1-.56-.6,2.74,2.74,0,0,1-.23-1.24V33.61a.54.54,0,0,1,.15-.38A.5.5,0,0,1,390.94,33.07Z"/><path class="cls-9" d="M402.7,35.57a.51.51,0,0,1,.39.16.57.57,0,0,1,.15.4v8.1a.52.52,0,0,1-.16.38.57.57,0,0,1-.38.16.54.54,0,0,1-.4-.16.59.59,0,0,1-.14-.38V42.09l.31-.15a2.25,2.25,0,0,1-.28,1,3.66,3.66,0,0,1-.77,1,3.91,3.91,0,0,1-1.14.73,3.76,3.76,0,0,1-1.43.28,3.86,3.86,0,0,1-2.17-.63,4.31,4.31,0,0,1-1.51-1.73,5.37,5.37,0,0,1-.55-2.47,5.17,5.17,0,0,1,.56-2.47A4.18,4.18,0,0,1,396.69,36a3.92,3.92,0,0,1,4.77.39,3.58,3.58,0,0,1,.79,1.07,2.93,2.93,0,0,1,.29,1.25l-.38-.27V36.13a.61.61,0,0,1,.14-.4A.51.51,0,0,1,402.7,35.57ZM399,43.94a3,3,0,0,0,1.69-.5,3.37,3.37,0,0,0,1.16-1.36,4.47,4.47,0,0,0,.42-2,4.21,4.21,0,0,0-.42-1.9,3.4,3.4,0,0,0-1.16-1.35,2.93,2.93,0,0,0-1.69-.51,3,3,0,0,0-1.69.49,3.29,3.29,0,0,0-1.17,1.33,4.29,4.29,0,0,0-.42,1.94,4.61,4.61,0,0,0,.41,2,3.37,3.37,0,0,0,1.16,1.36A3,3,0,0,0,399,43.94Z"/><path class="cls-9" d="M418.45,35.57a.51.51,0,0,1,.39.16.57.57,0,0,1,.15.4v8.1a.52.52,0,0,1-.16.38.57.57,0,0,1-.38.16.54.54,0,0,1-.4-.16.59.59,0,0,1-.14-.38V42.09l.31-.15a2.25,2.25,0,0,1-.28,1,3.66,3.66,0,0,1-.77,1,3.91,3.91,0,0,1-1.14.73,3.76,3.76,0,0,1-1.43.28,3.86,3.86,0,0,1-2.17-.63,4.31,4.31,0,0,1-1.51-1.73,5.37,5.37,0,0,1-.55-2.47,5.17,5.17,0,0,1,.56-2.47A4.18,4.18,0,0,1,412.44,36a3.92,3.92,0,0,1,4.77.39,3.58,3.58,0,0,1,.79,1.07,2.93,2.93,0,0,1,.29,1.25l-.38-.27V36.13a.61.61,0,0,1,.14-.4A.51.51,0,0,1,418.45,35.57Zm-3.74,8.37a3,3,0,0,0,1.69-.5,3.37,3.37,0,0,0,1.16-1.36,4.47,4.47,0,0,0,.42-2,4.21,4.21,0,0,0-.42-1.9,3.4,3.4,0,0,0-1.16-1.35,2.93,2.93,0,0,0-1.69-.51,3,3,0,0,0-1.69.49,3.29,3.29,0,0,0-1.17,1.33,4.29,4.29,0,0,0-.42,1.94,4.61,4.61,0,0,0,.41,2A3.37,3.37,0,0,0,413,43.44,3,3,0,0,0,414.71,43.94Z"/><path class="cls-9" d="M427.92,44.23a.55.55,0,0,1-.54.54.53.53,0,0,1-.39-.16.55.55,0,0,1-.15-.38V32a.55.55,0,0,1,.54-.54.49.49,0,0,1,.38.16.51.51,0,0,1,.16.38Z"/><path class="cls-9" d="M438.19,35.57a.53.53,0,0,1,.39.16.57.57,0,0,1,.15.4v8.1a.55.55,0,0,1-.54.54.54.54,0,0,1-.4-.16.59.59,0,0,1-.14-.38V42.09l.3-.15a2.23,2.23,0,0,1-.27,1,3.87,3.87,0,0,1-.77,1,3.91,3.91,0,0,1-1.14.73,3.76,3.76,0,0,1-1.43.28,3.86,3.86,0,0,1-2.17-.63,4.24,4.24,0,0,1-1.51-1.73,5.37,5.37,0,0,1-.55-2.47,5.29,5.29,0,0,1,.55-2.47A4.27,4.27,0,0,1,432.18,36a3.92,3.92,0,0,1,4.77.39,3.58,3.58,0,0,1,.79,1.07,2.93,2.93,0,0,1,.29,1.25l-.38-.27V36.13a.61.61,0,0,1,.14-.4A.51.51,0,0,1,438.19,35.57Zm-3.75,8.37a3,3,0,0,0,1.7-.5,3.37,3.37,0,0,0,1.16-1.36,4.47,4.47,0,0,0,.42-2,4.21,4.21,0,0,0-.42-1.9,3.4,3.4,0,0,0-1.16-1.35,2.94,2.94,0,0,0-1.7-.51,3,3,0,0,0-1.68.49,3.29,3.29,0,0,0-1.17,1.33,4.29,4.29,0,0,0-.42,1.94,4.61,4.61,0,0,0,.41,2,3.37,3.37,0,0,0,1.16,1.36A3,3,0,0,0,434.44,43.94Z"/><path class="cls-9" d="M19.33,55.75a.5.5,0,0,1,.51.5.51.51,0,0,1-.51.51h-4.4a.48.48,0,0,1-.36-.16.47.47,0,0,1-.15-.35.45.45,0,0,1,.15-.36.54.54,0,0,1,.36-.14Zm-.68-4.23a4.27,4.27,0,0,1,.59,0,1.64,1.64,0,0,1,.54.19.44.44,0,0,1,.24.41.49.49,0,0,1-.15.35.42.42,0,0,1-.32.15,1.27,1.27,0,0,1-.45-.1,1.81,1.81,0,0,0-.58-.1,1.1,1.1,0,0,0-1.06.66,2,2,0,0,0-.14.77V64.23a.53.53,0,0,1-.54.54.53.53,0,0,1-.39-.16.55.55,0,0,1-.15-.38V53.9a2.27,2.27,0,0,1,.67-1.77A2.48,2.48,0,0,1,18.65,51.52Z"/><path class="cls-9" d="M28.74,55.57a.49.49,0,0,1,.38.16.54.54,0,0,1,.16.4v8.1a.53.53,0,0,1-.17.38.52.52,0,0,1-.37.16.51.51,0,0,1-.54-.54V62.09l.3-.15a2.13,2.13,0,0,1-.28,1,3.61,3.61,0,0,1-.76,1,4.1,4.1,0,0,1-1.15.73,3.68,3.68,0,0,1-1.43.28,3.85,3.85,0,0,1-2.16-.63,4.34,4.34,0,0,1-1.52-1.73,5.5,5.5,0,0,1-.55-2.47,5.29,5.29,0,0,1,.56-2.47A4.25,4.25,0,0,1,22.72,56a3.89,3.89,0,0,1,2.15-.62,3.8,3.8,0,0,1,1.44.27,3.72,3.72,0,0,1,2,1.81,2.92,2.92,0,0,1,.28,1.25l-.37-.27V56.13a.56.56,0,0,1,.14-.4A.51.51,0,0,1,28.74,55.57ZM25,63.94a3,3,0,0,0,1.69-.5,3.39,3.39,0,0,0,1.17-1.36,4.47,4.47,0,0,0,.42-2,4.21,4.21,0,0,0-.42-1.9,3.43,3.43,0,0,0-1.17-1.35A2.88,2.88,0,0,0,25,56.36a3,3,0,0,0-1.68.49,3.29,3.29,0,0,0-1.17,1.33,4.29,4.29,0,0,0-.42,1.94,4.47,4.47,0,0,0,.41,2,3.29,3.29,0,0,0,1.16,1.36A3,3,0,0,0,25,63.94Z"/><path class="cls-9" d="M32.48,64.77a.54.54,0,0,1-.4-.16.59.59,0,0,1-.14-.38V56.16a.51.51,0,0,1,.15-.37.51.51,0,0,1,.39-.17.5.5,0,0,1,.38.17.49.49,0,0,1,.16.37v2.7l-.27.06a4,4,0,0,1,.31-1.25,4.41,4.41,0,0,1,.71-1.15,3.57,3.57,0,0,1,1.08-.84,2.88,2.88,0,0,1,1.39-.33,1.52,1.52,0,0,1,.63.14.47.47,0,0,1,.31.44.53.53,0,0,1-.15.41.45.45,0,0,1-.34.15.83.83,0,0,1-.35-.09,1.18,1.18,0,0,0-.5-.09,2,2,0,0,0-1,.29,3.34,3.34,0,0,0-.92.81,3.94,3.94,0,0,0-.66,1.12A3.43,3.43,0,0,0,33,59.78v4.45a.55.55,0,0,1-.54.54Z"/><path class="cls-9" d="M39.31,54.2a.86.86,0,0,1-.57-.17.65.65,0,0,1-.19-.49v-.18a.6.6,0,0,1,.21-.5.9.9,0,0,1,.57-.17.8.8,0,0,1,.53.17.65.65,0,0,1,.19.5v.18a.65.65,0,0,1-.19.49A.82.82,0,0,1,39.31,54.2Zm.54,10a.55.55,0,0,1-.54.54.53.53,0,0,1-.39-.16.55.55,0,0,1-.15-.38V56a.54.54,0,0,1,.15-.38.5.5,0,0,1,.39-.16.53.53,0,0,1,.39.16.54.54,0,0,1,.15.38Z"/><path class="cls-9" d="M46.84,55.35a3.36,3.36,0,0,1,1.9.48,2.69,2.69,0,0,1,1,1.3,5,5,0,0,1,.32,1.81v5.29a.52.52,0,0,1-.16.38.57.57,0,0,1-.38.16.54.54,0,0,1-.4-.16.59.59,0,0,1-.14-.38V59a3.64,3.64,0,0,0-.23-1.31,2.08,2.08,0,0,0-.77-1,2.43,2.43,0,0,0-1.39-.36,3.13,3.13,0,0,0-1.47.36,3.2,3.2,0,0,0-1.13,1A2.21,2.21,0,0,0,43.58,59v5.24a.52.52,0,0,1-.16.38.55.55,0,0,1-.38.16.5.5,0,0,1-.39-.16.55.55,0,0,1-.15-.38V56.16a.51.51,0,0,1,.15-.37.54.54,0,0,1,.39-.17.51.51,0,0,1,.39.17.51.51,0,0,1,.15.37v1.52l-.41.64a2.19,2.19,0,0,1,.37-1.1,3.84,3.84,0,0,1,.85-1,4.3,4.3,0,0,1,1.16-.66A3.48,3.48,0,0,1,46.84,55.35Z"/><path class="cls-9" d="M56.54,55.35a4,4,0,0,1,1.48.28,4.55,4.55,0,0,1,1.19.72,3.82,3.82,0,0,1,.8.94,1.89,1.89,0,0,1,.29.94L60,57.8V56.13a.54.54,0,0,1,.16-.4.49.49,0,0,1,.38-.16.5.5,0,0,1,.39.16.57.57,0,0,1,.15.4v7.79a4.61,4.61,0,0,1-.59,2.43,3.88,3.88,0,0,1-1.61,1.5,5,5,0,0,1-2.32.52,6.25,6.25,0,0,1-1.32-.16,5.32,5.32,0,0,1-1.19-.42c-.33-.17-.52-.34-.56-.52a.43.43,0,0,1-.12-.32.39.39,0,0,1,.15-.26.33.33,0,0,1,.37,0l.61.26.47.16a7.16,7.16,0,0,0,.74.19,4.94,4.94,0,0,0,.87.08A3.16,3.16,0,0,0,60,64V62.27l.2,0a3,3,0,0,1-.54,1.13,3.6,3.6,0,0,1-.88.82,4.1,4.1,0,0,1-1.08.51,4.22,4.22,0,0,1-1.15.17,4.09,4.09,0,0,1-2.24-.63,4.42,4.42,0,0,1-1.58-1.71,5.53,5.53,0,0,1,0-4.93A4.47,4.47,0,0,1,54.31,56,4.13,4.13,0,0,1,56.54,55.35Zm.11,1a3.23,3.23,0,0,0-1.76.5,3.39,3.39,0,0,0-1.22,1.35,4.07,4.07,0,0,0-.44,1.93,4.18,4.18,0,0,0,.44,2,3.39,3.39,0,0,0,1.22,1.35,3.23,3.23,0,0,0,1.76.5,3.17,3.17,0,0,0,1.76-.49,3.47,3.47,0,0,0,1.23-1.34,4.54,4.54,0,0,0,0-3.94,3.44,3.44,0,0,0-1.23-1.33A3.25,3.25,0,0,0,56.65,56.36Z"/><path class="cls-9" d="M67.92,65a4.89,4.89,0,0,1-2.45-.6,4.18,4.18,0,0,1-1.66-1.65,5.09,5.09,0,0,1-.59-2.49,5.3,5.3,0,0,1,.6-2.61,4.41,4.41,0,0,1,1.57-1.66,3.86,3.86,0,0,1,2-.59,4.51,4.51,0,0,1,1.54.28,3.79,3.79,0,0,1,1.32.83,4.2,4.2,0,0,1,.94,1.34,4.75,4.75,0,0,1,.38,1.84.55.55,0,0,1-.54.52H63.85l-.22-1h7.1l-.24.21V59a2.79,2.79,0,0,0-.56-1.44,3.14,3.14,0,0,0-1.12-.9,3.3,3.3,0,0,0-1.38-.3,3.2,3.2,0,0,0-1.11.21,2.94,2.94,0,0,0-1,.68,3.28,3.28,0,0,0-.75,1.17,4.47,4.47,0,0,0-.29,1.68,4.38,4.38,0,0,0,.43,1.93,3.44,3.44,0,0,0,1.25,1.37,3.68,3.68,0,0,0,2,.5,3.22,3.22,0,0,0,2-.66,3.09,3.09,0,0,0,.63-.62.62.62,0,0,1,.38-.16.46.46,0,0,1,.47.47.51.51,0,0,1-.18.38,5,5,0,0,1-1.4,1.12A3.85,3.85,0,0,1,67.92,65Z"/><path class="cls-9" d="M82.73,55.35a6.45,6.45,0,0,1,1.58.19,3.53,3.53,0,0,1,1.17.52.9.9,0,0,1,.44.7.56.56,0,0,1-.14.35.42.42,0,0,1-.33.17.58.58,0,0,1-.37-.11,1.52,1.52,0,0,1-.26-.25,1.16,1.16,0,0,0-.38-.27,3.43,3.43,0,0,0-.67-.2,5,5,0,0,0-1-.09,3.32,3.32,0,0,0-1.81.51,3.54,3.54,0,0,0-1.28,1.35,4,4,0,0,0-.47,1.92,4.3,4.3,0,0,0,.44,2,3.37,3.37,0,0,0,3.09,1.85,3.69,3.69,0,0,0,1.12-.13,3.41,3.41,0,0,0,.68-.28,2,2,0,0,0,.51-.39.49.49,0,0,1,.41-.19.42.42,0,0,1,.34.14.5.5,0,0,1,.12.35q0,.29-.42.63a3.79,3.79,0,0,1-1.16.62,5.21,5.21,0,0,1-1.71.26,4.37,4.37,0,0,1-2.35-.63,4.3,4.3,0,0,1-1.58-1.72,5.25,5.25,0,0,1-.57-2.46,4.94,4.94,0,0,1,.58-2.39A4.54,4.54,0,0,1,80.32,56,4.35,4.35,0,0,1,82.73,55.35Z"/><path class="cls-9" d="M96.15,60.16a5,5,0,0,1-.6,2.46,4.7,4.7,0,0,1-1.63,1.71,4.65,4.65,0,0,1-4.64,0,4.57,4.57,0,0,1-1.64-1.71,5.36,5.36,0,0,1,0-4.93A4.57,4.57,0,0,1,89.28,56a4.59,4.59,0,0,1,4.64,0,4.7,4.7,0,0,1,1.63,1.71A5,5,0,0,1,96.15,60.16Zm-1.08,0a4.12,4.12,0,0,0-.45-1.95,3.49,3.49,0,0,0-1.23-1.35,3.31,3.31,0,0,0-1.8-.5,3.24,3.24,0,0,0-1.77.5,3.59,3.59,0,0,0-1.24,1.35,4,4,0,0,0-.46,1.95,4,4,0,0,0,.46,1.94,3.56,3.56,0,0,0,1.24,1.34,3.24,3.24,0,0,0,1.77.5,3.31,3.31,0,0,0,1.8-.5,3.46,3.46,0,0,0,1.23-1.34A4.05,4.05,0,0,0,95.07,60.16Z"/><path class="cls-9" d="M102.6,55.35a3.34,3.34,0,0,1,1.9.48,2.65,2.65,0,0,1,1,1.3,5,5,0,0,1,.31,1.81v5.29a.52.52,0,0,1-.16.38.55.55,0,0,1-.38.16.5.5,0,0,1-.39-.16.55.55,0,0,1-.15-.38V59a3.64,3.64,0,0,0-.23-1.31,2,2,0,0,0-.77-1,2.43,2.43,0,0,0-1.39-.36,3.13,3.13,0,0,0-1.47.36,3.08,3.08,0,0,0-1.12,1A2.15,2.15,0,0,0,99.34,59v5.24a.52.52,0,0,1-.16.38.55.55,0,0,1-.38.16.52.52,0,0,1-.39-.16.55.55,0,0,1-.15-.38V56.16a.49.49,0,0,1,.16-.37.5.5,0,0,1,.38-.17.51.51,0,0,1,.39.17.51.51,0,0,1,.15.37v1.52l-.41.64a2.29,2.29,0,0,1,.37-1.1,4,4,0,0,1,.85-1,4.3,4.3,0,0,1,1.16-.66A3.48,3.48,0,0,1,102.6,55.35Z"/><path class="cls-9" d="M117.67,65a4.89,4.89,0,0,1-2.45-.6,4.18,4.18,0,0,1-1.66-1.65,5.09,5.09,0,0,1-.59-2.49,5.3,5.3,0,0,1,.6-2.61,4.41,4.41,0,0,1,1.57-1.66,3.86,3.86,0,0,1,2-.59,4.51,4.51,0,0,1,1.54.28,3.79,3.79,0,0,1,1.32.83A4.2,4.2,0,0,1,121,57.8a4.57,4.57,0,0,1,.38,1.84.54.54,0,0,1-.16.37.55.55,0,0,1-.38.15H113.6l-.22-1h7.1l-.24.21V59a2.7,2.7,0,0,0-.56-1.44,3.14,3.14,0,0,0-1.12-.9,3.3,3.3,0,0,0-1.38-.3,3.2,3.2,0,0,0-1.11.21,3,3,0,0,0-1,.68,3.28,3.28,0,0,0-.75,1.17,4.47,4.47,0,0,0-.29,1.68,4.25,4.25,0,0,0,.44,1.93,3.34,3.34,0,0,0,1.24,1.37,3.68,3.68,0,0,0,2,.5,3.22,3.22,0,0,0,2-.66,3.44,3.44,0,0,0,.64-.62.57.57,0,0,1,.37-.16.46.46,0,0,1,.34.14.48.48,0,0,1,.13.33.51.51,0,0,1-.18.38,5,5,0,0,1-1.4,1.12A3.85,3.85,0,0,1,117.67,65Z"/><path class="cls-9" d="M124.6,64.23a.53.53,0,0,1-.17.38.52.52,0,0,1-.37.16.53.53,0,0,1-.39-.16.55.55,0,0,1-.15-.38V52a.55.55,0,0,1,.54-.54.49.49,0,0,1,.38.16.55.55,0,0,1,.16.38Z"/><path class="cls-9" d="M136.55,65a4.89,4.89,0,0,1-2.45-.6,4.18,4.18,0,0,1-1.66-1.65,5.09,5.09,0,0,1-.59-2.49,5.3,5.3,0,0,1,.6-2.61A4.41,4.41,0,0,1,134,55.94a3.86,3.86,0,0,1,2-.59,4.51,4.51,0,0,1,1.54.28,3.79,3.79,0,0,1,1.32.83,4.2,4.2,0,0,1,.94,1.34,4.57,4.57,0,0,1,.38,1.84.54.54,0,0,1-.16.37.55.55,0,0,1-.38.15h-7.22l-.22-1h7.1l-.24.21V59a2.7,2.7,0,0,0-.56-1.44,3.14,3.14,0,0,0-1.12-.9,3.3,3.3,0,0,0-1.38-.3,3.2,3.2,0,0,0-1.11.21,2.94,2.94,0,0,0-1,.68,3.28,3.28,0,0,0-.75,1.17,4.47,4.47,0,0,0-.29,1.68,4.25,4.25,0,0,0,.44,1.93,3.34,3.34,0,0,0,1.24,1.37,3.68,3.68,0,0,0,2,.5,3.22,3.22,0,0,0,2-.66,3.44,3.44,0,0,0,.64-.62.57.57,0,0,1,.37-.16.46.46,0,0,1,.34.14A.48.48,0,0,1,140,63a.51.51,0,0,1-.18.38,5,5,0,0,1-1.4,1.12A3.85,3.85,0,0,1,136.55,65Z"/><path class="cls-9" d="M141.82,63.31a.73.73,0,0,1-.14-.42.44.44,0,0,1,.23-.34.41.41,0,0,1,.33-.1.52.52,0,0,1,.35.18,3.8,3.8,0,0,0,1.18,1,3.3,3.3,0,0,0,1.65.39,3.14,3.14,0,0,0,1-.17,2,2,0,0,0,.82-.52,1.3,1.3,0,0,0,.32-.89,1.25,1.25,0,0,0-.32-.9,2.26,2.26,0,0,0-.84-.54,8.19,8.19,0,0,0-1.09-.35c-.41-.1-.8-.23-1.19-.36a4.19,4.19,0,0,1-1-.53,2.45,2.45,0,0,1-.71-.76,2.11,2.11,0,0,1-.27-1.1,2.19,2.19,0,0,1,.41-1.33,2.64,2.64,0,0,1,1.12-.9,3.84,3.84,0,0,1,1.62-.33,4.35,4.35,0,0,1,1,.12,4,4,0,0,1,1,.39,2.88,2.88,0,0,1,.9.74.5.5,0,0,1,.17.37.5.5,0,0,1-.18.36.51.51,0,0,1-.34.11.41.41,0,0,1-.31-.14,2.8,2.8,0,0,0-1-.74,3.18,3.18,0,0,0-1.28-.25,2.7,2.7,0,0,0-1,.17,1.83,1.83,0,0,0-.76.51,1.28,1.28,0,0,0-.31.9,1.31,1.31,0,0,0,.37.85,2.87,2.87,0,0,0,.88.54,12.21,12.21,0,0,0,1.24.39,9.42,9.42,0,0,1,1.1.35,3.63,3.63,0,0,1,.94.49,2.35,2.35,0,0,1,.65.75,2.39,2.39,0,0,1,.24,1.13,2.2,2.2,0,0,1-.44,1.37,2.85,2.85,0,0,1-1.18.88,4.13,4.13,0,0,1-1.64.31,4.89,4.89,0,0,1-1.88-.38A4,4,0,0,1,141.82,63.31Z"/><path class="cls-9" d="M150.23,55.61h4.19a.46.46,0,0,1,.36.15.5.5,0,0,1,.15.37.46.46,0,0,1-.15.34.45.45,0,0,1-.36.14h-4.19a.5.5,0,0,1-.37-.15.49.49,0,0,1-.15-.35.5.5,0,0,1,.52-.5Zm1.85-2.54a.5.5,0,0,1,.39.16.54.54,0,0,1,.15.38v9a1.66,1.66,0,0,0,.14.76.62.62,0,0,0,.35.33,1.09,1.09,0,0,0,.43.08.71.71,0,0,0,.26,0,.75.75,0,0,1,.26-.05.39.39,0,0,1,.28.13.44.44,0,0,1,.12.32.51.51,0,0,1-.29.43,1.34,1.34,0,0,1-.68.17l-.49,0a1.77,1.77,0,0,1-.67-.2,1.32,1.32,0,0,1-.56-.6,2.74,2.74,0,0,1-.23-1.24V53.61a.54.54,0,0,1,.15-.38A.53.53,0,0,1,152.08,53.07Z"/><path class="cls-9" d="M164.81,60.16a5,5,0,0,1-.6,2.46,4.62,4.62,0,0,1-1.63,1.71,4.65,4.65,0,0,1-4.64,0,4.54,4.54,0,0,1-1.63-1.71,5.29,5.29,0,0,1,0-4.93A4.54,4.54,0,0,1,157.94,56a4.59,4.59,0,0,1,4.64,0,4.62,4.62,0,0,1,1.63,1.71A5,5,0,0,1,164.81,60.16Zm-1.08,0a4.12,4.12,0,0,0-.45-1.95,3.49,3.49,0,0,0-1.23-1.35,3.44,3.44,0,0,0-3.57,0,3.59,3.59,0,0,0-1.24,1.35,4.13,4.13,0,0,0-.46,1.95,4.06,4.06,0,0,0,.46,1.94,3.56,3.56,0,0,0,1.24,1.34,3.44,3.44,0,0,0,3.57,0,3.46,3.46,0,0,0,1.23-1.34A4.05,4.05,0,0,0,163.73,60.16ZM160,54.71a.32.32,0,0,1-.19-.1.34.34,0,0,1-.1-.23.51.51,0,0,1,.09-.25l1.1-1.71a1,1,0,0,1,.24-.27.62.62,0,0,1,.37-.13.59.59,0,0,1,.43.15.47.47,0,0,1,.15.41.56.56,0,0,1,0,.23A.72.72,0,0,1,162,53l-1.35,1.42a1.27,1.27,0,0,1-.25.21A.68.68,0,0,1,160,54.71Z"/><path class="cls-9" d="M171.07,55.5a3.14,3.14,0,0,1,1.91.58,3,3,0,0,1,1.08,1.74l-.26.07.11-.32a2.94,2.94,0,0,1,.79-1,4.27,4.27,0,0,1,1.25-.76,3.54,3.54,0,0,1,1.42-.29,3.19,3.19,0,0,1,1.83.48,2.79,2.79,0,0,1,1,1.31,5.11,5.11,0,0,1,.32,1.84v5.1a.55.55,0,0,1-.15.38.57.57,0,0,1-.39.16.53.53,0,0,1-.39-.16.55.55,0,0,1-.15-.38v-5a3.68,3.68,0,0,0-.24-1.35,2,2,0,0,0-.73-1,2.29,2.29,0,0,0-1.35-.36,3,3,0,0,0-1.42.36,3,3,0,0,0-1.09,1,2.28,2.28,0,0,0-.43,1.35v5a.55.55,0,0,1-.15.38.53.53,0,0,1-.39.16.53.53,0,0,1-.38-.16.52.52,0,0,1-.16-.38v-5.1a4,4,0,0,0-.21-1.33,2,2,0,0,0-.71-.94,2.14,2.14,0,0,0-1.31-.35,2.81,2.81,0,0,0-1.39.35,3,3,0,0,0-1.07.94,2.31,2.31,0,0,0-.4,1.33v5.1a.55.55,0,0,1-.54.54.54.54,0,0,1-.4-.16.59.59,0,0,1-.14-.38V56.16a.51.51,0,0,1,.15-.37.51.51,0,0,1,.39-.17.54.54,0,0,1,.39.17.51.51,0,0,1,.15.37v1.68l-.49.66a3,3,0,0,1,.35-1.08,3.62,3.62,0,0,1,.79-1,3.79,3.79,0,0,1,1.1-.69A3.44,3.44,0,0,1,171.07,55.5Z"/><path class="cls-9" d="M190.69,55.57a.5.5,0,0,1,.39.16.57.57,0,0,1,.15.4v8.1a.52.52,0,0,1-.16.38.53.53,0,0,1-.38.16.53.53,0,0,1-.39-.16.55.55,0,0,1-.15-.38V62.09l.31-.15a2.13,2.13,0,0,1-.28,1,3.61,3.61,0,0,1-.76,1,4.1,4.1,0,0,1-1.15.73,3.68,3.68,0,0,1-1.43.28,3.91,3.91,0,0,1-2.17-.63,4.39,4.39,0,0,1-1.51-1.73,5.5,5.5,0,0,1-.55-2.47,5.29,5.29,0,0,1,.56-2.47A4.25,4.25,0,0,1,184.68,56a3.89,3.89,0,0,1,2.15-.62,3.84,3.84,0,0,1,1.44.27,3.75,3.75,0,0,1,1.18.74,3.61,3.61,0,0,1,.8,1.07,2.92,2.92,0,0,1,.28,1.25l-.38-.27V56.13a.57.57,0,0,1,.15-.4A.5.5,0,0,1,190.69,55.57ZM187,63.94a3,3,0,0,0,1.69-.5,3.29,3.29,0,0,0,1.16-1.36,4.34,4.34,0,0,0,.43-2,4.09,4.09,0,0,0-.43-1.9,3.33,3.33,0,0,0-1.16-1.35,2.88,2.88,0,0,0-1.69-.51,3,3,0,0,0-1.68.49,3.29,3.29,0,0,0-1.17,1.33,4.29,4.29,0,0,0-.42,1.94,4.47,4.47,0,0,0,.41,2,3.22,3.22,0,0,0,1.16,1.36A3,3,0,0,0,187,63.94Z"/><path class="cls-9" d="M197.73,55.35a4,4,0,0,1,1.48.28,4.45,4.45,0,0,1,1.2.72,3.82,3.82,0,0,1,.8.94,1.89,1.89,0,0,1,.29.94l-.29-.43V56.13a.57.57,0,0,1,.15-.4.5.5,0,0,1,.39-.16.53.53,0,0,1,.39.16.57.57,0,0,1,.15.4v7.79a4.61,4.61,0,0,1-.6,2.43,3.82,3.82,0,0,1-1.61,1.5,4.92,4.92,0,0,1-2.31.52,6.25,6.25,0,0,1-1.32-.16,5.32,5.32,0,0,1-1.19-.42c-.33-.17-.52-.34-.57-.52a.46.46,0,0,1-.11-.32.35.35,0,0,1,.52-.28l.6.26.48.16a6.55,6.55,0,0,0,.74.19,4.94,4.94,0,0,0,.87.08A3.16,3.16,0,0,0,201.21,64V62.27l.2,0a3,3,0,0,1-.54,1.13,3.47,3.47,0,0,1-.89.82,3.82,3.82,0,0,1-1.08.51,4.19,4.19,0,0,1-3.39-.46,4.47,4.47,0,0,1-1.57-1.71,5.53,5.53,0,0,1,0-4.93A4.44,4.44,0,0,1,195.5,56,4.16,4.16,0,0,1,197.73,55.35Zm.11,1a3.19,3.19,0,0,0-1.75.5,3.49,3.49,0,0,0-1.23,1.35,4.19,4.19,0,0,0-.44,1.93,4.3,4.3,0,0,0,.44,2,3.49,3.49,0,0,0,1.23,1.35,3.19,3.19,0,0,0,1.75.5,3.23,3.23,0,0,0,1.77-.49,3.44,3.44,0,0,0,1.22-1.34,4.54,4.54,0,0,0,0-3.94,3.41,3.41,0,0,0-1.22-1.33A3.31,3.31,0,0,0,197.84,56.36Z"/><path class="cls-9" d="M213.52,60.16a5,5,0,0,1-.6,2.46,4.54,4.54,0,0,1-1.63,1.71,4.63,4.63,0,0,1-4.63,0A4.57,4.57,0,0,1,205,62.62a5.29,5.29,0,0,1,0-4.93A4.57,4.57,0,0,1,206.66,56a4.57,4.57,0,0,1,4.63,0,4.54,4.54,0,0,1,1.63,1.71A5,5,0,0,1,213.52,60.16Zm-1.08,0a4.12,4.12,0,0,0-.45-1.95,3.49,3.49,0,0,0-1.23-1.35,3.28,3.28,0,0,0-1.79-.5,3.24,3.24,0,0,0-1.77.5A3.54,3.54,0,0,0,206,58.21a4.13,4.13,0,0,0-.46,1.95A4.06,4.06,0,0,0,206,62.1a3.51,3.51,0,0,0,1.25,1.34,3.24,3.24,0,0,0,1.77.5,3.28,3.28,0,0,0,1.79-.5A3.46,3.46,0,0,0,212,62.1,4.05,4.05,0,0,0,212.44,60.16Z"/><path class="cls-9" d="M215.67,64.77a.56.56,0,0,1-.46-.2.76.76,0,0,1-.17-.5v-.38a.73.73,0,0,1,.17-.51.57.57,0,0,1,.46-.18h.13a.61.61,0,0,1,.47.18.73.73,0,0,1,.16.51v.38a.75.75,0,0,1-.16.5.59.59,0,0,1-.47.2Z"/></g></g></g></svg>