<svg xmlns="http://www.w3.org/2000/svg" viewBox="0 0 501.36 83.13"><defs><style>.cls-1{isolation:isolate;}.cls-2{opacity:0.27;}.cls-3{fill:#002451;}.cls-4{fill:#fff2cc;}.cls-5{fill:none;}.cls-6{fill:#29abe2;}.cls-7{opacity:0.2;mix-blend-mode:multiply;}.cls-8{fill:#fff;}.cls-9{fill:#4d4d4d;}</style></defs><title>lab03-bxB5</title><g class="cls-1"><g id="Layer_2" data-name="Layer 2"><g id="Layer_1-2" data-name="Layer 1"><g class="cls-2"><rect class="cls-3" x="2.96" y="2.84" width="498.39" height="80.29" rx="11.44" ry="11.44"/></g><rect class="cls-4" width="498.39" height="80.29" rx="11.44" ry="11.44"/><path class="cls-5" d="M471.49,78.36v-15A8.38,8.38,0,0,1,480,55.14h15.68a8.68,8.68,0,0,1,2.67.42V11.2A11.45,11.45,0,0,0,486.7,0h-475A11.45,11.45,0,0,0,0,11.2V69.09a11.45,11.45,0,0,0,11.69,11.2H471.74A7.74,7.74,0,0,1,471.49,78.36Z"/><path class="cls-6" d="M487.18,55.14c-8.66,0-15.69,6.73-15.69,15v8.18a7.74,7.74,0,0,0,.25,1.93h15a11.45,11.45,0,0,0,11.69-11.2V55.56a8.68,8.68,0,0,0-2.67-.42Z"/><g class="cls-7"><rect x="485.25" y="63.6" width="1.36" height="10.24"/><polygon points="485.89 59.72 483.14 64.28 488.65 64.28 485.89 59.72"/><polygon points="485.93 77.65 488.68 73.08 483.18 73.08 485.93 77.65"/><rect x="480.58" y="68.07" width="10.69" height="1.3"/><polygon points="476.55 68.7 481.32 71.33 481.32 66.06 476.55 68.7"/><polygon points="495.27 68.67 490.5 66.03 490.5 71.3 495.27 68.67"/></g><rect class="cls-8" x="484.28" y="62.63" width="1.36" height="10.24"/><polygon class="cls-8" points="484.93 58.75 482.18 63.32 487.68 63.32 484.93 58.75"/><polygon class="cls-8" points="484.96 76.68 487.71 72.11 482.21 72.11 484.96 76.68"/><rect class="cls-8" x="479.62" y="67.1" width="10.69" height="1.3"/><polygon class="cls-8" points="475.58 67.73 480.35 70.37 480.35 65.09 475.58 67.73"/><polygon class="cls-8" points="494.3 67.7 489.54 65.06 489.54 70.34 494.3 67.7"/><path class="cls-9" d="M22.56,24.56a.55.55,0,0,1,.38.15.52.52,0,0,1,.16.37.53.53,0,0,1-.16.39.55.55,0,0,1-.38.15H16.13a.53.53,0,0,1-.39-.16.55.55,0,0,1-.15-.38V13.56a.57.57,0,0,1,.16-.38.61.61,0,0,1,.42-.16.57.57,0,0,1,.38.16.51.51,0,0,1,.18.38V24.87l-.35-.31Z"/><path class="cls-9" d="M32.9,21a5,5,0,0,1-.6,2.46,4.47,4.47,0,0,1-1.63,1.71,4.42,4.42,0,0,1-2.32.62A4.5,4.5,0,0,1,26,25.18a4.4,4.4,0,0,1-1.63-1.71A4.93,4.93,0,0,1,23.79,21a4.88,4.88,0,0,1,.61-2.46A4.54,4.54,0,0,1,26,16.84a4.42,4.42,0,0,1,2.32-.63,4.34,4.34,0,0,1,2.32.63,4.62,4.62,0,0,1,1.63,1.71A5,5,0,0,1,32.9,21Zm-1.08,0a4.12,4.12,0,0,0-.45-2,3.49,3.49,0,0,0-1.23-1.35,3.44,3.44,0,0,0-3.57,0,3.59,3.59,0,0,0-1.24,1.35,4.36,4.36,0,0,0,0,3.9,3.64,3.64,0,0,0,1.24,1.34,3.5,3.5,0,0,0,3.57,0A3.53,3.53,0,0,0,31.37,23,4.1,4.1,0,0,0,31.82,21Z"/><path class="cls-9" d="M34.35,24.16a.69.69,0,0,1-.13-.42.38.38,0,0,1,.22-.33.43.43,0,0,1,.34-.11.57.57,0,0,1,.35.18,3.74,3.74,0,0,0,1.18,1,3.4,3.4,0,0,0,1.64.38,2.88,2.88,0,0,0,1-.17,2,2,0,0,0,.82-.52,1.41,1.41,0,0,0,0-1.79,2.18,2.18,0,0,0-.84-.54,8.19,8.19,0,0,0-1.09-.34c-.4-.11-.8-.23-1.18-.37a4.07,4.07,0,0,1-1-.52,2.6,2.6,0,0,1-.71-.77,2.09,2.09,0,0,1-.27-1.1,2.28,2.28,0,0,1,.41-1.33,2.83,2.83,0,0,1,1.13-.9,3.92,3.92,0,0,1,1.61-.32,5,5,0,0,1,1,.11,4.18,4.18,0,0,1,1,.39,3.29,3.29,0,0,1,.9.74.54.54,0,0,1,.16.37.49.49,0,0,1-.18.37.56.56,0,0,1-.33.1.39.39,0,0,1-.32-.14,2.92,2.92,0,0,0-1-.74,3.34,3.34,0,0,0-1.27-.25,2.84,2.84,0,0,0-1,.17,2,2,0,0,0-.77.51,1.33,1.33,0,0,0-.3.91,1.23,1.23,0,0,0,.36.84,2.58,2.58,0,0,0,.89.54,9.37,9.37,0,0,0,1.23.4,10.19,10.19,0,0,1,1.11.34,4.09,4.09,0,0,1,.93.49,2.24,2.24,0,0,1,.65.75,2.41,2.41,0,0,1,.24,1.14,2.13,2.13,0,0,1-.44,1.36,2.8,2.8,0,0,1-1.18.89,4.32,4.32,0,0,1-1.64.3A4.93,4.93,0,0,1,36,25.42,4.06,4.06,0,0,1,34.35,24.16Z"/><path class="cls-9" d="M49.54,26.45a2.59,2.59,0,0,1-.4,1.47,2.74,2.74,0,0,1-1,.92,2.43,2.43,0,0,1-1.19.33.48.48,0,0,1-.37-.15.47.47,0,0,1-.13-.34v-.07a.43.43,0,0,1,.14-.34.64.64,0,0,1,.33-.16,2.82,2.82,0,0,0,.76-.31,1.62,1.62,0,0,0,.57-.59,1.89,1.89,0,0,0,.21-.92V17a.57.57,0,0,1,.16-.38.49.49,0,0,1,.38-.16.5.5,0,0,1,.39.16.55.55,0,0,1,.15.38ZM49,15a.81.81,0,0,1-.56-.17.63.63,0,0,1-.19-.5v-.18a.58.58,0,0,1,.21-.49.8.8,0,0,1,.56-.17.72.72,0,0,1,.53.17.6.6,0,0,1,.19.49v.18a.63.63,0,0,1-.19.5A.8.8,0,0,1,49,15Z"/><path class="cls-9" d="M59.37,16.48a.5.5,0,0,1,.39.16.54.54,0,0,1,.15.38v5.07a3.53,3.53,0,0,1-1,2.72,3.83,3.83,0,0,1-2.72.94,3.74,3.74,0,0,1-2.69-.94,3.53,3.53,0,0,1-1-2.72V17a.54.54,0,0,1,.15-.38.5.5,0,0,1,.39-.16.53.53,0,0,1,.39.16.54.54,0,0,1,.15.38v5.07a2.39,2.39,0,0,0,2.61,2.65,2.68,2.68,0,0,0,1.94-.68,2.59,2.59,0,0,0,.7-2V17a.54.54,0,0,1,.15-.38A.48.48,0,0,1,59.37,16.48Z"/><path class="cls-9" d="M66.35,16.21a3.82,3.82,0,0,1,1.48.28,4.12,4.12,0,0,1,1.2.72,3.61,3.61,0,0,1,.8.93,1.93,1.93,0,0,1,.29.95l-.29-.43V17a.59.59,0,0,1,.15-.4.53.53,0,0,1,.39-.16.53.53,0,0,1,.38.16.55.55,0,0,1,.16.4v7.8a4.63,4.63,0,0,1-.6,2.43,3.82,3.82,0,0,1-1.61,1.5,5.09,5.09,0,0,1-2.31.51,6.14,6.14,0,0,1-2.51-.57c-.33-.17-.52-.35-.57-.53a.53.53,0,0,1-.12-.31.35.35,0,0,1,.16-.26.31.31,0,0,1,.37,0c.13.07.34.15.6.26l.48.16a5.11,5.11,0,0,0,.73.19,4.3,4.3,0,0,0,.88.08,3.14,3.14,0,0,0,3.42-3.36V23.12l.2.05a3.09,3.09,0,0,1-.54,1.14,4.08,4.08,0,0,1-.89.82,3.8,3.8,0,0,1-1.08.5,4.19,4.19,0,0,1-3.39-.46,4.39,4.39,0,0,1-1.57-1.71,5.51,5.51,0,0,1,0-4.92,4.31,4.31,0,0,1,1.56-1.71A4.07,4.07,0,0,1,66.35,16.21Zm.11,1a3.19,3.19,0,0,0-1.75.5,3.41,3.41,0,0,0-1.23,1.35A4.23,4.23,0,0,0,63,21a4.29,4.29,0,0,0,.44,1.94,3.44,3.44,0,0,0,1.23,1.36,3.19,3.19,0,0,0,1.75.49,3.31,3.31,0,0,0,1.77-.48A3.51,3.51,0,0,0,69.45,23a4.56,4.56,0,0,0,0-3.95,3.41,3.41,0,0,0-1.22-1.33A3.31,3.31,0,0,0,66.46,17.21Z"/><path class="cls-9" d="M82.14,21a5,5,0,0,1-.6,2.46,4.47,4.47,0,0,1-1.63,1.71,4.42,4.42,0,0,1-2.32.62,4.5,4.5,0,0,1-2.32-.62,4.4,4.4,0,0,1-1.63-1.71A4.93,4.93,0,0,1,73,21a4.88,4.88,0,0,1,.61-2.46,4.54,4.54,0,0,1,1.63-1.71,4.42,4.42,0,0,1,2.32-.63,4.34,4.34,0,0,1,2.32.63,4.62,4.62,0,0,1,1.63,1.71A5,5,0,0,1,82.14,21Zm-1.08,0a4.12,4.12,0,0,0-.45-2,3.49,3.49,0,0,0-1.23-1.35,3.44,3.44,0,0,0-3.57,0,3.59,3.59,0,0,0-1.24,1.35,4.36,4.36,0,0,0,0,3.9,3.64,3.64,0,0,0,1.24,1.34,3.5,3.5,0,0,0,3.57,0A3.53,3.53,0,0,0,80.61,23,4.1,4.1,0,0,0,81.06,21Z"/><path class="cls-9" d="M83.59,24.16a.69.69,0,0,1-.13-.42.38.38,0,0,1,.22-.33A.43.43,0,0,1,84,23.3a.57.57,0,0,1,.35.18,3.74,3.74,0,0,0,1.18,1,3.4,3.4,0,0,0,1.64.38,2.88,2.88,0,0,0,1-.17,2,2,0,0,0,.82-.52,1.41,1.41,0,0,0,0-1.79,2.18,2.18,0,0,0-.84-.54,8.19,8.19,0,0,0-1.09-.34c-.4-.11-.8-.23-1.18-.37a4.07,4.07,0,0,1-1-.52,2.6,2.6,0,0,1-.71-.77,2.09,2.09,0,0,1-.27-1.1,2.28,2.28,0,0,1,.41-1.33,2.83,2.83,0,0,1,1.13-.9,3.92,3.92,0,0,1,1.61-.32,5,5,0,0,1,1,.11,4.18,4.18,0,0,1,1,.39,3.29,3.29,0,0,1,.9.74.5.5,0,0,1,.16.37.49.49,0,0,1-.18.37.56.56,0,0,1-.33.1.39.39,0,0,1-.32-.14,2.92,2.92,0,0,0-1-.74A3.34,3.34,0,0,0,87,17.16a2.84,2.84,0,0,0-1,.17,2.08,2.08,0,0,0-.77.51,1.33,1.33,0,0,0-.3.91,1.23,1.23,0,0,0,.36.84,2.58,2.58,0,0,0,.89.54,9.37,9.37,0,0,0,1.23.4,10.19,10.19,0,0,1,1.11.34,4.09,4.09,0,0,1,.93.49,2.24,2.24,0,0,1,.65.75,2.41,2.41,0,0,1,.24,1.14,2.13,2.13,0,0,1-.44,1.36,2.8,2.8,0,0,1-1.18.89,4.28,4.28,0,0,1-1.64.3,4.93,4.93,0,0,1-1.88-.38A4.06,4.06,0,0,1,83.59,24.16Z"/><path class="cls-9" d="M101.23,16.21a3.82,3.82,0,0,1,1.48.28,4.12,4.12,0,0,1,1.2.72,3.61,3.61,0,0,1,.8.93,1.93,1.93,0,0,1,.29.95l-.29-.43V17a.59.59,0,0,1,.15-.4.53.53,0,0,1,.39-.16.53.53,0,0,1,.38.16.55.55,0,0,1,.16.4v7.8a4.63,4.63,0,0,1-.6,2.43,3.82,3.82,0,0,1-1.61,1.5,5.09,5.09,0,0,1-2.31.51,6.14,6.14,0,0,1-2.51-.57c-.33-.17-.52-.35-.57-.53a.53.53,0,0,1-.12-.31.35.35,0,0,1,.16-.26.31.31,0,0,1,.37,0c.13.07.34.15.6.26l.48.16a5.11,5.11,0,0,0,.73.19,4.3,4.3,0,0,0,.88.08,3.14,3.14,0,0,0,3.42-3.36V23.12l.2.05a3.09,3.09,0,0,1-.54,1.14,4.08,4.08,0,0,1-.89.82,3.8,3.8,0,0,1-1.08.5A4.19,4.19,0,0,1,99,25.17a4.39,4.39,0,0,1-1.57-1.71,5.51,5.51,0,0,1,0-4.92A4.31,4.31,0,0,1,99,16.83,4.07,4.07,0,0,1,101.23,16.21Zm.11,1a3.19,3.19,0,0,0-1.75.5,3.41,3.41,0,0,0-1.23,1.35A4.23,4.23,0,0,0,97.92,21a4.29,4.29,0,0,0,.44,1.94,3.44,3.44,0,0,0,1.23,1.36,3.19,3.19,0,0,0,1.75.49,3.31,3.31,0,0,0,1.77-.48A3.51,3.51,0,0,0,104.33,23a4.56,4.56,0,0,0,0-3.95,3.41,3.41,0,0,0-1.22-1.33A3.31,3.31,0,0,0,101.34,17.21Z"/><path class="cls-9" d="M116,16.42a.53.53,0,0,1,.39.16.59.59,0,0,1,.15.4v8.1a.52.52,0,0,1-.16.38.49.49,0,0,1-.38.16.48.48,0,0,1-.39-.16.55.55,0,0,1-.15-.38V22.94l.31-.15a2.13,2.13,0,0,1-.28,1,3.61,3.61,0,0,1-.76,1,3.89,3.89,0,0,1-1.15.73,3.51,3.51,0,0,1-1.43.28,3.91,3.91,0,0,1-2.17-.63,4.39,4.39,0,0,1-1.51-1.73,5.49,5.49,0,0,1-.55-2.46,5.33,5.33,0,0,1,.56-2.48A4.39,4.39,0,0,1,110,16.82a3.88,3.88,0,0,1,2.15-.61,3.84,3.84,0,0,1,1.44.27,3.73,3.73,0,0,1,1.18.73,3.66,3.66,0,0,1,.8,1.08,2.89,2.89,0,0,1,.28,1.25l-.38-.27V17a.59.59,0,0,1,.15-.4A.52.52,0,0,1,116,16.42Zm-3.74,8.37a2.94,2.94,0,0,0,1.69-.49,3.32,3.32,0,0,0,1.16-1.37,4.3,4.3,0,0,0,.43-1.95,4.1,4.1,0,0,0-.43-1.91,3.39,3.39,0,0,0-1.16-1.35,2.88,2.88,0,0,0-1.69-.51,3.06,3.06,0,0,0-1.68.49A3.36,3.36,0,0,0,109.4,19,4.37,4.37,0,0,0,109,21a4.42,4.42,0,0,0,.41,1.95,3.25,3.25,0,0,0,1.16,1.37A3,3,0,0,0,112.25,24.79Zm-.12-9.1a.28.28,0,0,1-.19-.1.3.3,0,0,1-.1-.23.51.51,0,0,1,.09-.25L113,13.4a1.06,1.06,0,0,1,.25-.27.52.52,0,0,1,.37-.13.61.61,0,0,1,.43.15.44.44,0,0,1,.14.41.56.56,0,0,1,0,.23A.59.59,0,0,1,114,14l-1.35,1.43a.82.82,0,0,1-.25.2A.58.58,0,0,1,112.13,15.69Z"/><path class="cls-9" d="M118.65,24.16a.7.7,0,0,1-.14-.42.39.39,0,0,1,.23-.33.4.4,0,0,1,.33-.11.54.54,0,0,1,.35.18,4,4,0,0,0,1.18,1,3.41,3.41,0,0,0,1.65.38,2.92,2.92,0,0,0,1-.17,2,2,0,0,0,.82-.52,1.41,1.41,0,0,0,0-1.79,2.26,2.26,0,0,0-.84-.54,8.68,8.68,0,0,0-1.09-.34c-.41-.11-.8-.23-1.19-.37a4.44,4.44,0,0,1-1-.52,2.6,2.6,0,0,1-.71-.77,2.09,2.09,0,0,1-.27-1.1,2.22,2.22,0,0,1,.42-1.33,2.8,2.8,0,0,1,1.12-.9,4,4,0,0,1,1.61-.32,5.07,5.07,0,0,1,1,.11,4.12,4.12,0,0,1,1,.39,3,3,0,0,1,.9.74.5.5,0,0,1,.16.37.49.49,0,0,1-.18.37.52.52,0,0,1-.33.1.37.37,0,0,1-.31-.14,2.92,2.92,0,0,0-1-.74,3.39,3.39,0,0,0-1.28-.25,2.88,2.88,0,0,0-1,.17,2,2,0,0,0-.76.51,1.29,1.29,0,0,0-.31.91,1.24,1.24,0,0,0,.37.84,2.44,2.44,0,0,0,.88.54,10.46,10.46,0,0,0,1.23.4,9,9,0,0,1,1.11.34,4.17,4.17,0,0,1,.94.49,2.21,2.21,0,0,1,.64.75,2.29,2.29,0,0,1,.25,1.14,2.19,2.19,0,0,1-.44,1.36,2.87,2.87,0,0,1-1.18.89,4.32,4.32,0,0,1-1.64.3,4.86,4.86,0,0,1-1.88-.38A4,4,0,0,1,118.65,24.16Z"/><path class="cls-9" d="M127.06,16.46h4.19a.49.49,0,0,1,.36.15.55.55,0,0,1,.14.37.48.48,0,0,1-.14.34.49.49,0,0,1-.36.15h-4.19a.47.47,0,0,1-.37-.16.44.44,0,0,1-.16-.35.46.46,0,0,1,.16-.36A.53.53,0,0,1,127.06,16.46Zm1.85-2.54a.53.53,0,0,1,.39.16.55.55,0,0,1,.15.38v9a1.65,1.65,0,0,0,.13.75.7.7,0,0,0,.36.34,1.26,1.26,0,0,0,.43.08.75.75,0,0,0,.26-.05.71.71,0,0,1,.26,0,.38.38,0,0,1,.28.12.47.47,0,0,1,.11.33.48.48,0,0,1-.28.42,1.36,1.36,0,0,1-.69.17l-.48,0a1.74,1.74,0,0,1-.67-.19,1.36,1.36,0,0,1-.57-.61,2.75,2.75,0,0,1-.22-1.24V14.46a.55.55,0,0,1,.15-.38A.5.5,0,0,1,128.91,13.92Z"/><path class="cls-9" d="M134.06,25.62a.51.51,0,0,1-.4-.16.54.54,0,0,1-.14-.38V17a.54.54,0,0,1,.15-.38.5.5,0,0,1,.39-.16.49.49,0,0,1,.38.16.55.55,0,0,1,.16.38v2.7l-.27.05a4,4,0,0,1,.31-1.25,4.26,4.26,0,0,1,.71-1.14,3.69,3.69,0,0,1,1.07-.85,3.07,3.07,0,0,1,1.4-.32,1.58,1.58,0,0,1,.63.13.46.46,0,0,1,.3.44.56.56,0,0,1-.14.42.49.49,0,0,1-.34.14.79.79,0,0,1-.35-.09,1.18,1.18,0,0,0-.5-.09,2,2,0,0,0-1,.3,3.4,3.4,0,0,0-.91.8,3.94,3.94,0,0,0-.66,1.12,3.47,3.47,0,0,0-.24,1.25v4.45a.53.53,0,0,1-.17.38A.49.49,0,0,1,134.06,25.62Z"/><path class="cls-9" d="M140.89,15.05a.78.78,0,0,1-.57-.17.6.6,0,0,1-.19-.49v-.18a.61.61,0,0,1,.21-.5.85.85,0,0,1,.56-.17.77.77,0,0,1,.53.17.63.63,0,0,1,.19.5v.18a.6.6,0,0,1-.19.49A.73.73,0,0,1,140.89,15.05Zm.54,10a.53.53,0,0,1-.17.38.49.49,0,0,1-.37.16.5.5,0,0,1-.39-.16.55.55,0,0,1-.15-.38V16.8a.55.55,0,0,1,.15-.38.53.53,0,0,1,.39-.16.53.53,0,0,1,.38.16.57.57,0,0,1,.16.38Z"/><path class="cls-9" d="M148.09,16.21a6.08,6.08,0,0,1,1.59.19,3.28,3.28,0,0,1,1.16.51.91.91,0,0,1,.44.7.56.56,0,0,1-.14.35.39.39,0,0,1-.33.17.58.58,0,0,1-.37-.1,2.13,2.13,0,0,1-.26-.26,1.38,1.38,0,0,0-.38-.27,4,4,0,0,0-.67-.2,5.84,5.84,0,0,0-1-.09,3.33,3.33,0,0,0-1.82.51,3.64,3.64,0,0,0-1.28,1.36,4,4,0,0,0-.47,1.92,4.29,4.29,0,0,0,.44,1.94,3.35,3.35,0,0,0,3.09,1.85,4,4,0,0,0,1.12-.12,3.15,3.15,0,0,0,.68-.29,1.6,1.6,0,0,0,.51-.39.52.52,0,0,1,.41-.19.44.44,0,0,1,.34.14.52.52,0,0,1,.13.35c0,.19-.15.4-.43.64a3.79,3.79,0,0,1-1.16.61,5.21,5.21,0,0,1-1.71.26,4.27,4.27,0,0,1-3.93-2.35A5.18,5.18,0,0,1,143.5,21a5,5,0,0,1,.58-2.4,4.62,4.62,0,0,1,1.6-1.74A4.43,4.43,0,0,1,148.09,16.21Z"/><path class="cls-9" d="M161.51,21a5,5,0,0,1-.6,2.46,4.55,4.55,0,0,1-1.63,1.71,4.65,4.65,0,0,1-4.64,0A4.5,4.5,0,0,1,153,23.47a5,5,0,0,1-.6-2.46,5,5,0,0,1,.6-2.46,4.64,4.64,0,0,1,1.64-1.71,4.59,4.59,0,0,1,4.64,0,4.7,4.7,0,0,1,1.63,1.71A5,5,0,0,1,161.51,21Zm-1.08,0a4.12,4.12,0,0,0-.45-2,3.49,3.49,0,0,0-1.23-1.35,3.3,3.3,0,0,0-1.79-.5,3.27,3.27,0,0,0-1.78.5,3.59,3.59,0,0,0-1.24,1.35,4.36,4.36,0,0,0,0,3.9,3.64,3.64,0,0,0,1.24,1.34,3.26,3.26,0,0,0,1.78.49,3.3,3.3,0,0,0,1.79-.49A3.53,3.53,0,0,0,160,23,4.1,4.1,0,0,0,160.43,21Z"/><path class="cls-9" d="M163,24.16a.7.7,0,0,1-.14-.42.41.41,0,0,1,.23-.33.42.42,0,0,1,.33-.11.52.52,0,0,1,.35.18,4,4,0,0,0,1.18,1,3.41,3.41,0,0,0,1.65.38,2.88,2.88,0,0,0,1-.17,2,2,0,0,0,.82-.52,1.41,1.41,0,0,0,0-1.79,2.26,2.26,0,0,0-.84-.54,8.19,8.19,0,0,0-1.09-.34c-.41-.11-.8-.23-1.19-.37a4.17,4.17,0,0,1-1-.52,2.48,2.48,0,0,1-.71-.77,2.09,2.09,0,0,1-.27-1.1,2.21,2.21,0,0,1,.41-1.33,2.83,2.83,0,0,1,1.13-.9,3.92,3.92,0,0,1,1.61-.32,5,5,0,0,1,1,.11,4,4,0,0,1,1,.39,3,3,0,0,1,.9.74.51.51,0,0,1,.17.37.49.49,0,0,1-.18.37.57.57,0,0,1-.34.1.38.38,0,0,1-.31-.14,2.92,2.92,0,0,0-1-.74,3.36,3.36,0,0,0-1.28-.25,2.93,2.93,0,0,0-1,.17,2,2,0,0,0-.76.51,1.29,1.29,0,0,0,.06,1.75,2.53,2.53,0,0,0,.88.54,10.06,10.06,0,0,0,1.24.4,9.39,9.39,0,0,1,1.1.34,4,4,0,0,1,.94.49,2.24,2.24,0,0,1,.65.75,2.41,2.41,0,0,1,.24,1.14,2.19,2.19,0,0,1-.44,1.36,2.8,2.8,0,0,1-1.18.89,4.32,4.32,0,0,1-1.64.3,4.89,4.89,0,0,1-1.88-.38A4.06,4.06,0,0,1,163,24.16Z"/><path class="cls-9" d="M173.43,25.57a2.17,2.17,0,0,1-.16.78,2.79,2.79,0,0,1-.41.71,2.17,2.17,0,0,1-.55.51,1,1,0,0,1-.58.19.53.53,0,0,1-.32-.1.31.31,0,0,1-.14-.29c0-.2.06-.31.2-.34a2.08,2.08,0,0,0,.44-.15.92.92,0,0,0,.39-.39,1,1,0,0,0,.14-.51.48.48,0,0,0-.11-.32.35.35,0,0,0-.29-.13.73.73,0,0,0-.25,0,1,1,0,0,0-.24.1,1,1,0,0,1-.16-.19.39.39,0,0,1,0-.27.63.63,0,0,1,.17-.39,1.13,1.13,0,0,1,.39-.27,1.09,1.09,0,0,1,.46-.1,1,1,0,0,1,.77.3A1.1,1.1,0,0,1,173.43,25.57Z"/><path class="cls-9" d="M184.82,16.35A4,4,0,0,1,187,17a4.38,4.38,0,0,1,1.5,1.66,5.11,5.11,0,0,1,.56,2.42,5.18,5.18,0,0,1-.56,2.43A4.21,4.21,0,0,1,187,25.13a3.88,3.88,0,0,1-2.14.62,3.83,3.83,0,0,1-2.23-.71,3.76,3.76,0,0,1-.83-.76,3.9,3.9,0,0,1-.58-1l.33-.24v5.6a.51.51,0,0,1-.16.38.49.49,0,0,1-.38.16.5.5,0,0,1-.39-.16.54.54,0,0,1-.15-.38V17a.56.56,0,0,1,.14-.4.51.51,0,0,1,.4-.16.49.49,0,0,1,.38.16.54.54,0,0,1,.16.4v1.94l-.26-.14a2.93,2.93,0,0,1,.54-1,3.44,3.44,0,0,1,.81-.76,3.87,3.87,0,0,1,1-.48A4.47,4.47,0,0,1,184.82,16.35Zm-.09,1a3.06,3.06,0,0,0-1.71.48,3.29,3.29,0,0,0-1.16,1.29,4.12,4.12,0,0,0-.42,1.9,4.22,4.22,0,0,0,.42,1.91A3.31,3.31,0,0,0,183,24.26a3.06,3.06,0,0,0,1.71.48,3,3,0,0,0,1.68-.48,3.31,3.31,0,0,0,1.16-1.32A4.1,4.1,0,0,0,188,21a4,4,0,0,0-.44-1.89,3.26,3.26,0,0,0-1.16-1.3A3,3,0,0,0,184.73,17.36Z"/><path class="cls-9" d="M191.69,25.62a.48.48,0,0,1-.39-.16.55.55,0,0,1-.15-.38V17a.51.51,0,0,1,.16-.38.49.49,0,0,1,.38-.16.5.5,0,0,1,.39.16.54.54,0,0,1,.15.38v2.7l-.27.05a4.34,4.34,0,0,1,.32-1.25,4.26,4.26,0,0,1,.71-1.14,3.69,3.69,0,0,1,1.07-.85,3.07,3.07,0,0,1,1.4-.32,1.58,1.58,0,0,1,.63.13.46.46,0,0,1,.3.44.61.61,0,0,1-.14.42.49.49,0,0,1-.34.14.79.79,0,0,1-.35-.09,1.21,1.21,0,0,0-.5-.09,2,2,0,0,0-1,.3,3.6,3.6,0,0,0-.92.8,4.16,4.16,0,0,0-.65,1.12,3.28,3.28,0,0,0-.25,1.25v4.45a.52.52,0,0,1-.16.38A.51.51,0,0,1,191.69,25.62Z"/><path class="cls-9" d="M206.07,21a5,5,0,0,1-.6,2.46,4.47,4.47,0,0,1-1.63,1.71,4.5,4.5,0,0,1-6.27-1.71A5,5,0,0,1,197,21a5,5,0,0,1,.61-2.46,4.57,4.57,0,0,1,1.64-1.71,4.57,4.57,0,0,1,4.63,0,4.62,4.62,0,0,1,1.63,1.71A5,5,0,0,1,206.07,21ZM205,21a4.12,4.12,0,0,0-.45-2,3.49,3.49,0,0,0-1.23-1.35,3.28,3.28,0,0,0-1.79-.5,3.24,3.24,0,0,0-1.77.5,3.54,3.54,0,0,0-1.25,1.35,4.36,4.36,0,0,0,0,3.9,3.58,3.58,0,0,0,1.25,1.34,3.23,3.23,0,0,0,1.77.49,3.27,3.27,0,0,0,1.79-.49A3.53,3.53,0,0,0,204.54,23,4.1,4.1,0,0,0,205,21Z"/><path class="cls-9" d="M215.72,12.3a.53.53,0,0,1,.39.15.56.56,0,0,1,.15.39V25.08a.55.55,0,0,1-.54.54.51.51,0,0,1-.4-.16.59.59,0,0,1-.14-.38V22.94l.31-.25a2.41,2.41,0,0,1-.27,1,3.52,3.52,0,0,1-.77,1,3.94,3.94,0,0,1-1.15.75,3.42,3.42,0,0,1-1.43.29,3.84,3.84,0,0,1-2.15-.63,4.42,4.42,0,0,1-1.52-1.71,5.19,5.19,0,0,1-.56-2.46,5.19,5.19,0,0,1,.56-2.46,4.26,4.26,0,0,1,1.51-1.71,3.78,3.78,0,0,1,2.14-.62,3.7,3.7,0,0,1,1.42.27,3.84,3.84,0,0,1,1.18.73,3.69,3.69,0,0,1,.81,1.08,2.77,2.77,0,0,1,.3,1.25l-.38-.27V12.84a.59.59,0,0,1,.14-.38A.54.54,0,0,1,215.72,12.3ZM212,24.79a3,3,0,0,0,1.69-.49A3.4,3.4,0,0,0,214.83,23a4.71,4.71,0,0,0,0-3.89,3.4,3.4,0,0,0-1.16-1.35,3.11,3.11,0,0,0-3.38,0,3.51,3.51,0,0,0-1.17,1.35A4.35,4.35,0,0,0,208.7,21a4.41,4.41,0,0,0,.42,1.94,3.54,3.54,0,0,0,1.17,1.36A3,3,0,0,0,212,24.79Z"/><path class="cls-9" d="M225.78,16.48a.49.49,0,0,1,.38.16.51.51,0,0,1,.16.38v5.07a3.53,3.53,0,0,1-1,2.72,3.81,3.81,0,0,1-2.72.94,3.75,3.75,0,0,1-2.69-.94,3.53,3.53,0,0,1-1-2.72V17a.54.54,0,0,1,.15-.38.51.51,0,0,1,.39-.16.5.5,0,0,1,.39.16A.54.54,0,0,1,220,17v5.07a2.39,2.39,0,0,0,2.61,2.65,2.66,2.66,0,0,0,1.94-.68,2.59,2.59,0,0,0,.71-2V17a.53.53,0,0,1,.14-.38A.51.51,0,0,1,225.78,16.48Z"/><path class="cls-9" d="M233,16.21a6.08,6.08,0,0,1,1.59.19,3.28,3.28,0,0,1,1.16.51.91.91,0,0,1,.44.7A.56.56,0,0,1,236,18a.39.39,0,0,1-.33.17.58.58,0,0,1-.37-.1,2.13,2.13,0,0,1-.26-.26,1.38,1.38,0,0,0-.38-.27,4,4,0,0,0-.67-.2,5.84,5.84,0,0,0-1-.09,3.33,3.33,0,0,0-1.82.51,3.64,3.64,0,0,0-1.28,1.36,4,4,0,0,0-.47,1.92,4.29,4.29,0,0,0,.44,1.94A3.35,3.35,0,0,0,233,24.79a4,4,0,0,0,1.12-.12,3.15,3.15,0,0,0,.68-.29,1.6,1.6,0,0,0,.51-.39.52.52,0,0,1,.41-.19.44.44,0,0,1,.34.14.52.52,0,0,1,.13.35c0,.19-.15.4-.43.64a3.79,3.79,0,0,1-1.16.61,5.21,5.21,0,0,1-1.71.26A4.27,4.27,0,0,1,229,23.45a5.18,5.18,0,0,1-.57-2.45,5,5,0,0,1,.58-2.4,4.62,4.62,0,0,1,1.6-1.74A4.43,4.43,0,0,1,233,16.21Z"/><path class="cls-9" d="M238.5,15.05a.79.79,0,0,1-.57-.17.6.6,0,0,1-.19-.49v-.18a.61.61,0,0,1,.21-.5.85.85,0,0,1,.56-.17.77.77,0,0,1,.53.17.63.63,0,0,1,.19.5v.18a.6.6,0,0,1-.19.49A.73.73,0,0,1,238.5,15.05Zm.54,10a.53.53,0,0,1-.17.38.49.49,0,0,1-.37.16.5.5,0,0,1-.39-.16.55.55,0,0,1-.15-.38V16.8a.55.55,0,0,1,.15-.38.53.53,0,0,1,.39-.16.53.53,0,0,1,.38.16.57.57,0,0,1,.16.38Z"/><path class="cls-9" d="M249.19,12.3a.53.53,0,0,1,.39.15.56.56,0,0,1,.15.39V25.08a.52.52,0,0,1-.16.38.51.51,0,0,1-.38.16.48.48,0,0,1-.39-.16.55.55,0,0,1-.15-.38V22.94l.31-.25a2.41,2.41,0,0,1-.27,1,3.48,3.48,0,0,1-.76,1,4,4,0,0,1-1.16.75,3.36,3.36,0,0,1-1.43.29,3.84,3.84,0,0,1-2.15-.63,4.42,4.42,0,0,1-1.52-1.71,5.68,5.68,0,0,1,0-4.92,4.34,4.34,0,0,1,1.51-1.71,4,4,0,0,1,3.57-.35,4.09,4.09,0,0,1,1.18.73,3.49,3.49,0,0,1,.8,1.08,2.77,2.77,0,0,1,.3,1.25l-.38-.27V12.84a.55.55,0,0,1,.15-.38A.52.52,0,0,1,249.19,12.3Zm-3.74,12.49a2.94,2.94,0,0,0,1.69-.49A3.4,3.4,0,0,0,248.3,23a4.61,4.61,0,0,0,0-3.89,3.4,3.4,0,0,0-1.16-1.35,3,3,0,0,0-1.69-.5,3,3,0,0,0-1.68.5,3.35,3.35,0,0,0-1.17,1.35,4.23,4.23,0,0,0-.43,1.94,4.28,4.28,0,0,0,.43,1.94,3.38,3.38,0,0,0,1.17,1.36A3,3,0,0,0,245.45,24.79Z"/><path class="cls-9" d="M261,21a5,5,0,0,1-.6,2.46,4.55,4.55,0,0,1-1.63,1.71,4.51,4.51,0,0,1-6.28-1.71,5,5,0,0,1-.6-2.46,5,5,0,0,1,.6-2.46,4.57,4.57,0,0,1,1.64-1.71,4.59,4.59,0,0,1,4.64,0,4.7,4.7,0,0,1,1.63,1.71A5,5,0,0,1,261,21Zm-1.08,0a4.12,4.12,0,0,0-.45-2,3.49,3.49,0,0,0-1.23-1.35,3.31,3.31,0,0,0-1.8-.5,3.24,3.24,0,0,0-1.77.5,3.59,3.59,0,0,0-1.24,1.35,4.36,4.36,0,0,0,0,3.9,3.64,3.64,0,0,0,1.24,1.34,3.23,3.23,0,0,0,1.77.49,3.31,3.31,0,0,0,1.8-.49A3.53,3.53,0,0,0,259.44,23,4.1,4.1,0,0,0,259.89,21Z"/><path class="cls-9" d="M262.42,24.16a.7.7,0,0,1-.14-.42.39.39,0,0,1,.23-.33.42.42,0,0,1,.33-.11.52.52,0,0,1,.35.18,4,4,0,0,0,1.18,1,3.41,3.41,0,0,0,1.65.38,2.88,2.88,0,0,0,1-.17,2,2,0,0,0,.82-.52,1.41,1.41,0,0,0,0-1.79,2.26,2.26,0,0,0-.84-.54,8.19,8.19,0,0,0-1.09-.34c-.41-.11-.8-.23-1.19-.37a4.17,4.17,0,0,1-1-.52,2.64,2.64,0,0,1-.72-.77,2.08,2.08,0,0,1-.26-1.1,2.21,2.21,0,0,1,.41-1.33,2.8,2.8,0,0,1,1.12-.9,4,4,0,0,1,1.62-.32,5,5,0,0,1,1,.11,4.12,4.12,0,0,1,1,.39,3,3,0,0,1,.9.74.51.51,0,0,1,.17.37.52.52,0,0,1-.18.37.57.57,0,0,1-.34.1.38.38,0,0,1-.31-.14,2.92,2.92,0,0,0-1-.74,3.36,3.36,0,0,0-1.28-.25,2.88,2.88,0,0,0-1,.17,2,2,0,0,0-.76.51,1.29,1.29,0,0,0-.31.91,1.24,1.24,0,0,0,.37.84,2.53,2.53,0,0,0,.88.54,10.46,10.46,0,0,0,1.23.4,9,9,0,0,1,1.11.34,4,4,0,0,1,.94.49,2.35,2.35,0,0,1,.65.75,2.41,2.41,0,0,1,.24,1.14,2.19,2.19,0,0,1-.44,1.36,2.87,2.87,0,0,1-1.18.89,4.32,4.32,0,0,1-1.64.3,4.89,4.89,0,0,1-1.88-.38A4,4,0,0,1,262.42,24.16Z"/><path class="cls-9" d="M280.67,16.35a4,4,0,0,1,2.17.6,4.38,4.38,0,0,1,1.5,1.66A5.11,5.11,0,0,1,284.9,21a5.18,5.18,0,0,1-.56,2.43,4.21,4.21,0,0,1-1.51,1.67,3.88,3.88,0,0,1-2.14.62,3.83,3.83,0,0,1-2.23-.71,3.76,3.76,0,0,1-.83-.76,3.9,3.9,0,0,1-.58-1l.33-.24v5.6a.51.51,0,0,1-.16.38.49.49,0,0,1-.38.16.5.5,0,0,1-.39-.16.54.54,0,0,1-.15-.38V17a.56.56,0,0,1,.14-.4.51.51,0,0,1,.4-.16.49.49,0,0,1,.38.16.54.54,0,0,1,.16.4v1.94l-.26-.14a2.93,2.93,0,0,1,.54-1,3.44,3.44,0,0,1,.81-.76,3.87,3.87,0,0,1,1-.48A4.47,4.47,0,0,1,280.67,16.35Zm-.09,1a3.06,3.06,0,0,0-1.71.48,3.29,3.29,0,0,0-1.16,1.29,4.12,4.12,0,0,0-.42,1.9,4.22,4.22,0,0,0,.42,1.91,3.31,3.31,0,0,0,1.16,1.32,3.06,3.06,0,0,0,1.71.48,3,3,0,0,0,1.68-.48,3.31,3.31,0,0,0,1.16-1.32,4.1,4.1,0,0,0,.44-1.91,4,4,0,0,0-.44-1.89,3.26,3.26,0,0,0-1.16-1.3A3,3,0,0,0,280.58,17.36Z"/><path class="cls-9" d="M295.59,21a5,5,0,0,1-.6,2.46,4.47,4.47,0,0,1-1.63,1.71,4.63,4.63,0,0,1-4.63,0,4.35,4.35,0,0,1-1.64-1.71,5,5,0,0,1-.61-2.46,5,5,0,0,1,.61-2.46,4.49,4.49,0,0,1,1.64-1.71,4.57,4.57,0,0,1,4.63,0A4.62,4.62,0,0,1,295,18.55,5,5,0,0,1,295.59,21Zm-1.08,0a4.12,4.12,0,0,0-.45-2,3.49,3.49,0,0,0-1.23-1.35,3.28,3.28,0,0,0-1.79-.5,3.24,3.24,0,0,0-1.77.5A3.54,3.54,0,0,0,288,19.06a4.36,4.36,0,0,0,0,3.9,3.58,3.58,0,0,0,1.25,1.34,3.23,3.23,0,0,0,1.77.49,3.27,3.27,0,0,0,1.79-.49A3.53,3.53,0,0,0,294.06,23,4.1,4.1,0,0,0,294.51,21Z"/><path class="cls-9" d="M298.25,25.62a.51.51,0,0,1-.4-.16.59.59,0,0,1-.14-.38V17a.54.54,0,0,1,.15-.38.5.5,0,0,1,.39-.16.51.51,0,0,1,.39.16.54.54,0,0,1,.15.38v2.7l-.27.05a4.32,4.32,0,0,1,.31-1.25,4.56,4.56,0,0,1,.72-1.14,3.56,3.56,0,0,1,1.07-.85,3,3,0,0,1,1.39-.32,1.51,1.51,0,0,1,.63.13.45.45,0,0,1,.31.44.57.57,0,0,1-.15.42.48.48,0,0,1-.34.14.83.83,0,0,1-.35-.09,1.16,1.16,0,0,0-.49-.09,1.94,1.94,0,0,0-1,.3,3.44,3.44,0,0,0-.92.8,3.94,3.94,0,0,0-.66,1.12,3.47,3.47,0,0,0-.24,1.25v4.45a.55.55,0,0,1-.54.54Z"/><path class="cls-9" d="M313.64,25.8a5,5,0,0,1-2.45-.59,4.18,4.18,0,0,1-1.65-1.66,5,5,0,0,1-.6-2.48,5.3,5.3,0,0,1,.6-2.61,4.52,4.52,0,0,1,1.57-1.67,3.85,3.85,0,0,1,2-.58,4.28,4.28,0,0,1,1.54.28,3.9,3.9,0,0,1,1.33.82,4.38,4.38,0,0,1,.93,1.35,4.49,4.49,0,0,1,.38,1.83.52.52,0,0,1-.16.37.55.55,0,0,1-.38.15h-7.22l-.21-1h7.09l-.24.22V19.9a2.71,2.71,0,0,0-.55-1.44,3.05,3.05,0,0,0-1.13-.9,3.16,3.16,0,0,0-1.38-.31,2.92,2.92,0,0,0-1.1.22,3,3,0,0,0-1,.67,3.63,3.63,0,0,0-.75,1.17A4.56,4.56,0,0,0,310,21a4.24,4.24,0,0,0,.44,1.92,3.35,3.35,0,0,0,1.24,1.37,3.59,3.59,0,0,0,2,.5,3.33,3.33,0,0,0,1.12-.18,3.59,3.59,0,0,0,.89-.47,3.48,3.48,0,0,0,.64-.63.63.63,0,0,1,.38-.16.43.43,0,0,1,.33.15.44.44,0,0,1,.13.32.51.51,0,0,1-.18.38,4.67,4.67,0,0,1-1.4,1.12A3.85,3.85,0,0,1,313.64,25.8Z"/><path class="cls-9" d="M320.57,25.08a.53.53,0,0,1-.17.38.49.49,0,0,1-.37.16.5.5,0,0,1-.39-.16.55.55,0,0,1-.15-.38V12.84a.52.52,0,0,1,.16-.38.55.55,0,0,1,.38-.16.53.53,0,0,1,.38.16.52.52,0,0,1,.16.38Z"/><path class="cls-9" d="M333.24,15.81a3,3,0,0,1,2,.56,2.86,2.86,0,0,1,.93,1.48,8.27,8.27,0,0,1,.25,2.07v4.6a1.08,1.08,0,0,1-.31.79,1,1,0,0,1-.77.31,1.06,1.06,0,0,1-.78-.31,1.11,1.11,0,0,1-.3-.79v-4.6a3.61,3.61,0,0,0-.15-1.08,1.45,1.45,0,0,0-.52-.76,1.76,1.76,0,0,0-1.08-.29,2.31,2.31,0,0,0-1.17.29,2,2,0,0,0-.73.76,2.38,2.38,0,0,0-.24,1.08v4.6a1.08,1.08,0,0,1-.31.79,1.11,1.11,0,0,1-1.54,0,1.08,1.08,0,0,1-.31-.79V13.4a1.06,1.06,0,0,1,.31-.78,1.09,1.09,0,0,1,1.54,0,1.06,1.06,0,0,1,.31.78v4.46l-.27-.05a4.86,4.86,0,0,1,.45-.66,4,4,0,0,1,.7-.65,3.71,3.71,0,0,1,.92-.5A3,3,0,0,1,333.24,15.81Z"/><path class="cls-9" d="M340.74,24.52a1.12,1.12,0,0,1-.31.79,1,1,0,0,1-.77.31,1,1,0,0,1-.78-.31,1.11,1.11,0,0,1-.3-.79V17.09a1.09,1.09,0,0,1,.3-.78,1,1,0,0,1,.78-.32,1,1,0,0,1,.77.32,1.1,1.1,0,0,1,.31.78Zm-1-9.14a.72.72,0,0,1-.37-.15.48.48,0,0,1-.21-.44.71.71,0,0,1,.11-.35l1-1.83a2,2,0,0,1,.42-.51.86.86,0,0,1,.57-.21.91.91,0,0,1,.74.26.85.85,0,0,1,.22.64,2.15,2.15,0,0,1-.1.38,1.7,1.7,0,0,1-.25.39l-1.36,1.51a.77.77,0,0,1-.4.26A2,2,0,0,1,339.75,15.38Z"/><path class="cls-9" d="M346.8,15.81a3.93,3.93,0,0,1,2.47.83,3.29,3.29,0,0,1,.72.73,1.16,1.16,0,0,1,.26.62l-.47.23V16.91a1.1,1.1,0,0,1,.31-.78,1,1,0,0,1,.77-.32,1,1,0,0,1,.78.31,1.06,1.06,0,0,1,.3.79v8a4.24,4.24,0,0,1-.67,2.51,3.81,3.81,0,0,1-1.77,1.37,6.59,6.59,0,0,1-2.36.42,6.45,6.45,0,0,1-.94-.09c-.38-.06-.75-.13-1.1-.21a8.13,8.13,0,0,1-.79-.24,1.54,1.54,0,0,1-.75-.58.94.94,0,0,1-.08-.75,1.12,1.12,0,0,1,.53-.71.89.89,0,0,1,.75-.05l.6.22a8.09,8.09,0,0,0,.91.3,3.34,3.34,0,0,0,.87.13,3.1,3.1,0,0,0,2-.54,1.84,1.84,0,0,0,.64-1.49V23.64l.22.16a1,1,0,0,1-.24.57,3.5,3.5,0,0,1-.67.66,4.12,4.12,0,0,1-1,.55,3.3,3.3,0,0,1-1.22.22,4.27,4.27,0,0,1-2.31-.64,4.52,4.52,0,0,1-1.62-1.76,5.51,5.51,0,0,1-.59-2.58,5.58,5.58,0,0,1,.59-2.61,4.57,4.57,0,0,1,1.61-1.76A4.07,4.07,0,0,1,346.8,15.81Zm.34,2a2.49,2.49,0,0,0-1.42.4,2.65,2.65,0,0,0-1,1.08,3.37,3.37,0,0,0-.34,1.55,3.3,3.3,0,0,0,.34,1.52,2.65,2.65,0,0,0,1,1.08,2.49,2.49,0,0,0,1.42.4,2.56,2.56,0,0,0,1.44-.4,2.63,2.63,0,0,0,.95-1.08,3.3,3.3,0,0,0,.34-1.52,3.37,3.37,0,0,0-.34-1.55,2.63,2.63,0,0,0-.95-1.08A2.56,2.56,0,0,0,347.14,17.79Z"/><path class="cls-9" d="M362.05,15.81a1,1,0,0,1,.78.31,1.06,1.06,0,0,1,.3.79v7.61a1.11,1.11,0,0,1-.3.79,1,1,0,0,1-.78.31,1,1,0,0,1-.77-.31,1.12,1.12,0,0,1-.31-.79v-.88l.4.16a1,1,0,0,1-.25.57,3.66,3.66,0,0,1-.69.66,4.2,4.2,0,0,1-1,.55,3.53,3.53,0,0,1-1.27.22,4.07,4.07,0,0,1-2.25-.64,4.38,4.38,0,0,1-1.59-1.76,5.51,5.51,0,0,1-.59-2.58,5.58,5.58,0,0,1,.59-2.61,4.47,4.47,0,0,1,1.57-1.76,3.93,3.93,0,0,1,2.2-.64,4.31,4.31,0,0,1,1.42.23,4.25,4.25,0,0,1,1.12.6,3.21,3.21,0,0,1,.74.73,1.16,1.16,0,0,1,.26.62l-.65.23V16.91a1.1,1.1,0,0,1,.31-.78A1,1,0,0,1,362.05,15.81Zm-3.63,8a2.36,2.36,0,0,0,1.38-.4,2.59,2.59,0,0,0,.93-1.08,3.43,3.43,0,0,0,.33-1.52,3.5,3.5,0,0,0-.33-1.55,2.59,2.59,0,0,0-.93-1.08,2.56,2.56,0,0,0-2.75,0,2.66,2.66,0,0,0-.93,1.08,3.5,3.5,0,0,0-.33,1.55,3.43,3.43,0,0,0,.33,1.52,2.66,2.66,0,0,0,.93,1.08A2.37,2.37,0,0,0,358.42,23.82Z"/><path class="cls-9" d="M373.24,12.3a1,1,0,0,1,.78.31,1.08,1.08,0,0,1,.3.79V24.52a1.11,1.11,0,0,1-.3.79,1,1,0,0,1-.78.31,1,1,0,0,1-.77-.31,1.12,1.12,0,0,1-.31-.79v-.88l.4.16a1,1,0,0,1-.25.57,3.66,3.66,0,0,1-.69.66,4.2,4.2,0,0,1-1,.55,3.53,3.53,0,0,1-1.27.22,4.07,4.07,0,0,1-2.25-.64,4.45,4.45,0,0,1-1.59-1.76,5.51,5.51,0,0,1-.59-2.58,5.58,5.58,0,0,1,.59-2.61,4.55,4.55,0,0,1,1.57-1.76,3.93,3.93,0,0,1,2.2-.64,4.31,4.31,0,0,1,1.42.23,4.25,4.25,0,0,1,1.12.6,3.21,3.21,0,0,1,.74.73,1.09,1.09,0,0,1,.26.62l-.65.23V13.4a1.1,1.1,0,0,1,.31-.78A1,1,0,0,1,373.24,12.3Zm-3.63,11.52a2.36,2.36,0,0,0,1.38-.4,2.59,2.59,0,0,0,.93-1.08,3.43,3.43,0,0,0,.33-1.52,3.5,3.5,0,0,0-.33-1.55,2.59,2.59,0,0,0-.93-1.08,2.56,2.56,0,0,0-2.75,0,2.74,2.74,0,0,0-.93,1.08,3.5,3.5,0,0,0-.33,1.55,3.43,3.43,0,0,0,.33,1.52,2.74,2.74,0,0,0,.93,1.08A2.37,2.37,0,0,0,369.61,23.82Z"/><path class="cls-9" d="M385.86,20.82a5.05,5.05,0,0,1-.66,2.6,4.62,4.62,0,0,1-1.76,1.75,5.18,5.18,0,0,1-4.95,0,4.62,4.62,0,0,1-1.76-1.75,5.05,5.05,0,0,1-.66-2.6,5.06,5.06,0,0,1,.66-2.61,4.72,4.72,0,0,1,1.76-1.76,5.11,5.11,0,0,1,4.95,0,4.72,4.72,0,0,1,1.76,1.76A5.06,5.06,0,0,1,385.86,20.82Zm-2.16,0a3.23,3.23,0,0,0-.37-1.6,2.64,2.64,0,0,0-1-1,2.68,2.68,0,0,0-2.75,0,2.78,2.78,0,0,0-1,1,3.23,3.23,0,0,0-.37,1.6,3.17,3.17,0,0,0,.37,1.57,2.78,2.78,0,0,0,1,1.05,2.68,2.68,0,0,0,2.75,0,2.64,2.64,0,0,0,1-1.05A3.17,3.17,0,0,0,383.7,20.82Z"/><path class="cls-9" d="M399.69,16.26a.53.53,0,0,1,.38.16.57.57,0,0,1,.16.38v7.94a4.92,4.92,0,0,1-.58,2.46,3.82,3.82,0,0,1-1.55,1.51,4.68,4.68,0,0,1-2.21.51,5.84,5.84,0,0,1-1.43-.17,3.45,3.45,0,0,1-1.07-.44.83.83,0,0,1-.33-.31.39.39,0,0,1,0-.38.58.58,0,0,1,.28-.33.48.48,0,0,1,.39,0c.2.11.5.24.88.4a3.61,3.61,0,0,0,1.32.23,3.43,3.43,0,0,0,1.71-.41,2.79,2.79,0,0,0,1.13-1.2,4.12,4.12,0,0,0,.4-1.86v-1.3l.12.43a3,3,0,0,1-.76,1,3.64,3.64,0,0,1-1.14.68,3.81,3.81,0,0,1-1.36.24,3.39,3.39,0,0,1-1.79-.44,2.69,2.69,0,0,1-1.05-1.21,4.48,4.48,0,0,1-.34-1.82V16.8a.59.59,0,0,1,.14-.38.54.54,0,0,1,.4-.16.53.53,0,0,1,.38.16.52.52,0,0,1,.16.38v5.37a3,3,0,0,0,.55,1.94,2.14,2.14,0,0,0,1.79.68,2.79,2.79,0,0,0,1.42-.37,3.09,3.09,0,0,0,1.06-1,2.2,2.2,0,0,0,.42-1.28V16.8a.55.55,0,0,1,.15-.38A.53.53,0,0,1,399.69,16.26Z"/><path class="cls-9" d="M412.05,25.8a5,5,0,0,1-2.45-.59A4.25,4.25,0,0,1,408,23.55a5,5,0,0,1-.6-2.48,5.19,5.19,0,0,1,.61-2.61,4.42,4.42,0,0,1,1.56-1.67,3.88,3.88,0,0,1,2.05-.58,4.23,4.23,0,0,1,1.53.28,3.9,3.9,0,0,1,1.33.82,4.38,4.38,0,0,1,.93,1.35,4.49,4.49,0,0,1,.38,1.83.49.49,0,0,1-.16.37.54.54,0,0,1-.38.15H408l-.21-1h7.09l-.23.22V19.9a2.8,2.8,0,0,0-.56-1.44,3,3,0,0,0-1.13-.9,3.12,3.12,0,0,0-1.37-.31,3,3,0,0,0-1.11.22,3,3,0,0,0-1,.67,3.61,3.61,0,0,0-.74,1.17A4.37,4.37,0,0,0,408.4,21a4.23,4.23,0,0,0,.43,1.92,3.35,3.35,0,0,0,1.24,1.37,3.62,3.62,0,0,0,2,.5,3.33,3.33,0,0,0,1.12-.18,3.59,3.59,0,0,0,.89-.47,3.48,3.48,0,0,0,.64-.63.65.65,0,0,1,.38-.16.43.43,0,0,1,.33.15.45.45,0,0,1,.14.32.51.51,0,0,1-.18.38,4.72,4.72,0,0,1-1.41,1.12A3.79,3.79,0,0,1,412.05,25.8Z"/><path class="cls-9" d="M419,25.08a.55.55,0,0,1-.54.54.5.5,0,0,1-.39-.16.55.55,0,0,1-.15-.38V12.84a.52.52,0,0,1,.16-.38.57.57,0,0,1,.38-.16.53.53,0,0,1,.54.54Z"/><path class="cls-9" d="M20.06,35.81a4,4,0,0,1,2.25.64,4.52,4.52,0,0,1,1.59,1.76,5.47,5.47,0,0,1,.58,2.59,5.56,5.56,0,0,1-.58,2.6,4.48,4.48,0,0,1-1.57,1.76,3.91,3.91,0,0,1-2.2.64,4,4,0,0,1-1.35-.23,4.52,4.52,0,0,1-1.11-.6,3.42,3.42,0,0,1-.74-.73,1.16,1.16,0,0,1-.26-.62l.56-.23v4.73a1.08,1.08,0,0,1-.31.79,1,1,0,0,1-.77.31,1.09,1.09,0,0,1-.78-.3,1.1,1.1,0,0,1-.3-.8v-11a1.09,1.09,0,0,1,.3-.78,1.06,1.06,0,0,1,.78-.32,1,1,0,0,1,.77.32,1.06,1.06,0,0,1,.31.78V38l-.31-.16a1,1,0,0,1,.26-.57,3.31,3.31,0,0,1,.68-.66,3.57,3.57,0,0,1,1-.55A3.2,3.2,0,0,1,20.06,35.81Zm-.28,2a2.4,2.4,0,0,0-1.38.4,2.62,2.62,0,0,0-.93,1.07,3.45,3.45,0,0,0-.33,1.54,3.58,3.58,0,0,0,.33,1.54,2.59,2.59,0,0,0,.93,1.08,2.4,2.4,0,0,0,1.38.4,2.36,2.36,0,0,0,1.38-.4,2.64,2.64,0,0,0,.92-1.08,3.58,3.58,0,0,0,.33-1.54,3.45,3.45,0,0,0-.33-1.54,2.67,2.67,0,0,0-.92-1.07A2.36,2.36,0,0,0,19.78,37.79Z"/><path class="cls-9" d="M34.08,35.81a1,1,0,0,1,.77.31,1,1,0,0,1,.31.79v7.61a1.08,1.08,0,0,1-.31.79,1,1,0,0,1-.77.31,1,1,0,0,1-.78-.31,1.11,1.11,0,0,1-.3-.79v-.88l.39.16a1,1,0,0,1-.25.57,3.91,3.91,0,0,1-.68.66,4.48,4.48,0,0,1-1,.55,3.49,3.49,0,0,1-1.27.22,4.07,4.07,0,0,1-2.25-.64,4.45,4.45,0,0,1-1.59-1.76,5.51,5.51,0,0,1-.59-2.58,5.58,5.58,0,0,1,.59-2.61,4.55,4.55,0,0,1,1.57-1.76,3.93,3.93,0,0,1,2.2-.64,4.31,4.31,0,0,1,1.42.23,4.48,4.48,0,0,1,1.13.6,3.35,3.35,0,0,1,.73.73,1.11,1.11,0,0,1,.27.62l-.65.23V36.91a1.09,1.09,0,0,1,.3-.78A1,1,0,0,1,34.08,35.81Zm-3.64,8a2.41,2.41,0,0,0,1.39-.4,2.64,2.64,0,0,0,.92-1.08,3.3,3.3,0,0,0,.34-1.52,3.37,3.37,0,0,0-.34-1.55,2.64,2.64,0,0,0-.92-1.08,2.41,2.41,0,0,0-1.39-.4,2.37,2.37,0,0,0-1.37.4,2.64,2.64,0,0,0-.92,1.08,3.37,3.37,0,0,0-.34,1.55,3.3,3.3,0,0,0,.34,1.52,2.64,2.64,0,0,0,.92,1.08A2.37,2.37,0,0,0,30.44,43.82Zm.2-8.44a.72.72,0,0,1-.37-.15.48.48,0,0,1-.21-.44.71.71,0,0,1,.11-.35l1-1.83a2,2,0,0,1,.42-.51.87.87,0,0,1,.57-.21.91.91,0,0,1,.74.26.85.85,0,0,1,.22.64,1.53,1.53,0,0,1-.1.38,1.65,1.65,0,0,1-.24.39l-1.37,1.51a.77.77,0,0,1-.4.26A2,2,0,0,1,30.64,35.38Z"/><path class="cls-9" d="M42.58,35.81a3.18,3.18,0,0,1,2,.56,2.91,2.91,0,0,1,1,1.48,7.82,7.82,0,0,1,.26,2.07v4.6a1.12,1.12,0,0,1-.31.79,1,1,0,0,1-.77.31,1,1,0,0,1-.78-.31,1.11,1.11,0,0,1-.3-.79v-4.6a3.31,3.31,0,0,0-.16-1.08,1.45,1.45,0,0,0-.55-.76,1.9,1.9,0,0,0-1.13-.29,2.38,2.38,0,0,0-1.21.29,1.92,1.92,0,0,0-.76.76,2.27,2.27,0,0,0-.26,1.08v4.6a1.08,1.08,0,0,1-.31.79,1,1,0,0,1-.77.31,1.06,1.06,0,0,1-.78-.31,1.11,1.11,0,0,1-.3-.79V37.09a1.09,1.09,0,0,1,.3-.78,1.06,1.06,0,0,1,.78-.32,1,1,0,0,1,.77.32,1.06,1.06,0,0,1,.31.78v.77l-.27,0a3.74,3.74,0,0,1,.47-.66,4.14,4.14,0,0,1,.72-.65,3.45,3.45,0,0,1,.93-.5A3.25,3.25,0,0,1,42.58,35.81Z"/><path class="cls-9" d="M52.26,35.81a6.35,6.35,0,0,1,1.79.22,2.83,2.83,0,0,1,1.19.6,1.23,1.23,0,0,1,.42.93,1.18,1.18,0,0,1-.21.67.71.71,0,0,1-.63.32,1.34,1.34,0,0,1-.48-.08,1.85,1.85,0,0,1-.33-.21,1.78,1.78,0,0,0-.89-.41,3.85,3.85,0,0,0-.55-.06,2.87,2.87,0,0,0-1.56.4,2.66,2.66,0,0,0-1,1.07,3.38,3.38,0,0,0-.34,1.56A3.32,3.32,0,0,0,50,42.35a2.71,2.71,0,0,0,1,1.07,2.57,2.57,0,0,0,1.43.4,5.78,5.78,0,0,0,.78,0,2.31,2.31,0,0,0,.54-.16,3.94,3.94,0,0,0,.45-.31.9.9,0,0,1,.59-.16.92.92,0,0,1,.72.29,1.1,1.1,0,0,1,.25.73,1,1,0,0,1-.5.82,4,4,0,0,1-1.32.6,6.73,6.73,0,0,1-1.78.22,4.5,4.5,0,0,1-2.46-.66,4.23,4.23,0,0,1-1.61-1.79,5.54,5.54,0,0,1-.57-2.53,5.46,5.46,0,0,1,.6-2.61,4.45,4.45,0,0,1,1.68-1.76A4.64,4.64,0,0,1,52.26,35.81Z"/><path class="cls-9" d="M58.39,45.62a1,1,0,0,1-.77-.31,1.08,1.08,0,0,1-.31-.79V37.09a1.06,1.06,0,0,1,.31-.78,1.09,1.09,0,0,1,1.54,0,1.06,1.06,0,0,1,.31.78v1.69l-.13-1.2a3,3,0,0,1,1.23-1.33,3.06,3.06,0,0,1,.84-.33,4,4,0,0,1,.9-.11,1.34,1.34,0,0,1,.91.31.89.89,0,0,1,.37.72,1.07,1.07,0,0,1-.3.85,1,1,0,0,1-.67.26,1.56,1.56,0,0,1-.62-.12,1.47,1.47,0,0,0-.64-.13,1.62,1.62,0,0,0-.66.15,2.08,2.08,0,0,0-.61.48,2.57,2.57,0,0,0-.45.8,3.49,3.49,0,0,0-.17,1.13v4.26a1.08,1.08,0,0,1-.31.79A1,1,0,0,1,58.39,45.62Z"/><path class="cls-9" d="M69.17,45.8a5.23,5.23,0,0,1-2.65-.64,4.32,4.32,0,0,1-1.73-1.74,5.06,5.06,0,0,1-.61-2.48,5.42,5.42,0,0,1,.66-2.76,4.69,4.69,0,0,1,1.72-1.76,4.53,4.53,0,0,1,2.25-.61,4.16,4.16,0,0,1,1.74.38,4.92,4.92,0,0,1,1.45,1,5.13,5.13,0,0,1,1,1.53,4.67,4.67,0,0,1,.36,1.83.9.9,0,0,1-.34.7,1.13,1.13,0,0,1-.75.27H65.39l-.54-1.8h6.61l-.4.36v-.48a1.65,1.65,0,0,0-.37-.94,2.58,2.58,0,0,0-.83-.66,2.38,2.38,0,0,0-1-.24,3.29,3.29,0,0,0-1,.15,1.86,1.86,0,0,0-.81.48,2.36,2.36,0,0,0-.54.92,4.59,4.59,0,0,0-.2,1.46,3.12,3.12,0,0,0,.41,1.64,2.77,2.77,0,0,0,1,1,2.84,2.84,0,0,0,1.36.35,3.77,3.77,0,0,0,1.06-.11,2.29,2.29,0,0,0,.64-.26l.44-.26a1.36,1.36,0,0,1,.62-.16.9.9,0,0,1,.91.9,1.1,1.1,0,0,1-.5.88,3.9,3.9,0,0,1-1.31.69A5.24,5.24,0,0,1,69.17,45.8Z"/><path class="cls-9" d="M82.91,35.81a1,1,0,0,1,.78.31,1.06,1.06,0,0,1,.3.79v7.61a1.11,1.11,0,0,1-.3.79,1,1,0,0,1-.78.31,1,1,0,0,1-.77-.31,1.12,1.12,0,0,1-.31-.79v-.88l.4.16a1,1,0,0,1-.25.57,3.66,3.66,0,0,1-.69.66,4.2,4.2,0,0,1-1,.55A3.53,3.53,0,0,1,79,45.8a4.07,4.07,0,0,1-2.25-.64,4.47,4.47,0,0,1-1.6-1.76,5.51,5.51,0,0,1-.58-2.58,5.58,5.58,0,0,1,.58-2.61,4.57,4.57,0,0,1,1.58-1.76,3.93,3.93,0,0,1,2.2-.64,4.31,4.31,0,0,1,1.42.23,4.41,4.41,0,0,1,1.12.6,3.21,3.21,0,0,1,.74.73,1.16,1.16,0,0,1,.26.62l-.65.23V36.91a1.1,1.1,0,0,1,.31-.78A1,1,0,0,1,82.91,35.81Zm-3.63,8a2.36,2.36,0,0,0,1.38-.4,2.59,2.59,0,0,0,.93-1.08,3.43,3.43,0,0,0,.33-1.52,3.5,3.5,0,0,0-.33-1.55,2.59,2.59,0,0,0-.93-1.08,2.56,2.56,0,0,0-2.75,0A2.59,2.59,0,0,0,77,39.27a3.5,3.5,0,0,0-.33,1.55A3.43,3.43,0,0,0,77,42.34a2.59,2.59,0,0,0,.93,1.08A2.37,2.37,0,0,0,79.28,43.82Z"/><path class="cls-9" d="M85.76,44.13a1,1,0,0,1-.17-.65.9.9,0,0,1,.47-.69,1,1,0,0,1,.61-.15,1,1,0,0,1,.63.33,4.56,4.56,0,0,0,1.1.82,3.27,3.27,0,0,0,1.44.28,5,5,0,0,0,.6-.08A1.12,1.12,0,0,0,91,43.7a.87.87,0,0,0,.25-.69.8.8,0,0,0-.27-.63,2.27,2.27,0,0,0-.71-.39c-.3-.11-.63-.21-1-.31l-1.14-.36a4.59,4.59,0,0,1-1.07-.51,2.45,2.45,0,0,1-.79-.84A2.52,2.52,0,0,1,86,38.66a2.34,2.34,0,0,1,.51-1.53,3.3,3.3,0,0,1,1.3-1,4.21,4.21,0,0,1,1.68-.34,5.34,5.34,0,0,1,1.17.14,4.45,4.45,0,0,1,1.17.43,2.87,2.87,0,0,1,.94.78,1.27,1.27,0,0,1,.23.65.75.75,0,0,1-.34.68.84.84,0,0,1-.63.19,1,1,0,0,1-.59-.24,2.08,2.08,0,0,0-.82-.63,2.76,2.76,0,0,0-1.18-.23,3.19,3.19,0,0,0-.59.06,1.07,1.07,0,0,0-.54.27,1,1,0,0,0,0,1.31,2,2,0,0,0,.73.4l1,.3c.36.09.73.21,1.1.34a4.33,4.33,0,0,1,1,.52,2.43,2.43,0,0,1,.75.84,2.63,2.63,0,0,1,.29,1.3,2.4,2.4,0,0,1-.54,1.57,3.42,3.42,0,0,1-1.35,1,4.35,4.35,0,0,1-1.66.33,6.36,6.36,0,0,1-2.12-.37A3.6,3.6,0,0,1,85.76,44.13Z"/><path class="cls-9" d="M96.25,45.57a2.16,2.16,0,0,1-.15.78,2.83,2.83,0,0,1-.42.71,2.17,2.17,0,0,1-.55.51,1,1,0,0,1-.57.19.56.56,0,0,1-.33-.1.33.33,0,0,1-.14-.29c0-.2.07-.31.21-.34a2.55,2.55,0,0,0,.44-.15,1,1,0,0,0,.38-.39,1,1,0,0,0,.14-.51.48.48,0,0,0-.11-.32.35.35,0,0,0-.29-.13.73.73,0,0,0-.25,0,.94.94,0,0,0-.23.1,1,1,0,0,1-.17-.19.45.45,0,0,1,0-.27.63.63,0,0,1,.17-.39,1.13,1.13,0,0,1,.39-.27,1.1,1.1,0,0,1,.47-.1,1,1,0,0,1,.76.3A1.1,1.1,0,0,1,96.25,45.57Z"/><path class="cls-9" d="M110.74,36.42a.57.57,0,0,1,.39.16.59.59,0,0,1,.15.4v8.1a.57.57,0,0,1-.16.38.52.52,0,0,1-.38.16.51.51,0,0,1-.4-.16.59.59,0,0,1-.14-.38V42.94l.3-.15a2.23,2.23,0,0,1-.27,1,3.87,3.87,0,0,1-.77,1,3.71,3.71,0,0,1-1.14.73,3.58,3.58,0,0,1-1.43.28,3.86,3.86,0,0,1-2.17-.63,4.24,4.24,0,0,1-1.51-1.73,5.82,5.82,0,0,1,0-4.94,4.41,4.41,0,0,1,1.52-1.68,3.85,3.85,0,0,1,2.14-.61,3.89,3.89,0,0,1,1.45.27,3.84,3.84,0,0,1,1.18.73,3.62,3.62,0,0,1,.79,1.08,2.9,2.9,0,0,1,.29,1.25l-.38-.27V37a.63.63,0,0,1,.14-.4A.54.54,0,0,1,110.74,36.42ZM107,44.79a3,3,0,0,0,1.7-.49,3.48,3.48,0,0,0,1.16-1.37,4.43,4.43,0,0,0,.42-2,4.22,4.22,0,0,0-.42-1.91,3.56,3.56,0,0,0-1.16-1.35,2.94,2.94,0,0,0-1.7-.51,3.06,3.06,0,0,0-1.68.49A3.36,3.36,0,0,0,104.14,39a4.37,4.37,0,0,0-.42,1.95,4.57,4.57,0,0,0,.41,2,3.4,3.4,0,0,0,1.16,1.37A3,3,0,0,0,107,44.79Z"/><path class="cls-9" d="M120.78,36.26a.53.53,0,0,1,.38.16.52.52,0,0,1,.16.38v7.94a4.92,4.92,0,0,1-.58,2.46,3.82,3.82,0,0,1-1.55,1.51,4.68,4.68,0,0,1-2.21.51,5.84,5.84,0,0,1-1.43-.17,3.45,3.45,0,0,1-1.07-.44.83.83,0,0,1-.33-.31.39.39,0,0,1,0-.38.58.58,0,0,1,.28-.33.48.48,0,0,1,.39,0c.2.11.5.24.88.4a3.61,3.61,0,0,0,1.32.23,3.5,3.5,0,0,0,1.72-.41,2.83,2.83,0,0,0,1.12-1.2,4.12,4.12,0,0,0,.4-1.86v-1.3l.12.43a3,3,0,0,1-.76,1,3.64,3.64,0,0,1-1.14.68,3.8,3.8,0,0,1-1.35.24,3.4,3.4,0,0,1-1.8-.44,2.69,2.69,0,0,1-1-1.21,4.48,4.48,0,0,1-.34-1.82V36.8a.59.59,0,0,1,.14-.38.54.54,0,0,1,.4-.16.57.57,0,0,1,.39.16.55.55,0,0,1,.15.38v5.37a3,3,0,0,0,.55,1.94,2.14,2.14,0,0,0,1.79.68,2.79,2.79,0,0,0,1.42-.37,3.09,3.09,0,0,0,1.06-1,2.2,2.2,0,0,0,.42-1.28V36.8a.55.55,0,0,1,.15-.38A.53.53,0,0,1,120.78,36.26Z"/><path class="cls-9" d="M130.82,36.48a.5.5,0,0,1,.39.16.54.54,0,0,1,.15.38v5.07a3.53,3.53,0,0,1-1,2.72,3.83,3.83,0,0,1-2.72.94,3.74,3.74,0,0,1-2.69-.94,3.53,3.53,0,0,1-1-2.72V37a.54.54,0,0,1,.15-.38.5.5,0,0,1,.39-.16.49.49,0,0,1,.38.16A.51.51,0,0,1,125,37v5.07a2.39,2.39,0,0,0,2.61,2.65,2.68,2.68,0,0,0,1.94-.68,2.59,2.59,0,0,0,.7-2V37a.54.54,0,0,1,.15-.38A.48.48,0,0,1,130.82,36.48Z"/><path class="cls-9" d="M141.51,32.3a.53.53,0,0,1,.39.15.56.56,0,0,1,.15.39V45.08a.55.55,0,0,1-.54.54.51.51,0,0,1-.4-.16.59.59,0,0,1-.14-.38V42.94l.31-.25a2.41,2.41,0,0,1-.27,1.05,3.52,3.52,0,0,1-.77,1,3.94,3.94,0,0,1-1.15.75,3.42,3.42,0,0,1-1.43.29,3.84,3.84,0,0,1-2.15-.63A4.42,4.42,0,0,1,134,43.46a5.68,5.68,0,0,1,0-4.92,4.26,4.26,0,0,1,1.51-1.71,3.78,3.78,0,0,1,2.14-.62,3.7,3.7,0,0,1,1.42.27,3.84,3.84,0,0,1,1.18.73,3.69,3.69,0,0,1,.81,1.08,2.77,2.77,0,0,1,.3,1.25l-.38-.27V32.84a.59.59,0,0,1,.14-.38A.54.54,0,0,1,141.51,32.3Zm-3.74,12.49a3,3,0,0,0,1.69-.49A3.4,3.4,0,0,0,140.62,43a4.71,4.71,0,0,0,0-3.89,3.4,3.4,0,0,0-1.16-1.35,3.11,3.11,0,0,0-3.38,0,3.51,3.51,0,0,0-1.17,1.35,4.35,4.35,0,0,0-.42,1.94,4.41,4.41,0,0,0,.42,1.94,3.54,3.54,0,0,0,1.17,1.36A3,3,0,0,0,137.77,44.79Z"/><path class="cls-9" d="M152.26,36.42a.57.57,0,0,1,.39.16.59.59,0,0,1,.15.4v8.1a.57.57,0,0,1-.16.38.52.52,0,0,1-.38.16.51.51,0,0,1-.4-.16.59.59,0,0,1-.14-.38V42.94l.3-.15a2.23,2.23,0,0,1-.27,1,3.66,3.66,0,0,1-.77,1,3.71,3.71,0,0,1-1.14.73,3.58,3.58,0,0,1-1.43.28,3.86,3.86,0,0,1-2.17-.63,4.31,4.31,0,0,1-1.51-1.73,5.82,5.82,0,0,1,0-4.94,4.41,4.41,0,0,1,1.52-1.68,3.85,3.85,0,0,1,2.14-.61,3.89,3.89,0,0,1,1.45.27,3.84,3.84,0,0,1,1.18.73,3.62,3.62,0,0,1,.79,1.08,2.9,2.9,0,0,1,.29,1.25l-.38-.27V37a.63.63,0,0,1,.14-.4A.54.54,0,0,1,152.26,36.42Zm-3.74,8.37a3,3,0,0,0,1.69-.49,3.4,3.4,0,0,0,1.16-1.37,4.43,4.43,0,0,0,.42-2,4.22,4.22,0,0,0-.42-1.91,3.47,3.47,0,0,0-1.16-1.35,2.93,2.93,0,0,0-1.69-.51,3.07,3.07,0,0,0-1.69.49A3.36,3.36,0,0,0,145.66,39a4.37,4.37,0,0,0-.42,1.95,4.57,4.57,0,0,0,.41,2,3.4,3.4,0,0,0,1.16,1.37A3,3,0,0,0,148.52,44.79Z"/><path class="cls-9" d="M159.8,36.21a3.45,3.45,0,0,1,1.9.47,2.69,2.69,0,0,1,1,1.3,5,5,0,0,1,.32,1.81v5.29a.57.57,0,0,1-.16.38.52.52,0,0,1-.38.16.51.51,0,0,1-.4-.16.59.59,0,0,1-.14-.38V39.84a3.43,3.43,0,0,0-.24-1.31,2,2,0,0,0-.76-1,2.37,2.37,0,0,0-1.4-.37,3,3,0,0,0-1.46.37,3.18,3.18,0,0,0-1.13,1,2.21,2.21,0,0,0-.43,1.31v5.24a.52.52,0,0,1-.16.38.51.51,0,0,1-.38.16.47.47,0,0,1-.39-.16.55.55,0,0,1-.15-.38V37a.54.54,0,0,1,.15-.38.51.51,0,0,1,.39-.16.5.5,0,0,1,.39.16.54.54,0,0,1,.15.38v1.51l-.41.65a2.19,2.19,0,0,1,.37-1.11,3.8,3.8,0,0,1,.85-1,4.08,4.08,0,0,1,1.16-.67A3.68,3.68,0,0,1,159.8,36.21Z"/><path class="cls-9" d="M178.25,36.42a.57.57,0,0,1,.39.16.59.59,0,0,1,.15.4v8.1a.57.57,0,0,1-.16.38.52.52,0,0,1-.38.16.51.51,0,0,1-.4-.16.59.59,0,0,1-.14-.38V42.94l.3-.15a2.13,2.13,0,0,1-.28,1,3.61,3.61,0,0,1-.76,1,3.71,3.71,0,0,1-1.14.73,3.58,3.58,0,0,1-1.43.28,3.86,3.86,0,0,1-2.17-.63,4.24,4.24,0,0,1-1.51-1.73,5.82,5.82,0,0,1,0-4.94,4.41,4.41,0,0,1,1.52-1.68,3.85,3.85,0,0,1,2.14-.61,3.89,3.89,0,0,1,1.45.27,3.84,3.84,0,0,1,1.18.73,3.62,3.62,0,0,1,.79,1.08,2.9,2.9,0,0,1,.29,1.25l-.38-.27V37a.63.63,0,0,1,.14-.4A.54.54,0,0,1,178.25,36.42Zm-3.75,8.37a3,3,0,0,0,1.7-.49,3.48,3.48,0,0,0,1.16-1.37,4.43,4.43,0,0,0,.42-2,4.22,4.22,0,0,0-.42-1.91,3.56,3.56,0,0,0-1.16-1.35,2.94,2.94,0,0,0-1.7-.51,3.06,3.06,0,0,0-1.68.49A3.36,3.36,0,0,0,171.65,39a4.37,4.37,0,0,0-.42,1.95,4.57,4.57,0,0,0,.41,2,3.4,3.4,0,0,0,1.16,1.37A3,3,0,0,0,174.5,44.79Z"/><path class="cls-9" d="M194,36.39a.53.53,0,0,1,.39.16.57.57,0,0,1,.15.4V48.68a.55.55,0,0,1-.16.38.52.52,0,0,1-.38.16.51.51,0,0,1-.4-.16.57.57,0,0,1-.14-.38V42.94l.3-.25a2.41,2.41,0,0,1-.27,1.05,3.48,3.48,0,0,1-.76,1,3.94,3.94,0,0,1-1.15.75,3.42,3.42,0,0,1-1.43.29,3.87,3.87,0,0,1-2.16-.63,4.51,4.51,0,0,1-1.52-1.71,5.78,5.78,0,0,1,0-4.92A4.36,4.36,0,0,1,188,36.83a3.78,3.78,0,0,1,2.14-.62,3.74,3.74,0,0,1,1.42.27,4,4,0,0,1,1.18.73,3.69,3.69,0,0,1,.81,1.08,2.77,2.77,0,0,1,.3,1.25l-.38-.27V37a.61.61,0,0,1,.14-.4A.51.51,0,0,1,194,36.39Zm-3.75,8.4a3,3,0,0,0,1.7-.49A3.48,3.48,0,0,0,193.11,43a4.71,4.71,0,0,0,0-3.89A3.48,3.48,0,0,0,192,37.71a3.11,3.11,0,0,0-3.38,0,3.35,3.35,0,0,0-1.17,1.35A4.35,4.35,0,0,0,187,41a4.41,4.41,0,0,0,.42,1.94,3.38,3.38,0,0,0,1.17,1.36A3,3,0,0,0,190.25,44.79Z"/><path class="cls-9" d="M204.05,36.48a.5.5,0,0,1,.39.16.54.54,0,0,1,.15.38v5.07a3.53,3.53,0,0,1-1,2.72,3.83,3.83,0,0,1-2.72.94,3.74,3.74,0,0,1-2.69-.94,3.53,3.53,0,0,1-1-2.72V37a.54.54,0,0,1,.15-.38.5.5,0,0,1,.39-.16.53.53,0,0,1,.39.16.54.54,0,0,1,.15.38v5.07a2.39,2.39,0,0,0,2.61,2.65,2.68,2.68,0,0,0,1.94-.68,2.59,2.59,0,0,0,.7-2V37a.54.54,0,0,1,.15-.38A.48.48,0,0,1,204.05,36.48Z"/><path class="cls-9" d="M211.36,45.8a5,5,0,0,1-2.45-.59,4.27,4.27,0,0,1-1.66-1.66,5.05,5.05,0,0,1-.59-2.48,5.3,5.3,0,0,1,.6-2.61,4.44,4.44,0,0,1,1.57-1.67,3.85,3.85,0,0,1,2-.58,4.28,4.28,0,0,1,1.54.28,3.76,3.76,0,0,1,1.32.82,4.24,4.24,0,0,1,.94,1.35,4.66,4.66,0,0,1,.38,1.83.52.52,0,0,1-.16.37.55.55,0,0,1-.38.15h-7.22l-.22-1h7.1l-.24.22V39.9a2.64,2.64,0,0,0-.56-1.44,2.94,2.94,0,0,0-1.12-.9,3.16,3.16,0,0,0-1.38-.31,3,3,0,0,0-1.11.22,2.91,2.91,0,0,0-1,.67,3.47,3.47,0,0,0-.75,1.17A4.56,4.56,0,0,0,207.7,41a4.24,4.24,0,0,0,.44,1.92,3.28,3.28,0,0,0,1.24,1.37,3.59,3.59,0,0,0,2,.5,3.33,3.33,0,0,0,1.12-.18,3.59,3.59,0,0,0,.89-.47,3.41,3.41,0,0,0,.63-.63.68.68,0,0,1,.38-.16.45.45,0,0,1,.34.15.44.44,0,0,1,.13.32.51.51,0,0,1-.18.38,4.8,4.8,0,0,1-1.4,1.12A3.85,3.85,0,0,1,211.36,45.8Z"/><path class="cls-9" d="M226.28,45.8a5,5,0,0,1-2.45-.59,4.18,4.18,0,0,1-1.65-1.66,5,5,0,0,1-.6-2.48,5.3,5.3,0,0,1,.6-2.61,4.52,4.52,0,0,1,1.57-1.67,3.85,3.85,0,0,1,2-.58,4.28,4.28,0,0,1,1.54.28,3.76,3.76,0,0,1,1.32.82,4.24,4.24,0,0,1,.94,1.35,4.49,4.49,0,0,1,.38,1.83.52.52,0,0,1-.16.37.55.55,0,0,1-.38.15h-7.22L222,40h7.1l-.24.22V39.9a2.71,2.71,0,0,0-.55-1.44,3.05,3.05,0,0,0-1.13-.9,3.16,3.16,0,0,0-1.38-.31,2.92,2.92,0,0,0-1.1.22,3,3,0,0,0-1,.67,3.63,3.63,0,0,0-.75,1.17,4.56,4.56,0,0,0-.29,1.69,4.24,4.24,0,0,0,.44,1.92,3.35,3.35,0,0,0,1.24,1.37,3.59,3.59,0,0,0,2,.5,3.33,3.33,0,0,0,1.12-.18,3.59,3.59,0,0,0,.89-.47,3.48,3.48,0,0,0,.64-.63.63.63,0,0,1,.37-.16.43.43,0,0,1,.34.15.44.44,0,0,1,.13.32.51.51,0,0,1-.18.38,4.8,4.8,0,0,1-1.4,1.12A3.85,3.85,0,0,1,226.28,45.8Z"/><path class="cls-9" d="M233.21,45.08a.57.57,0,0,1-.16.38.52.52,0,0,1-.38.16.5.5,0,0,1-.39-.16.55.55,0,0,1-.15-.38V32.84a.52.52,0,0,1,.16-.38.55.55,0,0,1,.38-.16.53.53,0,0,1,.38.16.52.52,0,0,1,.16.38Z"/><path class="cls-9" d="M241.76,34.82a1.46,1.46,0,0,1-.87-.2.86.86,0,0,1-.25-.7v-.34a.78.78,0,0,1,.28-.71,2,2,0,0,1,1.74,0,.86.86,0,0,1,.25.7v.34a.8.8,0,0,1-.27.71A1.55,1.55,0,0,1,241.76,34.82Zm1.1,9.7a1.12,1.12,0,0,1-.31.79,1,1,0,0,1-.78.31,1,1,0,0,1-.77-.31,1.12,1.12,0,0,1-.31-.79V37.09a1.1,1.1,0,0,1,.31-.78,1,1,0,0,1,.77-.32,1,1,0,0,1,.78.32,1.1,1.1,0,0,1,.31.78Z"/><path class="cls-9" d="M250.21,35.81a3.16,3.16,0,0,1,2,.56,2.91,2.91,0,0,1,1,1.48,7.82,7.82,0,0,1,.26,2.07v4.6a1.08,1.08,0,0,1-.31.79,1,1,0,0,1-.77.31,1.06,1.06,0,0,1-.78-.31,1.11,1.11,0,0,1-.3-.79v-4.6a3.61,3.61,0,0,0-.15-1.08,1.56,1.56,0,0,0-.55-.76,2,2,0,0,0-1.14-.29,2.38,2.38,0,0,0-1.21.29,2,2,0,0,0-.76.76,2.27,2.27,0,0,0-.26,1.08v4.6a1.08,1.08,0,0,1-.31.79,1.11,1.11,0,0,1-1.54,0,1.08,1.08,0,0,1-.31-.79V37.09a1.06,1.06,0,0,1,.31-.78,1.09,1.09,0,0,1,1.54,0,1.06,1.06,0,0,1,.31.78v.77l-.27,0a3.74,3.74,0,0,1,.47-.66,4.14,4.14,0,0,1,.72-.65,3.61,3.61,0,0,1,.93-.5A3.25,3.25,0,0,1,250.21,35.81Z"/><path class="cls-9" d="M255.61,36.17h4.26a1,1,0,0,1,.72.29.94.94,0,0,1,.29.72.88.88,0,0,1-.29.69,1,1,0,0,1-.72.28h-4.26a.94.94,0,0,1-.72-.29,1,1,0,0,1-.29-.72.94.94,0,0,1,.29-.69A1,1,0,0,1,255.61,36.17Zm1.92-2.25a1,1,0,0,1,.77.32,1.09,1.09,0,0,1,.3.78v8a.83.83,0,0,0,.09.41.62.62,0,0,0,.27.24.94.94,0,0,0,.37.07,1,1,0,0,0,.4-.08.91.91,0,0,1,.41-.08.62.62,0,0,1,.46.23,1,1,0,0,1-.34,1.48,2.35,2.35,0,0,1-1.18.32,6.62,6.62,0,0,1-.84-.06,2.29,2.29,0,0,1-.86-.31,1.83,1.83,0,0,1-.67-.75,2.91,2.91,0,0,1-.27-1.38V35a1.08,1.08,0,0,1,1.09-1.1Z"/><path class="cls-9" d="M266.83,45.8a5.23,5.23,0,0,1-2.65-.64,4.32,4.32,0,0,1-1.73-1.74,5.06,5.06,0,0,1-.6-2.48,5.42,5.42,0,0,1,.65-2.76,4.69,4.69,0,0,1,1.72-1.76,4.53,4.53,0,0,1,2.25-.61,4.16,4.16,0,0,1,1.74.38,4.79,4.79,0,0,1,1.45,1,5.13,5.13,0,0,1,1,1.53,4.67,4.67,0,0,1,.37,1.83.94.94,0,0,1-.35.7,1.11,1.11,0,0,1-.75.27h-6.88l-.54-1.8h6.61l-.4.36v-.48a1.58,1.58,0,0,0-.37-.94,2.48,2.48,0,0,0-.83-.66,2.38,2.38,0,0,0-1-.24,3.33,3.33,0,0,0-1,.15,1.86,1.86,0,0,0-.81.48,2.63,2.63,0,0,0-.54.92,4.62,4.62,0,0,0-.19,1.46,3.12,3.12,0,0,0,.4,1.64,2.73,2.73,0,0,0,1.05,1,2.77,2.77,0,0,0,1.35.35,3.9,3.9,0,0,0,1.07-.11,2.58,2.58,0,0,0,.64-.26c.16-.1.3-.19.44-.26a1.32,1.32,0,0,1,.61-.16.9.9,0,0,1,.92.9,1.12,1.12,0,0,1-.51.88,3.9,3.9,0,0,1-1.31.69A5.24,5.24,0,0,1,266.83,45.8Z"/><path class="cls-9" d="M272.14,44.13a1,1,0,0,1-.17-.65.88.88,0,0,1,.47-.69,1,1,0,0,1,.61-.15,1,1,0,0,1,.63.33,4.56,4.56,0,0,0,1.1.82,3.24,3.24,0,0,0,1.44.28,4.59,4.59,0,0,0,.59-.08,1.11,1.11,0,0,0,.57-.29.9.9,0,0,0,.24-.69.83.83,0,0,0-.26-.63,2.22,2.22,0,0,0-.72-.39c-.29-.11-.62-.21-1-.31l-1.14-.36a4.59,4.59,0,0,1-1.07-.51,2.36,2.36,0,0,1-.79-.84,2.52,2.52,0,0,1-.31-1.31,2.34,2.34,0,0,1,.51-1.53,3.3,3.3,0,0,1,1.3-1,4.17,4.17,0,0,1,1.68-.34A5.41,5.41,0,0,1,277,36a4.45,4.45,0,0,1,1.17.43,2.87,2.87,0,0,1,.94.78,1.27,1.27,0,0,1,.23.65.75.75,0,0,1-.34.68.84.84,0,0,1-.63.19,1,1,0,0,1-.59-.24,2.08,2.08,0,0,0-.82-.63,2.76,2.76,0,0,0-1.18-.23,3.19,3.19,0,0,0-.59.06,1.14,1.14,0,0,0-.55.27.87.87,0,0,0-.23.66.83.83,0,0,0,.27.65,2,2,0,0,0,.73.4l1,.3c.36.09.73.21,1.1.34a4.09,4.09,0,0,1,1,.52,2.36,2.36,0,0,1,.76.84,2.63,2.63,0,0,1,.29,1.3,2.4,2.4,0,0,1-.54,1.57,3.42,3.42,0,0,1-1.35,1,4.35,4.35,0,0,1-1.66.33,6.31,6.31,0,0,1-2.12-.37A3.6,3.6,0,0,1,272.14,44.13Z"/><path class="cls-9" d="M281.51,36.17h4.26a1,1,0,0,1,1,1,.91.91,0,0,1-.29.69,1,1,0,0,1-.72.28h-4.26a1,1,0,0,1-1-1,.94.94,0,0,1,.28-.69A1,1,0,0,1,281.51,36.17Zm1.92-2.25a1,1,0,0,1,.77.32,1.12,1.12,0,0,1,.29.78v8a.83.83,0,0,0,.1.41.62.62,0,0,0,.27.24.94.94,0,0,0,.37.07,1,1,0,0,0,.4-.08.91.91,0,0,1,.41-.08.62.62,0,0,1,.46.23.94.94,0,0,1,.21.65,1,1,0,0,1-.55.83,2.35,2.35,0,0,1-1.18.32,6.62,6.62,0,0,1-.84-.06,2.29,2.29,0,0,1-.86-.31,1.85,1.85,0,0,1-.68-.75,2.91,2.91,0,0,1-.27-1.38V35a1.09,1.09,0,0,1,1.1-1.1Z"/><path class="cls-9" d="M289.43,34.82a1.43,1.43,0,0,1-.86-.2.83.83,0,0,1-.25-.7v-.34a.78.78,0,0,1,.28-.71,2,2,0,0,1,1.73,0,.83.83,0,0,1,.25.7v.34a.8.8,0,0,1-.27.71A1.53,1.53,0,0,1,289.43,34.82Zm1.1,9.7a1.11,1.11,0,0,1-.3.79,1.06,1.06,0,0,1-.78.31,1,1,0,0,1-.77-.31,1.08,1.08,0,0,1-.31-.79V37.09a1.06,1.06,0,0,1,.31-.78,1,1,0,0,1,.77-.32,1.06,1.06,0,0,1,.78.32,1.09,1.09,0,0,1,.3.78Z"/><path class="cls-9" d="M297.88,35.81a3.19,3.19,0,0,1,2,.56,2.83,2.83,0,0,1,.95,1.48,7.42,7.42,0,0,1,.26,2.07v4.6a1.11,1.11,0,0,1-.3.79,1,1,0,0,1-.78.31,1,1,0,0,1-.77-.31,1.12,1.12,0,0,1-.31-.79v-4.6a3.61,3.61,0,0,0-.15-1.08,1.45,1.45,0,0,0-.55-.76,1.9,1.9,0,0,0-1.13-.29,2.42,2.42,0,0,0-1.22.29,2,2,0,0,0-.75.76,2.16,2.16,0,0,0-.26,1.08v4.6a1.12,1.12,0,0,1-.31.79,1,1,0,0,1-.77.31,1,1,0,0,1-.78-.31,1.11,1.11,0,0,1-.3-.79V37.09a1.09,1.09,0,0,1,.3-.78,1,1,0,0,1,.78-.32,1,1,0,0,1,.77.32,1.1,1.1,0,0,1,.31.78v.77l-.27,0a3.63,3.63,0,0,1,.46-.66,5,5,0,0,1,.72-.65,3.67,3.67,0,0,1,.94-.5A3.23,3.23,0,0,1,297.88,35.81Z"/><path class="cls-9" d="M312.63,40.82a5.05,5.05,0,0,1-.66,2.6,4.69,4.69,0,0,1-1.76,1.75,5.18,5.18,0,0,1-4.95,0,4.72,4.72,0,0,1-1.77-1.75,5.55,5.55,0,0,1,0-5.21,4.91,4.91,0,0,1,8.48,0A5.06,5.06,0,0,1,312.63,40.82Zm-2.16,0a3.23,3.23,0,0,0-.37-1.6,2.78,2.78,0,0,0-1-1,2.68,2.68,0,0,0-2.75,0,2.64,2.64,0,0,0-1,1,3.23,3.23,0,0,0-.37,1.6,3.17,3.17,0,0,0,.37,1.57,2.64,2.64,0,0,0,1,1,2.68,2.68,0,0,0,2.75,0,2.78,2.78,0,0,0,1-1A3.17,3.17,0,0,0,310.47,40.82Z"/><path class="cls-9" d="M327.26,32.3a1,1,0,0,1,.78.31,1.08,1.08,0,0,1,.3.79V44.52a1.11,1.11,0,0,1-.3.79,1,1,0,0,1-.78.31,1,1,0,0,1-.77-.31,1.08,1.08,0,0,1-.31-.79v-.88l.4.16a1,1,0,0,1-.25.57,3.66,3.66,0,0,1-.69.66,4.2,4.2,0,0,1-1,.55,3.53,3.53,0,0,1-1.27.22,4.07,4.07,0,0,1-2.25-.64,4.47,4.47,0,0,1-1.6-1.76,5.51,5.51,0,0,1-.58-2.58,5.58,5.58,0,0,1,.58-2.61,4.57,4.57,0,0,1,1.58-1.76,3.93,3.93,0,0,1,2.2-.64,4.36,4.36,0,0,1,1.42.23,4.41,4.41,0,0,1,1.12.6,3.21,3.21,0,0,1,.74.73,1.16,1.16,0,0,1,.26.62l-.65.23V33.4a1.06,1.06,0,0,1,.31-.78A1,1,0,0,1,327.26,32.3Zm-3.63,11.52a2.38,2.38,0,0,0,1.38-.4,2.59,2.59,0,0,0,.93-1.08,3.43,3.43,0,0,0,.33-1.52,3.5,3.5,0,0,0-.33-1.55,2.59,2.59,0,0,0-.93-1.08,2.56,2.56,0,0,0-2.75,0,2.59,2.59,0,0,0-.93,1.08,3.5,3.5,0,0,0-.33,1.55,3.43,3.43,0,0,0,.33,1.52,2.59,2.59,0,0,0,.93,1.08A2.37,2.37,0,0,0,323.63,43.82Z"/><path class="cls-9" d="M335.07,45.8a5.23,5.23,0,0,1-2.65-.64,4.32,4.32,0,0,1-1.73-1.74,5.06,5.06,0,0,1-.6-2.48,5.42,5.42,0,0,1,.66-2.76,4.67,4.67,0,0,1,1.71-1.76,4.53,4.53,0,0,1,2.25-.61,4.09,4.09,0,0,1,1.74.38,4.79,4.79,0,0,1,1.45,1,5.13,5.13,0,0,1,1,1.53,4.5,4.5,0,0,1,.37,1.83.93.93,0,0,1-.34.7,1.16,1.16,0,0,1-.76.27h-6.88l-.54-1.8h6.61l-.4.36v-.48a1.63,1.63,0,0,0-.36-.94,2.69,2.69,0,0,0-.83-.66,2.39,2.39,0,0,0-1.06-.24,3.27,3.27,0,0,0-1,.15,1.76,1.76,0,0,0-.81.48,2.36,2.36,0,0,0-.54.92,4.32,4.32,0,0,0-.2,1.46,3.12,3.12,0,0,0,.4,1.64,2.73,2.73,0,0,0,1.05,1,2.81,2.81,0,0,0,1.36.35,3.87,3.87,0,0,0,1.06-.11,2.42,2.42,0,0,0,.64-.26l.44-.26a1.32,1.32,0,0,1,.61-.16.9.9,0,0,1,.92.9,1.12,1.12,0,0,1-.51.88,3.9,3.9,0,0,1-1.31.69A5.19,5.19,0,0,1,335.07,45.8Z"/><path class="cls-9" d="M343.2,44.52a1.09,1.09,0,0,1-.32.79,1.06,1.06,0,0,1-.78.31,1,1,0,0,1-.76-.31,1.11,1.11,0,0,1-.3-.79V33.4a1.06,1.06,0,0,1,.31-.78,1.07,1.07,0,0,1,.79-.32,1,1,0,0,1,.76.32,1.09,1.09,0,0,1,.3.78Z"/><path class="cls-9" d="M349.52,35.81a3.93,3.93,0,0,1,2.47.83,3.29,3.29,0,0,1,.72.73A1.09,1.09,0,0,1,353,38l-.46.23V36.91a1.09,1.09,0,0,1,.3-.78,1.11,1.11,0,0,1,1.55,0,1.06,1.06,0,0,1,.3.79v8a4.24,4.24,0,0,1-.67,2.51,3.81,3.81,0,0,1-1.77,1.37,6.59,6.59,0,0,1-2.36.42,6.45,6.45,0,0,1-.94-.09c-.38-.06-.75-.13-1.1-.21a8.13,8.13,0,0,1-.79-.24,1.46,1.46,0,0,1-.74-.58.9.9,0,0,1-.09-.75,1.12,1.12,0,0,1,.53-.71.89.89,0,0,1,.75,0l.6.22a8.09,8.09,0,0,0,.91.3,3.34,3.34,0,0,0,.87.13,3.08,3.08,0,0,0,2-.54,1.85,1.85,0,0,0,.65-1.49V43.64l.21.16a1,1,0,0,1-.24.57,3.5,3.5,0,0,1-.67.66,4.12,4.12,0,0,1-1,.55,3.3,3.3,0,0,1-1.22.22,4.27,4.27,0,0,1-2.31-.64,4.52,4.52,0,0,1-1.62-1.76,5.51,5.51,0,0,1-.59-2.58,5.58,5.58,0,0,1,.59-2.61,4.64,4.64,0,0,1,1.61-1.76A4.07,4.07,0,0,1,349.52,35.81Zm.34,2a2.51,2.51,0,0,0-1.42.4,2.65,2.65,0,0,0-1,1.08,3.37,3.37,0,0,0-.34,1.55,3.3,3.3,0,0,0,.34,1.52,2.65,2.65,0,0,0,1,1.08,2.51,2.51,0,0,0,1.42.4,2.56,2.56,0,0,0,1.44-.4,2.63,2.63,0,0,0,.95-1.08,3.3,3.3,0,0,0,.35-1.52,3.37,3.37,0,0,0-.35-1.55,2.63,2.63,0,0,0-.95-1.08A2.56,2.56,0,0,0,349.86,37.79Z"/><path class="cls-9" d="M364.77,35.81a1,1,0,0,1,.78.31,1.07,1.07,0,0,1,.31.79v7.61a1.12,1.12,0,0,1-.31.79,1.12,1.12,0,0,1-1.55,0,1.12,1.12,0,0,1-.31-.79v-.88l.4.16a1,1,0,0,1-.25.57,3.66,3.66,0,0,1-.69.66,4.2,4.2,0,0,1-1,.55,3.53,3.53,0,0,1-1.27.22,4.07,4.07,0,0,1-2.25-.64A4.45,4.45,0,0,1,357,43.4a5.51,5.51,0,0,1-.59-2.58,5.58,5.58,0,0,1,.59-2.61,4.55,4.55,0,0,1,1.57-1.76,3.93,3.93,0,0,1,2.2-.64,4.31,4.31,0,0,1,1.42.23,4.25,4.25,0,0,1,1.12.6,3.21,3.21,0,0,1,.74.73,1.09,1.09,0,0,1,.26.62l-.65.23V36.91a1.1,1.1,0,0,1,.31-.78A1,1,0,0,1,364.77,35.81Zm-3.63,8a2.36,2.36,0,0,0,1.38-.4,2.59,2.59,0,0,0,.93-1.08,3.43,3.43,0,0,0,.33-1.52,3.5,3.5,0,0,0-.33-1.55,2.59,2.59,0,0,0-.93-1.08,2.56,2.56,0,0,0-2.75,0,2.74,2.74,0,0,0-.93,1.08,3.5,3.5,0,0,0-.33,1.55,3.43,3.43,0,0,0,.33,1.52,2.74,2.74,0,0,0,.93,1.08A2.37,2.37,0,0,0,361.14,43.82Z"/><path class="cls-9" d="M376,32.3a1,1,0,0,1,.77.31,1.09,1.09,0,0,1,.31.79V44.52a1.12,1.12,0,0,1-.31.79,1,1,0,0,1-.77.31,1,1,0,0,1-.78-.31,1.11,1.11,0,0,1-.3-.79v-.88l.39.16a1,1,0,0,1-.25.57,3.91,3.91,0,0,1-.68.66,4.48,4.48,0,0,1-1,.55,3.49,3.49,0,0,1-1.27.22,4.07,4.07,0,0,1-2.25-.64,4.45,4.45,0,0,1-1.59-1.76,5.51,5.51,0,0,1-.59-2.58,5.58,5.58,0,0,1,.59-2.61,4.55,4.55,0,0,1,1.57-1.76,3.93,3.93,0,0,1,2.2-.64,4.31,4.31,0,0,1,1.42.23,4.25,4.25,0,0,1,1.12.6,3.21,3.21,0,0,1,.74.73,1.09,1.09,0,0,1,.26.62l-.64.23V33.4a1.09,1.09,0,0,1,.3-.78A1,1,0,0,1,376,32.3Zm-3.64,11.52a2.41,2.41,0,0,0,1.39-.4,2.64,2.64,0,0,0,.92-1.08,3.43,3.43,0,0,0,.34-1.52,3.5,3.5,0,0,0-.34-1.55,2.64,2.64,0,0,0-.92-1.08,2.41,2.41,0,0,0-1.39-.4,2.37,2.37,0,0,0-1.37.4,2.74,2.74,0,0,0-.93,1.08,3.5,3.5,0,0,0-.33,1.55,3.43,3.43,0,0,0,.33,1.52,2.74,2.74,0,0,0,.93,1.08A2.37,2.37,0,0,0,372.33,43.82Z"/><path class="cls-9" d="M388.58,40.82a5.15,5.15,0,0,1-.65,2.6,4.72,4.72,0,0,1-1.77,1.75,5.18,5.18,0,0,1-5,0,4.76,4.76,0,0,1-1.76-1.75,5.47,5.47,0,0,1,0-5.21,4.8,4.8,0,0,1,4.24-2.4,4.83,4.83,0,0,1,4.24,2.4A5.16,5.16,0,0,1,388.58,40.82Zm-2.16,0a3.23,3.23,0,0,0-.37-1.6,2.64,2.64,0,0,0-1-1,2.59,2.59,0,0,0-1.37-.38,2.63,2.63,0,0,0-1.38.38,2.78,2.78,0,0,0-1,1,3.23,3.23,0,0,0-.37,1.6,3.17,3.17,0,0,0,.37,1.57,2.78,2.78,0,0,0,1,1,2.54,2.54,0,0,0,1.38.38,2.5,2.5,0,0,0,1.37-.38,2.64,2.64,0,0,0,1-1A3.17,3.17,0,0,0,386.42,40.82Z"/><path class="cls-9" d="M395,44.16a.7.7,0,0,1-.14-.42.39.39,0,0,1,.23-.33.4.4,0,0,1,.33-.11.54.54,0,0,1,.35.18,4,4,0,0,0,1.18,1,3.41,3.41,0,0,0,1.65.38,2.92,2.92,0,0,0,1-.17,2,2,0,0,0,.82-.52,1.41,1.41,0,0,0,0-1.79,2.26,2.26,0,0,0-.84-.54,8.68,8.68,0,0,0-1.09-.34c-.41-.11-.8-.23-1.19-.37a4.44,4.44,0,0,1-1-.52,2.6,2.6,0,0,1-.71-.77,2.09,2.09,0,0,1-.27-1.1,2.22,2.22,0,0,1,.42-1.33,2.8,2.8,0,0,1,1.12-.9,4,4,0,0,1,1.61-.32,5.07,5.07,0,0,1,1,.11,4.12,4.12,0,0,1,1,.39,3,3,0,0,1,.9.74.5.5,0,0,1,.16.37.49.49,0,0,1-.18.37.52.52,0,0,1-.33.1.37.37,0,0,1-.31-.14,2.92,2.92,0,0,0-1-.74,3.39,3.39,0,0,0-1.28-.25,2.88,2.88,0,0,0-1,.17,2,2,0,0,0-.76.51,1.29,1.29,0,0,0-.31.91,1.24,1.24,0,0,0,.37.84,2.44,2.44,0,0,0,.88.54,10.46,10.46,0,0,0,1.23.4,9,9,0,0,1,1.11.34,4.17,4.17,0,0,1,.94.49,2.21,2.21,0,0,1,.64.75,2.29,2.29,0,0,1,.25,1.14,2.19,2.19,0,0,1-.44,1.36,2.87,2.87,0,0,1-1.18.89,4.32,4.32,0,0,1-1.64.3,4.86,4.86,0,0,1-1.88-.38A4,4,0,0,1,395,44.16Z"/><path class="cls-9" d="M408,45.8a5,5,0,0,1-2.45-.59,4.18,4.18,0,0,1-1.65-1.66,5,5,0,0,1-.6-2.48,5.19,5.19,0,0,1,.61-2.61,4.42,4.42,0,0,1,1.56-1.67,3.86,3.86,0,0,1,2.05-.58,4.23,4.23,0,0,1,1.53.28,3.9,3.9,0,0,1,1.33.82,4.38,4.38,0,0,1,.93,1.35,4.49,4.49,0,0,1,.38,1.83.49.49,0,0,1-.16.37.55.55,0,0,1-.38.15h-7.22l-.21-1h7.09l-.24.22V39.9a2.71,2.71,0,0,0-.55-1.44,3.05,3.05,0,0,0-1.13-.9,3.15,3.15,0,0,0-1.37-.31,3.12,3.12,0,0,0-2.14.89,3.8,3.8,0,0,0-.75,1.17,4.57,4.57,0,0,0-.28,1.69,4.23,4.23,0,0,0,.43,1.92A3.35,3.35,0,0,0,406,44.29a3.59,3.59,0,0,0,2,.5,3.33,3.33,0,0,0,1.12-.18,3.59,3.59,0,0,0,.89-.47,3.48,3.48,0,0,0,.64-.63.65.65,0,0,1,.38-.16.43.43,0,0,1,.33.15.45.45,0,0,1,.14.32.52.52,0,0,1-.19.38,4.55,4.55,0,0,1-1.4,1.12A3.82,3.82,0,0,1,408,45.8Z"/><path class="cls-9" d="M418.13,36.35a4,4,0,0,1,2.17.6,4.38,4.38,0,0,1,1.5,1.66,5.11,5.11,0,0,1,.56,2.42,5.18,5.18,0,0,1-.56,2.43,4.29,4.29,0,0,1-1.51,1.67,3.88,3.88,0,0,1-2.14.62,4,4,0,0,1-1.2-.19,4.22,4.22,0,0,1-1-.52,3.94,3.94,0,0,1-.82-.76,3.62,3.62,0,0,1-.58-1l.32-.24v5.6a.54.54,0,0,1-.15.38.5.5,0,0,1-.39.16.49.49,0,0,1-.38-.16.55.55,0,0,1-.16-.38V37a.57.57,0,0,1,.15-.4.48.48,0,0,1,.39-.16.5.5,0,0,1,.39.16.57.57,0,0,1,.15.4v1.94l-.25-.14a3.09,3.09,0,0,1,.53-1,3.69,3.69,0,0,1,.82-.76,3.73,3.73,0,0,1,1-.48A4.47,4.47,0,0,1,418.13,36.35Zm-.09,1a3.06,3.06,0,0,0-1.71.48,3.29,3.29,0,0,0-1.16,1.29,4.12,4.12,0,0,0-.43,1.9,4.23,4.23,0,0,0,.43,1.91,3.31,3.31,0,0,0,1.16,1.32,3.06,3.06,0,0,0,1.71.48,3,3,0,0,0,1.68-.48,3.39,3.39,0,0,0,1.16-1.32,4.1,4.1,0,0,0,.43-1.91,4,4,0,0,0-.43-1.89,3.33,3.33,0,0,0-1.16-1.3A3,3,0,0,0,418,37.36Z"/><path class="cls-9" d="M432,36.42a.53.53,0,0,1,.39.16.59.59,0,0,1,.15.4v8.1a.52.52,0,0,1-.16.38.51.51,0,0,1-.38.16.48.48,0,0,1-.39-.16.55.55,0,0,1-.15-.38V42.94l.31-.15a2.13,2.13,0,0,1-.28,1,3.82,3.82,0,0,1-.76,1,3.89,3.89,0,0,1-1.15.73,3.51,3.51,0,0,1-1.43.28,3.91,3.91,0,0,1-2.17-.63,4.39,4.39,0,0,1-1.51-1.73,5.49,5.49,0,0,1-.55-2.46,5.33,5.33,0,0,1,.56-2.48A4.39,4.39,0,0,1,426,36.82a4,4,0,0,1,3.59-.34,3.73,3.73,0,0,1,1.18.73,3.46,3.46,0,0,1,.79,1.08,2.76,2.76,0,0,1,.29,1.25l-.38-.27V37a.59.59,0,0,1,.15-.4A.52.52,0,0,1,432,36.42Zm-3.74,8.37A2.94,2.94,0,0,0,430,44.3a3.4,3.4,0,0,0,1.16-1.37,4.3,4.3,0,0,0,.43-2,4.1,4.1,0,0,0-.43-1.91A3.47,3.47,0,0,0,430,37.72a2.88,2.88,0,0,0-1.69-.51,3.06,3.06,0,0,0-1.68.49A3.36,3.36,0,0,0,425.43,39,4.37,4.37,0,0,0,425,41a4.43,4.43,0,0,0,.42,2,3.25,3.25,0,0,0,1.16,1.37A3,3,0,0,0,428.28,44.79Z"/><path class="cls-9" d="M435.77,45.62a.51.51,0,0,1-.4-.16.54.54,0,0,1-.14-.38V37a.54.54,0,0,1,.15-.38.5.5,0,0,1,.39-.16.49.49,0,0,1,.38.16.51.51,0,0,1,.16.38v2.7l-.27.05a4,4,0,0,1,.31-1.25,4.53,4.53,0,0,1,.71-1.14,3.69,3.69,0,0,1,1.07-.85,3.07,3.07,0,0,1,1.4-.32,1.55,1.55,0,0,1,.63.13.47.47,0,0,1,.31.44.57.57,0,0,1-.15.42.48.48,0,0,1-.34.14.79.79,0,0,1-.35-.09,1.18,1.18,0,0,0-.5-.09,1.93,1.93,0,0,0-1,.3,3.3,3.3,0,0,0-.92.8,3.94,3.94,0,0,0-.66,1.12,3.47,3.47,0,0,0-.24,1.25v4.45a.57.57,0,0,1-.16.38A.52.52,0,0,1,435.77,45.62Z"/><path class="cls-9" d="M445.78,45.8a5,5,0,0,1-2.45-.59,4.18,4.18,0,0,1-1.65-1.66,5,5,0,0,1-.6-2.48,5.19,5.19,0,0,1,.61-2.61,4.42,4.42,0,0,1,1.56-1.67,3.85,3.85,0,0,1,2-.58,4.28,4.28,0,0,1,1.54.28,3.9,3.9,0,0,1,1.33.82,4.38,4.38,0,0,1,.93,1.35,4.49,4.49,0,0,1,.38,1.83.49.49,0,0,1-.16.37.55.55,0,0,1-.38.15h-7.22l-.21-1h7.09l-.24.22V39.9a2.71,2.71,0,0,0-.55-1.44,3.05,3.05,0,0,0-1.13-.9,3.16,3.16,0,0,0-1.38-.31,2.92,2.92,0,0,0-1.1.22,3,3,0,0,0-1,.67,3.8,3.8,0,0,0-.75,1.17,4.57,4.57,0,0,0-.28,1.69,4.23,4.23,0,0,0,.43,1.92,3.35,3.35,0,0,0,1.24,1.37,3.59,3.59,0,0,0,2,.5,3.33,3.33,0,0,0,1.12-.18,3.59,3.59,0,0,0,.89-.47,3.48,3.48,0,0,0,.64-.63.65.65,0,0,1,.38-.16.43.43,0,0,1,.33.15.44.44,0,0,1,.13.32.51.51,0,0,1-.18.38,4.67,4.67,0,0,1-1.4,1.12A3.85,3.85,0,0,1,445.78,45.8Z"/><path class="cls-9" d="M16.51,65.08a.57.57,0,0,1-.16.38.52.52,0,0,1-.38.16.5.5,0,0,1-.39-.16.55.55,0,0,1-.15-.38V52.84a.52.52,0,0,1,.16-.38A.55.55,0,0,1,16,52.3a.57.57,0,0,1,.39.16.55.55,0,0,1,.15.38Z"/><path class="cls-9" d="M27.81,61a5,5,0,0,1-.61,2.46,4.5,4.5,0,0,1-7.9,0A5,5,0,0,1,18.7,61a5,5,0,0,1,.6-2.46,4.57,4.57,0,0,1,1.64-1.71,4.57,4.57,0,0,1,4.63,0,4.54,4.54,0,0,1,1.63,1.71A5,5,0,0,1,27.81,61Zm-1.08,0a4.13,4.13,0,0,0-.46-1.95A3.41,3.41,0,0,0,25,57.71a3.28,3.28,0,0,0-1.79-.5,3.24,3.24,0,0,0-1.77.5,3.51,3.51,0,0,0-1.24,1.35,4.36,4.36,0,0,0,0,3.9,3.56,3.56,0,0,0,1.24,1.34,3.23,3.23,0,0,0,1.77.49A3.27,3.27,0,0,0,25,64.3,3.45,3.45,0,0,0,26.27,63,4.1,4.1,0,0,0,26.73,61Z"/><path class="cls-9" d="M29.26,64.16a.64.64,0,0,1-.14-.42.39.39,0,0,1,.23-.33.4.4,0,0,1,.33-.11.54.54,0,0,1,.35.18,3.85,3.85,0,0,0,1.18,1,3.41,3.41,0,0,0,1.65.38,3,3,0,0,0,1-.17,1.89,1.89,0,0,0,.81-.52,1.38,1.38,0,0,0,0-1.79,2.14,2.14,0,0,0-.83-.54,9.23,9.23,0,0,0-1.09-.34c-.41-.11-.81-.23-1.19-.37a4.44,4.44,0,0,1-1-.52,2.6,2.6,0,0,1-.71-.77,2.09,2.09,0,0,1-.27-1.1A2.22,2.22,0,0,1,30,57.43a2.8,2.8,0,0,1,1.12-.9,3.92,3.92,0,0,1,1.61-.32,4.89,4.89,0,0,1,1,.11,4.18,4.18,0,0,1,1,.39,3,3,0,0,1,.9.74.5.5,0,0,1,.16.37.49.49,0,0,1-.18.37.52.52,0,0,1-.33.1.4.4,0,0,1-.32-.14,2.88,2.88,0,0,0-1-.74,3.39,3.39,0,0,0-1.28-.25,2.88,2.88,0,0,0-1,.17,2.08,2.08,0,0,0-.77.51,1.33,1.33,0,0,0-.3.91,1.19,1.19,0,0,0,.37.84,2.44,2.44,0,0,0,.88.54,9.88,9.88,0,0,0,1.23.4,9.56,9.56,0,0,1,1.11.34,3.89,3.89,0,0,1,.93.49,2.13,2.13,0,0,1,.65.75A2.29,2.29,0,0,1,36,63.25a2.14,2.14,0,0,1-.45,1.36,2.77,2.77,0,0,1-1.17.89,4.35,4.35,0,0,1-1.64.3,4.86,4.86,0,0,1-1.88-.38A3.93,3.93,0,0,1,29.26,64.16Z"/><path class="cls-9" d="M47.47,56.21a3.42,3.42,0,0,1,1.9.47,2.65,2.65,0,0,1,1,1.3,5,5,0,0,1,.31,1.81v5.29a.52.52,0,0,1-.16.38.51.51,0,0,1-.38.16.47.47,0,0,1-.39-.16.55.55,0,0,1-.15-.38V59.84a3.64,3.64,0,0,0-.23-1.31,2,2,0,0,0-.77-1,2.36,2.36,0,0,0-1.39-.37,3,3,0,0,0-1.47.37,3.06,3.06,0,0,0-1.12,1,2.15,2.15,0,0,0-.44,1.31v5.24a.52.52,0,0,1-.16.38.51.51,0,0,1-.38.16.48.48,0,0,1-.39-.16.55.55,0,0,1-.15-.38V57a.55.55,0,0,1,.16-.38.49.49,0,0,1,.38-.16.5.5,0,0,1,.39.16.54.54,0,0,1,.15.38v1.51l-.41.65a2.29,2.29,0,0,1,.37-1.11,4.11,4.11,0,0,1,2-1.62A3.58,3.58,0,0,1,47.47,56.21Z"/><path class="cls-9" d="M60.17,56.48a.49.49,0,0,1,.38.16.51.51,0,0,1,.16.38v5.07a3.53,3.53,0,0,1-1,2.72,3.81,3.81,0,0,1-2.72.94,3.75,3.75,0,0,1-2.69-.94,3.53,3.53,0,0,1-1-2.72V57a.54.54,0,0,1,.15-.38.53.53,0,0,1,.39-.16.5.5,0,0,1,.39.16.54.54,0,0,1,.15.38v5.07a2.62,2.62,0,0,0,.69,2,2.66,2.66,0,0,0,1.92.68,2.71,2.71,0,0,0,2-.68,2.63,2.63,0,0,0,.7-2V57a.57.57,0,0,1,.14-.38A.51.51,0,0,1,60.17,56.48Z"/><path class="cls-9" d="M62.86,56.46h4.19a.46.46,0,0,1,.36.15.51.51,0,0,1,.15.37.45.45,0,0,1-.15.34.46.46,0,0,1-.36.15H62.86a.53.53,0,0,1-.52-.51.49.49,0,0,1,.15-.36A.53.53,0,0,1,62.86,56.46Zm1.85-2.54a.5.5,0,0,1,.39.16.55.55,0,0,1,.15.38v9a1.64,1.64,0,0,0,.14.75.72.72,0,0,0,.35.34,1.31,1.31,0,0,0,.43.08.71.71,0,0,0,.26,0,.75.75,0,0,1,.26,0,.38.38,0,0,1,.28.12.48.48,0,0,1,.12.33.49.49,0,0,1-.29.42,1.34,1.34,0,0,1-.68.17l-.49,0A1.74,1.74,0,0,1,65,65.4a1.4,1.4,0,0,1-.56-.61,2.74,2.74,0,0,1-.23-1.24V54.46a.52.52,0,0,1,.16-.38A.49.49,0,0,1,64.71,53.92Z"/><path class="cls-9" d="M69.86,65.62a.51.51,0,0,1-.4-.16.59.59,0,0,1-.14-.38V57a.54.54,0,0,1,.15-.38.5.5,0,0,1,.39-.16.49.49,0,0,1,.38.16.51.51,0,0,1,.16.38v2.7l-.27.05a4,4,0,0,1,.31-1.25,4.53,4.53,0,0,1,.71-1.14,3.6,3.6,0,0,1,1.08-.85,3,3,0,0,1,1.39-.32,1.51,1.51,0,0,1,.63.13.47.47,0,0,1,.31.44.57.57,0,0,1-.15.42.48.48,0,0,1-.34.14.83.83,0,0,1-.35-.09,1.18,1.18,0,0,0-.5-.09,1.93,1.93,0,0,0-1,.3,3.3,3.3,0,0,0-.92.8,3.94,3.94,0,0,0-.66,1.12,3.47,3.47,0,0,0-.24,1.25v4.45a.57.57,0,0,1-.16.38A.52.52,0,0,1,69.86,65.62Z"/><path class="cls-9" d="M76.69,55.05a.81.81,0,0,1-.57-.17.63.63,0,0,1-.19-.49v-.18a.61.61,0,0,1,.21-.5.9.9,0,0,1,.57-.17.78.78,0,0,1,.53.17.67.67,0,0,1,.19.5v.18a.63.63,0,0,1-.19.49A.77.77,0,0,1,76.69,55.05Zm.54,10a.55.55,0,0,1-.54.54.5.5,0,0,1-.39-.16.55.55,0,0,1-.15-.38V56.8a.55.55,0,0,1,.15-.38.53.53,0,0,1,.39-.16.53.53,0,0,1,.54.54Z"/><path class="cls-9" d="M84,65.8a5,5,0,0,1-2.44-.59,4.27,4.27,0,0,1-1.66-1.66,5,5,0,0,1-.59-2.48,5.3,5.3,0,0,1,.6-2.61,4.42,4.42,0,0,1,1.56-1.67,3.91,3.91,0,0,1,2-.58,4.28,4.28,0,0,1,1.54.28,3.86,3.86,0,0,1,1.32.82,4.41,4.41,0,0,1,.94,1.35,4.49,4.49,0,0,1,.37,1.83.49.49,0,0,1-.16.37.54.54,0,0,1-.38.15H79.94l-.22-1h7.09l-.23.22V59.9A2.72,2.72,0,0,0,86,58.46a3,3,0,0,0-1.12-.9,3.16,3.16,0,0,0-1.38-.31,3,3,0,0,0-1.11.22,3,3,0,0,0-1,.67,3.61,3.61,0,0,0-.74,1.17A4.56,4.56,0,0,0,80.35,61a4.23,4.23,0,0,0,.43,1.92A3.35,3.35,0,0,0,82,64.29a3.63,3.63,0,0,0,2,.5,3.27,3.27,0,0,0,1.11-.18,3.42,3.42,0,0,0,.89-.47,3.48,3.48,0,0,0,.64-.63.65.65,0,0,1,.38-.16.43.43,0,0,1,.33.15.45.45,0,0,1,.14.32.51.51,0,0,1-.18.38,4.72,4.72,0,0,1-1.41,1.12A3.79,3.79,0,0,1,84,65.8Z"/><path class="cls-9" d="M94.14,56.21a3.39,3.39,0,0,1,1.89.47,2.65,2.65,0,0,1,1,1.3,5,5,0,0,1,.32,1.81v5.29a.53.53,0,0,1-.17.38.49.49,0,0,1-.37.16.51.51,0,0,1-.4-.16.54.54,0,0,1-.14-.38V59.84a3.43,3.43,0,0,0-.24-1.31,2,2,0,0,0-.76-1,2.39,2.39,0,0,0-1.4-.37,3.08,3.08,0,0,0-1.47.37,3.14,3.14,0,0,0-1.12,1,2.14,2.14,0,0,0-.43,1.31v5.24a.57.57,0,0,1-.16.38.52.52,0,0,1-.38.16.51.51,0,0,1-.4-.16.59.59,0,0,1-.14-.38V57a.54.54,0,0,1,.15-.38.5.5,0,0,1,.39-.16.49.49,0,0,1,.38.16.51.51,0,0,1,.16.38v1.51l-.42.65a2.4,2.4,0,0,1,.37-1.11,3.84,3.84,0,0,1,.86-1,4,4,0,0,1,1.16-.67A3.6,3.6,0,0,1,94.14,56.21Z"/><path class="cls-9" d="M99.23,56.46h4.2a.49.49,0,0,1,.36.15.55.55,0,0,1,.14.37.48.48,0,0,1-.14.34.49.49,0,0,1-.36.15h-4.2a.46.46,0,0,1-.36-.16.44.44,0,0,1-.16-.35.46.46,0,0,1,.16-.36A.52.52,0,0,1,99.23,56.46Zm1.86-2.54a.53.53,0,0,1,.39.16.55.55,0,0,1,.15.38v9a1.65,1.65,0,0,0,.13.75.72.72,0,0,0,.35.34,1.36,1.36,0,0,0,.44.08.75.75,0,0,0,.26,0,.71.71,0,0,1,.26,0,.38.38,0,0,1,.28.12.47.47,0,0,1,.11.33.48.48,0,0,1-.28.42,1.38,1.38,0,0,1-.69.17l-.48,0a1.74,1.74,0,0,1-.67-.19,1.36,1.36,0,0,1-.57-.61,2.75,2.75,0,0,1-.22-1.24V54.46a.55.55,0,0,1,.15-.38A.5.5,0,0,1,101.09,53.92Z"/><path class="cls-9" d="M109.44,65.8a5,5,0,0,1-2.44-.59,4.27,4.27,0,0,1-1.66-1.66,5,5,0,0,1-.59-2.48,5.3,5.3,0,0,1,.6-2.61,4.42,4.42,0,0,1,1.56-1.67,3.91,3.91,0,0,1,2-.58,4.28,4.28,0,0,1,1.54.28,3.86,3.86,0,0,1,1.32.82,4.41,4.41,0,0,1,.94,1.35,4.49,4.49,0,0,1,.37,1.83.49.49,0,0,1-.16.37.54.54,0,0,1-.38.15h-7.21l-.22-1h7.09l-.23.22V59.9a2.72,2.72,0,0,0-.56-1.44,3,3,0,0,0-1.12-.9,3.16,3.16,0,0,0-1.38-.31,3,3,0,0,0-1.11.22,3,3,0,0,0-1,.67,3.61,3.61,0,0,0-.74,1.17,4.56,4.56,0,0,0-.29,1.69,4.23,4.23,0,0,0,.43,1.92,3.35,3.35,0,0,0,1.24,1.37,3.63,3.63,0,0,0,2,.5,3.29,3.29,0,0,0,2-.65,3.48,3.48,0,0,0,.64-.63.65.65,0,0,1,.38-.16.43.43,0,0,1,.33.15.45.45,0,0,1,.14.32.51.51,0,0,1-.18.38,4.72,4.72,0,0,1-1.41,1.12A3.79,3.79,0,0,1,109.44,65.8Z"/><path class="cls-9" d="M114.72,64.16a.64.64,0,0,1-.14-.42.39.39,0,0,1,.23-.33.4.4,0,0,1,.33-.11.54.54,0,0,1,.35.18,3.85,3.85,0,0,0,1.18,1,3.41,3.41,0,0,0,1.65.38,2.87,2.87,0,0,0,1-.17,1.87,1.87,0,0,0,.82-.52,1.38,1.38,0,0,0,0-1.79,2.14,2.14,0,0,0-.83-.54,9.23,9.23,0,0,0-1.09-.34c-.41-.11-.81-.23-1.19-.37a4.44,4.44,0,0,1-1-.52,2.6,2.6,0,0,1-.71-.77,2.09,2.09,0,0,1-.27-1.1,2.22,2.22,0,0,1,.42-1.33,2.8,2.8,0,0,1,1.12-.9,3.92,3.92,0,0,1,1.61-.32,4.89,4.89,0,0,1,1,.11,4.18,4.18,0,0,1,1,.39,3,3,0,0,1,.9.74.5.5,0,0,1,.16.37.49.49,0,0,1-.18.37.52.52,0,0,1-.33.1.4.4,0,0,1-.32-.14,2.88,2.88,0,0,0-1-.74,3.39,3.39,0,0,0-1.28-.25,2.88,2.88,0,0,0-1,.17,2.08,2.08,0,0,0-.77.51,1.33,1.33,0,0,0-.3.91,1.19,1.19,0,0,0,.37.84,2.44,2.44,0,0,0,.88.54,9.88,9.88,0,0,0,1.23.4,9.56,9.56,0,0,1,1.11.34,3.89,3.89,0,0,1,.93.49,2.13,2.13,0,0,1,.65.75,2.29,2.29,0,0,1,.25,1.14,2.14,2.14,0,0,1-.45,1.36,2.77,2.77,0,0,1-1.17.89,4.35,4.35,0,0,1-1.64.3,4.86,4.86,0,0,1-1.88-.38A3.93,3.93,0,0,1,114.72,64.16Z"/><path class="cls-9" d="M135.45,56.26a.53.53,0,0,1,.39.16.55.55,0,0,1,.15.38v7.94a4.92,4.92,0,0,1-.57,2.46,3.88,3.88,0,0,1-1.55,1.51,4.72,4.72,0,0,1-2.22.51,5.9,5.9,0,0,1-1.43-.17,3.55,3.55,0,0,1-1.07-.44.87.87,0,0,1-.32-.31.39.39,0,0,1,0-.38.55.55,0,0,1,.28-.33.48.48,0,0,1,.39,0,9.2,9.2,0,0,0,.88.4,3.56,3.56,0,0,0,1.31.23,3.5,3.5,0,0,0,1.72-.41,2.85,2.85,0,0,0,1.13-1.2,4.12,4.12,0,0,0,.39-1.86v-1.3l.13.43a3.05,3.05,0,0,1-.77,1,3.7,3.7,0,0,1-1.13.68,3.85,3.85,0,0,1-1.36.24,3.37,3.37,0,0,1-1.79-.44,2.58,2.58,0,0,1-1.05-1.21,4.48,4.48,0,0,1-.35-1.82V56.8a.55.55,0,0,1,.15-.38.52.52,0,0,1,.39-.16.53.53,0,0,1,.39.16.55.55,0,0,1,.15.38v5.37a3.09,3.09,0,0,0,.55,1.94,2.16,2.16,0,0,0,1.79.68,2.82,2.82,0,0,0,1.43-.37,3.18,3.18,0,0,0,1.06-1,2.26,2.26,0,0,0,.41-1.28V56.8a.55.55,0,0,1,.15-.38A.57.57,0,0,1,135.45,56.26Z"/><path class="cls-9" d="M147.82,65.8a5,5,0,0,1-2.45-.59,4.27,4.27,0,0,1-1.66-1.66,5.05,5.05,0,0,1-.59-2.48,5.3,5.3,0,0,1,.6-2.61,4.44,4.44,0,0,1,1.57-1.67,3.85,3.85,0,0,1,2-.58,4.28,4.28,0,0,1,1.54.28,3.76,3.76,0,0,1,1.32.82,4.24,4.24,0,0,1,.94,1.35,4.66,4.66,0,0,1,.38,1.83.52.52,0,0,1-.16.37A.55.55,0,0,1,151,61h-7.22l-.22-1h7.1l-.24.22V59.9a2.64,2.64,0,0,0-.56-1.44,2.94,2.94,0,0,0-1.12-.9,3.16,3.16,0,0,0-1.38-.31,3,3,0,0,0-1.11.22,2.91,2.91,0,0,0-1,.67,3.47,3.47,0,0,0-.75,1.17,4.56,4.56,0,0,0-.29,1.69,4.24,4.24,0,0,0,.44,1.92,3.28,3.28,0,0,0,1.24,1.37,3.59,3.59,0,0,0,2,.5,3.33,3.33,0,0,0,1.12-.18,3.59,3.59,0,0,0,.89-.47,3.41,3.41,0,0,0,.63-.63.68.68,0,0,1,.38-.16.45.45,0,0,1,.34.15.44.44,0,0,1,.13.32.51.51,0,0,1-.18.38,4.8,4.8,0,0,1-1.4,1.12A3.85,3.85,0,0,1,147.82,65.8Z"/><path class="cls-9" d="M154.75,65.08a.53.53,0,0,1-.17.38.49.49,0,0,1-.37.16.5.5,0,0,1-.39-.16.55.55,0,0,1-.15-.38V52.84a.52.52,0,0,1,.16-.38.55.55,0,0,1,.38-.16.53.53,0,0,1,.38.16.57.57,0,0,1,.16.38Z"/><path class="cls-9" d="M170.08,56.42a.53.53,0,0,1,.39.16.59.59,0,0,1,.15.4v8.1a.52.52,0,0,1-.16.38.51.51,0,0,1-.38.16.47.47,0,0,1-.39-.16.55.55,0,0,1-.15-.38V62.94l.31-.15a2.25,2.25,0,0,1-.28,1,3.66,3.66,0,0,1-.77,1,3.71,3.71,0,0,1-1.14.73,3.58,3.58,0,0,1-1.43.28,3.88,3.88,0,0,1-2.17-.63,4.31,4.31,0,0,1-1.51-1.73,5.77,5.77,0,0,1,0-4.94,4.31,4.31,0,0,1,1.51-1.68,4,4,0,0,1,4.77.39,3.62,3.62,0,0,1,.79,1.08,2.9,2.9,0,0,1,.29,1.25l-.38-.27V57a.59.59,0,0,1,.15-.4A.5.5,0,0,1,170.08,56.42Zm-3.74,8.37A3,3,0,0,0,168,64.3a3.4,3.4,0,0,0,1.16-1.37,4.43,4.43,0,0,0,.42-2,4.22,4.22,0,0,0-.42-1.91A3.47,3.47,0,0,0,168,57.72a2.91,2.91,0,0,0-1.69-.51,3.07,3.07,0,0,0-1.69.49A3.52,3.52,0,0,0,163.48,59a4.37,4.37,0,0,0-.42,1.95,4.43,4.43,0,0,0,.42,2,3.25,3.25,0,0,0,1.16,1.37A3,3,0,0,0,166.34,64.79Z"/><path class="cls-9" d="M177.12,56.21a3.82,3.82,0,0,1,1.48.28,4.07,4.07,0,0,1,1.19.72,3.42,3.42,0,0,1,.8.93,1.83,1.83,0,0,1,.29,1l-.29-.43V57a.59.59,0,0,1,.16-.4.53.53,0,0,1,.38-.16.53.53,0,0,1,.39.16.59.59,0,0,1,.15.4v7.8a4.63,4.63,0,0,1-.59,2.43,3.88,3.88,0,0,1-1.61,1.5,5.09,5.09,0,0,1-2.31.51,6,6,0,0,1-2.51-.57c-.34-.17-.52-.35-.57-.53a.42.42,0,0,1-.12-.31.37.37,0,0,1,.15-.26.32.32,0,0,1,.37,0c.14.07.34.15.61.26l.47.16a5.28,5.28,0,0,0,.74.19,4.14,4.14,0,0,0,.87.08,3.14,3.14,0,0,0,3.42-3.36V63.12l.2.05a3.09,3.09,0,0,1-.54,1.14,3.82,3.82,0,0,1-.88.82,4.07,4.07,0,0,1-1.08.5,4.16,4.16,0,0,1-1.15.17,4.09,4.09,0,0,1-2.24-.63,4.49,4.49,0,0,1-1.58-1.71,5.59,5.59,0,0,1,0-4.92,4.4,4.4,0,0,1,1.57-1.71A4.05,4.05,0,0,1,177.12,56.21Zm.11,1a3.23,3.23,0,0,0-1.76.5,3.39,3.39,0,0,0-1.22,1.35,4.11,4.11,0,0,0-.44,1.94,4.16,4.16,0,0,0,.44,1.94,3.42,3.42,0,0,0,1.22,1.36,3.44,3.44,0,0,0,3.52,0A3.46,3.46,0,0,0,180.22,63a4.56,4.56,0,0,0,0-3.95A3.36,3.36,0,0,0,179,57.69,3.25,3.25,0,0,0,177.23,57.21Z"/><path class="cls-9" d="M191.19,56.48a.5.5,0,0,1,.39.16.54.54,0,0,1,.15.38v5.07a3.5,3.5,0,0,1-1,2.72,4.36,4.36,0,0,1-5.41,0,3.56,3.56,0,0,1-1-2.72V57a.55.55,0,0,1,.16-.38.5.5,0,0,1,.39-.16.49.49,0,0,1,.38.16.55.55,0,0,1,.16.38v5.07A2.39,2.39,0,0,0,188,64.74a2.7,2.7,0,0,0,1.94-.68,2.59,2.59,0,0,0,.7-2V57a.54.54,0,0,1,.15-.38A.47.47,0,0,1,191.19,56.48Z"/><path class="cls-9" d="M201.88,56.42a.57.57,0,0,1,.39.16.59.59,0,0,1,.15.4v8.1a.57.57,0,0,1-.16.38.52.52,0,0,1-.38.16.51.51,0,0,1-.4-.16.59.59,0,0,1-.14-.38V62.94l.3-.15a2.13,2.13,0,0,1-.28,1,3.61,3.61,0,0,1-.76,1,3.71,3.71,0,0,1-1.14.73,3.58,3.58,0,0,1-1.43.28,3.86,3.86,0,0,1-2.17-.63,4.24,4.24,0,0,1-1.51-1.73,5.82,5.82,0,0,1,0-4.94,4.41,4.41,0,0,1,1.52-1.68,3.85,3.85,0,0,1,2.14-.61,3.89,3.89,0,0,1,1.45.27,3.84,3.84,0,0,1,1.18.73,3.62,3.62,0,0,1,.79,1.08,2.9,2.9,0,0,1,.29,1.25l-.38-.27V57a.63.63,0,0,1,.14-.4A.54.54,0,0,1,201.88,56.42Zm-3.75,8.37a3,3,0,0,0,1.7-.49A3.48,3.48,0,0,0,201,62.93a4.43,4.43,0,0,0,.42-2,4.22,4.22,0,0,0-.42-1.91,3.56,3.56,0,0,0-1.16-1.35,2.94,2.94,0,0,0-1.7-.51,3.06,3.06,0,0,0-1.68.49A3.36,3.36,0,0,0,195.28,59a4.37,4.37,0,0,0-.42,1.95,4.57,4.57,0,0,0,.41,2,3.4,3.4,0,0,0,1.16,1.37A3,3,0,0,0,198.13,64.79Z"/><path class="cls-9" d="M214.53,56.35a4,4,0,0,1,2.17.6,4.38,4.38,0,0,1,1.5,1.66,5,5,0,0,1,.56,2.42,5.06,5.06,0,0,1-.56,2.43,4.21,4.21,0,0,1-1.51,1.67,3.86,3.86,0,0,1-2.14.62,4,4,0,0,1-1.2-.19,4.15,4.15,0,0,1-1-.52,4,4,0,0,1-.83-.76,3.9,3.9,0,0,1-.58-1l.33-.24v5.6a.51.51,0,0,1-.16.38.49.49,0,0,1-.38.16.5.5,0,0,1-.39-.16.54.54,0,0,1-.15-.38V57a.61.61,0,0,1,.14-.4.51.51,0,0,1,.4-.16.49.49,0,0,1,.38.16.54.54,0,0,1,.16.4v1.94l-.25-.14a2.91,2.91,0,0,1,.53-1,3.3,3.3,0,0,1,.82-.76,3.67,3.67,0,0,1,1-.48A4.47,4.47,0,0,1,214.53,56.35Zm-.09,1a3.06,3.06,0,0,0-1.71.48,3.29,3.29,0,0,0-1.16,1.29,4.12,4.12,0,0,0-.42,1.9,4.22,4.22,0,0,0,.42,1.91,3.31,3.31,0,0,0,1.16,1.32,3.06,3.06,0,0,0,1.71.48,3,3,0,0,0,1.68-.48,3.41,3.41,0,0,0,1.17-1.32,4.23,4.23,0,0,0,.43-1.91,4.11,4.11,0,0,0-.43-1.89,3.35,3.35,0,0,0-1.17-1.3A3,3,0,0,0,214.44,57.36Z"/><path class="cls-9" d="M228.43,56.42a.53.53,0,0,1,.38.16.55.55,0,0,1,.16.4v8.1a.57.57,0,0,1-.16.38.52.52,0,0,1-.38.16.51.51,0,0,1-.4-.16.59.59,0,0,1-.14-.38V62.94l.3-.15a2.13,2.13,0,0,1-.28,1,3.61,3.61,0,0,1-.76,1,3.84,3.84,0,0,1-1.14.73,3.58,3.58,0,0,1-1.43.28,3.86,3.86,0,0,1-2.17-.63,4.24,4.24,0,0,1-1.51-1.73,5.82,5.82,0,0,1,0-4.94,4.41,4.41,0,0,1,1.52-1.68,3.85,3.85,0,0,1,2.14-.61,3.89,3.89,0,0,1,1.45.27,3.84,3.84,0,0,1,1.18.73,3.62,3.62,0,0,1,.79,1.08,2.9,2.9,0,0,1,.29,1.25l-.38-.27V57a.63.63,0,0,1,.14-.4A.54.54,0,0,1,228.43,56.42Zm-3.75,8.37a3,3,0,0,0,1.7-.49,3.48,3.48,0,0,0,1.16-1.37,4.43,4.43,0,0,0,.42-2,4.22,4.22,0,0,0-.42-1.91,3.56,3.56,0,0,0-1.16-1.35,2.94,2.94,0,0,0-1.7-.51,3.06,3.06,0,0,0-1.68.49A3.36,3.36,0,0,0,221.83,59a4.37,4.37,0,0,0-.42,1.95,4.57,4.57,0,0,0,.41,2A3.32,3.32,0,0,0,223,64.3,3,3,0,0,0,224.68,64.79Z"/><path class="cls-9" d="M232.17,65.62a.51.51,0,0,1-.4-.16.59.59,0,0,1-.14-.38V57a.54.54,0,0,1,.15-.38.5.5,0,0,1,.39-.16.51.51,0,0,1,.39.16.54.54,0,0,1,.15.38v2.7l-.27.05a4.32,4.32,0,0,1,.31-1.25,4.56,4.56,0,0,1,.72-1.14,3.56,3.56,0,0,1,1.07-.85,3,3,0,0,1,1.39-.32,1.51,1.51,0,0,1,.63.13.45.45,0,0,1,.31.44.57.57,0,0,1-.15.42.48.48,0,0,1-.34.14.83.83,0,0,1-.35-.09,1.16,1.16,0,0,0-.49-.09,1.94,1.94,0,0,0-1,.3,3.44,3.44,0,0,0-.92.8,3.94,3.94,0,0,0-.66,1.12,3.47,3.47,0,0,0-.24,1.25v4.45a.55.55,0,0,1-.54.54Z"/><path class="cls-9" d="M245.58,56.42a.53.53,0,0,1,.39.16.59.59,0,0,1,.15.4v8.1a.52.52,0,0,1-.16.38.49.49,0,0,1-.38.16.48.48,0,0,1-.39-.16.55.55,0,0,1-.15-.38V62.94l.31-.15a2.13,2.13,0,0,1-.28,1,3.61,3.61,0,0,1-.76,1,3.89,3.89,0,0,1-1.15.73,3.51,3.51,0,0,1-1.43.28,3.91,3.91,0,0,1-2.17-.63,4.39,4.39,0,0,1-1.51-1.73A5.49,5.49,0,0,1,237.5,61a5.33,5.33,0,0,1,.56-2.48,4.39,4.39,0,0,1,1.51-1.68,3.88,3.88,0,0,1,2.15-.61,3.84,3.84,0,0,1,1.44.27,3.73,3.73,0,0,1,1.18.73,3.66,3.66,0,0,1,.8,1.08,2.89,2.89,0,0,1,.28,1.25l-.38-.27V57a.59.59,0,0,1,.15-.4A.52.52,0,0,1,245.58,56.42Zm-3.74,8.37a2.94,2.94,0,0,0,1.69-.49,3.4,3.4,0,0,0,1.16-1.37,4.3,4.3,0,0,0,.43-2,4.1,4.1,0,0,0-.43-1.91,3.47,3.47,0,0,0-1.16-1.35,2.88,2.88,0,0,0-1.69-.51,3.06,3.06,0,0,0-1.68.49A3.36,3.36,0,0,0,239,59a4.37,4.37,0,0,0-.43,1.95,4.43,4.43,0,0,0,.42,2,3.25,3.25,0,0,0,1.16,1.37A3,3,0,0,0,241.84,64.79Z"/><path class="cls-9" d="M253.27,56.46h4.2a.45.45,0,0,1,.35.15A.51.51,0,0,1,258,57a.45.45,0,0,1-.15.34.45.45,0,0,1-.35.15h-4.2a.49.49,0,0,1-.37-.16.47.47,0,0,1-.15-.35.49.49,0,0,1,.15-.36A.55.55,0,0,1,253.27,56.46Zm1.85-2.54a.5.5,0,0,1,.39.16.55.55,0,0,1,.15.38v9a1.64,1.64,0,0,0,.14.75.72.72,0,0,0,.35.34,1.31,1.31,0,0,0,.43.08.67.67,0,0,0,.26,0,.77.77,0,0,1,.27,0,.36.36,0,0,1,.27.12.48.48,0,0,1,.12.33.49.49,0,0,1-.29.42,1.34,1.34,0,0,1-.68.17l-.49,0a1.75,1.75,0,0,1-.66-.19,1.36,1.36,0,0,1-.57-.61,2.74,2.74,0,0,1-.23-1.24V54.46a.57.57,0,0,1,.16-.38A.49.49,0,0,1,255.12,53.92Z"/><path class="cls-9" d="M260.27,65.62a.47.47,0,0,1-.39-.16.55.55,0,0,1-.15-.38V57a.54.54,0,0,1,.15-.38.51.51,0,0,1,.39-.16.5.5,0,0,1,.39.16.54.54,0,0,1,.15.38v2.7l-.27.05a4,4,0,0,1,.32-1.25,4.26,4.26,0,0,1,.71-1.14,3.56,3.56,0,0,1,1.07-.85,3,3,0,0,1,1.39-.32,1.51,1.51,0,0,1,.63.13.45.45,0,0,1,.31.44.57.57,0,0,1-.15.42.48.48,0,0,1-.34.14.86.86,0,0,1-.35-.09,1.13,1.13,0,0,0-.49-.09,2,2,0,0,0-1,.3,3.44,3.44,0,0,0-.92.8,4.47,4.47,0,0,0-.66,1.12,3.47,3.47,0,0,0-.24,1.25v4.45a.52.52,0,0,1-.16.38A.51.51,0,0,1,260.27,65.62Z"/><path class="cls-9" d="M273.69,56.42a.53.53,0,0,1,.38.16.59.59,0,0,1,.16.4v8.1a.53.53,0,0,1-.17.38.49.49,0,0,1-.37.16.51.51,0,0,1-.4-.16.54.54,0,0,1-.14-.38V62.94l.3-.15a2.13,2.13,0,0,1-.28,1,3.61,3.61,0,0,1-.76,1,3.89,3.89,0,0,1-1.15.73,3.51,3.51,0,0,1-1.43.28,3.91,3.91,0,0,1-2.17-.63,4.39,4.39,0,0,1-1.51-1.73A5.49,5.49,0,0,1,265.6,61a5.33,5.33,0,0,1,.56-2.48,4.39,4.39,0,0,1,1.51-1.68,3.88,3.88,0,0,1,2.15-.61,3.84,3.84,0,0,1,1.44.27,3.73,3.73,0,0,1,1.18.73,3.66,3.66,0,0,1,.8,1.08,2.89,2.89,0,0,1,.28,1.25l-.37-.27V57a.58.58,0,0,1,.14-.4A.54.54,0,0,1,273.69,56.42Zm-3.75,8.37a2.94,2.94,0,0,0,1.69-.49,3.32,3.32,0,0,0,1.16-1.37,4.3,4.3,0,0,0,.43-2,4.1,4.1,0,0,0-.43-1.91,3.39,3.39,0,0,0-1.16-1.35,2.88,2.88,0,0,0-1.69-.51,3.06,3.06,0,0,0-1.68.49A3.36,3.36,0,0,0,267.09,59a4.37,4.37,0,0,0-.42,1.95,4.42,4.42,0,0,0,.41,2,3.32,3.32,0,0,0,1.16,1.37A3,3,0,0,0,269.94,64.79Z"/><path class="cls-9" d="M281.23,56.21a3.45,3.45,0,0,1,1.9.47,2.69,2.69,0,0,1,1,1.3,5,5,0,0,1,.32,1.81v5.29a.53.53,0,0,1-.17.38.49.49,0,0,1-.37.16.51.51,0,0,1-.4-.16.54.54,0,0,1-.14-.38V59.84a3.43,3.43,0,0,0-.24-1.31,2,2,0,0,0-.76-1,2.39,2.39,0,0,0-1.4-.37,3.08,3.08,0,0,0-1.47.37,3.14,3.14,0,0,0-1.12,1,2.14,2.14,0,0,0-.43,1.31v5.24a.57.57,0,0,1-.16.38.52.52,0,0,1-.38.16.51.51,0,0,1-.4-.16.59.59,0,0,1-.14-.38V57a.54.54,0,0,1,.15-.38.5.5,0,0,1,.39-.16.49.49,0,0,1,.38.16A.51.51,0,0,1,278,57v1.51l-.42.65a2.4,2.4,0,0,1,.37-1.11,4.05,4.05,0,0,1,.86-1,4,4,0,0,1,1.16-.67A3.6,3.6,0,0,1,281.23,56.21Z"/><path class="cls-9" d="M286.53,64.16a.69.69,0,0,1-.13-.42.38.38,0,0,1,.22-.33.42.42,0,0,1,.33-.11.57.57,0,0,1,.36.18,3.82,3.82,0,0,0,1.17,1,3.46,3.46,0,0,0,1.65.38,2.88,2.88,0,0,0,1-.17,2,2,0,0,0,.82-.52,1.41,1.41,0,0,0,0-1.79,2.26,2.26,0,0,0-.84-.54,8.19,8.19,0,0,0-1.09-.34c-.4-.11-.8-.23-1.18-.37a4.07,4.07,0,0,1-1-.52,2.48,2.48,0,0,1-.71-.77,2.09,2.09,0,0,1-.27-1.1,2.28,2.28,0,0,1,.41-1.33,2.83,2.83,0,0,1,1.13-.9,3.92,3.92,0,0,1,1.61-.32,5,5,0,0,1,1,.11,4,4,0,0,1,1,.39,3.19,3.19,0,0,1,.91.74.54.54,0,0,1,.16.37.49.49,0,0,1-.18.37.57.57,0,0,1-.34.1.38.38,0,0,1-.31-.14,2.92,2.92,0,0,0-1-.74,3.34,3.34,0,0,0-1.27-.25,2.94,2.94,0,0,0-1,.17,2,2,0,0,0-.76.51,1.34,1.34,0,0,0-.31.91,1.28,1.28,0,0,0,.37.84,2.53,2.53,0,0,0,.88.54,10.06,10.06,0,0,0,1.24.4,9.39,9.39,0,0,1,1.1.34,4,4,0,0,1,.94.49,2.24,2.24,0,0,1,.65.75,2.41,2.41,0,0,1,.24,1.14,2.19,2.19,0,0,1-.44,1.36,2.8,2.8,0,0,1-1.18.89,4.32,4.32,0,0,1-1.64.3,4.93,4.93,0,0,1-1.88-.38A4.06,4.06,0,0,1,286.53,64.16Z"/><path class="cls-9" d="M299.71,56.35a4,4,0,0,1,2.17.6,4.38,4.38,0,0,1,1.5,1.66,5,5,0,0,1,.56,2.42,5.06,5.06,0,0,1-.56,2.43,4.21,4.21,0,0,1-1.51,1.67,3.88,3.88,0,0,1-2.14.62,4,4,0,0,1-3.06-1.47,3.9,3.9,0,0,1-.58-1l.33-.24v5.6a.51.51,0,0,1-.16.38.49.49,0,0,1-.38.16.5.5,0,0,1-.39-.16.54.54,0,0,1-.15-.38V57a.61.61,0,0,1,.14-.4.51.51,0,0,1,.4-.16.49.49,0,0,1,.38.16.54.54,0,0,1,.16.4v1.94l-.25-.14a2.91,2.91,0,0,1,.53-1,3.3,3.3,0,0,1,.82-.76,3.67,3.67,0,0,1,1-.48A4.47,4.47,0,0,1,299.71,56.35Zm-.09,1a3.06,3.06,0,0,0-1.71.48,3.29,3.29,0,0,0-1.16,1.29,4.12,4.12,0,0,0-.42,1.9,4.22,4.22,0,0,0,.42,1.91,3.31,3.31,0,0,0,1.16,1.32,3.06,3.06,0,0,0,1.71.48,3,3,0,0,0,1.68-.48,3.41,3.41,0,0,0,1.17-1.32A4.23,4.23,0,0,0,302.9,61a4.11,4.11,0,0,0-.43-1.89,3.35,3.35,0,0,0-1.17-1.3A3,3,0,0,0,299.62,57.36Z"/><path class="cls-9" d="M314.63,61a5,5,0,0,1-.6,2.46,4.5,4.5,0,0,1-7.9,0,5,5,0,0,1-.61-2.46,5,5,0,0,1,.61-2.46,4.57,4.57,0,0,1,1.64-1.71,4.57,4.57,0,0,1,4.63,0A4.54,4.54,0,0,1,314,58.55,5,5,0,0,1,314.63,61Zm-1.08,0a4.12,4.12,0,0,0-.45-1.95,3.49,3.49,0,0,0-1.23-1.35,3.28,3.28,0,0,0-1.79-.5,3.24,3.24,0,0,0-1.77.5,3.54,3.54,0,0,0-1.25,1.35,4.45,4.45,0,0,0,0,3.9,3.58,3.58,0,0,0,1.25,1.34,3.23,3.23,0,0,0,1.77.49,3.27,3.27,0,0,0,1.79-.49A3.53,3.53,0,0,0,313.1,63,4.1,4.1,0,0,0,313.55,61Z"/><path class="cls-9" d="M317.29,65.62a.47.47,0,0,1-.39-.16.55.55,0,0,1-.15-.38V57a.54.54,0,0,1,.15-.38.51.51,0,0,1,.39-.16.5.5,0,0,1,.39.16.54.54,0,0,1,.15.38v2.7l-.27.05a4,4,0,0,1,.32-1.25,4.26,4.26,0,0,1,.71-1.14,3.56,3.56,0,0,1,1.07-.85,3,3,0,0,1,1.39-.32,1.51,1.51,0,0,1,.63.13.45.45,0,0,1,.31.44.57.57,0,0,1-.15.42.48.48,0,0,1-.34.14.86.86,0,0,1-.35-.09,1.13,1.13,0,0,0-.49-.09,1.94,1.94,0,0,0-1,.3,3.44,3.44,0,0,0-.92.8,4.19,4.19,0,0,0-.66,1.12,3.47,3.47,0,0,0-.24,1.25v4.45a.52.52,0,0,1-.16.38A.51.51,0,0,1,317.29,65.62Z"/><path class="cls-9" d="M323.57,56.46h4.19a.46.46,0,0,1,.36.15.51.51,0,0,1,.15.37.45.45,0,0,1-.15.34.46.46,0,0,1-.36.15h-4.19a.53.53,0,0,1-.52-.51.49.49,0,0,1,.15-.36A.53.53,0,0,1,323.57,56.46Zm1.85-2.54a.5.5,0,0,1,.39.16.55.55,0,0,1,.15.38v9a1.64,1.64,0,0,0,.14.75.72.72,0,0,0,.35.34,1.31,1.31,0,0,0,.43.08.71.71,0,0,0,.26,0,.75.75,0,0,1,.26,0,.38.38,0,0,1,.28.12.48.48,0,0,1,.12.33.49.49,0,0,1-.29.42,1.34,1.34,0,0,1-.68.17l-.49,0a1.74,1.74,0,0,1-.67-.19,1.4,1.4,0,0,1-.56-.61,2.74,2.74,0,0,1-.23-1.24V54.46a.52.52,0,0,1,.16-.38A.49.49,0,0,1,325.42,53.92Z"/><path class="cls-9" d="M337.18,56.42a.53.53,0,0,1,.39.16.59.59,0,0,1,.15.4v8.1a.52.52,0,0,1-.16.38.51.51,0,0,1-.38.16.47.47,0,0,1-.39-.16.55.55,0,0,1-.15-.38V62.94l.31-.15a2.25,2.25,0,0,1-.28,1,3.66,3.66,0,0,1-.77,1,3.71,3.71,0,0,1-1.14.73,3.54,3.54,0,0,1-1.43.28,3.88,3.88,0,0,1-2.17-.63,4.31,4.31,0,0,1-1.51-1.73,5.77,5.77,0,0,1,0-4.94,4.31,4.31,0,0,1,1.51-1.68,4,4,0,0,1,4.77.39,3.62,3.62,0,0,1,.79,1.08,2.9,2.9,0,0,1,.29,1.25l-.38-.27V57a.59.59,0,0,1,.15-.4A.5.5,0,0,1,337.18,56.42Zm-3.74,8.37a3,3,0,0,0,1.69-.49,3.4,3.4,0,0,0,1.16-1.37,4.43,4.43,0,0,0,.42-2,4.22,4.22,0,0,0-.42-1.91,3.47,3.47,0,0,0-1.16-1.35,2.91,2.91,0,0,0-1.69-.51,3.07,3.07,0,0,0-1.69.49A3.52,3.52,0,0,0,330.58,59a4.37,4.37,0,0,0-.42,1.95,4.43,4.43,0,0,0,.42,2,3.25,3.25,0,0,0,1.16,1.37A3,3,0,0,0,333.44,64.79Z"/><path class="cls-9" d="M340.92,65.62a.48.48,0,0,1-.39-.16.55.55,0,0,1-.15-.38V57a.51.51,0,0,1,.16-.38.49.49,0,0,1,.38-.16.5.5,0,0,1,.39.16.54.54,0,0,1,.15.38v2.7l-.27.05a4,4,0,0,1,.32-1.25,4.26,4.26,0,0,1,.71-1.14,3.69,3.69,0,0,1,1.07-.85,3,3,0,0,1,1.4-.32,1.5,1.5,0,0,1,.62.13.45.45,0,0,1,.31.44.61.61,0,0,1-.14.42.49.49,0,0,1-.34.14.87.87,0,0,1-.36-.09,1.13,1.13,0,0,0-.49-.09,2,2,0,0,0-1,.3,3.6,3.6,0,0,0-.92.8,4.16,4.16,0,0,0-.65,1.12,3.28,3.28,0,0,0-.25,1.25v4.45a.52.52,0,0,1-.16.38A.51.51,0,0,1,340.92,65.62Z"/><path class="cls-9" d="M348.37,65.08a.53.53,0,0,1-.17.38.49.49,0,0,1-.37.16.5.5,0,0,1-.39-.16.55.55,0,0,1-.15-.38V52.84a.52.52,0,0,1,.16-.38.55.55,0,0,1,.38-.16.53.53,0,0,1,.38.16.57.57,0,0,1,.16.38Z"/><path class="cls-9" d="M359.66,61a5,5,0,0,1-.6,2.46,4.47,4.47,0,0,1-1.63,1.71,4.5,4.5,0,0,1-6.27-1.71,5,5,0,0,1-.61-2.46,5,5,0,0,1,.61-2.46,4.57,4.57,0,0,1,1.64-1.71,4.57,4.57,0,0,1,4.63,0,4.62,4.62,0,0,1,1.63,1.71A5,5,0,0,1,359.66,61Zm-1.08,0a4.12,4.12,0,0,0-.45-1.95,3.49,3.49,0,0,0-1.23-1.35,3.28,3.28,0,0,0-1.79-.5,3.24,3.24,0,0,0-1.77.5,3.54,3.54,0,0,0-1.25,1.35,4.36,4.36,0,0,0,0,3.9,3.58,3.58,0,0,0,1.25,1.34,3.23,3.23,0,0,0,1.77.49,3.27,3.27,0,0,0,1.79-.49A3.53,3.53,0,0,0,358.13,63,4.1,4.1,0,0,0,358.58,61Z"/><path class="cls-9" d="M361.11,64.16a.69.69,0,0,1-.13-.42.38.38,0,0,1,.22-.33.43.43,0,0,1,.34-.11.57.57,0,0,1,.35.18,3.74,3.74,0,0,0,1.18,1,3.4,3.4,0,0,0,1.64.38,2.88,2.88,0,0,0,1-.17,2,2,0,0,0,.82-.52,1.38,1.38,0,0,0,0-1.79,2.18,2.18,0,0,0-.84-.54,8.53,8.53,0,0,0-1.08-.34c-.41-.11-.81-.23-1.19-.37a4.07,4.07,0,0,1-1-.52,2.6,2.6,0,0,1-.71-.77,2.09,2.09,0,0,1-.27-1.1,2.28,2.28,0,0,1,.41-1.33,2.83,2.83,0,0,1,1.13-.9,3.92,3.92,0,0,1,1.61-.32,5,5,0,0,1,1,.11,4.18,4.18,0,0,1,1,.39,3.29,3.29,0,0,1,.9.74.5.5,0,0,1,.16.37.49.49,0,0,1-.18.37.56.56,0,0,1-.33.1.4.4,0,0,1-.32-.14,2.92,2.92,0,0,0-1-.74,3.34,3.34,0,0,0-1.27-.25,2.84,2.84,0,0,0-1,.17,2.08,2.08,0,0,0-.77.51,1.33,1.33,0,0,0-.3.91,1.23,1.23,0,0,0,.36.84,2.58,2.58,0,0,0,.89.54,9.37,9.37,0,0,0,1.23.4,10.19,10.19,0,0,1,1.11.34,4.09,4.09,0,0,1,.93.49,2.24,2.24,0,0,1,.65.75,2.41,2.41,0,0,1,.24,1.14,2.13,2.13,0,0,1-.44,1.36,2.8,2.8,0,0,1-1.18.89,4.26,4.26,0,0,1-1.63.3,4.94,4.94,0,0,1-1.89-.38A4.06,4.06,0,0,1,361.11,64.16Z"/><path class="cls-9" d="M382.46,56.42a.53.53,0,0,1,.39.16.59.59,0,0,1,.15.4v8.1a.52.52,0,0,1-.16.38.51.51,0,0,1-.38.16.47.47,0,0,1-.39-.16.55.55,0,0,1-.15-.38V62.94l.31-.15a2.25,2.25,0,0,1-.28,1,3.66,3.66,0,0,1-.77,1,3.71,3.71,0,0,1-1.14.73,3.54,3.54,0,0,1-1.43.28,3.88,3.88,0,0,1-2.17-.63,4.31,4.31,0,0,1-1.51-1.73,5.77,5.77,0,0,1,0-4.94,4.31,4.31,0,0,1,1.51-1.68,4,4,0,0,1,4.77.39,3.46,3.46,0,0,1,.79,1.08,2.9,2.9,0,0,1,.29,1.25l-.38-.27V57a.59.59,0,0,1,.15-.4A.5.5,0,0,1,382.46,56.42Zm-3.74,8.37a3,3,0,0,0,1.69-.49,3.4,3.4,0,0,0,1.16-1.37,4.43,4.43,0,0,0,.42-2,4.22,4.22,0,0,0-.42-1.91,3.47,3.47,0,0,0-1.16-1.35,2.91,2.91,0,0,0-1.69-.51,3.07,3.07,0,0,0-1.69.49A3.52,3.52,0,0,0,375.86,59a4.37,4.37,0,0,0-.42,1.95,4.43,4.43,0,0,0,.42,2A3.25,3.25,0,0,0,377,64.3,3,3,0,0,0,378.72,64.79Z"/><path class="cls-9" d="M391.93,65.08a.55.55,0,0,1-.54.54.51.51,0,0,1-.39-.16.55.55,0,0,1-.15-.38V52.84a.52.52,0,0,1,.16-.38.57.57,0,0,1,.38-.16.53.53,0,0,1,.54.54Z"/><path class="cls-9" d="M402.2,56.42a.55.55,0,0,1,.39.16.59.59,0,0,1,.15.4v8.1a.55.55,0,0,1-.54.54.51.51,0,0,1-.4-.16.59.59,0,0,1-.14-.38V62.94l.31-.15a2.25,2.25,0,0,1-.28,1,3.66,3.66,0,0,1-.77,1,3.71,3.71,0,0,1-1.14.73,3.58,3.58,0,0,1-1.43.28,3.86,3.86,0,0,1-2.17-.63,4.31,4.31,0,0,1-1.51-1.73,5.36,5.36,0,0,1-.55-2.46,5.21,5.21,0,0,1,.56-2.48,4.31,4.31,0,0,1,1.51-1.68,4,4,0,0,1,4.77.39,3.62,3.62,0,0,1,.79,1.08,2.9,2.9,0,0,1,.29,1.25l-.38-.27V57a.63.63,0,0,1,.14-.4A.54.54,0,0,1,402.2,56.42Zm-3.74,8.37a3,3,0,0,0,1.69-.49,3.4,3.4,0,0,0,1.16-1.37,4.43,4.43,0,0,0,.42-2,4.22,4.22,0,0,0-.42-1.91,3.47,3.47,0,0,0-1.16-1.35,2.91,2.91,0,0,0-1.69-.51,3.07,3.07,0,0,0-1.69.49A3.44,3.44,0,0,0,395.6,59a4.37,4.37,0,0,0-.42,1.95,4.57,4.57,0,0,0,.41,2,3.34,3.34,0,0,0,1.17,1.37A3,3,0,0,0,398.46,64.79Z"/><path class="cls-9" d="M410,64.16a.7.7,0,0,1-.14-.42.39.39,0,0,1,.23-.33.41.41,0,0,1,.33-.11.54.54,0,0,1,.35.18,4,4,0,0,0,1.18,1,3.41,3.41,0,0,0,1.65.38,2.92,2.92,0,0,0,1-.17,2,2,0,0,0,.82-.52,1.41,1.41,0,0,0,0-1.79,2.26,2.26,0,0,0-.84-.54,8.68,8.68,0,0,0-1.09-.34c-.41-.11-.8-.23-1.19-.37a4.44,4.44,0,0,1-1-.52,2.6,2.6,0,0,1-.71-.77,2.09,2.09,0,0,1-.27-1.1,2.22,2.22,0,0,1,.42-1.33,2.8,2.8,0,0,1,1.12-.9,4,4,0,0,1,1.61-.32,5.07,5.07,0,0,1,1,.11,4.12,4.12,0,0,1,1,.39,3,3,0,0,1,.9.74.5.5,0,0,1,.16.37.49.49,0,0,1-.18.37.52.52,0,0,1-.33.1.38.38,0,0,1-.31-.14,2.92,2.92,0,0,0-1-.74,3.39,3.39,0,0,0-1.28-.25,2.88,2.88,0,0,0-1,.17,2,2,0,0,0-.76.51,1.29,1.29,0,0,0-.31.91,1.24,1.24,0,0,0,.37.84,2.53,2.53,0,0,0,.88.54,10.46,10.46,0,0,0,1.23.4,9,9,0,0,1,1.11.34,4.17,4.17,0,0,1,.94.49,2.35,2.35,0,0,1,.65.75,2.41,2.41,0,0,1,.24,1.14,2.19,2.19,0,0,1-.44,1.36,2.87,2.87,0,0,1-1.18.89,4.32,4.32,0,0,1-1.64.3,4.89,4.89,0,0,1-1.88-.38A4,4,0,0,1,410,64.16Z"/><path class="cls-9" d="M426.26,56.42a.53.53,0,0,1,.39.16.59.59,0,0,1,.15.4v8.1a.52.52,0,0,1-.16.38.51.51,0,0,1-.38.16.48.48,0,0,1-.39-.16.55.55,0,0,1-.15-.38V62.94l.31-.15a2.13,2.13,0,0,1-.28,1,3.82,3.82,0,0,1-.76,1,3.89,3.89,0,0,1-1.15.73,3.51,3.51,0,0,1-1.43.28,3.91,3.91,0,0,1-2.17-.63,4.39,4.39,0,0,1-1.51-1.73,5.49,5.49,0,0,1-.55-2.46,5.33,5.33,0,0,1,.56-2.48,4.39,4.39,0,0,1,1.51-1.68,3.88,3.88,0,0,1,2.15-.61,3.84,3.84,0,0,1,1.44.27,3.73,3.73,0,0,1,1.18.73,3.46,3.46,0,0,1,.79,1.08,2.76,2.76,0,0,1,.29,1.25l-.38-.27V57a.59.59,0,0,1,.15-.4A.52.52,0,0,1,426.26,56.42Zm-3.74,8.37a2.94,2.94,0,0,0,1.69-.49,3.4,3.4,0,0,0,1.16-1.37,4.3,4.3,0,0,0,.43-2,4.1,4.1,0,0,0-.43-1.91,3.47,3.47,0,0,0-1.16-1.35,2.88,2.88,0,0,0-1.69-.51,3.06,3.06,0,0,0-1.68.49A3.36,3.36,0,0,0,419.67,59a4.37,4.37,0,0,0-.43,1.95,4.43,4.43,0,0,0,.42,2,3.25,3.25,0,0,0,1.16,1.37A3,3,0,0,0,422.52,64.79Z"/><path class="cls-9" d="M433.81,56.21a3.39,3.39,0,0,1,1.89.47,2.65,2.65,0,0,1,1,1.3,5,5,0,0,1,.32,1.81v5.29a.53.53,0,0,1-.17.38.49.49,0,0,1-.37.16.51.51,0,0,1-.4-.16.54.54,0,0,1-.14-.38V59.84a3.43,3.43,0,0,0-.24-1.31,2,2,0,0,0-.76-1,2.39,2.39,0,0,0-1.4-.37,3.08,3.08,0,0,0-1.47.37,3.14,3.14,0,0,0-1.12,1,2.14,2.14,0,0,0-.43,1.31v5.24a.57.57,0,0,1-.16.38.52.52,0,0,1-.38.16.51.51,0,0,1-.4-.16.59.59,0,0,1-.14-.38V57a.54.54,0,0,1,.15-.38.5.5,0,0,1,.39-.16.49.49,0,0,1,.38.16.51.51,0,0,1,.16.38v1.51l-.42.65a2.4,2.4,0,0,1,.37-1.11,3.84,3.84,0,0,1,.86-1,4,4,0,0,1,1.16-.67A3.6,3.6,0,0,1,433.81,56.21Z"/><path class="cls-9" d="M443.5,56.21a3.82,3.82,0,0,1,1.48.28,4,4,0,0,1,1.2.72,3.61,3.61,0,0,1,.8.93,1.93,1.93,0,0,1,.29,1l-.29-.43V57a.59.59,0,0,1,.15-.4.53.53,0,0,1,.39-.16.57.57,0,0,1,.39.16.59.59,0,0,1,.15.4v7.8a4.63,4.63,0,0,1-.6,2.43,3.82,3.82,0,0,1-1.61,1.5,5.07,5.07,0,0,1-2.31.51,5.66,5.66,0,0,1-1.32-.16,5.89,5.89,0,0,1-1.19-.41c-.33-.17-.52-.35-.57-.53a.45.45,0,0,1-.11-.31.36.36,0,0,1,.52-.29l.6.26.48.16a4.94,4.94,0,0,0,.74.19,4.14,4.14,0,0,0,.87.08A3.14,3.14,0,0,0,447,64.85V63.12l.2.05a3.09,3.09,0,0,1-.54,1.14,3.86,3.86,0,0,1-.89.82,3.8,3.8,0,0,1-1.08.5,4.19,4.19,0,0,1-3.39-.46,4.47,4.47,0,0,1-1.57-1.71,5.51,5.51,0,0,1,0-4.92,4.31,4.31,0,0,1,1.56-1.71A4.07,4.07,0,0,1,443.5,56.21Zm.11,1a3.19,3.19,0,0,0-1.75.5,3.49,3.49,0,0,0-1.23,1.35,4.23,4.23,0,0,0-.44,1.94,4.29,4.29,0,0,0,.44,1.94,3.52,3.52,0,0,0,1.23,1.36,3.19,3.19,0,0,0,1.75.49,3.31,3.31,0,0,0,1.77-.48A3.51,3.51,0,0,0,446.6,63a4.56,4.56,0,0,0,0-3.95,3.41,3.41,0,0,0-1.22-1.33A3.31,3.31,0,0,0,443.61,57.21Z"/><path class="cls-9" d="M451.26,65.62a.47.47,0,0,1-.39-.16.55.55,0,0,1-.15-.38V57a.54.54,0,0,1,.15-.38.53.53,0,0,1,.39-.16.5.5,0,0,1,.39.16.54.54,0,0,1,.15.38v2.7l-.27.05a4,4,0,0,1,.32-1.25,4.26,4.26,0,0,1,.71-1.14,3.56,3.56,0,0,1,1.07-.85,3,3,0,0,1,1.39-.32,1.51,1.51,0,0,1,.63.13.45.45,0,0,1,.31.44.57.57,0,0,1-.15.42.46.46,0,0,1-.34.14.86.86,0,0,1-.35-.09,1.13,1.13,0,0,0-.49-.09,2,2,0,0,0-1,.3,3.44,3.44,0,0,0-.92.8,4.47,4.47,0,0,0-.66,1.12,3.47,3.47,0,0,0-.24,1.25v4.45a.52.52,0,0,1-.16.38A.51.51,0,0,1,451.26,65.62Z"/><path class="cls-9" d="M461.27,65.8a5,5,0,0,1-2.44-.59,4.27,4.27,0,0,1-1.66-1.66,5,5,0,0,1-.59-2.48,5.3,5.3,0,0,1,.6-2.61,4.42,4.42,0,0,1,1.56-1.67,3.91,3.91,0,0,1,2.05-.58,4.28,4.28,0,0,1,1.54.28,3.86,3.86,0,0,1,1.32.82,4.41,4.41,0,0,1,.94,1.35,4.49,4.49,0,0,1,.37,1.83.49.49,0,0,1-.16.37.54.54,0,0,1-.38.15h-7.21L457,60h7.09l-.23.22V59.9a2.72,2.72,0,0,0-.56-1.44,3,3,0,0,0-1.12-.9,3.16,3.16,0,0,0-1.38-.31,3,3,0,0,0-1.11.22,3,3,0,0,0-1,.67,3.61,3.61,0,0,0-.74,1.17,4.56,4.56,0,0,0-.29,1.69,4.23,4.23,0,0,0,.43,1.92,3.35,3.35,0,0,0,1.24,1.37,3.63,3.63,0,0,0,2,.5,3.29,3.29,0,0,0,2-.65,3.48,3.48,0,0,0,.64-.63.65.65,0,0,1,.38-.16.43.43,0,0,1,.33.15.45.45,0,0,1,.14.32.51.51,0,0,1-.18.38,4.72,4.72,0,0,1-1.41,1.12A3.79,3.79,0,0,1,461.27,65.8Z"/><path class="cls-9" d="M467.31,65.62a.56.56,0,0,1-.47-.2.75.75,0,0,1-.16-.5v-.38a.72.72,0,0,1,.16-.5.61.61,0,0,1,.47-.18h.13a.57.57,0,0,1,.46.18.72.72,0,0,1,.17.5v.38a.76.76,0,0,1-.17.5.53.53,0,0,1-.46.2Z"/></g></g></g></svg>