<svg xmlns="http://www.w3.org/2000/svg" xmlns:xlink="http://www.w3.org/1999/xlink" viewBox="0 0 133.3 43.27"><defs><style>.cls-1{isolation:isolate;}.cls-2{opacity:0.3;mix-blend-mode:multiply;}.cls-3{fill:url(#radial-gradient);}.cls-4{fill:#fff;}.cls-5{fill:#29abe2;}.cls-6{fill:#005dba;}.cls-7{font-size:19.96px;fill:#0071bc;}.cls-8{letter-spacing:-0.01em;}.cls-9{letter-spacing:0em;}.cls-10{letter-spacing:0em;}.cls-11{letter-spacing:-0.02em;}.cls-12{letter-spacing:-0.01em;}.cls-13{letter-spacing:0em;}.cls-14{letter-spacing:0em;}</style><radialGradient id="radial-gradient" cx="20.52" cy="20.18" r="18.41" gradientUnits="userSpaceOnUse"><stop offset="0" stop-color="#29e1ff"/><stop offset="1" stop-color="#29abe2"/></radialGradient></defs><title>lab03-boton</title><g class="cls-1"><g id="Layer_2" data-name="Layer 2"><g id="Layer_1-2" data-name="Layer 1"><g class="cls-2"><path d="M26,41.32a4,4,0,0,1-2.51-.87l-18-14.14a4.09,4.09,0,0,1,0-6.43l18-14.15A4,4,0,0,1,26,4.86,4.1,4.1,0,0,1,30.1,9a8.57,8.57,0,0,0,.79,2.83H37a4.08,4.08,0,0,1,4.08,4.08V30.32A4.08,4.08,0,0,1,37,34.4H30.89a8.69,8.69,0,0,0-.79,2.84,4,4,0,0,1-1.27,3A4.12,4.12,0,0,1,26,41.32Z"/><path d="M26,6.8A2.15,2.15,0,0,1,28.15,9c0,1.18,1,4.77,2.14,4.77H37a2.14,2.14,0,0,1,2.14,2.14V30.32A2.14,2.14,0,0,1,37,32.46H30.29c-1.18,0-2.14,3.59-2.14,4.78A2.14,2.14,0,0,1,26,39.38a2.12,2.12,0,0,1-1.31-.46l-18-14.14a2.15,2.15,0,0,1,0-3.37l18-14.15A2.18,2.18,0,0,1,26,6.8m0-3.88A5.94,5.94,0,0,0,22.3,4.2l-18,14.15a6,6,0,0,0,0,9.49L22.3,42A6,6,0,0,0,26,43.27a6,6,0,0,0,6-6,6.36,6.36,0,0,1,.2-.93H37a6,6,0,0,0,6-6V15.86a6,6,0,0,0-6-6H32.24A6.19,6.19,0,0,1,32,8.9a6,6,0,0,0-6-6Z"/></g><path class="cls-3" d="M24.06,38.41a4,4,0,0,1-2.51-.87l-18-14.15a4.08,4.08,0,0,1,0-6.43l18-14.14A4.07,4.07,0,0,1,28.15,6,8.72,8.72,0,0,0,29,8.87H35A4.09,4.09,0,0,1,39.11,13V27.4A4.1,4.1,0,0,1,35,31.49H29a8.6,8.6,0,0,0-.8,2.83,4,4,0,0,1-1.26,3,4.11,4.11,0,0,1-2.83,1.13Z"/><path class="cls-4" d="M24.06,3.89A2.14,2.14,0,0,1,26.21,6c0,1.18,1,4.78,2.14,4.78H35A2.14,2.14,0,0,1,37.16,13V27.4A2.14,2.14,0,0,1,35,29.54H28.35c-1.18,0-2.14,3.6-2.14,4.78a2.14,2.14,0,0,1-2.15,2.14A2.08,2.08,0,0,1,22.75,36l-18-14.14a2.13,2.13,0,0,1,0-3.37l18-14.14a2.08,2.08,0,0,1,1.31-.46m0-3.89a6,6,0,0,0-3.71,1.29l-18,14.14a6,6,0,0,0,0,9.49l18,14.14a5.94,5.94,0,0,0,3.71,1.29,6,6,0,0,0,6-6,6,6,0,0,1,.19-.94H35a6,6,0,0,0,6-6V13a6,6,0,0,0-6-6H30.29A6.12,6.12,0,0,1,30.1,6a6,6,0,0,0-6-6Z"/><path class="cls-5" d="M24.06,37.18a2.82,2.82,0,0,1-1.75-.61l-18-14.15a2.86,2.86,0,0,1,0-4.49l18-14.14a2.83,2.83,0,0,1,1.75-.62A2.87,2.87,0,0,1,26.92,6c0,1.26.94,3.89,1.46,4.07H35A2.86,2.86,0,0,1,37.88,13V27.4A2.85,2.85,0,0,1,35,30.25H28.35c-.49.18-1.43,2.81-1.43,4.07A2.81,2.81,0,0,1,26,36.39a2.91,2.91,0,0,1-2,.79Z"/><path class="cls-6" d="M24.06,3.89A2.14,2.14,0,0,1,26.21,6c0,1.18,1,4.78,2.14,4.78H35A2.14,2.14,0,0,1,37.16,13V27.4A2.14,2.14,0,0,1,35,29.54H28.35c-1.18,0-2.14,3.6-2.14,4.78a2.14,2.14,0,0,1-2.15,2.14A2.08,2.08,0,0,1,22.75,36l-18-14.14a2.13,2.13,0,0,1,0-3.37l18-14.14a2.08,2.08,0,0,1,1.31-.46m0-1.43a3.54,3.54,0,0,0-2.19.77l-18,14.14a3.56,3.56,0,0,0,0,5.61l18,14.15a3.53,3.53,0,0,0,2.19.76,3.58,3.58,0,0,0,3.58-3.57,8.55,8.55,0,0,1,1-3.35H35a3.57,3.57,0,0,0,3.57-3.57V13A3.57,3.57,0,0,0,35,9.38H28.66a8.5,8.5,0,0,1-1-3.35,3.58,3.58,0,0,0-3.58-3.57Z"/><text class="cls-7" transform="translate(45.56 28.65)"><tspan class="cls-8">R</tspan><tspan class="cls-9" x="13.52" y="0">e</tspan><tspan class="cls-10" x="25.04" y="0">g</tspan><tspan class="cls-11" x="37.58" y="0">r</tspan><tspan class="cls-12" x="45.79" y="0">e</tspan><tspan class="cls-13" x="57.21" y="0">s</tspan><tspan class="cls-14" x="66.73" y="0">a</tspan><tspan x="79.08" y="0">r</tspan></text></g></g></g></svg>