<svg xmlns="http://www.w3.org/2000/svg" viewBox="0 0 501.36 83.13"><defs><style>.cls-1{isolation:isolate;}.cls-2{opacity:0.27;}.cls-3{fill:#002451;}.cls-4{fill:#fff2cc;}.cls-5{fill:none;}.cls-6{fill:#29abe2;}.cls-7{opacity:0.2;mix-blend-mode:multiply;}.cls-8{fill:#fff;}.cls-9{fill:#4d4d4d;}</style></defs><title>lab03-bxB4</title><g class="cls-1"><g id="Layer_2" data-name="Layer 2"><g id="Layer_1-2" data-name="Layer 1"><g class="cls-2"><rect class="cls-3" x="2.96" y="2.84" width="498.39" height="80.29" rx="11.44" ry="11.44"/></g><rect class="cls-4" width="498.39" height="80.29" rx="11.44" ry="11.44"/><path class="cls-5" d="M471.49,78.36v-15A8.38,8.38,0,0,1,480,55.14h15.68a8.68,8.68,0,0,1,2.67.42V11.2A11.45,11.45,0,0,0,486.7,0h-475A11.45,11.45,0,0,0,0,11.2V69.09a11.45,11.45,0,0,0,11.69,11.2H471.74A7.74,7.74,0,0,1,471.49,78.36Z"/><path class="cls-6" d="M487.18,55.14c-8.66,0-15.69,6.73-15.69,15v8.18a7.74,7.74,0,0,0,.25,1.93h15a11.45,11.45,0,0,0,11.69-11.2V55.56a8.68,8.68,0,0,0-2.67-.42Z"/><g class="cls-7"><rect x="485.25" y="63.6" width="1.36" height="10.24"/><polygon points="485.89 59.72 483.14 64.28 488.65 64.28 485.89 59.72"/><polygon points="485.93 77.65 488.68 73.08 483.18 73.08 485.93 77.65"/><rect x="480.58" y="68.07" width="10.69" height="1.3"/><polygon points="476.55 68.7 481.32 71.33 481.32 66.06 476.55 68.7"/><polygon points="495.27 68.67 490.5 66.03 490.5 71.3 495.27 68.67"/></g><rect class="cls-8" x="484.28" y="62.63" width="1.36" height="10.24"/><polygon class="cls-8" points="484.93 58.75 482.18 63.32 487.68 63.32 484.93 58.75"/><polygon class="cls-8" points="484.96 76.68 487.71 72.11 482.21 72.11 484.96 76.68"/><rect class="cls-8" x="479.62" y="67.1" width="10.69" height="1.3"/><polygon class="cls-8" points="475.58 67.73 480.35 70.37 480.35 65.09 475.58 67.73"/><polygon class="cls-8" points="494.3 67.7 489.54 65.06 489.54 70.34 494.3 67.7"/><path class="cls-9" d="M16.13,10.48h6.61a.49.49,0,0,1,.37.16.5.5,0,0,1,.17.38.49.49,0,0,1-.17.38.5.5,0,0,1-.37.14H16.55l.18-.3V16.3l-.2-.24h5.4a.55.55,0,0,1,.54.54.51.51,0,0,1-.16.38.54.54,0,0,1-.38.14H16.56l.17-.17v5.18L16.64,22h6.1a.52.52,0,0,1,.37.16.53.53,0,0,1,.17.38.49.49,0,0,1-.17.38.5.5,0,0,1-.37.14H16.13a.52.52,0,0,1-.38-.16.55.55,0,0,1-.16-.38V11a.55.55,0,0,1,.54-.54Z"/><path class="cls-9" d="M29.54,13.67a3.36,3.36,0,0,1,1.9.48,2.67,2.67,0,0,1,1,1.29,5,5,0,0,1,.32,1.81v5.29a.52.52,0,0,1-.17.38.49.49,0,0,1-.37.16.51.51,0,0,1-.4-.16.53.53,0,0,1-.14-.38V17.3A3.51,3.51,0,0,0,31.46,16a2,2,0,0,0-.76-1,2.46,2.46,0,0,0-1.4-.36A3.29,3.29,0,0,0,26.71,16a2.19,2.19,0,0,0-.43,1.31v5.24a.51.51,0,0,1-.16.38.52.52,0,0,1-.38.16.51.51,0,0,1-.4-.16.57.57,0,0,1-.14-.38V14.48a.54.54,0,0,1,.15-.38.5.5,0,0,1,.39-.16.51.51,0,0,1,.39.16.54.54,0,0,1,.15.38V16l-.42.65a2.44,2.44,0,0,1,.37-1.11,4.05,4.05,0,0,1,.86-.95,4.18,4.18,0,0,1,1.16-.67A3.68,3.68,0,0,1,29.54,13.67Z"/><path class="cls-9" d="M44.6,23.26a4.91,4.91,0,0,1-2.45-.59A4.25,4.25,0,0,1,40.5,21a5,5,0,0,1-.6-2.48,5.3,5.3,0,0,1,.61-2.61,4.42,4.42,0,0,1,1.56-1.67,3.91,3.91,0,0,1,2-.58,4.23,4.23,0,0,1,1.53.28,3.77,3.77,0,0,1,1.33.83,4.22,4.22,0,0,1,.93,1.34A4.56,4.56,0,0,1,48.29,18a.47.47,0,0,1-.16.37.54.54,0,0,1-.38.15H40.53l-.21-1h7.09l-.23.22v-.36a2.75,2.75,0,0,0-.56-1.44,3,3,0,0,0-1.13-.9A3.06,3.06,0,0,0,43,14.93a3,3,0,0,0-1,.67,3.61,3.61,0,0,0-.74,1.17A4.37,4.37,0,0,0,41,18.46a4.2,4.2,0,0,0,.43,1.92,3.35,3.35,0,0,0,1.24,1.37,3.62,3.62,0,0,0,2,.5,3.33,3.33,0,0,0,1.12-.17,3.44,3.44,0,0,0,.89-.48,3.8,3.8,0,0,0,.64-.62.59.59,0,0,1,.38-.16.42.42,0,0,1,.33.14.47.47,0,0,1,.14.32.49.49,0,0,1-.18.38,4.9,4.9,0,0,1-1.41,1.13A3.89,3.89,0,0,1,44.6,23.26Z"/><path class="cls-9" d="M51.53,22.54a.51.51,0,0,1-.16.38.52.52,0,0,1-.38.16.51.51,0,0,1-.39-.16.54.54,0,0,1-.15-.38V10.3a.52.52,0,0,1,.16-.38A.57.57,0,0,1,51,9.76a.53.53,0,0,1,.54.54Z"/><path class="cls-9" d="M63.59,23.26a5.23,5.23,0,0,1-2.65-.64,4.36,4.36,0,0,1-1.73-1.73,5.1,5.1,0,0,1-.61-2.49,5.42,5.42,0,0,1,.66-2.76A4.69,4.69,0,0,1,61,13.88a4.53,4.53,0,0,1,2.25-.61,4.16,4.16,0,0,1,1.74.38,4.77,4.77,0,0,1,1.45,1,5,5,0,0,1,1,1.52A4.67,4.67,0,0,1,67.78,18a.88.88,0,0,1-.34.7,1.13,1.13,0,0,1-.75.27H59.81l-.54-1.8h6.61l-.4.37v-.49a1.65,1.65,0,0,0-.37-.94,2.43,2.43,0,0,0-.83-.65,2.26,2.26,0,0,0-1.05-.25,3.29,3.29,0,0,0-1,.15,2,2,0,0,0-.81.48,2.36,2.36,0,0,0-.54.92,4.63,4.63,0,0,0-.2,1.46,3.15,3.15,0,0,0,.41,1.65,2.76,2.76,0,0,0,2.4,1.37,3.77,3.77,0,0,0,1.06-.11,2,2,0,0,0,.64-.26l.44-.26a1.36,1.36,0,0,1,.62-.16.9.9,0,0,1,.91.9,1.1,1.1,0,0,1-.5.88,4.09,4.09,0,0,1-1.31.7A5.49,5.49,0,0,1,63.59,23.26Z"/><path class="cls-9" d="M68.89,21.59a1,1,0,0,1-.16-.65.86.86,0,0,1,.47-.68,1,1,0,0,1,.61-.16,1,1,0,0,1,.63.34,4.1,4.1,0,0,0,1.1.81,3.21,3.21,0,0,0,1.44.29,4.72,4.72,0,0,0,.59-.09,1.1,1.1,0,0,0,.57-.28.91.91,0,0,0,.24-.7.8.8,0,0,0-.27-.63,2.16,2.16,0,0,0-.71-.39c-.29-.11-.62-.21-1-.31l-1.14-.36a4.59,4.59,0,0,1-1.07-.51,2.48,2.48,0,0,1-.8-.84,2.59,2.59,0,0,1-.3-1.31,2.4,2.4,0,0,1,.5-1.53,3.22,3.22,0,0,1,1.31-1,4.18,4.18,0,0,1,1.68-.35,5.48,5.48,0,0,1,1.17.14,4.45,4.45,0,0,1,1.17.43,3.09,3.09,0,0,1,.94.78,1.27,1.27,0,0,1,.23.65.78.78,0,0,1-.34.68.84.84,0,0,1-.63.19,1,1,0,0,1-.6-.24,2.16,2.16,0,0,0-.81-.63A3,3,0,0,0,72.55,15a3.19,3.19,0,0,0-.59.06,1.14,1.14,0,0,0-.55.27.87.87,0,0,0-.23.66.83.83,0,0,0,.27.65,1.88,1.88,0,0,0,.73.4l1,.3c.36.09.72.21,1.1.34a4.45,4.45,0,0,1,1,.52,2.56,2.56,0,0,1,.76.84,2.66,2.66,0,0,1,.29,1.3A2.38,2.38,0,0,1,75.79,22a3.42,3.42,0,0,1-1.35,1,4.39,4.39,0,0,1-1.66.33,6.27,6.27,0,0,1-2.12-.37A3.67,3.67,0,0,1,68.89,21.59Z"/><path class="cls-9" d="M78.26,13.63h4.27a1,1,0,0,1,1,1,.91.91,0,0,1-.29.69,1,1,0,0,1-.72.28H78.26a1,1,0,0,1-.72-.28,1,1,0,0,1-.29-.72,1,1,0,0,1,.29-.7A1,1,0,0,1,78.26,13.63Zm1.93-2.25a1,1,0,0,1,.76.32,1.09,1.09,0,0,1,.3.78v8a.77.77,0,0,0,.1.42.67.67,0,0,0,.27.23.9.9,0,0,0,.37.07,1.06,1.06,0,0,0,.4-.08,1,1,0,0,1,.41-.08.62.62,0,0,1,.46.23,1,1,0,0,1-.34,1.48,2.35,2.35,0,0,1-1.18.32A6.5,6.5,0,0,1,80.9,23a2.08,2.08,0,0,1-.86-.31,1.89,1.89,0,0,1-.68-.74,3,3,0,0,1-.27-1.39v-8.1a1.09,1.09,0,0,1,1.1-1.1Z"/><path class="cls-9" d="M94.24,18.28a5.05,5.05,0,0,1-.66,2.6,4.76,4.76,0,0,1-1.76,1.75,4.94,4.94,0,0,1-2.48.63,4.88,4.88,0,0,1-2.47-.63,4.72,4.72,0,0,1-1.77-1.75,5.05,5.05,0,0,1-.66-2.6,5,5,0,0,1,.66-2.6,4.81,4.81,0,0,1,4.24-2.41,5,5,0,0,1,2.48.64,4.9,4.9,0,0,1,1.76,1.77A5,5,0,0,1,94.24,18.28Zm-2.16,0a3.35,3.35,0,0,0-.37-1.6,2.78,2.78,0,0,0-1-1,2.7,2.7,0,0,0-2.76,0,2.78,2.78,0,0,0-1,1,3.34,3.34,0,0,0-.36,1.6A3.28,3.28,0,0,0,87,19.85a2.89,2.89,0,0,0,1,1.06,2.76,2.76,0,0,0,2.76,0,2.89,2.89,0,0,0,1-1.06A3.28,3.28,0,0,0,92.08,18.28Zm-2.65-5.44a.72.72,0,0,1-.37-.15.44.44,0,0,1-.2-.44.66.66,0,0,1,.1-.34L90,10.07a1.64,1.64,0,0,1,.41-.5A.84.84,0,0,1,91,9.35a.94.94,0,0,1,.73.26.85.85,0,0,1,.22.64,1.19,1.19,0,0,1-.1.38,1.37,1.37,0,0,1-.24.39l-1.37,1.52a.84.84,0,0,1-.39.25A2.18,2.18,0,0,1,89.43,12.84Z"/><path class="cls-9" d="M101,13.27a2.84,2.84,0,0,1,2.12.7,3.36,3.36,0,0,1,.9,1.79l-.31-.17.15-.28a3.7,3.7,0,0,1,.66-.89,4.08,4.08,0,0,1,1.09-.81,3,3,0,0,1,1.43-.34,3.05,3.05,0,0,1,2,.56,2.83,2.83,0,0,1,.92,1.49,7.7,7.7,0,0,1,.25,2.06V22a1.09,1.09,0,0,1-.3.78,1,1,0,0,1-.78.31,1,1,0,0,1-.77-.31,1.1,1.1,0,0,1-.31-.78V17.38a3.51,3.51,0,0,0-.14-1.07,1.5,1.5,0,0,0-.52-.77,1.76,1.76,0,0,0-1.08-.29,2.25,2.25,0,0,0-1.17.29,1.8,1.8,0,0,0-.73.77,2.31,2.31,0,0,0-.24,1.07V22a1.1,1.1,0,0,1-.31.78,1,1,0,0,1-.77.31,1,1,0,0,1-.78-.31A1.09,1.09,0,0,1,102,22V17.38a3.5,3.5,0,0,0-.15-1.07,1.44,1.44,0,0,0-.52-.77,1.76,1.76,0,0,0-1.08-.29,2.25,2.25,0,0,0-1.17.29,1.86,1.86,0,0,0-.73.77,2.31,2.31,0,0,0-.24,1.07V22a1.06,1.06,0,0,1-.31.78,1,1,0,0,1-.77.31,1.06,1.06,0,0,1-.78-.31A1.09,1.09,0,0,1,96,22V14.55a1.09,1.09,0,0,1,.3-.78,1.06,1.06,0,0,1,.78-.32,1,1,0,0,1,.77.32,1.06,1.06,0,0,1,.31.78v.78l-.27-.06a4.86,4.86,0,0,1,.45-.66A3.67,3.67,0,0,1,99,14a3.71,3.71,0,0,1,.92-.5A3.21,3.21,0,0,1,101,13.27Z"/><path class="cls-9" d="M120.27,13.27a1.06,1.06,0,0,1,.78.31,1.08,1.08,0,0,1,.3.79V22a1.09,1.09,0,0,1-.3.78,1.06,1.06,0,0,1-.78.31,1,1,0,0,1-.77-.31,1.06,1.06,0,0,1-.31-.78V21.1l.4.16a1.06,1.06,0,0,1-.25.57,3.66,3.66,0,0,1-.69.66,4.48,4.48,0,0,1-1,.55,3.49,3.49,0,0,1-1.27.22,4.12,4.12,0,0,1-2.25-.64,4.45,4.45,0,0,1-1.59-1.76,5.51,5.51,0,0,1-.58-2.58,5.54,5.54,0,0,1,.58-2.6,4.6,4.6,0,0,1,1.58-1.77,4,4,0,0,1,2.19-.64,4.28,4.28,0,0,1,2.55.83,3.42,3.42,0,0,1,.74.73,1.19,1.19,0,0,1,.26.62l-.65.23V14.37a1.06,1.06,0,0,1,.31-.78A1,1,0,0,1,120.27,13.27Zm-3.63,8a2.45,2.45,0,0,0,1.38-.39,2.71,2.71,0,0,0,.93-1.08,3.76,3.76,0,0,0,0-3.08,2.59,2.59,0,0,0-.93-1.08,2.38,2.38,0,0,0-1.38-.4,2.35,2.35,0,0,0-1.37.4,2.59,2.59,0,0,0-.93,1.08,3.76,3.76,0,0,0,0,3.08,2.71,2.71,0,0,0,.93,1.08A2.42,2.42,0,0,0,116.64,21.28Z"/><path class="cls-9" d="M127.57,13.27a3.86,3.86,0,0,1,1.39.24,3.91,3.91,0,0,1,1.09.59,3.52,3.52,0,0,1,.72.73,1.19,1.19,0,0,1,.26.62l-.47.23V14.37a1.06,1.06,0,0,1,.31-.78,1,1,0,0,1,.77-.32,1.06,1.06,0,0,1,.78.31,1.08,1.08,0,0,1,.3.79v8a4.24,4.24,0,0,1-.67,2.51,3.79,3.79,0,0,1-1.78,1.37,6.49,6.49,0,0,1-2.35.42,6.33,6.33,0,0,1-.94-.09c-.38-.06-.75-.13-1.1-.21a7.33,7.33,0,0,1-.79-.24,1.54,1.54,0,0,1-.75-.58.9.9,0,0,1-.08-.75,1.14,1.14,0,0,1,.52-.71.92.92,0,0,1,.76-.05l.59.22a8.83,8.83,0,0,0,.91.3,3.35,3.35,0,0,0,.88.13,3.05,3.05,0,0,0,2-.54,1.82,1.82,0,0,0,.65-1.49V21.1l.22.16a1,1,0,0,1-.25.57,3.42,3.42,0,0,1-.66.66,4.32,4.32,0,0,1-1,.55,3.3,3.3,0,0,1-1.22.22,4.25,4.25,0,0,1-2.31-.64,4.52,4.52,0,0,1-1.62-1.76,5.51,5.51,0,0,1-.59-2.58,5.54,5.54,0,0,1,.59-2.6,4.65,4.65,0,0,1,1.6-1.77A4.21,4.21,0,0,1,127.57,13.27Zm.35,2a2.54,2.54,0,0,0-1.43.4,2.7,2.7,0,0,0-.95,1.08,3.66,3.66,0,0,0,0,3.08,2.84,2.84,0,0,0,.95,1.08,2.84,2.84,0,0,0,2.87,0,2.84,2.84,0,0,0,.95-1.08,3.66,3.66,0,0,0,0-3.08,2.7,2.7,0,0,0-.95-1.08A2.56,2.56,0,0,0,127.92,15.25Z"/><path class="cls-9" d="M144.26,18.28a5.05,5.05,0,0,1-.66,2.6,4.69,4.69,0,0,1-1.76,1.75,5.18,5.18,0,0,1-5,0,4.72,4.72,0,0,1-1.77-1.75,5.15,5.15,0,0,1-.65-2.6,5.12,5.12,0,0,1,.65-2.6,4.85,4.85,0,0,1,1.77-1.77,5.11,5.11,0,0,1,5,0,4.82,4.82,0,0,1,1.76,1.77A5,5,0,0,1,144.26,18.28Zm-2.16,0a3.23,3.23,0,0,0-.37-1.6,2.78,2.78,0,0,0-1-1,2.68,2.68,0,0,0-2.75,0,2.64,2.64,0,0,0-1,1,3.23,3.23,0,0,0-.37,1.6,3.17,3.17,0,0,0,.37,1.57,2.73,2.73,0,0,0,1,1.06,2.74,2.74,0,0,0,2.75,0,2.89,2.89,0,0,0,1-1.06A3.17,3.17,0,0,0,142.1,18.28Z"/><path class="cls-9" d="M150.83,21.62a.7.7,0,0,1-.14-.42.39.39,0,0,1,.23-.33.46.46,0,0,1,.33-.11.52.52,0,0,1,.35.18,4,4,0,0,0,1.18,1,3.3,3.3,0,0,0,1.65.38,2.88,2.88,0,0,0,1-.17,1.89,1.89,0,0,0,.82-.52,1.41,1.41,0,0,0,0-1.79,2.26,2.26,0,0,0-.84-.54,10,10,0,0,0-1.09-.34c-.41-.11-.8-.23-1.19-.37a4.17,4.17,0,0,1-1-.52,2.64,2.64,0,0,1-.72-.77,2.18,2.18,0,0,1-.26-1.1,2.21,2.21,0,0,1,.41-1.33,2.8,2.8,0,0,1,1.12-.9,4,4,0,0,1,1.62-.32,4.35,4.35,0,0,1,1,.12,3.61,3.61,0,0,1,1,.38,3,3,0,0,1,.9.74.51.51,0,0,1,.17.37.52.52,0,0,1-.18.37.58.58,0,0,1-.34.11.39.39,0,0,1-.31-.15,2.92,2.92,0,0,0-1-.74,3.36,3.36,0,0,0-1.28-.25,2.88,2.88,0,0,0-1,.17,2,2,0,0,0-.76.52,1.28,1.28,0,0,0,.06,1.74,2.53,2.53,0,0,0,.88.54,10.06,10.06,0,0,0,1.24.4,9.39,9.39,0,0,1,1.1.34,3.65,3.65,0,0,1,.94.5,2.22,2.22,0,0,1,.65.74,2.41,2.41,0,0,1,.24,1.14,2.22,2.22,0,0,1-.44,1.37A2.94,2.94,0,0,1,156,23a4.32,4.32,0,0,1-1.64.3,4.72,4.72,0,0,1-1.88-.38A4,4,0,0,1,150.83,21.62Z"/><path class="cls-9" d="M163.76,23.26a4.91,4.91,0,0,1-2.45-.59A4.25,4.25,0,0,1,159.66,21a5,5,0,0,1-.6-2.48,5.19,5.19,0,0,1,.61-2.61,4.42,4.42,0,0,1,1.56-1.67,3.88,3.88,0,0,1,2.05-.58,4.23,4.23,0,0,1,1.53.28,3.77,3.77,0,0,1,1.33.83,4.22,4.22,0,0,1,.93,1.34,4.56,4.56,0,0,1,.38,1.83.47.47,0,0,1-.16.37.54.54,0,0,1-.38.15h-7.22l-.21-1h7.09l-.23.22v-.36a2.84,2.84,0,0,0-.56-1.44,3,3,0,0,0-1.13-.9,3.26,3.26,0,0,0-1.37-.31,3.22,3.22,0,0,0-1.11.22,3,3,0,0,0-1,.67,3.61,3.61,0,0,0-.74,1.17,4.37,4.37,0,0,0-.29,1.69,4.2,4.2,0,0,0,.43,1.92,3.35,3.35,0,0,0,1.24,1.37,3.62,3.62,0,0,0,2,.5,3.33,3.33,0,0,0,1.12-.17,3.61,3.61,0,0,0,.89-.48,3.8,3.8,0,0,0,.64-.62.59.59,0,0,1,.38-.16.42.42,0,0,1,.33.14.47.47,0,0,1,.14.32.49.49,0,0,1-.18.38,4.9,4.9,0,0,1-1.41,1.13A3.89,3.89,0,0,1,163.76,23.26Z"/><path class="cls-9" d="M179,13.81a3.88,3.88,0,0,1,2.17.61,4.28,4.28,0,0,1,1.5,1.65,5,5,0,0,1,.56,2.42,5,5,0,0,1-.56,2.43,4.31,4.31,0,0,1-1.51,1.68,4,4,0,0,1-2.14.61,3.68,3.68,0,0,1-1.2-.19,4.3,4.3,0,0,1-1-.51,3.8,3.8,0,0,1-.83-.77,3.9,3.9,0,0,1-.58-1l.33-.24v5.6a.51.51,0,0,1-.16.38.49.49,0,0,1-.38.16.5.5,0,0,1-.39-.16.54.54,0,0,1-.15-.38V14.41a.61.61,0,0,1,.14-.4.51.51,0,0,1,.4-.16.49.49,0,0,1,.38.16.54.54,0,0,1,.16.4v1.94l-.25-.14a2.91,2.91,0,0,1,.53-1,3.44,3.44,0,0,1,.81-.76,3.87,3.87,0,0,1,1-.48A4.47,4.47,0,0,1,179,13.81Zm-.09,1a3.06,3.06,0,0,0-1.71.48A3.36,3.36,0,0,0,176,16.59a4.12,4.12,0,0,0-.42,1.9A4.22,4.22,0,0,0,176,20.4a3.25,3.25,0,0,0,1.16,1.32,3.06,3.06,0,0,0,1.71.48,3,3,0,0,0,1.68-.48,3.34,3.34,0,0,0,1.17-1.32,4.23,4.23,0,0,0,.43-1.91,4.17,4.17,0,0,0-.43-1.89,3.43,3.43,0,0,0-1.17-1.3A3,3,0,0,0,178.88,14.82Z"/><path class="cls-9" d="M185.85,23.08a.51.51,0,0,1-.4-.16.53.53,0,0,1-.14-.38V14.48a.54.54,0,0,1,.15-.38.5.5,0,0,1,.39-.16.49.49,0,0,1,.38.16.55.55,0,0,1,.16.38v2.7l-.27.05a4.09,4.09,0,0,1,.31-1.25,4.26,4.26,0,0,1,.71-1.14,3.69,3.69,0,0,1,1.07-.85,3.07,3.07,0,0,1,1.4-.32,1.58,1.58,0,0,1,.63.13.46.46,0,0,1,.3.44.56.56,0,0,1-.14.42.49.49,0,0,1-.34.14.79.79,0,0,1-.35-.09,1.18,1.18,0,0,0-.5-.09,2,2,0,0,0-1,.3,3.4,3.4,0,0,0-.91.8,4,4,0,0,0-.66,1.13,3.43,3.43,0,0,0-.24,1.25v4.44a.52.52,0,0,1-.17.38A.49.49,0,0,1,185.85,23.08Z"/><path class="cls-9" d="M200.22,18.47a5,5,0,0,1-.6,2.46A4.4,4.4,0,0,1,198,22.64a4.63,4.63,0,0,1-4.63,0,4.42,4.42,0,0,1-1.64-1.71,5.34,5.34,0,0,1,0-4.92,4.57,4.57,0,0,1,1.64-1.71,4.57,4.57,0,0,1,4.63,0A4.54,4.54,0,0,1,199.62,16,5,5,0,0,1,200.22,18.47Zm-1.08,0a4.12,4.12,0,0,0-.45-1.95,3.49,3.49,0,0,0-1.23-1.35,3.27,3.27,0,0,0-1.79-.49,3.23,3.23,0,0,0-1.77.49,3.62,3.62,0,0,0-1.25,1.35,4.12,4.12,0,0,0-.45,1.95,4.07,4.07,0,0,0,.45,2,3.66,3.66,0,0,0,1.25,1.34,3.23,3.23,0,0,0,1.77.49,3.27,3.27,0,0,0,1.79-.49,3.53,3.53,0,0,0,1.23-1.34A4.07,4.07,0,0,0,199.14,18.47Z"/><path class="cls-9" d="M209.87,9.76a.5.5,0,0,1,.39.16.52.52,0,0,1,.15.38V22.54a.55.55,0,0,1-.54.54.47.47,0,0,1-.39-.16.54.54,0,0,1-.15-.38V20.4l.31-.25a2.34,2.34,0,0,1-.27,1.05,3.52,3.52,0,0,1-.77,1,3.94,3.94,0,0,1-1.15.75,3.39,3.39,0,0,1-1.43.29,3.84,3.84,0,0,1-2.15-.63,4.42,4.42,0,0,1-1.52-1.71,5.68,5.68,0,0,1,0-4.92,4.26,4.26,0,0,1,1.51-1.71,3.88,3.88,0,0,1,2.14-.62,3.7,3.7,0,0,1,1.42.27,3.87,3.87,0,0,1,1.18.74,3.48,3.48,0,0,1,.81,1.07,2.77,2.77,0,0,1,.3,1.25l-.38-.27V10.3a.55.55,0,0,1,.15-.38A.5.5,0,0,1,209.87,9.76Zm-3.74,12.49a3,3,0,0,0,1.69-.49A3.4,3.4,0,0,0,209,20.41a4.71,4.71,0,0,0,0-3.89,3.4,3.4,0,0,0-1.16-1.35,3.16,3.16,0,0,0-3.38,0,3.51,3.51,0,0,0-1.17,1.35,4.69,4.69,0,0,0,0,3.88,3.47,3.47,0,0,0,1.17,1.36A3,3,0,0,0,206.13,22.25Z"/><path class="cls-9" d="M219.93,13.94a.49.49,0,0,1,.38.16.51.51,0,0,1,.16.38v5.07a3.53,3.53,0,0,1-1,2.72,3.81,3.81,0,0,1-2.72.94,3.75,3.75,0,0,1-2.69-.94,3.56,3.56,0,0,1-1-2.72V14.48a.51.51,0,0,1,.16-.38.49.49,0,0,1,.38-.16.5.5,0,0,1,.39.16.54.54,0,0,1,.15.38v5.07a2.39,2.39,0,0,0,2.61,2.65,2.7,2.7,0,0,0,1.95-.67,2.65,2.65,0,0,0,.7-2V14.48a.57.57,0,0,1,.14-.38A.51.51,0,0,1,219.93,13.94Z"/><path class="cls-9" d="M227.12,13.67a6.08,6.08,0,0,1,1.59.19,3.47,3.47,0,0,1,1.16.51.91.91,0,0,1,.44.7.56.56,0,0,1-.14.35.39.39,0,0,1-.33.17.6.6,0,0,1-.37-.1l-.26-.25a1.21,1.21,0,0,0-.38-.28,3.32,3.32,0,0,0-.67-.19,5,5,0,0,0-1-.09,3.34,3.34,0,0,0-1.82.5,3.64,3.64,0,0,0-1.28,1.36,4,4,0,0,0-.47,1.92,4.23,4.23,0,0,0,.44,1.94,3.35,3.35,0,0,0,1.25,1.36,3.4,3.4,0,0,0,1.84.49,4.18,4.18,0,0,0,1.13-.12,3.27,3.27,0,0,0,.67-.29,1.6,1.6,0,0,0,.51-.39.53.53,0,0,1,.41-.19.44.44,0,0,1,.34.14.52.52,0,0,1,.13.35.92.92,0,0,1-.43.64,3.79,3.79,0,0,1-1.16.61,5,5,0,0,1-1.71.26,4.27,4.27,0,0,1-3.93-2.35,5.18,5.18,0,0,1-.57-2.45,5.07,5.07,0,0,1,.58-2.4,4.52,4.52,0,0,1,1.6-1.73A4.38,4.38,0,0,1,227.12,13.67Z"/><path class="cls-9" d="M236.17,23.26a4.88,4.88,0,0,1-2.45-.59A4.27,4.27,0,0,1,232.06,21a5.05,5.05,0,0,1-.59-2.48,5.3,5.3,0,0,1,.6-2.61,4.36,4.36,0,0,1,1.57-1.67,3.85,3.85,0,0,1,2-.58,4.28,4.28,0,0,1,1.54.28,3.65,3.65,0,0,1,1.32.83,4.09,4.09,0,0,1,.94,1.34,4.73,4.73,0,0,1,.38,1.83.48.48,0,0,1-.17.37.51.51,0,0,1-.37.15H232.1l-.22-1H239l-.23.22v-.36a2.75,2.75,0,0,0-.56-1.44,3,3,0,0,0-1.12-.9,3.31,3.31,0,0,0-1.38-.31,3.22,3.22,0,0,0-1.11.22,2.83,2.83,0,0,0-1,.67,3.47,3.47,0,0,0-.75,1.17,4.56,4.56,0,0,0-.29,1.69,4.33,4.33,0,0,0,.43,1.92,3.37,3.37,0,0,0,1.25,1.37,3.59,3.59,0,0,0,2,.5,3.23,3.23,0,0,0,1.11-.17,3.28,3.28,0,0,0,.89-.48,3.45,3.45,0,0,0,.64-.62.62.62,0,0,1,.38-.16.42.42,0,0,1,.33.14.47.47,0,0,1,.14.32.49.49,0,0,1-.18.38,5,5,0,0,1-1.4,1.13A4,4,0,0,1,236.17,23.26Z"/><path class="cls-9" d="M246.3,13.67a3.36,3.36,0,0,1,1.9.48,2.67,2.67,0,0,1,1,1.29,5,5,0,0,1,.32,1.81v5.29a.55.55,0,0,1-.16.38.52.52,0,0,1-.38.16.51.51,0,0,1-.4-.16.57.57,0,0,1-.14-.38V17.3a3.51,3.51,0,0,0-.24-1.31,2,2,0,0,0-.76-1,2.44,2.44,0,0,0-1.4-.36,3.12,3.12,0,0,0-1.46.36,3.18,3.18,0,0,0-1.13,1A2.25,2.25,0,0,0,243,17.3v5.24a.55.55,0,0,1-.54.54.47.47,0,0,1-.39-.16.54.54,0,0,1-.15-.38V14.48a.54.54,0,0,1,.15-.38.51.51,0,0,1,.39-.16.5.5,0,0,1,.39.16.54.54,0,0,1,.15.38V16l-.41.65a2.22,2.22,0,0,1,.37-1.11,3.8,3.8,0,0,1,.85-.95,4.33,4.33,0,0,1,1.16-.67A3.68,3.68,0,0,1,246.3,13.67Z"/><path class="cls-9" d="M264.75,9.76a.53.53,0,0,1,.39.16.52.52,0,0,1,.15.38V22.54a.55.55,0,0,1-.16.38.52.52,0,0,1-.38.16.51.51,0,0,1-.4-.16.57.57,0,0,1-.14-.38V20.4l.3-.25a2.34,2.34,0,0,1-.27,1.05,3.48,3.48,0,0,1-.76,1,3.94,3.94,0,0,1-1.15.75,3.42,3.42,0,0,1-1.43.29,3.87,3.87,0,0,1-2.16-.63,4.51,4.51,0,0,1-1.52-1.71,5.3,5.3,0,0,1-.55-2.46,5.33,5.33,0,0,1,.55-2.46,4.36,4.36,0,0,1,1.52-1.71,3.86,3.86,0,0,1,2.14-.62,3.74,3.74,0,0,1,1.42.27,4,4,0,0,1,1.18.74,3.65,3.65,0,0,1,.81,1.07,2.77,2.77,0,0,1,.3,1.25l-.38-.27V10.3a.59.59,0,0,1,.14-.38A.54.54,0,0,1,264.75,9.76ZM261,22.25a3,3,0,0,0,1.7-.49,3.48,3.48,0,0,0,1.16-1.35,4.71,4.71,0,0,0,0-3.89,3.48,3.48,0,0,0-1.16-1.35,3.16,3.16,0,0,0-3.38,0,3.35,3.35,0,0,0-1.17,1.35,4.69,4.69,0,0,0,0,3.88,3.31,3.31,0,0,0,1.17,1.36A3,3,0,0,0,261,22.25Z"/><path class="cls-9" d="M268.47,12.52a.86.86,0,0,1-.57-.17.67.67,0,0,1-.19-.5v-.18a.58.58,0,0,1,.21-.49.85.85,0,0,1,.57-.18.74.74,0,0,1,.53.18.63.63,0,0,1,.19.49v.18a.67.67,0,0,1-.19.5A.82.82,0,0,1,268.47,12.52Zm.54,10a.51.51,0,0,1-.16.38.52.52,0,0,1-.38.16.5.5,0,0,1-.39-.16.54.54,0,0,1-.15-.38V14.26a.55.55,0,0,1,.15-.38.53.53,0,0,1,.39-.16.53.53,0,0,1,.54.54Z"/><path class="cls-9" d="M275.65,14.07a.48.48,0,0,1,.36.14.47.47,0,0,1,.14.36.48.48,0,0,1-.5.5h-4.41a.51.51,0,0,1-.5-.5.47.47,0,0,1,.15-.37.51.51,0,0,1,.35-.13ZM275,9.83a3.09,3.09,0,0,1,.58.06,1.56,1.56,0,0,1,.55.19.42.42,0,0,1,.23.4.46.46,0,0,1-.14.35.43.43,0,0,1-.32.16,1.54,1.54,0,0,1-.45-.1,1.61,1.61,0,0,0-.58-.1,1.23,1.23,0,0,0-.65.17,1,1,0,0,0-.41.49,1.75,1.75,0,0,0-.15.76V22.54a.54.54,0,0,1-.15.38.5.5,0,0,1-.39.16.49.49,0,0,1-.38-.16.51.51,0,0,1-.16-.38V12.21a2.25,2.25,0,0,1,.68-1.76A2.49,2.49,0,0,1,275,9.83Z"/><path class="cls-9" d="M281.65,23.26a4.88,4.88,0,0,1-2.45-.59A4.27,4.27,0,0,1,277.54,21a5.05,5.05,0,0,1-.59-2.48,5.3,5.3,0,0,1,.6-2.61,4.44,4.44,0,0,1,1.57-1.67,3.85,3.85,0,0,1,2-.58,4.28,4.28,0,0,1,1.54.28,3.65,3.65,0,0,1,1.32.83,4.09,4.09,0,0,1,.94,1.34,4.56,4.56,0,0,1,.38,1.83.51.51,0,0,1-.16.37.55.55,0,0,1-.38.15h-7.22l-.22-1h7.1l-.24.22v-.36a2.67,2.67,0,0,0-.56-1.44,2.94,2.94,0,0,0-1.12-.9,3.31,3.31,0,0,0-1.38-.31,3.12,3.12,0,0,0-1.1.22,3,3,0,0,0-1,.67,3.47,3.47,0,0,0-.75,1.17,4.56,4.56,0,0,0-.29,1.69,4.21,4.21,0,0,0,.44,1.92,3.28,3.28,0,0,0,1.24,1.37,3.59,3.59,0,0,0,2,.5,3.33,3.33,0,0,0,1.12-.17,3.61,3.61,0,0,0,.89-.48,3.8,3.8,0,0,0,.64-.62.57.57,0,0,1,.37-.16A.42.42,0,0,1,285,21a.45.45,0,0,1,.13.32.49.49,0,0,1-.18.38,5,5,0,0,1-1.4,1.13A4,4,0,0,1,281.65,23.26Z"/><path class="cls-9" d="M288,23.08a.47.47,0,0,1-.39-.16.54.54,0,0,1-.15-.38V14.48a.51.51,0,0,1,.16-.38.49.49,0,0,1,.38-.16.5.5,0,0,1,.39.16.54.54,0,0,1,.15.38v2.7l-.27.05a4.12,4.12,0,0,1,.32-1.25,4.26,4.26,0,0,1,.71-1.14,3.69,3.69,0,0,1,1.07-.85,3,3,0,0,1,1.39-.32,1.51,1.51,0,0,1,.63.13.45.45,0,0,1,.31.44.61.61,0,0,1-.14.42.5.5,0,0,1-.35.14.86.86,0,0,1-.35-.09,1.13,1.13,0,0,0-.49-.09,2,2,0,0,0-1,.3,3.6,3.6,0,0,0-.92.8,4.21,4.21,0,0,0-.65,1.13,3.24,3.24,0,0,0-.25,1.25v4.44a.55.55,0,0,1-.54.54Z"/><path class="cls-9" d="M298,23.26a4.88,4.88,0,0,1-2.45-.59A4.27,4.27,0,0,1,293.89,21a5.05,5.05,0,0,1-.59-2.48,5.3,5.3,0,0,1,.6-2.61,4.36,4.36,0,0,1,1.57-1.67,3.85,3.85,0,0,1,2-.58,4.28,4.28,0,0,1,1.54.28,3.65,3.65,0,0,1,1.32.83,4.09,4.09,0,0,1,.94,1.34,4.73,4.73,0,0,1,.38,1.83.48.48,0,0,1-.17.37.51.51,0,0,1-.37.15h-7.22l-.22-1h7.09l-.23.22v-.36a2.75,2.75,0,0,0-.56-1.44,3,3,0,0,0-1.12-.9,3.31,3.31,0,0,0-1.38-.31,3.22,3.22,0,0,0-1.11.22,2.83,2.83,0,0,0-1,.67,3.47,3.47,0,0,0-.75,1.17,4.56,4.56,0,0,0-.29,1.69,4.33,4.33,0,0,0,.43,1.92A3.37,3.37,0,0,0,296,21.75a3.59,3.59,0,0,0,2,.5,3.23,3.23,0,0,0,1.11-.17,3.28,3.28,0,0,0,.89-.48,3.45,3.45,0,0,0,.64-.62.62.62,0,0,1,.38-.16.42.42,0,0,1,.33.14.47.47,0,0,1,.14.32.49.49,0,0,1-.18.38,5,5,0,0,1-1.4,1.13A4,4,0,0,1,298,23.26Z"/><path class="cls-9" d="M308.13,13.67a3.36,3.36,0,0,1,1.9.48,2.67,2.67,0,0,1,1,1.29,5,5,0,0,1,.32,1.81v5.29a.55.55,0,0,1-.16.38.52.52,0,0,1-.38.16.51.51,0,0,1-.4-.16.57.57,0,0,1-.14-.38V17.3a3.51,3.51,0,0,0-.24-1.31,2,2,0,0,0-.76-1,2.44,2.44,0,0,0-1.4-.36A3.29,3.29,0,0,0,305.3,16a2.19,2.19,0,0,0-.43,1.31v5.24a.51.51,0,0,1-.16.38.52.52,0,0,1-.38.16.51.51,0,0,1-.4-.16.57.57,0,0,1-.14-.38V14.48a.54.54,0,0,1,.15-.38.5.5,0,0,1,.39-.16.51.51,0,0,1,.39.16.54.54,0,0,1,.15.38V16l-.41.65a2.31,2.31,0,0,1,.36-1.11,4.05,4.05,0,0,1,.86-.95,4.18,4.18,0,0,1,1.16-.67A3.68,3.68,0,0,1,308.13,13.67Z"/><path class="cls-9" d="M313.23,13.92h4.19a.49.49,0,0,1,.36.15.52.52,0,0,1,.14.37.46.46,0,0,1-.14.35.52.52,0,0,1-.36.14h-4.19a.5.5,0,0,1-.37-.15.48.48,0,0,1-.16-.36.43.43,0,0,1,.16-.35A.5.5,0,0,1,313.23,13.92Zm1.85-2.54a.53.53,0,0,1,.54.54v9a1.49,1.49,0,0,0,.14.75.68.68,0,0,0,.35.34,1.26,1.26,0,0,0,.43.08.75.75,0,0,0,.26-.05.71.71,0,0,1,.26,0,.38.38,0,0,1,.28.12.48.48,0,0,1,.12.33.49.49,0,0,1-.29.42,1.26,1.26,0,0,1-.69.17l-.48,0a2,2,0,0,1-.67-.2,1.29,1.29,0,0,1-.56-.61,2.58,2.58,0,0,1-.23-1.24V11.92a.55.55,0,0,1,.15-.38A.53.53,0,0,1,315.08,11.38Z"/><path class="cls-9" d="M323.44,23.26a4.86,4.86,0,0,1-2.45-.59A4.27,4.27,0,0,1,319.33,21a5.05,5.05,0,0,1-.59-2.48,5.3,5.3,0,0,1,.6-2.61,4.36,4.36,0,0,1,1.57-1.67,3.85,3.85,0,0,1,2-.58,4.28,4.28,0,0,1,1.54.28,3.65,3.65,0,0,1,1.32.83,4.24,4.24,0,0,1,.94,1.34,4.73,4.73,0,0,1,.38,1.83.48.48,0,0,1-.17.37.51.51,0,0,1-.37.15h-7.22l-.22-1h7.09l-.23.22v-.36a2.75,2.75,0,0,0-.56-1.44,3,3,0,0,0-1.12-.9,3.31,3.31,0,0,0-1.38-.31,3.22,3.22,0,0,0-1.11.22,2.83,2.83,0,0,0-1,.67,3.47,3.47,0,0,0-.75,1.17,4.56,4.56,0,0,0-.29,1.69,4.33,4.33,0,0,0,.43,1.92,3.37,3.37,0,0,0,1.25,1.37,3.59,3.59,0,0,0,2,.5,3.13,3.13,0,0,0,2-.65,3.45,3.45,0,0,0,.64-.62.59.59,0,0,1,.38-.16.42.42,0,0,1,.33.14.47.47,0,0,1,.14.32.49.49,0,0,1-.18.38,5,5,0,0,1-1.4,1.13A4,4,0,0,1,323.44,23.26Z"/><path class="cls-9" d="M328.71,21.62a.7.7,0,0,1-.14-.42.39.39,0,0,1,.23-.33.43.43,0,0,1,.33-.11.54.54,0,0,1,.35.18,4,4,0,0,0,1.18,1,3.3,3.3,0,0,0,1.65.38,2.92,2.92,0,0,0,1-.17,1.89,1.89,0,0,0,.82-.52,1.41,1.41,0,0,0,0-1.79,2.26,2.26,0,0,0-.84-.54A10.72,10.72,0,0,0,332.2,19c-.41-.11-.8-.23-1.19-.37a4.44,4.44,0,0,1-1-.52,2.6,2.6,0,0,1-.71-.77,2.09,2.09,0,0,1-.27-1.1,2.22,2.22,0,0,1,.42-1.33,2.8,2.8,0,0,1,1.12-.9,4,4,0,0,1,1.61-.32,4.44,4.44,0,0,1,1,.12,3.85,3.85,0,0,1,1,.38,3,3,0,0,1,.9.74.5.5,0,0,1,.16.37.49.49,0,0,1-.18.37.52.52,0,0,1-.33.11.37.37,0,0,1-.31-.15,2.92,2.92,0,0,0-1-.74,3.39,3.39,0,0,0-1.28-.25,2.88,2.88,0,0,0-1,.17,1.88,1.88,0,0,0-.76.52,1.26,1.26,0,0,0-.31.9,1.22,1.22,0,0,0,.37.84,2.44,2.44,0,0,0,.88.54,10.46,10.46,0,0,0,1.23.4,9,9,0,0,1,1.11.34,3.82,3.82,0,0,1,.94.5,2.09,2.09,0,0,1,.64.74,2.29,2.29,0,0,1,.25,1.14,2.22,2.22,0,0,1-.44,1.37,2.94,2.94,0,0,1-1.18.88,4.32,4.32,0,0,1-1.64.3,4.68,4.68,0,0,1-1.88-.38A4,4,0,0,1,328.71,21.62Z"/><path class="cls-9" d="M350.06,13.88a.5.5,0,0,1,.38.17.57.57,0,0,1,.16.39v8.1a.52.52,0,0,1-.17.38.49.49,0,0,1-.37.16.51.51,0,0,1-.4-.16.53.53,0,0,1-.14-.38V20.4l.3-.14a2.1,2.1,0,0,1-.28,1,3.61,3.61,0,0,1-.76,1,3.89,3.89,0,0,1-1.15.73,3.51,3.51,0,0,1-1.43.28,3.91,3.91,0,0,1-2.17-.63,4.36,4.36,0,0,1-1.51-1.72,5.57,5.57,0,0,1-.55-2.47,5.33,5.33,0,0,1,.56-2.48A4.39,4.39,0,0,1,344,14.28a3.88,3.88,0,0,1,2.15-.61,3.8,3.8,0,0,1,1.44.27,3.75,3.75,0,0,1,1.18.74,3.61,3.61,0,0,1,.8,1.07,2.89,2.89,0,0,1,.28,1.25l-.37-.27V14.44a.55.55,0,0,1,.14-.39A.51.51,0,0,1,350.06,13.88Zm-3.75,8.37a2.94,2.94,0,0,0,1.69-.49,3.32,3.32,0,0,0,1.16-1.37,4.3,4.3,0,0,0,.43-1.95,4.1,4.1,0,0,0-.43-1.91A3.46,3.46,0,0,0,348,15.18a2.88,2.88,0,0,0-1.69-.5,3.05,3.05,0,0,0-1.68.48,3.36,3.36,0,0,0-1.17,1.33,4.37,4.37,0,0,0-.42,2,4.42,4.42,0,0,0,.41,1.95,3.32,3.32,0,0,0,1.16,1.37A3,3,0,0,0,346.31,22.25Zm-.12-9.1a.3.3,0,0,1-.19-.1.3.3,0,0,1-.1-.23.51.51,0,0,1,.09-.25l1.1-1.71a1,1,0,0,1,.24-.27.57.57,0,0,1,.37-.13.61.61,0,0,1,.43.15.44.44,0,0,1,.14.41.56.56,0,0,1,0,.23.77.77,0,0,1-.14.19l-1.35,1.42a1,1,0,0,1-.25.21A.64.64,0,0,1,346.19,13.15Z"/><path class="cls-9" d="M357.31,13.67a6.08,6.08,0,0,1,1.59.19,3.47,3.47,0,0,1,1.16.51.91.91,0,0,1,.44.7.56.56,0,0,1-.14.35.39.39,0,0,1-.33.17.58.58,0,0,1-.37-.1,3.07,3.07,0,0,1-.26-.25A1.21,1.21,0,0,0,359,15a3.32,3.32,0,0,0-.67-.19,5,5,0,0,0-1-.09,3.32,3.32,0,0,0-1.82.5,3.64,3.64,0,0,0-1.28,1.36,4,4,0,0,0-.47,1.92,4.23,4.23,0,0,0,.44,1.94,3.4,3.4,0,0,0,1.24,1.36,3.46,3.46,0,0,0,1.85.49,4,4,0,0,0,1.12-.12,3.15,3.15,0,0,0,.68-.29,1.6,1.6,0,0,0,.51-.39.52.52,0,0,1,.41-.19.44.44,0,0,1,.34.14.52.52,0,0,1,.13.35,1,1,0,0,1-.43.64,3.79,3.79,0,0,1-1.16.61,5,5,0,0,1-1.71.26,4.37,4.37,0,0,1-2.35-.63,4.3,4.3,0,0,1-1.58-1.72,5.18,5.18,0,0,1-.57-2.45,5,5,0,0,1,.58-2.4,4.52,4.52,0,0,1,1.6-1.73A4.35,4.35,0,0,1,357.31,13.67Z"/><path class="cls-9" d="M362.84,12.52a.84.84,0,0,1-.57-.17.63.63,0,0,1-.19-.5v-.18a.58.58,0,0,1,.21-.49.8.8,0,0,1,.56-.18.72.72,0,0,1,.53.18.6.6,0,0,1,.19.49v.18a.63.63,0,0,1-.19.5A.78.78,0,0,1,362.84,12.52Zm.54,10a.52.52,0,0,1-.17.38.49.49,0,0,1-.37.16.5.5,0,0,1-.39-.16.54.54,0,0,1-.15-.38V14.26a.55.55,0,0,1,.15-.38.53.53,0,0,1,.39-.16.53.53,0,0,1,.38.16.57.57,0,0,1,.16.38Z"/><path class="cls-9" d="M373.53,9.76a.5.5,0,0,1,.39.16.52.52,0,0,1,.15.38V22.54a.51.51,0,0,1-.16.38.49.49,0,0,1-.38.16.48.48,0,0,1-.39-.16.54.54,0,0,1-.15-.38V20.4l.31-.25A2.34,2.34,0,0,1,373,21.2a3.48,3.48,0,0,1-.76,1,4,4,0,0,1-1.16.75,3.36,3.36,0,0,1-1.43.29,3.84,3.84,0,0,1-2.15-.63A4.42,4.42,0,0,1,366,20.92,5.68,5.68,0,0,1,366,16a4.34,4.34,0,0,1,1.51-1.71,3.89,3.89,0,0,1,2.15-.62,3.78,3.78,0,0,1,1.42.27,4.12,4.12,0,0,1,1.18.74,3.65,3.65,0,0,1,.81,1.07,2.9,2.9,0,0,1,.29,1.25l-.38-.27V10.3a.55.55,0,0,1,.15-.38A.52.52,0,0,1,373.53,9.76Zm-3.74,12.49a2.94,2.94,0,0,0,1.69-.49,3.33,3.33,0,0,0,1.16-1.35,4.61,4.61,0,0,0,0-3.89,3.33,3.33,0,0,0-1.16-1.35,2.94,2.94,0,0,0-1.69-.49,3,3,0,0,0-1.68.49,3.35,3.35,0,0,0-1.17,1.35,4.69,4.69,0,0,0,0,3.88,3.31,3.31,0,0,0,1.17,1.36A3,3,0,0,0,369.79,22.25Z"/><path class="cls-9" d="M385.31,18.47a5,5,0,0,1-.6,2.46,4.55,4.55,0,0,1-1.63,1.71,4.65,4.65,0,0,1-4.64,0,4.42,4.42,0,0,1-1.64-1.71,5.34,5.34,0,0,1,0-4.92,4.57,4.57,0,0,1,1.64-1.71,4.59,4.59,0,0,1,4.64,0A4.7,4.7,0,0,1,384.71,16,5,5,0,0,1,385.31,18.47Zm-1.08,0a4.12,4.12,0,0,0-.45-1.95,3.49,3.49,0,0,0-1.23-1.35,3.31,3.31,0,0,0-1.8-.49,3.23,3.23,0,0,0-1.77.49,3.59,3.59,0,0,0-1.24,1.35,4,4,0,0,0-.46,1.95,4,4,0,0,0,.46,2A3.64,3.64,0,0,0,379,21.76a3.23,3.23,0,0,0,1.77.49,3.31,3.31,0,0,0,1.8-.49,3.53,3.53,0,0,0,1.23-1.34A4.07,4.07,0,0,0,384.23,18.47Z"/><path class="cls-9" d="M386.76,21.62a.7.7,0,0,1-.14-.42.39.39,0,0,1,.23-.33.44.44,0,0,1,.33-.11.52.52,0,0,1,.35.18,4,4,0,0,0,1.18,1,3.3,3.3,0,0,0,1.65.38,2.92,2.92,0,0,0,1-.17,1.89,1.89,0,0,0,.82-.52,1.41,1.41,0,0,0,0-1.79,2.26,2.26,0,0,0-.84-.54,10,10,0,0,0-1.09-.34c-.41-.11-.8-.23-1.19-.37a4.17,4.17,0,0,1-1-.52,2.64,2.64,0,0,1-.72-.77,2.09,2.09,0,0,1-.27-1.1,2.22,2.22,0,0,1,.42-1.33,2.8,2.8,0,0,1,1.12-.9,4,4,0,0,1,1.62-.32,4.35,4.35,0,0,1,1,.12,3.72,3.72,0,0,1,1,.38,3,3,0,0,1,.9.74.5.5,0,0,1,.16.37.51.51,0,0,1-.17.37.58.58,0,0,1-.34.11.39.39,0,0,1-.31-.15,2.92,2.92,0,0,0-1-.74,3.39,3.39,0,0,0-1.28-.25,2.88,2.88,0,0,0-1,.17,2,2,0,0,0-.76.52,1.26,1.26,0,0,0-.31.9,1.22,1.22,0,0,0,.37.84,2.53,2.53,0,0,0,.88.54,10.46,10.46,0,0,0,1.23.4,9,9,0,0,1,1.11.34,3.65,3.65,0,0,1,.94.5,2.22,2.22,0,0,1,.65.74,2.41,2.41,0,0,1,.24,1.14,2.22,2.22,0,0,1-.44,1.37,2.94,2.94,0,0,1-1.18.88,4.32,4.32,0,0,1-1.64.3,4.72,4.72,0,0,1-1.88-.38A4,4,0,0,1,386.76,21.62Z"/><path class="cls-9" d="M408.11,13.85a.49.49,0,0,1,.38.16.54.54,0,0,1,.16.4V26.14a.52.52,0,0,1-.17.38.49.49,0,0,1-.37.16.51.51,0,0,1-.4-.16.53.53,0,0,1-.14-.38V20.4l.3-.25a2.34,2.34,0,0,1-.27,1.05,3.48,3.48,0,0,1-.76,1,4.08,4.08,0,0,1-1.15.75,3.42,3.42,0,0,1-1.43.29,3.87,3.87,0,0,1-2.16-.63,4.51,4.51,0,0,1-1.52-1.71,5.68,5.68,0,0,1,0-4.92,4.36,4.36,0,0,1,1.52-1.71,3.86,3.86,0,0,1,2.14-.62,3.74,3.74,0,0,1,1.42.27,4,4,0,0,1,1.18.74,3.65,3.65,0,0,1,.81,1.07A2.77,2.77,0,0,1,408,17l-.38-.27V14.41a.56.56,0,0,1,.14-.4A.51.51,0,0,1,408.11,13.85Zm-3.75,8.4a3,3,0,0,0,1.7-.49,3.48,3.48,0,0,0,1.16-1.35,4.71,4.71,0,0,0,0-3.89,3.48,3.48,0,0,0-1.16-1.35,3.16,3.16,0,0,0-3.38,0,3.35,3.35,0,0,0-1.17,1.35,4.69,4.69,0,0,0,0,3.88,3.31,3.31,0,0,0,1.17,1.36A3,3,0,0,0,404.36,22.25Z"/><path class="cls-9" d="M418.16,13.94a.5.5,0,0,1,.39.16.54.54,0,0,1,.15.38v5.07a3.53,3.53,0,0,1-1,2.72,3.83,3.83,0,0,1-2.72.94,3.74,3.74,0,0,1-2.69-.94,3.53,3.53,0,0,1-1-2.72V14.48a.54.54,0,0,1,.15-.38.5.5,0,0,1,.39-.16.49.49,0,0,1,.38.16.51.51,0,0,1,.16.38v5.07A2.37,2.37,0,0,0,415,22.2a2.68,2.68,0,0,0,1.94-.67,2.61,2.61,0,0,0,.7-2V14.48a.54.54,0,0,1,.15-.38A.48.48,0,0,1,418.16,13.94Z"/><path class="cls-9" d="M425.47,23.26a4.88,4.88,0,0,1-2.45-.59A4.27,4.27,0,0,1,421.36,21a5.05,5.05,0,0,1-.59-2.48,5.3,5.3,0,0,1,.6-2.61,4.44,4.44,0,0,1,1.57-1.67,3.85,3.85,0,0,1,2-.58,4.28,4.28,0,0,1,1.54.28,3.65,3.65,0,0,1,1.32.83,4.09,4.09,0,0,1,.94,1.34,4.73,4.73,0,0,1,.38,1.83.48.48,0,0,1-.17.37.51.51,0,0,1-.37.15H421.4l-.22-1h7.09l-.23.22v-.36a2.75,2.75,0,0,0-.56-1.44,2.94,2.94,0,0,0-1.12-.9,3.31,3.31,0,0,0-1.38-.31,3.22,3.22,0,0,0-1.11.22,2.91,2.91,0,0,0-1,.67,3.47,3.47,0,0,0-.75,1.17,4.56,4.56,0,0,0-.29,1.69,4.33,4.33,0,0,0,.43,1.92,3.37,3.37,0,0,0,1.25,1.37,3.59,3.59,0,0,0,2,.5,3.23,3.23,0,0,0,1.11-.17,3.5,3.5,0,0,0,.9-.48,3.71,3.71,0,0,0,.63-.62.62.62,0,0,1,.38-.16.44.44,0,0,1,.34.14.45.45,0,0,1,.13.32.49.49,0,0,1-.18.38,5,5,0,0,1-1.4,1.13A4,4,0,0,1,425.47,23.26Z"/><path class="cls-9" d="M19.3,33.67a6.06,6.06,0,0,1,1.58.19,3.38,3.38,0,0,1,1.16.51.88.88,0,0,1,.44.7.54.54,0,0,1-.13.35.39.39,0,0,1-.33.17.58.58,0,0,1-.37-.1,3.07,3.07,0,0,1-.26-.25A1.34,1.34,0,0,0,21,35a3.45,3.45,0,0,0-.68-.19,4.88,4.88,0,0,0-1-.09,3.34,3.34,0,0,0-1.82.5,3.61,3.61,0,0,0-1.27,1.36,3.85,3.85,0,0,0-.47,1.92,4.23,4.23,0,0,0,.44,1.94,3.33,3.33,0,0,0,1.24,1.36,3.46,3.46,0,0,0,1.85.49,4.1,4.1,0,0,0,1.12-.12,3.38,3.38,0,0,0,.68-.29,1.6,1.6,0,0,0,.51-.39.51.51,0,0,1,.4-.19.47.47,0,0,1,.35.14.51.51,0,0,1,.12.35.93.93,0,0,1-.42.64,3.79,3.79,0,0,1-1.16.61,5,5,0,0,1-1.71.26,4.37,4.37,0,0,1-2.35-.63,4.23,4.23,0,0,1-1.58-1.72,5.18,5.18,0,0,1-.57-2.45,5.06,5.06,0,0,1,.57-2.4,4.54,4.54,0,0,1,1.61-1.73A4.33,4.33,0,0,1,19.3,33.67Z"/><path class="cls-9" d="M32.72,38.47a4.88,4.88,0,0,1-.61,2.46,4.4,4.4,0,0,1-1.63,1.71,4.63,4.63,0,0,1-4.63,0,4.42,4.42,0,0,1-1.64-1.71,5.34,5.34,0,0,1,0-4.92,4.57,4.57,0,0,1,1.64-1.71,4.57,4.57,0,0,1,4.63,0A4.54,4.54,0,0,1,32.11,36,4.88,4.88,0,0,1,32.72,38.47Zm-1.08,0a4.12,4.12,0,0,0-.45-1.95A3.44,3.44,0,0,0,30,35.17a3.27,3.27,0,0,0-1.79-.49,3.23,3.23,0,0,0-1.77.49,3.51,3.51,0,0,0-1.24,1.35,4,4,0,0,0-.46,1.95,4,4,0,0,0,.46,2,3.56,3.56,0,0,0,1.24,1.34,3.23,3.23,0,0,0,1.77.49A3.27,3.27,0,0,0,30,41.76a3.48,3.48,0,0,0,1.24-1.34A4.07,4.07,0,0,0,31.64,38.47Z"/><path class="cls-9" d="M39.17,33.67a3.34,3.34,0,0,1,1.9.48,2.68,2.68,0,0,1,1,1.29,5,5,0,0,1,.31,1.81v5.29a.51.51,0,0,1-.16.38.52.52,0,0,1-.38.16.47.47,0,0,1-.39-.16.54.54,0,0,1-.15-.38V37.3A3.72,3.72,0,0,0,41.1,36a2,2,0,0,0-.77-1,2.43,2.43,0,0,0-1.39-.36,3.13,3.13,0,0,0-1.47.36,3.18,3.18,0,0,0-1.13,1,2.25,2.25,0,0,0-.43,1.31v5.24a.55.55,0,0,1-.54.54.47.47,0,0,1-.39-.16.54.54,0,0,1-.15-.38V34.48A.51.51,0,0,1,35,34.1a.49.49,0,0,1,.38-.16.5.5,0,0,1,.39.16.54.54,0,0,1,.15.38V36l-.41.65a2.33,2.33,0,0,1,.37-1.11,3.8,3.8,0,0,1,.85-1,4.33,4.33,0,0,1,1.16-.67A3.68,3.68,0,0,1,39.17,33.67Z"/><path class="cls-9" d="M44.45,33.69a.57.57,0,0,1,.29.09.58.58,0,0,1,.21.27l3.15,7.49-.23.14,3.22-7.63a.5.5,0,0,1,.52-.35.54.54,0,0,1,.34.12.4.4,0,0,1,.17.34.43.43,0,0,1,0,.17s0,.08-.05.13l-3.52,8.28a.53.53,0,0,1-.49.34.48.48,0,0,1-.32-.08.56.56,0,0,1-.22-.26l-3.55-8.28a.53.53,0,0,1,0-.11.59.59,0,0,1,0-.14.56.56,0,0,1,.14-.36A.54.54,0,0,1,44.45,33.69Z"/><path class="cls-9" d="M54.44,32.52a.81.81,0,0,1-.56-.17.63.63,0,0,1-.19-.5v-.18a.58.58,0,0,1,.21-.49.8.8,0,0,1,.56-.18.72.72,0,0,1,.53.18.6.6,0,0,1,.19.49v.18a.63.63,0,0,1-.19.5A.8.8,0,0,1,54.44,32.52Zm.54,10a.55.55,0,0,1-.54.54.49.49,0,0,1-.38-.16.51.51,0,0,1-.16-.38V34.26a.52.52,0,0,1,.16-.38.53.53,0,0,1,.38-.16.53.53,0,0,1,.39.16.55.55,0,0,1,.15.38Z"/><path class="cls-9" d="M61.76,43.26a4.91,4.91,0,0,1-2.45-.59A4.18,4.18,0,0,1,57.66,41a5,5,0,0,1-.6-2.48,5.3,5.3,0,0,1,.6-2.61,4.52,4.52,0,0,1,1.57-1.67,3.85,3.85,0,0,1,2-.58,4.28,4.28,0,0,1,1.54.28,3.77,3.77,0,0,1,1.33.83,4.22,4.22,0,0,1,.93,1.34A4.56,4.56,0,0,1,65.45,38a.47.47,0,0,1-.16.37.55.55,0,0,1-.38.15H57.69l-.21-1h7.09l-.24.22v-.36a2.74,2.74,0,0,0-.55-1.44,3.05,3.05,0,0,0-1.13-.9,3.31,3.31,0,0,0-1.38-.31,3.12,3.12,0,0,0-1.1.22,3,3,0,0,0-1,.67,3.63,3.63,0,0,0-.75,1.17,4.57,4.57,0,0,0-.28,1.69,4.2,4.2,0,0,0,.43,1.92,3.35,3.35,0,0,0,1.24,1.37,3.59,3.59,0,0,0,2,.5,3.33,3.33,0,0,0,1.12-.17,3.61,3.61,0,0,0,.89-.48,3.8,3.8,0,0,0,.64-.62.59.59,0,0,1,.38-.16.42.42,0,0,1,.33.14.45.45,0,0,1,.13.32.49.49,0,0,1-.18.38,4.86,4.86,0,0,1-1.4,1.13A4,4,0,0,1,61.76,43.26Z"/><path class="cls-9" d="M68.09,43.08a.48.48,0,0,1-.39-.16.54.54,0,0,1-.15-.38V34.48a.51.51,0,0,1,.16-.38.49.49,0,0,1,.38-.16.5.5,0,0,1,.39.16.54.54,0,0,1,.15.38v2.7l-.27,0A4.12,4.12,0,0,1,68.68,36a4.26,4.26,0,0,1,.71-1.14A3.69,3.69,0,0,1,70.46,34a3,3,0,0,1,1.4-.32,1.5,1.5,0,0,1,.62.13.45.45,0,0,1,.31.44.61.61,0,0,1-.14.42.49.49,0,0,1-.34.14.87.87,0,0,1-.36-.09,1.13,1.13,0,0,0-.49-.09,2,2,0,0,0-1,.3,3.6,3.6,0,0,0-.92.8,4.21,4.21,0,0,0-.65,1.13,3.24,3.24,0,0,0-.25,1.25v4.44a.55.55,0,0,1-.54.54Z"/><path class="cls-9" d="M74.37,33.92h4.2a.49.49,0,0,1,.36.15.57.57,0,0,1,.14.37.5.5,0,0,1-.14.35.52.52,0,0,1-.36.14h-4.2a.51.51,0,0,1-.37-.15.51.51,0,0,1-.15-.36.45.45,0,0,1,.15-.35A.51.51,0,0,1,74.37,33.92Zm1.86-2.54a.53.53,0,0,1,.38.16.57.57,0,0,1,.16.38v9a1.63,1.63,0,0,0,.13.75.72.72,0,0,0,.35.34,1.35,1.35,0,0,0,.43.08.67.67,0,0,0,.26-.05.77.77,0,0,1,.27,0,.36.36,0,0,1,.27.12.48.48,0,0,1,.12.33.47.47,0,0,1-.29.42,1.25,1.25,0,0,1-.68.17l-.49,0a2,2,0,0,1-.66-.2,1.36,1.36,0,0,1-.57-.61A2.72,2.72,0,0,1,75.69,41V31.92a.55.55,0,0,1,.15-.38A.53.53,0,0,1,76.23,31.38Z"/><path class="cls-9" d="M84.58,43.26a4.91,4.91,0,0,1-2.45-.59A4.18,4.18,0,0,1,80.48,41a5,5,0,0,1-.6-2.48,5.19,5.19,0,0,1,.61-2.61,4.42,4.42,0,0,1,1.56-1.67,3.86,3.86,0,0,1,2-.58,4.23,4.23,0,0,1,1.53.28,3.77,3.77,0,0,1,1.33.83,4.22,4.22,0,0,1,.93,1.34A4.56,4.56,0,0,1,88.27,38a.47.47,0,0,1-.16.37.55.55,0,0,1-.38.15H80.51l-.21-1h7.09l-.24.22v-.36a2.74,2.74,0,0,0-.55-1.44,3.05,3.05,0,0,0-1.13-.9,3.3,3.3,0,0,0-1.37-.31,3.18,3.18,0,0,0-1.11.22,3,3,0,0,0-1,.67,3.8,3.8,0,0,0-.75,1.17,4.57,4.57,0,0,0-.28,1.69,4.2,4.2,0,0,0,.43,1.92,3.35,3.35,0,0,0,1.24,1.37,3.59,3.59,0,0,0,2,.5,3.33,3.33,0,0,0,1.12-.17,3.61,3.61,0,0,0,.89-.48,3.8,3.8,0,0,0,.64-.62.59.59,0,0,1,.38-.16.42.42,0,0,1,.33.14.47.47,0,0,1,.14.32.5.5,0,0,1-.19.38,4.72,4.72,0,0,1-1.4,1.13A3.89,3.89,0,0,1,84.58,43.26Z"/><path class="cls-9" d="M94.71,33.67a3.34,3.34,0,0,1,1.9.48,2.63,2.63,0,0,1,1,1.29A5,5,0,0,1,98,37.25v5.29a.55.55,0,0,1-.54.54.47.47,0,0,1-.39-.16.54.54,0,0,1-.15-.38V37.3A3.72,3.72,0,0,0,96.64,36a2,2,0,0,0-.77-1,2.43,2.43,0,0,0-1.39-.36A3.13,3.13,0,0,0,93,35a3.06,3.06,0,0,0-1.12,1,2.2,2.2,0,0,0-.44,1.31v5.24a.51.51,0,0,1-.16.38.49.49,0,0,1-.38.16.48.48,0,0,1-.39-.16.54.54,0,0,1-.15-.38V34.48a.55.55,0,0,1,.16-.38.49.49,0,0,1,.38-.16.5.5,0,0,1,.39.16.54.54,0,0,1,.15.38V36l-.41.65a2.33,2.33,0,0,1,.37-1.11,4,4,0,0,1,.85-1,4.24,4.24,0,0,1,1.17-.67A3.58,3.58,0,0,1,94.71,33.67Z"/><path class="cls-9" d="M109.78,43.26a4.88,4.88,0,0,1-2.45-.59A4.27,4.27,0,0,1,105.67,41a5.05,5.05,0,0,1-.59-2.48,5.3,5.3,0,0,1,.6-2.61,4.44,4.44,0,0,1,1.57-1.67,3.85,3.85,0,0,1,2-.58,4.28,4.28,0,0,1,1.54.28,3.65,3.65,0,0,1,1.32.83,4.09,4.09,0,0,1,.94,1.34,4.56,4.56,0,0,1,.38,1.83.51.51,0,0,1-.16.37.55.55,0,0,1-.38.15h-7.22l-.22-1h7.1l-.24.22v-.36a2.67,2.67,0,0,0-.56-1.44,2.94,2.94,0,0,0-1.12-.9,3.31,3.31,0,0,0-1.38-.31,3.12,3.12,0,0,0-1.1.22,3,3,0,0,0-1,.67,3.47,3.47,0,0,0-.75,1.17,4.56,4.56,0,0,0-.29,1.69,4.21,4.21,0,0,0,.44,1.92,3.28,3.28,0,0,0,1.24,1.37,3.59,3.59,0,0,0,2,.5,3.33,3.33,0,0,0,1.12-.17,3.61,3.61,0,0,0,.89-.48,4.22,4.22,0,0,0,.64-.62.57.57,0,0,1,.37-.16.42.42,0,0,1,.34.14.45.45,0,0,1,.13.32.49.49,0,0,1-.18.38,5,5,0,0,1-1.4,1.13A4,4,0,0,1,109.78,43.26Z"/><path class="cls-9" d="M116.71,42.54a.52.52,0,0,1-.17.38.49.49,0,0,1-.37.16.5.5,0,0,1-.39-.16.54.54,0,0,1-.15-.38V30.3a.52.52,0,0,1,.16-.38.55.55,0,0,1,.38-.16.53.53,0,0,1,.38.16.57.57,0,0,1,.16.38Z"/><path class="cls-9" d="M132,33.88a.51.51,0,0,1,.39.17.56.56,0,0,1,.15.39v8.1a.55.55,0,0,1-.54.54.47.47,0,0,1-.39-.16.54.54,0,0,1-.15-.38V40.4l.31-.14a2.21,2.21,0,0,1-.28,1,3.66,3.66,0,0,1-.77,1,3.71,3.71,0,0,1-1.14.73,3.54,3.54,0,0,1-1.43.28,3.88,3.88,0,0,1-2.17-.63,4.29,4.29,0,0,1-1.51-1.72,5.43,5.43,0,0,1-.55-2.47,5.33,5.33,0,0,1,.56-2.48A4.31,4.31,0,0,1,126,34.28a3.93,3.93,0,0,1,4.77.4,3.42,3.42,0,0,1,.79,1.07,2.9,2.9,0,0,1,.29,1.25l-.38-.27V34.44a.56.56,0,0,1,.15-.39A.48.48,0,0,1,132,33.88Zm-3.74,8.37a3,3,0,0,0,1.69-.49,3.4,3.4,0,0,0,1.16-1.37,4.43,4.43,0,0,0,.42-2,4.22,4.22,0,0,0-.42-1.91A3.55,3.55,0,0,0,130,35.18a2.9,2.9,0,0,0-1.69-.5,3.06,3.06,0,0,0-1.69.48,3.52,3.52,0,0,0-1.17,1.33,4.37,4.37,0,0,0-.42,1.95,4.43,4.43,0,0,0,.42,2,3.25,3.25,0,0,0,1.16,1.37A3,3,0,0,0,128.3,42.25Z"/><path class="cls-9" d="M136.38,42.54a.52.52,0,0,1-.17.38.49.49,0,0,1-.37.16.5.5,0,0,1-.39-.16.54.54,0,0,1-.15-.38V30.3a.52.52,0,0,1,.16-.38.55.55,0,0,1,.38-.16.53.53,0,0,1,.38.16.57.57,0,0,1,.16.38Z"/><path class="cls-9" d="M139.62,32.52a.86.86,0,0,1-.57-.17.67.67,0,0,1-.19-.5v-.18a.58.58,0,0,1,.21-.49.85.85,0,0,1,.57-.18.74.74,0,0,1,.53.18.6.6,0,0,1,.19.49v.18a.63.63,0,0,1-.19.5A.82.82,0,0,1,139.62,32.52Zm.54,10a.55.55,0,0,1-.54.54.51.51,0,0,1-.39-.16.54.54,0,0,1-.15-.38V34.26a.53.53,0,0,1,.54-.54.53.53,0,0,1,.39.16.55.55,0,0,1,.15.38Z"/><path class="cls-9" d="M147,33.81a3.12,3.12,0,0,1,1.91.59,3,3,0,0,1,1.08,1.73l-.25.08.11-.33a2.79,2.79,0,0,1,.78-1,4.43,4.43,0,0,1,1.25-.77,3.76,3.76,0,0,1,1.42-.29,3.07,3.07,0,0,1,1.83.49,2.78,2.78,0,0,1,1,1.3,5.13,5.13,0,0,1,.31,1.85v5.09a.54.54,0,0,1-.15.38.5.5,0,0,1-.39.16.49.49,0,0,1-.38-.16.51.51,0,0,1-.16-.38v-5a3.68,3.68,0,0,0-.23-1.35,2.06,2.06,0,0,0-.74-1,2.25,2.25,0,0,0-1.35-.36,3,3,0,0,0-1.41.36,3,3,0,0,0-1.1,1,2.34,2.34,0,0,0-.42,1.35v5a.54.54,0,0,1-.15.38.53.53,0,0,1-.39.16.5.5,0,0,1-.39-.16.54.54,0,0,1-.15-.38V37.45a3.71,3.71,0,0,0-.22-1.33,2,2,0,0,0-.7-.95,2.21,2.21,0,0,0-1.31-.35,3,3,0,0,0-2.46,1.3,2.3,2.3,0,0,0-.41,1.33v5.09a.55.55,0,0,1-.54.54.48.48,0,0,1-.39-.16.54.54,0,0,1-.15-.38V34.48a.51.51,0,0,1,.16-.38.49.49,0,0,1,.38-.16.5.5,0,0,1,.39.16.54.54,0,0,1,.15.38v1.67l-.48.67a2.68,2.68,0,0,1,.35-1.08,3.62,3.62,0,0,1,.78-1,4.1,4.1,0,0,1,1.11-.7A3.39,3.39,0,0,1,147,33.81Z"/><path class="cls-9" d="M163.2,43.26a4.88,4.88,0,0,1-2.45-.59A4.27,4.27,0,0,1,159.09,41a5.05,5.05,0,0,1-.59-2.48,5.3,5.3,0,0,1,.6-2.61,4.44,4.44,0,0,1,1.57-1.67,3.85,3.85,0,0,1,2-.58,4.28,4.28,0,0,1,1.54.28,3.65,3.65,0,0,1,1.32.83,4.09,4.09,0,0,1,.94,1.34,4.73,4.73,0,0,1,.38,1.83.51.51,0,0,1-.16.37.55.55,0,0,1-.38.15h-7.22l-.22-1H166l-.24.22v-.36a2.75,2.75,0,0,0-.56-1.44,2.94,2.94,0,0,0-1.12-.9,3.31,3.31,0,0,0-1.38-.31,3.22,3.22,0,0,0-1.11.22,2.91,2.91,0,0,0-1,.67,3.47,3.47,0,0,0-.75,1.17,4.56,4.56,0,0,0-.29,1.69,4.21,4.21,0,0,0,.44,1.92,3.28,3.28,0,0,0,1.24,1.37,3.59,3.59,0,0,0,2,.5,3.33,3.33,0,0,0,1.12-.17,3.61,3.61,0,0,0,.89-.48,3.71,3.71,0,0,0,.63-.62.62.62,0,0,1,.38-.16.44.44,0,0,1,.34.14.45.45,0,0,1,.13.32.49.49,0,0,1-.18.38,5,5,0,0,1-1.4,1.13A4,4,0,0,1,163.2,43.26Z"/><path class="cls-9" d="M173.33,33.67a3.36,3.36,0,0,1,1.9.48,2.67,2.67,0,0,1,1,1.29,5,5,0,0,1,.32,1.81v5.29a.51.51,0,0,1-.16.38.52.52,0,0,1-.38.16.51.51,0,0,1-.4-.16.57.57,0,0,1-.14-.38V37.3a3.51,3.51,0,0,0-.24-1.31,2,2,0,0,0-.76-1,2.43,2.43,0,0,0-1.39-.36,3.13,3.13,0,0,0-1.47.36,3.18,3.18,0,0,0-1.13,1,2.25,2.25,0,0,0-.43,1.31v5.24a.55.55,0,0,1-.54.54.47.47,0,0,1-.39-.16.54.54,0,0,1-.15-.38V34.48a.54.54,0,0,1,.15-.38.51.51,0,0,1,.39-.16.5.5,0,0,1,.39.16.54.54,0,0,1,.15.38V36l-.41.65a2.22,2.22,0,0,1,.37-1.11,3.8,3.8,0,0,1,.85-1,4.33,4.33,0,0,1,1.16-.67A3.68,3.68,0,0,1,173.33,33.67Z"/><path class="cls-9" d="M178.43,33.92h4.19a.46.46,0,0,1,.36.15.53.53,0,0,1,.15.37.47.47,0,0,1-.15.35.49.49,0,0,1-.36.14h-4.19a.5.5,0,0,1-.37-.15.51.51,0,0,1-.15-.36.45.45,0,0,1,.15-.35A.5.5,0,0,1,178.43,33.92Zm1.85-2.54a.53.53,0,0,1,.39.16.55.55,0,0,1,.15.38v9a1.61,1.61,0,0,0,.14.75.68.68,0,0,0,.35.34,1.31,1.31,0,0,0,.43.08.71.71,0,0,0,.26-.05.75.75,0,0,1,.26,0,.38.38,0,0,1,.28.12.48.48,0,0,1,.12.33.49.49,0,0,1-.29.42,1.25,1.25,0,0,1-.68.17l-.49,0a2,2,0,0,1-.67-.2,1.4,1.4,0,0,1-.56-.61,2.71,2.71,0,0,1-.23-1.24V31.92a.52.52,0,0,1,.16-.38A.53.53,0,0,1,180.28,31.38Z"/><path class="cls-9" d="M193,38.47a5,5,0,0,1-.6,2.46,4.47,4.47,0,0,1-1.63,1.71,4.33,4.33,0,0,1-2.32.62,4.4,4.4,0,0,1-4-2.33,5.27,5.27,0,0,1,0-4.92,4.54,4.54,0,0,1,1.63-1.71,4.39,4.39,0,0,1,2.32-.63,4.34,4.34,0,0,1,2.32.63A4.62,4.62,0,0,1,192.41,36,5,5,0,0,1,193,38.47Zm-1.08,0a4.12,4.12,0,0,0-.45-1.95,3.49,3.49,0,0,0-1.23-1.35,3.5,3.5,0,0,0-3.57,0,3.59,3.59,0,0,0-1.24,1.35,4.13,4.13,0,0,0-.46,1.95,4.07,4.07,0,0,0,.46,2,3.64,3.64,0,0,0,1.24,1.34,3.5,3.5,0,0,0,3.57,0,3.53,3.53,0,0,0,1.23-1.34A4.07,4.07,0,0,0,191.93,38.47Z"/><path class="cls-9" d="M204.23,43.26a4.86,4.86,0,0,1-2.45-.59A4.27,4.27,0,0,1,200.12,41a5.05,5.05,0,0,1-.59-2.48,5.3,5.3,0,0,1,.6-2.61,4.36,4.36,0,0,1,1.57-1.67,3.85,3.85,0,0,1,2-.58,4.28,4.28,0,0,1,1.54.28,3.65,3.65,0,0,1,1.32.83,4.24,4.24,0,0,1,.94,1.34,4.73,4.73,0,0,1,.38,1.83.48.48,0,0,1-.17.37.51.51,0,0,1-.37.15h-7.22l-.22-1H207l-.23.22v-.36a2.75,2.75,0,0,0-.56-1.44,3,3,0,0,0-1.12-.9,3.31,3.31,0,0,0-1.38-.31,3.22,3.22,0,0,0-1.11.22,2.83,2.83,0,0,0-1,.67,3.47,3.47,0,0,0-.75,1.17,4.56,4.56,0,0,0-.29,1.69,4.33,4.33,0,0,0,.43,1.92,3.37,3.37,0,0,0,1.25,1.37,3.59,3.59,0,0,0,2,.5,3.13,3.13,0,0,0,2-.65,3.45,3.45,0,0,0,.64-.62.59.59,0,0,1,.38-.16.42.42,0,0,1,.33.14.47.47,0,0,1,.14.32.49.49,0,0,1-.18.38,5,5,0,0,1-1.4,1.13A4,4,0,0,1,204.23,43.26Z"/><path class="cls-9" d="M214.36,33.67a3.36,3.36,0,0,1,1.9.48,2.67,2.67,0,0,1,1,1.29,5,5,0,0,1,.32,1.81v5.29a.55.55,0,0,1-.16.38.52.52,0,0,1-.38.16.51.51,0,0,1-.4-.16.53.53,0,0,1-.14-.38V37.3a3.51,3.51,0,0,0-.24-1.31,2,2,0,0,0-.76-1,2.46,2.46,0,0,0-1.4-.36A3.29,3.29,0,0,0,211.53,36a2.19,2.19,0,0,0-.43,1.31v5.24a.51.51,0,0,1-.16.38.52.52,0,0,1-.38.16.51.51,0,0,1-.4-.16.57.57,0,0,1-.14-.38V34.48a.54.54,0,0,1,.15-.38.5.5,0,0,1,.39-.16.51.51,0,0,1,.39.16.54.54,0,0,1,.15.38V36l-.41.65a2.31,2.31,0,0,1,.36-1.11,4.05,4.05,0,0,1,.86-1,4.18,4.18,0,0,1,1.16-.67A3.68,3.68,0,0,1,214.36,33.67Z"/><path class="cls-9" d="M232.21,33.94a.5.5,0,0,1,.39.16.54.54,0,0,1,.15.38v5.07a3.5,3.5,0,0,1-1,2.72,3.79,3.79,0,0,1-2.71.94,3.74,3.74,0,0,1-2.69-.94,3.53,3.53,0,0,1-1-2.72V34.48a.54.54,0,0,1,.15-.38.5.5,0,0,1,.39-.16.49.49,0,0,1,.38.16.51.51,0,0,1,.16.38v5.07A2.37,2.37,0,0,0,229,42.2a2.68,2.68,0,0,0,1.94-.67,2.61,2.61,0,0,0,.7-2V34.48a.54.54,0,0,1,.15-.38A.47.47,0,0,1,232.21,33.94Z"/><path class="cls-9" d="M239.72,33.67a3.34,3.34,0,0,1,1.9.48,2.68,2.68,0,0,1,1,1.29,5,5,0,0,1,.31,1.81v5.29a.51.51,0,0,1-.16.38.52.52,0,0,1-.38.16.51.51,0,0,1-.4-.16.57.57,0,0,1-.14-.38V37.3a3.72,3.72,0,0,0-.23-1.31,2.05,2.05,0,0,0-.77-1,2.43,2.43,0,0,0-1.39-.36A3.13,3.13,0,0,0,238,35a3.18,3.18,0,0,0-1.13,1,2.25,2.25,0,0,0-.43,1.31v5.24a.55.55,0,0,1-.54.54.47.47,0,0,1-.39-.16.54.54,0,0,1-.15-.38V34.48a.51.51,0,0,1,.16-.38.49.49,0,0,1,.38-.16.5.5,0,0,1,.39.16.54.54,0,0,1,.15.38V36l-.41.65a2.22,2.22,0,0,1,.37-1.11,3.8,3.8,0,0,1,.85-1,4.33,4.33,0,0,1,1.16-.67A3.68,3.68,0,0,1,239.72,33.67Z"/><path class="cls-9" d="M253.13,33.88a.54.54,0,0,1,.39.17.56.56,0,0,1,.15.39v8.1a.55.55,0,0,1-.16.38.52.52,0,0,1-.38.16.51.51,0,0,1-.4-.16.57.57,0,0,1-.14-.38V40.4l.3-.14a2.1,2.1,0,0,1-.28,1,3.61,3.61,0,0,1-.76,1,3.71,3.71,0,0,1-1.14.73,3.58,3.58,0,0,1-1.43.28,3.86,3.86,0,0,1-2.17-.63,4.21,4.21,0,0,1-1.51-1.72,5.43,5.43,0,0,1-.55-2.47A5.33,5.33,0,0,1,245.6,36a4.41,4.41,0,0,1,1.52-1.68,3.85,3.85,0,0,1,2.14-.61,3.84,3.84,0,0,1,2.63,1,3.58,3.58,0,0,1,.79,1.07A2.9,2.9,0,0,1,253,37l-.38-.27V34.44a.6.6,0,0,1,.14-.39A.51.51,0,0,1,253.13,33.88Zm-3.75,8.37a3,3,0,0,0,1.7-.49,3.48,3.48,0,0,0,1.16-1.37,4.43,4.43,0,0,0,.42-2,4.22,4.22,0,0,0-.42-1.91,3.63,3.63,0,0,0-1.16-1.35,2.93,2.93,0,0,0-1.7-.5,3.05,3.05,0,0,0-1.68.48,3.36,3.36,0,0,0-1.17,1.33,4.37,4.37,0,0,0-.42,1.95,4.57,4.57,0,0,0,.41,2,3.4,3.4,0,0,0,1.16,1.37A3,3,0,0,0,249.38,42.25Z"/><path class="cls-9" d="M260.89,41.62a.64.64,0,0,1-.14-.42.39.39,0,0,1,.23-.33.43.43,0,0,1,.33-.11.54.54,0,0,1,.35.18,3.85,3.85,0,0,0,1.18,1,3.3,3.3,0,0,0,1.65.38,2.87,2.87,0,0,0,1-.17,1.84,1.84,0,0,0,.82-.52,1.38,1.38,0,0,0,0-1.79,2.14,2.14,0,0,0-.83-.54c-.35-.13-.71-.24-1.09-.34s-.81-.23-1.19-.37a4.44,4.44,0,0,1-1-.52,2.6,2.6,0,0,1-.71-.77,2.09,2.09,0,0,1-.27-1.1,2.22,2.22,0,0,1,.42-1.33,2.8,2.8,0,0,1,1.12-.9,3.92,3.92,0,0,1,1.61-.32,4.28,4.28,0,0,1,1,.12,3.79,3.79,0,0,1,1,.38,3,3,0,0,1,.9.74.5.5,0,0,1,.16.37.49.49,0,0,1-.18.37.52.52,0,0,1-.33.11.41.41,0,0,1-.32-.15,2.88,2.88,0,0,0-1-.74,3.39,3.39,0,0,0-1.28-.25,2.88,2.88,0,0,0-1,.17,2,2,0,0,0-.77.52,1.3,1.3,0,0,0-.3.9,1.17,1.17,0,0,0,.37.84,2.44,2.44,0,0,0,.88.54,9.88,9.88,0,0,0,1.23.4,9.56,9.56,0,0,1,1.11.34,3.58,3.58,0,0,1,.93.5,2,2,0,0,1,.65.74,2.29,2.29,0,0,1,.25,1.14,2.17,2.17,0,0,1-.45,1.37A2.84,2.84,0,0,1,266,43a4.35,4.35,0,0,1-1.64.3,4.68,4.68,0,0,1-1.88-.38A3.93,3.93,0,0,1,260.89,41.62Z"/><path class="cls-9" d="M276.46,33.94a.53.53,0,0,1,.39.16.54.54,0,0,1,.15.38v5.07a3.53,3.53,0,0,1-1,2.72,3.81,3.81,0,0,1-2.72.94,3.77,3.77,0,0,1-2.69-.94,3.56,3.56,0,0,1-1-2.72V34.48a.51.51,0,0,1,.16-.38.49.49,0,0,1,.38-.16.5.5,0,0,1,.39.16.54.54,0,0,1,.15.38v5.07a2.39,2.39,0,0,0,2.61,2.65,2.7,2.7,0,0,0,2-.67,2.61,2.61,0,0,0,.7-2V34.48a.57.57,0,0,1,.14-.38A.51.51,0,0,1,276.46,33.94Z"/><path class="cls-9" d="M279,41.62a.64.64,0,0,1-.14-.42.39.39,0,0,1,.23-.33.43.43,0,0,1,.33-.11.57.57,0,0,1,.35.18A3.85,3.85,0,0,0,281,42a3.3,3.3,0,0,0,1.65.38,2.87,2.87,0,0,0,1-.17,1.84,1.84,0,0,0,.82-.52,1.38,1.38,0,0,0,0-1.79,2.14,2.14,0,0,0-.83-.54c-.35-.13-.71-.24-1.09-.34s-.81-.23-1.19-.37a4.25,4.25,0,0,1-1-.52,2.6,2.6,0,0,1-.71-.77,2.09,2.09,0,0,1-.27-1.1,2.22,2.22,0,0,1,.42-1.33,2.8,2.8,0,0,1,1.12-.9,3.92,3.92,0,0,1,1.61-.32,4.35,4.35,0,0,1,1,.12,3.79,3.79,0,0,1,1,.38,3.15,3.15,0,0,1,.9.74.5.5,0,0,1,.16.37.49.49,0,0,1-.18.37.57.57,0,0,1-.33.11.41.41,0,0,1-.32-.15,2.88,2.88,0,0,0-1-.74,3.39,3.39,0,0,0-1.28-.25,2.84,2.84,0,0,0-1,.17,2,2,0,0,0-.77.52,1.3,1.3,0,0,0-.3.9,1.17,1.17,0,0,0,.37.84,2.44,2.44,0,0,0,.88.54,9.88,9.88,0,0,0,1.23.4,10.19,10.19,0,0,1,1.11.34,3.75,3.75,0,0,1,.93.5,2.11,2.11,0,0,1,.65.74,2.4,2.4,0,0,1,.25,1.14,2.17,2.17,0,0,1-.45,1.37,2.84,2.84,0,0,1-1.17.88,4.35,4.35,0,0,1-1.64.3,4.68,4.68,0,0,1-1.88-.38A3.93,3.93,0,0,1,279,41.62Z"/><path class="cls-9" d="M287.4,33.92h4.2a.49.49,0,0,1,.36.15.57.57,0,0,1,.14.37.5.5,0,0,1-.14.35.52.52,0,0,1-.36.14h-4.2a.53.53,0,0,1-.37-.15.51.51,0,0,1-.15-.36.45.45,0,0,1,.15-.35A.53.53,0,0,1,287.4,33.92Zm1.86-2.54a.53.53,0,0,1,.38.16.52.52,0,0,1,.16.38v9a1.63,1.63,0,0,0,.13.75.72.72,0,0,0,.35.34,1.35,1.35,0,0,0,.43.08.76.76,0,0,0,.27-.05.68.68,0,0,1,.26,0,.39.39,0,0,1,.28.12.52.52,0,0,1,.11.33.47.47,0,0,1-.29.42,1.25,1.25,0,0,1-.68.17l-.49,0a2,2,0,0,1-.66-.2,1.36,1.36,0,0,1-.57-.61,2.72,2.72,0,0,1-.22-1.24V31.92a.55.55,0,0,1,.15-.38A.53.53,0,0,1,289.26,31.38Z"/><path class="cls-9" d="M301,33.88a.5.5,0,0,1,.38.17.57.57,0,0,1,.16.39v8.1a.52.52,0,0,1-.17.38.49.49,0,0,1-.37.16.51.51,0,0,1-.4-.16.53.53,0,0,1-.14-.38V40.4l.3-.14a2.1,2.1,0,0,1-.28,1,3.61,3.61,0,0,1-.76,1,3.89,3.89,0,0,1-1.15.73,3.51,3.51,0,0,1-1.43.28,3.91,3.91,0,0,1-2.17-.63,4.36,4.36,0,0,1-1.51-1.72,5.57,5.57,0,0,1-.55-2.47,5.33,5.33,0,0,1,.56-2.48A4.39,4.39,0,0,1,295,34.28a3.88,3.88,0,0,1,2.15-.61,3.8,3.8,0,0,1,1.44.27,3.75,3.75,0,0,1,1.18.74,3.61,3.61,0,0,1,.8,1.07,2.89,2.89,0,0,1,.28,1.25l-.37-.27V34.44a.55.55,0,0,1,.14-.39A.51.51,0,0,1,301,33.88Zm-3.75,8.37a2.94,2.94,0,0,0,1.69-.49,3.32,3.32,0,0,0,1.16-1.37,4.3,4.3,0,0,0,.43-2,4.1,4.1,0,0,0-.43-1.91A3.46,3.46,0,0,0,299,35.18a2.88,2.88,0,0,0-1.69-.5,3.05,3.05,0,0,0-1.68.48,3.36,3.36,0,0,0-1.17,1.33,4.37,4.37,0,0,0-.42,1.95,4.42,4.42,0,0,0,.41,2,3.32,3.32,0,0,0,1.16,1.37A3,3,0,0,0,297.27,42.25Z"/><path class="cls-9" d="M308.56,33.67a3.31,3.31,0,0,1,1.89.48,2.63,2.63,0,0,1,1,1.29,5,5,0,0,1,.32,1.81v5.29a.52.52,0,0,1-.17.38.49.49,0,0,1-.37.16.51.51,0,0,1-.4-.16.53.53,0,0,1-.14-.38V37.3a3.51,3.51,0,0,0-.24-1.31,2,2,0,0,0-.76-1,2.46,2.46,0,0,0-1.4-.36,3.19,3.19,0,0,0-1.47.36,3.14,3.14,0,0,0-1.12,1,2.19,2.19,0,0,0-.43,1.31v5.24a.55.55,0,0,1-.16.38.52.52,0,0,1-.38.16.51.51,0,0,1-.4-.16.57.57,0,0,1-.14-.38V34.48a.54.54,0,0,1,.15-.38.5.5,0,0,1,.39-.16.49.49,0,0,1,.38.16.51.51,0,0,1,.16.38V36l-.42.65a2.44,2.44,0,0,1,.37-1.11,3.84,3.84,0,0,1,.86-1,4.18,4.18,0,0,1,1.16-.67A3.6,3.6,0,0,1,308.56,33.67Z"/><path class="cls-9" d="M318.47,33.67a6.13,6.13,0,0,1,1.59.19,3.56,3.56,0,0,1,1.16.51.91.91,0,0,1,.44.7.56.56,0,0,1-.14.35.39.39,0,0,1-.33.17.58.58,0,0,1-.37-.1,3.07,3.07,0,0,1-.26-.25,1.21,1.21,0,0,0-.38-.28,3.53,3.53,0,0,0-.67-.19,5,5,0,0,0-1-.09,3.31,3.31,0,0,0-1.81.5,3.64,3.64,0,0,0-1.28,1.36,4,4,0,0,0-.47,1.92,4.23,4.23,0,0,0,.44,1.94,3.4,3.4,0,0,0,1.24,1.36,3.46,3.46,0,0,0,1.85.49,4.1,4.1,0,0,0,1.12-.12,3.38,3.38,0,0,0,.68-.29,1.6,1.6,0,0,0,.51-.39.52.52,0,0,1,.41-.19.46.46,0,0,1,.34.14.51.51,0,0,1,.12.35.93.93,0,0,1-.42.64,3.79,3.79,0,0,1-1.16.61,5,5,0,0,1-1.71.26,4.37,4.37,0,0,1-2.35-.63,4.3,4.3,0,0,1-1.58-1.72,5.18,5.18,0,0,1-.57-2.45,5,5,0,0,1,.58-2.4,4.44,4.44,0,0,1,1.6-1.73A4.35,4.35,0,0,1,318.47,33.67Z"/><path class="cls-9" d="M324,32.52a.81.81,0,0,1-.56-.17.63.63,0,0,1-.19-.5v-.18a.58.58,0,0,1,.21-.49A.8.8,0,0,1,324,31a.72.72,0,0,1,.53.18.6.6,0,0,1,.19.49v.18a.63.63,0,0,1-.19.5A.8.8,0,0,1,324,32.52Zm.54,10a.51.51,0,0,1-.16.38.53.53,0,0,1-.76,0,.55.55,0,0,1-.16-.38V34.26a.57.57,0,0,1,.16-.38.53.53,0,0,1,.38-.16.53.53,0,0,1,.39.16.55.55,0,0,1,.15.38Z"/><path class="cls-9" d="M334.69,33.88a.51.51,0,0,1,.39.17.56.56,0,0,1,.15.39v8.1a.55.55,0,0,1-.54.54.48.48,0,0,1-.39-.16.54.54,0,0,1-.15-.38V40.4l.31-.14a2.1,2.1,0,0,1-.28,1,3.82,3.82,0,0,1-.76,1,3.89,3.89,0,0,1-1.15.73,3.51,3.51,0,0,1-1.43.28,3.88,3.88,0,0,1-2.17-.63,4.36,4.36,0,0,1-1.51-1.72,5.57,5.57,0,0,1-.55-2.47,5.33,5.33,0,0,1,.56-2.48,4.39,4.39,0,0,1,1.51-1.68,4,4,0,0,1,3.59-.34,3.75,3.75,0,0,1,1.18.74,3.42,3.42,0,0,1,.79,1.07,2.76,2.76,0,0,1,.29,1.25l-.38-.27V34.44a.56.56,0,0,1,.15-.39A.49.49,0,0,1,334.69,33.88ZM331,42.25a2.94,2.94,0,0,0,1.69-.49,3.4,3.4,0,0,0,1.16-1.37,4.3,4.3,0,0,0,.43-2,4.1,4.1,0,0,0-.43-1.91,3.55,3.55,0,0,0-1.16-1.35,2.88,2.88,0,0,0-1.69-.5,3.05,3.05,0,0,0-1.68.48,3.36,3.36,0,0,0-1.17,1.33,4.24,4.24,0,0,0-.43,1.95,4.43,4.43,0,0,0,.42,2,3.25,3.25,0,0,0,1.16,1.37A3,3,0,0,0,331,42.25Z"/><path class="cls-9" d="M344.16,42.54a.55.55,0,0,1-.54.54.53.53,0,0,1-.39-.16.54.54,0,0,1-.15-.38V30.3a.55.55,0,0,1,.54-.54.53.53,0,0,1,.39.16.55.55,0,0,1,.15.38Z"/><path class="cls-9" d="M348,42.54a.55.55,0,0,1-.16.38.52.52,0,0,1-.38.16.5.5,0,0,1-.39-.16.54.54,0,0,1-.15-.38V30.3a.52.52,0,0,1,.16-.38.55.55,0,0,1,.38-.16.57.57,0,0,1,.39.16.55.55,0,0,1,.15.38Z"/><path class="cls-9" d="M358.29,33.88a.54.54,0,0,1,.39.17.56.56,0,0,1,.15.39v8.1a.55.55,0,0,1-.16.38.52.52,0,0,1-.38.16.51.51,0,0,1-.4-.16.57.57,0,0,1-.14-.38V40.4l.31-.14a2.21,2.21,0,0,1-.28,1,3.66,3.66,0,0,1-.77,1,3.71,3.71,0,0,1-1.14.73,3.58,3.58,0,0,1-1.43.28,3.86,3.86,0,0,1-2.17-.63,4.29,4.29,0,0,1-1.51-1.72,5.43,5.43,0,0,1-.55-2.47,5.21,5.21,0,0,1,.56-2.48,4.31,4.31,0,0,1,1.51-1.68,3.93,3.93,0,0,1,4.77.4,3.58,3.58,0,0,1,.79,1.07,2.9,2.9,0,0,1,.29,1.25l-.38-.27V34.44a.6.6,0,0,1,.14-.39A.51.51,0,0,1,358.29,33.88Zm-3.74,8.37a3,3,0,0,0,1.69-.49,3.4,3.4,0,0,0,1.16-1.37,4.43,4.43,0,0,0,.42-2,4.22,4.22,0,0,0-.42-1.91,3.55,3.55,0,0,0-1.16-1.35,2.92,2.92,0,0,0-1.69-.5,3.06,3.06,0,0,0-1.69.48,3.36,3.36,0,0,0-1.17,1.33,4.37,4.37,0,0,0-.42,1.95,4.57,4.57,0,0,0,.41,2,3.4,3.4,0,0,0,1.16,1.37A3,3,0,0,0,354.55,42.25Z"/><path class="cls-9" d="M365.63,33.81a3.12,3.12,0,0,1,1.91.59,3,3,0,0,1,1.08,1.73l-.25.08.11-.33a2.68,2.68,0,0,1,.78-1,4.3,4.3,0,0,1,1.25-.77,3.76,3.76,0,0,1,1.42-.29,3.07,3.07,0,0,1,1.83.49,2.78,2.78,0,0,1,1,1.3,5.13,5.13,0,0,1,.31,1.85v5.09a.54.54,0,0,1-.15.38.5.5,0,0,1-.39.16.53.53,0,0,1-.39-.16.54.54,0,0,1-.15-.38v-5a3.9,3.9,0,0,0-.23-1.35,2.06,2.06,0,0,0-.74-1,2.29,2.29,0,0,0-1.35-.36,3,3,0,0,0-1.41.36,3,3,0,0,0-1.1,1,2.34,2.34,0,0,0-.42,1.35v5a.55.55,0,0,1-.16.38.49.49,0,0,1-.38.16.5.5,0,0,1-.39-.16.54.54,0,0,1-.15-.38V37.45a3.94,3.94,0,0,0-.22-1.33,2,2,0,0,0-.7-.95,2.25,2.25,0,0,0-1.32-.35,3,3,0,0,0-2.45,1.3,2.3,2.3,0,0,0-.41,1.33v5.09a.55.55,0,0,1-.54.54.47.47,0,0,1-.39-.16.54.54,0,0,1-.15-.38V34.48a.51.51,0,0,1,.16-.38.49.49,0,0,1,.38-.16.5.5,0,0,1,.39.16.54.54,0,0,1,.15.38v1.67l-.48.67a2.68,2.68,0,0,1,.35-1.08,3.62,3.62,0,0,1,.78-1,4,4,0,0,1,1.11-.7A3.39,3.39,0,0,1,365.63,33.81Z"/><path class="cls-9" d="M385.26,33.88a.54.54,0,0,1,.39.17.56.56,0,0,1,.15.39v8.1a.55.55,0,0,1-.16.38.52.52,0,0,1-.38.16.51.51,0,0,1-.4-.16.57.57,0,0,1-.14-.38V40.4l.3-.14a2.19,2.19,0,0,1-.27,1,3.66,3.66,0,0,1-.77,1,3.71,3.71,0,0,1-1.14.73,3.58,3.58,0,0,1-1.43.28,3.86,3.86,0,0,1-2.17-.63,4.29,4.29,0,0,1-1.51-1.72,5.43,5.43,0,0,1-.55-2.47,5.33,5.33,0,0,1,.55-2.48,4.41,4.41,0,0,1,1.52-1.68,3.85,3.85,0,0,1,2.14-.61,3.84,3.84,0,0,1,2.63,1,3.58,3.58,0,0,1,.79,1.07A2.9,2.9,0,0,1,385.1,37l-.38-.27V34.44a.6.6,0,0,1,.14-.39A.51.51,0,0,1,385.26,33.88Zm-3.74,8.37a3,3,0,0,0,1.69-.49,3.4,3.4,0,0,0,1.16-1.37,4.43,4.43,0,0,0,.42-2,4.22,4.22,0,0,0-.42-1.91,3.55,3.55,0,0,0-1.16-1.35,2.92,2.92,0,0,0-1.69-.5,3.06,3.06,0,0,0-1.69.48,3.36,3.36,0,0,0-1.17,1.33,4.37,4.37,0,0,0-.42,1.95,4.57,4.57,0,0,0,.41,2,3.4,3.4,0,0,0,1.16,1.37A3,3,0,0,0,381.52,42.25Z"/><path class="cls-9" d="M396,29.76a.55.55,0,0,1,.54.54V42.54a.52.52,0,0,1-.17.38.49.49,0,0,1-.37.16.51.51,0,0,1-.4-.16.53.53,0,0,1-.14-.38V40.4l.3-.25a2.34,2.34,0,0,1-.27,1.05,3.48,3.48,0,0,1-.76,1,4.08,4.08,0,0,1-1.15.75,3.43,3.43,0,0,1-1.44.29,3.86,3.86,0,0,1-2.15-.63,4.51,4.51,0,0,1-1.52-1.71,5.68,5.68,0,0,1,0-4.92A4.42,4.42,0,0,1,390,34.29a3.91,3.91,0,0,1,2.15-.62,3.78,3.78,0,0,1,1.42.27,4,4,0,0,1,1.18.74,3.65,3.65,0,0,1,.81,1.07,2.77,2.77,0,0,1,.3,1.25l-.38-.27V30.3a.51.51,0,0,1,.54-.54Zm-3.75,12.49a2.94,2.94,0,0,0,1.69-.49,3.43,3.43,0,0,0,1.17-1.35,4.71,4.71,0,0,0,0-3.89A3.43,3.43,0,0,0,394,35.17a2.94,2.94,0,0,0-1.69-.49,3,3,0,0,0-1.68.49,3.35,3.35,0,0,0-1.17,1.35,4.69,4.69,0,0,0,0,3.88,3.31,3.31,0,0,0,1.17,1.36A3,3,0,0,0,392.26,42.25Z"/><path class="cls-9" d="M406.75,33.88a.51.51,0,0,1,.39.17.56.56,0,0,1,.15.39v8.1a.55.55,0,0,1-.54.54.48.48,0,0,1-.39-.16.54.54,0,0,1-.15-.38V40.4l.31-.14a2.1,2.1,0,0,1-.28,1,3.82,3.82,0,0,1-.76,1,3.89,3.89,0,0,1-1.15.73,3.51,3.51,0,0,1-1.43.28,3.88,3.88,0,0,1-2.17-.63,4.36,4.36,0,0,1-1.51-1.72,5.57,5.57,0,0,1-.55-2.47,5.33,5.33,0,0,1,.56-2.48,4.39,4.39,0,0,1,1.51-1.68,4,4,0,0,1,3.59-.34,3.75,3.75,0,0,1,1.18.74,3.42,3.42,0,0,1,.79,1.07,2.76,2.76,0,0,1,.29,1.25l-.38-.27V34.44a.56.56,0,0,1,.15-.39A.49.49,0,0,1,406.75,33.88ZM403,42.25a2.94,2.94,0,0,0,1.69-.49,3.4,3.4,0,0,0,1.16-1.37,4.3,4.3,0,0,0,.43-2,4.1,4.1,0,0,0-.43-1.91,3.55,3.55,0,0,0-1.16-1.35,2.88,2.88,0,0,0-1.69-.5,3,3,0,0,0-1.68.48,3.36,3.36,0,0,0-1.17,1.33,4.24,4.24,0,0,0-.43,1.95,4.43,4.43,0,0,0,.42,2,3.25,3.25,0,0,0,1.16,1.37A3,3,0,0,0,403,42.25Z"/><path class="cls-9" d="M22.79,53.85a.5.5,0,0,1,.39.16.57.57,0,0,1,.15.4V66.14a.55.55,0,0,1-.54.54.47.47,0,0,1-.39-.16.54.54,0,0,1-.15-.38V60.4l.31-.25a2.34,2.34,0,0,1-.27,1.05,3.52,3.52,0,0,1-.77,1,3.94,3.94,0,0,1-1.15.75,3.42,3.42,0,0,1-1.43.29,3.84,3.84,0,0,1-2.15-.63,4.42,4.42,0,0,1-1.52-1.71,5.68,5.68,0,0,1,0-4.92,4.26,4.26,0,0,1,1.51-1.71,3.86,3.86,0,0,1,2.14-.62,3.7,3.7,0,0,1,1.42.27,3.87,3.87,0,0,1,1.18.74,3.65,3.65,0,0,1,.81,1.07,2.77,2.77,0,0,1,.3,1.25l-.38-.27V54.41a.57.57,0,0,1,.15-.4A.47.47,0,0,1,22.79,53.85Zm-3.74,8.4a3,3,0,0,0,1.69-.49,3.4,3.4,0,0,0,1.16-1.35,4.71,4.71,0,0,0,0-3.89,3.4,3.4,0,0,0-1.16-1.35,3.16,3.16,0,0,0-3.38,0,3.51,3.51,0,0,0-1.17,1.35,4.69,4.69,0,0,0,0,3.88,3.47,3.47,0,0,0,1.17,1.36A3,3,0,0,0,19.05,62.25Z"/><path class="cls-9" d="M32.85,53.94a.49.49,0,0,1,.38.16.51.51,0,0,1,.16.38v5.07a3.53,3.53,0,0,1-1,2.72,3.81,3.81,0,0,1-2.72.94A3.75,3.75,0,0,1,27,62.27a3.53,3.53,0,0,1-1-2.72V54.48a.54.54,0,0,1,.15-.38.53.53,0,0,1,.39-.16.5.5,0,0,1,.39.16.54.54,0,0,1,.15.38v5.07a2.37,2.37,0,0,0,2.61,2.65,2.7,2.7,0,0,0,1.95-.67,2.65,2.65,0,0,0,.7-2V54.48a.57.57,0,0,1,.14-.38A.51.51,0,0,1,32.85,53.94Z"/><path class="cls-9" d="M36.5,52.52a.81.81,0,0,1-.56-.17.63.63,0,0,1-.19-.5v-.18a.58.58,0,0,1,.2-.49.85.85,0,0,1,.57-.18.74.74,0,0,1,.53.18.6.6,0,0,1,.19.49v.18a.63.63,0,0,1-.19.5A.82.82,0,0,1,36.5,52.52Zm.54,10a.55.55,0,0,1-.54.54.53.53,0,0,1-.39-.16.54.54,0,0,1-.15-.38V54.26a.55.55,0,0,1,.15-.38.57.57,0,0,1,.39-.16.53.53,0,0,1,.39.16.55.55,0,0,1,.15.38Z"/><path class="cls-9" d="M43.83,53.81a3.12,3.12,0,0,1,1.91.59,3,3,0,0,1,1.08,1.73l-.25.08.11-.33a2.79,2.79,0,0,1,.78-1,4.43,4.43,0,0,1,1.25-.77,3.76,3.76,0,0,1,1.42-.29A3.07,3.07,0,0,1,52,54.3a2.78,2.78,0,0,1,1,1.3,5.13,5.13,0,0,1,.31,1.85v5.09a.54.54,0,0,1-.15.38.5.5,0,0,1-.39.16.49.49,0,0,1-.38-.16.51.51,0,0,1-.16-.38v-5A3.68,3.68,0,0,0,52,56.15a2.06,2.06,0,0,0-.74-1,2.25,2.25,0,0,0-1.35-.36,3,3,0,0,0-1.41.36,3,3,0,0,0-1.1,1A2.34,2.34,0,0,0,47,57.5v5a.54.54,0,0,1-.15.38.53.53,0,0,1-.39.16.5.5,0,0,1-.39-.16.54.54,0,0,1-.15-.38V57.45a3.71,3.71,0,0,0-.22-1.33,2,2,0,0,0-.7-.95,2.21,2.21,0,0,0-1.31-.35,3,3,0,0,0-2.46,1.3,2.3,2.3,0,0,0-.41,1.33v5.09a.55.55,0,0,1-.54.54.48.48,0,0,1-.39-.16.54.54,0,0,1-.15-.38V54.48a.51.51,0,0,1,.16-.38.49.49,0,0,1,.38-.16.5.5,0,0,1,.39.16.54.54,0,0,1,.15.38v1.67l-.48.67a2.68,2.68,0,0,1,.35-1.08,3.62,3.62,0,0,1,.78-1,4.1,4.1,0,0,1,1.11-.7A3.39,3.39,0,0,1,43.83,53.81Z"/><path class="cls-9" d="M64.46,58.47a4.88,4.88,0,0,1-.61,2.46,4.4,4.4,0,0,1-1.63,1.71,4.63,4.63,0,0,1-4.63,0A4.42,4.42,0,0,1,56,60.93,5.34,5.34,0,0,1,56,56a4.57,4.57,0,0,1,1.64-1.71,4.57,4.57,0,0,1,4.63,0A4.54,4.54,0,0,1,63.85,56,4.88,4.88,0,0,1,64.46,58.47Zm-1.08,0a4.12,4.12,0,0,0-.45-1.95,3.44,3.44,0,0,0-1.24-1.35,3.27,3.27,0,0,0-1.79-.49,3.23,3.23,0,0,0-1.77.49,3.51,3.51,0,0,0-1.24,1.35,4,4,0,0,0-.46,1.95,4,4,0,0,0,.46,2,3.56,3.56,0,0,0,1.24,1.34,3.23,3.23,0,0,0,1.77.49,3.27,3.27,0,0,0,1.79-.49,3.48,3.48,0,0,0,1.24-1.34A4.07,4.07,0,0,0,63.38,58.47Z"/><path class="cls-9" d="M67.79,63a2.16,2.16,0,0,1-.15.78,2.73,2.73,0,0,1-1,1.23,1.12,1.12,0,0,1-.58.18.57.57,0,0,1-.32-.09.34.34,0,0,1-.15-.3q0-.28.21-.33a2.37,2.37,0,0,0,.44-.16,1,1,0,0,0,.39-.38,1.08,1.08,0,0,0,.13-.52.43.43,0,0,0-.11-.32.36.36,0,0,0-.28-.13.78.78,0,0,0-.26,0,.7.7,0,0,0-.23.11,1.56,1.56,0,0,1-.16-.2.39.39,0,0,1-.06-.27.7.7,0,0,1,.18-.39,1.19,1.19,0,0,1,.38-.27,1.32,1.32,0,0,1,.47-.1,1,1,0,0,1,.77.3A1.14,1.14,0,0,1,67.79,63Z"/><path class="cls-9" d="M76,62.54a.55.55,0,0,1-.54.54.53.53,0,0,1-.39-.16.54.54,0,0,1-.15-.38V50.3a.55.55,0,0,1,.54-.54.53.53,0,0,1,.39.16.55.55,0,0,1,.15.38Z"/><path class="cls-9" d="M86.27,53.88a.51.51,0,0,1,.39.17.56.56,0,0,1,.15.39v8.1a.55.55,0,0,1-.54.54.47.47,0,0,1-.39-.16.54.54,0,0,1-.15-.38V60.4l.31-.14a2.21,2.21,0,0,1-.28,1,3.66,3.66,0,0,1-.77,1,3.71,3.71,0,0,1-1.14.73,3.54,3.54,0,0,1-1.43.28,3.88,3.88,0,0,1-2.17-.63,4.29,4.29,0,0,1-1.51-1.72,5.43,5.43,0,0,1-.55-2.47A5.33,5.33,0,0,1,78.75,56a4.31,4.31,0,0,1,1.51-1.68,3.93,3.93,0,0,1,4.77.4,3.58,3.58,0,0,1,.79,1.07A2.9,2.9,0,0,1,86.11,57l-.38-.27V54.44a.56.56,0,0,1,.15-.39A.48.48,0,0,1,86.27,53.88Zm-3.74,8.37a3,3,0,0,0,1.69-.49,3.4,3.4,0,0,0,1.16-1.37,4.43,4.43,0,0,0,.42-2,4.22,4.22,0,0,0-.42-1.91,3.55,3.55,0,0,0-1.16-1.35,2.9,2.9,0,0,0-1.69-.5,3.06,3.06,0,0,0-1.69.48,3.52,3.52,0,0,0-1.17,1.33,4.37,4.37,0,0,0-.42,1.95,4.43,4.43,0,0,0,.42,2,3.25,3.25,0,0,0,1.16,1.37A3,3,0,0,0,82.53,62.25Z"/><path class="cls-9" d="M98.53,53.67a6,6,0,0,1,1.58.19,3.38,3.38,0,0,1,1.16.51.9.9,0,0,1,.45.7.56.56,0,0,1-.14.35.39.39,0,0,1-.33.17.58.58,0,0,1-.37-.1,3.07,3.07,0,0,1-.26-.25,1.34,1.34,0,0,0-.38-.28,3.45,3.45,0,0,0-.68-.19,4.88,4.88,0,0,0-1-.09,3.31,3.31,0,0,0-1.81.5,3.64,3.64,0,0,0-1.28,1.36A4,4,0,0,0,95,58.46a4.23,4.23,0,0,0,.44,1.94,3.33,3.33,0,0,0,1.24,1.36,3.46,3.46,0,0,0,1.85.49,4.1,4.1,0,0,0,1.12-.12,3.38,3.38,0,0,0,.68-.29,1.6,1.6,0,0,0,.51-.39.52.52,0,0,1,.41-.19.46.46,0,0,1,.34.14.51.51,0,0,1,.12.35.93.93,0,0,1-.42.64,3.79,3.79,0,0,1-1.16.61,5,5,0,0,1-1.71.26,4.37,4.37,0,0,1-2.35-.63,4.23,4.23,0,0,1-1.58-1.72,5.18,5.18,0,0,1-.57-2.45,5,5,0,0,1,.58-2.4,4.44,4.44,0,0,1,1.6-1.73A4.35,4.35,0,0,1,98.53,53.67Z"/><path class="cls-9" d="M110.41,53.94a.49.49,0,0,1,.38.16.51.51,0,0,1,.16.38v5.07a3.53,3.53,0,0,1-1,2.72,3.81,3.81,0,0,1-2.72.94,3.75,3.75,0,0,1-2.69-.94,3.53,3.53,0,0,1-1-2.72V54.48a.54.54,0,0,1,.15-.38.51.51,0,0,1,.39-.16.5.5,0,0,1,.39.16.54.54,0,0,1,.15.38v5.07a2.75,2.75,0,0,0,4.55,2,2.62,2.62,0,0,0,.71-2V54.48a.53.53,0,0,1,.14-.38A.51.51,0,0,1,110.41,53.94Z"/><path class="cls-9" d="M121.09,53.88a.51.51,0,0,1,.39.17.56.56,0,0,1,.15.39v8.1a.55.55,0,0,1-.54.54.48.48,0,0,1-.39-.16.54.54,0,0,1-.15-.38V60.4l.31-.14a2.1,2.1,0,0,1-.28,1,3.82,3.82,0,0,1-.76,1,3.89,3.89,0,0,1-1.15.73,3.54,3.54,0,0,1-1.43.28,3.88,3.88,0,0,1-2.17-.63,4.36,4.36,0,0,1-1.51-1.72,5.43,5.43,0,0,1-.55-2.47,5.33,5.33,0,0,1,.56-2.48,4.39,4.39,0,0,1,1.51-1.68,4,4,0,0,1,3.59-.34,3.75,3.75,0,0,1,1.18.74,3.42,3.42,0,0,1,.79,1.07,2.76,2.76,0,0,1,.29,1.25l-.38-.27V54.44a.56.56,0,0,1,.15-.39A.49.49,0,0,1,121.09,53.88Zm-3.74,8.37a2.94,2.94,0,0,0,1.69-.49,3.4,3.4,0,0,0,1.16-1.37,4.43,4.43,0,0,0,.43-2,4.23,4.23,0,0,0-.43-1.91A3.55,3.55,0,0,0,119,55.18a2.88,2.88,0,0,0-1.69-.5,3,3,0,0,0-1.68.48,3.36,3.36,0,0,0-1.17,1.33,4.24,4.24,0,0,0-.43,1.95,4.43,4.43,0,0,0,.42,2,3.25,3.25,0,0,0,1.16,1.37A3,3,0,0,0,117.35,62.25Z"/><path class="cls-9" d="M125.43,62.54a.55.55,0,0,1-.16.38.52.52,0,0,1-.38.16.5.5,0,0,1-.39-.16.54.54,0,0,1-.15-.38V50.3a.52.52,0,0,1,.16-.38.55.55,0,0,1,.38-.16.57.57,0,0,1,.39.16.55.55,0,0,1,.15.38Z"/><path class="cls-9" d="M137.67,53.81a3.9,3.9,0,0,1,2.17.61,4.28,4.28,0,0,1,1.5,1.65,5.53,5.53,0,0,1,0,4.85,4.39,4.39,0,0,1-1.51,1.68,4,4,0,0,1-2.14.61,3.68,3.68,0,0,1-1.2-.19,4.57,4.57,0,0,1-1-.51,4,4,0,0,1-.82-.77,3.62,3.62,0,0,1-.58-1l.32-.24v5.6a.54.54,0,0,1-.15.38.5.5,0,0,1-.39.16.49.49,0,0,1-.38-.16.55.55,0,0,1-.16-.38V54.41a.57.57,0,0,1,.15-.4.48.48,0,0,1,.39-.16.5.5,0,0,1,.39.16.57.57,0,0,1,.15.4v1.94l-.25-.14a3.09,3.09,0,0,1,.53-1,3.69,3.69,0,0,1,.82-.76,3.73,3.73,0,0,1,1-.48A4.47,4.47,0,0,1,137.67,53.81Zm-.09,1a3.06,3.06,0,0,0-1.71.48,3.36,3.36,0,0,0-1.16,1.29,4.12,4.12,0,0,0-.43,1.9,4.23,4.23,0,0,0,.43,1.91,3.25,3.25,0,0,0,1.16,1.32,3.06,3.06,0,0,0,1.71.48,3,3,0,0,0,1.68-.48,3.32,3.32,0,0,0,1.16-1.32,4.1,4.1,0,0,0,.44-1.91,4.05,4.05,0,0,0-.44-1.89,3.4,3.4,0,0,0-1.16-1.3A3,3,0,0,0,137.58,54.82Z"/><path class="cls-9" d="M151.56,53.88a.51.51,0,0,1,.39.17.56.56,0,0,1,.15.39v8.1a.55.55,0,0,1-.54.54.48.48,0,0,1-.39-.16.54.54,0,0,1-.15-.38V60.4l.31-.14a2.1,2.1,0,0,1-.28,1,3.82,3.82,0,0,1-.76,1,3.89,3.89,0,0,1-1.15.73,3.51,3.51,0,0,1-1.43.28,3.91,3.91,0,0,1-2.17-.63A4.36,4.36,0,0,1,144,60.91a5.57,5.57,0,0,1-.55-2.47A5.33,5.33,0,0,1,144,56a4.39,4.39,0,0,1,1.51-1.68,4,4,0,0,1,3.59-.34,3.75,3.75,0,0,1,1.18.74,3.42,3.42,0,0,1,.79,1.07A2.76,2.76,0,0,1,151.4,57l-.38-.27V54.44a.56.56,0,0,1,.15-.39A.49.49,0,0,1,151.56,53.88Zm-3.74,8.37a2.94,2.94,0,0,0,1.69-.49,3.4,3.4,0,0,0,1.16-1.37,4.3,4.3,0,0,0,.43-2,4.1,4.1,0,0,0-.43-1.91,3.55,3.55,0,0,0-1.16-1.35,2.88,2.88,0,0,0-1.69-.5,3.05,3.05,0,0,0-1.68.48A3.36,3.36,0,0,0,145,56.49a4.37,4.37,0,0,0-.43,1.95,4.43,4.43,0,0,0,.42,2,3.25,3.25,0,0,0,1.16,1.37A3,3,0,0,0,147.82,62.25Z"/><path class="cls-9" d="M154.22,61.62a.7.7,0,0,1-.14-.42.39.39,0,0,1,.23-.33.43.43,0,0,1,.33-.11.54.54,0,0,1,.35.18,3.85,3.85,0,0,0,1.18,1,3.3,3.3,0,0,0,1.65.38,2.92,2.92,0,0,0,1-.17,1.89,1.89,0,0,0,.82-.52,1.41,1.41,0,0,0,0-1.79,2.26,2.26,0,0,0-.84-.54,10.72,10.72,0,0,0-1.09-.34c-.41-.11-.81-.23-1.19-.37a4.44,4.44,0,0,1-1-.52,2.6,2.6,0,0,1-.71-.77,2.09,2.09,0,0,1-.27-1.1,2.22,2.22,0,0,1,.42-1.33,2.8,2.8,0,0,1,1.12-.9,4,4,0,0,1,1.61-.32,4.44,4.44,0,0,1,1,.12,3.85,3.85,0,0,1,1,.38,3,3,0,0,1,.9.74.5.5,0,0,1,.16.37.49.49,0,0,1-.18.37.52.52,0,0,1-.33.11.41.41,0,0,1-.32-.15,2.88,2.88,0,0,0-1-.74,3.39,3.39,0,0,0-1.28-.25,2.88,2.88,0,0,0-1,.17,1.88,1.88,0,0,0-.76.52,1.26,1.26,0,0,0-.31.9,1.22,1.22,0,0,0,.37.84,2.44,2.44,0,0,0,.88.54A10.46,10.46,0,0,0,158,58a9,9,0,0,1,1.11.34,3.82,3.82,0,0,1,.94.5,2.09,2.09,0,0,1,.64.74,2.29,2.29,0,0,1,.25,1.14,2.22,2.22,0,0,1-.44,1.37,2.94,2.94,0,0,1-1.18.88,4.32,4.32,0,0,1-1.64.3,4.68,4.68,0,0,1-1.88-.38A4,4,0,0,1,154.22,61.62Z"/><path class="cls-9" d="M170.52,53.88a.51.51,0,0,1,.39.17.56.56,0,0,1,.15.39v8.1a.55.55,0,0,1-.54.54.47.47,0,0,1-.39-.16.54.54,0,0,1-.15-.38V60.4l.31-.14a2.21,2.21,0,0,1-.28,1,3.66,3.66,0,0,1-.77,1,3.71,3.71,0,0,1-1.14.73,3.54,3.54,0,0,1-1.43.28,3.88,3.88,0,0,1-2.17-.63A4.36,4.36,0,0,1,163,60.91a5.43,5.43,0,0,1-.55-2.47A5.33,5.33,0,0,1,163,56a4.31,4.31,0,0,1,1.51-1.68,3.93,3.93,0,0,1,4.77.4,3.42,3.42,0,0,1,.79,1.07,2.9,2.9,0,0,1,.29,1.25l-.38-.27V54.44a.56.56,0,0,1,.15-.39A.48.48,0,0,1,170.52,53.88Zm-3.74,8.37a3,3,0,0,0,1.69-.49,3.4,3.4,0,0,0,1.16-1.37,4.43,4.43,0,0,0,.42-2,4.22,4.22,0,0,0-.42-1.91,3.55,3.55,0,0,0-1.16-1.35,2.9,2.9,0,0,0-1.69-.5,3,3,0,0,0-1.68.48,3.36,3.36,0,0,0-1.17,1.33,4.24,4.24,0,0,0-.43,1.95,4.43,4.43,0,0,0,.42,2,3.25,3.25,0,0,0,1.16,1.37A3,3,0,0,0,166.78,62.25Z"/><path class="cls-9" d="M186.27,53.88a.51.51,0,0,1,.39.17.56.56,0,0,1,.15.39v8.1a.55.55,0,0,1-.54.54.47.47,0,0,1-.39-.16.54.54,0,0,1-.15-.38V60.4l.31-.14a2.21,2.21,0,0,1-.28,1,3.66,3.66,0,0,1-.77,1,3.71,3.71,0,0,1-1.14.73,3.54,3.54,0,0,1-1.43.28,3.88,3.88,0,0,1-2.17-.63,4.36,4.36,0,0,1-1.51-1.72,5.43,5.43,0,0,1-.55-2.47,5.33,5.33,0,0,1,.56-2.48,4.31,4.31,0,0,1,1.51-1.68,3.93,3.93,0,0,1,4.77.4,3.42,3.42,0,0,1,.79,1.07,2.9,2.9,0,0,1,.29,1.25l-.38-.27V54.44a.56.56,0,0,1,.15-.39A.48.48,0,0,1,186.27,53.88Zm-3.74,8.37a3,3,0,0,0,1.69-.49,3.4,3.4,0,0,0,1.16-1.37,4.43,4.43,0,0,0,.42-2,4.22,4.22,0,0,0-.42-1.91,3.55,3.55,0,0,0-1.16-1.35,2.9,2.9,0,0,0-1.69-.5,3,3,0,0,0-1.68.48,3.36,3.36,0,0,0-1.17,1.33,4.24,4.24,0,0,0-.43,1.95,4.43,4.43,0,0,0,.42,2,3.25,3.25,0,0,0,1.16,1.37A3,3,0,0,0,182.53,62.25Z"/><path class="cls-9" d="M190.61,62.54a.55.55,0,0,1-.16.38.52.52,0,0,1-.38.16.5.5,0,0,1-.39-.16.54.54,0,0,1-.15-.38V50.3a.52.52,0,0,1,.16-.38.55.55,0,0,1,.38-.16.53.53,0,0,1,.38.16.52.52,0,0,1,.16.38Z"/><path class="cls-9" d="M199.16,52.28a1.39,1.39,0,0,1-.87-.2.86.86,0,0,1-.25-.7V51a.79.79,0,0,1,.28-.71,1.52,1.52,0,0,1,.86-.19,1.48,1.48,0,0,1,.88.2.83.83,0,0,1,.25.7v.34a.8.8,0,0,1-.27.71A1.55,1.55,0,0,1,199.16,52.28Zm1.1,9.71a1.1,1.1,0,0,1-.31.78,1.12,1.12,0,0,1-1.55,0,1.09,1.09,0,0,1-.3-.78V54.55a1.09,1.09,0,0,1,.3-.78,1.1,1.1,0,0,1,1.55,0,1.1,1.1,0,0,1,.31.78Z"/><path class="cls-9" d="M207.61,53.27a3.16,3.16,0,0,1,2,.56,2.83,2.83,0,0,1,1,1.49,7.69,7.69,0,0,1,.26,2.06V62a1.06,1.06,0,0,1-.31.78,1,1,0,0,1-.77.31,1.06,1.06,0,0,1-.78-.31,1.09,1.09,0,0,1-.3-.78V57.38a3.5,3.5,0,0,0-.15-1.07,1.55,1.55,0,0,0-.55-.77,2,2,0,0,0-1.14-.29,2.38,2.38,0,0,0-1.21.29,2,2,0,0,0-.76.77,2.2,2.2,0,0,0-.26,1.07V62a1.06,1.06,0,0,1-.31.78,1.11,1.11,0,0,1-1.54,0,1.06,1.06,0,0,1-.31-.78V54.55a1.06,1.06,0,0,1,.31-.78,1.09,1.09,0,0,1,1.54,0,1.06,1.06,0,0,1,.31.78v.78l-.27-.06a3.74,3.74,0,0,1,.47-.66,4.14,4.14,0,0,1,.72-.65,3.61,3.61,0,0,1,.93-.5A3.49,3.49,0,0,1,207.61,53.27Z"/><path class="cls-9" d="M213,53.63h4.26a1,1,0,0,1,.72.29.94.94,0,0,1,.29.72.88.88,0,0,1-.29.69,1,1,0,0,1-.72.28H213a1,1,0,0,1-.72-.28,1,1,0,0,1-.29-.72,1,1,0,0,1,.29-.7A1,1,0,0,1,213,53.63Zm1.92-2.25a1,1,0,0,1,.77.32,1.09,1.09,0,0,1,.3.78v8a.77.77,0,0,0,.1.42.58.58,0,0,0,.26.23.94.94,0,0,0,.37.07,1,1,0,0,0,.4-.08,1.07,1.07,0,0,1,.41-.08.62.62,0,0,1,.46.23,1,1,0,0,1,.21.65,1,1,0,0,1-.55.83,2.35,2.35,0,0,1-1.18.32,6.35,6.35,0,0,1-.83-.06,2.12,2.12,0,0,1-.87-.31,1.87,1.87,0,0,1-.67-.74,3,3,0,0,1-.27-1.39v-8.1a1.08,1.08,0,0,1,1.09-1.1Z"/><path class="cls-9" d="M224.23,63.26a5.23,5.23,0,0,1-2.65-.64,4.36,4.36,0,0,1-1.73-1.73,5.1,5.1,0,0,1-.6-2.49,5.52,5.52,0,0,1,.65-2.76,4.69,4.69,0,0,1,1.72-1.76,4.53,4.53,0,0,1,2.25-.61,4.16,4.16,0,0,1,1.74.38,4.65,4.65,0,0,1,1.45,1,5,5,0,0,1,1,1.52,4.67,4.67,0,0,1,.37,1.83.92.92,0,0,1-.35.7,1.11,1.11,0,0,1-.75.27h-6.88l-.54-1.8h6.61l-.4.37v-.49a1.58,1.58,0,0,0-.37-.94,2.39,2.39,0,0,0-.82-.65,2.3,2.3,0,0,0-1.06-.25,3.33,3.33,0,0,0-1,.15,1.87,1.87,0,0,0-.8.48,2.36,2.36,0,0,0-.54.92,4.36,4.36,0,0,0-.2,1.46,3.15,3.15,0,0,0,.4,1.65,2.79,2.79,0,0,0,2.4,1.37,3.9,3.9,0,0,0,1.07-.11,2.24,2.24,0,0,0,.64-.26c.16-.1.3-.19.44-.26a1.32,1.32,0,0,1,.61-.16.9.9,0,0,1,.92.9,1.12,1.12,0,0,1-.51.88A4.09,4.09,0,0,1,226,63,5.49,5.49,0,0,1,224.23,63.26Z"/><path class="cls-9" d="M229.54,61.59a1,1,0,0,1-.17-.65.89.89,0,0,1,.47-.68,1,1,0,0,1,.61-.16,1,1,0,0,1,.63.34,4.26,4.26,0,0,0,1.1.81,3.24,3.24,0,0,0,1.44.29,5.16,5.16,0,0,0,.6-.09,1.1,1.1,0,0,0,.56-.28.91.91,0,0,0,.24-.7.79.79,0,0,0-.26-.63,2.22,2.22,0,0,0-.72-.39c-.29-.11-.62-.21-1-.31l-1.14-.36a4.59,4.59,0,0,1-1.07-.51,2.36,2.36,0,0,1-.79-.84,2.49,2.49,0,0,1-.31-1.31,2.35,2.35,0,0,1,.51-1.53,3.18,3.18,0,0,1,1.3-1,4.18,4.18,0,0,1,1.68-.35,5.41,5.41,0,0,1,1.17.14,4.45,4.45,0,0,1,1.17.43,2.87,2.87,0,0,1,.94.78,1.27,1.27,0,0,1,.23.65.75.75,0,0,1-.34.68.84.84,0,0,1-.63.19.9.9,0,0,1-.59-.24,2.28,2.28,0,0,0-.82-.63,2.92,2.92,0,0,0-1.18-.23,3.19,3.19,0,0,0-.59.06,1.07,1.07,0,0,0-.54.27,1,1,0,0,0,0,1.31,1.88,1.88,0,0,0,.73.4l1,.3c.36.09.73.21,1.1.34a4.74,4.74,0,0,1,1,.52,2.53,2.53,0,0,1,.75.84,2.66,2.66,0,0,1,.29,1.3,2.38,2.38,0,0,1-.54,1.57,3.42,3.42,0,0,1-1.35,1,4.35,4.35,0,0,1-1.66.33,6.36,6.36,0,0,1-2.12-.37A3.6,3.6,0,0,1,229.54,61.59Z"/><path class="cls-9" d="M238.91,53.63h4.26a1,1,0,0,1,1,1,.91.91,0,0,1-.29.69,1,1,0,0,1-.72.28h-4.26a1,1,0,0,1-1-1,.91.91,0,0,1,.29-.7A1,1,0,0,1,238.91,53.63Zm1.92-2.25a1,1,0,0,1,.77.32,1.12,1.12,0,0,1,.29.78v8a.87.87,0,0,0,.1.42.67.67,0,0,0,.27.23.94.94,0,0,0,.37.07,1,1,0,0,0,.4-.08,1.07,1.07,0,0,1,.41-.08.62.62,0,0,1,.46.23,1,1,0,0,1-.34,1.48,2.35,2.35,0,0,1-1.18.32,6.62,6.62,0,0,1-.84-.06,2.13,2.13,0,0,1-.86-.31A1.89,1.89,0,0,1,240,62a3,3,0,0,1-.27-1.39v-8.1a1.09,1.09,0,0,1,1.1-1.1Z"/><path class="cls-9" d="M246.83,52.28a1.38,1.38,0,0,1-.86-.2.83.83,0,0,1-.25-.7V51a.79.79,0,0,1,.28-.71,2,2,0,0,1,1.73,0,.83.83,0,0,1,.25.7v.34a.8.8,0,0,1-.26.71A1.59,1.59,0,0,1,246.83,52.28Zm1.1,9.71a1.09,1.09,0,0,1-.3.78,1.06,1.06,0,0,1-.78.31,1,1,0,0,1-.77-.31,1.06,1.06,0,0,1-.31-.78V54.55a1.06,1.06,0,0,1,.31-.78,1,1,0,0,1,.77-.32,1.06,1.06,0,0,1,.78.32,1.09,1.09,0,0,1,.3.78Z"/><path class="cls-9" d="M255.28,53.27a3.19,3.19,0,0,1,2,.56,2.82,2.82,0,0,1,.95,1.49,7.3,7.3,0,0,1,.26,2.06V62a1.09,1.09,0,0,1-.3.78,1,1,0,0,1-.78.31,1,1,0,0,1-.77-.31,1.1,1.1,0,0,1-.31-.78V57.38a3.5,3.5,0,0,0-.15-1.07,1.44,1.44,0,0,0-.55-.77,1.9,1.9,0,0,0-1.13-.29,2.42,2.42,0,0,0-1.22.29,1.91,1.91,0,0,0-.75.77,2.1,2.1,0,0,0-.26,1.07V62a1.1,1.1,0,0,1-.31.78,1,1,0,0,1-.77.31,1,1,0,0,1-.78-.31,1.09,1.09,0,0,1-.3-.78V54.55a1.09,1.09,0,0,1,.3-.78,1,1,0,0,1,.78-.32,1,1,0,0,1,.77.32,1.1,1.1,0,0,1,.31.78v.78l-.27-.06a3.63,3.63,0,0,1,.46-.66,5,5,0,0,1,.72-.65,3.67,3.67,0,0,1,.94-.5A3.48,3.48,0,0,1,255.28,53.27Z"/><path class="cls-9" d="M270,58.28a5.05,5.05,0,0,1-.66,2.6,4.62,4.62,0,0,1-1.76,1.75,5.18,5.18,0,0,1-4.95,0,4.62,4.62,0,0,1-1.76-1.75,5.45,5.45,0,0,1,0-5.2,4.75,4.75,0,0,1,1.76-1.77,5.11,5.11,0,0,1,4.95,0,4.75,4.75,0,0,1,1.76,1.77A5,5,0,0,1,270,58.28Zm-2.16,0a3.23,3.23,0,0,0-.37-1.6,2.71,2.71,0,0,0-1-1,2.68,2.68,0,0,0-2.75,0,2.64,2.64,0,0,0-1,1,3.23,3.23,0,0,0-.37,1.6,3.17,3.17,0,0,0,.37,1.57,2.73,2.73,0,0,0,1,1.06,2.74,2.74,0,0,0,2.75,0,2.81,2.81,0,0,0,1-1.06A3.17,3.17,0,0,0,267.87,58.28Z"/><path class="cls-9" d="M284.66,49.76a1,1,0,0,1,1.08,1.1V62a1.09,1.09,0,0,1-.3.78,1,1,0,0,1-.78.31,1,1,0,0,1-.77-.31,1.1,1.1,0,0,1-.31-.78V61.1l.4.16a1,1,0,0,1-.25.57,3.66,3.66,0,0,1-.69.66,4.2,4.2,0,0,1-1,.55,3.53,3.53,0,0,1-1.27.22,4.07,4.07,0,0,1-2.25-.64,4.47,4.47,0,0,1-1.6-1.76,6.07,6.07,0,0,1,0-5.18,4.6,4.6,0,0,1,1.58-1.77,4,4,0,0,1,2.2-.64,4.28,4.28,0,0,1,2.54.83,3.21,3.21,0,0,1,.74.73,1.19,1.19,0,0,1,.26.62l-.65.23V50.86a1.1,1.1,0,0,1,.31-.78A1,1,0,0,1,284.66,49.76ZM281,61.28a2.43,2.43,0,0,0,1.38-.39,2.71,2.71,0,0,0,.93-1.08,3.76,3.76,0,0,0,0-3.08,2.59,2.59,0,0,0-.93-1.08,2.56,2.56,0,0,0-2.75,0,2.59,2.59,0,0,0-.93,1.08,3.76,3.76,0,0,0,0,3.08,2.71,2.71,0,0,0,.93,1.08A2.44,2.44,0,0,0,281,61.28Z"/><path class="cls-9" d="M292.48,63.26a5.24,5.24,0,0,1-2.66-.64,4.36,4.36,0,0,1-1.73-1.73,5.1,5.1,0,0,1-.6-2.49,5.42,5.42,0,0,1,.66-2.76,4.67,4.67,0,0,1,1.71-1.76,4.53,4.53,0,0,1,2.25-.61,4.09,4.09,0,0,1,1.74.38,4.65,4.65,0,0,1,1.45,1,5,5,0,0,1,1,1.52,4.5,4.5,0,0,1,.37,1.83.91.91,0,0,1-.34.7,1.16,1.16,0,0,1-.76.27h-6.88l-.54-1.8h6.61l-.4.37v-.49a1.63,1.63,0,0,0-.36-.94,2.53,2.53,0,0,0-.83-.65,2.27,2.27,0,0,0-1.06-.25,3.27,3.27,0,0,0-1,.15,1.85,1.85,0,0,0-.81.48,2.36,2.36,0,0,0-.54.92,4.36,4.36,0,0,0-.2,1.46,3.15,3.15,0,0,0,.4,1.65,2.79,2.79,0,0,0,2.41,1.37,3.87,3.87,0,0,0,1.06-.11,2.13,2.13,0,0,0,.64-.26l.44-.26a1.35,1.35,0,0,1,.61-.16.9.9,0,0,1,.92.9,1.12,1.12,0,0,1-.51.88,4.09,4.09,0,0,1-1.31.7A5.43,5.43,0,0,1,292.48,63.26Z"/><path class="cls-9" d="M300.6,62a1.08,1.08,0,0,1-1.1,1.09,1,1,0,0,1-.76-.31,1.09,1.09,0,0,1-.3-.78V50.86a1.06,1.06,0,0,1,.31-.78,1.07,1.07,0,0,1,.79-.32,1,1,0,0,1,.76.32,1.09,1.09,0,0,1,.3.78Z"/><path class="cls-9" d="M306.92,53.27a3.85,3.85,0,0,1,1.38.24,3.78,3.78,0,0,1,1.09.59,3.29,3.29,0,0,1,.72.73,1.11,1.11,0,0,1,.26.62l-.46.23V54.37a1.09,1.09,0,0,1,.3-.78,1,1,0,0,1,.77-.32,1,1,0,0,1,.78.31,1.08,1.08,0,0,1,.3.79v8a4.24,4.24,0,0,1-.67,2.51,3.81,3.81,0,0,1-1.77,1.37,6.55,6.55,0,0,1-2.36.42,6.45,6.45,0,0,1-.94-.09c-.38-.06-.75-.13-1.09-.21a7.66,7.66,0,0,1-.8-.24,1.46,1.46,0,0,1-.74-.58.86.86,0,0,1-.08-.75,1.1,1.1,0,0,1,.52-.71.89.89,0,0,1,.75,0l.6.22a8.09,8.09,0,0,0,.91.3,3.34,3.34,0,0,0,.87.13,3.08,3.08,0,0,0,2-.54,1.85,1.85,0,0,0,.65-1.49V61.1l.21.16a1,1,0,0,1-.24.57,3.5,3.5,0,0,1-.67.66,4.12,4.12,0,0,1-1,.55,3.3,3.3,0,0,1-1.22.22,4.22,4.22,0,0,1-2.3-.64,4.47,4.47,0,0,1-1.63-1.76,6,6,0,0,1,0-5.18,4.67,4.67,0,0,1,1.61-1.77A4.16,4.16,0,0,1,306.92,53.27Zm.34,2a2.51,2.51,0,0,0-1.42.4,2.65,2.65,0,0,0-1,1.08,3.66,3.66,0,0,0,0,3.08,2.79,2.79,0,0,0,1,1.08,2.59,2.59,0,0,0,1.42.39,2.63,2.63,0,0,0,1.44-.39,2.69,2.69,0,0,0,.95-1.08,3.56,3.56,0,0,0,0-3.08,2.57,2.57,0,0,0-2.39-1.48Z"/><path class="cls-9" d="M322.18,53.27a1,1,0,0,1,.77.31,1.09,1.09,0,0,1,.31.79V62a1.1,1.1,0,0,1-.31.78,1,1,0,0,1-.77.31,1,1,0,0,1-.78-.31,1.09,1.09,0,0,1-.3-.78V61.1l.39.16a1,1,0,0,1-.25.57,3.91,3.91,0,0,1-.68.66,4.48,4.48,0,0,1-1,.55,3.49,3.49,0,0,1-1.27.22,4.07,4.07,0,0,1-2.25-.64,4.45,4.45,0,0,1-1.59-1.76,6,6,0,0,1,0-5.18A4.58,4.58,0,0,1,316,53.91a4,4,0,0,1,2.2-.64,4.07,4.07,0,0,1,1.42.24,4,4,0,0,1,1.12.59,3.21,3.21,0,0,1,.74.73,1.11,1.11,0,0,1,.26.62l-.64.23V54.37a1.09,1.09,0,0,1,.3-.78A1,1,0,0,1,322.18,53.27Zm-3.64,8a2.49,2.49,0,0,0,1.39-.39,2.77,2.77,0,0,0,.92-1.08,3.66,3.66,0,0,0,0-3.08,2.64,2.64,0,0,0-.92-1.08,2.41,2.41,0,0,0-1.39-.4,2.37,2.37,0,0,0-1.37.4,2.74,2.74,0,0,0-.93,1.08,3.76,3.76,0,0,0,0,3.08,2.88,2.88,0,0,0,.93,1.08A2.44,2.44,0,0,0,318.54,61.28Z"/><path class="cls-9" d="M333.37,49.76a1.06,1.06,0,0,1,.77.31,1.09,1.09,0,0,1,.31.79V62a1.1,1.1,0,0,1-.31.78,1,1,0,0,1-.77.31,1,1,0,0,1-.78-.31,1.09,1.09,0,0,1-.3-.78V61.1l.39.16a1,1,0,0,1-.25.57,3.91,3.91,0,0,1-.68.66,4.48,4.48,0,0,1-1,.55,3.49,3.49,0,0,1-1.27.22,4.07,4.07,0,0,1-2.25-.64,4.45,4.45,0,0,1-1.59-1.76,6,6,0,0,1,0-5.18,4.58,4.58,0,0,1,1.57-1.77,4,4,0,0,1,2.2-.64,4.07,4.07,0,0,1,1.42.24,4.16,4.16,0,0,1,1.13.59,3.35,3.35,0,0,1,.73.73,1.11,1.11,0,0,1,.26.62l-.64.23V50.86a1.09,1.09,0,0,1,.3-.78A1,1,0,0,1,333.37,49.76Zm-3.64,11.52a2.49,2.49,0,0,0,1.39-.39,2.77,2.77,0,0,0,.92-1.08,3.66,3.66,0,0,0,0-3.08,2.64,2.64,0,0,0-.92-1.08,2.41,2.41,0,0,0-1.39-.4,2.37,2.37,0,0,0-1.37.4,2.64,2.64,0,0,0-.92,1.08,3.66,3.66,0,0,0,0,3.08,2.77,2.77,0,0,0,.92,1.08A2.44,2.44,0,0,0,329.73,61.28Z"/><path class="cls-9" d="M346,58.28a5,5,0,0,1-.65,2.6,4.72,4.72,0,0,1-1.77,1.75,5.18,5.18,0,0,1-4.95,0,4.76,4.76,0,0,1-1.76-1.75,5.45,5.45,0,0,1,0-5.2,4.9,4.9,0,0,1,1.76-1.77,5.11,5.11,0,0,1,4.95,0,4.85,4.85,0,0,1,1.77,1.77A5,5,0,0,1,346,58.28Zm-2.16,0a3.23,3.23,0,0,0-.37-1.6,2.69,2.69,0,0,0-1-1,2.7,2.7,0,0,0-2.76,0,2.78,2.78,0,0,0-1,1,3.35,3.35,0,0,0-.37,1.6,3.28,3.28,0,0,0,.37,1.57,2.89,2.89,0,0,0,1,1.06,2.76,2.76,0,0,0,2.76,0,2.78,2.78,0,0,0,1-1.06A3.17,3.17,0,0,0,343.82,58.28Z"/><path class="cls-9" d="M347.55,63.08a.55.55,0,0,1-.47-.2.75.75,0,0,1-.16-.5V62a.72.72,0,0,1,.16-.5.6.6,0,0,1,.47-.18h.12a.6.6,0,0,1,.47.18.72.72,0,0,1,.16.5v.38a.75.75,0,0,1-.16.5.55.55,0,0,1-.47.2Z"/></g></g></g></svg>