<svg xmlns="http://www.w3.org/2000/svg" viewBox="0 0 197.59 71"><defs><style>.cls-1{isolation:isolate;}.cls-2{opacity:0.3;mix-blend-mode:multiply;}.cls-3{fill:#fff;}.cls-4{fill:#f7931e;}</style></defs><title>lab03-tit1</title><g class="cls-1"><g id="Layer_2" data-name="Layer 2"><g id="Layer_1-2" data-name="Layer 1"><g class="cls-2"><rect x="4" y="4" width="193.59" height="67" rx="12" ry="12"/></g><rect class="cls-3" width="193.59" height="67" rx="12" ry="12"/><rect class="cls-4" x="4.03" y="3.07" width="185.53" height="60.87" rx="11.19" ry="11.19"/><path class="cls-3" d="M36,39.76a1.49,1.49,0,0,1,1.05.4,1.42,1.42,0,0,1,0,2,1.48,1.48,0,0,1-1.05.39h-7.8a1.43,1.43,0,0,1-1.46-1.46V27.24a1.4,1.4,0,0,1,.43-1,1.52,1.52,0,0,1,1.1-.42,1.42,1.42,0,0,1,1,.42,1.38,1.38,0,0,1,.45,1V40.17l-.53-.41Z"/><path class="cls-3" d="M49.68,29.49A1.4,1.4,0,0,1,51.12,31V41.11a1.41,1.41,0,0,1-.41,1,1.36,1.36,0,0,1-1,.42,1.38,1.38,0,0,1-1-.42,1.45,1.45,0,0,1-.41-1V39.93l.53.22a1.29,1.29,0,0,1-.34.75,4.26,4.26,0,0,1-.91.88,5.41,5.41,0,0,1-1.35.73,4.71,4.71,0,0,1-1.7.3,5.49,5.49,0,0,1-3-.85,6,6,0,0,1-2.12-2.35,8,8,0,0,1,0-6.91,6.1,6.1,0,0,1,2.1-2.36,5.36,5.36,0,0,1,2.93-.85,5.67,5.67,0,0,1,1.89.31,5.61,5.61,0,0,1,1.5.8,4.36,4.36,0,0,1,1,1,1.56,1.56,0,0,1,.35.83l-.87.31V31a1.46,1.46,0,0,1,.41-1.05A1.38,1.38,0,0,1,49.68,29.49ZM44.83,40.17a3.19,3.19,0,0,0,1.85-.53,3.56,3.56,0,0,0,1.24-1.44,4.63,4.63,0,0,0,.44-2,4.75,4.75,0,0,0-.44-2.06,3.56,3.56,0,0,0-1.24-1.44,3.44,3.44,0,0,0-3.67,0,3.56,3.56,0,0,0-1.24,1.44,4.75,4.75,0,0,0-.44,2.06,4.63,4.63,0,0,0,.44,2A3.56,3.56,0,0,0,43,39.64,3.16,3.16,0,0,0,44.83,40.17Z"/><path class="cls-3" d="M71.35,24.81a1.39,1.39,0,0,1,1.44,1.47V41.11a1.44,1.44,0,0,1-.4,1,1.4,1.4,0,0,1-1,.42,1.38,1.38,0,0,1-1-.42,1.45,1.45,0,0,1-.41-1V39.93l.53.22a1.33,1.33,0,0,1-.33.75,4.59,4.59,0,0,1-.92.88,5.41,5.41,0,0,1-1.35.73,4.69,4.69,0,0,1-1.69.3,5.44,5.44,0,0,1-3-.85A6,6,0,0,1,61,39.61a8,8,0,0,1,0-6.91,6.1,6.1,0,0,1,2.1-2.36,5.36,5.36,0,0,1,2.93-.85,5.78,5.78,0,0,1,1.9.31,5.94,5.94,0,0,1,1.5.8,4.51,4.51,0,0,1,1,1,1.56,1.56,0,0,1,.35.83l-.87.31V26.28a1.46,1.46,0,0,1,.41-1.05A1.38,1.38,0,0,1,71.35,24.81ZM66.51,40.17a3.16,3.16,0,0,0,1.84-.53,3.56,3.56,0,0,0,1.24-1.44,4.5,4.5,0,0,0,.44-2,4.61,4.61,0,0,0-.44-2.06,3.56,3.56,0,0,0-1.24-1.44,3.44,3.44,0,0,0-3.67,0,3.47,3.47,0,0,0-1.23,1.44A4.62,4.62,0,0,0,63,36.16a4.5,4.5,0,0,0,.45,2,3.47,3.47,0,0,0,1.23,1.44A3.17,3.17,0,0,0,66.51,40.17Z"/><path class="cls-3" d="M77.11,28.17A2,2,0,0,1,76,27.91a1.12,1.12,0,0,1-.34-.94v-.45a1.09,1.09,0,0,1,.37-.95,2.05,2.05,0,0,1,1.14-.25,1.94,1.94,0,0,1,1.18.26,1.15,1.15,0,0,1,.34.94V27a1.08,1.08,0,0,1-.36,1A2.11,2.11,0,0,1,77.11,28.17Zm1.46,12.94a1.44,1.44,0,0,1-.4,1,1.4,1.4,0,0,1-1,.42,1.38,1.38,0,0,1-1-.42,1.45,1.45,0,0,1-.41-1V31.2a1.46,1.46,0,0,1,.41-1.05,1.38,1.38,0,0,1,1-.42,1.4,1.4,0,0,1,1,.42,1.45,1.45,0,0,1,.4,1.05Z"/><path class="cls-3" d="M86.71,29.49a5.44,5.44,0,0,1,1.85.31,5.29,5.29,0,0,1,1.45.8,4.61,4.61,0,0,1,1,1,1.56,1.56,0,0,1,.35.83l-.62.31V31a1.42,1.42,0,0,1,.41-1.05,1.36,1.36,0,0,1,1-.42,1.41,1.41,0,0,1,1,.41A1.43,1.43,0,0,1,93.58,31V41.64a5.62,5.62,0,0,1-.9,3.34,5.12,5.12,0,0,1-2.37,1.83,8.75,8.75,0,0,1-3.14.56,8.44,8.44,0,0,1-1.25-.12c-.51-.08-1-.17-1.46-.29a7.24,7.24,0,0,1-1.06-.31,2.11,2.11,0,0,1-1-.78,1.18,1.18,0,0,1-.1-1,1.48,1.48,0,0,1,.69-1,1.19,1.19,0,0,1,1-.06c.16.05.43.14.79.29s.78.27,1.22.39a4.38,4.38,0,0,0,1.16.18A4.08,4.08,0,0,0,89.83,44a2.44,2.44,0,0,0,.87-2V39.93l.28.22a1.3,1.3,0,0,1-.32.75,4.37,4.37,0,0,1-.89.88,5.27,5.27,0,0,1-1.33.73,4.41,4.41,0,0,1-1.63.3A5.65,5.65,0,0,1,83.74,42a6,6,0,0,1-2.16-2.35,7.86,7.86,0,0,1,0-6.91,6.17,6.17,0,0,1,2.13-2.36A5.57,5.57,0,0,1,86.71,29.49Zm.46,2.64a3.46,3.46,0,0,0-1.9.53A3.63,3.63,0,0,0,84,34.1a4.62,4.62,0,0,0-.45,2.06,4.5,4.5,0,0,0,.45,2,3.63,3.63,0,0,0,1.27,1.44,3.71,3.71,0,0,0,3.82,0,3.56,3.56,0,0,0,1.27-1.44,4.5,4.5,0,0,0,.46-2,4.62,4.62,0,0,0-.46-2.06,3.56,3.56,0,0,0-1.27-1.44A3.48,3.48,0,0,0,87.17,32.13Z"/><path class="cls-3" d="M102.55,42.81A7,7,0,0,1,99,42a5.83,5.83,0,0,1-2.3-2.32,6.71,6.71,0,0,1-.81-3.31,7.19,7.19,0,0,1,.88-3.68,6.13,6.13,0,0,1,2.29-2.34,5.84,5.84,0,0,1,3-.82,5.42,5.42,0,0,1,2.32.51,6.22,6.22,0,0,1,1.93,1.38,6.75,6.75,0,0,1,1.33,2,6.16,6.16,0,0,1,.49,2.45,1.23,1.23,0,0,1-.45.94,1.54,1.54,0,0,1-1,.36H97.51l-.72-2.4h8.81l-.53.48v-.65a2.24,2.24,0,0,0-.49-1.25,3.16,3.16,0,0,0-1.11-.87,3.07,3.07,0,0,0-1.4-.33,4.77,4.77,0,0,0-1.34.19,2.59,2.59,0,0,0-1.08.65,3,3,0,0,0-.72,1.23,5.92,5.92,0,0,0-.27,1.94,4.22,4.22,0,0,0,.54,2.2,3.71,3.71,0,0,0,3.21,1.83,5.84,5.84,0,0,0,1.41-.14,3.11,3.11,0,0,0,.85-.35l.59-.35a1.88,1.88,0,0,1,.82-.21,1.15,1.15,0,0,1,.87.36,1.14,1.14,0,0,1,.35.84,1.48,1.48,0,0,1-.67,1.17,5.79,5.79,0,0,1-1.75.93A7.08,7.08,0,0,1,102.55,42.81Z"/><path class="cls-3" d="M109.58,40.58a1.36,1.36,0,0,1-.22-.86,1.18,1.18,0,0,1,.63-.92,1.29,1.29,0,0,1,.81-.2,1.33,1.33,0,0,1,.84.44,5.39,5.39,0,0,0,1.47,1.08,4.21,4.21,0,0,0,1.92.39,6.47,6.47,0,0,0,.79-.11,1.49,1.49,0,0,0,.75-.38,1.2,1.2,0,0,0,.33-.93,1.06,1.06,0,0,0-.36-.84,3.15,3.15,0,0,0-1-.53c-.39-.14-.83-.28-1.31-.4l-1.52-.48a6.53,6.53,0,0,1-1.43-.69A3.42,3.42,0,0,1,110.27,35a3.47,3.47,0,0,1-.4-1.76,3.15,3.15,0,0,1,.67-2A4.3,4.3,0,0,1,112.28,30a5.55,5.55,0,0,1,2.24-.46,7.19,7.19,0,0,1,1.56.18,5.75,5.75,0,0,1,1.56.58,3.83,3.83,0,0,1,1.25,1,1.66,1.66,0,0,1,.31.87,1,1,0,0,1-.45.91,1.18,1.18,0,0,1-.84.25,1.28,1.28,0,0,1-.8-.32,2.64,2.64,0,0,0-1.09-.84,3.7,3.7,0,0,0-1.57-.32,3.74,3.74,0,0,0-.78.09,1.44,1.44,0,0,0-.73.36,1.09,1.09,0,0,0-.31.87A1.13,1.13,0,0,0,113,34a2.7,2.7,0,0,0,1,.53c.41.13.84.27,1.31.39s1,.28,1.46.46a5.9,5.9,0,0,1,1.37.7,3.37,3.37,0,0,1,1,1.11,3.61,3.61,0,0,1,.38,1.74,3.16,3.16,0,0,1-.72,2.09,4.56,4.56,0,0,1-1.8,1.31,5.88,5.88,0,0,1-2.21.44,8.52,8.52,0,0,1-2.83-.49A4.88,4.88,0,0,1,109.58,40.58Z"/><path class="cls-3" d="M122,30h5.69a1.33,1.33,0,0,1,1.35,1.35,1.23,1.23,0,0,1-.39.92,1.3,1.3,0,0,1-1,.37H122a1.3,1.3,0,0,1-1.34-1.34,1.27,1.27,0,0,1,.38-.93A1.37,1.37,0,0,1,122,30Zm2.57-3a1.33,1.33,0,0,1,1,.42,1.45,1.45,0,0,1,.4,1.05V39.12a1,1,0,0,0,.13.55.77.77,0,0,0,.36.31,1.3,1.3,0,0,0,.49.1,1.32,1.32,0,0,0,.53-.11,1.35,1.35,0,0,1,.55-.11.78.78,0,0,1,.61.31A1.25,1.25,0,0,1,129,41a1.27,1.27,0,0,1-.73,1.1,3,3,0,0,1-1.57.43,9.35,9.35,0,0,1-1.12-.08,3,3,0,0,1-1.15-.41,2.52,2.52,0,0,1-.9-1,3.9,3.9,0,0,1-.36-1.84V28.44A1.44,1.44,0,0,1,124.6,27Z"/><path class="cls-3" d="M132.56,28.17a2,2,0,0,1-1.16-.26,1.15,1.15,0,0,1-.33-.94v-.45a1.06,1.06,0,0,1,.37-.95,2.05,2.05,0,0,1,1.14-.25,2,2,0,0,1,1.18.26,1.15,1.15,0,0,1,.33.94V27a1.08,1.08,0,0,1-.36,1A2.07,2.07,0,0,1,132.56,28.17ZM134,41.11a1.41,1.41,0,0,1-.41,1,1.47,1.47,0,0,1-2.06,0,1.45,1.45,0,0,1-.41-1V31.2a1.46,1.46,0,0,1,.41-1.05,1.47,1.47,0,0,1,2.06,0A1.42,1.42,0,0,1,134,31.2Z"/><path class="cls-3" d="M149.24,36.16a6.77,6.77,0,0,1-.87,3.47A6.31,6.31,0,0,1,146,42a6.9,6.9,0,0,1-6.6,0,6.36,6.36,0,0,1-2.35-2.34,7.34,7.34,0,0,1,0-6.93,6.49,6.49,0,0,1,2.35-2.36,6.83,6.83,0,0,1,6.6,0,6.44,6.44,0,0,1,2.36,2.36A6.76,6.76,0,0,1,149.24,36.16Zm-2.88,0a4.34,4.34,0,0,0-.49-2.12,3.64,3.64,0,0,0-1.32-1.4,3.56,3.56,0,0,0-3.67,0,3.64,3.64,0,0,0-1.32,1.4,4.34,4.34,0,0,0-.49,2.12,4.29,4.29,0,0,0,.49,2.1,3.74,3.74,0,0,0,1.32,1.41,3.62,3.62,0,0,0,3.67,0,3.74,3.74,0,0,0,1.32-1.41A4.29,4.29,0,0,0,146.36,36.16Zm-3.53-7.24a1,1,0,0,1-.49-.21.6.6,0,0,1-.27-.59.84.84,0,0,1,.14-.45l1.39-2.45a2.56,2.56,0,0,1,.55-.67,1.17,1.17,0,0,1,.77-.29,1.28,1.28,0,0,1,1,.35,1.14,1.14,0,0,1,.28.85,1.61,1.61,0,0,1-.13.5,2,2,0,0,1-.32.53l-1.83,2a1,1,0,0,1-.52.33A2.29,2.29,0,0,1,142.83,28.92Z"/><path class="cls-3" d="M158.36,29.49a4.18,4.18,0,0,1,2.7.75,3.7,3.7,0,0,1,1.27,2,9.78,9.78,0,0,1,.35,2.74v6.15a1.41,1.41,0,0,1-.41,1,1.36,1.36,0,0,1-1,.42,1.38,1.38,0,0,1-1-.42,1.45,1.45,0,0,1-.41-1V35a4.82,4.82,0,0,0-.2-1.42,2,2,0,0,0-.73-1,2.55,2.55,0,0,0-1.52-.39,3.13,3.13,0,0,0-1.62.39,2.52,2.52,0,0,0-1,1,2.82,2.82,0,0,0-.35,1.42v6.15a1.45,1.45,0,0,1-.41,1,1.38,1.38,0,0,1-1,.42,1.36,1.36,0,0,1-1-.42,1.41,1.41,0,0,1-.41-1V31.2a1.42,1.42,0,0,1,.41-1.05,1.36,1.36,0,0,1,1-.42,1.38,1.38,0,0,1,1,.42,1.46,1.46,0,0,1,.41,1.05v1l-.36-.07a4.34,4.34,0,0,1,.62-.88,6.31,6.31,0,0,1,1-.88,5.13,5.13,0,0,1,1.25-.66A4.6,4.6,0,0,1,158.36,29.49Z"/></g></g></g></svg>