<svg xmlns="http://www.w3.org/2000/svg" viewBox="0 0 504.03 95.86"><defs><style>.cls-1{fill:#fff;}.cls-2{fill:#fbb03b;}</style></defs><title>lab03-bxA2</title><g id="Layer_2" data-name="Layer 2"><g id="Layer_1-2" data-name="Layer 1"><rect class="cls-1" x="1.24" y="1.24" width="501.56" height="93.38" rx="13.1" ry="13.1"/><path class="cls-2" d="M489.74,95.86h-6.61V93.38h6.56Zm-13.17,0H470V93.38h6.55Zm-13.11,0H456.9V93.38h6.56Zm-13.12,0h-6.55V93.38h6.55Zm-13.11,0h-6.56V93.38h6.56Zm-13.12,0h-6.56V93.38h6.56Zm-13.11,0h-6.56V93.38H411Zm-13.12,0h-6.56V93.38h6.56Zm-13.12,0h-6.55V93.38h6.55Zm-13.11,0h-6.56V93.38h6.56Zm-13.12,0H352V93.38h6.56Zm-13.11,0h-6.56V93.38h6.56Zm-13.12,0h-6.56V93.38h6.56Zm-13.12,0h-6.55V93.38h6.55Zm-13.11,0h-6.56V93.38h6.56Zm-13.12,0h-6.56V93.38H293Zm-13.11,0h-6.56V93.38h6.56Zm-13.12,0h-6.56V93.38h6.56Zm-13.11,0h-6.56V93.38h6.56Zm-13.12,0h-6.56V93.38h6.56Zm-13.12,0h-6.55V93.38h6.55Zm-13.11,0H207.7V93.38h6.56Zm-13.12,0h-6.56V93.38h6.56Zm-13.11,0h-6.56V93.38H188Zm-13.12,0h-6.56V93.38h6.56Zm-13.12,0h-6.55V93.38h6.55Zm-13.11,0h-6.56V93.38h6.56Zm-13.12,0H129V93.38h6.56Zm-13.11,0h-6.56V93.38h6.56Zm-13.12,0h-6.56V93.38h6.56Zm-13.12,0H89.66V93.38h6.55Zm-13.11,0H76.54V93.38H83.1ZM70,95.86H63.42V93.38H70Zm-13.11,0H50.31V93.38h6.56Zm-13.12,0H37.19V93.38h6.56Zm-13.12,0H24.08V93.38h6.55Zm-13.11,0H14.34a14.09,14.09,0,0,1-3.66-.48L11.32,93a11.8,11.8,0,0,0,3,.39h3.18Zm479.1-1.8-1.2-2.16a12.15,12.15,0,0,0,4.28-4l2.09,1.33A14.51,14.51,0,0,1,496.62,94.06ZM4.49,91.91a14.41,14.41,0,0,1-3.8-6l2.36-.76a11.91,11.91,0,0,0,3.14,5ZM504,82.45l-2.47-.16c0-.26,0-.52,0-.77V75.81H504v5.71Q504,82,504,82.45ZM2.47,79H0V72.48H2.47ZM504,69.25h-2.47V62.7H504ZM2.47,65.92H0V59.37H2.47ZM504,56.14h-2.47V49.58H504ZM2.47,52.81H0V46.25H2.47ZM504,43h-2.47V36.46H504ZM2.47,39.69H0V33.14H2.47ZM504,29.91h-2.47V23.35H504ZM2.47,26.58H0V20H2.47ZM504,16.79h-2.47V14.34a11.81,11.81,0,0,0-.58-3.65l2.35-.77a14,14,0,0,1,.7,4.42ZM2.5,13.55,0,13.38A14.24,14.24,0,0,1,2.26,6.64L4.34,8A11.81,11.81,0,0,0,2.5,13.55ZM497.82,5.72a11.82,11.82,0,0,0-5.13-2.86l.63-2.39a14.43,14.43,0,0,1,6.2,3.45ZM8.63,4,7.44,1.78A14.32,14.32,0,0,1,14.31,0V2.47A11.91,11.91,0,0,0,8.63,4ZM486.49,2.47h-6.56V0h6.56Zm-13.12,0h-6.56V0h6.56Zm-13.12,0H453.7V0h6.55Zm-13.11,0h-6.56V0h6.56ZM434,2.47h-6.56V0H434Zm-13.11,0h-6.56V0h6.56Zm-13.12,0h-6.56V0h6.56Zm-13.12,0h-6.55V0h6.55Zm-13.11,0H375V0h6.56Zm-13.12,0h-6.55V0h6.55Zm-13.11,0h-6.56V0h6.56Zm-13.12,0h-6.56V0h6.56Zm-13.11,0h-6.56V0h6.56ZM316,2.47h-6.56V0H316Zm-13.12,0h-6.55V0h6.55Zm-13.11,0h-6.56V0h6.56Zm-13.12,0h-6.56V0h6.56Zm-13.11,0H257V0h6.56Zm-13.12,0h-6.56V0h6.56Zm-13.11,0h-6.56V0h6.56Zm-13.12,0h-6.56V0h6.56Zm-13.12,0H204.5V0h6.55Zm-13.11,0h-6.56V0h6.56Zm-13.12,0h-6.56V0h6.56Zm-13.11,0h-6.56V0h6.56Zm-13.12,0H152V0h6.56Zm-13.12,0h-6.55V0h6.55Zm-13.11,0H125.8V0h6.56Zm-13.12,0h-6.56V0h6.56Zm-13.11,0H99.57V0h6.56ZM93,2.47H86.45V0H93Zm-13.12,0H73.34V0h6.55Zm-13.11,0H60.22V0h6.56Zm-13.12,0H47.1V0h6.56Zm-13.11,0H34V0h6.56Zm-13.12,0H20.87V0h6.56Z"/><path class="cls-2" d="M33.77,55.18a1.47,1.47,0,0,1,1.51,1.51,1.37,1.37,0,0,1-.43,1,1.49,1.49,0,0,1-1.08.42H24.59a1.44,1.44,0,0,1-1.11-.43,1.56,1.56,0,0,1-.4-1.11,1.7,1.7,0,0,1,.48-1.19l5.89-6.29A11,11,0,0,0,31,47a4.38,4.38,0,0,0,.59-2,2.87,2.87,0,0,0-.41-1.51,3.11,3.11,0,0,0-1.05-1.08,2.51,2.51,0,0,0-1.4-.41,2.93,2.93,0,0,0-1.6.53,5.38,5.38,0,0,0-1.43,1.39,1.4,1.4,0,0,1-.64.54,2,2,0,0,1-.6.11,1.58,1.58,0,0,1-1.09-.45,1.33,1.33,0,0,1-.5-1,1.48,1.48,0,0,1,.31-.89,6.68,6.68,0,0,1,.77-.89,8.07,8.07,0,0,1,2.37-1.65,6.28,6.28,0,0,1,2.6-.62,6.18,6.18,0,0,1,3.15.76,5.22,5.22,0,0,1,2.06,2.08,6.16,6.16,0,0,1,.73,3,6.81,6.81,0,0,1-.42,2.31,10.61,10.61,0,0,1-1.15,2.28,17.43,17.43,0,0,1-1.67,2.14L28,55.42l-.3-.24Z"/><path class="cls-2" d="M39.62,58.12a1.66,1.66,0,0,1-1.2-.41A1.63,1.63,0,0,1,38,56.5V56a1.45,1.45,0,0,1,1.61-1.62H40A1.47,1.47,0,0,1,41.6,56v.46a1.63,1.63,0,0,1-.42,1.21,1.66,1.66,0,0,1-1.2.41Z"/></g></g></svg>