<?xml version="1.0" encoding="utf-8"?>
<!-- Generator: Adobe Illustrator 22.0.1, SVG Export Plug-In . SVG Version: 6.00 Build 0)  -->
<svg version="1.1" id="Layer_1" xmlns="http://www.w3.org/2000/svg" xmlns:xlink="http://www.w3.org/1999/xlink" x="0px" y="0px"
	 viewBox="0 0 168.3 71" style="enable-background:new 0 0 168.3 71;" xml:space="preserve">
<style type="text/css">
	.st0{opacity:0.3;}
	.st1{fill:#FFFFFF;}
	.st2{fill:#F7931E;}
</style>
<title>lab03-tit3</title>
<g>
	<g>
		<g class="st0">
			<path d="M155.9,70.9H16.3c-6.6,0-12-5.4-12-12v-43c0-6.6,5.4-12,12-12h139.6c6.6,0,12,5.4,12,12v43
				C167.9,65.5,162.5,70.9,155.9,70.9z"/>
		</g>
		<g>
			<path class="st1" d="M151.9,66.9H12.3c-6.6,0-12-5.4-12-12v-43c0-6.6,5.4-12,12-12h139.6c6.6,0,12,5.4,12,12v43
				C163.9,61.5,158.5,66.9,151.9,66.9z"/>
		</g>
	</g>
	<g>
		<path class="st2" d="M148.6,63.8H15.5c-6.2,0-11.2-5-11.2-11.2V14.1c0-6.2,5-11.2,11.2-11.2h133.2c6.2,0,11.2,5,11.2,11.2v38.5
			C159.8,58.8,154.8,63.8,148.6,63.8z"/>
	</g>
</g>
<g>
	<path class="st1" d="M28.6,29.4c0.5,0,0.8,0.1,1.1,0.4c0.2,0.2,0.4,0.6,0.4,1.1v0.4c0,0.5-0.1,0.8-0.4,1.1
		c-0.2,0.2-0.6,0.4-1.1,0.4h-0.3c-0.5,0-0.8-0.1-1.1-0.4c-0.2-0.2-0.4-0.6-0.4-1.1v-0.4c0-0.5,0.1-0.8,0.4-1.1
		c0.2-0.2,0.6-0.4,1.1-0.4H28.6z M28.4,34.7c0.5,0,0.8,0.3,0.9,0.9l0.7,8.8c0,0.5-0.1,0.9-0.4,1.2s-0.7,0.5-1.2,0.5
		c-0.5,0-0.9-0.2-1.2-0.5s-0.4-0.8-0.4-1.2l0.7-8.8C27.6,35,27.9,34.7,28.4,34.7z"/>
	<path class="st1" d="M39.5,29.4l-5.2,12.2c-0.1,0.3-0.3,0.5-0.5,0.7c-0.2,0.2-0.5,0.3-0.8,0.3c-0.4,0-0.8-0.1-1-0.4
		s-0.3-0.5-0.3-0.9c0-0.1,0-0.3,0.1-0.5l6-14.4c0.1-0.3,0.3-0.6,0.6-0.7c0.3-0.2,0.5-0.2,0.9-0.2c0.3,0,0.6,0.1,0.8,0.3
		c0.2,0.2,0.4,0.4,0.5,0.7l5.9,14.1c0.1,0.2,0.1,0.4,0.1,0.6c0,0.4-0.1,0.8-0.4,1c-0.3,0.3-0.6,0.4-0.9,0.4c-0.3,0-0.5-0.1-0.8-0.3
		c-0.2-0.2-0.4-0.4-0.5-0.7l-5.2-12L39.5,29.4z M35.1,38.7l1.3-2.8h6.5l0.5,2.8H35.1z"/>
	<path class="st1" d="M60.8,29.3c0.9,0,1.7,0.1,2.4,0.3c0.7,0.2,1.2,0.5,1.6,0.8c0.4,0.3,0.6,0.8,0.6,1.2c0,0.3-0.1,0.6-0.3,0.9
		c-0.2,0.3-0.5,0.4-0.8,0.4c-0.3,0-0.5,0-0.6-0.1s-0.3-0.2-0.4-0.3c-0.1-0.1-0.3-0.2-0.5-0.3c-0.2-0.1-0.4-0.2-0.7-0.2
		C61.6,32,61.3,32,61.2,32c-0.8,0-1.5,0.2-2.1,0.5c-0.6,0.4-1,0.8-1.3,1.4c-0.3,0.6-0.5,1.3-0.5,2.1c0,0.8,0.2,1.5,0.5,2.1
		c0.3,0.6,0.7,1.1,1.3,1.4c0.6,0.4,1.2,0.5,1.9,0.5c0.4,0,0.7,0,1-0.1c0.3,0,0.5-0.1,0.7-0.2c0.2-0.1,0.4-0.3,0.6-0.4
		c0.2-0.1,0.4-0.2,0.8-0.2c0.4,0,0.7,0.1,1,0.4c0.2,0.3,0.3,0.6,0.3,1c0,0.4-0.2,0.8-0.7,1.1c-0.4,0.3-1,0.6-1.8,0.8
		c-0.7,0.2-1.5,0.3-2.4,0.3c-1.3,0-2.4-0.3-3.3-0.9c-0.9-0.6-1.6-1.4-2.1-2.4s-0.8-2.1-0.8-3.4c0-1.3,0.3-2.5,0.8-3.5
		s1.3-1.8,2.2-2.4C58.4,29.6,59.5,29.3,60.8,29.3z"/>
	<path class="st1" d="M79.3,36c0,1.3-0.3,2.5-0.9,3.5c-0.6,1-1.4,1.8-2.4,2.3c-1,0.6-2.1,0.8-3.3,0.8s-2.3-0.3-3.3-0.8
		c-1-0.6-1.8-1.3-2.4-2.3s-0.9-2.2-0.9-3.5c0-1.3,0.3-2.5,0.9-3.5s1.4-1.8,2.4-2.4c1-0.6,2.1-0.9,3.3-0.9s2.3,0.3,3.3,0.9
		c1,0.6,1.8,1.4,2.4,2.4C79,33.5,79.3,34.7,79.3,36z M76.5,36c0-0.8-0.2-1.5-0.5-2.1c-0.3-0.6-0.8-1.1-1.3-1.4
		c-0.6-0.3-1.2-0.5-1.8-0.5s-1.3,0.2-1.8,0.5c-0.6,0.3-1,0.8-1.3,1.4c-0.3,0.6-0.5,1.3-0.5,2.1c0,0.8,0.2,1.5,0.5,2.1
		c0.3,0.6,0.8,1.1,1.3,1.4s1.2,0.5,1.8,0.5s1.3-0.2,1.8-0.5s1-0.8,1.3-1.4C76.3,37.5,76.5,36.8,76.5,36z"/>
	<path class="st1" d="M88.3,29.3c1.3,0,2.2,0.3,2.8,0.9c0.6,0.6,1,1.4,1.2,2.4l-0.4-0.2l0.2-0.4c0.2-0.4,0.5-0.8,0.9-1.2
		c0.4-0.4,0.9-0.8,1.5-1.1c0.6-0.3,1.2-0.4,1.9-0.4c1.2,0,2,0.2,2.6,0.7c0.6,0.5,1,1.2,1.2,2c0.2,0.8,0.3,1.7,0.3,2.7V41
		c0,0.4-0.1,0.8-0.4,1c-0.3,0.3-0.6,0.4-1,0.4s-0.8-0.1-1-0.4c-0.3-0.3-0.4-0.6-0.4-1v-6.1c0-0.5-0.1-1-0.2-1.4s-0.4-0.8-0.7-1
		C96.4,32.1,96,32,95.3,32c-0.6,0-1.1,0.1-1.6,0.4c-0.4,0.3-0.8,0.6-1,1s-0.3,0.9-0.3,1.4V41c0,0.4-0.1,0.8-0.4,1
		c-0.3,0.3-0.6,0.4-1,0.4s-0.8-0.1-1-0.4c-0.3-0.3-0.4-0.6-0.4-1v-6.1c0-0.5-0.1-1-0.2-1.4c-0.1-0.4-0.4-0.8-0.7-1S87.9,32,87.3,32
		c-0.6,0-1.1,0.1-1.6,0.4s-0.8,0.6-1,1c-0.2,0.4-0.3,0.9-0.3,1.4V41c0,0.4-0.1,0.8-0.4,1c-0.3,0.3-0.6,0.4-1,0.4s-0.8-0.1-1-0.4
		c-0.3-0.3-0.4-0.6-0.4-1V31c0-0.4,0.1-0.8,0.4-1c0.3-0.3,0.6-0.4,1-0.4s0.8,0.1,1,0.4c0.3,0.3,0.4,0.6,0.4,1v1L84.1,32
		c0.1-0.3,0.3-0.6,0.6-0.9c0.3-0.3,0.6-0.6,0.9-0.9c0.4-0.3,0.8-0.5,1.2-0.7C87.3,29.4,87.8,29.3,88.3,29.3z"/>
	<path class="st1" d="M109.3,42.7c-1.4,0-2.5-0.3-3.5-0.9c-1-0.6-1.8-1.3-2.3-2.3c-0.5-1-0.8-2.1-0.8-3.3c0-1.4,0.3-2.7,0.9-3.7
		s1.3-1.8,2.3-2.3c0.9-0.5,1.9-0.8,3-0.8c0.8,0,1.6,0.2,2.3,0.5c0.7,0.3,1.4,0.8,1.9,1.4c0.6,0.6,1,1.3,1.3,2
		c0.3,0.8,0.5,1.6,0.5,2.4c0,0.4-0.2,0.7-0.5,0.9s-0.6,0.4-1,0.4h-9.2l-0.7-2.4h8.8l-0.5,0.5v-0.6c0-0.5-0.2-0.9-0.5-1.2
		c-0.3-0.4-0.7-0.7-1.1-0.9c-0.4-0.2-0.9-0.3-1.4-0.3c-0.5,0-0.9,0.1-1.3,0.2c-0.4,0.1-0.8,0.3-1.1,0.6c-0.3,0.3-0.5,0.7-0.7,1.2
		c-0.2,0.5-0.3,1.2-0.3,1.9c0,0.9,0.2,1.6,0.5,2.2c0.4,0.6,0.8,1.1,1.4,1.4c0.6,0.3,1.2,0.5,1.8,0.5c0.6,0,1.1,0,1.4-0.1
		c0.4-0.1,0.6-0.2,0.9-0.3c0.2-0.1,0.4-0.3,0.6-0.3c0.3-0.1,0.6-0.2,0.8-0.2c0.4,0,0.6,0.1,0.9,0.4c0.2,0.2,0.3,0.5,0.3,0.8
		c0,0.4-0.2,0.8-0.7,1.2c-0.4,0.4-1,0.7-1.8,0.9C110.9,42.5,110.1,42.7,109.3,42.7z"/>
	<path class="st1" d="M118.6,42.4c-0.4,0-0.8-0.1-1-0.4c-0.3-0.3-0.4-0.6-0.4-1V31c0-0.4,0.1-0.8,0.4-1c0.3-0.3,0.6-0.4,1-0.4
		s0.8,0.1,1,0.4c0.3,0.3,0.4,0.6,0.4,1v2.3l-0.2-1.6c0.2-0.4,0.4-0.7,0.7-1s0.6-0.5,0.9-0.7c0.4-0.2,0.7-0.3,1.1-0.4
		c0.4-0.1,0.8-0.1,1.2-0.1c0.5,0,0.9,0.1,1.2,0.4s0.5,0.6,0.5,1c0,0.5-0.1,0.9-0.4,1.1c-0.3,0.2-0.6,0.3-0.9,0.3
		c-0.3,0-0.6-0.1-0.8-0.2c-0.2-0.1-0.5-0.2-0.9-0.2c-0.3,0-0.6,0.1-0.9,0.2c-0.3,0.1-0.6,0.3-0.8,0.6c-0.2,0.3-0.4,0.6-0.6,1.1
		c-0.2,0.4-0.2,0.9-0.2,1.5V41c0,0.4-0.1,0.8-0.4,1C119.3,42.3,119,42.4,118.6,42.4z"/>
	<path class="st1" d="M129.2,42.4c-0.5,0-0.8-0.1-1.1-0.4s-0.4-0.6-0.4-1.1v-0.4c0-0.5,0.1-0.8,0.4-1.1s0.6-0.4,1.1-0.4h0.3
		c0.5,0,0.8,0.1,1.1,0.4c0.2,0.2,0.4,0.6,0.4,1.1V41c0,0.5-0.1,0.8-0.4,1.1c-0.2,0.2-0.6,0.4-1.1,0.4H129.2z M129.4,37.1
		c-0.5,0-0.8-0.3-0.9-0.9l-0.7-8.8c0-0.5,0.1-0.9,0.4-1.2s0.7-0.5,1.2-0.5c0.5,0,0.9,0.2,1.2,0.5s0.4,0.8,0.4,1.2l-0.7,8.8
		C130.2,36.8,129.9,37.1,129.4,37.1z"/>
</g>
</svg>
