<svg xmlns="http://www.w3.org/2000/svg" viewBox="0 0 287.59 71"><defs><style>.cls-1{isolation:isolate;}.cls-2{opacity:0.3;mix-blend-mode:multiply;}.cls-3{fill:#fff;}.cls-4{fill:#39b54a;}</style></defs><title>lab03-tit3</title><g class="cls-1"><g id="Layer_2" data-name="Layer 2"><g id="Layer_1-2" data-name="Layer 1"><g class="cls-2"><rect x="4" y="4" width="283.59" height="67" rx="12" ry="12"/></g><rect class="cls-3" width="283.59" height="67" rx="12" ry="12"/><rect class="cls-4" x="4.03" y="3.07" width="275.53" height="60.87" rx="11.19" ry="11.19"/><path class="cls-3" d="M28.18,24.77h8a1.48,1.48,0,0,1,1.05.39,1.36,1.36,0,0,1,.42,1,1.26,1.26,0,0,1-.42,1,1.56,1.56,0,0,1-1.05.37H29.5l.22-.41V31.8l-.19-.19h5.61a1.48,1.48,0,0,1,1,.39,1.36,1.36,0,0,1,.42,1,1.26,1.26,0,0,1-.42,1,1.56,1.56,0,0,1-1,.37H29.6l.12-.19V39l-.19-.21h6.69a1.42,1.42,0,0,1,1.05.42,1.33,1.33,0,0,1,.42,1,1.26,1.26,0,0,1-.42,1,1.48,1.48,0,0,1-1.05.39h-8a1.44,1.44,0,0,1-1.46-1.47V26.23a1.43,1.43,0,0,1,1.46-1.46Z"/><path class="cls-3" d="M42.86,40.1a1.42,1.42,0,0,1-.42,1,1.4,1.4,0,0,1-1,.42,1.35,1.35,0,0,1-1-.42,1.46,1.46,0,0,1-.41-1V25.27a1.44,1.44,0,0,1,1.47-1.46,1.36,1.36,0,0,1,1,.42,1.48,1.48,0,0,1,.39,1Z"/><path class="cls-3" d="M59.59,28.49a5.43,5.43,0,0,1,3,.85,6.16,6.16,0,0,1,2.12,2.34,8.16,8.16,0,0,1,0,6.92A6.24,6.24,0,0,1,62.63,41a5.37,5.37,0,0,1-2.94.85,5.32,5.32,0,0,1-1.8-.31,5.8,5.8,0,0,1-1.48-.8,4.51,4.51,0,0,1-1-1,1.48,1.48,0,0,1-.35-.83l.74-.31V44.9a1.45,1.45,0,0,1-.4,1.05,1.5,1.5,0,0,1-2.07,0,1.43,1.43,0,0,1-.41-1.06V30.19a1.45,1.45,0,0,1,.41-1,1.38,1.38,0,0,1,1-.42,1.4,1.4,0,0,1,1,.42,1.44,1.44,0,0,1,.4,1v1.18l-.4-.22a1.33,1.33,0,0,1,.33-.75,4.83,4.83,0,0,1,.91-.89A5.16,5.16,0,0,1,58,28.78,4.32,4.32,0,0,1,59.59,28.49Zm-.36,2.64a3.21,3.21,0,0,0-1.85.53,3.55,3.55,0,0,0-1.23,1.42,4.56,4.56,0,0,0-.45,2.06,4.63,4.63,0,0,0,.45,2,3.57,3.57,0,0,0,1.23,1.45,3.29,3.29,0,0,0,1.85.53,3.21,3.21,0,0,0,1.84-.53,3.63,3.63,0,0,0,1.22-1.45,4.63,4.63,0,0,0,.44-2,4.55,4.55,0,0,0-.44-2.06,3.6,3.6,0,0,0-1.22-1.42A3.14,3.14,0,0,0,59.23,31.13Z"/><path class="cls-3" d="M69.26,41.57a1.36,1.36,0,0,1-1-.42,1.46,1.46,0,0,1-.41-1V30.19a1.45,1.45,0,0,1,.41-1,1.47,1.47,0,0,1,2.06,0,1.45,1.45,0,0,1,.41,1v2.26l-.17-1.61a4,4,0,0,1,.69-1,3.94,3.94,0,0,1,.94-.74,4.6,4.6,0,0,1,1.13-.45,5.46,5.46,0,0,1,1.2-.14,1.78,1.78,0,0,1,1.21.41,1.21,1.21,0,0,1,.5,1A1.45,1.45,0,0,1,75.79,31a1.34,1.34,0,0,1-.89.34,2,2,0,0,1-.83-.16,1.93,1.93,0,0,0-.85-.17,2.2,2.2,0,0,0-.88.2,2.51,2.51,0,0,0-.81.64,3.24,3.24,0,0,0-.6,1.07,4.46,4.46,0,0,0-.23,1.5V40.1a1.46,1.46,0,0,1-.41,1A1.36,1.36,0,0,1,69.26,41.57Z"/><path class="cls-3" d="M90,35.16a6.71,6.71,0,0,1-.88,3.47A6.21,6.21,0,0,1,86.74,41a6.9,6.9,0,0,1-6.6,0,6.28,6.28,0,0,1-2.35-2.34,7.28,7.28,0,0,1,0-6.94,6.38,6.38,0,0,1,2.35-2.35,6.83,6.83,0,0,1,6.6,0,6.31,6.31,0,0,1,2.35,2.35A6.71,6.71,0,0,1,90,35.16Zm-2.88,0A4.31,4.31,0,0,0,86.6,33a3.74,3.74,0,0,0-1.32-1.41,3.53,3.53,0,0,0-1.84-.5,3.49,3.49,0,0,0-1.83.5A3.59,3.59,0,0,0,80.29,33a4.7,4.7,0,0,0,0,4.22,3.5,3.5,0,0,0,1.32,1.4,3.41,3.41,0,0,0,1.83.51,3.45,3.45,0,0,0,1.84-.51,3.64,3.64,0,0,0,1.32-1.4A4.29,4.29,0,0,0,87.09,35.16Z"/><path class="cls-3" d="M97.88,28.49a8.47,8.47,0,0,1,2.38.29,4,4,0,0,1,1.59.8,1.64,1.64,0,0,1,.56,1.24,1.51,1.51,0,0,1-.29.9,1,1,0,0,1-.84.42,1.65,1.65,0,0,1-.63-.11,1.71,1.71,0,0,1-.45-.28,3.22,3.22,0,0,0-.45-.31,2.24,2.24,0,0,0-.73-.23,5.7,5.7,0,0,0-.74-.08,3.77,3.77,0,0,0-2.07.53,3.45,3.45,0,0,0-1.31,1.42,4.61,4.61,0,0,0-.46,2.08,4.39,4.39,0,0,0,.47,2.05,3.67,3.67,0,0,0,1.3,1.43,3.49,3.49,0,0,0,1.91.53,7.46,7.46,0,0,0,1-.07,2.45,2.45,0,0,0,.72-.22,4.51,4.51,0,0,0,.6-.41,1.24,1.24,0,0,1,.79-.21,1.19,1.19,0,0,1,1,.39,1.49,1.49,0,0,1,.34,1,1.39,1.39,0,0,1-.68,1.1,5.44,5.44,0,0,1-1.76.79,8.92,8.92,0,0,1-2.36.3,6,6,0,0,1-3.29-.88,5.79,5.79,0,0,1-2.15-2.39,7.47,7.47,0,0,1-.76-3.38,7.2,7.2,0,0,1,.81-3.47,5.94,5.94,0,0,1,2.23-2.35A6.24,6.24,0,0,1,97.88,28.49Z"/><path class="cls-3" d="M110.32,41.81a7.13,7.13,0,0,1-3.54-.85,5.92,5.92,0,0,1-2.31-2.32,6.84,6.84,0,0,1-.8-3.31,7.35,7.35,0,0,1,.87-3.69,6.3,6.3,0,0,1,2.3-2.34,5.93,5.93,0,0,1,3-.81,5.55,5.55,0,0,1,2.31.5,6.44,6.44,0,0,1,1.93,1.38,6.64,6.64,0,0,1,1.34,2,6.3,6.3,0,0,1,.49,2.45,1.24,1.24,0,0,1-.46.93,1.52,1.52,0,0,1-1,.36h-9.16l-.72-2.4h8.8l-.52.48v-.64a2.28,2.28,0,0,0-.49-1.25,3.31,3.31,0,0,0-1.11-.88,3.23,3.23,0,0,0-1.4-.32,4.54,4.54,0,0,0-1.35.19,2.61,2.61,0,0,0-1.08.65,3.21,3.21,0,0,0-.72,1.22,6.26,6.26,0,0,0-.26,2,4.18,4.18,0,0,0,.54,2.19,3.65,3.65,0,0,0,1.39,1.37,3.73,3.73,0,0,0,1.81.47,5.4,5.4,0,0,0,1.42-.15,3.12,3.12,0,0,0,.85-.34c.22-.14.41-.26.59-.35a1.77,1.77,0,0,1,.82-.22,1.15,1.15,0,0,1,.87.36,1.18,1.18,0,0,1,.35.84,1.52,1.52,0,0,1-.67,1.18,5.58,5.58,0,0,1-1.75.92A6.88,6.88,0,0,1,110.32,41.81Z"/><path class="cls-3" d="M117.34,39.58a1.35,1.35,0,0,1-.21-.87,1.14,1.14,0,0,1,.62-.91,1.27,1.27,0,0,1,.82-.2,1.33,1.33,0,0,1,.84.44,5.8,5.8,0,0,0,1.46,1.08,4.21,4.21,0,0,0,1.92.38,6.09,6.09,0,0,0,.79-.1,1.58,1.58,0,0,0,.76-.39,1.18,1.18,0,0,0,.32-.92,1.06,1.06,0,0,0-.36-.84,2.9,2.9,0,0,0-.94-.53c-.4-.14-.83-.28-1.31-.41s-1-.3-1.53-.48a6,6,0,0,1-1.42-.68A3.17,3.17,0,0,1,118,34a3.43,3.43,0,0,1-.41-1.75,3.21,3.21,0,0,1,.67-2,4.48,4.48,0,0,1,1.74-1.3,5.76,5.76,0,0,1,2.25-.45,7.33,7.33,0,0,1,1.56.18,6.36,6.36,0,0,1,1.56.57,4.1,4.1,0,0,1,1.25,1.05,1.75,1.75,0,0,1,.31.86,1,1,0,0,1-.46.91,1.15,1.15,0,0,1-.84.26,1.32,1.32,0,0,1-.79-.33,2.9,2.9,0,0,0-1.09-.84,3.73,3.73,0,0,0-1.57-.31,4.49,4.49,0,0,0-.78.08,1.66,1.66,0,0,0-.74.36,1.16,1.16,0,0,0-.31.88,1.13,1.13,0,0,0,.36.88,2.78,2.78,0,0,0,1,.52c.41.14.85.27,1.31.4s1,.28,1.47.46a5.44,5.44,0,0,1,1.36.69,3.2,3.2,0,0,1,1,1.12,3.45,3.45,0,0,1,.39,1.74,3.18,3.18,0,0,1-.72,2.09,4.54,4.54,0,0,1-1.8,1.3,5.71,5.71,0,0,1-2.21.45,8.73,8.73,0,0,1-2.83-.49A5,5,0,0,1,117.34,39.58Z"/><path class="cls-3" d="M141.81,35.16a6.71,6.71,0,0,1-.88,3.47A6.28,6.28,0,0,1,138.58,41a6.9,6.9,0,0,1-6.6,0,6.21,6.21,0,0,1-2.35-2.34,7.28,7.28,0,0,1,0-6.94A6.31,6.31,0,0,1,132,29.34a6.54,6.54,0,0,1,9,2.35A6.71,6.71,0,0,1,141.81,35.16Zm-2.88,0a4.43,4.43,0,0,0-.49-2.12,3.69,3.69,0,0,0-1.33-1.41,3.49,3.49,0,0,0-1.83-.5,3.53,3.53,0,0,0-1.84.5A3.74,3.74,0,0,0,132.12,33a4.79,4.79,0,0,0,0,4.22,3.64,3.64,0,0,0,1.32,1.4,3.45,3.45,0,0,0,1.84.51,3.41,3.41,0,0,0,1.83-.51,3.59,3.59,0,0,0,1.33-1.4A4.4,4.4,0,0,0,138.93,35.16Z"/><path class="cls-3" d="M161.32,23.81a1.37,1.37,0,0,1,1,.41,1.42,1.42,0,0,1,.41,1.05V40.1a1.46,1.46,0,0,1-.41,1,1.38,1.38,0,0,1-1,.42,1.36,1.36,0,0,1-1-.42,1.42,1.42,0,0,1-.41-1V38.93l.53.21a1.41,1.41,0,0,1-.34.76,4.51,4.51,0,0,1-.91.88,6,6,0,0,1-1.36.73,4.66,4.66,0,0,1-1.69.3,5.57,5.57,0,0,1-3-.85A6,6,0,0,1,151,38.6a7.33,7.33,0,0,1-.78-3.44,7.43,7.43,0,0,1,.78-3.47,6.07,6.07,0,0,1,2.1-2.35,5.25,5.25,0,0,1,2.92-.85,5.53,5.53,0,0,1,1.9.31,5.6,5.6,0,0,1,1.5.79,4.74,4.74,0,0,1,1,1,1.51,1.51,0,0,1,.35.83l-.86.31V25.27a1.41,1.41,0,0,1,.41-1A1.36,1.36,0,0,1,161.32,23.81Zm-4.85,15.36a3.29,3.29,0,0,0,1.85-.53,3.47,3.47,0,0,0,1.23-1.44,4.89,4.89,0,0,0,0-4.1,3.47,3.47,0,0,0-1.23-1.44,3.21,3.21,0,0,0-1.85-.53,3.12,3.12,0,0,0-1.82.53,3.56,3.56,0,0,0-1.24,1.44,5,5,0,0,0,0,4.1,3.56,3.56,0,0,0,1.24,1.44A3.19,3.19,0,0,0,156.47,39.17Z"/><path class="cls-3" d="M167.08,27.17a1.9,1.9,0,0,1-1.16-.27,1.11,1.11,0,0,1-.33-.93v-.46a1.07,1.07,0,0,1,.37-1,2.14,2.14,0,0,1,1.14-.25,2,2,0,0,1,1.18.27,1.11,1.11,0,0,1,.33.93V26a1.1,1.1,0,0,1-.36,1A2.16,2.16,0,0,1,167.08,27.17Zm1.46,12.93a1.46,1.46,0,0,1-.41,1,1.47,1.47,0,0,1-2.06,0,1.46,1.46,0,0,1-.41-1V30.19a1.45,1.45,0,0,1,.41-1,1.47,1.47,0,0,1,2.06,0,1.45,1.45,0,0,1,.41,1Z"/><path class="cls-3" d="M176.68,28.49a5.24,5.24,0,0,1,1.85.31,5.42,5.42,0,0,1,1.45.79,4.85,4.85,0,0,1,1,1,1.59,1.59,0,0,1,.35.83l-.63.31V30a1.45,1.45,0,0,1,.41-1,1.38,1.38,0,0,1,1-.42,1.36,1.36,0,0,1,1,.41,1.39,1.39,0,0,1,.41,1.05V40.63a5.65,5.65,0,0,1-.9,3.35,5.06,5.06,0,0,1-2.36,1.82,8.64,8.64,0,0,1-3.15.57,8.33,8.33,0,0,1-1.24-.12c-.52-.08-1-.18-1.47-.29a9.07,9.07,0,0,1-1-.31,2.06,2.06,0,0,1-1-.78,1.21,1.21,0,0,1-.11-1,1.55,1.55,0,0,1,.7-.95,1.26,1.26,0,0,1,1-.06l.79.29a10.73,10.73,0,0,0,1.21.4,4.51,4.51,0,0,0,1.16.18A4.13,4.13,0,0,0,179.8,43a2.47,2.47,0,0,0,.86-2V38.93l.29.21a1.43,1.43,0,0,1-.32.76,4.64,4.64,0,0,1-.89.88,5.8,5.8,0,0,1-1.33.73,4.5,4.5,0,0,1-1.64.3A5.76,5.76,0,0,1,173.7,41a6.08,6.08,0,0,1-2.16-2.36,7.21,7.21,0,0,1-.79-3.44,7.31,7.31,0,0,1,.79-3.47,6.08,6.08,0,0,1,2.14-2.35A5.44,5.44,0,0,1,176.68,28.49Zm.45,2.64a3.32,3.32,0,0,0-1.89.53A3.49,3.49,0,0,0,174,33.1a4.8,4.8,0,0,0,0,4.1,3.49,3.49,0,0,0,1.27,1.44,3.4,3.4,0,0,0,1.89.53,3.45,3.45,0,0,0,1.92-.53,3.58,3.58,0,0,0,1.28-1.44,4.89,4.89,0,0,0,0-4.1,3.58,3.58,0,0,0-1.28-1.44A3.37,3.37,0,0,0,177.13,31.13Z"/><path class="cls-3" d="M192.52,41.81A7.13,7.13,0,0,1,189,41a5.92,5.92,0,0,1-2.31-2.32,6.84,6.84,0,0,1-.8-3.31,7.35,7.35,0,0,1,.87-3.69A6.3,6.3,0,0,1,189,29.3a5.93,5.93,0,0,1,3-.81,5.55,5.55,0,0,1,2.31.5,6.44,6.44,0,0,1,1.93,1.38,6.83,6.83,0,0,1,1.34,2,6.3,6.3,0,0,1,.49,2.45,1.24,1.24,0,0,1-.46.93,1.52,1.52,0,0,1-1,.36h-9.16l-.72-2.4h8.8l-.52.48v-.64a2.22,2.22,0,0,0-.5-1.25,3.18,3.18,0,0,0-1.1-.88,3.23,3.23,0,0,0-1.4-.32,4.54,4.54,0,0,0-1.35.19,2.55,2.55,0,0,0-1.08.65,3.21,3.21,0,0,0-.72,1.22,6.26,6.26,0,0,0-.26,2,4.18,4.18,0,0,0,.54,2.19,3.65,3.65,0,0,0,1.39,1.37,3.73,3.73,0,0,0,1.81.47,5.4,5.4,0,0,0,1.42-.15,3.26,3.26,0,0,0,.85-.34c.22-.14.41-.26.59-.35a1.77,1.77,0,0,1,.81-.22,1.16,1.16,0,0,1,.88.36,1.18,1.18,0,0,1,.35.84,1.52,1.52,0,0,1-.67,1.18,5.53,5.53,0,0,1-1.76.92A6.78,6.78,0,0,1,192.52,41.81Z"/><path class="cls-3" d="M199.54,39.58a1.35,1.35,0,0,1-.21-.87,1.14,1.14,0,0,1,.62-.91,1.27,1.27,0,0,1,.82-.2,1.38,1.38,0,0,1,.84.44,5.8,5.8,0,0,0,1.46,1.08,4.21,4.21,0,0,0,1.92.38,6.32,6.32,0,0,0,.79-.1,1.58,1.58,0,0,0,.76-.39,1.22,1.22,0,0,0,.32-.92,1.06,1.06,0,0,0-.36-.84,2.85,2.85,0,0,0-.95-.53c-.39-.14-.82-.28-1.3-.41s-1-.3-1.53-.48a6.28,6.28,0,0,1-1.43-.68,3.23,3.23,0,0,1-1-1.12,3.43,3.43,0,0,1-.41-1.75,3.15,3.15,0,0,1,.67-2,4.48,4.48,0,0,1,1.74-1.3,5.72,5.72,0,0,1,2.25-.45,7.33,7.33,0,0,1,1.56.18,6.36,6.36,0,0,1,1.56.57,3.94,3.94,0,0,1,1.24,1.05,1.76,1.76,0,0,1,.32.86,1,1,0,0,1-.46.91,1.15,1.15,0,0,1-.84.26,1.32,1.32,0,0,1-.79-.33,2.9,2.9,0,0,0-1.09-.84,3.74,3.74,0,0,0-1.58-.31,4.49,4.49,0,0,0-.78.08,1.62,1.62,0,0,0-.73.36A1.32,1.32,0,0,0,203,33a2.69,2.69,0,0,0,1,.52c.41.14.85.27,1.31.4s1,.28,1.46.46a5.34,5.34,0,0,1,1.37.69,3.3,3.3,0,0,1,1,1.12,3.45,3.45,0,0,1,.38,1.74,3.18,3.18,0,0,1-.72,2.09,4.54,4.54,0,0,1-1.8,1.3,5.66,5.66,0,0,1-2.2.45,8.84,8.84,0,0,1-2.84-.49A5,5,0,0,1,199.54,39.58Z"/><path class="cls-3" d="M212,29h5.69A1.3,1.3,0,0,1,219,30.31a1.27,1.27,0,0,1-.38.93,1.37,1.37,0,0,1-1,.37H212a1.33,1.33,0,0,1-1.35-1.35,1.23,1.23,0,0,1,.39-.92A1.3,1.3,0,0,1,212,29Zm2.57-3a1.36,1.36,0,0,1,1,.42,1.48,1.48,0,0,1,.39,1V38.11a1.09,1.09,0,0,0,.13.55.79.79,0,0,0,.36.32,1.39,1.39,0,0,0,.5.09,1.13,1.13,0,0,0,.52-.11,1.4,1.4,0,0,1,.56-.1.81.81,0,0,1,.61.31,1.31,1.31,0,0,1-.46,2,3.12,3.12,0,0,1-1.57.43,7.76,7.76,0,0,1-1.12-.09,3,3,0,0,1-1.15-.4,2.52,2.52,0,0,1-.9-1,4,4,0,0,1-.36-1.85V27.43A1.44,1.44,0,0,1,214.57,26Z"/><path class="cls-3" d="M222.52,27.17a1.87,1.87,0,0,1-1.15-.27A1.12,1.12,0,0,1,221,26v-.46a1.08,1.08,0,0,1,.38-1,2.09,2.09,0,0,1,1.14-.25,1.9,1.9,0,0,1,1.17.27,1.09,1.09,0,0,1,.34.93V26a1.1,1.1,0,0,1-.36,1A2.18,2.18,0,0,1,222.52,27.17ZM224,40.1a1.46,1.46,0,0,1-.41,1,1.38,1.38,0,0,1-1,.42,1.4,1.4,0,0,1-1-.42,1.45,1.45,0,0,1-.4-1V30.19a1.44,1.44,0,0,1,.4-1,1.4,1.4,0,0,1,1-.42,1.38,1.38,0,0,1,1,.42,1.45,1.45,0,0,1,.41,1Z"/><path class="cls-3" d="M227.19,28.73A1.52,1.52,0,0,1,228,29a1.39,1.39,0,0,1,.58.68l3.53,8.06-.53.24,3.6-8.28a1.26,1.26,0,0,1,1.27-.91,1.33,1.33,0,0,1,1,.37,1.27,1.27,0,0,1,.38.93,1.23,1.23,0,0,1-.06.36c0,.13-.09.25-.13.36l-4.49,9.89a1.39,1.39,0,0,1-1.23.91,1.29,1.29,0,0,1-.87-.17,1.56,1.56,0,0,1-.64-.74L226,30.77a2.68,2.68,0,0,1-.11-.31,1.56,1.56,0,0,1-.06-.46,1.28,1.28,0,0,1,.38-.85A1.33,1.33,0,0,1,227.19,28.73Z"/><path class="cls-3" d="M251.79,35.16a6.8,6.8,0,0,1-.87,3.47A6.31,6.31,0,0,1,248.56,41a6.9,6.9,0,0,1-6.6,0,6.36,6.36,0,0,1-2.35-2.34,7.36,7.36,0,0,1,0-6.94,6.56,6.56,0,0,1,11.31,0A6.8,6.8,0,0,1,251.79,35.16Zm-2.88,0a4.31,4.31,0,0,0-.49-2.12,3.74,3.74,0,0,0-1.32-1.41,3.62,3.62,0,0,0-3.67,0A3.74,3.74,0,0,0,242.11,33a4.79,4.79,0,0,0,0,4.22,3.64,3.64,0,0,0,1.32,1.4,3.56,3.56,0,0,0,3.67,0,3.64,3.64,0,0,0,1.32-1.4A4.29,4.29,0,0,0,248.91,35.16Z"/></g></g></g></svg>