<?xml version="1.0" encoding="utf-8"?>
<!-- Generator: Adobe Illustrator 22.0.1, SVG Export Plug-In . SVG Version: 6.00 Build 0)  -->
<svg version="1.1" id="Layer_1" xmlns="http://www.w3.org/2000/svg" xmlns:xlink="http://www.w3.org/1999/xlink" x="0px" y="0px"
	 viewBox="0 0 501.4 83.1" style="enable-background:new 0 0 501.4 83.1;" xml:space="preserve">
<style type="text/css">
	.st0{opacity:0.27;}
	.st1{fill:#002451;}
	.st2{fill:#FFF2CC;}
	.st3{fill:none;}
	.st4{fill:#29ABE2;}
	.st5{opacity:0.2;}
	.st6{fill:#FFFFFF;}
	.st7{fill:#4D4D4D;}
</style>
<title>lab03-bxB2</title>
<g>
	<g id="Layer_2_1_">
		<g id="Layer_1-2">
			<g class="st0">
				<path class="st1" d="M14.4,2.8h475.5c6.3,0,11.4,5.1,11.4,11.4v57.4c0,6.3-5.1,11.4-11.4,11.4H14.4C8.1,83.1,3,78,3,71.7V14.3
					C3,8,8.1,2.8,14.4,2.8z"/>
			</g>
			<path class="st2" d="M11.4,0H487c6.3,0,11.4,5.1,11.4,11.4v57.4c0,6.3-5.1,11.4-11.4,11.4H11.4C5.1,80.3,0,75.2,0,68.8V11.4
				C0,5.1,5.1,0,11.4,0z"/>
			<path class="st3" d="M471.5,78.4v-15c0.1-4.6,3.9-8.3,8.5-8.2h15.7c0.9,0,1.8,0.1,2.7,0.4V11.2C498.2,4.9,493-0.1,486.7,0h-475
				C5.4-0.1,0.1,4.9,0,11.2c0,0,0,0,0,0v57.9c0.1,6.3,5.4,11.3,11.7,11.2h460C471.6,79.7,471.5,79,471.5,78.4z"/>
			<path class="st4" d="M487.2,55.1c-8.7,0-15.7,6.7-15.7,15v8.2c0,0.7,0.1,1.3,0.2,1.9h15c6.3,0.1,11.6-4.9,11.7-11.2V55.6
				c-0.9-0.3-1.8-0.4-2.7-0.4L487.2,55.1z"/>
			<g class="st5">
				<rect x="485.2" y="63.6" width="1.4" height="10.2"/>
				<polygon points="485.9,59.7 483.1,64.3 488.6,64.3 				"/>
				<polygon points="485.9,77.7 488.7,73.1 483.2,73.1 				"/>
				<rect x="480.6" y="68.1" width="10.7" height="1.3"/>
				<polygon points="476.5,68.7 481.3,71.3 481.3,66.1 				"/>
				<polygon points="495.3,68.7 490.5,66 490.5,71.3 				"/>
			</g>
			<rect x="484.3" y="62.6" class="st6" width="1.4" height="10.2"/>
			<polygon class="st6" points="484.9,58.8 482.2,63.3 487.7,63.3 			"/>
			<polygon class="st6" points="485,76.7 487.7,72.1 482.2,72.1 			"/>
			<rect x="479.6" y="67.1" class="st6" width="10.7" height="1.3"/>
			<polygon class="st6" points="475.6,67.7 480.4,70.4 480.4,65.1 			"/>
			<polygon class="st6" points="494.3,67.7 489.5,65.1 489.5,70.3 			"/>
			<g>
				<g>
					<path class="st7" d="M17.1,14.2h6.6c0.2,0,0.3,0.1,0.4,0.2c0.1,0.1,0.2,0.2,0.2,0.4c0,0.2-0.1,0.3-0.2,0.4
						c-0.1,0.1-0.2,0.1-0.4,0.1h-6.2l0.2-0.3v5.1l-0.2-0.2h5.4c0.2,0,0.3,0.1,0.4,0.2c0.1,0.1,0.2,0.2,0.2,0.4
						c0,0.2-0.1,0.3-0.2,0.4c-0.1,0.1-0.2,0.1-0.4,0.1h-5.3l0.2-0.2v5.2l-0.1-0.1h6.1c0.2,0,0.3,0.1,0.4,0.2
						c0.1,0.1,0.2,0.2,0.2,0.4c0,0.2-0.1,0.3-0.2,0.4c-0.1,0.1-0.2,0.1-0.4,0.1h-6.6c-0.2,0-0.3-0.1-0.4-0.2
						c-0.1-0.1-0.2-0.2-0.2-0.4V14.8c0-0.1,0.1-0.3,0.2-0.4C16.8,14.3,17,14.2,17.1,14.2z"/>
					<path class="st7" d="M27.3,26.3c0,0.1-0.1,0.3-0.2,0.4c-0.1,0.1-0.2,0.2-0.4,0.2c-0.2,0-0.3-0.1-0.4-0.2
						c-0.1-0.1-0.2-0.2-0.2-0.4V14.1c0-0.1,0.1-0.3,0.2-0.4c0.1-0.1,0.2-0.2,0.4-0.2c0.2,0,0.3,0.1,0.4,0.2c0.1,0.1,0.2,0.2,0.2,0.4
						V26.3z"/>
					<path class="st7" d="M42.7,17.6c0.2,0,0.3,0.1,0.4,0.2c0.1,0.1,0.2,0.2,0.2,0.4v11.7c0,0.1-0.1,0.3-0.2,0.4
						c-0.1,0.1-0.2,0.2-0.4,0.2c-0.2,0-0.3-0.1-0.4-0.2c-0.1-0.1-0.2-0.2-0.2-0.4v-5.7l0.3-0.3c0,0.3-0.1,0.7-0.3,1.1
						c-0.2,0.4-0.4,0.7-0.8,1c-0.3,0.3-0.7,0.6-1.2,0.7c-0.4,0.2-0.9,0.3-1.4,0.3c-0.8,0-1.5-0.2-2.2-0.6s-1.1-1-1.5-1.7
						s-0.6-1.5-0.6-2.5c0-0.9,0.2-1.7,0.6-2.5c0.4-0.7,0.9-1.3,1.5-1.7s1.4-0.6,2.1-0.6c0.5,0,1,0.1,1.4,0.3
						c0.4,0.2,0.8,0.4,1.2,0.7c0.3,0.3,0.6,0.7,0.8,1.1s0.3,0.8,0.3,1.3l-0.4-0.3v-2.3c0-0.2,0.1-0.3,0.2-0.4
						C42.4,17.7,42.5,17.6,42.7,17.6z M38.9,26c0.6,0,1.2-0.2,1.7-0.5s0.9-0.8,1.2-1.3s0.4-1.2,0.4-2c0-0.7-0.1-1.4-0.4-1.9
						c-0.3-0.6-0.7-1-1.2-1.3c-0.5-0.3-1.1-0.5-1.7-0.5c-0.6,0-1.2,0.2-1.7,0.5c-0.5,0.3-0.9,0.8-1.2,1.3c-0.3,0.6-0.4,1.2-0.4,1.9
						s0.1,1.4,0.4,1.9c0.3,0.6,0.7,1,1.2,1.4S38.3,26,38.9,26z"/>
					<path class="st7" d="M52.7,17.7c0.2,0,0.3,0.1,0.4,0.2c0.1,0.1,0.2,0.2,0.2,0.4v5.1c0,1.2-0.3,2.1-1,2.7S50.6,27,49.5,27
						c-1.1,0-2-0.3-2.7-0.9s-1-1.5-1-2.7v-5.1c0-0.1,0.1-0.3,0.2-0.4c0.1-0.1,0.2-0.2,0.4-0.2s0.3,0.1,0.4,0.2
						c0.1,0.1,0.2,0.2,0.2,0.4v5.1c0,0.9,0.2,1.5,0.7,2c0.5,0.4,1.1,0.7,1.9,0.7c0.8,0,1.5-0.2,1.9-0.7c0.5-0.5,0.7-1.1,0.7-2v-5.1
						c0-0.1,0.1-0.3,0.2-0.4C52.4,17.8,52.5,17.7,52.7,17.7z"/>
					<path class="st7" d="M56.3,16.3c-0.3,0-0.4-0.1-0.6-0.2c-0.1-0.1-0.2-0.3-0.2-0.5v-0.2c0-0.2,0.1-0.4,0.2-0.5
						c0.1-0.1,0.3-0.2,0.6-0.2c0.2,0,0.4,0.1,0.5,0.2c0.1,0.1,0.2,0.3,0.2,0.5v0.2c0,0.2-0.1,0.4-0.2,0.5
						C56.7,16.2,56.5,16.3,56.3,16.3z M56.8,26.3c0,0.1-0.1,0.3-0.2,0.4c-0.1,0.1-0.2,0.2-0.4,0.2c-0.2,0-0.3-0.1-0.4-0.2
						c-0.1-0.1-0.1-0.2-0.1-0.4V18c0-0.1,0.1-0.3,0.2-0.4c0.1-0.1,0.2-0.2,0.4-0.2s0.3,0.1,0.4,0.2c0.1,0.1,0.2,0.2,0.2,0.4V26.3z"
						/>
					<path class="st7" d="M60.6,26.3c0,0.1-0.1,0.3-0.2,0.4c-0.1,0.1-0.2,0.2-0.4,0.2c-0.2,0-0.3-0.1-0.4-0.2
						c-0.1-0.1-0.2-0.2-0.2-0.4V14.1c0-0.1,0.1-0.3,0.2-0.4c0.1-0.1,0.2-0.2,0.4-0.2c0.2,0,0.3,0.1,0.4,0.2c0.1,0.1,0.2,0.2,0.2,0.4
						V26.3z"/>
					<path class="st7" d="M71.9,22.2c0,0.9-0.2,1.7-0.6,2.5c-0.4,0.7-0.9,1.3-1.6,1.7C69,26.8,68.2,27,67.3,27
						c-0.9,0-1.6-0.2-2.3-0.6s-1.2-1-1.6-1.7c-0.4-0.7-0.6-1.5-0.6-2.5c0-0.9,0.2-1.7,0.6-2.5c0.4-0.7,0.9-1.3,1.6-1.7
						s1.5-0.6,2.3-0.6c0.9,0,1.6,0.2,2.3,0.6c0.7,0.4,1.2,1,1.6,1.7C71.7,20.5,71.9,21.3,71.9,22.2z M70.8,22.2c0-0.7-0.2-1.4-0.5-2
						c-0.3-0.6-0.7-1-1.2-1.3c-0.5-0.3-1.1-0.5-1.8-0.5c-0.7,0-1.3,0.2-1.8,0.5c-0.5,0.3-0.9,0.8-1.2,1.3c-0.3,0.6-0.5,1.2-0.5,2
						c0,0.7,0.2,1.4,0.5,1.9c0.3,0.6,0.7,1,1.2,1.3c0.5,0.3,1.1,0.5,1.8,0.5c0.7,0,1.3-0.2,1.8-0.5c0.5-0.3,0.9-0.8,1.2-1.3
						C70.6,23.6,70.8,23,70.8,22.2z"/>
					<path class="st7" d="M86.5,17.6c0.2,0,0.3,0.1,0.4,0.2C87,17.9,87,18,87,18.2v11.7c0,0.1-0.1,0.3-0.2,0.4
						c-0.1,0.1-0.2,0.2-0.4,0.2c-0.2,0-0.3-0.1-0.4-0.2c-0.1-0.1-0.2-0.2-0.2-0.4v-5.7l0.3-0.3c0,0.3-0.1,0.7-0.3,1.1
						c-0.2,0.4-0.4,0.7-0.8,1c-0.3,0.3-0.7,0.6-1.2,0.7c-0.4,0.2-0.9,0.3-1.4,0.3c-0.8,0-1.5-0.2-2.2-0.6s-1.1-1-1.5-1.7
						s-0.6-1.5-0.6-2.5c0-0.9,0.2-1.7,0.6-2.5c0.4-0.7,0.9-1.3,1.5-1.7s1.4-0.6,2.1-0.6c0.5,0,1,0.1,1.4,0.3
						c0.4,0.2,0.8,0.4,1.2,0.7c0.3,0.3,0.6,0.7,0.8,1.1s0.3,0.8,0.3,1.3l-0.4-0.3v-2.3c0-0.2,0.1-0.3,0.2-0.4
						C86.2,17.7,86.3,17.6,86.5,17.6z M82.7,26c0.6,0,1.2-0.2,1.7-0.5s0.9-0.8,1.2-1.3s0.4-1.2,0.4-2c0-0.7-0.1-1.4-0.4-1.9
						c-0.3-0.6-0.7-1-1.2-1.3c-0.5-0.3-1.1-0.5-1.7-0.5c-0.6,0-1.2,0.2-1.7,0.5c-0.5,0.3-0.9,0.8-1.2,1.3c-0.3,0.6-0.4,1.2-0.4,1.9
						s0.1,1.4,0.4,1.9c0.3,0.6,0.7,1,1.2,1.4S82.1,26,82.7,26z"/>
					<path class="st7" d="M96.5,17.7c0.2,0,0.3,0.1,0.4,0.2C97,18,97,18.1,97,18.2v5.1c0,1.2-0.3,2.1-1,2.7S94.5,27,93.3,27
						c-1.1,0-2-0.3-2.7-0.9s-1-1.5-1-2.7v-5.1c0-0.1,0.1-0.3,0.2-0.4c0.1-0.1,0.2-0.2,0.4-0.2s0.3,0.1,0.4,0.2
						c0.1,0.1,0.2,0.2,0.2,0.4v5.1c0,0.9,0.2,1.5,0.7,2c0.5,0.4,1.1,0.7,1.9,0.7c0.8,0,1.5-0.2,1.9-0.7c0.5-0.5,0.7-1.1,0.7-2v-5.1
						c0-0.1,0.1-0.3,0.2-0.4C96.2,17.8,96.3,17.7,96.5,17.7z"/>
					<path class="st7" d="M103.8,27c-0.9,0-1.8-0.2-2.5-0.6c-0.7-0.4-1.3-0.9-1.6-1.7c-0.4-0.7-0.6-1.5-0.6-2.5c0-1,0.2-1.9,0.6-2.6
						c0.4-0.7,0.9-1.3,1.6-1.7c0.6-0.4,1.3-0.6,2-0.6c0.5,0,1,0.1,1.5,0.3c0.5,0.2,0.9,0.5,1.3,0.8s0.7,0.8,0.9,1.3
						c0.2,0.5,0.4,1.1,0.4,1.8c0,0.1-0.1,0.3-0.2,0.4c-0.1,0.1-0.2,0.2-0.4,0.2h-7.2l-0.2-1h7.1l-0.2,0.2v-0.4c0-0.6-0.2-1-0.5-1.4
						c-0.3-0.4-0.7-0.7-1.1-0.9c-0.4-0.2-0.9-0.3-1.4-0.3c-0.4,0-0.7,0.1-1.1,0.2c-0.4,0.1-0.7,0.4-1,0.7c-0.3,0.3-0.6,0.7-0.7,1.2
						c-0.2,0.5-0.3,1-0.3,1.7c0,0.7,0.1,1.3,0.4,1.9s0.7,1,1.2,1.4s1.2,0.5,2,0.5c0.4,0,0.8-0.1,1.1-0.2c0.3-0.1,0.6-0.3,0.9-0.5
						c0.3-0.2,0.5-0.4,0.6-0.6c0.1-0.1,0.2-0.2,0.4-0.2s0.2,0,0.3,0.1c0.1,0.1,0.1,0.2,0.1,0.3c0,0.1-0.1,0.3-0.2,0.4
						c-0.4,0.4-0.8,0.8-1.4,1.1C105.1,26.9,104.5,27,103.8,27z"/>
					<path class="st7" d="M119,17.4c0.8,0,1.4,0.2,1.9,0.5c0.5,0.3,0.8,0.8,1,1.3s0.3,1.1,0.3,1.8v5.3c0,0.1-0.1,0.3-0.2,0.4
						c-0.1,0.1-0.2,0.2-0.4,0.2c-0.2,0-0.3-0.1-0.4-0.2c-0.1-0.1-0.2-0.2-0.2-0.4v-5.2c0-0.5-0.1-0.9-0.2-1.3
						c-0.2-0.4-0.4-0.7-0.8-0.9c-0.3-0.2-0.8-0.4-1.4-0.4c-0.5,0-1,0.1-1.5,0.4s-0.8,0.5-1.1,0.9c-0.3,0.4-0.4,0.8-0.4,1.3v5.2
						c0,0.1-0.1,0.3-0.2,0.4c-0.1,0.1-0.2,0.2-0.4,0.2c-0.2,0-0.3-0.1-0.4-0.2c-0.1-0.1-0.2-0.2-0.2-0.4v-8.1c0-0.1,0.1-0.3,0.2-0.4
						c0.1-0.1,0.2-0.2,0.4-0.2s0.3,0.1,0.4,0.2c0.1,0.1,0.2,0.2,0.2,0.4v1.5l-0.4,0.6c0-0.4,0.1-0.8,0.4-1.1c0.2-0.4,0.5-0.7,0.9-1
						c0.3-0.3,0.7-0.5,1.2-0.7S118.6,17.4,119,17.4z"/>
					<path class="st7" d="M133.4,22.2c0,0.9-0.2,1.7-0.6,2.5c-0.4,0.7-0.9,1.3-1.6,1.7c-0.7,0.4-1.5,0.6-2.3,0.6
						c-0.9,0-1.6-0.2-2.3-0.6s-1.2-1-1.6-1.7c-0.4-0.7-0.6-1.5-0.6-2.5c0-0.9,0.2-1.7,0.6-2.5c0.4-0.7,0.9-1.3,1.6-1.7
						s1.5-0.6,2.3-0.6c0.9,0,1.6,0.2,2.3,0.6c0.7,0.4,1.2,1,1.6,1.7C133.2,20.5,133.4,21.3,133.4,22.2z M132.3,22.2
						c0-0.7-0.2-1.4-0.5-2c-0.3-0.6-0.7-1-1.2-1.3c-0.5-0.3-1.1-0.5-1.8-0.5c-0.7,0-1.3,0.2-1.8,0.5c-0.5,0.3-0.9,0.8-1.2,1.3
						c-0.3,0.6-0.5,1.2-0.5,2c0,0.7,0.2,1.4,0.5,1.9c0.3,0.6,0.7,1,1.2,1.3c0.5,0.3,1.1,0.5,1.8,0.5c0.7,0,1.3-0.2,1.8-0.5
						c0.5-0.3,0.9-0.8,1.2-1.3C132.1,23.6,132.3,23,132.3,22.2z"/>
					<path class="st7" d="M140,25.4c-0.1-0.1-0.1-0.3-0.1-0.4s0.1-0.2,0.2-0.3c0.1-0.1,0.2-0.1,0.3-0.1c0.1,0,0.2,0.1,0.4,0.2
						c0.3,0.4,0.7,0.8,1.2,1s1,0.4,1.6,0.4c0.3,0,0.7-0.1,1-0.2c0.3-0.1,0.6-0.3,0.8-0.5c0.2-0.2,0.3-0.5,0.3-0.9
						c0-0.4-0.1-0.7-0.3-0.9c-0.2-0.2-0.5-0.4-0.8-0.5c-0.3-0.1-0.7-0.3-1.1-0.4c-0.4-0.1-0.8-0.2-1.2-0.4s-0.7-0.3-1-0.5
						s-0.5-0.5-0.7-0.8s-0.3-0.7-0.3-1.1c0-0.5,0.1-0.9,0.4-1.3c0.3-0.4,0.6-0.7,1.1-0.9c0.5-0.2,1-0.3,1.6-0.3c0.3,0,0.6,0,1,0.1
						c0.3,0.1,0.7,0.2,1,0.4s0.6,0.4,0.9,0.7c0.1,0.1,0.2,0.2,0.2,0.4s-0.1,0.3-0.2,0.4c-0.1,0.1-0.2,0.1-0.3,0.1
						c-0.1,0-0.2-0.1-0.3-0.2c-0.3-0.3-0.6-0.6-1-0.7c-0.4-0.2-0.8-0.2-1.3-0.2c-0.3,0-0.7,0.1-1,0.2c-0.3,0.1-0.6,0.3-0.8,0.5
						c-0.2,0.2-0.3,0.5-0.3,0.9c0,0.3,0.1,0.6,0.4,0.8c0.2,0.2,0.5,0.4,0.9,0.5c0.4,0.1,0.8,0.3,1.2,0.4c0.4,0.1,0.8,0.2,1.1,0.3
						c0.4,0.1,0.7,0.3,0.9,0.5c0.3,0.2,0.5,0.4,0.6,0.7s0.2,0.7,0.2,1.1c0,0.5-0.1,1-0.4,1.4s-0.7,0.7-1.2,0.9
						c-0.5,0.2-1,0.3-1.6,0.3c-0.6,0-1.3-0.1-1.9-0.4C141,26.4,140.5,26,140,25.4z"/>
					<path class="st7" d="M152.9,27c-0.9,0-1.8-0.2-2.5-0.6c-0.7-0.4-1.3-0.9-1.6-1.7c-0.4-0.7-0.6-1.5-0.6-2.5c0-1,0.2-1.9,0.6-2.6
						c0.4-0.7,0.9-1.3,1.6-1.7c0.6-0.4,1.3-0.6,2-0.6c0.5,0,1,0.1,1.5,0.3c0.5,0.2,0.9,0.5,1.3,0.8s0.7,0.8,0.9,1.3
						c0.2,0.5,0.4,1.1,0.4,1.8c0,0.1-0.1,0.3-0.2,0.4c-0.1,0.1-0.2,0.2-0.4,0.2h-7.2l-0.2-1h7.1l-0.2,0.2v-0.4c0-0.6-0.2-1-0.5-1.4
						c-0.3-0.4-0.7-0.7-1.1-0.9c-0.4-0.2-0.9-0.3-1.4-0.3c-0.4,0-0.7,0.1-1.1,0.2c-0.4,0.1-0.7,0.4-1,0.7c-0.3,0.3-0.6,0.7-0.7,1.2
						c-0.2,0.5-0.3,1-0.3,1.7c0,0.7,0.1,1.3,0.4,1.9s0.7,1,1.2,1.4s1.2,0.5,2,0.5c0.4,0,0.8-0.1,1.1-0.2c0.3-0.1,0.6-0.3,0.9-0.5
						c0.3-0.2,0.5-0.4,0.6-0.6c0.1-0.1,0.2-0.2,0.4-0.2s0.2,0,0.3,0.1c0.1,0.1,0.1,0.2,0.1,0.3c0,0.1-0.1,0.3-0.2,0.4
						c-0.4,0.4-0.8,0.8-1.4,1.1C154.2,26.9,153.6,27,152.9,27z"/>
					<path class="st7" d="M171.2,17.6c0.2,0,0.3,0.1,0.4,0.2c0.1,0.1,0.2,0.2,0.2,0.4v8.1c0,0.1-0.1,0.3-0.2,0.4
						c-0.1,0.1-0.2,0.2-0.4,0.2c-0.2,0-0.3-0.1-0.4-0.2c-0.1-0.1-0.2-0.2-0.2-0.4v-2.1L171,24c0,0.3-0.1,0.7-0.3,1
						c-0.2,0.4-0.4,0.7-0.8,1c-0.3,0.3-0.7,0.5-1.1,0.7c-0.4,0.2-0.9,0.3-1.4,0.3c-0.8,0-1.5-0.2-2.2-0.6c-0.6-0.4-1.1-1-1.5-1.7
						c-0.4-0.7-0.5-1.6-0.5-2.5c0-0.9,0.2-1.8,0.6-2.5s0.9-1.3,1.5-1.7s1.4-0.6,2.1-0.6c0.5,0,1,0.1,1.4,0.3
						c0.5,0.2,0.8,0.4,1.2,0.7c0.3,0.3,0.6,0.7,0.8,1.1c0.2,0.4,0.3,0.8,0.3,1.3l-0.4-0.3v-2.3c0-0.2,0.1-0.3,0.2-0.4
						C170.9,17.7,171.1,17.6,171.2,17.6z M167.5,26c0.6,0,1.2-0.2,1.7-0.5s0.9-0.8,1.2-1.4c0.3-0.6,0.4-1.2,0.4-2
						c0-0.7-0.1-1.3-0.4-1.9s-0.7-1-1.2-1.3s-1.1-0.5-1.7-0.5c-0.6,0-1.2,0.2-1.7,0.5c-0.5,0.3-0.9,0.8-1.2,1.3s-0.4,1.2-0.4,1.9
						c0,0.7,0.1,1.4,0.4,2c0.3,0.6,0.7,1,1.2,1.4C166.3,25.9,166.8,26,167.5,26z"/>
					<path class="st7" d="M178.8,17.6c0.8,0,1.5,0.2,2.2,0.6s1.1,1,1.5,1.7s0.6,1.5,0.6,2.4s-0.2,1.7-0.6,2.4s-0.9,1.3-1.5,1.7
						c-0.6,0.4-1.3,0.6-2.1,0.6c-0.4,0-0.8-0.1-1.2-0.2c-0.4-0.1-0.7-0.3-1-0.5c-0.3-0.2-0.6-0.5-0.8-0.8s-0.4-0.6-0.6-0.9l0.3-0.3
						v5.6c0,0.1-0.1,0.3-0.2,0.4c-0.1,0.1-0.2,0.2-0.4,0.2s-0.3-0.1-0.4-0.2c-0.1-0.1-0.2-0.2-0.2-0.4V18.2c0-0.2,0.1-0.3,0.2-0.4
						c0.1-0.1,0.2-0.2,0.4-0.2c0.2,0,0.3,0.1,0.4,0.2c0.1,0.1,0.2,0.2,0.2,0.4v1.9l-0.3-0.1c0.1-0.4,0.3-0.7,0.5-1
						c0.2-0.3,0.5-0.5,0.8-0.8c0.3-0.2,0.7-0.4,1-0.5C178,17.6,178.4,17.6,178.8,17.6z M178.7,18.6c-0.6,0-1.2,0.2-1.7,0.5
						c-0.5,0.3-0.9,0.8-1.2,1.3c-0.3,0.5-0.4,1.2-0.4,1.9c0,0.7,0.1,1.3,0.4,1.9c0.3,0.6,0.7,1,1.2,1.3c0.5,0.3,1.1,0.5,1.7,0.5
						c0.6,0,1.2-0.2,1.7-0.5c0.5-0.3,0.9-0.8,1.2-1.3c0.3-0.6,0.4-1.2,0.4-1.9s-0.1-1.3-0.4-1.9c-0.3-0.6-0.7-1-1.2-1.3
						C179.9,18.7,179.3,18.6,178.7,18.6z"/>
					<path class="st7" d="M185.6,26.8c-0.2,0-0.3-0.1-0.4-0.2c-0.1-0.1-0.2-0.2-0.2-0.4v-8.1c0-0.1,0.1-0.3,0.2-0.4
						c0.1-0.1,0.2-0.2,0.4-0.2s0.3,0.1,0.4,0.2c0.1,0.1,0.2,0.2,0.2,0.4v2.7l-0.3,0.1c0-0.4,0.1-0.8,0.3-1.3s0.4-0.8,0.7-1.1
						c0.3-0.3,0.7-0.6,1.1-0.8s0.9-0.3,1.4-0.3c0.2,0,0.4,0,0.6,0.1s0.3,0.2,0.3,0.4c0,0.2,0,0.3-0.1,0.4c-0.1,0.1-0.2,0.1-0.3,0.1
						c-0.1,0-0.2,0-0.4-0.1c-0.1-0.1-0.3-0.1-0.5-0.1c-0.3,0-0.7,0.1-1,0.3s-0.6,0.5-0.9,0.8c-0.3,0.3-0.5,0.7-0.7,1.1
						s-0.2,0.8-0.2,1.3v4.4c0,0.1-0.1,0.3-0.2,0.4C185.9,26.8,185.8,26.8,185.6,26.8z"/>
					<path class="st7" d="M200,22.2c0,0.9-0.2,1.7-0.6,2.5c-0.4,0.7-0.9,1.3-1.6,1.7c-0.7,0.4-1.5,0.6-2.3,0.6
						c-0.9,0-1.6-0.2-2.3-0.6s-1.2-1-1.6-1.7c-0.4-0.7-0.6-1.5-0.6-2.5c0-0.9,0.2-1.7,0.6-2.5c0.4-0.7,0.9-1.3,1.6-1.7
						s1.5-0.6,2.3-0.6c0.9,0,1.6,0.2,2.3,0.6c0.7,0.4,1.2,1,1.6,1.7C199.8,20.5,200,21.3,200,22.2z M198.9,22.2c0-0.7-0.2-1.4-0.5-2
						c-0.3-0.6-0.7-1-1.2-1.3c-0.5-0.3-1.1-0.5-1.8-0.5c-0.7,0-1.3,0.2-1.8,0.5c-0.5,0.3-0.9,0.8-1.2,1.3c-0.3,0.6-0.5,1.2-0.5,2
						c0,0.7,0.2,1.4,0.5,1.9c0.3,0.6,0.7,1,1.2,1.3c0.5,0.3,1.1,0.5,1.8,0.5c0.7,0,1.3-0.2,1.8-0.5c0.5-0.3,0.9-0.8,1.2-1.3
						C198.7,23.6,198.9,23,198.9,22.2z"/>
					<path class="st7" d="M201.4,17.4c0.1,0,0.2,0,0.3,0.1c0.1,0.1,0.2,0.1,0.2,0.3l3.2,7.5l-0.2,0.1l3.2-7.6
						c0.1-0.2,0.3-0.4,0.5-0.3c0.1,0,0.2,0,0.3,0.1s0.2,0.2,0.2,0.3c0,0.1,0,0.1,0,0.2c0,0,0,0.1,0,0.1l-3.5,8.3
						c-0.1,0.2-0.3,0.3-0.5,0.3c-0.1,0-0.2,0-0.3-0.1c-0.1-0.1-0.2-0.2-0.2-0.3l-3.5-8.3c0,0,0-0.1,0-0.1c0,0,0-0.1,0-0.1
						c0-0.1,0-0.3,0.1-0.4C201.1,17.5,201.3,17.4,201.4,17.4z"/>
					<path class="st7" d="M214.7,27c-0.9,0-1.8-0.2-2.5-0.6c-0.7-0.4-1.3-0.9-1.6-1.7c-0.4-0.7-0.6-1.5-0.6-2.5c0-1,0.2-1.9,0.6-2.6
						c0.4-0.7,0.9-1.3,1.6-1.7c0.6-0.4,1.3-0.6,2-0.6c0.5,0,1,0.1,1.5,0.3c0.5,0.2,0.9,0.5,1.3,0.8s0.7,0.8,0.9,1.3
						c0.2,0.5,0.4,1.1,0.4,1.8c0,0.1-0.1,0.3-0.2,0.4c-0.1,0.1-0.2,0.2-0.4,0.2h-7.2l-0.2-1h7.1l-0.2,0.2v-0.4c0-0.6-0.2-1-0.5-1.4
						c-0.3-0.4-0.7-0.7-1.1-0.9c-0.4-0.2-0.9-0.3-1.4-0.3c-0.4,0-0.7,0.1-1.1,0.2c-0.4,0.1-0.7,0.4-1,0.7c-0.3,0.3-0.6,0.7-0.7,1.2
						c-0.2,0.5-0.3,1-0.3,1.7c0,0.7,0.1,1.3,0.4,1.9s0.7,1,1.2,1.4s1.2,0.5,2,0.5c0.4,0,0.8-0.1,1.1-0.2c0.3-0.1,0.6-0.3,0.9-0.5
						c0.3-0.2,0.5-0.4,0.6-0.6c0.1-0.1,0.2-0.2,0.4-0.2s0.2,0,0.3,0.1c0.1,0.1,0.1,0.2,0.1,0.3c0,0.1-0.1,0.3-0.2,0.4
						c-0.4,0.4-0.8,0.8-1.4,1.1C216,26.9,215.4,27,214.7,27z"/>
					<path class="st7" d="M224.6,17.4c0.6,0,1.1,0.1,1.6,0.2c0.5,0.1,0.9,0.3,1.2,0.5s0.4,0.5,0.4,0.7c0,0.1,0,0.2-0.1,0.4
						c-0.1,0.1-0.2,0.2-0.4,0.2c-0.1,0-0.3,0-0.4-0.1c-0.1-0.1-0.2-0.2-0.3-0.3s-0.2-0.2-0.4-0.3c-0.2-0.1-0.4-0.2-0.7-0.2
						c-0.3-0.1-0.6-0.1-1-0.1c-0.7,0-1.3,0.2-1.8,0.5s-1,0.8-1.3,1.3c-0.3,0.6-0.5,1.2-0.5,1.9c0,0.7,0.1,1.4,0.4,1.9
						c0.3,0.6,0.7,1,1.2,1.4c0.5,0.3,1.1,0.5,1.8,0.5c0.5,0,0.9,0,1.1-0.1c0.3-0.1,0.5-0.2,0.7-0.3c0.2-0.1,0.4-0.3,0.5-0.4
						c0.1-0.1,0.2-0.2,0.4-0.2c0.1,0,0.3,0,0.3,0.1c0.1,0.1,0.1,0.2,0.1,0.4c0,0.2-0.1,0.4-0.4,0.6c-0.3,0.2-0.7,0.4-1.2,0.6
						s-1.1,0.3-1.7,0.3c-0.9,0-1.7-0.2-2.3-0.6s-1.2-1-1.6-1.7c-0.4-0.7-0.6-1.5-0.6-2.5c0-0.9,0.2-1.7,0.6-2.4
						c0.4-0.7,0.9-1.3,1.6-1.7C222.9,17.6,223.7,17.4,224.6,17.4z"/>
					<path class="st7" d="M233.8,17.6c0.8,0,1.4,0.2,1.8,0.5s0.8,0.8,1,1.3c0.2,0.6,0.3,1.2,0.3,1.8v5.1c0,0.1-0.1,0.3-0.2,0.4
						c-0.1,0.1-0.2,0.2-0.4,0.2c-0.2,0-0.3-0.1-0.4-0.2c-0.1-0.1-0.2-0.2-0.2-0.4v-5.1c0-0.5-0.1-0.9-0.2-1.3
						c-0.2-0.4-0.4-0.7-0.7-0.9c-0.3-0.2-0.8-0.4-1.3-0.4c-0.5,0-1,0.1-1.4,0.4c-0.5,0.2-0.8,0.6-1.1,0.9s-0.4,0.8-0.4,1.3v5.1
						c0,0.1-0.1,0.3-0.2,0.4c-0.1,0.1-0.2,0.2-0.4,0.2c-0.2,0-0.3-0.1-0.4-0.2c-0.1-0.1-0.2-0.2-0.2-0.4V14.1c0-0.1,0.1-0.3,0.2-0.4
						c0.1-0.1,0.2-0.2,0.4-0.2s0.3,0.1,0.4,0.2c0.1,0.1,0.2,0.2,0.2,0.4v5.8l-0.4,0.6c0-0.4,0.1-0.7,0.4-1.1c0.2-0.4,0.5-0.7,0.8-1
						c0.3-0.3,0.7-0.5,1.1-0.7S233.4,17.6,233.8,17.6z"/>
					<path class="st7" d="M248.1,22.2c0,0.9-0.2,1.7-0.6,2.5c-0.4,0.7-0.9,1.3-1.6,1.7c-0.7,0.4-1.5,0.6-2.3,0.6
						c-0.9,0-1.6-0.2-2.3-0.6s-1.2-1-1.6-1.7c-0.4-0.7-0.6-1.5-0.6-2.5c0-0.9,0.2-1.7,0.6-2.5c0.4-0.7,0.9-1.3,1.6-1.7
						s1.5-0.6,2.3-0.6c0.9,0,1.6,0.2,2.3,0.6c0.7,0.4,1.2,1,1.6,1.7C247.9,20.5,248.1,21.3,248.1,22.2z M247,22.2
						c0-0.7-0.2-1.4-0.5-2c-0.3-0.6-0.7-1-1.2-1.3c-0.5-0.3-1.1-0.5-1.8-0.5c-0.7,0-1.3,0.2-1.8,0.5c-0.5,0.3-0.9,0.8-1.2,1.3
						c-0.3,0.6-0.5,1.2-0.5,2c0,0.7,0.2,1.4,0.5,1.9c0.3,0.6,0.7,1,1.2,1.3c0.5,0.3,1.1,0.5,1.8,0.5c0.7,0,1.3-0.2,1.8-0.5
						c0.5-0.3,0.9-0.8,1.2-1.3C246.9,23.6,247,23,247,22.2z M243.4,16.8c-0.1,0-0.1,0-0.2-0.1c-0.1-0.1-0.1-0.1-0.1-0.2
						c0-0.1,0-0.2,0.1-0.3l1.1-1.7c0.1-0.1,0.1-0.2,0.2-0.3c0.1-0.1,0.2-0.1,0.4-0.1c0.2,0,0.3,0,0.5,0.1c0.1,0.1,0.2,0.2,0.1,0.4
						c0,0.1,0,0.2,0,0.2c0,0.1-0.1,0.1-0.1,0.2l-1.3,1.4c-0.1,0.1-0.2,0.2-0.3,0.2C243.6,16.8,243.5,16.8,243.4,16.8z"/>
					<path class="st7" d="M254.7,25.4c-0.1-0.1-0.1-0.3-0.1-0.4s0.1-0.2,0.2-0.3c0.1-0.1,0.2-0.1,0.3-0.1c0.1,0,0.2,0.1,0.4,0.2
						c0.3,0.4,0.7,0.8,1.2,1c0.5,0.3,1,0.4,1.6,0.4c0.3,0,0.7-0.1,1-0.2c0.3-0.1,0.6-0.3,0.8-0.5c0.2-0.2,0.3-0.5,0.3-0.9
						c0-0.4-0.1-0.7-0.3-0.9c-0.2-0.2-0.5-0.4-0.8-0.5s-0.7-0.3-1.1-0.4c-0.4-0.1-0.8-0.2-1.2-0.4c-0.4-0.1-0.7-0.3-1-0.5
						c-0.3-0.2-0.5-0.5-0.7-0.8s-0.3-0.7-0.3-1.1c0-0.5,0.1-0.9,0.4-1.3c0.3-0.4,0.6-0.7,1.1-0.9c0.5-0.2,1-0.3,1.6-0.3
						c0.3,0,0.6,0,1,0.1c0.3,0.1,0.7,0.2,1,0.4s0.6,0.4,0.9,0.7c0.1,0.1,0.2,0.2,0.2,0.4s-0.1,0.3-0.2,0.4c-0.1,0.1-0.2,0.1-0.3,0.1
						c-0.1,0-0.2-0.1-0.3-0.2c-0.3-0.3-0.6-0.6-1-0.7c-0.4-0.2-0.8-0.2-1.3-0.2c-0.3,0-0.7,0.1-1,0.2c-0.3,0.1-0.6,0.3-0.8,0.5
						c-0.2,0.2-0.3,0.5-0.3,0.9c0,0.3,0.1,0.6,0.4,0.8c0.2,0.2,0.5,0.4,0.9,0.5c0.4,0.1,0.8,0.3,1.2,0.4c0.4,0.1,0.8,0.2,1.1,0.3
						s0.7,0.3,0.9,0.5c0.3,0.2,0.5,0.4,0.6,0.7s0.2,0.7,0.2,1.1c0,0.5-0.1,1-0.4,1.4c-0.3,0.4-0.7,0.7-1.2,0.9s-1,0.3-1.6,0.3
						c-0.6,0-1.3-0.1-1.9-0.4C255.8,26.4,255.2,26,254.7,25.4z"/>
					<path class="st7" d="M267.7,27c-0.9,0-1.8-0.2-2.5-0.6c-0.7-0.4-1.2-0.9-1.6-1.7c-0.4-0.7-0.6-1.5-0.6-2.5c0-1,0.2-1.9,0.6-2.6
						c0.4-0.7,0.9-1.3,1.6-1.7c0.6-0.4,1.3-0.6,2-0.6c0.5,0,1,0.1,1.5,0.3c0.5,0.2,0.9,0.5,1.3,0.8c0.4,0.4,0.7,0.8,0.9,1.3
						s0.4,1.1,0.4,1.8c0,0.1-0.1,0.3-0.2,0.4c-0.1,0.1-0.2,0.2-0.4,0.2h-7.2l-0.2-1h7.1l-0.2,0.2v-0.4c0-0.6-0.2-1-0.5-1.4
						c-0.3-0.4-0.7-0.7-1.1-0.9c-0.4-0.2-0.9-0.3-1.4-0.3c-0.4,0-0.7,0.1-1.1,0.2c-0.4,0.1-0.7,0.4-1,0.7c-0.3,0.3-0.6,0.7-0.7,1.2
						c-0.2,0.5-0.3,1-0.3,1.7c0,0.7,0.1,1.3,0.4,1.9c0.3,0.6,0.7,1,1.2,1.4c0.5,0.3,1.2,0.5,2,0.5c0.4,0,0.8-0.1,1.1-0.2
						c0.3-0.1,0.6-0.3,0.9-0.5c0.3-0.2,0.5-0.4,0.6-0.6c0.1-0.1,0.2-0.2,0.4-0.2c0.1,0,0.2,0,0.3,0.1c0.1,0.1,0.1,0.2,0.1,0.3
						c0,0.1-0.1,0.3-0.2,0.4c-0.4,0.4-0.8,0.8-1.4,1.1C269,26.9,268.4,27,267.7,27z"/>
					<path class="st7" d="M286,13.5c0.2,0,0.3,0.1,0.4,0.2c0.1,0.1,0.2,0.2,0.2,0.4v12.2c0,0.1-0.1,0.3-0.2,0.4
						c-0.1,0.1-0.2,0.2-0.4,0.2c-0.2,0-0.3-0.1-0.4-0.2c-0.1-0.1-0.2-0.2-0.2-0.4v-2.1l0.3-0.3c0,0.3-0.1,0.7-0.3,1.1
						c-0.2,0.4-0.4,0.7-0.8,1c-0.3,0.3-0.7,0.6-1.2,0.7c-0.4,0.2-0.9,0.3-1.4,0.3c-0.8,0-1.5-0.2-2.2-0.6c-0.6-0.4-1.1-1-1.5-1.7
						c-0.4-0.7-0.6-1.5-0.6-2.5c0-0.9,0.2-1.7,0.6-2.5c0.4-0.7,0.9-1.3,1.5-1.7c0.6-0.4,1.3-0.6,2.1-0.6c0.5,0,1,0.1,1.4,0.3
						c0.4,0.2,0.8,0.4,1.2,0.7c0.3,0.3,0.6,0.7,0.8,1.1c0.2,0.4,0.3,0.8,0.3,1.3l-0.4-0.3v-6.4c0-0.1,0.1-0.3,0.2-0.4
						C285.7,13.6,285.8,13.5,286,13.5z M282.2,26c0.6,0,1.2-0.2,1.7-0.5s0.9-0.8,1.2-1.3c0.3-0.6,0.4-1.2,0.4-2
						c0-0.7-0.1-1.4-0.4-1.9c-0.3-0.6-0.7-1-1.2-1.3c-0.5-0.3-1.1-0.5-1.7-0.5c-0.6,0-1.2,0.2-1.7,0.5c-0.5,0.3-0.9,0.8-1.2,1.3
						c-0.3,0.6-0.4,1.2-0.4,1.9s0.1,1.4,0.4,1.9c0.3,0.6,0.7,1,1.2,1.4S281.6,26,282.2,26z"/>
					<path class="st7" d="M293.3,27c-0.9,0-1.8-0.2-2.5-0.6c-0.7-0.4-1.3-0.9-1.6-1.7c-0.4-0.7-0.6-1.5-0.6-2.5c0-1,0.2-1.9,0.6-2.6
						s0.9-1.3,1.6-1.7c0.6-0.4,1.3-0.6,2-0.6c0.5,0,1,0.1,1.5,0.3c0.5,0.2,0.9,0.5,1.3,0.8c0.4,0.4,0.7,0.8,0.9,1.3
						c0.2,0.5,0.4,1.1,0.4,1.8c0,0.1-0.1,0.3-0.2,0.4c-0.1,0.1-0.2,0.2-0.4,0.2h-7.2l-0.2-1h7.1l-0.2,0.2v-0.4c0-0.6-0.2-1-0.5-1.4
						c-0.3-0.4-0.7-0.7-1.1-0.9s-0.9-0.3-1.4-0.3c-0.4,0-0.7,0.1-1.1,0.2c-0.4,0.1-0.7,0.4-1,0.7c-0.3,0.3-0.6,0.7-0.7,1.2
						c-0.2,0.5-0.3,1-0.3,1.7c0,0.7,0.1,1.3,0.4,1.9c0.3,0.6,0.7,1,1.2,1.4c0.5,0.3,1.2,0.5,2,0.5c0.4,0,0.8-0.1,1.1-0.2
						s0.6-0.3,0.9-0.5c0.3-0.2,0.5-0.4,0.6-0.6c0.1-0.1,0.2-0.2,0.4-0.2c0.1,0,0.2,0,0.3,0.1c0.1,0.1,0.1,0.2,0.1,0.3
						c0,0.1-0.1,0.3-0.2,0.4c-0.4,0.4-0.8,0.8-1.4,1.1C294.6,26.9,294,27,293.3,27z"/>
					<path class="st7" d="M298.6,25.4c-0.1-0.1-0.1-0.3-0.1-0.4s0.1-0.2,0.2-0.3c0.1-0.1,0.2-0.1,0.3-0.1c0.1,0,0.2,0.1,0.3,0.2
						c0.3,0.4,0.7,0.8,1.2,1c0.5,0.3,1,0.4,1.6,0.4c0.3,0,0.7-0.1,1-0.2c0.3-0.1,0.6-0.3,0.8-0.5c0.2-0.2,0.3-0.5,0.3-0.9
						c0-0.4-0.1-0.7-0.3-0.9s-0.5-0.4-0.8-0.5c-0.3-0.1-0.7-0.3-1.1-0.4c-0.4-0.1-0.8-0.2-1.2-0.4c-0.4-0.1-0.7-0.3-1-0.5
						c-0.3-0.2-0.5-0.5-0.7-0.8S299,20.4,299,20c0-0.5,0.1-0.9,0.4-1.3c0.3-0.4,0.6-0.7,1.1-0.9s1-0.3,1.6-0.3c0.3,0,0.6,0,1,0.1
						s0.7,0.2,1,0.4s0.6,0.4,0.9,0.7c0.1,0.1,0.2,0.2,0.2,0.4s-0.1,0.3-0.2,0.4c-0.1,0.1-0.2,0.1-0.3,0.1c-0.1,0-0.2-0.1-0.3-0.2
						c-0.3-0.3-0.6-0.6-1-0.7s-0.8-0.2-1.3-0.2c-0.3,0-0.7,0.1-1,0.2c-0.3,0.1-0.6,0.3-0.8,0.5c-0.2,0.2-0.3,0.5-0.3,0.9
						c0,0.3,0.1,0.6,0.4,0.8s0.5,0.4,0.9,0.5c0.4,0.1,0.8,0.3,1.2,0.4c0.4,0.1,0.8,0.2,1.1,0.3c0.4,0.1,0.7,0.3,0.9,0.5
						s0.5,0.4,0.6,0.7s0.2,0.7,0.2,1.1c0,0.5-0.1,1-0.4,1.4c-0.3,0.4-0.7,0.7-1.2,0.9c-0.5,0.2-1,0.3-1.6,0.3
						c-0.6,0-1.3-0.1-1.9-0.4S299.1,26,298.6,25.4z"/>
					<path class="st7" d="M311.8,17.6c0.8,0,1.5,0.2,2.2,0.6c0.6,0.4,1.1,1,1.5,1.7c0.4,0.7,0.6,1.5,0.6,2.4s-0.2,1.7-0.6,2.4
						c-0.4,0.7-0.9,1.3-1.5,1.7c-0.6,0.4-1.3,0.6-2.1,0.6c-0.4,0-0.8-0.1-1.2-0.2c-0.4-0.1-0.7-0.3-1-0.5s-0.6-0.5-0.8-0.8
						s-0.4-0.6-0.6-0.9l0.3-0.3v5.6c0,0.1-0.1,0.3-0.2,0.4c-0.1,0.1-0.2,0.2-0.4,0.2s-0.3-0.1-0.4-0.2c-0.1-0.1-0.2-0.2-0.2-0.4
						V18.2c0-0.2,0.1-0.3,0.2-0.4c0.1-0.1,0.2-0.2,0.4-0.2c0.2,0,0.3,0.1,0.4,0.2c0.1,0.1,0.2,0.2,0.2,0.4v1.9l-0.3-0.1
						c0.1-0.4,0.3-0.7,0.5-1s0.5-0.5,0.8-0.8c0.3-0.2,0.7-0.4,1-0.5C311,17.6,311.3,17.6,311.8,17.6z M311.7,18.6
						c-0.6,0-1.2,0.2-1.7,0.5c-0.5,0.3-0.9,0.8-1.2,1.3c-0.3,0.5-0.4,1.2-0.4,1.9c0,0.7,0.1,1.3,0.4,1.9c0.3,0.6,0.7,1,1.2,1.3
						c0.5,0.3,1.1,0.5,1.7,0.5c0.6,0,1.2-0.2,1.7-0.5c0.5-0.3,0.9-0.8,1.2-1.3c0.3-0.6,0.4-1.2,0.4-1.9s-0.1-1.3-0.4-1.9
						c-0.3-0.6-0.7-1-1.2-1.3C312.9,18.7,312.3,18.6,311.7,18.6z"/>
					<path class="st7" d="M319.2,26.3c0,0.1-0.1,0.3-0.2,0.4c-0.1,0.1-0.2,0.2-0.4,0.2c-0.2,0-0.3-0.1-0.4-0.2
						c-0.1-0.1-0.2-0.2-0.2-0.4V14.1c0-0.1,0.1-0.3,0.2-0.4c0.1-0.1,0.2-0.2,0.4-0.2c0.2,0,0.3,0.1,0.4,0.2c0.1,0.1,0.2,0.2,0.2,0.4
						V26.3z"/>
					<path class="st7" d="M329.5,17.6c0.2,0,0.3,0.1,0.4,0.2c0.1,0.1,0.2,0.2,0.2,0.4v8.1c0,0.1-0.1,0.3-0.2,0.4
						c-0.1,0.1-0.2,0.2-0.4,0.2c-0.2,0-0.3-0.1-0.4-0.2c-0.1-0.1-0.2-0.2-0.2-0.4v-2.1l0.3-0.1c0,0.3-0.1,0.7-0.3,1
						c-0.2,0.4-0.4,0.7-0.8,1c-0.3,0.3-0.7,0.5-1.1,0.7c-0.4,0.2-0.9,0.3-1.4,0.3c-0.8,0-1.5-0.2-2.2-0.6c-0.6-0.4-1.1-1-1.5-1.7
						c-0.4-0.7-0.6-1.6-0.6-2.5c0-0.9,0.2-1.8,0.6-2.5c0.4-0.7,0.9-1.3,1.5-1.7c0.6-0.4,1.4-0.6,2.1-0.6c0.5,0,1,0.1,1.4,0.3
						c0.4,0.2,0.8,0.4,1.2,0.7c0.3,0.3,0.6,0.7,0.8,1.1c0.2,0.4,0.3,0.8,0.3,1.3l-0.4-0.3v-2.3c0-0.2,0.1-0.3,0.2-0.4
						C329.2,17.7,329.3,17.6,329.5,17.6z M325.8,26c0.6,0,1.2-0.2,1.7-0.5s0.9-0.8,1.2-1.4c0.3-0.6,0.4-1.2,0.4-2
						c0-0.7-0.1-1.3-0.4-1.9c-0.3-0.6-0.7-1-1.2-1.3s-1.1-0.5-1.7-0.5c-0.6,0-1.2,0.2-1.7,0.5c-0.5,0.3-0.9,0.8-1.2,1.3
						c-0.3,0.6-0.4,1.2-0.4,1.9c0,0.7,0.1,1.4,0.4,2c0.3,0.6,0.7,1,1.2,1.4C324.5,25.9,325.1,26,325.8,26z"/>
					<path class="st7" d="M338.2,25.8c0.1,0,0.3,0.1,0.4,0.2c0.1,0.1,0.2,0.2,0.2,0.4c0,0.1-0.1,0.3-0.2,0.4
						c-0.1,0.1-0.2,0.1-0.4,0.1h-5.8c-0.2,0-0.3-0.1-0.4-0.2s-0.1-0.2-0.1-0.3c0-0.1,0-0.1,0-0.2c0-0.1,0.1-0.1,0.1-0.2l5.5-7.5
						l0.1,0.2h-4.7c-0.1,0-0.3-0.1-0.4-0.2c-0.1-0.1-0.2-0.2-0.2-0.4c0-0.1,0.1-0.2,0.2-0.4c0.1-0.1,0.2-0.2,0.4-0.2h5.5
						c0.1,0,0.3,0.1,0.4,0.2c0.1,0.1,0.2,0.2,0.2,0.4c0,0.1,0,0.1,0,0.2c0,0.1-0.1,0.1-0.1,0.2l-5.4,7.5l-0.2-0.1H338.2z"/>
					<path class="st7" d="M347.8,17.6c0.2,0,0.3,0.1,0.4,0.2c0.1,0.1,0.2,0.2,0.2,0.4v8.1c0,0.1-0.1,0.3-0.2,0.4
						c-0.1,0.1-0.2,0.2-0.4,0.2c-0.2,0-0.3-0.1-0.4-0.2c-0.1-0.1-0.2-0.2-0.2-0.4v-2.1l0.3-0.1c0,0.3-0.1,0.7-0.3,1
						c-0.2,0.4-0.4,0.7-0.8,1c-0.3,0.3-0.7,0.5-1.1,0.7c-0.4,0.2-0.9,0.3-1.4,0.3c-0.8,0-1.5-0.2-2.2-0.6c-0.6-0.4-1.1-1-1.5-1.7
						c-0.4-0.7-0.6-1.6-0.6-2.5c0-0.9,0.2-1.8,0.6-2.5c0.4-0.7,0.9-1.3,1.5-1.7c0.6-0.4,1.4-0.6,2.1-0.6c0.5,0,1,0.1,1.4,0.3
						c0.4,0.2,0.8,0.4,1.2,0.7c0.3,0.3,0.6,0.7,0.8,1.1c0.2,0.4,0.3,0.8,0.3,1.3l-0.4-0.3v-2.3c0-0.2,0.1-0.3,0.2-0.4
						C347.5,17.7,347.6,17.6,347.8,17.6z M344,26c0.6,0,1.2-0.2,1.7-0.5s0.9-0.8,1.2-1.4c0.3-0.6,0.4-1.2,0.4-2
						c0-0.7-0.1-1.3-0.4-1.9c-0.3-0.6-0.7-1-1.2-1.3s-1.1-0.5-1.7-0.5c-0.6,0-1.2,0.2-1.7,0.5c-0.5,0.3-0.9,0.8-1.2,1.3
						c-0.3,0.6-0.4,1.2-0.4,1.9c0,0.7,0.1,1.4,0.4,2c0.3,0.6,0.7,1,1.2,1.4C342.8,25.9,343.4,26,344,26z"/>
					<path class="st7" d="M360.2,17.6c0.8,0,1.4,0.2,1.8,0.5c0.5,0.3,0.8,0.8,1,1.3s0.3,1.2,0.3,1.8v5.1c0,0.1-0.1,0.3-0.2,0.4
						c-0.1,0.1-0.2,0.2-0.4,0.2c-0.2,0-0.3-0.1-0.4-0.2c-0.1-0.1-0.2-0.2-0.2-0.4v-5.1c0-0.5-0.1-0.9-0.2-1.3s-0.4-0.7-0.7-0.9
						c-0.3-0.2-0.8-0.4-1.3-0.4c-0.5,0-1,0.1-1.4,0.4c-0.4,0.2-0.8,0.6-1.1,0.9c-0.3,0.4-0.4,0.8-0.4,1.3v5.1c0,0.1-0.1,0.3-0.2,0.4
						c-0.1,0.1-0.2,0.2-0.4,0.2c-0.2,0-0.3-0.1-0.4-0.2c-0.1-0.1-0.2-0.2-0.2-0.4V14.1c0-0.1,0.1-0.3,0.2-0.4
						c0.1-0.1,0.2-0.2,0.4-0.2s0.3,0.1,0.4,0.2c0.1,0.1,0.2,0.2,0.2,0.4v5.8l-0.4,0.6c0-0.4,0.1-0.7,0.4-1.1c0.2-0.4,0.5-0.7,0.8-1
						c0.3-0.3,0.7-0.5,1.1-0.7S359.8,17.6,360.2,17.6z"/>
					<path class="st7" d="M373.6,17.6c0.2,0,0.3,0.1,0.4,0.2c0.1,0.1,0.2,0.2,0.2,0.4v8.1c0,0.1-0.1,0.3-0.2,0.4
						c-0.1,0.1-0.2,0.2-0.4,0.2c-0.2,0-0.3-0.1-0.4-0.2c-0.1-0.1-0.2-0.2-0.2-0.4v-2.1l0.3-0.1c0,0.3-0.1,0.7-0.3,1
						c-0.2,0.4-0.4,0.7-0.8,1c-0.3,0.3-0.7,0.5-1.1,0.7c-0.4,0.2-0.9,0.3-1.4,0.3c-0.8,0-1.5-0.2-2.2-0.6s-1.1-1-1.5-1.7
						c-0.4-0.7-0.5-1.6-0.5-2.5c0-0.9,0.2-1.8,0.6-2.5c0.4-0.7,0.9-1.3,1.5-1.7c0.6-0.4,1.3-0.6,2.1-0.6c0.5,0,1,0.1,1.4,0.3
						c0.5,0.2,0.8,0.4,1.2,0.7c0.3,0.3,0.6,0.7,0.8,1.1s0.3,0.8,0.3,1.3l-0.4-0.3v-2.3c0-0.2,0.1-0.3,0.2-0.4
						C373.3,17.7,373.4,17.6,373.6,17.6z M369.8,26c0.6,0,1.2-0.2,1.7-0.5s0.9-0.8,1.2-1.4c0.3-0.6,0.4-1.2,0.4-2
						c0-0.7-0.1-1.3-0.4-1.9c-0.3-0.6-0.7-1-1.2-1.3s-1.1-0.5-1.7-0.5c-0.6,0-1.2,0.2-1.7,0.5c-0.5,0.3-0.9,0.8-1.2,1.3
						c-0.3,0.6-0.4,1.2-0.4,1.9c0,0.7,0.1,1.4,0.4,2c0.3,0.6,0.7,1,1.2,1.4S369.2,26,369.8,26z"/>
					<path class="st7" d="M380.8,17.4c0.6,0,1.1,0.1,1.6,0.2s0.9,0.3,1.2,0.5c0.3,0.2,0.4,0.5,0.4,0.7c0,0.1,0,0.2-0.1,0.4
						c-0.1,0.1-0.2,0.2-0.4,0.2c-0.1,0-0.3,0-0.3-0.1c-0.1-0.1-0.2-0.2-0.3-0.3s-0.2-0.2-0.4-0.3c-0.2-0.1-0.4-0.2-0.7-0.2
						c-0.3-0.1-0.6-0.1-1-0.1c-0.7,0-1.3,0.2-1.8,0.5c-0.5,0.3-1,0.8-1.3,1.3c-0.3,0.6-0.5,1.2-0.5,1.9c0,0.7,0.1,1.4,0.4,1.9
						c0.3,0.6,0.7,1,1.2,1.4c0.5,0.3,1.1,0.5,1.8,0.5c0.5,0,0.9,0,1.1-0.1c0.3-0.1,0.5-0.2,0.7-0.3c0.2-0.1,0.4-0.3,0.5-0.4
						s0.2-0.2,0.4-0.2c0.1,0,0.3,0,0.3,0.1c0.1,0.1,0.1,0.2,0.1,0.4c0,0.2-0.1,0.4-0.4,0.6c-0.3,0.2-0.7,0.4-1.2,0.6
						s-1.1,0.3-1.7,0.3c-0.9,0-1.7-0.2-2.3-0.6s-1.2-1-1.6-1.7c-0.4-0.7-0.6-1.5-0.6-2.5c0-0.9,0.2-1.7,0.6-2.4
						c0.4-0.7,0.9-1.3,1.6-1.7S379.9,17.4,380.8,17.4z"/>
					<path class="st7" d="M386.3,16.3c-0.3,0-0.4-0.1-0.6-0.2c-0.1-0.1-0.2-0.3-0.2-0.5v-0.2c0-0.2,0.1-0.4,0.2-0.5
						c0.1-0.1,0.3-0.2,0.6-0.2c0.2,0,0.4,0.1,0.5,0.2c0.1,0.1,0.2,0.3,0.2,0.5v0.2c0,0.2-0.1,0.4-0.2,0.5
						C386.7,16.2,386.5,16.3,386.3,16.3z M386.8,26.3c0,0.1-0.1,0.3-0.2,0.4c-0.1,0.1-0.2,0.2-0.4,0.2c-0.2,0-0.3-0.1-0.4-0.2
						c-0.1-0.1-0.1-0.2-0.1-0.4V18c0-0.1,0.1-0.3,0.2-0.4c0.1-0.1,0.2-0.2,0.4-0.2s0.3,0.1,0.4,0.2c0.1,0.1,0.2,0.2,0.2,0.4V26.3z"
						/>
					<path class="st7" d="M397,17.6c0.2,0,0.3,0.1,0.4,0.2c0.1,0.1,0.2,0.2,0.2,0.4v8.1c0,0.1-0.1,0.3-0.2,0.4
						c-0.1,0.1-0.2,0.2-0.4,0.2c-0.2,0-0.3-0.1-0.4-0.2c-0.1-0.1-0.2-0.2-0.2-0.4v-2.1l0.3-0.1c0,0.3-0.1,0.7-0.3,1
						c-0.2,0.4-0.4,0.7-0.8,1c-0.3,0.3-0.7,0.5-1.1,0.7c-0.4,0.2-0.9,0.3-1.4,0.3c-0.8,0-1.5-0.2-2.2-0.6c-0.6-0.4-1.1-1-1.5-1.7
						c-0.4-0.7-0.6-1.6-0.6-2.5c0-0.9,0.2-1.8,0.6-2.5c0.4-0.7,0.9-1.3,1.5-1.7c0.6-0.4,1.4-0.6,2.1-0.6c0.5,0,1,0.1,1.4,0.3
						c0.4,0.2,0.8,0.4,1.2,0.7c0.3,0.3,0.6,0.7,0.8,1.1c0.2,0.4,0.3,0.8,0.3,1.3l-0.4-0.3v-2.3c0-0.2,0.1-0.3,0.2-0.4
						C396.7,17.7,396.8,17.6,397,17.6z M393.2,26c0.6,0,1.2-0.2,1.7-0.5s0.9-0.8,1.2-1.4c0.3-0.6,0.4-1.2,0.4-2
						c0-0.7-0.1-1.3-0.4-1.9c-0.3-0.6-0.7-1-1.2-1.3s-1.1-0.5-1.7-0.5c-0.6,0-1.2,0.2-1.7,0.5c-0.5,0.3-0.9,0.8-1.2,1.3
						c-0.3,0.6-0.4,1.2-0.4,1.9c0,0.7,0.1,1.4,0.4,2c0.3,0.6,0.7,1,1.2,1.4C392,25.9,392.6,26,393.2,26z"/>
					<path class="st7" d="M409.3,27c-0.9,0-1.8-0.2-2.5-0.6c-0.7-0.4-1.3-0.9-1.6-1.7c-0.4-0.7-0.6-1.5-0.6-2.5c0-1,0.2-1.9,0.6-2.6
						s0.9-1.3,1.6-1.7c0.6-0.4,1.3-0.6,2-0.6c0.5,0,1,0.1,1.5,0.3c0.5,0.2,0.9,0.5,1.3,0.8c0.4,0.4,0.7,0.8,0.9,1.3
						c0.2,0.5,0.4,1.1,0.4,1.8c0,0.1-0.1,0.3-0.2,0.4c-0.1,0.1-0.2,0.2-0.4,0.2h-7.2l-0.2-1h7.1l-0.2,0.2v-0.4c0-0.6-0.2-1-0.5-1.4
						c-0.3-0.4-0.7-0.7-1.1-0.9s-0.9-0.3-1.4-0.3c-0.4,0-0.7,0.1-1.1,0.2c-0.4,0.1-0.7,0.4-1,0.7c-0.3,0.3-0.6,0.7-0.7,1.2
						c-0.2,0.5-0.3,1-0.3,1.7c0,0.7,0.1,1.3,0.4,1.9c0.3,0.6,0.7,1,1.2,1.4c0.5,0.3,1.2,0.5,2,0.5c0.4,0,0.8-0.1,1.1-0.2
						s0.6-0.3,0.9-0.5c0.3-0.2,0.5-0.4,0.6-0.6c0.1-0.1,0.2-0.2,0.4-0.2c0.1,0,0.2,0,0.3,0.1c0.1,0.1,0.1,0.2,0.1,0.3
						c0,0.1-0.1,0.3-0.2,0.4c-0.4,0.4-0.8,0.8-1.4,1.1C410.6,26.9,410,27,409.3,27z"/>
					<path class="st7" d="M416.3,26.3c0,0.1-0.1,0.3-0.2,0.4c-0.1,0.1-0.2,0.2-0.4,0.2c-0.2,0-0.3-0.1-0.4-0.2
						c-0.1-0.1-0.2-0.2-0.2-0.4V14.1c0-0.1,0.1-0.3,0.2-0.4c0.1-0.1,0.2-0.2,0.4-0.2c0.2,0,0.3,0.1,0.4,0.2c0.1,0.1,0.2,0.2,0.2,0.4
						V26.3z"/>
					<path class="st7" d="M17,34c-0.4,0-0.7-0.1-0.9-0.2s-0.3-0.4-0.3-0.7v-0.3c0-0.3,0.1-0.6,0.3-0.7c0.2-0.1,0.5-0.2,0.9-0.2
						c0.4,0,0.7,0.1,0.9,0.2c0.2,0.1,0.3,0.4,0.3,0.7v0.3c0,0.3-0.1,0.6-0.3,0.7C17.7,34,17.4,34,17,34z M18.1,43.7
						c0,0.3-0.1,0.6-0.3,0.8c-0.2,0.2-0.5,0.3-0.8,0.3c-0.3,0-0.6-0.1-0.8-0.3c-0.2-0.2-0.3-0.5-0.3-0.8v-7.4c0-0.3,0.1-0.6,0.3-0.8
						c0.2-0.2,0.5-0.3,0.8-0.3c0.3,0,0.6,0.1,0.8,0.3c0.2,0.2,0.3,0.5,0.3,0.8V43.7z"/>
					<path class="st7" d="M25.3,35c0.9,0,1.6,0.2,2,0.6s0.8,0.9,1,1.5s0.3,1.3,0.3,2.1v4.6c0,0.3-0.1,0.6-0.3,0.8
						c-0.2,0.2-0.5,0.3-0.8,0.3c-0.3,0-0.6-0.1-0.8-0.3c-0.2-0.2-0.3-0.5-0.3-0.8v-4.6c0-0.4-0.1-0.8-0.2-1.1
						c-0.1-0.3-0.3-0.6-0.5-0.8C25.4,37.1,25,37,24.5,37c-0.5,0-0.9,0.1-1.2,0.3c-0.3,0.2-0.6,0.4-0.8,0.8c-0.2,0.3-0.3,0.7-0.3,1.1
						v4.6c0,0.3-0.1,0.6-0.3,0.8c-0.2,0.2-0.5,0.3-0.8,0.3c-0.3,0-0.6-0.1-0.8-0.3c-0.2-0.2-0.3-0.5-0.3-0.8v-7.4
						c0-0.3,0.1-0.6,0.3-0.8c0.2-0.2,0.5-0.3,0.8-0.3c0.3,0,0.6,0.1,0.8,0.3c0.2,0.2,0.3,0.5,0.3,0.8v0.8L22,37
						c0.1-0.2,0.3-0.4,0.5-0.7c0.2-0.2,0.4-0.5,0.7-0.7c0.3-0.2,0.6-0.4,0.9-0.5C24.5,35.1,24.9,35,25.3,35z"/>
					<path class="st7" d="M30.5,35.4h4.3c0.3,0,0.5,0.1,0.7,0.3c0.2,0.2,0.3,0.4,0.3,0.7c0,0.3-0.1,0.5-0.3,0.7
						c-0.2,0.2-0.4,0.3-0.7,0.3h-4.3c-0.3,0-0.5-0.1-0.7-0.3c-0.2-0.2-0.3-0.4-0.3-0.7c0-0.3,0.1-0.5,0.3-0.7
						C30,35.5,30.2,35.4,30.5,35.4z M32.4,33.1c0.3,0,0.6,0.1,0.8,0.3c0.2,0.2,0.3,0.5,0.3,0.8v8c0,0.2,0,0.3,0.1,0.4
						c0.1,0.1,0.2,0.2,0.3,0.2c0.1,0,0.2,0.1,0.4,0.1c0.1,0,0.3,0,0.4-0.1c0.1-0.1,0.3-0.1,0.4-0.1c0.2,0,0.3,0.1,0.5,0.2
						c0.1,0.2,0.2,0.4,0.2,0.6c0,0.3-0.2,0.6-0.5,0.8c-0.4,0.2-0.8,0.3-1.2,0.3c-0.3,0-0.5,0-0.8-0.1c-0.3,0-0.6-0.1-0.9-0.3
						c-0.3-0.2-0.5-0.4-0.7-0.7s-0.3-0.8-0.3-1.4v-8.1c0-0.3,0.1-0.6,0.3-0.8S32.1,33.1,32.4,33.1z"/>
					<path class="st7" d="M41.6,45c-1,0-1.9-0.2-2.7-0.6s-1.3-1-1.7-1.7c-0.4-0.7-0.6-1.6-0.6-2.5c0-1.1,0.2-2,0.7-2.8
						c0.4-0.8,1-1.3,1.7-1.8c0.7-0.4,1.5-0.6,2.2-0.6c0.6,0,1.2,0.1,1.7,0.4s1,0.6,1.4,1c0.4,0.4,0.8,0.9,1,1.5
						c0.2,0.6,0.4,1.2,0.4,1.8c0,0.3-0.1,0.5-0.3,0.7s-0.5,0.3-0.8,0.3h-6.9L37.3,39h6.6l-0.4,0.4v-0.5c0-0.3-0.1-0.7-0.4-0.9
						c-0.2-0.3-0.5-0.5-0.8-0.7S41.6,37,41.3,37c-0.4,0-0.7,0-1,0.1c-0.3,0.1-0.6,0.3-0.8,0.5c-0.2,0.2-0.4,0.5-0.5,0.9
						c-0.1,0.4-0.2,0.9-0.2,1.5c0,0.6,0.1,1.2,0.4,1.6c0.3,0.5,0.6,0.8,1,1c0.4,0.2,0.9,0.4,1.4,0.4c0.4,0,0.8,0,1.1-0.1
						c0.3-0.1,0.5-0.2,0.6-0.3s0.3-0.2,0.4-0.3c0.2-0.1,0.4-0.2,0.6-0.2c0.3,0,0.5,0.1,0.7,0.3c0.2,0.2,0.3,0.4,0.3,0.6
						c0,0.3-0.2,0.6-0.5,0.9c-0.3,0.3-0.8,0.5-1.3,0.7C42.8,44.9,42.2,45,41.6,45z"/>
					<path class="st7" d="M47,43.4c-0.1-0.2-0.2-0.4-0.2-0.6c0-0.3,0.2-0.5,0.5-0.7c0.2-0.1,0.4-0.2,0.6-0.2c0.2,0,0.4,0.1,0.6,0.3
						c0.3,0.3,0.7,0.6,1.1,0.8c0.4,0.2,0.9,0.3,1.4,0.3c0.2,0,0.4,0,0.6-0.1c0.2,0,0.4-0.1,0.6-0.3c0.2-0.2,0.2-0.4,0.2-0.7
						c0-0.3-0.1-0.5-0.3-0.6c-0.2-0.2-0.4-0.3-0.7-0.4c-0.3-0.1-0.6-0.2-1-0.3c-0.4-0.1-0.8-0.2-1.1-0.4c-0.4-0.1-0.7-0.3-1.1-0.5
						c-0.3-0.2-0.6-0.5-0.8-0.8c-0.2-0.3-0.3-0.8-0.3-1.3c0-0.6,0.2-1.1,0.5-1.5s0.8-0.7,1.3-1c0.5-0.2,1.1-0.3,1.7-0.3
						c0.4,0,0.8,0,1.2,0.1c0.4,0.1,0.8,0.2,1.2,0.4s0.7,0.5,0.9,0.8c0.1,0.2,0.2,0.4,0.2,0.6c0,0.3-0.1,0.5-0.3,0.7
						c-0.2,0.1-0.4,0.2-0.6,0.2c-0.2,0-0.4-0.1-0.6-0.2c-0.2-0.3-0.5-0.5-0.8-0.6c-0.3-0.2-0.7-0.2-1.2-0.2c-0.2,0-0.4,0-0.6,0.1
						c-0.2,0-0.4,0.1-0.5,0.3s-0.2,0.4-0.2,0.7c0,0.3,0.1,0.5,0.3,0.7c0.2,0.2,0.4,0.3,0.7,0.4c0.3,0.1,0.6,0.2,1,0.3
						c0.4,0.1,0.7,0.2,1.1,0.3c0.4,0.1,0.7,0.3,1,0.5c0.3,0.2,0.6,0.5,0.8,0.8s0.3,0.8,0.3,1.3c0,0.6-0.2,1.1-0.5,1.6
						c-0.4,0.4-0.8,0.8-1.3,1C52,44.9,51.4,45,50.9,45c-0.7,0-1.4-0.1-2.1-0.4S47.5,44,47,43.4z"/>
					<path class="st7" d="M56.3,35.4h4.3c0.3,0,0.5,0.1,0.7,0.3c0.2,0.2,0.3,0.4,0.3,0.7c0,0.3-0.1,0.5-0.3,0.7
						c-0.2,0.2-0.4,0.3-0.7,0.3h-4.3c-0.3,0-0.5-0.1-0.7-0.3c-0.2-0.2-0.3-0.4-0.3-0.7c0-0.3,0.1-0.5,0.3-0.7
						C55.8,35.5,56,35.4,56.3,35.4z M58.2,33.1c0.3,0,0.6,0.1,0.8,0.3c0.2,0.2,0.3,0.5,0.3,0.8v8c0,0.2,0,0.3,0.1,0.4
						c0.1,0.1,0.2,0.2,0.3,0.2c0.1,0,0.2,0.1,0.4,0.1c0.1,0,0.3,0,0.4-0.1c0.1-0.1,0.3-0.1,0.4-0.1c0.2,0,0.3,0.1,0.5,0.2
						c0.1,0.2,0.2,0.4,0.2,0.6c0,0.3-0.2,0.6-0.5,0.8c-0.4,0.2-0.8,0.3-1.2,0.3c-0.3,0-0.5,0-0.8-0.1c-0.3,0-0.6-0.1-0.9-0.3
						c-0.3-0.2-0.5-0.4-0.7-0.7s-0.3-0.8-0.3-1.4v-8.1c0-0.3,0.1-0.6,0.3-0.8S57.9,33.1,58.2,33.1z"/>
					<path class="st7" d="M64.3,34c-0.4,0-0.7-0.1-0.9-0.2s-0.3-0.4-0.3-0.7v-0.3c0-0.3,0.1-0.6,0.3-0.7c0.2-0.1,0.5-0.2,0.9-0.2
						c0.4,0,0.7,0.1,0.9,0.2c0.2,0.1,0.3,0.4,0.3,0.7v0.3c0,0.3-0.1,0.6-0.3,0.7C65,34,64.7,34,64.3,34z M65.4,43.7
						c0,0.3-0.1,0.6-0.3,0.8c-0.2,0.2-0.5,0.3-0.8,0.3c-0.3,0-0.6-0.1-0.8-0.3c-0.2-0.2-0.3-0.5-0.3-0.8v-7.4c0-0.3,0.1-0.6,0.3-0.8
						c0.2-0.2,0.5-0.3,0.8-0.3c0.3,0,0.6,0.1,0.8,0.3c0.2,0.2,0.3,0.5,0.3,0.8V43.7z"/>
					<path class="st7" d="M72.6,35c0.9,0,1.6,0.2,2,0.6s0.8,0.9,1,1.5s0.3,1.3,0.3,2.1v4.6c0,0.3-0.1,0.6-0.3,0.8
						c-0.2,0.2-0.5,0.3-0.8,0.3c-0.3,0-0.6-0.1-0.8-0.3c-0.2-0.2-0.3-0.5-0.3-0.8v-4.6c0-0.4-0.1-0.8-0.2-1.1
						c-0.1-0.3-0.3-0.6-0.5-0.8c-0.3-0.2-0.6-0.3-1.1-0.3c-0.5,0-0.9,0.1-1.2,0.3c-0.3,0.2-0.6,0.4-0.8,0.8
						c-0.2,0.3-0.3,0.7-0.3,1.1v4.6c0,0.3-0.1,0.6-0.3,0.8c-0.2,0.2-0.5,0.3-0.8,0.3c-0.3,0-0.6-0.1-0.8-0.3
						c-0.2-0.2-0.3-0.5-0.3-0.8v-7.4c0-0.3,0.1-0.6,0.3-0.8c0.2-0.2,0.5-0.3,0.8-0.3c0.3,0,0.6,0.1,0.8,0.3c0.2,0.2,0.3,0.5,0.3,0.8
						v0.8L69.3,37c0.1-0.2,0.3-0.4,0.5-0.7c0.2-0.2,0.4-0.5,0.7-0.7c0.3-0.2,0.6-0.4,0.9-0.5C71.8,35.1,72.2,35,72.6,35z"/>
					<path class="st7" d="M87.3,40c0,1-0.2,1.9-0.7,2.6c-0.4,0.8-1,1.3-1.8,1.8S83.3,45,82.4,45c-0.9,0-1.7-0.2-2.5-0.6
						c-0.7-0.4-1.3-1-1.8-1.8c-0.4-0.8-0.7-1.6-0.7-2.6c0-1,0.2-1.9,0.7-2.6c0.4-0.8,1-1.3,1.8-1.8c0.7-0.4,1.6-0.6,2.5-0.6
						c0.9,0,1.7,0.2,2.5,0.6s1.3,1,1.8,1.8C87.1,38.2,87.3,39.1,87.3,40z M85.1,40c0-0.6-0.1-1.1-0.4-1.6c-0.2-0.4-0.6-0.8-1-1.1
						S82.9,37,82.4,37s-1,0.1-1.4,0.4s-0.7,0.6-1,1.1c-0.2,0.5-0.4,1-0.4,1.6c0,0.6,0.1,1.1,0.4,1.6c0.2,0.5,0.6,0.8,1,1.1
						s0.9,0.4,1.4,0.4s1-0.1,1.4-0.4s0.7-0.6,1-1.1C85,41.2,85.1,40.6,85.1,40z"/>
					<path class="st7" d="M98,35c0.5,0,1,0.1,1.4,0.2c0.4,0.2,0.8,0.4,1.1,0.6c0.3,0.2,0.5,0.5,0.7,0.7c0.2,0.2,0.3,0.5,0.3,0.6
						l-0.5,0.2v-1.3c0-0.3,0.1-0.6,0.3-0.8s0.5-0.3,0.8-0.3c0.3,0,0.6,0.1,0.8,0.3s0.3,0.5,0.3,0.8v8c0,1-0.2,1.9-0.7,2.5
						s-1,1.1-1.8,1.4c-0.7,0.3-1.5,0.4-2.4,0.4c-0.2,0-0.6,0-0.9-0.1c-0.4-0.1-0.8-0.1-1.1-0.2s-0.6-0.2-0.8-0.2
						c-0.4-0.2-0.6-0.3-0.7-0.6s-0.2-0.5-0.1-0.7c0.1-0.3,0.3-0.6,0.5-0.7c0.2-0.1,0.5-0.1,0.8,0c0.1,0,0.3,0.1,0.6,0.2
						s0.6,0.2,0.9,0.3s0.6,0.1,0.9,0.1c0.9,0,1.6-0.2,2-0.5c0.4-0.4,0.6-0.9,0.6-1.5v-1.6l0.2,0.2c0,0.2-0.1,0.3-0.2,0.6
						c-0.2,0.2-0.4,0.4-0.7,0.7c-0.3,0.2-0.6,0.4-1,0.5c-0.4,0.1-0.8,0.2-1.2,0.2c-0.9,0-1.6-0.2-2.3-0.6c-0.7-0.4-1.2-1-1.6-1.8
						c-0.4-0.8-0.6-1.6-0.6-2.6c0-1,0.2-1.9,0.6-2.6c0.4-0.8,0.9-1.3,1.6-1.8S97.2,35,98,35z M98.4,37c-0.5,0-1,0.1-1.4,0.4
						c-0.4,0.3-0.7,0.6-1,1.1c-0.2,0.5-0.3,1-0.3,1.5c0,0.6,0.1,1.1,0.3,1.5c0.2,0.5,0.5,0.8,1,1.1c0.4,0.3,0.9,0.4,1.4,0.4
						c0.6,0,1-0.1,1.4-0.4c0.4-0.3,0.7-0.6,1-1.1c0.2-0.5,0.3-1,0.3-1.5c0-0.6-0.1-1.1-0.3-1.5c-0.2-0.5-0.5-0.8-1-1.1
						C99.4,37.1,98.9,37,98.4,37z"/>
					<path class="st7" d="M106.4,44.8c-0.3,0-0.6-0.1-0.8-0.3c-0.2-0.2-0.3-0.5-0.3-0.8v-7.4c0-0.3,0.1-0.6,0.3-0.8
						c0.2-0.2,0.5-0.3,0.8-0.3c0.3,0,0.6,0.1,0.8,0.3c0.2,0.2,0.3,0.5,0.3,0.8V38l-0.1-1.2c0.1-0.3,0.3-0.5,0.5-0.8
						c0.2-0.2,0.4-0.4,0.7-0.6c0.3-0.1,0.5-0.3,0.8-0.3c0.3-0.1,0.6-0.1,0.9-0.1c0.4,0,0.7,0.1,0.9,0.3s0.4,0.4,0.4,0.7
						c0,0.4-0.1,0.7-0.3,0.9c-0.2,0.2-0.4,0.3-0.7,0.3c-0.2,0-0.4,0-0.6-0.1c-0.2-0.1-0.4-0.1-0.6-0.1c-0.2,0-0.4,0.1-0.7,0.2
						c-0.2,0.1-0.4,0.3-0.6,0.5c-0.2,0.2-0.3,0.5-0.5,0.8c-0.1,0.3-0.2,0.7-0.2,1.1v4.3c0,0.3-0.1,0.6-0.3,0.8
						C107,44.7,106.7,44.8,106.4,44.8z"/>
					<path class="st7" d="M120.2,35.2c0.3,0,0.6,0.1,0.8,0.3c0.2,0.2,0.3,0.5,0.3,0.8v4.6c0,1.3-0.4,2.3-1.1,3s-1.7,1.1-3.1,1.1
						s-2.3-0.4-3.1-1.1c-0.7-0.7-1.1-1.8-1.1-3v-4.6c0-0.3,0.1-0.6,0.3-0.8c0.2-0.2,0.5-0.3,0.8-0.3c0.3,0,0.6,0.1,0.8,0.3
						c0.2,0.2,0.3,0.5,0.3,0.8v4.6c0,0.7,0.2,1.3,0.5,1.6c0.3,0.4,0.8,0.5,1.5,0.5c0.7,0,1.2-0.2,1.5-0.5c0.3-0.4,0.5-0.9,0.5-1.6
						v-4.6c0-0.3,0.1-0.6,0.3-0.8C119.7,35.3,119.9,35.2,120.2,35.2z"/>
					<path class="st7" d="M128,45c-1,0-1.9-0.2-2.7-0.6s-1.3-1-1.7-1.7c-0.4-0.7-0.6-1.6-0.6-2.5c0-1.1,0.2-2,0.7-2.8
						c0.4-0.8,1-1.3,1.7-1.8c0.7-0.4,1.5-0.6,2.2-0.6c0.6,0,1.2,0.1,1.7,0.4s1,0.6,1.4,1c0.4,0.4,0.8,0.9,1,1.5
						c0.2,0.6,0.4,1.2,0.4,1.8c0,0.3-0.1,0.5-0.3,0.7s-0.5,0.3-0.8,0.3h-6.9l-0.5-1.8h6.6l-0.4,0.4v-0.5c0-0.3-0.1-0.7-0.4-0.9
						c-0.2-0.3-0.5-0.5-0.8-0.7S128,37,127.6,37c-0.4,0-0.7,0-1,0.1c-0.3,0.1-0.6,0.3-0.8,0.5c-0.2,0.2-0.4,0.5-0.5,0.9
						c-0.1,0.4-0.2,0.9-0.2,1.5c0,0.6,0.1,1.2,0.4,1.6c0.3,0.5,0.6,0.8,1,1c0.4,0.2,0.9,0.4,1.4,0.4c0.4,0,0.8,0,1.1-0.1
						c0.3-0.1,0.5-0.2,0.6-0.3s0.3-0.2,0.4-0.3c0.2-0.1,0.4-0.2,0.6-0.2c0.3,0,0.5,0.1,0.7,0.3c0.2,0.2,0.3,0.4,0.3,0.6
						c0,0.3-0.2,0.6-0.5,0.9c-0.3,0.3-0.8,0.5-1.3,0.7C129.2,44.9,128.6,45,128,45z"/>
					<path class="st7" d="M133.3,43.4c-0.1-0.2-0.2-0.4-0.2-0.6c0-0.3,0.2-0.5,0.5-0.7c0.2-0.1,0.4-0.2,0.6-0.2
						c0.2,0,0.4,0.1,0.6,0.3c0.3,0.3,0.7,0.6,1.1,0.8c0.4,0.2,0.9,0.3,1.4,0.3c0.2,0,0.4,0,0.6-0.1c0.2,0,0.4-0.1,0.6-0.3
						c0.2-0.2,0.2-0.4,0.2-0.7c0-0.3-0.1-0.5-0.3-0.6c-0.2-0.2-0.4-0.3-0.7-0.4c-0.3-0.1-0.6-0.2-1-0.3c-0.4-0.1-0.8-0.2-1.1-0.4
						c-0.4-0.1-0.7-0.3-1.1-0.5c-0.3-0.2-0.6-0.5-0.8-0.8c-0.2-0.3-0.3-0.8-0.3-1.3c0-0.6,0.2-1.1,0.5-1.5s0.8-0.7,1.3-1
						c0.5-0.2,1.1-0.3,1.7-0.3c0.4,0,0.8,0,1.2,0.1c0.4,0.1,0.8,0.2,1.2,0.4s0.7,0.5,0.9,0.8c0.1,0.2,0.2,0.4,0.2,0.6
						c0,0.3-0.1,0.5-0.3,0.7c-0.2,0.1-0.4,0.2-0.6,0.2c-0.2,0-0.4-0.1-0.6-0.2c-0.2-0.3-0.5-0.5-0.8-0.6c-0.3-0.2-0.7-0.2-1.2-0.2
						c-0.2,0-0.4,0-0.6,0.1c-0.2,0-0.4,0.1-0.5,0.3s-0.2,0.4-0.2,0.7c0,0.3,0.1,0.5,0.3,0.7c0.2,0.2,0.4,0.3,0.7,0.4
						c0.3,0.1,0.6,0.2,1,0.3c0.4,0.1,0.7,0.2,1.1,0.3c0.4,0.1,0.7,0.3,1,0.5c0.3,0.2,0.6,0.5,0.8,0.8s0.3,0.8,0.3,1.3
						c0,0.6-0.2,1.1-0.5,1.6c-0.4,0.4-0.8,0.8-1.3,1c-0.5,0.2-1.1,0.3-1.7,0.3c-0.7,0-1.4-0.1-2.1-0.4S133.8,44,133.3,43.4z"/>
					<path class="st7" d="M151.7,40c0,1-0.2,1.9-0.7,2.6c-0.4,0.8-1,1.3-1.8,1.8s-1.6,0.6-2.5,0.6c-0.9,0-1.7-0.2-2.5-0.6
						c-0.7-0.4-1.3-1-1.8-1.8c-0.4-0.8-0.7-1.6-0.7-2.6c0-1,0.2-1.9,0.7-2.6c0.4-0.8,1-1.3,1.8-1.8c0.7-0.4,1.6-0.6,2.5-0.6
						c0.9,0,1.7,0.2,2.5,0.6s1.3,1,1.8,1.8C151.5,38.2,151.7,39.1,151.7,40z M149.5,40c0-0.6-0.1-1.1-0.4-1.6
						c-0.2-0.4-0.6-0.8-1-1.1s-0.9-0.4-1.4-0.4s-1,0.1-1.4,0.4s-0.7,0.6-1,1.1c-0.2,0.5-0.4,1-0.4,1.6c0,0.6,0.1,1.1,0.4,1.6
						c0.2,0.5,0.6,0.8,1,1.1s0.9,0.4,1.4,0.4s1-0.1,1.4-0.4s0.7-0.6,1-1.1C149.4,41.2,149.5,40.6,149.5,40z"/>
					<path class="st7" d="M154.3,44.8c0,0.3-0.1,0.5-0.2,0.8c-0.1,0.3-0.2,0.5-0.4,0.7s-0.4,0.4-0.5,0.5c-0.2,0.1-0.4,0.2-0.6,0.2
						c-0.1,0-0.2,0-0.3-0.1c-0.1-0.1-0.1-0.2-0.1-0.3c0-0.2,0.1-0.3,0.2-0.3c0.1,0,0.3-0.1,0.4-0.2c0.2-0.1,0.3-0.2,0.4-0.4
						c0.1-0.2,0.1-0.3,0.1-0.5c0-0.1,0-0.2-0.1-0.3s-0.2-0.1-0.3-0.1c-0.1,0-0.2,0-0.3,0s-0.2,0.1-0.2,0.1c-0.1-0.1-0.1-0.1-0.2-0.2
						c0-0.1-0.1-0.2-0.1-0.3c0-0.1,0.1-0.3,0.2-0.4c0.1-0.1,0.2-0.2,0.4-0.3c0.2-0.1,0.3-0.1,0.5-0.1c0.3,0,0.6,0.1,0.8,0.3
						C154.2,44.2,154.3,44.4,154.3,44.8z"/>
					<path class="st7" d="M168.8,31.5c0.2,0,0.3,0.1,0.4,0.2c0.1,0.1,0.2,0.2,0.2,0.4v12.2c0,0.1-0.1,0.3-0.2,0.4
						c-0.1,0.1-0.2,0.2-0.4,0.2c-0.2,0-0.3-0.1-0.4-0.2c-0.1-0.1-0.2-0.2-0.2-0.4v-2.1l0.3-0.3c0,0.3-0.1,0.7-0.3,1.1
						c-0.2,0.4-0.4,0.7-0.8,1s-0.7,0.6-1.2,0.7c-0.4,0.2-0.9,0.3-1.4,0.3c-0.8,0-1.5-0.2-2.2-0.6s-1.1-1-1.5-1.7
						c-0.4-0.7-0.6-1.5-0.6-2.5c0-0.9,0.2-1.7,0.6-2.5c0.4-0.7,0.9-1.3,1.5-1.7s1.4-0.6,2.1-0.6c0.5,0,1,0.1,1.4,0.3
						c0.4,0.2,0.8,0.4,1.2,0.7c0.3,0.3,0.6,0.7,0.8,1.1s0.3,0.8,0.3,1.3l-0.4-0.3v-6.4c0-0.1,0.1-0.3,0.2-0.4
						C168.5,31.6,168.7,31.5,168.8,31.5z M165.1,44c0.6,0,1.2-0.2,1.7-0.5s0.9-0.8,1.2-1.3s0.4-1.2,0.4-2c0-0.7-0.1-1.4-0.4-1.9
						c-0.3-0.6-0.7-1-1.2-1.3c-0.5-0.3-1.1-0.5-1.7-0.5c-0.6,0-1.2,0.2-1.7,0.5c-0.5,0.3-0.9,0.8-1.2,1.3c-0.3,0.6-0.4,1.2-0.4,1.9
						s0.1,1.4,0.4,1.9c0.3,0.6,0.7,1,1.2,1.4S164.5,44,165.1,44z"/>
					<path class="st7" d="M180.6,40.2c0,0.9-0.2,1.7-0.6,2.5c-0.4,0.7-0.9,1.3-1.6,1.7c-0.7,0.4-1.5,0.6-2.3,0.6
						c-0.9,0-1.6-0.2-2.3-0.6s-1.2-1-1.6-1.7c-0.4-0.7-0.6-1.5-0.6-2.5c0-0.9,0.2-1.7,0.6-2.5c0.4-0.7,0.9-1.3,1.6-1.7
						s1.5-0.6,2.3-0.6c0.9,0,1.6,0.2,2.3,0.6c0.7,0.4,1.2,1,1.6,1.7C180.4,38.5,180.6,39.3,180.6,40.2z M179.5,40.2
						c0-0.7-0.2-1.4-0.5-2c-0.3-0.6-0.7-1-1.2-1.3c-0.5-0.3-1.1-0.5-1.8-0.5c-0.7,0-1.3,0.2-1.8,0.5c-0.5,0.3-0.9,0.8-1.2,1.3
						c-0.3,0.6-0.5,1.2-0.5,2c0,0.7,0.2,1.4,0.5,1.9c0.3,0.6,0.7,1,1.2,1.3c0.5,0.3,1.1,0.5,1.8,0.5c0.7,0,1.3-0.2,1.8-0.5
						c0.5-0.3,0.9-0.8,1.2-1.3C179.3,41.6,179.5,41,179.5,40.2z"/>
					<path class="st7" d="M187,35.4c0.8,0,1.4,0.2,1.9,0.5c0.5,0.3,0.8,0.8,1,1.3s0.3,1.1,0.3,1.8v5.3c0,0.1-0.1,0.3-0.2,0.4
						c-0.1,0.1-0.2,0.2-0.4,0.2c-0.2,0-0.3-0.1-0.4-0.2c-0.1-0.1-0.2-0.2-0.2-0.4v-5.2c0-0.5-0.1-0.9-0.2-1.3
						c-0.2-0.4-0.4-0.7-0.8-0.9c-0.3-0.2-0.8-0.4-1.4-0.4c-0.5,0-1,0.1-1.5,0.4s-0.8,0.5-1.1,0.9c-0.3,0.4-0.4,0.8-0.4,1.3v5.2
						c0,0.1-0.1,0.3-0.2,0.4c-0.1,0.1-0.2,0.2-0.4,0.2c-0.2,0-0.3-0.1-0.4-0.2c-0.1-0.1-0.2-0.2-0.2-0.4v-8.1c0-0.1,0.1-0.3,0.2-0.4
						c0.1-0.1,0.2-0.2,0.4-0.2s0.3,0.1,0.4,0.2c0.1,0.1,0.2,0.2,0.2,0.4v1.5l-0.4,0.6c0-0.4,0.1-0.8,0.4-1.1c0.2-0.4,0.5-0.7,0.9-1
						c0.3-0.3,0.7-0.5,1.2-0.7S186.6,35.4,187,35.4z"/>
					<path class="st7" d="M200.4,31.5c0.2,0,0.3,0.1,0.4,0.2c0.1,0.1,0.2,0.2,0.2,0.4v12.2c0,0.1-0.1,0.3-0.2,0.4
						c-0.1,0.1-0.2,0.2-0.4,0.2c-0.2,0-0.3-0.1-0.4-0.2c-0.1-0.1-0.2-0.2-0.2-0.4v-2.1l0.3-0.3c0,0.3-0.1,0.7-0.3,1.1
						c-0.2,0.4-0.4,0.7-0.8,1s-0.7,0.6-1.2,0.7c-0.4,0.2-0.9,0.3-1.4,0.3c-0.8,0-1.5-0.2-2.2-0.6s-1.1-1-1.5-1.7
						c-0.4-0.7-0.6-1.5-0.6-2.5c0-0.9,0.2-1.7,0.6-2.5c0.4-0.7,0.9-1.3,1.5-1.7s1.4-0.6,2.1-0.6c0.5,0,1,0.1,1.4,0.3
						c0.4,0.2,0.8,0.4,1.2,0.7c0.3,0.3,0.6,0.7,0.8,1.1s0.3,0.8,0.3,1.3l-0.4-0.3v-6.4c0-0.1,0.1-0.3,0.2-0.4
						C200.1,31.6,200.2,31.5,200.4,31.5z M196.7,44c0.6,0,1.2-0.2,1.7-0.5s0.9-0.8,1.2-1.3s0.4-1.2,0.4-2c0-0.7-0.1-1.4-0.4-1.9
						c-0.3-0.6-0.7-1-1.2-1.3c-0.5-0.3-1.1-0.5-1.7-0.5c-0.6,0-1.2,0.2-1.7,0.5c-0.5,0.3-0.9,0.8-1.2,1.3c-0.3,0.6-0.4,1.2-0.4,1.9
						s0.1,1.4,0.4,1.9c0.3,0.6,0.7,1,1.2,1.4S196,44,196.7,44z"/>
					<path class="st7" d="M207.7,45c-0.9,0-1.8-0.2-2.5-0.6s-1.3-0.9-1.6-1.7c-0.4-0.7-0.6-1.5-0.6-2.5c0-1,0.2-1.9,0.6-2.6
						c0.4-0.7,0.9-1.3,1.6-1.7c0.6-0.4,1.3-0.6,2-0.6c0.5,0,1,0.1,1.5,0.3c0.5,0.2,0.9,0.5,1.3,0.8s0.7,0.8,0.9,1.3
						c0.2,0.5,0.4,1.1,0.4,1.8c0,0.1-0.1,0.3-0.2,0.4c-0.1,0.1-0.2,0.2-0.4,0.2h-7.2l-0.2-1h7.1l-0.2,0.2v-0.4c0-0.6-0.2-1-0.5-1.4
						c-0.3-0.4-0.7-0.7-1.1-0.9c-0.4-0.2-0.9-0.3-1.4-0.3c-0.4,0-0.7,0.1-1.1,0.2c-0.4,0.1-0.7,0.4-1,0.7c-0.3,0.3-0.6,0.7-0.7,1.2
						c-0.2,0.5-0.3,1-0.3,1.7c0,0.7,0.1,1.3,0.4,1.9s0.7,1,1.2,1.4s1.2,0.5,2,0.5c0.4,0,0.8-0.1,1.1-0.2c0.3-0.1,0.6-0.3,0.9-0.5
						c0.3-0.2,0.5-0.4,0.6-0.6c0.1-0.1,0.2-0.2,0.4-0.2s0.2,0,0.3,0.1c0.1,0.1,0.1,0.2,0.1,0.3c0,0.1-0.1,0.3-0.2,0.4
						c-0.4,0.4-0.8,0.8-1.4,1.1C209.1,44.9,208.4,45,207.7,45z"/>
					<path class="st7" d="M218.1,43.4c-0.1-0.1-0.1-0.3-0.1-0.4c0-0.1,0.1-0.2,0.2-0.3c0.1-0.1,0.2-0.1,0.3-0.1
						c0.1,0,0.2,0.1,0.4,0.2c0.3,0.4,0.7,0.8,1.2,1s1,0.4,1.6,0.4c0.3,0,0.7-0.1,1-0.2c0.3-0.1,0.6-0.3,0.8-0.5
						c0.2-0.2,0.3-0.5,0.3-0.9c0-0.4-0.1-0.7-0.3-0.9c-0.2-0.2-0.5-0.4-0.8-0.5c-0.3-0.1-0.7-0.3-1.1-0.4c-0.4-0.1-0.8-0.2-1.2-0.4
						s-0.7-0.3-1-0.5s-0.5-0.5-0.7-0.8s-0.3-0.7-0.3-1.1c0-0.5,0.1-0.9,0.4-1.3c0.3-0.4,0.6-0.7,1.1-0.9c0.5-0.2,1-0.3,1.6-0.3
						c0.3,0,0.6,0,1,0.1c0.3,0.1,0.7,0.2,1,0.4s0.6,0.4,0.9,0.7c0.1,0.1,0.2,0.2,0.2,0.4s-0.1,0.3-0.2,0.4c-0.1,0.1-0.2,0.1-0.3,0.1
						c-0.1,0-0.2-0.1-0.3-0.2c-0.3-0.3-0.6-0.6-1-0.7c-0.4-0.2-0.8-0.2-1.3-0.2c-0.3,0-0.7,0.1-1,0.2c-0.3,0.1-0.6,0.3-0.8,0.5
						c-0.2,0.2-0.3,0.5-0.3,0.9c0,0.3,0.1,0.6,0.4,0.8c0.2,0.2,0.5,0.4,0.9,0.5c0.4,0.1,0.8,0.3,1.2,0.4c0.4,0.1,0.8,0.2,1.1,0.3
						c0.4,0.1,0.7,0.3,0.9,0.5c0.3,0.2,0.5,0.4,0.6,0.7s0.2,0.7,0.2,1.1c0,0.5-0.1,1-0.4,1.4c-0.3,0.4-0.7,0.7-1.2,0.9
						c-0.5,0.2-1,0.3-1.6,0.3c-0.6,0-1.3-0.1-1.9-0.4C219.1,44.4,218.5,44,218.1,43.4z"/>
					<path class="st7" d="M231,45c-0.9,0-1.8-0.2-2.5-0.6s-1.3-0.9-1.6-1.7c-0.4-0.7-0.6-1.5-0.6-2.5c0-1,0.2-1.9,0.6-2.6
						c0.4-0.7,0.9-1.3,1.6-1.7c0.6-0.4,1.3-0.6,2-0.6c0.5,0,1,0.1,1.5,0.3c0.5,0.2,0.9,0.5,1.3,0.8s0.7,0.8,0.9,1.3
						c0.2,0.5,0.4,1.1,0.4,1.8c0,0.1-0.1,0.3-0.2,0.4c-0.1,0.1-0.2,0.2-0.4,0.2h-7.2l-0.2-1h7.1l-0.2,0.2v-0.4c0-0.6-0.2-1-0.5-1.4
						c-0.3-0.4-0.7-0.7-1.1-0.9c-0.4-0.2-0.9-0.3-1.4-0.3c-0.4,0-0.7,0.1-1.1,0.2c-0.4,0.1-0.7,0.4-1,0.7c-0.3,0.3-0.6,0.7-0.7,1.2
						c-0.2,0.5-0.3,1-0.3,1.7c0,0.7,0.1,1.3,0.4,1.9s0.7,1,1.2,1.4s1.2,0.5,2,0.5c0.4,0,0.8-0.1,1.1-0.2c0.3-0.1,0.6-0.3,0.9-0.5
						c0.3-0.2,0.5-0.4,0.6-0.6c0.1-0.1,0.2-0.2,0.4-0.2s0.2,0,0.3,0.1c0.1,0.1,0.1,0.2,0.1,0.3c0,0.1-0.1,0.3-0.2,0.4
						c-0.4,0.4-0.8,0.8-1.4,1.1C232.3,44.9,231.7,45,231,45z"/>
					<path class="st7" d="M241.2,35.7h4.2c0.1,0,0.3,0.1,0.4,0.2s0.1,0.2,0.1,0.4c0,0.1,0,0.3-0.1,0.4c-0.1,0.1-0.2,0.1-0.4,0.1
						h-4.2c-0.1,0-0.3-0.1-0.4-0.2c-0.1-0.1-0.2-0.2-0.2-0.4c0-0.1,0.1-0.3,0.2-0.4C241,35.7,241.1,35.7,241.2,35.7z M243.1,33.1
						c0.2,0,0.3,0.1,0.4,0.2c0.1,0.1,0.2,0.2,0.2,0.4v9c0,0.3,0,0.6,0.1,0.8c0.1,0.2,0.2,0.3,0.4,0.3c0.1,0.1,0.3,0.1,0.4,0.1
						c0.1,0,0.2,0,0.3,0c0.1,0,0.2,0,0.3,0c0.1,0,0.2,0,0.3,0.1c0.1,0.1,0.1,0.2,0.1,0.3c0,0.2-0.1,0.3-0.3,0.4
						c-0.2,0.1-0.4,0.2-0.7,0.2c-0.1,0-0.3,0-0.5,0c-0.2,0-0.4-0.1-0.7-0.2c-0.2-0.1-0.4-0.3-0.6-0.6c-0.2-0.3-0.2-0.7-0.2-1.2v-9.1
						c0-0.1,0.1-0.3,0.2-0.4C242.8,33.2,242.9,33.1,243.1,33.1z"/>
					<path class="st7" d="M248.3,44.8c-0.2,0-0.3-0.1-0.4-0.2c-0.1-0.1-0.2-0.2-0.2-0.4v-8.1c0-0.1,0.1-0.3,0.2-0.4
						c0.1-0.1,0.2-0.2,0.4-0.2s0.3,0.1,0.4,0.2c0.1,0.1,0.2,0.2,0.2,0.4v2.7l-0.3,0.1c0-0.4,0.1-0.8,0.3-1.3s0.4-0.8,0.7-1.1
						c0.3-0.3,0.7-0.6,1.1-0.8s0.9-0.3,1.4-0.3c0.2,0,0.4,0,0.6,0.1c0.2,0.1,0.3,0.2,0.3,0.4c0,0.2,0,0.3-0.1,0.4s-0.2,0.1-0.3,0.1
						c-0.1,0-0.2,0-0.4-0.1c-0.1-0.1-0.3-0.1-0.5-0.1c-0.3,0-0.7,0.1-1,0.3s-0.6,0.5-0.9,0.8c-0.3,0.3-0.5,0.7-0.7,1.1
						s-0.2,0.8-0.2,1.3v4.4c0,0.1-0.1,0.3-0.2,0.4C248.6,44.8,248.4,44.8,248.3,44.8z"/>
					<path class="st7" d="M261.7,35.6c0.2,0,0.3,0.1,0.4,0.2c0.1,0.1,0.2,0.2,0.2,0.4v8.1c0,0.1-0.1,0.3-0.2,0.4s-0.2,0.2-0.4,0.2
						c-0.2,0-0.3-0.1-0.4-0.2s-0.2-0.2-0.2-0.4v-2.1l0.3-0.1c0,0.3-0.1,0.7-0.3,1c-0.2,0.4-0.4,0.7-0.8,1c-0.3,0.3-0.7,0.5-1.1,0.7
						s-0.9,0.3-1.4,0.3c-0.8,0-1.5-0.2-2.2-0.6c-0.6-0.4-1.1-1-1.5-1.7c-0.4-0.7-0.6-1.6-0.6-2.5c0-0.9,0.2-1.8,0.6-2.5
						c0.4-0.7,0.9-1.3,1.5-1.7c0.6-0.4,1.4-0.6,2.1-0.6c0.5,0,1,0.1,1.4,0.3c0.4,0.2,0.8,0.4,1.2,0.7c0.3,0.3,0.6,0.7,0.8,1.1
						c0.2,0.4,0.3,0.8,0.3,1.3l-0.4-0.3v-2.3c0-0.2,0.1-0.3,0.2-0.4C261.4,35.7,261.5,35.6,261.7,35.6z M257.9,44
						c0.6,0,1.2-0.2,1.7-0.5s0.9-0.8,1.2-1.4c0.3-0.6,0.4-1.2,0.4-2c0-0.7-0.1-1.3-0.4-1.9c-0.3-0.6-0.7-1-1.2-1.3s-1.1-0.5-1.7-0.5
						c-0.6,0-1.2,0.2-1.7,0.5c-0.5,0.3-0.9,0.8-1.2,1.3c-0.3,0.6-0.4,1.2-0.4,1.9c0,0.7,0.1,1.4,0.4,2c0.3,0.6,0.7,1,1.2,1.4
						C256.7,43.9,257.3,44,257.9,44z"/>
					<path class="st7" d="M269.2,35.4c0.8,0,1.4,0.2,1.9,0.5c0.5,0.3,0.8,0.8,1,1.3c0.2,0.5,0.3,1.1,0.3,1.8v5.3
						c0,0.1-0.1,0.3-0.2,0.4c-0.1,0.1-0.2,0.2-0.4,0.2c-0.2,0-0.3-0.1-0.4-0.2c-0.1-0.1-0.2-0.2-0.2-0.4v-5.2c0-0.5-0.1-0.9-0.2-1.3
						c-0.2-0.4-0.4-0.7-0.8-0.9s-0.8-0.4-1.4-0.4c-0.5,0-1,0.1-1.5,0.4c-0.5,0.2-0.8,0.5-1.1,0.9c-0.3,0.4-0.4,0.8-0.4,1.3v5.2
						c0,0.1-0.1,0.3-0.2,0.4c-0.1,0.1-0.2,0.2-0.4,0.2c-0.2,0-0.3-0.1-0.4-0.2c-0.1-0.1-0.2-0.2-0.2-0.4v-8.1c0-0.1,0.1-0.3,0.2-0.4
						c0.1-0.1,0.2-0.2,0.4-0.2s0.3,0.1,0.4,0.2c0.1,0.1,0.2,0.2,0.2,0.4v1.5l-0.4,0.6c0-0.4,0.1-0.8,0.4-1.1c0.2-0.4,0.5-0.7,0.9-1
						s0.7-0.5,1.2-0.7S268.8,35.4,269.2,35.4z"/>
					<path class="st7" d="M274.4,43.4c-0.1-0.1-0.1-0.3-0.1-0.4c0-0.1,0.1-0.2,0.2-0.3c0.1-0.1,0.2-0.1,0.3-0.1
						c0.1,0,0.2,0.1,0.3,0.2c0.3,0.4,0.7,0.8,1.2,1c0.5,0.3,1,0.4,1.6,0.4c0.3,0,0.7-0.1,1-0.2c0.3-0.1,0.6-0.3,0.8-0.5
						s0.3-0.5,0.3-0.9c0-0.4-0.1-0.7-0.3-0.9s-0.5-0.4-0.8-0.5c-0.3-0.1-0.7-0.3-1.1-0.4c-0.4-0.1-0.8-0.2-1.2-0.4
						c-0.4-0.1-0.7-0.3-1-0.5c-0.3-0.2-0.5-0.5-0.7-0.8s-0.3-0.7-0.3-1.1c0-0.5,0.1-0.9,0.4-1.3c0.3-0.4,0.6-0.7,1.1-0.9
						s1-0.3,1.6-0.3c0.3,0,0.6,0,1,0.1s0.7,0.2,1,0.4s0.6,0.4,0.9,0.7c0.1,0.1,0.2,0.2,0.2,0.4s-0.1,0.3-0.2,0.4
						c-0.1,0.1-0.2,0.1-0.3,0.1c-0.1,0-0.2-0.1-0.3-0.2c-0.3-0.3-0.6-0.6-1-0.7s-0.8-0.2-1.3-0.2c-0.3,0-0.7,0.1-1,0.2
						c-0.3,0.1-0.6,0.3-0.8,0.5c-0.2,0.2-0.3,0.5-0.3,0.9c0,0.3,0.1,0.6,0.4,0.8s0.5,0.4,0.9,0.5c0.4,0.1,0.8,0.3,1.2,0.4
						c0.4,0.1,0.8,0.2,1.1,0.3c0.4,0.1,0.7,0.3,0.9,0.5s0.5,0.4,0.6,0.7s0.2,0.7,0.2,1.1c0,0.5-0.1,1-0.4,1.4
						c-0.3,0.4-0.7,0.7-1.2,0.9c-0.5,0.2-1,0.3-1.6,0.3c-0.6,0-1.3-0.1-1.9-0.4S274.9,44,274.4,43.4z"/>
					<path class="st7" d="M287.4,35.8c0.1,0,0.3,0,0.4,0.1c0.1,0.1,0.1,0.2,0.1,0.4c0,0.1,0,0.3-0.1,0.4c-0.1,0.1-0.2,0.1-0.4,0.1
						H283c-0.1,0-0.2-0.1-0.4-0.2c-0.1-0.1-0.2-0.2-0.2-0.4c0-0.2,0.1-0.3,0.2-0.4s0.2-0.1,0.4-0.1H287.4z M286.7,31.6
						c0.2,0,0.4,0,0.6,0.1c0.2,0,0.4,0.1,0.5,0.2c0.2,0.1,0.2,0.2,0.2,0.4c0,0.1,0,0.3-0.1,0.4c-0.1,0.1-0.2,0.2-0.3,0.2
						s-0.3,0-0.4-0.1c-0.2-0.1-0.4-0.1-0.6-0.1c-0.3,0-0.5,0.1-0.6,0.2s-0.3,0.3-0.4,0.5s-0.1,0.5-0.1,0.8v10.3
						c0,0.1-0.1,0.3-0.2,0.4s-0.2,0.2-0.4,0.2s-0.3-0.1-0.4-0.2c-0.1-0.1-0.2-0.2-0.2-0.4V34c0-0.8,0.2-1.4,0.7-1.8
						S286,31.6,286.7,31.6z"/>
					<path class="st7" d="M297.6,40.2c0,0.9-0.2,1.7-0.6,2.5c-0.4,0.7-0.9,1.3-1.6,1.7c-0.7,0.4-1.5,0.6-2.3,0.6
						c-0.9,0-1.6-0.2-2.3-0.6c-0.7-0.4-1.2-1-1.6-1.7c-0.4-0.7-0.6-1.5-0.6-2.5c0-0.9,0.2-1.7,0.6-2.5c0.4-0.7,0.9-1.3,1.6-1.7
						c0.7-0.4,1.5-0.6,2.3-0.6c0.9,0,1.6,0.2,2.3,0.6c0.7,0.4,1.2,1,1.6,1.7C297.4,38.5,297.6,39.3,297.6,40.2z M296.5,40.2
						c0-0.7-0.2-1.4-0.4-2c-0.3-0.6-0.7-1-1.2-1.3c-0.5-0.3-1.1-0.5-1.8-0.5c-0.7,0-1.3,0.2-1.8,0.5c-0.5,0.3-0.9,0.8-1.2,1.3
						c-0.3,0.6-0.5,1.2-0.5,2c0,0.7,0.2,1.4,0.5,1.9c0.3,0.6,0.7,1,1.2,1.3s1.1,0.5,1.8,0.5c0.7,0,1.2-0.2,1.8-0.5
						c0.5-0.3,0.9-0.8,1.2-1.3C296.4,41.6,296.5,41,296.5,40.2z"/>
					<path class="st7" d="M300.3,44.8c-0.2,0-0.3-0.1-0.4-0.2s-0.2-0.2-0.2-0.4v-8.1c0-0.1,0.1-0.3,0.2-0.4c0.1-0.1,0.2-0.2,0.4-0.2
						s0.3,0.1,0.4,0.2c0.1,0.1,0.2,0.2,0.2,0.4v2.7l-0.3,0.1c0-0.4,0.1-0.8,0.3-1.3s0.4-0.8,0.7-1.1c0.3-0.3,0.7-0.6,1.1-0.8
						s0.9-0.3,1.4-0.3c0.2,0,0.4,0,0.6,0.1c0.2,0.1,0.3,0.2,0.3,0.4c0,0.2,0,0.3-0.1,0.4s-0.2,0.1-0.3,0.1c-0.1,0-0.2,0-0.4-0.1
						c-0.1-0.1-0.3-0.1-0.5-0.1c-0.3,0-0.7,0.1-1,0.3s-0.6,0.5-0.9,0.8c-0.3,0.3-0.5,0.7-0.7,1.1s-0.2,0.8-0.2,1.3v4.4
						c0,0.1-0.1,0.3-0.2,0.4S300.4,44.8,300.3,44.8z"/>
					<path class="st7" d="M310.8,35.6c0.7,0,1.4,0.2,1.9,0.6c0.5,0.4,0.9,1,1.1,1.7l-0.3,0.1l0.1-0.3c0.2-0.4,0.4-0.7,0.8-1
						c0.4-0.3,0.8-0.6,1.2-0.8c0.5-0.2,0.9-0.3,1.4-0.3c0.8,0,1.4,0.2,1.8,0.5c0.5,0.3,0.8,0.8,1,1.3c0.2,0.5,0.3,1.2,0.3,1.8v5.1
						c0,0.1-0.1,0.3-0.2,0.4c-0.1,0.1-0.2,0.2-0.4,0.2c-0.2,0-0.3-0.1-0.4-0.2c-0.1-0.1-0.1-0.2-0.1-0.4v-5c0-0.5-0.1-0.9-0.2-1.3
						s-0.4-0.7-0.7-1c-0.3-0.2-0.8-0.4-1.3-0.4c-0.5,0-1,0.1-1.4,0.4c-0.4,0.2-0.8,0.6-1.1,1c-0.3,0.4-0.4,0.9-0.4,1.3v5
						c0,0.1-0.1,0.3-0.2,0.4c-0.1,0.1-0.2,0.2-0.4,0.2s-0.3-0.1-0.4-0.2s-0.2-0.2-0.2-0.4v-5.1c0-0.5-0.1-0.9-0.2-1.3
						c-0.1-0.4-0.4-0.7-0.7-0.9c-0.3-0.2-0.8-0.4-1.3-0.4c-0.5,0-1,0.1-1.4,0.4c-0.4,0.2-0.8,0.6-1.1,0.9s-0.4,0.8-0.4,1.3v5.1
						c0,0.1-0.1,0.3-0.2,0.4s-0.2,0.2-0.4,0.2c-0.2,0-0.3-0.1-0.4-0.2s-0.2-0.2-0.2-0.4v-8.1c0-0.1,0.1-0.3,0.2-0.4
						c0.1-0.1,0.2-0.2,0.4-0.2s0.3,0.1,0.4,0.2c0.1,0.1,0.2,0.2,0.2,0.4v1.7l-0.5,0.7c0-0.4,0.2-0.7,0.4-1.1c0.2-0.4,0.5-0.7,0.8-1
						c0.3-0.3,0.7-0.5,1.1-0.7S310.3,35.6,310.8,35.6z"/>
					<path class="st7" d="M330.4,35.6c0.2,0,0.3,0.1,0.4,0.2c0.1,0.1,0.2,0.2,0.2,0.4v8.1c0,0.1-0.1,0.3-0.2,0.4s-0.2,0.2-0.4,0.2
						c-0.2,0-0.3-0.1-0.4-0.2s-0.2-0.2-0.2-0.4v-2.1l0.3-0.1c0,0.3-0.1,0.7-0.3,1c-0.2,0.4-0.4,0.7-0.8,1c-0.3,0.3-0.7,0.5-1.1,0.7
						S327,45,326.5,45c-0.8,0-1.5-0.2-2.2-0.6c-0.6-0.4-1.1-1-1.5-1.7c-0.4-0.7-0.6-1.6-0.6-2.5c0-0.9,0.2-1.8,0.6-2.5
						c0.4-0.7,0.9-1.3,1.5-1.7c0.6-0.4,1.4-0.6,2.1-0.6c0.5,0,1,0.1,1.4,0.3c0.4,0.2,0.8,0.4,1.2,0.7c0.3,0.3,0.6,0.7,0.8,1.1
						c0.2,0.4,0.3,0.8,0.3,1.3l-0.4-0.3v-2.3c0-0.2,0.1-0.3,0.2-0.4C330.1,35.7,330.2,35.6,330.4,35.6z M326.6,44
						c0.6,0,1.2-0.2,1.7-0.5s0.9-0.8,1.2-1.4c0.3-0.6,0.4-1.2,0.4-2c0-0.7-0.1-1.3-0.4-1.9c-0.3-0.6-0.7-1-1.2-1.3s-1.1-0.5-1.7-0.5
						c-0.6,0-1.2,0.2-1.7,0.5c-0.5,0.3-0.9,0.8-1.2,1.3c-0.3,0.6-0.4,1.2-0.4,1.9c0,0.7,0.1,1.4,0.4,2c0.3,0.6,0.7,1,1.2,1.4
						C325.4,43.9,326,44,326.6,44z"/>
					<path class="st7" d="M342.7,45c-0.9,0-1.8-0.2-2.5-0.6c-0.7-0.4-1.3-0.9-1.6-1.7c-0.4-0.7-0.6-1.5-0.6-2.5c0-1,0.2-1.9,0.6-2.6
						s0.9-1.3,1.6-1.7c0.6-0.4,1.3-0.6,2-0.6c0.5,0,1,0.1,1.5,0.3c0.5,0.2,0.9,0.5,1.3,0.8c0.4,0.4,0.7,0.8,0.9,1.3
						c0.2,0.5,0.4,1.1,0.4,1.8c0,0.1-0.1,0.3-0.2,0.4c-0.1,0.1-0.2,0.2-0.4,0.2h-7.2l-0.2-1h7.1l-0.2,0.2v-0.4c0-0.6-0.2-1-0.5-1.4
						c-0.3-0.4-0.7-0.7-1.1-0.9s-0.9-0.3-1.4-0.3c-0.4,0-0.7,0.1-1.1,0.2c-0.4,0.1-0.7,0.4-1,0.7c-0.3,0.3-0.6,0.7-0.7,1.2
						c-0.2,0.5-0.3,1-0.3,1.7c0,0.7,0.1,1.3,0.4,1.9c0.3,0.6,0.7,1,1.2,1.4c0.5,0.3,1.2,0.5,2,0.5c0.4,0,0.8-0.1,1.1-0.2
						c0.3-0.1,0.6-0.3,0.9-0.5c0.3-0.2,0.5-0.4,0.6-0.6c0.1-0.1,0.2-0.2,0.4-0.2c0.1,0,0.2,0,0.3,0.1c0.1,0.1,0.1,0.2,0.1,0.3
						c0,0.1-0.1,0.3-0.2,0.4c-0.4,0.4-0.8,0.8-1.4,1.1C344.1,44.9,343.4,45,342.7,45z"/>
					<path class="st7" d="M352.9,35.4c0.8,0,1.4,0.2,1.9,0.5c0.5,0.3,0.8,0.8,1,1.3c0.2,0.5,0.3,1.1,0.3,1.8v5.3
						c0,0.1-0.1,0.3-0.2,0.4s-0.2,0.2-0.4,0.2c-0.2,0-0.3-0.1-0.4-0.2s-0.2-0.2-0.2-0.4v-5.2c0-0.5-0.1-0.9-0.2-1.3
						c-0.2-0.4-0.4-0.7-0.8-0.9c-0.3-0.2-0.8-0.4-1.4-0.4c-0.5,0-1,0.1-1.5,0.4c-0.5,0.2-0.8,0.5-1.1,0.9c-0.3,0.4-0.4,0.8-0.4,1.3
						v5.2c0,0.1-0.1,0.3-0.2,0.4s-0.2,0.2-0.4,0.2c-0.2,0-0.3-0.1-0.4-0.2s-0.2-0.2-0.2-0.4v-8.1c0-0.1,0.1-0.3,0.2-0.4
						c0.1-0.1,0.2-0.2,0.4-0.2s0.3,0.1,0.4,0.2c0.1,0.1,0.2,0.2,0.2,0.4v1.5l-0.4,0.6c0-0.4,0.1-0.8,0.4-1.1c0.2-0.4,0.5-0.7,0.9-1
						c0.3-0.3,0.7-0.5,1.2-0.7S352.5,35.4,352.9,35.4z"/>
					<path class="st7" d="M368,35.6c0.7,0,1.4,0.2,1.9,0.6c0.5,0.4,0.9,1,1.1,1.7l-0.3,0.1l0.1-0.3c0.2-0.4,0.4-0.7,0.8-1
						s0.8-0.6,1.3-0.8c0.5-0.2,0.9-0.3,1.4-0.3c0.8,0,1.4,0.2,1.8,0.5c0.5,0.3,0.8,0.8,1,1.3c0.2,0.5,0.3,1.2,0.3,1.8v5.1
						c0,0.1-0.1,0.3-0.2,0.4s-0.2,0.2-0.4,0.2c-0.2,0-0.3-0.1-0.4-0.2s-0.1-0.2-0.1-0.4v-5c0-0.5-0.1-0.9-0.2-1.3
						c-0.2-0.4-0.4-0.7-0.7-1c-0.3-0.2-0.8-0.4-1.3-0.4c-0.5,0-1,0.1-1.4,0.4c-0.4,0.2-0.8,0.6-1.1,1s-0.4,0.9-0.4,1.3v5
						c0,0.1-0.1,0.3-0.2,0.4s-0.2,0.2-0.4,0.2s-0.3-0.1-0.4-0.2c-0.1-0.1-0.2-0.2-0.2-0.4v-5.1c0-0.5-0.1-0.9-0.2-1.3
						s-0.4-0.7-0.7-0.9c-0.3-0.2-0.8-0.4-1.3-0.4c-0.5,0-1,0.1-1.4,0.4c-0.4,0.2-0.8,0.6-1.1,0.9c-0.3,0.4-0.4,0.8-0.4,1.3v5.1
						c0,0.1-0.1,0.3-0.2,0.4c-0.1,0.1-0.2,0.2-0.4,0.2c-0.2,0-0.3-0.1-0.4-0.2c-0.1-0.1-0.2-0.2-0.2-0.4v-8.1c0-0.1,0.1-0.3,0.2-0.4
						c0.1-0.1,0.2-0.2,0.4-0.2s0.3,0.1,0.4,0.2c0.1,0.1,0.2,0.2,0.2,0.4v1.7l-0.5,0.7c0-0.4,0.2-0.7,0.4-1.1c0.2-0.4,0.5-0.7,0.8-1
						c0.3-0.3,0.7-0.5,1.1-0.7S367.6,35.6,368,35.6z"/>
					<path class="st7" d="M387.6,35.6c0.2,0,0.3,0.1,0.4,0.2c0.1,0.1,0.2,0.2,0.2,0.4v8.1c0,0.1-0.1,0.3-0.2,0.4s-0.2,0.2-0.4,0.2
						c-0.2,0-0.3-0.1-0.4-0.2s-0.2-0.2-0.2-0.4v-2.1l0.3-0.1c0,0.3-0.1,0.7-0.3,1c-0.2,0.4-0.4,0.7-0.8,1c-0.3,0.3-0.7,0.5-1.1,0.7
						s-0.9,0.3-1.4,0.3c-0.8,0-1.5-0.2-2.2-0.6c-0.6-0.4-1.1-1-1.5-1.7c-0.4-0.7-0.6-1.6-0.6-2.5c0-0.9,0.2-1.8,0.6-2.5
						c0.4-0.7,0.9-1.3,1.5-1.7c0.6-0.4,1.4-0.6,2.1-0.6c0.5,0,1,0.1,1.4,0.3c0.4,0.2,0.8,0.4,1.2,0.7c0.3,0.3,0.6,0.7,0.8,1.1
						c0.2,0.4,0.3,0.8,0.3,1.3l-0.4-0.3v-2.3c0-0.2,0.1-0.3,0.2-0.4C387.3,35.7,387.4,35.6,387.6,35.6z M383.9,44
						c0.6,0,1.2-0.2,1.7-0.5s0.9-0.8,1.2-1.4c0.3-0.6,0.4-1.2,0.4-2c0-0.7-0.1-1.3-0.4-1.9c-0.3-0.6-0.7-1-1.2-1.3s-1.1-0.5-1.7-0.5
						c-0.6,0-1.2,0.2-1.7,0.5c-0.5,0.3-0.9,0.8-1.2,1.3c-0.3,0.6-0.4,1.2-0.4,1.9c0,0.7,0.1,1.4,0.4,2c0.3,0.6,0.7,1,1.2,1.4
						C382.6,43.9,383.2,44,383.9,44z"/>
					<path class="st7" d="M390.3,35.7h4.2c0.1,0,0.3,0.1,0.4,0.2s0.1,0.2,0.1,0.4c0,0.1,0,0.3-0.1,0.4c-0.1,0.1-0.2,0.1-0.4,0.1
						h-4.2c-0.1,0-0.3-0.1-0.4-0.2c-0.1-0.1-0.2-0.2-0.2-0.4c0-0.1,0.1-0.3,0.2-0.4C390,35.7,390.1,35.7,390.3,35.7z M392.1,33.1
						c0.2,0,0.3,0.1,0.4,0.2s0.2,0.2,0.2,0.4v9c0,0.3,0,0.6,0.1,0.8c0.1,0.2,0.2,0.3,0.3,0.3c0.1,0.1,0.3,0.1,0.4,0.1
						c0.1,0,0.2,0,0.3,0c0.1,0,0.2,0,0.3,0c0.1,0,0.2,0,0.3,0.1c0.1,0.1,0.1,0.2,0.1,0.3c0,0.2-0.1,0.3-0.3,0.4
						c-0.2,0.1-0.4,0.2-0.7,0.2c-0.1,0-0.3,0-0.5,0s-0.4-0.1-0.7-0.2c-0.2-0.1-0.4-0.3-0.6-0.6c-0.2-0.3-0.2-0.7-0.2-1.2v-9.1
						c0-0.1,0.1-0.3,0.2-0.4S392,33.1,392.1,33.1z"/>
					<path class="st7" d="M400.5,45c-0.9,0-1.8-0.2-2.5-0.6c-0.7-0.4-1.2-0.9-1.6-1.7c-0.4-0.7-0.6-1.5-0.6-2.5c0-1,0.2-1.9,0.6-2.6
						c0.4-0.7,0.9-1.3,1.6-1.7c0.6-0.4,1.3-0.6,2-0.6c0.5,0,1,0.1,1.5,0.3c0.5,0.2,0.9,0.5,1.3,0.8c0.4,0.4,0.7,0.8,0.9,1.3
						s0.4,1.1,0.4,1.8c0,0.1-0.1,0.3-0.2,0.4c-0.1,0.1-0.2,0.2-0.4,0.2h-7.2l-0.2-1h7.1l-0.2,0.2v-0.4c0-0.6-0.2-1-0.5-1.4
						c-0.3-0.4-0.7-0.7-1.1-0.9c-0.4-0.2-0.9-0.3-1.4-0.3c-0.4,0-0.7,0.1-1.1,0.2c-0.4,0.1-0.7,0.4-1,0.7c-0.3,0.3-0.6,0.7-0.7,1.2
						c-0.2,0.5-0.3,1-0.3,1.7c0,0.7,0.1,1.3,0.4,1.9c0.3,0.6,0.7,1,1.2,1.4c0.5,0.3,1.2,0.5,2,0.5c0.4,0,0.8-0.1,1.1-0.2
						c0.3-0.1,0.6-0.3,0.9-0.5c0.3-0.2,0.5-0.4,0.6-0.6c0.1-0.1,0.2-0.2,0.4-0.2c0.1,0,0.2,0,0.3,0.1c0.1,0.1,0.1,0.2,0.1,0.3
						c0,0.1-0.1,0.3-0.2,0.4c-0.4,0.4-0.8,0.8-1.4,1.1C401.8,44.9,401.2,45,400.5,45z"/>
					<path class="st7" d="M406.8,44.8c-0.2,0-0.3-0.1-0.4-0.2s-0.2-0.2-0.2-0.4v-8.1c0-0.1,0.1-0.3,0.2-0.4c0.1-0.1,0.2-0.2,0.4-0.2
						s0.3,0.1,0.4,0.2c0.1,0.1,0.2,0.2,0.2,0.4v2.7l-0.3,0.1c0-0.4,0.1-0.8,0.3-1.3s0.4-0.8,0.7-1.1c0.3-0.3,0.7-0.6,1.1-0.8
						s0.9-0.3,1.4-0.3c0.2,0,0.4,0,0.6,0.1c0.2,0.1,0.3,0.2,0.3,0.4c0,0.2,0,0.3-0.1,0.4s-0.2,0.1-0.3,0.1c-0.1,0-0.2,0-0.4-0.1
						c-0.1-0.1-0.3-0.1-0.5-0.1c-0.3,0-0.7,0.1-1,0.3s-0.6,0.5-0.9,0.8c-0.3,0.3-0.5,0.7-0.7,1.1s-0.2,0.8-0.2,1.3v4.4
						c0,0.1-0.1,0.3-0.2,0.4S407,44.8,406.8,44.8z"/>
					<path class="st7" d="M413.7,34.3c-0.3,0-0.4-0.1-0.6-0.2c-0.1-0.1-0.2-0.3-0.2-0.5v-0.2c0-0.2,0.1-0.4,0.2-0.5
						c0.1-0.1,0.3-0.2,0.6-0.2c0.2,0,0.4,0.1,0.5,0.2c0.1,0.1,0.2,0.3,0.2,0.5v0.2c0,0.2-0.1,0.4-0.2,0.5
						C414.1,34.2,413.9,34.3,413.7,34.3z M414.2,44.3c0,0.1-0.1,0.3-0.2,0.4c-0.1,0.1-0.2,0.2-0.4,0.2c-0.2,0-0.3-0.1-0.4-0.2
						s-0.1-0.2-0.1-0.4V36c0-0.1,0.1-0.3,0.2-0.4c0.1-0.1,0.2-0.2,0.4-0.2s0.3,0.1,0.4,0.2c0.1,0.1,0.2,0.2,0.2,0.4V44.3z"/>
					<path class="st7" d="M424.4,35.6c0.2,0,0.3,0.1,0.4,0.2c0.1,0.1,0.2,0.2,0.2,0.4v8.1c0,0.1-0.1,0.3-0.2,0.4
						c-0.1,0.1-0.2,0.2-0.4,0.2c-0.2,0-0.3-0.1-0.4-0.2c-0.1-0.1-0.2-0.2-0.2-0.4v-2.1l0.3-0.1c0,0.3-0.1,0.7-0.3,1
						c-0.2,0.4-0.4,0.7-0.8,1c-0.3,0.3-0.7,0.5-1.1,0.7c-0.4,0.2-0.9,0.3-1.4,0.3c-0.8,0-1.5-0.2-2.2-0.6s-1.1-1-1.5-1.7
						c-0.4-0.7-0.5-1.6-0.5-2.5c0-0.9,0.2-1.8,0.6-2.5c0.4-0.7,0.9-1.3,1.5-1.7c0.6-0.4,1.3-0.6,2.1-0.6c0.5,0,1,0.1,1.4,0.3
						c0.5,0.2,0.8,0.4,1.2,0.7c0.3,0.3,0.6,0.7,0.8,1.1s0.3,0.8,0.3,1.3l-0.4-0.3v-2.3c0-0.2,0.1-0.3,0.2-0.4
						C424.1,35.7,424.2,35.6,424.4,35.6z M420.6,44c0.6,0,1.2-0.2,1.7-0.5s0.9-0.8,1.2-1.4c0.3-0.6,0.4-1.2,0.4-2
						c0-0.7-0.1-1.3-0.4-1.9c-0.3-0.6-0.7-1-1.2-1.3s-1.1-0.5-1.7-0.5c-0.6,0-1.2,0.2-1.7,0.5c-0.5,0.3-0.9,0.8-1.2,1.3
						c-0.3,0.6-0.4,1.2-0.4,1.9c0,0.7,0.1,1.4,0.4,2c0.3,0.6,0.7,1,1.2,1.4S420,44,420.6,44z"/>
					<path class="st7" d="M20.3,53.8c0.1,0,0.3,0,0.4,0.1c0.1,0.1,0.1,0.2,0.1,0.4c0,0.1,0,0.3-0.1,0.4s-0.2,0.1-0.4,0.1h-4.4
						c-0.1,0-0.2-0.1-0.4-0.2c-0.1-0.1-0.2-0.2-0.2-0.3c0-0.2,0.1-0.3,0.2-0.4s0.2-0.1,0.4-0.1H20.3z M19.7,49.6
						c0.2,0,0.4,0,0.6,0.1c0.2,0,0.4,0.1,0.5,0.2s0.2,0.2,0.2,0.4c0,0.1,0,0.3-0.1,0.4c-0.1,0.1-0.2,0.2-0.3,0.2
						c-0.1,0-0.3,0-0.5-0.1c-0.2-0.1-0.4-0.1-0.6-0.1c-0.3,0-0.5,0.1-0.6,0.2c-0.2,0.1-0.3,0.3-0.4,0.5c-0.1,0.2-0.1,0.5-0.1,0.8
						v10.3c0,0.1-0.1,0.3-0.2,0.4c-0.1,0.1-0.2,0.2-0.4,0.2s-0.3-0.1-0.4-0.2c-0.1-0.1-0.2-0.2-0.2-0.4V52c0-0.8,0.2-1.4,0.7-1.8
						C18.4,49.8,18.9,49.6,19.7,49.6z"/>
					<path class="st7" d="M26.3,63c-0.9,0-1.8-0.2-2.5-0.6s-1.3-0.9-1.6-1.7c-0.4-0.7-0.6-1.5-0.6-2.5c0-1,0.2-1.9,0.6-2.6
						c0.4-0.7,0.9-1.3,1.6-1.7c0.6-0.4,1.3-0.6,2-0.6c0.5,0,1,0.1,1.5,0.3c0.5,0.2,0.9,0.5,1.3,0.8c0.4,0.4,0.7,0.8,0.9,1.3
						c0.2,0.5,0.4,1.1,0.4,1.8c0,0.1-0.1,0.3-0.2,0.4c-0.1,0.1-0.2,0.2-0.4,0.2h-7.2l-0.2-1h7.1l-0.2,0.2v-0.4c0-0.6-0.2-1-0.5-1.4
						c-0.3-0.4-0.7-0.7-1.1-0.9c-0.4-0.2-0.9-0.3-1.4-0.3c-0.4,0-0.7,0.1-1.1,0.2s-0.7,0.4-1,0.7c-0.3,0.3-0.6,0.7-0.7,1.2
						c-0.2,0.5-0.3,1-0.3,1.7c0,0.7,0.1,1.3,0.4,1.9s0.7,1,1.2,1.4s1.2,0.5,2,0.5c0.4,0,0.8-0.1,1.1-0.2c0.3-0.1,0.6-0.3,0.9-0.5
						c0.3-0.2,0.5-0.4,0.6-0.6c0.1-0.1,0.2-0.2,0.4-0.2s0.2,0,0.3,0.1c0.1,0.1,0.1,0.2,0.1,0.3c0,0.1-0.1,0.3-0.2,0.4
						c-0.4,0.4-0.8,0.8-1.4,1.1C27.6,62.9,26.9,63,26.3,63z"/>
					<path class="st7" d="M36.1,53.4c0.6,0,1.1,0.1,1.6,0.2c0.5,0.1,0.9,0.3,1.2,0.5c0.3,0.2,0.4,0.5,0.4,0.7c0,0.1,0,0.2-0.1,0.3
						c-0.1,0.1-0.2,0.2-0.4,0.2c-0.1,0-0.3,0-0.4-0.1c-0.1-0.1-0.2-0.2-0.3-0.3s-0.2-0.2-0.4-0.3c-0.2-0.1-0.4-0.2-0.7-0.2
						c-0.3-0.1-0.6-0.1-1-0.1c-0.7,0-1.3,0.2-1.8,0.5s-1,0.8-1.3,1.3c-0.3,0.6-0.5,1.2-0.5,1.9c0,0.7,0.1,1.4,0.4,1.9
						c0.3,0.6,0.7,1,1.2,1.4c0.5,0.3,1.1,0.5,1.8,0.5c0.5,0,0.9,0,1.1-0.1c0.3-0.1,0.5-0.2,0.7-0.3c0.2-0.1,0.4-0.3,0.5-0.4
						c0.1-0.1,0.2-0.2,0.4-0.2c0.1,0,0.3,0,0.3,0.1s0.1,0.2,0.1,0.4c0,0.2-0.1,0.4-0.4,0.6s-0.7,0.4-1.2,0.6S36.7,63,36,63
						c-0.9,0-1.7-0.2-2.3-0.6s-1.2-1-1.6-1.7c-0.4-0.7-0.6-1.5-0.6-2.5c0-0.9,0.2-1.7,0.6-2.4c0.4-0.7,0.9-1.3,1.6-1.7
						C34.4,53.7,35.2,53.4,36.1,53.4z"/>
					<path class="st7" d="M48.5,53.6c0.2,0,0.3,0.1,0.4,0.2c0.1,0.1,0.2,0.2,0.2,0.4v8.1c0,0.1-0.1,0.3-0.2,0.4
						c-0.1,0.1-0.2,0.2-0.4,0.2c-0.2,0-0.3-0.1-0.4-0.2C48,62.6,48,62.4,48,62.3v-2.1l0.3-0.1c0,0.3-0.1,0.7-0.3,1
						c-0.2,0.4-0.4,0.7-0.8,1c-0.3,0.3-0.7,0.5-1.1,0.7c-0.4,0.2-0.9,0.3-1.4,0.3c-0.8,0-1.5-0.2-2.2-0.6c-0.6-0.4-1.1-1-1.5-1.7
						c-0.4-0.7-0.5-1.6-0.5-2.5c0-0.9,0.2-1.8,0.6-2.5c0.4-0.7,0.9-1.3,1.5-1.7s1.4-0.6,2.1-0.6c0.5,0,1,0.1,1.4,0.3
						c0.5,0.2,0.8,0.4,1.2,0.7c0.3,0.3,0.6,0.7,0.8,1.1c0.2,0.4,0.3,0.8,0.3,1.3L48,56.5v-2.3c0-0.2,0.1-0.3,0.2-0.4
						C48.2,53.7,48.4,53.6,48.5,53.6z M44.8,62c0.6,0,1.2-0.2,1.7-0.5s0.9-0.8,1.2-1.4s0.4-1.2,0.4-2c0-0.7-0.1-1.3-0.4-1.9
						s-0.7-1-1.2-1.3s-1.1-0.5-1.7-0.5c-0.6,0-1.2,0.2-1.7,0.5c-0.5,0.3-0.9,0.8-1.2,1.3s-0.4,1.2-0.4,1.9c0,0.7,0.1,1.4,0.4,2
						c0.3,0.6,0.7,1,1.2,1.4C43.6,61.9,44.1,62,44.8,62z"/>
					<path class="st7" d="M52.8,62.3c0,0.1-0.1,0.3-0.2,0.4c-0.1,0.1-0.2,0.2-0.4,0.2c-0.2,0-0.3-0.1-0.4-0.2
						c-0.1-0.1-0.2-0.2-0.2-0.4V50.1c0-0.1,0.1-0.3,0.2-0.4c0.1-0.1,0.2-0.2,0.4-0.2c0.2,0,0.3,0.1,0.4,0.2c0.1,0.1,0.2,0.2,0.2,0.4
						V62.3z"/>
					<path class="st7" d="M67.6,53.5c0.2,0,0.3,0.1,0.4,0.2c0.1,0.1,0.2,0.2,0.2,0.4V62c0,1-0.2,1.8-0.6,2.5
						c-0.4,0.7-0.9,1.2-1.5,1.5c-0.6,0.3-1.4,0.5-2.2,0.5c-0.5,0-1-0.1-1.4-0.2c-0.4-0.1-0.8-0.3-1.1-0.4c-0.1-0.1-0.3-0.2-0.3-0.3
						c-0.1-0.1-0.1-0.3,0-0.4c0.1-0.2,0.2-0.3,0.3-0.3s0.3-0.1,0.4,0c0.2,0.1,0.5,0.2,0.9,0.4c0.4,0.2,0.8,0.2,1.3,0.2
						c0.7,0,1.2-0.1,1.7-0.4c0.5-0.3,0.9-0.7,1.1-1.2c0.3-0.5,0.4-1.1,0.4-1.9v-1.3l0.1,0.4c-0.2,0.4-0.4,0.7-0.8,1
						c-0.3,0.3-0.7,0.5-1.1,0.7c-0.4,0.2-0.9,0.2-1.3,0.2c-0.7,0-1.3-0.1-1.8-0.4c-0.5-0.3-0.8-0.7-1.1-1.2
						c-0.2-0.5-0.4-1.1-0.4-1.8V54c0-0.1,0.1-0.3,0.2-0.4c0.1-0.1,0.2-0.2,0.4-0.2c0.2,0,0.3,0.1,0.4,0.2c0.1,0.1,0.2,0.2,0.2,0.4
						v5.4c0,0.8,0.2,1.5,0.5,1.9c0.4,0.5,1,0.7,1.8,0.7c0.5,0,1-0.1,1.4-0.4c0.4-0.2,0.8-0.6,1.1-1c0.3-0.4,0.4-0.8,0.4-1.3V54
						c0-0.1,0-0.3,0.1-0.4C67.3,53.5,67.4,53.5,67.6,53.5z"/>
					<path class="st7" d="M79.9,63c-0.9,0-1.8-0.2-2.5-0.6s-1.3-0.9-1.6-1.7c-0.4-0.7-0.6-1.5-0.6-2.5c0-1,0.2-1.9,0.6-2.6
						c0.4-0.7,0.9-1.3,1.6-1.7c0.6-0.4,1.3-0.6,2-0.6c0.5,0,1,0.1,1.5,0.3c0.5,0.2,0.9,0.5,1.3,0.8c0.4,0.4,0.7,0.8,0.9,1.3
						c0.2,0.5,0.4,1.1,0.4,1.8c0,0.1-0.1,0.3-0.2,0.4c-0.1,0.1-0.2,0.2-0.4,0.2h-7.2l-0.2-1h7.1l-0.2,0.2v-0.4c0-0.6-0.2-1-0.5-1.4
						c-0.3-0.4-0.7-0.7-1.1-0.9c-0.4-0.2-0.9-0.3-1.4-0.3c-0.4,0-0.7,0.1-1.1,0.2s-0.7,0.4-1,0.7c-0.3,0.3-0.6,0.7-0.7,1.2
						c-0.2,0.5-0.3,1-0.3,1.7c0,0.7,0.1,1.3,0.4,1.9s0.7,1,1.2,1.4s1.2,0.5,2,0.5c0.4,0,0.8-0.1,1.1-0.2c0.3-0.1,0.6-0.3,0.9-0.5
						c0.3-0.2,0.5-0.4,0.6-0.6c0.1-0.1,0.2-0.2,0.4-0.2s0.2,0,0.3,0.1c0.1,0.1,0.1,0.2,0.1,0.3c0,0.1-0.1,0.3-0.2,0.4
						c-0.4,0.4-0.8,0.8-1.4,1.1C81.2,62.9,80.6,63,79.9,63z"/>
					<path class="st7" d="M85.2,61.4c-0.1-0.1-0.1-0.3-0.1-0.4c0-0.1,0.1-0.2,0.2-0.3c0.1-0.1,0.2-0.1,0.3-0.1s0.2,0.1,0.4,0.2
						c0.3,0.4,0.7,0.8,1.2,1s1,0.4,1.6,0.4c0.3,0,0.7-0.1,1-0.2c0.3-0.1,0.6-0.3,0.8-0.5c0.2-0.2,0.3-0.5,0.3-0.9
						c0-0.4-0.1-0.7-0.3-0.9c-0.2-0.2-0.5-0.4-0.8-0.5c-0.3-0.1-0.7-0.3-1.1-0.3c-0.4-0.1-0.8-0.2-1.2-0.4c-0.4-0.1-0.7-0.3-1-0.5
						c-0.3-0.2-0.5-0.5-0.7-0.8c-0.2-0.3-0.3-0.7-0.3-1.1c0-0.5,0.1-0.9,0.4-1.3c0.3-0.4,0.6-0.7,1.1-0.9c0.5-0.2,1-0.3,1.6-0.3
						c0.3,0,0.6,0,1,0.1c0.3,0.1,0.7,0.2,1,0.4s0.6,0.4,0.9,0.7c0.1,0.1,0.2,0.2,0.2,0.4c0,0.1-0.1,0.3-0.2,0.4
						c-0.1,0.1-0.2,0.1-0.3,0.1c-0.1,0-0.2-0.1-0.3-0.2c-0.3-0.3-0.6-0.6-1-0.7c-0.4-0.2-0.8-0.2-1.3-0.2c-0.3,0-0.7,0.1-1,0.2
						c-0.3,0.1-0.6,0.3-0.8,0.5c-0.2,0.2-0.3,0.5-0.3,0.9c0,0.3,0.1,0.6,0.4,0.8c0.2,0.2,0.5,0.4,0.9,0.5c0.4,0.1,0.8,0.3,1.2,0.4
						c0.4,0.1,0.8,0.2,1.1,0.3c0.4,0.1,0.7,0.3,0.9,0.5c0.3,0.2,0.5,0.4,0.6,0.7c0.2,0.3,0.2,0.7,0.2,1.1c0,0.5-0.1,1-0.4,1.4
						c-0.3,0.4-0.7,0.7-1.2,0.9c-0.5,0.2-1,0.3-1.6,0.3c-0.6,0-1.3-0.1-1.9-0.4C86.3,62.4,85.7,62,85.2,61.4z"/>
					<path class="st7" d="M103.2,63c-0.9,0-1.8-0.2-2.5-0.6s-1.3-0.9-1.6-1.7c-0.4-0.7-0.6-1.5-0.6-2.5c0-1,0.2-1.9,0.6-2.6
						c0.4-0.7,0.9-1.3,1.6-1.7c0.6-0.4,1.3-0.6,2-0.6c0.5,0,1,0.1,1.5,0.3c0.5,0.2,0.9,0.5,1.3,0.8c0.4,0.4,0.7,0.8,0.9,1.3
						c0.2,0.5,0.4,1.1,0.4,1.8c0,0.1-0.1,0.3-0.2,0.4c-0.1,0.1-0.2,0.2-0.4,0.2h-7.2l-0.2-1h7.1l-0.2,0.2v-0.4c0-0.6-0.2-1-0.5-1.4
						c-0.3-0.4-0.7-0.7-1.1-0.9c-0.4-0.2-0.9-0.3-1.4-0.3c-0.4,0-0.7,0.1-1.1,0.2s-0.7,0.4-1,0.7c-0.3,0.3-0.6,0.7-0.7,1.2
						c-0.2,0.5-0.3,1-0.3,1.7c0,0.7,0.1,1.3,0.4,1.9s0.7,1,1.2,1.4s1.2,0.5,2,0.5c0.4,0,0.8-0.1,1.1-0.2c0.3-0.1,0.6-0.3,0.9-0.5
						c0.3-0.2,0.5-0.4,0.6-0.6c0.1-0.1,0.2-0.2,0.4-0.2s0.2,0,0.3,0.1c0.1,0.1,0.1,0.2,0.1,0.3c0,0.1-0.1,0.3-0.2,0.4
						c-0.4,0.4-0.8,0.8-1.4,1.1C104.5,62.9,103.9,63,103.2,63z"/>
					<path class="st7" d="M108.5,53.6c0.2,0,0.3,0.1,0.4,0.2l6.4,8.2c0.1,0.1,0.1,0.2,0.1,0.3c0,0.1-0.1,0.3-0.2,0.4
						c-0.1,0.1-0.2,0.2-0.4,0.2c-0.2,0-0.3-0.1-0.4-0.2l-6.4-8.2c-0.1-0.1-0.1-0.2-0.1-0.3c0-0.2,0.1-0.3,0.2-0.4
						C108.2,53.6,108.3,53.6,108.5,53.6z M108.5,62.9c-0.1,0-0.2,0-0.4-0.1c-0.1-0.1-0.2-0.2-0.2-0.4c0-0.1,0-0.2,0.1-0.3l3-3.9
						l0.6,0.9l-2.8,3.6C108.8,62.8,108.7,62.9,108.5,62.9z M114.9,53.6c0.2,0,0.3,0,0.4,0.1s0.1,0.2,0.1,0.3c0,0.1,0,0.1,0,0.2
						c0,0.1-0.1,0.1-0.1,0.2l-3,4l-0.6-0.9l2.8-3.7C114.6,53.6,114.7,53.6,114.9,53.6z"/>
					<path class="st7" d="M121.5,53.6c0.8,0,1.5,0.2,2.2,0.6s1.1,1,1.5,1.7c0.4,0.7,0.6,1.5,0.6,2.4s-0.2,1.7-0.6,2.4
						c-0.4,0.7-0.9,1.3-1.5,1.7c-0.6,0.4-1.3,0.6-2.1,0.6c-0.4,0-0.8-0.1-1.2-0.2c-0.4-0.1-0.7-0.3-1-0.5c-0.3-0.2-0.6-0.5-0.8-0.8
						c-0.2-0.3-0.4-0.6-0.6-0.9l0.3-0.3v5.6c0,0.1-0.1,0.3-0.2,0.4c-0.1,0.1-0.2,0.2-0.4,0.2s-0.3-0.1-0.4-0.2
						c-0.1-0.1-0.2-0.2-0.2-0.4V54.2c0-0.2,0.1-0.3,0.2-0.4c0.1-0.1,0.2-0.2,0.4-0.2c0.2,0,0.3,0.1,0.4,0.2c0.1,0.1,0.2,0.2,0.2,0.4
						v1.9L118,56c0.1-0.4,0.3-0.7,0.5-1c0.2-0.3,0.5-0.5,0.8-0.8c0.3-0.2,0.7-0.4,1-0.5C120.7,53.6,121.1,53.6,121.5,53.6z
						 M121.5,54.6c-0.6,0-1.2,0.2-1.7,0.5s-0.9,0.8-1.2,1.3c-0.3,0.5-0.4,1.2-0.4,1.9c0,0.7,0.1,1.3,0.4,1.9c0.3,0.6,0.7,1,1.2,1.3
						s1.1,0.5,1.7,0.5c0.6,0,1.2-0.2,1.7-0.5c0.5-0.3,0.9-0.8,1.2-1.3c0.3-0.6,0.4-1.2,0.4-1.9c0-0.7-0.1-1.3-0.4-1.9
						s-0.7-1-1.2-1.3C122.7,54.7,122.1,54.6,121.5,54.6z"/>
					<path class="st7" d="M134.7,53.7c0.2,0,0.3,0.1,0.4,0.2c0.1,0.1,0.2,0.2,0.2,0.4v5.1c0,1.2-0.3,2.1-1,2.7
						c-0.7,0.6-1.6,0.9-2.7,0.9c-1.1,0-2-0.3-2.7-0.9c-0.7-0.6-1-1.5-1-2.7v-5.1c0-0.1,0.1-0.3,0.2-0.4c0.1-0.1,0.2-0.2,0.4-0.2
						s0.3,0.1,0.4,0.2c0.1,0.1,0.2,0.2,0.2,0.4v5.1c0,0.9,0.2,1.5,0.7,2c0.5,0.4,1.1,0.7,1.9,0.7c0.8,0,1.5-0.2,1.9-0.7
						c0.5-0.5,0.7-1.1,0.7-2v-5.1c0-0.1,0.1-0.3,0.2-0.4C134.4,53.8,134.6,53.7,134.7,53.7z"/>
					<path class="st7" d="M139,62.3c0,0.1-0.1,0.3-0.2,0.4c-0.1,0.1-0.2,0.2-0.4,0.2c-0.2,0-0.3-0.1-0.4-0.2
						c-0.1-0.1-0.2-0.2-0.2-0.4V50.1c0-0.1,0.1-0.3,0.2-0.4c0.1-0.1,0.2-0.2,0.4-0.2c0.2,0,0.3,0.1,0.4,0.2c0.1,0.1,0.2,0.2,0.2,0.4
						V62.3z"/>
					<path class="st7" d="M141.2,61.4c-0.1-0.1-0.1-0.3-0.1-0.4c0-0.1,0.1-0.2,0.2-0.3c0.1-0.1,0.2-0.1,0.3-0.1s0.2,0.1,0.4,0.2
						c0.3,0.4,0.7,0.8,1.2,1s1,0.4,1.6,0.4c0.3,0,0.7-0.1,1-0.2c0.3-0.1,0.6-0.3,0.8-0.5c0.2-0.2,0.3-0.5,0.3-0.9
						c0-0.4-0.1-0.7-0.3-0.9c-0.2-0.2-0.5-0.4-0.8-0.5c-0.3-0.1-0.7-0.3-1.1-0.3c-0.4-0.1-0.8-0.2-1.2-0.4c-0.4-0.1-0.7-0.3-1-0.5
						c-0.3-0.2-0.5-0.5-0.7-0.8c-0.2-0.3-0.3-0.7-0.3-1.1c0-0.5,0.1-0.9,0.4-1.3c0.3-0.4,0.6-0.7,1.1-0.9c0.5-0.2,1-0.3,1.6-0.3
						c0.3,0,0.6,0,1,0.1c0.3,0.1,0.7,0.2,1,0.4s0.6,0.4,0.9,0.7c0.1,0.1,0.2,0.2,0.2,0.4c0,0.1-0.1,0.3-0.2,0.4
						c-0.1,0.1-0.2,0.1-0.3,0.1c-0.1,0-0.2-0.1-0.3-0.2c-0.3-0.3-0.6-0.6-1-0.7c-0.4-0.2-0.8-0.2-1.3-0.2c-0.3,0-0.7,0.1-1,0.2
						c-0.3,0.1-0.6,0.3-0.8,0.5c-0.2,0.2-0.3,0.5-0.3,0.9c0,0.3,0.1,0.6,0.4,0.8c0.2,0.2,0.5,0.4,0.9,0.5c0.4,0.1,0.8,0.3,1.2,0.4
						c0.4,0.1,0.8,0.2,1.1,0.3c0.4,0.1,0.7,0.3,0.9,0.5c0.3,0.2,0.5,0.4,0.6,0.7c0.2,0.3,0.2,0.7,0.2,1.1c0,0.5-0.1,1-0.4,1.4
						c-0.3,0.4-0.7,0.7-1.2,0.9c-0.5,0.2-1,0.3-1.6,0.3c-0.6,0-1.3-0.1-1.9-0.4C142.2,62.4,141.6,62,141.2,61.4z"/>
					<path class="st7" d="M157.5,53.6c0.2,0,0.3,0.1,0.4,0.2c0.1,0.1,0.2,0.2,0.2,0.4v8.1c0,0.1-0.1,0.3-0.2,0.4
						c-0.1,0.1-0.2,0.2-0.4,0.2c-0.2,0-0.3-0.1-0.4-0.2c-0.1-0.1-0.2-0.2-0.2-0.4v-2.1l0.3-0.1c0,0.3-0.1,0.7-0.3,1
						c-0.2,0.4-0.4,0.7-0.8,1c-0.3,0.3-0.7,0.5-1.1,0.7c-0.4,0.2-0.9,0.3-1.4,0.3c-0.8,0-1.5-0.2-2.2-0.6c-0.6-0.4-1.1-1-1.5-1.7
						c-0.4-0.7-0.5-1.6-0.5-2.5c0-0.9,0.2-1.8,0.6-2.5c0.4-0.7,0.9-1.3,1.5-1.7s1.4-0.6,2.1-0.6c0.5,0,1,0.1,1.4,0.3
						c0.5,0.2,0.8,0.4,1.2,0.7c0.3,0.3,0.6,0.7,0.8,1.1c0.2,0.4,0.3,0.8,0.3,1.3l-0.4-0.3v-2.3c0-0.2,0.1-0.3,0.2-0.4
						C157.2,53.7,157.3,53.6,157.5,53.6z M153.7,62c0.6,0,1.2-0.2,1.7-0.5s0.9-0.8,1.2-1.4s0.4-1.2,0.4-2c0-0.7-0.1-1.3-0.4-1.9
						s-0.7-1-1.2-1.3s-1.1-0.5-1.7-0.5c-0.6,0-1.2,0.2-1.7,0.5c-0.5,0.3-0.9,0.8-1.2,1.3s-0.4,1.2-0.4,1.9c0,0.7,0.1,1.4,0.4,2
						c0.3,0.6,0.7,1,1.2,1.4C152.5,61.9,153.1,62,153.7,62z"/>
					<path class="st7" d="M168.2,49.5c0.2,0,0.3,0.1,0.4,0.2c0.1,0.1,0.2,0.2,0.2,0.4v12.2c0,0.1-0.1,0.3-0.2,0.4
						c-0.1,0.1-0.2,0.2-0.4,0.2c-0.2,0-0.3-0.1-0.4-0.2c-0.1-0.1-0.2-0.2-0.2-0.4v-2.1l0.3-0.3c0,0.3-0.1,0.7-0.3,1.1
						c-0.2,0.4-0.4,0.7-0.8,1s-0.7,0.6-1.2,0.7c-0.4,0.2-0.9,0.3-1.4,0.3c-0.8,0-1.5-0.2-2.2-0.6s-1.1-1-1.5-1.7
						c-0.4-0.7-0.6-1.5-0.6-2.5c0-0.9,0.2-1.7,0.6-2.5c0.4-0.7,0.9-1.3,1.5-1.7s1.4-0.6,2.1-0.6c0.5,0,1,0.1,1.4,0.3
						c0.4,0.2,0.8,0.4,1.2,0.7s0.6,0.7,0.8,1.1s0.3,0.8,0.3,1.3l-0.4-0.3v-6.4c0-0.1,0.1-0.3,0.2-0.4
						C167.9,49.6,168,49.5,168.2,49.5z M164.4,62c0.6,0,1.2-0.2,1.7-0.5s0.9-0.8,1.2-1.3s0.4-1.2,0.4-2c0-0.7-0.1-1.4-0.4-1.9
						c-0.3-0.6-0.7-1-1.2-1.3s-1.1-0.5-1.7-0.5c-0.6,0-1.2,0.2-1.7,0.5s-0.9,0.8-1.2,1.3c-0.3,0.6-0.4,1.2-0.4,1.9
						c0,0.7,0.1,1.4,0.4,1.9c0.3,0.6,0.7,1,1.2,1.4S163.8,62,164.4,62z"/>
					<path class="st7" d="M179.9,58.2c0,0.9-0.2,1.7-0.6,2.5c-0.4,0.7-0.9,1.3-1.6,1.7c-0.7,0.4-1.5,0.6-2.3,0.6
						c-0.9,0-1.6-0.2-2.3-0.6s-1.2-1-1.6-1.7c-0.4-0.7-0.6-1.5-0.6-2.5c0-0.9,0.2-1.7,0.6-2.5c0.4-0.7,0.9-1.3,1.6-1.7
						s1.5-0.6,2.3-0.6c0.9,0,1.6,0.2,2.3,0.6c0.7,0.4,1.2,1,1.6,1.7C179.7,56.5,179.9,57.3,179.9,58.2z M178.8,58.2
						c0-0.7-0.2-1.4-0.5-2c-0.3-0.6-0.7-1-1.2-1.3c-0.5-0.3-1.1-0.5-1.8-0.5c-0.7,0-1.3,0.2-1.8,0.5c-0.5,0.3-0.9,0.8-1.2,1.3
						c-0.3,0.6-0.5,1.2-0.5,2c0,0.7,0.2,1.4,0.5,1.9c0.3,0.6,0.7,1,1.2,1.3c0.5,0.3,1.1,0.5,1.8,0.5c0.7,0,1.3-0.2,1.8-0.5
						c0.5-0.3,0.9-0.8,1.2-1.3S178.8,59,178.8,58.2z"/>
					<path class="st7" d="M194.5,53.6c0.2,0,0.3,0.1,0.4,0.2c0.1,0.1,0.2,0.2,0.2,0.4v8.1c0,0.1-0.1,0.3-0.2,0.4
						c-0.1,0.1-0.2,0.2-0.4,0.2c-0.2,0-0.3-0.1-0.4-0.2c-0.1-0.1-0.2-0.2-0.2-0.4v-2.1l0.3-0.1c0,0.3-0.1,0.7-0.3,1
						c-0.2,0.4-0.4,0.7-0.8,1c-0.3,0.3-0.7,0.5-1.1,0.7c-0.4,0.2-0.9,0.3-1.4,0.3c-0.8,0-1.5-0.2-2.2-0.6c-0.6-0.4-1.1-1-1.5-1.7
						c-0.4-0.7-0.5-1.6-0.5-2.5c0-0.9,0.2-1.8,0.6-2.5c0.4-0.7,0.9-1.3,1.5-1.7s1.4-0.6,2.1-0.6c0.5,0,1,0.1,1.4,0.3
						c0.5,0.2,0.8,0.4,1.2,0.7c0.3,0.3,0.6,0.7,0.8,1.1c0.2,0.4,0.3,0.8,0.3,1.3l-0.4-0.3v-2.3c0-0.2,0.1-0.3,0.2-0.4
						C194.2,53.7,194.3,53.6,194.5,53.6z M190.8,62c0.6,0,1.2-0.2,1.7-0.5s0.9-0.8,1.2-1.4s0.4-1.2,0.4-2c0-0.7-0.1-1.3-0.4-1.9
						s-0.7-1-1.2-1.3s-1.1-0.5-1.7-0.5c-0.6,0-1.2,0.2-1.7,0.5c-0.5,0.3-0.9,0.8-1.2,1.3s-0.4,1.2-0.4,1.9c0,0.7,0.1,1.4,0.4,2
						c0.3,0.6,0.7,1,1.2,1.4C189.6,61.9,190.1,62,190.8,62z"/>
					<path class="st7" d="M198.8,62.3c0,0.1-0.1,0.3-0.2,0.4c-0.1,0.1-0.2,0.2-0.4,0.2c-0.2,0-0.3-0.1-0.4-0.2
						c-0.1-0.1-0.2-0.2-0.2-0.4V50.1c0-0.1,0.1-0.3,0.2-0.4c0.1-0.1,0.2-0.2,0.4-0.2c0.2,0,0.3,0.1,0.4,0.2c0.1,0.1,0.2,0.2,0.2,0.4
						V62.3z"/>
					<path class="st7" d="M210.8,63c-0.9,0-1.8-0.2-2.5-0.6s-1.3-0.9-1.6-1.7c-0.4-0.7-0.6-1.5-0.6-2.5c0-1,0.2-1.9,0.6-2.6
						c0.4-0.7,0.9-1.3,1.6-1.7c0.6-0.4,1.3-0.6,2-0.6c0.5,0,1,0.1,1.5,0.3c0.5,0.2,0.9,0.5,1.3,0.8c0.4,0.4,0.7,0.8,0.9,1.3
						c0.2,0.5,0.4,1.1,0.4,1.8c0,0.1-0.1,0.3-0.2,0.4c-0.1,0.1-0.2,0.2-0.4,0.2h-7.2l-0.2-1h7.1l-0.2,0.2v-0.4c0-0.6-0.2-1-0.5-1.4
						c-0.3-0.4-0.7-0.7-1.1-0.9c-0.4-0.2-0.9-0.3-1.4-0.3c-0.4,0-0.7,0.1-1.1,0.2s-0.7,0.4-1,0.7c-0.3,0.3-0.6,0.7-0.7,1.2
						c-0.2,0.5-0.3,1-0.3,1.7c0,0.7,0.1,1.3,0.4,1.9s0.7,1,1.2,1.4s1.2,0.5,2,0.5c0.4,0,0.8-0.1,1.1-0.2c0.3-0.1,0.6-0.3,0.9-0.5
						c0.3-0.2,0.5-0.4,0.6-0.6c0.1-0.1,0.2-0.2,0.4-0.2s0.2,0,0.3,0.1c0.1,0.1,0.1,0.2,0.1,0.3c0,0.1-0.1,0.3-0.2,0.4
						c-0.4,0.4-0.8,0.8-1.4,1.1C212.1,62.9,211.5,63,210.8,63z"/>
					<path class="st7" d="M216.1,53.6c0.2,0,0.3,0.1,0.4,0.2l6.4,8.2c0.1,0.1,0.1,0.2,0.1,0.3c0,0.1-0.1,0.3-0.2,0.4
						c-0.1,0.1-0.2,0.2-0.4,0.2c-0.2,0-0.3-0.1-0.4-0.2l-6.4-8.2c-0.1-0.1-0.1-0.2-0.1-0.3c0-0.2,0.1-0.3,0.2-0.4
						C215.8,53.6,215.9,53.6,216.1,53.6z M216.1,62.9c-0.1,0-0.2,0-0.4-0.1c-0.1-0.1-0.2-0.2-0.2-0.4c0-0.1,0-0.2,0.1-0.3l3-3.9
						l0.6,0.9l-2.8,3.6C216.4,62.8,216.2,62.9,216.1,62.9z M222.4,53.6c0.2,0,0.3,0,0.4,0.1s0.1,0.2,0.1,0.3c0,0.1,0,0.1,0,0.2
						c0,0.1-0.1,0.1-0.1,0.2l-3,4l-0.6-0.9l2.8-3.7C222.1,53.6,222.3,53.6,222.4,53.6z"/>
					<path class="st7" d="M224.7,53.7h4.2c0.1,0,0.3,0.1,0.4,0.2s0.1,0.2,0.1,0.4s0,0.3-0.1,0.4c-0.1,0.1-0.2,0.1-0.4,0.1h-4.2
						c-0.1,0-0.3-0.1-0.4-0.2c-0.1-0.1-0.2-0.2-0.2-0.4s0.1-0.3,0.2-0.4C224.5,53.7,224.6,53.7,224.7,53.7z M226.6,51.1
						c0.2,0,0.3,0.1,0.4,0.2c0.1,0.1,0.2,0.2,0.2,0.4v9c0,0.3,0,0.6,0.1,0.8c0.1,0.2,0.2,0.3,0.4,0.3c0.1,0.1,0.3,0.1,0.4,0.1
						c0.1,0,0.2,0,0.3,0c0.1,0,0.2,0,0.3,0c0.1,0,0.2,0,0.3,0.1c0.1,0.1,0.1,0.2,0.1,0.3c0,0.2-0.1,0.3-0.3,0.4
						c-0.2,0.1-0.4,0.2-0.7,0.2c-0.1,0-0.3,0-0.5,0c-0.2,0-0.4-0.1-0.7-0.2c-0.2-0.1-0.4-0.3-0.6-0.6c-0.2-0.3-0.2-0.7-0.2-1.2v-9.1
						c0-0.1,0.1-0.3,0.2-0.4C226.3,51.2,226.4,51.1,226.6,51.1z"/>
					<path class="st7" d="M234.9,63c-0.9,0-1.8-0.2-2.5-0.6s-1.3-0.9-1.6-1.7c-0.4-0.7-0.6-1.5-0.6-2.5c0-1,0.2-1.9,0.6-2.6
						c0.4-0.7,0.9-1.3,1.6-1.7c0.6-0.4,1.3-0.6,2-0.6c0.5,0,1,0.1,1.5,0.3c0.5,0.2,0.9,0.5,1.3,0.8c0.4,0.4,0.7,0.8,0.9,1.3
						c0.2,0.5,0.4,1.1,0.4,1.8c0,0.1-0.1,0.3-0.2,0.4c-0.1,0.1-0.2,0.2-0.4,0.2h-7.2l-0.2-1h7.1l-0.2,0.2v-0.4c0-0.6-0.2-1-0.5-1.4
						c-0.3-0.4-0.7-0.7-1.1-0.9c-0.4-0.2-0.9-0.3-1.4-0.3c-0.4,0-0.7,0.1-1.1,0.2s-0.7,0.4-1,0.7c-0.3,0.3-0.6,0.7-0.7,1.2
						c-0.2,0.5-0.3,1-0.3,1.7c0,0.7,0.1,1.3,0.4,1.9s0.7,1,1.2,1.4s1.2,0.5,2,0.5c0.4,0,0.8-0.1,1.1-0.2c0.3-0.1,0.6-0.3,0.9-0.5
						c0.3-0.2,0.5-0.4,0.6-0.6c0.1-0.1,0.2-0.2,0.4-0.2s0.2,0,0.3,0.1c0.1,0.1,0.1,0.2,0.1,0.3c0,0.1-0.1,0.3-0.2,0.4
						c-0.4,0.4-0.8,0.8-1.4,1.1C236.2,62.9,235.6,63,234.9,63z"/>
					<path class="st7" d="M241.3,62.8c-0.2,0-0.3-0.1-0.4-0.2c-0.1-0.1-0.2-0.2-0.2-0.4v-8.1c0-0.1,0.1-0.3,0.2-0.4
						c0.1-0.1,0.2-0.2,0.4-0.2s0.3,0.1,0.4,0.2c0.1,0.1,0.2,0.2,0.2,0.4v2.7l-0.3,0.1c0-0.4,0.1-0.8,0.3-1.3s0.4-0.8,0.7-1.1
						s0.7-0.6,1.1-0.8c0.4-0.2,0.9-0.3,1.4-0.3c0.2,0,0.4,0,0.6,0.1s0.3,0.2,0.3,0.4c0,0.2,0,0.3-0.1,0.4c-0.1,0.1-0.2,0.1-0.3,0.1
						c-0.1,0-0.2,0-0.4-0.1c-0.1-0.1-0.3-0.1-0.5-0.1c-0.3,0-0.7,0.1-1,0.3c-0.3,0.2-0.6,0.5-0.9,0.8c-0.3,0.3-0.5,0.7-0.7,1.1
						s-0.2,0.8-0.2,1.3v4.4c0,0.1-0.1,0.3-0.2,0.4C241.6,62.8,241.4,62.8,241.3,62.8z"/>
					<path class="st7" d="M248.2,52.3c-0.3,0-0.4-0.1-0.6-0.2c-0.1-0.1-0.2-0.3-0.2-0.5v-0.2c0-0.2,0.1-0.4,0.2-0.5
						c0.1-0.1,0.3-0.2,0.6-0.2c0.2,0,0.4,0.1,0.5,0.2c0.1,0.1,0.2,0.3,0.2,0.5v0.2c0,0.2-0.1,0.4-0.2,0.5
						C248.6,52.2,248.4,52.3,248.2,52.3z M248.7,62.3c0,0.1-0.1,0.3-0.2,0.4c-0.1,0.1-0.2,0.2-0.4,0.2c-0.2,0-0.3-0.1-0.4-0.2
						c-0.1-0.1-0.1-0.2-0.1-0.4V54c0-0.1,0.1-0.3,0.2-0.4c0.1-0.1,0.2-0.2,0.4-0.2s0.3,0.1,0.4,0.2c0.1,0.1,0.2,0.2,0.2,0.4V62.3z"
						/>
					<path class="st7" d="M259.8,58.2c0,0.9-0.2,1.7-0.6,2.5c-0.4,0.7-0.9,1.3-1.6,1.7c-0.7,0.4-1.5,0.6-2.3,0.6
						c-0.9,0-1.6-0.2-2.3-0.6c-0.7-0.4-1.2-1-1.6-1.7c-0.4-0.7-0.6-1.5-0.6-2.5c0-0.9,0.2-1.7,0.6-2.5c0.4-0.7,0.9-1.3,1.6-1.7
						c0.7-0.4,1.5-0.6,2.3-0.6c0.9,0,1.6,0.2,2.3,0.6c0.7,0.4,1.2,1,1.6,1.7C259.6,56.5,259.8,57.3,259.8,58.2z M258.7,58.2
						c0-0.7-0.2-1.4-0.4-2c-0.3-0.6-0.7-1-1.2-1.3c-0.5-0.3-1.1-0.5-1.8-0.5c-0.7,0-1.3,0.2-1.8,0.5s-0.9,0.8-1.2,1.3
						c-0.3,0.6-0.5,1.2-0.5,2c0,0.7,0.2,1.4,0.5,1.9c0.3,0.6,0.7,1,1.2,1.3s1.1,0.5,1.8,0.5c0.7,0,1.2-0.2,1.8-0.5
						c0.5-0.3,0.9-0.8,1.2-1.3C258.6,59.6,258.7,59,258.7,58.2z"/>
					<path class="st7" d="M262.5,62.8c-0.2,0-0.3-0.1-0.4-0.2s-0.2-0.2-0.2-0.4v-8.1c0-0.1,0.1-0.3,0.2-0.4c0.1-0.1,0.2-0.2,0.4-0.2
						s0.3,0.1,0.4,0.2c0.1,0.1,0.2,0.2,0.2,0.4v2.7l-0.3,0.1c0-0.4,0.1-0.8,0.3-1.3s0.4-0.8,0.7-1.1c0.3-0.3,0.7-0.6,1.1-0.8
						c0.4-0.2,0.9-0.3,1.4-0.3c0.2,0,0.4,0,0.6,0.1c0.2,0.1,0.3,0.2,0.3,0.4c0,0.2,0,0.3-0.1,0.4s-0.2,0.1-0.3,0.1
						c-0.1,0-0.2,0-0.4-0.1c-0.1-0.1-0.3-0.1-0.5-0.1c-0.3,0-0.7,0.1-1,0.3c-0.3,0.2-0.6,0.5-0.9,0.8c-0.3,0.3-0.5,0.7-0.7,1.1
						s-0.2,0.8-0.2,1.3v4.4c0,0.1-0.1,0.3-0.2,0.4S262.6,62.8,262.5,62.8z"/>
					<path class="st7" d="M281.2,49.5c0.2,0,0.3,0.1,0.4,0.2c0.1,0.1,0.2,0.2,0.2,0.4v12.2c0,0.1-0.1,0.3-0.2,0.4s-0.2,0.2-0.4,0.2
						c-0.2,0-0.3-0.1-0.4-0.2s-0.2-0.2-0.2-0.4v-2.1l0.3-0.3c0,0.3-0.1,0.7-0.3,1.1c-0.2,0.4-0.4,0.7-0.8,1s-0.7,0.6-1.2,0.7
						c-0.4,0.2-0.9,0.3-1.4,0.3c-0.8,0-1.5-0.2-2.2-0.6c-0.6-0.4-1.1-1-1.5-1.7c-0.4-0.7-0.6-1.5-0.6-2.5c0-0.9,0.2-1.7,0.6-2.5
						c0.4-0.7,0.9-1.3,1.5-1.7c0.6-0.4,1.4-0.6,2.1-0.6c0.5,0,1,0.1,1.4,0.3s0.8,0.4,1.2,0.7s0.6,0.7,0.8,1.1
						c0.2,0.4,0.3,0.8,0.3,1.3l-0.4-0.3v-6.4c0-0.1,0.1-0.3,0.2-0.4S281.1,49.5,281.2,49.5z M277.5,62c0.6,0,1.2-0.2,1.7-0.5
						s0.9-0.8,1.2-1.3c0.3-0.6,0.4-1.2,0.4-2c0-0.7-0.1-1.4-0.4-1.9c-0.3-0.6-0.7-1-1.2-1.3s-1.1-0.5-1.7-0.5
						c-0.6,0-1.2,0.2-1.7,0.5s-0.9,0.8-1.2,1.3c-0.3,0.6-0.4,1.2-0.4,1.9c0,0.7,0.1,1.4,0.4,1.9c0.3,0.6,0.7,1,1.2,1.4
						S276.9,62,277.5,62z"/>
					<path class="st7" d="M288.6,63c-0.9,0-1.8-0.2-2.5-0.6c-0.7-0.4-1.2-0.9-1.6-1.7s-0.6-1.5-0.6-2.5c0-1,0.2-1.9,0.6-2.6
						c0.4-0.7,0.9-1.3,1.6-1.7c0.6-0.4,1.3-0.6,2-0.6c0.5,0,1,0.1,1.5,0.3c0.5,0.2,0.9,0.5,1.3,0.8c0.4,0.4,0.7,0.8,0.9,1.3
						c0.2,0.5,0.4,1.1,0.4,1.8c0,0.1-0.1,0.3-0.2,0.4c-0.1,0.1-0.2,0.2-0.4,0.2h-7.2l-0.2-1h7.1l-0.2,0.2v-0.4c0-0.6-0.2-1-0.5-1.4
						c-0.3-0.4-0.7-0.7-1.1-0.9c-0.4-0.2-0.9-0.3-1.4-0.3c-0.4,0-0.7,0.1-1.1,0.2c-0.4,0.1-0.7,0.4-1,0.7c-0.3,0.3-0.6,0.7-0.7,1.2
						c-0.2,0.5-0.3,1-0.3,1.7c0,0.7,0.1,1.3,0.4,1.9c0.3,0.6,0.7,1,1.2,1.4c0.5,0.3,1.2,0.5,2,0.5c0.4,0,0.8-0.1,1.1-0.2
						c0.3-0.1,0.6-0.3,0.9-0.5c0.3-0.2,0.5-0.4,0.6-0.6c0.1-0.1,0.2-0.2,0.4-0.2c0.1,0,0.2,0,0.3,0.1c0.1,0.1,0.1,0.2,0.1,0.3
						c0,0.1-0.1,0.3-0.2,0.4c-0.4,0.4-0.8,0.8-1.4,1.1C289.9,62.9,289.3,63,288.6,63z"/>
					<path class="st7" d="M295.5,62.3c0,0.1-0.1,0.3-0.2,0.4s-0.2,0.2-0.4,0.2c-0.2,0-0.3-0.1-0.4-0.2c-0.1-0.1-0.2-0.2-0.2-0.4
						V50.1c0-0.1,0.1-0.3,0.2-0.4s0.2-0.2,0.4-0.2c0.2,0,0.3,0.1,0.4,0.2c0.1,0.1,0.2,0.2,0.2,0.4V62.3z"/>
					<path class="st7" d="M307.4,53.4c0.6,0,1.1,0.1,1.6,0.2c0.5,0.1,0.9,0.3,1.2,0.5c0.3,0.2,0.4,0.5,0.4,0.7c0,0.1,0,0.2-0.1,0.3
						c-0.1,0.1-0.2,0.2-0.4,0.2c-0.1,0-0.3,0-0.3-0.1c-0.1-0.1-0.2-0.2-0.3-0.3s-0.2-0.2-0.4-0.3c-0.2-0.1-0.4-0.2-0.7-0.2
						c-0.3-0.1-0.6-0.1-1-0.1c-0.7,0-1.3,0.2-1.8,0.5c-0.5,0.3-1,0.8-1.3,1.3c-0.3,0.6-0.5,1.2-0.5,1.9c0,0.7,0.1,1.4,0.4,1.9
						c0.3,0.6,0.7,1,1.2,1.4c0.5,0.3,1.1,0.5,1.8,0.5c0.5,0,0.9,0,1.1-0.1c0.3-0.1,0.5-0.2,0.7-0.3c0.2-0.1,0.4-0.3,0.5-0.4
						c0.1-0.1,0.2-0.2,0.4-0.2c0.1,0,0.3,0,0.3,0.1s0.1,0.2,0.1,0.4c0,0.2-0.1,0.4-0.4,0.6c-0.3,0.2-0.7,0.4-1.2,0.6
						s-1.1,0.3-1.7,0.3c-0.9,0-1.7-0.2-2.3-0.6s-1.2-1-1.6-1.7c-0.4-0.7-0.6-1.5-0.6-2.5c0-0.9,0.2-1.7,0.6-2.4
						c0.4-0.7,0.9-1.3,1.6-1.7C305.7,53.7,306.5,53.4,307.4,53.4z"/>
					<path class="st7" d="M319.3,53.7c0.2,0,0.3,0.1,0.4,0.2s0.2,0.2,0.2,0.4v5.1c0,1.2-0.3,2.1-1,2.7c-0.7,0.6-1.6,0.9-2.7,0.9
						c-1.1,0-2-0.3-2.7-0.9c-0.7-0.6-1-1.5-1-2.7v-5.1c0-0.1,0.1-0.3,0.2-0.4s0.2-0.2,0.4-0.2s0.3,0.1,0.4,0.2s0.2,0.2,0.2,0.4v5.1
						c0,0.9,0.2,1.5,0.7,2c0.5,0.4,1.1,0.7,1.9,0.7c0.8,0,1.5-0.2,1.9-0.7c0.5-0.5,0.7-1.1,0.7-2v-5.1c0-0.1,0.1-0.3,0.2-0.4
						C319,53.8,319.1,53.7,319.3,53.7z"/>
					<path class="st7" d="M326.6,63c-0.9,0-1.8-0.2-2.5-0.6c-0.7-0.4-1.2-0.9-1.6-1.7s-0.6-1.5-0.6-2.5c0-1,0.2-1.9,0.6-2.6
						c0.4-0.7,0.9-1.3,1.6-1.7c0.6-0.4,1.3-0.6,2-0.6c0.5,0,1,0.1,1.5,0.3c0.5,0.2,0.9,0.5,1.3,0.8c0.4,0.4,0.7,0.8,0.9,1.3
						c0.2,0.5,0.4,1.1,0.4,1.8c0,0.1-0.1,0.3-0.2,0.4c-0.1,0.1-0.2,0.2-0.4,0.2h-7.2l-0.2-1h7.1l-0.2,0.2v-0.4c0-0.6-0.2-1-0.5-1.4
						c-0.3-0.4-0.7-0.7-1.1-0.9c-0.4-0.2-0.9-0.3-1.4-0.3c-0.4,0-0.7,0.1-1.1,0.2c-0.4,0.1-0.7,0.4-1,0.7c-0.3,0.3-0.6,0.7-0.7,1.2
						c-0.2,0.5-0.3,1-0.3,1.7c0,0.7,0.1,1.3,0.4,1.9c0.3,0.6,0.7,1,1.2,1.4c0.5,0.3,1.2,0.5,2,0.5c0.4,0,0.8-0.1,1.1-0.2
						c0.3-0.1,0.6-0.3,0.9-0.5c0.3-0.2,0.5-0.4,0.6-0.6c0.1-0.1,0.2-0.2,0.4-0.2c0.1,0,0.2,0,0.3,0.1c0.1,0.1,0.1,0.2,0.1,0.3
						c0,0.1-0.1,0.3-0.2,0.4c-0.4,0.4-0.8,0.8-1.4,1.1C327.9,62.9,327.3,63,326.6,63z"/>
					<path class="st7" d="M332.9,62.8c-0.2,0-0.3-0.1-0.4-0.2s-0.2-0.2-0.2-0.4v-8.1c0-0.1,0.1-0.3,0.2-0.4c0.1-0.1,0.2-0.2,0.4-0.2
						s0.3,0.1,0.4,0.2c0.1,0.1,0.2,0.2,0.2,0.4v2.7l-0.3,0.1c0-0.4,0.1-0.8,0.3-1.3s0.4-0.8,0.7-1.1c0.3-0.3,0.7-0.6,1.1-0.8
						c0.4-0.2,0.9-0.3,1.4-0.3c0.2,0,0.4,0,0.6,0.1c0.2,0.1,0.3,0.2,0.3,0.4c0,0.2,0,0.3-0.1,0.4s-0.2,0.1-0.3,0.1
						c-0.1,0-0.2,0-0.4-0.1c-0.1-0.1-0.3-0.1-0.5-0.1c-0.3,0-0.7,0.1-1,0.3c-0.3,0.2-0.6,0.5-0.9,0.8c-0.3,0.3-0.5,0.7-0.7,1.1
						s-0.2,0.8-0.2,1.3v4.4c0,0.1-0.1,0.3-0.2,0.4S333.1,62.8,332.9,62.8z"/>
					<path class="st7" d="M343.7,53.6c0.8,0,1.5,0.2,2.2,0.6c0.6,0.4,1.1,1,1.5,1.7c0.4,0.7,0.6,1.5,0.6,2.4s-0.2,1.7-0.6,2.4
						c-0.4,0.7-0.9,1.3-1.5,1.7c-0.6,0.4-1.3,0.6-2.1,0.6c-0.4,0-0.8-0.1-1.2-0.2c-0.4-0.1-0.7-0.3-1-0.5c-0.3-0.2-0.6-0.5-0.8-0.8
						c-0.2-0.3-0.4-0.6-0.6-0.9l0.3-0.3v5.6c0,0.1-0.1,0.3-0.2,0.4s-0.2,0.2-0.4,0.2s-0.3-0.1-0.4-0.2s-0.2-0.2-0.2-0.4V54.2
						c0-0.2,0.1-0.3,0.2-0.4c0.1-0.1,0.2-0.2,0.4-0.2c0.2,0,0.3,0.1,0.4,0.2s0.2,0.2,0.2,0.4v1.9l-0.3-0.1c0.1-0.4,0.3-0.7,0.5-1
						c0.2-0.3,0.5-0.5,0.8-0.8c0.3-0.2,0.7-0.4,1-0.5C342.9,53.6,343.3,53.6,343.7,53.6z M343.6,54.6c-0.6,0-1.2,0.2-1.7,0.5
						s-0.9,0.8-1.2,1.3c-0.3,0.5-0.4,1.2-0.4,1.9c0,0.7,0.1,1.3,0.4,1.9c0.3,0.6,0.7,1,1.2,1.3s1.1,0.5,1.7,0.5
						c0.6,0,1.2-0.2,1.7-0.5c0.5-0.3,0.9-0.8,1.2-1.3c0.3-0.6,0.4-1.2,0.4-1.9c0-0.7-0.1-1.3-0.4-1.9c-0.3-0.6-0.7-1-1.2-1.3
						C344.8,54.7,344.2,54.6,343.6,54.6z"/>
					<path class="st7" d="M358.6,58.2c0,0.9-0.2,1.7-0.6,2.5c-0.4,0.7-0.9,1.3-1.6,1.7c-0.7,0.4-1.5,0.6-2.3,0.6
						c-0.9,0-1.6-0.2-2.3-0.6c-0.7-0.4-1.2-1-1.6-1.7c-0.4-0.7-0.6-1.5-0.6-2.5c0-0.9,0.2-1.7,0.6-2.5c0.4-0.7,0.9-1.3,1.6-1.7
						c0.7-0.4,1.5-0.6,2.3-0.6c0.9,0,1.6,0.2,2.3,0.6c0.7,0.4,1.2,1,1.6,1.7C358.4,56.5,358.6,57.3,358.6,58.2z M357.5,58.2
						c0-0.7-0.2-1.4-0.4-2c-0.3-0.6-0.7-1-1.2-1.3c-0.5-0.3-1.1-0.5-1.8-0.5c-0.7,0-1.3,0.2-1.8,0.5s-0.9,0.8-1.2,1.3
						c-0.3,0.6-0.5,1.2-0.5,2c0,0.7,0.2,1.4,0.5,1.9s0.7,1,1.2,1.3s1.1,0.5,1.8,0.5c0.7,0,1.2-0.2,1.8-0.5c0.5-0.3,0.9-0.8,1.2-1.3
						C357.3,59.6,357.5,59,357.5,58.2z"/>
					<path class="st7" d="M360.8,62.8c-0.2,0-0.4-0.1-0.5-0.2c-0.1-0.1-0.2-0.3-0.2-0.5v-0.4c0-0.2,0.1-0.4,0.2-0.5
						c0.1-0.1,0.3-0.2,0.5-0.2h0.1c0.2,0,0.4,0.1,0.5,0.2c0.1,0.1,0.2,0.3,0.2,0.5v0.4c0,0.2-0.1,0.4-0.2,0.5
						c-0.1,0.1-0.3,0.2-0.5,0.2H360.8z"/>
				</g>
			</g>
		</g>
	</g>
</g>
</svg>
