<?xml version="1.0" encoding="utf-8"?>
<!-- Generator: Adobe Illustrator 22.0.1, SVG Export Plug-In . SVG Version: 6.00 Build 0)  -->
<svg version="1.1" id="Layer_1" xmlns="http://www.w3.org/2000/svg" xmlns:xlink="http://www.w3.org/1999/xlink" x="0px" y="0px"
	 viewBox="0 0 501.4 83.1" style="enable-background:new 0 0 501.4 83.1;" xml:space="preserve">
<style type="text/css">
	.st0{opacity:0.27;}
	.st1{fill:#002451;}
	.st2{fill:#FFF2CC;}
	.st3{fill:none;}
	.st4{fill:#29ABE2;}
	.st5{opacity:0.2;}
	.st6{fill:#FFFFFF;}
	.st7{fill:#4D4D4D;}
</style>
<title>lab03-bxB4</title>
<g>
	<g id="Layer_2_1_">
		<g id="Layer_1-2">
			<g class="st0">
				<path class="st1" d="M14.4,2.8h475.5c6.3,0,11.4,5.1,11.4,11.4v57.4c0,6.3-5.1,11.4-11.4,11.4H14.4C8.1,83.1,3,78,3,71.7V14.3
					C3,8,8.1,2.8,14.4,2.8z"/>
			</g>
			<path class="st2" d="M11.4,0H487c6.3,0,11.4,5.1,11.4,11.4v57.4c0,6.3-5.1,11.4-11.4,11.4H11.4C5.1,80.3,0,75.2,0,68.8V11.4
				C0,5.1,5.1,0,11.4,0z"/>
			<path class="st3" d="M471.5,78.4v-15c0.1-4.6,3.9-8.3,8.5-8.2h15.7c0.9,0,1.8,0.1,2.7,0.4V11.2C498.2,4.9,493-0.1,486.7,0h-475
				C5.4-0.1,0.1,4.9,0,11.2c0,0,0,0,0,0v57.9c0.1,6.3,5.4,11.3,11.7,11.2h460C471.6,79.7,471.5,79,471.5,78.4z"/>
			<path class="st4" d="M487.2,55.1c-8.7,0-15.7,6.7-15.7,15v8.2c0,0.7,0.1,1.3,0.2,1.9h15c6.3,0.1,11.6-4.9,11.7-11.2V55.6
				c-0.9-0.3-1.8-0.4-2.7-0.4L487.2,55.1z"/>
			<g class="st5">
				<rect x="485.2" y="63.6" width="1.4" height="10.2"/>
				<polygon points="485.9,59.7 483.1,64.3 488.6,64.3 				"/>
				<polygon points="485.9,77.7 488.7,73.1 483.2,73.1 				"/>
				<rect x="480.6" y="68.1" width="10.7" height="1.3"/>
				<polygon points="476.5,68.7 481.3,71.3 481.3,66.1 				"/>
				<polygon points="495.3,68.7 490.5,66 490.5,71.3 				"/>
			</g>
			<rect x="484.3" y="62.6" class="st6" width="1.4" height="10.2"/>
			<polygon class="st6" points="484.9,58.8 482.2,63.3 487.7,63.3 			"/>
			<polygon class="st6" points="485,76.7 487.7,72.1 482.2,72.1 			"/>
			<rect x="479.6" y="67.1" class="st6" width="10.7" height="1.3"/>
			<polygon class="st6" points="475.6,67.7 480.4,70.4 480.4,65.1 			"/>
			<polygon class="st6" points="494.3,67.7 489.5,65.1 489.5,70.3 			"/>
			<g>
				<g>
					<path class="st7" d="M16.8,11.7h6.6c0.2,0,0.3,0.1,0.4,0.2c0.1,0.1,0.2,0.2,0.2,0.4c0,0.2-0.1,0.3-0.2,0.4
						c-0.1,0.1-0.2,0.1-0.4,0.1h-6.2l0.2-0.3v5.1l-0.2-0.2h5.4c0.2,0,0.3,0.1,0.4,0.2c0.1,0.1,0.2,0.2,0.2,0.4
						c0,0.2-0.1,0.3-0.2,0.4c-0.1,0.1-0.2,0.1-0.4,0.1h-5.3l0.2-0.2v5.2l-0.1-0.1h6.1c0.2,0,0.3,0.1,0.4,0.2
						c0.1,0.1,0.2,0.2,0.2,0.4c0,0.2-0.1,0.3-0.2,0.4c-0.1,0.1-0.2,0.1-0.4,0.1h-6.6c-0.2,0-0.3-0.1-0.4-0.2
						c-0.1-0.1-0.2-0.2-0.2-0.4V12.2c0-0.1,0.1-0.3,0.2-0.4C16.5,11.8,16.7,11.7,16.8,11.7z"/>
					<path class="st7" d="M30.2,14.9c0.8,0,1.4,0.2,1.9,0.5c0.5,0.3,0.8,0.8,1,1.3s0.3,1.1,0.3,1.8v5.3c0,0.1-0.1,0.3-0.2,0.4
						c-0.1,0.1-0.2,0.2-0.4,0.2c-0.2,0-0.3-0.1-0.4-0.2c-0.1-0.1-0.2-0.2-0.2-0.4v-5.2c0-0.5-0.1-0.9-0.2-1.3
						c-0.2-0.4-0.4-0.7-0.8-0.9C31,16,30.5,15.9,30,15.9c-0.5,0-1,0.1-1.5,0.4s-0.8,0.5-1.1,0.9c-0.3,0.4-0.4,0.8-0.4,1.3v5.2
						c0,0.1-0.1,0.3-0.2,0.4c-0.1,0.1-0.2,0.2-0.4,0.2c-0.2,0-0.3-0.1-0.4-0.2c-0.1-0.1-0.2-0.2-0.2-0.4v-8.1c0-0.1,0.1-0.3,0.2-0.4
						c0.1-0.1,0.2-0.2,0.4-0.2s0.3,0.1,0.4,0.2c0.1,0.1,0.2,0.2,0.2,0.4v1.5l-0.4,0.6c0-0.4,0.1-0.8,0.4-1.1c0.2-0.4,0.5-0.7,0.9-1
						c0.3-0.3,0.7-0.5,1.2-0.7S29.8,14.9,30.2,14.9z"/>
					<path class="st7" d="M45.3,24.5c-0.9,0-1.8-0.2-2.5-0.6c-0.7-0.4-1.3-0.9-1.6-1.7c-0.4-0.7-0.6-1.5-0.6-2.5
						c0-1,0.2-1.9,0.6-2.6c0.4-0.7,0.9-1.3,1.6-1.7c0.6-0.4,1.3-0.6,2-0.6c0.5,0,1,0.1,1.5,0.3c0.5,0.2,0.9,0.5,1.3,0.8
						s0.7,0.8,0.9,1.3c0.2,0.5,0.4,1.1,0.4,1.8c0,0.1-0.1,0.3-0.2,0.4c-0.1,0.1-0.2,0.2-0.4,0.2h-7.2l-0.2-1h7.1l-0.2,0.2v-0.4
						c0-0.6-0.2-1-0.5-1.4c-0.3-0.4-0.7-0.7-1.1-0.9c-0.4-0.2-0.9-0.3-1.4-0.3c-0.4,0-0.7,0.1-1.1,0.2c-0.4,0.1-0.7,0.4-1,0.7
						c-0.3,0.3-0.6,0.7-0.7,1.2c-0.2,0.5-0.3,1-0.3,1.7c0,0.7,0.1,1.3,0.4,1.9s0.7,1,1.2,1.4s1.2,0.5,2,0.5c0.4,0,0.8-0.1,1.1-0.2
						c0.3-0.1,0.6-0.3,0.9-0.5c0.3-0.2,0.5-0.4,0.6-0.6c0.1-0.1,0.2-0.2,0.4-0.2s0.2,0,0.3,0.1c0.1,0.1,0.1,0.2,0.1,0.3
						c0,0.1-0.1,0.3-0.2,0.4c-0.4,0.4-0.8,0.8-1.4,1.1C46.6,24.3,46,24.5,45.3,24.5z"/>
					<path class="st7" d="M52.2,23.8c0,0.1-0.1,0.3-0.2,0.4c-0.1,0.1-0.2,0.2-0.4,0.2c-0.2,0-0.3-0.1-0.4-0.2
						c-0.1-0.1-0.2-0.2-0.2-0.4V11.5c0-0.1,0.1-0.3,0.2-0.4c0.1-0.1,0.2-0.2,0.4-0.2c0.2,0,0.3,0.1,0.4,0.2c0.1,0.1,0.2,0.2,0.2,0.4
						V23.8z"/>
					<path class="st7" d="M64.3,24.5c-1,0-1.9-0.2-2.7-0.6s-1.3-1-1.7-1.7c-0.4-0.7-0.6-1.6-0.6-2.5c0-1.1,0.2-2,0.7-2.8
						c0.4-0.8,1-1.3,1.7-1.8c0.7-0.4,1.5-0.6,2.2-0.6c0.6,0,1.2,0.1,1.7,0.4s1,0.6,1.4,1c0.4,0.4,0.8,0.9,1,1.5
						c0.2,0.6,0.4,1.2,0.4,1.8c0,0.3-0.1,0.5-0.3,0.7s-0.5,0.3-0.8,0.3h-6.9L60,18.4h6.6l-0.4,0.4v-0.5c0-0.3-0.1-0.7-0.4-0.9
						c-0.2-0.3-0.5-0.5-0.8-0.7s-0.7-0.2-1.1-0.2c-0.4,0-0.7,0-1,0.1c-0.3,0.1-0.6,0.3-0.8,0.5c-0.2,0.2-0.4,0.5-0.5,0.9
						c-0.1,0.4-0.2,0.9-0.2,1.5c0,0.6,0.1,1.2,0.4,1.6c0.3,0.5,0.6,0.8,1,1c0.4,0.2,0.9,0.4,1.4,0.4c0.4,0,0.8,0,1.1-0.1
						c0.3-0.1,0.5-0.2,0.6-0.3s0.3-0.2,0.4-0.3c0.2-0.1,0.4-0.2,0.6-0.2c0.3,0,0.5,0.1,0.7,0.3c0.2,0.2,0.3,0.4,0.3,0.6
						c0,0.3-0.2,0.6-0.5,0.9C67,23.8,66.6,24,66,24.2C65.5,24.4,64.9,24.5,64.3,24.5z"/>
					<path class="st7" d="M69.6,22.8c-0.1-0.2-0.2-0.4-0.2-0.6c0-0.3,0.2-0.5,0.5-0.7c0.2-0.1,0.4-0.2,0.6-0.2
						c0.2,0,0.4,0.1,0.6,0.3c0.3,0.3,0.7,0.6,1.1,0.8c0.4,0.2,0.9,0.3,1.4,0.3c0.2,0,0.4,0,0.6-0.1s0.4-0.1,0.6-0.3s0.2-0.4,0.2-0.7
						c0-0.3-0.1-0.5-0.3-0.6c-0.2-0.2-0.4-0.3-0.7-0.4c-0.3-0.1-0.6-0.2-1-0.3c-0.4-0.1-0.8-0.2-1.1-0.4c-0.4-0.1-0.7-0.3-1.1-0.5
						c-0.3-0.2-0.6-0.5-0.8-0.8c-0.2-0.3-0.3-0.8-0.3-1.3c0-0.6,0.2-1.1,0.5-1.5s0.8-0.7,1.3-1c0.5-0.2,1.1-0.3,1.7-0.3
						c0.4,0,0.8,0,1.2,0.1c0.4,0.1,0.8,0.2,1.2,0.4s0.7,0.5,0.9,0.8c0.1,0.2,0.2,0.4,0.2,0.6c0,0.3-0.1,0.5-0.3,0.7
						c-0.2,0.1-0.4,0.2-0.6,0.2c-0.2,0-0.4-0.1-0.6-0.2c-0.2-0.3-0.5-0.5-0.8-0.6c-0.3-0.2-0.7-0.2-1.2-0.2c-0.2,0-0.4,0-0.6,0.1
						c-0.2,0-0.4,0.1-0.5,0.3s-0.2,0.4-0.2,0.7c0,0.3,0.1,0.5,0.3,0.7c0.2,0.2,0.4,0.3,0.7,0.4c0.3,0.1,0.6,0.2,1,0.3
						c0.4,0.1,0.7,0.2,1.1,0.3c0.4,0.1,0.7,0.3,1,0.5c0.3,0.2,0.6,0.5,0.8,0.8s0.3,0.8,0.3,1.3c0,0.6-0.2,1.1-0.5,1.6
						c-0.4,0.4-0.8,0.8-1.3,1c-0.5,0.2-1.1,0.3-1.7,0.3c-0.7,0-1.4-0.1-2.1-0.4C70.7,23.9,70.1,23.4,69.6,22.8z"/>
					<path class="st7" d="M79,14.8h4.3c0.3,0,0.5,0.1,0.7,0.3c0.2,0.2,0.3,0.4,0.3,0.7c0,0.3-0.1,0.5-0.3,0.7
						c-0.2,0.2-0.4,0.3-0.7,0.3H79c-0.3,0-0.5-0.1-0.7-0.3c-0.2-0.2-0.3-0.4-0.3-0.7c0-0.3,0.1-0.5,0.3-0.7
						C78.4,14.9,78.7,14.8,79,14.8z M80.9,12.6c0.3,0,0.6,0.1,0.8,0.3c0.2,0.2,0.3,0.5,0.3,0.8v8c0,0.2,0,0.3,0.1,0.4
						c0.1,0.1,0.2,0.2,0.3,0.2c0.1,0,0.2,0.1,0.4,0.1c0.1,0,0.3,0,0.4-0.1c0.1-0.1,0.3-0.1,0.4-0.1c0.2,0,0.3,0.1,0.5,0.2
						c0.1,0.2,0.2,0.4,0.2,0.6c0,0.3-0.2,0.6-0.5,0.8s-0.8,0.3-1.2,0.3c-0.3,0-0.5,0-0.8-0.1c-0.3,0-0.6-0.1-0.9-0.3
						c-0.3-0.2-0.5-0.4-0.7-0.7s-0.3-0.8-0.3-1.4v-8.1c0-0.3,0.1-0.6,0.3-0.8S80.6,12.6,80.9,12.6z"/>
					<path class="st7" d="M94.8,19.5c0,1-0.2,1.9-0.7,2.6c-0.4,0.8-1,1.3-1.8,1.8s-1.6,0.6-2.5,0.6c-0.9,0-1.7-0.2-2.5-0.6
						c-0.7-0.4-1.3-1-1.8-1.8c-0.4-0.8-0.7-1.6-0.7-2.6c0-1,0.2-1.9,0.7-2.6c0.4-0.8,1-1.3,1.8-1.8c0.7-0.4,1.6-0.6,2.5-0.6
						c0.9,0,1.7,0.2,2.5,0.6s1.3,1,1.8,1.8C94.6,17.6,94.8,18.5,94.8,19.5z M92.7,19.5c0-0.6-0.1-1.1-0.4-1.6
						c-0.2-0.4-0.6-0.8-1-1.1s-0.9-0.4-1.4-0.4s-1,0.1-1.4,0.4s-0.7,0.6-1,1.1c-0.2,0.5-0.4,1-0.4,1.6c0,0.6,0.1,1.1,0.4,1.6
						c0.2,0.5,0.6,0.8,1,1.1s0.9,0.4,1.4,0.4s1-0.1,1.4-0.4s0.7-0.6,1-1.1C92.6,20.6,92.7,20.1,92.7,19.5z M90,14.1
						c-0.1,0-0.2-0.1-0.4-0.2c-0.2-0.1-0.2-0.2-0.2-0.4c0-0.1,0-0.2,0.1-0.3l1-1.8c0.1-0.2,0.2-0.4,0.4-0.5c0.2-0.1,0.4-0.2,0.6-0.2
						c0.3,0,0.6,0.1,0.7,0.3s0.2,0.4,0.2,0.6c0,0.1,0,0.2-0.1,0.4s-0.1,0.3-0.2,0.4l-1.4,1.5c-0.1,0.1-0.3,0.2-0.4,0.3
						C90.3,14,90.2,14.1,90,14.1z"/>
					<path class="st7" d="M101.6,14.5c1,0,1.7,0.2,2.1,0.7s0.8,1.1,0.9,1.8l-0.3-0.2l0.1-0.3c0.1-0.3,0.4-0.6,0.7-0.9
						c0.3-0.3,0.7-0.6,1.1-0.8c0.4-0.2,0.9-0.3,1.4-0.3c0.9,0,1.5,0.2,2,0.6s0.8,0.9,0.9,1.5s0.3,1.3,0.3,2.1v4.6
						c0,0.3-0.1,0.6-0.3,0.8c-0.2,0.2-0.5,0.3-0.8,0.3c-0.3,0-0.6-0.1-0.8-0.3c-0.2-0.2-0.3-0.5-0.3-0.8v-4.6c0-0.4,0-0.8-0.1-1.1
						c-0.1-0.3-0.3-0.6-0.5-0.8c-0.3-0.2-0.6-0.3-1.1-0.3c-0.5,0-0.8,0.1-1.2,0.3c-0.3,0.2-0.6,0.4-0.7,0.8
						c-0.2,0.3-0.2,0.7-0.2,1.1v4.6c0,0.3-0.1,0.6-0.3,0.8c-0.2,0.2-0.5,0.3-0.8,0.3s-0.6-0.1-0.8-0.3c-0.2-0.2-0.3-0.5-0.3-0.8
						v-4.6c0-0.4,0-0.8-0.1-1.1c-0.1-0.3-0.3-0.6-0.5-0.8c-0.3-0.2-0.6-0.3-1.1-0.3c-0.5,0-0.8,0.1-1.2,0.3
						c-0.3,0.2-0.6,0.4-0.7,0.8c-0.2,0.3-0.2,0.7-0.2,1.1v4.6c0,0.3-0.1,0.6-0.3,0.8c-0.2,0.2-0.5,0.3-0.8,0.3
						c-0.3,0-0.6-0.1-0.8-0.3c-0.2-0.2-0.3-0.5-0.3-0.8v-7.4c0-0.3,0.1-0.6,0.3-0.8c0.2-0.2,0.5-0.3,0.8-0.3c0.3,0,0.6,0.1,0.8,0.3
						c0.2,0.2,0.3,0.5,0.3,0.8v0.8l-0.3-0.1c0.1-0.2,0.3-0.4,0.5-0.7c0.2-0.2,0.4-0.5,0.7-0.7s0.6-0.4,0.9-0.5
						S101.2,14.5,101.6,14.5z"/>
					<path class="st7" d="M120.8,14.5c0.3,0,0.6,0.1,0.8,0.3s0.3,0.5,0.3,0.8v7.6c0,0.3-0.1,0.6-0.3,0.8c-0.2,0.2-0.5,0.3-0.8,0.3
						s-0.6-0.1-0.8-0.3c-0.2-0.2-0.3-0.5-0.3-0.8v-0.9l0.4,0.2c0,0.2-0.1,0.3-0.3,0.6c-0.2,0.2-0.4,0.4-0.7,0.7s-0.6,0.4-1,0.5
						c-0.4,0.1-0.8,0.2-1.3,0.2c-0.8,0-1.6-0.2-2.2-0.6s-1.2-1-1.6-1.8s-0.6-1.6-0.6-2.6c0-1,0.2-1.9,0.6-2.6s0.9-1.3,1.6-1.8
						s1.4-0.6,2.2-0.6c0.5,0,1,0.1,1.4,0.2c0.4,0.2,0.8,0.4,1.1,0.6c0.3,0.2,0.6,0.5,0.7,0.7c0.2,0.2,0.3,0.5,0.3,0.6l-0.6,0.2v-1.3
						c0-0.3,0.1-0.6,0.3-0.8C120.2,14.6,120.4,14.5,120.8,14.5z M117.1,22.5c0.5,0,1-0.1,1.4-0.4c0.4-0.3,0.7-0.6,0.9-1.1
						c0.2-0.5,0.3-1,0.3-1.5c0-0.6-0.1-1.1-0.3-1.5c-0.2-0.5-0.5-0.8-0.9-1.1c-0.4-0.3-0.9-0.4-1.4-0.4c-0.5,0-1,0.1-1.4,0.4
						c-0.4,0.3-0.7,0.6-0.9,1.1c-0.2,0.5-0.3,1-0.3,1.5c0,0.6,0.1,1.1,0.3,1.5c0.2,0.5,0.5,0.8,0.9,1.1
						C116.2,22.4,116.6,22.5,117.1,22.5z"/>
					<path class="st7" d="M128,14.5c0.5,0,1,0.1,1.4,0.2c0.4,0.2,0.8,0.4,1.1,0.6c0.3,0.2,0.5,0.5,0.7,0.7c0.2,0.2,0.3,0.5,0.3,0.6
						l-0.5,0.2v-1.3c0-0.3,0.1-0.6,0.3-0.8s0.5-0.3,0.8-0.3c0.3,0,0.6,0.1,0.8,0.3s0.3,0.5,0.3,0.8v8c0,1-0.2,1.9-0.7,2.5
						c-0.5,0.6-1,1.1-1.8,1.4c-0.7,0.3-1.5,0.4-2.4,0.4c-0.2,0-0.6,0-0.9-0.1c-0.4-0.1-0.8-0.1-1.1-0.2s-0.6-0.2-0.8-0.2
						c-0.4-0.2-0.6-0.4-0.7-0.6c-0.1-0.2-0.2-0.5-0.1-0.7c0.1-0.3,0.3-0.6,0.5-0.7s0.5-0.1,0.8,0c0.1,0,0.3,0.1,0.6,0.2
						c0.3,0.1,0.6,0.2,0.9,0.3c0.3,0.1,0.6,0.1,0.9,0.1c0.9,0,1.6-0.2,2-0.5s0.6-0.9,0.6-1.5v-1.6l0.2,0.2c0,0.2-0.1,0.3-0.2,0.6
						s-0.4,0.4-0.7,0.7c-0.3,0.2-0.6,0.4-1,0.5c-0.4,0.1-0.8,0.2-1.2,0.2c-0.9,0-1.6-0.2-2.3-0.6c-0.7-0.4-1.2-1-1.6-1.8
						c-0.4-0.8-0.6-1.6-0.6-2.6c0-1,0.2-1.9,0.6-2.6c0.4-0.8,0.9-1.3,1.6-1.8S127.1,14.5,128,14.5z M128.3,16.5
						c-0.5,0-1,0.1-1.4,0.4c-0.4,0.3-0.7,0.6-1,1.1c-0.2,0.5-0.3,1-0.3,1.5c0,0.6,0.1,1.1,0.3,1.5c0.2,0.5,0.5,0.8,1,1.1
						c0.4,0.3,0.9,0.4,1.4,0.4c0.6,0,1-0.1,1.4-0.4c0.4-0.3,0.7-0.6,1-1.1c0.2-0.5,0.3-1,0.3-1.5c0-0.6-0.1-1.1-0.3-1.5
						c-0.2-0.5-0.5-0.8-1-1.1C129.4,16.6,128.9,16.5,128.3,16.5z"/>
					<path class="st7" d="M144.6,19.5c0,1-0.2,1.9-0.7,2.6c-0.4,0.8-1,1.3-1.8,1.8s-1.6,0.6-2.5,0.6c-0.9,0-1.7-0.2-2.5-0.6
						c-0.7-0.4-1.3-1-1.8-1.8c-0.4-0.8-0.7-1.6-0.7-2.6c0-1,0.2-1.9,0.7-2.6c0.4-0.8,1-1.3,1.8-1.8c0.7-0.4,1.6-0.6,2.5-0.6
						c0.9,0,1.7,0.2,2.5,0.6s1.3,1,1.8,1.8C144.4,17.6,144.6,18.5,144.6,19.5z M142.4,19.5c0-0.6-0.1-1.1-0.4-1.6
						c-0.2-0.4-0.6-0.8-1-1.1s-0.9-0.4-1.4-0.4s-1,0.1-1.4,0.4s-0.7,0.6-1,1.1c-0.2,0.5-0.4,1-0.4,1.6c0,0.6,0.1,1.1,0.4,1.6
						c0.2,0.5,0.6,0.8,1,1.1s0.9,0.4,1.4,0.4s1-0.1,1.4-0.4s0.7-0.6,1-1.1C142.3,20.6,142.4,20.1,142.4,19.5z"/>
					<path class="st7" d="M155.8,24.5c-0.9,0-1.8-0.2-2.5-0.6c-0.7-0.4-1.3-0.9-1.6-1.7c-0.4-0.7-0.6-1.5-0.6-2.5
						c0-1,0.2-1.9,0.6-2.6c0.4-0.7,0.9-1.3,1.6-1.7c0.6-0.4,1.3-0.6,2-0.6c0.5,0,1,0.1,1.5,0.3c0.5,0.2,0.9,0.5,1.3,0.8
						s0.7,0.8,0.9,1.3c0.2,0.5,0.4,1.1,0.4,1.8c0,0.1-0.1,0.3-0.2,0.4c-0.1,0.1-0.2,0.2-0.4,0.2h-7.2l-0.2-1h7.1l-0.2,0.2v-0.4
						c0-0.6-0.2-1-0.5-1.4c-0.3-0.4-0.7-0.7-1.1-0.9c-0.4-0.2-0.9-0.3-1.4-0.3c-0.4,0-0.7,0.1-1.1,0.2c-0.4,0.1-0.7,0.4-1,0.7
						c-0.3,0.3-0.6,0.7-0.7,1.2c-0.2,0.5-0.3,1-0.3,1.7c0,0.7,0.1,1.3,0.4,1.9s0.7,1,1.2,1.4s1.2,0.5,2,0.5c0.4,0,0.8-0.1,1.1-0.2
						c0.3-0.1,0.6-0.3,0.9-0.5c0.3-0.2,0.5-0.4,0.6-0.6c0.1-0.1,0.2-0.2,0.4-0.2s0.2,0,0.3,0.1c0.1,0.1,0.1,0.2,0.1,0.3
						c0,0.1-0.1,0.3-0.2,0.4c-0.4,0.4-0.8,0.8-1.4,1.1C157.1,24.3,156.4,24.5,155.8,24.5z"/>
					<path class="st7" d="M162.7,23.8c0,0.1-0.1,0.3-0.2,0.4c-0.1,0.1-0.2,0.2-0.4,0.2c-0.2,0-0.3-0.1-0.4-0.2
						c-0.1-0.1-0.2-0.2-0.2-0.4V11.5c0-0.1,0.1-0.3,0.2-0.4c0.1-0.1,0.2-0.2,0.4-0.2c0.2,0,0.3,0.1,0.4,0.2c0.1,0.1,0.2,0.2,0.2,0.4
						V23.8z"/>
					<path class="st7" d="M171.9,25.1c0,0.6-0.1,1.1-0.4,1.5c-0.3,0.4-0.6,0.7-1,0.9c-0.4,0.2-0.8,0.3-1.2,0.3c-0.2,0-0.3,0-0.4-0.1
						c-0.1-0.1-0.1-0.2-0.1-0.3v-0.1c0-0.1,0-0.3,0.1-0.3c0.1-0.1,0.2-0.1,0.3-0.2c0.3-0.1,0.5-0.2,0.8-0.3c0.2-0.1,0.4-0.3,0.6-0.6
						c0.1-0.3,0.2-0.6,0.2-0.9v-9.3c0-0.2,0.1-0.3,0.2-0.4c0.1-0.1,0.2-0.2,0.4-0.2c0.2,0,0.3,0.1,0.4,0.2c0.1,0.1,0.2,0.2,0.2,0.4
						V25.1z M171.4,13.7c-0.3,0-0.4-0.1-0.6-0.2s-0.2-0.3-0.2-0.5v-0.2c0-0.2,0.1-0.4,0.2-0.5c0.1-0.1,0.3-0.2,0.6-0.2
						c0.2,0,0.4,0.1,0.5,0.2s0.2,0.3,0.2,0.5V13c0,0.2-0.1,0.4-0.2,0.5S171.6,13.7,171.4,13.7z"/>
					<path class="st7" d="M181.6,15.2c0.2,0,0.3,0.1,0.4,0.2c0.1,0.1,0.2,0.2,0.2,0.4v5.1c0,1.2-0.3,2.1-1,2.7s-1.6,0.9-2.7,0.9
						c-1.1,0-2-0.3-2.7-0.9s-1-1.5-1-2.7v-5.1c0-0.1,0.1-0.3,0.2-0.4c0.1-0.1,0.2-0.2,0.4-0.2s0.3,0.1,0.4,0.2
						c0.1,0.1,0.2,0.2,0.2,0.4v5.1c0,0.9,0.2,1.5,0.7,2c0.5,0.4,1.1,0.7,1.9,0.7c0.8,0,1.5-0.2,1.9-0.7c0.5-0.5,0.7-1.1,0.7-2v-5.1
						c0-0.1,0.1-0.3,0.2-0.4C181.3,15.2,181.5,15.2,181.6,15.2z"/>
					<path class="st7" d="M188.6,14.9c0.5,0,1,0.1,1.5,0.3c0.5,0.2,0.9,0.4,1.2,0.7c0.3,0.3,0.6,0.6,0.8,0.9
						c0.2,0.3,0.3,0.6,0.3,0.9l-0.3-0.4v-1.7c0-0.2,0.1-0.3,0.2-0.4c0.1-0.1,0.2-0.2,0.4-0.2c0.2,0,0.3,0.1,0.4,0.2
						c0.1,0.1,0.2,0.2,0.2,0.4v7.8c0,0.9-0.2,1.8-0.6,2.4c-0.4,0.7-0.9,1.2-1.6,1.5c-0.7,0.3-1.4,0.5-2.3,0.5
						c-0.4,0-0.9-0.1-1.3-0.2c-0.5-0.1-0.9-0.2-1.2-0.4c-0.3-0.2-0.5-0.3-0.6-0.5c-0.1-0.1-0.1-0.2-0.1-0.3c0-0.1,0.1-0.2,0.1-0.3
						c0.1-0.1,0.2-0.1,0.4,0c0.1,0.1,0.3,0.2,0.6,0.3c0.1,0,0.3,0.1,0.5,0.2c0.2,0.1,0.5,0.1,0.7,0.2c0.3,0.1,0.6,0.1,0.9,0.1
						c1.1,0,1.9-0.3,2.5-0.9s0.9-1.4,0.9-2.4v-1.7l0.2,0.1c-0.1,0.4-0.3,0.8-0.5,1.1c-0.2,0.3-0.5,0.6-0.9,0.8
						c-0.3,0.2-0.7,0.4-1.1,0.5c-0.4,0.1-0.8,0.2-1.2,0.2c-0.8,0-1.6-0.2-2.2-0.6c-0.7-0.4-1.2-1-1.6-1.7s-0.6-1.5-0.6-2.5
						c0-0.9,0.2-1.7,0.6-2.5c0.4-0.7,0.9-1.3,1.6-1.7C187,15.1,187.8,14.9,188.6,14.9z M188.7,15.9c-0.6,0-1.2,0.2-1.8,0.5
						c-0.5,0.3-0.9,0.8-1.2,1.3c-0.3,0.6-0.4,1.2-0.4,1.9s0.1,1.4,0.4,1.9c0.3,0.6,0.7,1,1.2,1.4c0.5,0.3,1.1,0.5,1.8,0.5
						c0.7,0,1.2-0.2,1.8-0.5c0.5-0.3,0.9-0.8,1.2-1.3c0.3-0.6,0.5-1.2,0.5-2s-0.2-1.4-0.5-2c-0.3-0.6-0.7-1-1.2-1.3
						C189.9,16.1,189.4,15.9,188.7,15.9z"/>
					<path class="st7" d="M204.3,19.7c0,0.9-0.2,1.7-0.6,2.5c-0.4,0.7-0.9,1.3-1.6,1.7c-0.7,0.4-1.5,0.6-2.3,0.6
						c-0.9,0-1.6-0.2-2.3-0.6s-1.2-1-1.6-1.7c-0.4-0.7-0.6-1.5-0.6-2.5c0-0.9,0.2-1.7,0.6-2.5c0.4-0.7,0.9-1.3,1.6-1.7
						s1.5-0.6,2.3-0.6c0.9,0,1.6,0.2,2.3,0.6c0.7,0.4,1.2,1,1.6,1.7C204.1,17.9,204.3,18.8,204.3,19.7z M203.2,19.7
						c0-0.7-0.2-1.4-0.5-2c-0.3-0.6-0.7-1-1.2-1.3c-0.5-0.3-1.1-0.5-1.8-0.5c-0.7,0-1.3,0.2-1.8,0.5c-0.5,0.3-0.9,0.8-1.2,1.3
						c-0.3,0.6-0.5,1.2-0.5,2c0,0.7,0.2,1.4,0.5,1.9c0.3,0.6,0.7,1,1.2,1.3c0.5,0.3,1.1,0.5,1.8,0.5c0.7,0,1.3-0.2,1.8-0.5
						c0.5-0.3,0.9-0.8,1.2-1.3C203.1,21.1,203.2,20.4,203.2,19.7z"/>
					<path class="st7" d="M215.2,14.9c0.5,0,1,0.1,1.5,0.3c0.5,0.2,0.9,0.4,1.2,0.7c0.3,0.3,0.6,0.6,0.8,0.9
						c0.2,0.3,0.3,0.6,0.3,0.9l-0.3-0.4v-1.7c0-0.2,0.1-0.3,0.2-0.4c0.1-0.1,0.2-0.2,0.4-0.2c0.2,0,0.3,0.1,0.4,0.2
						c0.1,0.1,0.2,0.2,0.2,0.4v7.8c0,0.9-0.2,1.8-0.6,2.4c-0.4,0.7-0.9,1.2-1.6,1.5c-0.7,0.3-1.4,0.5-2.3,0.5
						c-0.4,0-0.9-0.1-1.3-0.2c-0.5-0.1-0.9-0.2-1.2-0.4c-0.3-0.2-0.5-0.3-0.6-0.5c-0.1-0.1-0.1-0.2-0.1-0.3c0-0.1,0.1-0.2,0.1-0.3
						c0.1-0.1,0.2-0.1,0.4,0c0.1,0.1,0.3,0.2,0.6,0.3c0.1,0,0.3,0.1,0.5,0.2c0.2,0.1,0.5,0.1,0.7,0.2c0.3,0.1,0.6,0.1,0.9,0.1
						c1.1,0,1.9-0.3,2.5-0.9s0.9-1.4,0.9-2.4v-1.7l0.2,0.1c-0.1,0.4-0.3,0.8-0.5,1.1c-0.2,0.3-0.5,0.6-0.9,0.8
						c-0.3,0.2-0.7,0.4-1.1,0.5c-0.4,0.1-0.8,0.2-1.2,0.2c-0.8,0-1.6-0.2-2.2-0.6c-0.7-0.4-1.2-1-1.6-1.7s-0.6-1.5-0.6-2.5
						c0-0.9,0.2-1.7,0.6-2.5c0.4-0.7,0.9-1.3,1.6-1.7C213.7,15.1,214.4,14.9,215.2,14.9z M215.3,15.9c-0.6,0-1.2,0.2-1.8,0.5
						c-0.5,0.3-0.9,0.8-1.2,1.3c-0.3,0.6-0.4,1.2-0.4,1.9s0.1,1.4,0.4,1.9c0.3,0.6,0.7,1,1.2,1.4c0.5,0.3,1.1,0.5,1.8,0.5
						c0.7,0,1.2-0.2,1.8-0.5c0.5-0.3,0.9-0.8,1.2-1.3c0.3-0.6,0.5-1.2,0.5-2s-0.2-1.4-0.5-2c-0.3-0.6-0.7-1-1.2-1.3
						C216.6,16.1,216,15.9,215.3,15.9z"/>
					<path class="st7" d="M230,15.1c0.2,0,0.3,0.1,0.4,0.2c0.1,0.1,0.2,0.2,0.2,0.4v8.1c0,0.1-0.1,0.3-0.2,0.4
						c-0.1,0.1-0.2,0.2-0.4,0.2c-0.2,0-0.3-0.1-0.4-0.2c-0.1-0.1-0.2-0.2-0.2-0.4v-2.1l0.3-0.1c0,0.3-0.1,0.7-0.3,1
						c-0.2,0.4-0.4,0.7-0.8,1c-0.3,0.3-0.7,0.5-1.1,0.7c-0.4,0.2-0.9,0.3-1.4,0.3c-0.8,0-1.5-0.2-2.2-0.6c-0.6-0.4-1.1-1-1.5-1.7
						c-0.4-0.7-0.5-1.6-0.5-2.5c0-0.9,0.2-1.8,0.6-2.5s0.9-1.3,1.5-1.7s1.4-0.6,2.1-0.6c0.5,0,1,0.1,1.4,0.3
						c0.5,0.2,0.8,0.4,1.2,0.7c0.3,0.3,0.6,0.7,0.8,1.1c0.2,0.4,0.3,0.8,0.3,1.3l-0.4-0.3v-2.3c0-0.2,0.1-0.3,0.2-0.4
						C229.7,15.2,229.8,15.1,230,15.1z M226.3,23.5c0.6,0,1.2-0.2,1.7-0.5s0.9-0.8,1.2-1.4c0.3-0.6,0.4-1.2,0.4-2
						c0-0.7-0.1-1.3-0.4-1.9s-0.7-1-1.2-1.3s-1.1-0.5-1.7-0.5c-0.6,0-1.2,0.2-1.7,0.5c-0.5,0.3-0.9,0.8-1.2,1.3s-0.4,1.2-0.4,1.9
						c0,0.7,0.1,1.4,0.4,2c0.3,0.6,0.7,1,1.2,1.4C225,23.3,225.6,23.5,226.3,23.5z M226.1,14.4c-0.1,0-0.1,0-0.2-0.1
						c-0.1-0.1-0.1-0.1-0.1-0.2c0-0.1,0-0.2,0.1-0.3l1.1-1.7c0.1-0.1,0.1-0.2,0.2-0.3c0.1-0.1,0.2-0.1,0.4-0.1c0.2,0,0.3,0,0.5,0.1
						c0.1,0.1,0.2,0.2,0.1,0.4c0,0.1,0,0.2,0,0.2c0,0.1-0.1,0.1-0.1,0.2l-1.3,1.4c-0.1,0.1-0.2,0.2-0.3,0.2
						C226.3,14.4,226.2,14.4,226.1,14.4z"/>
					<path class="st7" d="M232.6,22.8c-0.1-0.1-0.1-0.3-0.1-0.4s0.1-0.2,0.2-0.3c0.1-0.1,0.2-0.1,0.3-0.1c0.1,0,0.2,0.1,0.4,0.2
						c0.3,0.4,0.7,0.8,1.2,1s1,0.4,1.6,0.4c0.3,0,0.7-0.1,1-0.2c0.3-0.1,0.6-0.3,0.8-0.5c0.2-0.2,0.3-0.5,0.3-0.9
						c0-0.4-0.1-0.7-0.3-0.9c-0.2-0.2-0.5-0.4-0.8-0.5c-0.3-0.1-0.7-0.3-1.1-0.4c-0.4-0.1-0.8-0.2-1.2-0.4s-0.7-0.3-1-0.5
						s-0.5-0.5-0.7-0.8s-0.3-0.7-0.3-1.1c0-0.5,0.1-0.9,0.4-1.3c0.3-0.4,0.6-0.7,1.1-0.9c0.5-0.2,1-0.3,1.6-0.3c0.3,0,0.6,0,1,0.1
						c0.3,0.1,0.7,0.2,1,0.4s0.6,0.4,0.9,0.7c0.1,0.1,0.2,0.2,0.2,0.4s-0.1,0.3-0.2,0.4c-0.1,0.1-0.2,0.1-0.3,0.1
						c-0.1,0-0.2-0.1-0.3-0.2c-0.3-0.3-0.6-0.6-1-0.7c-0.4-0.2-0.8-0.2-1.3-0.2c-0.3,0-0.7,0.1-1,0.2c-0.3,0.1-0.6,0.3-0.8,0.5
						c-0.2,0.2-0.3,0.5-0.3,0.9c0,0.3,0.1,0.6,0.4,0.8c0.2,0.2,0.5,0.4,0.9,0.5c0.4,0.1,0.8,0.3,1.2,0.4c0.4,0.1,0.8,0.2,1.1,0.3
						c0.4,0.1,0.7,0.3,0.9,0.5c0.3,0.2,0.5,0.4,0.6,0.7s0.2,0.7,0.2,1.1c0,0.5-0.1,1-0.4,1.4s-0.7,0.7-1.2,0.9
						c-0.5,0.2-1,0.3-1.6,0.3c-0.6,0-1.3-0.1-1.9-0.4C233.6,23.8,233.1,23.4,232.6,22.8z"/>
					<path class="st7" d="M241,15.1h4.2c0.1,0,0.3,0.1,0.4,0.2s0.1,0.2,0.1,0.4c0,0.1,0,0.3-0.1,0.4c-0.1,0.1-0.2,0.1-0.4,0.1H241
						c-0.1,0-0.3-0.1-0.4-0.2c-0.1-0.1-0.2-0.2-0.2-0.4c0-0.1,0.1-0.3,0.2-0.4C240.7,15.2,240.8,15.1,241,15.1z M242.8,12.6
						c0.2,0,0.3,0.1,0.4,0.2c0.1,0.1,0.2,0.2,0.2,0.4v9c0,0.3,0,0.6,0.1,0.8c0.1,0.2,0.2,0.3,0.4,0.3s0.3,0.1,0.4,0.1
						c0.1,0,0.2,0,0.3,0c0.1,0,0.2,0,0.3,0c0.1,0,0.2,0,0.3,0.1c0.1,0.1,0.1,0.2,0.1,0.3c0,0.2-0.1,0.3-0.3,0.4
						c-0.2,0.1-0.4,0.2-0.7,0.2c-0.1,0-0.3,0-0.5,0c-0.2,0-0.4-0.1-0.7-0.2c-0.2-0.1-0.4-0.3-0.6-0.6c-0.2-0.3-0.2-0.7-0.2-1.2v-9.1
						c0-0.1,0.1-0.3,0.2-0.4C242.5,12.6,242.6,12.6,242.8,12.6z"/>
					<path class="st7" d="M248,24.3c-0.2,0-0.3-0.1-0.4-0.2c-0.1-0.1-0.2-0.2-0.2-0.4v-8.1c0-0.1,0.1-0.3,0.2-0.4
						c0.1-0.1,0.2-0.2,0.4-0.2s0.3,0.1,0.4,0.2c0.1,0.1,0.2,0.2,0.2,0.4v2.7l-0.3,0.1c0-0.4,0.1-0.8,0.3-1.3s0.4-0.8,0.7-1.1
						c0.3-0.3,0.7-0.6,1.1-0.8s0.9-0.3,1.4-0.3c0.2,0,0.4,0,0.6,0.1c0.2,0.1,0.3,0.2,0.3,0.4c0,0.2,0,0.3-0.1,0.4
						c-0.1,0.1-0.2,0.1-0.3,0.1c-0.1,0-0.2,0-0.4-0.1c-0.1-0.1-0.3-0.1-0.5-0.1c-0.3,0-0.7,0.1-1,0.3s-0.6,0.5-0.9,0.8
						c-0.3,0.3-0.5,0.7-0.7,1.1s-0.2,0.8-0.2,1.3v4.4c0,0.1-0.1,0.3-0.2,0.4C248.3,24.2,248.2,24.3,248,24.3z"/>
					<path class="st7" d="M254.9,13.7c-0.3,0-0.4-0.1-0.6-0.2c-0.1-0.1-0.2-0.3-0.2-0.5v-0.2c0-0.2,0.1-0.4,0.2-0.5
						c0.1-0.1,0.3-0.2,0.6-0.2c0.2,0,0.4,0.1,0.5,0.2c0.1,0.1,0.2,0.3,0.2,0.5v0.2c0,0.2-0.1,0.4-0.2,0.5
						C255.3,13.7,255.1,13.7,254.9,13.7z M255.4,23.8c0,0.1-0.1,0.3-0.2,0.4c-0.1,0.1-0.2,0.2-0.4,0.2c-0.2,0-0.3-0.1-0.4-0.2
						c-0.1-0.1-0.1-0.2-0.1-0.4v-8.3c0-0.1,0.1-0.3,0.2-0.4c0.1-0.1,0.2-0.2,0.4-0.2s0.3,0.1,0.4,0.2c0.1,0.1,0.2,0.2,0.2,0.4V23.8z
						"/>
					<path class="st7" d="M262,14.9c0.6,0,1.1,0.1,1.6,0.2s0.9,0.3,1.2,0.5c0.3,0.2,0.4,0.5,0.4,0.7c0,0.1,0,0.2-0.1,0.4
						c-0.1,0.1-0.2,0.2-0.4,0.2c-0.1,0-0.3,0-0.3-0.1c-0.1-0.1-0.2-0.2-0.3-0.3s-0.2-0.2-0.4-0.3c-0.2-0.1-0.4-0.2-0.7-0.2
						c-0.3-0.1-0.6-0.1-1-0.1c-0.7,0-1.3,0.2-1.8,0.5c-0.5,0.3-1,0.8-1.3,1.3c-0.3,0.6-0.5,1.2-0.5,1.9c0,0.7,0.1,1.4,0.4,1.9
						c0.3,0.6,0.7,1,1.2,1.4c0.5,0.3,1.1,0.5,1.8,0.5c0.5,0,0.9,0,1.1-0.1c0.3-0.1,0.5-0.2,0.7-0.3c0.2-0.1,0.4-0.3,0.5-0.4
						s0.2-0.2,0.4-0.2c0.1,0,0.3,0,0.3,0.1c0.1,0.1,0.1,0.2,0.1,0.4c0,0.2-0.1,0.4-0.4,0.6c-0.3,0.2-0.7,0.4-1.2,0.6
						s-1.1,0.3-1.7,0.3c-0.9,0-1.7-0.2-2.3-0.6s-1.2-1-1.6-1.7c-0.4-0.7-0.6-1.5-0.6-2.5c0-0.9,0.2-1.7,0.6-2.4
						c0.4-0.7,0.9-1.3,1.6-1.7S261.1,14.9,262,14.9z"/>
					<path class="st7" d="M275.4,19.7c0,0.9-0.2,1.7-0.6,2.5c-0.4,0.7-0.9,1.3-1.6,1.7c-0.7,0.4-1.5,0.6-2.3,0.6
						c-0.9,0-1.6-0.2-2.3-0.6c-0.7-0.4-1.2-1-1.6-1.7c-0.4-0.7-0.6-1.5-0.6-2.5c0-0.9,0.2-1.7,0.6-2.5c0.4-0.7,0.9-1.3,1.6-1.7
						c0.7-0.4,1.5-0.6,2.3-0.6c0.9,0,1.6,0.2,2.3,0.6c0.7,0.4,1.2,1,1.6,1.7C275.2,17.9,275.4,18.8,275.4,19.7z M274.3,19.7
						c0-0.7-0.2-1.4-0.4-2c-0.3-0.6-0.7-1-1.2-1.3c-0.5-0.3-1.1-0.5-1.8-0.5c-0.7,0-1.3,0.2-1.8,0.5c-0.5,0.3-0.9,0.8-1.2,1.3
						c-0.3,0.6-0.5,1.2-0.5,2c0,0.7,0.2,1.4,0.5,1.9c0.3,0.6,0.7,1,1.2,1.3s1.1,0.5,1.8,0.5c0.7,0,1.2-0.2,1.8-0.5
						c0.5-0.3,0.9-0.8,1.2-1.3C274.2,21.1,274.3,20.4,274.3,19.7z"/>
					<path class="st7" d="M289.4,14.9c0.2,0,0.3,0.1,0.4,0.2c0.1,0.1,0.2,0.2,0.2,0.4v7.9c0,1-0.2,1.8-0.6,2.5
						c-0.4,0.7-0.9,1.2-1.5,1.5s-1.4,0.5-2.2,0.5c-0.5,0-1-0.1-1.4-0.2s-0.8-0.3-1.1-0.4c-0.1-0.1-0.3-0.2-0.3-0.3
						c-0.1-0.1-0.1-0.3,0-0.4c0.1-0.2,0.2-0.3,0.3-0.3c0.1-0.1,0.3-0.1,0.4,0c0.2,0.1,0.5,0.2,0.9,0.4s0.8,0.2,1.3,0.2
						c0.7,0,1.2-0.1,1.7-0.4c0.5-0.3,0.9-0.7,1.1-1.2c0.3-0.5,0.4-1.1,0.4-1.9v-1.3l0.1,0.5c-0.2,0.4-0.4,0.7-0.8,1
						s-0.7,0.5-1.1,0.7c-0.4,0.2-0.9,0.2-1.3,0.2c-0.7,0-1.3-0.1-1.8-0.4s-0.8-0.7-1.1-1.2c-0.2-0.5-0.3-1.1-0.3-1.8v-5.5
						c0-0.1,0.1-0.3,0.2-0.4c0.1-0.1,0.2-0.2,0.4-0.2c0.2,0,0.3,0.1,0.4,0.2c0.1,0.1,0.2,0.2,0.2,0.4v5.4c0,0.8,0.2,1.5,0.5,1.9
						c0.4,0.5,1,0.7,1.8,0.7c0.5,0,1-0.1,1.4-0.4c0.4-0.2,0.8-0.6,1.1-1c0.3-0.4,0.4-0.8,0.4-1.3v-5.4c0-0.1,0-0.3,0.1-0.4
						C289.1,15,289.3,14.9,289.4,14.9z"/>
					<path class="st7" d="M304.6,15.2c0.2,0,0.3,0.1,0.4,0.2c0.1,0.1,0.2,0.2,0.2,0.4v5.1c0,1.2-0.3,2.1-1,2.7s-1.6,0.9-2.7,0.9
						c-1.1,0-2-0.3-2.7-0.9s-1-1.5-1-2.7v-5.1c0-0.1,0.1-0.3,0.2-0.4c0.1-0.1,0.2-0.2,0.4-0.2s0.3,0.1,0.4,0.2
						c0.1,0.1,0.2,0.2,0.2,0.4v5.1c0,0.9,0.2,1.5,0.7,2c0.5,0.4,1.1,0.7,1.9,0.7c0.8,0,1.5-0.2,1.9-0.7c0.5-0.5,0.7-1.1,0.7-2v-5.1
						c0-0.1,0.1-0.3,0.2-0.4C304.3,15.2,304.4,15.2,304.6,15.2z"/>
					<path class="st7" d="M312.1,14.9c0.8,0,1.4,0.2,1.9,0.5c0.5,0.3,0.8,0.8,1,1.3c0.2,0.5,0.3,1.1,0.3,1.8v5.3
						c0,0.1-0.1,0.3-0.2,0.4c-0.1,0.1-0.2,0.2-0.4,0.2c-0.2,0-0.3-0.1-0.4-0.2c-0.1-0.1-0.2-0.2-0.2-0.4v-5.2c0-0.5-0.1-0.9-0.2-1.3
						c-0.2-0.4-0.4-0.7-0.8-0.9s-0.8-0.4-1.4-0.4c-0.5,0-1,0.1-1.5,0.4c-0.5,0.2-0.8,0.5-1.1,0.9c-0.3,0.4-0.4,0.8-0.4,1.3v5.2
						c0,0.1-0.1,0.3-0.2,0.4c-0.1,0.1-0.2,0.2-0.4,0.2c-0.2,0-0.3-0.1-0.4-0.2c-0.1-0.1-0.2-0.2-0.2-0.4v-8.1c0-0.1,0.1-0.3,0.2-0.4
						c0.1-0.1,0.2-0.2,0.4-0.2s0.3,0.1,0.4,0.2c0.1,0.1,0.2,0.2,0.2,0.4v1.5l-0.4,0.6c0-0.4,0.1-0.8,0.4-1.1c0.2-0.4,0.5-0.7,0.9-1
						s0.7-0.5,1.2-0.7S311.6,14.9,312.1,14.9z"/>
					<path class="st7" d="M325.5,15.1c0.2,0,0.3,0.1,0.4,0.2c0.1,0.1,0.2,0.2,0.2,0.4v8.1c0,0.1-0.1,0.3-0.2,0.4
						c-0.1,0.1-0.2,0.2-0.4,0.2c-0.2,0-0.3-0.1-0.4-0.2c-0.1-0.1-0.2-0.2-0.2-0.4v-2.1l0.3-0.1c0,0.3-0.1,0.7-0.3,1
						c-0.2,0.4-0.4,0.7-0.8,1c-0.3,0.3-0.7,0.5-1.1,0.7c-0.4,0.2-0.9,0.3-1.4,0.3c-0.8,0-1.5-0.2-2.2-0.6s-1.1-1-1.5-1.7
						c-0.4-0.7-0.5-1.6-0.5-2.5c0-0.9,0.2-1.8,0.6-2.5c0.4-0.7,0.9-1.3,1.5-1.7c0.6-0.4,1.3-0.6,2.1-0.6c0.5,0,1,0.1,1.4,0.3
						c0.5,0.2,0.8,0.4,1.2,0.7c0.3,0.3,0.6,0.7,0.8,1.1s0.3,0.8,0.3,1.3l-0.4-0.3v-2.3c0-0.2,0.1-0.3,0.2-0.4
						C325.2,15.2,325.3,15.1,325.5,15.1z M321.7,23.5c0.6,0,1.2-0.2,1.7-0.5s0.9-0.8,1.2-1.4c0.3-0.6,0.4-1.2,0.4-2
						c0-0.7-0.1-1.3-0.4-1.9c-0.3-0.6-0.7-1-1.2-1.3s-1.1-0.5-1.7-0.5c-0.6,0-1.2,0.2-1.7,0.5c-0.5,0.3-0.9,0.8-1.2,1.3
						c-0.3,0.6-0.4,1.2-0.4,1.9c0,0.7,0.1,1.4,0.4,2c0.3,0.6,0.7,1,1.2,1.4S321.1,23.5,321.7,23.5z"/>
					<path class="st7" d="M328.1,22.8c-0.1-0.1-0.1-0.3-0.1-0.4s0.1-0.2,0.2-0.3c0.1-0.1,0.2-0.1,0.3-0.1c0.1,0,0.2,0.1,0.4,0.2
						c0.3,0.4,0.7,0.8,1.2,1c0.5,0.3,1,0.4,1.6,0.4c0.3,0,0.7-0.1,1-0.2c0.3-0.1,0.6-0.3,0.8-0.5c0.2-0.2,0.3-0.5,0.3-0.9
						c0-0.4-0.1-0.7-0.3-0.9c-0.2-0.2-0.5-0.4-0.8-0.5s-0.7-0.3-1.1-0.4c-0.4-0.1-0.8-0.2-1.2-0.4c-0.4-0.1-0.7-0.3-1-0.5
						c-0.3-0.2-0.5-0.5-0.7-0.8s-0.3-0.7-0.3-1.1c0-0.5,0.1-0.9,0.4-1.3c0.3-0.4,0.6-0.7,1.1-0.9c0.5-0.2,1-0.3,1.6-0.3
						c0.3,0,0.6,0,1,0.1c0.3,0.1,0.7,0.2,1,0.4s0.6,0.4,0.9,0.7c0.1,0.1,0.2,0.2,0.2,0.4s-0.1,0.3-0.2,0.4c-0.1,0.1-0.2,0.1-0.3,0.1
						c-0.1,0-0.2-0.1-0.3-0.2c-0.3-0.3-0.6-0.6-1-0.7c-0.4-0.2-0.8-0.2-1.3-0.2c-0.3,0-0.7,0.1-1,0.2c-0.3,0.1-0.6,0.3-0.8,0.5
						c-0.2,0.2-0.3,0.5-0.3,0.9c0,0.3,0.1,0.6,0.4,0.8c0.2,0.2,0.5,0.4,0.9,0.5c0.4,0.1,0.8,0.3,1.2,0.4c0.4,0.1,0.8,0.2,1.1,0.3
						s0.7,0.3,0.9,0.5c0.3,0.2,0.5,0.4,0.6,0.7s0.2,0.7,0.2,1.1c0,0.5-0.1,1-0.4,1.4c-0.3,0.4-0.7,0.7-1.2,0.9s-1,0.3-1.6,0.3
						c-0.6,0-1.3-0.1-1.9-0.4C329.1,23.8,328.6,23.4,328.1,22.8z"/>
					<path class="st7" d="M341.4,22.8c-0.1-0.1-0.1-0.3-0.1-0.4s0.1-0.2,0.2-0.3c0.1-0.1,0.2-0.1,0.3-0.1c0.1,0,0.2,0.1,0.3,0.2
						c0.3,0.4,0.7,0.8,1.2,1c0.5,0.3,1,0.4,1.6,0.4c0.3,0,0.7-0.1,1-0.2c0.3-0.1,0.6-0.3,0.8-0.5c0.2-0.2,0.3-0.5,0.3-0.9
						c0-0.4-0.1-0.7-0.3-0.9s-0.5-0.4-0.8-0.5c-0.3-0.1-0.7-0.3-1.1-0.4c-0.4-0.1-0.8-0.2-1.2-0.4c-0.4-0.1-0.7-0.3-1-0.5
						c-0.3-0.2-0.5-0.5-0.7-0.8s-0.3-0.7-0.3-1.1c0-0.5,0.1-0.9,0.4-1.3c0.3-0.4,0.6-0.7,1.1-0.9s1-0.3,1.6-0.3c0.3,0,0.6,0,1,0.1
						s0.7,0.2,1,0.4s0.6,0.4,0.9,0.7c0.1,0.1,0.2,0.2,0.2,0.4s-0.1,0.3-0.2,0.4c-0.1,0.1-0.2,0.1-0.3,0.1c-0.1,0-0.2-0.1-0.3-0.2
						c-0.3-0.3-0.6-0.6-1-0.7s-0.8-0.2-1.3-0.2c-0.3,0-0.7,0.1-1,0.2c-0.3,0.1-0.6,0.3-0.8,0.5c-0.2,0.2-0.3,0.5-0.3,0.9
						c0,0.3,0.1,0.6,0.4,0.8s0.5,0.4,0.9,0.5c0.4,0.1,0.8,0.3,1.2,0.4c0.4,0.1,0.8,0.2,1.1,0.3c0.4,0.1,0.7,0.3,0.9,0.5
						s0.5,0.4,0.6,0.7s0.2,0.7,0.2,1.1c0,0.5-0.1,1-0.4,1.4c-0.3,0.4-0.7,0.7-1.2,0.9c-0.5,0.2-1,0.3-1.6,0.3
						c-0.6,0-1.3-0.1-1.9-0.4S341.9,23.4,341.4,22.8z"/>
					<path class="st7" d="M357,15.2c0.2,0,0.3,0.1,0.4,0.2c0.1,0.1,0.2,0.2,0.2,0.4v5.1c0,1.2-0.3,2.1-1,2.7s-1.6,0.9-2.7,0.9
						s-2-0.3-2.7-0.9s-1-1.5-1-2.7v-5.1c0-0.1,0.1-0.3,0.2-0.4c0.1-0.1,0.2-0.2,0.4-0.2s0.3,0.1,0.4,0.2c0.1,0.1,0.2,0.2,0.2,0.4
						v5.1c0,0.9,0.2,1.5,0.7,2c0.5,0.4,1.1,0.7,1.9,0.7c0.8,0,1.5-0.2,1.9-0.7c0.5-0.5,0.7-1.1,0.7-2v-5.1c0-0.1,0.1-0.3,0.2-0.4
						C356.7,15.2,356.8,15.2,357,15.2z"/>
					<path class="st7" d="M359.5,22.8c-0.1-0.1-0.1-0.3-0.1-0.4s0.1-0.2,0.2-0.3c0.1-0.1,0.2-0.1,0.3-0.1c0.1,0,0.2,0.1,0.4,0.2
						c0.3,0.4,0.7,0.8,1.2,1c0.5,0.3,1,0.4,1.6,0.4c0.3,0,0.7-0.1,1-0.2c0.3-0.1,0.6-0.3,0.8-0.5c0.2-0.2,0.3-0.5,0.3-0.9
						c0-0.4-0.1-0.7-0.3-0.9c-0.2-0.2-0.5-0.4-0.8-0.5s-0.7-0.3-1.1-0.4c-0.4-0.1-0.8-0.2-1.2-0.4c-0.4-0.1-0.7-0.3-1-0.5
						c-0.3-0.2-0.5-0.5-0.7-0.8s-0.3-0.7-0.3-1.1c0-0.5,0.1-0.9,0.4-1.3c0.3-0.4,0.6-0.7,1.1-0.9c0.5-0.2,1-0.3,1.6-0.3
						c0.3,0,0.6,0,1,0.1c0.3,0.1,0.7,0.2,1,0.4s0.6,0.4,0.9,0.7c0.1,0.1,0.2,0.2,0.2,0.4s-0.1,0.3-0.2,0.4c-0.1,0.1-0.2,0.1-0.3,0.1
						c-0.1,0-0.2-0.1-0.3-0.2c-0.3-0.3-0.6-0.6-1-0.7c-0.4-0.2-0.8-0.2-1.3-0.2c-0.3,0-0.7,0.1-1,0.2c-0.3,0.1-0.6,0.3-0.8,0.5
						c-0.2,0.2-0.3,0.5-0.3,0.9c0,0.3,0.1,0.6,0.4,0.8c0.2,0.2,0.5,0.4,0.9,0.5c0.4,0.1,0.8,0.3,1.2,0.4c0.4,0.1,0.8,0.2,1.1,0.3
						s0.7,0.3,0.9,0.5c0.3,0.2,0.5,0.4,0.6,0.7s0.2,0.7,0.2,1.1c0,0.5-0.1,1-0.4,1.4c-0.3,0.4-0.7,0.7-1.2,0.9s-1,0.3-1.6,0.3
						c-0.6,0-1.3-0.1-1.9-0.4C360.5,23.8,359.9,23.4,359.5,22.8z"/>
					<path class="st7" d="M367.8,15.1h4.2c0.1,0,0.3,0.1,0.4,0.2s0.1,0.2,0.1,0.4c0,0.1,0,0.3-0.1,0.4c-0.1,0.1-0.2,0.1-0.4,0.1
						h-4.2c-0.1,0-0.3-0.1-0.4-0.2c-0.1-0.1-0.2-0.2-0.2-0.4c0-0.1,0.1-0.3,0.2-0.4C367.6,15.2,367.7,15.1,367.8,15.1z M369.7,12.6
						c0.2,0,0.3,0.1,0.4,0.2s0.2,0.2,0.2,0.4v9c0,0.3,0,0.6,0.1,0.8c0.1,0.2,0.2,0.3,0.3,0.3c0.1,0.1,0.3,0.1,0.4,0.1
						c0.1,0,0.2,0,0.3,0s0.2,0,0.3,0c0.1,0,0.2,0,0.3,0.1c0.1,0.1,0.1,0.2,0.1,0.3c0,0.2-0.1,0.3-0.3,0.4s-0.4,0.2-0.7,0.2
						c-0.1,0-0.3,0-0.5,0c-0.2,0-0.4-0.1-0.7-0.2s-0.4-0.3-0.6-0.6s-0.2-0.7-0.2-1.2v-9.1c0-0.1,0.1-0.3,0.2-0.4
						S369.5,12.6,369.7,12.6z"/>
					<path class="st7" d="M381.4,15.1c0.2,0,0.3,0.1,0.4,0.2c0.1,0.1,0.2,0.2,0.2,0.4v8.1c0,0.1-0.1,0.3-0.2,0.4
						c-0.1,0.1-0.2,0.2-0.4,0.2c-0.2,0-0.3-0.1-0.4-0.2c-0.1-0.1-0.2-0.2-0.2-0.4v-2.1l0.3-0.1c0,0.3-0.1,0.7-0.3,1
						c-0.2,0.4-0.4,0.7-0.8,1c-0.3,0.3-0.7,0.5-1.1,0.7c-0.4,0.2-0.9,0.3-1.4,0.3c-0.8,0-1.5-0.2-2.2-0.6c-0.6-0.4-1.1-1-1.5-1.7
						c-0.4-0.7-0.6-1.6-0.6-2.5c0-0.9,0.2-1.8,0.6-2.5c0.4-0.7,0.9-1.3,1.5-1.7c0.6-0.4,1.4-0.6,2.1-0.6c0.5,0,1,0.1,1.4,0.3
						c0.4,0.2,0.8,0.4,1.2,0.7c0.3,0.3,0.6,0.7,0.8,1.1c0.2,0.4,0.3,0.8,0.3,1.3l-0.4-0.3v-2.3c0-0.2,0.1-0.3,0.2-0.4
						C381.1,15.2,381.2,15.1,381.4,15.1z M377.7,23.5c0.6,0,1.2-0.2,1.7-0.5s0.9-0.8,1.2-1.4c0.3-0.6,0.4-1.2,0.4-2
						c0-0.7-0.1-1.3-0.4-1.9c-0.3-0.6-0.7-1-1.2-1.3s-1.1-0.5-1.7-0.5c-0.6,0-1.2,0.2-1.7,0.5c-0.5,0.3-0.9,0.8-1.2,1.3
						c-0.3,0.6-0.4,1.2-0.4,1.9c0,0.7,0.1,1.4,0.4,2c0.3,0.6,0.7,1,1.2,1.4C376.5,23.3,377,23.5,377.7,23.5z"/>
					<path class="st7" d="M388.9,14.9c0.8,0,1.4,0.2,1.9,0.5c0.5,0.3,0.8,0.8,1,1.3c0.2,0.5,0.3,1.1,0.3,1.8v5.3
						c0,0.1-0.1,0.3-0.2,0.4c-0.1,0.1-0.2,0.2-0.4,0.2c-0.2,0-0.3-0.1-0.4-0.2c-0.1-0.1-0.2-0.2-0.2-0.4v-5.2c0-0.5-0.1-0.9-0.2-1.3
						c-0.2-0.4-0.4-0.7-0.8-0.9s-0.8-0.4-1.4-0.4c-0.5,0-1,0.1-1.5,0.4c-0.5,0.2-0.8,0.5-1.1,0.9c-0.3,0.4-0.4,0.8-0.4,1.3v5.2
						c0,0.1-0.1,0.3-0.2,0.4c-0.1,0.1-0.2,0.2-0.4,0.2c-0.2,0-0.3-0.1-0.4-0.2c-0.1-0.1-0.2-0.2-0.2-0.4v-8.1c0-0.1,0.1-0.3,0.2-0.4
						c0.1-0.1,0.2-0.2,0.4-0.2s0.3,0.1,0.4,0.2c0.1,0.1,0.2,0.2,0.2,0.4v1.5l-0.4,0.6c0-0.4,0.1-0.8,0.4-1.1c0.2-0.4,0.5-0.7,0.9-1
						s0.7-0.5,1.2-0.7S388.5,14.9,388.9,14.9z"/>
					<path class="st7" d="M398.8,14.9c0.6,0,1.1,0.1,1.6,0.2c0.5,0.1,0.9,0.3,1.2,0.5c0.3,0.2,0.4,0.5,0.4,0.7c0,0.1,0,0.2-0.1,0.4
						c-0.1,0.1-0.2,0.2-0.4,0.2s-0.3,0-0.4-0.1c-0.1-0.1-0.2-0.2-0.3-0.3s-0.2-0.2-0.4-0.3c-0.2-0.1-0.4-0.2-0.7-0.2
						c-0.3-0.1-0.6-0.1-1-0.1c-0.7,0-1.3,0.2-1.8,0.5c-0.5,0.3-1,0.8-1.3,1.3c-0.3,0.6-0.5,1.2-0.5,1.9c0,0.7,0.1,1.4,0.4,1.9
						c0.3,0.6,0.7,1,1.2,1.4s1.1,0.5,1.8,0.5c0.5,0,0.9,0,1.1-0.1s0.5-0.2,0.7-0.3c0.2-0.1,0.4-0.3,0.5-0.4c0.1-0.1,0.2-0.2,0.4-0.2
						c0.1,0,0.3,0,0.3,0.1c0.1,0.1,0.1,0.2,0.1,0.4c0,0.2-0.1,0.4-0.4,0.6c-0.3,0.2-0.7,0.4-1.2,0.6s-1.1,0.3-1.7,0.3
						c-0.9,0-1.7-0.2-2.3-0.6s-1.2-1-1.6-1.7c-0.4-0.7-0.6-1.5-0.6-2.5c0-0.9,0.2-1.7,0.6-2.4c0.4-0.7,0.9-1.3,1.6-1.7
						C397.1,15.1,397.9,14.9,398.8,14.9z"/>
					<path class="st7" d="M404.3,13.7c-0.3,0-0.4-0.1-0.6-0.2c-0.1-0.1-0.2-0.3-0.2-0.5v-0.2c0-0.2,0.1-0.4,0.2-0.5
						c0.1-0.1,0.3-0.2,0.6-0.2c0.2,0,0.4,0.1,0.5,0.2c0.1,0.1,0.2,0.3,0.2,0.5v0.2c0,0.2-0.1,0.4-0.2,0.5
						C404.7,13.7,404.6,13.7,404.3,13.7z M404.8,23.8c0,0.1-0.1,0.3-0.2,0.4c-0.1,0.1-0.2,0.2-0.4,0.2c-0.2,0-0.3-0.1-0.4-0.2
						c-0.1-0.1-0.1-0.2-0.1-0.4v-8.3c0-0.1,0.1-0.3,0.2-0.4c0.1-0.1,0.2-0.2,0.4-0.2s0.3,0.1,0.4,0.2c0.1,0.1,0.2,0.2,0.2,0.4V23.8z
						"/>
					<path class="st7" d="M415,15.1c0.2,0,0.3,0.1,0.4,0.2c0.1,0.1,0.2,0.2,0.2,0.4v8.1c0,0.1-0.1,0.3-0.2,0.4
						c-0.1,0.1-0.2,0.2-0.4,0.2c-0.2,0-0.3-0.1-0.4-0.2c-0.1-0.1-0.2-0.2-0.2-0.4v-2.1l0.3-0.1c0,0.3-0.1,0.7-0.3,1
						c-0.2,0.4-0.4,0.7-0.8,1c-0.3,0.3-0.7,0.5-1.1,0.7c-0.4,0.2-0.9,0.3-1.4,0.3c-0.8,0-1.5-0.2-2.2-0.6c-0.6-0.4-1.1-1-1.5-1.7
						c-0.4-0.7-0.6-1.6-0.6-2.5c0-0.9,0.2-1.8,0.6-2.5c0.4-0.7,0.9-1.3,1.5-1.7c0.6-0.4,1.4-0.6,2.1-0.6c0.5,0,1,0.1,1.4,0.3
						c0.4,0.2,0.8,0.4,1.2,0.7c0.3,0.3,0.6,0.7,0.8,1.1c0.2,0.4,0.3,0.8,0.3,1.3l-0.4-0.3v-2.3c0-0.2,0.1-0.3,0.2-0.4
						C414.7,15.2,414.8,15.1,415,15.1z M411.2,23.5c0.6,0,1.2-0.2,1.7-0.5s0.9-0.8,1.2-1.4c0.3-0.6,0.4-1.2,0.4-2
						c0-0.7-0.1-1.3-0.4-1.9c-0.3-0.6-0.7-1-1.2-1.3s-1.1-0.5-1.7-0.5c-0.6,0-1.2,0.2-1.7,0.5c-0.5,0.3-0.9,0.8-1.2,1.3
						c-0.3,0.6-0.4,1.2-0.4,1.9c0,0.7,0.1,1.4,0.4,2c0.3,0.6,0.7,1,1.2,1.4C410,23.3,410.6,23.5,411.2,23.5z"/>
					<path class="st7" d="M417.6,22.8c-0.1-0.1-0.1-0.3-0.1-0.4s0.1-0.2,0.2-0.3c0.1-0.1,0.2-0.1,0.3-0.1c0.1,0,0.2,0.1,0.3,0.2
						c0.3,0.4,0.7,0.8,1.2,1c0.5,0.3,1,0.4,1.6,0.4c0.3,0,0.7-0.1,1-0.2c0.3-0.1,0.6-0.3,0.8-0.5c0.2-0.2,0.3-0.5,0.3-0.9
						c0-0.4-0.1-0.7-0.3-0.9s-0.5-0.4-0.8-0.5c-0.3-0.1-0.7-0.3-1.1-0.4c-0.4-0.1-0.8-0.2-1.2-0.4c-0.4-0.1-0.7-0.3-1-0.5
						c-0.3-0.2-0.5-0.5-0.7-0.8s-0.3-0.7-0.3-1.1c0-0.5,0.1-0.9,0.4-1.3c0.3-0.4,0.6-0.7,1.1-0.9s1-0.3,1.6-0.3c0.3,0,0.6,0,1,0.1
						s0.7,0.2,1,0.4s0.6,0.4,0.9,0.7c0.1,0.1,0.2,0.2,0.2,0.4s-0.1,0.3-0.2,0.4c-0.1,0.1-0.2,0.1-0.3,0.1c-0.1,0-0.2-0.1-0.3-0.2
						c-0.3-0.3-0.6-0.6-1-0.7s-0.8-0.2-1.3-0.2c-0.3,0-0.7,0.1-1,0.2c-0.3,0.1-0.6,0.3-0.8,0.5c-0.2,0.2-0.3,0.5-0.3,0.9
						c0,0.3,0.1,0.6,0.4,0.8s0.5,0.4,0.9,0.5c0.4,0.1,0.8,0.3,1.2,0.4c0.4,0.1,0.8,0.2,1.1,0.3c0.4,0.1,0.7,0.3,0.9,0.5
						s0.5,0.4,0.6,0.7s0.2,0.7,0.2,1.1c0,0.5-0.1,1-0.4,1.4c-0.3,0.4-0.7,0.7-1.2,0.9c-0.5,0.2-1,0.3-1.6,0.3
						c-0.6,0-1.3-0.1-1.9-0.4S418.1,23.4,417.6,22.8z"/>
					<path class="st7" d="M17.2,43.8c0,0.1-0.1,0.3-0.2,0.4c-0.1,0.1-0.2,0.2-0.4,0.2c-0.2,0-0.3-0.1-0.4-0.2
						c-0.1-0.1-0.2-0.2-0.2-0.4V31.5c0-0.1,0.1-0.3,0.2-0.4c0.1-0.1,0.2-0.2,0.4-0.2c0.2,0,0.3,0.1,0.4,0.2c0.1,0.1,0.2,0.2,0.2,0.4
						V43.8z"/>
					<path class="st7" d="M21,43.8c0,0.1-0.1,0.3-0.2,0.4c-0.1,0.1-0.2,0.2-0.4,0.2c-0.2,0-0.3-0.1-0.4-0.2C20,44,20,43.9,20,43.8
						V31.5c0-0.1,0.1-0.3,0.2-0.4c0.1-0.1,0.2-0.2,0.4-0.2c0.2,0,0.3,0.1,0.4,0.2c0.1,0.1,0.2,0.2,0.2,0.4V43.8z"/>
					<path class="st7" d="M31.3,35.1c0.2,0,0.3,0.1,0.4,0.2c0.1,0.1,0.2,0.2,0.2,0.4v8.1c0,0.1-0.1,0.3-0.2,0.4
						c-0.1,0.1-0.2,0.2-0.4,0.2c-0.2,0-0.3-0.1-0.4-0.2c-0.1-0.1-0.2-0.2-0.2-0.4v-2.1l0.3-0.1c0,0.3-0.1,0.7-0.3,1
						c-0.2,0.4-0.4,0.7-0.8,1c-0.3,0.3-0.7,0.5-1.1,0.7c-0.4,0.2-0.9,0.3-1.4,0.3c-0.8,0-1.5-0.2-2.2-0.6c-0.6-0.4-1.1-1-1.5-1.7
						c-0.4-0.7-0.5-1.6-0.5-2.5c0-0.9,0.2-1.8,0.6-2.5s0.9-1.3,1.5-1.7s1.4-0.6,2.1-0.6c0.5,0,1,0.1,1.4,0.3
						c0.5,0.2,0.8,0.4,1.2,0.7c0.3,0.3,0.6,0.7,0.8,1.1c0.2,0.4,0.3,0.8,0.3,1.3l-0.4-0.3v-2.3c0-0.2,0.1-0.3,0.2-0.4
						C31,35.2,31.1,35.1,31.3,35.1z M27.6,43.5c0.6,0,1.2-0.2,1.7-0.5s0.9-0.8,1.2-1.4c0.3-0.6,0.4-1.2,0.4-2c0-0.7-0.1-1.3-0.4-1.9
						s-0.7-1-1.2-1.3s-1.1-0.5-1.7-0.5c-0.6,0-1.2,0.2-1.7,0.5c-0.5,0.3-0.9,0.8-1.2,1.3s-0.4,1.2-0.4,1.9c0,0.7,0.1,1.4,0.4,2
						c0.3,0.6,0.7,1,1.2,1.4C26.4,43.3,26.9,43.5,27.6,43.5z"/>
					<path class="st7" d="M38.6,35c0.7,0,1.4,0.2,1.9,0.6c0.5,0.4,0.9,1,1.1,1.7l-0.3,0.1l0.1-0.3c0.2-0.4,0.4-0.7,0.8-1
						c0.4-0.3,0.8-0.6,1.3-0.8c0.5-0.2,0.9-0.3,1.4-0.3c0.8,0,1.4,0.2,1.8,0.5c0.5,0.3,0.8,0.8,1,1.3c0.2,0.5,0.3,1.2,0.3,1.8v5.1
						c0,0.1-0.1,0.3-0.2,0.4c-0.1,0.1-0.2,0.2-0.4,0.2c-0.2,0-0.3-0.1-0.4-0.2C47,44,47,43.9,47,43.8v-5c0-0.5-0.1-0.9-0.2-1.3
						c-0.2-0.4-0.4-0.7-0.7-1c-0.3-0.2-0.8-0.4-1.3-0.4c-0.5,0-1,0.1-1.4,0.4c-0.4,0.2-0.8,0.6-1.1,1c-0.3,0.4-0.4,0.9-0.4,1.3v5
						c0,0.1-0.1,0.3-0.2,0.4c-0.1,0.1-0.2,0.2-0.4,0.2s-0.3-0.1-0.4-0.2c-0.1-0.1-0.2-0.2-0.2-0.4v-5.1c0-0.5-0.1-0.9-0.2-1.3
						c-0.1-0.4-0.4-0.7-0.7-0.9C39.4,36.2,39,36,38.4,36c-0.5,0-1,0.1-1.4,0.4c-0.4,0.2-0.8,0.6-1.1,0.9c-0.3,0.4-0.4,0.8-0.4,1.3
						v5.1c0,0.1-0.1,0.3-0.2,0.4c-0.1,0.1-0.2,0.2-0.4,0.2c-0.2,0-0.3-0.1-0.4-0.2c-0.1-0.1-0.2-0.2-0.2-0.4v-8.1
						c0-0.1,0.1-0.3,0.2-0.4c0.1-0.1,0.2-0.2,0.4-0.2s0.3,0.1,0.4,0.2c0.1,0.1,0.2,0.2,0.2,0.4v1.7L35.1,38c0-0.4,0.2-0.7,0.4-1.1
						c0.2-0.4,0.5-0.7,0.8-1c0.3-0.3,0.7-0.5,1.1-0.7S38.2,35,38.6,35z"/>
					<path class="st7" d="M58.2,35.1c0.2,0,0.3,0.1,0.4,0.2c0.1,0.1,0.2,0.2,0.2,0.4v8.1c0,0.1-0.1,0.3-0.2,0.4
						c-0.1,0.1-0.2,0.2-0.4,0.2c-0.2,0-0.3-0.1-0.4-0.2c-0.1-0.1-0.2-0.2-0.2-0.4v-2.1l0.3-0.1c0,0.3-0.1,0.7-0.3,1
						c-0.2,0.4-0.4,0.7-0.8,1c-0.3,0.3-0.7,0.5-1.1,0.7c-0.4,0.2-0.9,0.3-1.4,0.3c-0.8,0-1.5-0.2-2.2-0.6c-0.6-0.4-1.1-1-1.5-1.7
						c-0.4-0.7-0.5-1.6-0.5-2.5c0-0.9,0.2-1.8,0.6-2.5s0.9-1.3,1.5-1.7s1.4-0.6,2.1-0.6c0.5,0,1,0.1,1.4,0.3
						c0.5,0.2,0.8,0.4,1.2,0.7c0.3,0.3,0.6,0.7,0.8,1.1c0.2,0.4,0.3,0.8,0.3,1.3l-0.4-0.3v-2.3c0-0.2,0.1-0.3,0.2-0.4
						C57.9,35.2,58,35.1,58.2,35.1z M54.5,43.5c0.6,0,1.2-0.2,1.7-0.5s0.9-0.8,1.2-1.4c0.3-0.6,0.4-1.2,0.4-2c0-0.7-0.1-1.3-0.4-1.9
						s-0.7-1-1.2-1.3s-1.1-0.5-1.7-0.5c-0.6,0-1.2,0.2-1.7,0.5c-0.5,0.3-0.9,0.8-1.2,1.3s-0.4,1.2-0.4,1.9c0,0.7,0.1,1.4,0.4,2
						c0.3,0.6,0.7,1,1.2,1.4C53.3,43.3,53.8,43.5,54.5,43.5z"/>
					<path class="st7" d="M68.9,31c0.2,0,0.3,0.1,0.4,0.2c0.1,0.1,0.2,0.2,0.2,0.4v12.2c0,0.1-0.1,0.3-0.2,0.4
						c-0.1,0.1-0.2,0.2-0.4,0.2c-0.2,0-0.3-0.1-0.4-0.2c-0.1-0.1-0.2-0.2-0.2-0.4v-2.1l0.3-0.3c0,0.3-0.1,0.7-0.3,1.1
						c-0.2,0.4-0.4,0.7-0.8,1c-0.3,0.3-0.7,0.6-1.2,0.7c-0.4,0.2-0.9,0.3-1.4,0.3c-0.8,0-1.5-0.2-2.2-0.6s-1.1-1-1.5-1.7
						s-0.6-1.5-0.6-2.5c0-0.9,0.2-1.7,0.6-2.5c0.4-0.7,0.9-1.3,1.5-1.7s1.4-0.6,2.1-0.6c0.5,0,1,0.1,1.4,0.3
						c0.4,0.2,0.8,0.4,1.2,0.7c0.3,0.3,0.6,0.7,0.8,1.1s0.3,0.8,0.3,1.3l-0.4-0.3v-6.4c0-0.1,0.1-0.3,0.2-0.4
						C68.6,31,68.8,31,68.9,31z M65.2,43.5c0.6,0,1.2-0.2,1.7-0.5s0.9-0.8,1.2-1.3s0.4-1.2,0.4-2c0-0.7-0.1-1.4-0.4-1.9
						c-0.3-0.6-0.7-1-1.2-1.3c-0.5-0.3-1.1-0.5-1.7-0.5c-0.6,0-1.2,0.2-1.7,0.5c-0.5,0.3-0.9,0.8-1.2,1.3c-0.3,0.6-0.4,1.2-0.4,1.9
						s0.1,1.4,0.4,1.9c0.3,0.6,0.7,1,1.2,1.4S64.6,43.5,65.2,43.5z"/>
					<path class="st7" d="M79.7,35.1c0.2,0,0.3,0.1,0.4,0.2c0.1,0.1,0.2,0.2,0.2,0.4v8.1c0,0.1-0.1,0.3-0.2,0.4
						c-0.1,0.1-0.2,0.2-0.4,0.2c-0.2,0-0.3-0.1-0.4-0.2c-0.1-0.1-0.2-0.2-0.2-0.4v-2.1l0.3-0.1c0,0.3-0.1,0.7-0.3,1
						c-0.2,0.4-0.4,0.7-0.8,1c-0.3,0.3-0.7,0.5-1.1,0.7c-0.4,0.2-0.9,0.3-1.4,0.3c-0.8,0-1.5-0.2-2.2-0.6c-0.6-0.4-1.1-1-1.5-1.7
						c-0.4-0.7-0.5-1.6-0.5-2.5c0-0.9,0.2-1.8,0.6-2.5s0.9-1.3,1.5-1.7s1.4-0.6,2.1-0.6c0.5,0,1,0.1,1.4,0.3
						c0.5,0.2,0.8,0.4,1.2,0.7c0.3,0.3,0.6,0.7,0.8,1.1c0.2,0.4,0.3,0.8,0.3,1.3l-0.4-0.3v-2.3c0-0.2,0.1-0.3,0.2-0.4
						C79.4,35.2,79.5,35.1,79.7,35.1z M75.9,43.5c0.6,0,1.2-0.2,1.7-0.5s0.9-0.8,1.2-1.4c0.3-0.6,0.4-1.2,0.4-2
						c0-0.7-0.1-1.3-0.4-1.9s-0.7-1-1.2-1.3s-1.1-0.5-1.7-0.5c-0.6,0-1.2,0.2-1.7,0.5c-0.5,0.3-0.9,0.8-1.2,1.3s-0.4,1.2-0.4,1.9
						c0,0.7,0.1,1.4,0.4,2c0.3,0.6,0.7,1,1.2,1.4C74.7,43.3,75.3,43.5,75.9,43.5z"/>
					<path class="st7" d="M82.3,42.8c-0.1-0.1-0.1-0.3-0.1-0.4s0.1-0.2,0.2-0.3c0.1-0.1,0.2-0.1,0.3-0.1c0.1,0,0.2,0.1,0.4,0.2
						c0.3,0.4,0.7,0.8,1.2,1s1,0.4,1.6,0.4c0.3,0,0.7-0.1,1-0.2c0.3-0.1,0.6-0.3,0.8-0.5c0.2-0.2,0.3-0.5,0.3-0.9
						c0-0.4-0.1-0.7-0.3-0.9c-0.2-0.2-0.5-0.4-0.8-0.5c-0.3-0.1-0.7-0.3-1.1-0.4c-0.4-0.1-0.8-0.2-1.2-0.4s-0.7-0.3-1-0.5
						s-0.5-0.5-0.7-0.8s-0.3-0.7-0.3-1.1c0-0.5,0.1-0.9,0.4-1.3c0.3-0.4,0.6-0.7,1.1-0.9c0.5-0.2,1-0.3,1.6-0.3c0.3,0,0.6,0,1,0.1
						c0.3,0.1,0.7,0.2,1,0.4s0.6,0.4,0.9,0.7c0.1,0.1,0.2,0.2,0.2,0.4s-0.1,0.3-0.2,0.4C88.5,37,88.4,37,88.3,37
						c-0.1,0-0.2-0.1-0.3-0.2c-0.3-0.3-0.6-0.6-1-0.7c-0.4-0.2-0.8-0.2-1.3-0.2c-0.3,0-0.7,0.1-1,0.2c-0.3,0.1-0.6,0.3-0.8,0.5
						c-0.2,0.2-0.3,0.5-0.3,0.9c0,0.3,0.1,0.6,0.4,0.8c0.2,0.2,0.5,0.4,0.9,0.5c0.4,0.1,0.8,0.3,1.2,0.4c0.4,0.1,0.8,0.2,1.1,0.3
						c0.4,0.1,0.7,0.3,0.9,0.5c0.3,0.2,0.5,0.4,0.6,0.7s0.2,0.7,0.2,1.1c0,0.5-0.1,1-0.4,1.4s-0.7,0.7-1.2,0.9
						c-0.5,0.2-1,0.3-1.6,0.3c-0.6,0-1.3-0.1-1.9-0.4C83.3,43.8,82.7,43.4,82.3,42.8z"/>
					<path class="st7" d="M97.3,43.8c0,0.1-0.1,0.3-0.2,0.4c-0.1,0.1-0.2,0.2-0.4,0.2c-0.2,0-0.3-0.1-0.4-0.2
						c-0.1-0.1-0.2-0.2-0.2-0.4V31.5c0-0.1,0.1-0.3,0.2-0.4c0.1-0.1,0.2-0.2,0.4-0.2c0.2,0,0.3,0.1,0.4,0.2c0.1,0.1,0.2,0.2,0.2,0.4
						V43.8z"/>
					<path class="st7" d="M107.6,35.1c0.2,0,0.3,0.1,0.4,0.2c0.1,0.1,0.2,0.2,0.2,0.4v8.1c0,0.1-0.1,0.3-0.2,0.4
						c-0.1,0.1-0.2,0.2-0.4,0.2c-0.2,0-0.3-0.1-0.4-0.2c-0.1-0.1-0.2-0.2-0.2-0.4v-2.1l0.3-0.1c0,0.3-0.1,0.7-0.3,1
						c-0.2,0.4-0.4,0.7-0.8,1c-0.3,0.3-0.7,0.5-1.1,0.7c-0.4,0.2-0.9,0.3-1.4,0.3c-0.8,0-1.5-0.2-2.2-0.6c-0.6-0.4-1.1-1-1.5-1.7
						c-0.4-0.7-0.5-1.6-0.5-2.5c0-0.9,0.2-1.8,0.6-2.5s0.9-1.3,1.5-1.7s1.4-0.6,2.1-0.6c0.5,0,1,0.1,1.4,0.3
						c0.5,0.2,0.8,0.4,1.2,0.7c0.3,0.3,0.6,0.7,0.8,1.1c0.2,0.4,0.3,0.8,0.3,1.3l-0.4-0.3v-2.3c0-0.2,0.1-0.3,0.2-0.4
						C107.3,35.2,107.4,35.1,107.6,35.1z M103.9,43.5c0.6,0,1.2-0.2,1.7-0.5s0.9-0.8,1.2-1.4c0.3-0.6,0.4-1.2,0.4-2
						c0-0.7-0.1-1.3-0.4-1.9s-0.7-1-1.2-1.3s-1.1-0.5-1.7-0.5c-0.6,0-1.2,0.2-1.7,0.5c-0.5,0.3-0.9,0.8-1.2,1.3s-0.4,1.2-0.4,1.9
						c0,0.7,0.1,1.4,0.4,2c0.3,0.6,0.7,1,1.2,1.4C102.7,43.3,103.2,43.5,103.9,43.5z"/>
					<path class="st7" d="M110.2,42.8c-0.1-0.1-0.1-0.3-0.1-0.4s0.1-0.2,0.2-0.3c0.1-0.1,0.2-0.1,0.3-0.1c0.1,0,0.2,0.1,0.4,0.2
						c0.3,0.4,0.7,0.8,1.2,1s1,0.4,1.6,0.4c0.3,0,0.7-0.1,1-0.2c0.3-0.1,0.6-0.3,0.8-0.5c0.2-0.2,0.3-0.5,0.3-0.9
						c0-0.4-0.1-0.7-0.3-0.9c-0.2-0.2-0.5-0.4-0.8-0.5c-0.3-0.1-0.7-0.3-1.1-0.4c-0.4-0.1-0.8-0.2-1.2-0.4s-0.7-0.3-1-0.5
						s-0.5-0.5-0.7-0.8s-0.3-0.7-0.3-1.1c0-0.5,0.1-0.9,0.4-1.3c0.3-0.4,0.6-0.7,1.1-0.9c0.5-0.2,1-0.3,1.6-0.3c0.3,0,0.6,0,1,0.1
						c0.3,0.1,0.7,0.2,1,0.4s0.6,0.4,0.9,0.7c0.1,0.1,0.2,0.2,0.2,0.4s-0.1,0.3-0.2,0.4c-0.1,0.1-0.2,0.1-0.3,0.1
						c-0.1,0-0.2-0.1-0.3-0.2c-0.3-0.3-0.6-0.6-1-0.7c-0.4-0.2-0.8-0.2-1.3-0.2c-0.3,0-0.7,0.1-1,0.2c-0.3,0.1-0.6,0.3-0.8,0.5
						c-0.2,0.2-0.3,0.5-0.3,0.9c0,0.3,0.1,0.6,0.4,0.8c0.2,0.2,0.5,0.4,0.9,0.5c0.4,0.1,0.8,0.3,1.2,0.4c0.4,0.1,0.8,0.2,1.1,0.3
						c0.4,0.1,0.7,0.3,0.9,0.5c0.3,0.2,0.5,0.4,0.6,0.7s0.2,0.7,0.2,1.1c0,0.5-0.1,1-0.4,1.4s-0.7,0.7-1.2,0.9
						c-0.5,0.2-1,0.3-1.6,0.3c-0.6,0-1.3-0.1-1.9-0.4C111.2,43.8,110.7,43.4,110.2,42.8z"/>
					<path class="st7" d="M128.2,44.5c-0.9,0-1.8-0.2-2.5-0.6c-0.7-0.4-1.3-0.9-1.6-1.7c-0.4-0.7-0.6-1.5-0.6-2.5
						c0-1,0.2-1.9,0.6-2.6c0.4-0.7,0.9-1.3,1.6-1.7c0.6-0.4,1.3-0.6,2-0.6c0.5,0,1,0.1,1.5,0.3c0.5,0.2,0.9,0.5,1.3,0.8
						s0.7,0.8,0.9,1.3c0.2,0.5,0.4,1.1,0.4,1.8c0,0.1-0.1,0.3-0.2,0.4c-0.1,0.1-0.2,0.2-0.4,0.2h-7.2l-0.2-1h7.1l-0.2,0.2v-0.4
						c0-0.6-0.2-1-0.5-1.4c-0.3-0.4-0.7-0.7-1.1-0.9c-0.4-0.2-0.9-0.3-1.4-0.3c-0.4,0-0.7,0.1-1.1,0.2c-0.4,0.1-0.7,0.4-1,0.7
						c-0.3,0.3-0.6,0.7-0.7,1.2c-0.2,0.5-0.3,1-0.3,1.7c0,0.7,0.1,1.3,0.4,1.9s0.7,1,1.2,1.4s1.2,0.5,2,0.5c0.4,0,0.8-0.1,1.1-0.2
						c0.3-0.1,0.6-0.3,0.9-0.5c0.3-0.2,0.5-0.4,0.6-0.6c0.1-0.1,0.2-0.2,0.4-0.2s0.2,0,0.3,0.1c0.1,0.1,0.1,0.2,0.1,0.3
						c0,0.1-0.1,0.3-0.2,0.4c-0.4,0.4-0.8,0.8-1.4,1.1C129.5,44.3,128.9,44.5,128.2,44.5z"/>
					<path class="st7" d="M138.3,34.9c0.8,0,1.4,0.2,1.9,0.5c0.5,0.3,0.8,0.8,1,1.3s0.3,1.1,0.3,1.8v5.3c0,0.1-0.1,0.3-0.2,0.4
						c-0.1,0.1-0.2,0.2-0.4,0.2c-0.2,0-0.3-0.1-0.4-0.2c-0.1-0.1-0.2-0.2-0.2-0.4v-5.2c0-0.5-0.1-0.9-0.2-1.3
						c-0.2-0.4-0.4-0.7-0.8-0.9c-0.3-0.2-0.8-0.4-1.4-0.4c-0.5,0-1,0.1-1.5,0.4s-0.8,0.5-1.1,0.9c-0.3,0.4-0.4,0.8-0.4,1.3v5.2
						c0,0.1-0.1,0.3-0.2,0.4c-0.1,0.1-0.2,0.2-0.4,0.2c-0.2,0-0.3-0.1-0.4-0.2c-0.1-0.1-0.2-0.2-0.2-0.4v-8.1c0-0.1,0.1-0.3,0.2-0.4
						c0.1-0.1,0.2-0.2,0.4-0.2s0.3,0.1,0.4,0.2c0.1,0.1,0.2,0.2,0.2,0.4v1.5l-0.4,0.6c0-0.4,0.1-0.8,0.4-1.1c0.2-0.4,0.5-0.7,0.9-1
						c0.3-0.3,0.7-0.5,1.2-0.7S137.9,34.9,138.3,34.9z"/>
					<path class="st7" d="M149.8,43.3c0.1,0,0.3,0.1,0.4,0.2c0.1,0.1,0.2,0.2,0.2,0.4c0,0.1-0.1,0.3-0.2,0.4
						c-0.1,0.1-0.2,0.1-0.4,0.1h-5.8c-0.2,0-0.3-0.1-0.4-0.2s-0.1-0.2-0.1-0.3c0-0.1,0-0.1,0-0.2c0-0.1,0.1-0.1,0.1-0.2l5.5-7.5
						l0.1,0.2h-4.7c-0.1,0-0.3-0.1-0.4-0.2c-0.1-0.1-0.2-0.2-0.2-0.4c0-0.1,0.1-0.2,0.2-0.4c0.1-0.1,0.2-0.2,0.4-0.2h5.5
						c0.1,0,0.3,0.1,0.4,0.2c0.1,0.1,0.2,0.2,0.2,0.4c0,0.1,0,0.1,0,0.2c0,0.1-0.1,0.1-0.1,0.2l-5.4,7.5l-0.2-0.1H149.8z"/>
					<path class="st7" d="M152.8,33.7c-0.3,0-0.4-0.1-0.6-0.2c-0.1-0.1-0.2-0.3-0.2-0.5v-0.2c0-0.2,0.1-0.4,0.2-0.5
						c0.1-0.1,0.3-0.2,0.6-0.2c0.2,0,0.4,0.1,0.5,0.2c0.1,0.1,0.2,0.3,0.2,0.5v0.2c0,0.2-0.1,0.4-0.2,0.5
						C153.2,33.7,153,33.7,152.8,33.7z M153.3,43.8c0,0.1-0.1,0.3-0.2,0.4c-0.1,0.1-0.2,0.2-0.4,0.2c-0.2,0-0.3-0.1-0.4-0.2
						c-0.1-0.1-0.1-0.2-0.1-0.4v-8.3c0-0.1,0.1-0.3,0.2-0.4c0.1-0.1,0.2-0.2,0.4-0.2s0.3,0.1,0.4,0.2c0.1,0.1,0.2,0.2,0.2,0.4V43.8z
						"/>
					<path class="st7" d="M160.1,35c0.7,0,1.4,0.2,1.9,0.6c0.5,0.4,0.9,1,1.1,1.7l-0.3,0.1l0.1-0.3c0.2-0.4,0.4-0.7,0.8-1
						c0.4-0.3,0.8-0.6,1.3-0.8c0.5-0.2,0.9-0.3,1.4-0.3c0.8,0,1.4,0.2,1.8,0.5c0.5,0.3,0.8,0.8,1,1.3c0.2,0.5,0.3,1.2,0.3,1.8v5.1
						c0,0.1-0.1,0.3-0.2,0.4c-0.1,0.1-0.2,0.2-0.4,0.2c-0.2,0-0.3-0.1-0.4-0.2c-0.1-0.1-0.1-0.2-0.1-0.4v-5c0-0.5-0.1-0.9-0.2-1.3
						c-0.2-0.4-0.4-0.7-0.7-1c-0.3-0.2-0.8-0.4-1.3-0.4c-0.5,0-1,0.1-1.4,0.4c-0.4,0.2-0.8,0.6-1.1,1c-0.3,0.4-0.4,0.9-0.4,1.3v5
						c0,0.1-0.1,0.3-0.2,0.4c-0.1,0.1-0.2,0.2-0.4,0.2s-0.3-0.1-0.4-0.2c-0.1-0.1-0.2-0.2-0.2-0.4v-5.1c0-0.5-0.1-0.9-0.2-1.3
						c-0.1-0.4-0.4-0.7-0.7-0.9c-0.3-0.2-0.8-0.4-1.3-0.4c-0.5,0-1,0.1-1.4,0.4c-0.4,0.2-0.8,0.6-1.1,0.9c-0.3,0.4-0.4,0.8-0.4,1.3
						v5.1c0,0.1-0.1,0.3-0.2,0.4c-0.1,0.1-0.2,0.2-0.4,0.2c-0.2,0-0.3-0.1-0.4-0.2c-0.1-0.1-0.2-0.2-0.2-0.4v-8.1
						c0-0.1,0.1-0.3,0.2-0.4c0.1-0.1,0.2-0.2,0.4-0.2s0.3,0.1,0.4,0.2c0.1,0.1,0.2,0.2,0.2,0.4v1.7l-0.5,0.7c0-0.4,0.2-0.7,0.4-1.1
						c0.2-0.4,0.5-0.7,0.8-1c0.3-0.3,0.7-0.5,1.1-0.7S159.6,35,160.1,35z"/>
					<path class="st7" d="M179.7,35.1c0.2,0,0.3,0.1,0.4,0.2c0.1,0.1,0.2,0.2,0.2,0.4v8.1c0,0.1-0.1,0.3-0.2,0.4
						c-0.1,0.1-0.2,0.2-0.4,0.2c-0.2,0-0.3-0.1-0.4-0.2c-0.1-0.1-0.2-0.2-0.2-0.4v-2.1l0.3-0.1c0,0.3-0.1,0.7-0.3,1
						c-0.2,0.4-0.4,0.7-0.8,1c-0.3,0.3-0.7,0.5-1.1,0.7c-0.4,0.2-0.9,0.3-1.4,0.3c-0.8,0-1.5-0.2-2.2-0.6c-0.6-0.4-1.1-1-1.5-1.7
						c-0.4-0.7-0.5-1.6-0.5-2.5c0-0.9,0.2-1.8,0.6-2.5s0.9-1.3,1.5-1.7s1.4-0.6,2.1-0.6c0.5,0,1,0.1,1.4,0.3
						c0.5,0.2,0.8,0.4,1.2,0.7c0.3,0.3,0.6,0.7,0.8,1.1c0.2,0.4,0.3,0.8,0.3,1.3l-0.4-0.3v-2.3c0-0.2,0.1-0.3,0.2-0.4
						C179.4,35.2,179.5,35.1,179.7,35.1z M175.9,43.5c0.6,0,1.2-0.2,1.7-0.5s0.9-0.8,1.2-1.4c0.3-0.6,0.4-1.2,0.4-2
						c0-0.7-0.1-1.3-0.4-1.9s-0.7-1-1.2-1.3s-1.1-0.5-1.7-0.5c-0.6,0-1.2,0.2-1.7,0.5c-0.5,0.3-0.9,0.8-1.2,1.3s-0.4,1.2-0.4,1.9
						c0,0.7,0.1,1.4,0.4,2c0.3,0.6,0.7,1,1.2,1.4C174.7,43.3,175.3,43.5,175.9,43.5z"/>
					<path class="st7" d="M182.3,42.8c-0.1-0.1-0.1-0.3-0.1-0.4s0.1-0.2,0.2-0.3c0.1-0.1,0.2-0.1,0.3-0.1c0.1,0,0.2,0.1,0.4,0.2
						c0.3,0.4,0.7,0.8,1.2,1s1,0.4,1.6,0.4c0.3,0,0.7-0.1,1-0.2c0.3-0.1,0.6-0.3,0.8-0.5c0.2-0.2,0.3-0.5,0.3-0.9
						c0-0.4-0.1-0.7-0.3-0.9c-0.2-0.2-0.5-0.4-0.8-0.5c-0.3-0.1-0.7-0.3-1.1-0.4c-0.4-0.1-0.8-0.2-1.2-0.4s-0.7-0.3-1-0.5
						s-0.5-0.5-0.7-0.8s-0.3-0.7-0.3-1.1c0-0.5,0.1-0.9,0.4-1.3c0.3-0.4,0.6-0.7,1.1-0.9c0.5-0.2,1-0.3,1.6-0.3c0.3,0,0.6,0,1,0.1
						c0.3,0.1,0.7,0.2,1,0.4s0.6,0.4,0.9,0.7c0.1,0.1,0.2,0.2,0.2,0.4s-0.1,0.3-0.2,0.4c-0.1,0.1-0.2,0.1-0.3,0.1
						c-0.1,0-0.2-0.1-0.3-0.2c-0.3-0.3-0.6-0.6-1-0.7c-0.4-0.2-0.8-0.2-1.3-0.2c-0.3,0-0.7,0.1-1,0.2c-0.3,0.1-0.6,0.3-0.8,0.5
						c-0.2,0.2-0.3,0.5-0.3,0.9c0,0.3,0.1,0.6,0.4,0.8c0.2,0.2,0.5,0.4,0.9,0.5c0.4,0.1,0.8,0.3,1.2,0.4c0.4,0.1,0.8,0.2,1.1,0.3
						c0.4,0.1,0.7,0.3,0.9,0.5c0.3,0.2,0.5,0.4,0.6,0.7s0.2,0.7,0.2,1.1c0,0.5-0.1,1-0.4,1.4s-0.7,0.7-1.2,0.9
						c-0.5,0.2-1,0.3-1.6,0.3c-0.6,0-1.3-0.1-1.9-0.4C183.3,43.8,182.7,43.4,182.3,42.8z"/>
					<path class="st7" d="M200.1,34.9c0.6,0,1.1,0.1,1.6,0.2c0.5,0.1,0.9,0.3,1.2,0.5s0.4,0.5,0.4,0.7c0,0.1,0,0.2-0.1,0.4
						c-0.1,0.1-0.2,0.2-0.4,0.2c-0.1,0-0.3,0-0.4-0.1c-0.1-0.1-0.2-0.2-0.3-0.3s-0.2-0.2-0.4-0.3c-0.2-0.1-0.4-0.2-0.7-0.2
						c-0.3-0.1-0.6-0.1-1-0.1c-0.7,0-1.3,0.2-1.8,0.5s-1,0.8-1.3,1.3c-0.3,0.6-0.5,1.2-0.5,1.9c0,0.7,0.1,1.4,0.4,1.9
						c0.3,0.6,0.7,1,1.2,1.4c0.5,0.3,1.1,0.5,1.8,0.5c0.5,0,0.9,0,1.1-0.1c0.3-0.1,0.5-0.2,0.7-0.3c0.2-0.1,0.4-0.3,0.5-0.4
						c0.1-0.1,0.2-0.2,0.4-0.2c0.1,0,0.3,0,0.3,0.1c0.1,0.1,0.1,0.2,0.1,0.4c0,0.2-0.1,0.4-0.4,0.6c-0.3,0.2-0.7,0.4-1.2,0.6
						s-1.1,0.3-1.7,0.3c-0.9,0-1.7-0.2-2.3-0.6s-1.2-1-1.6-1.7c-0.4-0.7-0.6-1.5-0.6-2.5c0-0.9,0.2-1.7,0.6-2.4
						c0.4-0.7,0.9-1.3,1.6-1.7C198.4,35.1,199.2,34.9,200.1,34.9z"/>
					<path class="st7" d="M213.5,39.7c0,0.9-0.2,1.7-0.6,2.5c-0.4,0.7-0.9,1.3-1.6,1.7c-0.7,0.4-1.5,0.6-2.3,0.6
						c-0.9,0-1.6-0.2-2.3-0.6s-1.2-1-1.6-1.7c-0.4-0.7-0.6-1.5-0.6-2.5c0-0.9,0.2-1.7,0.6-2.5c0.4-0.7,0.9-1.3,1.6-1.7
						s1.5-0.6,2.3-0.6c0.9,0,1.6,0.2,2.3,0.6c0.7,0.4,1.2,1,1.6,1.7C213.3,37.9,213.5,38.8,213.5,39.7z M212.4,39.7
						c0-0.7-0.2-1.4-0.5-2c-0.3-0.6-0.7-1-1.2-1.3c-0.5-0.3-1.1-0.5-1.8-0.5c-0.7,0-1.3,0.2-1.8,0.5c-0.5,0.3-0.9,0.8-1.2,1.3
						c-0.3,0.6-0.5,1.2-0.5,2c0,0.7,0.2,1.4,0.5,1.9c0.3,0.6,0.7,1,1.2,1.3c0.5,0.3,1.1,0.5,1.8,0.5c0.7,0,1.3-0.2,1.8-0.5
						c0.5-0.3,0.9-0.8,1.2-1.3C212.3,41.1,212.4,40.4,212.4,39.7z"/>
					<path class="st7" d="M220,34.9c0.8,0,1.4,0.2,1.9,0.5c0.5,0.3,0.8,0.8,1,1.3s0.3,1.1,0.3,1.8v5.3c0,0.1-0.1,0.3-0.2,0.4
						c-0.1,0.1-0.2,0.2-0.4,0.2c-0.2,0-0.3-0.1-0.4-0.2c-0.1-0.1-0.2-0.2-0.2-0.4v-5.2c0-0.5-0.1-0.9-0.2-1.3
						c-0.2-0.4-0.4-0.7-0.8-0.9c-0.3-0.2-0.8-0.4-1.4-0.4c-0.5,0-1,0.1-1.5,0.4s-0.8,0.5-1.1,0.9c-0.3,0.4-0.4,0.8-0.4,1.3v5.2
						c0,0.1-0.1,0.3-0.2,0.4c-0.1,0.1-0.2,0.2-0.4,0.2c-0.2,0-0.3-0.1-0.4-0.2c-0.1-0.1-0.2-0.2-0.2-0.4v-8.1c0-0.1,0.1-0.3,0.2-0.4
						c0.1-0.1,0.2-0.2,0.4-0.2s0.3,0.1,0.4,0.2c0.1,0.1,0.2,0.2,0.2,0.4v1.5l-0.4,0.6c0-0.4,0.1-0.8,0.4-1.1c0.2-0.4,0.5-0.7,0.9-1
						c0.3-0.3,0.7-0.5,1.2-0.7S219.5,34.9,220,34.9z"/>
					<path class="st7" d="M225.2,34.9c0.1,0,0.2,0,0.3,0.1c0.1,0.1,0.2,0.1,0.2,0.3l3.2,7.5l-0.2,0.1l3.2-7.6
						c0.1-0.2,0.3-0.4,0.5-0.3c0.1,0,0.2,0,0.3,0.1s0.2,0.2,0.2,0.3c0,0.1,0,0.1,0,0.2c0,0,0,0.1,0,0.1l-3.5,8.3
						c-0.1,0.2-0.3,0.3-0.5,0.3c-0.1,0-0.2,0-0.3-0.1c-0.1-0.1-0.2-0.2-0.2-0.3l-3.5-8.3c0,0,0-0.1,0-0.1c0,0,0-0.1,0-0.1
						c0-0.1,0-0.3,0.1-0.4C224.9,35,225,34.9,225.2,34.9z"/>
					<path class="st7" d="M235.2,33.7c-0.3,0-0.4-0.1-0.6-0.2c-0.1-0.1-0.2-0.3-0.2-0.5v-0.2c0-0.2,0.1-0.4,0.2-0.5
						c0.1-0.1,0.3-0.2,0.6-0.2c0.2,0,0.4,0.1,0.5,0.2c0.1,0.1,0.2,0.3,0.2,0.5v0.2c0,0.2-0.1,0.4-0.2,0.5
						C235.6,33.7,235.4,33.7,235.2,33.7z M235.7,43.8c0,0.1-0.1,0.3-0.2,0.4c-0.1,0.1-0.2,0.2-0.4,0.2c-0.2,0-0.3-0.1-0.4-0.2
						c-0.1-0.1-0.1-0.2-0.1-0.4v-8.3c0-0.1,0.1-0.3,0.2-0.4c0.1-0.1,0.2-0.2,0.4-0.2s0.3,0.1,0.4,0.2c0.1,0.1,0.2,0.2,0.2,0.4V43.8z
						"/>
					<path class="st7" d="M242.5,44.5c-0.9,0-1.8-0.2-2.5-0.6c-0.7-0.4-1.3-0.9-1.6-1.7c-0.4-0.7-0.6-1.5-0.6-2.5
						c0-1,0.2-1.9,0.6-2.6c0.4-0.7,0.9-1.3,1.6-1.7c0.6-0.4,1.3-0.6,2-0.6c0.5,0,1,0.1,1.5,0.3c0.5,0.2,0.9,0.5,1.3,0.8
						s0.7,0.8,0.9,1.3c0.2,0.5,0.4,1.1,0.4,1.8c0,0.1-0.1,0.3-0.2,0.4c-0.1,0.1-0.2,0.2-0.4,0.2h-7.2l-0.2-1h7.1l-0.2,0.2v-0.4
						c0-0.6-0.2-1-0.5-1.4c-0.3-0.4-0.7-0.7-1.1-0.9c-0.4-0.2-0.9-0.3-1.4-0.3c-0.4,0-0.7,0.1-1.1,0.2c-0.4,0.1-0.7,0.4-1,0.7
						c-0.3,0.3-0.6,0.7-0.7,1.2c-0.2,0.5-0.3,1-0.3,1.7c0,0.7,0.1,1.3,0.4,1.9s0.7,1,1.2,1.4s1.2,0.5,2,0.5c0.4,0,0.8-0.1,1.1-0.2
						c0.3-0.1,0.6-0.3,0.9-0.5c0.3-0.2,0.5-0.4,0.6-0.6c0.1-0.1,0.2-0.2,0.4-0.2s0.2,0,0.3,0.1c0.1,0.1,0.1,0.2,0.1,0.3
						c0,0.1-0.1,0.3-0.2,0.4c-0.4,0.4-0.8,0.8-1.4,1.1C243.8,44.3,243.2,44.5,242.5,44.5z"/>
					<path class="st7" d="M248.8,44.3c-0.2,0-0.3-0.1-0.4-0.2c-0.1-0.1-0.2-0.2-0.2-0.4v-8.1c0-0.1,0.1-0.3,0.2-0.4
						c0.1-0.1,0.2-0.2,0.4-0.2s0.3,0.1,0.4,0.2c0.1,0.1,0.2,0.2,0.2,0.4v2.7l-0.3,0.1c0-0.4,0.1-0.8,0.3-1.3s0.4-0.8,0.7-1.1
						c0.3-0.3,0.7-0.6,1.1-0.8s0.9-0.3,1.4-0.3c0.2,0,0.4,0,0.6,0.1c0.2,0.1,0.3,0.2,0.3,0.4c0,0.2,0,0.3-0.1,0.4
						c-0.1,0.1-0.2,0.1-0.3,0.1c-0.1,0-0.2,0-0.3-0.1c-0.1-0.1-0.3-0.1-0.5-0.1c-0.3,0-0.7,0.1-1,0.3s-0.6,0.5-0.9,0.8
						c-0.3,0.3-0.5,0.7-0.7,1.1s-0.2,0.8-0.2,1.3v4.4c0,0.1-0.1,0.3-0.2,0.4C249.1,44.2,249,44.3,248.8,44.3z"/>
					<path class="st7" d="M255.2,35.1h4.2c0.1,0,0.3,0.1,0.4,0.2s0.1,0.2,0.1,0.4c0,0.1,0,0.3-0.1,0.4c-0.1,0.1-0.2,0.1-0.4,0.1
						h-4.2c-0.1,0-0.3-0.1-0.4-0.2c-0.1-0.1-0.2-0.2-0.2-0.4c0-0.1,0.1-0.3,0.2-0.4C254.9,35.2,255.1,35.1,255.2,35.1z M257.1,32.6
						c0.2,0,0.3,0.1,0.4,0.2c0.1,0.1,0.2,0.2,0.2,0.4v9c0,0.3,0,0.6,0.1,0.8s0.2,0.3,0.4,0.3c0.1,0.1,0.3,0.1,0.4,0.1
						c0.1,0,0.2,0,0.3,0c0.1,0,0.2,0,0.3,0c0.1,0,0.2,0,0.3,0.1s0.1,0.2,0.1,0.3c0,0.2-0.1,0.3-0.3,0.4c-0.2,0.1-0.4,0.2-0.7,0.2
						c-0.1,0-0.3,0-0.5,0c-0.2,0-0.4-0.1-0.7-0.2c-0.2-0.1-0.4-0.3-0.6-0.6c-0.2-0.3-0.2-0.7-0.2-1.2v-9.1c0-0.1,0.1-0.3,0.2-0.4
						C256.8,32.6,256.9,32.6,257.1,32.6z"/>
					<path class="st7" d="M265.4,44.5c-0.9,0-1.8-0.2-2.5-0.6c-0.7-0.4-1.2-0.9-1.6-1.7c-0.4-0.7-0.6-1.5-0.6-2.5
						c0-1,0.2-1.9,0.6-2.6c0.4-0.7,0.9-1.3,1.6-1.7c0.6-0.4,1.3-0.6,2-0.6c0.5,0,1,0.1,1.5,0.3c0.5,0.2,0.9,0.5,1.3,0.8
						c0.4,0.4,0.7,0.8,0.9,1.3s0.4,1.1,0.4,1.8c0,0.1-0.1,0.3-0.2,0.4c-0.1,0.1-0.2,0.2-0.4,0.2h-7.2l-0.2-1h7.1l-0.2,0.2v-0.4
						c0-0.6-0.2-1-0.5-1.4c-0.3-0.4-0.7-0.7-1.1-0.9c-0.4-0.2-0.9-0.3-1.4-0.3c-0.4,0-0.7,0.1-1.1,0.2c-0.4,0.1-0.7,0.4-1,0.7
						c-0.3,0.3-0.6,0.7-0.7,1.2c-0.2,0.5-0.3,1-0.3,1.7c0,0.7,0.1,1.3,0.4,1.9c0.3,0.6,0.7,1,1.2,1.4c0.5,0.3,1.2,0.5,2,0.5
						c0.4,0,0.8-0.1,1.1-0.2c0.3-0.1,0.6-0.3,0.9-0.5c0.3-0.2,0.5-0.4,0.6-0.6c0.1-0.1,0.2-0.2,0.4-0.2c0.1,0,0.2,0,0.3,0.1
						c0.1,0.1,0.1,0.2,0.1,0.3c0,0.1-0.1,0.3-0.2,0.4c-0.4,0.4-0.8,0.8-1.4,1.1C266.7,44.3,266.1,44.5,265.4,44.5z"/>
					<path class="st7" d="M275.5,34.9c0.8,0,1.4,0.2,1.9,0.5c0.5,0.3,0.8,0.8,1,1.3c0.2,0.5,0.3,1.1,0.3,1.8v5.3
						c0,0.1-0.1,0.3-0.2,0.4c-0.1,0.1-0.2,0.2-0.4,0.2c-0.2,0-0.3-0.1-0.4-0.2c-0.1-0.1-0.2-0.2-0.2-0.4v-5.2c0-0.5-0.1-0.9-0.2-1.3
						c-0.2-0.4-0.4-0.7-0.8-0.9s-0.8-0.4-1.4-0.4c-0.5,0-1,0.1-1.5,0.4c-0.5,0.2-0.8,0.5-1.1,0.9c-0.3,0.4-0.4,0.8-0.4,1.3v5.2
						c0,0.1-0.1,0.3-0.2,0.4c-0.1,0.1-0.2,0.2-0.4,0.2c-0.2,0-0.3-0.1-0.4-0.2c-0.1-0.1-0.2-0.2-0.2-0.4v-8.1c0-0.1,0.1-0.3,0.2-0.4
						c0.1-0.1,0.2-0.2,0.4-0.2s0.3,0.1,0.4,0.2c0.1,0.1,0.2,0.2,0.2,0.4v1.5l-0.4,0.6c0-0.4,0.1-0.8,0.4-1.1c0.2-0.4,0.5-0.7,0.9-1
						s0.7-0.5,1.2-0.7S275.1,34.9,275.5,34.9z"/>
					<path class="st7" d="M290.6,44.5c-0.9,0-1.8-0.2-2.5-0.6c-0.7-0.4-1.3-0.9-1.6-1.7c-0.4-0.7-0.6-1.5-0.6-2.5
						c0-1,0.2-1.9,0.6-2.6s0.9-1.3,1.6-1.7c0.6-0.4,1.3-0.6,2-0.6c0.5,0,1,0.1,1.5,0.3c0.5,0.2,0.9,0.5,1.3,0.8
						c0.4,0.4,0.7,0.8,0.9,1.3c0.2,0.5,0.4,1.1,0.4,1.8c0,0.1-0.1,0.3-0.2,0.4c-0.1,0.1-0.2,0.2-0.4,0.2h-7.2l-0.2-1h7.1l-0.2,0.2
						v-0.4c0-0.6-0.2-1-0.5-1.4c-0.3-0.4-0.7-0.7-1.1-0.9s-0.9-0.3-1.4-0.3c-0.4,0-0.7,0.1-1.1,0.2c-0.4,0.1-0.7,0.4-1,0.7
						c-0.3,0.3-0.6,0.7-0.7,1.2c-0.2,0.5-0.3,1-0.3,1.7c0,0.7,0.1,1.3,0.4,1.9c0.3,0.6,0.7,1,1.2,1.4c0.5,0.3,1.2,0.5,2,0.5
						c0.4,0,0.8-0.1,1.1-0.2s0.6-0.3,0.9-0.5c0.3-0.2,0.5-0.4,0.6-0.6c0.1-0.1,0.2-0.2,0.4-0.2c0.1,0,0.2,0,0.3,0.1
						c0.1,0.1,0.1,0.2,0.1,0.3c0,0.1-0.1,0.3-0.2,0.4c-0.4,0.4-0.8,0.8-1.4,1.1C291.9,44.3,291.3,44.5,290.6,44.5z"/>
					<path class="st7" d="M297.6,43.8c0,0.1-0.1,0.3-0.2,0.4c-0.1,0.1-0.2,0.2-0.4,0.2c-0.2,0-0.3-0.1-0.4-0.2
						c-0.1-0.1-0.2-0.2-0.2-0.4V31.5c0-0.1,0.1-0.3,0.2-0.4c0.1-0.1,0.2-0.2,0.4-0.2c0.2,0,0.3,0.1,0.4,0.2c0.1,0.1,0.2,0.2,0.2,0.4
						V43.8z"/>
					<path class="st7" d="M312.9,35.1c0.2,0,0.3,0.1,0.4,0.2c0.1,0.1,0.2,0.2,0.2,0.4v8.1c0,0.1-0.1,0.3-0.2,0.4
						c-0.1,0.1-0.2,0.2-0.4,0.2c-0.2,0-0.3-0.1-0.4-0.2c-0.1-0.1-0.2-0.2-0.2-0.4v-2.1l0.3-0.1c0,0.3-0.1,0.7-0.3,1
						c-0.2,0.4-0.4,0.7-0.8,1c-0.3,0.3-0.7,0.5-1.1,0.7c-0.4,0.2-0.9,0.3-1.4,0.3c-0.8,0-1.5-0.2-2.2-0.6c-0.6-0.4-1.1-1-1.5-1.7
						c-0.4-0.7-0.6-1.6-0.6-2.5c0-0.9,0.2-1.8,0.6-2.5c0.4-0.7,0.9-1.3,1.5-1.7c0.6-0.4,1.4-0.6,2.1-0.6c0.5,0,1,0.1,1.4,0.3
						c0.4,0.2,0.8,0.4,1.2,0.7c0.3,0.3,0.6,0.7,0.8,1.1c0.2,0.4,0.3,0.8,0.3,1.3l-0.4-0.3v-2.3c0-0.2,0.1-0.3,0.2-0.4
						C312.6,35.2,312.7,35.1,312.9,35.1z M309.2,43.5c0.6,0,1.2-0.2,1.7-0.5s0.9-0.8,1.2-1.4c0.3-0.6,0.4-1.2,0.4-2
						c0-0.7-0.1-1.3-0.4-1.9c-0.3-0.6-0.7-1-1.2-1.3s-1.1-0.5-1.7-0.5c-0.6,0-1.2,0.2-1.7,0.5c-0.5,0.3-0.9,0.8-1.2,1.3
						c-0.3,0.6-0.4,1.2-0.4,1.9c0,0.7,0.1,1.4,0.4,2c0.3,0.6,0.7,1,1.2,1.4C308,43.3,308.5,43.5,309.2,43.5z"/>
					<path class="st7" d="M317.2,43.8c0,0.1-0.1,0.3-0.2,0.4c-0.1,0.1-0.2,0.2-0.4,0.2c-0.2,0-0.3-0.1-0.4-0.2
						c-0.1-0.1-0.2-0.2-0.2-0.4V31.5c0-0.1,0.1-0.3,0.2-0.4c0.1-0.1,0.2-0.2,0.4-0.2c0.2,0,0.3,0.1,0.4,0.2c0.1,0.1,0.2,0.2,0.2,0.4
						V43.8z"/>
					<path class="st7" d="M320.4,33.7c-0.3,0-0.4-0.1-0.6-0.2c-0.1-0.1-0.2-0.3-0.2-0.5v-0.2c0-0.2,0.1-0.4,0.2-0.5
						c0.1-0.1,0.3-0.2,0.6-0.2c0.2,0,0.4,0.1,0.5,0.2c0.1,0.1,0.2,0.3,0.2,0.5v0.2c0,0.2-0.1,0.4-0.2,0.5
						C320.9,33.7,320.7,33.7,320.4,33.7z M321,43.8c0,0.1-0.1,0.3-0.2,0.4c-0.1,0.1-0.2,0.2-0.4,0.2c-0.2,0-0.3-0.1-0.4-0.2
						c-0.1-0.1-0.1-0.2-0.1-0.4v-8.3c0-0.1,0.1-0.3,0.2-0.4c0.1-0.1,0.2-0.2,0.4-0.2s0.3,0.1,0.4,0.2c0.1,0.1,0.2,0.2,0.2,0.4V43.8z
						"/>
					<path class="st7" d="M327.7,35c0.7,0,1.4,0.2,1.9,0.6c0.5,0.4,0.9,1,1.1,1.7l-0.3,0.1l0.1-0.3c0.2-0.4,0.4-0.7,0.8-1
						s0.8-0.6,1.3-0.8c0.5-0.2,0.9-0.3,1.4-0.3c0.8,0,1.4,0.2,1.8,0.5c0.5,0.3,0.8,0.8,1,1.3c0.2,0.5,0.3,1.2,0.3,1.8v5.1
						c0,0.1-0.1,0.3-0.2,0.4c-0.1,0.1-0.2,0.2-0.4,0.2c-0.2,0-0.3-0.1-0.4-0.2c-0.1-0.1-0.1-0.2-0.1-0.4v-5c0-0.5-0.1-0.9-0.2-1.3
						c-0.2-0.4-0.4-0.7-0.7-1c-0.3-0.2-0.8-0.4-1.3-0.4c-0.5,0-1,0.1-1.4,0.4c-0.4,0.2-0.8,0.6-1.1,1s-0.4,0.9-0.4,1.3v5
						c0,0.1-0.1,0.3-0.2,0.4c-0.1,0.1-0.2,0.2-0.4,0.2s-0.3-0.1-0.4-0.2c-0.1-0.1-0.2-0.2-0.2-0.4v-5.1c0-0.5-0.1-0.9-0.2-1.3
						s-0.4-0.7-0.7-0.9c-0.3-0.2-0.8-0.4-1.3-0.4c-0.5,0-1,0.1-1.4,0.4c-0.4,0.2-0.8,0.6-1.1,0.9c-0.3,0.4-0.4,0.8-0.4,1.3v5.1
						c0,0.1-0.1,0.3-0.2,0.4c-0.1,0.1-0.2,0.2-0.4,0.2c-0.2,0-0.3-0.1-0.4-0.2c-0.1-0.1-0.2-0.2-0.2-0.4v-8.1c0-0.1,0.1-0.3,0.2-0.4
						c0.1-0.1,0.2-0.2,0.4-0.2s0.3,0.1,0.4,0.2c0.1,0.1,0.2,0.2,0.2,0.4v1.7l-0.5,0.7c0-0.4,0.2-0.7,0.4-1.1c0.2-0.4,0.5-0.7,0.8-1
						c0.3-0.3,0.7-0.5,1.1-0.7S327.3,35,327.7,35z"/>
					<path class="st7" d="M343.9,44.5c-0.9,0-1.8-0.2-2.5-0.6c-0.7-0.4-1.2-0.9-1.6-1.7c-0.4-0.7-0.6-1.5-0.6-2.5
						c0-1,0.2-1.9,0.6-2.6c0.4-0.7,0.9-1.3,1.6-1.7c0.6-0.4,1.3-0.6,2-0.6c0.5,0,1,0.1,1.5,0.3c0.5,0.2,0.9,0.5,1.3,0.8
						c0.4,0.4,0.7,0.8,0.9,1.3s0.4,1.1,0.4,1.8c0,0.1-0.1,0.3-0.2,0.4c-0.1,0.1-0.2,0.2-0.4,0.2h-7.2l-0.2-1h7.1l-0.2,0.2v-0.4
						c0-0.6-0.2-1-0.5-1.4c-0.3-0.4-0.7-0.7-1.1-0.9c-0.4-0.2-0.9-0.3-1.4-0.3c-0.4,0-0.7,0.1-1.1,0.2c-0.4,0.1-0.7,0.4-1,0.7
						c-0.3,0.3-0.6,0.7-0.7,1.2c-0.2,0.5-0.3,1-0.3,1.7c0,0.7,0.1,1.3,0.4,1.9c0.3,0.6,0.7,1,1.2,1.4c0.5,0.3,1.2,0.5,2,0.5
						c0.4,0,0.8-0.1,1.1-0.2c0.3-0.1,0.6-0.3,0.9-0.5c0.3-0.2,0.5-0.4,0.6-0.6c0.1-0.1,0.2-0.2,0.4-0.2c0.1,0,0.2,0,0.3,0.1
						c0.1,0.1,0.1,0.2,0.1,0.3c0,0.1-0.1,0.3-0.2,0.4c-0.4,0.4-0.8,0.8-1.4,1.1C345.3,44.3,344.6,44.5,343.9,44.5z"/>
					<path class="st7" d="M354.1,34.9c0.8,0,1.4,0.2,1.9,0.5c0.5,0.3,0.8,0.8,1,1.3c0.2,0.5,0.3,1.1,0.3,1.8v5.3
						c0,0.1-0.1,0.3-0.2,0.4c-0.1,0.1-0.2,0.2-0.4,0.2c-0.2,0-0.3-0.1-0.4-0.2c-0.1-0.1-0.2-0.2-0.2-0.4v-5.2c0-0.5-0.1-0.9-0.2-1.3
						c-0.2-0.4-0.4-0.7-0.8-0.9c-0.3-0.2-0.8-0.4-1.4-0.4c-0.5,0-1,0.1-1.5,0.4c-0.5,0.2-0.8,0.5-1.1,0.9c-0.3,0.4-0.4,0.8-0.4,1.3
						v5.2c0,0.1-0.1,0.3-0.2,0.4c-0.1,0.1-0.2,0.2-0.4,0.2c-0.2,0-0.3-0.1-0.4-0.2c-0.1-0.1-0.2-0.2-0.2-0.4v-8.1
						c0-0.1,0.1-0.3,0.2-0.4c0.1-0.1,0.2-0.2,0.4-0.2s0.3,0.1,0.4,0.2c0.1,0.1,0.2,0.2,0.2,0.4v1.5l-0.4,0.6c0-0.4,0.1-0.8,0.4-1.1
						c0.2-0.4,0.5-0.7,0.9-1c0.3-0.3,0.7-0.5,1.2-0.7S353.7,34.9,354.1,34.9z"/>
					<path class="st7" d="M359.1,35.1h4.2c0.1,0,0.3,0.1,0.4,0.2s0.1,0.2,0.1,0.4c0,0.1,0,0.3-0.1,0.4c-0.1,0.1-0.2,0.1-0.4,0.1
						h-4.2c-0.1,0-0.3-0.1-0.4-0.2c-0.1-0.1-0.2-0.2-0.2-0.4c0-0.1,0.1-0.3,0.2-0.4C358.8,35.2,359,35.1,359.1,35.1z M361,32.6
						c0.2,0,0.3,0.1,0.4,0.2c0.1,0.1,0.2,0.2,0.2,0.4v9c0,0.3,0,0.6,0.1,0.8s0.2,0.3,0.4,0.3c0.1,0.1,0.3,0.1,0.4,0.1
						c0.1,0,0.2,0,0.3,0c0.1,0,0.2,0,0.3,0c0.1,0,0.2,0,0.3,0.1s0.1,0.2,0.1,0.3c0,0.2-0.1,0.3-0.3,0.4c-0.2,0.1-0.4,0.2-0.7,0.2
						c-0.1,0-0.3,0-0.5,0c-0.2,0-0.4-0.1-0.7-0.2c-0.2-0.1-0.4-0.3-0.6-0.6c-0.2-0.3-0.2-0.7-0.2-1.2v-9.1c0-0.1,0.1-0.3,0.2-0.4
						C360.7,32.6,360.8,32.6,361,32.6z"/>
					<path class="st7" d="M373.7,39.7c0,0.9-0.2,1.7-0.6,2.5c-0.4,0.7-0.9,1.3-1.6,1.7s-1.5,0.6-2.3,0.6c-0.9,0-1.6-0.2-2.3-0.6
						c-0.7-0.4-1.2-1-1.6-1.7c-0.4-0.7-0.6-1.5-0.6-2.5c0-0.9,0.2-1.7,0.6-2.5c0.4-0.7,0.9-1.3,1.6-1.7c0.7-0.4,1.5-0.6,2.3-0.6
						c0.9,0,1.6,0.2,2.3,0.6s1.2,1,1.6,1.7C373.5,37.9,373.7,38.8,373.7,39.7z M372.6,39.7c0-0.7-0.2-1.4-0.5-2
						c-0.3-0.6-0.7-1-1.2-1.3c-0.5-0.3-1.1-0.5-1.8-0.5s-1.2,0.2-1.8,0.5c-0.5,0.3-0.9,0.8-1.2,1.3c-0.3,0.6-0.5,1.2-0.5,2
						c0,0.7,0.2,1.4,0.5,1.9c0.3,0.6,0.7,1,1.2,1.3c0.5,0.3,1.1,0.5,1.8,0.5s1.3-0.2,1.8-0.5s0.9-0.8,1.2-1.3
						C372.4,41.1,372.6,40.4,372.6,39.7z"/>
					<path class="st7" d="M384.9,44.5c-0.9,0-1.8-0.2-2.5-0.6c-0.7-0.4-1.2-0.9-1.6-1.7c-0.4-0.7-0.6-1.5-0.6-2.5
						c0-1,0.2-1.9,0.6-2.6c0.4-0.7,0.9-1.3,1.6-1.7c0.6-0.4,1.3-0.6,2-0.6c0.5,0,1,0.1,1.5,0.3c0.5,0.2,0.9,0.5,1.3,0.8
						c0.4,0.4,0.7,0.8,0.9,1.3s0.4,1.1,0.4,1.8c0,0.1-0.1,0.3-0.2,0.4c-0.1,0.1-0.2,0.2-0.4,0.2h-7.2l-0.2-1h7.1l-0.2,0.2v-0.4
						c0-0.6-0.2-1-0.5-1.4c-0.3-0.4-0.7-0.7-1.1-0.9c-0.4-0.2-0.9-0.3-1.4-0.3c-0.4,0-0.7,0.1-1.1,0.2c-0.4,0.1-0.7,0.4-1,0.7
						c-0.3,0.3-0.6,0.7-0.7,1.2c-0.2,0.5-0.3,1-0.3,1.7c0,0.7,0.1,1.3,0.4,1.9c0.3,0.6,0.7,1,1.2,1.4c0.5,0.3,1.2,0.5,2,0.5
						c0.4,0,0.8-0.1,1.1-0.2c0.3-0.1,0.6-0.3,0.9-0.5c0.3-0.2,0.5-0.4,0.6-0.6c0.1-0.1,0.2-0.2,0.4-0.2c0.1,0,0.2,0,0.3,0.1
						c0.1,0.1,0.1,0.2,0.1,0.3c0,0.1-0.1,0.3-0.2,0.4c-0.4,0.4-0.8,0.8-1.4,1.1C386.2,44.3,385.6,44.5,384.9,44.5z"/>
					<path class="st7" d="M395,34.9c0.8,0,1.4,0.2,1.9,0.5c0.5,0.3,0.8,0.8,1,1.3c0.2,0.5,0.3,1.1,0.3,1.8v5.3
						c0,0.1-0.1,0.3-0.2,0.4c-0.1,0.1-0.2,0.2-0.4,0.2c-0.2,0-0.3-0.1-0.4-0.2c-0.1-0.1-0.2-0.2-0.2-0.4v-5.2c0-0.5-0.1-0.9-0.2-1.3
						c-0.2-0.4-0.4-0.7-0.8-0.9s-0.8-0.4-1.4-0.4c-0.5,0-1,0.1-1.5,0.4c-0.5,0.2-0.8,0.5-1.1,0.9c-0.3,0.4-0.4,0.8-0.4,1.3v5.2
						c0,0.1-0.1,0.3-0.2,0.4c-0.1,0.1-0.2,0.2-0.4,0.2c-0.2,0-0.3-0.1-0.4-0.2c-0.1-0.1-0.2-0.2-0.2-0.4v-8.1c0-0.1,0.1-0.3,0.2-0.4
						c0.1-0.1,0.2-0.2,0.4-0.2s0.3,0.1,0.4,0.2c0.1,0.1,0.2,0.2,0.2,0.4v1.5l-0.4,0.6c0-0.4,0.1-0.8,0.4-1.1c0.2-0.4,0.5-0.7,0.9-1
						s0.7-0.5,1.2-0.7S394.6,34.9,395,34.9z"/>
					<path class="st7" d="M23.5,55.1c0.2,0,0.3,0.1,0.4,0.2c0.1,0.1,0.2,0.2,0.2,0.4v11.7c0,0.1-0.1,0.3-0.2,0.4
						c-0.1,0.1-0.2,0.2-0.4,0.2c-0.2,0-0.3-0.1-0.4-0.2c-0.1-0.1-0.2-0.2-0.2-0.4v-5.7l0.3-0.3c0,0.3-0.1,0.7-0.3,1.1
						c-0.2,0.4-0.4,0.7-0.8,1c-0.3,0.3-0.7,0.6-1.2,0.7c-0.4,0.2-0.9,0.3-1.4,0.3c-0.8,0-1.5-0.2-2.2-0.6s-1.1-1-1.5-1.7
						s-0.6-1.5-0.6-2.5c0-0.9,0.2-1.7,0.6-2.5c0.4-0.7,0.9-1.3,1.5-1.7s1.4-0.6,2.1-0.6c0.5,0,1,0.1,1.4,0.3
						c0.4,0.2,0.8,0.4,1.2,0.7c0.3,0.3,0.6,0.7,0.8,1.1s0.3,0.8,0.3,1.3l-0.4-0.3v-2.3c0-0.2,0.1-0.3,0.2-0.4
						C23.2,55.1,23.3,55.1,23.5,55.1z M19.7,63.5c0.6,0,1.2-0.2,1.7-0.5s0.9-0.8,1.2-1.3s0.4-1.2,0.4-2c0-0.7-0.1-1.4-0.4-1.9
						c-0.3-0.6-0.7-1-1.2-1.3c-0.5-0.3-1.1-0.5-1.7-0.5c-0.6,0-1.2,0.2-1.7,0.5c-0.5,0.3-0.9,0.8-1.2,1.3c-0.3,0.6-0.4,1.2-0.4,1.9
						s0.1,1.4,0.4,1.9c0.3,0.6,0.7,1,1.2,1.4S19.1,63.5,19.7,63.5z"/>
					<path class="st7" d="M33.5,55.2c0.2,0,0.3,0.1,0.4,0.2c0.1,0.1,0.2,0.2,0.2,0.4v5.1c0,1.2-0.3,2.1-1,2.7s-1.6,0.9-2.7,0.9
						c-1.1,0-2-0.3-2.7-0.9s-1-1.5-1-2.7v-5.1c0-0.1,0.1-0.3,0.2-0.4c0.1-0.1,0.2-0.2,0.4-0.2s0.3,0.1,0.4,0.2
						c0.1,0.1,0.2,0.2,0.2,0.4v5.1c0,0.9,0.2,1.5,0.7,2c0.5,0.4,1.1,0.7,1.9,0.7c0.8,0,1.5-0.2,1.9-0.7c0.5-0.5,0.7-1.1,0.7-2v-5.1
						c0-0.1,0.1-0.3,0.2-0.4C33.2,55.2,33.3,55.2,33.5,55.2z"/>
					<path class="st7" d="M37.1,53.7c-0.3,0-0.4-0.1-0.6-0.2c-0.1-0.1-0.2-0.3-0.2-0.5v-0.2c0-0.2,0.1-0.4,0.2-0.5
						c0.1-0.1,0.3-0.2,0.6-0.2c0.2,0,0.4,0.1,0.5,0.2c0.1,0.1,0.2,0.3,0.2,0.5v0.2c0,0.2-0.1,0.4-0.2,0.5
						C37.5,53.7,37.4,53.7,37.1,53.7z M37.7,63.8c0,0.1-0.1,0.3-0.2,0.4c-0.1,0.1-0.2,0.2-0.4,0.2c-0.2,0-0.3-0.1-0.4-0.2
						c-0.1-0.1-0.1-0.2-0.1-0.4v-8.3c0-0.1,0.1-0.3,0.2-0.4c0.1-0.1,0.2-0.2,0.4-0.2s0.3,0.1,0.4,0.2c0.1,0.1,0.2,0.2,0.2,0.4V63.8z
						"/>
					<path class="st7" d="M44.4,55c0.7,0,1.4,0.2,1.9,0.6c0.5,0.4,0.9,1,1.1,1.7l-0.3,0.1l0.1-0.3c0.2-0.4,0.4-0.7,0.8-1
						c0.4-0.3,0.8-0.6,1.3-0.8c0.5-0.2,0.9-0.3,1.4-0.3c0.8,0,1.4,0.2,1.8,0.5c0.5,0.3,0.8,0.8,1,1.3c0.2,0.5,0.3,1.2,0.3,1.8v5.1
						c0,0.1-0.1,0.3-0.2,0.4c-0.1,0.1-0.2,0.2-0.4,0.2c-0.2,0-0.3-0.1-0.4-0.2c-0.1-0.1-0.1-0.2-0.1-0.4v-5c0-0.5-0.1-0.9-0.2-1.3
						c-0.2-0.4-0.4-0.7-0.7-1C51.5,56.2,51,56,50.5,56c-0.5,0-1,0.1-1.4,0.4c-0.4,0.2-0.8,0.6-1.1,1c-0.3,0.4-0.4,0.9-0.4,1.3v5
						c0,0.1-0.1,0.3-0.2,0.4c-0.1,0.1-0.2,0.2-0.4,0.2s-0.3-0.1-0.4-0.2c-0.1-0.1-0.2-0.2-0.2-0.4v-5.1c0-0.5-0.1-0.9-0.2-1.3
						c-0.1-0.4-0.4-0.7-0.7-0.9c-0.3-0.2-0.8-0.4-1.3-0.4c-0.5,0-1,0.1-1.4,0.4c-0.4,0.2-0.8,0.6-1.1,0.9c-0.3,0.4-0.4,0.8-0.4,1.3
						v5.1c0,0.1-0.1,0.3-0.2,0.4c-0.1,0.1-0.2,0.2-0.4,0.2c-0.2,0-0.3-0.1-0.4-0.2c-0.1-0.1-0.2-0.2-0.2-0.4v-8.1
						c0-0.1,0.1-0.3,0.2-0.4c0.1-0.1,0.2-0.2,0.4-0.2s0.3,0.1,0.4,0.2c0.1,0.1,0.2,0.2,0.2,0.4v1.7L40.9,58c0-0.4,0.2-0.7,0.4-1.1
						c0.2-0.4,0.5-0.7,0.8-1c0.3-0.3,0.7-0.5,1.1-0.7S44,55,44.4,55z"/>
					<path class="st7" d="M65,59.7c0,0.9-0.2,1.7-0.6,2.5c-0.4,0.7-0.9,1.3-1.6,1.7c-0.7,0.4-1.5,0.6-2.3,0.6
						c-0.9,0-1.6-0.2-2.3-0.6s-1.2-1-1.6-1.7c-0.4-0.7-0.6-1.5-0.6-2.5c0-0.9,0.2-1.7,0.6-2.5c0.4-0.7,0.9-1.3,1.6-1.7
						s1.5-0.6,2.3-0.6c0.9,0,1.6,0.2,2.3,0.6c0.7,0.4,1.2,1,1.6,1.7C64.8,57.9,65,58.8,65,59.7z M63.9,59.7c0-0.7-0.2-1.4-0.5-2
						c-0.3-0.6-0.7-1-1.2-1.3c-0.5-0.3-1.1-0.5-1.8-0.5c-0.7,0-1.3,0.2-1.8,0.5c-0.5,0.3-0.9,0.8-1.2,1.3c-0.3,0.6-0.5,1.2-0.5,2
						c0,0.7,0.2,1.4,0.5,1.9c0.3,0.6,0.7,1,1.2,1.3c0.5,0.3,1.1,0.5,1.8,0.5c0.7,0,1.3-0.2,1.8-0.5c0.5-0.3,0.9-0.8,1.2-1.3
						C63.8,61.1,63.9,60.4,63.9,59.7z"/>
					<path class="st7" d="M68.4,64.2c0,0.3-0.1,0.5-0.2,0.8c-0.1,0.3-0.2,0.5-0.4,0.7c-0.2,0.2-0.4,0.4-0.5,0.5
						c-0.2,0.1-0.4,0.2-0.6,0.2c-0.1,0-0.2,0-0.3-0.1c-0.1-0.1-0.1-0.2-0.1-0.3c0-0.2,0.1-0.3,0.2-0.3c0.1,0,0.3-0.1,0.4-0.2
						c0.2-0.1,0.3-0.2,0.4-0.4c0.1-0.2,0.1-0.3,0.1-0.5c0-0.1,0-0.2-0.1-0.3s-0.2-0.1-0.3-0.1c-0.1,0-0.2,0-0.3,0
						c-0.1,0-0.2,0.1-0.2,0.1c-0.1-0.1-0.1-0.1-0.2-0.2c0-0.1-0.1-0.2-0.1-0.3c0-0.1,0.1-0.3,0.2-0.4c0.1-0.1,0.2-0.2,0.4-0.3
						c0.2-0.1,0.3-0.1,0.5-0.1c0.3,0,0.6,0.1,0.8,0.3C68.3,63.6,68.4,63.9,68.4,64.2z"/>
					<path class="st7" d="M76.6,63.8c0,0.1-0.1,0.3-0.2,0.4c-0.1,0.1-0.2,0.2-0.4,0.2c-0.2,0-0.3-0.1-0.4-0.2
						c-0.1-0.1-0.2-0.2-0.2-0.4V51.5c0-0.1,0.1-0.3,0.2-0.4c0.1-0.1,0.2-0.2,0.4-0.2c0.2,0,0.3,0.1,0.4,0.2c0.1,0.1,0.2,0.2,0.2,0.4
						V63.8z"/>
					<path class="st7" d="M86.9,55.1c0.2,0,0.3,0.1,0.4,0.2c0.1,0.1,0.2,0.2,0.2,0.4v8.1c0,0.1-0.1,0.3-0.2,0.4
						c-0.1,0.1-0.2,0.2-0.4,0.2c-0.2,0-0.3-0.1-0.4-0.2c-0.1-0.1-0.2-0.2-0.2-0.4v-2.1l0.3-0.1c0,0.3-0.1,0.7-0.3,1
						c-0.2,0.4-0.4,0.7-0.8,1c-0.3,0.3-0.7,0.5-1.1,0.7c-0.4,0.2-0.9,0.3-1.4,0.3c-0.8,0-1.5-0.2-2.2-0.6c-0.6-0.4-1.1-1-1.5-1.7
						c-0.4-0.7-0.5-1.6-0.5-2.5c0-0.9,0.2-1.8,0.6-2.5s0.9-1.3,1.5-1.7s1.4-0.6,2.1-0.6c0.5,0,1,0.1,1.4,0.3
						c0.5,0.2,0.8,0.4,1.2,0.7c0.3,0.3,0.6,0.7,0.8,1.1c0.2,0.4,0.3,0.8,0.3,1.3l-0.4-0.3v-2.3c0-0.2,0.1-0.3,0.2-0.4
						C86.6,55.2,86.7,55.1,86.9,55.1z M83.2,63.5c0.6,0,1.2-0.2,1.7-0.5s0.9-0.8,1.2-1.4c0.3-0.6,0.4-1.2,0.4-2
						c0-0.7-0.1-1.3-0.4-1.9s-0.7-1-1.2-1.3s-1.1-0.5-1.7-0.5c-0.6,0-1.2,0.2-1.7,0.5c-0.5,0.3-0.9,0.8-1.2,1.3s-0.4,1.2-0.4,1.9
						c0,0.7,0.1,1.4,0.4,2c0.3,0.6,0.7,1,1.2,1.4C81.9,63.3,82.5,63.5,83.2,63.5z"/>
					<path class="st7" d="M99.1,54.9c0.6,0,1.1,0.1,1.6,0.2c0.5,0.1,0.9,0.3,1.2,0.5s0.4,0.5,0.4,0.7c0,0.1,0,0.2-0.1,0.4
						c-0.1,0.1-0.2,0.2-0.4,0.2c-0.1,0-0.3,0-0.4-0.1c-0.1-0.1-0.2-0.2-0.3-0.3s-0.2-0.2-0.4-0.3c-0.2-0.1-0.4-0.2-0.7-0.2
						c-0.3-0.1-0.6-0.1-1-0.1c-0.7,0-1.3,0.2-1.8,0.5s-1,0.8-1.3,1.3c-0.3,0.6-0.5,1.2-0.5,1.9c0,0.7,0.1,1.4,0.4,1.9
						c0.3,0.6,0.7,1,1.2,1.4c0.5,0.3,1.1,0.5,1.8,0.5c0.5,0,0.9,0,1.1-0.1c0.3-0.1,0.5-0.2,0.7-0.3c0.2-0.1,0.4-0.3,0.5-0.4
						c0.1-0.1,0.2-0.2,0.4-0.2c0.1,0,0.3,0,0.3,0.1c0.1,0.1,0.1,0.2,0.1,0.4c0,0.2-0.1,0.4-0.4,0.6c-0.3,0.2-0.7,0.4-1.2,0.6
						s-1.1,0.3-1.7,0.3c-0.9,0-1.7-0.2-2.3-0.6s-1.2-1-1.6-1.7c-0.4-0.7-0.6-1.5-0.6-2.5c0-0.9,0.2-1.7,0.6-2.4
						c0.4-0.7,0.9-1.3,1.6-1.7C97.4,55.1,98.2,54.9,99.1,54.9z"/>
					<path class="st7" d="M111,55.2c0.2,0,0.3,0.1,0.4,0.2c0.1,0.1,0.2,0.2,0.2,0.4v5.1c0,1.2-0.3,2.1-1,2.7s-1.6,0.9-2.7,0.9
						c-1.1,0-2-0.3-2.7-0.9s-1-1.5-1-2.7v-5.1c0-0.1,0.1-0.3,0.2-0.4c0.1-0.1,0.2-0.2,0.4-0.2s0.3,0.1,0.4,0.2
						c0.1,0.1,0.2,0.2,0.2,0.4v5.1c0,0.9,0.2,1.5,0.7,2c0.5,0.4,1.1,0.7,1.9,0.7c0.8,0,1.5-0.2,1.9-0.7c0.5-0.5,0.7-1.1,0.7-2v-5.1
						c0-0.1,0.1-0.3,0.2-0.4C110.7,55.2,110.9,55.2,111,55.2z"/>
					<path class="st7" d="M121.7,55.1c0.2,0,0.3,0.1,0.4,0.2c0.1,0.1,0.2,0.2,0.2,0.4v8.1c0,0.1-0.1,0.3-0.2,0.4
						c-0.1,0.1-0.2,0.2-0.4,0.2c-0.2,0-0.3-0.1-0.4-0.2c-0.1-0.1-0.2-0.2-0.2-0.4v-2.1l0.3-0.1c0,0.3-0.1,0.7-0.3,1
						c-0.2,0.4-0.4,0.7-0.8,1c-0.3,0.3-0.7,0.5-1.1,0.7c-0.4,0.2-0.9,0.3-1.4,0.3c-0.8,0-1.5-0.2-2.2-0.6c-0.6-0.4-1.1-1-1.5-1.7
						c-0.4-0.7-0.5-1.6-0.5-2.5c0-0.9,0.2-1.8,0.6-2.5s0.9-1.3,1.5-1.7s1.4-0.6,2.1-0.6c0.5,0,1,0.1,1.4,0.3
						c0.5,0.2,0.8,0.4,1.2,0.7c0.3,0.3,0.6,0.7,0.8,1.1c0.2,0.4,0.3,0.8,0.3,1.3l-0.4-0.3v-2.3c0-0.2,0.1-0.3,0.2-0.4
						C121.4,55.2,121.6,55.1,121.7,55.1z M118,63.5c0.6,0,1.2-0.2,1.7-0.5s0.9-0.8,1.2-1.4c0.3-0.6,0.4-1.2,0.4-2
						c0-0.7-0.1-1.3-0.4-1.9s-0.7-1-1.2-1.3s-1.1-0.5-1.7-0.5c-0.6,0-1.2,0.2-1.7,0.5c-0.5,0.3-0.9,0.8-1.2,1.3s-0.4,1.2-0.4,1.9
						c0,0.7,0.1,1.4,0.4,2c0.3,0.6,0.7,1,1.2,1.4C116.8,63.3,117.4,63.5,118,63.5z"/>
					<path class="st7" d="M126.1,63.8c0,0.1-0.1,0.3-0.2,0.4c-0.1,0.1-0.2,0.2-0.4,0.2c-0.2,0-0.3-0.1-0.4-0.2
						c-0.1-0.1-0.2-0.2-0.2-0.4V51.5c0-0.1,0.1-0.3,0.2-0.4c0.1-0.1,0.2-0.2,0.4-0.2c0.2,0,0.3,0.1,0.4,0.2c0.1,0.1,0.2,0.2,0.2,0.4
						V63.8z"/>
					<path class="st7" d="M138.3,55c0.8,0,1.5,0.2,2.2,0.6s1.1,1,1.5,1.7s0.6,1.5,0.6,2.4s-0.2,1.7-0.6,2.4s-0.9,1.3-1.5,1.7
						c-0.6,0.4-1.3,0.6-2.1,0.6c-0.4,0-0.8-0.1-1.2-0.2c-0.4-0.1-0.7-0.3-1-0.5c-0.3-0.2-0.6-0.5-0.8-0.8s-0.4-0.6-0.6-0.9l0.3-0.3
						v5.6c0,0.1-0.1,0.3-0.2,0.4c-0.1,0.1-0.2,0.2-0.4,0.2s-0.3-0.1-0.4-0.2c-0.1-0.1-0.2-0.2-0.2-0.4V55.6c0-0.2,0.1-0.3,0.2-0.4
						c0.1-0.1,0.2-0.2,0.4-0.2c0.2,0,0.3,0.1,0.4,0.2c0.1,0.1,0.2,0.2,0.2,0.4v1.9l-0.3-0.1c0.1-0.4,0.3-0.7,0.5-1
						c0.2-0.3,0.5-0.5,0.8-0.8c0.3-0.2,0.7-0.4,1-0.5C137.5,55.1,137.9,55,138.3,55z M138.2,56c-0.6,0-1.2,0.2-1.7,0.5
						c-0.5,0.3-0.9,0.8-1.2,1.3c-0.3,0.5-0.4,1.2-0.4,1.9c0,0.7,0.1,1.3,0.4,1.9c0.3,0.6,0.7,1,1.2,1.3c0.5,0.3,1.1,0.5,1.7,0.5
						c0.6,0,1.2-0.2,1.7-0.5c0.5-0.3,0.9-0.8,1.2-1.3c0.3-0.6,0.4-1.2,0.4-1.9s-0.1-1.3-0.4-1.9c-0.3-0.6-0.7-1-1.2-1.3
						C139.4,56.2,138.8,56,138.2,56z"/>
					<path class="st7" d="M152.2,55.1c0.2,0,0.3,0.1,0.4,0.2c0.1,0.1,0.2,0.2,0.2,0.4v8.1c0,0.1-0.1,0.3-0.2,0.4
						c-0.1,0.1-0.2,0.2-0.4,0.2c-0.2,0-0.3-0.1-0.4-0.2c-0.1-0.1-0.2-0.2-0.2-0.4v-2.1l0.3-0.1c0,0.3-0.1,0.7-0.3,1
						c-0.2,0.4-0.4,0.7-0.8,1c-0.3,0.3-0.7,0.5-1.1,0.7c-0.4,0.2-0.9,0.3-1.4,0.3c-0.8,0-1.5-0.2-2.2-0.6c-0.6-0.4-1.1-1-1.5-1.7
						c-0.4-0.7-0.5-1.6-0.5-2.5c0-0.9,0.2-1.8,0.6-2.5s0.9-1.3,1.5-1.7s1.4-0.6,2.1-0.6c0.5,0,1,0.1,1.4,0.3
						c0.5,0.2,0.8,0.4,1.2,0.7c0.3,0.3,0.6,0.7,0.8,1.1c0.2,0.4,0.3,0.8,0.3,1.3l-0.4-0.3v-2.3c0-0.2,0.1-0.3,0.2-0.4
						C151.9,55.2,152,55.1,152.2,55.1z M148.4,63.5c0.6,0,1.2-0.2,1.7-0.5s0.9-0.8,1.2-1.4c0.3-0.6,0.4-1.2,0.4-2
						c0-0.7-0.1-1.3-0.4-1.9s-0.7-1-1.2-1.3s-1.1-0.5-1.7-0.5c-0.6,0-1.2,0.2-1.7,0.5c-0.5,0.3-0.9,0.8-1.2,1.3s-0.4,1.2-0.4,1.9
						c0,0.7,0.1,1.4,0.4,2c0.3,0.6,0.7,1,1.2,1.4C147.2,63.3,147.8,63.5,148.4,63.5z"/>
					<path class="st7" d="M154.8,62.8c-0.1-0.1-0.1-0.3-0.1-0.4s0.1-0.2,0.2-0.3c0.1-0.1,0.2-0.1,0.3-0.1c0.1,0,0.2,0.1,0.4,0.2
						c0.3,0.4,0.7,0.8,1.2,1s1,0.4,1.6,0.4c0.3,0,0.7-0.1,1-0.2c0.3-0.1,0.6-0.3,0.8-0.5c0.2-0.2,0.3-0.5,0.3-0.9
						c0-0.4-0.1-0.7-0.3-0.9c-0.2-0.2-0.5-0.4-0.8-0.5c-0.3-0.1-0.7-0.3-1.1-0.4c-0.4-0.1-0.8-0.2-1.2-0.4s-0.7-0.3-1-0.5
						s-0.5-0.5-0.7-0.8s-0.3-0.7-0.3-1.1c0-0.5,0.1-0.9,0.4-1.3c0.3-0.4,0.6-0.7,1.1-0.9c0.5-0.2,1-0.3,1.6-0.3c0.3,0,0.6,0,1,0.1
						c0.3,0.1,0.7,0.2,1,0.4s0.6,0.4,0.9,0.7c0.1,0.1,0.2,0.2,0.2,0.4s-0.1,0.3-0.2,0.4c-0.1,0.1-0.2,0.1-0.3,0.1
						c-0.1,0-0.2-0.1-0.3-0.2c-0.3-0.3-0.6-0.6-1-0.7c-0.4-0.2-0.8-0.2-1.3-0.2c-0.3,0-0.7,0.1-1,0.2c-0.3,0.1-0.6,0.3-0.8,0.5
						c-0.2,0.2-0.3,0.5-0.3,0.9c0,0.3,0.1,0.6,0.4,0.8c0.2,0.2,0.5,0.4,0.9,0.5c0.4,0.1,0.8,0.3,1.2,0.4c0.4,0.1,0.8,0.2,1.1,0.3
						c0.4,0.1,0.7,0.3,0.9,0.5c0.3,0.2,0.5,0.4,0.6,0.7s0.2,0.7,0.2,1.1c0,0.5-0.1,1-0.4,1.4s-0.7,0.7-1.2,0.9
						c-0.5,0.2-1,0.3-1.6,0.3c-0.6,0-1.3-0.1-1.9-0.4C155.8,63.8,155.3,63.4,154.8,62.8z"/>
					<path class="st7" d="M171.1,55.1c0.2,0,0.3,0.1,0.4,0.2c0.1,0.1,0.2,0.2,0.2,0.4v8.1c0,0.1-0.1,0.3-0.2,0.4
						c-0.1,0.1-0.2,0.2-0.4,0.2c-0.2,0-0.3-0.1-0.4-0.2c-0.1-0.1-0.2-0.2-0.2-0.4v-2.1l0.3-0.1c0,0.3-0.1,0.7-0.3,1
						c-0.2,0.4-0.4,0.7-0.8,1c-0.3,0.3-0.7,0.5-1.1,0.7c-0.4,0.2-0.9,0.3-1.4,0.3c-0.8,0-1.5-0.2-2.2-0.6c-0.6-0.4-1.1-1-1.5-1.7
						c-0.4-0.7-0.5-1.6-0.5-2.5c0-0.9,0.2-1.8,0.6-2.5s0.9-1.3,1.5-1.7s1.4-0.6,2.1-0.6c0.5,0,1,0.1,1.4,0.3
						c0.5,0.2,0.8,0.4,1.2,0.7c0.3,0.3,0.6,0.7,0.8,1.1c0.2,0.4,0.3,0.8,0.3,1.3l-0.4-0.3v-2.3c0-0.2,0.1-0.3,0.2-0.4
						C170.8,55.2,170.9,55.1,171.1,55.1z M167.3,63.5c0.6,0,1.2-0.2,1.7-0.5s0.9-0.8,1.2-1.4c0.3-0.6,0.4-1.2,0.4-2
						c0-0.7-0.1-1.3-0.4-1.9s-0.7-1-1.2-1.3s-1.1-0.5-1.7-0.5c-0.6,0-1.2,0.2-1.7,0.5c-0.5,0.3-0.9,0.8-1.2,1.3s-0.4,1.2-0.4,1.9
						c0,0.7,0.1,1.4,0.4,2c0.3,0.6,0.7,1,1.2,1.4C166.1,63.3,166.7,63.5,167.3,63.5z"/>
					<path class="st7" d="M186.8,55.1c0.2,0,0.3,0.1,0.4,0.2c0.1,0.1,0.2,0.2,0.2,0.4v8.1c0,0.1-0.1,0.3-0.2,0.4
						c-0.1,0.1-0.2,0.2-0.4,0.2c-0.2,0-0.3-0.1-0.4-0.2c-0.1-0.1-0.2-0.2-0.2-0.4v-2.1l0.3-0.1c0,0.3-0.1,0.7-0.3,1
						c-0.2,0.4-0.4,0.7-0.8,1c-0.3,0.3-0.7,0.5-1.1,0.7c-0.4,0.2-0.9,0.3-1.4,0.3c-0.8,0-1.5-0.2-2.2-0.6c-0.6-0.4-1.1-1-1.5-1.7
						c-0.4-0.7-0.5-1.6-0.5-2.5c0-0.9,0.2-1.8,0.6-2.5s0.9-1.3,1.5-1.7s1.4-0.6,2.1-0.6c0.5,0,1,0.1,1.4,0.3
						c0.5,0.2,0.8,0.4,1.2,0.7c0.3,0.3,0.6,0.7,0.8,1.1c0.2,0.4,0.3,0.8,0.3,1.3l-0.4-0.3v-2.3c0-0.2,0.1-0.3,0.2-0.4
						C186.5,55.2,186.7,55.1,186.8,55.1z M183.1,63.5c0.6,0,1.2-0.2,1.7-0.5s0.9-0.8,1.2-1.4c0.3-0.6,0.4-1.2,0.4-2
						c0-0.7-0.1-1.3-0.4-1.9s-0.7-1-1.2-1.3s-1.1-0.5-1.7-0.5c-0.6,0-1.2,0.2-1.7,0.5c-0.5,0.3-0.9,0.8-1.2,1.3s-0.4,1.2-0.4,1.9
						c0,0.7,0.1,1.4,0.4,2c0.3,0.6,0.7,1,1.2,1.4C181.9,63.3,182.5,63.5,183.1,63.5z"/>
					<path class="st7" d="M191.2,63.8c0,0.1-0.1,0.3-0.2,0.4c-0.1,0.1-0.2,0.2-0.4,0.2c-0.2,0-0.3-0.1-0.4-0.2
						c-0.1-0.1-0.2-0.2-0.2-0.4V51.5c0-0.1,0.1-0.3,0.2-0.4c0.1-0.1,0.2-0.2,0.4-0.2c0.2,0,0.3,0.1,0.4,0.2c0.1,0.1,0.2,0.2,0.2,0.4
						V63.8z"/>
					<path class="st7" d="M199.7,53.5c-0.4,0-0.7-0.1-0.9-0.2s-0.3-0.4-0.3-0.7v-0.3c0-0.3,0.1-0.6,0.3-0.7c0.2-0.1,0.5-0.2,0.9-0.2
						c0.4,0,0.7,0.1,0.9,0.2c0.2,0.1,0.3,0.4,0.3,0.7v0.3c0,0.3-0.1,0.6-0.3,0.7C200.4,53.4,200.1,53.5,199.7,53.5z M200.8,63.2
						c0,0.3-0.1,0.6-0.3,0.8c-0.2,0.2-0.5,0.3-0.8,0.3c-0.3,0-0.6-0.1-0.8-0.3c-0.2-0.2-0.3-0.5-0.3-0.8v-7.4c0-0.3,0.1-0.6,0.3-0.8
						c0.2-0.2,0.5-0.3,0.8-0.3c0.3,0,0.6,0.1,0.8,0.3c0.2,0.2,0.3,0.5,0.3,0.8V63.2z"/>
					<path class="st7" d="M208,54.5c0.9,0,1.6,0.2,2,0.6s0.8,0.9,1,1.5s0.3,1.3,0.3,2.1v4.6c0,0.3-0.1,0.6-0.3,0.8
						c-0.2,0.2-0.5,0.3-0.8,0.3c-0.3,0-0.6-0.1-0.8-0.3c-0.2-0.2-0.3-0.5-0.3-0.8v-4.6c0-0.4-0.1-0.8-0.2-1.1
						c-0.1-0.3-0.3-0.6-0.5-0.8c-0.3-0.2-0.6-0.3-1.1-0.3c-0.5,0-0.9,0.1-1.2,0.3c-0.3,0.2-0.6,0.4-0.8,0.8
						c-0.2,0.3-0.3,0.7-0.3,1.1v4.6c0,0.3-0.1,0.6-0.3,0.8c-0.2,0.2-0.5,0.3-0.8,0.3c-0.3,0-0.6-0.1-0.8-0.3
						c-0.2-0.2-0.3-0.5-0.3-0.8v-7.4c0-0.3,0.1-0.6,0.3-0.8c0.2-0.2,0.5-0.3,0.8-0.3c0.3,0,0.6,0.1,0.8,0.3c0.2,0.2,0.3,0.5,0.3,0.8
						v0.8l-0.3-0.1c0.1-0.2,0.3-0.4,0.5-0.7c0.2-0.2,0.4-0.5,0.7-0.7c0.3-0.2,0.6-0.4,0.9-0.5C207.2,54.5,207.6,54.5,208,54.5z"/>
					<path class="st7" d="M213.2,54.8h4.3c0.3,0,0.5,0.1,0.7,0.3c0.2,0.2,0.3,0.4,0.3,0.7c0,0.3-0.1,0.5-0.3,0.7
						c-0.2,0.2-0.4,0.3-0.7,0.3h-4.3c-0.3,0-0.5-0.1-0.7-0.3c-0.2-0.2-0.3-0.4-0.3-0.7c0-0.3,0.1-0.5,0.3-0.7
						C212.7,54.9,212.9,54.8,213.2,54.8z M215.1,52.6c0.3,0,0.6,0.1,0.8,0.3c0.2,0.2,0.3,0.5,0.3,0.8v8c0,0.2,0,0.3,0.1,0.4
						c0.1,0.1,0.2,0.2,0.3,0.2c0.1,0,0.2,0.1,0.4,0.1c0.1,0,0.3,0,0.4-0.1c0.1-0.1,0.3-0.1,0.4-0.1c0.2,0,0.3,0.1,0.5,0.2
						c0.1,0.2,0.2,0.4,0.2,0.6c0,0.3-0.2,0.6-0.5,0.8s-0.8,0.3-1.2,0.3c-0.3,0-0.5,0-0.8-0.1c-0.3,0-0.6-0.1-0.9-0.3
						c-0.3-0.2-0.5-0.4-0.7-0.7s-0.3-0.8-0.3-1.4v-8.1c0-0.3,0.1-0.6,0.3-0.8S214.8,52.6,215.1,52.6z"/>
					<path class="st7" d="M224.3,64.5c-1,0-1.9-0.2-2.7-0.6s-1.3-1-1.7-1.7c-0.4-0.7-0.6-1.6-0.6-2.5c0-1.1,0.2-2,0.7-2.8
						c0.4-0.8,1-1.3,1.7-1.8c0.7-0.4,1.5-0.6,2.2-0.6c0.6,0,1.2,0.1,1.7,0.4s1,0.6,1.4,1c0.4,0.4,0.8,0.9,1,1.5
						c0.2,0.6,0.4,1.2,0.4,1.8c0,0.3-0.1,0.5-0.3,0.7s-0.5,0.3-0.8,0.3h-6.9l-0.5-1.8h6.6l-0.4,0.4v-0.5c0-0.3-0.1-0.7-0.4-0.9
						c-0.2-0.3-0.5-0.5-0.8-0.7s-0.7-0.2-1.1-0.2c-0.4,0-0.7,0-1,0.1c-0.3,0.1-0.6,0.3-0.8,0.5c-0.2,0.2-0.4,0.5-0.5,0.9
						c-0.1,0.4-0.2,0.9-0.2,1.5c0,0.6,0.1,1.2,0.4,1.6c0.3,0.5,0.6,0.8,1,1c0.4,0.2,0.9,0.4,1.4,0.4c0.4,0,0.8,0,1.1-0.1
						c0.3-0.1,0.5-0.2,0.6-0.3s0.3-0.2,0.4-0.3c0.2-0.1,0.4-0.2,0.6-0.2c0.3,0,0.5,0.1,0.7,0.3c0.2,0.2,0.3,0.4,0.3,0.6
						c0,0.3-0.2,0.6-0.5,0.9c-0.3,0.3-0.8,0.5-1.3,0.7C225.5,64.4,224.9,64.5,224.3,64.5z"/>
					<path class="st7" d="M229.7,62.8c-0.1-0.2-0.2-0.4-0.2-0.6c0-0.3,0.2-0.5,0.5-0.7c0.2-0.1,0.4-0.2,0.6-0.2
						c0.2,0,0.4,0.1,0.6,0.3c0.3,0.3,0.7,0.6,1.1,0.8c0.4,0.2,0.9,0.3,1.4,0.3c0.2,0,0.4,0,0.6-0.1s0.4-0.1,0.6-0.3s0.2-0.4,0.2-0.7
						c0-0.3-0.1-0.5-0.3-0.6c-0.2-0.2-0.4-0.3-0.7-0.4c-0.3-0.1-0.6-0.2-1-0.3c-0.4-0.1-0.8-0.2-1.1-0.4c-0.4-0.1-0.7-0.3-1.1-0.5
						c-0.3-0.2-0.6-0.5-0.8-0.8c-0.2-0.3-0.3-0.8-0.3-1.3c0-0.6,0.2-1.1,0.5-1.5s0.8-0.7,1.3-1c0.5-0.2,1.1-0.3,1.7-0.3
						c0.4,0,0.8,0,1.2,0.1c0.4,0.1,0.8,0.2,1.2,0.4s0.7,0.5,0.9,0.8c0.1,0.2,0.2,0.4,0.2,0.6c0,0.3-0.1,0.5-0.3,0.7
						c-0.2,0.1-0.4,0.2-0.6,0.2c-0.2,0-0.4-0.1-0.6-0.2c-0.2-0.3-0.5-0.5-0.8-0.6c-0.3-0.2-0.7-0.2-1.2-0.2c-0.2,0-0.4,0-0.6,0.1
						c-0.2,0-0.4,0.1-0.5,0.3s-0.2,0.4-0.2,0.7c0,0.3,0.1,0.5,0.3,0.7c0.2,0.2,0.4,0.3,0.7,0.4c0.3,0.1,0.6,0.2,1,0.3
						c0.4,0.1,0.7,0.2,1.1,0.3c0.4,0.1,0.7,0.3,1,0.5c0.3,0.2,0.6,0.5,0.8,0.8s0.3,0.8,0.3,1.3c0,0.6-0.2,1.1-0.5,1.6
						c-0.4,0.4-0.8,0.8-1.3,1c-0.5,0.2-1.1,0.3-1.7,0.3c-0.7,0-1.4-0.1-2.1-0.4C230.7,63.9,230.2,63.4,229.7,62.8z"/>
					<path class="st7" d="M239,54.8h4.3c0.3,0,0.5,0.1,0.7,0.3c0.2,0.2,0.3,0.4,0.3,0.7c0,0.3-0.1,0.5-0.3,0.7
						c-0.2,0.2-0.4,0.3-0.7,0.3H239c-0.3,0-0.5-0.1-0.7-0.3c-0.2-0.2-0.3-0.4-0.3-0.7c0-0.3,0.1-0.5,0.3-0.7
						C238.5,54.9,238.7,54.8,239,54.8z M240.9,52.6c0.3,0,0.6,0.1,0.8,0.3c0.2,0.2,0.3,0.5,0.3,0.8v8c0,0.2,0,0.3,0.1,0.4
						c0.1,0.1,0.2,0.2,0.3,0.2c0.1,0,0.2,0.1,0.4,0.1c0.1,0,0.3,0,0.4-0.1c0.1-0.1,0.3-0.1,0.4-0.1c0.2,0,0.3,0.1,0.5,0.2
						c0.1,0.2,0.2,0.4,0.2,0.6c0,0.3-0.2,0.6-0.5,0.8s-0.8,0.3-1.2,0.3c-0.3,0-0.5,0-0.8-0.1c-0.3,0-0.6-0.1-0.9-0.3
						c-0.3-0.2-0.5-0.4-0.7-0.7s-0.3-0.8-0.3-1.4v-8.1c0-0.3,0.1-0.6,0.3-0.8S240.6,52.6,240.9,52.6z"/>
					<path class="st7" d="M247,53.5c-0.4,0-0.7-0.1-0.9-0.2s-0.3-0.4-0.3-0.7v-0.3c0-0.3,0.1-0.6,0.3-0.7c0.2-0.1,0.5-0.2,0.9-0.2
						c0.4,0,0.7,0.1,0.9,0.2c0.2,0.1,0.3,0.4,0.3,0.7v0.3c0,0.3-0.1,0.6-0.3,0.7C247.7,53.4,247.4,53.5,247,53.5z M248.1,63.2
						c0,0.3-0.1,0.6-0.3,0.8c-0.2,0.2-0.5,0.3-0.8,0.3c-0.3,0-0.6-0.1-0.8-0.3c-0.2-0.2-0.3-0.5-0.3-0.8v-7.4c0-0.3,0.1-0.6,0.3-0.8
						c0.2-0.2,0.5-0.3,0.8-0.3c0.3,0,0.6,0.1,0.8,0.3c0.2,0.2,0.3,0.5,0.3,0.8V63.2z"/>
					<path class="st7" d="M255.3,54.5c0.9,0,1.6,0.2,2,0.6c0.5,0.4,0.8,0.9,1,1.5s0.3,1.3,0.3,2.1v4.6c0,0.3-0.1,0.6-0.3,0.8
						c-0.2,0.2-0.5,0.3-0.8,0.3c-0.3,0-0.6-0.1-0.8-0.3c-0.2-0.2-0.3-0.5-0.3-0.8v-4.6c0-0.4-0.1-0.8-0.2-1.1
						c-0.1-0.3-0.3-0.6-0.5-0.8c-0.3-0.2-0.6-0.3-1.1-0.3c-0.5,0-0.9,0.1-1.2,0.3c-0.3,0.2-0.6,0.4-0.8,0.8
						c-0.2,0.3-0.3,0.7-0.3,1.1v4.6c0,0.3-0.1,0.6-0.3,0.8c-0.2,0.2-0.5,0.3-0.8,0.3c-0.3,0-0.6-0.1-0.8-0.3
						c-0.2-0.2-0.3-0.5-0.3-0.8v-7.4c0-0.3,0.1-0.6,0.3-0.8c0.2-0.2,0.5-0.3,0.8-0.3c0.3,0,0.6,0.1,0.8,0.3c0.2,0.2,0.3,0.5,0.3,0.8
						v0.8l-0.3-0.1c0.1-0.2,0.3-0.4,0.5-0.7c0.2-0.2,0.4-0.5,0.7-0.7c0.3-0.2,0.6-0.4,0.9-0.5S254.9,54.5,255.3,54.5z"/>
					<path class="st7" d="M270,59.5c0,1-0.2,1.9-0.7,2.6s-1,1.3-1.8,1.8s-1.6,0.6-2.5,0.6c-0.9,0-1.7-0.2-2.5-0.6
						c-0.7-0.4-1.3-1-1.8-1.8s-0.7-1.6-0.7-2.6c0-1,0.2-1.9,0.7-2.6s1-1.3,1.8-1.8c0.7-0.4,1.6-0.6,2.5-0.6c0.9,0,1.7,0.2,2.5,0.6
						s1.3,1,1.8,1.8S270,58.5,270,59.5z M267.8,59.5c0-0.6-0.1-1.1-0.4-1.6c-0.2-0.4-0.6-0.8-1-1.1s-0.9-0.4-1.4-0.4s-1,0.1-1.4,0.4
						s-0.7,0.6-1,1.1c-0.2,0.5-0.4,1-0.4,1.6c0,0.6,0.1,1.1,0.4,1.6c0.2,0.5,0.6,0.8,1,1.1s0.9,0.4,1.4,0.4s1-0.1,1.4-0.4
						s0.7-0.6,1-1.1C267.7,60.6,267.8,60.1,267.8,59.5z"/>
					<path class="st7" d="M284.6,51c0.3,0,0.6,0.1,0.8,0.3c0.2,0.2,0.3,0.5,0.3,0.8v11.1c0,0.3-0.1,0.6-0.3,0.8
						c-0.2,0.2-0.5,0.3-0.8,0.3s-0.6-0.1-0.8-0.3c-0.2-0.2-0.3-0.5-0.3-0.8v-0.9l0.4,0.2c0,0.2-0.1,0.3-0.3,0.6
						c-0.2,0.2-0.4,0.4-0.7,0.7c-0.3,0.2-0.6,0.4-1,0.5c-0.4,0.1-0.8,0.2-1.3,0.2c-0.8,0-1.6-0.2-2.2-0.6s-1.2-1-1.6-1.8
						c-0.4-0.8-0.6-1.6-0.6-2.6c0-1,0.2-1.9,0.6-2.6c0.4-0.8,0.9-1.3,1.6-1.8s1.4-0.6,2.2-0.6c0.5,0,1,0.1,1.4,0.2
						c0.4,0.2,0.8,0.4,1.1,0.6c0.3,0.2,0.6,0.5,0.7,0.7s0.3,0.5,0.3,0.6l-0.6,0.2v-4.8c0-0.3,0.1-0.6,0.3-0.8
						C284,51.1,284.3,51,284.6,51z M281,62.5c0.5,0,1-0.1,1.4-0.4c0.4-0.3,0.7-0.6,0.9-1.1c0.2-0.5,0.3-1,0.3-1.5
						c0-0.6-0.1-1.1-0.3-1.5c-0.2-0.5-0.5-0.8-0.9-1.1c-0.4-0.3-0.9-0.4-1.4-0.4c-0.5,0-1,0.1-1.4,0.4c-0.4,0.3-0.7,0.6-0.9,1.1
						s-0.3,1-0.3,1.5c0,0.6,0.1,1.1,0.3,1.5c0.2,0.5,0.5,0.8,0.9,1.1C280,62.4,280.5,62.5,281,62.5z"/>
					<path class="st7" d="M292.4,64.5c-1,0-1.9-0.2-2.7-0.6s-1.3-1-1.7-1.7c-0.4-0.7-0.6-1.6-0.6-2.5c0-1.1,0.2-2,0.7-2.8
						c0.4-0.8,1-1.3,1.7-1.8c0.7-0.4,1.5-0.6,2.2-0.6c0.6,0,1.2,0.1,1.7,0.4c0.5,0.3,1,0.6,1.4,1c0.4,0.4,0.8,0.9,1,1.5
						s0.4,1.2,0.4,1.8c0,0.3-0.1,0.5-0.3,0.7c-0.2,0.2-0.5,0.3-0.8,0.3h-6.9l-0.5-1.8h6.6l-0.4,0.4v-0.5c0-0.3-0.1-0.7-0.4-0.9
						c-0.2-0.3-0.5-0.5-0.8-0.7s-0.7-0.2-1.1-0.2c-0.4,0-0.7,0-1,0.1c-0.3,0.1-0.6,0.3-0.8,0.5c-0.2,0.2-0.4,0.5-0.5,0.9
						c-0.1,0.4-0.2,0.9-0.2,1.5c0,0.6,0.1,1.2,0.4,1.6s0.6,0.8,1,1c0.4,0.2,0.9,0.4,1.4,0.4c0.4,0,0.8,0,1.1-0.1s0.5-0.2,0.6-0.3
						s0.3-0.2,0.4-0.3c0.2-0.1,0.4-0.2,0.6-0.2c0.3,0,0.5,0.1,0.7,0.3c0.2,0.2,0.3,0.4,0.3,0.6c0,0.3-0.2,0.6-0.5,0.9
						c-0.3,0.3-0.8,0.5-1.3,0.7C293.6,64.4,293,64.5,292.4,64.5z"/>
					<path class="st7" d="M300.5,63.2c0,0.3-0.1,0.6-0.3,0.8c-0.2,0.2-0.5,0.3-0.8,0.3c-0.3,0-0.6-0.1-0.8-0.3
						c-0.2-0.2-0.3-0.5-0.3-0.8V52.1c0-0.3,0.1-0.6,0.3-0.8c0.2-0.2,0.5-0.3,0.8-0.3c0.3,0,0.6,0.1,0.8,0.3c0.2,0.2,0.3,0.5,0.3,0.8
						V63.2z"/>
					<path class="st7" d="M306.8,54.5c0.5,0,1,0.1,1.4,0.2c0.4,0.2,0.8,0.4,1.1,0.6c0.3,0.2,0.5,0.5,0.7,0.7
						c0.2,0.2,0.3,0.5,0.3,0.6l-0.5,0.2v-1.3c0-0.3,0.1-0.6,0.3-0.8c0.2-0.2,0.5-0.3,0.8-0.3c0.3,0,0.6,0.1,0.8,0.3
						c0.2,0.2,0.3,0.5,0.3,0.8v8c0,1-0.2,1.9-0.7,2.5c-0.5,0.6-1,1.1-1.8,1.4s-1.5,0.4-2.4,0.4c-0.2,0-0.6,0-0.9-0.1
						c-0.4-0.1-0.8-0.1-1.1-0.2s-0.6-0.2-0.8-0.2c-0.4-0.2-0.6-0.4-0.7-0.6c-0.1-0.2-0.2-0.5-0.1-0.7c0.1-0.3,0.3-0.6,0.5-0.7
						s0.5-0.1,0.8,0c0.1,0,0.3,0.1,0.6,0.2c0.3,0.1,0.6,0.2,0.9,0.3c0.3,0.1,0.6,0.1,0.9,0.1c0.9,0,1.6-0.2,2-0.5s0.6-0.9,0.6-1.5
						v-1.6l0.2,0.2c0,0.2-0.1,0.3-0.2,0.6s-0.4,0.4-0.7,0.7c-0.3,0.2-0.6,0.4-1,0.5c-0.4,0.1-0.8,0.2-1.2,0.2
						c-0.9,0-1.6-0.2-2.3-0.6s-1.2-1-1.6-1.8c-0.4-0.8-0.6-1.6-0.6-2.6c0-1,0.2-1.9,0.6-2.6c0.4-0.8,0.9-1.3,1.6-1.8
						S306,54.5,306.8,54.5z M307.2,56.5c-0.5,0-1,0.1-1.4,0.4c-0.4,0.3-0.7,0.6-1,1.1s-0.3,1-0.3,1.5c0,0.6,0.1,1.1,0.3,1.5
						c0.2,0.5,0.5,0.8,1,1.1c0.4,0.3,0.9,0.4,1.4,0.4c0.6,0,1-0.1,1.4-0.4c0.4-0.3,0.7-0.6,1-1.1c0.2-0.5,0.3-1,0.3-1.5
						c0-0.6-0.1-1.1-0.3-1.5c-0.2-0.5-0.5-0.8-1-1.1C308.2,56.6,307.7,56.5,307.2,56.5z"/>
					<path class="st7" d="M322,54.5c0.3,0,0.6,0.1,0.8,0.3c0.2,0.2,0.3,0.5,0.3,0.8v7.6c0,0.3-0.1,0.6-0.3,0.8
						c-0.2,0.2-0.5,0.3-0.8,0.3s-0.6-0.1-0.8-0.3c-0.2-0.2-0.3-0.5-0.3-0.8v-0.9l0.4,0.2c0,0.2-0.1,0.3-0.3,0.6s-0.4,0.4-0.7,0.7
						c-0.3,0.2-0.6,0.4-1,0.5c-0.4,0.1-0.8,0.2-1.3,0.2c-0.8,0-1.6-0.2-2.2-0.6s-1.2-1-1.6-1.8c-0.4-0.8-0.6-1.6-0.6-2.6
						c0-1,0.2-1.9,0.6-2.6c0.4-0.8,0.9-1.3,1.6-1.8s1.4-0.6,2.2-0.6c0.5,0,1,0.1,1.4,0.2c0.4,0.2,0.8,0.4,1.1,0.6
						c0.3,0.2,0.6,0.5,0.7,0.7c0.2,0.2,0.3,0.5,0.3,0.6l-0.6,0.2v-1.3c0-0.3,0.1-0.6,0.3-0.8C321.4,54.6,321.7,54.5,322,54.5z
						 M318.4,62.5c0.5,0,1-0.1,1.4-0.4c0.4-0.3,0.7-0.6,0.9-1.1c0.2-0.5,0.3-1,0.3-1.5c0-0.6-0.1-1.1-0.3-1.5s-0.5-0.8-0.9-1.1
						c-0.4-0.3-0.9-0.4-1.4-0.4c-0.5,0-1,0.1-1.4,0.4c-0.4,0.3-0.7,0.6-0.9,1.1c-0.2,0.5-0.3,1-0.3,1.5c0,0.6,0.1,1.1,0.3,1.5
						c0.2,0.5,0.5,0.8,0.9,1.1C317.4,62.4,317.8,62.5,318.4,62.5z"/>
					<path class="st7" d="M333.1,51c0.3,0,0.6,0.1,0.8,0.3c0.2,0.2,0.3,0.5,0.3,0.8v11.1c0,0.3-0.1,0.6-0.3,0.8
						c-0.2,0.2-0.5,0.3-0.8,0.3s-0.6-0.1-0.8-0.3c-0.2-0.2-0.3-0.5-0.3-0.8v-0.9l0.4,0.2c0,0.2-0.1,0.3-0.3,0.6
						c-0.2,0.2-0.4,0.4-0.7,0.7c-0.3,0.2-0.6,0.4-1,0.5c-0.4,0.1-0.8,0.2-1.3,0.2c-0.8,0-1.6-0.2-2.2-0.6s-1.2-1-1.6-1.8
						c-0.4-0.8-0.6-1.6-0.6-2.6c0-1,0.2-1.9,0.6-2.6c0.4-0.8,0.9-1.3,1.6-1.8s1.4-0.6,2.2-0.6c0.5,0,1,0.1,1.4,0.2
						c0.4,0.2,0.8,0.4,1.1,0.6c0.3,0.2,0.6,0.5,0.7,0.7s0.3,0.5,0.3,0.6l-0.6,0.2v-4.8c0-0.3,0.1-0.6,0.3-0.8
						C332.5,51.1,332.8,51,333.1,51z M329.5,62.5c0.5,0,1-0.1,1.4-0.4c0.4-0.3,0.7-0.6,0.9-1.1c0.2-0.5,0.3-1,0.3-1.5
						c0-0.6-0.1-1.1-0.3-1.5c-0.2-0.5-0.5-0.8-0.9-1.1c-0.4-0.3-0.9-0.4-1.4-0.4c-0.5,0-1,0.1-1.4,0.4c-0.4,0.3-0.7,0.6-0.9,1.1
						s-0.3,1-0.3,1.5c0,0.6,0.1,1.1,0.3,1.5c0.2,0.5,0.5,0.8,0.9,1.1C328.5,62.4,328.9,62.5,329.5,62.5z"/>
					<path class="st7" d="M345.6,59.5c0,1-0.2,1.9-0.7,2.6c-0.4,0.8-1,1.3-1.8,1.8s-1.6,0.6-2.5,0.6s-1.7-0.2-2.5-0.6
						s-1.3-1-1.8-1.8c-0.4-0.8-0.7-1.6-0.7-2.6c0-1,0.2-1.9,0.7-2.6c0.4-0.8,1-1.3,1.8-1.8s1.6-0.6,2.5-0.6s1.7,0.2,2.5,0.6
						s1.3,1,1.8,1.8C345.4,57.6,345.6,58.5,345.6,59.5z M343.5,59.5c0-0.6-0.1-1.1-0.4-1.6c-0.2-0.4-0.6-0.8-1-1.1s-0.9-0.4-1.4-0.4
						s-1,0.1-1.4,0.4s-0.7,0.6-1,1.1c-0.2,0.5-0.4,1-0.4,1.6c0,0.6,0.1,1.1,0.4,1.6c0.2,0.5,0.6,0.8,1,1.1s0.9,0.4,1.4,0.4
						s1-0.1,1.4-0.4s0.7-0.6,1-1.1C343.4,60.6,343.5,60.1,343.5,59.5z"/>
					<path class="st7" d="M348.3,64.3c-0.3,0-0.6-0.1-0.8-0.3c-0.2-0.2-0.3-0.5-0.3-0.8v-0.3c0-0.3,0.1-0.6,0.3-0.8
						c0.2-0.2,0.5-0.3,0.8-0.3h0.2c0.3,0,0.6,0.1,0.8,0.3c0.2,0.2,0.3,0.5,0.3,0.8v0.3c0,0.3-0.1,0.6-0.3,0.8
						c-0.2,0.2-0.5,0.3-0.8,0.3H348.3z"/>
				</g>
			</g>
		</g>
	</g>
</g>
</svg>
