<svg xmlns="http://www.w3.org/2000/svg" viewBox="0 0 504.03 95.86"><defs><style>.cls-1{fill:#fff;}.cls-2{fill:#fbb03b;}</style></defs><title>lab03-bxA5</title><g id="Layer_2" data-name="Layer 2"><g id="Layer_1-2" data-name="Layer 1"><rect class="cls-1" x="1.24" y="1.24" width="501.56" height="93.38" rx="13.1" ry="13.1"/><path class="cls-2" d="M489.74,95.86h-6.61V93.38h6.56Zm-13.17,0H470V93.38h6.55Zm-13.11,0H456.9V93.38h6.56Zm-13.12,0h-6.55V93.38h6.55Zm-13.11,0h-6.56V93.38h6.56Zm-13.12,0h-6.56V93.38h6.56Zm-13.11,0h-6.56V93.38H411Zm-13.12,0h-6.56V93.38h6.56Zm-13.12,0h-6.55V93.38h6.55Zm-13.11,0h-6.56V93.38h6.56Zm-13.12,0H352V93.38h6.56Zm-13.11,0h-6.56V93.38h6.56Zm-13.12,0h-6.56V93.38h6.56Zm-13.12,0h-6.55V93.38h6.55Zm-13.11,0h-6.56V93.38h6.56Zm-13.12,0h-6.56V93.38H293Zm-13.11,0h-6.56V93.38h6.56Zm-13.12,0h-6.56V93.38h6.56Zm-13.11,0h-6.56V93.38h6.56Zm-13.12,0h-6.56V93.38h6.56Zm-13.12,0h-6.55V93.38h6.55Zm-13.11,0H207.7V93.38h6.56Zm-13.12,0h-6.56V93.38h6.56Zm-13.11,0h-6.56V93.38H188Zm-13.12,0h-6.56V93.38h6.56Zm-13.12,0h-6.55V93.38h6.55Zm-13.11,0h-6.56V93.38h6.56Zm-13.12,0H129V93.38h6.56Zm-13.11,0h-6.56V93.38h6.56Zm-13.12,0h-6.56V93.38h6.56Zm-13.12,0H89.66V93.38h6.55Zm-13.11,0H76.54V93.38H83.1ZM70,95.86H63.42V93.38H70Zm-13.11,0H50.31V93.38h6.56Zm-13.12,0H37.19V93.38h6.56Zm-13.12,0H24.08V93.38h6.55Zm-13.11,0H14.34a14.09,14.09,0,0,1-3.66-.48L11.32,93a11.8,11.8,0,0,0,3,.39h3.18Zm479.1-1.8-1.2-2.16a12.15,12.15,0,0,0,4.28-4l2.09,1.33A14.51,14.51,0,0,1,496.62,94.06ZM4.49,91.91a14.41,14.41,0,0,1-3.8-6l2.36-.76a11.91,11.91,0,0,0,3.14,5ZM504,82.45l-2.47-.16c0-.26,0-.52,0-.77V75.81H504v5.71Q504,82,504,82.45ZM2.47,79H0V72.48H2.47ZM504,69.25h-2.47V62.7H504ZM2.47,65.92H0V59.37H2.47ZM504,56.14h-2.47V49.58H504ZM2.47,52.81H0V46.25H2.47ZM504,43h-2.47V36.46H504ZM2.47,39.69H0V33.14H2.47ZM504,29.91h-2.47V23.35H504ZM2.47,26.58H0V20H2.47ZM504,16.79h-2.47V14.34a11.81,11.81,0,0,0-.58-3.65l2.35-.77a14,14,0,0,1,.7,4.42ZM2.5,13.55,0,13.38A14.24,14.24,0,0,1,2.26,6.64L4.34,8A11.81,11.81,0,0,0,2.5,13.55ZM497.82,5.72a11.82,11.82,0,0,0-5.13-2.86l.63-2.39a14.43,14.43,0,0,1,6.2,3.45ZM8.63,4,7.44,1.78A14.32,14.32,0,0,1,14.31,0V2.47A11.91,11.91,0,0,0,8.63,4ZM486.49,2.47h-6.56V0h6.56Zm-13.12,0h-6.56V0h6.56Zm-13.12,0H453.7V0h6.55Zm-13.11,0h-6.56V0h6.56ZM434,2.47h-6.56V0H434Zm-13.11,0h-6.56V0h6.56Zm-13.12,0h-6.56V0h6.56Zm-13.12,0h-6.55V0h6.55Zm-13.11,0H375V0h6.56Zm-13.12,0h-6.55V0h6.55Zm-13.11,0h-6.56V0h6.56Zm-13.12,0h-6.56V0h6.56Zm-13.11,0h-6.56V0h6.56ZM316,2.47h-6.56V0H316Zm-13.12,0h-6.55V0h6.55Zm-13.11,0h-6.56V0h6.56Zm-13.12,0h-6.56V0h6.56Zm-13.11,0H257V0h6.56Zm-13.12,0h-6.56V0h6.56Zm-13.11,0h-6.56V0h6.56Zm-13.12,0h-6.56V0h6.56Zm-13.12,0H204.5V0h6.55Zm-13.11,0h-6.56V0h6.56Zm-13.12,0h-6.56V0h6.56Zm-13.11,0h-6.56V0h6.56Zm-13.12,0H152V0h6.56Zm-13.12,0h-6.55V0h6.55Zm-13.11,0H125.8V0h6.56Zm-13.12,0h-6.56V0h6.56Zm-13.11,0H99.57V0h6.56ZM93,2.47H86.45V0H93Zm-13.12,0H73.34V0h6.55Zm-13.11,0H60.22V0h6.56Zm-13.12,0H47.1V0h6.56Zm-13.11,0H34V0h6.56Zm-13.12,0H20.87V0h6.56Z"/><path class="cls-2" d="M28,58.2a8.43,8.43,0,0,1-2.13-.31A5,5,0,0,1,24,57a1.84,1.84,0,0,1-.55-.77,2.18,2.18,0,0,1-.21-.9,1.22,1.22,0,0,1,.39-.86A1.5,1.5,0,0,1,24.72,54a2.3,2.3,0,0,1,1.22.51,6.4,6.4,0,0,0,.94.49,2.83,2.83,0,0,0,1.06.22A4.4,4.4,0,0,0,30,54.74a4.25,4.25,0,0,0,1.54-1.37,3.28,3.28,0,0,0,.58-1.87,3.18,3.18,0,0,0-.47-1.75,3.26,3.26,0,0,0-1.25-1.14,3.48,3.48,0,0,0-1.66-.4,3.61,3.61,0,0,0-1.45.27,12.19,12.19,0,0,0-1.14.55,2.08,2.08,0,0,1-1,.29,1.89,1.89,0,0,1-1.33-.4,1.71,1.71,0,0,1-.54-.93,3,3,0,0,1-.05-1l.84-6.69a1.55,1.55,0,0,1,.55-.94A1.65,1.65,0,0,1,25.7,39h7.8A1.47,1.47,0,0,1,35,40.54a1.37,1.37,0,0,1-.43,1A1.49,1.49,0,0,1,33.5,42h-7l.3-.24-.73,5.61-.35-1a1.6,1.6,0,0,1,.7-.52,8.16,8.16,0,0,1,1.24-.42,6.06,6.06,0,0,1,1.38-.17,6.34,6.34,0,0,1,3.24.82,6.15,6.15,0,0,1,2.26,2.24,6.35,6.35,0,0,1,.82,3.2,5.83,5.83,0,0,1-.6,2.62,6.73,6.73,0,0,1-1.63,2.13,7.72,7.72,0,0,1-2.37,1.44A7.93,7.93,0,0,1,28,58.2Z"/><path class="cls-2" d="M39.81,57.9a1.47,1.47,0,0,1-1.62-1.62v-.46a1.47,1.47,0,0,1,1.62-1.62h.35a1.47,1.47,0,0,1,1.62,1.62v.46a1.47,1.47,0,0,1-1.62,1.62Z"/></g></g></svg>