<?xml version="1.0" encoding="utf-8"?>
<!-- Generator: Adobe Illustrator 22.0.1, SVG Export Plug-In . SVG Version: 6.00 Build 0)  -->
<svg version="1.1" id="Layer_1" xmlns="http://www.w3.org/2000/svg" xmlns:xlink="http://www.w3.org/1999/xlink" x="0px" y="0px"
	 viewBox="0 0 368.1 68.3" style="enable-background:new 0 0 368.1 68.3;" xml:space="preserve">
<style type="text/css">
	.st0{opacity:0.2;}
	.st1{fill:#000F56;stroke:#000F56;stroke-width:4;stroke-linejoin:round;stroke-miterlimit:10;}
	.st2{fill:#FFFFFF;stroke:#321463;stroke-width:4;stroke-linejoin:round;stroke-miterlimit:10;}
	.st3{fill:#FFFFFF;}
</style>
<title>lab03-tit</title>
<g>
	<g class="st0">
		<path class="st1" d="M10.3,8.4h10.1c0.2,0,0.4,0.1,0.6,0.2c0.2,0.2,0.2,0.4,0.2,0.6S21.2,9.7,21,9.8C20.8,10,20.6,10,20.4,10h-9.5
			l0.3-0.5v7.8L10.9,17h8.3c0.2,0,0.4,0.1,0.6,0.2c0.2,0.2,0.2,0.4,0.2,0.6c0,0.2-0.1,0.4-0.2,0.6c-0.2,0.1-0.4,0.2-0.6,0.2h-8.2
			l0.2-0.3v8L11,26.1h9.3c0.2,0,0.4,0.1,0.6,0.2c0.2,0.2,0.2,0.4,0.2,0.6c0,0.2-0.1,0.4-0.2,0.6c-0.2,0.1-0.4,0.2-0.6,0.2H10.3
			c-0.2,0-0.4-0.1-0.6-0.2s-0.2-0.4-0.2-0.6V9.2c0-0.2,0.1-0.4,0.2-0.6C9.8,8.5,10,8.4,10.3,8.4z"/>
		<path class="st1" d="M24.3,13.5c0.3,0,0.5,0.1,0.7,0.4l9.8,12.7c0.1,0.1,0.2,0.3,0.2,0.5c0,0.2-0.1,0.4-0.2,0.6
			c-0.2,0.2-0.4,0.2-0.6,0.2c-0.3,0-0.5-0.1-0.7-0.4l-9.8-12.6c-0.1-0.1-0.2-0.3-0.2-0.5c0-0.3,0.1-0.5,0.3-0.6
			C23.8,13.6,24,13.5,24.3,13.5z M24.3,27.8c-0.2,0-0.4-0.1-0.5-0.2c-0.2-0.1-0.3-0.3-0.3-0.6c0-0.2,0.1-0.4,0.2-0.5l4.7-6l0.9,1.4
			l-4.3,5.6C24.8,27.7,24.5,27.8,24.3,27.8z M34.1,13.5c0.2,0,0.4,0.1,0.6,0.2c0.1,0.1,0.2,0.3,0.2,0.5c0,0.1,0,0.2,0,0.3
			s-0.1,0.2-0.2,0.3L30,20.9l-0.9-1.3l4.3-5.7C33.6,13.6,33.8,13.5,34.1,13.5z"/>
		<path class="st1" d="M44.2,13.5c1.3,0,2.4,0.3,3.3,0.9c1,0.6,1.7,1.5,2.3,2.5c0.6,1.1,0.9,2.3,0.9,3.7c0,1.4-0.3,2.6-0.9,3.7
			c-0.6,1.1-1.3,1.9-2.3,2.6c-1,0.6-2.1,0.9-3.3,0.9c-0.6,0-1.3-0.1-1.8-0.3s-1.1-0.5-1.6-0.8c-0.5-0.3-0.9-0.7-1.3-1.2
			c-0.4-0.5-0.7-0.9-0.9-1.5l0.5-0.4v8.6c0,0.2-0.1,0.4-0.2,0.6s-0.4,0.2-0.6,0.2c-0.2,0-0.4-0.1-0.6-0.2s-0.2-0.4-0.2-0.6v-18
			c0-0.2,0.1-0.4,0.2-0.6c0.2-0.2,0.4-0.2,0.6-0.2c0.2,0,0.4,0.1,0.6,0.2c0.2,0.2,0.2,0.4,0.2,0.6v3l-0.4-0.2
			c0.2-0.6,0.5-1.1,0.8-1.5c0.4-0.5,0.8-0.8,1.3-1.2c0.5-0.3,1-0.6,1.6-0.7C43,13.6,43.6,13.5,44.2,13.5z M44.1,15.1
			c-1,0-1.9,0.2-2.6,0.7c-0.8,0.5-1.4,1.2-1.8,2c-0.4,0.8-0.6,1.8-0.6,2.9c0,1.1,0.2,2.1,0.6,2.9c0.4,0.9,1,1.5,1.8,2
			c0.8,0.5,1.6,0.7,2.6,0.7c1,0,1.8-0.2,2.6-0.7s1.3-1.2,1.8-2c0.4-0.9,0.6-1.8,0.6-2.9c0-1.1-0.2-2.1-0.6-2.9c-0.4-0.8-1-1.5-1.8-2
			C45.9,15.3,45.1,15.1,44.1,15.1z"/>
		<path class="st1" d="M55.6,26.9c0,0.2-0.1,0.4-0.2,0.6c-0.2,0.2-0.4,0.2-0.6,0.2c-0.2,0-0.4-0.1-0.6-0.2c-0.2-0.2-0.2-0.4-0.2-0.6
			V8.1c0-0.2,0.1-0.4,0.2-0.6c0.2-0.2,0.4-0.2,0.6-0.2c0.2,0,0.4,0.1,0.6,0.2c0.2,0.2,0.2,0.4,0.2,0.6V26.9z"/>
		<path class="st1" d="M72.8,20.7c0,1.4-0.3,2.7-0.9,3.8c-0.6,1.1-1.5,2-2.5,2.6s-2.2,1-3.6,1c-1.3,0-2.5-0.3-3.6-1
			s-1.9-1.5-2.5-2.6c-0.6-1.1-0.9-2.4-0.9-3.8c0-1.4,0.3-2.7,0.9-3.8c0.6-1.1,1.5-2,2.5-2.6c1.1-0.6,2.2-1,3.6-1
			c1.3,0,2.5,0.3,3.6,1c1.1,0.6,1.9,1.5,2.5,2.6C72.5,18,72.8,19.2,72.8,20.7z M71.1,20.7c0-1.1-0.2-2.1-0.7-3
			c-0.5-0.9-1.1-1.6-1.9-2.1c-0.8-0.5-1.7-0.7-2.7-0.7c-1,0-1.9,0.2-2.7,0.7c-0.8,0.5-1.4,1.2-1.9,2.1c-0.5,0.9-0.7,1.9-0.7,3
			s0.2,2.1,0.7,3c0.5,0.9,1.1,1.6,1.9,2.1c0.8,0.5,1.7,0.8,2.7,0.8c1,0,1.9-0.3,2.7-0.8c0.8-0.5,1.4-1.2,1.9-2.1
			C70.9,22.8,71.1,21.8,71.1,20.7z"/>
		<path class="st1" d="M76.8,27.7c-0.3,0-0.5-0.1-0.6-0.2c-0.2-0.2-0.2-0.4-0.2-0.6V14.5c0-0.2,0.1-0.4,0.2-0.6s0.4-0.2,0.6-0.2
			c0.2,0,0.4,0.1,0.6,0.2s0.2,0.4,0.2,0.6v4.1l-0.4,0.1c0.1-0.6,0.2-1.3,0.5-1.9s0.6-1.2,1.1-1.8c0.5-0.5,1-1,1.6-1.3
			c0.6-0.3,1.4-0.5,2.1-0.5c0.3,0,0.7,0.1,1,0.2c0.3,0.1,0.5,0.4,0.5,0.7c0,0.3-0.1,0.5-0.2,0.6S83.5,15,83.3,15
			c-0.2,0-0.3,0-0.5-0.1c-0.2-0.1-0.4-0.1-0.8-0.1c-0.5,0-1,0.2-1.5,0.5c-0.5,0.3-1,0.7-1.4,1.2c-0.4,0.5-0.8,1.1-1,1.7
			c-0.2,0.6-0.4,1.3-0.4,1.9v6.8c0,0.2-0.1,0.4-0.2,0.6C77.2,27.7,77,27.7,76.8,27.7z"/>
		<path class="st1" d="M97.2,13.6c0.2,0,0.4,0.1,0.6,0.2c0.2,0.2,0.2,0.4,0.2,0.6v12.4c0,0.2-0.1,0.4-0.2,0.6
			c-0.2,0.2-0.4,0.2-0.6,0.2c-0.3,0-0.5-0.1-0.6-0.2c-0.2-0.2-0.2-0.4-0.2-0.6v-3.3l0.5-0.2c0,0.5-0.1,1-0.4,1.6s-0.7,1-1.2,1.5
			c-0.5,0.5-1.1,0.8-1.8,1.1c-0.7,0.3-1.4,0.4-2.2,0.4c-1.2,0-2.3-0.3-3.3-1c-1-0.6-1.8-1.5-2.3-2.7c-0.6-1.1-0.8-2.4-0.8-3.8
			c0-1.4,0.3-2.7,0.9-3.8c0.6-1.1,1.3-2,2.3-2.6c1-0.6,2.1-0.9,3.3-0.9c0.8,0,1.5,0.1,2.2,0.4s1.3,0.7,1.8,1.1
			c0.5,0.5,0.9,1,1.2,1.6c0.3,0.6,0.4,1.3,0.4,1.9L96.4,18v-3.5c0-0.2,0.1-0.4,0.2-0.6C96.8,13.7,97,13.6,97.2,13.6z M91.5,26.5
			c1,0,1.8-0.3,2.6-0.8s1.4-1.2,1.8-2.1c0.4-0.9,0.6-1.9,0.6-3c0-1.1-0.2-2-0.6-2.9c-0.4-0.9-1-1.6-1.8-2.1
			c-0.8-0.5-1.6-0.8-2.6-0.8c-1,0-1.8,0.2-2.6,0.7c-0.8,0.5-1.4,1.2-1.8,2c-0.4,0.9-0.6,1.9-0.6,3c0,1.1,0.2,2.1,0.6,3
			c0.4,0.9,1,1.6,1.8,2.1C89.6,26.2,90.5,26.5,91.5,26.5z"/>
		<path class="st1" d="M108.7,13.3c1.2,0,2.2,0.2,2.9,0.7s1.3,1.2,1.6,2c0.3,0.8,0.5,1.8,0.5,2.8v8.1c0,0.2-0.1,0.4-0.2,0.6
			s-0.4,0.2-0.6,0.2c-0.3,0-0.5-0.1-0.6-0.2c-0.2-0.2-0.2-0.4-0.2-0.6v-8c0-0.7-0.1-1.4-0.4-2s-0.6-1.1-1.2-1.5
			c-0.5-0.4-1.2-0.5-2.1-0.5c-0.8,0-1.5,0.2-2.3,0.5s-1.3,0.8-1.7,1.5c-0.4,0.6-0.7,1.3-0.7,2v8c0,0.2-0.1,0.4-0.2,0.6
			c-0.2,0.2-0.4,0.2-0.6,0.2c-0.3,0-0.5-0.1-0.6-0.2c-0.2-0.2-0.2-0.4-0.2-0.6V14.5c0-0.2,0.1-0.4,0.2-0.6s0.4-0.2,0.6-0.2
			c0.2,0,0.4,0.1,0.6,0.2s0.2,0.4,0.2,0.6v2.3l-0.6,1c0-0.6,0.2-1.2,0.6-1.7c0.3-0.5,0.8-1,1.3-1.5c0.5-0.4,1.1-0.8,1.8-1
			C107.3,13.4,108,13.3,108.7,13.3z"/>
		<path class="st1" d="M129.2,7.3c0.2,0,0.4,0.1,0.6,0.2c0.2,0.2,0.2,0.4,0.2,0.6v18.8c0,0.2-0.1,0.4-0.2,0.6
			c-0.2,0.2-0.4,0.2-0.6,0.2c-0.3,0-0.5-0.1-0.6-0.2c-0.2-0.2-0.2-0.4-0.2-0.6v-3.3l0.5-0.4c0,0.5-0.1,1.1-0.4,1.6
			c-0.3,0.6-0.7,1.1-1.2,1.5c-0.5,0.5-1.1,0.9-1.8,1.1c-0.7,0.3-1.4,0.4-2.2,0.4c-1.2,0-2.3-0.3-3.3-1c-1-0.6-1.8-1.5-2.3-2.6
			c-0.6-1.1-0.9-2.4-0.9-3.8c0-1.4,0.3-2.7,0.9-3.8c0.6-1.1,1.3-2,2.3-2.6s2.1-1,3.3-1c0.8,0,1.5,0.1,2.2,0.4
			c0.7,0.3,1.3,0.7,1.8,1.1c0.5,0.5,0.9,1,1.2,1.6c0.3,0.6,0.4,1.3,0.4,1.9l-0.6-0.4V8.1c0-0.2,0.1-0.4,0.2-0.6
			C128.7,7.4,128.9,7.3,129.2,7.3z M123.4,26.5c1,0,1.8-0.3,2.6-0.8s1.4-1.2,1.8-2.1c0.4-0.9,0.6-1.9,0.6-3c0-1.1-0.2-2.1-0.6-3
			c-0.4-0.9-1-1.6-1.8-2.1c-0.8-0.5-1.6-0.7-2.6-0.7c-1,0-1.8,0.2-2.6,0.7c-0.8,0.5-1.4,1.2-1.8,2.1c-0.4,0.9-0.6,1.9-0.6,3
			s0.2,2.1,0.6,3c0.4,0.9,1,1.6,1.8,2.1S122.5,26.5,123.4,26.5z"/>
		<path class="st1" d="M147.1,20.7c0,1.4-0.3,2.7-0.9,3.8c-0.6,1.1-1.5,2-2.5,2.6s-2.2,1-3.6,1c-1.3,0-2.5-0.3-3.6-1
			s-1.9-1.5-2.5-2.6c-0.6-1.1-0.9-2.4-0.9-3.8c0-1.4,0.3-2.7,0.9-3.8c0.6-1.1,1.5-2,2.5-2.6c1.1-0.6,2.2-1,3.6-1
			c1.3,0,2.5,0.3,3.6,1c1.1,0.6,1.9,1.5,2.5,2.6C146.8,18,147.1,19.2,147.1,20.7z M145.4,20.7c0-1.1-0.2-2.1-0.7-3
			c-0.5-0.9-1.1-1.6-1.9-2.1c-0.8-0.5-1.7-0.7-2.7-0.7c-1,0-1.9,0.2-2.7,0.7c-0.8,0.5-1.4,1.2-1.9,2.1c-0.5,0.9-0.7,1.9-0.7,3
			s0.2,2.1,0.7,3c0.5,0.9,1.1,1.6,1.9,2.1c0.8,0.5,1.7,0.8,2.7,0.8c1,0,1.9-0.3,2.7-0.8c0.8-0.5,1.4-1.2,1.9-2.1
			C145.2,22.8,145.4,21.8,145.4,20.7z"/>
		<path class="st1" d="M164.3,28c-1.4,0-2.7-0.3-3.8-0.9s-1.9-1.5-2.5-2.5c-0.6-1.1-0.9-2.4-0.9-3.8c0-1.6,0.3-2.9,0.9-4
			c0.6-1.1,1.4-2,2.4-2.6c1-0.6,2-0.9,3.1-0.9c0.8,0,1.6,0.1,2.4,0.4c0.8,0.3,1.4,0.7,2,1.3c0.6,0.6,1.1,1.2,1.4,2.1
			c0.4,0.8,0.6,1.8,0.6,2.8c0,0.2-0.1,0.4-0.2,0.6c-0.2,0.2-0.4,0.2-0.6,0.2h-11.1l-0.3-1.5h10.9l-0.4,0.3V19
			c-0.1-0.9-0.4-1.6-0.8-2.2c-0.5-0.6-1.1-1.1-1.7-1.4s-1.4-0.5-2.1-0.5c-0.6,0-1.1,0.1-1.7,0.3c-0.6,0.2-1.1,0.6-1.6,1
			c-0.5,0.5-0.9,1.1-1.1,1.8c-0.3,0.7-0.4,1.6-0.4,2.6c0,1.1,0.2,2.1,0.7,3c0.4,0.9,1.1,1.6,1.9,2.1c0.8,0.5,1.8,0.8,3,0.8
			c0.6,0,1.2-0.1,1.7-0.3c0.5-0.2,1-0.4,1.4-0.7c0.4-0.3,0.7-0.6,1-1c0.2-0.2,0.4-0.2,0.6-0.2c0.2,0,0.4,0.1,0.5,0.2
			s0.2,0.3,0.2,0.5c0,0.2-0.1,0.4-0.3,0.6c-0.6,0.7-1.3,1.2-2.2,1.7C166.3,27.8,165.4,28,164.3,28z"/>
		<path class="st1" d="M174.9,26.9c0,0.2-0.1,0.4-0.2,0.6c-0.2,0.2-0.4,0.2-0.6,0.2c-0.2,0-0.4-0.1-0.6-0.2
			c-0.2-0.2-0.2-0.4-0.2-0.6V8.1c0-0.2,0.1-0.4,0.2-0.6c0.2-0.2,0.4-0.2,0.6-0.2c0.2,0,0.4,0.1,0.6,0.2c0.2,0.2,0.2,0.4,0.2,0.6
			V26.9z"/>
	</g>
	<g>
		<path class="st2" d="M7.3,5.4h10.1c0.2,0,0.4,0.1,0.6,0.2c0.2,0.2,0.2,0.4,0.2,0.6S18.2,6.7,18,6.8C17.8,7,17.6,7,17.4,7H7.9
			l0.3-0.5v7.8L7.9,14h8.3c0.2,0,0.4,0.1,0.6,0.2c0.2,0.2,0.2,0.4,0.2,0.6c0,0.2-0.1,0.4-0.2,0.6c-0.2,0.1-0.4,0.2-0.6,0.2H7.9
			l0.2-0.3v8L8,23.1h9.3c0.2,0,0.4,0.1,0.6,0.2c0.2,0.2,0.2,0.4,0.2,0.6c0,0.2-0.1,0.4-0.2,0.6c-0.2,0.1-0.4,0.2-0.6,0.2H7.3
			c-0.2,0-0.4-0.1-0.6-0.2s-0.2-0.4-0.2-0.6V6.2c0-0.2,0.1-0.4,0.2-0.6C6.8,5.5,7,5.4,7.3,5.4z"/>
		<path class="st2" d="M21.3,10.5c0.3,0,0.5,0.1,0.7,0.4l9.8,12.7c0.1,0.1,0.2,0.3,0.2,0.5c0,0.2-0.1,0.4-0.2,0.6
			c-0.2,0.2-0.4,0.2-0.6,0.2c-0.3,0-0.5-0.1-0.7-0.4l-9.8-12.6c-0.1-0.1-0.2-0.3-0.2-0.5c0-0.3,0.1-0.5,0.3-0.6
			C20.8,10.6,21,10.5,21.3,10.5z M21.3,24.8c-0.2,0-0.4-0.1-0.5-0.2c-0.2-0.1-0.3-0.3-0.3-0.6c0-0.2,0.1-0.4,0.2-0.5l4.7-6l0.9,1.4
			l-4.3,5.6C21.8,24.7,21.5,24.8,21.3,24.8z M31.1,10.5c0.2,0,0.4,0.1,0.6,0.2c0.1,0.1,0.2,0.3,0.2,0.5c0,0.1,0,0.2,0,0.3
			s-0.1,0.2-0.2,0.3L27,17.9l-0.9-1.3l4.3-5.7C30.6,10.6,30.8,10.5,31.1,10.5z"/>
		<path class="st2" d="M41.2,10.5c1.3,0,2.4,0.3,3.3,0.9c1,0.6,1.7,1.5,2.3,2.5c0.6,1.1,0.9,2.3,0.9,3.7c0,1.4-0.3,2.6-0.9,3.7
			c-0.6,1.1-1.3,1.9-2.3,2.6c-1,0.6-2.1,0.9-3.3,0.9c-0.6,0-1.3-0.1-1.8-0.3s-1.1-0.5-1.6-0.8c-0.5-0.3-0.9-0.7-1.3-1.2
			c-0.4-0.5-0.7-0.9-0.9-1.5l0.5-0.4v8.6c0,0.2-0.1,0.4-0.2,0.6s-0.4,0.2-0.6,0.2c-0.2,0-0.4-0.1-0.6-0.2s-0.2-0.4-0.2-0.6v-18
			c0-0.2,0.1-0.4,0.2-0.6c0.2-0.2,0.4-0.2,0.6-0.2c0.2,0,0.4,0.1,0.6,0.2c0.2,0.2,0.2,0.4,0.2,0.6v3l-0.4-0.2
			c0.2-0.6,0.5-1.1,0.8-1.5s0.8-0.8,1.3-1.2c0.5-0.3,1-0.6,1.6-0.7C40,10.6,40.6,10.5,41.2,10.5z M41.1,12.1c-1,0-1.9,0.2-2.6,0.7
			c-0.8,0.5-1.4,1.2-1.8,2c-0.4,0.8-0.6,1.8-0.6,2.9c0,1.1,0.2,2.1,0.6,2.9c0.4,0.9,1,1.5,1.8,2c0.8,0.5,1.6,0.7,2.6,0.7
			c1,0,1.8-0.2,2.6-0.7s1.3-1.2,1.8-2c0.4-0.9,0.6-1.8,0.6-2.9c0-1.1-0.2-2.1-0.6-2.9c-0.4-0.8-1-1.5-1.8-2
			C42.9,12.3,42.1,12.1,41.1,12.1z"/>
		<path class="st2" d="M52.6,23.9c0,0.2-0.1,0.4-0.2,0.6c-0.2,0.2-0.4,0.2-0.6,0.2c-0.2,0-0.4-0.1-0.6-0.2c-0.2-0.2-0.2-0.4-0.2-0.6
			V5.1c0-0.2,0.1-0.4,0.2-0.6c0.2-0.2,0.4-0.2,0.6-0.2c0.2,0,0.4,0.1,0.6,0.2c0.2,0.2,0.2,0.4,0.2,0.6V23.9z"/>
		<path class="st2" d="M69.8,17.7c0,1.4-0.3,2.7-0.9,3.8c-0.6,1.1-1.5,2-2.5,2.6s-2.2,1-3.6,1c-1.3,0-2.5-0.3-3.6-1
			s-1.9-1.5-2.5-2.6c-0.6-1.1-0.9-2.4-0.9-3.8c0-1.4,0.3-2.7,0.9-3.8c0.6-1.1,1.5-2,2.5-2.6c1.1-0.6,2.2-1,3.6-1
			c1.3,0,2.5,0.3,3.6,1c1.1,0.6,1.9,1.5,2.5,2.6C69.5,15,69.8,16.2,69.8,17.7z M68.1,17.7c0-1.1-0.2-2.1-0.7-3
			c-0.5-0.9-1.1-1.6-1.9-2.1c-0.8-0.5-1.7-0.7-2.7-0.7c-1,0-1.9,0.2-2.7,0.7c-0.8,0.5-1.4,1.2-1.9,2.1c-0.5,0.9-0.7,1.9-0.7,3
			s0.2,2.1,0.7,3c0.5,0.9,1.1,1.6,1.9,2.1c0.8,0.5,1.7,0.8,2.7,0.8c1,0,1.9-0.3,2.7-0.8c0.8-0.5,1.4-1.2,1.9-2.1
			C67.9,19.8,68.1,18.8,68.1,17.7z"/>
		<path class="st2" d="M73.8,24.7c-0.3,0-0.5-0.1-0.6-0.2c-0.2-0.2-0.2-0.4-0.2-0.6V11.5c0-0.2,0.1-0.4,0.2-0.6s0.4-0.2,0.6-0.2
			c0.2,0,0.4,0.1,0.6,0.2s0.2,0.4,0.2,0.6v4.1l-0.4,0.1c0.1-0.6,0.2-1.3,0.5-1.9s0.6-1.2,1.1-1.8c0.5-0.5,1-1,1.6-1.3
			c0.6-0.3,1.4-0.5,2.1-0.5c0.3,0,0.7,0.1,1,0.2c0.3,0.1,0.5,0.4,0.5,0.7c0,0.3-0.1,0.5-0.2,0.6S80.5,12,80.3,12
			c-0.2,0-0.3,0-0.5-0.1c-0.2-0.1-0.4-0.1-0.8-0.1c-0.5,0-1,0.2-1.5,0.5c-0.5,0.3-1,0.7-1.4,1.2c-0.4,0.5-0.8,1.1-1,1.7
			c-0.2,0.6-0.4,1.3-0.4,1.9v6.8c0,0.2-0.1,0.4-0.2,0.6C74.2,24.7,74,24.7,73.8,24.7z"/>
		<path class="st2" d="M94.2,10.6c0.2,0,0.4,0.1,0.6,0.2c0.2,0.2,0.2,0.4,0.2,0.6v12.4c0,0.2-0.1,0.4-0.2,0.6
			c-0.2,0.2-0.4,0.2-0.6,0.2c-0.3,0-0.5-0.1-0.6-0.2c-0.2-0.2-0.2-0.4-0.2-0.6v-3.3l0.5-0.2c0,0.5-0.1,1-0.4,1.6s-0.7,1-1.2,1.5
			c-0.5,0.5-1.1,0.8-1.8,1.1c-0.7,0.3-1.4,0.4-2.2,0.4c-1.2,0-2.3-0.3-3.3-1c-1-0.6-1.8-1.5-2.3-2.7c-0.6-1.1-0.8-2.4-0.8-3.8
			c0-1.4,0.3-2.7,0.9-3.8c0.6-1.1,1.3-2,2.3-2.6c1-0.6,2.1-0.9,3.3-0.9c0.8,0,1.5,0.1,2.2,0.4s1.3,0.7,1.8,1.1
			c0.5,0.5,0.9,1,1.2,1.6s0.4,1.3,0.4,1.9L93.4,15v-3.5c0-0.2,0.1-0.4,0.2-0.6C93.8,10.7,94,10.6,94.2,10.6z M88.5,23.5
			c1,0,1.8-0.3,2.6-0.8s1.4-1.2,1.8-2.1c0.4-0.9,0.6-1.9,0.6-3c0-1.1-0.2-2-0.6-2.9c-0.4-0.9-1-1.6-1.8-2.1
			c-0.8-0.5-1.6-0.8-2.6-0.8c-1,0-1.8,0.2-2.6,0.7s-1.4,1.2-1.8,2c-0.4,0.9-0.6,1.9-0.6,3c0,1.1,0.2,2.1,0.6,3
			c0.4,0.9,1,1.6,1.8,2.1C86.6,23.2,87.5,23.5,88.5,23.5z"/>
		<path class="st2" d="M105.7,10.3c1.2,0,2.2,0.2,2.9,0.7s1.3,1.2,1.6,2c0.3,0.8,0.5,1.8,0.5,2.8v8.1c0,0.2-0.1,0.4-0.2,0.6
			s-0.4,0.2-0.6,0.2c-0.3,0-0.5-0.1-0.6-0.2c-0.2-0.2-0.2-0.4-0.2-0.6v-8c0-0.7-0.1-1.4-0.4-2s-0.6-1.1-1.2-1.5
			c-0.5-0.4-1.2-0.5-2.1-0.5c-0.8,0-1.5,0.2-2.3,0.5s-1.3,0.8-1.7,1.5c-0.4,0.6-0.7,1.3-0.7,2v8c0,0.2-0.1,0.4-0.2,0.6
			c-0.2,0.2-0.4,0.2-0.6,0.2c-0.3,0-0.5-0.1-0.6-0.2c-0.2-0.2-0.2-0.4-0.2-0.6V11.5c0-0.2,0.1-0.4,0.2-0.6s0.4-0.2,0.6-0.2
			c0.2,0,0.4,0.1,0.6,0.2s0.2,0.4,0.2,0.6v2.3l-0.6,1c0-0.6,0.2-1.2,0.6-1.7c0.3-0.5,0.8-1,1.3-1.5c0.5-0.4,1.1-0.8,1.8-1
			C104.3,10.4,105,10.3,105.7,10.3z"/>
		<path class="st2" d="M126.2,4.3c0.2,0,0.4,0.1,0.6,0.2c0.2,0.2,0.2,0.4,0.2,0.6v18.8c0,0.2-0.1,0.4-0.2,0.6
			c-0.2,0.2-0.4,0.2-0.6,0.2c-0.3,0-0.5-0.1-0.6-0.2c-0.2-0.2-0.2-0.4-0.2-0.6v-3.3l0.5-0.4c0,0.5-0.1,1.1-0.4,1.6
			c-0.3,0.6-0.7,1.1-1.2,1.5c-0.5,0.5-1.1,0.9-1.8,1.1c-0.7,0.3-1.4,0.4-2.2,0.4c-1.2,0-2.3-0.3-3.3-1c-1-0.6-1.8-1.5-2.3-2.6
			c-0.6-1.1-0.9-2.4-0.9-3.8c0-1.4,0.3-2.7,0.9-3.8c0.6-1.1,1.3-2,2.3-2.6s2.1-1,3.3-1c0.8,0,1.5,0.1,2.2,0.4
			c0.7,0.3,1.3,0.7,1.8,1.1c0.5,0.5,0.9,1,1.2,1.6c0.3,0.6,0.4,1.3,0.4,1.9l-0.6-0.4V5.1c0-0.2,0.1-0.4,0.2-0.6
			C125.7,4.4,125.9,4.3,126.2,4.3z M120.4,23.5c1,0,1.8-0.3,2.6-0.8s1.4-1.2,1.8-2.1c0.4-0.9,0.6-1.9,0.6-3c0-1.1-0.2-2.1-0.6-3
			c-0.4-0.9-1-1.6-1.8-2.1c-0.8-0.5-1.6-0.7-2.6-0.7c-1,0-1.8,0.2-2.6,0.7c-0.8,0.5-1.4,1.2-1.8,2.1c-0.4,0.9-0.6,1.9-0.6,3
			s0.2,2.1,0.6,3c0.4,0.9,1,1.6,1.8,2.1S119.5,23.5,120.4,23.5z"/>
		<path class="st2" d="M144.1,17.7c0,1.4-0.3,2.7-0.9,3.8c-0.6,1.1-1.5,2-2.5,2.6s-2.2,1-3.6,1c-1.3,0-2.5-0.3-3.6-1
			s-1.9-1.5-2.5-2.6c-0.6-1.1-0.9-2.4-0.9-3.8c0-1.4,0.3-2.7,0.9-3.8c0.6-1.1,1.5-2,2.5-2.6c1.1-0.6,2.2-1,3.6-1
			c1.3,0,2.5,0.3,3.6,1c1.1,0.6,1.9,1.5,2.5,2.6C143.8,15,144.1,16.2,144.1,17.7z M142.4,17.7c0-1.1-0.2-2.1-0.7-3
			c-0.5-0.9-1.1-1.6-1.9-2.1c-0.8-0.5-1.7-0.7-2.7-0.7c-1,0-1.9,0.2-2.7,0.7c-0.8,0.5-1.4,1.2-1.9,2.1c-0.5,0.9-0.7,1.9-0.7,3
			s0.2,2.1,0.7,3c0.5,0.9,1.1,1.6,1.9,2.1c0.8,0.5,1.7,0.8,2.7,0.8c1,0,1.9-0.3,2.7-0.8c0.8-0.5,1.4-1.2,1.9-2.1
			C142.2,19.8,142.4,18.8,142.4,17.7z"/>
		<path class="st2" d="M161.3,25c-1.4,0-2.7-0.3-3.8-0.9s-1.9-1.5-2.5-2.5c-0.6-1.1-0.9-2.4-0.9-3.8c0-1.6,0.3-2.9,0.9-4
			c0.6-1.1,1.4-2,2.4-2.6c1-0.6,2-0.9,3.1-0.9c0.8,0,1.6,0.1,2.4,0.4c0.8,0.3,1.4,0.7,2,1.3c0.6,0.6,1.1,1.2,1.4,2.1
			c0.4,0.8,0.6,1.8,0.6,2.8c0,0.2-0.1,0.4-0.2,0.6c-0.2,0.2-0.4,0.2-0.6,0.2h-11.1l-0.3-1.5h10.9l-0.4,0.3V16
			c-0.1-0.9-0.4-1.6-0.8-2.2c-0.5-0.6-1.1-1.1-1.7-1.4s-1.4-0.5-2.1-0.5c-0.6,0-1.1,0.1-1.7,0.3c-0.6,0.2-1.1,0.6-1.6,1
			c-0.5,0.5-0.9,1.1-1.1,1.8c-0.3,0.7-0.4,1.6-0.4,2.6c0,1.1,0.2,2.1,0.7,3c0.4,0.9,1.1,1.6,1.9,2.1c0.8,0.5,1.8,0.8,3,0.8
			c0.6,0,1.2-0.1,1.7-0.3c0.5-0.2,1-0.4,1.4-0.7c0.4-0.3,0.7-0.6,1-1c0.2-0.2,0.4-0.2,0.6-0.2c0.2,0,0.4,0.1,0.5,0.2
			s0.2,0.3,0.2,0.5c0,0.2-0.1,0.4-0.3,0.6c-0.6,0.7-1.3,1.2-2.2,1.7C163.3,24.8,162.4,25,161.3,25z"/>
		<path class="st2" d="M171.9,23.9c0,0.2-0.1,0.4-0.2,0.6c-0.2,0.2-0.4,0.2-0.6,0.2c-0.2,0-0.4-0.1-0.6-0.2
			c-0.2-0.2-0.2-0.4-0.2-0.6V5.1c0-0.2,0.1-0.4,0.2-0.6c0.2-0.2,0.4-0.2,0.6-0.2c0.2,0,0.4,0.1,0.6,0.2c0.2,0.2,0.2,0.4,0.2,0.6
			V23.9z"/>
	</g>
</g>
<g>
	<g class="st0">
		<path class="st1" d="M83,54.4c-0.2-0.3-0.3-0.7-0.3-1.3c0-0.5,0.3-1,0.9-1.3c0.4-0.2,0.8-0.3,1.2-0.3c0.4,0,0.8,0.2,1.2,0.6
			c0.7,0.7,1.4,1.2,2.1,1.6c0.7,0.4,1.7,0.6,2.8,0.6c0.3,0,0.7-0.1,1.1-0.2c0.4-0.1,0.8-0.3,1.1-0.6c0.3-0.3,0.5-0.7,0.5-1.3
			c0-0.5-0.2-0.9-0.5-1.2c-0.3-0.3-0.8-0.6-1.4-0.8c-0.6-0.2-1.2-0.4-1.9-0.6c-0.7-0.2-1.5-0.4-2.2-0.7c-0.8-0.3-1.4-0.6-2.1-1
			c-0.6-0.4-1.1-0.9-1.5-1.6c-0.4-0.7-0.6-1.5-0.6-2.5c0-1.2,0.3-2.1,1-3c0.6-0.8,1.5-1.4,2.5-1.9c1-0.4,2.1-0.7,3.3-0.7
			c0.7,0,1.5,0.1,2.3,0.3s1.5,0.5,2.3,0.8c0.7,0.4,1.3,0.9,1.8,1.5c0.3,0.3,0.4,0.8,0.5,1.3c0,0.5-0.2,0.9-0.7,1.3
			c-0.3,0.3-0.8,0.4-1.2,0.4c-0.5,0-0.8-0.2-1.1-0.5c-0.4-0.5-0.9-0.9-1.6-1.2s-1.4-0.5-2.3-0.5c-0.3,0-0.7,0-1.1,0.1
			c-0.4,0.1-0.8,0.3-1.1,0.5c-0.3,0.3-0.5,0.7-0.5,1.3c0,0.5,0.2,1,0.5,1.3c0.3,0.3,0.8,0.6,1.4,0.8c0.6,0.2,1.2,0.4,1.9,0.6
			c0.7,0.2,1.4,0.4,2.1,0.7c0.7,0.3,1.4,0.6,2,1c0.6,0.4,1.1,1,1.5,1.6s0.6,1.5,0.6,2.5c0,1.2-0.3,2.2-1,3s-1.6,1.5-2.6,1.9
			s-2.1,0.6-3.2,0.6c-1.4,0-2.7-0.2-4.1-0.7C85.1,56.5,83.9,55.7,83,54.4z"/>
		<path class="st1" d="M102,36.5c-0.8,0-1.3-0.1-1.7-0.4c-0.3-0.3-0.5-0.7-0.5-1.4v-0.7c0-0.7,0.2-1.1,0.5-1.4
			c0.4-0.2,0.9-0.4,1.7-0.4c0.8,0,1.4,0.1,1.7,0.4c0.3,0.3,0.5,0.7,0.5,1.4v0.7c0,0.7-0.2,1.1-0.5,1.4
			C103.3,36.3,102.8,36.5,102,36.5z M104.1,55.2c0,0.6-0.2,1.1-0.6,1.5c-0.4,0.4-0.9,0.6-1.5,0.6c-0.6,0-1.1-0.2-1.5-0.6
			c-0.4-0.4-0.6-0.9-0.6-1.5V40.8c0-0.6,0.2-1.1,0.6-1.5c0.4-0.4,0.9-0.6,1.5-0.6c0.6,0,1.1,0.2,1.5,0.6s0.6,0.9,0.6,1.5V55.2z"/>
		<path class="st1" d="M106.6,54.4c-0.2-0.3-0.3-0.7-0.3-1.3c0-0.5,0.3-1,0.9-1.3c0.4-0.2,0.8-0.3,1.2-0.3c0.4,0,0.8,0.2,1.2,0.6
			c0.7,0.7,1.4,1.2,2.1,1.6c0.7,0.4,1.7,0.6,2.8,0.6c0.3,0,0.7-0.1,1.1-0.2c0.4-0.1,0.8-0.3,1.1-0.6c0.3-0.3,0.5-0.7,0.5-1.3
			c0-0.5-0.2-0.9-0.5-1.2c-0.3-0.3-0.8-0.6-1.4-0.8c-0.6-0.2-1.2-0.4-1.9-0.6c-0.7-0.2-1.5-0.4-2.2-0.7c-0.8-0.3-1.4-0.6-2.1-1
			c-0.6-0.4-1.1-0.9-1.5-1.6c-0.4-0.7-0.6-1.5-0.6-2.5c0-1.2,0.3-2.1,1-3c0.6-0.8,1.5-1.4,2.5-1.9c1-0.4,2.1-0.7,3.3-0.7
			c0.7,0,1.5,0.1,2.3,0.3s1.5,0.5,2.3,0.8c0.7,0.4,1.3,0.9,1.8,1.5c0.3,0.3,0.4,0.8,0.5,1.3c0,0.5-0.2,0.9-0.7,1.3
			c-0.3,0.3-0.8,0.4-1.2,0.4c-0.5,0-0.8-0.2-1.1-0.5c-0.4-0.5-0.9-0.9-1.6-1.2s-1.4-0.5-2.3-0.5c-0.3,0-0.7,0-1.1,0.1
			c-0.4,0.1-0.8,0.3-1.1,0.5c-0.3,0.3-0.5,0.7-0.5,1.3c0,0.5,0.2,1,0.5,1.3c0.3,0.3,0.8,0.6,1.4,0.8c0.6,0.2,1.2,0.4,1.9,0.6
			c0.7,0.2,1.4,0.4,2.1,0.7c0.7,0.3,1.4,0.6,2,1c0.6,0.4,1.1,1,1.5,1.6s0.6,1.5,0.6,2.5c0,1.2-0.3,2.2-1,3s-1.6,1.5-2.6,1.9
			s-2.1,0.6-3.2,0.6c-1.4,0-2.7-0.2-4.1-0.7C108.6,56.5,107.5,55.7,106.6,54.4z"/>
		<path class="st1" d="M124.4,39.1h8.2c0.6,0,1,0.2,1.4,0.6c0.4,0.4,0.6,0.8,0.6,1.4c0,0.5-0.2,1-0.6,1.3c-0.4,0.4-0.8,0.5-1.4,0.5
			h-8.2c-0.6,0-1-0.2-1.4-0.6s-0.6-0.8-0.6-1.4c0-0.5,0.2-1,0.6-1.3S123.8,39.1,124.4,39.1z M128.1,34.7c0.6,0,1.1,0.2,1.5,0.6
			c0.4,0.4,0.6,0.9,0.6,1.5v15.5c0,0.3,0.1,0.6,0.2,0.8c0.1,0.2,0.3,0.4,0.5,0.5c0.2,0.1,0.5,0.1,0.7,0.1c0.3,0,0.5-0.1,0.8-0.2
			c0.2-0.1,0.5-0.2,0.8-0.2c0.3,0,0.6,0.2,0.9,0.5s0.4,0.7,0.4,1.3c0,0.6-0.4,1.2-1.1,1.6c-0.7,0.4-1.5,0.6-2.3,0.6
			c-0.5,0-1,0-1.6-0.1c-0.6-0.1-1.1-0.3-1.7-0.6c-0.5-0.3-1-0.8-1.3-1.4c-0.3-0.6-0.5-1.5-0.5-2.7V36.8c0-0.6,0.2-1.1,0.6-1.5
			C127,34.9,127.5,34.7,128.1,34.7z"/>
		<path class="st1" d="M145.7,57.7c-2,0-3.7-0.4-5.1-1.2c-1.5-0.8-2.6-1.9-3.3-3.4c-0.8-1.4-1.2-3-1.2-4.8c0-2.1,0.4-3.9,1.3-5.3
			c0.8-1.5,2-2.6,3.3-3.4c1.4-0.8,2.8-1.2,4.3-1.2c1.2,0,2.3,0.2,3.4,0.7c1.1,0.5,2,1.2,2.8,2s1.5,1.8,1.9,2.9
			c0.5,1.1,0.7,2.3,0.7,3.5c0,0.6-0.2,1-0.7,1.4c-0.4,0.3-0.9,0.5-1.5,0.5h-13.3l-1-3.5h12.8l-0.8,0.7v-0.9c0-0.7-0.3-1.3-0.7-1.8
			c-0.4-0.5-1-1-1.6-1.3c-0.6-0.3-1.3-0.5-2-0.5c-0.7,0-1.3,0.1-1.9,0.3c-0.6,0.2-1.1,0.5-1.6,0.9c-0.4,0.4-0.8,1-1,1.8
			S140,46.9,140,48c0,1.3,0.3,2.3,0.8,3.2s1.2,1.5,2,2c0.8,0.5,1.7,0.7,2.6,0.7c0.9,0,1.5-0.1,2.1-0.2c0.5-0.1,0.9-0.3,1.2-0.5
			c0.3-0.2,0.6-0.4,0.9-0.5c0.4-0.2,0.8-0.3,1.2-0.3c0.5,0,0.9,0.2,1.3,0.5c0.3,0.3,0.5,0.8,0.5,1.2c0,0.6-0.3,1.2-1,1.7
			c-0.6,0.5-1.5,1-2.5,1.3C147.9,57.5,146.8,57.7,145.7,57.7z"/>
		<path class="st1" d="M166.6,38.4c1.9,0,3.2,0.4,4.1,1.3c0.9,0.9,1.5,2,1.7,3.5l-0.6-0.3l0.3-0.6c0.3-0.5,0.7-1.1,1.3-1.7
			c0.6-0.6,1.3-1.1,2.1-1.6c0.8-0.4,1.7-0.6,2.8-0.6c1.7,0,2.9,0.4,3.8,1.1c0.9,0.7,1.5,1.7,1.8,2.9c0.3,1.2,0.5,2.5,0.5,4v8.9
			c0,0.6-0.2,1.1-0.6,1.5c-0.4,0.4-0.9,0.6-1.5,0.6c-0.6,0-1.1-0.2-1.5-0.6c-0.4-0.4-0.6-0.9-0.6-1.5v-8.9c0-0.8-0.1-1.5-0.3-2.1
			c-0.2-0.6-0.5-1.1-1-1.5c-0.5-0.4-1.2-0.6-2.1-0.6c-0.9,0-1.6,0.2-2.3,0.6c-0.6,0.4-1.1,0.9-1.4,1.5c-0.3,0.6-0.5,1.3-0.5,2.1v8.9
			c0,0.6-0.2,1.1-0.6,1.5c-0.4,0.4-0.9,0.6-1.5,0.6c-0.6,0-1.1-0.2-1.5-0.6c-0.4-0.4-0.6-0.9-0.6-1.5v-8.9c0-0.8-0.1-1.5-0.3-2.1
			s-0.5-1.1-1-1.5c-0.5-0.4-1.2-0.6-2.1-0.6c-0.9,0-1.6,0.2-2.3,0.6c-0.6,0.4-1.1,0.9-1.4,1.5c-0.3,0.6-0.5,1.3-0.5,2.1v8.9
			c0,0.6-0.2,1.1-0.6,1.5c-0.4,0.4-0.9,0.6-1.5,0.6c-0.6,0-1.1-0.2-1.5-0.6c-0.4-0.4-0.6-0.9-0.6-1.5V40.8c0-0.6,0.2-1.1,0.6-1.5
			c0.4-0.4,0.9-0.6,1.5-0.6c0.6,0,1.1,0.2,1.5,0.6s0.6,0.9,0.6,1.5v1.5l-0.5-0.1c0.2-0.4,0.5-0.8,0.9-1.3c0.4-0.5,0.8-0.9,1.4-1.3
			c0.5-0.4,1.1-0.7,1.8-1C165.1,38.5,165.8,38.4,166.6,38.4z"/>
		<path class="st1" d="M203.5,38.4c0.6,0,1.1,0.2,1.5,0.6s0.6,0.9,0.6,1.5v14.7c0,0.6-0.2,1.1-0.6,1.5c-0.4,0.4-0.9,0.6-1.5,0.6
			c-0.6,0-1.1-0.2-1.5-0.6c-0.4-0.4-0.6-0.9-0.6-1.5v-1.7l0.8,0.3c0,0.3-0.2,0.7-0.5,1.1c-0.3,0.4-0.8,0.9-1.3,1.3
			c-0.6,0.4-1.2,0.8-2,1.1c-0.8,0.3-1.6,0.4-2.5,0.4c-1.6,0-3.1-0.4-4.3-1.2c-1.3-0.8-2.3-2-3.1-3.4c-0.8-1.4-1.1-3.1-1.1-5
			c0-1.9,0.4-3.6,1.1-5c0.8-1.5,1.8-2.6,3-3.4c1.3-0.8,2.7-1.2,4.2-1.2c1,0,1.9,0.2,2.8,0.5c0.8,0.3,1.6,0.7,2.2,1.1
			s1.1,0.9,1.4,1.4s0.5,0.9,0.5,1.2l-1.3,0.5v-2.5c0-0.6,0.2-1.1,0.6-1.5C202.4,38.6,202.9,38.4,203.5,38.4z M196.4,53.9
			c1,0,1.9-0.3,2.7-0.8c0.8-0.5,1.4-1.2,1.8-2.1c0.4-0.9,0.6-1.9,0.6-3c0-1.1-0.2-2.1-0.6-3c-0.4-0.9-1-1.6-1.8-2.1
			c-0.8-0.5-1.7-0.8-2.7-0.8c-1,0-1.9,0.3-2.6,0.8c-0.8,0.5-1.4,1.2-1.8,2.1c-0.4,0.9-0.6,1.9-0.6,3c0,1.1,0.2,2.1,0.6,3
			c0.4,0.9,1,1.6,1.8,2.1C194.6,53.6,195.4,53.9,196.4,53.9z"/>
		<path class="st1" d="M234.9,31.6c0.6,0,1.1,0.2,1.5,0.6c0.4,0.4,0.6,0.9,0.6,1.5v21.5c0,0.6-0.2,1.1-0.6,1.5
			c-0.4,0.4-0.9,0.6-1.5,0.6c-0.6,0-1.1-0.2-1.5-0.6c-0.4-0.4-0.6-0.9-0.6-1.5v-1.7l0.8,0.3c0,0.3-0.2,0.7-0.5,1.1
			c-0.3,0.4-0.8,0.9-1.3,1.3c-0.6,0.4-1.2,0.8-2,1.1c-0.8,0.3-1.6,0.4-2.5,0.4c-1.6,0-3.1-0.4-4.3-1.2c-1.3-0.8-2.3-2-3.1-3.4
			c-0.8-1.4-1.1-3.1-1.1-5c0-1.9,0.4-3.6,1.1-5c0.8-1.5,1.8-2.6,3-3.4c1.3-0.8,2.7-1.2,4.2-1.2c1,0,1.9,0.2,2.7,0.5
			c0.8,0.3,1.6,0.7,2.2,1.1c0.6,0.5,1.1,0.9,1.4,1.4c0.3,0.5,0.5,0.9,0.5,1.2l-1.3,0.5v-9.3c0-0.6,0.2-1.1,0.6-1.5
			C233.8,31.8,234.3,31.6,234.9,31.6z M227.9,53.9c1,0,1.9-0.3,2.7-0.8c0.8-0.5,1.4-1.2,1.8-2.1c0.4-0.9,0.6-1.9,0.6-3
			c0-1.1-0.2-2.1-0.6-3c-0.4-0.9-1-1.6-1.8-2.1c-0.8-0.5-1.7-0.8-2.7-0.8c-1,0-1.9,0.3-2.6,0.8c-0.8,0.5-1.4,1.2-1.8,2.1
			c-0.4,0.9-0.6,1.9-0.6,3c0,1.1,0.2,2.1,0.6,3c0.4,0.9,1,1.6,1.8,2.1C226,53.6,226.9,53.9,227.9,53.9z"/>
		<path class="st1" d="M242.7,36.5c-0.8,0-1.3-0.1-1.7-0.4c-0.3-0.3-0.5-0.7-0.5-1.4v-0.7c0-0.7,0.2-1.1,0.5-1.4
			c0.4-0.2,0.9-0.4,1.7-0.4c0.8,0,1.4,0.1,1.7,0.4c0.3,0.3,0.5,0.7,0.5,1.4v0.7c0,0.7-0.2,1.1-0.5,1.4
			C244.1,36.3,243.5,36.5,242.7,36.5z M244.9,55.2c0,0.6-0.2,1.1-0.6,1.5c-0.4,0.4-0.9,0.6-1.5,0.6c-0.6,0-1.1-0.2-1.5-0.6
			c-0.4-0.4-0.6-0.9-0.6-1.5V40.8c0-0.6,0.2-1.1,0.6-1.5c0.4-0.4,0.9-0.6,1.5-0.6c0.6,0,1.1,0.2,1.5,0.6s0.6,0.9,0.6,1.5V55.2z"/>
		<path class="st1" d="M256.1,38.4c1,0,1.9,0.2,2.7,0.5c0.8,0.3,1.5,0.7,2.1,1.1s1.1,0.9,1.4,1.4c0.3,0.5,0.5,0.9,0.5,1.2l-0.9,0.5
			v-2.5c0-0.6,0.2-1.1,0.6-1.5c0.4-0.4,0.9-0.6,1.5-0.6s1.1,0.2,1.5,0.6s0.6,0.9,0.6,1.5V56c0,2-0.4,3.6-1.3,4.9
			c-0.9,1.2-2,2.1-3.4,2.6c-1.4,0.5-2.9,0.8-4.6,0.8c-0.5,0-1.1-0.1-1.8-0.2c-0.7-0.1-1.5-0.3-2.1-0.4c-0.7-0.2-1.2-0.3-1.5-0.5
			c-0.7-0.3-1.2-0.7-1.4-1.1c-0.3-0.5-0.3-0.9-0.2-1.4c0.2-0.7,0.5-1.1,1-1.4c0.5-0.2,1-0.3,1.5-0.1c0.2,0.1,0.6,0.2,1.1,0.4
			c0.5,0.2,1.1,0.4,1.8,0.6c0.6,0.2,1.2,0.3,1.7,0.3c1.7,0,3-0.3,3.9-1s1.3-1.7,1.3-2.9v-3l0.4,0.3c0,0.3-0.2,0.7-0.5,1.1
			c-0.3,0.4-0.7,0.9-1.3,1.3c-0.5,0.4-1.2,0.8-1.9,1.1s-1.5,0.4-2.4,0.4c-1.6,0-3.1-0.4-4.5-1.2c-1.3-0.8-2.4-2-3.1-3.4
			c-0.8-1.4-1.1-3.1-1.1-5c0-1.9,0.4-3.6,1.1-5c0.8-1.5,1.8-2.6,3.1-3.4C253.1,38.8,254.5,38.4,256.1,38.4z M256.8,42.2
			c-1,0-2,0.3-2.7,0.8c-0.8,0.5-1.4,1.2-1.8,2.1c-0.4,0.9-0.7,1.9-0.7,3c0,1.1,0.2,2.1,0.7,3c0.4,0.9,1.1,1.6,1.8,2.1
			c0.8,0.5,1.7,0.8,2.7,0.8c1.1,0,2-0.3,2.8-0.8c0.8-0.5,1.4-1.2,1.8-2.1c0.4-0.9,0.7-1.9,0.7-3c0-1.1-0.2-2.1-0.7-3
			c-0.4-0.9-1.1-1.6-1.8-2.1C258.8,42.5,257.9,42.2,256.8,42.2z"/>
		<path class="st1" d="M278.8,57.7c-2,0-3.7-0.4-5.1-1.2c-1.4-0.8-2.6-1.9-3.3-3.4s-1.2-3-1.2-4.8c0-2.1,0.4-3.9,1.3-5.3
			c0.8-1.5,2-2.6,3.3-3.4c1.4-0.8,2.8-1.2,4.3-1.2c1.2,0,2.3,0.2,3.4,0.7c1.1,0.5,2,1.2,2.8,2s1.5,1.8,1.9,2.9
			c0.5,1.1,0.7,2.3,0.7,3.5c0,0.6-0.2,1-0.7,1.4c-0.4,0.3-0.9,0.5-1.5,0.5h-13.3l-1-3.5h12.8l-0.8,0.7v-0.9c0-0.7-0.3-1.3-0.7-1.8
			c-0.4-0.5-1-1-1.6-1.3c-0.6-0.3-1.3-0.5-2-0.5c-0.7,0-1.3,0.1-1.9,0.3c-0.6,0.2-1.1,0.5-1.6,0.9c-0.4,0.4-0.8,1-1,1.8
			c-0.3,0.7-0.4,1.7-0.4,2.8c0,1.3,0.3,2.3,0.8,3.2c0.5,0.9,1.2,1.5,2,2c0.8,0.5,1.7,0.7,2.6,0.7c0.9,0,1.5-0.1,2.1-0.2
			c0.5-0.1,0.9-0.3,1.2-0.5c0.3-0.2,0.6-0.4,0.9-0.5c0.4-0.2,0.8-0.3,1.2-0.3c0.5,0,0.9,0.2,1.3,0.5c0.3,0.3,0.5,0.8,0.5,1.2
			c0,0.6-0.3,1.2-1,1.7c-0.6,0.5-1.5,1-2.5,1.3S280,57.7,278.8,57.7z"/>
		<path class="st1" d="M289,54.4c-0.2-0.3-0.3-0.7-0.3-1.3c0-0.5,0.3-1,0.9-1.3c0.4-0.2,0.8-0.3,1.2-0.3s0.8,0.2,1.2,0.6
			c0.7,0.7,1.4,1.2,2.1,1.6s1.7,0.6,2.8,0.6c0.3,0,0.7-0.1,1.1-0.2c0.4-0.1,0.8-0.3,1.1-0.6c0.3-0.3,0.5-0.7,0.5-1.3
			c0-0.5-0.2-0.9-0.5-1.2c-0.3-0.3-0.8-0.6-1.4-0.8c-0.6-0.2-1.2-0.4-1.9-0.6c-0.7-0.2-1.5-0.4-2.2-0.7c-0.8-0.3-1.4-0.6-2.1-1
			c-0.6-0.4-1.1-0.9-1.5-1.6s-0.6-1.5-0.6-2.5c0-1.2,0.3-2.1,1-3c0.6-0.8,1.5-1.4,2.5-1.9s2.1-0.7,3.3-0.7c0.7,0,1.5,0.1,2.3,0.3
			c0.8,0.2,1.5,0.5,2.3,0.8s1.3,0.9,1.8,1.5c0.3,0.3,0.4,0.8,0.5,1.3c0,0.5-0.2,0.9-0.7,1.3c-0.3,0.3-0.8,0.4-1.2,0.4
			c-0.5,0-0.8-0.2-1.1-0.5c-0.4-0.5-0.9-0.9-1.6-1.2c-0.7-0.3-1.4-0.5-2.3-0.5c-0.3,0-0.7,0-1.1,0.1c-0.4,0.1-0.8,0.3-1.1,0.5
			s-0.5,0.7-0.5,1.3c0,0.5,0.2,1,0.5,1.3s0.8,0.6,1.4,0.8c0.6,0.2,1.2,0.4,1.9,0.6c0.7,0.2,1.4,0.4,2.1,0.7s1.4,0.6,2,1
			c0.6,0.4,1.1,1,1.5,1.6s0.6,1.5,0.6,2.5c0,1.2-0.3,2.2-1,3c-0.7,0.8-1.6,1.5-2.6,1.9s-2.1,0.6-3.2,0.6c-1.4,0-2.7-0.2-4.1-0.7
			C291,56.5,289.9,55.7,289,54.4z"/>
		<path class="st1" d="M306.8,39.1h8.2c0.6,0,1,0.2,1.4,0.6c0.4,0.4,0.6,0.8,0.6,1.4c0,0.5-0.2,1-0.6,1.3c-0.4,0.4-0.8,0.5-1.4,0.5
			h-8.2c-0.6,0-1-0.2-1.4-0.6s-0.6-0.8-0.6-1.4c0-0.5,0.2-1,0.6-1.3S306.2,39.1,306.8,39.1z M310.5,34.7c0.6,0,1.1,0.2,1.5,0.6
			c0.4,0.4,0.6,0.9,0.6,1.5v15.5c0,0.3,0.1,0.6,0.2,0.8c0.1,0.2,0.3,0.4,0.5,0.5s0.5,0.1,0.7,0.1c0.3,0,0.5-0.1,0.8-0.2
			c0.2-0.1,0.5-0.2,0.8-0.2c0.3,0,0.6,0.2,0.9,0.5c0.3,0.3,0.4,0.7,0.4,1.3c0,0.6-0.4,1.2-1.1,1.6c-0.7,0.4-1.5,0.6-2.3,0.6
			c-0.5,0-1,0-1.6-0.1c-0.6-0.1-1.1-0.3-1.7-0.6c-0.5-0.3-1-0.8-1.3-1.4s-0.5-1.5-0.5-2.7V36.8c0-0.6,0.2-1.1,0.6-1.5
			C309.4,34.9,309.9,34.7,310.5,34.7z"/>
		<path class="st1" d="M322.1,36.5c-0.8,0-1.3-0.1-1.7-0.4c-0.3-0.3-0.5-0.7-0.5-1.4v-0.7c0-0.7,0.2-1.1,0.5-1.4s0.9-0.4,1.7-0.4
			c0.8,0,1.4,0.1,1.7,0.4s0.5,0.7,0.5,1.4v0.7c0,0.7-0.2,1.1-0.5,1.4C323.4,36.3,322.9,36.5,322.1,36.5z M324.2,55.2
			c0,0.6-0.2,1.1-0.6,1.5c-0.4,0.4-0.9,0.6-1.5,0.6c-0.6,0-1.1-0.2-1.5-0.6c-0.4-0.4-0.6-0.9-0.6-1.5V40.8c0-0.6,0.2-1.1,0.6-1.5
			c0.4-0.4,0.9-0.6,1.5-0.6c0.6,0,1.1,0.2,1.5,0.6s0.6,0.9,0.6,1.5V55.2z"/>
		<path class="st1" d="M328.6,38.7c0.4,0,0.8,0.1,1.2,0.3s0.6,0.6,0.8,1l5.1,11.7l-0.8,0.3l5.2-12c0.4-0.9,1-1.4,1.8-1.3
			c0.6,0,1,0.2,1.4,0.5c0.4,0.4,0.5,0.8,0.5,1.3c0,0.2,0,0.3-0.1,0.5c-0.1,0.2-0.1,0.4-0.2,0.5L337.2,56c-0.4,0.8-1,1.3-1.8,1.3
			c-0.4,0.1-0.9,0-1.3-0.2c-0.4-0.2-0.7-0.6-0.9-1.1l-6.5-14.3c0-0.1-0.1-0.3-0.2-0.5c-0.1-0.2-0.1-0.4-0.1-0.7
			c0-0.4,0.2-0.8,0.6-1.2S328,38.7,328.6,38.7z"/>
		<path class="st1" d="M363.9,48c0,1.9-0.4,3.6-1.3,5c-0.8,1.5-2,2.6-3.4,3.4c-1.4,0.8-3,1.2-4.8,1.2s-3.4-0.4-4.8-1.2
			c-1.4-0.8-2.6-1.9-3.4-3.4c-0.8-1.4-1.3-3.1-1.3-5c0-1.9,0.4-3.6,1.3-5c0.8-1.5,2-2.6,3.4-3.4c1.4-0.8,3-1.2,4.8-1.2
			s3.4,0.4,4.8,1.2c1.4,0.8,2.6,2,3.4,3.4C363.5,44.5,363.9,46.1,363.9,48z M359.7,48c0-1.2-0.2-2.2-0.7-3.1c-0.5-0.9-1.1-1.5-1.9-2
			c-0.8-0.5-1.7-0.7-2.7-0.7c-1,0-1.9,0.2-2.7,0.7c-0.8,0.5-1.4,1.2-1.9,2c-0.5,0.9-0.7,1.9-0.7,3.1c0,1.2,0.2,2.2,0.7,3
			c0.5,0.9,1.1,1.5,1.9,2c0.8,0.5,1.7,0.7,2.7,0.7c1,0,1.9-0.2,2.7-0.7c0.8-0.5,1.4-1.2,1.9-2C359.5,50.2,359.7,49.2,359.7,48z"/>
	</g>
	<g>
		<path class="st2" d="M80,51.4c-0.2-0.3-0.3-0.7-0.3-1.3c0-0.5,0.3-1,0.9-1.3c0.4-0.2,0.8-0.3,1.2-0.3c0.4,0,0.8,0.2,1.2,0.6
			c0.7,0.7,1.4,1.2,2.1,1.6c0.7,0.4,1.7,0.6,2.8,0.6c0.3,0,0.7-0.1,1.1-0.2c0.4-0.1,0.8-0.3,1.1-0.6c0.3-0.3,0.5-0.7,0.5-1.3
			c0-0.5-0.2-0.9-0.5-1.2c-0.3-0.3-0.8-0.6-1.4-0.8c-0.6-0.2-1.2-0.4-1.9-0.6c-0.7-0.2-1.5-0.4-2.2-0.7c-0.8-0.3-1.4-0.6-2.1-1
			c-0.6-0.4-1.1-0.9-1.5-1.6c-0.4-0.7-0.6-1.5-0.6-2.5c0-1.2,0.3-2.1,1-3c0.6-0.8,1.5-1.4,2.5-1.9c1-0.4,2.1-0.7,3.3-0.7
			c0.7,0,1.5,0.1,2.3,0.3s1.5,0.5,2.3,0.8c0.7,0.4,1.3,0.9,1.8,1.5c0.3,0.3,0.4,0.8,0.5,1.3c0,0.5-0.2,0.9-0.7,1.3
			c-0.3,0.3-0.8,0.4-1.2,0.4c-0.5,0-0.8-0.2-1.1-0.5c-0.4-0.5-0.9-0.9-1.6-1.2s-1.4-0.5-2.3-0.5c-0.3,0-0.7,0-1.1,0.1
			c-0.4,0.1-0.8,0.3-1.1,0.5c-0.3,0.3-0.5,0.7-0.5,1.3c0,0.5,0.2,1,0.5,1.3c0.3,0.3,0.8,0.6,1.4,0.8c0.6,0.2,1.2,0.4,1.9,0.6
			c0.7,0.2,1.4,0.4,2.1,0.7c0.7,0.3,1.4,0.6,2,1c0.6,0.4,1.1,1,1.5,1.6s0.6,1.5,0.6,2.5c0,1.2-0.3,2.2-1,3s-1.6,1.5-2.6,1.9
			s-2.1,0.6-3.2,0.6c-1.4,0-2.7-0.2-4.1-0.7C82.1,53.5,80.9,52.7,80,51.4z"/>
		<path class="st2" d="M99,33.5c-0.8,0-1.3-0.1-1.7-0.4c-0.3-0.3-0.5-0.7-0.5-1.4v-0.7c0-0.7,0.2-1.1,0.5-1.4
			c0.4-0.2,0.9-0.4,1.7-0.4c0.8,0,1.4,0.1,1.7,0.4c0.3,0.3,0.5,0.7,0.5,1.4v0.7c0,0.7-0.2,1.1-0.5,1.4C100.3,33.3,99.8,33.5,99,33.5
			z M101.1,52.2c0,0.6-0.2,1.1-0.6,1.5c-0.4,0.4-0.9,0.6-1.5,0.6c-0.6,0-1.1-0.2-1.5-0.6c-0.4-0.4-0.6-0.9-0.6-1.5V37.8
			c0-0.6,0.2-1.1,0.6-1.5c0.4-0.4,0.9-0.6,1.5-0.6c0.6,0,1.1,0.2,1.5,0.6s0.6,0.9,0.6,1.5V52.2z"/>
		<path class="st2" d="M103.6,51.4c-0.2-0.3-0.3-0.7-0.3-1.3c0-0.5,0.3-1,0.9-1.3c0.4-0.2,0.8-0.3,1.2-0.3c0.4,0,0.8,0.2,1.2,0.6
			c0.7,0.7,1.4,1.2,2.1,1.6c0.7,0.4,1.7,0.6,2.8,0.6c0.3,0,0.7-0.1,1.1-0.2c0.4-0.1,0.8-0.3,1.1-0.6c0.3-0.3,0.5-0.7,0.5-1.3
			c0-0.5-0.2-0.9-0.5-1.2c-0.3-0.3-0.8-0.6-1.4-0.8c-0.6-0.2-1.2-0.4-1.9-0.6c-0.7-0.2-1.5-0.4-2.2-0.7c-0.8-0.3-1.4-0.6-2.1-1
			c-0.6-0.4-1.1-0.9-1.5-1.6c-0.4-0.7-0.6-1.5-0.6-2.5c0-1.2,0.3-2.1,1-3c0.6-0.8,1.5-1.4,2.5-1.9c1-0.4,2.1-0.7,3.3-0.7
			c0.7,0,1.5,0.1,2.3,0.3s1.5,0.5,2.3,0.8c0.7,0.4,1.3,0.9,1.8,1.5c0.3,0.3,0.4,0.8,0.5,1.3c0,0.5-0.2,0.9-0.7,1.3
			c-0.3,0.3-0.8,0.4-1.2,0.4c-0.5,0-0.8-0.2-1.1-0.5c-0.4-0.5-0.9-0.9-1.6-1.2s-1.4-0.5-2.3-0.5c-0.3,0-0.7,0-1.1,0.1
			c-0.4,0.1-0.8,0.3-1.1,0.5c-0.3,0.3-0.5,0.7-0.5,1.3c0,0.5,0.2,1,0.5,1.3c0.3,0.3,0.8,0.6,1.4,0.8c0.6,0.2,1.2,0.4,1.9,0.6
			c0.7,0.2,1.4,0.4,2.1,0.7c0.7,0.3,1.4,0.6,2,1c0.6,0.4,1.1,1,1.5,1.6s0.6,1.5,0.6,2.5c0,1.2-0.3,2.2-1,3s-1.6,1.5-2.6,1.9
			s-2.1,0.6-3.2,0.6c-1.4,0-2.7-0.2-4.1-0.7C105.6,53.5,104.5,52.7,103.6,51.4z"/>
		<path class="st2" d="M121.4,36.1h8.2c0.6,0,1,0.2,1.4,0.6c0.4,0.4,0.6,0.8,0.6,1.4c0,0.5-0.2,1-0.6,1.3c-0.4,0.4-0.8,0.5-1.4,0.5
			h-8.2c-0.6,0-1-0.2-1.4-0.6s-0.6-0.8-0.6-1.4c0-0.5,0.2-1,0.6-1.3S120.8,36.1,121.4,36.1z M125.1,31.7c0.6,0,1.1,0.2,1.5,0.6
			c0.4,0.4,0.6,0.9,0.6,1.5v15.5c0,0.3,0.1,0.6,0.2,0.8c0.1,0.2,0.3,0.4,0.5,0.5c0.2,0.1,0.5,0.1,0.7,0.1c0.3,0,0.5-0.1,0.8-0.2
			c0.2-0.1,0.5-0.2,0.8-0.2c0.3,0,0.6,0.2,0.9,0.5s0.4,0.7,0.4,1.3c0,0.6-0.4,1.2-1.1,1.6c-0.7,0.4-1.5,0.6-2.3,0.6
			c-0.5,0-1,0-1.6-0.1c-0.6-0.1-1.1-0.3-1.7-0.6c-0.5-0.3-1-0.8-1.3-1.4c-0.3-0.6-0.5-1.5-0.5-2.7V33.8c0-0.6,0.2-1.1,0.6-1.5
			C124,31.9,124.5,31.7,125.1,31.7z"/>
		<path class="st2" d="M142.7,54.7c-2,0-3.7-0.4-5.1-1.2c-1.5-0.8-2.6-1.9-3.3-3.4c-0.8-1.4-1.2-3-1.2-4.8c0-2.1,0.4-3.9,1.3-5.3
			c0.8-1.5,2-2.6,3.3-3.4c1.4-0.8,2.8-1.2,4.3-1.2c1.2,0,2.3,0.2,3.4,0.7c1.1,0.5,2,1.2,2.8,2s1.5,1.8,1.9,2.9
			c0.5,1.1,0.7,2.3,0.7,3.5c0,0.6-0.2,1-0.7,1.4c-0.4,0.3-0.9,0.5-1.5,0.5h-13.3l-1-3.5h12.8l-0.8,0.7v-0.9c0-0.7-0.3-1.3-0.7-1.8
			c-0.4-0.5-1-1-1.6-1.3c-0.6-0.3-1.3-0.5-2-0.5c-0.7,0-1.3,0.1-1.9,0.3c-0.6,0.2-1.1,0.5-1.6,0.9c-0.4,0.4-0.8,1-1,1.8
			S137,43.9,137,45c0,1.3,0.3,2.3,0.8,3.2s1.2,1.5,2,2c0.8,0.5,1.7,0.7,2.6,0.7c0.9,0,1.5-0.1,2.1-0.2c0.5-0.1,0.9-0.3,1.2-0.5
			c0.3-0.2,0.6-0.4,0.9-0.5c0.4-0.2,0.8-0.3,1.2-0.3c0.5,0,0.9,0.2,1.3,0.5c0.3,0.3,0.5,0.8,0.5,1.2c0,0.6-0.3,1.2-1,1.7
			c-0.6,0.5-1.5,1-2.5,1.3C144.9,54.5,143.8,54.7,142.7,54.7z"/>
		<path class="st2" d="M163.6,35.4c1.9,0,3.2,0.4,4.1,1.3c0.9,0.9,1.5,2,1.7,3.5l-0.6-0.3l0.3-0.6c0.3-0.5,0.7-1.1,1.3-1.7
			c0.6-0.6,1.3-1.1,2.1-1.6c0.8-0.4,1.7-0.6,2.8-0.6c1.7,0,2.9,0.4,3.8,1.1c0.9,0.7,1.5,1.7,1.8,2.9c0.3,1.2,0.5,2.5,0.5,4v8.9
			c0,0.6-0.2,1.1-0.6,1.5c-0.4,0.4-0.9,0.6-1.5,0.6c-0.6,0-1.1-0.2-1.5-0.6c-0.4-0.4-0.6-0.9-0.6-1.5v-8.9c0-0.8-0.1-1.5-0.3-2.1
			c-0.2-0.6-0.5-1.1-1-1.5c-0.5-0.4-1.2-0.6-2.1-0.6c-0.9,0-1.6,0.2-2.3,0.6c-0.6,0.4-1.1,0.9-1.4,1.5c-0.3,0.6-0.5,1.3-0.5,2.1v8.9
			c0,0.6-0.2,1.1-0.6,1.5c-0.4,0.4-0.9,0.6-1.5,0.6c-0.6,0-1.1-0.2-1.5-0.6c-0.4-0.4-0.6-0.9-0.6-1.5v-8.9c0-0.8-0.1-1.5-0.3-2.1
			s-0.5-1.1-1-1.5c-0.5-0.4-1.2-0.6-2.1-0.6c-0.9,0-1.6,0.2-2.3,0.6c-0.6,0.4-1.1,0.9-1.4,1.5c-0.3,0.6-0.5,1.3-0.5,2.1v8.9
			c0,0.6-0.2,1.1-0.6,1.5c-0.4,0.4-0.9,0.6-1.5,0.6c-0.6,0-1.1-0.2-1.5-0.6c-0.4-0.4-0.6-0.9-0.6-1.5V37.8c0-0.6,0.2-1.1,0.6-1.5
			c0.4-0.4,0.9-0.6,1.5-0.6c0.6,0,1.1,0.2,1.5,0.6s0.6,0.9,0.6,1.5v1.5l-0.5-0.1c0.2-0.4,0.5-0.8,0.9-1.3c0.4-0.5,0.8-0.9,1.4-1.3
			c0.5-0.4,1.1-0.7,1.8-1C162.1,35.5,162.8,35.4,163.6,35.4z"/>
		<path class="st2" d="M200.5,35.4c0.6,0,1.1,0.2,1.5,0.6s0.6,0.9,0.6,1.5v14.7c0,0.6-0.2,1.1-0.6,1.5c-0.4,0.4-0.9,0.6-1.5,0.6
			c-0.6,0-1.1-0.2-1.5-0.6c-0.4-0.4-0.6-0.9-0.6-1.5v-1.7l0.8,0.3c0,0.3-0.2,0.7-0.5,1.1c-0.3,0.4-0.8,0.9-1.3,1.3
			c-0.6,0.4-1.2,0.8-2,1.1c-0.8,0.3-1.6,0.4-2.5,0.4c-1.6,0-3.1-0.4-4.3-1.2c-1.3-0.8-2.3-2-3.1-3.4c-0.8-1.4-1.1-3.1-1.1-5
			c0-1.9,0.4-3.6,1.1-5c0.8-1.5,1.8-2.6,3-3.4c1.3-0.8,2.7-1.2,4.2-1.2c1,0,1.9,0.2,2.8,0.5c0.8,0.3,1.6,0.7,2.2,1.1
			s1.1,0.9,1.4,1.4s0.5,0.9,0.5,1.2l-1.3,0.5v-2.5c0-0.6,0.2-1.1,0.6-1.5C199.4,35.6,199.9,35.4,200.5,35.4z M193.4,50.9
			c1,0,1.9-0.3,2.7-0.8c0.8-0.5,1.4-1.2,1.8-2.1c0.4-0.9,0.6-1.9,0.6-3c0-1.1-0.2-2.1-0.6-3c-0.4-0.9-1-1.6-1.8-2.1
			c-0.8-0.5-1.7-0.8-2.7-0.8c-1,0-1.9,0.3-2.6,0.8c-0.8,0.5-1.4,1.2-1.8,2.1c-0.4,0.9-0.6,1.9-0.6,3c0,1.1,0.2,2.1,0.6,3
			c0.4,0.9,1,1.6,1.8,2.1C191.6,50.6,192.4,50.9,193.4,50.9z"/>
		<path class="st2" d="M231.9,28.6c0.6,0,1.1,0.2,1.5,0.6c0.4,0.4,0.6,0.9,0.6,1.5v21.5c0,0.6-0.2,1.1-0.6,1.5
			c-0.4,0.4-0.9,0.6-1.5,0.6c-0.6,0-1.1-0.2-1.5-0.6c-0.4-0.4-0.6-0.9-0.6-1.5v-1.7l0.8,0.3c0,0.3-0.2,0.7-0.5,1.1
			c-0.3,0.4-0.8,0.9-1.3,1.3c-0.6,0.4-1.2,0.8-2,1.1c-0.8,0.3-1.6,0.4-2.5,0.4c-1.6,0-3.1-0.4-4.3-1.2c-1.3-0.8-2.3-2-3.1-3.4
			c-0.8-1.4-1.1-3.1-1.1-5c0-1.9,0.4-3.6,1.1-5c0.8-1.5,1.8-2.6,3-3.4c1.3-0.8,2.7-1.2,4.2-1.2c1,0,1.9,0.2,2.7,0.5
			c0.8,0.3,1.6,0.7,2.2,1.1c0.6,0.5,1.1,0.9,1.4,1.4c0.3,0.5,0.5,0.9,0.5,1.2l-1.3,0.5v-9.3c0-0.6,0.2-1.1,0.6-1.5
			C230.8,28.8,231.3,28.6,231.9,28.6z M224.9,50.9c1,0,1.9-0.3,2.7-0.8c0.8-0.5,1.4-1.2,1.8-2.1c0.4-0.9,0.6-1.9,0.6-3
			c0-1.1-0.2-2.1-0.6-3c-0.4-0.9-1-1.6-1.8-2.1c-0.8-0.5-1.7-0.8-2.7-0.8c-1,0-1.9,0.3-2.6,0.8c-0.8,0.5-1.4,1.2-1.8,2.1
			c-0.4,0.9-0.6,1.9-0.6,3c0,1.1,0.2,2.1,0.6,3c0.4,0.9,1,1.6,1.8,2.1C223,50.6,223.9,50.9,224.9,50.9z"/>
		<path class="st2" d="M239.7,33.5c-0.8,0-1.3-0.1-1.7-0.4c-0.3-0.3-0.5-0.7-0.5-1.4v-0.7c0-0.7,0.2-1.1,0.5-1.4
			c0.4-0.2,0.9-0.4,1.7-0.4c0.8,0,1.4,0.1,1.7,0.4c0.3,0.3,0.5,0.7,0.5,1.4v0.7c0,0.7-0.2,1.1-0.5,1.4
			C241.1,33.3,240.5,33.5,239.7,33.5z M241.9,52.2c0,0.6-0.2,1.1-0.6,1.5c-0.4,0.4-0.9,0.6-1.5,0.6c-0.6,0-1.1-0.2-1.5-0.6
			c-0.4-0.4-0.6-0.9-0.6-1.5V37.8c0-0.6,0.2-1.1,0.6-1.5c0.4-0.4,0.9-0.6,1.5-0.6c0.6,0,1.1,0.2,1.5,0.6s0.6,0.9,0.6,1.5V52.2z"/>
		<path class="st2" d="M253.1,35.4c1,0,1.9,0.2,2.7,0.5c0.8,0.3,1.5,0.7,2.1,1.1s1.1,0.9,1.4,1.4c0.3,0.5,0.5,0.9,0.5,1.2l-0.9,0.5
			v-2.5c0-0.6,0.2-1.1,0.6-1.5c0.4-0.4,0.9-0.6,1.5-0.6s1.1,0.2,1.5,0.6s0.6,0.9,0.6,1.5V53c0,2-0.4,3.6-1.3,4.9
			c-0.9,1.2-2,2.1-3.4,2.6c-1.4,0.5-2.9,0.8-4.6,0.8c-0.5,0-1.1-0.1-1.8-0.2c-0.7-0.1-1.5-0.3-2.1-0.4c-0.7-0.2-1.2-0.3-1.5-0.5
			c-0.7-0.3-1.2-0.7-1.4-1.1c-0.3-0.5-0.3-0.9-0.2-1.4c0.2-0.7,0.5-1.1,1-1.4c0.5-0.2,1-0.3,1.5-0.1c0.2,0.1,0.6,0.2,1.1,0.4
			c0.5,0.2,1.1,0.4,1.8,0.6c0.6,0.2,1.2,0.3,1.7,0.3c1.7,0,3-0.3,3.9-1s1.3-1.7,1.3-2.9v-3l0.4,0.3c0,0.3-0.2,0.7-0.5,1.1
			c-0.3,0.4-0.7,0.9-1.3,1.3c-0.5,0.4-1.2,0.8-1.9,1.1c-0.7,0.3-1.5,0.4-2.4,0.4c-1.6,0-3.1-0.4-4.5-1.2c-1.3-0.8-2.4-2-3.1-3.4
			c-0.8-1.4-1.1-3.1-1.1-5c0-1.9,0.4-3.6,1.1-5c0.8-1.5,1.8-2.6,3.1-3.4C250.1,35.8,251.5,35.4,253.1,35.4z M253.8,39.2
			c-1,0-2,0.3-2.7,0.8c-0.8,0.5-1.4,1.2-1.8,2.1c-0.4,0.9-0.7,1.9-0.7,3c0,1.1,0.2,2.1,0.7,3c0.4,0.9,1.1,1.6,1.8,2.1
			c0.8,0.5,1.7,0.8,2.7,0.8c1.1,0,2-0.3,2.8-0.8c0.8-0.5,1.4-1.2,1.8-2.1c0.4-0.9,0.7-1.9,0.7-3c0-1.1-0.2-2.1-0.7-3
			c-0.4-0.9-1.1-1.6-1.8-2.1C255.8,39.5,254.9,39.2,253.8,39.2z"/>
		<path class="st2" d="M275.8,54.7c-2,0-3.7-0.4-5.1-1.2c-1.4-0.8-2.6-1.9-3.3-3.4s-1.2-3-1.2-4.8c0-2.1,0.4-3.9,1.3-5.3
			c0.8-1.5,2-2.6,3.3-3.4c1.4-0.8,2.8-1.2,4.3-1.2c1.2,0,2.3,0.2,3.4,0.7c1.1,0.5,2,1.2,2.8,2s1.5,1.8,1.9,2.9
			c0.5,1.1,0.7,2.3,0.7,3.5c0,0.6-0.2,1-0.7,1.4c-0.4,0.3-0.9,0.5-1.5,0.5h-13.3l-1-3.5h12.8l-0.8,0.7v-0.9c0-0.7-0.3-1.3-0.7-1.8
			c-0.4-0.5-1-1-1.6-1.3c-0.6-0.3-1.3-0.5-2-0.5c-0.7,0-1.3,0.1-1.9,0.3c-0.6,0.2-1.1,0.5-1.6,0.9c-0.4,0.4-0.8,1-1,1.8
			c-0.3,0.7-0.4,1.7-0.4,2.8c0,1.3,0.3,2.3,0.8,3.2c0.5,0.9,1.2,1.5,2,2c0.8,0.5,1.7,0.7,2.6,0.7c0.9,0,1.5-0.1,2.1-0.2
			c0.5-0.1,0.9-0.3,1.2-0.5c0.3-0.2,0.6-0.4,0.9-0.5c0.4-0.2,0.8-0.3,1.2-0.3c0.5,0,0.9,0.2,1.3,0.5c0.3,0.3,0.5,0.8,0.5,1.2
			c0,0.6-0.3,1.2-1,1.7c-0.6,0.5-1.5,1-2.5,1.3S277,54.7,275.8,54.7z"/>
		<path class="st2" d="M286,51.4c-0.2-0.3-0.3-0.7-0.3-1.3c0-0.5,0.3-1,0.9-1.3c0.4-0.2,0.8-0.3,1.2-0.3s0.8,0.2,1.2,0.6
			c0.7,0.7,1.4,1.2,2.1,1.6s1.7,0.6,2.8,0.6c0.3,0,0.7-0.1,1.1-0.2c0.4-0.1,0.8-0.3,1.1-0.6c0.3-0.3,0.5-0.7,0.5-1.3
			c0-0.5-0.2-0.9-0.5-1.2c-0.3-0.3-0.8-0.6-1.4-0.8c-0.6-0.2-1.2-0.4-1.9-0.6c-0.7-0.2-1.5-0.4-2.2-0.7c-0.8-0.3-1.4-0.6-2.1-1
			c-0.6-0.4-1.1-0.9-1.5-1.6s-0.6-1.5-0.6-2.5c0-1.2,0.3-2.1,1-3c0.6-0.8,1.5-1.4,2.5-1.9s2.1-0.7,3.3-0.7c0.7,0,1.5,0.1,2.3,0.3
			c0.8,0.2,1.5,0.5,2.3,0.8s1.3,0.9,1.8,1.5c0.3,0.3,0.4,0.8,0.5,1.3c0,0.5-0.2,0.9-0.7,1.3c-0.3,0.3-0.8,0.4-1.2,0.4
			c-0.5,0-0.8-0.2-1.1-0.5c-0.4-0.5-0.9-0.9-1.6-1.2c-0.7-0.3-1.4-0.5-2.3-0.5c-0.3,0-0.7,0-1.1,0.1c-0.4,0.1-0.8,0.3-1.1,0.5
			s-0.5,0.7-0.5,1.3c0,0.5,0.2,1,0.5,1.3s0.8,0.6,1.4,0.8c0.6,0.2,1.2,0.4,1.9,0.6c0.7,0.2,1.4,0.4,2.1,0.7s1.4,0.6,2,1
			c0.6,0.4,1.1,1,1.5,1.6s0.6,1.5,0.6,2.5c0,1.2-0.3,2.2-1,3c-0.7,0.8-1.6,1.5-2.6,1.9s-2.1,0.6-3.2,0.6c-1.4,0-2.7-0.2-4.1-0.7
			C288,53.5,286.9,52.7,286,51.4z"/>
		<path class="st2" d="M303.8,36.1h8.2c0.6,0,1,0.2,1.4,0.6c0.4,0.4,0.6,0.8,0.6,1.4c0,0.5-0.2,1-0.6,1.3c-0.4,0.4-0.8,0.5-1.4,0.5
			h-8.2c-0.6,0-1-0.2-1.4-0.6s-0.6-0.8-0.6-1.4c0-0.5,0.2-1,0.6-1.3S303.2,36.1,303.8,36.1z M307.5,31.7c0.6,0,1.1,0.2,1.5,0.6
			c0.4,0.4,0.6,0.9,0.6,1.5v15.5c0,0.3,0.1,0.6,0.2,0.8c0.1,0.2,0.3,0.4,0.5,0.5s0.5,0.1,0.7,0.1c0.3,0,0.5-0.1,0.8-0.2
			c0.2-0.1,0.5-0.2,0.8-0.2c0.3,0,0.6,0.2,0.9,0.5c0.3,0.3,0.4,0.7,0.4,1.3c0,0.6-0.4,1.2-1.1,1.6c-0.7,0.4-1.5,0.6-2.3,0.6
			c-0.5,0-1,0-1.6-0.1c-0.6-0.1-1.1-0.3-1.7-0.6c-0.5-0.3-1-0.8-1.3-1.4s-0.5-1.5-0.5-2.7V33.8c0-0.6,0.2-1.1,0.6-1.5
			C306.4,31.9,306.9,31.7,307.5,31.7z"/>
		<path class="st2" d="M319.1,33.5c-0.8,0-1.3-0.1-1.7-0.4c-0.3-0.3-0.5-0.7-0.5-1.4v-0.7c0-0.7,0.2-1.1,0.5-1.4s0.9-0.4,1.7-0.4
			c0.8,0,1.4,0.1,1.7,0.4s0.5,0.7,0.5,1.4v0.7c0,0.7-0.2,1.1-0.5,1.4C320.4,33.3,319.9,33.5,319.1,33.5z M321.2,52.2
			c0,0.6-0.2,1.1-0.6,1.5c-0.4,0.4-0.9,0.6-1.5,0.6c-0.6,0-1.1-0.2-1.5-0.6c-0.4-0.4-0.6-0.9-0.6-1.5V37.8c0-0.6,0.2-1.1,0.6-1.5
			c0.4-0.4,0.9-0.6,1.5-0.6c0.6,0,1.1,0.2,1.5,0.6s0.6,0.9,0.6,1.5V52.2z"/>
		<path class="st2" d="M325.6,35.7c0.4,0,0.8,0.1,1.2,0.3s0.6,0.6,0.8,1l5.1,11.7l-0.8,0.3l5.2-12c0.4-0.9,1-1.4,1.8-1.3
			c0.6,0,1,0.2,1.4,0.5c0.4,0.4,0.5,0.8,0.5,1.3c0,0.2,0,0.3-0.1,0.5c-0.1,0.2-0.1,0.4-0.2,0.5L334.2,53c-0.4,0.8-1,1.3-1.8,1.3
			c-0.4,0.1-0.9,0-1.3-0.2c-0.4-0.2-0.7-0.6-0.9-1.1l-6.5-14.3c0-0.1-0.1-0.3-0.2-0.5c-0.1-0.2-0.1-0.4-0.1-0.7
			c0-0.4,0.2-0.8,0.6-1.2S325,35.7,325.6,35.7z"/>
		<path class="st2" d="M360.9,45c0,1.9-0.4,3.6-1.3,5c-0.8,1.5-2,2.6-3.4,3.4c-1.4,0.8-3,1.2-4.8,1.2s-3.4-0.4-4.8-1.2
			c-1.4-0.8-2.6-1.9-3.4-3.4c-0.8-1.4-1.3-3.1-1.3-5c0-1.9,0.4-3.6,1.3-5c0.8-1.5,2-2.6,3.4-3.4c1.4-0.8,3-1.2,4.8-1.2
			s3.4,0.4,4.8,1.2c1.4,0.8,2.6,2,3.4,3.4C360.5,41.5,360.9,43.1,360.9,45z M356.7,45c0-1.2-0.2-2.2-0.7-3.1c-0.5-0.9-1.1-1.5-1.9-2
			c-0.8-0.5-1.7-0.7-2.7-0.7c-1,0-1.9,0.2-2.7,0.7c-0.8,0.5-1.4,1.2-1.9,2c-0.5,0.9-0.7,1.9-0.7,3.1c0,1.2,0.2,2.2,0.7,3
			c0.5,0.9,1.1,1.5,1.9,2c0.8,0.5,1.7,0.7,2.7,0.7c1,0,1.9-0.2,2.7-0.7c0.8-0.5,1.4-1.2,1.9-2C356.5,47.2,356.7,46.2,356.7,45z"/>
	</g>
</g>
<g>
	<path class="st3" d="M7.3,5.4h10.1c0.2,0,0.4,0.1,0.6,0.2c0.2,0.2,0.2,0.4,0.2,0.6S18.2,6.7,18,6.8C17.8,7,17.6,7,17.4,7H7.9
		l0.3-0.5v7.8L7.9,14h8.3c0.2,0,0.4,0.1,0.6,0.2c0.2,0.2,0.2,0.4,0.2,0.6c0,0.2-0.1,0.4-0.2,0.6c-0.2,0.1-0.4,0.2-0.6,0.2H7.9
		l0.2-0.3v8L8,23.1h9.3c0.2,0,0.4,0.1,0.6,0.2c0.2,0.2,0.2,0.4,0.2,0.6c0,0.2-0.1,0.4-0.2,0.6c-0.2,0.1-0.4,0.2-0.6,0.2H7.3
		c-0.2,0-0.4-0.1-0.6-0.2s-0.2-0.4-0.2-0.6V6.2c0-0.2,0.1-0.4,0.2-0.6C6.8,5.5,7,5.4,7.3,5.4z"/>
	<path class="st3" d="M21.3,10.5c0.3,0,0.5,0.1,0.7,0.4l9.8,12.7c0.1,0.1,0.2,0.3,0.2,0.5c0,0.2-0.1,0.4-0.2,0.6
		c-0.2,0.2-0.4,0.2-0.6,0.2c-0.3,0-0.5-0.1-0.7-0.4l-9.8-12.6c-0.1-0.1-0.2-0.3-0.2-0.5c0-0.3,0.1-0.5,0.3-0.6
		C20.8,10.6,21,10.5,21.3,10.5z M21.3,24.8c-0.2,0-0.4-0.1-0.5-0.2c-0.2-0.1-0.3-0.3-0.3-0.6c0-0.2,0.1-0.4,0.2-0.5l4.7-6l0.9,1.4
		l-4.3,5.6C21.8,24.7,21.5,24.8,21.3,24.8z M31.1,10.5c0.2,0,0.4,0.1,0.6,0.2c0.1,0.1,0.2,0.3,0.2,0.5c0,0.1,0,0.2,0,0.3
		s-0.1,0.2-0.2,0.3L27,17.9l-0.9-1.3l4.3-5.7C30.6,10.6,30.8,10.5,31.1,10.5z"/>
	<path class="st3" d="M41.2,10.5c1.3,0,2.4,0.3,3.3,0.9c1,0.6,1.7,1.5,2.3,2.5c0.6,1.1,0.9,2.3,0.9,3.7c0,1.4-0.3,2.6-0.9,3.7
		c-0.6,1.1-1.3,1.9-2.3,2.6c-1,0.6-2.1,0.9-3.3,0.9c-0.6,0-1.3-0.1-1.8-0.3s-1.1-0.5-1.6-0.8c-0.5-0.3-0.9-0.7-1.3-1.2
		c-0.4-0.5-0.7-0.9-0.9-1.5l0.5-0.4v8.6c0,0.2-0.1,0.4-0.2,0.6s-0.4,0.2-0.6,0.2c-0.2,0-0.4-0.1-0.6-0.2s-0.2-0.4-0.2-0.6v-18
		c0-0.2,0.1-0.4,0.2-0.6c0.2-0.2,0.4-0.2,0.6-0.2c0.2,0,0.4,0.1,0.6,0.2c0.2,0.2,0.2,0.4,0.2,0.6v3l-0.4-0.2
		c0.2-0.6,0.5-1.1,0.8-1.5s0.8-0.8,1.3-1.2c0.5-0.3,1-0.6,1.6-0.7C40,10.6,40.6,10.5,41.2,10.5z M41.1,12.1c-1,0-1.9,0.2-2.6,0.7
		c-0.8,0.5-1.4,1.2-1.8,2c-0.4,0.8-0.6,1.8-0.6,2.9c0,1.1,0.2,2.1,0.6,2.9c0.4,0.9,1,1.5,1.8,2c0.8,0.5,1.6,0.7,2.6,0.7
		c1,0,1.8-0.2,2.6-0.7s1.3-1.2,1.8-2c0.4-0.9,0.6-1.8,0.6-2.9c0-1.1-0.2-2.1-0.6-2.9c-0.4-0.8-1-1.5-1.8-2
		C42.9,12.3,42.1,12.1,41.1,12.1z"/>
	<path class="st3" d="M52.6,23.9c0,0.2-0.1,0.4-0.2,0.6c-0.2,0.2-0.4,0.2-0.6,0.2c-0.2,0-0.4-0.1-0.6-0.2c-0.2-0.2-0.2-0.4-0.2-0.6
		V5.1c0-0.2,0.1-0.4,0.2-0.6c0.2-0.2,0.4-0.2,0.6-0.2c0.2,0,0.4,0.1,0.6,0.2c0.2,0.2,0.2,0.4,0.2,0.6V23.9z"/>
	<path class="st3" d="M69.8,17.7c0,1.4-0.3,2.7-0.9,3.8c-0.6,1.1-1.5,2-2.5,2.6s-2.2,1-3.6,1c-1.3,0-2.5-0.3-3.6-1s-1.9-1.5-2.5-2.6
		c-0.6-1.1-0.9-2.4-0.9-3.8c0-1.4,0.3-2.7,0.9-3.8c0.6-1.1,1.5-2,2.5-2.6c1.1-0.6,2.2-1,3.6-1c1.3,0,2.5,0.3,3.6,1
		c1.1,0.6,1.9,1.5,2.5,2.6C69.5,15,69.8,16.2,69.8,17.7z M68.1,17.7c0-1.1-0.2-2.1-0.7-3c-0.5-0.9-1.1-1.6-1.9-2.1
		c-0.8-0.5-1.7-0.7-2.7-0.7c-1,0-1.9,0.2-2.7,0.7c-0.8,0.5-1.4,1.2-1.9,2.1c-0.5,0.9-0.7,1.9-0.7,3s0.2,2.1,0.7,3
		c0.5,0.9,1.1,1.6,1.9,2.1c0.8,0.5,1.7,0.8,2.7,0.8c1,0,1.9-0.3,2.7-0.8c0.8-0.5,1.4-1.2,1.9-2.1C67.9,19.8,68.1,18.8,68.1,17.7z"/>
	<path class="st3" d="M73.8,24.7c-0.3,0-0.5-0.1-0.6-0.2c-0.2-0.2-0.2-0.4-0.2-0.6V11.5c0-0.2,0.1-0.4,0.2-0.6s0.4-0.2,0.6-0.2
		c0.2,0,0.4,0.1,0.6,0.2s0.2,0.4,0.2,0.6v4.1l-0.4,0.1c0.1-0.6,0.2-1.3,0.5-1.9s0.6-1.2,1.1-1.8c0.5-0.5,1-1,1.6-1.3
		c0.6-0.3,1.4-0.5,2.1-0.5c0.3,0,0.7,0.1,1,0.2c0.3,0.1,0.5,0.4,0.5,0.7c0,0.3-0.1,0.5-0.2,0.6S80.5,12,80.3,12
		c-0.2,0-0.3,0-0.5-0.1c-0.2-0.1-0.4-0.1-0.8-0.1c-0.5,0-1,0.2-1.5,0.5c-0.5,0.3-1,0.7-1.4,1.2c-0.4,0.5-0.8,1.1-1,1.7
		c-0.2,0.6-0.4,1.3-0.4,1.9v6.8c0,0.2-0.1,0.4-0.2,0.6C74.2,24.7,74,24.7,73.8,24.7z"/>
	<path class="st3" d="M94.2,10.6c0.2,0,0.4,0.1,0.6,0.2c0.2,0.2,0.2,0.4,0.2,0.6v12.4c0,0.2-0.1,0.4-0.2,0.6
		c-0.2,0.2-0.4,0.2-0.6,0.2c-0.3,0-0.5-0.1-0.6-0.2c-0.2-0.2-0.2-0.4-0.2-0.6v-3.3l0.5-0.2c0,0.5-0.1,1-0.4,1.6s-0.7,1-1.2,1.5
		c-0.5,0.5-1.1,0.8-1.8,1.1c-0.7,0.3-1.4,0.4-2.2,0.4c-1.2,0-2.3-0.3-3.3-1c-1-0.6-1.8-1.5-2.3-2.7c-0.6-1.1-0.8-2.4-0.8-3.8
		c0-1.4,0.3-2.7,0.9-3.8c0.6-1.1,1.3-2,2.3-2.6c1-0.6,2.1-0.9,3.3-0.9c0.8,0,1.5,0.1,2.2,0.4s1.3,0.7,1.8,1.1c0.5,0.5,0.9,1,1.2,1.6
		s0.4,1.3,0.4,1.9L93.4,15v-3.5c0-0.2,0.1-0.4,0.2-0.6C93.8,10.7,94,10.6,94.2,10.6z M88.5,23.5c1,0,1.8-0.3,2.6-0.8
		s1.4-1.2,1.8-2.1c0.4-0.9,0.6-1.9,0.6-3c0-1.1-0.2-2-0.6-2.9c-0.4-0.9-1-1.6-1.8-2.1c-0.8-0.5-1.6-0.8-2.6-0.8
		c-1,0-1.8,0.2-2.6,0.7s-1.4,1.2-1.8,2c-0.4,0.9-0.6,1.9-0.6,3c0,1.1,0.2,2.1,0.6,3c0.4,0.9,1,1.6,1.8,2.1
		C86.6,23.2,87.5,23.5,88.5,23.5z"/>
	<path class="st3" d="M105.7,10.3c1.2,0,2.2,0.2,2.9,0.7s1.3,1.2,1.6,2c0.3,0.8,0.5,1.8,0.5,2.8v8.1c0,0.2-0.1,0.4-0.2,0.6
		s-0.4,0.2-0.6,0.2c-0.3,0-0.5-0.1-0.6-0.2c-0.2-0.2-0.2-0.4-0.2-0.6v-8c0-0.7-0.1-1.4-0.4-2s-0.6-1.1-1.2-1.5
		c-0.5-0.4-1.2-0.5-2.1-0.5c-0.8,0-1.5,0.2-2.3,0.5s-1.3,0.8-1.7,1.5c-0.4,0.6-0.7,1.3-0.7,2v8c0,0.2-0.1,0.4-0.2,0.6
		c-0.2,0.2-0.4,0.2-0.6,0.2c-0.3,0-0.5-0.1-0.6-0.2c-0.2-0.2-0.2-0.4-0.2-0.6V11.5c0-0.2,0.1-0.4,0.2-0.6s0.4-0.2,0.6-0.2
		c0.2,0,0.4,0.1,0.6,0.2s0.2,0.4,0.2,0.6v2.3l-0.6,1c0-0.6,0.2-1.2,0.6-1.7c0.3-0.5,0.8-1,1.3-1.5c0.5-0.4,1.1-0.8,1.8-1
		C104.3,10.4,105,10.3,105.7,10.3z"/>
	<path class="st3" d="M126.2,4.3c0.2,0,0.4,0.1,0.6,0.2c0.2,0.2,0.2,0.4,0.2,0.6v18.8c0,0.2-0.1,0.4-0.2,0.6
		c-0.2,0.2-0.4,0.2-0.6,0.2c-0.3,0-0.5-0.1-0.6-0.2c-0.2-0.2-0.2-0.4-0.2-0.6v-3.3l0.5-0.4c0,0.5-0.1,1.1-0.4,1.6
		c-0.3,0.6-0.7,1.1-1.2,1.5c-0.5,0.5-1.1,0.9-1.8,1.1c-0.7,0.3-1.4,0.4-2.2,0.4c-1.2,0-2.3-0.3-3.3-1c-1-0.6-1.8-1.5-2.3-2.6
		c-0.6-1.1-0.9-2.4-0.9-3.8c0-1.4,0.3-2.7,0.9-3.8c0.6-1.1,1.3-2,2.3-2.6s2.1-1,3.3-1c0.8,0,1.5,0.1,2.2,0.4
		c0.7,0.3,1.3,0.7,1.8,1.1c0.5,0.5,0.9,1,1.2,1.6c0.3,0.6,0.4,1.3,0.4,1.9l-0.6-0.4V5.1c0-0.2,0.1-0.4,0.2-0.6
		C125.7,4.4,125.9,4.3,126.2,4.3z M120.4,23.5c1,0,1.8-0.3,2.6-0.8s1.4-1.2,1.8-2.1c0.4-0.9,0.6-1.9,0.6-3c0-1.1-0.2-2.1-0.6-3
		c-0.4-0.9-1-1.6-1.8-2.1c-0.8-0.5-1.6-0.7-2.6-0.7c-1,0-1.8,0.2-2.6,0.7c-0.8,0.5-1.4,1.2-1.8,2.1c-0.4,0.9-0.6,1.9-0.6,3
		s0.2,2.1,0.6,3c0.4,0.9,1,1.6,1.8,2.1S119.5,23.5,120.4,23.5z"/>
	<path class="st3" d="M144.1,17.7c0,1.4-0.3,2.7-0.9,3.8c-0.6,1.1-1.5,2-2.5,2.6s-2.2,1-3.6,1c-1.3,0-2.5-0.3-3.6-1
		s-1.9-1.5-2.5-2.6c-0.6-1.1-0.9-2.4-0.9-3.8c0-1.4,0.3-2.7,0.9-3.8c0.6-1.1,1.5-2,2.5-2.6c1.1-0.6,2.2-1,3.6-1c1.3,0,2.5,0.3,3.6,1
		c1.1,0.6,1.9,1.5,2.5,2.6C143.8,15,144.1,16.2,144.1,17.7z M142.4,17.7c0-1.1-0.2-2.1-0.7-3c-0.5-0.9-1.1-1.6-1.9-2.1
		c-0.8-0.5-1.7-0.7-2.7-0.7c-1,0-1.9,0.2-2.7,0.7c-0.8,0.5-1.4,1.2-1.9,2.1c-0.5,0.9-0.7,1.9-0.7,3s0.2,2.1,0.7,3
		c0.5,0.9,1.1,1.6,1.9,2.1c0.8,0.5,1.7,0.8,2.7,0.8c1,0,1.9-0.3,2.7-0.8c0.8-0.5,1.4-1.2,1.9-2.1C142.2,19.8,142.4,18.8,142.4,17.7z
		"/>
	<path class="st3" d="M161.3,25c-1.4,0-2.7-0.3-3.8-0.9s-1.9-1.5-2.5-2.5c-0.6-1.1-0.9-2.4-0.9-3.8c0-1.6,0.3-2.9,0.9-4
		c0.6-1.1,1.4-2,2.4-2.6c1-0.6,2-0.9,3.1-0.9c0.8,0,1.6,0.1,2.4,0.4c0.8,0.3,1.4,0.7,2,1.3c0.6,0.6,1.1,1.2,1.4,2.1
		c0.4,0.8,0.6,1.8,0.6,2.8c0,0.2-0.1,0.4-0.2,0.6c-0.2,0.2-0.4,0.2-0.6,0.2h-11.1l-0.3-1.5h10.9l-0.4,0.3V16
		c-0.1-0.9-0.4-1.6-0.8-2.2c-0.5-0.6-1.1-1.1-1.7-1.4s-1.4-0.5-2.1-0.5c-0.6,0-1.1,0.1-1.7,0.3c-0.6,0.2-1.1,0.6-1.6,1
		c-0.5,0.5-0.9,1.1-1.1,1.8c-0.3,0.7-0.4,1.6-0.4,2.6c0,1.1,0.2,2.1,0.7,3c0.4,0.9,1.1,1.6,1.9,2.1c0.8,0.5,1.8,0.8,3,0.8
		c0.6,0,1.2-0.1,1.7-0.3c0.5-0.2,1-0.4,1.4-0.7c0.4-0.3,0.7-0.6,1-1c0.2-0.2,0.4-0.2,0.6-0.2c0.2,0,0.4,0.1,0.5,0.2s0.2,0.3,0.2,0.5
		c0,0.2-0.1,0.4-0.3,0.6c-0.6,0.7-1.3,1.2-2.2,1.7C163.3,24.8,162.4,25,161.3,25z"/>
	<path class="st3" d="M171.9,23.9c0,0.2-0.1,0.4-0.2,0.6c-0.2,0.2-0.4,0.2-0.6,0.2c-0.2,0-0.4-0.1-0.6-0.2c-0.2-0.2-0.2-0.4-0.2-0.6
		V5.1c0-0.2,0.1-0.4,0.2-0.6c0.2-0.2,0.4-0.2,0.6-0.2c0.2,0,0.4,0.1,0.6,0.2c0.2,0.2,0.2,0.4,0.2,0.6V23.9z"/>
</g>
<g>
	<path class="st3" d="M80,51.4c-0.2-0.3-0.3-0.7-0.3-1.3c0-0.5,0.3-1,0.9-1.3c0.4-0.2,0.8-0.3,1.2-0.3c0.4,0,0.8,0.2,1.2,0.6
		c0.7,0.7,1.4,1.2,2.1,1.6c0.7,0.4,1.7,0.6,2.8,0.6c0.3,0,0.7-0.1,1.1-0.2c0.4-0.1,0.8-0.3,1.1-0.6c0.3-0.3,0.5-0.7,0.5-1.3
		c0-0.5-0.2-0.9-0.5-1.2c-0.3-0.3-0.8-0.6-1.4-0.8c-0.6-0.2-1.2-0.4-1.9-0.6c-0.7-0.2-1.5-0.4-2.2-0.7c-0.8-0.3-1.4-0.6-2.1-1
		c-0.6-0.4-1.1-0.9-1.5-1.6c-0.4-0.7-0.6-1.5-0.6-2.5c0-1.2,0.3-2.1,1-3c0.6-0.8,1.5-1.4,2.5-1.9c1-0.4,2.1-0.7,3.3-0.7
		c0.7,0,1.5,0.1,2.3,0.3s1.5,0.5,2.3,0.8c0.7,0.4,1.3,0.9,1.8,1.5c0.3,0.3,0.4,0.8,0.5,1.3c0,0.5-0.2,0.9-0.7,1.3
		c-0.3,0.3-0.8,0.4-1.2,0.4c-0.5,0-0.8-0.2-1.1-0.5c-0.4-0.5-0.9-0.9-1.6-1.2s-1.4-0.5-2.3-0.5c-0.3,0-0.7,0-1.1,0.1
		c-0.4,0.1-0.8,0.3-1.1,0.5c-0.3,0.3-0.5,0.7-0.5,1.3c0,0.5,0.2,1,0.5,1.3c0.3,0.3,0.8,0.6,1.4,0.8c0.6,0.2,1.2,0.4,1.9,0.6
		c0.7,0.2,1.4,0.4,2.1,0.7c0.7,0.3,1.4,0.6,2,1c0.6,0.4,1.1,1,1.5,1.6s0.6,1.5,0.6,2.5c0,1.2-0.3,2.2-1,3s-1.6,1.5-2.6,1.9
		s-2.1,0.6-3.2,0.6c-1.4,0-2.7-0.2-4.1-0.7C82.1,53.5,80.9,52.7,80,51.4z"/>
	<path class="st3" d="M99,33.5c-0.8,0-1.3-0.1-1.7-0.4c-0.3-0.3-0.5-0.7-0.5-1.4v-0.7c0-0.7,0.2-1.1,0.5-1.4
		c0.4-0.2,0.9-0.4,1.7-0.4c0.8,0,1.4,0.1,1.7,0.4c0.3,0.3,0.5,0.7,0.5,1.4v0.7c0,0.7-0.2,1.1-0.5,1.4C100.3,33.3,99.8,33.5,99,33.5z
		 M101.1,52.2c0,0.6-0.2,1.1-0.6,1.5c-0.4,0.4-0.9,0.6-1.5,0.6c-0.6,0-1.1-0.2-1.5-0.6c-0.4-0.4-0.6-0.9-0.6-1.5V37.8
		c0-0.6,0.2-1.1,0.6-1.5c0.4-0.4,0.9-0.6,1.5-0.6c0.6,0,1.1,0.2,1.5,0.6s0.6,0.9,0.6,1.5V52.2z"/>
	<path class="st3" d="M103.6,51.4c-0.2-0.3-0.3-0.7-0.3-1.3c0-0.5,0.3-1,0.9-1.3c0.4-0.2,0.8-0.3,1.2-0.3c0.4,0,0.8,0.2,1.2,0.6
		c0.7,0.7,1.4,1.2,2.1,1.6c0.7,0.4,1.7,0.6,2.8,0.6c0.3,0,0.7-0.1,1.1-0.2c0.4-0.1,0.8-0.3,1.1-0.6c0.3-0.3,0.5-0.7,0.5-1.3
		c0-0.5-0.2-0.9-0.5-1.2c-0.3-0.3-0.8-0.6-1.4-0.8c-0.6-0.2-1.2-0.4-1.9-0.6c-0.7-0.2-1.5-0.4-2.2-0.7c-0.8-0.3-1.4-0.6-2.1-1
		c-0.6-0.4-1.1-0.9-1.5-1.6c-0.4-0.7-0.6-1.5-0.6-2.5c0-1.2,0.3-2.1,1-3c0.6-0.8,1.5-1.4,2.5-1.9c1-0.4,2.1-0.7,3.3-0.7
		c0.7,0,1.5,0.1,2.3,0.3s1.5,0.5,2.3,0.8c0.7,0.4,1.3,0.9,1.8,1.5c0.3,0.3,0.4,0.8,0.5,1.3c0,0.5-0.2,0.9-0.7,1.3
		c-0.3,0.3-0.8,0.4-1.2,0.4c-0.5,0-0.8-0.2-1.1-0.5c-0.4-0.5-0.9-0.9-1.6-1.2s-1.4-0.5-2.3-0.5c-0.3,0-0.7,0-1.1,0.1
		c-0.4,0.1-0.8,0.3-1.1,0.5c-0.3,0.3-0.5,0.7-0.5,1.3c0,0.5,0.2,1,0.5,1.3c0.3,0.3,0.8,0.6,1.4,0.8c0.6,0.2,1.2,0.4,1.9,0.6
		c0.7,0.2,1.4,0.4,2.1,0.7c0.7,0.3,1.4,0.6,2,1c0.6,0.4,1.1,1,1.5,1.6s0.6,1.5,0.6,2.5c0,1.2-0.3,2.2-1,3s-1.6,1.5-2.6,1.9
		s-2.1,0.6-3.2,0.6c-1.4,0-2.7-0.2-4.1-0.7C105.6,53.5,104.5,52.7,103.6,51.4z"/>
	<path class="st3" d="M121.4,36.1h8.2c0.6,0,1,0.2,1.4,0.6c0.4,0.4,0.6,0.8,0.6,1.4c0,0.5-0.2,1-0.6,1.3c-0.4,0.4-0.8,0.5-1.4,0.5
		h-8.2c-0.6,0-1-0.2-1.4-0.6s-0.6-0.8-0.6-1.4c0-0.5,0.2-1,0.6-1.3S120.8,36.1,121.4,36.1z M125.1,31.7c0.6,0,1.1,0.2,1.5,0.6
		c0.4,0.4,0.6,0.9,0.6,1.5v15.5c0,0.3,0.1,0.6,0.2,0.8c0.1,0.2,0.3,0.4,0.5,0.5c0.2,0.1,0.5,0.1,0.7,0.1c0.3,0,0.5-0.1,0.8-0.2
		c0.2-0.1,0.5-0.2,0.8-0.2c0.3,0,0.6,0.2,0.9,0.5s0.4,0.7,0.4,1.3c0,0.6-0.4,1.2-1.1,1.6c-0.7,0.4-1.5,0.6-2.3,0.6
		c-0.5,0-1,0-1.6-0.1c-0.6-0.1-1.1-0.3-1.7-0.6c-0.5-0.3-1-0.8-1.3-1.4c-0.3-0.6-0.5-1.5-0.5-2.7V33.8c0-0.6,0.2-1.1,0.6-1.5
		C124,31.9,124.5,31.7,125.1,31.7z"/>
	<path class="st3" d="M142.7,54.7c-2,0-3.7-0.4-5.1-1.2c-1.5-0.8-2.6-1.9-3.3-3.4c-0.8-1.4-1.2-3-1.2-4.8c0-2.1,0.4-3.9,1.3-5.3
		c0.8-1.5,2-2.6,3.3-3.4c1.4-0.8,2.8-1.2,4.3-1.2c1.2,0,2.3,0.2,3.4,0.7c1.1,0.5,2,1.2,2.8,2s1.5,1.8,1.9,2.9
		c0.5,1.1,0.7,2.3,0.7,3.5c0,0.6-0.2,1-0.7,1.4c-0.4,0.3-0.9,0.5-1.5,0.5h-13.3l-1-3.5h12.8l-0.8,0.7v-0.9c0-0.7-0.3-1.3-0.7-1.8
		c-0.4-0.5-1-1-1.6-1.3c-0.6-0.3-1.3-0.5-2-0.5c-0.7,0-1.3,0.1-1.9,0.3c-0.6,0.2-1.1,0.5-1.6,0.9c-0.4,0.4-0.8,1-1,1.8
		S137,43.9,137,45c0,1.3,0.3,2.3,0.8,3.2s1.2,1.5,2,2c0.8,0.5,1.7,0.7,2.6,0.7c0.9,0,1.5-0.1,2.1-0.2c0.5-0.1,0.9-0.3,1.2-0.5
		c0.3-0.2,0.6-0.4,0.9-0.5c0.4-0.2,0.8-0.3,1.2-0.3c0.5,0,0.9,0.2,1.3,0.5c0.3,0.3,0.5,0.8,0.5,1.2c0,0.6-0.3,1.2-1,1.7
		c-0.6,0.5-1.5,1-2.5,1.3C144.9,54.5,143.8,54.7,142.7,54.7z"/>
	<path class="st3" d="M163.6,35.4c1.9,0,3.2,0.4,4.1,1.3c0.9,0.9,1.5,2,1.7,3.5l-0.6-0.3l0.3-0.6c0.3-0.5,0.7-1.1,1.3-1.7
		c0.6-0.6,1.3-1.1,2.1-1.6c0.8-0.4,1.7-0.6,2.8-0.6c1.7,0,2.9,0.4,3.8,1.1c0.9,0.7,1.5,1.7,1.8,2.9c0.3,1.2,0.5,2.5,0.5,4v8.9
		c0,0.6-0.2,1.1-0.6,1.5c-0.4,0.4-0.9,0.6-1.5,0.6c-0.6,0-1.1-0.2-1.5-0.6c-0.4-0.4-0.6-0.9-0.6-1.5v-8.9c0-0.8-0.1-1.5-0.3-2.1
		c-0.2-0.6-0.5-1.1-1-1.5c-0.5-0.4-1.2-0.6-2.1-0.6c-0.9,0-1.6,0.2-2.3,0.6c-0.6,0.4-1.1,0.9-1.4,1.5c-0.3,0.6-0.5,1.3-0.5,2.1v8.9
		c0,0.6-0.2,1.1-0.6,1.5c-0.4,0.4-0.9,0.6-1.5,0.6c-0.6,0-1.1-0.2-1.5-0.6c-0.4-0.4-0.6-0.9-0.6-1.5v-8.9c0-0.8-0.1-1.5-0.3-2.1
		s-0.5-1.1-1-1.5c-0.5-0.4-1.2-0.6-2.1-0.6c-0.9,0-1.6,0.2-2.3,0.6c-0.6,0.4-1.1,0.9-1.4,1.5c-0.3,0.6-0.5,1.3-0.5,2.1v8.9
		c0,0.6-0.2,1.1-0.6,1.5c-0.4,0.4-0.9,0.6-1.5,0.6c-0.6,0-1.1-0.2-1.5-0.6c-0.4-0.4-0.6-0.9-0.6-1.5V37.8c0-0.6,0.2-1.1,0.6-1.5
		c0.4-0.4,0.9-0.6,1.5-0.6c0.6,0,1.1,0.2,1.5,0.6s0.6,0.9,0.6,1.5v1.5l-0.5-0.1c0.2-0.4,0.5-0.8,0.9-1.3c0.4-0.5,0.8-0.9,1.4-1.3
		c0.5-0.4,1.1-0.7,1.8-1C162.1,35.5,162.8,35.4,163.6,35.4z"/>
	<path class="st3" d="M200.5,35.4c0.6,0,1.1,0.2,1.5,0.6s0.6,0.9,0.6,1.5v14.7c0,0.6-0.2,1.1-0.6,1.5c-0.4,0.4-0.9,0.6-1.5,0.6
		c-0.6,0-1.1-0.2-1.5-0.6c-0.4-0.4-0.6-0.9-0.6-1.5v-1.7l0.8,0.3c0,0.3-0.2,0.7-0.5,1.1c-0.3,0.4-0.8,0.9-1.3,1.3
		c-0.6,0.4-1.2,0.8-2,1.1c-0.8,0.3-1.6,0.4-2.5,0.4c-1.6,0-3.1-0.4-4.3-1.2c-1.3-0.8-2.3-2-3.1-3.4c-0.8-1.4-1.1-3.1-1.1-5
		c0-1.9,0.4-3.6,1.1-5c0.8-1.5,1.8-2.6,3-3.4c1.3-0.8,2.7-1.2,4.2-1.2c1,0,1.9,0.2,2.8,0.5c0.8,0.3,1.6,0.7,2.2,1.1s1.1,0.9,1.4,1.4
		s0.5,0.9,0.5,1.2l-1.3,0.5v-2.5c0-0.6,0.2-1.1,0.6-1.5C199.4,35.6,199.9,35.4,200.5,35.4z M193.4,50.9c1,0,1.9-0.3,2.7-0.8
		c0.8-0.5,1.4-1.2,1.8-2.1c0.4-0.9,0.6-1.9,0.6-3c0-1.1-0.2-2.1-0.6-3c-0.4-0.9-1-1.6-1.8-2.1c-0.8-0.5-1.7-0.8-2.7-0.8
		c-1,0-1.9,0.3-2.6,0.8c-0.8,0.5-1.4,1.2-1.8,2.1c-0.4,0.9-0.6,1.9-0.6,3c0,1.1,0.2,2.1,0.6,3c0.4,0.9,1,1.6,1.8,2.1
		C191.6,50.6,192.4,50.9,193.4,50.9z"/>
	<path class="st3" d="M231.9,28.6c0.6,0,1.1,0.2,1.5,0.6c0.4,0.4,0.6,0.9,0.6,1.5v21.5c0,0.6-0.2,1.1-0.6,1.5
		c-0.4,0.4-0.9,0.6-1.5,0.6c-0.6,0-1.1-0.2-1.5-0.6c-0.4-0.4-0.6-0.9-0.6-1.5v-1.7l0.8,0.3c0,0.3-0.2,0.7-0.5,1.1
		c-0.3,0.4-0.8,0.9-1.3,1.3c-0.6,0.4-1.2,0.8-2,1.1c-0.8,0.3-1.6,0.4-2.5,0.4c-1.6,0-3.1-0.4-4.3-1.2c-1.3-0.8-2.3-2-3.1-3.4
		c-0.8-1.4-1.1-3.1-1.1-5c0-1.9,0.4-3.6,1.1-5c0.8-1.5,1.8-2.6,3-3.4c1.3-0.8,2.7-1.2,4.2-1.2c1,0,1.9,0.2,2.7,0.5
		c0.8,0.3,1.6,0.7,2.2,1.1c0.6,0.5,1.1,0.9,1.4,1.4c0.3,0.5,0.5,0.9,0.5,1.2l-1.3,0.5v-9.3c0-0.6,0.2-1.1,0.6-1.5
		C230.8,28.8,231.3,28.6,231.9,28.6z M224.9,50.9c1,0,1.9-0.3,2.7-0.8c0.8-0.5,1.4-1.2,1.8-2.1c0.4-0.9,0.6-1.9,0.6-3
		c0-1.1-0.2-2.1-0.6-3c-0.4-0.9-1-1.6-1.8-2.1c-0.8-0.5-1.7-0.8-2.7-0.8c-1,0-1.9,0.3-2.6,0.8c-0.8,0.5-1.4,1.2-1.8,2.1
		c-0.4,0.9-0.6,1.9-0.6,3c0,1.1,0.2,2.1,0.6,3c0.4,0.9,1,1.6,1.8,2.1C223,50.6,223.9,50.9,224.9,50.9z"/>
	<path class="st3" d="M239.7,33.5c-0.8,0-1.3-0.1-1.7-0.4c-0.3-0.3-0.5-0.7-0.5-1.4v-0.7c0-0.7,0.2-1.1,0.5-1.4
		c0.4-0.2,0.9-0.4,1.7-0.4c0.8,0,1.4,0.1,1.7,0.4c0.3,0.3,0.5,0.7,0.5,1.4v0.7c0,0.7-0.2,1.1-0.5,1.4
		C241.1,33.3,240.5,33.5,239.7,33.5z M241.9,52.2c0,0.6-0.2,1.1-0.6,1.5c-0.4,0.4-0.9,0.6-1.5,0.6c-0.6,0-1.1-0.2-1.5-0.6
		c-0.4-0.4-0.6-0.9-0.6-1.5V37.8c0-0.6,0.2-1.1,0.6-1.5c0.4-0.4,0.9-0.6,1.5-0.6c0.6,0,1.1,0.2,1.5,0.6s0.6,0.9,0.6,1.5V52.2z"/>
	<path class="st3" d="M253.1,35.4c1,0,1.9,0.2,2.7,0.5c0.8,0.3,1.5,0.7,2.1,1.1s1.1,0.9,1.4,1.4c0.3,0.5,0.5,0.9,0.5,1.2l-0.9,0.5
		v-2.5c0-0.6,0.2-1.1,0.6-1.5c0.4-0.4,0.9-0.6,1.5-0.6s1.1,0.2,1.5,0.6s0.6,0.9,0.6,1.5V53c0,2-0.4,3.6-1.3,4.9
		c-0.9,1.2-2,2.1-3.4,2.6c-1.4,0.5-2.9,0.8-4.6,0.8c-0.5,0-1.1-0.1-1.8-0.2c-0.7-0.1-1.5-0.3-2.1-0.4c-0.7-0.2-1.2-0.3-1.5-0.5
		c-0.7-0.3-1.2-0.7-1.4-1.1c-0.3-0.5-0.3-0.9-0.2-1.4c0.2-0.7,0.5-1.1,1-1.4c0.5-0.2,1-0.3,1.5-0.1c0.2,0.1,0.6,0.2,1.1,0.4
		c0.5,0.2,1.1,0.4,1.8,0.6c0.6,0.2,1.2,0.3,1.7,0.3c1.7,0,3-0.3,3.9-1s1.3-1.7,1.3-2.9v-3l0.4,0.3c0,0.3-0.2,0.7-0.5,1.1
		c-0.3,0.4-0.7,0.9-1.3,1.3c-0.5,0.4-1.2,0.8-1.9,1.1c-0.7,0.3-1.5,0.4-2.4,0.4c-1.6,0-3.1-0.4-4.5-1.2c-1.3-0.8-2.4-2-3.1-3.4
		c-0.8-1.4-1.1-3.1-1.1-5c0-1.9,0.4-3.6,1.1-5c0.8-1.5,1.8-2.6,3.1-3.4C250.1,35.8,251.5,35.4,253.1,35.4z M253.8,39.2
		c-1,0-2,0.3-2.7,0.8c-0.8,0.5-1.4,1.2-1.8,2.1c-0.4,0.9-0.7,1.9-0.7,3c0,1.1,0.2,2.1,0.7,3c0.4,0.9,1.1,1.6,1.8,2.1
		c0.8,0.5,1.7,0.8,2.7,0.8c1.1,0,2-0.3,2.8-0.8c0.8-0.5,1.4-1.2,1.8-2.1c0.4-0.9,0.7-1.9,0.7-3c0-1.1-0.2-2.1-0.7-3
		c-0.4-0.9-1.1-1.6-1.8-2.1C255.8,39.5,254.9,39.2,253.8,39.2z"/>
	<path class="st3" d="M275.8,54.7c-2,0-3.7-0.4-5.1-1.2c-1.4-0.8-2.6-1.9-3.3-3.4s-1.2-3-1.2-4.8c0-2.1,0.4-3.9,1.3-5.3
		c0.8-1.5,2-2.6,3.3-3.4c1.4-0.8,2.8-1.2,4.3-1.2c1.2,0,2.3,0.2,3.4,0.7c1.1,0.5,2,1.2,2.8,2s1.5,1.8,1.9,2.9
		c0.5,1.1,0.7,2.3,0.7,3.5c0,0.6-0.2,1-0.7,1.4c-0.4,0.3-0.9,0.5-1.5,0.5h-13.3l-1-3.5h12.8l-0.8,0.7v-0.9c0-0.7-0.3-1.3-0.7-1.8
		c-0.4-0.5-1-1-1.6-1.3c-0.6-0.3-1.3-0.5-2-0.5c-0.7,0-1.3,0.1-1.9,0.3c-0.6,0.2-1.1,0.5-1.6,0.9c-0.4,0.4-0.8,1-1,1.8
		c-0.3,0.7-0.4,1.7-0.4,2.8c0,1.3,0.3,2.3,0.8,3.2c0.5,0.9,1.2,1.5,2,2c0.8,0.5,1.7,0.7,2.6,0.7c0.9,0,1.5-0.1,2.1-0.2
		c0.5-0.1,0.9-0.3,1.2-0.5c0.3-0.2,0.6-0.4,0.9-0.5c0.4-0.2,0.8-0.3,1.2-0.3c0.5,0,0.9,0.2,1.3,0.5c0.3,0.3,0.5,0.8,0.5,1.2
		c0,0.6-0.3,1.2-1,1.7c-0.6,0.5-1.5,1-2.5,1.3S277,54.7,275.8,54.7z"/>
	<path class="st3" d="M286,51.4c-0.2-0.3-0.3-0.7-0.3-1.3c0-0.5,0.3-1,0.9-1.3c0.4-0.2,0.8-0.3,1.2-0.3s0.8,0.2,1.2,0.6
		c0.7,0.7,1.4,1.2,2.1,1.6s1.7,0.6,2.8,0.6c0.3,0,0.7-0.1,1.1-0.2c0.4-0.1,0.8-0.3,1.1-0.6c0.3-0.3,0.5-0.7,0.5-1.3
		c0-0.5-0.2-0.9-0.5-1.2c-0.3-0.3-0.8-0.6-1.4-0.8c-0.6-0.2-1.2-0.4-1.9-0.6c-0.7-0.2-1.5-0.4-2.2-0.7c-0.8-0.3-1.4-0.6-2.1-1
		c-0.6-0.4-1.1-0.9-1.5-1.6s-0.6-1.5-0.6-2.5c0-1.2,0.3-2.1,1-3c0.6-0.8,1.5-1.4,2.5-1.9s2.1-0.7,3.3-0.7c0.7,0,1.5,0.1,2.3,0.3
		c0.8,0.2,1.5,0.5,2.3,0.8s1.3,0.9,1.8,1.5c0.3,0.3,0.4,0.8,0.5,1.3c0,0.5-0.2,0.9-0.7,1.3c-0.3,0.3-0.8,0.4-1.2,0.4
		c-0.5,0-0.8-0.2-1.1-0.5c-0.4-0.5-0.9-0.9-1.6-1.2c-0.7-0.3-1.4-0.5-2.3-0.5c-0.3,0-0.7,0-1.1,0.1c-0.4,0.1-0.8,0.3-1.1,0.5
		s-0.5,0.7-0.5,1.3c0,0.5,0.2,1,0.5,1.3s0.8,0.6,1.4,0.8c0.6,0.2,1.2,0.4,1.9,0.6c0.7,0.2,1.4,0.4,2.1,0.7s1.4,0.6,2,1
		c0.6,0.4,1.1,1,1.5,1.6s0.6,1.5,0.6,2.5c0,1.2-0.3,2.2-1,3c-0.7,0.8-1.6,1.5-2.6,1.9s-2.1,0.6-3.2,0.6c-1.4,0-2.7-0.2-4.1-0.7
		C288,53.5,286.9,52.7,286,51.4z"/>
	<path class="st3" d="M303.8,36.1h8.2c0.6,0,1,0.2,1.4,0.6c0.4,0.4,0.6,0.8,0.6,1.4c0,0.5-0.2,1-0.6,1.3c-0.4,0.4-0.8,0.5-1.4,0.5
		h-8.2c-0.6,0-1-0.2-1.4-0.6s-0.6-0.8-0.6-1.4c0-0.5,0.2-1,0.6-1.3S303.2,36.1,303.8,36.1z M307.5,31.7c0.6,0,1.1,0.2,1.5,0.6
		c0.4,0.4,0.6,0.9,0.6,1.5v15.5c0,0.3,0.1,0.6,0.2,0.8c0.1,0.2,0.3,0.4,0.5,0.5s0.5,0.1,0.7,0.1c0.3,0,0.5-0.1,0.8-0.2
		c0.2-0.1,0.5-0.2,0.8-0.2c0.3,0,0.6,0.2,0.9,0.5c0.3,0.3,0.4,0.7,0.4,1.3c0,0.6-0.4,1.2-1.1,1.6c-0.7,0.4-1.5,0.6-2.3,0.6
		c-0.5,0-1,0-1.6-0.1c-0.6-0.1-1.1-0.3-1.7-0.6c-0.5-0.3-1-0.8-1.3-1.4s-0.5-1.5-0.5-2.7V33.8c0-0.6,0.2-1.1,0.6-1.5
		C306.4,31.9,306.9,31.7,307.5,31.7z"/>
	<path class="st3" d="M319.1,33.5c-0.8,0-1.3-0.1-1.7-0.4c-0.3-0.3-0.5-0.7-0.5-1.4v-0.7c0-0.7,0.2-1.1,0.5-1.4s0.9-0.4,1.7-0.4
		c0.8,0,1.4,0.1,1.7,0.4s0.5,0.7,0.5,1.4v0.7c0,0.7-0.2,1.1-0.5,1.4C320.4,33.3,319.9,33.5,319.1,33.5z M321.2,52.2
		c0,0.6-0.2,1.1-0.6,1.5c-0.4,0.4-0.9,0.6-1.5,0.6c-0.6,0-1.1-0.2-1.5-0.6c-0.4-0.4-0.6-0.9-0.6-1.5V37.8c0-0.6,0.2-1.1,0.6-1.5
		c0.4-0.4,0.9-0.6,1.5-0.6c0.6,0,1.1,0.2,1.5,0.6s0.6,0.9,0.6,1.5V52.2z"/>
	<path class="st3" d="M325.6,35.7c0.4,0,0.8,0.1,1.2,0.3s0.6,0.6,0.8,1l5.1,11.7l-0.8,0.3l5.2-12c0.4-0.9,1-1.4,1.8-1.3
		c0.6,0,1,0.2,1.4,0.5c0.4,0.4,0.5,0.8,0.5,1.3c0,0.2,0,0.3-0.1,0.5c-0.1,0.2-0.1,0.4-0.2,0.5L334.2,53c-0.4,0.8-1,1.3-1.8,1.3
		c-0.4,0.1-0.9,0-1.3-0.2c-0.4-0.2-0.7-0.6-0.9-1.1l-6.5-14.3c0-0.1-0.1-0.3-0.2-0.5c-0.1-0.2-0.1-0.4-0.1-0.7
		c0-0.4,0.2-0.8,0.6-1.2S325,35.7,325.6,35.7z"/>
	<path class="st3" d="M360.9,45c0,1.9-0.4,3.6-1.3,5c-0.8,1.5-2,2.6-3.4,3.4c-1.4,0.8-3,1.2-4.8,1.2s-3.4-0.4-4.8-1.2
		c-1.4-0.8-2.6-1.9-3.4-3.4c-0.8-1.4-1.3-3.1-1.3-5c0-1.9,0.4-3.6,1.3-5c0.8-1.5,2-2.6,3.4-3.4c1.4-0.8,3-1.2,4.8-1.2
		s3.4,0.4,4.8,1.2c1.4,0.8,2.6,2,3.4,3.4C360.5,41.5,360.9,43.1,360.9,45z M356.7,45c0-1.2-0.2-2.2-0.7-3.1c-0.5-0.9-1.1-1.5-1.9-2
		c-0.8-0.5-1.7-0.7-2.7-0.7c-1,0-1.9,0.2-2.7,0.7c-0.8,0.5-1.4,1.2-1.9,2c-0.5,0.9-0.7,1.9-0.7,3.1c0,1.2,0.2,2.2,0.7,3
		c0.5,0.9,1.1,1.5,1.9,2c0.8,0.5,1.7,0.7,2.7,0.7c1,0,1.9-0.2,2.7-0.7c0.8-0.5,1.4-1.2,1.9-2C356.5,47.2,356.7,46.2,356.7,45z"/>
</g>
</svg>
