<svg xmlns="http://www.w3.org/2000/svg" xmlns:xlink="http://www.w3.org/1999/xlink" viewBox="0 0 570.73 914.82"><defs><style>.cls-1,.cls-4,.cls-5{fill:none;}.cls-2{isolation:isolate;}.cls-3{clip-path:url(#clip-path);}.cls-4,.cls-5{stroke:#85dfff;stroke-miterlimit:10;}.cls-4{stroke-width:0.5px;}.cls-5{stroke-width:0.56px;}.cls-6{fill:#edd5c1;}.cls-7{fill:#e1c5b1;}.cls-8{fill:#fff1eb;}.cls-9{fill:#e2a188;}.cls-10{mix-blend-mode:multiply;}.cls-11{fill:#ddb08a;}.cls-12{fill:#fff;}</style><clipPath id="clip-path"><rect class="cls-1" x="49.57" y="17.7" width="450" height="570.76"/></clipPath></defs><title>lab03-fig</title><g class="cls-2"><g id="Layer_2" data-name="Layer 2"><g id="Layer_1-2" data-name="Layer 1"><g class="cls-3"><line class="cls-4" x1="43.03" y1="18.29" x2="527.7" y2="18.29"/><line class="cls-4" x1="43.03" y1="23.93" x2="527.7" y2="23.93"/><line class="cls-4" x1="43.03" y1="29.58" x2="527.7" y2="29.58"/><line class="cls-4" x1="43.03" y1="35.22" x2="527.7" y2="35.22"/><line class="cls-4" x1="43.03" y1="40.87" x2="527.7" y2="40.87"/><line class="cls-4" x1="43.03" y1="46.51" x2="527.7" y2="46.51"/><line class="cls-4" x1="43.03" y1="52.16" x2="527.7" y2="52.16"/><line class="cls-4" x1="43.03" y1="57.8" x2="527.7" y2="57.8"/><line class="cls-4" x1="43.03" y1="63.45" x2="527.7" y2="63.45"/><line class="cls-4" x1="43.03" y1="69.1" x2="527.7" y2="69.1"/><line class="cls-4" x1="43.03" y1="74.74" x2="527.7" y2="74.74"/><line class="cls-4" x1="43.03" y1="80.39" x2="527.7" y2="80.39"/><line class="cls-4" x1="43.03" y1="86.03" x2="527.7" y2="86.03"/><line class="cls-4" x1="43.03" y1="91.68" x2="527.7" y2="91.68"/><line class="cls-4" x1="43.03" y1="97.32" x2="527.7" y2="97.32"/><line class="cls-4" x1="43.03" y1="102.97" x2="527.7" y2="102.97"/><line class="cls-4" x1="43.03" y1="108.61" x2="527.7" y2="108.61"/><line class="cls-4" x1="43.03" y1="114.26" x2="527.7" y2="114.26"/><line class="cls-4" x1="43.03" y1="119.9" x2="527.7" y2="119.9"/><line class="cls-4" x1="43.03" y1="125.55" x2="527.7" y2="125.55"/><line class="cls-4" x1="43.03" y1="131.19" x2="527.7" y2="131.19"/><line class="cls-4" x1="43.03" y1="136.84" x2="527.7" y2="136.84"/><line class="cls-4" x1="43.03" y1="142.48" x2="527.7" y2="142.48"/><line class="cls-4" x1="43.03" y1="148.13" x2="527.7" y2="148.13"/><line class="cls-4" x1="43.03" y1="153.77" x2="527.7" y2="153.77"/><line class="cls-4" x1="43.03" y1="159.42" x2="527.7" y2="159.42"/><line class="cls-4" x1="43.03" y1="165.06" x2="527.7" y2="165.06"/><line class="cls-4" x1="43.03" y1="170.71" x2="527.7" y2="170.71"/><line class="cls-4" x1="43.03" y1="176.36" x2="527.7" y2="176.36"/><line class="cls-4" x1="43.03" y1="182" x2="527.7" y2="182"/><line class="cls-4" x1="43.03" y1="187.65" x2="527.7" y2="187.65"/><line class="cls-4" x1="43.03" y1="193.29" x2="527.7" y2="193.29"/><line class="cls-4" x1="43.03" y1="198.94" x2="527.7" y2="198.94"/><line class="cls-4" x1="43.03" y1="204.58" x2="527.7" y2="204.58"/><line class="cls-4" x1="43.03" y1="210.23" x2="527.7" y2="210.23"/><line class="cls-4" x1="43.03" y1="215.87" x2="527.7" y2="215.87"/><line class="cls-4" x1="43.03" y1="221.52" x2="527.7" y2="221.52"/><line class="cls-4" x1="43.03" y1="227.16" x2="527.7" y2="227.16"/><line class="cls-4" x1="43.03" y1="232.81" x2="527.7" y2="232.81"/><line class="cls-4" x1="43.03" y1="238.45" x2="527.7" y2="238.45"/><line class="cls-4" x1="43.03" y1="244.1" x2="527.7" y2="244.1"/><line class="cls-4" x1="43.03" y1="249.74" x2="527.7" y2="249.74"/><line class="cls-4" x1="43.03" y1="255.39" x2="527.7" y2="255.39"/><line class="cls-4" x1="43.03" y1="261.03" x2="527.7" y2="261.03"/><line class="cls-4" x1="43.03" y1="266.68" x2="527.7" y2="266.68"/><line class="cls-4" x1="43.03" y1="272.32" x2="527.7" y2="272.32"/><line class="cls-4" x1="43.03" y1="277.97" x2="527.7" y2="277.97"/><line class="cls-4" x1="43.03" y1="283.61" x2="527.7" y2="283.61"/><line class="cls-4" x1="43.03" y1="289.26" x2="527.7" y2="289.26"/><line class="cls-4" x1="43.03" y1="294.91" x2="527.7" y2="294.91"/><line class="cls-4" x1="43.03" y1="300.55" x2="527.7" y2="300.55"/><line class="cls-4" x1="43.03" y1="306.2" x2="527.7" y2="306.2"/><line class="cls-4" x1="43.03" y1="311.84" x2="527.7" y2="311.84"/><line class="cls-4" x1="43.03" y1="317.49" x2="527.7" y2="317.49"/><line class="cls-4" x1="43.03" y1="323.13" x2="527.7" y2="323.13"/><line class="cls-4" x1="43.03" y1="328.78" x2="527.7" y2="328.78"/><line class="cls-4" x1="43.03" y1="334.42" x2="527.7" y2="334.42"/><line class="cls-4" x1="43.03" y1="340.07" x2="527.7" y2="340.07"/><line class="cls-4" x1="43.03" y1="345.71" x2="527.7" y2="345.71"/><line class="cls-4" x1="43.03" y1="351.36" x2="527.7" y2="351.36"/><line class="cls-4" x1="43.03" y1="357" x2="527.7" y2="357"/><line class="cls-4" x1="43.03" y1="362.65" x2="527.7" y2="362.65"/><line class="cls-4" x1="43.03" y1="368.29" x2="527.7" y2="368.29"/><line class="cls-4" x1="43.03" y1="373.94" x2="527.7" y2="373.94"/><line class="cls-4" x1="43.03" y1="379.58" x2="527.7" y2="379.58"/><line class="cls-4" x1="43.03" y1="385.23" x2="527.7" y2="385.23"/><line class="cls-4" x1="43.03" y1="390.87" x2="527.7" y2="390.87"/><line class="cls-4" x1="43.03" y1="396.52" x2="527.7" y2="396.52"/><line class="cls-4" x1="43.03" y1="402.16" x2="527.7" y2="402.16"/><line class="cls-4" x1="43.03" y1="407.81" x2="527.7" y2="407.81"/><line class="cls-4" x1="43.03" y1="413.46" x2="527.7" y2="413.46"/><line class="cls-4" x1="43.03" y1="419.1" x2="527.7" y2="419.1"/><line class="cls-4" x1="43.03" y1="424.75" x2="527.7" y2="424.75"/><line class="cls-4" x1="43.03" y1="430.39" x2="527.7" y2="430.39"/><line class="cls-4" x1="43.03" y1="436.04" x2="527.7" y2="436.04"/><line class="cls-4" x1="43.03" y1="441.68" x2="527.7" y2="441.68"/><line class="cls-4" x1="43.03" y1="447.33" x2="527.7" y2="447.33"/><line class="cls-4" x1="43.03" y1="452.97" x2="527.7" y2="452.97"/><line class="cls-4" x1="43.03" y1="458.62" x2="527.7" y2="458.62"/><line class="cls-4" x1="43.03" y1="464.26" x2="527.7" y2="464.26"/><line class="cls-4" x1="43.03" y1="469.91" x2="527.7" y2="469.91"/><line class="cls-4" x1="43.03" y1="475.55" x2="527.7" y2="475.55"/><line class="cls-4" x1="43.03" y1="481.2" x2="527.7" y2="481.2"/><line class="cls-4" x1="43.03" y1="486.84" x2="527.7" y2="486.84"/><line class="cls-4" x1="43.03" y1="492.49" x2="527.7" y2="492.49"/><line class="cls-4" x1="43.03" y1="498.13" x2="527.7" y2="498.13"/><line class="cls-4" x1="43.03" y1="503.78" x2="527.7" y2="503.78"/><line class="cls-4" x1="43.03" y1="509.42" x2="527.7" y2="509.42"/><line class="cls-4" x1="43.03" y1="515.07" x2="527.7" y2="515.07"/><line class="cls-4" x1="43.03" y1="520.71" x2="527.7" y2="520.71"/><line class="cls-4" x1="43.03" y1="526.36" x2="527.7" y2="526.36"/><line class="cls-4" x1="43.03" y1="532.01" x2="527.7" y2="532.01"/><line class="cls-4" x1="43.03" y1="537.65" x2="527.7" y2="537.65"/><line class="cls-4" x1="43.03" y1="543.3" x2="527.7" y2="543.3"/><line class="cls-4" x1="43.03" y1="548.94" x2="527.7" y2="548.94"/><line class="cls-4" x1="43.03" y1="554.59" x2="527.7" y2="554.59"/><line class="cls-4" x1="43.03" y1="560.23" x2="527.7" y2="560.23"/><line class="cls-4" x1="43.03" y1="565.88" x2="527.7" y2="565.88"/><line class="cls-4" x1="43.03" y1="571.52" x2="527.7" y2="571.52"/><line class="cls-4" x1="43.03" y1="577.17" x2="527.7" y2="577.17"/><line class="cls-4" x1="43.03" y1="582.81" x2="527.7" y2="582.81"/><line class="cls-4" x1="43.03" y1="588.46" x2="527.7" y2="588.46"/><line class="cls-5" x1="0.28" y1="606.75" x2="0.28"/><line class="cls-5" x1="5.92" y1="606.75" x2="5.92"/><line class="cls-5" x1="11.57" y1="606.75" x2="11.57"/><line class="cls-5" x1="17.22" y1="606.75" x2="17.22"/><line class="cls-5" x1="22.86" y1="606.75" x2="22.86"/><line class="cls-5" x1="28.51" y1="606.75" x2="28.51"/><line class="cls-5" x1="34.15" y1="606.75" x2="34.15"/><line class="cls-5" x1="39.8" y1="606.75" x2="39.8"/><line class="cls-5" x1="45.44" y1="606.75" x2="45.44"/><line class="cls-5" x1="51.09" y1="606.75" x2="51.09"/><line class="cls-5" x1="56.73" y1="606.75" x2="56.73"/><line class="cls-5" x1="62.38" y1="606.75" x2="62.38"/><line class="cls-5" x1="68.02" y1="606.75" x2="68.02"/><line class="cls-5" x1="73.67" y1="606.75" x2="73.67"/><line class="cls-5" x1="79.31" y1="606.75" x2="79.31"/><line class="cls-5" x1="84.96" y1="606.75" x2="84.96"/><line class="cls-5" x1="90.6" y1="606.75" x2="90.6"/><line class="cls-5" x1="96.25" y1="606.75" x2="96.25"/><line class="cls-5" x1="101.89" y1="606.75" x2="101.89"/><line class="cls-5" x1="107.54" y1="606.75" x2="107.54"/><line class="cls-5" x1="113.18" y1="606.75" x2="113.18"/><line class="cls-5" x1="118.83" y1="606.75" x2="118.83"/><line class="cls-5" x1="124.48" y1="606.75" x2="124.48"/><line class="cls-5" x1="130.12" y1="606.75" x2="130.12"/><line class="cls-5" x1="135.77" y1="606.75" x2="135.77"/><line class="cls-5" x1="141.41" y1="606.75" x2="141.41"/><line class="cls-5" x1="147.06" y1="606.75" x2="147.06"/><line class="cls-5" x1="152.7" y1="606.75" x2="152.7"/><line class="cls-5" x1="158.35" y1="606.75" x2="158.35"/><line class="cls-5" x1="163.99" y1="606.75" x2="163.99"/><line class="cls-5" x1="169.64" y1="606.75" x2="169.64"/><line class="cls-5" x1="175.28" y1="606.75" x2="175.28"/><line class="cls-5" x1="180.93" y1="606.75" x2="180.93"/><line class="cls-5" x1="186.57" y1="606.75" x2="186.57"/><line class="cls-5" x1="192.22" y1="606.75" x2="192.22"/><line class="cls-5" x1="197.86" y1="606.75" x2="197.86"/><line class="cls-5" x1="203.51" y1="606.75" x2="203.51"/><line class="cls-5" x1="209.15" y1="606.75" x2="209.15"/><line class="cls-5" x1="214.8" y1="606.75" x2="214.8"/><line class="cls-5" x1="220.44" y1="606.75" x2="220.44"/><line class="cls-5" x1="226.09" y1="606.75" x2="226.09"/><line class="cls-5" x1="231.73" y1="606.75" x2="231.73"/><line class="cls-5" x1="237.38" y1="606.75" x2="237.38"/><line class="cls-5" x1="243.03" y1="606.75" x2="243.03"/><line class="cls-5" x1="248.67" y1="606.75" x2="248.67"/><line class="cls-5" x1="254.32" y1="606.75" x2="254.32"/><line class="cls-5" x1="259.96" y1="606.75" x2="259.96"/><line class="cls-5" x1="265.61" y1="606.75" x2="265.61"/><line class="cls-5" x1="271.25" y1="606.75" x2="271.25"/><line class="cls-5" x1="276.9" y1="606.75" x2="276.9"/><line class="cls-5" x1="282.54" y1="606.75" x2="282.54"/><line class="cls-5" x1="288.19" y1="606.75" x2="288.19"/><line class="cls-5" x1="293.83" y1="606.75" x2="293.83"/><line class="cls-5" x1="299.48" y1="606.75" x2="299.48"/><line class="cls-5" x1="305.12" y1="606.75" x2="305.12"/><line class="cls-5" x1="310.77" y1="606.75" x2="310.77"/><line class="cls-5" x1="316.41" y1="606.75" x2="316.41"/><line class="cls-5" x1="322.06" y1="606.75" x2="322.06"/><line class="cls-5" x1="327.7" y1="606.75" x2="327.7"/><line class="cls-5" x1="333.35" y1="606.75" x2="333.35"/><line class="cls-5" x1="338.99" y1="606.75" x2="338.99"/><line class="cls-5" x1="344.64" y1="606.75" x2="344.64"/><line class="cls-5" x1="350.28" y1="606.75" x2="350.28"/><line class="cls-5" x1="355.93" y1="606.75" x2="355.93"/><line class="cls-5" x1="361.58" y1="606.75" x2="361.58"/><line class="cls-5" x1="367.22" y1="606.75" x2="367.22"/><line class="cls-5" x1="372.87" y1="606.75" x2="372.87"/><line class="cls-5" x1="378.51" y1="606.75" x2="378.51"/><line class="cls-5" x1="384.16" y1="606.75" x2="384.16"/><line class="cls-5" x1="389.8" y1="606.75" x2="389.8"/><line class="cls-5" x1="395.45" y1="606.75" x2="395.45"/><line class="cls-5" x1="401.09" y1="606.75" x2="401.09"/><line class="cls-5" x1="406.74" y1="606.75" x2="406.74"/><line class="cls-5" x1="412.38" y1="606.75" x2="412.38"/><line class="cls-5" x1="418.03" y1="606.75" x2="418.03"/><line class="cls-5" x1="423.67" y1="606.75" x2="423.67"/><line class="cls-5" x1="429.32" y1="606.75" x2="429.32"/><line class="cls-5" x1="434.96" y1="606.75" x2="434.96"/><line class="cls-5" x1="440.61" y1="606.75" x2="440.61"/><line class="cls-5" x1="446.25" y1="606.75" x2="446.25"/><line class="cls-5" x1="451.9" y1="606.75" x2="451.9"/><line class="cls-5" x1="457.54" y1="606.75" x2="457.54"/><line class="cls-5" x1="463.19" y1="606.75" x2="463.19"/><line class="cls-5" x1="468.83" y1="606.75" x2="468.83"/><line class="cls-5" x1="474.48" y1="606.75" x2="474.48"/><line class="cls-5" x1="480.13" y1="606.75" x2="480.13"/><line class="cls-5" x1="485.77" y1="606.75" x2="485.77"/><line class="cls-5" x1="491.42" y1="606.75" x2="491.42"/><line class="cls-5" x1="497.06" y1="606.75" x2="497.06"/><line class="cls-5" x1="502.71" y1="606.75" x2="502.71"/><line class="cls-5" x1="508.35" y1="606.75" x2="508.35"/><line class="cls-5" x1="514" y1="606.75" x2="514"/><line class="cls-5" x1="519.64" y1="606.75" x2="519.64"/><line class="cls-5" x1="525.29" y1="606.75" x2="525.29"/><line class="cls-5" x1="530.93" y1="606.75" x2="530.93"/><line class="cls-5" x1="536.58" y1="606.75" x2="536.58"/><line class="cls-5" x1="542.22" y1="606.75" x2="542.22"/><line class="cls-5" x1="547.87" y1="606.75" x2="547.87"/><line class="cls-5" x1="553.51" y1="606.75" x2="553.51"/><line class="cls-5" x1="559.16" y1="606.75" x2="559.16"/><line class="cls-5" x1="564.8" y1="606.75" x2="564.8"/><line class="cls-5" x1="570.45" y1="606.75" x2="570.45"/><path class="cls-6" d="M289.26,652.84c1,19.71,1.67,35.75,4.33,41.27s-.66,23.13-3,49.68,4.22,43.82,7.1,56.61,3.22,35.4,1.55,41.58-2.82,8.41-1.66,11.56,2,3.55,0,12.1-1.33,13.67,1,16.29,5,3.69,5.32,8.68,1.33,7.22,4.5,10.12,4.82,4.73,5.15,7.5,3.17,6.17,9.32,6.56,8.32-3.41,6.83-5.78-3.83-5.65-1-6.3,3.32,3.15,6.65,6.83,7.66,2.1,8.82-.53c5.16,1.32,10-.66,8.82-3.68,4.33,1.72,6-2.49,4.66-5.4,4.16-1.31,2.66-4.86-1.66-7.49-2.38-1.44-2.83-1.44-6.82-6.69-6.16-7-17.33-19.19-17.33-25.29,2.94-6.58,2.23-8,1.53-10.66S331,844.91,334.53,827c4.43-22.09,12-32.24,19.07-66.95s-3.55-67.29-4.88-86.23c0-22.42,6.21-30.84,16.86-70.09s13.31-75.71,11.09-94.29-8.43-35.4-13.53-58.27c-2.66-20.24,1.66-106.47,1.66-106.47a358.55,358.55,0,0,1,8.66,40.48c6.32,38.38,11,61.25,21.19,82.2,6.43,13.21,16,30.84,14.19,34.35-4.65,8.42-1.1,23.66.45,33.12,3.55,22.61,6.65,33.13,10.64,32.43s1.56-10.7.9-17-2.23-14-.9-14.36,1.78,4.2,3.78,14.71,7.1,20.51,9.76,20,3.77-2.46,2.22-9.12-7.77-27.51-6.22-27.69,6.88,14.89,9.32,25.59,5.1,14.9,8.66,14,3.11-3.51.66-13.14-8.65-28.57-6.21-29.1,8,23.83,10,30,7.55,10.87,8.44,4.56-6-32.08-7.1-37.68,4.21-3.33,8.42,1.57,12.65,7.19,14.65,4.73c2.42-3-7.32-7.88-13.09-17.16s-14-11.93-20.19-16.83-8.21-22.08-10.87-56.26-4.44-42.24-12.1-59.94c-7.92-18.32-7.65-23.66-7.65-36.8,2.33-21.82-2.22-37.15-1.77-44.69s-40.95-85.78-55.42-90.77-22.84-12.77-35.82-17.63-10.79-6-13.13-10.78c-2.65-5.43-2.86-14.34-2.86-14.34H248.58s.39,9,.39,14.35-.14,5.91-13.12,10.78-31.65,16.29-46.12,21.28-39.17,53.22-45.12,87.12a150.38,150.38,0,0,0-1.77,44.69c0,13.14.27,18.48-7.66,36.8-7.65,17.7-9.42,25.77-12.09,59.94s-4.65,51.35-10.87,56.26S97.8,507.9,92,517.2s-15.52,14.18-13.09,17.16c2,2.46,10.43.18,14.64-4.73s9.54-7.18,8.44-1.57-8,31.37-7.1,37.68,6.43,1.58,8.43-4.56,7.54-30.49,10-30-3.77,19.45-6.21,29.1-2.89,12.26.66,13.14,6.22-3.33,8.66-14,7.76-25.77,9.32-25.59-4.66,21-6.21,27.69-.45,8.59,2.22,9.12,7.76-9.47,9.76-20S134,535.59,135.29,536s-.22,8-.88,14.36-3.11,16.31.88,17,7.1-9.82,10.65-32.43c1.56-9.46,5.1-24.7.44-33.12-1.77-3.51,7.77-21.14,14.2-34.35,10.21-20.95,14.87-43.82,21.19-82.2a363,363,0,0,1,8.65-40.48s4.33,86.23,1.67,106.47c-5.1,22.87-11.31,39.7-13.53,58.27s.44,55,11.09,94.29,16.86,47.67,16.86,70.09c-1.33,18.94-12,51.54-4.88,86.23S216.27,805,220.71,827c3.55,17.87,1.86,20.08,1.16,22.76s-1.41,4.08,1.52,10.66c0,6.1-11.17,18.32-17.33,25.29-4,5.25-4.44,5.25-6.82,6.69-4.32,2.63-5.82,6.18-1.66,7.49-1.33,2.91.33,7.12,4.66,5.4-1.17,3,3.66,5,8.81,3.68,1.17,2.63,5.5,4.21,8.82.53s3.84-7.5,6.66-6.83.51,3.94-1,6.3.66,6.18,6.82,5.78,9-3.81,9.31-6.56,2-4.61,5.16-7.5,4.16-5.13,4.49-10.12,3-6.05,5.33-8.68,3-7.75,1-16.29-1.17-8.94,0-12.1,0-5.39-1.67-11.56-1.33-28.78,1.56-41.58,9.43-30,7.1-56.61-5.66-44.16-3-49.68,3.08-21.57,4.33-41.27c2.32-36.87,4.14-102.75,11.43-102.75S289.11,648.57,289.26,652.84Z"/><path class="cls-7" d="M223.84,139.94c-2.94,1-1.47-3.42-1.74-5a6.3,6.3,0,0,0-3.48-4.66c-7.11-2.69-2.8,5.67-2.48,8.62.52,4.7-2.19,8.87-2,13.46.41,9.42,13,12.38,20.57,13.31,3.91.48,7.85-1,9.28,3.52a43.21,43.21,0,0,1,5,14.28l56.34-2.36s-1.6-17.73,19.95-37.48c30.66-28.1,18.34-80-6-97.41-36.16-25.78-93.63-8-95.36,18.25-.69,4.78-.31,9.65-1.51,14.37-.79,3-3.48,5.61-5.47,8.24-3,4-6.31,8.07-9,12.29-3.61,5.68-5.79,9.52,1.36,12,2.18.77,5.53,1.58,6.84,3.74s.08,4-.19,6.14,0,5.69,3.42,4.41c2.39-.89,2.08-5.21,4.53-5.4"/><path class="cls-7" d="M463.2,517.2c-5.77-9.3-14-11.93-20.19-16.83s-8.21-22.08-10.87-56.26-4.44-42.24-12.1-59.94c-7.92-18.32-7.65-23.66-7.65-36.8,2.33-21.82-2.22-37.15-1.77-44.69s-14.43-72.49-45.5-89.31c-13.46-7.29-32.54-14.87-45.74-19.09-15.81-5.05-13.89-17.08-13.89-17.08l-57.63-9.65S249,178.17,249,183.5s-.14,5.91-13.12,10.78-33.1,13.23-46.12,21.28c-30.14,18.66-45.56,79.59-45.12,87.12s-4.11,22.87-1.77,44.69c0,13.14.27,18.48-7.66,36.8-7.65,17.7-9.42,25.77-12.09,59.94s-4.65,51.35-10.87,56.26S97.8,507.9,92,517.2s-15.52,14.18-13.09,17.16c2,2.46,10.43.18,14.64-4.73s9.54-7.18,8.44-1.57-8,31.37-7.1,37.68,6.43,1.58,8.43-4.56,7.54-30.49,10-30-3.77,19.45-6.21,29.1-2.89,12.26.66,13.14,6.22-3.33,8.66-14,7.76-25.77,9.32-25.59-4.66,21-6.21,27.69-.45,8.59,2.22,9.12,7.76-9.47,9.76-20S134,535.59,135.29,536s-.22,8-.88,14.36-3.11,16.31.88,17,7.1-9.82,10.65-32.43c1.56-9.46,5.1-24.7.44-33.12-1.77-3.51,7.77-21.14,14.2-34.35,10.21-20.95,14.87-43.82,21.19-82.2a363,363,0,0,1,8.65-40.48s7.46,58.84-11.86,164.74c-3.36,18.41-5,55,5.6,94.29s22.35,47.67,22.35,70.09c-1.33,18.94-12,51.54-4.88,86.23S216.27,805,220.71,827c3.55,17.87,1.86,20.08,1.16,22.76s-1.41,4.08,1.52,10.66c0,6.1-11.17,18.32-17.33,25.29-4,5.25-4.44,5.25-6.82,6.69-4.32,2.63-5.82,6.18-1.66,7.49-1.33,2.91.33,7.12,4.66,5.4-1.17,3,3.66,5,8.81,3.68,1.17,2.63,5.5,4.21,8.82.53s3.84-7.5,6.66-6.83.51,3.94-1,6.3.66,6.18,6.82,5.78,9-3.81,9.31-6.56,2-4.61,5.16-7.5,4.16-5.13,4.49-10.12,3-6.05,5.33-8.68,3-7.75,1-16.29-1.17-8.94,0-12.1,0-5.39-1.67-11.56-1.33-28.78,1.56-41.58,9.43-30,7.1-56.61-5.66-44.16-3-49.68,3.08-21.57,4.33-41.27c2.32-36.87,4.14-102.75,11.43-102.75s11.71,98.48,11.86,102.75c1,19.71,1.67,35.75,4.33,41.27s-.66,23.13-3,49.68,4.22,43.82,7.1,56.61,3.22,35.4,1.55,41.58-2.82,8.41-1.66,11.56,2,3.55,0,12.1-1.33,13.67,1,16.29,5,3.69,5.32,8.68,1.33,7.22,4.5,10.12,4.82,4.73,5.15,7.5,3.17,6.17,9.32,6.56,8.32-3.41,6.83-5.78-3.83-5.65-1-6.3,3.32,3.15,6.65,6.83,7.66,2.1,8.82-.53c5.16,1.32,10-.66,8.82-3.68,4.33,1.72,6-2.49,4.66-5.4,4.16-1.31,2.66-4.86-1.66-7.49-2.38-1.44-2.83-1.44-6.82-6.69-6.16-7-17.33-19.19-17.33-25.29,2.94-6.58,2.23-8,1.53-10.66S331,844.91,334.53,827c4.43-22.09,12-32.24,19.07-66.95s-3.55-67.29-4.88-86.23c0-22.42,11.7-30.84,22.35-70.09s8.76-75.85,5.6-94.29C358.88,405.75,364.8,344.74,364.8,344.74a358.55,358.55,0,0,1,8.66,40.48c6.32,38.38,11,61.25,21.19,82.2,6.43,13.21,16,30.84,14.19,34.35-4.65,8.42-1.1,23.66.45,33.12,3.55,22.61,6.65,33.13,10.64,32.43s1.56-10.7.9-17-2.23-14-.9-14.36,1.78,4.2,3.78,14.71,7.1,20.51,9.76,20,3.77-2.46,2.22-9.12-7.77-27.51-6.22-27.69,6.88,14.89,9.32,25.59,5.1,14.9,8.66,14,3.11-3.51.66-13.14-8.65-28.57-6.21-29.1,8,23.83,10,30,7.55,10.87,8.44,4.56-6-32.08-7.1-37.68,4.21-3.33,8.42,1.57,12.65,7.19,14.65,4.73C478.71,531.38,469,526.48,463.2,517.2Zm-319.79,14c-2.2,4.23-3.46,28.35-6.93,30.85s1-19.66,1-27.12-4-1.94-6.52,9.21-5.28,20.59-8,21.2-.59-8.67,2.35-19.66,2.74-14.07.4-14.07-12.74,37.14-15.87,37.6-3.34-1.09-.79-11.45,9.6-28.32,4.71-28.63-8.43,16.4-10.78,25.54-6.46,11.29-5.49,2.62,4.9-29.55,7.45-30.17.19-8.51-7.25-3.4-11.43,10.94-14.3,8.81c-3.13-2.32,6.46-7.11,11.56-13.46s13.32-11.61,21.46-16.23c10.85-6.16,24.13-3.76,27.72,6.72C147.19,518.78,145.62,527,143.41,531.22ZM254.53,792.38c-6.27,16.71-2.59,39.6-1.07,46.51S256.12,849,255,852.43s-2.28,6.9,0,15.62,0,9.78-3.23,13.39-2.28,3.9-2.67,10.67-8.56,10.07-9.13,14.43-5.33,6.16-9.32,5.41-3-3-.95-6.46.57-7.07-1.9-5.87-5.91,3.16-7.43,6.62-5.14,4.5-6.66,2.1,2.67-5.56,4.38-8.26-.38-2.72-.38-2.72c.38,2.72-3.62,4.52-5.34,6.92s-7,3.61-7.41,1.51,2.28-3,4.57-4.66,3.42-2.86,2.28-5.27c-.38,2.41-2.47,2.86-4.57,4.36s-3.81,2.86-6.23,2.41-2.91-1.5,1.28-4,7.42-5.41,5.52-5.57-2.66,2.1-5.89,3.6-5.52-.59-1.15-3,6.85-4.21,13.74-11.5c11.34-12,16.3-19.11,14.73-25.35s-3.16-3.32-1.06-10.79,1.06-31.16-12.09-73.53S214,711,214,711c3.32-9.31,27.25-9.25,40.17,14.27S260.8,775.67,254.53,792.38Zm85.17-19.94c-13.15,42.37-14.2,66-12.09,73.53s.52,4.57-1.06,10.79,3.39,13.34,14.73,25.35c6.89,7.29,9.36,9.09,13.73,11.5s2.09,4.51-1.14,3-4-3.75-5.9-3.6,1.33,3,5.52,5.57,3.71,3.61,1.29,4-4.14-.91-6.23-2.41-4.19-2-4.57-4.36c-1.15,2.41,0,3.61,2.28,5.27s4.95,2.55,4.57,4.66-5.71.89-7.43-1.51-5.7-4.2-5.32-6.92c0,0-2.1,0-.38,2.72s5.89,5.86,4.38,8.26-5.14,1.35-6.66-2.1-4.95-5.41-7.42-6.62-4,2.4-1.91,5.87,3,5.7-.95,6.46-8.75-1.05-9.32-5.41-8.75-7.67-9.14-14.43.58-7.07-2.66-10.67-5.52-4.67-3.23-13.39,1.14-12.16,0-15.62,0-6.62,1.51-13.54,5.21-29.8-1.06-46.51-12.54-43.64.39-67.16S338.49,701.64,341.8,711C341.8,711,352.84,730.06,339.7,772.44Zm39.93-383.13c-3.14-43.34-15.3-83.39-25.91-109.58,0,0,3.71,106.64,5.16,172.47,1,47.1,18.78,83.24,5.45,132.76S348,656.51,333.91,680s-37.61,11.76-39.17-33.43-8.63-103.37-16.46-108.94h-1.81c-7.84,5.57-14.88,63.76-16.46,108.94S234.94,703.55,220.83,680s-17.08-54.88-30.41-104.4,5.48-79.81,7.27-126.89c2.37-62.22,3.65-169.51,3.65-169.51-10.92,53.39-23.09,66.74-26.22,110.08-1.71,23.71-13.65,72.05-32.46,96.81s-15-16.44-13.45-38.73c5.64-43.86,23.84-77.79,24.62-88.93C147.21,256.71,193.62,218.94,215,211.62S255.9,198,255.9,190.68v-7.31s17-4.27,41.91-1a49.64,49.64,0,0,0,1,8.31c1.26,7.21,19.49,13.63,40.89,20.94s69.85,39.71,61.18,146.84c.79,11.14,19,45.07,24.62,88.93,1.57,22.29,5.35,63.49-13.45,38.73S381.34,413,379.63,389.31Zm91.81,143.24c-2.87,2.13-6.85-3.72-14.3-8.81s-9.8,2.78-7.25,3.4,6.46,21.51,7.45,30.17-3.15,6.5-5.49-2.62-5.88-25.86-10.78-25.54,2.16,18.27,4.71,28.63,2.34,11.92-.79,11.45-13.52-37.6-15.87-37.6-2.54,3.09.4,14.07,5.09,20.28,2.35,19.66-5.49-10.06-8-21.2-6.52-16.67-6.52-9.21,4.41,29.6.94,27.12-4.72-26.62-6.93-30.85-3.77-12.44-.62-21.64c3.59-10.48,16.86-12.88,27.71-6.72,8.14,4.62,16.37,9.89,21.46,16.23S474.58,530.23,471.44,532.55Z"/><path class="cls-6" d="M221.48,140.72a14.44,14.44,0,0,1,.32,3.07c.35,7.9,10.88,10.38,17.26,11.16,3.28.4,6.58-.87,7.78,3,1.1,3.49,8.69,28.09,9.06,32.78l43.26,0s-7.64-37.61,15.83-54.24c28.46-20.16,15.23-66.83-5.21-81.41-30.33-21.62-78.38-7-79.83,15-.58,4-.26,8.1-1.27,12.05-.66,2.56-2.91,4.71-4.58,6.92-2.53,3.34-5.3,6.76-7.55,10.3-3,4.76-4.86,8,1.14,10.1,1.83.65,4.64,1.32,5.73,3.14s-1.91,6.74-2.14,8.53C221.28,121.11,218.54,129,221.48,140.72Z"/><path class="cls-1" d="M214,711s-11,19.11,2.11,61.49,14.19,66,12.09,73.53-.53,4.57,1.06,10.79-3.39,13.34-14.73,25.35c-6.89,7.29-9.36,9.09-13.74,11.5s-2.09,4.51,1.15,3,4-3.75,5.89-3.6-1.33,3-5.52,5.57-3.7,3.61-1.28,4,4.14-.91,6.23-2.41,4.19-2,4.57-4.36c1.14,2.41,0,3.61-2.28,5.27s-4.95,2.55-4.57,4.66,5.71.89,7.41-1.51,5.72-4.2,5.34-6.92c0,0,2.09,0,.38,2.72s-5.9,5.86-4.38,8.26,5.14,1.35,6.66-2.1,5-5.41,7.43-6.62,4,2.4,1.9,5.87-3.05,5.7.95,6.46,8.75-1.05,9.32-5.41,8.75-7.67,9.13-14.43-.57-7.07,2.67-10.67,5.52-4.67,3.23-13.39-1.14-12.16,0-15.62,0-6.62-1.52-13.54-5.2-29.8,1.07-46.51,12.53-43.64-.4-67.16S217.28,701.64,214,711Z"/><path class="cls-1" d="M301.63,725.22c-12.93,23.52-6.66,50.45-.39,67.16s2.59,39.6,1.06,46.51-2.66,10.08-1.51,13.54,2.28,6.9,0,15.62,0,9.78,3.23,13.39,2.28,3.9,2.66,10.67,8.57,10.07,9.14,14.43,5.32,6.16,9.32,5.41,3-3,.95-6.46-.57-7.07,1.91-5.87,5.9,3.16,7.42,6.62,5.13,4.5,6.66,2.1-2.67-5.56-4.38-8.26.38-2.72.38-2.72c-.38,2.72,3.62,4.52,5.32,6.92s7.05,3.61,7.43,1.51-2.28-3-4.57-4.66-3.43-2.86-2.28-5.27c.38,2.41,2.47,2.86,4.57,4.36s3.8,2.86,6.23,2.41,2.9-1.5-1.29-4-7.42-5.41-5.52-5.57,2.67,2.1,5.9,3.6,5.52-.59,1.14-3-6.84-4.21-13.73-11.5c-11.34-12-16.3-19.11-14.73-25.35s3.16-3.32,1.06-10.79-1.06-31.16,12.09-73.53S341.8,711,341.8,711C338.49,701.64,314.56,701.7,301.63,725.22Z"/><path class="cls-8" d="M227.45,910s5.16-.53,8,1c2.58-3.48.58-5.59-2.09-5.72A6.1,6.1,0,0,0,227.45,910Z"/><path class="cls-9" d="M235.68,911.94l-.7-.39c-2.49-1.39-7.37-.94-7.43-.94l-1.12.11.26-.86a6.85,6.85,0,0,1,6.43-5.16h.28a4.45,4.45,0,0,1,3.51,1.7c.89,1.31.6,3.06-.8,5Zm-6.23-2.64a15.94,15.94,0,0,1,5.68.88c.79-1.27.94-2.38.4-3.18a2.79,2.79,0,0,0-2.22-1.06h0a5.36,5.36,0,0,0-4.79,3.37Z"/><path class="cls-8" d="M213.22,906.78s3.58-.27,5.07,1.32c1.92-1.52,1.76-4-.49-4.15A4.83,4.83,0,0,0,213.22,906.78Z"/><path class="cls-9" d="M218.21,909l-.54-.58c-.93-1-3-1.08-3.87-1.08h-.5l-1.26.09.45-.92a5.55,5.55,0,0,1,5.4-3.22,2.67,2.67,0,0,1,2.32,1.45,3.26,3.26,0,0,1-1.36,3.74Zm-3.73-2.88a8,8,0,0,1,3.77,1,2,2,0,0,0,.48-2,1.11,1.11,0,0,0-1-.63A3.7,3.7,0,0,0,214.48,906.16Z"/><path class="cls-8" d="M204.82,904.61s3.33.14,4.32,1.44c2.41-1.9,1.84-4.13-.08-4.27A5,5,0,0,0,204.82,904.61Z"/><path class="cls-9" d="M209,907.06l-.51-.69c-.63-.83-2.93-1.11-3.69-1.14l-.94,0,.22-.72a5.77,5.77,0,0,1,4.82-3.31h.24a2.51,2.51,0,0,1,2.2,1.36c.44,1,.24,2.5-1.63,4Zm-3-3a7.75,7.75,0,0,1,3.17,1c.84-.88.93-1.7.71-2.17a.94.94,0,0,0-.86-.55h0A4.4,4.4,0,0,0,206,904.1Z"/><path class="cls-8" d="M198.58,901.26a5.24,5.24,0,0,1,2.41,1.37c2.66-1,4-2.56,2.74-3.28A4,4,0,0,0,198.58,901.26Z"/><path class="cls-9" d="M200.67,903.43l-.36-.49a4.33,4.33,0,0,0-2-1.09l-.81-.22.34-.62a5,5,0,0,1,4.4-2.64,3.9,3.9,0,0,1,1.94.48,1.35,1.35,0,0,1,.78,1.36c-.13,1.06-1.54,2.21-3.66,3Zm-1-2.48a5.66,5.66,0,0,1,1.56.9c1.36-.6,2.15-1.32,2.2-1.76,0-.09,0-.16-.15-.24a2,2,0,0,0-1-.24A3.33,3.33,0,0,0,199.66,901Z"/><path class="cls-8" d="M196.41,896.26a5.48,5.48,0,0,1,2.09,1.44c2.66-.85,3.24-2.89,1.91-3.22A3.61,3.61,0,0,0,196.41,896.26Z"/><path class="cls-9" d="M198.14,898.48l-.33-.48a4.59,4.59,0,0,0-1.74-1.19l-.67-.26.3-.54a4.51,4.51,0,0,1,4.94-2.12,1.5,1.5,0,0,1,1.24,1.34c.05,1-.9,2.34-3.09,3Zm-.68-2.46a6.63,6.63,0,0,1,1.3.9c1.09-.5,1.57-1.22,1.55-1.64,0-.17-.09-.19-.14-.21A2.75,2.75,0,0,0,197.46,896Z"/><path class="cls-8" d="M326.94,910s-5.16-.53-8,1c-2.58-3.48-.59-5.59,2.08-5.72A6.12,6.12,0,0,1,326.94,910Z"/><path class="cls-9" d="M318.71,911.94l-.43-.58c-1.4-1.88-1.69-3.64-.81-5a4.45,4.45,0,0,1,3.51-1.7h.29a6.85,6.85,0,0,1,6.43,5.16l.25.87-1.11-.12c-.06,0-4.94-.45-7.44.94Zm2.56-6a2.94,2.94,0,0,0-2.42,1.06c-.53.8-.39,1.91.4,3.18a17.49,17.49,0,0,1,6.62-.87A5.26,5.26,0,0,0,321.27,905.94Z"/><path class="cls-8" d="M341.16,906.78s-3.58-.27-5.08,1.32c-1.91-1.52-1.74-4,.5-4.15A4.83,4.83,0,0,1,341.16,906.78Z"/><path class="cls-9" d="M336.17,909l-.64-.51a3.25,3.25,0,0,1-1.35-3.74,2.65,2.65,0,0,1,2.32-1.45,5.55,5.55,0,0,1,5.39,3.22l.45.92-1.25-.09h-.51c-.85,0-2.94.1-3.87,1.08Zm.78-4.49-.28,0a1.08,1.08,0,0,0-1,.63,2,2,0,0,0,.48,2,8,8,0,0,1,3.76-1A3.84,3.84,0,0,0,337,904.55Z"/><path class="cls-8" d="M349.56,904.61s-3.33.14-4.32,1.44c-2.42-1.9-1.84-4.13.08-4.27A5,5,0,0,1,349.56,904.61Z"/><path class="cls-9" d="M345.39,907.06l-.71-.56c-1.86-1.48-2.06-3-1.62-4a2.51,2.51,0,0,1,2.19-1.37h.25a5.81,5.81,0,0,1,4.82,3.3l.23.73-.95,0c-.75,0-3.06.31-3.69,1.14Zm.11-4.66a1,1,0,0,0-1,.55c-.22.48-.13,1.29.71,2.17a7.79,7.79,0,0,1,3.18-1A4.31,4.31,0,0,0,345.5,902.4Z"/><path class="cls-8" d="M355.8,901.26a5.19,5.19,0,0,0-2.41,1.37c-2.67-1-4-2.56-2.75-3.28A4,4,0,0,1,355.8,901.26Z"/><path class="cls-9" d="M353.71,903.43l-.65-.23c-2.13-.78-3.53-1.93-3.66-3a1.34,1.34,0,0,1,.78-1.36,3.9,3.9,0,0,1,1.94-.48,5,5,0,0,1,4.4,2.64l.34.62-.81.22a4.33,4.33,0,0,0-2,1.09Zm-1.59-3.82a2,2,0,0,0-1,.24c-.15.08-.17.15-.15.24.05.44.83,1.16,2.2,1.76a5.76,5.76,0,0,1,1.55-.9A3.31,3.31,0,0,0,352.12,899.61Z"/><path class="cls-8" d="M358,896.26a5.4,5.4,0,0,0-2.08,1.44c-2.67-.85-3.25-2.89-1.92-3.22A3.62,3.62,0,0,1,358,896.26Z"/><path class="cls-9" d="M356.24,898.48l-.65-.2c-2.19-.71-3.14-2.07-3.09-3a1.48,1.48,0,0,1,1.23-1.34,4.53,4.53,0,0,1,5,2.12l.3.54-.67.26a4.58,4.58,0,0,0-1.75,1.19ZM354.8,895a3,3,0,0,0-.6.07c-.05,0-.12,0-.13.21,0,.42.45,1.14,1.55,1.64a6.94,6.94,0,0,1,1.3-.9A2.76,2.76,0,0,0,354.8,895Z"/><g class="cls-10"><path class="cls-11" d="M224.61,702.46c-4.64-4.87-7.05-10.36-9.3-16.12-.14-.37-1.16.52-1,.89,1.93,5.82,3.71,12,9,16.51C223.7,704.08,225,702.83,224.61,702.46Z"/><path class="cls-11" d="M329.51,702.46c4.64-4.87,7-10.36,9.29-16.12.14-.37,1.17.52,1,.89-1.94,5.82-3.71,12-9,16.51C330.42,704.08,329.15,702.83,329.51,702.46Z"/><path class="cls-11" d="M224.35,855.39c0-.08-.22.09-.21.15a10.44,10.44,0,0,1-.79,6c-.13.32.31,0,.39-.09C224.65,859.72,225.13,857.15,224.35,855.39Z"/><path class="cls-11" d="M256.42,857.11c.05-.14-.19,0-.21.1a11.74,11.74,0,0,0,0,7.74c0,.16.44-.19.41-.31C256.12,862.11,255.7,859.65,256.42,857.11Z"/><path class="cls-11" d="M253.87,880.58c-2,.9-2.38,4-1.82,5.56,0,.12.32-.17.32-.25-.1-1.59-.3-4.09,1.48-5.2C253.89,880.67,254,880.53,253.87,880.58Z"/><path class="cls-11" d="M218.31,897.82c0-.07-.21.09-.2.15.5,2.06-3.63,5.15-5.12,6.91a5,5,0,0,0-1.53,3.26c0,.18.33-.12.35-.19.75-3,3.43-4.61,5.51-7C218.14,900.05,219,899,218.31,897.82Z"/><path class="cls-11" d="M211.37,897.32c0-.05-.14.07-.13.1.28,1.8-2.09,2.54-3.58,3.49a7.16,7.16,0,0,0-2.47,2.35c-.09.16.14.09.21,0a20.19,20.19,0,0,1,5-3.65A1.85,1.85,0,0,0,211.37,897.32Z"/><path class="cls-11" d="M206.22,894.11c0-.07-.14,0-.14.09,0,1.77-3.58,2.92-5.2,3.69a7,7,0,0,0-3,2.31c-.15.22.1.22.24.06,1.53-1.73,3.9-2.45,6-3.65C205.1,896,206.48,895.22,206.22,894.11Z"/><path class="cls-11" d="M229.48,900.19c0-.13-.24.09-.24.16a17.63,17.63,0,0,1-.24,2.49,15.39,15.39,0,0,1-1.13,2.66c-.11.27.26,0,.32-.08A8.44,8.44,0,0,0,229.48,900.19Z"/><path class="cls-11" d="M226.58,901a6.45,6.45,0,0,0-3.56,3c-.16.27.25.09.35,0a7.75,7.75,0,0,1,3.14-2.74S226.69,900.92,226.58,901Z"/><path class="cls-11" d="M330,855.39c0-.08.21.09.2.15a10.36,10.36,0,0,0,.8,6c.13.32-.32,0-.39-.09C329.66,859.72,329.18,857.15,330,855.39Z"/><path class="cls-11" d="M297.89,857.11c0-.14.19,0,.22.1a11.87,11.87,0,0,1,0,7.74c-.05.16-.44-.19-.42-.31C298.19,862.11,298.61,859.65,297.89,857.11Z"/><path class="cls-11" d="M300.45,880.58c2,.9,2.37,4,1.82,5.56,0,.12-.33-.17-.33-.25.11-1.59.3-4.09-1.48-5.2C300.43,880.67,300.35,880.53,300.45,880.58Z"/><path class="cls-11" d="M336,897.82c.05-.07.22.09.21.15-.5,2.06,3.62,5.15,5.11,6.91a5,5,0,0,1,1.53,3.26c0,.18-.33-.12-.35-.19-.75-3-3.43-4.61-5.5-7C336.18,900.05,335.31,899,336,897.82Z"/><path class="cls-11" d="M342.94,897.32c0-.05.14.07.13.1-.27,1.8,2.09,2.54,3.59,3.49a7.13,7.13,0,0,1,2.46,2.35c.09.16-.13.09-.2,0a20.25,20.25,0,0,0-5-3.65A1.86,1.86,0,0,1,342.94,897.32Z"/><path class="cls-11" d="M348.09,894.11c0-.07.14,0,.14.09,0,1.77,3.59,2.92,5.2,3.69a7.14,7.14,0,0,1,3,2.31c.14.22-.1.22-.24.06-1.54-1.73-3.91-2.45-6-3.65C349.21,896,347.84,895.22,348.09,894.11Z"/><path class="cls-11" d="M324.83,900.19c0-.13.24.09.24.16a17.63,17.63,0,0,0,.24,2.49,15.44,15.44,0,0,0,1.14,2.66c.11.27-.26,0-.33-.08A8.51,8.51,0,0,1,324.83,900.19Z"/><path class="cls-11" d="M327.74,901a6.48,6.48,0,0,1,3.56,3c.16.27-.26.09-.35,0a7.85,7.85,0,0,0-3.15-2.74S327.62,900.92,327.74,901Z"/></g><path class="cls-12" d="M265.93,183.51a2.7,2.7,0,0,1-2.65,1.49c-3-.38-3.66-3.71-4.18-6.13a41.25,41.25,0,0,1,.38-18.3c.52-2,.79-6.24,3.28-6.93,1.79-.5,2.87,1.57,4.08,2.48a11.47,11.47,0,0,0,5.13,2.53c-.72,1.23-1.8,1.44-2.64,2.48a9.2,9.2,0,0,0-1.2,3.74c-.45,2.35-.38,4.78-.83,7.12-.56,2.83.66,5.76-.15,8.55a12,12,0,0,1-1.22,3Z"/><path class="cls-12" d="M271.7,488.6c-3.29,5.52-3.5,8.63-2.72,14.57.61,2.65,2.35,5.1,3.93,5,1,5.1-2,6.7-1.64,11.74.05.78,6.18,13.66,4.48,13.17a5.51,5.51,0,0,0,3.43,0c1.05-5.61,4-6.08,5-11.54.2-1.11-1-13.57-3.9-11.54,8.81-6.14,3.34-9.55,1.69-16.38,6.67,4.45,11.14,7,20,5.87,14.82-1.83,25.29-3.17,32-17.5a33.23,33.23,0,0,1,2.73-5.51c1.41-1.95,3.56-3.2,4.34-5.61.48-1.46.32-2.67,1.14-3.91.45-.67,1.35-1,1.87-1.73,2-3-.34-5,.27-7.92.53-2.53,3.4-3.62,3.47-7,0-1.75-1.29-3.67-.79-5.41.42-1.45,2.05-2.73,2.68-4.26a7.7,7.7,0,0,0,.13-6.32,19.91,19.91,0,0,1-1.32-2.66,4.21,4.21,0,0,1,.56-2.27,12.49,12.49,0,0,0,.25-7.76c-.5-1.55-1.11-2.38-.67-4s1.62-2.95,1.52-4.69c-.09-1.55-1.48-2.76-1.78-4.1-.34-1.58.9-2.48,1.52-3.73a6.42,6.42,0,0,0,.45-3.82c-.39-2.36-2.46-3.65-1.08-6,1.63-2.8,3.25-5.32,1.35-8.48-2.24-3.72-2.8-3.46-2.55-7.65.16-2.87.21-4.76-1.29-7.41-3.14-5.56-10-10.16-15.92-6.08s-4.66,11.45-3.23,17.5c.75,3.12,1,4.21.64,7.42-.05.45.37,14.14,3.11,12.33-2.17,1.43-2.53,3.75-2.92,6.17-.59,3.73,1,4,1.72,7,.42,1.82-.14,2.27-.58,4.45-.61,3,.87,5.35.93,7.63,0,1.63-1.2,2.84-1.58,4.7-.52,2.59,1.15,3.6,1.32,5.78a70.52,70.52,0,0,1-2.05,10.82c-1.28,2-4.51,2.26-5.74,4.14-1.69,2.57.4,5.83-.76,8.46-.92,2.07-4.2,1.93-5.15,4.72-.82,2.4.44,5.72.41,8.31a11.24,11.24,0,0,0-11.21,9.2c-.24,1.27-18.23-4-20-4.08-6.3-.35-11.05,3.27-14.11,8.41Z"/><path class="cls-12" d="M345.78,386.46c0,.31,0,.61-.07.88-.12,1.84-2.71,3.91-.61,5.23,1.35.86,4.2-1,5.22-1.63.69,7-9.22,6.71-8.5,12.54.53,4.37,3.45,2.35,6.18,1.61,1.68,3.68-1.83,3.73-3.15,6-1.49,2.54-1.54,7.26,2.53,5.56,0-.05.37,1.72.38,1.82-.68,0-2.79.84-4.24.82a13.82,13.82,0,0,0-2.1,8.17c.34,3.54,4.39,4.77,6.67,1.12.57,6.42-5.91,3.32-8.18,7.52-3.09,5.74,3.06,8,7.78,7.22a8.7,8.7,0,0,1-3.31,3.5c-2.24,1.27-1.13-1.4-3.23,1.4s-2.71,10.43,2.94,8.27c-1.42,3.47-4.31.92-6.82,1.64-.63,1.62-.37,3.59-.42,5.43,2.35-1.18,4.73,1.24,7.48.17-1.38,3.3-4.54,3.56-7.34,3.15.49.45.69,1.2,1.08,1.68-1.67,1-4.72,6.27-1.24,5.69-.41.55-1.05,1.57-1.39,2-1.78,1.12-3.74,1.64-4.82,3.09-2.26-.94-9.06,6.11-11.4,8.05,4-2.93,14-16.22,4.87-17.2a2.62,2.62,0,0,0-.25-1c2.23,1.38,5.53-1.34,6.4-3.51-2-1.32-3.61-4-2.59-6.23,2.27,3.5,4.81,0,3.92-2.74a4.45,4.45,0,0,1,.66-.4c-1.53-2.88-5.49-8.5-3-11.42,1.42,3.41,4.84,5.41,4.67.71-3.09-2.39-5.09-7.27-3.52-10.89.86,1.65,1.84,4.21,4.5,3.86-.35-2.89,2.34-5.9,1-8.14-.33.07-.88.21-1.24.26-2-2.49-5.52-8-2.81-10.81,1.44,1.84,2.54,5.84,4.7,3.26,1-1.18.43-5.62-.32-6.79-4.31,2.68-5.85-5.88-4.54-8.59.41,1.18,1.95,2.5,3.3,1.32.65-.57-.14-3.75.51-5-4.82-2.62-7-7.08-5.16-13.18-.07-.07.9,0,.89,0a12,12,0,0,0,.46,2.55c4.9-2.73-6.3-6.62-.75-11.19.41-.34,2.29-.68,3.36-1.6,2.91-2.5,2.11-7.9,5.75-9.45,2.75-1.16,5,.44,6,2.71,1.33,3,.12,8.85-.26,12.48Z"/><path class="cls-12" d="M335.5,384.38c-1.9,5.16,2.46,14,2.64,19.74.25,8.35-1.17,17.24-1.74,25.6-1.23,18-1.77,36.06-11.64,51.5,3.33-5,7.25-10.42,9-16.13,1.33-4.23,1.15-8.57,1.7-12.88,1-7.85,2.18-15.76,2.56-23.72.4-8.4.42-16.94.73-25.31.22-5.76-.11-13.91-2.94-18.85-.86.15-.39.56-.68,1"/><path class="cls-12" d="M225.74,373.53a49,49,0,0,0,15.48-7.33c6.72-4.84,13.16-11.39,19-17.34,2.25-2.31,4.6-4.58,7.81-5.29,6-1.33,12.08-2.14,18-4.1,6.73-2.22,12.81-6.23,18.26-10.7,4.85-4,12.57-14.17,6.31-20.24-3.27-3.17-9.05-2.85-13.29-2.62-6.09.33-12.15,1.41-18.26,1.47-11.4.13-22-4.22-33-6.13-9.68-1.67-19.83-.26-27.47,6.13-8.41,7-12.09,20.59-12.1,31.21a61.14,61.14,0,0,0,1.63,14c.94,3.92,2.71,7.78,3.36,11.72.52,3.15-1.68,8.51,1.15,11,3.36,2.91,9.73-.73,13.2-1.75Z"/><path class="cls-12" d="M230.88,370.25c-1.55.58-3.11,1.17-4.64,1.86-2.5,1.13-5.77,2.76-8.56,2.68-4.63-.13-1.82-5.85-.46-8.41,1-1.92,2.73-3.31,3.85-5.13a31.21,31.21,0,0,0,2.72-6.6,43.78,43.78,0,0,0,2.07-12.95c0-3.67,0-7.45,1.39-10.89,4.1-9.82,19.1-17.79,29.28-12.88,1,.49,2.23,1.51,3.07,1.95,5.84,3,12,3.69,18.68,3.87,8,.2,19.21.51,26.1-4.4,1.84-1.32,4.46-4.38,4-6.84,1.55-.52,1.54-2.58.91-3.87,3.9,2.28,2.39,7.75.92,11-2,4.46-5.66,8.19-9.5,11.12-4.79,3.64-11.84,6.39-17.61,8-3.39.95-6.87,1.89-10.29,2.67-3.16.73-8,1.42-10.65,3.15s-5,5.41-7.28,7.81c-5,5.11-10.43,10.73-16.54,14.47a41.9,41.9,0,0,1-7.45,3.35Z"/><path class="cls-12" d="M278.92,385.15a6.56,6.56,0,0,0,1.53-1.5c.94,5.15,8.6,2.21,9.28-1.53,2.43,2.4,9.87,2.65,9.91-2,3,2.41,12,2.91,9.89-3,2.67,3.55,4.93,2.11,4.88-1.66,2.76,2.84,6.65-.9,7.49-3.69-.71,2.35,4.56,1.22,5.28.65,1.06-.84,1-2,1.65-3a25.11,25.11,0,0,0,1.93-2.23c1.29-4.87-4.3-7.13-8.11-5.07a6.54,6.54,0,0,0,1.26,1.52c-2.2-1.92-6.93.68-8.12-.49a20.32,20.32,0,0,0,2.1,2.06c-1.89-1.86-5.66-1.75-8-.94a28.3,28.3,0,0,1,2.61,2.07c-2.54-2.06-5.53-1.93-8.6-1.25.74.53,1.6,1.45,2.41,2-2.16-2.61-5.69-2.88-8.79-2.44a11.88,11.88,0,0,0,1.15,2.87c-2.07-3.36-8-4.46-11.22-2.45.93,1.13,1.92,2.45,1.82,3.93-2.28-4.47-7.15-6.45-11.76-4a13.18,13.18,0,0,1,2.76,5.45c-.81-3.19-4.32-5.85-7.62-5.43-1.62.21-8.69,2.11-6.31,4.67a3.66,3.66,0,0,0-5.29,3.7c.11,1,.71,1.88.82,2.91a8.62,8.62,0,0,1-.26,2c-.08,1.11.56,2,1.06,3.17,1.37,3.09,5.61,3,7.72.62a5.37,5.37,0,0,0,0,.66,2,2,0,0,0,.87-1.34c-.3,1.37,3,3.52,4,4a3.48,3.48,0,0,0,3.7-.17Z"/><path class="cls-12" d="M255.27,343.18c-1.25,1.29-3.34,1.94-5,2.52-1,.38-3.11.7-3.81,1.63-1.48,1.95,2.27,0,3-.26,3.12-1.32,7.81-2.44,8,2.38.21,5.23.33,10.48.88,15.69.48,4.62,2.45,9.6-1.48,13.31-.76.71-3.28,1.32-3.28,2.41,0,2.79,5.41-2.44,6.35-2.77,4.67-1.65,9.83-.67,14.66-1,1-.07,2.46-.64,3.31,0a2.75,2.75,0,0,1,.69,2.82c.81-.23.77-2.06.58-2.77,1.94-.84,4.46-.87,6.56-1.09s4.94-.82,5.07,2.19c.73-.73.45-1.68.3-2.58,1.35-.62,3.63-.24,5.12-.48,1.7-.27,3.37-.7,5.05-1.08,1.1-.24,2.37-1,3.5-.9,1.41.13,2.32,1.36,3.8,1.62a2.73,2.73,0,0,0-.22-2.14c2.18.54,4.39,1.69,6.54,2.4-.38-.53-2.77-1.68-2.75-2.14,0-.71,2.89-1.31,3.59-1.58a67.39,67.39,0,0,0,9.53-4.69,30,30,0,0,0-9.38,3.11c-.94.53-4.78,3.3-5.49,1.34-.27-.73.16-2.4.25-3.08-.75,1.68-1.13,3.49-2.86,4.2-2.72,1.12-.73-2-1.79-3.24a3.16,3.16,0,0,1-2.71,3.76c-1.6.42-2.33.71-3.32-.74.34,2-2,1.89-3.46,2.11-1.18.18-6.65.64-6.38-1.7-.26,2.21-2.81,2.56-4.59,2.86a12.49,12.49,0,0,1-4.09.25c-1.38-.21-1.34-1.07-1.61-2.19a9.64,9.64,0,0,0-2-3.89c.55.66.78,2.59,1.07,3.43,1.48,4.25-6.31,2.92-8.42,2.92-1.89,0-3.79.21-5.65.24-.95,0-2.85-.19-3.58-.92-1.23-1.23-.78-4.65-1-6.27a66.38,66.38,0,0,0-.95-7.29c-.5-2.15.14-4.36-.11-6.53-.7-6.22-.85-12.5-1-18.76a19,19,0,0,1,.77-6.61c.49-1.42,2.47-3.33,1-4.54-2.21,1.56-2.59,4.95-3.37,7.37.27-.85-3.2-5.8-4.76-6-.41,0-.69.21-.74,1a.86.86,0,0,0,0,.16c.17.9,2.06,2.3,2.59,3.05,2.51,3.52,2.78,5.67,2.31,10-.15,1.4-.3,2.1-.7,2.52Z"/><path class="cls-12" d="M254.21,343.78c-2,2.18-5.37,2.17-8,2.86a26.86,26.86,0,0,0-8,4c-2.36,1.57-5.17,3.85-5.24,6.9-.07,3.24,3,4.08,5.59,2.9,2.32-1.06,3.27-3.33,4.35-5.48,2-4,6.92-8.84,11.77-9"/><path class="cls-12" d="M244.3,351.68c.07-.18.14-.35.2-.52-3,0-3.77,4.75-6.45,5.85h0c-1.18.47-3.85-.14-4.22,1.67-.27,1.38,1.56,2,2.77,2C240.81,360.5,243,355.08,244.3,351.68Z"/><g class="cls-2"><path class="cls-12" d="M299,325.5a5.85,5.85,0,0,0,1.09,1.9c2.33-1.47,3.75-4.12,5.82-5.94a31.51,31.51,0,0,1,6.79-4.44c7.54-3.78,21.59,0,25.94,7.39,4.73,8.06,1.08,20.3-4.55,26.92a71,71,0,0,1-9.54,9c-4.08,3.24-10.63,5.83-15.65,7.14-2.09.55-4,1.27-6.07,1.91-4.74,1.47-9.64,1.43-14.59,1.44-3,0-5.48-.75-8.4-1.31s-5.81-1-8.28-2.72c-3-2.05-4.66-5.37-8.84-3.37a12.63,12.63,0,0,0-6.3,7.71c-1.05,3.49,0,6.41.82,9.78.53,2.23,1.74,3.72,3.08,5.47,1,1.35,1.74,2.16,1,3.84a7,7,0,0,1-4.7,3.67c-2.06.53-3.28-.55-4.63-2-4-4.32-5.21-11.43-4.75-17.11a55.45,55.45,0,0,1,2.63-13.33c.51-1.37,1-2.8,1.57-4.13a18.67,18.67,0,0,1,3.65-4.86c2.73-3,7-3.5,10.94-3a2.11,2.11,0,0,0,2.07-.44,7.09,7.09,0,0,1,5.71-1.41c2.25.46,4.32,1.6,6.7,1.32,6.67-.79,9.28-8.16,10-13.89a30.54,30.54,0,0,0,0-9.35Z"/></g><path class="cls-12" d="M336.43,351.13a52.63,52.63,0,0,1-4,4.57c-5.23,5.28-12.6,9-19.48,11.58-10.85,4.11-23.69,6.69-35.11,3.8a16,16,0,0,1-5-2.49c-2.28-1.56-3.32-4.41-6.2-5.22-3.52-1-7.14,2.48-8.74,5.25-1,1.71-1,3.12-1.08,5-.12,2.35-.52,4.58,0,6.93s1.74,3.72,3.08,5.47c1,1.35,1.74,2.16,1,3.84a6.94,6.94,0,0,1-4.7,3.67c-2.06.53-3.28-.55-4.63-2-3.65-3.95-4.88-9.78-4.84-15,0-3.88-.34-8.11.61-11.88,1.42-5.7,4.18-12,10-14.41,2.91-1.18,5.22-1.13,8.32-1.09,2.21,0,2.05-.9,3.6-2.2,1-.84,2.14-.72,3.41-.72,2.41,0,4.9.33,7.25-.4s4.61-1.6,6.07-3.47c3.26-4.19,3.13-9.5,2.51-14.5-.69-5.63-1.46-11.45-1.72-17.14,0,0-1.09-22.12-3.43-31.15,0,0-8.91-60.44-8.91-73.83,0,0-3.58-33.79-1.4-44.69l-1.95-2s3-.54,1.48-3.66c0,0-4.67-7-7.16-9.5-1.15-.16-1.26-1.43-1.07-2.34.31-1.48,1.52-2.61,1.81-4a9.05,9.05,0,0,0-.28-3.23c-.4-2-1.22-4.81-3.29-5.74-4.25-1.92-10.78.29-14.81,1.8a11.37,11.37,0,0,0-3.69,2.14c-1,.9-1.16,2.19-2.49,2.6-.92.28-4.07.9-4.83.4,0,0-3.51-2.34-3.51-3.51-.44-1.09-.78-2.79-1.52-3.69-.9-1.1-1,.38-1.09,1.34-.19,1.26.19,4.43-.7,5.37-1.57,1.65-1.89-1.63-2-2.45-.24-2-.86-5.28-2.85-6.29-.57-.28,2.7-8.27,3.92-8.81a27.56,27.56,0,0,1,.56,4.49s.55,1,1.56,0a12.61,12.61,0,0,1,7-7,41.71,41.71,0,0,1,16.35-1.87s8.56,4.83,9.65,5.92c0,0,2.28.63,1.71-.83a4.61,4.61,0,0,0-.3-.57,10.15,10.15,0,0,1-1.43-2.7c-.13-.43-.11-1-.28-1.45-.68-2-2.37-2-4-2.49.08-.09.19-.15.27-.23-.55-1.85-2.5-2.79-3.82-4-3.15-2.89-5-5.94-9.29-7.26A19.16,19.16,0,0,0,231.87,103a25,25,0,0,0-8.37,7.71c-.7,1-.82,1.8-2.13,1.75s-2.34-.72-3.71-.57c.48-.05,2.15-3.4,2.58-3.91a19.46,19.46,0,0,0,2-2.75,37.1,37.1,0,0,1,5.3-6.8c3.27-3.34,7.33-6.61,11.87-8,1.9-.57,3.09.2,4.94.44,2.41.31,4.9-.47,7.26.27s4.7,1.66,7.28,1.5,3.33,1.27,4.63,3.25a18.35,18.35,0,0,1,1.92,3.57,21.23,21.23,0,0,0,.9,2.8c.78,1.41,2.7,2.21,4,3.19a44.14,44.14,0,0,1,3.94,3.55c2.65,2.61,4,5.14,4,8.88,0,3.11.2,6.23.32,9.34.19,5-.21,10.66,1.09,15.49l0,.08s2.41,26.86.78,28.49c0,0,13.11,122.42,14.83,128.65,1.8,6.58-.46,14.73,2.87,20.94,2.92,5.43,5.71-1.81,7.67-3.58,3.53-3.19,9.82-5.55,14.5-6,5.07-.46,10.76.66,14.91,3.7a18.08,18.08,0,0,1,5.82,7.29c2.38,5.47,1.79,11.35.8,17.19a21.39,21.39,0,0,1-4.94,11l-.49.63Zm-60,16c.21.12.41.23.62.33a15.77,15.77,0,0,0,7.4,1.65,63.41,63.41,0,0,0,12.89-1.3c2.21-.42,4.51-.68,6.69-1.21,5.51-1.32,11.79-4.51,16.87-7.09,8-4,15.55-10.18,17.08-19.32.89-5.36.22-13.08-3.31-17.37a19.6,19.6,0,0,0-6-4.91c-2.46-1.28-4.58-.95-7.14-1.4-5.44-1-12.92,4-16.59,7.34-1,.91-3.42,5.07-4.61,5.24-2.38.34-3.33-3.88-6.16-2.29-2.23,1.24-1.67,4.84-2.05,7-1.08,6.13-2.12,12.36-8,15.5-2.83,1.52-6.07.93-9,.12-2.1-.59-5.52-1.48-6.82.88a15.54,15.54,0,0,0-11.4,1.43c-2.86,1.65-4.62,4.4-5.86,7.4a41.89,41.89,0,0,0-2.8,16.3c0,3.12-.88,9.18,2.81,10.71,1.82.76,4.93-.75,5.27-2.67.22-1.25-.42-2.23-.76-3.35a20.2,20.2,0,0,1-.82-4.57,17.52,17.52,0,0,1,.51-5.11,11.47,11.47,0,0,1,4.47-6.85c2.29-1.85,6.15-3.79,9-1.93,2.55,1.68,4.94,4,7.64,5.47Z"/><path class="cls-12" d="M226,130.51c-1.43,1.18-1.73,4.33-1.53,6.05.11.89.81,3.82,2.08,3.79s1.06-4.33,1-5.18C227.3,133.23,226.73,131,226,130.51Z"/><path class="cls-12" d="M222.83,131c-1.42,1.18-1.73,3.85-1.52,5.57.1.89.81,3.82,2.08,3.79s1.06-4.33,1-5.18A7.64,7.64,0,0,0,222.83,131Z"/><path class="cls-12" d="M231,116.5c-2.08,1.47-2.3,2.83-2.2,5.16,0,.65-.54,3.57,1.84,3.29,2.79,0,2.09-3.64,2.21-4.41.19-1.17,0-4-2.1-3.84"/><path class="cls-12" d="M235.69,116.5c-2.65,1.47-2.92,2.83-2.79,5.16,0,.65,0,2.84,2.6,2.84,4.48,0,2.4-3.19,2.55-4,.24-1.17,0-4-2.67-3.84"/><path class="cls-12" d="M226.67,116.5c-1.77,1.47-1.95,2.83-1.87,5.16,0,.65.57,4.23,1.74,4.07,1-.13,1.61-4.42,1.72-5.19.16-1.17,0-4-1.79-3.84"/><path class="cls-12" d="M223,116.5c-1.78,1.47-2,2.83-1.88,5.16,0,.65.18,4.22,1.36,4.07,1-.13,2-4.42,2.1-5.19.16-1.17,0-4-1.79-3.84"/><path class="cls-12" d="M229.45,139.46c2.07.13,2.28-2.67,2.09-3.84-.12-.77.58-4.41-2.21-4.41-2.38-.27-1.81,2.64-1.84,3.3-.09,2.32.12,3.69,2.2,5.16"/><path class="cls-12" d="M234.11,139.46c2.64.13,2.91-2.67,2.67-3.84-.16-.77,1.93-4-2.56-4-2.62,0-2.56,2.18-2.6,2.84-.12,2.32.15,3.69,2.8,5.16"/><path class="cls-12" d="M231.5,130.3c-1.42,1.18-1.66,4.54-1.45,6.26.1.89.81,3.82,2.08,3.79s1.05-4.33,1-5.18c-.23-1.94-1.41-3.72-1.59-5.6"/><path class="cls-12" d="M231.09,116.5c-1.78,1.47-2,2.83-1.88,5.16,0,.65.18,4.22,1.36,4.07,1-.13,2-4.42,2.1-5.19.16-1.17,0-4-1.79-3.84"/><path class="cls-12" d="M238.32,137.25a4.79,4.79,0,0,0,1.07.22c1.21.11,2.67-.13,2.74-1.34.07-1.52-2.42-3.15-3.57-3.65s-3.64.05-4.44-.75c-1.19-1.21.8-3.89,1.66-4.85,1.63-1.81,4.34-3.64,6.87-3.53s4.78.46,7.42-.2a15.38,15.38,0,0,1,8.84,0,8.94,8.94,0,0,1,6.21,6.57c.29,1.57-.26,3.13.43,4.63.6,1.33,1.83,2.13,1.57,3.75-.32,1.93-1.56,3.6-2.38,5.33l-26.13-6"/><path class="cls-12" d="M237.64,130.06c.1.19.38.32.91.36-.28.54-.61,1.12-.94,1.65a1.39,1.39,0,0,0,.62.37c-.36-.08,1.17-1.5,1.34-1.59.67-.34,1.4-.28,2.07-.58,2.2-1,2-3.58-.63-2.93-.72.17-3.91,1.63-3.37,2.72Z"/><path class="cls-12" d="M253.44,380a1.77,1.77,0,0,1,.83,2.29,1.53,1.53,0,0,1-.67-2.46"/><path class="cls-12" d="M318.25,412.65c.64-.92,1.87-1,3-1.17,1.72-3.06,5.05-3.18,7.44-5.49,3.81-3.69,2.81-14.41-2.7-16.48-4.94-1.85-10.21,1.43-13.59,4.36-3.1,2.68-6.75,6.3-6.59,10.43a10,10,0,0,0-.29-2.41c-1.13.29-2.27,1.13-3.57,1.19a13.24,13.24,0,0,0,4.21-2,13.69,13.69,0,0,0,4-8.66c.14-2.91-1.69-4.9-4.9-5.49-8.11-1.5-12.27,5.73-19.51,5.88-2.76,0-5.24-1.06-8-1-3.35.14-6.31,1.69-9.28,2.9-2.56,1-6.1,2.57-8.9,1.49a27.68,27.68,0,0,1-3-1.43c-1.22-.67-2.55-1.48-2.95-2.78.7,1.69-1.12,3.09-2.86,3.34a19,19,0,0,1-6.05.37c1.93,3.11,4,6,7.94,7.32a28.84,28.84,0,0,0,8.18,1.46,30.51,30.51,0,0,0,4.68-.32,6.71,6.71,0,0,0,3.43-1c.7-.58.92-1.17,1.94-1.47a21.8,21.8,0,0,1,3.86-.58,19.14,19.14,0,0,1,4.28,0c1.72.21,3.28.89,5,1.19,1.32.24,2.61.37,3.92.7,1.06.26,3.54,1.37,4.41.41.44-.5.63-1.17,1.15-1.67s1.35-1.09,2-1.64a31,31,0,0,0,4.62-4.61c.78-1,.67-2.6.39-3.77.33.91.12,1.92.6,2.79.21-.59,2.68-.77,3.38-1.13a9.09,9.09,0,0,0-3.93,1.68c-1.45,1.26-2.39,3.12-3.71,4.49s-4.52,2.15-4.29,4.12c.12,1.09,1.23,1.29,2.28,1.83,1.69.87,3.39,1.71,5.09,2.56,2,1,7.1,2.47,9.07.93a49.58,49.58,0,0,0,3.63-3.62c3-2.94,7.07-5.46,8.88-9.21-.29,1.34-2.11,3.3-2.9,4.68a9.38,9.38,0,0,1,4.73-2.08c-4.23.84-6.18,2.74-8.93,5.4-1.32,1.28-2.46,2.7-3.73,4a21.59,21.59,0,0,0-2.19,2.08,2.91,2.91,0,0,0-.47,2c-.08,1.28-.83,2.06-1.28,3.24-.85,2.27,1.3,3.47,3.32,4.29,1.13.46,2.32.84,3.41,1.38a7.17,7.17,0,0,1,1.52.84c.61.63.25,1.39.45,2.13s1,1.62,1.17,2.53a4,4,0,0,1-.22,2.74c-.45.83-1.46,1.23-1.82,2,2.51,2,8.5,3.5,10.38.42a7.57,7.57,0,0,0,.78-3.33A31.37,31.37,0,0,0,326,424c-.08-1.1-.3-2.2-.43-3.29-.1-.81-.61-2.15-.39-2.92.13-.47,1-1,1.33-1.45.8-.91,1.47-1.91,2.37-2.76-1.55,1.2-3.4,3.08-3.33,5,.07,2.09.15,4.22.23,6.32a17.42,17.42,0,0,1-1.84,8.47c-1.3,2.62-4.26,5.28-3.55,8.32.24-2.81,1-6.29,3.35-8.37-.72.63-2.9.51-3.81.42a9.58,9.58,0,0,1-3.75-1.3c-2.22-1.23-3.81,0-4.73,1.95-.64,1.35-.26,3.09-.17,4.51s-.44,2.88.27,4.22,1.86,2.44,2.39,3.73c-.35-.61-.73-1.21-1.15-1.8-.26-.36-1.14-1.9-1.58-2s-.67.35-1,.62a30,30,0,0,1-3.78,2.47c1-1.24,2.63-2,3.85-3s.64-2.46.66-3.67a23.36,23.36,0,0,1,.9-5.41c.55-2,3.2-2.59,4.21-4.35a5.72,5.72,0,0,0,.82-3c-.09-.69-1.77-2.37-1.73-2.6.26-1.51-.93-2.76-2.4-3.35a4.78,4.78,0,0,0-4.37.51c-2.7,1.52-4,4.4-5.56,6.77a18.93,18.93,0,0,0-1.15,2.06c-.28.55-1.15,1.54-1.11,2.17,0,.39.5.89.71,1.24a11,11,0,0,1,1.07,2.18c-.15-.76-1.15-3.19-2.23-3.11,1.36-3.8,4.63-7,7-10.33a10.56,10.56,0,0,1,1-1.36c.18-.18.7-.43.79-.64.25-.68-1-.93-1.4-1.26a3.29,3.29,0,0,1-1-1.82c-.35-1.8,1.15-2.53,1.51-3.5.58-1.59,0-2.78-1.64-3.56a6,6,0,0,0-2.37-.55c-.54,0-.76.14-1.34-.08a40.23,40.23,0,0,1-4.34-2.21,41,41,0,0,0-4.74-1.94c-3-1.09-6-1.95-9.1-2.77s-6-1.82-9.21-1.56c-1.84.14-5.45.69-5.95,2.65-.19.77.89,1.59,1.1,2.32.65,2.23-1.68,3.93-3.18,5.36a16.64,16.64,0,0,0-4.08,5c.66.93,2.19,1,3.3,1.16a24.25,24.25,0,0,1,5.29,2c3.63,1.52,7.9,3.43,10.65,6.1a14.08,14.08,0,0,1,4.14-4.33c-3.21,3.38-5.26,4.54-2.59,8.9a9.37,9.37,0,0,0-5-6.75c-4.15-2.37-16.24-10.62-19-2.85,1.59-1.57,2.19-3.84,3.61-5.56s3.11-2.88,4.49-4.48c1.23-1.42,2.95-3.58,1.74-5.4s-3.61-1-5.44-.79c-6.65.9-11-.76-17.06-2.88-5.3-1.85-9.51-1.42-12.9,2.24-1.42,1.54-3.28,2.58-3.48,4.43-.19,1.65.35,3.28-.09,5.08a52.92,52.92,0,0,0-1.48,6.4c-.38,3.14,1.15,6,1,9.08-.11,2.14-1.43,4.37-1.09,6.5.19.06.38,0,.57.06.69,1.2-.09,2.34.41,3.73.92,2.54,3.7,7,6.7,8,2,.64,6.16,1.29,8,0,.93-.65,1.21-2,1.59-3a10.48,10.48,0,0,1,3.39-4.75c3.9-2.51,9.9,0,13.27-3.39.38-.37.75-.79,1.1-1.19a9.7,9.7,0,0,0-1.73,2.42l.08.08a23.38,23.38,0,0,1,4.81-.22c-1,.4-2.47.14-3.58.29-.81.11-1.56.16-2.36.21-1.29.08-2.48.61-3.74.72-1,.09-2.05,0-3.06.1-2.19.18-4.47.55-6,2.06-.8.78-1,2.68-1.51,3.64-.38.72-1.57,1.93-1.73,2.68-.87,4.15,5.09,8.67,8.72,10.07,4.74,1.84,6.32-1.5,9-4.21a41.19,41.19,0,0,1,11.82-8.22c1.7-.82,2.13-1.43,2.14-3.19a5.57,5.57,0,0,0,.29,1.91,18.36,18.36,0,0,1,2.14-.17c-2.73-.08-5.14,1.64-7.26,3-.7.44-3.11,1.62-1.89,2.49.78.57,1.74.4,2.65.54s2.15.52,3.19.78,5.38,1.21,3.69,2.69a8.67,8.67,0,0,1,3.51.28,5.49,5.49,0,0,1,1.81.32,8.3,8.3,0,0,1,.46-2,21.65,21.65,0,0,1,2.28-5c.46-.79,2.49-2.88,3.62-2.55-1.65.31-2.86,1.84-3.67,3.05,1.23-.2,2.32-.8,3.53-1,.94-.17,2-.1,2.9-.22a40.76,40.76,0,0,0-5.37,1.06c-.84.23-1.1.28-1.5,1a39.84,39.84,0,0,0-1.65,4,2.74,2.74,0,0,0-.45,1.54c.36,1.8,2.8,2.5,4.41,3.18,2.36,1,3.37,2.58,5,4.33,1.24,1.33,2.14,3.19,4.17,3.71s3.91-.72,5.79-1.19c-1.42.6-3.38.43-4.51,1.46-1.32,1.2-2.42,4-2,5.63.25-1.39,1.72-4.53.71-5.7-.49-.56-1.77-1-2.39-1.55-2.21-2-3.21-5-6.21-6.32-1.09-.48-2.31-.55-3.38-1-1.36-.6-1.38-2.24-2.92-2.67a27.42,27.42,0,0,0-4.86-.14,1.22,1.22,0,0,1,.93-.61c-.19-.5-1-1-1.55-1.22-2.71-1.24-7.48-2.29-10.49-1.53a9.16,9.16,0,0,0-4.57,3,32,32,0,0,0-3.2,4.28,1.6,1.6,0,0,0,.66,2.26,19.49,19.49,0,0,0,3,1.56c2.49,1.09,5.33.5,8,.8,1.41.15,2.64.05,3.87.78a14,14,0,0,1,3.05,3.14c-1.05-1.7-4.89-3.77-7.14-4-2.79-.35-5.38.07-8.15-.82-2.08-.67-7.36-3.78-9.27-1.41-.54.66-.63,2.59-.88,3.41-.44,1.47-1.35,3.32-1.07,4.85.48,2.68,4.64,5.17,7.11,6.46a16.25,16.25,0,0,0,3.74,1.17,22.58,22.58,0,0,0,3.57.72c1.69.18,3.41.14,5.1.25,1.37.1,2.71.34,4.07.44,1.73.13,3.54.28,5.27.29a11.94,11.94,0,0,0,1.79-.3,9.16,9.16,0,0,1,2.28,0c-1,.11-2.6-.12-3.52.31.83.51,1.49,1.23,2.33,1.73a15.52,15.52,0,0,0-2-1.38,4.23,4.23,0,0,0-1.73-.33c-2.32-.19-4.65-.55-7-.67a68.8,68.8,0,0,1-7.72-.87c-5.16-.86-10.89-2.64-13.24-7.26-1.21-2.37.92-5.11,1.28-7.45.46-3-2.61-5.34-5.69-5.92-1.3-.25-3.34-.85-4.67-.47s-2.5,1.87-3.54,2.55a9.7,9.7,0,0,0-2.82,2.21c-2.06,2.73-.26,5.25,3.12,5.68a7,7,0,0,0,6.74-4.17,6.47,6.47,0,0,1-2.81,3,2.73,2.73,0,0,0-1.6,1.86c-.91,2.22-1.86,4-2,6.48-.1,1.95.32,4.93,2,6.28,2.14,1.78,5.07.39,7.4,1a2.71,2.71,0,0,0,.22-.75c0-.06.07.49.07.62,0-.72-.57-1.43-.69-2.17,1.69,3.21,5.24,5.4,8.78,6.9s7.69,1.47,11.46,1.06a38.56,38.56,0,0,1,8,.05,30.3,30.3,0,0,0,9.32-.3c2.45-.51,6-1,6.33-3.8.25-1.78.37-4.37-.78-5.9-1-1.27-2.75-2-3.67-3.26-.6.52-1.32.16-2.16.33a16.2,16.2,0,0,1-2.75.75,25.45,25.45,0,0,1-9.24-2c-2.09-.79-4.29-1-6.35-1.86a48,48,0,0,0-4.41-2.12c-1.54-.5-3.12,0-4.65.27.84,0,1.66-.34,2.53-.36a7.17,7.17,0,0,1-.86-2c.41,2.47,3.32,2.25,5.29,3.12.61.27,1.14.64,1.74.94a16.33,16.33,0,0,0,3.62,1.1c1.17.28,2.36.47,3.5.82s1.93.84,2.91,1.23a13.26,13.26,0,0,0,4,.69,16,16,0,0,0,3.86-.35c1.09-.17,2.4-.36,2.83-1.39a4.89,4.89,0,0,0-.31-3.69c-1.3-3-3.8-7.07-7.26-8.41A9.72,9.72,0,0,1,279,457c-.91-.61-1-.51-2.19-.6-.83-.06-1.58-.26-2.4-.3s-1.83.16-2.8.17a5.4,5.4,0,0,1,4.08-.17c-.55-.57-.79-1.36-1.33-2a5.87,5.87,0,0,0,1.66,2.14c.55.29,1.41.06,2,.22,1.23.33,2,1.39,3.26,1.89a11.57,11.57,0,0,1,4.42,2.79,15.25,15.25,0,0,1,2,4.44,12.52,12.52,0,0,1,1.17,3.9,3.39,3.39,0,0,0,1.23,2.75,14.48,14.48,0,0,0,5.93,2.92,21.33,21.33,0,0,0,5.88.8c2,0,2.49,0,3.77-1.19a20.37,20.37,0,0,0,6.52-10.92,4.21,4.21,0,0,0-1.13-3.42c-1.08-1.28-3.35-1.21-4.79-2,0,0,.07-.15.06-.2-4-1.47-7.78-2.45-8.07-6.79A9,9,0,0,1,300,446c2.57-4-2.16-5.16-5.08-6.74-.83-.45-2-1.44-3.07-1.49-1.72-.09-3,1.36-4.66,1.47-1.85.13-4.19-.68-5.95-1.14a13.63,13.63,0,0,1-3.63-1.32c-1.14-.67-2-1.13-3.42-.54-1.75.74-1.95,2.87-3.86,4s-4,1.74-6,2.63-6.49,2.41-7.29,4.56a7.42,7.42,0,0,0,.15,5.27c-.78-2.08-.06-4-.15-6,0-.89-.29-.92-1.13-1.3-1.66-.75-3.34-1.05-4.5-2.49.88,1.23,3.61,2.52,5.25,2.82.95.18,2.82-.8,3.75-1.1a49.06,49.06,0,0,0,5.87-2.75c2.13-1,4.5-1.61,5.72-3.61.68-1.12,1.59-2,1.18-3.3a6.24,6.24,0,0,0-2.45-2.83,14.46,14.46,0,0,0-3.71-1.79c-1-.33-2.11-.44-3.13-.77s-1.68-.79-2.59-1.07a18,18,0,0,0-5.91-.52,15.18,15.18,0,0,0-2.78.2,4.42,4.42,0,0,1-2.61.16c-1.76-.65-2.51-2.82-2.58-4.32-.11-2.16.81-3.85,1.48-5.84a11.53,11.53,0,0,0,.88-4c0-1-.2-1-1.31-1.21a12.32,12.32,0,0,0-3-.15c-2.58.21-4,2.46-4.76,4.4a32.08,32.08,0,0,0-2.21,7.46,17.08,17.08,0,0,0,0,6.05c.37,1.9.22,3.6,2.84,3.34-.51-.13-1.15.16-1.74,0a28.77,28.77,0,0,0,2.54,4.93,18.7,18.7,0,0,1-4.11-9,18.09,18.09,0,0,1,1.11-7.71c1.07-2.92,1-7,4.41-8.71a2.74,2.74,0,0,1,1.36-.77c-4.11.34-8.9-.94-9.53-5.07a8.65,8.65,0,0,0,5,4.83c1.22.37,2.7.09,4,.23a21.55,21.55,0,0,0,2.43.1,19.71,19.71,0,0,0,4.86-.12,33.9,33.9,0,0,0,6.59-2.54c-2.33.76-4.47,2-6.74,2.86-1,.38-1.31.48-1.61,1.38a29.34,29.34,0,0,0-.66,3.36c-.24,1.08-.81,2-1.15,3.06-.68,2.12-.83,4.53.79,6.37,1.75,2,4.69.29,7.36.23,3.47-.07,5.69,1.31,8.68,2.39,1.83.66,4.18,1,5.77,2.07s2.09,2.58,3.92,3.44c3.74,1.76,8.37,3.62,12.65,3.44s5.58-4.1,6.33-7.32c.44-1.88.64-3.79.91-5.69s.95-3.37,1.11-5.15c.41-4.45-2.92-4.88-7.24-6.24-2.14-.68-5.62-2.33-7.87-2.3-1.32,0-3.57,1.14-5,1.36a46.33,46.33,0,0,1,4.64-1.63c-3-.94-2.34-2.55-4.14-4.48,2,6.12,12.82,5.24,17.38,8.36,4.32,3,2.1,7,1.42,11.53a34.06,34.06,0,0,1-1.76,7.28c-.85,2.14-1.48,2.32.34,3.81.92.75,2.28.84,3.37,1.35,2.12,1,4.76,2.73,3.93,5.22-.53,1.6-1.51,3-1.88,4.75-.91,4.33,3,7.7,7.39,8.74,2.11.49,4.71.94,6.84.3,3-.93,2.85-3.22,4.72-5.11a3.37,3.37,0,0,1-1.4-3c-.22,4.52,9.56-.83,11.09-1.72,3.68-2.13,4.16-5.47,6.14-8.72,1.68-2.76.36-3.79-.21-6.95-.6-3.34,1.11-6.5,1.67-9.75.78-4.52,1.73-14.76-5.18-15.87a8.2,8.2,0,0,0-6.37,2c-.9.83-1.23,1.92-2.39,2.51-1.72.89-3.66-.26-5.28.73,1.7-.29,3.41-.52,5.11-.81"/><path class="cls-12" d="M251.23,398.5a6.22,6.22,0,0,1-5.14-.94c-.91-.77-2.51-2.63-.63-3.28,1.34-.46,3.21.17,4.42-.59.37-.23.69-.72,1.12-1s.68-.48,1-.69c.17,0,.46,0,.64,0a8.92,8.92,0,0,1,1.84,2.74c.4,1.36-2,3.26-3.28,3.75Z"/><path class="cls-12" d="M259.76,390.57a10,10,0,0,0-1.91-3.05h-.66c-.36.23-.7.5-1.07.76s-.78.86-1.16,1.11c-1.25.84-3.2.15-4.59.66-2,.72-.29,2.79.65,3.64a6.08,6.08,0,0,0,5.34,1c1.34-.54,3.82-2.64,3.4-4.16Z"/><path class="cls-12" d="M215.05,472.58a13.35,13.35,0,0,0,1.68,1.29c2.76,1.82,6.26,1.52,8.81,3.7a12,12,0,0,1,4,6.9c.75,3.24,1.18,6.8,5.48,6.36.49-3-3.43-4.43-4.41-7.05-1.4-3.76.34-4.24,2.54-6.52,1.09-1.13,1.12-2.23,1.83-3.56.83-1.56,2.33-2.68,3.23-4.19a30.67,30.67,0,0,0,3.84-8.17,7.49,7.49,0,0,0-.84-5.71c-.16-.29-4.95-8.87-5.62-7.77a12.64,12.64,0,0,1-2,2c.48-.65,1.05-.82,1.43-1.5a7.2,7.2,0,0,0,.57-3.78c-.28-2.7-1.92-4.22-3.84-5.59a11.5,11.5,0,0,0-2.9,1.38c1-.59,2.47-1,3.08-1.94.78-1.15.74-3.37.63-4.69s-.74-3.71-2.11-4.18c-1.08-.36-2.49.87-3.38,1.29,2-.95,3.88-2,4.46-4.34.35-1.41.34-5.39-1.26-6.14,1-1.11,3.83-4.19,1.48-5.5,1.05-1.2,3.24-5.94,1.77-7.39,1.4-1.83,2.62-3.85,2.5-6.2a11.21,11.21,0,0,1,.08-2.89,16.52,16.52,0,0,1,1-2.69c-.86-1.09-1.83-2.27-2.81-3.34,3.62,3.94,6.55,5.18,12,4.15a17.86,17.86,0,0,1-2.66.67,10,10,0,0,0,9,3.46c.37-.05.43-.41.91-.35.71.08,1.76,1.13,2.37,1.47,1.62.91,5,2.65,6.81,1.41,1,2.16,5.92,1.46,7.73,1.28,2.29-.24,3.11-.48,4.6-2,.81.78,5.35.45,5.09-1.28.13.83,4.46-.15,4.92-.32a8.61,8.61,0,0,0,3.94-3.14c1.07,2.39,8.32.69,8.95-1.7,1.85.33,9.12.26,8.28-3.07,1.48,1,5,.92,6.53-.28.68-.55,1.23-2.35,1.92-2.67.91-.41,3.2.59,4.29.44a2.27,2.27,0,0,0,1.49-.59c.1-.09-.06-.58.07-.65.61-.4.81,0,1.93,0,4.3-.07,5-4,8.25-5.3,1.32-.51,3.75,1,5.6,1,4.23,0,6.18-2.22,7.68-5.73,8.72,5.05,9-8.43,3.94-12.62s-20.32-5.74-23.39,1.61a9.43,9.43,0,0,0-6.46-.06c-1.14.35-1.39,1.29-2.21,2a7.11,7.11,0,0,1-3.61,1.24c-2.09.39-3,1-3.54,3.12a7.54,7.54,0,0,0-2.68-.14c-.28.05-2.25.89-2.28.87a1.45,1.45,0,0,1,.81,1.17c-1.76-1.18-3.11-2.1-5.23-1.42-1.74.57-5,2.08-4.7,4.29-.46-.22-.78-.71-1.19-.9a6.76,6.76,0,0,0-3.73,0c-1.54.26-5.3.85-4.78,3.08-3.2-.12-7.52-2.25-10.48-.14a.38.38,0,0,0,0,.21,7.68,7.68,0,0,1,1.72,1.11L276,383c-2-.93-4-3-6.5-2.25-1.63.5-2.67,2.54-.81,3.33a63.39,63.39,0,0,1-9.12-2.94,13.88,13.88,0,0,0-6.56-.84c-1.95.08-3.75-.35-4.71-2.18-.82-1.55-.9-3.45-2.6-4.44s-6.06-.91-7.18.81c-.49-.88-3.26-2-4.35-2.34a8.39,8.39,0,0,0-6.31,1.08A9.68,9.68,0,0,0,223.5,378c-.49,1.21-1.43,3.15-.92,4.43-1.78.33-3.19,2.1-3.82,3.68-.38.94-.26,2.14-.63,3-.23.55-.27.44-.78.93-1.57,1.51-2.8,2.35-3.17,4.71-.14.89.16,2.19-.1,3-.36,1.15-1.59,1.84-1.91,3.17a12.16,12.16,0,0,0,0,2.56,5.88,5.88,0,0,1-.35,2.2c-.22.47-.81.8-1,1.29-.86,1.89-.46,7.9,2.34,7.91-2.6-1.47-4.16,2.38-3.5,4.45-2.42,0-3.27,4.87-3.13,6.59.17,2.2,2,5.62,4.72,5.31-5.18-3.24-6.13,5.14-5.54,8.56a20,20,0,0,0,1.61,4.44c.54,1.26.64,1.33.21,2.47-.8,2.12-1.19,3.63-.38,5.9.34.94,1.31,3.1,2.43,3.26-.33,6,.9,12.55,5.54,16.69Z"/><path class="cls-12" d="M209.49,449c2.22,3.08,6.07,5.19,9.81,3.43.27.17.52.71.72,1,.33-.08.55-.49.89-.47,2.39,5.3,10.06-3.13,11.68-6-4.82,6.58-15.27,1.84-10.05-5.38a.49.49,0,0,0,.28.45c3-.33,5.12-.8,7.72-3.56-6.5,4.62-10.81-1.4-9.42-7.64,3.68,1.29,7.69-1.18,9.09-4.64-6.23,6.69-11.56-1.77-7.87-7.33,2.24,1.84,6.22,1.26,8-.91-6.2,2.07-8.76-.71-7.14-6.51,1,.87,2.06.88,3.45.92-3.95-2-2.38-7.18-.78-10.22,1.65.84,2.77,2.11,4.61,1.7-1.9-1.35-3.5-3.23-2.52-5.69,1-.62,1.5-2.47,2.55-2.87,1.84-.71,3.08,1.24,4.64-.38-1.08-2.41-3.55-4.21-5.23-6.29-1.46-1.82-2.33-3.68-3.71-5.57-.09,4.91-1.05,9.7-6.4,4.59-.28,2.93,3.92,4.37,6.34,4.93-1.46,3.86-3.61,7.43-8.64,4.68,1.44,2,3.83,2.46,6.17,2.67-.32,4.11-4.17,7.51-8.28,6.82,1.58,1,4,1.87,5.82.59a3.75,3.75,0,0,1-.35,1.14.24.24,0,0,0,.3-.13c-1.15,3.4-.83,8-6,6.9a5.24,5.24,0,0,0,4.06.84c.12,5.31-.8,6.3-6,3.91,1.36,1.5,3.88,2.2,5.91,2.63-1.26,4.51-1.21,11.48-8.56,8.76,1.71,1.38,3.9,1.33,5.85.87a18.06,18.06,0,0,1,1.68,9c-3,.78-5.73,2.14-8.85.74,2.49,2.33,6.94-.1,8.69,1.25.58.44,1.36,6.64,1,7.35-2.17,3.69-7.38-1.54-10-3-.19,2.33,2.8,3.89,4.71,4.78"/><path class="cls-12" d="M227.78,387.45c-.44,5.35-3.17,10.35-4.65,15.46-2.78,9.58-4.43,18.56-4,28.58.45,11.34,1,31.74,11.53,39-6.55-10.43-8.31-22.57-9.09-34.76-.88-13.75.78-32.07,8.78-43.67.91.32,1.86.24,2.69.95-2.7-2.46-4.94-4.37-5.9-7.92a39.38,39.38,0,0,0,.45,4.32"/><path class="cls-12" d="M337.37,372.22c3.16.72,9.42,7.74,10.57.26-.44,2.84-.27,8.69-5.15,6.15-.45,5.71-4.72,3.47-8.58,4.32-1.51.34-2.82-.24-4.09.3-1.82.79-3,3.09-5,3.95-2.81,1.21-7.1,2.63-10,1.85-1.74,2.2-5.71,5.39-8.37,3.15-2.28,3.06-5.88,2.78-8.9,3.7-1.82.55-2.89,1.7-4.95,1.72-.33,0-4.39-.82-3.83-1.21-1.91,1.34-5.41,5.58-7.67,3.63-2.24,3.06-6.05,1.65-9.34,2.75-4.9,1.64-6.46.41-10.92-.77-1.45-.39-2.79,0-4.6-.82-1.36-.6-2.28-1.93-3.87-2.1-2.67-.28-6.54,2.81-7.67-2.12a15.12,15.12,0,0,1-7.64-1.34c-1.2-.56-4.47-4.58-4.93-4.65,2.86.42,5.72-2.79,8.28-3.59-1.29,1.24-3,2.48-3.69,4,1.32.48,3.26.33,4.49,1.1.78.49,1,2.33,2.38,2.93,3.53,1.57,6.73-2.8,8.83-5.47-.7,1.44-6,6.46-5.75,7.47,1,3.4,7.2-.2,8.58-.95,2.29,5.36,5.83,1.58,6.63-2.3,1.18-5.8-3.78-7.11-8.28-8.8a20.08,20.08,0,0,0-.31,2.47c-.37-4.13-11.5-3.75-11.29-5.39-.16,1.21-.65,2.39-.87,3.46a3.69,3.69,0,0,0-2.08-3.9c.4-2.28-1.46-5.19-2.42-7.46a22.86,22.86,0,0,1,3,3.27c-.18-.55-.16-1.2-.29-1.74,1.35,2,5.08,5.52,7.45,3.66-.24.58-.14,1.43-.45,2.08,2,2.39,3.72,1.54,4.18-1.16,1.21,1,9.18,7.82,8.65,2.59.37,3.58,6.76,4,9.18,3.78a7.59,7.59,0,0,0-.71-2.55c1.9,3,9.68,5.23,8.28-.6a6.22,6.22,0,0,1,1.19,2.7c-.25.35-.53.36-.83.64,1.6,1.34,4.44.19,6.71.3-2.07.51-4.24,2.48-6.29,1.37.38,1.19.82,2.44,1.25,3.61-1.5-4.24-4.63-2.94-8-2.67a18.31,18.31,0,0,0,1.3,3.26c-1.78-2.38-2.35-3-4.94-3.71-1.6-.43-2.15.58-3.89-.41.72,1.67,2.85,5.32.05,5.67a10.29,10.29,0,0,1-.67,4.16c1.36,2.68,11.06,3,11.81.08,1.48,1.22,3.25.4,4.58-.33a7.26,7.26,0,0,1,.43-1.43c3.62,2.48,8-.74,9.51-4,1.05,1.58,5,3.19,6.56,1.35s-.37-5.72-2-6.93c-1.34-1-2.4-.41-3.58-1.27s-2.44-3.1-3.11-3.78c2.76,2.5,12.47,4.56,8.4-1.87a12.23,12.23,0,0,0,2.66,3.22c2.71-1.59,7.89-1.21,7.25-5.77a7.35,7.35,0,0,0,.68,2.93c1.41-.51,2.89-1,4.35-1.52-3.47,1.83-7.15,3-10.55,4.76.67.57,1.2,1.41,1.89,1.9-3.14-2.45-5.73-1.56-9.07.06,2.43-1.18,4.11,4.7,5.17,5.61,1.61,1.39,8.43,2,5.82-1.25-.1-.64.11-1.59.06-2.19,3.39.53,6.38,4.3,9.24-.19.16.17.31.33.48.49a4.56,4.56,0,0,0-.53-4.12c2.71,3.66,6.74,5.14,6.75-1,1.5,6.8,8.78,2,9.93-2.28.27-.07,1.21-.34,1.71-.46,6.79,2.85,16.59-2.69,6.74-7.85-3.91-2.05-6,.36-9.68,1.85a9.23,9.23,0,0,1,.71,3.95c-1.59-5.49-6.76-2.5-10.49-.72.22.79.19,1.93.43,2.61a5.19,5.19,0,0,0-2.26-2.71c2.56-.87,12.5-4.7,7.17-8.5-2.73-1.93-7.72.68-7.45,4-1.52-3.71,2.44-5.57,5.54-5.92,2.22-.25,2.49.13,4.49-.49s3.41-2.92,5.63-1.71c-2.78.13-7.17,2.62-6.15,5.95"/><path class="cls-12" d="M237.67,375.62a15.08,15.08,0,0,0,2.57,1.13c0-.81.27-.75.35-1.12,1,6.5,10.83,7.55,15.77,8.73,10.45,2.51,21.64,3.7,32.2,1,12.45-3.13,25.94-6.77,37.53-12.37,2.18-1,4.72-1.92,6.75-3.06,2.54-1.43,4.37-4.25,7.25-5a33,33,0,0,1-2.65,4.13,17,17,0,0,1-4.38,2.84c-3.2,1.67-7,3.79-10.49,4.66-11.34,2.82-21.85,8.33-33.54,10.19-10.75,1.7-24.41,3.23-34.95-.16a71.28,71.28,0,0,1-9.4-3.41c-4.57-2.21-3.75-3.94-6.35-7.5"/><path class="cls-12" d="M275.18,107.57a35.3,35.3,0,0,1-5.79,1.78c-5.47,1.31-11.19,2-15.89,5.34a15.08,15.08,0,0,0,1.44.6c4.05-3.2,10.67-4.69,15.65-5.42,2.21-.32,5.94-1,8,.29,3.33,2.14,1.54,5.66,1.25,9-.16,1.85-1.27,6.39,1.24,7.27,1.79.63,4.24-1.44,5.48-2.5,1.63-1.39,3.5-2.64,4.59-4.53a46.06,46.06,0,0,0,2.08-5.14c1.24-2.83,4-6.09.62-8.75-2.11-1.68-6.16-3.23-8.91-2.87a10.09,10.09,0,0,0-4.78,1.86,22,22,0,0,1-5,3.08Z"/><path class="cls-12" d="M285.31,115a6,6,0,0,1-1.41.49c.09.07.32.3.44.42-1.25,0-1.77,1.4-.51,1.83,0,.18-.18.27-.08.47a1.58,1.58,0,0,0,1.92-.45,5.34,5.34,0,0,0,.18.62c-.81.21-.86.19-.49,1-1,.36-1.72,1.45-1,2.33.19-.21.66-.44.9-.74a1.92,1.92,0,0,0,.1.7c1.25-1,1.77-2.45,2.45-3.75-.16-.15-.31-.06-.43-.14.46-.34.33-.58.6-1a2.23,2.23,0,0,0-.93-.34s.25-.31.23-.44c-.19-.09-.4,0-.56-.15a3,3,0,0,1,1.38-1.5,2.1,2.1,0,0,0-.43,0,1.85,1.85,0,0,0,1.13-1c.65.71,1.32.73,1.32-.41.88.11.27.09,1-.5.76-.06.94-.35.63-1.19-.17,0-.29.1-.36.09s.22-.34.17-.45c-.24-.07-.49-.08-.74-.14,2.3.55,1.39-3.24,1.13-3.93s.29-1-.56-1.63-2.05-.12-2.89-.2c2.81.26,6.65,0,6.21,4.12-.27,2.4-1.81,4.62-2.81,6.69-.08-.16-.17-.34-.27-.51s-.26.22-.35.17-.14-.34-.21-.43c-.49.38-.6.26-.7.82-.66.32-.5.4-.72,1a10.16,10.16,0,0,0,1.56,0c-.46.3-.38.64-.62.93,1.78,1.47-2.64,5.11-3.56,5.83-1.53,1.2-7.11,4.69-7.27.18a8.45,8.45,0,0,0,.66.75c-.23-.29,1.79-.47,1.87-.47,0-.89-.79-2.11-1.84-1.59.13-1.13,1.6-2.41-.07-3.06a25.63,25.63,0,0,1,1.34-4.58.26.26,0,0,0,.31,0c.61-.31-2.33-7.65-5.2-6.26a15.39,15.39,0,0,1,1.42-1.22,3.72,3.72,0,0,0,1.43-.59c-1.65,1.23.43,2.1,1.52,1.38a2,2,0,0,1-.43,0,7.19,7.19,0,0,1,1.41.38,1.6,1.6,0,0,0-.13,2c-.11-.14-.36-.35-.44-.44a1.59,1.59,0,0,0,.77,2.33l.33-.31c-1.23,1,1.17,1.52,1.73,1.35a2.75,2.75,0,0,0,.82,1.61Z"/><path class="cls-12" d="M238.4,129.66c1.32.86,4.94.38,4.08-1.81-.74.33-1.92.48-1.62,1.49a10.62,10.62,0,0,1-2,.18.31.31,0,0,0,0,.47"/><path class="cls-12" d="M236.74,142.23a2,2,0,0,0,.18.26c1.07,1.25,3.23-.24,4.54.37a6.26,6.26,0,0,1,1.23.94c.91.78,3,1.65,3.51,2.71.74,1.46-1.43,2.07-1.1,3.62.48,2.3,4.59,2.46,6.38,2.63,2.45.24,6.26.48,7.84-1.88,1.73-2.57.92-5.39-2.26-5.72-2.6-.27-5.11.87-7.69.72-1.61-.1-5.2-2.63-6.13-3.93,1.15-.6,4.19-2.08,1.55-2.94-2.21-.71-4.53.71-6.78.13-.65-.17-4-3.62-3.79-3.71.07,0,.15,0,.21,0a6,6,0,0,1-1.2-1.22c-.82,2.31,1.51,3.13,2.77,4.47s0,2.27.74,3.56Z"/><path class="cls-12" d="M248.88,149.91c-.15-.16-.19-.46-.08-.95-.29,0-1.54,0-1.69.23a5.16,5.16,0,0,0,.42-1.73c.05-.28-1.53,1-1.68,1.33a3.29,3.29,0,0,0-.28,1.78c.37,1,1.58,1.32,2.54,1.57a15.56,15.56,0,0,0,7.7.06c1.56-.49,3.06-1,3.54-2.79.4-1.51-.32-4.19-2.33-3.76.65.51,1.28,1.3.53,1.95,1,.28.82,2.44-.39,1.7-.43.63-.37.38-.82.67a4.21,4.21,0,0,1-.36.74c-1.38.47-3.29-1-4.41-.51a4.46,4.46,0,0,1,.79-.44c.72.55,1.22-.34,1.28-1-1-.48-4.06,1.84-4.76,1.11Z"/></g></g></g></g></svg>