<svg xmlns="http://www.w3.org/2000/svg" viewBox="0 0 150 150"><defs><style>.cls-1{isolation:isolate;}.cls-2{fill:#002451;opacity:0.27;}.cls-3{fill:#fff2cc;}.cls-4{fill:#29abe2;}.cls-5,.cls-7{opacity:0.2;}.cls-5{mix-blend-mode:multiply;}.cls-6{fill:#fff;}.cls-8{fill:#000f56;}.cls-9{fill:#493532;}.cls-10{fill:#5f524f;}.cls-11{fill:#1b2528;}.cls-12{fill:#3e4649;}.cls-13{fill:#2c2b2d;}.cls-14{fill:#847f78;}.cls-15,.cls-16{fill:none;stroke:#1e134d;stroke-linecap:round;}.cls-15{stroke-linejoin:round;}.cls-16{stroke-miterlimit:10;}</style></defs><title>lab02-</title><g class="cls-1"><g id="Layer_1" data-name="Layer 1"><rect class="cls-2" x="18.06" y="13.19" width="120.09" height="120.09" rx="36.12" ry="36.12"/><rect class="cls-3" x="14.96" y="10.09" width="120.09" height="120.09" rx="36.12" ry="36.12"/><path class="cls-4" d="M134.57,99.89H121.63A17.11,17.11,0,0,0,104.51,117v12.74A36.14,36.14,0,0,0,134.57,99.89Z"/><g class="cls-5"><rect x="116.92" y="108.39" width="1.38" height="10.82"/><polygon points="117.58 104.28 114.79 109.11 120.36 109.11 117.58 104.28"/><polygon points="117.61 123.23 120.4 118.4 114.83 118.4 117.61 123.23"/><rect x="112.2" y="113.11" width="10.82" height="1.38"/><polygon points="108.12 113.77 112.95 116.56 112.95 110.99 108.12 113.77"/><polygon points="127.07 113.74 122.24 110.95 122.24 116.53 127.07 113.74"/></g><rect class="cls-6" x="115.92" y="107.39" width="1.38" height="10.82"/><polygon class="cls-6" points="116.58 103.28 113.79 108.11 119.36 108.11 116.58 103.28"/><polygon class="cls-6" points="116.61 122.23 119.4 117.4 113.83 117.4 116.61 122.23"/><rect class="cls-6" x="111.2" y="112.11" width="10.82" height="1.38"/><polygon class="cls-6" points="107.12 112.77 111.95 115.56 111.95 109.99 107.12 112.77"/><polygon class="cls-6" points="126.07 112.74 121.24 109.95 121.24 115.53 126.07 112.74"/><g class="cls-7"><path class="cls-8" d="M52.36,35.92a4,4,0,0,1-2.16-7.36,4.23,4.23,0,0,1,4.21-.23,4,4,0,0,1-1.66,7.58Zm.14,0Zm0,0Zm0,0Zm0-3.77-1.68,3.35a3.78,3.78,0,0,0,3.7-.2Z"/><path class="cls-8" d="M73.05,127.41a4.82,4.82,0,0,1-4-2.36c-2.85-4.61-.52-8.85,1-11.65.6-1.09,1.42-2.57,1.37-3.19-.33-4.16-1.49-5.94-4-9.83l-.73-1.13c-.1-.12-.6-.61-1-1s-.51-.49-.77-.76c-.78.74-1.93,1.83-2.21,2.21-1.28,1.81-2,5.35-2.72,8.77-.27,1.3-.54,2.61-.85,3.91-.57,2.39.18,4.69,1.87,8.36a4.51,4.51,0,0,1-1.68,6.12,4.6,4.6,0,0,1-6.11-1.84,3.37,3.37,0,0,1-.19-.32l-.68-1.26a17.91,17.91,0,0,1-2.65-8.77,28.36,28.36,0,0,1,.9-8.08c.63-3,1.23-5.85.25-7.37-.1-.12-.61-.61-1-1a16.89,16.89,0,0,1-3.61-4.47,10.78,10.78,0,0,1-1-7.37l-1,.23-1,.23a30.32,30.32,0,0,0-6,2.2,7,7,0,0,1-2.63.82,5,5,0,0,1-5-2.83,4.59,4.59,0,0,1-.22-3.28,5.31,5.31,0,0,1,.29-1.88A6.36,6.36,0,0,1,31.94,79a14.15,14.15,0,0,1,5.61-2.3c.57-.14,1.1-.26,1.56-.41a4.28,4.28,0,0,0,1.77-1,1,1,0,0,0,.28-.5,3.84,3.84,0,0,0-.51-1c-.18-.29-.43-.64-.7-1l-.42.14-1,.32-2.07.79a4.08,4.08,0,0,1-2.56.09c-2.15-.64-4-2.79-3.24-6.15l0-.13-1.6.41c-3.16.79-7.94,2-9,3-3,3-6.67,2.69-8.81.87-1.9-1.4-3.7-4.17-2.26-9.55C9.91,59.51,11,54.78,11.6,51.9A26,26,0,0,1,12.36,49a10.1,10.1,0,0,1-2.16-3.36,4.13,4.13,0,0,1-.12-2.48c-.34-.92-.68-1.83-1-2.74a4,4,0,0,1,1.52-4.76,3.91,3.91,0,0,1,.44-.26,18,18,0,0,1,1.52-2.72,4,4,0,0,1,3.8-1.7h0A5.24,5.24,0,0,1,19,30.31a4.13,4.13,0,0,1,1.14-.89A9,9,0,0,1,21.33,28a3.73,3.73,0,0,1,.36-.32,4,4,0,0,1,2.69-.84,8.21,8.21,0,0,1,1.7-.54,4,4,0,0,1,1.85.06,19.58,19.58,0,0,1,3.42-.21,4,4,0,0,1,3.17,1.68c.08.12.16.25.23.38a4,4,0,0,1,1.82,2.45,8.55,8.55,0,0,1,1.2,1.94,1.42,1.42,0,0,1,.08.18c.71-.39,1.43-.82,2.18-1.26s1.31-.78,2-1.15a4,4,0,0,1,3.24-.32c.4-.15.82-.34,1.25-.53a14.56,14.56,0,0,1,5.82-1.6h.06a4,4,0,0,1,2.12.61,50.34,50.34,0,0,1,5.16-.6,4.07,4.07,0,0,1,2.43.64l2,.07a5.57,5.57,0,0,1,1.68.3c1.75.11,3.36.24,4.7.35.93.08,1.73.15,2.36.19,2.31.14,4.27.24,6,.32a113.9,113.9,0,0,1,18.28,2,45.77,45.77,0,0,1,13,5.29,16.25,16.25,0,0,1,6.34,7.28c.57.37,1.14.77,1.71,1.17a29.8,29.8,0,0,0,4.47,1.83,71.93,71.93,0,0,1,10.22,4.39c7.24,4,10.37,12.86,7.43,21.13-2.15,6-7.14,10.1-19.09,15.55-3.46,1.57-6.25,4.36-8.8,7.07-3.55,3.77-6.63,1.39-7,1.11-1.69-1.41-2.41-4.18-.19-7.2,3.91-5.31,8.49-7.94,13.35-10.72,1.8-1,3.67-2.1,5.56-3.35,3.52-2.33,5.51-5.3,5.46-8.15a5.81,5.81,0,0,0-3-4.91,20.93,20.93,0,0,0-7.7-3.06,11.89,11.89,0,0,1,1.9,7.62.51.51,0,0,0,0,.13,14.63,14.63,0,0,1-3,7.11c-.59.78-1.19,1.5-1.77,2.2a26.93,26.93,0,0,0-2,2.5,12.77,12.77,0,0,1-.64,1.12,6.71,6.71,0,0,1-1.71,2.24,5.12,5.12,0,0,1-2.29,1.06,7.67,7.67,0,0,1-1.77.45l-.13,0c-.35,0-.67.06-1,.07l-.47.13a4.11,4.11,0,0,1-1,.09,6.18,6.18,0,0,1-2.5,2l-.35.12a9,9,0,0,1,0,1,12.64,12.64,0,0,1-1.81,6.08,23.46,23.46,0,0,1-4,4.33c-.78.74-2,1.85-2.25,2.24-1.28,1.81-2,5.35-2.72,8.77-.27,1.3-.54,2.61-.85,3.91-.57,2.39.18,4.69,1.87,8.36a4.53,4.53,0,0,1-1.68,6.12,4.6,4.6,0,0,1-6.11-1.84,3.37,3.37,0,0,1-.19-.32l-.68-1.26a20.14,20.14,0,0,1-2.6-12c0,.21-.08.43-.13.66A24.5,24.5,0,0,1,78.53,118,22.32,22.32,0,0,0,77,121.2a4.48,4.48,0,0,1-1.81,5.66A4.23,4.23,0,0,1,73.05,127.41Zm5.62-27.89a17.83,17.83,0,0,0,.93,2.75c.91,2.29,2,5.06,1.78,8.14.18-1.28.45-2.54.71-3.79.63-3,1.23-5.85.25-7.37-.1-.12-.61-.61-1-1s-.47-.46-.71-.71C80,98.2,79.1,99.05,78.67,99.52Zm-25.56-10a6.19,6.19,0,0,0,.3.79,13.92,13.92,0,0,0,2,2.24A20.28,20.28,0,0,1,57,94.13c.67-.74,1.53-1.55,2.47-2.44A33.26,33.26,0,0,0,62.05,89a4,4,0,0,1,6.81.54l.37.74a13,13,0,0,0,2,2.24c.57.55,1.09,1.06,1.53,1.58.67-.74,1.52-1.55,2.46-2.45A31.66,31.66,0,0,0,77.85,89a4,4,0,0,1,6.93.91c0,.12.1.24.16.36a13.35,13.35,0,0,0,2,2.24,20.28,20.28,0,0,1,1.53,1.58c.67-.74,1.53-1.55,2.47-2.45A32,32,0,0,0,93.58,89a4.21,4.21,0,0,0,.31-.64,4,4,0,0,1-1.09-3.88,15.53,15.53,0,0,0,.39-2,3.86,3.86,0,0,1,.39-1.29,3.71,3.71,0,0,1-.27-1.33,16.57,16.57,0,0,0-.65-4.13,6.81,6.81,0,0,1-.18-4,6.37,6.37,0,0,1,1.18-2.19,4,4,0,0,1,5.54-2.91,12.78,12.78,0,0,0,3,.9c3.26.55,5.17,2.09,5.69,4.56A5.75,5.75,0,0,1,108,73.6c.63-.87,1.29-1.65,1.94-2.42s1-1.24,1.48-1.84a7,7,0,0,0,1.51-3.22,1.09,1.09,0,0,1,0-.26.74.74,0,0,1,0-.12c.07-.92-.81-2.35-1.52-3.5a13.89,13.89,0,0,1-1.6-3.14c0-.12-.07-.25-.1-.37s-.09-.42-.12-.63,0-.6,0-.89,0-.42,0-.58l.19-1.59a4,4,0,0,1,3.11-3.46c-.59-.4-1.18-.78-1.74-1.12a4,4,0,0,1-1.79-2.34c-.33-1.2-1-2.57-3.69-4.41a39.49,39.49,0,0,0-10-4,105.81,105.81,0,0,0-17.2-1.91c-1.81-.09-3.8-.18-6.15-.33-.67,0-1.53-.11-2.53-.2-1.51-.12-3.39-.28-5.37-.39a3.91,3.91,0,0,1-1.22-.26l-4.58-.14a4,4,0,0,1-1.33-.28c-1,.14-2,.31-3,.52a5.41,5.41,0,0,1-3.56-.31c-.32.13-.64.28-1,.43a18.53,18.53,0,0,1-4,1.41,5.28,5.28,0,0,1-1.46.08l-.14.08c-1.28.76-2.61,1.55-4,2.26l-.25.11c-.47.2-.95.4-1.45.63l-.05,0a3.88,3.88,0,0,1-.58.28,19.34,19.34,0,0,1-2.34.74,4,4,0,0,1-4-1.25A4,4,0,0,1,30.73,37c0-.09.13-.3-.26-1.17a1.43,1.43,0,0,0-.47-.5,4.23,4.23,0,0,1-.78-.74,4.68,4.68,0,0,1-.55-.29l-.82.17a3.56,3.56,0,0,1-.91.12l-.36.21A4.07,4.07,0,0,1,26.12,36c0,.31.05.62.09.92a4,4,0,0,1-6.91,3.22l-.27-.3a8.25,8.25,0,0,0-.69-.66l-.15-.06-.07,0a8.45,8.45,0,0,0-.32,1.12c0,.13-.07.27-.11.4l.37,1a5.34,5.34,0,0,1,.37,2.07,7,7,0,0,0,.79.61l0,0a4,4,0,0,1,1.51,5,19.18,19.18,0,0,0-1.3,4c-.56,2.77-1.58,7.15-2.42,10.39,2.64-1.42,6.19-2.31,10.14-3.3l1.63-.41a14.11,14.11,0,0,1,10.07,1.23,4.32,4.32,0,0,1,2.24,2.56c0,.12.07.24.1.37h0a4.1,4.1,0,0,1,3.2,1.38,32.29,32.29,0,0,1,3,3.9A10.23,10.23,0,0,1,49.11,74a8,8,0,0,1,0,2.13,3.94,3.94,0,0,1,2,.29,4,4,0,0,1,2.45,3.42,32.71,32.71,0,0,0,1,5.6,4,4,0,0,1-1.32,4ZM99.9,87.86Zm8.71-12.52h0Zm-7.73-2.23,3.08.36-3.08-.36ZM16.66,66.24h0Zm96.27-.44v0ZM17.05,47.73h0Zm1.25-8.59Zm36.26-3.87Zm-6.65-.7Zm0,0ZM32.25,27.23h0Z"/></g><path class="cls-6" d="M52.36,33.92a4,4,0,0,1-2.16-7.36,4.23,4.23,0,0,1,4.21-.23,4,4,0,0,1-1.66,7.58Zm.14,0Zm0,0Zm0,0Zm0-3.77-1.68,3.35a3.78,3.78,0,0,0,3.7-.2Z"/><path class="cls-6" d="M73.05,125.41a4.82,4.82,0,0,1-4-2.36c-2.85-4.61-.52-8.85,1-11.65.6-1.09,1.42-2.57,1.37-3.19-.33-4.16-1.49-5.94-4-9.83l-.73-1.13c-.1-.12-.6-.61-1-1s-.51-.49-.77-.76c-.78.74-1.93,1.83-2.21,2.21-1.28,1.81-2,5.35-2.72,8.77-.27,1.3-.54,2.61-.85,3.91-.57,2.39.18,4.69,1.87,8.36a4.51,4.51,0,0,1-1.68,6.12,4.6,4.6,0,0,1-6.11-1.84,3.37,3.37,0,0,1-.19-.32l-.68-1.26a17.91,17.91,0,0,1-2.65-8.77,28.36,28.36,0,0,1,.9-8.08c.63-3,1.23-5.85.25-7.37-.1-.12-.61-.61-1-1a16.89,16.89,0,0,1-3.61-4.47,10.78,10.78,0,0,1-1-7.37l-1,.23-1,.23a30.32,30.32,0,0,0-6,2.2,7,7,0,0,1-2.63.82,5,5,0,0,1-5-2.83,4.59,4.59,0,0,1-.22-3.28,5.31,5.31,0,0,1,.29-1.88A6.36,6.36,0,0,1,31.94,77a14.15,14.15,0,0,1,5.61-2.3c.57-.14,1.1-.26,1.56-.41a4.28,4.28,0,0,0,1.77-1,1,1,0,0,0,.28-.5,3.84,3.84,0,0,0-.51-1c-.18-.29-.43-.64-.7-1l-.42.14-1,.32-2.07.79a4.08,4.08,0,0,1-2.56.09c-2.15-.64-4-2.79-3.24-6.15l0-.13-1.6.41c-3.16.79-7.94,2-9,3-3,3-6.67,2.69-8.81.87-1.9-1.4-3.7-4.17-2.26-9.55C9.91,57.51,11,52.78,11.6,49.9A26,26,0,0,1,12.36,47a10.1,10.1,0,0,1-2.16-3.36,4.13,4.13,0,0,1-.12-2.48c-.34-.92-.68-1.83-1-2.74a4,4,0,0,1,1.52-4.76,3.91,3.91,0,0,1,.44-.26,18,18,0,0,1,1.52-2.72,4,4,0,0,1,3.8-1.7h0A5.24,5.24,0,0,1,19,28.31a4.13,4.13,0,0,1,1.14-.89A9,9,0,0,1,21.33,26a3.73,3.73,0,0,1,.36-.32,4,4,0,0,1,2.69-.84,8.21,8.21,0,0,1,1.7-.54,4,4,0,0,1,1.85.06,19.58,19.58,0,0,1,3.42-.21,4,4,0,0,1,3.17,1.68c.08.12.16.25.23.38a4,4,0,0,1,1.82,2.45,8.55,8.55,0,0,1,1.2,1.94,1.42,1.42,0,0,1,.08.18c.71-.39,1.43-.82,2.18-1.26s1.31-.78,2-1.15a4,4,0,0,1,3.24-.32c.4-.15.82-.34,1.25-.53a14.56,14.56,0,0,1,5.82-1.6h.06a4,4,0,0,1,2.12.61,50.34,50.34,0,0,1,5.16-.6,4.07,4.07,0,0,1,2.43.64l2,.07a5.57,5.57,0,0,1,1.68.3c1.75.11,3.36.24,4.7.35.93.08,1.73.15,2.36.19,2.31.14,4.27.24,6,.32a113.9,113.9,0,0,1,18.28,2,45.77,45.77,0,0,1,13,5.29,16.25,16.25,0,0,1,6.34,7.28c.57.37,1.14.77,1.71,1.17a29.8,29.8,0,0,0,4.47,1.83,71.93,71.93,0,0,1,10.22,4.39c7.24,4,10.37,12.86,7.43,21.13-2.15,6-7.14,10.1-19.09,15.55-3.46,1.57-6.25,4.36-8.8,7.07-3.55,3.77-6.63,1.39-7,1.11-1.69-1.41-2.41-4.18-.19-7.2,3.91-5.31,8.49-7.94,13.35-10.72,1.8-1,3.67-2.1,5.56-3.35,3.52-2.33,5.51-5.3,5.46-8.15a5.81,5.81,0,0,0-3-4.91,20.93,20.93,0,0,0-7.7-3.06,11.89,11.89,0,0,1,1.9,7.62.51.51,0,0,0,0,.13,14.63,14.63,0,0,1-3,7.11c-.59.78-1.19,1.5-1.77,2.2a26.93,26.93,0,0,0-2,2.5,12.77,12.77,0,0,1-.64,1.12,6.71,6.71,0,0,1-1.71,2.24,5.12,5.12,0,0,1-2.29,1.06,7.67,7.67,0,0,1-1.77.45l-.13,0c-.35,0-.67.06-1,.07l-.47.13a4.11,4.11,0,0,1-1,.09,6.18,6.18,0,0,1-2.5,2l-.35.12a9,9,0,0,1,0,1,12.64,12.64,0,0,1-1.81,6.08,23.46,23.46,0,0,1-4,4.33c-.78.74-2,1.85-2.25,2.24-1.28,1.81-2,5.35-2.72,8.77-.27,1.3-.54,2.61-.85,3.91-.57,2.39.18,4.69,1.87,8.36a4.53,4.53,0,0,1-1.68,6.12,4.6,4.6,0,0,1-6.11-1.84,3.37,3.37,0,0,1-.19-.32l-.68-1.26a20.14,20.14,0,0,1-2.6-12c0,.21-.08.43-.13.66A24.5,24.5,0,0,1,78.53,116,22.32,22.32,0,0,0,77,119.2a4.48,4.48,0,0,1-1.81,5.66A4.23,4.23,0,0,1,73.05,125.41Zm5.62-27.89a17.83,17.83,0,0,0,.93,2.75c.91,2.29,2,5.06,1.78,8.14.18-1.28.45-2.54.71-3.79.63-3,1.23-5.85.25-7.37-.1-.12-.61-.61-1-1s-.47-.46-.71-.71C80,96.2,79.1,97.05,78.67,97.52Zm-25.56-10a6.19,6.19,0,0,0,.3.79,13.92,13.92,0,0,0,2,2.24A20.28,20.28,0,0,1,57,92.13c.67-.74,1.53-1.55,2.47-2.44A33.26,33.26,0,0,0,62.05,87a4,4,0,0,1,6.81.54l.37.74a13,13,0,0,0,2,2.24c.57.55,1.09,1.06,1.53,1.58.67-.74,1.52-1.55,2.46-2.45A31.66,31.66,0,0,0,77.85,87a4,4,0,0,1,6.93.91c0,.12.1.24.16.36a13.35,13.35,0,0,0,2,2.24,20.28,20.28,0,0,1,1.53,1.58c.67-.74,1.53-1.55,2.47-2.45A32,32,0,0,0,93.58,87a4.21,4.21,0,0,0,.31-.64,4,4,0,0,1-1.09-3.88,15.53,15.53,0,0,0,.39-2,3.86,3.86,0,0,1,.39-1.29,3.71,3.71,0,0,1-.27-1.33,16.57,16.57,0,0,0-.65-4.13,6.81,6.81,0,0,1-.18-4,6.37,6.37,0,0,1,1.18-2.19,4,4,0,0,1,5.54-2.91,12.78,12.78,0,0,0,3,.9c3.26.55,5.17,2.09,5.69,4.56A5.75,5.75,0,0,1,108,71.6c.63-.87,1.29-1.65,1.94-2.42s1-1.24,1.48-1.84a7,7,0,0,0,1.51-3.22,1.09,1.09,0,0,1,0-.26.74.74,0,0,1,0-.12c.07-.92-.81-2.35-1.52-3.5a13.89,13.89,0,0,1-1.6-3.14c0-.12-.07-.25-.1-.37s-.09-.42-.12-.63,0-.6,0-.89,0-.42,0-.58l.19-1.59a4,4,0,0,1,3.11-3.46c-.59-.4-1.18-.78-1.74-1.12a4,4,0,0,1-1.79-2.34c-.33-1.2-1-2.57-3.69-4.41a39.49,39.49,0,0,0-10-4,105.81,105.81,0,0,0-17.2-1.91c-1.81-.09-3.8-.18-6.15-.33-.67,0-1.53-.11-2.53-.2-1.51-.12-3.39-.28-5.37-.39a3.91,3.91,0,0,1-1.22-.26l-4.58-.14a4,4,0,0,1-1.33-.28c-1,.14-2,.31-3,.52a5.41,5.41,0,0,1-3.56-.31c-.32.13-.64.28-1,.43a18.53,18.53,0,0,1-4,1.41,5.28,5.28,0,0,1-1.46.08l-.14.08c-1.28.76-2.61,1.55-4,2.26l-.25.11c-.47.2-.95.4-1.45.63l-.05,0a3.88,3.88,0,0,1-.58.28,19.34,19.34,0,0,1-2.34.74,4,4,0,0,1-4-1.25A4,4,0,0,1,30.73,35c0-.09.13-.3-.26-1.17a1.43,1.43,0,0,0-.47-.5,4.23,4.23,0,0,1-.78-.74,4.68,4.68,0,0,1-.55-.29l-.82.17a3.56,3.56,0,0,1-.91.12l-.36.21A4.07,4.07,0,0,1,26.12,34c0,.31.05.62.09.92a4,4,0,0,1-6.91,3.22l-.27-.3a8.25,8.25,0,0,0-.69-.66l-.15-.06-.07,0a8.45,8.45,0,0,0-.32,1.12c0,.13-.07.27-.11.4l.37,1a5.34,5.34,0,0,1,.37,2.07,7,7,0,0,0,.79.61l0,0a4,4,0,0,1,1.51,5,19.18,19.18,0,0,0-1.3,4c-.56,2.77-1.58,7.15-2.42,10.39,2.64-1.42,6.19-2.31,10.14-3.3l1.63-.41a14.11,14.11,0,0,1,10.07,1.23,4.32,4.32,0,0,1,2.24,2.56c0,.12.07.24.1.37h0a4.1,4.1,0,0,1,3.2,1.38,32.29,32.29,0,0,1,3,3.9A10.23,10.23,0,0,1,49.11,72a8,8,0,0,1,0,2.13,3.94,3.94,0,0,1,2,.29,4,4,0,0,1,2.45,3.42,32.71,32.71,0,0,0,1,5.6,4,4,0,0,1-1.32,4ZM99.9,85.86Zm8.71-12.52h0Zm-7.73-2.23,3.08.36-3.08-.36ZM16.66,64.24h0Zm96.27-.44v0ZM17.05,45.73h0Zm1.25-8.59Zm36.26-3.87Zm-6.65-.7Zm0,0ZM32.25,25.23h0Z"/><path class="cls-9" d="M20,48.21c-.42-.38-.75-.86-1.16-1.22a18.43,18.43,0,0,0-2.05-1.26,7.75,7.75,0,0,1-3.1-3.53.5.5,0,0,0,.48-.46,1.47,1.47,0,0,0-.13-.71c-.49-1.35-1-2.71-1.51-4.05a1.62,1.62,0,0,0,1.1.43,12.7,12.7,0,0,1,1.94-4.48.85.85,0,0,0,1,.41,3.63,3.63,0,0,0,1-.62,1.6,1.6,0,0,1,1.12-.4c-.24.17-.17.56,0,.76a2.24,2.24,0,0,0,.78.37,6,6,0,0,1,2.09,1.61,7.35,7.35,0,0,1,1.09,1.34c.5.88.61,1.93,1.05,2.84.24.52.59,1,.83,1.5.72,1.6.28,3.46-.2,5.15"/><path class="cls-10" d="M58,38.22A53.43,53.43,0,0,1,69,35.56a3.64,3.64,0,0,0,1.66-.48,1.23,1.23,0,0,0,.53-1.5,1.69,1.69,0,0,0-.92-.69A12.12,12.12,0,0,0,66.3,32c-.64,0-1.44-.09-1.69-.68a1.87,1.87,0,0,0-.2-.48.87.87,0,0,0-.67-.22l-5.21-.16,1.13-.55a45.11,45.11,0,0,0-6.44.88,1.35,1.35,0,0,1-1.17-.12c-.3-.27,0-.95.34-.77-2.71-.1-5,1.88-7.7,2.41-.41.08-1-.06-.95-.47-3.44,1.95-6.73,4.3-10.68,5-3.05.52-5.93.56-8.9,1.62-6.29,2.24-8.31,9.43-8.87,12.24s-1.69,7.64-2.58,11-.12,4.71.89,5.39c0,0,1.46,1.46,3.49-.56s7.18-3.15,12.46-4.5a10.15,10.15,0,0,1,7.26.92c.88.45-.57.58-1.77,1.37.42.34-1.71,3.59-.2,4,2.24-.84,6-2.36,6.37-2a29.44,29.44,0,0,1,2.59,3.38,6.49,6.49,0,0,1,1.1,2.68,4.69,4.69,0,0,1-1.36,3.68,8.18,8.18,0,0,1-3.47,2c-2,.63-4.26.79-5.94,2.08a2.43,2.43,0,0,0-.87,1.06,1.15,1.15,0,0,0,.3,1.27.64.64,0,0,0-.52.9,1.06,1.06,0,0,0,1.05.52,3.29,3.29,0,0,0,1.16-.41A33.28,33.28,0,0,1,42.08,81a26.65,26.65,0,0,0,4.75-1.37,13.72,13.72,0,0,0,5.82-5.79,24.76,24.76,0,0,0,1.52-3c.52-1.26.62-2.84,1.66-3.73,2-1.74,15.6-.29,18-.15,4.32.26,15.15-4.49,15.86-4.27a5.73,5.73,0,0,1,2.22,1.77,17,17,0,0,0,9.41,5c1,.17,2.23.45,2.44,1.43a1.79,1.79,0,0,1,0,.61,7.05,7.05,0,0,1-3.79,5,31.14,31.14,0,0,1-6.13,2.22c-.88.28-1.91.76-2,1.68-.2,1.34,1.69,2,3,1.62s2.38-1.43,3.73-1.58a8.87,8.87,0,0,0,2.37-.18c.58-.23,3.26-3.55,3.65-4,.32.84.06,1.78,2.29,1.53,3.24-.36,3.68-3.71,4.71-5.09,1.31-1.75,4.61-4.3,5.18-8.32s-3.57-7.29-3.36-9.17a24.75,24.75,0,0,0,.17-6.84c-.27-4-1.28-6.81-5.79-9.91a42.72,42.72,0,0,0-11.49-4.65c-10.38-1.93-13.83-1.67-23.83-2.29-3.7-.23-13.12-1.38-19.63-.25-4.33.75-8.41,1.05-16.21,4.52L36,36"/><path class="cls-9" d="M23.05,40.06a22.63,22.63,0,0,1-.61-5.88c.16-1.93.36-4,3.21-5.09s7,.3,8.24,3.14.62,4.54-1.33,6.78-2.64,3-2.87,4a1.39,1.39,0,0,1-2.62,0c-.45-1.43-1-1.53-1.57-.85a1.27,1.27,0,0,1-1.81,0c-.74-.74-.21-2-.6-2.84-1.33-2.91-1.22-5.46-1.33-8.33a1.49,1.49,0,0,0,.69,1,4.66,4.66,0,0,1,1.47-3.1c-.21.16,0,.52.27.53a1.14,1.14,0,0,0,.68-.34,4.33,4.33,0,0,1,1.77-.81v.41A16.93,16.93,0,0,1,31,28.15c-.09.31-.71.35-.61.65,0,.11.16.16.26.2l1.79.64a.78.78,0,0,0-.39.82,2.81,2.81,0,0,0,.35.91c.49,1,.75,2.31,0,3.14a4.24,4.24,0,0,1-1.57.91,14.73,14.73,0,0,0-4.51,3.75"/><circle class="cls-11" cx="22.69" cy="54.02" r="2.01"/><ellipse class="cls-12" cx="22.09" cy="53.29" rx="1.15" ry="0.66" transform="translate(-31.21 31.23) rotate(-45)"/><path class="cls-10" d="M108.35,54.07c2.22.21,4-.45,6.29-.78s7-.57,13.87,3.62,7,13.64-2.33,19.81c-7,4.59-13.11,6.61-17.89,13.1-1.17,1.59-.55,2.65,1,1,2.64-2.81,5.85-6.06,10-8,11.4-5.2,15.36-8.69,17-13.25,2.25-6.34.06-13.19-5.58-16.29-6.15-3.37-12.75-4.81-15.08-6.46s-5.51-3.61-7.34-3.78"/><path class="cls-9" d="M106.29,77.75a4.21,4.21,0,0,0,1.33-.77c.37-.31-.16-.84-.53-.53a3,3,0,0,1-1,.57c-.45.16-.26.88.2.73Z"/><path class="cls-13" d="M54.05,58.54c-.5.8-1.8.82-2,1.7a8.08,8.08,0,0,0,0,3.36c.13.75-1.17.7-1.39.81a3.07,3.07,0,0,0-1.34,3.2c.13,1.23.61,2.42.63,3.65a17.28,17.28,0,0,1-.55,3.33c-.6,3.24.2,6.57,1,9.77L49.55,84c-1.26,1.72-.9,4.17,0,6.09s3.62,3.88,4.35,5c3.07,4.74-1,11.67-.52,17.3.34,4.31,1.06,5,2.88,8.48.59.9,1.31.67.81-.42-1.66-3.61-3-7.1-2.13-11,1.25-5.25,1.88-10.79,4.21-14.07,1.05-1.47,5.11-4.76,6-6.3a8.79,8.79,0,0,0,1.23-4.17,2,2,0,0,0-.31-1.35.81.81,0,0,0-1.23-.09,20.79,20.79,0,0,0-.17-10.93,3.13,3.13,0,0,1-.19-1.75c.18-.61.72-1,1-1.58.56-1,.09-3.4-.37-4.44s-1.24-.14-1.14-2a15.32,15.32,0,0,0-.2-2.53c-.35-2.74-3.24-4.8-4.19-5.59-.38-.31-.69-.58-1-.79a4.71,4.71,0,0,0-1.85,1.58C56,56.5,54.89,57.2,54.05,58.54Z"/><path class="cls-14" d="M69,57.81a7.06,7.06,0,0,0-1.06,5.79c.14.75-1.17.7-1.39.81a3.07,3.07,0,0,0-1.34,3.2c.13,1.23-.92,2.6-.9,3.84s.63,2.58.43,3.69c-.6,3.24-1.22,5.11-.43,8.31-.29-.13.58,1.32.29,1.19-1.27,1.72-.09,3.5.85,5.42s3.62,3.88,4.35,5c3.07,4.74,5,7.18,5.4,12.82.34,4.3-5.75,8.58-3,13,.59.9,1.33.66.81-.42-1.27-2.63,3.14-7.35,4.06-11.21,1.25-5.25-4.31-10.54-2-13.82,1-1.47,5.11-4.76,6-6.3a8.92,8.92,0,0,0,1.24-4.17A2,2,0,0,0,82,83.59c-.3-.37.6-1.65.32-1.26.92-3.57-.16-6.3-1.19-9.84a3,3,0,0,1,.29-1.69c.18-.6-.29-1,0-1.56.56-1,.09-3.4-.37-4.44s-1.24-.14-1.14-2a15.32,15.32,0,0,0-.2-2.53c-.35-2.74-3.24-4.8-4.19-5.59-1.87-1.55-2.16-2-3.33-.54A36,36,0,0,0,69,57.81Z"/><path class="cls-13" d="M84.66,57.81a7.06,7.06,0,0,0-1.07,5.79c.14.75-1.16.7-1.39.81a3.1,3.1,0,0,0-1.34,3.2c.14,1.23-1.15,2.33-1.13,3.57s1.42,2.3,1.21,3.41c-.59,3.24.21,6.57,1,9.77L81.07,84c-1.27,1.72-.9,4.17,0,6.09s3.63,3.88,4.36,5c3.07,4.74-1,11.67-.52,17.3.34,4.31,1.06,5,2.88,8.48.59.9,1.31.67.81-.42-1.66-3.61-3-7.1-2.13-11,1.25-5.25,1.88-10.79,4.21-14.07,1.05-1.47,5.11-4.76,6-6.3A8.79,8.79,0,0,0,98,84.94a2,2,0,0,0-.31-1.35.81.81,0,0,0-1.23-.09,20.79,20.79,0,0,0-.17-10.93,3.13,3.13,0,0,1-.19-1.75c.18-.61.72-1,1-1.58.56-1,.09-3.4-.37-4.44s-1.24-.14-1.14-2a15.32,15.32,0,0,0-.2-2.53c-.35-2.74-3.24-4.8-4.19-5.59-1.87-1.55-2.16-2-3.33-.54A36,36,0,0,0,84.66,57.81Z"/><path class="cls-15" d="M45.39,42.23a6.55,6.55,0,0,0-1,3.62,21.36,21.36,0,0,0,.79,5c.72,3.23,1,7-1.25,9.43-1.93,2-5,2.28-7.64,3.23-.65.23-1.39.66-1.4,1.36s-1.12,2.63,0,3.47c1-.57,5.81-1.87,6.78-2.46,2.16-1.32,5.53-1.61,7.32-3.38,1.22-1.21,5.5-4.21,7.6-6.64,2.57-3,5.07-4.45,7.28-7.69a10.87,10.87,0,0,0,1.69-8.71"/><path class="cls-16" d="M91.68,54c.9,2.44,3,4.41,5.17,6a16,16,0,0,0,3,1.93c2.62,1.24,5.75,1.21,8.22,2.72a2.82,2.82,0,0,1,1.56,2.1c.07,1.45-1.53,2.3-2.66,3.21A7,7,0,0,0,105,78a1.35,1.35,0,0,0,.83-.61,1.12,1.12,0,0,0,1.83-.29,1,1,0,0,0,1.31,0,3.38,3.38,0,0,0,.8-1.19c1.16-2.29,3.07-4.1,4.6-6.16s2.75-4.64,2.16-7.14-2.86-4.43-3.17-7c-.27-2.17,1-4.29.92-6.48"/><path class="cls-15" d="M52.36,29.92h.26A.27.27,0,0,0,52.36,29.92Z"/><path class="cls-15" d="M131,53.29c-6.15-3.37-12.75-4.81-15.09-6.46-.83-.59-1.77-1.22-2.71-1.79-.68-2.4-2.12-4.45-5.28-6.63a43,43,0,0,0-11.49-4.65c-10.38-1.93-13.84-1.67-23.84-2.29-1.7-.11-4.64-.41-7.93-.59a0,0,0,0,1,0,0,.89.89,0,0,0-.68-.22l-5.2-.16,1.13-.55a44.92,44.92,0,0,0-6.44.88,1.35,1.35,0,0,1-1.17-.12.52.52,0,0,1,.07-.76c-2.59,0-4.87,1.89-7.44,2.4-.41.08-1-.06-1-.47-1.89,1.07-3.74,2.26-5.68,3.23l-1.54.66c-.18.08-.35.16-.52.22h.07a17,17,0,0,1-1.87.6,5.15,5.15,0,0,0-.31-4.34,5.34,5.34,0,0,0-1.79-2.11.69.69,0,0,1,.36-.48L30.91,29c-.11,0-.23-.09-.26-.2-.1-.3.51-.34.61-.65a16.88,16.88,0,0,0-4.37.48c0-.14,0-.27,0-.41A4.37,4.37,0,0,0,25.1,29a1.11,1.11,0,0,1-.68.34c-.25,0-.47-.37-.27-.53a4.71,4.71,0,0,0-1.47,3.1A1.53,1.53,0,0,1,22,31c.06,1.54.07,3,.25,4.45-.11-.12-.21-.24-.33-.36a5.9,5.9,0,0,0-2.08-1.61,2.16,2.16,0,0,1-.78-.37c-.21-.2-.28-.59-.05-.76a1.56,1.56,0,0,0-1.11.4,3.68,3.68,0,0,1-1,.62.84.84,0,0,1-1-.41,12.7,12.7,0,0,0-1.94,4.48,1.6,1.6,0,0,1-1.1-.43c.51,1.34,1,2.7,1.51,4.05a1.6,1.6,0,0,1,.13.71.51.51,0,0,1-.49.46,7.83,7.83,0,0,0,3.11,3.53l.06,0a23.3,23.3,0,0,0-1.59,4.92c-.56,2.81-1.68,7.64-2.58,11s-.11,4.71.9,5.39c0,0,1.46,1.46,3.48-.56s7.19-3.15,12.47-4.5a10.13,10.13,0,0,1,7.25.92c.24.12.3.22.25.31-.27.09-.55.17-.82.27-.65.23-1.39.66-1.39,1.36,0,.4-.35,1.17-.46,1.92s-.16,1.37.46,1.55c.63-.24,1.38-.53,2.15-.81,1.16-.39,2.52-.81,3.5-1.17.38-.08.64-.1.71,0A28.35,28.35,0,0,1,44,69.73a6.38,6.38,0,0,1,1.11,2.68,4.73,4.73,0,0,1-1.37,3.68,8.15,8.15,0,0,1-3.46,2c-2,.63-4.26.79-6,2.08a2.34,2.34,0,0,0-.86,1.06,1.17,1.17,0,0,0,.29,1.27c-.41,0-.68.53-.51.9a1,1,0,0,0,1,.52,3.27,3.27,0,0,0,1.17-.41A33.07,33.07,0,0,1,42.32,81a25.84,25.84,0,0,0,4.75-1.37,10.51,10.51,0,0,0,2.42-1.58,36.84,36.84,0,0,0,1.17,6.29L49.79,84c-1.27,1.72-.91,4.17,0,6.09s3.62,3.88,4.36,5c3.07,4.74-1,11.67-.52,17.3.34,4.31,1.06,5,2.88,8.48.58.9,1.31.67.8-.42-1.66-3.61-3-7.1-2.12-11,1.25-5.25,1.87-10.79,4.21-14.07,1-1.39,4.68-4.41,5.86-6l.34.69c.94,1.92,3.62,3.88,4.36,5,3.07,4.74,5,7.18,5.39,12.82.35,4.3-5.75,8.58-3,13,.58.9,1.33.66.8-.42-1.27-2.63,3.15-7.35,4.07-11.21,1.25-5.25-4.32-10.54-2-13.82,1-1.38,4.6-4.35,5.82-6,.09.22.18.43.28.64.94,1.92,3.62,3.88,4.36,5,3.07,4.74-1,11.67-.52,17.3.34,4.31,1.06,5,2.88,8.48.58.9,1.3.67.8-.42-1.66-3.61-3-7.1-2.12-11C88,104.23,88.61,98.69,91,95.41c1-1.47,5.11-4.76,6-6.3a8.79,8.79,0,0,0,1.23-4.17,2,2,0,0,0-.32-1.35.81.81,0,0,0-1.23-.09,20.28,20.28,0,0,0,.49-2.56,4.46,4.46,0,0,1,1.53-.51,8.87,8.87,0,0,0,2.37-.18c.58-.23,3.27-3.55,3.66-4l0,.09a6.47,6.47,0,0,0,.46,1.71,1.42,1.42,0,0,0,.54-.29,3.6,3.6,0,0,0,1.26,0h.06a3.77,3.77,0,0,0,1.33-.4,1.14,1.14,0,0,0,.79-.25,3.49,3.49,0,0,0,.78-1.16,8.65,8.65,0,0,0,.63-1.1c1.16-1.81,2.7-3.36,4-5.09a10.76,10.76,0,0,0,2.28-5.27l0-.13c.47-3.41-2.65-6.46-3.26-8.43,0-.1,0-.19-.07-.3a4.61,4.61,0,0,1,0-.53c.07-.65.13-1.15.18-1.58l1.15-.2c2.37-.33,7-.57,13.87,3.62s7,13.64-2.34,19.81c-7,4.59-13.11,6.61-17.89,13.1-1.16,1.59-.55,2.65,1,1,2.64-2.81,5.85-6.06,10-8,11.4-5.2,15.36-8.69,17-13.25C138.83,63.25,136.64,56.39,131,53.29ZM104,71.47a7.06,7.06,0,0,1-3.8,5,16.26,16.26,0,0,1-2.85,1.21,20.72,20.72,0,0,0-.81-5.13,3.32,3.32,0,0,1-.19-1.75c.18-.61.72-1,1-1.58a2.32,2.32,0,0,0,.25-1,16.73,16.73,0,0,0,3.92,1.18c1,.17,2.23.45,2.44,1.43A2.08,2.08,0,0,1,104,71.47Z"/></g></g></svg>