<svg xmlns="http://www.w3.org/2000/svg" viewBox="0 0 180 180"><defs><style>.cls-1{isolation:isolate;}.cls-2{opacity:0.2;mix-blend-mode:multiply;}.cls-3{fill:#0071bc;}.cls-10,.cls-4{fill:none;stroke-linecap:round;stroke-linejoin:round;}.cls-4{stroke:#fff;stroke-width:4.45px;}.cls-5{fill:#ab1d16;}.cls-6{fill:#bad532;}.cls-7{fill:#ffeb1b;}.cls-8{fill:#1896e2;}.cls-9{fill:#d0df57;}.cls-10{stroke:#1e134d;stroke-width:1.33px;}.cls-11{fill:#002451;opacity:0.27;}.cls-12{font-size:26px;fill:#fff;letter-spacing:-0.01em;}.cls-13{letter-spacing:-0.01em;}.cls-14{letter-spacing:-0.01em;}.cls-15{letter-spacing:0em;}</style></defs><title>27</title><g class="cls-1"><g id="Capa_2" data-name="Capa 2"><g id="Layer_1" data-name="Layer 1"><g class="cls-2"><rect x="4" y="4" width="176" height="176" rx="12"/></g><rect class="cls-3" width="176" height="176" rx="12"/><path class="cls-4" d="M154.65,48.72a2.24,2.24,0,0,0-2.4.08c-2,.9-3.78,2.18-5.72,3.18a7.32,7.32,0,0,1-3.3,1.11c-1,0-1.32-.42-1.18-1.38a16.53,16.53,0,0,1,2.44-6.47A7.39,7.39,0,0,0,146,41.55a2,2,0,0,0-1.64-2.26,2.07,2.07,0,0,0-2.44,1.52,9.63,9.63,0,0,0-.28,1.18c-.31,2.31-1,4.54-1.49,6.8-.07.27-.13.55-.19.83a5,5,0,0,1-.55,1.43.7.7,0,0,1-.58,0c-.84-.23-1.05-1.4-.82-2.94s0-4.9.82-6.44.21-3.61-1.28-3.53-2.48.3-1.79,3.22.25,4.64.14,6.53c-.05.88-.54,1.94-1.15-.52s-2.37-10.31-4.37-9.24-3.77,2.31-1.15,4.62,3.69,7.33,4.76,8.35a2.62,2.62,0,0,1,.87,2.05,11.09,11.09,0,0,1-2.15-.19,25.62,25.62,0,0,1-5-1.58c-5.08-2-10-4.44-15-6.62A79.09,79.09,0,0,0,102.75,41a13.39,13.39,0,0,0-5.22-.7,2.47,2.47,0,0,0-2.44,2.2,5.8,5.8,0,0,0,.28,2.83,29.38,29.38,0,0,0,3.45,7,105.91,105.91,0,0,0,6.35,8.82,3.64,3.64,0,0,1,.91,1.29,1.12,1.12,0,0,1-.69-.23c-2.77-1.44-5.56-2.85-8.31-4.34-2.43-1.31-4.9-2.57-7.21-4.08a30.26,30.26,0,0,0-8.17-3.9c-2.93-.85-5.85-1.72-8.78-2.56-.43-.13-.54-.27-.42-.72a57.07,57.07,0,0,1,2.07-6,33.84,33.84,0,0,0,1.72-5.12A3,3,0,0,0,75,32.17c-.35-.24-.7-.48-1.06-.7-1-.62-1.64-2.88-1-4.46.46-1.12,2.17-4.75,1.91-6.57-.3-2.15-2.78-1.45-2.85.78s-.53,5.51-1.3,6-1.53.16-2.45-2.53-.92-4.95-2.53-5.26-3.08.54-1.46,3.15S68.47,29,68.4,29.93s-.08,1.08-3-.15-3.77-4.46-5.07-4.08-2.62,3.62-.08,4.23a64.93,64.93,0,0,1,6.46,2.23c.92.31,1.23.77-1.39,1.77s-5.92,2.88-4.61,4.13,1.77,2.86,3.38.63,2.54-3.3,3.77-3.69,2.62-.66,3,.44a2.63,2.63,0,0,1,.24,2.17,22.81,22.81,0,0,1-3.27,7.12c-.23.38-.44.41-.83.23a31.91,31.91,0,0,0-10.81-2.75,1.23,1.23,0,0,1-1.08-.6A6.07,6.07,0,0,0,48.13,39,4.48,4.48,0,0,0,46,35.77c-1.45-1-4.63-1.31-6.19.64a9.47,9.47,0,0,0-1.71,3.36.93.93,0,0,1-.77.72,56,56,0,0,0-6.94,2.09,7,7,0,0,0-2.32,1.24,1.74,1.74,0,0,0-.46,2.09c.91,2.08,4.29,4.53,4.29,4.53,1.66,1.1,3.35,2.12,5.06,3.09,2.55,1.45,5.15,2.82,7.81,4.06s9.68,4.29,10.64,5.2c2,1.85,8.19,5,15.39,6a2.13,2.13,0,0,1,1.39,1.6,28,28,0,0,1,.67,8.79,9.58,9.58,0,0,1-.56,2.63,2,2,0,0,1-2.43,1.33c-.92-.07-.77-6-.92-8.16s-2,0-2.85,1.23,1.92,4.38,1.46,5.92-1.38-.08-3.92-2-1.54-1.92-2.77-2.84S59.48,78.51,59.25,80s4.84,3.3,6,4-.08,1.3-1.31,1.3-4.46-1.07-6.69-1.84-1.38,2-1.38,3.23,3.38,1.69,6,.84,3-.61,3.69-.08-.69.93-2.15,1.7a23.16,23.16,0,0,1-6.76,1.76c-2.77.39.23,2,2.23,2.23s6.76-2,8.22-3.3A7.84,7.84,0,0,1,71,88.26a8.38,8.38,0,0,1,2.53-.46,3,3,0,0,0,2.72-2.35A21.4,21.4,0,0,0,77,82.31c.21-1.8,1.33-9.62,1.54-11.17,1.26.18,16.91-.37,18-.42.92,0,1.83-.15,2.75-.21l2.86-.2-1.65,1C96.21,73.91,92,76.63,88,79.59a65.71,65.71,0,0,0-8.41,7,18.33,18.33,0,0,0-2.88,3.63,4.7,4.7,0,0,0-.78,2.61,3,3,0,0,0,1.87,2.51,9.68,9.68,0,0,0,4.39,1,30.3,30.3,0,0,0,7.41-.83,102.63,102.63,0,0,0,17.72-5.9c.14-.06.27-.21.47-.1-.12.21-.33.27-.51.37l-5.62,3a55.93,55.93,0,0,1-9.68,4.4,24.49,24.49,0,0,1-8.19,1.32c-2-.06-3.94-.54-5.93-.64a6.83,6.83,0,0,0-4.12.69,1.54,1.54,0,0,0-.68,1.55c0,.6.51.8,1,1a5.06,5.06,0,0,0,.67.17,42.19,42.19,0,0,0,6.26,0,17.11,17.11,0,0,1,4.23,0c.21,0,.5,0,.57.3s-.16.38-.31.51a5.45,5.45,0,0,1-2.52,1.07,50.62,50.62,0,0,1-6.14.59,32.08,32.08,0,0,0-3.93.38,5.75,5.75,0,0,0-3.3,1.75,1.8,1.8,0,0,0,.28,2.79,3.74,3.74,0,0,0,2.77.45,36.38,36.38,0,0,0,6.22-1.75,22.66,22.66,0,0,1,4.38-1.18c1.3-.12,1.83.57,1.39,1.79a12.25,12.25,0,0,1-1.85,3c-1,1.29-2.15,2.41-3.11,3.69a4.54,4.54,0,0,0-1,3.94A1.62,1.62,0,0,0,81,119.92a3.57,3.57,0,0,0,1.1-.91,12.15,12.15,0,0,0,2-3.79,32.88,32.88,0,0,1,1.57-4.07,15.27,15.27,0,0,1,4-4.62,45.83,45.83,0,0,1,.34,5.45,30.16,30.16,0,0,1,0,7c-.35,2.19,2.65,3.68,3.75,1.11s-.41-3.42-1.33-8.84a11,11,0,0,1,1.15-7.68c1.92-1.38,3.85-2.75,5.76-4.14,2.71-2,5.44-4,8.07-6a64.51,64.51,0,0,0,8.18-7.22,6.84,6.84,0,0,0,1.76-2.73,1.31,1.31,0,0,0-.85-1.75A10.8,10.8,0,0,0,111.4,81c-2.66.18-8.51,2.32-13.49,3.67,5.38-2.46,10.32-8.47,14.12-10.4,3.08-1.56,4.14-4,3.33-7.35a2.65,2.65,0,0,1-.09-.68,11.66,11.66,0,0,0-.79-4.22,25.23,25.23,0,0,0-6.31-9.22c-.32-.3-.59-.65-1-1.1a25,25,0,0,0,3,1.19c1.71.44,3.41.89,5.14,1.24,3.25.64,6.53,1.16,9.81,1.57q4.16.53,8.33,1c1.71.18,3.43.32,5.14.44a38.63,38.63,0,0,0,5-.45,35.77,35.77,0,0,0,8.61-3.17,7.75,7.75,0,0,0,2.84-2.3A1.63,1.63,0,0,0,154.65,48.72ZM49.2,49.37a4.45,4.45,0,0,1,.06-8.9,4.42,4.42,0,0,1,4.45,4.59A4.49,4.49,0,0,1,49.2,49.37Z"/><path class="cls-5" d="M49.2,49.37a4.45,4.45,0,0,1,.06-8.9,4.42,4.42,0,0,1,4.45,4.59A4.49,4.49,0,0,1,49.2,49.37Zm.07-.9a11.41,11.41,0,0,0,0-7.39A10.4,10.4,0,0,0,49.27,48.47Z"/><path d="M49.27,48.47a10.4,10.4,0,0,1,0-7.39A11.41,11.41,0,0,1,49.27,48.47Z"/><path class="cls-6" d="M154.65,48.72a2.24,2.24,0,0,0-2.4.08c-2,.9-3.78,2.18-5.72,3.18a7.32,7.32,0,0,1-3.3,1.11c-1,0-1.32-.42-1.18-1.38a16.53,16.53,0,0,1,2.44-6.47A7.39,7.39,0,0,0,146,41.55a2,2,0,0,0-1.64-2.26,2.07,2.07,0,0,0-2.44,1.52,9.63,9.63,0,0,0-.28,1.18c-.31,2.31-1,4.54-1.49,6.8-.07.27-.13.55-.19.83a5,5,0,0,1-.55,1.43.7.7,0,0,1-.58,0c-.84-.23-1.46-1.15-1.23-2.69s.39-5.15,1.23-6.69.21-3.61-1.28-3.53-2.48.3-1.79,3.22a14,14,0,0,1,.19,5.91c-.08.88-.59,2.56-1.2.1s-2.37-10.31-4.37-9.24-3.77,2.31-1.15,4.62,3.69,7.33,4.76,8.35a2.62,2.62,0,0,1,.87,2.05,11.09,11.09,0,0,1-2.15-.19,25.62,25.62,0,0,1-5-1.58c-5.08-2-10-4.44-15-6.62A79.09,79.09,0,0,0,102.75,41a13.39,13.39,0,0,0-5.22-.7,2.47,2.47,0,0,0-2.44,2.2,5.8,5.8,0,0,0,.28,2.83,29.38,29.38,0,0,0,3.45,7,105.91,105.91,0,0,0,6.35,8.82,3.64,3.64,0,0,1,.91,1.29,1.12,1.12,0,0,1-.69-.23c-2.77-1.44-5.56-2.85-8.31-4.34-2.43-1.31-4.9-2.57-7.21-4.08a30.26,30.26,0,0,0-8.17-3.9c-2.93-.85-5.85-1.72-8.78-2.56-.43-.13-.54-.27-.42-.72a57.07,57.07,0,0,1,2.07-6,33.84,33.84,0,0,0,1.72-5.12A3,3,0,0,0,75,32.17c-.35-.24-.7-.48-1.06-.7-1-.62-1.56-3.17-1-4.46.5-1.11,2.83-5,1.83-6.93s-2.67-1.39-2.75.84-.55,5.81-1.32,6.27-1.53.16-2.45-2.53-.92-4.95-2.53-5.26-3.08.54-1.46,3.15S68.47,29,68.4,29.93s-.08,1.08-3-.15-3.77-4.46-5.07-4.08-2.62,3.62-.08,4.23a64.93,64.93,0,0,1,6.46,2.23c.92.31,1.23.77-1.39,1.77s-5.92,2.88-4.61,4.13,1.77,2.86,3.38.63,2.54-3.3,3.77-3.69,2.62-.66,3,.44a2.63,2.63,0,0,1,.24,2.17,22.81,22.81,0,0,1-3.27,7.12c-.23.38-.44.41-.83.23a31.91,31.91,0,0,0-10.81-2.75,1.23,1.23,0,0,1-1.08-.6A6.07,6.07,0,0,0,48.13,39,4.48,4.48,0,0,0,46,35.77c-1.45-1-4.63-1.31-6.19.64a9.47,9.47,0,0,0-1.71,3.36.93.93,0,0,1-.77.72,56,56,0,0,0-6.94,2.09,7,7,0,0,0-2.32,1.24,1.74,1.74,0,0,0-.46,2.09c.91,2.08,4.29,4.53,4.29,4.53,1.66,1.1,3.35,2.12,5.06,3.09,2.55,1.45,5.15,2.82,7.81,4.06a61.28,61.28,0,0,0,8,3.19,9.19,9.19,0,0,1,2.63,2c2,1.85,8.19,5,15.39,6a2.13,2.13,0,0,1,1.39,1.6,28,28,0,0,1,.67,8.79,9.58,9.58,0,0,1-.56,2.63,2,2,0,0,1-2.43,1.33c-.92-.07-.77-6-.92-8.16s-2,0-2.85,1.23,1.92,4.38,1.46,5.92-1.38-.08-3.92-2-1.54-1.92-2.77-2.84S59.48,78.51,59.25,80s4.84,3.3,6,4-.08,1.3-1.31,1.3-4.46-1.07-6.69-1.84-1.38,2-1.38,3.23,3.38,1.69,6,.84,3-.61,3.69-.08-.69.93-2.15,1.7a23.16,23.16,0,0,1-6.76,1.76c-2.77.39.23,2,2.23,2.23s6.76-2,8.22-3.3A7.84,7.84,0,0,1,71,88.26a8.38,8.38,0,0,1,2.53-.46,3,3,0,0,0,2.72-2.35A21.4,21.4,0,0,0,77,82.31c.21-1.8,1.33-9.62,1.54-11.17,1.26.18,16.91-.37,18-.42.92,0,1.83-.15,2.75-.21l2.86-.2-1.65,1C96.21,73.91,92,76.63,88,79.59a65.71,65.71,0,0,0-8.41,7,18.33,18.33,0,0,0-2.88,3.63,4.7,4.7,0,0,0-.78,2.61,3,3,0,0,0,1.87,2.51,9.68,9.68,0,0,0,4.39,1,30.3,30.3,0,0,0,7.41-.83,102.63,102.63,0,0,0,17.72-5.9c.14-.06.27-.21.47-.1-.12.21-.33.27-.51.37l-5.62,3a55.93,55.93,0,0,1-9.68,4.4,24.49,24.49,0,0,1-8.19,1.32c-2-.06-3.94-.54-5.93-.64a6.83,6.83,0,0,0-4.12.69,1.54,1.54,0,0,0-.68,1.55c0,.6.51.8,1,1a5.06,5.06,0,0,0,.67.17,42.19,42.19,0,0,0,6.26,0,17.11,17.11,0,0,1,4.23,0c.21,0,.5,0,.57.3s-.16.38-.31.51a5.45,5.45,0,0,1-2.52,1.07,50.62,50.62,0,0,1-6.14.59,32.08,32.08,0,0,0-3.93.38,5.75,5.75,0,0,0-3.3,1.75,1.8,1.8,0,0,0,.28,2.79,3.74,3.74,0,0,0,2.77.45,36.38,36.38,0,0,0,6.22-1.75,22.66,22.66,0,0,1,4.38-1.18c1.3-.12,1.83.57,1.39,1.79a12.25,12.25,0,0,1-1.85,3c-1,1.29-2.15,2.41-3.11,3.69a4.54,4.54,0,0,0-1,3.94A1.62,1.62,0,0,0,81,119.92a3.57,3.57,0,0,0,1.1-.91,12.15,12.15,0,0,0,2-3.79,32.88,32.88,0,0,1,1.57-4.07,15.27,15.27,0,0,1,4-4.62,45.83,45.83,0,0,1,.34,5.45,30.16,30.16,0,0,1,0,7c-.35,2.19,2.65,3.68,3.75,1.11s-.41-3.42-1.33-8.84a11,11,0,0,1,1.15-7.68c1.92-1.38,3.85-2.75,5.76-4.14,2.71-2,5.44-4,8.07-6a64.51,64.51,0,0,0,8.18-7.22,6.84,6.84,0,0,0,1.76-2.73,1.31,1.31,0,0,0-.85-1.75A10.8,10.8,0,0,0,111.4,81c-2.66.18-8.51,2.32-13.49,3.67,5.38-2.46,10.32-8.47,14.12-10.4,3.08-1.56,4.14-4,3.33-7.35a2.65,2.65,0,0,1-.09-.68,11.66,11.66,0,0,0-.79-4.22,25.23,25.23,0,0,0-6.31-9.22c-.32-.3-.59-.65-1-1.1a25,25,0,0,0,3,1.19c1.71.44,3.41.89,5.14,1.24,3.25.64,6.53,1.16,9.81,1.57q4.16.53,8.33,1c1.71.18,3.43.32,5.14.44a38.63,38.63,0,0,0,5-.45,35.77,35.77,0,0,0,8.61-3.17,7.75,7.75,0,0,0,2.84-2.3A1.63,1.63,0,0,0,154.65,48.72ZM49.2,49.37a4.45,4.45,0,0,1,.06-8.9,4.42,4.42,0,0,1,4.45,4.59A4.49,4.49,0,0,1,49.2,49.37Z"/><path class="cls-7" d="M71,63.31c.18.51,8.25,2.26,8,3.93-.1.72-.4,3.46-.39,3.91,1.69.15,16.86-.38,18-.43.92,0,1.83-.15,2.75-.21l2.66-.18a4.73,4.73,0,0,0,.78-.6c.57-.58.17-1.21-.81-2.19S83.73,63.9,82.08,63.79C79.6,63.62,70.78,62.79,71,63.31Z"/><path class="cls-8" d="M100.91,70.4c0-.62-.26-1.11,0-1.65s.5-1-.31-1.19-1.92-.62-2,0a23.55,23.55,0,0,0,.43,3"/><path class="cls-8" d="M98.14,70.6a5.17,5.17,0,0,0,.28-1.42,3.93,3.93,0,0,0-.81-2,9.15,9.15,0,0,0-2.76-.66c-.43.06-.46.43-.2,1.09s1.15,1.81,1,2.14a10.34,10.34,0,0,1-.58,1"/><path class="cls-8" d="M93,70.84c0-.16,0-1.43-.14-2.32a4.27,4.27,0,0,0-1.1-2.42,7.81,7.81,0,0,0-2.53-.52A3,3,0,0,0,87.67,67a7,7,0,0,0,0,2.91,4.08,4.08,0,0,1,.43,1.12"/><path class="cls-8" d="M85.85,71.18a12.41,12.41,0,0,0-.92-3.07c-.31-.46-1.38-3.2-2.45-3.46s-4.09-.83-4.29-.6-.23,1.18.78,2a4.75,4.75,0,0,1,1.26,3.14,11.36,11.36,0,0,1-.45,2"/><path class="cls-8" d="M112,74.26l.47-.26a2.63,2.63,0,0,1-2.35-.3C109,73,105.66,73,103.35,75S92,85.7,88,87.54a68.39,68.39,0,0,0,10.17-3l-.28.08C103.29,82.2,108.23,76.19,112,74.26Z"/><path class="cls-8" d="M108.42,56c1.44,2.07,2.48,6.11,4,6.69a7.63,7.63,0,0,1,2.73,1.81,12.39,12.39,0,0,0-.65-2.44,25.23,25.23,0,0,0-6.31-9.22c-.32-.3-.59-.65-1-1.1l.16.07c-2.58-2.53-5-5.26-5-5.26S107,53.87,108.42,56Z"/><path class="cls-9" d="M127.69,51.4c-5.08-2-10-4.44-15-6.62A79.09,79.09,0,0,0,102.75,41a13.39,13.39,0,0,0-5.22-.7,2.47,2.47,0,0,0-2.44,2.2,5.8,5.8,0,0,0,.28,2.83,29.38,29.38,0,0,0,3.45,7,105.91,105.91,0,0,0,6.35,8.82,3.64,3.64,0,0,1,.91,1.29,1.12,1.12,0,0,1-.69-.23c-2.77-1.44-5.56-2.85-8.31-4.34-2.43-1.31-4.9-2.57-7.21-4.08a30.26,30.26,0,0,0-8.17-3.9c-2.93-.85-5.85-1.72-8.78-2.56-.43-.13-.54-.27-.42-.72a57.07,57.07,0,0,1,2.07-6,33.84,33.84,0,0,0,1.72-5.12A3,3,0,0,0,75,32.17c-.35-.24-.7-.48-1.06-.7-1-.62-1.56-3.17-1-4.46.5-1.11,2.83-5,1.83-6.93s-2.67-1.39-2.75.84-.55,5.81-1.32,6.27-1.53.16-2.45-2.53-.92-4.95-2.53-5.26-3.08.54-1.46,3.15S68.47,29,68.4,29.93s-.08,1.08-3-.15-3.77-4.46-5.07-4.08-2.62,3.62-.08,4.23a64.93,64.93,0,0,1,6.46,2.23c.92.31,1.23.77-1.39,1.77s-5.92,2.88-4.61,4.13,1.77,2.86,3.38.63,2.54-3.3,3.77-3.69,2.62-.66,3,.44a2.63,2.63,0,0,1,.24,2.17,22.81,22.81,0,0,1-3.27,7.12c-.23.38-.44.41-.83.23a31.91,31.91,0,0,0-10.81-2.75,1.23,1.23,0,0,1-1.08-.6A6.07,6.07,0,0,0,48.13,39,4.48,4.48,0,0,0,46,35.77c-1.45-1-4.63-1.31-6.19.64a9.47,9.47,0,0,0-1.71,3.36.93.93,0,0,1-.77.72,56,56,0,0,0-6.94,2.09,7,7,0,0,0-2.32,1.24,1.75,1.75,0,0,0-.62,1.43c3,1.13,3.33,1.43,7.68.41,4.91-1.16,7.41-3.26,9.72-4.58a5.79,5.79,0,0,1,5.4-.5,4.32,4.32,0,0,1,3.14,2.65l.33.45a78.42,78.42,0,0,1,12.12,4.79c5.49,2.85,13.79,3.32,17.8,5s18.68,10.46,21.21,11,6.37,1.61,5.48-1.31-4-7.37-7.95-11.67S97.78,43.31,99.9,43s18.56,6.89,25.11,8.3c2.15.47,3.78.76,5,1C129.23,52,128.46,51.71,127.69,51.4Z"/><path class="cls-10" d="M154.65,48.72a2.24,2.24,0,0,0-2.4.08c-2,.9-3.78,2.18-5.72,3.18a7.32,7.32,0,0,1-3.3,1.11c-1,0-1.32-.42-1.18-1.38a16.53,16.53,0,0,1,2.44-6.47A7.39,7.39,0,0,0,146,41.55a2,2,0,0,0-1.64-2.26,2.07,2.07,0,0,0-2.44,1.52,9.63,9.63,0,0,0-.28,1.18c-.31,2.31-1,4.54-1.49,6.8-.07.27-.13.55-.19.83a5,5,0,0,1-.55,1.43.7.7,0,0,1-.58,0c-.84-.23-1.05-1.4-.82-2.94s0-4.9.82-6.44.21-3.61-1.28-3.53-2.48.3-1.79,3.22.25,4.64.14,6.53c-.05.88-.54,1.94-1.15-.52s-2.37-10.31-4.37-9.24-3.77,2.31-1.15,4.62,3.69,7.33,4.76,8.35a2.62,2.62,0,0,1,.87,2.05,11.09,11.09,0,0,1-2.15-.19,25.62,25.62,0,0,1-5-1.58c-5.08-2-10-4.44-15-6.62A79.09,79.09,0,0,0,102.75,41a13.39,13.39,0,0,0-5.22-.7,2.47,2.47,0,0,0-2.44,2.2,5.8,5.8,0,0,0,.28,2.83,29.38,29.38,0,0,0,3.45,7,105.91,105.91,0,0,0,6.35,8.82,3.64,3.64,0,0,1,.91,1.29,1.12,1.12,0,0,1-.69-.23c-2.77-1.44-5.56-2.85-8.31-4.34-2.43-1.31-4.9-2.57-7.21-4.08a30.26,30.26,0,0,0-8.17-3.9c-2.93-.85-5.85-1.72-8.78-2.56-.43-.13-.54-.27-.42-.72a57.07,57.07,0,0,1,2.07-6,33.84,33.84,0,0,0,1.72-5.12A3,3,0,0,0,75,32.17c-.35-.24-.7-.48-1.06-.7-1-.62-1.64-2.88-1-4.46.46-1.12,2.17-4.75,1.91-6.57-.3-2.15-2.78-1.45-2.85.78s-.53,5.51-1.3,6-1.53.16-2.45-2.53-.92-4.95-2.53-5.26-3.08.54-1.46,3.15S68.47,29,68.4,29.93s-.08,1.08-3-.15-3.77-4.46-5.07-4.08-2.62,3.62-.08,4.23a64.93,64.93,0,0,1,6.46,2.23c.92.31,1.23.77-1.39,1.77s-5.92,2.88-4.61,4.13,1.77,2.86,3.38.63,2.54-3.3,3.77-3.69,2.62-.66,3,.44a2.63,2.63,0,0,1,.24,2.17,22.81,22.81,0,0,1-3.27,7.12c-.23.38-.44.41-.83.23a31.91,31.91,0,0,0-10.81-2.75,1.23,1.23,0,0,1-1.08-.6A6.07,6.07,0,0,0,48.13,39,4.48,4.48,0,0,0,46,35.77c-1.45-1-4.63-1.31-6.19.64a9.47,9.47,0,0,0-1.71,3.36.93.93,0,0,1-.77.72,56,56,0,0,0-6.94,2.09,7,7,0,0,0-2.32,1.24,1.74,1.74,0,0,0-.46,2.09c.91,2.08,4.29,4.53,4.29,4.53,1.66,1.1,3.35,2.12,5.06,3.09,2.55,1.45,5.15,2.82,7.81,4.06s9.68,4.29,10.64,5.2c2,1.85,8.19,5,15.39,6a2.13,2.13,0,0,1,1.39,1.6,28,28,0,0,1,.67,8.79,9.58,9.58,0,0,1-.56,2.63,2,2,0,0,1-2.43,1.33c-.92-.07-.77-6-.92-8.16s-2,0-2.85,1.23,1.92,4.38,1.46,5.92-1.38-.08-3.92-2-1.54-1.92-2.77-2.84S59.48,78.51,59.25,80s4.84,3.3,6,4-.08,1.3-1.31,1.3-4.46-1.07-6.69-1.84-1.38,2-1.38,3.23,3.38,1.69,6,.84,3-.61,3.69-.08-.69.93-2.15,1.7a23.16,23.16,0,0,1-6.76,1.76c-2.77.39.23,2,2.23,2.23s6.76-2,8.22-3.3A7.84,7.84,0,0,1,71,88.26a8.38,8.38,0,0,1,2.53-.46,3,3,0,0,0,2.72-2.35A21.4,21.4,0,0,0,77,82.31c.21-1.8,1.33-9.62,1.54-11.17,1.26.18,16.91-.37,18-.42.92,0,1.83-.15,2.75-.21l2.86-.2-1.65,1C96.21,73.91,92,76.63,88,79.59a65.71,65.71,0,0,0-8.41,7,18.33,18.33,0,0,0-2.88,3.63,4.7,4.7,0,0,0-.78,2.61,3,3,0,0,0,1.87,2.51,9.68,9.68,0,0,0,4.39,1,30.3,30.3,0,0,0,7.41-.83,102.63,102.63,0,0,0,17.72-5.9c.14-.06.27-.21.47-.1-.12.21-.33.27-.51.37l-5.62,3a55.93,55.93,0,0,1-9.68,4.4,24.49,24.49,0,0,1-8.19,1.32c-2-.06-3.94-.54-5.93-.64a6.83,6.83,0,0,0-4.12.69,1.54,1.54,0,0,0-.68,1.55c0,.6.51.8,1,1a5.06,5.06,0,0,0,.67.17,42.19,42.19,0,0,0,6.26,0,17.11,17.11,0,0,1,4.23,0c.21,0,.5,0,.57.3s-.16.38-.31.51a5.45,5.45,0,0,1-2.52,1.07,50.62,50.62,0,0,1-6.14.59,32.08,32.08,0,0,0-3.93.38,5.75,5.75,0,0,0-3.3,1.75,1.8,1.8,0,0,0,.28,2.79,3.74,3.74,0,0,0,2.77.45,36.38,36.38,0,0,0,6.22-1.75,22.66,22.66,0,0,1,4.38-1.18c1.3-.12,1.83.57,1.39,1.79a12.25,12.25,0,0,1-1.85,3c-1,1.29-2.15,2.41-3.11,3.69a4.54,4.54,0,0,0-1,3.94A1.62,1.62,0,0,0,81,119.92a3.57,3.57,0,0,0,1.1-.91,12.15,12.15,0,0,0,2-3.79,32.88,32.88,0,0,1,1.57-4.07,15.27,15.27,0,0,1,4-4.62,45.83,45.83,0,0,1,.34,5.45,30.16,30.16,0,0,1,0,7c-.35,2.19,2.65,3.68,3.75,1.11s-.41-3.42-1.33-8.84a11,11,0,0,1,1.15-7.68c1.92-1.38,3.85-2.75,5.76-4.14,2.71-2,5.44-4,8.07-6a64.51,64.51,0,0,0,8.18-7.22,6.84,6.84,0,0,0,1.76-2.73,1.31,1.31,0,0,0-.85-1.75A10.8,10.8,0,0,0,111.4,81c-2.66.18-8.51,2.32-13.49,3.67,5.38-2.46,10.32-8.47,14.12-10.4,3.08-1.56,4.14-4,3.33-7.35a2.65,2.65,0,0,1-.09-.68,11.66,11.66,0,0,0-.79-4.22,25.23,25.23,0,0,0-6.31-9.22c-.32-.3-.59-.65-1-1.1a25,25,0,0,0,3,1.19c1.71.44,3.41.89,5.14,1.24,3.25.64,6.53,1.16,9.81,1.57q4.16.53,8.33,1c1.71.18,3.43.32,5.14.44a38.63,38.63,0,0,0,5-.45,35.77,35.77,0,0,0,8.61-3.17,7.75,7.75,0,0,0,2.84-2.3A1.63,1.63,0,0,0,154.65,48.72ZM49.2,49.37a4.45,4.45,0,0,1,.06-8.9,4.42,4.42,0,0,1,4.45,4.59A4.49,4.49,0,0,1,49.2,49.37Z"/><path class="cls-11" d="M143.1,61.06c-10.64.49-26.25-2.5-26.25-2.5s4.08,6.68,2.79,12-4.51,6-4.51,6,6.52,1.36,6.52,5.76-7,11.31-15.26,17-10.16,6.9-10.16,6.9,1.12,7.55,1.91,10.66-3.83,14.4-12.29,4.57c0,0-13.06,7-11.39-6.53,0,0-7.16.52-8.81-5.88s2.94-8.26,2.94-8.26l.91-7a16.69,16.69,0,0,1-10.09,3.67c-6.44.28-9.36-5.11-7.53-9A8.54,8.54,0,0,1,55,78.62s1.11-6.44,5.88-7.44c0,0-7.14-4.4-11-6.1-3.26-1.43-15.77-6.31-25.11-12.28a26.5,26.5,0,0,0,3.34,2.87l.23.16c1.75,1.15,3.52,2.24,5.43,3.31,2.93,1.67,5.63,3.07,8.27,4.3l2.25,1c1.78.8,5.83,2.64,7.06,3.35a25.93,25.93,0,0,0,5.77,3.58,7,7,0,0,0-2.22,1.82,8.18,8.18,0,0,0-1.4,2.65,12,12,0,0,0-.43,1.86,7,7,0,0,0-1.89,1.5c-2.31,2.58-2,5.73-1.79,7.25,0,.1,0,.23,0,.31a7.06,7.06,0,0,0,.27,1.84,6.81,6.81,0,0,0-.62,2.91c0,1.67.67,4.77,4.82,6.75a14,14,0,0,0,4.24,1.23,9,9,0,0,0,1,.06A17.53,17.53,0,0,0,66,97.84l1-.44a8.51,8.51,0,0,0-.41,2.69,12.43,12.43,0,0,0-1.76,1.57,8.38,8.38,0,0,0-2.18,6.55,8.29,8.29,0,0,0,3.53,5.88,9.45,9.45,0,0,0,5.53,1.69h.58a10.4,10.4,0,0,0,.1,4.53,8.23,8.23,0,0,0,2.69,4.41,8,8,0,0,0,5.13,1.87,8.36,8.36,0,0,0,3.71-.88,9.17,9.17,0,0,0,1.62-1l.22.27a8.45,8.45,0,0,0,6.41,3,8.35,8.35,0,0,0,7.7-5.28,11.3,11.3,0,0,0,0-8.68,26,26,0,0,1-.95-3.77,5.73,5.73,0,0,1,0-2.39l.26-.18c1.34-1,2.73-2,4.1-3l.65-.47c2.51-1.83,5.1-3.71,7.62-5.71l.29-.23a67.14,67.14,0,0,0,8.68-7.72,13.15,13.15,0,0,0,3.18-5.31,7.66,7.66,0,0,0-4-9.16,12.39,12.39,0,0,0,2-10.27,17.83,17.83,0,0,0-.59-4.15l3.19.44c2.57.32,5.34.64,8.46,1,2,.21,3.92.35,5.38.45.21,0,.43,0,.67,0a41.79,41.79,0,0,0,6.39-.65,42.23,42.23,0,0,0,10.14-3.79,13.78,13.78,0,0,0,5-4.29,9.52,9.52,0,0,0,.84-1.53C158.08,55.79,151,60.7,143.1,61.06Z"/><text class="cls-12" transform="translate(52.06 159.51)">R<tspan class="cls-13" x="17.64" y="0">a</tspan><tspan class="cls-14" x="33.68" y="0">n</tspan><tspan class="cls-15" x="49.04" y="0">a</tspan></text></g></g></g></svg>