<svg xmlns="http://www.w3.org/2000/svg" viewBox="0 0 213 71"><defs><style>.cls-1{isolation:isolate;}.cls-2{opacity:0.3;mix-blend-mode:multiply;}.cls-3,.cls-5{fill:#fff;}.cls-4{fill:#29abe2;}.cls-5{font-size:27.32px;}.cls-6{letter-spacing:-0.01em;}.cls-7{letter-spacing:-0.01em;}.cls-8{letter-spacing:0em;}.cls-9{letter-spacing:-0.02em;}.cls-10{letter-spacing:-0.02em;}.cls-11{letter-spacing:0em;}</style></defs><title>32</title><g class="cls-1"><g id="Capa_2" data-name="Capa 2"><g id="Layer_1" data-name="Layer 1"><g class="cls-2"><rect x="4" y="4" width="209" height="67" rx="12"/></g><rect class="cls-3" width="209" height="67" rx="12"/><rect class="cls-4" x="4.03" y="3.07" width="200.94" height="60.87" rx="11.19"/><path class="cls-3" d="M36.19,25.3l1,3a2.55,2.55,0,0,1-.73,2.73,2.6,2.6,0,0,1-1.68.63,2.46,2.46,0,0,1-1.12-.27L27,28.1a2.53,2.53,0,0,1-1.15-3.4L29.13,18a2.54,2.54,0,0,1,4.68.31l.66,1.94c.41,0,.82-.05,1.23-.05a13.13,13.13,0,1,1-9.4,22.41A2.54,2.54,0,1,1,29.89,39a8,8,0,1,0,6.3-13.7Z"/><text class="cls-5" transform="translate(66.15 44.39)"><tspan class="cls-6">R</tspan><tspan class="cls-7" x="18.44" y="0">e</tspan><tspan class="cls-8" x="34.08" y="0">p</tspan><tspan class="cls-9" x="51.03" y="0">e</tspan><tspan class="cls-10" x="66.35" y="0">t</tspan><tspan class="cls-11" x="77.04" y="0">i</tspan><tspan x="83.4" y="0">r</tspan></text></g></g></g></svg>