<svg xmlns="http://www.w3.org/2000/svg" viewBox="0 0 180 180"><defs><style>.cls-1{isolation:isolate;}.cls-2{opacity:0.2;mix-blend-mode:multiply;}.cls-3{fill:#22b573;}.cls-4{fill:#002451;opacity:0.27;}.cls-17,.cls-5{fill:none;stroke-linecap:round;stroke-linejoin:round;}.cls-5{stroke:#fff;stroke-width:4.19px;}.cls-6{fill:#c98d00;}.cls-7{fill:#bc772e;}.cls-8{fill:#f2de97;}.cls-9{fill:#ecd065;}.cls-10{fill:#f1da86;}.cls-11{fill:#e1a326;}.cls-12{fill:#f1e0b0;}.cls-13{opacity:0.41;}.cls-14{fill:#ede4d7;}.cls-15{fill:#e9c056;}.cls-16{fill:#745c52;}.cls-17{stroke:#1e134d;stroke-width:1.26px;}.cls-18{font-size:26px;fill:#fff;}.cls-19{letter-spacing:0em;}.cls-20{letter-spacing:-0.01em;}.cls-21{letter-spacing:-0.01em;}.cls-22{letter-spacing:-0.01em;}</style></defs><title>28</title><g class="cls-1"><g id="Capa_2" data-name="Capa 2"><g id="Layer_1" data-name="Layer 1"><g class="cls-2"><rect x="4" y="4" width="176" height="176" rx="12"/></g><rect class="cls-3" width="176" height="176" rx="12"/><path class="cls-4" d="M55.09,119.69a14.25,14.25,0,0,0,8.16,2.65,12.85,12.85,0,0,0,4.36-.75A21.45,21.45,0,0,0,74,117.71a17.1,17.1,0,0,1,2-1.43,7.84,7.84,0,0,1,3.55-.91l.57,0a20.27,20.27,0,0,1,5.42,1.66l.15.07A18.14,18.14,0,0,0,92.87,119a12.35,12.35,0,0,0,2.29-.22,10.83,10.83,0,0,0,5.2-2.6c.23,0,.45-.11.68-.18a8.14,8.14,0,0,0,1.2.21,7.39,7.39,0,0,0,3.21,1.26,6.86,6.86,0,0,0,1,.07,7.34,7.34,0,0,0,4.93-1.91c.47,0,1,0,1.44,0h0a14.86,14.86,0,0,0,10.92-4.28,12.8,12.8,0,0,0-.8-18.15,11.79,11.79,0,0,0-3.43-2.12,54,54,0,0,0,3.64-5.93,65.66,65.66,0,0,0,4.61-12.78c.38-1.34.74-2.61,1.13-3.86s.82-2.52,1.25-3.6c-1.52,2.25-3.87,6-4.69,8.58-1.25,4-6.91,16.58-9.84,18,0,0,11.74,7.54,8,14.44s-10,6.91-12.77,6.28c0,0-4.74,5.4-9.64.26,0,0-3.4,3.51-8,3.51s-8.65-2.51-12.16-3.35-6.15.21-9.54,3.35-10.57,5.65-15,1.26-5.21-8.17-3.68-12.56a12.81,12.81,0,0,1,8.64-8.37s-6.61-5.45-8.64-12.77c-1.32-4.74-2.56-8.12-3.45-10.72a25.16,25.16,0,0,0,.09,3.2,33.36,33.36,0,0,0,3.17,10.4A46.07,46.07,0,0,0,57,94.8l-.61.37a15.7,15.7,0,0,0-6.17,7.48,14.84,14.84,0,0,0-.36,10.06A14.1,14.1,0,0,0,55.09,119.69Z"/><path class="cls-5" d="M146.67,49.64a12.16,12.16,0,0,0-5.54-9.4,27.35,27.35,0,0,0-7.24-5.5c-3.57-2.06-7.2-4.15-11.21-5.08a39,39,0,0,0-23.48,2c-3.56,1.5-5.84,3.39-8.43,4.69a9,9,0,0,0-.13-1.15A5.33,5.33,0,0,0,89.5,33c-2.51-3.15-6.65-4.68-10.67-4.82A33.15,33.15,0,0,0,67,30.41a7.3,7.3,0,0,1-2.47.54,11.67,11.67,0,0,1-3.67-1.22c-4-1.49-8.48.05-12.23,2.1-3.13,1.71-6.38,4.34-6.41,7.9,0,2,1.06,4,.78,6a17.91,17.91,0,0,1-.56,2.12,9.11,9.11,0,0,0,8,11.39,10.42,10.42,0,0,0,1.48,0c1.71,3.15,4.53,6.4,4.74,9.41.15,2.21-.19,4.44,0,6.65a27,27,0,0,0,2.59,8.15c1.55,3.53,3.17,7.17,6,9.78A18.27,18.27,0,0,0,67,94.63a3.86,3.86,0,0,0-.67.88,4,4,0,0,0,.19,4.09,3.79,3.79,0,0,0,.48.58,9.51,9.51,0,0,0-6.71,1.19,8.07,8.07,0,0,0-3.47,9c1.09,3.3,5,5.47,8.32,4.3,2.77-1,4.74-3.51,7.32-4.88a14.9,14.9,0,0,1,8.28-1.72,26.31,26.31,0,0,1,7.57,2.21c1.75.75,3.61,1.58,5.48,1.23s3.48-2.54,2.5-4.17A3.12,3.12,0,0,0,98.38,109c.86.09,1.77-.78,1.52-1.55a.84.84,0,0,0,1.44-.11,2.43,2.43,0,0,0,1.44,1.5c.69.18,1.57-.37,1.45-1.08a3.12,3.12,0,0,1,2.23,2.4,3.72,3.72,0,0,0,.27-2.52c2,.19,4.06.66,6.11.66a7.73,7.73,0,0,0,5.63-2,5.26,5.26,0,0,0-7.32-7.55,4.58,4.58,0,0,0,.51-4.84,4.36,4.36,0,0,0-1.91-1.82c.91-1.11,1.75-2.28,2.57-3.45a59,59,0,0,0,4.35-6.84c2.5-4.84,3.64-10.24,5.25-15.44S125.7,56,129.69,52.45a6.46,6.46,0,0,0,3.21-.13,5.31,5.31,0,0,0,4.68,4.12,9.5,9.5,0,0,0,6.29-1.83,6.11,6.11,0,0,0,2.57-2.92A5.66,5.66,0,0,0,146.67,49.64ZM89.53,87.3A23.76,23.76,0,0,0,89,84.65a8.34,8.34,0,0,0,4.82-3.32,6.28,6.28,0,0,0,.51-4.88,9.27,9.27,0,0,0-2.73-4.17,12.38,12.38,0,0,0-13.26-2,23.41,23.41,0,0,0-2.29,1.28A7.93,7.93,0,0,1,78,66.39c1.87-2,4.83-2.37,7.45-3.16a10.42,10.42,0,0,0,2.14-.89,17.2,17.2,0,0,0,3.12.61A9,9,0,0,0,98,59.37c.33.59.64,1.2.93,1.82,1.66,3.52,2.82,7.49,1.94,11.29a16.66,16.66,0,0,1-1.8,4.37C96.09,82.22,94.81,84.26,89.53,87.3Z"/><path class="cls-6" d="M88.33,88.21a64,64,0,0,0-4,8.57A4.56,4.56,0,0,0,83.94,99c.23,1.62,2,2.54,3.63,2.81,4.23.71,8.44-1.08,12.33-2.89a31.58,31.58,0,0,0,7.64-4.53,32,32,0,0,0,4.78-5.77,59,59,0,0,0,4.35-6.84c2.5-4.84,3.64-10.24,5.25-15.44s3.83-10.44,7.92-14a10.29,10.29,0,0,0,2.1-2.12c1.48-2.39-.06-5.73-2.5-7.13s-5.41-1.36-8.22-1.21A145.67,145.67,0,0,0,89.84,47a2.34,2.34,0,0,0-1.36.76,1.94,1.94,0,0,0,.19,2c1.18,2,3.49,3,5.31,4.53a19.1,19.1,0,0,1,5,6.88c1.66,3.52,2.82,7.49,1.94,11.29a16.66,16.66,0,0,1-1.8,4.37c-3,5.4-4.29,7.43-9.66,10.51Z"/><path class="cls-7" d="M131.56,50.11c-4.81,2.29-8.06,7-9.81,12.08a4.2,4.2,0,0,1-1,1.83,39.09,39.09,0,0,1,4.62-12.87.92.92,0,0,0-1.06-.14,2.54,2.54,0,0,0-.83.77,25.34,25.34,0,0,0-4.93,10.86c-.6-3.51,1.13-7,2.63-10.18a3.36,3.36,0,0,0,.4-1.4,1.16,1.16,0,0,0-.76-1.14c-.64-.17-1.22.43-1.59,1-2.83,4.24-3.57,9.53-3.8,14.63-1.16-4.57.93-9.48-.18-14.06-.14-.59-.45-1.26-1-1.34a1.15,1.15,0,0,0-1.12.9,3.54,3.54,0,0,0,.09,1.55,43.37,43.37,0,0,1,.66,12.86c-.79-2.91-1-5.94-1.5-8.91a18.09,18.09,0,0,0-3.24-8.34,1.76,1.76,0,0,0-.74,1.56,6,6,0,0,0,.43,1.75c1.54,4.54,1.76,9.41,2,14.2-.61-3-1.29-5.92-2-8.85-.49-2-1.06-4-2.46-5.44-.52-.54-1.4-1-2-.52s-.32,1.5,0,2.22c2,4.26,3.8,8.87,3.51,13.59a76.18,76.18,0,0,0-5.17-12.55c-.69-1.32-1.63-2.78-3.11-3a6.64,6.64,0,0,0,1.16,2.68c1.57,2.79,1.82,6.11,2,9.3l-2.17-6.11a14.85,14.85,0,0,0-1.25-2.86,7.54,7.54,0,0,0-3.83-3.12c-.34.76.4,1.53,1,2.1a11.54,11.54,0,0,1,3.43,6c.08.39-.15,1-.48.79a.63.63,0,0,1-.15-.18C98,57.6,97.14,55.11,95.4,53.28c-1.23-1.3-3-2.47-3-4.25a3.36,3.36,0,0,1,1.34-2.49,9.71,9.71,0,0,1,2.57-1.35c2.53-1,5.06-2,7.61-3a48.22,48.22,0,0,1,6.82-2.26,50.84,50.84,0,0,1,6.39-.87,10.45,10.45,0,0,1,2.37,0,8,8,0,0,1,2.41.87,41.88,41.88,0,0,1,7.11,5c.75.61,1.59,1.43,1.39,2.39"/><path class="cls-8" d="M143.47,45.64c-.31-5-5.21-8.37-9.58-10.9-3.57-2.06-7.2-4.15-11.21-5.08a39,39,0,0,0-23.48,2c-4.3,1.81-6.75,4.2-10.11,5.43a8.9,8.9,0,0,0-3.4,1.83,3.07,3.07,0,0,0-.76,3.53c.65,1.16,2.13,1.5,3.44,1.68a52.46,52.46,0,0,0,12.83.13"/><path class="cls-9" d="M87.56,51.49a11.21,11.21,0,0,1-5.56-2,6.67,6.67,0,0,1-2.81-5C79.11,41,82.53,38.2,86,37.71s6.95.71,10.26,1.9a10.77,10.77,0,0,1,5.82-5.89,19.55,19.55,0,0,1,6.27-1.16c3-.19,6-.25,9.06-.2,2.66,0,5.54.28,7.53,2a2.4,2.4,0,0,0,1,.63c.56.1,1.06-.31,1.56-.57a4.43,4.43,0,0,1,4.35.43,11.09,11.09,0,0,1,3,3.38,12.27,12.27,0,0,1,11.79,11.37,5.66,5.66,0,0,1-.23,2,6.11,6.11,0,0,1-2.57,2.92,9.5,9.5,0,0,1-6.29,1.83,5.31,5.31,0,0,1-4.68-4.12,6.44,6.44,0,0,1-8-8.21,7.76,7.76,0,0,1-6.62,4.72,9.42,9.42,0,0,1-7.6-3.28,17.54,17.54,0,0,1-9.82,5.1c-2.33.37-4.51-1.2-6.56-.69C91.84,50.58,90.33,51.78,87.56,51.49Z"/><path class="cls-6" d="M93.09,96.38c-.53-2.8-2.57-5.08-4.81-6.85s-4.77-3.18-6.84-5.14A17.39,17.39,0,0,1,76.1,72.75C76,70.48,76.4,68,78,66.39c1.87-2,4.83-2.37,7.45-3.16s5.45-2.68,5.33-5.41c-.1-2.32-2.26-3.93-4.22-5.16-4.26-2.68-8.78-5.28-13.78-5.82a26,26,0,0,0-9.4,1,14.78,14.78,0,0,0-4.9,2.07c-1.63,1.17-7.09,2.25-7.62,4.19C49.58,58.65,56.37,64,56.7,68.71c.15,2.21-.19,4.44,0,6.65a27,27,0,0,0,2.59,8.15c1.55,3.53,3.17,7.17,6,9.78a27,27,0,0,0,5.55,3.65c4.85,2.61,9.75,4.93,15.18,6C90.27,103.74,94,101.34,93.09,96.38Z"/><path class="cls-7" d="M87.22,61.48c-2.74,1-5.45,2.08-8.13,3.24a7.92,7.92,0,0,0-2.53,1.51,6.28,6.28,0,0,0-1.3,2,14.09,14.09,0,0,0-1,3.54,6.46,6.46,0,0,1,.57-4.44A10.64,10.64,0,0,0,76.06,63a2,2,0,0,0-1.57.9,9.47,9.47,0,0,0-2.13,4.9,2.74,2.74,0,0,1-.21-1.88l1-7.51a4.6,4.6,0,0,0-2.56,2.17,9.51,9.51,0,0,0-1,3.27,20.45,20.45,0,0,0,.55,8.63c-1.85-3.59-1.24-7.89-1.52-11.93,0-.58-.29-1.34-.88-1.33a1.06,1.06,0,0,0-.71.43c-1.29,1.52-1.1,3.76-.84,5.74l.79,6h-.51l-1.78-7.86a27.78,27.78,0,0,0-1.18-4.22c-.14-.34-.4-.75-.77-.69-.82,3-.08,6.18.67,9.19a26.26,26.26,0,0,1-3-7.7c-.14-.66-.37-1.46-1-1.64l1.13,7.46a.41.41,0,0,1-.58,0,1.23,1.23,0,0,1-.29-.58,27.57,27.57,0,0,0-3.23-6.91A2.2,2.2,0,0,0,55,58.26a2.94,2.94,0,0,0,.48,2.28,13.87,13.87,0,0,1,1.32,4.57c-.85-.28-1.11-1.31-1.36-2.17a10.7,10.7,0,0,0-1.42-3,7.17,7.17,0,0,1-1.06-1.78,3.49,3.49,0,0,1,1.38-3.65,7.19,7.19,0,0,1,3.92-1.23c1.38-.1,2.78,0,4.16-.2a33.38,33.38,0,0,1,4.31-.71,13.2,13.2,0,0,1,2.5.28l11.46,2a6.26,6.26,0,0,1,2.58.86,2.16,2.16,0,0,1,1,2.37"/><path class="cls-10" d="M63.53,62.81a5.39,5.39,0,0,1-4.44-3.54c-2.76-.85-5.73.26-8.61,0a9.11,9.11,0,0,1-8-11.39A17.91,17.91,0,0,0,43,45.76c.28-2-.8-4-.78-6,0-3.56,3.28-6.19,6.41-7.9,3.75-2,8.23-3.59,12.23-2.1A11.67,11.67,0,0,0,64.56,31,7.3,7.3,0,0,0,67,30.41a33.15,33.15,0,0,1,11.8-2.26c4,.14,8.16,1.67,10.67,4.82a5.33,5.33,0,0,1,1.14,2.2,21.2,21.2,0,0,0,.29,2.1c.45,1.47,2,2.26,3.35,3,2.25,1.15,4.52,2.59,5.65,4.85a10.76,10.76,0,0,1,.92,4.86,15.7,15.7,0,0,1-2.38,8.82A9.1,9.1,0,0,1,90.66,63c-2.53-.16-5.07-1.62-7.49-.83a17.13,17.13,0,0,0-3.38,2.07,8.58,8.58,0,0,1-8.24.18c-1.09-.56-2-1.75-3.15-2C66.92,62.08,65.15,63.06,63.53,62.81Z"/><path class="cls-11" d="M67.83,42.05c.3.28.14.8-.14,1.1a5.59,5.59,0,0,0-.89.86,1.18,1.18,0,0,0,.55,1.65,6.38,6.38,0,0,0,1.64.06,5.67,5.67,0,0,1,1.76.75,1.71,1.71,0,0,0,1.81,0c.64-.53.42-1.56.79-2.31.25-.51.79-1,.59-1.54s-.69-.54-1.14-.59l-3.51-.44a1.79,1.79,0,0,0-1,0,.61.61,0,0,0-.35.78"/><path class="cls-12" d="M90.64,35.17A5.33,5.33,0,0,0,89.5,33c-2.51-3.15-6.65-4.68-10.67-4.82A33.15,33.15,0,0,0,67,30.41a7.3,7.3,0,0,1-2.47.54,11.67,11.67,0,0,1-3.67-1.22c-4-1.49-8.48.05-12.23,2.1-3.13,1.71-6.38,4.34-6.41,7.9,0,2,1.06,4,.78,6a17.91,17.91,0,0,1-.56,2.12,9.11,9.11,0,0,0,8,11.39c2.88.26,5.85-.85,8.61,0a5.39,5.39,0,0,0,4.44,3.54,7.82,7.82,0,0,0,2.7-.28,6.11,6.11,0,0,0,1.4-1.71c-1.14-.65-2.63-.47-3.85-1-1.51-.63-2.39-2.19-3.64-3.25a10.86,10.86,0,0,0-5.06-2.07,8.24,8.24,0,0,1-2.62-.77c-1.78-1-2.36-3.32-3.77-4.82s-3.34-2.14-4.1-3.89c-.89-2,.4-4.32,1.64-6.17,1.6-2.38,3.48-5,6.29-5.52,2.12-.43,4.34.42,6.47.07,1.33-.21,2.54-.88,3.87-1.1a20.65,20.65,0,0,1,3.93,0c5.49.14,11-2.83,16.3-1.48a13.76,13.76,0,0,1,7.52,5.54l.19.26C90.74,36.16,90.74,35.66,90.64,35.17Z"/><g class="cls-13"><path class="cls-14" d="M67.67,60.74l0,.08.15.1Z"/></g><g class="cls-13"><path class="cls-14" d="M69.12,62.65A4.13,4.13,0,0,0,67.83,61l0,0,1,1.57Z"/></g><path class="cls-15" d="M89.94,90.66a40.3,40.3,0,0,0-1.13-6.85,3.27,3.27,0,0,0-1.54-2.14,3.57,3.57,0,0,0-1.52-.2l-2.61,0c-1.53,0-3.22.1-4.31,1.17-1.25,1.23-1.19,3.23-1,5l.91,10.61a12.42,12.42,0,0,0,1.18,5.1,7.27,7.27,0,0,0,6.54,3.5c2.39-.07,7.46-1.74,6.72-4.85-.43-1.81-1.42-3.57-2-5.38A41.8,41.8,0,0,1,89.94,90.66Z"/><path class="cls-10" d="M70.93,82.66a9.35,9.35,0,0,0,3.22,3.13,8.51,8.51,0,0,0,3.75.59A41.2,41.2,0,0,0,87.78,85c2.35-.63,4.83-1.6,6.08-3.7a6.28,6.28,0,0,0,.51-4.88,9.27,9.27,0,0,0-2.73-4.17,12.38,12.38,0,0,0-13.26-2c-1.29.6-2.45,1.42-3.69,2.11a14.84,14.84,0,0,0-4,2.54C68.41,77.42,69.12,80.2,70.93,82.66Z"/><path class="cls-11" d="M81.77,73.65a2.4,2.4,0,0,0-1.19.11,1,1,0,0,0-.65.92.52.52,0,0,0,.18.39.77.77,0,0,0,.68,0l.35-.11a1.85,1.85,0,0,0,.79-.4.67.67,0,0,0,.17-.8c-.16-.26-.62-.26-.71,0"/><path class="cls-16" d="M80.74,108.1a26.31,26.31,0,0,1,7.57,2.21c1.75.75,3.61,1.58,5.48,1.23s3.48-2.54,2.5-4.17A3.12,3.12,0,0,0,98.38,109c.91.09,1.89-.89,1.46-1.7a.82.82,0,0,0,1.5,0,2.43,2.43,0,0,0,1.44,1.5c.69.18,1.57-.37,1.45-1.08a3.12,3.12,0,0,1,2.23,2.4,3.72,3.72,0,0,0,.27-2.52c2,.19,4.06.66,6.11.66a7.73,7.73,0,0,0,5.63-2,5.27,5.27,0,1,0-7.91-7,4.39,4.39,0,1,0-7.15-3,3,3,0,0,0-5.13-2.59c.22-.64-.88-.76-1.5-.48L95,94a8.21,8.21,0,0,0-1.66-4.15A2.56,2.56,0,0,0,92.25,89c-1.42-.51-2.66,1.53-2.08,2.92s2.09,2.12,3.48,2.72a2.49,2.49,0,0,0-3.11.63c-.73-.25-1.46.28-2.18.54s-1.85-.09-1.69-.84a1.49,1.49,0,0,1,.38-.62,4,4,0,0,0,.86-2.91c0-.52-.32-1.13-.84-1.16s-.91.69-1,1.27l-.91,3.82h-1l-.41-1.07a1.11,1.11,0,0,0-.5,1,.71.71,0,0,0-.59-.74l-.38.63a14.83,14.83,0,0,0-11.45-2.44,6.34,6.34,0,0,0-4.44,2.72,3.94,3.94,0,0,0,3.9,5.8,10,10,0,0,0-9.94.06,8.07,8.07,0,0,0-3.47,9c1.09,3.3,5,5.47,8.32,4.3,2.77-1,4.74-3.51,7.32-4.88A14.9,14.9,0,0,1,80.74,108.1Z"/><path class="cls-17" d="M146.67,49.64a12.16,12.16,0,0,0-5.54-9.4,27.35,27.35,0,0,0-7.24-5.5c-3.57-2.06-7.2-4.15-11.21-5.08a39,39,0,0,0-23.48,2c-3.56,1.5-5.84,3.39-8.43,4.69a9,9,0,0,0-.13-1.15A5.33,5.33,0,0,0,89.5,33c-2.51-3.15-6.65-4.68-10.67-4.82A33.15,33.15,0,0,0,67,30.41a7.3,7.3,0,0,1-2.47.54,11.67,11.67,0,0,1-3.67-1.22c-4-1.49-8.48.05-12.23,2.1-3.13,1.71-6.38,4.34-6.41,7.9,0,2,1.06,4,.78,6a17.91,17.91,0,0,1-.56,2.12,9.11,9.11,0,0,0,8,11.39,10.42,10.42,0,0,0,1.48,0c1.71,3.15,4.53,6.4,4.74,9.41.15,2.21-.19,4.44,0,6.65a27,27,0,0,0,2.59,8.15c1.55,3.53,3.17,7.17,6,9.78A18.27,18.27,0,0,0,67,94.63a3.86,3.86,0,0,0-.67.88,4,4,0,0,0,.19,4.09,3.79,3.79,0,0,0,.48.58,9.51,9.51,0,0,0-6.71,1.19,8.07,8.07,0,0,0-3.47,9c1.09,3.3,5,5.47,8.32,4.3,2.77-1,4.74-3.51,7.32-4.88a14.9,14.9,0,0,1,8.28-1.72,26.31,26.31,0,0,1,7.57,2.21c1.75.75,3.61,1.58,5.48,1.23s3.48-2.54,2.5-4.17A3.12,3.12,0,0,0,98.38,109c.86.09,1.77-.78,1.52-1.55a.84.84,0,0,0,1.44-.11,2.43,2.43,0,0,0,1.44,1.5c.69.18,1.57-.37,1.45-1.08a3.12,3.12,0,0,1,2.23,2.4,3.72,3.72,0,0,0,.27-2.52c2,.19,4.06.66,6.11.66a7.73,7.73,0,0,0,5.63-2,5.26,5.26,0,0,0-7.32-7.55,4.58,4.58,0,0,0,.51-4.84,4.36,4.36,0,0,0-1.91-1.82c.91-1.11,1.75-2.28,2.57-3.45a59,59,0,0,0,4.35-6.84c2.5-4.84,3.64-10.24,5.25-15.44S125.7,56,129.69,52.45a6.46,6.46,0,0,0,3.21-.13,5.31,5.31,0,0,0,4.68,4.12,9.5,9.5,0,0,0,6.29-1.83,6.11,6.11,0,0,0,2.57-2.92A5.66,5.66,0,0,0,146.67,49.64ZM89.53,87.3A23.76,23.76,0,0,0,89,84.65a8.34,8.34,0,0,0,4.82-3.32,6.28,6.28,0,0,0,.51-4.88,9.27,9.27,0,0,0-2.73-4.17,12.38,12.38,0,0,0-13.26-2,23.41,23.41,0,0,0-2.29,1.28A7.93,7.93,0,0,1,78,66.39c1.87-2,4.83-2.37,7.45-3.16a10.42,10.42,0,0,0,2.14-.89,17.2,17.2,0,0,0,3.12.61A9,9,0,0,0,98,59.37c.33.59.64,1.2.93,1.82,1.66,3.52,2.82,7.49,1.94,11.29a16.66,16.66,0,0,1-1.8,4.37C96.09,82.22,94.81,84.26,89.53,87.3Z"/><text class="cls-18" transform="translate(46.99 159.51)"><tspan class="cls-19">H</tspan><tspan class="cls-20" x="18.64" y="0">o</tspan><tspan class="cls-21" x="34.43" y="0">n</tspan><tspan class="cls-22" x="49.74" y="0">g</tspan><tspan x="66.06" y="0">o</tspan></text></g></g></g></svg>