<svg xmlns="http://www.w3.org/2000/svg" viewBox="0 0 150 150"><defs><style>.cls-1{isolation:isolate;}.cls-2{fill:#002451;opacity:0.27;}.cls-3{fill:#fff2cc;}.cls-4{fill:#29abe2;}.cls-5,.cls-7{opacity:0.2;}.cls-5{mix-blend-mode:multiply;}.cls-6{fill:#fff;}.cls-8{fill:#000f56;}.cls-9{fill:#614f4c;}.cls-10{fill:#5f524f;}.cls-11{fill:#847a77;}.cls-12{fill:#7f7471;}.cls-13{fill:#1c211d;}.cls-14{fill:none;stroke:#1e134d;stroke-linecap:round;stroke-linejoin:round;}</style></defs><title>lab02-</title><g class="cls-1"><g id="Layer_1" data-name="Layer 1"><rect class="cls-2" x="18.06" y="13.19" width="120.09" height="120.09" rx="36.12" ry="36.12"/><rect class="cls-3" x="14.96" y="10.09" width="120.09" height="120.09" rx="36.12" ry="36.12"/><path class="cls-4" d="M134.57,99.89H121.63A17.11,17.11,0,0,0,104.51,117v12.74A36.14,36.14,0,0,0,134.57,99.89Z"/><g class="cls-5"><rect x="116.92" y="108.39" width="1.38" height="10.82"/><polygon points="117.58 104.28 114.79 109.11 120.36 109.11 117.58 104.28"/><polygon points="117.61 123.23 120.4 118.4 114.83 118.4 117.61 123.23"/><rect x="112.2" y="113.11" width="10.82" height="1.38"/><polygon points="108.12 113.77 112.95 116.56 112.95 110.99 108.12 113.77"/><polygon points="127.07 113.74 122.24 110.95 122.24 116.53 127.07 113.74"/></g><rect class="cls-6" x="115.92" y="107.39" width="1.38" height="10.82"/><polygon class="cls-6" points="116.58 103.28 113.79 108.11 119.36 108.11 116.58 103.28"/><polygon class="cls-6" points="116.61 122.23 119.4 117.4 113.83 117.4 116.61 122.23"/><rect class="cls-6" x="111.2" y="112.11" width="10.82" height="1.38"/><polygon class="cls-6" points="107.12 112.77 111.95 115.56 111.95 109.99 107.12 112.77"/><polygon class="cls-6" points="126.07 112.74 121.24 109.95 121.24 115.53 126.07 112.74"/><g class="cls-7"><path class="cls-8" d="M106.35,69a4,4,0,0,1,7.19,2.68,4.21,4.21,0,0,1-2.35,3.52,4,4,0,0,1-5.06-5.88l.17-.25Zm-.07.12Zm0,0Zm3,2.28L107.62,68a3.75,3.75,0,0,0-2.06,3.09Z"/><path class="cls-8" d="M21.3,38.29c6.15-8.18,12.5-10,18.24-11.58A29,29,0,0,0,48,23.35l.18-.12a4.48,4.48,0,0,1,5.64.57c1.1,1.15,2,3.21-.13,6.48-1.52,2.35-4.33,3.2-7.89,4.28a35.41,35.41,0,0,0-9.7,4.08c-5.45,3.69-10,10.93-10.7,17.22A11.23,11.23,0,0,0,27.85,64a7,7,0,0,0,4.63,2.79A26.13,26.13,0,0,1,43,69.74l.73.36a24.29,24.29,0,0,0,2.33-.77c.64-.23,1.3-.47,2-.68l.23-.31c.34-1,.65-2,1-2.77a11.05,11.05,0,0,0,.5-1.56,7.72,7.72,0,0,1-1.18-1.22,8,8,0,0,1-1.42-4.24l0-.29a9.53,9.53,0,0,0-2-4.8L45,53.37a7,7,0,0,1-1.5-2.79,4.91,4.91,0,0,1,5.24-6.21h.07a6.71,6.71,0,0,1,1.76.09,5,5,0,0,1,1.81.76,5.56,5.56,0,0,1,1.15.44A6.91,6.91,0,0,1,57,50.31a15.53,15.53,0,0,1,.24,2.1c0,.22,0,.51,0,.7a7.61,7.61,0,0,0,2.39.51L63,54a15.91,15.91,0,0,1,6.64,1.84A10.67,10.67,0,0,1,74.3,61.9a3.2,3.2,0,0,0,2.91-.24c4.06-2.38,3.67-3.81,3.33-5.07-.2-.74-.37-1.51-.54-2.41l-.06-.35a25.82,25.82,0,0,1-.34-3.09c-.36-2.17-.91-3.07-1.62-3.74-.13-.13-.27-.24-.41-.36a13.88,13.88,0,0,1-1.16-1.1,13.2,13.2,0,0,1-2.25-3.65c-.14-.29-.27-.59-.42-.87a9.73,9.73,0,0,0-3.95-4,6.32,6.32,0,0,1-1.9-1.44,5.19,5.19,0,0,1-1-5A5.78,5.78,0,0,1,71,26.66a7.08,7.08,0,0,1,6.46,1.9,17.05,17.05,0,0,1,2.93,3.71A16.58,16.58,0,0,0,81.59,34a5.5,5.5,0,0,0,3.85,1.86,9.53,9.53,0,0,0,2.08-.19,35.88,35.88,0,0,1,4.36-1.29c.39-.09.85-.2,1.09-.28a10.21,10.21,0,0,0,.8-1.64l.66-1.57c1.27-3,3.18-7.55,3-9a6.68,6.68,0,0,1,1.92-6.12A6.19,6.19,0,0,1,102,14.38c2.26-.69,5.58-.5,9,3.92,2,2.56,5.12,6.29,7.08,8.49a26,26,0,0,1,4,5.88,10.08,10.08,0,0,1,3.16,2.91,4,4,0,0,1,.71,2.38c.56.82,1.1,1.62,1.66,2.41a4,4,0,0,1-.34,5,3,3,0,0,1-.36.35,17.29,17.29,0,0,1-.83,3,4,4,0,0,1-2.67,2.43,4,4,0,0,1-1.24,3.94,8.92,8.92,0,0,1-.82,1.67,3.19,3.19,0,0,1-.26.38,4,4,0,0,1-2.42,1.46,6.94,6.94,0,0,1-1.08.71c-.1.8-.2,1.61-.29,2.46s-.16,1.49-.26,2.23a4,4,0,0,1-1.69,2.79c-.11.39-.21.81-.31,1.25a14.67,14.67,0,0,1-2.17,5.53,4,4,0,0,1-2.35,1.58,25,25,0,0,0-1,2.38l-.11.3c-.35.86-.74,1.72-1.22,2.71a94.46,94.46,0,0,1-4.28,10.24,4.87,4.87,0,0,1-4.23,3,4.28,4.28,0,0,1-.62,0L93.59,99c-2.47,2.42-4.68,2.65-6.28,2.26l-8.9,4.06a6.11,6.11,0,0,1-5.09.3,4.73,4.73,0,0,1-1.41-1c-.6,0-1.22,0-1.85,0C55,104.28,44,91.29,41.11,85.07h0C40.14,83,38.57,81,33.72,80c-6.28-1.26-14.92-5.45-18.63-13.08-2.95-6-2.44-13.08,1.51-20.9A50.34,50.34,0,0,1,21.3,38.29Zm25.22,10.3h0Zm40,15.47a17.76,17.76,0,0,1-5.31,4.5c-4.89,2.86-9.14,1.16-12,0a4,4,0,0,1-2.5-3.45,3.11,3.11,0,0,0-1.26-2.46,9.44,9.44,0,0,0-3.4-.75l-3.31-.37c-.37,0-.85-.09-1.4-.18.88,2.77-.21,5.63-.75,7-.32.85-.65,1.8-1,3A3.8,3.8,0,0,1,55,72.64a13.23,13.23,0,0,0-1,1.5,4,4,0,0,1-2.71,1.91,18.5,18.5,0,0,0-2.47.8c-1,.35-1.94.7-2.91,1a16.86,16.86,0,0,1,2.44,3.86c1.76,3.74,10.58,14.72,21.94,15.06.86,0,1.77,0,2.74-.09q.82-.06,1.65-.09A4,4,0,0,1,77,97.2l9.7-4.43a4,4,0,0,1,2.17-.32l7.12-7a4,4,0,0,1,2-1.07c1-2.14,1.84-4.38,2.65-6.71a3.26,3.26,0,0,1,.2-.48c.44-.87.77-1.61,1.06-2.31l.1-.27c1.14-2.89,2.45-5.78,4.87-7,.12-.41.23-.88.34-1.38a18.9,18.9,0,0,1,1.28-4,5.5,5.5,0,0,1,.82-1.21V60.9c.17-1.49.34-3,.62-4.6a1.83,1.83,0,0,1,.06-.25l.21-.9a4,4,0,0,1,2.32-2.73c.31-.13.61-.27.91-.43a3.8,3.8,0,0,1,.85-.32c.09-.1.19-.19.3-.29a3.83,3.83,0,0,1,.17-1.22c-.1-.33-.22-.65-.34-1a3.93,3.93,0,0,1,.61-4,4,4,0,0,1,3.77-1.44l.12,0h.1l.06,0a7.63,7.63,0,0,0,0-1.17,2.82,2.82,0,0,1,0-.41l-.61-.9a5.64,5.64,0,0,1-.86-1.92,3.2,3.2,0,0,0-.37-.19,3.94,3.94,0,0,1-2-2.13,17.85,17.85,0,0,0-3.15-5c-1.89-2.11-4.78-5.56-6.86-8.18-.46,3-1.88,6.34-3.46,10.09l-.65,1.55c-2,4.85-3.89,5.78-7.39,6.62A27.49,27.49,0,0,0,90,43.31a3.58,3.58,0,0,1-.64.18,19.22,19.22,0,0,1-3.74.41,16.24,16.24,0,0,1,1.91,5.82c0,.15,0,.31,0,.46a18.89,18.89,0,0,0,.26,2.4s0,0,0,.05,0,.07,0,.1c.12.68.25,1.24.39,1.76A10.57,10.57,0,0,1,86.57,64.06ZM44.73,83.37h0Zm58.84-61.16Zm-28.7,76Zm35.25-31.95h0Zm0,0Z"/></g><path class="cls-6" d="M108,70.16a4,4,0,0,1,7.19,2.68,4.23,4.23,0,0,1-2.35,3.52,4,4,0,0,1-5.06-5.88l.17-.24A.35.35,0,0,1,108,70.16Zm-.07.12Zm0,0h0Zm3,2.28-1.67-3.35a3.73,3.73,0,0,0-2.06,3.09Z"/><path class="cls-6" d="M22.9,39.49c6.15-8.18,12.5-10,18.23-11.58a28.83,28.83,0,0,0,8.42-3.36l.19-.11a4.46,4.46,0,0,1,5.64.56c1.1,1.15,2,3.21-.13,6.48-1.53,2.35-4.33,3.2-7.89,4.28a35.14,35.14,0,0,0-9.7,4.09C32.21,43.53,27.71,50.77,27,57.06a11.22,11.22,0,0,0,2.49,8.15A7,7,0,0,0,34.08,68a25.92,25.92,0,0,1,10.53,3l.73.35a23.08,23.08,0,0,0,2.32-.76c.65-.24,1.3-.48,2-.69l.23-.31c.34-1.05.65-1.94,1-2.77a10.65,10.65,0,0,0,.5-1.56A7.3,7.3,0,0,1,50.14,64a8,8,0,0,1-1.42-4.24l0-.29a9.53,9.53,0,0,0-2-4.8l-.08-.09a7,7,0,0,1-1.5-2.78,5,5,0,0,1,3.5-6.09,5.29,5.29,0,0,1,1.74-.13h.07a6.71,6.71,0,0,1,1.76.09,5,5,0,0,1,1.81.76,5.27,5.27,0,0,1,1.14.44,6.88,6.88,0,0,1,3.49,4.66,14.23,14.23,0,0,1,.25,2.1c0,.23,0,.51.05.7a7.61,7.61,0,0,0,2.39.51l3.31.37A15.76,15.76,0,0,1,71.26,57a10.61,10.61,0,0,1,4.63,6.07,3.22,3.22,0,0,0,2.92-.24c4-2.38,3.67-3.81,3.33-5.07-.2-.74-.38-1.51-.54-2.41a2,2,0,0,1-.06-.35A25.89,25.89,0,0,1,81.2,52c-.36-2.17-.91-3.08-1.62-3.75l-.41-.36A13.84,13.84,0,0,1,78,46.74a13.39,13.39,0,0,1-2.24-3.65l-.42-.87a9.73,9.73,0,0,0-4-4,6.32,6.32,0,0,1-1.9-1.44,5.21,5.21,0,0,1-1-5,5.79,5.79,0,0,1,4.07-3.86A7.09,7.09,0,0,1,79,29.76,17.05,17.05,0,0,1,82,33.47a15.81,15.81,0,0,0,1.23,1.77A5.58,5.58,0,0,0,87,37.1a9.53,9.53,0,0,0,2.08-.2,39.33,39.33,0,0,1,4.36-1.29c.39-.09.85-.2,1.09-.28a9.73,9.73,0,0,0,.8-1.64L96,32.12c1.26-3,3.18-7.55,3-9A6.69,6.69,0,0,1,100.92,17a6.19,6.19,0,0,1,2.64-1.43c2.26-.69,5.58-.5,9,3.92,2,2.56,5.12,6.29,7.08,8.49a26.34,26.34,0,0,1,4,5.88,10.11,10.11,0,0,1,3.16,2.92,4,4,0,0,1,.71,2.37c.55.82,1.1,1.62,1.66,2.42a4,4,0,0,1-.34,5,3.15,3.15,0,0,1-.37.36,16.33,16.33,0,0,1-.82,3A4,4,0,0,1,125,52.37a4,4,0,0,1-1.25,3.93,8.87,8.87,0,0,1-.81,1.67,3.19,3.19,0,0,1-.26.38,4,4,0,0,1-2.42,1.47,8.75,8.75,0,0,1-1.08.71c-.11.79-.2,1.6-.29,2.45s-.16,1.49-.26,2.23A4.05,4.05,0,0,1,116.93,68c-.11.39-.21.82-.31,1.26a14.73,14.73,0,0,1-2.17,5.53,4,4,0,0,1-2.35,1.57,25,25,0,0,0-1,2.38l-.12.31c-.34.85-.73,1.72-1.22,2.7A91.69,91.69,0,0,1,105.44,92a4.87,4.87,0,0,1-4.23,3,4.28,4.28,0,0,1-.62,0l-5.4,5.31c-2.47,2.42-4.68,2.65-6.28,2.26L80,106.56a6.11,6.11,0,0,1-5.09.3,4.44,4.44,0,0,1-1.41-1c-.6,0-1.22,0-1.86,0-15.1-.44-26-13.43-28.94-19.65h0c-1-2.07-2.54-4.12-7.39-5.09C29,79.91,20.4,75.73,16.68,68.09,13.74,62,14.25,55,18.19,47.19A51.14,51.14,0,0,1,22.9,39.49Zm25.22,10.3h0ZM88.17,65.26a17.76,17.76,0,0,1-5.31,4.5c-4.89,2.86-9.14,1.17-12,0a4,4,0,0,1-2.5-3.45,3.11,3.11,0,0,0-1.26-2.46,9.44,9.44,0,0,0-3.4-.75l-3.31-.36c-.37,0-.85-.1-1.4-.19.88,2.77-.21,5.63-.75,7-.32.84-.65,1.79-1,3a3.88,3.88,0,0,1-.65,1.22,14.71,14.71,0,0,0-1,1.51,4,4,0,0,1-2.72,1.9,18.43,18.43,0,0,0-2.46.8c-1,.35-1.94.71-2.91,1A16.86,16.86,0,0,1,50,82.87c1.76,3.75,10.58,14.73,21.94,15.06.86,0,1.77,0,2.74-.09l1.64-.09a4,4,0,0,1,2.34.65L88.31,94a3.92,3.92,0,0,1,2.17-.33l7.13-7a4,4,0,0,1,2-1.06c1-2.15,1.84-4.39,2.64-6.72a5,5,0,0,1,.21-.48c.44-.87.77-1.61,1-2.31l.11-.27c1.14-2.89,2.45-5.78,4.87-7,.12-.42.23-.89.34-1.38a18.25,18.25,0,0,1,1.28-4,5.94,5.94,0,0,1,.81-1.21l0-.13c.16-1.49.33-3,.62-4.6a2.21,2.21,0,0,1,0-.25l.22-.9a4,4,0,0,1,2.32-2.73c.31-.13.61-.27.91-.42a3.4,3.4,0,0,1,.85-.33c.09-.1.19-.19.3-.29a3.83,3.83,0,0,1,.17-1.22c-.11-.33-.22-.65-.34-1a3.93,3.93,0,0,1,.61-4A4,4,0,0,1,120.41,45l.12,0h.1l.05,0a7.64,7.64,0,0,0,0-1.17c0-.14,0-.27,0-.41l-.6-.9a5.54,5.54,0,0,1-.86-1.92l-.37-.18a4,4,0,0,1-2-2.14,18,18,0,0,0-3.16-4.95c-1.88-2.11-4.77-5.56-6.85-8.17-.46,3-1.88,6.33-3.46,10.08l-.65,1.55c-2,4.85-3.89,5.78-7.4,6.62a29,29,0,0,0-3.74,1.12,3.58,3.58,0,0,1-.64.18,18.47,18.47,0,0,1-3.74.41,16.19,16.19,0,0,1,1.9,5.83,3.44,3.44,0,0,1,.05.45,19,19,0,0,0,.26,2.41s0,0,0,0,0,.07,0,.11a17.26,17.26,0,0,0,.39,1.75A10.57,10.57,0,0,1,88.17,65.26ZM46.33,84.57h0Zm58.84-61.16Zm-28.7,76Zm35.24-31.95h0Zm0,0h0Z"/><path class="cls-9" d="M116,34.74c.49.27.93.66,1.42.91a21.08,21.08,0,0,0,2.29.73,7.88,7.88,0,0,1,3.85,2.68.51.51,0,0,0-.36.56,1.47,1.47,0,0,0,.3.66c.8,1.2,1.61,2.4,2.43,3.58a1.54,1.54,0,0,0-1.17-.15,12.5,12.5,0,0,1-.81,4.8.87.87,0,0,0-1.1-.15,3.47,3.47,0,0,0-.85.86,1.6,1.6,0,0,1-1,.65c.19-.22,0-.59-.22-.73a2.22,2.22,0,0,0-.85-.17,6,6,0,0,1-2.41-1.07,7,7,0,0,1-1.38-1c-.7-.73-1.05-1.73-1.7-2.51-.36-.44-.81-.8-1.16-1.25-1.08-1.38-1.1-3.3-1-5.05"/><path class="cls-10" d="M111.15,72.57c-.06.07-.09.15-.15.21A.24.24,0,0,0,111.15,72.57Z"/><path class="cls-11" d="M46.33,84.57c2.11,4.48,11.87,17,25.44,17.36,1.55,0,3.11-.12,4.66-.18-.63.14-.5,1.19.08,1.45a2.38,2.38,0,0,0,1.84-.28L90,97.61l-.35.93c1,.39,2-.41,2.76-1.15l8-7.89c-.08.61,0,1.47.66,1.45.38,0,.61-.39.78-.73a88.69,88.69,0,0,0,4.17-10c.43-.84.83-1.71,1.2-2.63.58-1.46,2.28-6.1,4-5.1,1.53-2.14,1.39-4.95,2.51-7.28.19-.38.67-.78,1-.47.28-2.17.44-4.36.83-6.49.14-.52.27-1.06.4-1.63,0-.19.09-.37.13-.54l0,0a15.14,15.14,0,0,1,1.13-2.9c1.41-2.75,3.11-5.07,4.05-8.08,2-6.38-2.54-12.31-4.45-14.45s-5.09-5.94-7.24-8.68-3.71-2.92-4.85-2.52c0,0-2,.29-1.65,3.12s-1.8,7.63-3.9,12.66-2.75,3.24-8.86,5.54a14.49,14.49,0,0,1-3.34.32,9.49,9.49,0,0,1-6.69-3.24c-1.4-1.61-2.24-3.69-3.83-5.13a3.22,3.22,0,0,0-2.81-1c-1,.25-1.69,1.6-1,2.39a2.5,2.5,0,0,0,.78.53,13.82,13.82,0,0,1,5.59,5.72A15.56,15.56,0,0,0,81,44c.42.46.93.84,1.38,1.27,1.63,1.54,2.42,3.46,2.85,6.24a22,22,0,0,0,.32,2.93v0a.53.53,0,0,0,0,.12A21.5,21.5,0,0,0,86,56.74c1.16,4.28-1,7.1-5.17,9.57-3.1,1.82-5.66.88-8.43-.22a7.06,7.06,0,0,0-3.2-5.63,12.13,12.13,0,0,0-5-1.3l-3.31-.36c-2.16-.24-4.71-.74-5.6-2.73-.52-1.15-.3-2.49-.56-3.73s-1.48-2.5-2.63-2c.05-.38-.32-.7-.7-.78a7.36,7.36,0,0,0-1.15,0,1.84,1.84,0,0,0-.62,0A1,1,0,0,0,49,50.84a3.42,3.42,0,0,0,.81,1.32A13.42,13.42,0,0,1,52.66,59a5.15,5.15,0,0,0,.68,2.58c.37.5.95.81,1.36,1.28,1.22,1.42.52,3.58-.15,5.33-.4,1-.76,2.12-1.1,3.2a17.45,17.45,0,0,0-1.3,1.92c-2.42.45-6,2.46-7.66,1.94-1.87-.57-4.2-2.74-10.74-3.28S22.14,63.67,23,56.59,28.7,41.07,35.42,36.53s14.93-4.83,16.46-7.22-.13-1.41-.13-1.41c-9.88,6.48-20.07,1.44-30,21.1s7.82,26.94,14.34,28.25S45,81.73,46.33,84.57Z"/><path class="cls-9" d="M117.67,44.78a22.54,22.54,0,0,1,2,5.56c.31,1.92.61,4-1.9,5.71S110.94,57.43,109,55s-1.69-4.25-.34-6.9,1.87-3.5,1.83-4.57a1.39,1.39,0,0,1,2.55-.63c.78,1.27,1.31,1.25,1.73.45a1.27,1.27,0,0,1,1.77-.41c.89.54.68,1.89,1.26,2.62,2,2.51,2.48,5,3.28,7.77a1.51,1.51,0,0,0-.9-.78,4.68,4.68,0,0,1-.69,3.36c.16-.2-.13-.5-.39-.44a1.12,1.12,0,0,0-.58.48A4.23,4.23,0,0,1,117,57.14l-.1-.4a16.91,16.91,0,0,1-4.13,1.51c0-.32.61-.51.44-.78a.41.41,0,0,0-.31-.13L111,57.15a.79.79,0,0,0,.18-.89,2.93,2.93,0,0,0-.55-.8c-.72-.85-1.29-2.07-.77-3.05a4.38,4.38,0,0,1,1.31-1.26,14.7,14.7,0,0,0,3.48-4.71"/><ellipse class="cls-12" cx="111.13" cy="35.13" rx="2.01" ry="2.6" transform="translate(-4.88 46.32) rotate(-23.05)"/><path class="cls-13" d="M110.33,33.33a2.11,2.11,0,0,1,1.36.24,1.94,1.94,0,0,1,1,1.16,2,2,0,0,1-.18,1.5,2.16,2.16,0,0,1-1,1,3.53,3.53,0,0,0,.28-2.18A4.81,4.81,0,0,0,110.33,33.33Z"/><path class="cls-14" d="M111.15,72.57c-.06.07-.09.15-.15.21A.24.24,0,0,0,111.15,72.57Z"/><path class="cls-14" d="M46.33,84.57c2.11,4.48,11.87,17,25.44,17.36,1.55,0,3.11-.12,4.66-.18-.63.14-.5,1.19.08,1.45a2.38,2.38,0,0,0,1.84-.28L90,97.61c-.11.31-.23.62-.35.93,1,.39,2-.41,2.76-1.15l8-7.89c-.08.61,0,1.47.66,1.45.38,0,.62-.39.78-.73a88.69,88.69,0,0,0,4.17-10c.43-.84.83-1.71,1.2-2.63.58-1.45,2.28-6.1,4-5.1,1.53-2.14,1.39-4.95,2.51-7.28.19-.38.67-.78,1-.47.28-2.17.44-4.36.83-6.49.08-.29.15-.61.23-.92.4-.17.81-.36,1.2-.56,0,.13.07.26.1.4a4.23,4.23,0,0,0,1.53-1.22,1.12,1.12,0,0,1,.58-.48c.26-.06.55.24.39.44a4.63,4.63,0,0,0,.69-3.36,1.51,1.51,0,0,1,.9.78c-.44-1.52-.79-3-1.35-4.37l.16,0a2.22,2.22,0,0,1,.85.17c.25.14.41.51.22.73a1.6,1.6,0,0,0,1-.65,3.47,3.47,0,0,1,.85-.86.87.87,0,0,1,1.1.15,12.5,12.5,0,0,0,.81-4.8,1.54,1.54,0,0,1,1.17.15c-.82-1.18-1.63-2.38-2.43-3.58a1.47,1.47,0,0,1-.3-.66.51.51,0,0,1,.36-.56,7,7,0,0,0-3-2.3,22.1,22.1,0,0,0-3.88-6.11c-1.91-2.14-5.09-5.94-7.24-8.68s-3.71-2.92-4.85-2.52c0,0-2,.29-1.65,3.12s-1.8,7.63-3.9,12.66-2.75,3.24-8.86,5.54a14.49,14.49,0,0,1-3.34.32,9.49,9.49,0,0,1-6.69-3.24c-1.4-1.61-2.24-3.69-3.82-5.13a3.25,3.25,0,0,0-2.82-1c-1,.25-1.69,1.6-1,2.39a2.5,2.5,0,0,0,.78.53,13.82,13.82,0,0,1,5.59,5.72A15.56,15.56,0,0,0,81,44c.42.46.93.84,1.38,1.27,1.63,1.54,2.42,3.46,2.85,6.24a22,22,0,0,0,.32,2.93v0l0,.12A21.5,21.5,0,0,0,86,56.74c1.16,4.28-1,7.1-5.17,9.57-3.1,1.82-5.66.88-8.43-.22a7.06,7.06,0,0,0-3.2-5.63,12.13,12.13,0,0,0-5-1.3l-3.31-.36c-2.16-.24-4.71-.74-5.6-2.73-.52-1.15-.3-2.49-.56-3.73s-1.48-2.5-2.63-2c.05-.38-.32-.7-.7-.78a7.36,7.36,0,0,0-1.15,0,1.84,1.84,0,0,0-.62,0A1,1,0,0,0,49,50.84a3.42,3.42,0,0,0,.81,1.32A13.42,13.42,0,0,1,52.66,59a5.15,5.15,0,0,0,.68,2.58c.37.5.95.81,1.36,1.28,1.22,1.42.52,3.58-.15,5.33-.4,1-.76,2.12-1.1,3.2a17.45,17.45,0,0,0-1.3,1.92c-2.42.45-6,2.46-7.66,1.94-1.87-.57-4.2-2.74-10.74-3.28S22.14,63.67,23,56.59,28.7,41.07,35.42,36.53s14.93-4.83,16.46-7.22-.13-1.41-.13-1.41c-9.88,6.48-20.07,1.44-30,21.1s7.82,26.94,14.34,28.25S45,81.73,46.33,84.57Z"/></g></g></svg>