<svg xmlns="http://www.w3.org/2000/svg" viewBox="0 0 516.76 80.2"><defs><style>.cls-1{isolation:isolate;}.cls-2{opacity:0.3;mix-blend-mode:multiply;}.cls-18,.cls-3,.cls-36{font-size:27.64px;}.cls-3{stroke:#000;}.cls-18,.cls-3{stroke-linejoin:round;stroke-width:5px;}.cls-4{letter-spacing:-0.01em;}.cls-10,.cls-11,.cls-12,.cls-13,.cls-14,.cls-15,.cls-16,.cls-17,.cls-29,.cls-30,.cls-31,.cls-32,.cls-33,.cls-34,.cls-35,.cls-5,.cls-6,.cls-7,.cls-8,.cls-9{font-size:34.8px;}.cls-5{letter-spacing:-0.01em;}.cls-6{letter-spacing:-0.01em;}.cls-7{letter-spacing:-0.01em;}.cls-8{letter-spacing:-0.01em;}.cls-10{letter-spacing:-0.01em;}.cls-11{letter-spacing:-0.01em;}.cls-12{letter-spacing:-0.03em;}.cls-13{letter-spacing:-0.01em;}.cls-14{letter-spacing:0em;}.cls-15{letter-spacing:-0.02em;}.cls-16{letter-spacing:-0.03em;}.cls-17{letter-spacing:-0.01em;}.cls-18,.cls-36{fill:#fff;}.cls-18{stroke:#066;}.cls-19{letter-spacing:0em;}.cls-20{letter-spacing:-0.02em;}.cls-21{letter-spacing:-0.01em;}.cls-22{letter-spacing:-0.01em;}.cls-23{letter-spacing:-0.01em;}.cls-24{letter-spacing:-0.03em;}.cls-25{letter-spacing:-0.01em;}.cls-26{letter-spacing:-0.01em;}.cls-27{letter-spacing:-0.02em;}.cls-28{letter-spacing:0em;}.cls-29{letter-spacing:0em;}.cls-30{letter-spacing:0em;}.cls-31{letter-spacing:-0.01em;}.cls-32{letter-spacing:-0.01em;}.cls-33{letter-spacing:-0.01em;}.cls-34{letter-spacing:-0.01em;}.cls-35{letter-spacing:-0.01em;}</style></defs><title>19</title><g class="cls-1"><g id="Capa_2" data-name="Capa 2"><g id="Layer_1" data-name="Layer 1"><g class="cls-2"><text class="cls-3" transform="translate(146.53 68.24)"><tspan class="cls-4">d</tspan><tspan x="16.42" y="0">e </tspan><tspan class="cls-5" x="39.33" y="0">a</tspan><tspan class="cls-6" x="60.53" y="0">lgu</tspan><tspan class="cls-7" x="111.22" y="0">n</tspan><tspan class="cls-8" x="131.62" y="0">o</tspan><tspan class="cls-9" x="152.67" y="0">s </tspan><tspan class="cls-10" x="179.19" y="0">s</tspan><tspan class="cls-11" x="195.63" y="0">e</tspan><tspan class="cls-12" x="215.4" y="0">r</tspan><tspan class="cls-13" x="229.54" y="0">e</tspan><tspan class="cls-14" x="249.29" y="0">s </tspan><tspan class="cls-15" x="275.81" y="0">vi</tspan><tspan class="cls-16" x="302.41" y="0">v</tspan><tspan class="cls-8" x="320.9" y="0">o</tspan><tspan class="cls-17" x="341.95" y="0">s</tspan><tspan class="cls-9" x="358.28" y="0">!</tspan></text></g><text class="cls-18" transform="translate(143.53 65.24)"><tspan class="cls-4">d</tspan><tspan x="16.42" y="0">e </tspan><tspan class="cls-5" x="39.33" y="0">a</tspan><tspan class="cls-6" x="60.53" y="0">lgu</tspan><tspan class="cls-7" x="111.22" y="0">n</tspan><tspan class="cls-8" x="131.62" y="0">o</tspan><tspan class="cls-9" x="152.67" y="0">s </tspan><tspan class="cls-10" x="179.19" y="0">s</tspan><tspan class="cls-11" x="195.63" y="0">e</tspan><tspan class="cls-12" x="215.4" y="0">r</tspan><tspan class="cls-13" x="229.54" y="0">e</tspan><tspan class="cls-14" x="249.29" y="0">s </tspan><tspan class="cls-15" x="275.81" y="0">vi</tspan><tspan class="cls-16" x="302.41" y="0">v</tspan><tspan class="cls-8" x="320.9" y="0">o</tspan><tspan class="cls-17" x="341.95" y="0">s</tspan><tspan class="cls-9" x="358.28" y="0">!</tspan></text><g class="cls-2"><text class="cls-3" transform="translate(6.51 35.08)"><tspan class="cls-19">¡E</tspan><tspan class="cls-20" x="20.79" y="0">x</tspan><tspan class="cls-21" x="33.7" y="0">p</tspan><tspan class="cls-22" x="49.97" y="0">l</tspan><tspan class="cls-23" x="56.01" y="0">o</tspan><tspan class="cls-24" x="72.22" y="0">r</tspan><tspan class="cls-25" x="82.05" y="0">e</tspan><tspan class="cls-26" x="97.14" y="0">m</tspan><tspan class="cls-27" x="122.03" y="0">o</tspan><tspan x="138.01" y="0">s </tspan><tspan class="cls-22" x="158.52" y="0">l</tspan><tspan class="cls-27" x="164.56" y="0">o</tspan><tspan class="cls-28" x="180.54" y="0">s </tspan><tspan class="cls-29" x="201.05" y="0">c</tspan><tspan class="cls-30" x="218.85" y="0">i</tspan><tspan class="cls-31" x="226.92" y="0">c</tspan><tspan class="cls-32" x="244.43" y="0">l</tspan><tspan class="cls-33" x="253.38" y="0">o</tspan><tspan class="cls-9" x="274.43" y="0">s </tspan><tspan class="cls-34" x="300.95" y="0">d</tspan><tspan class="cls-9" x="322.34" y="0">e </tspan><tspan class="cls-15" x="352.27" y="0">v</tspan><tspan class="cls-30" x="371.24" y="0">i</tspan><tspan class="cls-35" x="379.31" y="0">d</tspan><tspan class="cls-9" x="400.77" y="0">a</tspan></text></g><text class="cls-18" transform="translate(3.51 32.08)"><tspan class="cls-19">¡E</tspan><tspan class="cls-20" x="20.79" y="0">x</tspan><tspan class="cls-21" x="33.7" y="0">p</tspan><tspan class="cls-22" x="49.97" y="0">l</tspan><tspan class="cls-23" x="56.01" y="0">o</tspan><tspan class="cls-24" x="72.22" y="0">r</tspan><tspan class="cls-25" x="82.05" y="0">e</tspan><tspan class="cls-26" x="97.14" y="0">m</tspan><tspan class="cls-27" x="122.03" y="0">o</tspan><tspan x="138.01" y="0">s </tspan><tspan class="cls-22" x="158.52" y="0">l</tspan><tspan class="cls-27" x="164.56" y="0">o</tspan><tspan class="cls-28" x="180.54" y="0">s </tspan><tspan class="cls-29" x="201.05" y="0">c</tspan><tspan class="cls-30" x="218.85" y="0">i</tspan><tspan class="cls-31" x="226.92" y="0">c</tspan><tspan class="cls-32" x="244.43" y="0">l</tspan><tspan class="cls-33" x="253.38" y="0">o</tspan><tspan class="cls-9" x="274.43" y="0">s </tspan><tspan class="cls-34" x="300.95" y="0">d</tspan><tspan class="cls-9" x="322.34" y="0">e </tspan><tspan class="cls-15" x="352.27" y="0">v</tspan><tspan class="cls-30" x="371.24" y="0">i</tspan><tspan class="cls-35" x="379.31" y="0">d</tspan><tspan class="cls-9" x="400.77" y="0">a</tspan></text><text class="cls-36" transform="translate(143.53 65.24)"><tspan class="cls-4">d</tspan><tspan x="16.42" y="0">e </tspan><tspan class="cls-5" x="39.33" y="0">a</tspan><tspan class="cls-6" x="60.53" y="0">lgu</tspan><tspan class="cls-7" x="111.22" y="0">n</tspan><tspan class="cls-8" x="131.62" y="0">o</tspan><tspan class="cls-9" x="152.67" y="0">s </tspan><tspan class="cls-10" x="179.19" y="0">s</tspan><tspan class="cls-11" x="195.63" y="0">e</tspan><tspan class="cls-12" x="215.4" y="0">r</tspan><tspan class="cls-13" x="229.54" y="0">e</tspan><tspan class="cls-14" x="249.29" y="0">s </tspan><tspan class="cls-15" x="275.81" y="0">vi</tspan><tspan class="cls-16" x="302.41" y="0">v</tspan><tspan class="cls-8" x="320.9" y="0">o</tspan><tspan class="cls-17" x="341.95" y="0">s</tspan><tspan class="cls-9" x="358.28" y="0">!</tspan></text><text class="cls-36" transform="translate(3.51 32.08)"><tspan class="cls-19">¡E</tspan><tspan class="cls-20" x="20.79" y="0">x</tspan><tspan class="cls-21" x="33.7" y="0">p</tspan><tspan class="cls-22" x="49.97" y="0">l</tspan><tspan class="cls-23" x="56.01" y="0">o</tspan><tspan class="cls-24" x="72.22" y="0">r</tspan><tspan class="cls-25" x="82.05" y="0">e</tspan><tspan class="cls-26" x="97.14" y="0">m</tspan><tspan class="cls-27" x="122.03" y="0">o</tspan><tspan x="138.01" y="0">s </tspan><tspan class="cls-22" x="158.52" y="0">l</tspan><tspan class="cls-27" x="164.56" y="0">o</tspan><tspan class="cls-28" x="180.54" y="0">s </tspan><tspan class="cls-29" x="201.05" y="0">c</tspan><tspan class="cls-30" x="218.85" y="0">i</tspan><tspan class="cls-31" x="226.92" y="0">c</tspan><tspan class="cls-32" x="244.43" y="0">l</tspan><tspan class="cls-33" x="253.38" y="0">o</tspan><tspan class="cls-9" x="274.43" y="0">s </tspan><tspan class="cls-34" x="300.95" y="0">d</tspan><tspan class="cls-9" x="322.34" y="0">e </tspan><tspan class="cls-15" x="352.27" y="0">v</tspan><tspan class="cls-30" x="371.24" y="0">i</tspan><tspan class="cls-35" x="379.31" y="0">d</tspan><tspan class="cls-9" x="400.77" y="0">a</tspan></text></g></g></g></svg>