<svg xmlns="http://www.w3.org/2000/svg" viewBox="0 0 150 150"><defs><style>.cls-1{isolation:isolate;}.cls-2{fill:#002451;opacity:0.27;}.cls-3{fill:#fff2cc;}.cls-4{fill:#29abe2;}.cls-5,.cls-7{opacity:0.2;}.cls-5{mix-blend-mode:multiply;}.cls-6{fill:#fff;}.cls-8{fill:#000f56;}.cls-9{fill:#506b3e;}.cls-10{fill:#a56438;}.cls-11{fill:#559e46;}.cls-12{fill:none;stroke:#1e134d;stroke-linecap:round;stroke-linejoin:round;stroke-width:0.83px;}</style></defs><title>lab02-</title><g class="cls-1"><g id="Layer_1" data-name="Layer 1"><rect class="cls-2" x="18.06" y="13.19" width="120.09" height="120.09" rx="36.12" ry="36.12"/><rect class="cls-3" x="14.96" y="10.09" width="120.09" height="120.09" rx="36.12" ry="36.12"/><path class="cls-4" d="M134.57,99.89H121.63A17.11,17.11,0,0,0,104.51,117v12.74A36.14,36.14,0,0,0,134.57,99.89Z"/><g class="cls-5"><rect x="116.92" y="108.39" width="1.38" height="10.82"/><polygon points="117.58 104.28 114.79 109.11 120.36 109.11 117.58 104.28"/><polygon points="117.61 123.23 120.4 118.4 114.83 118.4 117.61 123.23"/><rect x="112.2" y="113.11" width="10.82" height="1.38"/><polygon points="108.12 113.77 112.95 116.56 112.95 110.99 108.12 113.77"/><polygon points="127.07 113.74 122.24 110.95 122.24 116.53 127.07 113.74"/></g><rect class="cls-6" x="115.92" y="107.39" width="1.38" height="10.82"/><polygon class="cls-6" points="116.58 103.28 113.79 108.11 119.36 108.11 116.58 103.28"/><polygon class="cls-6" points="116.61 122.23 119.4 117.4 113.83 117.4 116.61 122.23"/><rect class="cls-6" x="111.2" y="112.11" width="10.82" height="1.38"/><polygon class="cls-6" points="107.12 112.77 111.95 115.56 111.95 109.99 107.12 112.77"/><polygon class="cls-6" points="126.07 112.74 121.24 109.95 121.24 115.53 126.07 112.74"/><g class="cls-7"><path class="cls-8" d="M77,140.69c-2.66,0-4.86-1.84-6-4.88-3.24,2.4-6.66,2.9-9,1.87A4.93,4.93,0,0,1,59.43,135a5.22,5.22,0,0,1-.23-.81c-2.74.6-5.6.81-7.17.18a5,5,0,0,1-3.14-4,5.24,5.24,0,0,1,2.18-4.95,58,58,0,0,1,6.82-4.2,48.89,48.89,0,0,0,7-4.41,87.21,87.21,0,0,1,.66-12.43c.44-4.5.94-9.59.28-11.75a12,12,0,0,1-.47-4.37c0-1,.08-1.87-2.88-5.7a39.36,39.36,0,0,0-4.58-4.76c-.25,0-.5.1-.77.13a6.2,6.2,0,0,1-1.49,0,8.49,8.49,0,0,1-6.83,1,7.18,7.18,0,0,1-5.23-5.82,4.89,4.89,0,0,1-.05-.66c-.31.06-.63.11-.95.14a7.38,7.38,0,0,1-6.19-2.41,6.57,6.57,0,0,1-.69-1A10.63,10.63,0,0,1,34.47,69c-.27-.06-.54-.15-.82-.24a9.71,9.71,0,0,1-4.25-3A9.19,9.19,0,0,1,28.31,64a8.08,8.08,0,0,1-.79-3.74,7.86,7.86,0,0,1,.07-.87l.07-.34c0-.15.07-.33.11-.5a2.81,2.81,0,0,1,.1-.31c.05-.18.11-.33.16-.48l.11-.25a1,1,0,0,1,0-.1c0-.05.05-.09.07-.14l-.43-.4-.32-.34c-.22,0-.45.06-.67.07a7.14,7.14,0,0,1-4.36-1.07,6.05,6.05,0,0,1-2.28-2.64,6.56,6.56,0,0,1-.28-.71,6.45,6.45,0,0,1-.3-2.53,8.55,8.55,0,0,1-.67-4.28,7.34,7.34,0,0,1,.16-1,8.57,8.57,0,0,1,.79-2.18A6.83,6.83,0,0,1,22.8,35.3L23,35a5.51,5.51,0,0,1,1.49-1.72,6.72,6.72,0,0,1,.79-.52c.23-.12.46-.23.7-.33a7.65,7.65,0,0,1,1.71-1.5,6.93,6.93,0,0,1-.73-1.56,6.53,6.53,0,0,1-.3-2.7A6.78,6.78,0,0,1,27.47,24a8.2,8.2,0,0,1,1.26-1.68,9.52,9.52,0,0,1,2.53-1.85A6.9,6.9,0,0,1,32,18.85a7,7,0,0,1,2.22-2.17,8,8,0,0,1,1.25-.6,6.1,6.1,0,0,1,1.6-1.52,5.88,5.88,0,0,1,3-1A7,7,0,0,1,41.26,13a5.9,5.9,0,0,1,2.33-.5,5.78,5.78,0,0,1,.72,0,5.94,5.94,0,0,1,.86.15,4.52,4.52,0,0,1,1.12-.25,9.56,9.56,0,0,1,2.3-3.05,8.78,8.78,0,0,1,4.72-2.16c.34,0,.68-.06,1-.07h.21a9.77,9.77,0,0,1,4.29,1.08,10.6,10.6,0,0,1,1.93,1.28l.2,0a6.29,6.29,0,0,1,2-1l.09-.16a5.2,5.2,0,0,1,.29-.45l.22-.31.32-.4.28-.32.35-.34c.12-.12.27-.24.43-.37l.33-.25c.18-.13.34-.23.51-.33a4.72,4.72,0,0,1,.46-.26,5.87,5.87,0,0,1,.55-.25l.4-.15a7,7,0,0,1,1-.26l.13,0c.28,0,.57-.07.86-.09a7.49,7.49,0,0,1,1,0A8.73,8.73,0,0,1,72.68,5,11.76,11.76,0,0,1,74,5.69a11.22,11.22,0,0,1,2.56,2.08l.14,0a3.86,3.86,0,0,1,.49-.06l.38,0H78l.34,0,.49.06.3.06.38.08h0l.27-.11.37-.14.28-.09.13,0,.32-.07.36-.08.39-.06.36,0,.5,0h.35a5.56,5.56,0,0,1,.82.09,7.11,7.11,0,0,1,3.35,1.55,7.64,7.64,0,0,1,2.59,4.25h0v0h0l.11-.1a8,8,0,0,1,.68-.61,8.55,8.55,0,0,1,8.39-1.1,9.19,9.19,0,0,1,1.51.74,8,8,0,0,1,2.12-.21h.13a7.47,7.47,0,0,1,2.17.43,9.15,9.15,0,0,1,2.88,1.7,8.52,8.52,0,0,1,8.88,3.67,8.55,8.55,0,0,1,1,1.94l0,.11a11.43,11.43,0,0,1,3.08,1.7,10.85,10.85,0,0,1,2.15,2.23,11.85,11.85,0,0,1,.81,1.31,10,10,0,0,1,.64,8,8.79,8.79,0,0,1-.35.82l-.14.27c-.09.16-.18.33-.29.49a2.2,2.2,0,0,1-.21.32c-.08.13-.2.29-.32.45l-.14.17c-.16.2-.29.35-.43.5l-.07.07-.09.09a7.13,7.13,0,0,1-.58.53h0l0,.17a6.15,6.15,0,0,1,.31,1.71,5.42,5.42,0,0,1,0,.9c0,.1,0,.22,0,.33a5.27,5.27,0,0,1-.14.61h0l0,.15a3.61,3.61,0,0,1-.17.46c0,.11-.12.27-.17.37l0,.08v.09h0v.18c0,.13,0,.31,0,.49a1.94,1.94,0,0,0,0,.24c0,.13,0,.32-.07.5h0c0,.08,0,.16,0,.21a3.24,3.24,0,0,1-.1.44,2,2,0,0,1-.07.26,2.69,2.69,0,0,1-.12.37,2.49,2.49,0,0,1-.11.29s0,.08,0,.1l-.14.33c0,.06-.09.19-.16.31l-.12.22a.31.31,0,0,1,0,.1L120,46a3.62,3.62,0,0,1-.22.32,4.76,4.76,0,0,1-.44.54A9.16,9.16,0,0,1,118,48a8,8,0,0,1-.92,5.07,11.19,11.19,0,0,1-2.46,5.63l-.17.23a8.07,8.07,0,0,1-4.56,3.22A7,7,0,0,1,108.18,66a6.32,6.32,0,0,1-1.45,3.26,6.45,6.45,0,0,1-5.56,2.2l-.51-.07A7.05,7.05,0,0,1,98.3,72,6,6,0,0,1,97,71.93c-2.09,4-4.46,8.31-7.22,13L88,87.88c-3.87,6.55-4.68,7.91-5.2,14.62-.69,8.77.78,11.36,1.08,11.79,1,1.23,6,4.09,8.44,5.46,3.18,1.81,4.89,2.8,6,3.83,3,2.91,3.78,5.66,2.24,8.18-2.44,4-7.45,2.27-10.44,1.24l-3-1-.37-.14a5.52,5.52,0,0,1-3.6,2.2c-.84,4.31-2.84,6.55-6,6.66Zm-4.44-18a5.44,5.44,0,0,1,1.09.11,6.11,6.11,0,0,1,3.45,2.07,5.26,5.26,0,0,1,1-2.14,5.82,5.82,0,0,1,.4-.45,12.92,12.92,0,0,1-2.43-2.52,13.21,13.21,0,0,1-1.53-3c0,.08,0,.16,0,.23a7.52,7.52,0,0,1-2.07,5.66ZM75.3,90.84c0,.14.06.27.08.41l.13-.3Zm4.93-31.32A153.73,153.73,0,0,0,79.78,77a63.67,63.67,0,0,0,3.67-8A8.2,8.2,0,0,1,82,65.76a8.82,8.82,0,0,1-.13-1.36,7,7,0,0,1-.77-1.33,6.67,6.67,0,0,1-.44-3.94A5.71,5.71,0,0,1,80.23,59.52ZM54.67,67.19H55a4.81,4.81,0,0,1,1.77.49,4.75,4.75,0,0,1,1.09-.34,4.92,4.92,0,0,1,1.23-1.5h0l0,0a5,5,0,0,1,.43-1.52,4.72,4.72,0,0,1,.7-1.09,4.81,4.81,0,0,1-.49-3.92c0-.08,0-.16-.07-.24a4.87,4.87,0,0,1-.86-2.19,4.72,4.72,0,0,1,.38-2.58,4.8,4.8,0,0,1,6.47-4.62,4.81,4.81,0,0,1,7,.91A4.88,4.88,0,0,1,74,51.4a4.67,4.67,0,0,1,.93-1.2A5.62,5.62,0,0,1,76.11,47,4.79,4.79,0,0,1,81,45.27a4.56,4.56,0,0,1,.79.26l1.59-1.45a4.8,4.8,0,0,1,6.81,6.75,4.83,4.83,0,0,1,1.37,2.08,4.77,4.77,0,0,1-.26,3.64,4.46,4.46,0,0,1,.29,1.21,4.82,4.82,0,0,1-.14,1.78A4.92,4.92,0,0,1,92.35,63a1.53,1.53,0,0,0,.18-.18,4.79,4.79,0,0,1,5.9-1.59c.1-.16.2-.32.31-.47a4.79,4.79,0,0,1-.29-3,4.84,4.84,0,0,1,1.9-2.85,4.8,4.8,0,0,1,4.23-4.51,4.73,4.73,0,0,1,2.79.51,4.65,4.65,0,0,1,.82-2c-.16-.27-.34-.55-.48-.77a4.8,4.8,0,0,1,3-7.26l.18,0a4.78,4.78,0,0,1,.09-2.06,4.77,4.77,0,0,1-.07-2.9A4.8,4.8,0,0,1,115,29.26h0a1,1,0,0,0-.22-.24,1.92,1.92,0,0,0-.69-.33,2.15,2.15,0,0,0-.65-.07,4.79,4.79,0,0,1-5.18-4.27,4.55,4.55,0,0,1-2.07.34,4.77,4.77,0,0,1-3.64-2l-.13-.2a4.85,4.85,0,0,1-4.36.64,4.74,4.74,0,0,1-.57,1.5A4.82,4.82,0,0,1,94,26.94a4.84,4.84,0,0,1-2.53,1.49,4.79,4.79,0,0,1-2.88-.24,4.8,4.8,0,0,1-5.41-5.29,4.79,4.79,0,0,1-1.86-2.46A4.69,4.69,0,0,1,81,19a4.65,4.65,0,0,1-1.45.11,4.19,4.19,0,0,1-1-.18A4.8,4.8,0,0,1,70.23,17,4.75,4.75,0,0,1,66,19.21a2.88,2.88,0,0,1-.59-.06l-.27.12a4.8,4.8,0,0,1-2.29.32,4.8,4.8,0,0,1-7.51-1.37A4.8,4.8,0,0,1,50,22.32a4.83,4.83,0,0,1-3,.56,4.76,4.76,0,0,1-2.58.39,4.9,4.9,0,0,1-1.78.82,4.84,4.84,0,0,1-.63.56c-.13.1-.27.19-.41.28a4.67,4.67,0,0,1-.38,1.43A4.77,4.77,0,0,1,40.06,28a5,5,0,0,1,.25,2.72,4.79,4.79,0,0,1-2.42,6.13,4.79,4.79,0,0,1-1.68,2.59,4.73,4.73,0,0,1-3.11,1A4.63,4.63,0,0,1,31.19,42a4.3,4.3,0,0,1-.64.64,3.86,3.86,0,0,1,0,.68A4.8,4.8,0,0,1,29.44,46a7.94,7.94,0,0,1,2.67.06,4.79,4.79,0,0,1,3.62,3.22,4.81,4.81,0,0,1,4,5.82,4.84,4.84,0,0,1,.15,1.07,4.79,4.79,0,0,1,0,2.78l-.09.25a4.79,4.79,0,0,1,4.62,2.18,6,6,0,0,1,5.47,1.17,4.82,4.82,0,0,1,1.38,2,4.82,4.82,0,0,1,2.65,2.72A4.43,4.43,0,0,1,54.67,67.19Zm-3.31.3Zm-.85-1.19h0Zm38.05-3.55Zm8.07,0ZM35,62.34h0Zm0,0h0Zm24.78-5.81h0Zm40.56-.64ZM67.94,51.33h0Zm2.32-1.23h0ZM78.85,49h0ZM27.22,47.54h0Zm84.42-5.85Zm0-.34h0ZM33.42,36.63h0Zm88-2.5L123,35.27Zm-4.88-3.33.09.1v0Zm-.4-.51.15.15Zm-.31-1h0ZM91,27.12Zm4.12-2.59h0ZM52,20.17Zm7.08-3.24h0ZM84.69,15h0Z"/></g><path class="cls-6" d="M77,138.77c-2.66,0-4.86-1.84-6-4.88-3.24,2.4-6.66,2.9-9,1.87A4.93,4.93,0,0,1,59.43,133a5.43,5.43,0,0,1-.23-.8c-2.74.59-5.6.8-7.17.17a5,5,0,0,1-3.14-4,5.24,5.24,0,0,1,2.18-5,58,58,0,0,1,6.82-4.2,48.89,48.89,0,0,0,7-4.41,87.29,87.29,0,0,1,.66-12.43c.44-4.5.94-9.59.28-11.75a12,12,0,0,1-.47-4.37c0-1,.08-1.87-2.88-5.7a39.36,39.36,0,0,0-4.58-4.76c-.25,0-.5.1-.77.13a6.2,6.2,0,0,1-1.49,0,8.49,8.49,0,0,1-6.83,1,7.18,7.18,0,0,1-5.23-5.82,4.89,4.89,0,0,1-.05-.66,7.5,7.5,0,0,1-.95.14,6.23,6.23,0,0,1-1.15,0,7.19,7.19,0,0,1-5-2.43,6.57,6.57,0,0,1-.69-1c-.42-.06-.84-.14-1.25-.24s-.54-.16-.82-.25a9.71,9.71,0,0,1-4.25-3,9.19,9.19,0,0,1-1.09-1.76,8.07,8.07,0,0,1-.79-3.73,7.85,7.85,0,0,1,.07-.88l.07-.34c0-.15.07-.33.11-.5a2.81,2.81,0,0,1,.1-.31c.05-.17.11-.33.16-.48l.11-.25,0-.1c0-.05.05-.09.07-.14l-.43-.4-.32-.34c-.22,0-.45.06-.67.07a7.14,7.14,0,0,1-4.36-1.07,6.05,6.05,0,0,1-2.28-2.64,6.56,6.56,0,0,1-.28-.71,6.45,6.45,0,0,1-.3-2.53,8.55,8.55,0,0,1-.67-4.28,7.34,7.34,0,0,1,.16-1,8.71,8.71,0,0,1,.79-2.18,6.83,6.83,0,0,1,2.91-6.83l.16-.29a5.51,5.51,0,0,1,1.49-1.72,5.59,5.59,0,0,1,.79-.51,4.94,4.94,0,0,1,.7-.33A7.18,7.18,0,0,1,27.65,29a7.22,7.22,0,0,1-.73-1.57,6.53,6.53,0,0,1-.3-2.7,6.83,6.83,0,0,1,.85-2.69,8.48,8.48,0,0,1,1.26-1.68,9.27,9.27,0,0,1,2.53-1.84A6.79,6.79,0,0,1,32,16.93a7,7,0,0,1,2.22-2.17,8,8,0,0,1,1.25-.6,6.1,6.1,0,0,1,1.6-1.52,5.88,5.88,0,0,1,3-1A7,7,0,0,1,41.26,11a6.08,6.08,0,0,1,2.33-.5,5.78,5.78,0,0,1,.72,0,5.94,5.94,0,0,1,.86.15,5,5,0,0,1,1.12-.25,9.67,9.67,0,0,1,2.3-3.05,8.86,8.86,0,0,1,4.72-2.16c.34,0,.68-.06,1-.07h.21a9.77,9.77,0,0,1,4.29,1.08,10.6,10.6,0,0,1,1.93,1.28l.2,0a6.29,6.29,0,0,1,2-1l.09-.16a5.2,5.2,0,0,1,.29-.45l.22-.31.32-.4.28-.32.35-.34L65,4.11l.33-.25c.18-.13.34-.23.51-.33a4.72,4.72,0,0,1,.46-.26A5.87,5.87,0,0,1,66.8,3l.4-.15a7,7,0,0,1,1-.26l.13,0a8.08,8.08,0,0,1,.86-.1c.33,0,.64,0,1,0a8.73,8.73,0,0,1,2.54.61A11.76,11.76,0,0,1,74,3.77a11.22,11.22,0,0,1,2.56,2.08l.14,0a3.86,3.86,0,0,1,.49-.06l.38,0H78l.34,0,.49,0,.3.06.38.08h0l.27-.11.37-.14.28-.09.13,0,.32-.07.36-.08.39,0,.36,0,.5,0h.35a7.34,7.34,0,0,1,.82.09A7.2,7.2,0,0,1,87.07,7a7.64,7.64,0,0,1,2.59,4.25h0l.11-.11c.21-.21.44-.41.68-.61a8.55,8.55,0,0,1,8.39-1.1,9.19,9.19,0,0,1,1.51.74,8,8,0,0,1,2.12-.21h.13a7.47,7.47,0,0,1,2.17.43,9.15,9.15,0,0,1,2.88,1.7,8.52,8.52,0,0,1,8.88,3.67,8.55,8.55,0,0,1,1,1.94l0,.12a11.13,11.13,0,0,1,3.08,1.69,10.85,10.85,0,0,1,2.15,2.23,11.85,11.85,0,0,1,.81,1.31,10,10,0,0,1,.64,8,8.79,8.79,0,0,1-.35.82l-.14.27c-.09.16-.18.33-.29.49a3,3,0,0,1-.21.33l-.32.44-.14.17c-.16.2-.29.35-.43.5l-.07.07-.09.09a7.13,7.13,0,0,1-.58.53h0l0,.18a6,6,0,0,1,.31,1.7,5.42,5.42,0,0,1,0,.9c0,.1,0,.22,0,.33a5.27,5.27,0,0,1-.14.61h0l0,.15a3.61,3.61,0,0,1-.17.46c0,.11-.12.27-.17.37l0,.08v.09h0v.18c0,.13,0,.31,0,.49a1.94,1.94,0,0,0,0,.24c0,.13,0,.32-.07.5h0c0,.08,0,.16,0,.21a3.24,3.24,0,0,1-.1.44,2,2,0,0,1-.07.26,3.56,3.56,0,0,1-.12.38c0,.07-.08.22-.11.29l0,.09-.14.33c0,.06-.09.19-.16.31l-.12.23a.41.41,0,0,1,0,.09c-.07.12-.14.24-.22.35a3.62,3.62,0,0,1-.22.32,5.86,5.86,0,0,1-.44.55A9.1,9.1,0,0,1,118,46.11a8,8,0,0,1-.92,5.08,11.19,11.19,0,0,1-2.46,5.62l-.17.23a8.07,8.07,0,0,1-4.56,3.22,7,7,0,0,1-1.68,3.84,6.32,6.32,0,0,1-1.45,3.26,6.45,6.45,0,0,1-5.56,2.2l-.51-.07a7.05,7.05,0,0,1-2.36.58A6,6,0,0,1,97,70c-2.09,4-4.46,8.31-7.22,13-.62,1.07-1.19,2-1.71,2.91-3.87,6.55-4.68,7.91-5.2,14.62-.69,8.77.78,11.36,1.08,11.79,1,1.23,6,4.09,8.44,5.46,3.18,1.81,4.89,2.8,6,3.83,3,2.91,3.78,5.66,2.24,8.19-2.44,4-7.45,2.26-10.44,1.23l-3-1-.37-.13a5.6,5.6,0,0,1-3.6,2.2c-.84,4.3-2.84,6.54-6,6.65Zm-4.44-18a6.31,6.31,0,0,1,1.09.1A6.07,6.07,0,0,1,77.08,123a5.32,5.32,0,0,1,1-2.15,5.82,5.82,0,0,1,.4-.45,12.65,12.65,0,0,1-2.43-2.52,13.21,13.21,0,0,1-1.53-3c0,.08,0,.16,0,.23a7.52,7.52,0,0,1-2.07,5.66ZM75.3,88.93c0,.13.06.26.08.4l.13-.3ZM80.23,57.6a153.8,153.8,0,0,0-.45,17.46,63.67,63.67,0,0,0,3.67-8A8.2,8.2,0,0,1,82,63.84a8.82,8.82,0,0,1-.13-1.36,7,7,0,0,1-.77-1.33,6.67,6.67,0,0,1-.44-3.94A5.71,5.71,0,0,1,80.23,57.6ZM54.67,65.27H55a4.81,4.81,0,0,1,1.77.49,4.75,4.75,0,0,1,1.09-.34,4.92,4.92,0,0,1,1.23-1.5h0l0-.05a5,5,0,0,1,.43-1.52,5,5,0,0,1,.7-1.09,4.81,4.81,0,0,1-.49-3.92c0-.08,0-.16-.07-.24a4.87,4.87,0,0,1-.86-2.19,4.72,4.72,0,0,1,.38-2.58,4.8,4.8,0,0,1,6.47-4.62,4.77,4.77,0,0,1,3.91-1.06,4.82,4.82,0,0,1,3.12,2,4.88,4.88,0,0,1,1.25.86,4.67,4.67,0,0,1,.93-1.2,5.64,5.64,0,0,1,1.19-3.23A4.79,4.79,0,0,1,81,43.35a4.56,4.56,0,0,1,.79.26l1.59-1.45a4.8,4.8,0,0,1,6.81,6.75A4.83,4.83,0,0,1,91.59,51a4.77,4.77,0,0,1-.26,3.64,4.46,4.46,0,0,1,.29,1.21,4.82,4.82,0,0,1-.14,1.78A4.92,4.92,0,0,1,92.35,61a1.53,1.53,0,0,0,.18-.18,4.79,4.79,0,0,1,5.9-1.59c.1-.16.2-.32.31-.47a4.79,4.79,0,0,1-.29-3,4.84,4.84,0,0,1,1.9-2.85,4.81,4.81,0,0,1,7-4,4.65,4.65,0,0,1,.82-2l-.48-.77a4.8,4.8,0,0,1,3-7.26l.18,0a4.78,4.78,0,0,1,.09-2.06,4.77,4.77,0,0,1-.07-2.9,4.79,4.79,0,0,1,4.11-6.5h0a1.28,1.28,0,0,0-.22-.24,1.92,1.92,0,0,0-.69-.33,2.15,2.15,0,0,0-.65-.07,4.79,4.79,0,0,1-5.18-4.26,4.68,4.68,0,0,1-2.07.33,4.77,4.77,0,0,1-3.64-2c0-.07-.09-.13-.13-.19a4.94,4.94,0,0,1-2.59.89A4.78,4.78,0,0,1,98,21.2a4.74,4.74,0,0,1-.57,1.5A4.82,4.82,0,0,1,94,25a4.84,4.84,0,0,1-2.53,1.49,4.79,4.79,0,0,1-2.88-.24A4.8,4.8,0,0,1,83.15,21a4.79,4.79,0,0,1-1.86-2.46A4.69,4.69,0,0,1,81,17a4.65,4.65,0,0,1-1.45.11,4.19,4.19,0,0,1-1-.18,4.8,4.8,0,0,1-8.35-1.86A4.79,4.79,0,0,1,66,17.3a3.81,3.81,0,0,1-.59-.07l-.27.12a4.8,4.8,0,0,1-2.29.32,4.8,4.8,0,0,1-7.51-1.37A4.8,4.8,0,0,1,50,20.4,4.83,4.83,0,0,1,47,21a4.76,4.76,0,0,1-2.58.39,4.9,4.9,0,0,1-1.78.82,4.84,4.84,0,0,1-.63.56c-.13.1-.27.19-.41.28a4.93,4.93,0,0,1-1.53,3.06,5,5,0,0,1,.25,2.72,4.79,4.79,0,0,1-2.42,6.13,4.79,4.79,0,0,1-1.68,2.59,4.73,4.73,0,0,1-3.11,1,4.73,4.73,0,0,1-1.91,1.59,4.76,4.76,0,0,1-.64.63,3.86,3.86,0,0,1,0,.68,4.8,4.8,0,0,1-1.11,2.69,7.94,7.94,0,0,1,2.67.06,4.79,4.79,0,0,1,3.62,3.22,4.81,4.81,0,0,1,4,5.82,4.84,4.84,0,0,1,.15,1.07,4.79,4.79,0,0,1,0,2.78l-.09.25a4.79,4.79,0,0,1,4.62,2.18,6,6,0,0,1,5.47,1.17,4.82,4.82,0,0,1,1.38,1.95,4.82,4.82,0,0,1,2.65,2.72A4.43,4.43,0,0,1,54.67,65.27Zm-3.31.3Zm-.85-1.19h0Zm38.05-3.55Zm8.07,0ZM35,60.42h0Zm0,0h0Zm24.78-5.81h0ZM100.33,54ZM67.94,49.41h0Zm2.32-1.23h0ZM78.85,47h0ZM27.22,45.62h0Zm84.42-5.85Zm0-.34h0ZM33.42,34.71h0Zm88-2.5L123,33.35Zm-4.88-3.33.09.1v0Zm-.4-.51.15.15Zm-.31-1h0ZM91,25.2Zm4.12-2.59h0ZM52,18.25h0ZM59.05,15Zm25.64-2h0Z"/><path class="cls-9" d="M83.39,48.67A1.27,1.27,0,1,1,81.57,50a.75.75,0,0,1-.89.68.76.76,0,0,1-.48-1L79.89,48c-.46.58.07,1.41.1,2.15a1.57,1.57,0,1,1-3-.49,2.5,2.5,0,1,1-2.78,4.14l.18,1.36a2.27,2.27,0,0,1-2.91-2.58c-1,1.07-3.13-.34-2.54-1.66-.23,2.15-3.6,3-4.86,1.28a1.73,1.73,0,0,1-.42,2.08,1.44,1.44,0,0,1,.76,1.65,1.51,1.51,0,1,1,0,2.82,4.61,4.61,0,0,1,2.31,3.39c0,1.42-1.47,2.85-2.75,2.23A1.36,1.36,0,0,1,64.61,66a1.27,1.27,0,0,1-1.21.08,5.28,5.28,0,0,1-2,2.08l-2.7,2a4.89,4.89,0,0,1-2.17,1.08,1.68,1.68,0,0,1-1.9-1.16,3.79,3.79,0,0,1-4.5,2.35,2.43,2.43,0,0,1-1.82-1.84c-.12-.91.75-1.89,1.63-1.65a1,1,0,1,1-.59-1.87,2.33,2.33,0,0,1-2.66-2.73c-1-.87-2.35.63-3.54,1.28A2.62,2.62,0,0,1,40,65.13a2.15,2.15,0,0,1,.28-3,8,8,0,0,1-5.07.21,4.2,4.2,0,0,1-2.94-3.83c0-1.72,1.89-3.28,3.52-2.72a.81.81,0,1,1,.09-1.56,1.61,1.61,0,0,1-1.21.18A1.59,1.59,0,0,1,35,52.14a5.27,5.27,0,0,1-3.45-.32c-1-.61-1.4-2.29-.41-2.94a6,6,0,0,0-3.06.61,3.57,3.57,0,0,1-3.06,0c-.89-.57-.91-2.26.12-2.47-2.24-1.23-1.85-5.25.59-6a2.17,2.17,0,0,1,1.73-4,1.15,1.15,0,1,1,1.7-1.31,2.29,2.29,0,0,1,4.05-2,2.08,2.08,0,0,1,2.62-3.17A2.94,2.94,0,0,1,35,28.93c0-.64.58-1.32,1.18-1.1a7.2,7.2,0,0,1-3.07-.26,2.48,2.48,0,0,1-1.69-2.35,2.6,2.6,0,0,1,.79-1.49,4.65,4.65,0,0,1,4.63-1.19,2.16,2.16,0,1,1,2.32-3.65,1.93,1.93,0,0,1,.58-2.24c.69-.46,1.86,0,1.83.85a3.72,3.72,0,0,1,1.63-2.06c.82-.36,2,.27,1.85,1.15a5.11,5.11,0,0,1,1.74-1.35l.87,1a2,2,0,0,1,3-.57c-1.17-2.26.77-5.3,3.31-5.62s5,1.67,5.71,4.11a4.68,4.68,0,0,1,1.63-1.73,1.59,1.59,0,0,1,2.11.5,1.46,1.46,0,1,1,2.83-.23c.14-2.2.77-5,2.94-5.35a3.68,3.68,0,0,1,2.44.58,6.93,6.93,0,0,1,3.31,6,3.94,3.94,0,0,1,2.23-3.27c1.31-.46,3.06.62,2.81,2a2.56,2.56,0,1,1,5,.85A2.28,2.28,0,0,1,85.84,17a3.18,3.18,0,0,1,2.07,4.51,1.76,1.76,0,0,1,2.47.31,2.28,2.28,0,0,1,3.83-1,4.06,4.06,0,0,1-.77-6.56,4.06,4.06,0,0,1,6.16,2.37c.14-1.52,2.12-2.27,3.56-1.76A7.59,7.59,0,0,1,106.45,18,3.89,3.89,0,0,1,113,21.92a6.79,6.79,0,0,1,4.68,1.38,5.6,5.6,0,0,1,2,6.1c-.78,2.16-3.58,3.46-5.58,2.34a3.81,3.81,0,0,1,2.57,1.45c.5.89-.27,2.35-1.22,2a2,2,0,0,1,1.6,1.65c0,.82-1,1.56-1.67,1,1.33.66,1.29,2.73.3,3.83a7.3,7.3,0,0,1-4,1.82,8.62,8.62,0,0,1,1.45,3.08,3,3,0,0,1-1.1,3c.59,1.53-.48,3.16-1.48,4.46a3.31,3.31,0,0,1-2,1.51c-.86.1-1.76-1-1.19-1.62a1.53,1.53,0,0,1-2.28-.85,4.79,4.79,0,0,1-.58,2.88c-.57.82-1.94,1.13-2.54.34a4.11,4.11,0,0,1,3,2.89c.25,1.45-1.43,3-2.68,2.26a1.72,1.72,0,1,1-2.1,2.46A4.06,4.06,0,0,1,98,65.28c-.9.06-1.87-.82-1.54-1.65a6.21,6.21,0,0,1-6.66,2.28,4.19,4.19,0,0,1-3-3,2.61,2.61,0,0,1,2.32-3.12,2.15,2.15,0,1,1-1.57-3.6c-1.17.66-2.43-1.18-1.85-2.39s2-1.69,3.31-2a3.94,3.94,0,0,1-3.31.57,2.84,2.84,0,0,1-1.25-3.41,8.32,8.32,0,0,1,2.23-3.23"/><path class="cls-10" d="M70.44,89.29c-1.1-3.63,1.71-4-4.14-11.6-4-5.14-13.18-12.07-18.09-16.3A67.58,67.58,0,0,1,36.6,48.68c-1.19-1.81,0-2.44,0-4.42,3.32,5.39,13.26,17.82,20.17,20-3.45-6.77-5.87-23.14-6.49-28.6-.13-1.14,1.88-2.09,2.77-1.35-.56,6.76,4.27,27.6,7.87,31.88A114.73,114.73,0,0,0,71.14,76.58c.91.77.4-17.25.12-20A48.78,48.78,0,0,0,65.58,39a3.69,3.69,0,0,0,2.49-2.59l5.28,14.09a50.16,50.16,0,0,1,6.8-12,6.28,6.28,0,0,1,2.77-2.61c1.22-.43,2.33-.85,2.38.44-4.75,5.17-8.77,11.49-9.6,18.46-.7,5.79-1.32,19.95-.14,27,.3,1.8,2.56,4.85,4.69,1.7,6.87-10.12,11.88-22.93,11.61-36.33,0-2.43-1.13-5.41,1.24-4.86a97.68,97.68,0,0,1-1.79,23.37c2.22-3.8,10.31-24.27,10.31-24.27.87-2.4,1.22-5,3.36-3.63C100.49,53.3,93.74,66.66,85.6,80.63c-5.3,9.1-6.87,10.73-7.56,19.57-.48,6.19-.16,11.93,1.94,14.92,2.27,3.25,13.18,8.24,15,10,2.45,2.36,2.3,3.36-3.31,1.43-7.1-2.45-11.29-4.3-9.5-1.53,2.85,4.42-3.15.63-3.5,4.42-.67,7.15-3.07,4.45-3.59,1.29-.74-4.42-2.4-6.35-3.69-4.33-3.07,4.83-6.67,5.32-7.46,5-.63-.29,6.58-11.61-1.38-5.34-1.64,1.29-10.88,3-8.56,1.24,4.6-3.56,16.05-8,15.75-11.74C69.09,107.25,72.14,94.87,70.44,89.29Z"/><path class="cls-11" d="M88.84,32.26a4.29,4.29,0,0,0-1.64-7.43,2.54,2.54,0,0,0,2.38-3.58,1.73,1.73,0,0,0-1.67.27A3.18,3.18,0,0,0,85.84,17a2.28,2.28,0,0,0-.92-3.52,2.56,2.56,0,1,0-5-1.12,2.16,2.16,0,0,0-2.83-1.72,3.94,3.94,0,0,0-2.23,3.27,6.93,6.93,0,0,0-3.31-6,3.68,3.68,0,0,0-2.44-.58c-2.12.36-2.77,3-2.93,5.18A1.55,1.55,0,0,0,64.63,11a1.52,1.52,0,0,0-1.27,1.9,1.59,1.59,0,0,0-2.11-.5,4.68,4.68,0,0,0-1.63,1.73A5.64,5.64,0,0,0,53.9,10c-2.53.32-4.47,3.36-3.3,5.62a2,2,0,0,0-3,.57l-.87-1A5.11,5.11,0,0,0,45,16.59c.2-.88-1-1.51-1.85-1.15a3.72,3.72,0,0,0-1.63,2.06c0-.83-1.14-1.31-1.83-.85a1.93,1.93,0,0,0-.58,2.24,2.16,2.16,0,1,0-2.32,3.65,4.65,4.65,0,0,0-4.63,1.19,2.6,2.6,0,0,0-.79,1.49,2.48,2.48,0,0,0,1.69,2.35,6.12,6.12,0,0,0,2.52.29A1.17,1.17,0,0,0,35,28.93a2.94,2.94,0,0,0,.89,1.64,2.08,2.08,0,0,0-2.62,3.17,2.29,2.29,0,0,0-4.05,2,1.15,1.15,0,1,0-1.7,1.31,2.17,2.17,0,0,0-1.73,4c-2.44.78-2.83,4.8-.59,6-1,.21-1,1.9-.12,2.47a3.57,3.57,0,0,0,3.06,0,6,6,0,0,1,3.06-.61c-1,.65-.6,2.33.41,2.94a5.27,5.27,0,0,0,3.45.32,1.59,1.59,0,0,0-.32,2.22,2,2,0,0,0,.35,0,.75.75,0,0,0-.23.49.84.84,0,0,0,.42.73,3,3,0,0,0-2.94,2.83,4.2,4.2,0,0,0,2.94,3.83,8,8,0,0,0,5.07-.21,2.15,2.15,0,0,0-.28,3,2.62,2.62,0,0,0,3.15.48c.61-.33,1.24-.88,1.85-1.23a1.4,1.4,0,0,0-.46-.27c1.29,0,1.75-2.22.55-2.72A3.16,3.16,0,0,0,48,60.65c.69-.76.45-2.28-.56-2.47a2.64,2.64,0,0,0-1.06-4.31c1.27,0,1.65-2.21.45-2.61,1,.54,2.3-.56,2.22-1.62a1.43,1.43,0,0,0,.62.85c.46.26,1.21-.16,1-.65.59.77,2.07-.26,1.57-1.08a2.71,2.71,0,0,0,4.9-1A1.76,1.76,0,0,0,59,49.12a1.73,1.73,0,0,0,1-2.69,3.91,3.91,0,0,0-4.7-4.35c0-.78,1-1.14,1.66-1.49S58,39.47,57.75,39c.71.5,2.06-.25,1.77-1.16a1,1,0,0,0-1.58-.66c1.21-.91.12-3.3-1.36-3a2.93,2.93,0,0,0-3.25-4.65,1,1,0,0,0-1-1.46,1.05,1.05,0,0,1,1.52.22,2.34,2.34,0,0,1,1.74-1.48c.51,1.45,2.92,1.49,3.61.2-.22.88.79,1.95,1.68,1.58a1.07,1.07,0,0,0,.86,1.46.94.94,0,0,0,.36,1.84,1.63,1.63,0,0,0-.66,1.89,1.61,1.61,0,0,0,1.59.94,2.55,2.55,0,0,0,2,4.68,1.08,1.08,0,0,0,0,1.6,2.17,2.17,0,0,0,2.06.1,5.63,5.63,0,0,0,3.59-4.84.7.7,0,0,0,.74-.84,1.26,1.26,0,0,0,.9.67c.33,0,.6-.44.44-.68a1.69,1.69,0,0,0,2.32-.28,2.63,2.63,0,1,0,5.25.44A1.54,1.54,0,0,0,81.56,37a4.38,4.38,0,0,0,8.36-.5,2.2,2.2,0,0,0-1.08-4.27Z"/><path class="cls-11" d="M117.69,23.3A6.79,6.79,0,0,0,113,21.92,3.89,3.89,0,0,0,106.45,18a7.59,7.59,0,0,0-3.29-3.09c-1.44-.51-3.42.24-3.56,1.76a4.06,4.06,0,0,0-6.16-2.37,4.12,4.12,0,0,0-.1,6,2.49,2.49,0,0,0-2.49.65,6.5,6.5,0,0,0,4.19.74c-.29.51.39,1.06,1,1.14s1.28,0,1.64.5a3.19,3.19,0,0,0-3.17,2.43,1.56,1.56,0,0,0-1.94,1.58,2.41,2.41,0,0,0,1.9,2,2.81,2.81,0,0,0-.88,5.47c-.7-.14-1.18.86-.83,1.48a1.81,1.81,0,0,0,1.44.79,1.46,1.46,0,0,0-1,2.18,4,4,0,0,0-4.48,3.53c-1-.71-2.57.37-2.44,1.59a2.12,2.12,0,0,0,2.11,1.71,1.89,1.89,0,0,0-.6,3.31c-.41.16-.15.81.23,1a2.43,2.43,0,0,0,3.12-.94,1.47,1.47,0,0,0,.75,1.07,1.56,1.56,0,0,0,2-.83,1,1,0,0,0,.56,1.1.52.52,0,0,0,.53-.56,1.27,1.27,0,0,0,1.36.69,1.25,1.25,0,0,0,.93-1.44,2,2,0,0,0,3.32-2.15,2.21,2.21,0,0,0,3,.5c-.57.6-.08,1.93.8,1.86a1.67,1.67,0,0,0-.88,1.92,1.69,1.69,0,0,0,1.61,1.16.71.71,0,0,0-.58.75.69.69,0,0,0,.56.54c0-.31,0-.63,0-.94a1.53,1.53,0,0,0,2.28.85c-.57.66.33,1.72,1.19,1.62h.07l0,0,0,0a3.44,3.44,0,0,0,1.92-1.5c1-1.3,2.07-2.93,1.48-4.46a3,3,0,0,0,1.1-3,8.62,8.62,0,0,0-1.45-3.08,7.3,7.3,0,0,0,4-1.82c1-1.06,1-3-.13-3.73a1.18,1.18,0,0,0,1.5-1.14,2,2,0,0,0-1.6-1.65c1,.35,1.72-1.11,1.22-2a2.6,2.6,0,0,0-1.33-1.06,4.33,4.33,0,0,0,4.34-2.73A5.6,5.6,0,0,0,117.69,23.3Z"/><path class="cls-12" d="M119.14,30.44l.16-.21.07-.12c0-.08.1-.15.14-.23l.06-.12a3,3,0,0,0,.15-.36h0a5.13,5.13,0,0,0-.38-4.12,7,7,0,0,0-.46-.74,5.83,5.83,0,0,0-1.19-1.24A6.93,6.93,0,0,0,113,21.92a3.87,3.87,0,0,0,0-2.62,3.79,3.79,0,0,0-.45-.9,3.74,3.74,0,0,0-1.19-1.15,4,4,0,0,0-3.82-.08h0a3.57,3.57,0,0,0-1,.81,16.76,16.76,0,0,0-1-1.34,5.56,5.56,0,0,0-2.28-1.75,2.83,2.83,0,0,0-.82-.15h0a3.25,3.25,0,0,0-1.54.34l-.28.17-.11.08a1.92,1.92,0,0,0-.78,1.33,4.06,4.06,0,0,0-6.16-2.37h0a3.45,3.45,0,0,0-.28.26l0,0-.23.27,0,.06a2.61,2.61,0,0,0-.2.3l0,0a3.36,3.36,0,0,0-.16.33v0a3.62,3.62,0,0,0-.13.35l0,.05-.09.36v.06l-.06.38h0c0,.14,0,.28,0,.41v0c0,.13,0,.26,0,.4v0c0,.14,0,.27.06.4h0a4.23,4.23,0,0,0,.41,1.18h0a3.61,3.61,0,0,0,.74,1h0a2.49,2.49,0,0,0-2.49.65h0a1.73,1.73,0,0,0-.47.92,1.67,1.67,0,0,0-.8-.58h0a1.5,1.5,0,0,0-.42-.09h-.25l-.2,0h0l-.21,0h0l-.14.06-.06,0-.13.07,0,0a.88.88,0,0,0-.17.12h0a2.65,2.65,0,0,0,.36-1.37c0-.11,0-.23,0-.35a3.42,3.42,0,0,0-.89-1.93,3.07,3.07,0,0,0-.84-.64,2.7,2.7,0,0,0-.68-.22,1.76,1.76,0,0,0,.29-.44,2.44,2.44,0,0,0,.1-.24,1.91,1.91,0,0,0,.1-.53,2.26,2.26,0,0,0-1.41-2.31,2.66,2.66,0,0,0-.9-2.8,2.42,2.42,0,0,0-1.11-.52l-.26,0h-.26l-.11,0-.15,0-.11,0-.15,0-.11,0-.14.05-.11,0-.13.06-.1.06-.13.08-.1.07-.11.08-.1.08-.1.09-.09.09-.09.11-.09.09-.08.11-.07.11a.41.41,0,0,0-.07.11l-.07.12s0,.08-.05.12a.54.54,0,0,0,0,.11c0,.05,0,.09,0,.13l0,.12,0,.15a.52.52,0,0,1,0,.11h0a1.41,1.41,0,0,0-.07-.41v0l-.06-.14,0-.07s0-.08-.07-.13l0-.07-.09-.11-.06-.08-.09-.1-.08-.07-.1-.09-.1-.07-.1-.07-.11-.06-.11-.06-.12-.05-.11-.05-.13,0-.11,0-.13,0-.12,0h-.5l-.16,0-.09,0a1.05,1.05,0,0,0-.24.06l-.24.1a3,3,0,0,0-1,.78,3.58,3.58,0,0,0-.43.64,5.14,5.14,0,0,0-.57,1.75,6.93,6.93,0,0,0-3.31-6,6.3,6.3,0,0,0-.69-.34,3.8,3.8,0,0,0-1.08-.27h-.35l-.32,0h0a2.34,2.34,0,0,0-.38.09.43.43,0,0,1-.12,0l-.23.1-.13.08-.19.11L68,7.86,67.79,8l-.12.12-.14.15-.11.15-.12.16-.11.17-.09.17a1.74,1.74,0,0,0-.1.19,1.3,1.3,0,0,0-.08.17l-.09.21c0,.06,0,.11-.07.17s-.05.16-.08.24a.88.88,0,0,0-.05.15c0,.09,0,.18-.08.27l0,.14c0,.1,0,.2-.07.3l0,.11-.06.33s0,.06,0,.09l-.06.35v.06c0,.13,0,.26,0,.38v0c0,.14,0,.27,0,.4h0v-.09a.13.13,0,0,0,0-.06s0,0,0-.08,0,0,0-.07a.24.24,0,0,1,0-.08.19.19,0,0,1,0-.07l0-.08,0-.07a.43.43,0,0,1,0-.07.21.21,0,0,0,0-.06.43.43,0,0,0,0-.07.43.43,0,0,1,0-.07l0-.06,0-.06-.06,0-.06-.06,0-.05-.07,0-.06-.05-.07,0-.06,0-.08,0-.06,0-.09,0-.06,0L65,11h-.37a1.52,1.52,0,0,0-1.27,1.9,1.17,1.17,0,0,0-.44-.47l-.13-.06a1.75,1.75,0,0,0-1.35,0l-.19.07h0a4.14,4.14,0,0,0-1.46,1.48l-.17.25c0-.16-.1-.31-.15-.45a6.48,6.48,0,0,0-.69-1.27c-.14-.19-.29-.37-.45-.55a5.86,5.86,0,0,0-1.7-1.32,4.81,4.81,0,0,0-2.2-.55h0l-.48,0a4,4,0,0,0-2.13,1,4.26,4.26,0,0,0-1.5,3.5,2.84,2.84,0,0,0,.33,1.12,1.77,1.77,0,0,0-1.16-.45h-.3a2.21,2.21,0,0,0-.37.08,1.77,1.77,0,0,0-1.14.93l-.69-.76-.18-.21a5.38,5.38,0,0,0-.66.38,5,5,0,0,0-1.06,1l0,0a1,1,0,0,0,0-.24,1.26,1.26,0,0,0-1.2-1h-.17a1.24,1.24,0,0,0-.5.1,2.3,2.3,0,0,0-.88.73,6.42,6.42,0,0,0-.75,1.33.88.88,0,0,0-.27-.66l-.11-.1-.2-.12a1.27,1.27,0,0,0-1.25,0,1.38,1.38,0,0,0-.4.4,1.29,1.29,0,0,0-.09.16,1.72,1.72,0,0,0-.16.43,2.27,2.27,0,0,0,0,.9,2,2,0,0,0,.09.35,2.25,2.25,0,0,0-2.42,0,1.9,1.9,0,0,0-.65.64,2.11,2.11,0,0,0-.29,1.43,2.21,2.21,0,0,0,1,1.61,4.65,4.65,0,0,0-4.63,1.19,3,3,0,0,0-.52.69,2.11,2.11,0,0,0-.27.8,1.89,1.89,0,0,0,.09.75,2.39,2.39,0,0,0,.75,1.09l0,0,.34.25.2.11.27.12.34.11.12,0,.22.06.14,0,.22,0,.15,0H35.6l-.12.07,0,0-.09.07,0,0-.1.11,0,0a.86.86,0,0,1-.07.1l0,0-.06.11v0s0,.09-.05.14v0s0,.08,0,.12v0a.76.76,0,0,0,0,.15h0a2.32,2.32,0,0,0,.54,1.22,4.87,4.87,0,0,0,.35.42l-.16-.08-.29-.11-.09,0L35,30.31h-.18l-.36,0a2,2,0,0,0-.53.16l-.16.08a2.06,2.06,0,0,0-.56.46,2.15,2.15,0,0,0,0,2.7,2.29,2.29,0,0,0-1.36-.89l-.33-.05h-.23l-.4,0a2.39,2.39,0,0,0-.57.19,2.33,2.33,0,0,0-1.16,1.44,2.3,2.3,0,0,0,0,1.3,1,1,0,0,0-.39-.54,1.23,1.23,0,0,0-1.3-.12l-.11.07a1,1,0,0,0-.26.31.31.31,0,0,0-.06.13,1.12,1.12,0,0,0-.08.26S27,36,27,36a1.23,1.23,0,0,0,0,.27.68.68,0,0,0,0,.14,1.14,1.14,0,0,0,.47.65,1.89,1.89,0,0,0-.41-.1,2.33,2.33,0,0,0-1.41.29,2.11,2.11,0,0,0-.92,1,2.15,2.15,0,0,0-.09,1.35,2.05,2.05,0,0,0,.18.49l.13.23.09.13.15.17a1.91,1.91,0,0,0,.55.43,3.1,3.1,0,0,0-2,2.38c0,.15-.05.31-.07.46a3.2,3.2,0,0,0,1.46,3.19c-.71.14-.92,1-.69,1.69a1.34,1.34,0,0,0,.07.18,1.4,1.4,0,0,0,.5.6,2.39,2.39,0,0,0,1.48.32,2.85,2.85,0,0,0,.41,0c.13,0,.26,0,.39-.09a6.43,6.43,0,0,0,.78-.24l.3-.11c.34-.13.7-.25,1.05-.36a3.7,3.7,0,0,1,1.71-.14,1.15,1.15,0,0,0-.42.46,1,1,0,0,0-.1.28.83.83,0,0,0,0,.15,2.18,2.18,0,0,0,.62,1.78,1.56,1.56,0,0,0,.35.27,1.71,1.71,0,0,0,.33.17,6,6,0,0,0,3.12.15,1.64,1.64,0,0,0-.4.43.8.8,0,0,0-.08.16h0a1.48,1.48,0,0,0-.12.41,1.52,1.52,0,0,0,.29,1.21h0a.86.86,0,0,0,.17,0h0l.17,0h0a.58.58,0,0,0-.1.12l0,0a1.17,1.17,0,0,0,0,.11s0,0,0,0a1,1,0,0,0,0,.17.86.86,0,0,0,0,.16v0a.78.78,0,0,0,0,.14l0,0,.06.09a.27.27,0,0,0,.07.08l0,0a1,1,0,0,0,.16.12H35l-.19,0h-.09l-.19,0-.09,0-.18.06-.1,0-.16.08-.1.06-.15.09-.1.07a3.65,3.65,0,0,0-.32.26l0,0-.1.11-.11.12-.09.11a1.13,1.13,0,0,1-.1.13l-.07.12-.09.14-.06.12-.08.16,0,.12-.06.17s0,.08,0,.12,0,.13,0,.19,0,.07,0,.1,0,.21,0,.31A3.39,3.39,0,0,0,32.64,60a4.59,4.59,0,0,0,.51.81,4.73,4.73,0,0,0,2.1,1.48l.43.13a6,6,0,0,0,1.46.2,9.61,9.61,0,0,0,3.18-.54,2.07,2.07,0,0,0-.78,1.45,2.16,2.16,0,0,0,.5,1.6,2.41,2.41,0,0,0,1.69.79,2.16,2.16,0,0,0,.44,0,2.57,2.57,0,0,0,1-.3l.23-.14c.53-.33,1.09-.78,1.62-1.09a1.4,1.4,0,0,1,1.69,0,2.33,2.33,0,0,0,2.66,2.73,1.06,1.06,0,0,0-.87,1.31,1,1,0,0,0,.71.63,1.62,1.62,0,0,0-.88,1.58,2.43,2.43,0,0,0,1.82,1.84,3.79,3.79,0,0,0,4.5-2.35,1.68,1.68,0,0,0,1.9,1.16,4.88,4.88,0,0,0,2.16-1.07,57.82,57.82,0,0,1,7.57,7.53c5.85,7.58,3,8,4.14,11.6,1.7,5.58-1.35,18-.68,26.25.3,3.75-11.15,8.18-15.75,11.74-2.32,1.79,6.92,0,8.56-1.24,8-6.27.75,5,1.38,5.34.79.34,4.39-.15,7.46-5,1.29-2,3-.09,3.69,4.33.52,3.16,2.92,5.86,3.59-1.29.35-3.79,6.35,0,3.5-4.42-1.79-2.77,2.4-.92,9.5,1.53,5.61,1.93,5.76.93,3.31-1.43-1.84-1.76-12.75-6.75-15-10-2.1-3-2.42-8.73-1.94-14.92.69-8.84,2.26-10.47,7.56-19.57,2.92-5,5.66-10,8.19-14.95a6.09,6.09,0,0,0,2.65-2.05c-.33.83.64,1.71,1.54,1.65a4.06,4.06,0,0,0,2.31-1.3,1.79,1.79,0,0,0,2.79.26,1.82,1.82,0,0,0-.47-2.61c1.22.48,2.69-1,2.46-2.37a3.54,3.54,0,0,0-2-2.43,2,2,0,0,0,1.48-.8,3.6,3.6,0,0,0,.56-1.94h0c0-.31,0-.63,0-.93h0a1.53,1.53,0,0,0,2.28.85.76.76,0,0,0-.18.4,1,1,0,0,0,.11.49,1.34,1.34,0,0,0,.22.31v0a1.27,1.27,0,0,0,1,.4h.08a3.44,3.44,0,0,0,1.92-1.5l.14-.19c1-1.27,1.9-2.81,1.34-4.27a3,3,0,0,0,1.1-3,8.62,8.62,0,0,0-1.45-3.08,15.66,15.66,0,0,0,2.1-.6l.56-.25a4.47,4.47,0,0,0,1.31-1,1.84,1.84,0,0,0,.17-.22l.06-.08s.06-.09.09-.15l.06-.1s.05-.09.07-.14,0-.09,0-.13l0-.12c0-.05,0-.1,0-.15l0-.12,0-.16a.44.44,0,0,0,0-.1l0-.18V40a1.34,1.34,0,0,0,0-.2v-.06c0-.07,0-.14,0-.21v0l0-.22v0a.83.83,0,0,0-.06-.21v0a1.8,1.8,0,0,0-.08-.21v0a2.12,2.12,0,0,0-.11-.21h0a1.43,1.43,0,0,0-.14-.2h0l-.17-.18h0c-.07-.05-.13-.11-.2-.15a.94.94,0,0,0,.87-.09h0l.09-.06,0,0a.13.13,0,0,0,.07-.06l0,0,0-.06,0-.06.05-.06a.21.21,0,0,1,0-.06l0-.06a.25.25,0,0,0,0-.07l0-.06,0-.08a.14.14,0,0,1,0-.06.44.44,0,0,1,0-.1v0a.76.76,0,0,0,0-.15,2,2,0,0,0-1.6-1.65.79.79,0,0,0,.66,0,1.15,1.15,0,0,0,.26-.19l0,0a1.61,1.61,0,0,0,.43-1,1.26,1.26,0,0,0-.15-.76h0a1.31,1.31,0,0,0-.19-.27.1.1,0,0,0,0-.05,1,1,0,0,0-.21-.21l-.08-.07-.21-.15-.14-.09-.12-.06-.34-.16h0a3.62,3.62,0,0,0,.57,0h.13l.23,0,.14,0,.22,0,.16-.05a1.66,1.66,0,0,0,.21-.06l.17-.06.32-.14.18-.09.17-.09.17-.11.15-.1.19-.14.12-.1a3.45,3.45,0,0,0,.28-.26l0-.05.22-.24Zm-48,46.14a121.84,121.84,0,0,1-9-8.93,4,4,0,0,0,1.25-1.54A1.27,1.27,0,0,0,64.61,66a1.36,1.36,0,0,0-.68-1.65c1.28.62,2.8-.81,2.75-2.23a4.61,4.61,0,0,0-2.31-3.39,1.51,1.51,0,1,0,0-2.82,1.44,1.44,0,0,0-.76-1.65A1.73,1.73,0,0,0,64,52.21c1.17,1.63,4.15,1,4.76-.83A1.8,1.8,0,0,0,70.69,53c.26,1.32.45,2.55.57,3.65C71.54,59.33,72.05,77.35,71.14,76.58Zm9.11,6.91c-2.13,3.15-4.39.1-4.69-1.7-1.18-7.08-.56-21.24.14-27,0-.15,0-.3,0-.44a2.57,2.57,0,0,0,2.07-1.06,2.42,2.42,0,0,0,.38-1.48A1.64,1.64,0,0,0,80,50.16c0-.74-.56-1.57-.1-2.15.11.55.21,1.09.31,1.64a.76.76,0,0,0,.48,1,.75.75,0,0,0,.89-.68,1.27,1.27,0,1,0,1.82-1.31l3.25-3a8.32,8.32,0,0,0-2.23,3.23,2.84,2.84,0,0,0,1.25,3.41A2.48,2.48,0,0,0,87,52.5a3,3,0,0,0-1.37,1.33,1.9,1.9,0,0,0,1.19,2.52,2.28,2.28,0,0,0-1.32,2.88,2.2,2.2,0,0,0,2.06,1.2,2.82,2.82,0,0,0-.83,2.51A3.94,3.94,0,0,0,89,65.62,70.64,70.64,0,0,1,80.25,83.49Z"/></g></g></svg>