<svg xmlns="http://www.w3.org/2000/svg" viewBox="0 0 263 87.27"><defs><style>.cls-1{isolation:isolate;}.cls-2{opacity:0.3;mix-blend-mode:multiply;}.cls-3,.cls-5{fill:#fff;}.cls-4{fill:#22b573;}.cls-5{font-size:27.32px;}.cls-6{letter-spacing:0em;}.cls-7{letter-spacing:0em;}.cls-8{letter-spacing:-0.01em;}.cls-9{letter-spacing:-0.01em;}.cls-10{letter-spacing:-0.01em;}.cls-11{letter-spacing:-0.02em;}.cls-12{letter-spacing:-0.01em;}.cls-13{letter-spacing:-0.02em;}.cls-14{letter-spacing:-0.02em;}.cls-15{letter-spacing:-0.03em;}.cls-16{letter-spacing:0em;}.cls-17{letter-spacing:0em;}.cls-18{letter-spacing:-0.01em;}.cls-19{letter-spacing:-0.01em;}.cls-20{letter-spacing:-0.01em;}.cls-21{letter-spacing:0em;}</style></defs><title>33</title><g class="cls-1"><g id="Capa_2" data-name="Capa 2"><g id="Layer_1" data-name="Layer 1"><g class="cls-2"><rect x="4" y="4" width="259" height="67" rx="12"/></g><rect class="cls-3" width="259" height="67" rx="12"/><rect class="cls-4" x="4.03" y="3.07" width="250.94" height="60.87" rx="11.19"/><path class="cls-3" d="M237.38,32.22,223.7,21.5a1.62,1.62,0,0,0-2.63,1.28h0c0,.89-.72,3.62-1.62,3.62h-5.06A1.62,1.62,0,0,0,212.77,28V39a1.62,1.62,0,0,0,1.62,1.62h5.06c.9,0,1.62,2.73,1.62,3.62h0a1.62,1.62,0,0,0,2.63,1.28l13.68-10.72A1.63,1.63,0,0,0,237.38,32.22Z"/><text class="cls-5" transform="translate(30.13 31.5)"><tspan class="cls-6">E</tspan><tspan class="cls-7" x="15.72" y="0">x</tspan><tspan class="cls-8" x="28.96" y="0">p</tspan><tspan class="cls-9" x="45.73" y="0">l</tspan><tspan class="cls-10" x="52.82" y="0">o</tspan><tspan class="cls-11" x="69.4" y="0">r</tspan><tspan class="cls-12" x="80.63" y="0">a</tspan><tspan x="97.47" y="0">r </tspan><tspan class="cls-13" x="116.98" y="0">o</tspan><tspan class="cls-14" x="133.21" y="0">t</tspan><tspan class="cls-15" x="143.83" y="0">r</tspan><tspan x="154.97" y="0">o</tspan><tspan class="cls-16" x="5.17" y="25">c</tspan><tspan class="cls-17" x="19.2" y="25">i</tspan><tspan class="cls-18" x="25.6" y="25">c</tspan><tspan class="cls-9" x="39.41" y="25">l</tspan><tspan x="46.5" y="25">o </tspan><tspan class="cls-19" x="70.93" y="25">d</tspan><tspan x="87.79" y="25">e </tspan><tspan class="cls-20" x="111.29" y="25">v</tspan><tspan class="cls-17" x="126.26" y="25">i</tspan><tspan class="cls-21" x="132.65" y="25">d</tspan><tspan x="149.56" y="25">a</tspan></text></g></g></g></svg>