<svg xmlns="http://www.w3.org/2000/svg" viewBox="0 0 150 150"><defs><style>.cls-1{isolation:isolate;}.cls-2{fill:#002451;opacity:0.27;}.cls-3{fill:#fff2cc;}.cls-4{fill:#29abe2;}.cls-5,.cls-7{opacity:0.2;}.cls-5{mix-blend-mode:multiply;}.cls-6{fill:#fff;}.cls-7{fill:#000f56;}.cls-8{fill:#393737;}.cls-9{fill:#58577d;}.cls-10{fill:#3e82b7;}.cls-11{fill:#4d3a35;}.cls-12{fill:#574640;}.cls-13{fill:#fff9ba;opacity:0.58;}.cls-14{fill:none;stroke:#1e134d;stroke-linecap:round;stroke-linejoin:round;stroke-width:0.65px;}</style></defs><title>lab02-</title><g class="cls-1"><g id="Layer_1" data-name="Layer 1"><rect class="cls-2" x="19.12" y="14.32" width="120.09" height="120.09" rx="36.12" ry="36.12"/><rect class="cls-3" x="16.02" y="11.22" width="120.09" height="120.09" rx="36.12" ry="36.12"/><path class="cls-4" d="M135.63,101H122.7a17.12,17.12,0,0,0-17.13,17.12v12.74A36.13,36.13,0,0,0,135.63,101Z"/><g class="cls-5"><rect x="117.99" y="109.52" width="1.38" height="10.82"/><polygon points="118.64 105.41 115.86 110.24 121.43 110.24 118.64 105.41"/><polygon points="118.68 124.36 121.46 119.53 115.89 119.53 118.68 124.36"/><rect x="113.27" y="114.24" width="10.82" height="1.38"/><polygon points="109.19 114.9 114.01 117.69 114.01 112.12 109.19 114.9"/><polygon points="128.13 114.87 123.31 112.08 123.31 117.66 128.13 114.87"/></g><rect class="cls-6" x="116.99" y="108.52" width="1.38" height="10.82"/><polygon class="cls-6" points="117.64 104.41 114.86 109.24 120.43 109.24 117.64 104.41"/><polygon class="cls-6" points="117.68 123.36 120.46 118.53 114.89 118.53 117.68 123.36"/><rect class="cls-6" x="112.27" y="113.24" width="10.82" height="1.38"/><polygon class="cls-6" points="108.19 113.9 113.01 116.69 113.01 111.12 108.19 113.9"/><polygon class="cls-6" points="127.13 113.87 122.31 111.08 122.31 116.66 127.13 113.87"/><path class="cls-7" d="M69.63,58.58a8,8,0,0,1,3.59.63c.4.06.83.1,1.3.13h.1l.51,0h.12c.27,0,.55,0,.85.08l.17,0a15.41,15.41,0,0,1,2.19.39,6.79,6.79,0,0,1,1.43.53l.3.16.42.25a12.48,12.48,0,0,0,2.11,1.33,6.32,6.32,0,0,0,.93.23l.44.07.14,0a9.84,9.84,0,0,1,2.66.62,8.34,8.34,0,0,1,1.32.79l.14.1A17.92,17.92,0,0,0,91,65.77c1,.38,3.2.22,4.32.59a2.33,2.33,0,0,1,.82-.53,6.82,6.82,0,0,1,2.18-.48,5.61,5.61,0,0,1,3.67,1.7,4,4,0,0,1,1.11,1.57c1,2.22.69,5.37.69,7.18A2.58,2.58,0,0,1,101,78.67a5.13,5.13,0,0,1-1.13-.14c-1.4-.31-2.32-.93-3.94-3.37l-1.22-.37c-1,.12-1.88.46-2.1,1.13a.41.41,0,0,1-.28.28c-.06,1.51-.16,3-.67,3.35l-.07,0c-.47,0-1.09-2.86-1.24-4.15a1.48,1.48,0,0,1-.47-.77,2.43,2.43,0,0,0-1.4-2.12,1.49,1.49,0,0,0-.58-.11,2.56,2.56,0,0,0-1.64.73.49.49,0,0,1-.23.1c-.28,1.38-.62,2.71-1.14,2.92h0c-.4,0-.58-2.09-.6-3.54a1.23,1.23,0,0,1-.5-.84c-.08-1.08-.34-1.39-.93-1.49h-.16c-.51,0-1,.39-1.6.57a.88.88,0,0,1-.24,0h0c-.39,1.43-.82,2.84-1.37,3h-.05c-.45,0-.46-2.54-.35-4a1.5,1.5,0,0,1-.31-.54c-.21-.81-.33-1.33-1.16-1.53a3.09,3.09,0,0,0-.77-.09l-.78,0c-.39,1.29-.74,1.43-1.47,1.63h-.09c-.55,0-.82-1.51-.82-2.5-.12-.1-.23-.22-.35-.34a1.5,1.5,0,0,0-1.06-.47.87.87,0,0,0-.74.35,1.11,1.11,0,0,1-.63.37,1.52,1.52,0,0,1-1.2.91H69.5c-.31,0-.53-.47-.66-1.06a3.7,3.7,0,0,0-1.33-.35,1.3,1.3,0,0,0-.66.17,4.1,4.1,0,0,0-1,.82c1.69,1.6,2.77,3.06,2.54,3.81-1.61,5.17-3,12-11.42,12.63-.58,0-1.15.06-1.7.06-5.43,0-9-2.16-9.67-7.94-.79-6.35,2.07-12.49,7.93-15.07a2.07,2.07,0,0,1,.82-.15,9.86,9.86,0,0,1,4,1.33c1.22-.63,2.31-1.06,2.91-1.32.27-.12.66-.42,1.33-.76a.8.8,0,0,1,.16-.08A14.2,14.2,0,0,1,68,58.65c.63,0,1.19-.07,1.68-.07m0-3.2h0c-.61,0-1.26,0-1.94.08A17.48,17.48,0,0,0,61.41,57l-.21.11a12.24,12.24,0,0,0-1.13.64l-.13.08-.32.14-1.22.52a10.32,10.32,0,0,0-4-1,5.2,5.2,0,0,0-2.11.42,16.24,16.24,0,0,0-8,7.6,18.67,18.67,0,0,0-1.8,10.8c.61,4.9,3.33,10.74,12.85,10.74.62,0,1.27,0,1.93-.07,10-.73,12.34-8.54,13.89-13.72.12-.39.24-.77.35-1.15a4.4,4.4,0,0,0,.16-.77,3.62,3.62,0,0,0,2.75,1.3,3.47,3.47,0,0,0,1-.13l.37-.11c.13,2.53.81,3.27,1.15,3.63a3.35,3.35,0,0,0,2.45,1.08,3,3,0,0,0,1-.17,3.57,3.57,0,0,0,1-.53c.7,2.54,2.39,2.95,3.4,2.95a3.26,3.26,0,0,0,1.24-.24,3.71,3.71,0,0,0,1.49-1.09c.06.26.12.51.19.75.29,1.09,1.06,4,3.83,4a3.29,3.29,0,0,0,1.71-.48,4.3,4.3,0,0,0,1.91-2.85,7.62,7.62,0,0,0,4,2.22,9.1,9.1,0,0,0,1.83.21,5.77,5.77,0,0,0,6-6.07c0-.28,0-.6,0-1,.05-2.11.13-5-1-7.49a7.34,7.34,0,0,0-2-2.72,8.71,8.71,0,0,0-5.77-2.49,9,9,0,0,0-3,.59l-.18.06a3.8,3.8,0,0,0-.47.18c-.44,0-.87-.07-1.31-.1s-.92-.06-1.19-.11S91.38,62.25,91,62l-.82-.61-.16-.11a10.84,10.84,0,0,0-1.89-1.11,12.38,12.38,0,0,0-3.33-.84l-.16,0h-.13l-.35,0-.38-.08-.56-.39c-.27-.19-.57-.41-.92-.63l-.59-.36-.43-.22a10.08,10.08,0,0,0-2.09-.78,21.75,21.75,0,0,0-2.59-.46l-.19,0-.94-.09h-.13l-.5,0h-.12L74,56.08a11.33,11.33,0,0,0-4.36-.7Z"/><path class="cls-6" d="M69.63,57.21a8,8,0,0,1,3.59.63c.4.06.83.09,1.3.13h.1l.51,0h.12c.27,0,.55,0,.85.08h.17a17.1,17.1,0,0,1,2.19.4,6.28,6.28,0,0,1,1.43.53l.3.15.42.26a12.48,12.48,0,0,0,2.11,1.33,6.32,6.32,0,0,0,.93.23l.44.07.14,0a9.84,9.84,0,0,1,2.66.62,8.34,8.34,0,0,1,1.32.79l.14.1A17,17,0,0,0,91,64.39c1,.39,3.2.22,4.32.6a2.33,2.33,0,0,1,.82-.53A6.82,6.82,0,0,1,98.27,64a5.56,5.56,0,0,1,3.67,1.7,4,4,0,0,1,1.11,1.57c1,2.22.69,5.37.69,7.17A2.58,2.58,0,0,1,101,77.29a5.09,5.09,0,0,1-1.13-.13c-1.4-.31-2.32-.93-3.94-3.37l-1.22-.37c-1,.12-1.88.46-2.1,1.12a.41.41,0,0,1-.28.29c-.06,1.51-.16,3-.67,3.35h-.07c-.47,0-1.09-2.85-1.24-4.14a1.52,1.52,0,0,1-.47-.77,2.43,2.43,0,0,0-1.4-2.12,1.49,1.49,0,0,0-.58-.11,2.56,2.56,0,0,0-1.64.73.49.49,0,0,1-.23.1c-.28,1.38-.62,2.71-1.14,2.92h0c-.4,0-.58-2.09-.6-3.54a1.23,1.23,0,0,1-.5-.84c-.08-1.08-.34-1.39-.93-1.49l-.16,0c-.51,0-1,.4-1.6.58a.88.88,0,0,1-.24,0h0c-.39,1.42-.82,2.84-1.37,3h-.05c-.45,0-.46-2.54-.35-4a1.39,1.39,0,0,1-.31-.53c-.21-.81-.33-1.33-1.16-1.53a3.09,3.09,0,0,0-.77-.09l-.78,0c-.39,1.29-.74,1.43-1.47,1.63h-.09c-.55,0-.82-1.51-.82-2.5l-.35-.34a1.5,1.5,0,0,0-1.06-.47.87.87,0,0,0-.74.35,1.11,1.11,0,0,1-.63.37,1.52,1.52,0,0,1-1.2.91H69.5c-.31,0-.53-.47-.66-1.06A3.7,3.7,0,0,0,67.51,65a1.3,1.3,0,0,0-.66.17,3.68,3.68,0,0,0-1,.82c1.69,1.6,2.77,3.06,2.54,3.81-1.61,5.17-3,12-11.42,12.63-.58,0-1.15.06-1.7.06-5.43,0-9-2.16-9.67-7.94-.79-6.36,2.07-12.49,7.93-15.07a2.07,2.07,0,0,1,.82-.15,9.86,9.86,0,0,1,4,1.33c1.22-.63,2.31-1.06,2.91-1.32.27-.12.66-.42,1.33-.77l.16-.07A14,14,0,0,1,68,57.28c.63-.05,1.19-.07,1.68-.07m0-3.2h0c-.61,0-1.26,0-1.94.08a17.49,17.49,0,0,0-6.28,1.53l-.21.11c-.5.26-.88.49-1.13.65l-.13.08-.32.14c-.33.13-.75.31-1.22.52a10.32,10.32,0,0,0-4-1,5.2,5.2,0,0,0-2.11.42,16.24,16.24,0,0,0-8,7.6A18.65,18.65,0,0,0,42.46,75c.61,4.91,3.33,10.75,12.85,10.75.62,0,1.27,0,1.93-.07,10-.73,12.34-8.55,13.89-13.72l.35-1.15a4.32,4.32,0,0,0,.16-.78,3.6,3.6,0,0,0,2.75,1.31,3.47,3.47,0,0,0,1-.13c.13,0,.25-.07.37-.12.13,2.54.81,3.28,1.15,3.64a3.35,3.35,0,0,0,2.45,1.08,3.29,3.29,0,0,0,1-.17,3.83,3.83,0,0,0,1-.53c.7,2.54,2.39,3,3.4,3a3.26,3.26,0,0,0,1.24-.24,3.71,3.71,0,0,0,1.49-1.09c.06.26.12.51.19.75.29,1.09,1.06,4,3.83,4a3.28,3.28,0,0,0,1.71-.47,4.3,4.3,0,0,0,1.91-2.86,7.49,7.49,0,0,0,4,2.22,8.43,8.43,0,0,0,1.83.21,5.76,5.76,0,0,0,6-6.06c0-.29,0-.61,0-1,.05-2.11.13-5-1-7.49a7.46,7.46,0,0,0-2-2.73,8.75,8.75,0,0,0-5.77-2.48,9,9,0,0,0-3,.59l-.18.06a3.8,3.8,0,0,0-.47.18c-.44,0-.87-.08-1.31-.1s-.92-.06-1.19-.11-.73-.52-1.07-.77L90.22,60l-.16-.11a10.84,10.84,0,0,0-1.89-1.11A12,12,0,0,0,84.84,58l-.16,0h-.13l-.35-.05-.38-.09c-.11-.06-.37-.24-.56-.38s-.57-.41-.92-.63l-.59-.36-.43-.22a10.08,10.08,0,0,0-2.09-.78A19.9,19.9,0,0,0,76.64,55l-.19,0-.94-.08h-.13l-.5,0h-.12L74,54.71a11.33,11.33,0,0,0-4.36-.7Z"/><path class="cls-8" d="M92.64,74.32c0,1.64-.13,3.48-.69,3.82s-1.38-3.91-1.34-4.64"/><path class="cls-8" d="M86.47,71.1c-.31,1.61-.68,3.41-1.28,3.66s-.75-4.07-.6-4.79"/><path class="cls-8" d="M81.21,69c-.42,1.58-.9,3.36-1.52,3.56s-.49-4.11-.29-4.82"/><path class="cls-8" d="M76.36,66.08c-.42,1.59-.77,1.74-1.55,2s-1.06-2.45-.85-3.17"/><path class="cls-8" d="M71.47,64.4c-.42,1.6-.77,1.75-1.55,2s-1.06-2.46-.85-3.17"/><path class="cls-9" d="M98.91,65.82H97.8l-.37,0c-.24,0-.72-.44-1.84-.82s-3.33-.21-4.32-.6-2.75-2.09-4.06-2.66-3-.53-4.16-.94S81,59,78.78,58.48a39.46,39.46,0,0,0-5.23-.68c-.33,0-1.32-.88-5.28-.56a12.58,12.58,0,0,0-6.63,2.07c-1.32.58-5,1.95-7.24,4.55-1.13,1.32-1.29,2.66-1.94,3.61S50,72,50,72l-.08.16-.07.13-.07.14-.06.11a1.06,1.06,0,0,0-.13.26l-.14,2.82a4.07,4.07,0,0,0,7.28,2.68,12.14,12.14,0,0,0,.79-1.14l0-.06a2.13,2.13,0,0,0,1-.9c.66-1.17.44-2,1.26-2.33s1.35-1.14,1.39-2.6,1-1.13,1.54-1.73.28-1.68.87-2,1.78-.13,2-.74a4.13,4.13,0,0,1,1.54-1.71,2.48,2.48,0,0,1,2.16.25c.72.31,2.08.2,2.42-.3a1.18,1.18,0,0,1,1.79.12,3.42,3.42,0,0,0,2,1.13c.89.18,1.49-.07,2.31.14s1,.72,1.17,1.53a2.46,2.46,0,0,0,2.35,1.45c.72-.2,1.18-.66,1.77-.56s.85.41.93,1.49,2.1,1.74,2.51,1.35a2.23,2.23,0,0,1,2.22-.62,2.42,2.42,0,0,1,1.4,2.12c.19,1.06,2.45,2.16,2.74,1.26.22-.67,1.14-1,2.09-1.12.89.28,1.79.54,2.7.79l.14,0a3.85,3.85,0,0,0,1.13.14,4.27,4.27,0,1,0-.06-8.53Z"/><path class="cls-10" d="M98.91,65.82H97.8l-.37,0c-.24,0-.72-.44-1.84-.82s-3.33-.21-4.32-.6-2.75-2.09-4.06-2.66-3-.53-4.16-.94S81,59,78.78,58.48a39.46,39.46,0,0,0-5.23-.68c-.33,0-1.32-.88-5.28-.56a12.58,12.58,0,0,0-6.63,2.07c-1.32.58-5,1.95-7.24,4.55-1.13,1.32-1.29,2.66-1.94,3.61S50,72,50,72l-.08.16-.07.13-.07.14-.06.11a1.06,1.06,0,0,0-.13.26l-.14,2.82a4,4,0,0,0,0,.6c1-.71,1.75-2.24,2.29-2.76a12.16,12.16,0,0,0,2.17-4.74,4.17,4.17,0,0,1,2.6-3.22,5.81,5.81,0,0,0,2.89-2.91,6.45,6.45,0,0,1,4-2.08c1.69-.21,5.48-.17,7.59-.43s2.08.09,3.11.82a19.62,19.62,0,0,0,6.29,2.23c1.29,0,2.53.29,2.79,1s2.61,2.34,4.17,2.41a4.62,4.62,0,0,1,3.32,1.13,4.31,4.31,0,0,0,4.48.82c1.89-.72,1.65-.16,7.83.18A4.27,4.27,0,0,0,98.91,65.82Z"/><path class="cls-11" d="M96.42,64.42c-1.49.5-3.54,3.84-1.23,7.68s3.31,4.65,5,5c2.27.51,3.9-.44,3.9-2.74s.49-6.76-1.8-8.74C99.5,63.24,97.9,63.93,96.42,64.42Z"/><path class="cls-12" d="M96.42,64.42c4.65,3.35,3.13,7.09,3.14,8.8,0,2.75,4.09,2.48,4.09.18s.9-5.78-1.39-7.76C99.5,63.24,97.9,63.93,96.42,64.42Z"/><path class="cls-13" d="M68.75,69.77c-1.6,5.17-3,12-11.41,12.63C51,82.86,46.75,80.88,46,74.52S48,62,53.9,59.45C57.16,58,69.49,67.39,68.75,69.77Z"/><path class="cls-13" d="M68.09,69.82c-1.51,4.88-2.81,11.33-10.76,11.91-6,.44-10-1.43-10.72-7.43s2-11.78,7.48-14.21c.32-.14-6,8.6-5.53,8.66.29,0,7.35-8.66,7.68-8.56s-4.37,7-4.1,7.06,5.54-6.52,5.89-6.36-6,9.56-5.76,9.7,7.17-9,7.48-8.78-4.16,6.93-3.85,7.13,5.38-6.18,5.68-6-5.11,7.59-4.82,7.8,6.5-6.59,6.9-6.28-3.58,7.11-3.24,7.4,5-5.89,5.36-5.57-6.06,11.75-5.79,12,7.23-10.51,7.45-10.22-3.91,8-3.79,8.17C63.85,76.7,68.17,69.57,68.09,69.82Z"/><path class="cls-14" d="M103.05,67.25a4,4,0,0,0-1.11-1.57c-2.76-2.4-4.36-1.71-5.85-1.22a2.33,2.33,0,0,0-.82.53h0c-1.12-.38-3.34-.21-4.32-.59a17.92,17.92,0,0,1-2.6-1.78l-.14-.1a8.34,8.34,0,0,0-1.32-.79,9.84,9.84,0,0,0-2.66-.62l-.14,0L83.65,61a6.32,6.32,0,0,1-.93-.23,12.48,12.48,0,0,1-2.11-1.33,4.23,4.23,0,0,0-.42-.25l-.3-.16a6.28,6.28,0,0,0-1.43-.53,17.1,17.1,0,0,0-2.19-.4H76.1c-.3,0-.58-.06-.85-.08h-.12l-.51,0h-.1c-.47,0-.9-.07-1.3-.13S71.91,57,68,57.28a14.24,14.24,0,0,0-5.14,1.22l-.16.08c-.67.35-1.06.65-1.33.77-.6.26-1.69.69-2.91,1.32-2-1.06-3.85-1.62-4.84-1.18-5.86,2.58-8.72,8.72-7.93,15.07s5,8.34,11.37,7.88c8.43-.62,9.81-7.46,11.42-12.63.23-.75-.85-2.21-2.54-3.81a3.68,3.68,0,0,1,1-.82,2.29,2.29,0,0,1,2,.18c.14.64.39,1.15.75,1a1.52,1.52,0,0,0,1.2-.91,1.11,1.11,0,0,0,.63-.37,1.19,1.19,0,0,1,1.8.12l.35.34c0,1,.3,2.66.91,2.49s1.08-.34,1.47-1.63a5.85,5.85,0,0,1,1.55.07c.83.2,1,.72,1.16,1.53a1.39,1.39,0,0,0,.31.53c-.11,1.48-.09,4.13.4,4s1-1.6,1.37-3a1.27,1.27,0,0,0,.28,0c.72-.2,1.18-.66,1.76-.56s.85.41.93,1.49a1.23,1.23,0,0,0,.5.84c0,1.51.21,3.7.65,3.53s.86-1.54,1.14-2.92a.49.49,0,0,0,.23-.1,2.23,2.23,0,0,1,2.22-.62,2.43,2.43,0,0,1,1.4,2.12,1.52,1.52,0,0,0,.47.77c.16,1.35.83,4.41,1.31,4.13s.61-1.84.67-3.35a.41.41,0,0,0,.28-.29c.22-.66,1.15-1,2.1-1.12l1.22.37c1.62,2.44,2.54,3.06,3.94,3.37,2.27.51,3.9-.44,3.9-2.74C103.74,72.62,104,69.47,103.05,67.25Z"/></g></g></svg>