<svg xmlns="http://www.w3.org/2000/svg" viewBox="0 0 180 180"><defs><style>.cls-1{isolation:isolate;}.cls-2,.cls-21{opacity:0.2;}.cls-2{mix-blend-mode:multiply;}.cls-3{fill:#8cc63f;}.cls-4{font-size:26px;fill:#fff;}.cls-5{letter-spacing:0em;}.cls-6{letter-spacing:-0.01em;}.cls-7{letter-spacing:-0.02em;}.cls-8{letter-spacing:-0.01em;}.cls-9{letter-spacing:0em;}.cls-10{letter-spacing:-0.01em;}.cls-11,.cls-18,.cls-23{fill:none;stroke-linecap:round;stroke-linejoin:round;}.cls-11{stroke:#fff;stroke-width:4.5px;}.cls-12{fill:#d29b3a;}.cls-13{fill:#c43a46;}.cls-14{fill:#d78b42;}.cls-15{fill:#fde3dc;}.cls-16{fill:#514747;}.cls-17{fill:#8e685f;}.cls-18,.cls-23{stroke:#1e134d;}.cls-18{stroke-width:1.8px;}.cls-19{fill:#d9c6a1;}.cls-20{fill:#dac688;}.cls-22{fill:#dee455;}.cls-23{stroke-width:1.35px;}.cls-24{fill:#002451;opacity:0.27;}</style></defs><title>23</title><g class="cls-1"><g id="Capa_2" data-name="Capa 2"><g id="Layer_1" data-name="Layer 1"><g class="cls-2"><rect x="4" y="4" width="176" height="176" rx="12"/></g><rect class="cls-3" width="176" height="176" rx="12"/><text class="cls-4" transform="translate(43.92 163.93)"><tspan class="cls-5">G</tspan><tspan class="cls-6" x="18.22" y="0">a</tspan><tspan class="cls-7" x="34.13" y="0">l</tspan><tspan class="cls-8" x="40.74" y="0">l</tspan><tspan class="cls-9" x="47.56" y="0">i</tspan><tspan class="cls-10" x="53.62" y="0">n</tspan><tspan x="68.98" y="0">a</tspan></text><path class="cls-11" d="M147,46.93a3.79,3.79,0,0,0,1.8,0c.77-.25,2.71-2.57-.26-4.38s-14.51-4.82-22.46.24a74.42,74.42,0,0,0-12.59,10.12c-3.29,3.29-8.25,4.69-19.45,3.41-6.57-.76-13.55-.64-16.08-11.13-3.15-13.11-9.44-18.63-16.7-21,1.64-2.16,1.2-3.42.53-4.85A2.57,2.57,0,0,0,58.19,18c-.81.59-1.4,1-2,.32s-1.09-.88-2.7-1.29-3.5,1.69-3.63,3.3-.86,2.07-1.93,1-2.57-1.4-4.81-.21-1.83,4.29-1.58,6.09a3.28,3.28,0,0,0,1.11,2h0c-.51.31-6.17,7.78-5.91,8.16s6.72-1.75,8.16-2.25a6.22,6.22,0,0,0-.44,1.09,6.89,6.89,0,0,0,1.27,5.65,5,5,0,0,0,2.26,1.84,1.88,1.88,0,0,0,2.19-.45,2.35,2.35,0,0,0,.77-2.27c-.1-.29-.22-.57-.34-.85a12.31,12.31,0,0,1,1.7,8.37,38.56,38.56,0,0,1-2.13,8.14,22.67,22.67,0,0,0-1.34,9.55c0,.18.13,1,.16,1.24a33.64,33.64,0,0,0,2.39,8.92,55.44,55.44,0,0,0,5.58,10.34A34.32,34.32,0,0,0,62.36,93c1.8,1.61,3.82,3,5.73,4.47a1.62,1.62,0,0,1,.58.79c.47,1.69.82,3.41,1.33,5.08a15.92,15.92,0,0,0,3.62,6.6c.17.17.33.33.5.48q-.14.51-.3,1a37.78,37.78,0,0,1-2,5.35,28.07,28.07,0,0,1-1.33,2.55c-.27.47-.56.93-.88,1.39a4.19,4.19,0,0,1-2.53.25c-.9-.3-1,.34-1,.34a24.51,24.51,0,0,0-3.69-.86,1.17,1.17,0,0,0-1.38.86,6.31,6.31,0,0,0-2.79,0c-1,.39.3,2.28,1,1.89s4.6,0,4.6,0-2.71.56-3.44,1.21.43.94.9.94,4.3-1.2,5.29-1.08,2.36-.33,3.31-.08a3.87,3.87,0,0,0,3.26-.9c.49-.48.27-1.15.09-2,0-.32.1-.64.16-1a27.08,27.08,0,0,1,.66-2.8,39.54,39.54,0,0,1,2-5.35c.06-.15.13-.3.2-.45a7.93,7.93,0,0,0,4.28.6,18.08,18.08,0,0,0,8.94-4.12,1.6,1.6,0,0,1,1.83-.24,15.86,15.86,0,0,0,8.59,1.37c.1,0,.21.09.31.14h0l.28-.13q.16,1.23.27,2.46a43.57,43.57,0,0,1,0,5.36,27.9,27.9,0,0,1-.65,4.67,3.69,3.69,0,0,1-1.78,0c-.9-.3-1,.35-1,.35a23.21,23.21,0,0,0-3.7-.86,1.17,1.17,0,0,0-1.37.86,6.35,6.35,0,0,0-2.8,0c-.94.38.3,2.27,1,1.89s4.6,0,4.6,0a11.82,11.82,0,0,0-3.44,1.2c-.73.65.43.95.9.95s4.3-1.2,5.29-1.08,2.36-.34,3.31-.08a3.89,3.89,0,0,0,3.27-.9c.77-.78.22-2.07-.48-3.66h0a31.81,31.81,0,0,1-.63-3.46,43.53,43.53,0,0,1-.33-5.35c0-1,.07-2.07.15-3.11a20.25,20.25,0,0,0,9-6.27,3,3,0,0,1,1.44-1c2.48-.85,4.24-2.62,6.25-4.26,7.88-6.45,7.21-21.74,11.95-20.81,0,0-.13,3,1.55,3.1s2.84-1.29,2.19-3.35c0,0,3.35,2.19,5,.77s2.84-4.64,0-7.61c0,0,4.77,2.58,6.06-1.67s.9-8.13-2.45-9.55c0,0,3,.91,3.74-.12S152.52,50.67,147,46.93Z"/><path class="cls-12" d="M81.74,102.17a39.47,39.47,0,0,0-3.18,4.91c-.94,1.68-1.78,3.4-2.55,5.14a39.17,39.17,0,0,0-2,5.36,22.91,22.91,0,0,0-1,5.72l-4.21-1.56a23.07,23.07,0,0,0,3-5,37.78,37.78,0,0,0,2-5.35q.84-2.73,1.43-5.56a39.17,39.17,0,0,0,.79-5.79Z"/><path class="cls-12" d="M73.11,119.66c-.26,1.63.78,2.88,0,3.65a3.87,3.87,0,0,1-3.26.9c-.95-.25-2.33.21-3.31.08s-4.82,1.08-5.29,1.08-1.63-.3-.9-.94,3.44-1.21,3.44-1.21-3.92-.43-4.6,0-1.94-1.5-1-1.89a6.31,6.31,0,0,1,2.79,0,1.17,1.17,0,0,1,1.38-.86,24.51,24.51,0,0,1,3.69.86s.13-.64,1-.34,2.8-.09,3.27-.78A3.07,3.07,0,0,1,71.69,119"/><path class="cls-12" d="M104.47,101a27.66,27.66,0,0,0-1.21,5.39,46.49,46.49,0,0,0-.39,5.37,43.53,43.53,0,0,0,.33,5.35,25.92,25.92,0,0,0,1.18,5.32l-4.48.14a26.48,26.48,0,0,0,.83-5.38,43.57,43.57,0,0,0,0-5.36,46.11,46.11,0,0,0-.73-5.33,28.87,28.87,0,0,0-1.57-5.31Z"/><path class="cls-12" d="M103.84,120.6c.7,1.59,1.25,2.88.48,3.66a3.89,3.89,0,0,1-3.27.9c-1-.26-2.32.2-3.31.08s-4.81,1.08-5.29,1.08-1.63-.3-.9-.95a11.82,11.82,0,0,1,3.44-1.2s-3.91-.43-4.6,0-1.93-1.51-1-1.89a6.35,6.35,0,0,1,2.8,0,1.17,1.17,0,0,1,1.37-.86,23.21,23.21,0,0,1,3.7.86s.13-.65,1-.35a3.74,3.74,0,0,0,3.27-.77c.47-.69,1.2-1.21,1.33-1.16"/><path class="cls-13" d="M43.47,29.76a3.65,3.65,0,0,1-2-2.59c-.25-1.8-.67-4.9,1.58-6.09s3.73-.89,4.81.21,1.8.64,1.93-1,2-3.71,3.63-3.3,2.05.61,2.7,1.29,1.24.27,2-.32a2.57,2.57,0,0,1,3.58,1.32c.83,1.76,1.3,3.25-2,6.49s-13.32,2.64-13.32,2.64"/><path class="cls-14" d="M148.52,42.55c3,1.81,1,4.13.26,4.38a3.79,3.79,0,0,1-1.8,0c5.54,3.74,1.54,9.93.77,11S144,58,144,58c3.35,1.42,3.74,5.29,2.45,9.55s-6.06,1.67-6.06,1.67c2.84,3,1.68,6.19,0,7.61s-5-.77-5-.77c.65,2.06-.52,3.48-2.19,3.35s-1.55-3.1-1.55-3.1c-4.74-.93-4.07,14.36-11.95,20.81-2,1.64-3.77,3.41-6.25,4.26a3,3,0,0,0-1.44,1,19.68,19.68,0,0,1-11.18,6.86,3.53,3.53,0,0,0-.65.26h0c-.1,0-.21-.15-.31-.14A15.86,15.86,0,0,1,91.26,108a1.6,1.6,0,0,0-1.83.24,18.08,18.08,0,0,1-8.94,4.12,7.81,7.81,0,0,1-6.87-2.46,15.92,15.92,0,0,1-3.62-6.6c-.51-1.67-.86-3.39-1.33-5.08a1.62,1.62,0,0,0-.58-.79c-1.91-1.5-3.93-2.86-5.73-4.47a34.32,34.32,0,0,1-5.44-6.33A55.44,55.44,0,0,1,51.34,76.3,33.64,33.64,0,0,1,49,67.38a3.68,3.68,0,0,0-.24-.68h0a2.23,2.23,0,0,0,.08-.56,22.67,22.67,0,0,1,1.34-9.55,38.56,38.56,0,0,0,2.13-8.14c.5-4.12-.62-8.61-4.18-10.67-1.39-.8-2.44-1.25-3.23-2.71-1.31-2.42-4.1-3.3-1.45-7.41,2.76-4.3,8.26-5.41,12.8-4.69,9.31,1.48,17.87,6.15,21.74,22.22C80.47,55.68,87.45,55.56,94,56.32c11.2,1.28,16.16-.12,19.45-3.41a74.42,74.42,0,0,1,12.59-10.12C134,37.73,145.56,40.75,148.52,42.55Z"/><path class="cls-15" d="M52.87,29.28a1.25,1.25,0,0,1-1.27,1.27,1.28,1.28,0,0,1-1.26-1.23A1.34,1.34,0,0,1,51.59,28,1.31,1.31,0,0,1,52.87,29.28Z"/><path class="cls-16" d="M52.81,29.27a1.49,1.49,0,0,1-1.21,1,1.45,1.45,0,0,1-1.15-1,1.41,1.41,0,0,1,1.14-1A1.58,1.58,0,0,1,52.81,29.27Z"/><path class="cls-17" d="M68.32,72.08s6.06,14.31,16,16.63,12-3.74,12-3.74.4,1.16,5.17,1.68,8.64-2.71,7.35-5.54A6.35,6.35,0,0,0,114.22,79a4.15,4.15,0,0,0-1.8-7s3.87,4.64-.65,5.93a19.36,19.36,0,0,1-9.41-.13s6.06,5.42,2.32,6.06-8.82-1.29-12.79-2.83c0,0,3.77,4-.62,5.41S74.38,84.46,68.32,72.08Z"/><path class="cls-18" d="M68.32,72.08s6.06,14.31,16,16.63,12-3.74,12-3.74.4,1.16,5.17,1.68,8.64-2.71,7.35-5.54A6.35,6.35,0,0,0,114.22,79a4.15,4.15,0,0,0-1.8-7"/><path class="cls-13" d="M44.87,35c1.1.69,2.1,1.31,3.08,2a7.37,7.37,0,0,1,2.95,3.93,2.35,2.35,0,0,1-.77,2.27,1.88,1.88,0,0,1-2.19.45,5,5,0,0,1-2.26-1.84,6.89,6.89,0,0,1-1.27-5.65A6.62,6.62,0,0,1,44.87,35Z"/><path class="cls-19" d="M42.6,29.16c0,2.69,2.49,2.45,2.7,3.17.25.88-.62,2.28-.45,2.74-1.43.49-7.91,2.62-8.16,2.25S42.09,29.47,42.6,29.16Z"/><path class="cls-20" d="M135,56l-.2-.06Z"/><g class="cls-21"><path class="cls-22" d="M147,46.93a3.79,3.79,0,0,0,1.8,0c.77-.25,2.71-2.57-.26-4.38s-14.51-4.82-22.46.24a74.42,74.42,0,0,0-12.59,10.12c-3.29,3.29-8.25,4.69-19.45,3.41-6.57-.76-13.55-.64-16.08-11.13C74.76,32,68.4,26.47,61.06,24.11a2.07,2.07,0,0,0-1.15,1.35c-.38,1.47,1.05,2.72,2.25,3.66A29.51,29.51,0,0,1,72.54,45.3c.86,3.56,1.07,7.34,2.8,10.56a17.57,17.57,0,0,0,6.38,6.32c11,6.82,26.51,5.22,35.88-3.7,2.33-2.22,4.3-4.82,6.71-7,2.26-2,5.06-3.62,8-3.72a.31.31,0,0,0,0,.1c.06.43.53.66.82,1a1.37,1.37,0,0,1-.73,2.13c1.71-.42,3.8,0,4.65,1.54S136.57,56.32,135,56a5.59,5.59,0,0,1,4.14,3.62,3.82,3.82,0,0,1-1.32,3.93,2.86,2.86,0,0,1,2.83,2.7c0,2-2.39,3.48-4.37,3a3.77,3.77,0,0,1,1,6.24,3.11,3.11,0,0,0-1.1,1c1.09.56,3.09,1.33,4.26.34,1.68-1.42,2.84-4.64,0-7.61,0,0,4.77,2.58,6.06-1.67s.9-8.13-2.45-9.55c0,0,3,.91,3.74-.12S152.52,50.67,147,46.93Z"/></g><path class="cls-23" d="M147,46.93a3.79,3.79,0,0,0,1.8,0c.77-.25,2.71-2.57-.26-4.38s-14.51-4.82-22.46.24a74.42,74.42,0,0,0-12.59,10.12c-3.29,3.29-8.25,4.69-19.45,3.41-6.57-.76-13.55-.64-16.08-11.13-3.15-13.11-9.44-18.63-16.7-21,1.64-2.16,1.2-3.42.53-4.85A2.57,2.57,0,0,0,58.19,18c-.81.59-1.4,1-2,.32s-1.09-.88-2.7-1.29-3.5,1.69-3.63,3.3-.86,2.07-1.93,1-2.57-1.4-4.81-.21-1.83,4.29-1.58,6.09a3.28,3.28,0,0,0,1.11,2h0c-.51.31-6.17,7.78-5.91,8.16s6.72-1.75,8.16-2.25a6.22,6.22,0,0,0-.44,1.09,6.89,6.89,0,0,0,1.27,5.65,5,5,0,0,0,2.26,1.84,1.88,1.88,0,0,0,2.19-.45,2.35,2.35,0,0,0,.77-2.27c-.1-.29-.22-.57-.34-.85a12.31,12.31,0,0,1,1.7,8.37,38.56,38.56,0,0,1-2.13,8.14,22.67,22.67,0,0,0-1.34,9.55c0,.18.13,1,.16,1.24a33.64,33.64,0,0,0,2.39,8.92,55.44,55.44,0,0,0,5.58,10.34A34.32,34.32,0,0,0,62.36,93c1.8,1.61,3.82,3,5.73,4.47a1.62,1.62,0,0,1,.58.79c.47,1.69.82,3.41,1.33,5.08a15.92,15.92,0,0,0,3.62,6.6c.17.17.33.33.5.48q-.14.51-.3,1a37.78,37.78,0,0,1-2,5.35,28.07,28.07,0,0,1-1.33,2.55c-.27.47-.56.93-.88,1.39a4.19,4.19,0,0,1-2.53.25c-.9-.3-1,.34-1,.34a24.51,24.51,0,0,0-3.69-.86,1.17,1.17,0,0,0-1.38.86,6.31,6.31,0,0,0-2.79,0c-1,.39.3,2.28,1,1.89s4.6,0,4.6,0-2.71.56-3.44,1.21.43.94.9.94,4.3-1.2,5.29-1.08,2.36-.33,3.31-.08a3.87,3.87,0,0,0,3.26-.9c.49-.48.27-1.15.09-2,0-.32.1-.64.16-1a27.08,27.08,0,0,1,.66-2.8,39.54,39.54,0,0,1,2-5.35c.06-.15.13-.3.2-.45a7.93,7.93,0,0,0,4.28.6,18.08,18.08,0,0,0,8.94-4.12,1.6,1.6,0,0,1,1.83-.24,15.86,15.86,0,0,0,8.59,1.37c.1,0,.21.09.31.14h0l.28-.13q.16,1.23.27,2.46a43.57,43.57,0,0,1,0,5.36,27.9,27.9,0,0,1-.65,4.67,3.69,3.69,0,0,1-1.78,0c-.9-.3-1,.35-1,.35a23.21,23.21,0,0,0-3.7-.86,1.17,1.17,0,0,0-1.37.86,6.35,6.35,0,0,0-2.8,0c-.94.38.3,2.27,1,1.89s4.6,0,4.6,0a11.82,11.82,0,0,0-3.44,1.2c-.73.65.43.95.9.95s4.3-1.2,5.29-1.08,2.36-.34,3.31-.08a3.89,3.89,0,0,0,3.27-.9c.77-.78.22-2.07-.48-3.66h0a31.81,31.81,0,0,1-.63-3.46,43.53,43.53,0,0,1-.33-5.35c0-1,.07-2.07.15-3.11a20.25,20.25,0,0,0,9-6.27,3,3,0,0,1,1.44-1c2.48-.85,4.24-2.62,6.25-4.26,7.88-6.45,7.21-21.74,11.95-20.81,0,0-.13,3,1.55,3.1s2.84-1.29,2.19-3.35c0,0,3.35,2.19,5,.77s2.84-4.64,0-7.61c0,0,4.77,2.58,6.06-1.67s.9-8.13-2.45-9.55c0,0,3,.91,3.74-.12S152.52,50.67,147,46.93Z"/><path class="cls-24" d="M145.48,82.86a12.82,12.82,0,0,0,4.19-6.9A11.32,11.32,0,0,0,154,69.85a20.57,20.57,0,0,0,.9-8.47,17.89,17.89,0,0,0,2.84-9.66c-.91,6.36-3.85,9.09-3.85,9.09-1,11.55-5.1,14.24-5.1,14.24-1.5,6.75-8.69,8.25-9.74,8.1-2.74-.39-7,1.95-7,1.95,0,2.85-2.85,9.29-5.84,13.79s-9.3,6.3-12.3,9-6.44,4.2-6,6.15,2.55,6.45,1.8,10.64-5.25,5.85-8.22,5.65-5.43.35-8.72.8-5.1-2.25-7.35-4.8-4.2-8.09-4.2-8.09c-.75,2.7-1.8,3.6-3.59,7.14s-5.1,4.25-8.1,3.95-3.75.9-8.09,1-5-1.45-7.65-4.95.75-7.59,4.12-8.94,7.72-.15,9.22-1.2,1.24-3.41,1.24-3.41c-3.26-1.17-5.44-12.63-5.44-12.63S56.29,96.34,47.62,81.5C41.68,71.34,41.75,60.67,42.39,55A29.58,29.58,0,0,0,41,66.86c0,.22,0,.46.11,1,0,.17,0,.33.06.42a42.06,42.06,0,0,0,2.9,11A63.07,63.07,0,0,0,50.4,91.05a41.52,41.52,0,0,0,6.71,7.78c1.45,1.3,2.9,2.38,4.3,3.42l.2.15c.25,1,.52,2.09.86,3.22A26.56,26.56,0,0,0,65.32,112c-.12.31-.24.6-.37.89a17.33,17.33,0,0,0-2-.3l-.71,0a9.35,9.35,0,0,0-3.59.72,10.17,10.17,0,0,0-3.41.74,8.4,8.4,0,0,0-5.07,9.52,9.68,9.68,0,0,0,2.26,4.52,9.32,9.32,0,0,0,1,1,8.64,8.64,0,0,0,4.66,3.68,9.9,9.9,0,0,0,3.17.53,13,13,0,0,0,3.51-.6c.46-.12,1.34-.35,1.87-.46h.28a16.55,16.55,0,0,0,2-.14,10.44,10.44,0,0,0,1.59.12,11.81,11.81,0,0,0,8.18-3.28,8.85,8.85,0,0,0,2.54-5.35c0,.32.08.63.14,1A9.59,9.59,0,0,0,83.62,129a10.27,10.27,0,0,0,1,1,8.73,8.73,0,0,0,4.66,3.68,9.94,9.94,0,0,0,3.17.53,13.24,13.24,0,0,0,3.51-.6c.47-.13,1.34-.35,1.87-.46h.29a16.52,16.52,0,0,0,2-.14,10.57,10.57,0,0,0,1.6.12,11.75,11.75,0,0,0,8.17-3.29,9.35,9.35,0,0,0,2.46-8.68,16.63,16.63,0,0,0-1-3.06c-.12-.56-.22-1.19-.33-2s-.17-1.59-.21-2.43a29.21,29.21,0,0,0,6.41-5.31,25.11,25.11,0,0,0,6.51-4.34c.33-.29.65-.55,1-.8,5.38-4.41,7.74-10.82,9.37-15.94a10,10,0,0,0,5.58-2.11A9.91,9.91,0,0,0,145.48,82.86Z"/></g></g></g></svg>