<svg xmlns="http://www.w3.org/2000/svg" viewBox="0 0 135.67 139.61"><defs><style>.cls-1{isolation:isolate;}.cls-2{fill:#002451;opacity:0.27;}.cls-3{fill:#fff2cc;}.cls-4{fill:#29abe2;}.cls-5{opacity:0.2;mix-blend-mode:multiply;}.cls-6{fill:#fff;}.cls-7{fill:#000f56;}.cls-8{fill:#7d4a25;}.cls-9{fill:#9a2a2f;}.cls-10{fill:#b7847d;}.cls-11{fill:#8e685f;}.cls-12{fill:#ebbaab;}.cls-13{fill:#fde3dc;}.cls-14{fill:#514747;}.cls-15{fill:none;stroke:#1e134d;stroke-linecap:round;stroke-linejoin:round;stroke-width:1.35px;}.cls-16{fill:#7e6657;}</style></defs><title>36</title><g class="cls-1"><g id="Capa_2" data-name="Capa 2"><g id="Layer_1" data-name="Layer 1"><rect class="cls-2" x="15.58" y="19.53" width="120.09" height="120.09" rx="36.12"/><rect class="cls-3" x="12.48" y="16.42" width="120.09" height="120.09" rx="36.12"/><path class="cls-4" d="M132.09,106.22H119.15A17.13,17.13,0,0,0,102,123.34v12.74A36.14,36.14,0,0,0,132.09,106.22Z"/><g class="cls-5"><rect x="114.44" y="114.72" width="1.38" height="10.82"/><polygon points="115.1 110.62 112.31 115.44 117.88 115.44 115.1 110.62"/><polygon points="115.13 129.56 117.92 124.74 112.35 124.74 115.13 129.56"/><rect x="109.72" y="119.44" width="10.82" height="1.38"/><polygon points="105.64 120.11 110.47 122.89 110.47 117.32 105.64 120.11"/><polygon points="124.59 120.08 119.76 117.29 119.76 122.86 124.59 120.08"/></g><rect class="cls-6" x="113.44" y="113.72" width="1.38" height="10.82"/><polygon class="cls-6" points="114.1 109.62 111.31 114.44 116.88 114.44 114.1 109.62"/><polygon class="cls-6" points="114.13 128.56 116.92 123.74 111.35 123.74 114.13 128.56"/><rect class="cls-6" x="108.72" y="118.44" width="10.82" height="1.38"/><polygon class="cls-6" points="104.64 119.11 109.47 121.89 109.47 116.32 104.64 119.11"/><polygon class="cls-6" points="123.59 119.08 118.76 116.29 118.76 121.86 123.59 119.08"/><g class="cls-5"><path class="cls-7" d="M105.89,8a3.33,3.33,0,0,1,2.79,1.08,3.41,3.41,0,0,0,2.41,1.64.89.89,0,0,0,.61-.21.86.86,0,0,1,.6-.27c1,0,2,2.09,4.09,3.19,2.46,1.3,3.92,6.54,1.8,6.74.32.25.29.86.66,1.1.11.07.26.11.32.24a1.38,1.38,0,0,1,0,.29c0,.36.47.48.74.71a1.79,1.79,0,0,1,.4.62c.1.2.19.39.28.59,1.69,2.1,3.31,4.26,3.16,4.47,0,0-.09,0-.19,0-1.14,0-6.79-1.83-8.58-2.44a5.52,5.52,0,0,1-1.08,5.27.57.57,0,0,1-.49.27c-.54,0-1.24-.69-2-.69a.84.84,0,0,0-.35.07c-.72.27-1.36,1.12-1.93,1.12a.57.57,0,0,1-.43-.21h0a7.23,7.23,0,0,0-.68,1.53,1.57,1.57,0,0,1-.37.84.55.55,0,0,1-.35.12.37.37,0,0,1-.4-.29,9,9,0,0,0-.07,4.73,1.54,1.54,0,0,1,.07.67.5.5,0,0,1-.42.39h-.07a.23.23,0,0,1-.08.33c.06.19.12.38.19.56a83.18,83.18,0,0,1,2.89,8.89,36.39,36.39,0,0,1,3,6.53,1.09,1.09,0,0,1-.4.07,1.18,1.18,0,0,1-1-.56,3.49,3.49,0,0,0-.08,2.89l2.49,9.41a3.8,3.8,0,0,1-2.22-2.32q-1,4.06-1.59,8.19a4.19,4.19,0,0,1-.93-2.8c-.9.68-1,2-1.08,3.08a26.43,26.43,0,0,1-2.87,10l-.9-1.45a11.11,11.11,0,0,0-1.11,2.27,1,1,0,0,1-.28-1c-.47,1-1,1.91-1.42,2.87-.3.6-.86,1.29-1.44,1.29a.75.75,0,0,1-.38-.1l-.07-.05c-3.69,5.67-7.35,10.2-9.08,12.42-1.07,1.37-2.56,3.71-4.15,5.61,1.38,1.5,1.22,3-.13,4.54a6.16,6.16,0,0,1-4,2.09,1,1,0,0,0,.08.22c.08.18.22.33.32.51a1.62,1.62,0,0,1-.08,1.51l.09.31a5.63,5.63,0,0,0,1,.1,3.17,3.17,0,0,0,1-.14,1.34,1.34,0,0,1,.5-.11.64.64,0,0,1,.65.45,27.06,27.06,0,0,1,4-1.07h.23a1.25,1.25,0,0,1,1.31.92,9.84,9.84,0,0,1,2-.25,3.34,3.34,0,0,1,1.09.15c1,.37,0,2.18-.82,2.18A.42.42,0,0,1,93,117a3,3,0,0,0-1.13-.14,36.64,36.64,0,0,0-4,.34s3,.53,3.84,1.22-.44,1.06-1,1.07h0c-.53,0-4.24-1-5.61-1h-.25a3.28,3.28,0,0,1-.56,0c-.69,0-1.47-.13-2.17-.13a3.32,3.32,0,0,0-.92.11,2.76,2.76,0,0,1-.84.11,4.32,4.32,0,0,1-2.8-1c-.76-.71-.44-1.9.13-3.36,0-.77-.66-1.48-.54-2.24A24.65,24.65,0,0,1,68,108.16a19.06,19.06,0,0,1-2.52-1.64,1.89,1.89,0,0,0-1.18-.48,2,2,0,0,0-.84.21,13.61,13.61,0,0,1-3.7,1.2c.07.34.32.66.4,1,.16.7-.36,1.48-.07,2.14a5.48,5.48,0,0,0,.31.52,1.64,1.64,0,0,1-.12,1.5c0,.11,0,.21.07.32a5.42,5.42,0,0,0,1.12.13,2.72,2.72,0,0,0,.85-.12,1.55,1.55,0,0,1,.48-.08.63.63,0,0,1,.66.46,26.21,26.21,0,0,1,4.08-.94h.17a1.27,1.27,0,0,1,1.35,1,10.06,10.06,0,0,1,1.82-.19,3.52,3.52,0,0,1,1.26.19c.95.39-.1,2.15-.87,2.15a.46.46,0,0,1-.22-.06,4,4,0,0,0-1.5-.18c-1.52,0-3.58.23-3.58.23s3,.62,3.8,1.33-.48,1-1,1-4.34-1.2-5.66-1.2H63a2.75,2.75,0,0,1-.41,0c-.77,0-1.68-.2-2.47-.2a3.19,3.19,0,0,0-.77.09,2.75,2.75,0,0,1-.73.09,4.38,4.38,0,0,1-2.88-1.09c-.74-.74-.38-1.91.23-3.35.06-.79-.64-1.53-.46-2.31.11-.5.56-.84.77-1.3a2,2,0,0,0,.16-1.06c-4.64-.54-8.23-3.71-10.35-6a25.8,25.8,0,0,1-4.83-1.1,1.23,1.23,0,0,1-.82-.55c-.13-.28.08-.68.35-.68l.1,0c-2.3-1.68-5.72-.85-8.13-2.37-.43-.28-.8-1-.34-1.22a.53.53,0,0,1,.25,0l.36,0h.06a.72.72,0,0,0,.64-.5,21.27,21.27,0,0,1-2.76-2c-4.09-3.43-5.83-8.76-7.08-13.31a1.32,1.32,0,0,1-1.26.7,2.26,2.26,0,0,1-1.29-.42,2.67,2.67,0,0,1-.89-2.73A5.11,5.11,0,0,1,22,74.88a2.24,2.24,0,0,1-1.45.5,2.79,2.79,0,0,1-2.09-.95A3.83,3.83,0,0,1,18,70.67a3.79,3.79,0,0,1-2.94,1.26,4.06,4.06,0,0,1-3.78-2.24A2,2,0,0,1,9.23,71a2.77,2.77,0,0,1-1.88-.71C6.2,69.2,6,67.45,6,65.85c.06-4.38,1.36-8.65,2.84-12.78a19.5,19.5,0,0,1,1.74-3.9A14.72,14.72,0,0,1,13.38,46c.42-.36.85-.72,1.29-1.05l.54-.39.24-.17.37-.25.24-.16.47-.29.14-.08c.2-.12.4-.24.61-.35l.2-.11.46-.24.2-.1.66-.31A21.87,21.87,0,0,1,23.94,41l.35-.15a8.26,8.26,0,0,1,2.81-.55,5.67,5.67,0,0,1,1.48.19,6.71,6.71,0,0,0,1.57.35,1.5,1.5,0,0,0,.62-.13l-1.88-1.05c-.29-.17-.62-.4-.6-.74s.46-.53.88-.53a1.36,1.36,0,0,1,.29,0,12.34,12.34,0,0,1,7.12,3.81c.4.44.9,1,1.47,1a.76.76,0,0,0,.21,0V41.61a.82.82,0,0,1,.08-.41.41.41,0,0,1,.37-.2,1.17,1.17,0,0,1,.7.31,3.77,3.77,0,0,1,1.13,1.93c.15.65.12,1.33.29,2a4.86,4.86,0,0,0,1.57,2.36l.55.16h0l.57.12h0l.6.1h0l.63.07h0l.67,0h0l.71,0H47l.83,0c1.94-.09,4.28-.34,7.19-.67l.52-.06.54-.06c3.22-.81,7.19-1.46,7.56-2.08s-2-1.26-1.57-1.76c.1-.12.4-.17.81-.17A15.94,15.94,0,0,1,67,44a6,6,0,0,0,2.37.48c.63,0,1-.11,1-.26-.47-.82-1.9-1.41-1.58-1.72.63-.62,3.63-.49,4.78-.71A10.69,10.69,0,0,0,79,38.64a15.7,15.7,0,0,0,1.44-2.87c.23-1.43,0-1.86-.49-1.86-.66,0-1.71.92-2.11.92a.13.13,0,0,1-.14-.1,3.73,3.73,0,0,1,.83-2.89c.45-.71,3.13-2.81,3.18-3.14.09-.56-2.69-.25-2.2-1.28L81.7,26c.38-.25.81-.7.56-1.08a.52.52,0,0,0-.45-.21,2,2,0,0,0-.72.18,1.5,1.5,0,0,1-.52.1c-.27,0-.52-.1-.56-.35.62-1,2-1.26,3.06-1.84s1.46-.74,1.84-1.81a3.27,3.27,0,0,1-.75.09,1.38,1.38,0,0,1-1-.33c0-.86,1-1.27,1.89-1.43A8.92,8.92,0,0,0,90,16.66c.43-.44-2.3-.93-1.73-1.74,1.17-.56,4.61-.22,6.79-1.77A1.35,1.35,0,0,1,95.3,13c-.81-.55-1.09-.69-.83-1.12a.47.47,0,0,1,.3-.87l.37.05a4.27,4.27,0,0,1,3.28-1.76c.77,0,1.47.21,2.2.21a3.1,3.1,0,0,0,2-.76A6.48,6.48,0,0,1,105.89,8m0-6h0a12.93,12.93,0,0,0-6,1.42,12.38,12.38,0,0,0-1.5-.1,9.64,9.64,0,0,0-6,2.14,6.34,6.34,0,0,0-3.49,3.19,10.11,10.11,0,0,0-3.3.87,6.17,6.17,0,0,0-2.27,1.91,6.62,6.62,0,0,0-1.07,2.47,7.65,7.65,0,0,0-4.89,5,8.33,8.33,0,0,0-2.51,2.62A6,6,0,0,0,74,25a6.52,6.52,0,0,0-.49,3.52l-.06.1a9.6,9.6,0,0,0-1.64,7.26h-.28c-2,.12-4.27.25-6.15,1.57a17.9,17.9,0,0,0-2.51-.22,6.77,6.77,0,0,0-5.25,2.13A6,6,0,0,0,56.58,41L55,41.36l-.15,0-.19,0-.33,0c-2.92.33-5.08.56-6.77.63l-.68,0h-.48c0-.07,0-.13,0-.2a9.85,9.85,0,0,0-2.94-5A7.16,7.16,0,0,0,38.7,35a6.78,6.78,0,0,0-1.28.13,18.25,18.25,0,0,0-7-2.68,8.25,8.25,0,0,0-1.22-.1,7,7,0,0,0-5.29,2.32,16.46,16.46,0,0,0-1.61.49A27.92,27.92,0,0,0,16.37,37c-.29.12-.58.26-.86.4l-.21.1-.05,0-.6.31-.26.14-.79.45-.18.11-.6.38-.31.2-.47.31-.06,0-.24.17-.68.5c-.56.42-1.11.87-1.63,1.33A20.24,20.24,0,0,0,5.5,46a24.94,24.94,0,0,0-2.31,5.08C1.57,55.57.07,60.49,0,65.78c0,3.81,1,6.79,3.22,8.87a8.77,8.77,0,0,0,6,2.36,7.87,7.87,0,0,0,1.3-.1,10.15,10.15,0,0,0,3,.91c.11.16.24.31.36.46a5.91,5.91,0,0,0,.48.52A8.38,8.38,0,0,0,17.8,85a8.16,8.16,0,0,0,1.66.92A27,27,0,0,0,26.26,97,7.25,7.25,0,0,0,29.53,102a15,15,0,0,0,6.37,2h0a7.45,7.45,0,0,0,3.43,2.22,31.07,31.07,0,0,0,3.82,1,25.2,25.2,0,0,0,6.44,4.54,2.82,2.82,0,0,0,.07.31c-.82,3.17-.22,5.78,1.79,7.8a10.38,10.38,0,0,0,7.12,2.84,8.67,8.67,0,0,0,1.7-.16l.35,0a14.31,14.31,0,0,0,1.92.14h.53c.62.11,1.88.44,2.52.6a12.15,12.15,0,0,0,3.2.58,7.91,7.91,0,0,0,4.91-1.68,10.28,10.28,0,0,0,6.7,2.44,9.17,9.17,0,0,0,2-.21l.35,0c.44,0,1,.09,1.6.09.3,0,.58,0,.85,0,.63.09,1.9.38,2.54.52a13.12,13.12,0,0,0,3,.49h.17a7.34,7.34,0,0,0,6.47-3.92,8.15,8.15,0,0,0,2.89-4.81,6.61,6.61,0,0,0-4.18-7.49,8.93,8.93,0,0,0-3.19-.54h-.1a8.83,8.83,0,0,0,0-2.18c.26-.36.51-.71.75-1.06.48-.68.94-1.32,1.27-1.75l.62-.79c1.72-2.19,4.44-5.64,7.36-10a8.26,8.26,0,0,0,3.35-3.31,6,6,0,0,0,3.95-3.07,33,33,0,0,0,2.89-8,6,6,0,0,0,2.59-4.09c.06-.41.13-.82.19-1.23a5.69,5.69,0,0,0,1.69-1.07,6,6,0,0,0,1.8-6L118,61.43l-.57-2.16a6,6,0,0,0,.7-5.3,40.94,40.94,0,0,0-3.07-6.87c-.54-2.05-1.26-4.28-2.2-6.88a7.14,7.14,0,0,0-.11-2.91c.22,0,.44,0,.67,0a6.51,6.51,0,0,0,5.37-2.79c.26-.36.5-.71.71-1.06a14.8,14.8,0,0,0,4.07.75,6.14,6.14,0,0,0,5.14-2.65c2.48-3.63.06-7-1-8.43-.62-.87-1.38-1.84-2-2.63a8.21,8.21,0,0,0-.56-1c.41-4.25-2.22-9.39-6-11.37a7.69,7.69,0,0,1-.94-.88,8.16,8.16,0,0,0-5.92-3A9.49,9.49,0,0,0,105.89,2Z"/></g><path class="cls-6" d="M105.89,6a3.33,3.33,0,0,1,2.79,1.08,3.41,3.41,0,0,0,2.41,1.64.89.89,0,0,0,.61-.21.86.86,0,0,1,.6-.27c1,0,2,2.09,4.09,3.19,2.46,1.3,3.92,6.54,1.8,6.74.32.25.29.86.66,1.1.11.07.26.11.32.24a1.38,1.38,0,0,1,0,.29c0,.36.47.48.74.71a1.79,1.79,0,0,1,.4.62c.1.2.19.39.28.59,1.69,2.1,3.31,4.26,3.16,4.47,0,0-.09,0-.19,0-1.14,0-6.79-1.83-8.58-2.44a5.52,5.52,0,0,1-1.08,5.27.57.57,0,0,1-.49.27c-.54,0-1.24-.69-2-.69a.84.84,0,0,0-.35.07c-.72.27-1.36,1.12-1.93,1.12a.57.57,0,0,1-.43-.21h0a7.23,7.23,0,0,0-.68,1.53,1.57,1.57,0,0,1-.37.84.55.55,0,0,1-.35.12.37.37,0,0,1-.4-.29,9,9,0,0,0-.07,4.73,1.54,1.54,0,0,1,.07.67.5.5,0,0,1-.42.39h-.07a.23.23,0,0,1-.08.33c.06.19.12.38.19.56a83.18,83.18,0,0,1,2.89,8.89,36.39,36.39,0,0,1,3,6.53,1.09,1.09,0,0,1-.4.07,1.18,1.18,0,0,1-1-.56,3.49,3.49,0,0,0-.08,2.89l2.49,9.41a3.8,3.8,0,0,1-2.22-2.32q-1,4.07-1.59,8.19a4.19,4.19,0,0,1-.93-2.8c-.9.68-1,2-1.08,3.08a26.43,26.43,0,0,1-2.87,10l-.9-1.45a11.11,11.11,0,0,0-1.11,2.27,1,1,0,0,1-.28-1c-.47,1-1,1.91-1.42,2.87-.3.6-.86,1.29-1.44,1.29a.75.75,0,0,1-.38-.1l-.07-.05c-3.69,5.67-7.35,10.2-9.08,12.42-1.07,1.37-2.56,3.71-4.15,5.61,1.38,1.5,1.22,3-.13,4.54a6.16,6.16,0,0,1-4,2.09,1,1,0,0,0,.08.22c.08.18.22.33.32.51a1.62,1.62,0,0,1-.08,1.51l.09.31a5.63,5.63,0,0,0,1,.1,3.17,3.17,0,0,0,1-.14,1.34,1.34,0,0,1,.5-.11.64.64,0,0,1,.65.45,27.06,27.06,0,0,1,4-1.07h.23a1.25,1.25,0,0,1,1.31.92,9.84,9.84,0,0,1,2-.25,3.34,3.34,0,0,1,1.09.15c1,.37,0,2.18-.82,2.18A.42.42,0,0,1,93,115a3,3,0,0,0-1.13-.14,36.64,36.64,0,0,0-4,.34s3,.53,3.84,1.22-.44,1.06-1,1.07h0c-.53,0-4.24-1-5.61-1h-.25a3.28,3.28,0,0,1-.56,0c-.69,0-1.47-.13-2.17-.13a3.32,3.32,0,0,0-.92.11,2.76,2.76,0,0,1-.84.11,4.32,4.32,0,0,1-2.8-1c-.76-.71-.44-1.9.13-3.36,0-.77-.66-1.48-.54-2.24A24.65,24.65,0,0,1,68,106.16a19.06,19.06,0,0,1-2.52-1.64,1.89,1.89,0,0,0-1.18-.48,2,2,0,0,0-.84.21,13.61,13.61,0,0,1-3.7,1.2c.07.34.32.66.4,1,.16.7-.36,1.48-.07,2.14a5.48,5.48,0,0,0,.31.52,1.64,1.64,0,0,1-.12,1.5c0,.11,0,.21.07.32a5.42,5.42,0,0,0,1.12.13,2.72,2.72,0,0,0,.85-.12,1.55,1.55,0,0,1,.48-.08.63.63,0,0,1,.66.46,26.21,26.21,0,0,1,4.08-.94h.17a1.27,1.27,0,0,1,1.35,1,10.06,10.06,0,0,1,1.82-.19,3.52,3.52,0,0,1,1.26.19c.95.39-.1,2.15-.87,2.15a.46.46,0,0,1-.22-.06,4,4,0,0,0-1.5-.18c-1.52,0-3.58.23-3.58.23s3,.62,3.8,1.33-.48,1-1,1-4.34-1.2-5.66-1.2H63a2.75,2.75,0,0,1-.41,0c-.77,0-1.68-.2-2.47-.2a3.19,3.19,0,0,0-.77.09,2.75,2.75,0,0,1-.73.09,4.38,4.38,0,0,1-2.88-1.09c-.74-.74-.38-1.91.23-3.35.06-.79-.64-1.53-.46-2.31.11-.5.56-.84.77-1.3a2,2,0,0,0,.16-1.06c-4.64-.54-8.23-3.71-10.35-6a25.8,25.8,0,0,1-4.83-1.1,1.23,1.23,0,0,1-.82-.55c-.13-.28.08-.68.35-.68l.1,0c-2.3-1.68-5.72-.85-8.13-2.37-.43-.28-.8-1-.34-1.22a.53.53,0,0,1,.25,0l.36,0h.06a.72.72,0,0,0,.64-.5,21.27,21.27,0,0,1-2.76-2c-4.09-3.43-5.83-8.76-7.08-13.31a1.32,1.32,0,0,1-1.26.7,2.26,2.26,0,0,1-1.29-.42,2.67,2.67,0,0,1-.89-2.73A5.11,5.11,0,0,1,22,72.88a2.24,2.24,0,0,1-1.45.5,2.79,2.79,0,0,1-2.09-.95A3.83,3.83,0,0,1,18,68.67a3.79,3.79,0,0,1-2.94,1.26,4.06,4.06,0,0,1-3.78-2.24A2,2,0,0,1,9.23,69a2.77,2.77,0,0,1-1.88-.71C6.2,67.2,6,65.45,6,63.85c.06-4.38,1.36-8.65,2.84-12.78a19.5,19.5,0,0,1,1.74-3.9A14.72,14.72,0,0,1,13.38,44c.42-.36.85-.72,1.29-1.05l.54-.39.24-.17.37-.25.24-.16.47-.29.14-.08c.2-.12.4-.24.61-.35l.2-.11.46-.24.2-.1.66-.31A21.87,21.87,0,0,1,23.94,39l.35-.15a8.26,8.26,0,0,1,2.81-.55,5.67,5.67,0,0,1,1.48.19,6.71,6.71,0,0,0,1.57.35,1.5,1.5,0,0,0,.62-.13l-1.88-1.05c-.29-.17-.62-.4-.6-.74s.46-.53.88-.53a1.36,1.36,0,0,1,.29,0,12.34,12.34,0,0,1,7.12,3.81c.4.44.9,1,1.47,1a.76.76,0,0,0,.21,0V39.61a.82.82,0,0,1,.08-.41.41.41,0,0,1,.37-.2,1.17,1.17,0,0,1,.7.31,3.77,3.77,0,0,1,1.13,1.93c.15.65.12,1.33.29,2a4.86,4.86,0,0,0,1.57,2.36l.55.16h0l.57.12h0l.6.1h0l.63.07h0l.67,0h0l.71,0H47l.83,0c1.94-.09,4.28-.34,7.19-.67l.52-.06.54-.06c3.22-.81,7.19-1.46,7.56-2.08s-2-1.26-1.57-1.76c.1-.12.4-.17.81-.17A15.94,15.94,0,0,1,67,42a6,6,0,0,0,2.37.48c.63,0,1-.11,1-.26-.47-.82-1.9-1.41-1.58-1.72.63-.62,3.63-.49,4.78-.71A10.69,10.69,0,0,0,79,36.64a15.7,15.7,0,0,0,1.44-2.87c.23-1.43,0-1.86-.49-1.86-.66,0-1.71.92-2.11.92a.13.13,0,0,1-.14-.1,3.73,3.73,0,0,1,.83-2.89c.45-.71,3.13-2.81,3.18-3.14.09-.56-2.69-.25-2.2-1.28L81.7,24c.38-.25.81-.7.56-1.08a.52.52,0,0,0-.45-.21,2,2,0,0,0-.72.18,1.5,1.5,0,0,1-.52.1c-.27,0-.52-.1-.56-.35.62-1,2-1.26,3.06-1.84s1.46-.74,1.84-1.81a3.27,3.27,0,0,1-.75.09,1.38,1.38,0,0,1-1-.33c0-.86,1-1.27,1.89-1.43A8.92,8.92,0,0,0,90,14.66c.43-.44-2.3-.93-1.73-1.74,1.17-.56,4.61-.22,6.79-1.77A1.35,1.35,0,0,1,95.3,11c-.81-.55-1.09-.69-.83-1.12a.47.47,0,0,1,.3-.87l.37.05a4.27,4.27,0,0,1,3.28-1.76c.77,0,1.47.21,2.2.21a3.1,3.1,0,0,0,2-.76A6.48,6.48,0,0,1,105.89,6m0-6h0a12.93,12.93,0,0,0-6,1.42,12.38,12.38,0,0,0-1.5-.1,9.64,9.64,0,0,0-6,2.14,6.34,6.34,0,0,0-3.49,3.19,10.11,10.11,0,0,0-3.3.87,6.17,6.17,0,0,0-2.27,1.91,6.62,6.62,0,0,0-1.07,2.47,7.65,7.65,0,0,0-4.89,5,8.33,8.33,0,0,0-2.51,2.62A6,6,0,0,0,74,23a6.52,6.52,0,0,0-.49,3.52l-.06.1a9.6,9.6,0,0,0-1.64,7.26h-.28c-2,.12-4.27.25-6.15,1.57a17.9,17.9,0,0,0-2.51-.22,6.77,6.77,0,0,0-5.25,2.13A6,6,0,0,0,56.58,39L55,39.36l-.15,0-.19,0-.33,0c-2.92.33-5.08.56-6.77.63l-.68,0h-.48c0-.07,0-.13,0-.2a9.85,9.85,0,0,0-2.94-5A7.16,7.16,0,0,0,38.7,33a6.78,6.78,0,0,0-1.28.13,18.25,18.25,0,0,0-7-2.68,8.25,8.25,0,0,0-1.22-.1,7,7,0,0,0-5.29,2.32,16.46,16.46,0,0,0-1.61.49A27.92,27.92,0,0,0,16.37,35c-.29.12-.58.26-.86.4l-.21.1-.05,0-.6.31-.26.14-.79.45-.18.11-.6.38-.31.2-.47.31-.06,0-.24.17-.68.5c-.56.42-1.11.87-1.63,1.33A20.24,20.24,0,0,0,5.5,44a24.94,24.94,0,0,0-2.31,5.08C1.57,53.57.07,58.49,0,63.78c0,3.81,1,6.79,3.22,8.87a8.77,8.77,0,0,0,6,2.36,7.87,7.87,0,0,0,1.3-.1,10.15,10.15,0,0,0,3,.91c.11.16.24.31.36.46a5.91,5.91,0,0,0,.48.52A8.38,8.38,0,0,0,17.8,83a8.16,8.16,0,0,0,1.66.92A27,27,0,0,0,26.26,95,7.25,7.25,0,0,0,29.53,100a15,15,0,0,0,6.37,2h0a7.45,7.45,0,0,0,3.43,2.22,31.07,31.07,0,0,0,3.82,1,25.2,25.2,0,0,0,6.44,4.54,2.82,2.82,0,0,0,.07.31c-.82,3.17-.22,5.78,1.79,7.8a10.38,10.38,0,0,0,7.12,2.84,8.67,8.67,0,0,0,1.7-.16l.35,0a14.31,14.31,0,0,0,1.92.14h.53c.62.11,1.88.44,2.52.6a12.15,12.15,0,0,0,3.2.58,7.91,7.91,0,0,0,4.91-1.68,10.28,10.28,0,0,0,6.7,2.44,9.17,9.17,0,0,0,2-.21l.35,0c.44,0,1,.09,1.6.09.3,0,.58,0,.85,0,.63.09,1.9.38,2.54.52a13.12,13.12,0,0,0,3,.49h.17a7.34,7.34,0,0,0,6.47-3.92,8.15,8.15,0,0,0,2.89-4.81,6.61,6.61,0,0,0-4.18-7.49,8.93,8.93,0,0,0-3.19-.54h-.1a8.83,8.83,0,0,0,0-2.18c.26-.36.51-.71.75-1.06.48-.68.94-1.32,1.27-1.75l.62-.79c1.72-2.19,4.44-5.64,7.36-10a8.26,8.26,0,0,0,3.35-3.31,6,6,0,0,0,3.95-3.07,33,33,0,0,0,2.89-8,6,6,0,0,0,2.59-4.09c.06-.41.13-.82.19-1.23a5.69,5.69,0,0,0,1.69-1.07,6,6,0,0,0,1.8-6L118,59.43l-.57-2.16a6,6,0,0,0,.7-5.3,40.94,40.94,0,0,0-3.07-6.87c-.54-2.05-1.26-4.28-2.2-6.88a7.14,7.14,0,0,0-.11-2.91c.22,0,.44,0,.67,0a6.51,6.51,0,0,0,5.37-2.79c.26-.36.5-.71.71-1.06a14.8,14.8,0,0,0,4.07.75,6.14,6.14,0,0,0,5.14-2.65c2.48-3.63.06-7-1-8.43-.62-.87-1.38-1.84-2-2.63a8.21,8.21,0,0,0-.56-1c.41-4.25-2.22-9.39-6-11.37a7.69,7.69,0,0,1-.94-.88,8.16,8.16,0,0,0-5.92-3A9.49,9.49,0,0,0,105.89,0Z"/><path class="cls-8" d="M55.48,107.9c.11-.5.56-.84.77-1.3.42-.87-.06-1.89,0-2.85a8.86,8.86,0,0,0,.17-2.45,6.89,6.89,0,0,1-.29-.91A3.94,3.94,0,0,1,56.37,99a4,4,0,0,0-.63-3,2.73,2.73,0,0,1-.69-1.71c.07-.49.46-.89.59-1.37.27-1-.55-2.22.12-3a.93.93,0,0,1,.31-.25c-.15-.59-.32-1.17-.53-1.76l6.71.22A30.79,30.79,0,0,0,60.51,94a2,2,0,0,1,0,.24,4.87,4.87,0,0,1,.79,3.15c-.27,1.39-1.6,2.48-1.55,3.9,0,1.09.92,2.19.44,3.17a2.67,2.67,0,0,0-.36.69c-.09.46.3.87.41,1.33.16.7-.36,1.48-.07,2.14a5.48,5.48,0,0,0,.31.52,1.64,1.64,0,0,1-.12,1.5c0,.11,0,.21.07.32a4,4,0,0,0,2,0c1-.33,1.14.38,1.14.38a26.21,26.21,0,0,1,4.08-.94,1.29,1.29,0,0,1,1.52.94,7.14,7.14,0,0,1,3.08,0c1,.43-.33,2.52-1.09,2.09s-5.08,0-5.08,0,3,.62,3.8,1.33-.48,1-1,1-4.74-1.33-5.84-1.19-2.61-.37-3.65-.09a4.28,4.28,0,0,1-3.61-1c-.74-.75-.38-1.92.23-3.36C56,109.42,55.3,108.68,55.48,107.9Z"/><path class="cls-8" d="M77.22,110c.1-.5.53-.86.74-1.33.38-.88-.12-1.88-.14-2.84a9.22,9.22,0,0,0,.11-2.45,5.39,5.39,0,0,1-.32-.9,3.69,3.69,0,0,1,.24-1.38,4,4,0,0,0-.73-3,2.83,2.83,0,0,1-.73-1.69c0-.49.43-.9.54-1.39.25-1-.61-2.2,0-3a1,1,0,0,1,.31-.26c-.17-.58-.36-1.16-.59-1.74l6.72,0a30,30,0,0,0-1.56,5.91,1.57,1.57,0,0,1,0,.23,4.83,4.83,0,0,1,.88,3.13c-.22,1.39-1.52,2.53-1.43,3.94.08,1.09,1,2.17.53,3.16a2.79,2.79,0,0,0-.33.7c-.08.46.33.86.45,1.32.18.7-.32,1.49,0,2.14.08.18.22.33.32.51a1.62,1.62,0,0,1-.08,1.51l.09.31a4,4,0,0,0,2,0c1-.36,1.15.34,1.15.34a27.06,27.06,0,0,1,4-1.07,1.3,1.3,0,0,1,1.54.91,7.12,7.12,0,0,1,3.09-.1c1,.4-.26,2.53-1,2.12s-5.08.2-5.08.2,3,.53,3.84,1.22-.44,1.06-1,1.07-4.78-1.19-5.87-1-2.62-.29-3.65,0a4.27,4.27,0,0,1-3.64-.89c-.76-.71-.44-1.9.13-3.36C77.78,111.45,77.06,110.73,77.22,110Z"/><path class="cls-9" d="M116.27,17.85s.33.38,1.85.32c2.23-.07.75-5.43-1.73-6.74s-3.45-4.07-4.69-2.92c-.59.54-2,0-3-1.43-1.27-1.8-5.19-1-6-.31C99.94,9,98.39,5.34,95,9.26c-1.42,1.62-.35.64,3.3,4.22S113,16.39,113,16.39"/><path class="cls-9" d="M114.48,22.54c-1.21.78-2.32,1.46-3.4,2.17a8.23,8.23,0,0,0-3.26,4.35c-.31.93.3-.12.94.57s1.45-.57,2.36-.91,2.15,1.25,2.79.35A5.53,5.53,0,0,0,115,23.78,8.55,8.55,0,0,0,114.48,22.54Z"/><path class="cls-10" d="M116.36,15.53c-.8-1.88-7.56-4.36-12-5A26.56,26.56,0,0,0,99.5,9.09c-1,.07.73,1.05.22,1.3S96.9,9.24,94.77,9a.47.47,0,0,0-.3.87c.14.26,1.18.63,1.11.92s-.44.23-.57.33c-2.18,1.55-5.62,1.21-6.79,1.77-.57.81,2.16,1.3,1.73,1.74A8.92,8.92,0,0,1,85,17.33c-.84.16-1.89.57-1.89,1.43a2,2,0,0,0,1.76.24c-.38,1.07-.84,1.28-1.84,1.81s-2.44.8-3.06,1.84c.07.42.68.41,1.08.25s.94-.32,1.17,0-.18.83-.56,1.08l-2.17,1.41c-.49,1,2.29.72,2.2,1.28,0,.33-2.73,2.43-3.18,3.14a3.73,3.73,0,0,0-.83,2.89c.22.75,3.38-2.89,2.74,1A15.7,15.7,0,0,1,79,36.64a10.69,10.69,0,0,1-5.49,3.13c-1.15.22-4.15.09-4.78.71-.32.31,1.11.9,1.58,1.72.18.32-1.9.46-3.34-.22-.61-.29-4.46-1-4.91-.54s1.86,1.28,1.57,1.76-4.34,1.27-7.56,2.08c-7,.81-10.89,1.21-13.7.29a4.86,4.86,0,0,1-1.57-2.36c-.17-.64-.14-1.32-.29-2a3.77,3.77,0,0,0-1.13-1.93c-.3-.28-.86-.47-1.07-.11a.82.82,0,0,0-.08.41c0,.5,0,1,0,1.51-.65.16-1.22-.43-1.68-.93a12.34,12.34,0,0,0-7.12-3.81c-.48-.08-1.14,0-1.17.5s.31.57.6.74l1.88,1.05a3.36,3.36,0,0,1-2.19-.22,7.18,7.18,0,0,0-4.29.36l-.35.15A21.28,21.28,0,0,0,13.38,44a14.72,14.72,0,0,0-2.8,3.15,19.5,19.5,0,0,0-1.74,3.9C7.36,55.2,6.06,59.47,6,63.85c0,1.6.2,3.35,1.35,4.45s3.5.93,4-.61a4.21,4.21,0,0,0,6.72,1,3.83,3.83,0,0,0,.47,3.76,2.61,2.61,0,0,0,3.54.45,5.11,5.11,0,0,0-1.61,2.53,2.67,2.67,0,0,0,.89,2.73c.82.59,2.1.63,2.55-.28,1.25,4.55,3,9.88,7.08,13.31a21.27,21.27,0,0,0,2.76,2,.72.72,0,0,1-.64.5c-.22,0-.47-.07-.67,0-.46.23-.09.94.34,1.22,2.41,1.52,5.83.69,8.13,2.37-.32-.12-.59.35-.45.66a1.23,1.23,0,0,0,.82.55,25.8,25.8,0,0,0,4.83,1.1c3.1,3.32,9.35,8.57,17.44,4.69a1.74,1.74,0,0,1,2,.27A19.06,19.06,0,0,0,68,106.16a24.48,24.48,0,0,0,9.89,4c1.6.22,5.45.95,7.88-1.92,1.35-1.59,1.51-3,.13-4.54,1.59-1.9,3.08-4.24,4.15-5.61,1.73-2.22,5.39-6.75,9.08-12.42l.07.05c.7.41,1.46-.46,1.82-1.19.47-1,1-1.91,1.42-2.87a1,1,0,0,0,.28,1,11.11,11.11,0,0,1,1.11-2.27l.9,1.45a26.43,26.43,0,0,0,2.87-10c.09-1.12.18-2.4,1.08-3.08a4.19,4.19,0,0,0,.93,2.8q.61-4.12,1.59-8.19a3.8,3.8,0,0,0,2.22,2.32L111,56.31a3.49,3.49,0,0,1,.08-2.89,1.18,1.18,0,0,0,1.41.49,36.39,36.39,0,0,0-3-6.53,83.18,83.18,0,0,0-2.89-8.89c-.07-.18-.13-.37-.19-.56a.23.23,0,0,0,.08-.33.46.46,0,0,0,.49-.38,1.54,1.54,0,0,0-.07-.67,9,9,0,0,1,.07-4.73c0,.31.51.37.75.17a1.57,1.57,0,0,0,.37-.84,12.23,12.23,0,0,1,2.38-4,7.11,7.11,0,0,1,.74-.47h0a.54.54,0,0,1,.55.47c0,.31.61,0,.86-.18a4,4,0,0,0,1.45-2.27,6.17,6.17,0,0,0,.7-1C116.2,21,118.45,20.5,116.36,15.53Z"/><path class="cls-11" d="M105,11.61a2.48,2.48,0,0,0-2.33-1.46l.58,0a17.05,17.05,0,0,0-3.77-1c-1,.07.73,1.05.22,1.3S96.9,9.24,94.77,9a.47.47,0,0,0-.3.87c.14.26,1.18.63,1.11.92s-.44.23-.57.33c-2.18,1.55-5.62,1.21-6.79,1.77-.57.81,2.16,1.3,1.73,1.74A8.92,8.92,0,0,1,85,17.33c-.84.16-1.89.57-1.89,1.43a2,2,0,0,0,1.76.24c-.38,1.07-.84,1.28-1.84,1.81s-2.44.8-3.06,1.84c.07.42.68.41,1.08.25s.94-.32,1.17,0-.18.83-.56,1.08l-2.17,1.41c-.49,1,2.29.72,2.2,1.28,0,.33-2.73,2.43-3.18,3.14a3.73,3.73,0,0,0-.83,2.89c.22.75,3.38-2.89,2.74,1A15.7,15.7,0,0,1,79,36.64a10.69,10.69,0,0,1-5.49,3.13c-1.15.22-4.15.09-4.78.71-.32.31,1.11.9,1.58,1.72.18.32-1.9.46-3.34-.22-.61-.29-4.46-1-4.91-.54s1.86,1.28,1.57,1.76-4.34,1.27-7.56,2.08L55,45.4l.08,0a8.74,8.74,0,0,0,4.13.14c.72-.15,1.42-.39,2.14-.48A10.84,10.84,0,0,1,65,45.4l.21-1.85,6,1.59c-.48-.32-.34-1.12.1-1.49a3.73,3.73,0,0,1,1.61-.59,1.91,1.91,0,0,0,1.41-.9c.16-.36.12-.78.25-1.16.26-.73,1.09-1.06,1.8-1.37a11.86,11.86,0,0,0,4.55-3.5l-1.24-.38c.41-.85,1.18-1.48,1.58-2.33s.18-2.15-.74-2.33c-.6-.12-1.43.21-1.71-.33a20.33,20.33,0,0,1,6-5.19A.64.64,0,0,0,84,25c-.42-.58,1.15-.79,1.21-1.51,0-.45-.53-.65-1-.81s-.83-.77-.44-1l3.74-1.55c.43-.18.92-.73.53-1-.14-.1-.33-.07-.5-.1-.53-.12-.64-.92-.3-1.36a2.9,2.9,0,0,1,1.41-.79A11.75,11.75,0,0,0,92.16,15a1.84,1.84,0,0,1-1-.93,16.41,16.41,0,0,1,7.18,0A6.89,6.89,0,0,1,98,12.46a7.91,7.91,0,0,0,3,0l-.36-1.21A7.9,7.9,0,0,0,105,11.61Z"/><path class="cls-12" d="M111.67,24.53c-.22-.27-.68-.32-.91-.61-.36-.44,0-1.1-.06-1.66a9.45,9.45,0,0,0-.49-1.08,2.07,2.07,0,0,1,.22-1.55,11.93,11.93,0,0,0,.74-1.42,2.8,2.8,0,0,0-.38-2.52,2.76,2.76,0,0,0-2.29-1.13.44.44,0,0,1-.17.63,1,1,0,0,1-.72.05,13.47,13.47,0,0,1-3.23-1.69,1.08,1.08,0,0,0-.65-.17c-.22,0,.18.6-.36.48a8.23,8.23,0,0,1-2.75-1c-1.17-.73.14-.59.41-.52.19-.39-.72-.67-.53-1.05a.47.47,0,0,1,.34-.19c.87-.2,2.42.43,2.7.21s-2.17-1.21.31-.95c4.73.5,11.65,3.19,12.51,5.21,2.09,5-.16,5.51-1.61,8.19A5.29,5.29,0,0,1,113,25.65a1.82,1.82,0,0,1-1.25-1c-.27-.48-.85-.57-1.35-.76a2.4,2.4,0,0,1-.87-.48,3.64,3.64,0,0,1-.51-.8,1.56,1.56,0,0,0-1.62-.92,1.75,1.75,0,0,1-.38.09c-.37,0-.53-.46-.65-.8a1.37,1.37,0,0,0-.78-.89c-.56-.17-1.3.23-1.7-.2a.93.93,0,0,1-.1-.93,1.18,1.18,0,0,0,.09-.69c-.1-.32-.47-.44-.79-.55s-.68-.33-.65-.66.41-.51.74-.58.73-.2.8-.53c0-.1,0-.2,0-.3.08-.39.56-.52,1-.47a2,2,0,0,0,.55,0,.4.4,0,0,0,.36-.36.42.42,0,0,0-.12-.27c-.36-.45-1.1-.66-1.15-1.24a.82.82,0,0,1,.36-.7,1.67,1.67,0,0,1,.78-.28,4.23,4.23,0,0,1,2.84.58,8.58,8.58,0,0,0,1.29.79A8.6,8.6,0,0,0,111,14a4.69,4.69,0,0,1,3.35,6.3c-.16.4-.37.78-.52,1.17s-.2.53-.44.63"/><path class="cls-13" d="M105.89,17.31a1.4,1.4,0,0,0,2.79.06,1.48,1.48,0,0,0-1.37-1.47A1.44,1.44,0,0,0,105.89,17.31Z"/><path class="cls-14" d="M106,17.31a1.63,1.63,0,0,0,1.33,1.11,1.59,1.59,0,0,0,1.28-1.07,1.56,1.56,0,0,0-1.27-1.15A1.72,1.72,0,0,0,106,17.31Z"/><path class="cls-11" d="M88.83,64.58S82.14,80.39,71.18,83,58,78.82,58,78.82s-.44,1.28-5.71,1.85-9.54-3-8.12-6.12a7,7,0,0,1-6-2.28,4.59,4.59,0,0,1,2-7.69s-4.28,5.13.71,6.55A21.46,21.46,0,0,0,51.24,71s-6.69,6-2.56,6.69,9.75-1.42,14.13-3.13c0,0-4.16,4.41.68,6S82.14,78.25,88.83,64.58Z"/><path class="cls-15" d="M88.83,64.58S82.14,80.39,71.18,83,58,78.82,58,78.82s-.44,1.28-5.71,1.85-9.54-3-8.12-6.12a7,7,0,0,1-6-2.28,4.59,4.59,0,0,1,2-7.69"/><path class="cls-16" d="M114.21,20.88c0-.19-.12-.39-.06-.57s.44-.24.71-.25a1.61,1.61,0,0,0,1.26-.74.49.49,0,0,1,.16-.19c.13-.07.27,0,.41,0a2.88,2.88,0,0,0,.36-1.53l.1.08a.24.24,0,0,1,.24-.09c.14,0,.17.24.28.34s.28.1.42.16c.43.19.36.9.76,1.17.11.07.26.11.32.24a1.38,1.38,0,0,1,0,.29c0,.36.47.48.74.71a1.79,1.79,0,0,1,.4.62l.28.59c1.69,2.1,3.31,4.26,3.16,4.47-.28.42-7.44-1.93-9-2.47a.58.58,0,0,0,0-.19l-.12,0a.6.6,0,0,0,.07-.27,5.65,5.65,0,0,0-.18-.62,1,1,0,0,0-.21-.19c-.24-.14-.58-.19-.66-.46S114.18,21.3,114.21,20.88Z"/><path class="cls-11" d="M42.39,45.57a4.86,4.86,0,0,1-1.57-2.36c-.17-.64-.14-1.32-.29-2a3.77,3.77,0,0,0-1.13-1.93c-.3-.28-.86-.47-1.07-.11a.82.82,0,0,0-.08.41c0,.5,0,1,0,1.51-.65.16-1.22-.43-1.68-.93a12.34,12.34,0,0,0-7.12-3.81c-.48-.08-1.14,0-1.17.5s.31.57.6.74l1.88,1.05a3.36,3.36,0,0,1-2.19-.22,7.18,7.18,0,0,0-4.29.36l-.35.15a21.87,21.87,0,0,0-5.14,1.56A21,21,0,0,0,14.67,43a2.14,2.14,0,0,0,1.85-.37c.73-.52,1.43-1.28,2.32-1.22s2,1,2.66.35c-.44-.56.41-1.23,1.09-1.44,1.79-.56,3.7-1.12,5.51-.62,1.3.37,2.79,1.24,3.85.41a2.34,2.34,0,0,1,.67-.51,1.29,1.29,0,0,1,1.11.3,7.35,7.35,0,0,1,2.15,2.36,4.5,4.5,0,0,0,.86,1.28,1.11,1.11,0,0,0,1.41.1,2.58,2.58,0,0,1,.32-.34c.53-.35,1.05.43,1.35,1a4.75,4.75,0,0,0,3.71,2.22,13.67,13.67,0,0,0,4.31-.41A15.44,15.44,0,0,1,42.39,45.57Z"/><path class="cls-15" d="M120.6,21.72l-.28-.59a1.79,1.79,0,0,0-.4-.62c-.27-.23-.71-.35-.74-.71a1.38,1.38,0,0,0,0-.29c-.06-.13-.21-.17-.32-.24-.37-.24-.34-.85-.66-1.1,2.12-.2.66-5.44-1.8-6.74s-3.45-4.07-4.69-2.92c-.59.54-2,0-3-1.43-1.27-1.8-5.19-1-6-.31C100,8.91,98.44,5.46,95.14,9.08L94.77,9a.47.47,0,0,0-.3.87c-.26.43,0,.57.83,1.12a1.35,1.35,0,0,0-.29.13c-2.18,1.55-5.62,1.21-6.79,1.77-.57.81,2.16,1.3,1.73,1.74A8.92,8.92,0,0,1,85,17.33c-.84.16-1.89.57-1.89,1.43a2,2,0,0,0,1.76.24c-.38,1.07-.84,1.28-1.84,1.81s-2.44.8-3.06,1.84c.07.42.68.41,1.08.25s.94-.32,1.17,0-.18.83-.56,1.08l-2.17,1.41c-.49,1,2.29.72,2.2,1.28,0,.33-2.73,2.43-3.18,3.14a3.73,3.73,0,0,0-.83,2.89c.22.75,3.38-2.89,2.74,1A15.7,15.7,0,0,1,79,36.64a10.69,10.69,0,0,1-5.49,3.13c-1.15.22-4.15.09-4.78.71-.32.31,1.11.9,1.58,1.72.18.32-1.9.46-3.34-.22-.61-.29-4.46-1-4.91-.54s1.86,1.28,1.57,1.76-4.34,1.27-7.56,2.08l-.54.06L55,45.4h0c-2.91.33-5.25.58-7.19.67h0l-.83,0h-.79l-.71,0h0l-.67,0h0L44.16,46h0l-.6-.1h0L43,45.74h0l-.55-.16a4.86,4.86,0,0,1-1.57-2.36c-.17-.64-.14-1.32-.29-2a3.77,3.77,0,0,0-1.13-1.93c-.3-.28-.86-.47-1.07-.11a.82.82,0,0,0-.08.41c0,.5,0,1,0,1.51-.65.16-1.22-.43-1.68-.93a12.34,12.34,0,0,0-7.12-3.81c-.48-.08-1.14,0-1.17.5s.31.57.6.74l1.88,1.05a3.36,3.36,0,0,1-2.19-.22,7.18,7.18,0,0,0-4.29.36l-.35.15a21.87,21.87,0,0,0-5.14,1.56l-.66.31-.2.1-.46.24-.2.11c-.21.11-.41.23-.61.35l-.14.08-.47.29-.24.16-.37.25-.24.17-.54.39h0c-.44.33-.87.69-1.29,1.05a14.72,14.72,0,0,0-2.8,3.15,19.5,19.5,0,0,0-1.74,3.9C7.36,55.2,6.06,59.47,6,63.85c0,1.6.2,3.35,1.35,4.45s3.5.93,4-.61a4.21,4.21,0,0,0,6.72,1,3.83,3.83,0,0,0,.47,3.76,2.61,2.61,0,0,0,3.54.45,5.11,5.11,0,0,0-1.61,2.53,2.67,2.67,0,0,0,.89,2.73c.82.59,2.1.63,2.55-.28,1.25,4.55,3,9.88,7.08,13.31a21.27,21.27,0,0,0,2.76,2,.72.72,0,0,1-.64.5c-.22,0-.47-.07-.67,0-.46.23-.09.94.34,1.22,2.41,1.52,5.83.69,8.13,2.37-.32-.12-.59.35-.45.66a1.23,1.23,0,0,0,.82.55,25.8,25.8,0,0,0,4.83,1.1c2.12,2.27,5.71,5.44,10.35,6a2,2,0,0,1-.16,1.06c-.21.46-.66.8-.77,1.3-.18.78.52,1.52.46,2.31-.61,1.44-1,2.61-.23,3.35a4.26,4.26,0,0,0,3.61,1c1-.28,2.56.22,3.65.09s5.32,1.19,5.84,1.19,1.81-.33,1-1-3.8-1.33-3.8-1.33,4.32-.47,5.08,0,2.14-1.66,1.09-2.09a7.14,7.14,0,0,0-3.08,0,1.29,1.29,0,0,0-1.52-.94,26.21,26.21,0,0,0-4.08.94s-.15-.71-1.14-.38a4,4,0,0,1-2,0c0-.11,0-.21-.07-.32a1.64,1.64,0,0,0,.12-1.5,5.48,5.48,0,0,1-.31-.52c-.29-.66.23-1.44.07-2.14-.08-.35-.33-.67-.4-1a13.61,13.61,0,0,0,3.7-1.2,1.74,1.74,0,0,1,2,.27A19.06,19.06,0,0,0,68,106.16,24.65,24.65,0,0,0,77.21,110c-.12.76.57,1.47.54,2.24-.57,1.46-.89,2.65-.13,3.36a4.27,4.27,0,0,0,3.64.89c1-.31,2.57.15,3.65,0s5.35,1,5.87,1,1.8-.38,1-1.07-3.84-1.22-3.84-1.22,4.31-.6,5.08-.2,2.08-1.72,1-2.12a7.12,7.12,0,0,0-3.09.1,1.3,1.3,0,0,0-1.54-.91,27.06,27.06,0,0,0-4,1.07s-.17-.7-1.15-.34a4,4,0,0,1-2,0l-.09-.31a1.62,1.62,0,0,0,.08-1.51c-.1-.18-.24-.33-.32-.51a1,1,0,0,1-.08-.22,6.16,6.16,0,0,0,4-2.09c1.35-1.59,1.51-3,.13-4.54,1.59-1.9,3.08-4.24,4.15-5.61,1.73-2.22,5.39-6.75,9.08-12.42l.07.05c.7.41,1.46-.46,1.82-1.19.47-1,1-1.91,1.42-2.87a1,1,0,0,0,.28,1,11.11,11.11,0,0,1,1.11-2.27l.9,1.45a26.43,26.43,0,0,0,2.87-10c.09-1.12.18-2.4,1.08-3.08a4.19,4.19,0,0,0,.93,2.8q.61-4.12,1.59-8.19a3.8,3.8,0,0,0,2.22,2.32L111,56.31a3.49,3.49,0,0,1,.08-2.89,1.18,1.18,0,0,0,1.41.49,36.39,36.39,0,0,0-3-6.53,83.18,83.18,0,0,0-2.89-8.89c-.07-.18-.13-.37-.19-.56a.23.23,0,0,0,.08-.33.46.46,0,0,0,.49-.38,1.54,1.54,0,0,0-.07-.67,9,9,0,0,1,.07-4.73c0,.31.51.37.75.17a1.57,1.57,0,0,0,.37-.84,7.23,7.23,0,0,1,.68-1.53h0c.65.72,1.45-.57,2.36-.91s2.15,1.25,2.79.35A5.52,5.52,0,0,0,115,23.8c2,.66,8.5,2.79,8.77,2.39C123.91,26,122.29,23.82,120.6,21.72Z"/></g></g></g></svg>