<svg xmlns="http://www.w3.org/2000/svg" viewBox="0 0 150 150"><defs><style>.cls-1{isolation:isolate;}.cls-2{fill:#002451;opacity:0.27;}.cls-3{fill:#fff2cc;}.cls-4{fill:#29abe2;}.cls-15,.cls-5,.cls-7{opacity:0.2;}.cls-5{mix-blend-mode:multiply;}.cls-6{fill:#fff;}.cls-16,.cls-7{fill:#000f56;}.cls-8{fill:#e85b36;}.cls-9{fill:#3a1840;}.cls-10{fill:#fff945;}.cls-11{fill:#f8d445;}.cls-12{fill:#f8d4a3;}.cls-13{fill:#121212;}.cls-14{fill:none;stroke:#1e134d;stroke-linecap:round;stroke-linejoin:round;stroke-width:1.2px;}.cls-17{fill:#9ab635;}.cls-18{fill:#629e00;}.cls-19{fill:#3f7600;}.cls-20{fill:#ddb331;}</style></defs><title>lab02-</title><g class="cls-1"><g id="Layer_1" data-name="Layer 1"><rect class="cls-2" x="16.51" y="16.94" width="120.09" height="120.09" rx="36.12" ry="36.12"/><rect class="cls-3" x="13.41" y="13.84" width="120.09" height="120.09" rx="36.12" ry="36.12"/><path class="cls-4" d="M133,103.63H120.08A17.12,17.12,0,0,0,103,120.76v12.73A36.15,36.15,0,0,0,133,103.63Z"/><g class="cls-5"><rect x="115.37" y="112.13" width="1.38" height="10.82"/><polygon points="116.03 108.03 113.24 112.86 118.81 112.86 116.03 108.03"/><polygon points="116.06 126.97 118.85 122.15 113.27 122.15 116.06 126.97"/><rect x="110.65" y="116.85" width="10.82" height="1.38"/><polygon points="106.57 117.52 111.4 120.31 111.4 114.73 106.57 117.52"/><polygon points="125.52 117.49 120.69 114.7 120.69 120.27 125.52 117.49"/></g><rect class="cls-6" x="114.37" y="111.13" width="1.38" height="10.82"/><polygon class="cls-6" points="115.03 107.03 112.24 111.86 117.81 111.86 115.03 107.03"/><polygon class="cls-6" points="115.06 125.97 117.85 121.15 112.27 121.15 115.06 125.97"/><rect class="cls-6" x="109.65" y="115.85" width="10.82" height="1.38"/><polygon class="cls-6" points="105.57 116.52 110.4 119.31 110.4 113.73 105.57 116.52"/><polygon class="cls-6" points="124.52 116.49 119.69 113.7 119.69 119.27 124.52 116.49"/><path class="cls-7" d="M110.81,72.43c.5,4.93,2.21,7,2.21,7,.82-.64,1.13-1,1.34-1.13a18.21,18.21,0,0,1,3.17-2.69h0a6.51,6.51,0,0,1,2.59-1.19c1.7-.33,3.92.16,5.55,3.76v0a13,13,0,0,1,1.09,3.06c1.24,4.8-.34,7.44-.34,7.44h0c-1.19,4-3.46,5.65-6.42,6.23a22.83,22.83,0,0,1-5.67.16c-.15.09-.3.18-.46.26l0,0-.22.11-.07,0-.21.09-.09,0-.2.08-.12,0-.17.07-.15,0-.16,0-.19,0-.13,0-.27.06h-.06l-1.15,1.45a4.13,4.13,0,0,1-2.28,1.87,2.42,2.42,0,0,1-.47,0c-1.1,0-3.29.38-4.07-.39a5.48,5.48,0,0,1-.92-1.23,2.26,2.26,0,0,1-.31-.1,5.23,5.23,0,0,0-2.89-.15,15.36,15.36,0,0,0-2.26.67c-.56.69-.53,1.31-.84,1.8a.73.73,0,0,1-.52.31c-.53.1-1.35,0-2.3.17a4.72,4.72,0,0,0-.77.22l-.33.09c-1,.19-1.56-.59-2.08-1.16a14.94,14.94,0,0,0-3.39.16,7.3,7.3,0,0,0-1.27.36,18.39,18.39,0,0,0-1.22,2,1.59,1.59,0,0,1-1.25.82,15.33,15.33,0,0,1-1.75.14,6.14,6.14,0,0,0-.86.12,21.75,21.75,0,0,0-2.43.71l-.17.05a2.13,2.13,0,0,1-2.42-1.73l-.17,0A7.63,7.63,0,0,0,72,102a5.46,5.46,0,0,0-.77.2c-.11.73-.4,1.7-1.14,1.9-.18,0-.42.1-.69.15l-2.11.39a7,7,0,0,0-1.6.43,1.17,1.17,0,0,1-.33.11,2.48,2.48,0,0,1-2-.64,7.32,7.32,0,0,1-1.07,0,10.55,10.55,0,0,0-3.52.09,8.54,8.54,0,0,0-2.21.73,4.85,4.85,0,0,1-2.27,2,3.23,3.23,0,0,1-.51.14,3.7,3.7,0,0,1-2.74-.61c-.6,0-1.26-.1-2-.21a12.06,12.06,0,0,0-3,.22A12.87,12.87,0,0,1,44.26,108a16.72,16.72,0,0,1-4.43,1.78,2.9,2.9,0,0,1-1.31,0A4.18,4.18,0,0,1,37,108.56a4.2,4.2,0,0,1-3.28-1.42c-.11-.14-.23-.28-.35-.41h0c-.12-.13-.25-.25-.37-.36l0,0q-.2-.16-.39-.3l0,0c-.13-.1-.26-.18-.4-.27l0,0-.41-.22-.05,0-.4-.19-.06,0c-.13,0-.26-.11-.39-.15l-.07,0-.38-.13-.08,0-.36-.1-.11,0-.32-.09-.13,0-.26-.07a17.55,17.55,0,0,1-1.73-.44c-.92-.38-.62-1,2.51-2.93h0c.85-.53,1.89-1.15,3.18-1.9.77-.45,1.65-.91,2.59-1.35h0a97.76,97.76,0,0,1,11.78-4.43h0l.4-.13a18.51,18.51,0,0,0-1-3.17c-.08-.21,0-.32.15-.35.53-.1,2.08.59,3.37,1.75.26.24.52.51.77.78,6-1.79,12.07-3.28,16.25-4.26a10.85,10.85,0,0,0-.73-2.45c-.06-.13,0-.2.1-.22a3.87,3.87,0,0,1,2.19,1.14,9.08,9.08,0,0,1,.9,1l1.62-.36.27,0a19,19,0,0,0-1.51-5.4c-.1-.25,0-.4.19-.44.67-.13,2.65.75,4.29,2.23A21.4,21.4,0,0,1,77,86.19l1.4-.26.12,0,.42-.08H79l.44-.08.16,0,.3-.06.22,0,.93-.17.17,0,.3-.06.3,0,.15,0,.39-.07.53-.1h.05l.52-.1.28,0,.23,0,.29-.05.35-.07.13,0,.45-.08.13,0,.37-.07.27,0,.29,0,.24,0c4.09-.75,7.94-1.44,10-1.77,1-.17,3.36-.45,5.77-.69s4.44-.31,6.25-.59c-.75-.93-1.94-7.36-.54-7.63-.22,2.51,2.09,7.32,2.09,7.32h0a5.44,5.44,0,0,0,1.61-.84,9.12,9.12,0,0,1-.86-7.81m-81,28.81h0m80.09-33.41a4.63,4.63,0,0,0-2.4,1.26,3.78,3.78,0,0,0-.47.06,5.36,5.36,0,0,0-4,3.52,11.36,11.36,0,0,0-.38,4.55l-1,.09c-2.3.23-4.78.53-6,.73-1.82.29-5.21.89-10.08,1.78l-.25.05-.29,0L85,80l-.13,0-.2,0-.18,0-.13,0-.22,0-.21,0-.15,0-.35.06-.29.06-.23,0-.14,0-.14,0-.22,0-.29.06H82l-.23,0-.31.06h-.06l-.33.06-.14,0-.31.06-.14,0-.16,0h-.07l-.09,0-1,.18-.18,0-.27,0c-.33-.36-.67-.68-1-1-.76-.68-4.7-4.06-8.33-3.36h0A5,5,0,0,0,66,79.23,4.88,4.88,0,0,0,65.47,81a4.81,4.81,0,0,0-3,2.34A4.58,4.58,0,0,0,62,84.62c-2.9.72-6.26,1.59-9.75,2.58-1.44-1-3.84-2.37-6.19-1.91h0a4.87,4.87,0,0,0-4,5.07,80.34,80.34,0,0,0-8.5,3.4c-1.07.51-2.05,1-2.9,1.52-1.35.78-2.42,1.42-3.28,2h0l-.08.05c-2.42,1.52-5.41,3.41-5.11,6.86a5.21,5.21,0,0,0,3.38,4.36,11.23,11.23,0,0,0,2,.56l.43.11.22,0,.1,0,.25.07.06,0,.23.07h.05l.21.08h.05l.22.09.17.08h0l.14.08h0l.08.06h0l.06.05h0l0,0h0l0,0a8.36,8.36,0,0,0,4.9,3,6.69,6.69,0,0,0,5.89,1.36,20.73,20.73,0,0,0,5.87-2.31c.45-.26.85-.52,1.19-.76a5.68,5.68,0,0,1,.65,0l1.23.15a8.35,8.35,0,0,0,5,.62,7.19,7.19,0,0,0,1.3-.38,9.13,9.13,0,0,0,3.52-2.48l.17,0a6.16,6.16,0,0,1,2,0l.28,0a7,7,0,0,0,4.39.62,6.23,6.23,0,0,0,1.29-.4l.64-.14,1-.19,1.06-.19c.43-.08.76-.16,1-.24a5.67,5.67,0,0,0,2.39-1.33,6.47,6.47,0,0,0,5.42,1.37c.23,0,.46-.1.68-.17l.62-.2a10.33,10.33,0,0,1,1.3-.39l.28,0,.41,0a13.48,13.48,0,0,0,1.92-.2,6.22,6.22,0,0,0,4.48-3.16,6,6,0,0,0,4.73,1,6.58,6.58,0,0,0,1.11-.31,3.78,3.78,0,0,1,.64,0A9.82,9.82,0,0,0,97,105a5.39,5.39,0,0,0,3.61-2.44l0,0c2.07,2,4.86,1.78,6.54,1.68l.6,0a6.25,6.25,0,0,0,1.5-.12,8.49,8.49,0,0,0,5.1-3.61l.17-.21.17-.06L115,100l.16-.06.17-.08a23.94,23.94,0,0,0,5.55-.31c4.93-1,8.25-4,9.89-9,.69-1.47,1.88-5,.54-10.3a17.32,17.32,0,0,0-1.42-4c-.87-1.91-4.09-7.64-10.69-6.37a11.21,11.21,0,0,0-3.84,1.57,4.68,4.68,0,0,0-3.85-3.61,4.57,4.57,0,0,0-1.61,0Z"/><path class="cls-6" d="M110.51,70.9c.5,4.92,2.21,7,2.21,7,.82-.64,1.13-1,1.35-1.12a17.78,17.78,0,0,1,3.16-2.69h0a6.51,6.51,0,0,1,2.59-1.19c1.71-.33,3.92.15,5.55,3.76v0a12.44,12.44,0,0,1,1.09,3.06c1.25,4.79-.34,7.43-.34,7.43h0c-1.18,4-3.45,5.66-6.42,6.23a22.33,22.33,0,0,1-5.67.17l-.46.26,0,0-.22.11-.07,0-.2.09-.1,0-.19.08-.12,0-.18.06-.15,0-.16,0-.19,0-.13,0-.27.05h0L110.35,96a4.1,4.1,0,0,1-2.28,1.86,1.83,1.83,0,0,1-.47,0c-1.1,0-3.28.39-4.07-.38a6.35,6.35,0,0,1-.92-1.23l-.31-.11a5.13,5.13,0,0,0-2.89-.14,13.54,13.54,0,0,0-2.26.67c-.56.69-.53,1.3-.83,1.8a.73.73,0,0,1-.52.3c-.54.1-1.36,0-2.3.17a5.13,5.13,0,0,0-.78.22,1.54,1.54,0,0,1-.33.1c-1,.19-1.56-.59-2.08-1.17a15,15,0,0,0-3.39.17,6.52,6.52,0,0,0-1.27.36,18.19,18.19,0,0,0-1.21,2,1.59,1.59,0,0,1-1.26.81,15.05,15.05,0,0,1-1.74.15,8.27,8.27,0,0,0-.87.11,20.78,20.78,0,0,0-2.43.72l-.17,0a2.11,2.11,0,0,1-2.41-1.72l-.18,0a7.74,7.74,0,0,0-3.66-.29,5.91,5.91,0,0,0-.77.21c-.1.72-.4,1.7-1.14,1.9q-.27.08-.69.15l-2.1.38a8,8,0,0,0-1.6.43,1.23,1.23,0,0,1-.34.11,2.48,2.48,0,0,1-2-.63A7.26,7.26,0,0,1,62,102.9a11,11,0,0,0-3.51.09,8.25,8.25,0,0,0-2.22.74,4.74,4.74,0,0,1-2.27,2,2.57,2.57,0,0,1-.5.15,3.81,3.81,0,0,1-2.75-.61c-.6,0-1.26-.1-2-.21a12,12,0,0,0-3,.22,15.43,15.43,0,0,1-6.12,2.94,2.68,2.68,0,0,1-1.32,0A4.12,4.12,0,0,1,36.66,107a4.21,4.21,0,0,1-3.29-1.42,4.87,4.87,0,0,0-.35-.42h0l-.37-.36h0a4.08,4.08,0,0,0-.39-.31l0,0-.4-.26,0,0a4,4,0,0,0-.4-.22l-.05,0-.4-.19-.06,0-.4-.16-.07,0-.38-.13-.08,0-.36-.11-.1,0-.33-.08-.13,0-.26-.06a14.53,14.53,0,0,1-1.72-.45c-.93-.37-.63-1,2.51-2.93h0c.84-.53,1.88-1.16,3.17-1.9.78-.46,1.65-.91,2.59-1.36h0A98.7,98.7,0,0,1,47.11,92h0l.4-.13a17.4,17.4,0,0,0-1-3.17c-.08-.2,0-.31.15-.34.53-.11,2.09.58,3.37,1.75.27.24.52.5.77.77,6-1.78,12.07-3.28,16.26-4.26a10.62,10.62,0,0,0-.74-2.44c-.05-.13,0-.2.1-.23a4,4,0,0,1,2.19,1.15,9,9,0,0,1,.9,1l1.63-.36.27,0a19.26,19.26,0,0,0-1.52-5.39c-.1-.26,0-.4.2-.44.67-.13,2.64.74,4.28,2.23a21.63,21.63,0,0,1,2.34,2.61l1.39-.26.12,0,.42-.08.09,0,.43-.08.17,0,.3,0,.21,0,.94-.18.17,0,.29-.05.3-.06.15,0,.39-.07.53-.1h.06l.51-.09.28,0,.23,0,.29-.06.35-.06.13,0,.45-.08.14,0,.37-.07.26,0,.3,0,.24,0c4.08-.75,7.94-1.44,10-1.76,1-.17,3.35-.46,5.76-.7s4.45-.31,6.26-.59c-.76-.93-2-7.35-.54-7.63-.23,2.52,2.09,7.33,2.09,7.33h0a5.6,5.6,0,0,0,1.62-.84,9.13,9.13,0,0,1-.87-7.81m-81,28.8h0m80.09-33.41a4.78,4.78,0,0,0-2.4,1.26l-.46.07a5.35,5.35,0,0,0-4,3.51,11.2,11.2,0,0,0-.37,4.55l-1,.1c-2.31.23-4.78.53-6,.73-1.82.29-5.21.89-10.08,1.78l-.24,0-.3.06-.13,0-.12,0-.21,0-.18,0-.13,0-.22,0-.21,0-.15,0-.35.06-.29,0-.22,0-.15,0-.14,0-.21,0-.29,0h-.07l-.22,0-.31.06h-.07l-.33.06-.14,0-.3.06-.15,0-.15,0-.08,0h-.09l-1,.18-.18,0-.26,0c-.34-.35-.67-.68-1-1-.75-.69-4.7-4.07-8.32-3.36h0a5,5,0,0,0-3.43,2.48,5,5,0,0,0-.56,1.73,4.8,4.8,0,0,0-3,2.34,4.89,4.89,0,0,0-.49,1.32c-2.89.71-6.26,1.58-9.74,2.57-1.44-1-3.85-2.36-6.2-1.91h0a4.86,4.86,0,0,0-4,5.08,81.71,81.71,0,0,0-8.5,3.39c-1.08.52-2.06,1-2.91,1.52-1.34.79-2.41,1.43-3.27,2h0l-.08.05c-2.42,1.51-5.41,3.41-5.1,6.86A5.18,5.18,0,0,0,25.27,107a12.47,12.47,0,0,0,2,.56l.43.1.22,0,.1,0,.26.07h.06l.22.07.05,0,.22.07,0,0,.22.09.18.08h0l.14.08h0l.09.06h0l.06,0h0l0,0h0l0,0a8.37,8.37,0,0,0,4.9,3,7.07,7.07,0,0,0,2.26,1.25,7.35,7.35,0,0,0,3.64.12,21.1,21.1,0,0,0,5.86-2.32,14,14,0,0,0,1.19-.75c.38,0,.57,0,.65,0,.44.07.85.12,1.24.16a8.34,8.34,0,0,0,5,.61,7.06,7.06,0,0,0,1.29-.37,9.27,9.27,0,0,0,3.53-2.49l.17,0a5.89,5.89,0,0,1,2-.06l.27,0a7,7,0,0,0,4.39.62,5.71,5.71,0,0,0,1.29-.41c.1,0,.3-.07.65-.13l1-.19c.37-.07.74-.13,1.05-.2s.76-.15,1-.23a6,6,0,0,0,2.39-1.33,6.48,6.48,0,0,0,5.42,1.36,5.06,5.06,0,0,0,.67-.17l.62-.2a9.86,9.86,0,0,1,1.31-.38,1.57,1.57,0,0,1,.28,0l.4,0a15.44,15.44,0,0,0,1.93-.2,6.23,6.23,0,0,0,4.47-3.17,6,6,0,0,0,4.73,1,7.67,7.67,0,0,0,1.11-.31,4.9,4.9,0,0,1,.64,0,8,8,0,0,0,1.66-.14A5.35,5.35,0,0,0,100.3,101l0,0c2.07,2,4.87,1.78,6.54,1.68l.61,0a7.43,7.43,0,0,0,1.49-.12,8.56,8.56,0,0,0,5.11-3.62l.16-.2.17-.06.32-.13.16-.06.18-.08A23.87,23.87,0,0,0,120.6,98c4.93-1,8.26-4,9.89-9,.69-1.48,1.88-5,.54-10.31a17.39,17.39,0,0,0-1.41-4c-.88-1.91-4.1-7.65-10.69-6.37a11,11,0,0,0-3.84,1.57,4.7,4.7,0,0,0-3.86-3.61,4.58,4.58,0,0,0-1.61,0Z"/><path class="cls-8" d="M47.65,94.75c.42-2.25-.8-5-1.13-5.84s1.83-.13,3.52,1.41a19.14,19.14,0,0,1,2.44,2.87"/><path class="cls-8" d="M71.34,87.89c.53-2.86-1-6.35-1.44-7.42s2.33-.17,4.48,1.79a25.23,25.23,0,0,1,3.1,3.64"/><path class="cls-8" d="M67.07,88.19a7.57,7.57,0,0,0-.74-3.8c-.22-.54,1.19-.08,2.29.92a12.44,12.44,0,0,1,1.59,1.87"/><path class="cls-9" d="M110.39,96.22c-.87,1.17-1.65,1.94-2.75,1.9s-3.28.39-4.07-.38a6.35,6.35,0,0,1-.92-1.23l-.31-.1c-1.56-.62-3.42-.12-5.15.52-.56.69-.52,1.3-.83,1.8-.42.67-1.9,0-3.6.7-1.19.45-1.83-.44-2.41-1.07a11.56,11.56,0,0,0-4.66.52,18.19,18.19,0,0,0-1.21,2c-.46,1-1.74.88-3,1a14.15,14.15,0,0,0-3.3.83A2.09,2.09,0,0,1,75.6,101l-.18,0a7.26,7.26,0,0,0-4.43-.09c-.1.73-.4,1.7-1.13,1.9a39.55,39.55,0,0,0-4.4,1,2.34,2.34,0,0,1-2.38-.53,7.11,7.11,0,0,1-1.06,0,10.12,10.12,0,0,0-5.74.82A4.76,4.76,0,0,1,54,106a3.63,3.63,0,0,1-3.25-.47c-.6,0-1.26-.1-2-.21a12,12,0,0,0-3,.22,14.16,14.16,0,0,1-1.7,1.17c-1.66,1-4.58,2.17-5.74,1.8a4.23,4.23,0,0,1-1.56-1.23,4.21,4.21,0,0,1-3.29-1.42c-3.52-4.66-13-.61-.65-7.81,9.38-5.47,32.29-10.77,38.39-12.09,0,0,19.44-3.67,25.06-4.57,1.57-.25,6.09-.78,9.42-1h0c.51,0,1-.07,1.44-.08a14.88,14.88,0,0,0,4.12-.88c2.29-.93,4.49-5.26,8.67-6.14s8,5.73,6.74,12.38c-1.5,7.94-6.31,8.58-12.52,8.16a7.26,7.26,0,0,1-2.53,1Z"/><path class="cls-10" d="M94.81,81.58A6.75,6.75,0,0,1,93,83.69c-1.25,1-7.06,1.7-10.68,2.06-2.9.3-3.94-.33-4.65-1C83.11,83.68,90.7,82.28,94.81,81.58Z"/><path class="cls-10" d="M51.14,91.13s.59,1,3.44,1.08S64.52,91.37,66,90s2.47-2.3.8-3.07C66.8,86.93,57.24,89.14,51.14,91.13Z"/><path class="cls-11" d="M27.07,102.84a13.07,13.07,0,0,1,7.08.68,45.52,45.52,0,0,0,5.72,2c1.18.47,2.38-.61,3.72-2.66s5.32-1.73,6.92-1.34,1.71,2.12,2.8,2.11S55,102.45,56.16,101s5.64-2.31,7-1.69,2.44,2.46,3.79,2.42S68.57,99.4,69,98.46s5.79-1,7.7-1.32,2.35,3.16,3.84,2.78,1.87-1.36,3.24-3.26,4.91-1.6,6.6-1.27,2.16,2.19,3.49,2,1.76-1.23,2.9-3.19,5.09-.66,6.73.53,3.22,1.46,4.17.73.68-1.54,3-2a5.11,5.11,0,0,1,3.17.48,7.53,7.53,0,0,1-2.31.85l-1.16,1.45c-.87,1.17-1.65,1.94-2.75,1.9s-3.28.39-4.07-.38a6.35,6.35,0,0,1-.92-1.23l-.31-.1c-1.56-.62-3.42-.12-5.15.52-.56.69-.52,1.3-.83,1.8-.42.67-1.9,0-3.6.7-1.19.45-1.83-.44-2.41-1.07a11.56,11.56,0,0,0-4.66.52,18.19,18.19,0,0,0-1.21,2c-.46,1-1.74.88-3,1a14.15,14.15,0,0,0-3.3.83A2.09,2.09,0,0,1,75.6,101l-.18,0a7.26,7.26,0,0,0-4.43-.09c-.1.73-.4,1.7-1.13,1.9a39.55,39.55,0,0,0-4.4,1,2.34,2.34,0,0,1-2.38-.53,7.11,7.11,0,0,1-1.06,0,10.12,10.12,0,0,0-5.74.82A4.76,4.76,0,0,1,54,106a3.63,3.63,0,0,1-3.25-.47c-.6,0-1.26-.1-2-.21a12,12,0,0,0-3,.22,14.16,14.16,0,0,1-1.7,1.17c-1.66,1-4.58,2.17-5.74,1.8a4.23,4.23,0,0,1-1.56-1.23,4.21,4.21,0,0,1-3.29-1.42C31.62,103.45,28.29,103.34,27.07,102.84Z"/><path class="cls-12" d="M102,80.66a21.22,21.22,0,0,1,4.4,2.19c1.69,1.23,5.36,1.1,6.34.18s2.62-6.87,1.42-6c-.36.25-2,2.1-3.62,2.53C109.21,79.86,105.22,80.3,102,80.66Z"/><path class="cls-12" d="M47.15,92.21a6,6,0,0,1-3.82,3.38,36.17,36.17,0,0,0-6.58,2.25c-2.69,1.28-6.2,1.45-7.18,2.08,0,0,3.6-2.18,5.81-3.28A100.46,100.46,0,0,1,47.15,92.21Z"/><path class="cls-13" d="M117.27,74.31s8.24,7.67,8.91,13.09c0,0,2.27-3.78-.77-10.52S117.27,74.31,117.27,74.31Z"/><path class="cls-12" d="M112.17,79.58a4.36,4.36,0,0,1-.84-1,7.55,7.55,0,0,1-.54-1.06,9.25,9.25,0,0,1-.55-2.22,13.78,13.78,0,0,1-.08-2.22c0-.74.13-1.46.24-2.18l.22,0a19.24,19.24,0,0,0,0,2.15,12.08,12.08,0,0,0,.37,2.08,8.09,8.09,0,0,0,.75,1.9,5.72,5.72,0,0,0,.56.8,2.76,2.76,0,0,0,.62.59Z"/><path class="cls-12" d="M109.3,80.9a3.73,3.73,0,0,1-.83-1,6.62,6.62,0,0,1-.54-1.06,9.17,9.17,0,0,1-.55-2.21,12.83,12.83,0,0,1-.08-2.23c0-.73.13-1.46.24-2.18l.21,0c0,.73,0,1.44.06,2.15a12.91,12.91,0,0,0,.36,2.08,8.57,8.57,0,0,0,.76,1.9,5.28,5.28,0,0,0,.56.81,2.7,2.7,0,0,0,.62.58Z"/><path class="cls-14" d="M29.54,99.7h0c.85-.53,1.89-1.16,3.18-1.9.78-.46,1.65-.91,2.59-1.36h0A98.7,98.7,0,0,1,47.11,92h0l.4-.13a17.4,17.4,0,0,0-1-3.17c-.33-.84,1.83-.13,3.52,1.41.27.24.52.5.77.77,6-1.78,12.07-3.28,16.26-4.26a10.62,10.62,0,0,0-.74-2.44c-.22-.55,1.19-.09,2.29.92a9,9,0,0,1,.9,1l1.63-.36.27,0a19.26,19.26,0,0,0-1.52-5.39c-.42-1.07,2.32-.17,4.48,1.79a21.63,21.63,0,0,1,2.34,2.61l1.39-.26.12,0,.42-.08.09,0,.43-.08.17,0,.3,0,.21,0,.94-.18.17,0,.29-.05.3-.06.15,0,.39-.07.53-.1h.06l.51-.09.28,0,.23,0,.29-.06.35-.06.13,0,.45-.08.14,0,.37-.07.26,0,.3,0,.24,0c4.08-.75,7.94-1.44,10-1.76,1-.17,3.35-.46,5.76-.7s4.45-.31,6.26-.59c-.76-.93-2-7.35-.54-7.63-.23,2.52,2.09,7.33,2.09,7.33a5.31,5.31,0,0,0,1.64-.84,9.13,9.13,0,0,1-.87-7.81c.5,4.92,2.21,7,2.21,7,.82-.64,1.13-1,1.35-1.12a17.78,17.78,0,0,1,3.16-2.69h0s5.1-4.17,8.14,2.57v0a12.44,12.44,0,0,1,1.09,3.06c1.25,4.79-.34,7.43-.34,7.43h0c-1.86,6.27-6.38,6.78-12.09,6.4l-.46.26,0,0-.22.11-.07,0-.2.09-.1,0-.19.08-.12,0-.18.06-.15,0-.16,0-.19,0-.13,0-.32.06L110.35,96c-.87,1.16-1.65,1.93-2.75,1.9s-3.28.39-4.07-.38a6.35,6.35,0,0,1-.92-1.23l-.31-.11c-1.57-.61-3.42-.12-5.15.53-.56.69-.53,1.3-.83,1.8-.42.67-1.91,0-3.6.69-1.19.46-1.83-.43-2.41-1.07a11.57,11.57,0,0,0-4.66.53,18.19,18.19,0,0,0-1.21,2c-.46.94-1.74.88-3,1a13.67,13.67,0,0,0-3.3.83,2.09,2.09,0,0,1-2.58-1.68l-.18,0a7.29,7.29,0,0,0-4.43-.08c-.1.72-.4,1.7-1.14,1.9a42.38,42.38,0,0,0-4.39,1A2.33,2.33,0,0,1,63,103,7.26,7.26,0,0,1,62,102.9a10.09,10.09,0,0,0-5.73.83,4.74,4.74,0,0,1-2.27,2,3.6,3.6,0,0,1-3.25-.46c-.6,0-1.26-.1-2-.21a12,12,0,0,0-3,.22,16.47,16.47,0,0,1-1.7,1.17c-1.66,1-4.58,2.16-5.74,1.79A4.22,4.22,0,0,1,36.65,107a4.2,4.2,0,0,1-3.28-1.42,4.87,4.87,0,0,0-.35-.42h0l-.37-.36h0a4.08,4.08,0,0,0-.39-.31l0,0-.4-.26,0,0a4,4,0,0,0-.4-.22l-.05,0-.4-.19-.06,0-.4-.16-.07,0-.38-.13-.08,0-.36-.11-.1,0-.33-.08-.13,0-.26-.06a14.53,14.53,0,0,1-1.72-.45h0C26.1,102.26,26.4,101.67,29.54,99.7Z"/><g class="cls-15"><path class="cls-16" d="M38.22,80.71a3.74,3.74,0,0,1-3.69-3.61c-.16-.58-1-2.41-1.66-4C31.65,70.3,30,66.49,28.52,62.29c-2.71-7.68-3.35-11.62-3.66-16.61a12,12,0,0,1,1.94-7.51,4,4,0,0,1,.16-.66,6.6,6.6,0,0,1,2.19-4.41c1.15-1.14,4-4.41,4.35-4.9a10.75,10.75,0,0,1,1.37-1.48,5.93,5.93,0,0,1,.91-.85l.13-.1a2.6,2.6,0,0,0-.1-.25c-.89,0-2.42.11-3.82.22l-1,.08a58.14,58.14,0,0,1-12.42-.45L18,25.3c-3.9-.47-3.74-3.51-3.71-3.86a3.4,3.4,0,0,1,.52-1.57l-.09-.2a4,4,0,0,1,.68-4,4.25,4.25,0,0,1,4.15-1.35c1.17.23,2.67.24,10.58.14,6.71-.08,14.76-2.12,18.19-3l1.52-.38c3.64-.83,5.63.68,6.28,2.36a3.76,3.76,0,0,1,.23.89,4.08,4.08,0,0,1,3,2.6c.26.77.82,3.43-2.92,5.16s-9.4,2.36-11,2.5c.15.33.34.72.58,1.17s.52,1,.7,1.45c1.18,1.28,2.53,2.64,3.36,3.38a21.8,21.8,0,0,1,4,4.72,5.47,5.47,0,0,1,.77,3.16c1.29,3.87,1.18,9.25-.33,17.18-2,10.3-6.95,15.94-7,16l0,0A44.42,44.42,0,0,1,45,76.23c-1.75,2.83-2.71,4.08-4.55,4.21a4.8,4.8,0,0,1-.75,0,3.75,3.75,0,0,1-1.3.3ZM34.51,77v0Zm1.13-.52v0ZM38,74.68ZM33.45,39.43a3.37,3.37,0,0,1-.86,2.07,5,5,0,0,0-1.11,3.78c.24,3.86.61,7.18,3.29,14.81,1.4,4,3,7.65,4.18,10.34.28.64.53,1.21.75,1.73a31.68,31.68,0,0,0,1.92-3.65,3.08,3.08,0,0,1,.75-1.1l.21-.23A30.41,30.41,0,0,0,48,54.39c1.34-7,1.46-11.74.36-14.33a3.38,3.38,0,0,1-.23-1.75,15.65,15.65,0,0,0-2.49-2.8c-1.29-1.16-3.14-3.09-4.31-4.39a3.18,3.18,0,0,1-.54-.81c-.32.31-.64.56-.89.76a4.16,4.16,0,0,1-.42.42,5.19,5.19,0,0,0-.7.71c-.53.7-3.59,4.25-5,5.61l-.1.11A3.4,3.4,0,0,1,33.45,39.43Zm14.84-1.76Zm-3.4-14.61Zm9-7.12Z"/></g><path class="cls-6" d="M38.22,79.18a3.74,3.74,0,0,1-3.69-3.61c-.16-.58-1-2.41-1.66-4C31.65,68.77,30,65,28.52,60.76c-2.71-7.68-3.35-11.62-3.66-16.61a12,12,0,0,1,1.94-7.51A4,4,0,0,1,27,36a6.6,6.6,0,0,1,2.19-4.41c1.15-1.14,4-4.41,4.35-4.9a10.18,10.18,0,0,1,1.37-1.48,5.46,5.46,0,0,1,.91-.85l.13-.1a1.86,1.86,0,0,0-.1-.25c-.89,0-2.42.11-3.82.22l-1,.08a57.4,57.4,0,0,1-12.42-.46L18,23.77c-3.9-.47-3.74-3.51-3.71-3.86a3.4,3.4,0,0,1,.52-1.57l-.09-.2a4,4,0,0,1,.68-4,4.25,4.25,0,0,1,4.15-1.35c1.17.23,2.67.24,10.58.14,6.71-.08,14.76-2.12,18.19-3l1.52-.37c3.64-.83,5.63.68,6.28,2.36a3.76,3.76,0,0,1,.23.89,4.09,4.09,0,0,1,3,2.59c.26.78.82,3.44-2.92,5.17s-9.4,2.36-11,2.5c.15.33.34.72.58,1.17s.52,1,.7,1.44c1.18,1.28,2.53,2.64,3.36,3.38a22.29,22.29,0,0,1,4,4.72,5.52,5.52,0,0,1,.77,3.17c1.29,3.87,1.18,9.25-.33,17.18-2,10.3-6.95,15.93-7,16l0,0A45.52,45.52,0,0,1,45,74.7c-1.75,2.82-2.71,4.08-4.55,4.2a3.8,3.8,0,0,1-.75,0,3.75,3.75,0,0,1-1.3.3Zm-3.71-3.74v0Zm1.13-.52v0ZM38,73.15ZM33.45,37.9A3.37,3.37,0,0,1,32.59,40a5,5,0,0,0-1.11,3.78c.24,3.86.61,7.18,3.29,14.81,1.4,4,3,7.65,4.18,10.34.28.64.53,1.21.75,1.73A31.68,31.68,0,0,0,41.62,67a3.08,3.08,0,0,1,.75-1.1l.21-.23A30.41,30.41,0,0,0,48,52.86c1.34-7,1.46-11.74.36-14.33a3.38,3.38,0,0,1-.23-1.75A15.65,15.65,0,0,0,45.64,34c-1.29-1.16-3.14-3.09-4.31-4.39a3.37,3.37,0,0,1-.54-.81c-.32.31-.64.56-.89.76a4.16,4.16,0,0,1-.42.42,5.19,5.19,0,0,0-.7.71c-.53.7-3.59,4.25-5,5.61l-.1.11A3.43,3.43,0,0,1,33.45,37.9Zm14.84-1.76Zm-3.4-14.61Zm9-7.12Z"/><path class="cls-17" d="M30.45,37.42A8,8,0,0,0,28.17,44c.27,4.4.77,8,3.47,15.71s6,14,6.18,15.48S39,75.46,39,75a.54.54,0,0,1,.47-.54s.3,1.19.77,1.16,4.25-6,4.86-8.43S47.86,52,43.71,47.61s-8.35-8-8.35-8"/><path class="cls-18" d="M30.92,36.16c-.52.41-1.22.83-.67,1.83a50.81,50.81,0,0,0,6.69,7.94c2.7,2.5,5.89,6,6,10S41.49,66.26,42.29,68s1.91.82,2.75-.12a33.05,33.05,0,0,0,6.21-14.39c1.61-8.42,1.65-14-.4-17.37"/><path class="cls-19" d="M39,26.43a7,7,0,0,0-2.86,2.24c-.44.57-3.39,4-4.66,5.25s-1.77,2.76-.32,3.23a60.09,60.09,0,0,0,11,1.3c3.13,0,6.76.7,8.15,0a2.08,2.08,0,0,0,.92-3,18.76,18.76,0,0,0-3.36-3.94,58.25,58.25,0,0,1-5.29-5.58"/><path class="cls-20" d="M18.4,20.48A57.1,57.1,0,0,0,30.69,21c5.17-.41,7.31-.71,7.92,1s1.11,2.24.6,3.45-2.74,2.14-1.52,2,1.22.82,2.84.82,1.63-.82,2.54-.71,1,.1,0-1.83S41.35,22,41.65,21.09s.51-1.12,3.15-1.32,7.41-.92,10.25-2.24,0-2-2.33-1.52-1.73-1.22-.31-2,.41-1.72-1.82-1.22S38.5,16.11,30.18,16.21s-9.75.11-11.27-.2S17,17.84,20.43,18.35s1.53,1.52-.2,1.42S16.43,20.24,18.4,20.48Z"/><path class="cls-14" d="M52.72,16c-2.34.51-1.73-1.22-.31-2s.41-1.72-1.82-1.22S38.5,16.11,30.18,16.21s-9.75.11-11.27-.2S17,17.84,20.43,18.35s1.53,1.52-.2,1.42-3.8.47-1.83.71A57.1,57.1,0,0,0,30.69,21c5.17-.41,7.31-.71,7.92,1s1.11,2.24.6,3.45c-.4,1-1.92,1.76-1.87,2a7.76,7.76,0,0,0-1.2,1.24c-.44.57-3.39,4-4.66,5.25-.93.93-1.44,2-1.08,2.66a1,1,0,0,0-.26,1.15,8.31,8.31,0,0,0-2,6.22c.27,4.4.77,8,3.47,15.71s6,14,6.18,15.48S39,75.46,39,75a.54.54,0,0,1,.47-.54s.3,1.19.77,1.16,3.33-4.59,4.48-7.35a4.27,4.27,0,0,0,.36-.38,33.05,33.05,0,0,0,6.21-14.39c1.44-7.54,1.62-12.81.17-16.24a2.18,2.18,0,0,0-.2-1.79,18.76,18.76,0,0,0-3.36-3.94c-1.13-1-2.86-2.8-4.07-4.14a6.08,6.08,0,0,0-.72-1.61c-1-1.93-1.72-3.76-1.42-4.67s.51-1.12,3.15-1.32,7.41-.92,10.25-2.24S55.05,15.5,52.72,16Z"/></g></g></svg>