<svg xmlns="http://www.w3.org/2000/svg" viewBox="0 0 150 150"><defs><style>.cls-1{isolation:isolate;}.cls-2{fill:#002451;opacity:0.27;}.cls-3{fill:#fff2cc;}.cls-4{fill:#29abe2;}.cls-5,.cls-7{opacity:0.2;}.cls-5{mix-blend-mode:multiply;}.cls-6{fill:#fff;}.cls-8{fill:#000f56;}.cls-9{fill:#e5e4d4;}.cls-10{fill:#4a403b;}.cls-11{fill:#00031d;}.cls-12{fill:#004fe0;}.cls-13{fill:#0078f3;}.cls-14{fill:#005bf3;}.cls-15{fill:#342b2a;}.cls-16,.cls-25{fill:none;}.cls-16{stroke:#342b2a;stroke-miterlimit:10;stroke-width:0.13px;}.cls-17{fill:#897459;}.cls-18{fill:#595b61;}.cls-19{fill:#44464c;}.cls-20{fill:#7a7b81;}.cls-21{fill:#73757a;}.cls-22{fill:#53545a;}.cls-23{fill:#401f16;}.cls-24{fill:#000b23;}.cls-25{stroke:#1e134d;stroke-linecap:round;stroke-linejoin:round;stroke-width:1.08px;}</style></defs><title>lab02-</title><g class="cls-1"><g id="Layer_1" data-name="Layer 1"><rect class="cls-2" x="16.51" y="16.94" width="120.09" height="120.09" rx="36.12" ry="36.12"/><rect class="cls-3" x="13.41" y="13.84" width="120.09" height="120.09" rx="36.12" ry="36.12"/><path class="cls-4" d="M133,103.63H120.08A17.12,17.12,0,0,0,103,120.76v12.73A36.15,36.15,0,0,0,133,103.63Z"/><g class="cls-5"><rect x="115.37" y="112.13" width="1.38" height="10.82"/><polygon points="116.03 108.03 113.24 112.86 118.81 112.86 116.03 108.03"/><polygon points="116.06 126.97 118.85 122.15 113.27 122.15 116.06 126.97"/><rect x="110.65" y="116.85" width="10.82" height="1.38"/><polygon points="106.57 117.52 111.4 120.31 111.4 114.73 106.57 117.52"/><polygon points="125.52 117.49 120.69 114.7 120.69 120.27 125.52 117.49"/></g><rect class="cls-6" x="114.37" y="111.13" width="1.38" height="10.82"/><polygon class="cls-6" points="115.03 107.03 112.24 111.86 117.81 111.86 115.03 107.03"/><polygon class="cls-6" points="115.06 125.97 117.85 121.15 112.27 121.15 115.06 125.97"/><rect class="cls-6" x="109.65" y="115.85" width="10.82" height="1.38"/><polygon class="cls-6" points="105.57 116.52 110.4 119.31 110.4 113.73 105.57 116.52"/><polygon class="cls-6" points="124.52 116.49 119.69 113.7 119.69 119.27 124.52 116.49"/><g class="cls-7"><path class="cls-8" d="M70.29,122.2a5,5,0,0,1-3.69-1.69c-4.48-5-13.13-2.57-13.22-2.54a5,5,0,0,1-5.82-2.47c-2.8-5.3-11.73-6.2-11.82-6.21a5,5,0,0,1-4.63-5c.06-5.83-8.17-8.71-8.26-8.73a5,5,0,0,1-3.19-6.22C21.75,82.56,15.1,79,14.81,78.89a5,5,0,0,1-.71-8.44c1.7-1.28.81-7.46-1.07-11.92A5,5,0,0,1,15,52.35c6.35-4,5.25-11.47,5.2-11.79a5.05,5.05,0,0,1,4.5-5.81,4.19,4.19,0,0,0,1.86-.6A10.15,10.15,0,0,1,25,30.27a9.79,9.79,0,0,1-2.55-7.59c.65-4.47,4.64-6.56,7-7.8a13.66,13.66,0,0,1,5.64-1.6c2.84-3.13,7.81-4.12,11.44-4.85,5.16-1,10.93-1.64,14.55,1.66a8,8,0,0,1,1.85,2.51,15.35,15.35,0,0,0,3.85-2.19,5,5,0,0,1,7.51,1.05c.86,1.2,7,2.07,12.58,1.34A5,5,0,0,1,92,15.55c2.57,5.23,11.11,6.23,11.19,6.24a5,5,0,0,1,4.54,4.67c.43,7.13,6.77,7.69,8.71,7.69a5,5,0,0,1,4.74,6.69c-2.55,7.07,2.33,10.58,3.33,11.21a5,5,0,0,1,1,7.77c-3.6,3.65.72,11.51.77,11.59a5,5,0,0,1,.42,4,5,5,0,0,1-2.68,3c-1.6.73-3.78,2.17-4.28,6.18a14.9,14.9,0,0,0,.22,4.78,5,5,0,0,1-4,6.2c-7,1.22-7.3,8.55-7.31,8.86a5,5,0,0,1-5.24,4.83c-7.06-.4-11.13,6.31-11.17,6.38A5,5,0,0,1,86.67,118c-8.18-2.12-12.46,2.32-12.64,2.51a4.9,4.9,0,0,1-3.7,1.68ZM58.21,107.38a22.11,22.11,0,0,1,12.25,3.36,22.89,22.89,0,0,1,15.33-3.08,23.21,23.21,0,0,1,13.62-8.09A18.86,18.86,0,0,1,109.6,87.16c-.15-4.84,1.12-10.92,6-15.11-1.56-4.34-2.36-9.91-.23-14.81a18.61,18.61,0,0,1-4.85-14A17.28,17.28,0,0,1,98.37,31c-3.83-1-9.62-3.16-13.42-8-4.21.25-10.63.06-15.23-2.59a23.66,23.66,0,0,1-7.9,2.78,5.11,5.11,0,0,1-3-.5,2.57,2.57,0,0,0-.84-.23,5,5,0,0,1-4.19-4.86,24.62,24.62,0,0,0-5.24.62c-3.62.72-5.13,1.25-5.74,1.61a5,5,0,0,1-6.4,3.52,2.8,2.8,0,0,0-2.27.37l-1,.56q.16.18.39.39A5,5,0,0,1,35,28.76a9.47,9.47,0,0,0,1.67,1.83,5,5,0,0,1,.79,6.5,17.5,17.5,0,0,1-7.21,6.39,21.47,21.47,0,0,1-6.66,14.83c1.16,3.88,2.35,10,.42,15a18.28,18.28,0,0,1,6.1,14.51c4.27,2.32,9,6.35,10.51,12.19,3.89.91,9.7,3,13.66,7.64A30.9,30.9,0,0,1,58.21,107.38Z"/></g><path class="cls-6" d="M70.29,120.2a5,5,0,0,1-3.69-1.69c-4.48-5-13.13-2.57-13.22-2.54a5,5,0,0,1-5.82-2.47c-2.8-5.3-11.73-6.2-11.82-6.21a5,5,0,0,1-4.63-5c.06-5.83-8.17-8.71-8.26-8.73a5,5,0,0,1-3.19-6.22C21.75,80.56,15.1,77,14.81,76.89a5,5,0,0,1-.71-8.44c1.7-1.28.81-7.46-1.07-11.92A5,5,0,0,1,15,50.35c6.35-4,5.25-11.47,5.2-11.79a5.05,5.05,0,0,1,4.5-5.81,4.19,4.19,0,0,0,1.86-.6A10.15,10.15,0,0,1,25,28.27a9.79,9.79,0,0,1-2.55-7.59c.65-4.47,4.64-6.56,7-7.8a13.66,13.66,0,0,1,5.64-1.6c2.84-3.13,7.81-4.12,11.44-4.85,5.16-1,10.93-1.64,14.55,1.66a8,8,0,0,1,1.85,2.51,15.35,15.35,0,0,0,3.85-2.19A5,5,0,0,1,74.3,9.46c.86,1.2,7,2.07,12.58,1.34A5,5,0,0,1,92,13.55c2.57,5.23,11.11,6.23,11.19,6.24a5,5,0,0,1,4.54,4.67c.43,7.13,6.77,7.69,8.71,7.69a5,5,0,0,1,4.74,6.69c-2.55,7.07,2.33,10.58,3.33,11.21a5,5,0,0,1,1,7.77c-3.6,3.65.72,11.51.77,11.59a5,5,0,0,1,.42,4,5,5,0,0,1-2.68,3c-1.6.73-3.78,2.17-4.28,6.18a14.9,14.9,0,0,0,.22,4.78,5,5,0,0,1-4,6.2c-7,1.22-7.3,8.55-7.31,8.86a5,5,0,0,1-5.24,4.83c-7.06-.4-11.13,6.31-11.17,6.38A5,5,0,0,1,86.67,116c-8.18-2.12-12.46,2.32-12.64,2.51a4.9,4.9,0,0,1-3.7,1.68ZM58.21,105.38a22.11,22.11,0,0,1,12.25,3.36,22.89,22.89,0,0,1,15.33-3.08,23.21,23.21,0,0,1,13.62-8.09A18.86,18.86,0,0,1,109.6,85.16c-.15-4.84,1.12-10.92,6-15.11-1.56-4.34-2.36-9.91-.23-14.81a18.61,18.61,0,0,1-4.85-14A17.28,17.28,0,0,1,98.37,29c-3.83-1-9.62-3.16-13.42-8-4.21.25-10.63.06-15.23-2.59a23.66,23.66,0,0,1-7.9,2.78,5.11,5.11,0,0,1-3-.5,2.57,2.57,0,0,0-.84-.23,5,5,0,0,1-4.19-4.86,24.62,24.62,0,0,0-5.24.62c-3.62.72-5.13,1.25-5.74,1.61a5,5,0,0,1-6.4,3.52,2.8,2.8,0,0,0-2.27.37l-1,.56q.16.18.39.39A5,5,0,0,1,35,26.76a9.47,9.47,0,0,0,1.67,1.83,5,5,0,0,1,.79,6.5,17.5,17.5,0,0,1-7.21,6.39,21.47,21.47,0,0,1-6.66,14.83c1.16,3.88,2.35,10,.42,15a18.28,18.28,0,0,1,6.1,14.51c4.27,2.32,9,6.35,10.51,12.19,3.89.91,9.7,3,13.66,7.64A30.9,30.9,0,0,1,58.21,105.38Z"/><path class="cls-9" d="M102.75,24.76s-11.3-1-15.23-9c0,0-14,1.8-17.43-3.6,0,0-8.22,7.23-17.48,2.91,0,0-6.31,9.05-15.82,8.92,0,0-2.7,13-11.71,13.74,0,0,1.93,10.9-7.45,16.84,0,0,5.65,13.22-.52,17.87,0,0,10.68,5.52,7.33,16.35,0,0,11.77,3.87,11.67,13.52,0,0,11.65.87,15.87,8.86,0,0,11.62-3.46,18.34,4,0,0,6.1-7,17.6-4,0,0,5.45-9.38,15.74-8.86,0,0,.38-11.69,11.44-13.63,0,0-3.21-12.2,6.82-16.78,0,0-6.43-11.05,0-17.59a14.06,14.06,0,0,1-5.43-17.16S103.51,37.37,102.75,24.76Z"/><path class="cls-10" d="M70.36,15.16A1.94,1.94,0,0,0,71,16.45,14.24,14.24,0,0,0,85.5,19a1.82,1.82,0,0,0,.93-1l.52.06a1.65,1.65,0,0,0,.16,1.62A14.26,14.26,0,0,0,100,26.82a1.7,1.7,0,0,0,1.12-.54l.46.33a1.88,1.88,0,0,0-.37,1.35,14,14,0,0,0,9.47,11.1,1.93,1.93,0,0,0,1.41-.15l.35.44a1.92,1.92,0,0,0-.89,1.12A14,14,0,0,0,116.25,54a2.15,2.15,0,0,0,2,.51l0,.46a2.13,2.13,0,0,0-1.73,1.27,13.85,13.85,0,0,0,.23,14.07,2,2,0,0,0,1.23.85l-.24.53a1.67,1.67,0,0,0-1.19.31,13.85,13.85,0,0,0-5.11,13.73,1.79,1.79,0,0,0,.79,1.08l-.23.52a1.93,1.93,0,0,0-1.41-.15,14,14,0,0,0-9.49,11.16,1.89,1.89,0,0,0,.43,1.35l-.26.47a2,2,0,0,0-1.82-.82,14.56,14.56,0,0,0-12.28,7,2,2,0,0,0-.22,2l-.54,0a1.92,1.92,0,0,0-1-1,14.22,14.22,0,0,0-14.62,2.57,1.69,1.69,0,0,0-.5,1.14l-.53.21a1.73,1.73,0,0,0-.72-1.55,14.55,14.55,0,0,0-14.17-2.51,1.91,1.91,0,0,0-1.36,1.32l-.41-.21a1.81,1.81,0,0,0-.18-1.8,14.37,14.37,0,0,0-12.72-7A2,2,0,0,0,39,100l-.59-.08A2.08,2.08,0,0,0,39,97.87a14.12,14.12,0,0,0-9.43-10.69,2,2,0,0,0-1.42.13l-.27-.5a1.87,1.87,0,0,0,.82-1.15,13.77,13.77,0,0,0-5-13.58,2,2,0,0,0-1.45-.36l-.11-.57a2,2,0,0,0,1.24-.83,13.78,13.78,0,0,0,.18-14.22A2,2,0,0,0,21.88,55l.15-.44A2,2,0,0,0,23.86,54a13.9,13.9,0,0,0,4.81-13.4,2,2,0,0,0-.87-1.23l.34-.45a1.85,1.85,0,0,0,1.32.15A14,14,0,0,0,39,27.94a1.84,1.84,0,0,0-.39-1.36l.43-.36a1.85,1.85,0,0,0,1.19.6,14.3,14.3,0,0,0,12.84-7.15A1.66,1.66,0,0,0,53.18,18l.51-.1a1.89,1.89,0,0,0,1,1A14.44,14.44,0,0,0,69.1,16.61a1.72,1.72,0,0,0,.73-1.54Zm29.8,83.67c-1.93-2.27-3.72-4.39-5.54-6.49a1.6,1.6,0,0,0-.77-.34,8.67,8.67,0,0,0-9.78,4.54,3.36,3.36,0,0,0-.19,3.29,16.61,16.61,0,0,1,.78,2.07l1.77,4.72A15.33,15.33,0,0,1,100.16,98.83ZM23.66,70.92c2.94-.52,5.68-1,8.42-1.5a1.66,1.66,0,0,0,.78-.52,8.35,8.35,0,0,0,.3-11.22,3.74,3.74,0,0,0-1.75-1c-1.24-.32-2.52-.48-3.79-.7s-2.53-.42-3.94-.65A15,15,0,0,1,23.66,70.92Zm30.07,35.71c1-2.56,1.87-4.95,2.7-7.37a2.94,2.94,0,0,0,0-1.83A8.51,8.51,0,0,0,46.57,92a2.83,2.83,0,0,0-1.42.84c-1.52,1.7-3,3.45-4.45,5.19-.2.23-.36.49-.62.83A15.31,15.31,0,0,1,53.73,106.63ZM86.42,19.57c-1,2.6-1.88,5-2.73,7.48a2.67,2.67,0,0,0,0,1.56,8.57,8.57,0,0,0,10.12,5.62,2.38,2.38,0,0,0,1.1-.68c1.57-1.79,3.1-3.61,4.64-5.42.17-.2.31-.44.52-.73A15.33,15.33,0,0,1,86.42,19.57Zm30,35.23A15.07,15.07,0,0,1,111,40.13c-2.56,1.46-5,2.81-7.34,4.2a2,2,0,0,0-.64.91,8.39,8.39,0,0,0,2,9.3c1.34,1.26,2.77,2.21,4.73,1.42a3.7,3.7,0,0,1,.48-.07ZM40.16,27.4a1.72,1.72,0,0,0,.16.35c1.7,2,3.39,4,5.12,6a1.76,1.76,0,0,0,.9.48,8.5,8.5,0,0,0,8.72-3c1.36-1.63,2.06-3.35,1-5.55a63.34,63.34,0,0,1-2.31-6.1A15.33,15.33,0,0,1,40.16,27.4Zm-.52,71.24c.31-.44.45-.69.63-.9,1.47-1.74,3-3.45,4.41-5.24a3.19,3.19,0,0,0,.65-1.8,8.49,8.49,0,0,0-6.89-8.37,3.09,3.09,0,0,0-2.37.4c-2.14,1.28-4.33,2.48-6.63,3.8A15.25,15.25,0,0,1,39.64,98.64Zm30.7,10.91A15.41,15.41,0,0,1,77.75,106a16.06,16.06,0,0,1,8.08.76,4.12,4.12,0,0,0-.08-.49c-.89-2.41-1.76-4.82-2.68-7.21a2,2,0,0,0-.73-.84,8.7,8.7,0,0,0-11.51,1.91,1.84,1.84,0,0,0-.47,1C70.32,103.87,70.34,106.59,70.34,109.55Zm30.21-11.06a15.16,15.16,0,0,1,10.16-12c-2.54-1.45-4.93-2.82-7.34-4.16a1.67,1.67,0,0,0-.92-.13,8.61,8.61,0,0,0-7.53,6.94c-.28,1.51-.23,2.93,1.09,4a10.6,10.6,0,0,1,1.07,1.23C98.19,95.74,99.31,97,100.55,98.49Zm15.89-43.11a3.63,3.63,0,0,0-.47,0c-2.56.44-5.12.88-7.68,1.35a1.92,1.92,0,0,0-1,.56,8.22,8.22,0,0,0-2.2,7.47A6.71,6.71,0,0,0,107.46,69a8.52,8.52,0,0,0,2.87.86l.38.08,5.78,1A14.93,14.93,0,0,1,116.44,55.38ZM29.2,86a2.91,2.91,0,0,0,.42-.16c2.26-1.28,4.53-2.55,6.77-3.87a2,2,0,0,0,.75-.93,8.06,8.06,0,0,0-.82-8C34.82,70.9,33,69.27,30,70.33a3.7,3.7,0,0,1-.48.07l-5.79,1A15,15,0,0,1,29.2,86Zm0-45.85a15,15,0,0,1-5.32,14.57,1.69,1.69,0,0,0,.34.17c2.59.46,5.18.93,7.78,1.35a1.88,1.88,0,0,0,1-.18,8.44,8.44,0,0,0,4.09-11,1.65,1.65,0,0,0-.58-.74C34.15,43,31.78,41.61,29.18,40.14Zm81.53-.46c-5.64-2.13-9-6-10.2-12.1-.27.4-.39.63-.55.82-1.52,1.79-3.06,3.55-4.54,5.38a2.72,2.72,0,0,0-.59,1.54,8.5,8.5,0,0,0,7,8.59,3,3,0,0,0,2.21-.37c1.33-.84,2.72-1.58,4.09-2.36Zm-56.5,67.15a15.37,15.37,0,0,1,15.61,2.69c0-2.78,0-5.34,0-7.91a2.8,2.8,0,0,0-.55-1.55,8.65,8.65,0,0,0-11.37-1.87,1.86,1.86,0,0,0-.74.73C56.16,101.46,55.24,104,54.21,106.83Zm62.17-35.42c-2.85-.5-5.47-1-8.1-1.39a2.21,2.21,0,0,0-1.28.23A8.41,8.41,0,0,0,103,81a2.61,2.61,0,0,0,1,1.11c2.07,1.23,4.17,2.4,6.27,3.58A6.85,6.85,0,0,0,111,86C110,80.12,111.85,75.35,116.38,71.41ZM29.57,39.62a1,1,0,0,0,.21.25q3.47,2,6.94,4a1.79,1.79,0,0,0,.92.15,8.52,8.52,0,0,0,7.69-9,2.18,2.18,0,0,0-.48-1.1c-1.18-1.44-2.4-2.84-3.61-4.26-.51-.6-1-1.18-1.63-1.88A15,15,0,0,1,29.57,39.62ZM70.33,16.7c0,2.78,0,5.34,0,7.9a2.78,2.78,0,0,0,.55,1.55A8.62,8.62,0,0,0,82.28,28a2.4,2.4,0,0,0,.86-1.08c.85-2.18,1.65-4.39,2.46-6.59.09-.25.15-.52.26-.89A15.48,15.48,0,0,1,70.33,16.7Zm-.52,0a15.58,15.58,0,0,1-15.6,2.68c1,2.79,2,5.37,3,7.94a1.69,1.69,0,0,0,.68.64,8.7,8.7,0,0,0,11.5-1.95,1.68,1.68,0,0,0,.44-.92C69.82,22.4,69.81,19.68,69.81,16.74Zm36.74,53.08-.16-.14c-2.12-.37-4.27-.59-6.34-1.16a3.3,3.3,0,0,0-3.82,1.42,10.91,10.91,0,0,0-1.5,2.87A4.71,4.71,0,0,0,95,76.65c.37.67,1.32,1,2,1.47,1.75,1,3.53,2,5.45,3.11C101,76.3,102.39,72.57,106.55,69.82ZM46,91.06c1.86-2.18,3.59-4.19,5.28-6.25a1.68,1.68,0,0,0,.17-1.09,6.85,6.85,0,0,0-5.22-6.08,2.22,2.22,0,0,0-1.43.2c-1.35.68-2.64,1.46-4,2.21L38,81.68C43,82.86,45.59,85.87,46,91.06Zm.4-56.22c1.74,2,3.28,3.93,4.91,5.73a2.78,2.78,0,0,0,1.61.82,6.85,6.85,0,0,0,6.81-3.94,2.29,2.29,0,0,0,.06-1.53c-.73-2.16-1.55-4.29-2.34-6.42a7.57,7.57,0,0,0-.35-.7C55,33.46,51.48,35.37,46.35,34.84Zm56,10.3a.92.92,0,0,0-.33.08c-2.21,1.24-4.42,2.48-6.61,3.76a1.53,1.53,0,0,0-.58.82,6.68,6.68,0,0,0,1.85,7.05,2.66,2.66,0,0,0,2.93.88,9.52,9.52,0,0,1,1.61-.29l5.43-1C102.38,53.68,101,49.93,102.39,45.14ZM37.72,81.23c2.47-1.41,4.8-2.72,7.11-4.08a1.43,1.43,0,0,0,.47-.79,6.8,6.8,0,0,0-2.4-7.47A2.06,2.06,0,0,0,41,68.41a26.2,26.2,0,0,1-2.65.46l-4.83.87C37.77,72.57,39.17,76.3,37.72,81.23Zm56.1-46.4c-5.16.55-8.7-1.38-10.77-6.12-1,2.65-1.91,5.13-2.8,7.63a1.54,1.54,0,0,0,.15.92,7,7,0,0,0,7.35,4.13,1.4,1.4,0,0,0,.82-.41C90.27,39,92,37,93.82,34.83ZM33.37,57c3.09,4.17,3.06,8.16,0,12.24,2.78-.48,5.43-.92,8.06-1.41a1.51,1.51,0,0,0,.73-.56A6.75,6.75,0,0,0,42.25,59a1.41,1.41,0,0,0-.71-.58C38.9,57.94,36.25,57.49,33.37,57Zm68.82,24.7c-2.45-1.4-4.73-2.71-7-4a1.42,1.42,0,0,0-.91-.11,6.88,6.88,0,0,0-5.53,6.23,2.08,2.08,0,0,0,.43,1.28c1.13,1.4,2.31,2.75,3.48,4.12L94.2,91C94.57,85.89,97.17,82.87,102.19,81.68ZM33.48,56.48l3.92.7c1.36.24,2.72.49,4.09.67a1.6,1.6,0,0,0,1-.29A6.76,6.76,0,0,0,45.39,50a2.29,2.29,0,0,0-.89-1.15c-1.16-.74-2.38-1.39-3.59-2.07L37.71,45C39.19,50,37.72,53.69,33.48,56.48Zm23.62,41,2.64-7.11a1.33,1.33,0,0,0,.15-.45,3.05,3.05,0,0,0-.16-1,6.85,6.85,0,0,0-7.06-4.1,2.18,2.18,0,0,0-1.28.66c-1.54,1.72-3,3.49-4.51,5.25-.15.18-.25.38-.42.63C51.49,90.82,55,92.78,57.1,97.5Zm-19-53c.12.13.17.22.24.26,2.2,1.26,4.39,2.53,6.6,3.77a1.43,1.43,0,0,0,.82.1,6.84,6.84,0,0,0,5.63-6.23A2.12,2.12,0,0,0,51,41.12c-1.41-1.74-2.9-3.43-4.34-5.15a5.62,5.62,0,0,1-.48-.78C45.58,40.34,43,43.35,38.13,44.5ZM94.2,35.19c-1.71,2-3.31,3.86-4.9,5.73a2,2,0,0,0-.41.52,2.48,2.48,0,0,0-.14.93A6.83,6.83,0,0,0,94,48.59a2.14,2.14,0,0,0,1.34-.19c1.78-1,3.52-2,5.28-3l1.5-.89C97.14,43.33,94.56,40.29,94.2,35.19ZM106.77,57l-5.18.88c-1,.17-2,.32-2.93.55A1.54,1.54,0,0,0,98,59a6.81,6.81,0,0,0-.3,7.85,2,2,0,0,0,1.59,1.06c.92.08,1.83.32,2.75.47l4.8.82C103.69,65.1,103.72,61.11,106.77,57ZM82.57,97.68c-.83-2.26-1.59-4.33-2.36-6.4a5,5,0,0,0-.42-1.07,2.13,2.13,0,0,0-.79-.76,7,7,0,0,0-8.08,1.29,2.16,2.16,0,0,0-.56,1.33c-.06,1.82,0,3.65,0,5.48v2.24C74,96.07,78,95.42,82.57,97.68Zm.48-.19c2.13-4.73,5.64-6.69,10.6-6.13a.73.73,0,0,0-.11-.29c-1.62-1.91-3.23-3.82-4.87-5.72a1.53,1.53,0,0,0-.79-.47A7,7,0,0,0,80.35,89a1.38,1.38,0,0,0-.09.91C81.14,92.38,82.06,94.84,83.05,97.49Zm-12.71-71v.82c0,2.34,0,4.69,0,7a1.86,1.86,0,0,0,.52,1.07,6.92,6.92,0,0,0,8,1.46,2.38,2.38,0,0,0,1-1.13c.5-1.14.89-2.34,1.32-3.51l1.37-3.69C77.53,30.76,74.79,30.3,70.34,26.48ZM69.81,99.8c0-2.86,0-5.48,0-8.1a1.49,1.49,0,0,0-.44-.81,6.93,6.93,0,0,0-8-1.57,2.47,2.47,0,0,0-1.13,1.17c-.57,1.32-1,2.7-1.52,4.06-.36,1-.73,2-1.14,3.12C62.2,95.44,66.16,96.06,69.81,99.8ZM57.59,28.55c1,2.63,1.87,5.12,2.81,7.6a1.36,1.36,0,0,0,.62.56,7.07,7.07,0,0,0,8.26-1.25,1.68,1.68,0,0,0,.51-1c0-2.6,0-5.2,0-7.79,0,0-.09-.07-.13-.1C66.16,30.17,62.18,30.79,57.59,28.55ZM94.33,49.6c-2.5,1.42-4.81,2.72-7.1,4.07a1.05,1.05,0,0,0-.32.8,7.68,7.68,0,0,0,1.7,4.61c.15.2.47.45.66.42,2.65-.43,5.29-.9,8.12-1.4A7.76,7.76,0,0,1,94.33,49.6Zm-48.41.06c.54,3.84.11,5-3,8.37,0,0,.08.11.14.12,2.56.45,5.11.91,7.68,1.33a1,1,0,0,0,.78-.36,7.83,7.83,0,0,0,1.74-4.7,1,1,0,0,0-.37-.78C50.62,52.31,48.33,51,45.92,49.66ZM88.16,83.94A7.79,7.79,0,0,1,94.05,77L88.65,74c-2.34-1.34-2.66-1.29-4.42.78a7,7,0,0,0-.53.69c-1.26,1.8-1.26,1.8.16,3.47ZM45.83,76.61c2.47-1.4,4.77-2.69,7-4a1,1,0,0,0,.38-.85,20.6,20.6,0,0,0-1.09-3.66c-.67-1.49-.77-1.44-2.36-1.18l-1.42.23-5.61,1A7.73,7.73,0,0,1,45.83,76.61Zm.38-27.37c2.39,1.35,4.71,2.69,7.06,4a1.06,1.06,0,0,0,.85-.18,7.87,7.87,0,0,0,3.12-3.69,1.29,1.29,0,0,0-.16-1.08c-.82-1.06-1.73-2.07-2.6-3.09l-2.39-2.79C50.57,46.92,50.57,46.92,46.21,49.24ZM79.83,88.79a7,7,0,0,1,3.28-3.51A40,40,0,0,1,87.52,84c-1.6-1.87-3.29-3.88-5-5.85a1.19,1.19,0,0,0-.94-.18,8.77,8.77,0,0,0-4.09,2.24,1.11,1.11,0,0,0-.31,1.43c.4.91.71,1.86,1.06,2.79C78.74,85.82,79.25,87.23,79.83,88.79ZM94,49.19a7.77,7.77,0,0,1-5.84-7c-1.86,2.19-3.6,4.23-5.32,6.29a.89.89,0,0,0,0,.7,8.19,8.19,0,0,0,3.3,3.89,1,1,0,0,0,.85.06C89.29,51.9,91.56,50.59,94,49.19ZM52.41,84.26a7.82,7.82,0,0,1,7.83,4.42c.1-.11.18-.17.21-.26.89-2.37,1.78-4.74,2.62-7.14a1.06,1.06,0,0,0-.25-.9,8.08,8.08,0,0,0-4.28-2.44,1.13,1.13,0,0,0-.92.23C55.91,80.12,54.24,82.11,52.41,84.26ZM87.75,42a7.85,7.85,0,0,1-7.9-4.59c-1,2.64-1.91,5.13-2.79,7.63a1,1,0,0,0,.26.81,8.33,8.33,0,0,0,4.37,2.48.92.92,0,0,0,.77-.16C84.2,46.14,85.91,44.12,87.75,42Zm9.7,16.64-7,1.21a2.25,2.25,0,0,0-.84.17,1.66,1.66,0,0,0-.72.74,7.43,7.43,0,0,0,0,4.73,1.41,1.41,0,0,0,.88.79c1.15.28,2.33.44,3.5.63l4.1.69C95.57,63.28,95.58,62.52,97.45,58.61ZM46.15,77c3.41,1.12,5.36,3.3,5.79,6.74.11,0,.2,0,.23,0,1.7-2,3.4-4,5.06-6a1,1,0,0,0,0-.86,8.17,8.17,0,0,0-3.19-3.76,1,1,0,0,0-.86-.14C50.9,74.3,48.59,75.63,46.15,77Zm48.14-.43a7.72,7.72,0,0,1,3.16-8.47c-2.82-.49-5.42-1-8-1.37a1,1,0,0,0-.79.36,7.87,7.87,0,0,0-1.72,4.72.89.89,0,0,0,.32.71C89.51,73.89,91.83,75.19,94.29,76.59ZM52.37,41.91l4,4.67c1.81,2.13,2.18,2.19,4.66.71a9,9,0,0,0,1-.71c1.3-1,1.3-1,.72-2.61-.38-1-.77-2.1-1.16-3.15s-.8-2.15-1.26-3.37A7.87,7.87,0,0,1,52.37,41.91ZM42.66,58.6a7.64,7.64,0,0,1-.06,9c2.83-.49,5.47-.93,8.1-1.43.23,0,.5-.39.58-.65a7.93,7.93,0,0,0,0-4.82c-.08-.27-.33-.65-.55-.69C48.12,59.53,45.47,59.09,42.66,58.6ZM70.33,90.49a8,8,0,0,1,9-1.52c-1-2.66-1.87-5.1-2.81-7.52a1.1,1.1,0,0,0-.78-.51,7.79,7.79,0,0,0-4.85.85,1.36,1.36,0,0,0-.56.95c-.07,1,0,2,0,3Zm9-53.21a8,8,0,0,1-9-1.6c0,2.83,0,5.48,0,8.13a1,1,0,0,0,.5.61,8.56,8.56,0,0,0,5,.84.84.84,0,0,0,.62-.45C77.46,42.39,78.36,40,79.35,37.28Zm-18.52,0c.94,2.57,1.83,5,2.77,7.42a1,1,0,0,0,.76.52,20.83,20.83,0,0,0,3.79-.4c1.69-.42,1.67-.52,1.67-2.23V35.89C65.36,38.39,65.25,38.41,60.83,37.33ZM60.8,89a8,8,0,0,1,9,1.54c0-2.78,0-5.35,0-7.92a1.08,1.08,0,0,0-.51-.79,7.94,7.94,0,0,0-5-.85,1.1,1.1,0,0,0-.75.55C62.65,83.9,61.78,86.31,60.8,89ZM81.64,77.08l-5.28-6.21a1.22,1.22,0,0,0-1.81-.1c-.4.33-.91,1.06-.79,1.43.88,2.67,1.9,5.29,2.82,7.77ZM52.1,59.73c2.62.45,5.39.94,8.17,1.4.84.14,1.22-.45,1.44-1.12a1.22,1.22,0,0,0-.51-1.66C59.8,57.57,58.41,56.76,57,56l-2.93-1.65ZM63.58,80c.9-2.45,1.83-5,2.8-7.56.31-.84-.14-1.31-.74-1.66s-1.26-.56-1.83.11L61.5,73.58l-3,3.51ZM88.19,60.21c-2.69.48-5.49.95-8.29,1.47-.78.15-.9.84-.88,1.51s.22,1.26,1,1.4c1.52.25,3,.52,4.54.78l3.6.61ZM54.35,53.86l6.84,3.9a1.43,1.43,0,0,0,2.1-.35,1.41,1.41,0,0,0-.12-2.06c-.68-.68-1.26-1.45-1.89-2.19l-3.17-3.71Zm31.71,18,2-5.4c-2.66-.47-5.47-1-8.29-1.44-.75-.12-1.12.53-1.33,1.16a1.2,1.2,0,0,0,.44,1.6c1,.57,2,1.12,2.92,1.68ZM58.11,76.76c1.66-1.94,3.41-4,5.2-6.07a1.3,1.3,0,0,0-.06-1.9,1.36,1.36,0,0,0-1.93-.42c-2,1.19-4.06,2.32-6.1,3.48-.35.2-.69.41-.85.51Zm.4-27.63c1.65,1.94,3.41,4,5.13,6a1.59,1.59,0,0,0,2.67-1.61c-.89-2.24-1.68-4.51-2.52-6.77a4.83,4.83,0,0,0-.25-.53ZM85.79,72.34l-7.15-4.07c-.72-.41-1.25,0-1.69.47s-.77,1.11-.25,1.73c1.8,2.16,3.64,4.29,5.34,6.3ZM54.1,71.9c2.34-1.33,4.84-2.69,7.25-4.19a1.74,1.74,0,0,0,.28-1.59c-.18-.46-.88-1.07-1.27-1-2.82.39-5.62.93-8.27,1.4ZM82.16,49.31c-1.77,2.08-3.49,4.14-5.26,6.16a1.33,1.33,0,0,0,0,2,1.35,1.35,0,0,0,1.93.41c2-1.17,4-2.29,6-3.43l1.1-.65a25.34,25.34,0,0,1-2.1-2A27.38,27.38,0,0,1,82.16,49.31Zm-.52-.17-5.06-2.91c-.92,2.5-1.9,5.11-2.84,7.73a1.16,1.16,0,0,0,.84,1.51c.49.18,1.37.24,1.64-.06C78.13,53.34,79.92,51.16,81.64,49.14ZM52,60.21V66c2.69-.46,5.48-.92,8.25-1.44.78-.14.92-.84.9-1.51s-.16-1.23-.93-1.37Zm34.07-5.9c-2.33,1.33-4.84,2.7-7.26,4.2-.32.19-.44,1.15-.26,1.6s.89,1,1.29,1c2.81-.38,5.61-.91,8.24-1.36Zm-10,25.83c-.92-2.5-1.86-5.19-2.94-7.82-.14-.34-1.07-.58-1.58-.49s-1.16.64-1.18,1c-.1,2.82,0,5.64,0,8.3ZM70.33,45.07c0,2.58,0,5.27,0,8,0,1,.6,1.3,1.37,1.42a1.3,1.3,0,0,0,1.66-.91c.39-1.19.85-2.35,1.28-3.52.51-1.37,1-2.74,1.46-3.94Zm-6.26,1c.86,2.37,1.81,4.86,2.69,7.37a1.59,1.59,0,0,0,3.07-.53c0-2.44,0-4.88,0-7.33a4.1,4.1,0,0,0,0-.5Zm5.75,35.05c0-2.52,0-5.18,0-7.84a1.36,1.36,0,0,0-1.28-1.51,1.4,1.4,0,0,0-1.8,1c-.79,2.28-1.65,4.52-2.48,6.78a4.4,4.4,0,0,0-.17.6ZM68.59,64.46l-.11-.15-5.71,3.25,1.59,1.87Zm-3.83,5.29L66.9,71l2.26-6.15L69,64.76Zm3.68-7.87.12-.16-4.2-4.93-1.59,1.87Zm-.21,2-.07-.17-6.48,1.13.82,2.29Zm7.17,5.88-4.23-5-.16.13L73.26,71ZM61.68,61.4,68,62.49l.06-.22L62.49,59.1Zm3.08-4.93,4.25,5,.15-.09L66.9,55.23Zm7.08,7.93-.18.17,4.13,4.85,1.59-1.87Zm.3-1.39v.21l6.44,1.1V61.89Zm5.51-3.92L72,62.3l.08.2,6.38-1.11Zm-6.07,2.65.12.15,5.67-3.23L75.8,56.78Zm-10,2.59L68,63.21V63l-6.43-1.11Zm16.91.49-6.24-1.07-.07.26,5.49,3.11Zm-5.23-9.58-2.18,5.95.21.11,4.11-4.83Zm-.47,15.91c-.74-2-1.5-4-2.25-6.08l-.13,0v6.43ZM70.39,61l.16.06,2.22-6-2.38-.4Zm-3-6,2.22,6,.14-.06V54.68Zm0,16.05,2.35.43V65.21l-.16,0Z"/><path class="cls-11" d="M44.5,23.68c2.18,5.06,4.14,7.55,2.36,8s-11.46-.87-15.34-4.05c-7.5-6.13-3.29-8.49.25-10.34C37.09,14.53,41.84,17.49,44.5,23.68Z"/><path class="cls-12" d="M43.62,25c2.18,5.06,5,6.23,3.24,6.7s-11.46-.87-15.34-4.05c-7.5-6.13-2.45-7.94,1.09-9.79C37.93,15.09,41,18.81,43.62,25Z"/><path class="cls-13" d="M42.79,26C45,31.09,49,31.23,47.22,31.7S36,30.48,32.13,27.31c-7.5-6.14-3-7.38.57-9.23C38,15.3,40.13,19.84,42.79,26Z"/><path class="cls-11" d="M56.93,21.94c-2.14,5.65-5.83,8.89-7.85,8.89S42.67,27.72,39.9,23c-4.81-8.29-.63-10,7.62-11.61C60.24,8.79,60.24,13.2,56.93,21.94Z"/><path class="cls-14" d="M56,22.61c-2.31,5.59-4.92,8.22-6.94,8.22s-5.19-2.72-7.95-7.48c-4.81-8.3-1.07-9.12,7.2-10.64C59.59,10.63,59.07,15.25,56,22.61Z"/><path class="cls-13" d="M55.33,21.28c-2.26,5.62-4.23,9.55-6.25,9.55s-4-2.22-6.77-7c-4.81-8.3-3.46-8.85,4.75-10.68C57.11,10.93,58.33,13.8,55.33,21.28Z"/><path class="cls-15" d="M47.94,39.8c1.21-.93,1.78-.76,2.78-1.34A26.78,26.78,0,0,1,53.44,37a7.66,7.66,0,0,1,2.62-.85c1.38-.19,2.72-.19,3.1-.58s1.76,0,1.86-1.38.47-2.22-.86-2.42a14.28,14.28,0,0,0-5.1,1.09c-.38.23-6.68,2.33-8.11,4.1s-2.18,2.95-2.4,4.34-.08,1.81.69,1.47S47.06,40.47,47.94,39.8Z"/><path class="cls-16" d="M50.12,37.8c.63,1.08.59,1.6,1.12,1.8"/><path class="cls-16" d="M51.07,37.34c.63,1.08.6,1.6,1.12,1.8"/><path class="cls-16" d="M56.2,35.41c.64,1.07.6,1.59,1.12,1.79"/><path class="cls-16" d="M55.46,35.58c.63,1.07.6,1.6,1.12,1.79"/><path class="cls-16" d="M53.68,35.5c.63,1.08.59,1.6,1.12,1.8"/><path class="cls-17" d="M60.7,26.83c-3.57,5.87-6.94,9.15-7.9,9.44-3,.9-6.52-3-9.48-8.07-5.15-8.88-.75-11.09,8.15-12.43C64.39,13.82,65.35,19.17,60.7,26.83Z"/><path class="cls-18" d="M60.24,26.83c-3.46,5.93-6.48,9.15-7.44,9.44-3,.9-5.92-3.06-8.87-8.16-5.15-8.88-1.15-9.39,7.67-11.18C62.8,14.67,64.37,19.77,60.24,26.83Z"/><path class="cls-17" d="M48.24,29c2.1,5.51,4.9,7.65,2.21,8.29-2,.47-11.94-.64-16.1-4-8-6.56-3.51-9.06.27-11.07C40.79,18.89,45.66,22.19,48.24,29Z"/><path class="cls-19" d="M47.85,29.41c2.33,5.42,5.29,7.22,2.6,7.86-2,.47-11.38-.83-15.53-4.22-8-6.57-3.46-8.75.39-10.62C40.27,20,45,22.79,47.85,29.41Z"/><ellipse cx="60.7" cy="33.05" rx="0.76" ry="1.04"/><path class="cls-15" d="M60.21,31.94a14,14,0,0,0,2.95-2.19,11.11,11.11,0,0,0,1.19-1.38,7,7,0,0,0,.47-.78,1.53,1.53,0,0,0,.27-.85v0a.33.33,0,0,1,.28-.37.33.33,0,0,1,.36.28.32.32,0,0,1-.11.29c-.28.24-.31.57-.5.83a8.28,8.28,0,0,1-.52.79,11.1,11.1,0,0,1-1.28,1.37,18,18,0,0,1-3,2.15.05.05,0,0,1-.08,0s0-.08,0-.09Z"/><path class="cls-15" d="M59.9,32a16.55,16.55,0,0,0,2.55-2.54,14.44,14.44,0,0,0,1-1.48,7.44,7.44,0,0,0,.42-.79,1.55,1.55,0,0,0,.23-.85v0a.32.32,0,0,1,.28-.36.31.31,0,0,1,.36.27.32.32,0,0,1-.11.29c-.27.24-.3.55-.47.82a9.16,9.16,0,0,1-.46.8,14.26,14.26,0,0,1-1.11,1.45A21.51,21.51,0,0,1,60,32.05a.07.07,0,0,1-.1,0,.08.08,0,0,1,0-.09Z"/><path class="cls-17" d="M59.68,20.89c0,1.39-.55,2.87-2.37,2.52a3.08,3.08,0,0,1-2.37-2.52C54.39,19,56,18.27,57.31,18.37,59.29,18.52,59.68,19.21,59.68,20.89Z"/><path class="cls-18" d="M59.13,20.89c-.25,1-.8,2.15-1.82,1.94a2.36,2.36,0,0,1-1.83-1.94c-.31-1.22.82-1.94,1.83-1.94S59.48,19.46,59.13,20.89Z"/><path class="cls-20" d="M58.05,20.89c0,.44,0,1.17-.74.79-.37-.19-.75-.35-.75-.79s.46-1.09.75-.79S58.05,20.45,58.05,20.89Z"/><path class="cls-17" d="M42.42,24.75c0,1.19-.47,2.45-2,2.15a2.64,2.64,0,0,1-2-2.15c-.46-1.66.91-2.24,2-2.16C42.08,22.72,42.42,23.31,42.42,24.75Z"/><path class="cls-19" d="M42,24.75c-.21.89-.68,1.84-1.56,1.65a2,2,0,0,1-1.56-1.65c-.26-1.05.7-1.66,1.56-1.66S42.25,23.52,42,24.75Z"/><path class="cls-20" d="M41,24.75c0,.37,0,1-.64.67-.31-.16-.64-.3-.64-.67s.39-.94.64-.68S41,24.37,41,24.75Z"/><path class="cls-17" d="M37.35,26.79c.77.18,1.52.67,1.09,1.64a1.75,1.75,0,0,1-1.7,1c-1.15.05-1.31-.93-1.09-1.64C36,26.69,36.43,26.57,37.35,26.79Z"/><path class="cls-19" d="M37.28,27.09c.55.27,1.09.72.84,1.26a1.35,1.35,0,0,1-1.31.76A.94.94,0,0,1,36,27.85C36.1,27.29,36.54,26.71,37.28,27.09Z"/><path class="cls-20" d="M37.14,27.69c.24,0,.65.15.34.51-.15.18-.29.37-.53.31s-.55-.39-.34-.51S36.9,27.63,37.14,27.69Z"/><path class="cls-17" d="M37.58,30.67c.33.08.65.3.46.71a.74.74,0,0,1-.73.42c-.49,0-.56-.4-.47-.7C37,30.63,37.18,30.58,37.58,30.67Z"/><path class="cls-19" d="M37.54,30.8c.24.12.47.32.36.55a.56.56,0,0,1-.56.32.4.4,0,0,1-.36-.54C37,30.89,37.22,30.64,37.54,30.8Z"/><path class="cls-20" d="M37.48,31.06c.11,0,.28.07.15.22s-.13.16-.23.14-.23-.17-.15-.22S37.38,31,37.48,31.06Z"/><path class="cls-17" d="M52.88,21.2c.79.53,1.43,1.4.54,2.3a2.09,2.09,0,0,1-2.33.41c-1.31-.42-1.09-1.59-.54-2.3C51.38,20.53,51.92,20.57,52.88,21.2Z"/><path class="cls-18" d="M52.67,21.51c.5.54.93,1.27.42,1.78a1.62,1.62,0,0,1-1.79.31,1.13,1.13,0,0,1-.42-1.77C51.26,21.25,52,20.78,52.67,21.51Z"/><path class="cls-20" d="M52.27,22.13c.25.16.67.44.17.72-.25.14-.49.3-.74.13s-.45-.67-.17-.72S52,22,52.27,22.13Z"/><path class="cls-17" d="M48.71,23.91c.5.33.9.87.34,1.45a1.33,1.33,0,0,1-1.46.25c-.83-.26-.69-1-.35-1.45C47.77,23.49,48.11,23.51,48.71,23.91Z"/><path class="cls-18" d="M48.58,24.11c.31.33.58.79.26,1.11a1,1,0,0,1-1.12.19.71.71,0,0,1-.27-1.11C47.69,23.94,48.15,23.64,48.58,24.11Z"/><path class="cls-20" d="M48.32,24.49c.16.11.43.28.11.46-.15.08-.3.18-.46.08s-.28-.42-.11-.46S48.17,24.39,48.32,24.49Z"/><path class="cls-21" d="M58.05,29.7c.32-.61,1.33-2.91.74-2s-1.53,2.28-1.54.91.2-2.76-.69-.91-1.74.5-1.68,0-.47-.42-.68.84-1,.36-1.4-.28-1.18.11-1.24,1.17-.24.81-.93,0-1.61-.22-.83.71.65,2.36.83,2.58,0-.3,0-1.28.32-1.48.77-.36.92.42,1.05-.75.45-1.65,1.4-.18.65.18,1.21-.66,1.09-2.11,1.22.3.14,2.34,1,1"/><path class="cls-22" d="M47,30c-.48-.82-1-1.78-.83-.69s0,1.39-.6,1-1.16,0-.56.52,1.14,1-.81.76-3-.46-1.75.22,1.45.9,0,.94-3.86.34-1.7,1,1.81,1.18.64,1.18-1.8.35,1.06.56,3.13.05,1.75-.74-1.94-1.26-.51-1,2.14.17,1.05-.65-1.37-.79.16-.87,1.76.75,1.54-.41.22-1,.56-1,.18.34,0-.36"/><path class="cls-23" d="M90.33,81.25c.07-.17.16-.44.19-.53l1.8-5.92a2.67,2.67,0,0,0,.09-.64,45.56,45.56,0,0,0,.11-7.2,20.13,20.13,0,0,0-.69-3.42c-.3-1.17-.7-2.3-1.06-3.45a1.27,1.27,0,0,1-.08-.48c.33.84.72,1.66,1,2.51.48,1.56.94,3.12,1.31,4.7a21.2,21.2,0,0,1,.25,5.1c0,.6-.06,1.21-.08,1.81A16.4,16.4,0,0,1,92,78.56c-.34,1-.67,1.91-1,2.91.19-.17.38-.34.56-.52l3.59-3.46.33-.35a2.91,2.91,0,0,0,.76-1.5c.18-.89.42-1.76.65-2.64a13.8,13.8,0,0,0,.19-5.58c-.2-1.3-.47-2.59-.72-4,.16.42.29.74.4,1.07a15.48,15.48,0,0,1,1.08,5.85,27.89,27.89,0,0,1-.52,3.38c-.19,1-.42,2.09-.65,3.13a1.11,1.11,0,0,1-.22.45,28.85,28.85,0,0,1-3.1,3.25l-1.73,1.67-.22.24h6.83a.5.5,0,0,1,.35.13,30.1,30.1,0,0,1,3.16,4.61A6.33,6.33,0,0,1,102.3,90a15.59,15.59,0,0,1-.06,2.16c0-.31,0-.63-.1-.94-.15-1-.3-2-.46-3a1.05,1.05,0,0,0-.17-.41c-1-1.42-2-2.85-3.06-4.27a.51.51,0,0,0-.38-.21c-2.07,0-4.14.09-6.21.14l-.19,0,.84.35c1.55.62,3.11,1.24,4.66,1.88a.63.63,0,0,1,.34.36q.93,3,1.83,6.09a1.07,1.07,0,0,1,0,.43c-.32,1.58-.64,3.15-1,4.72a.16.16,0,0,1-.09.12c0-.19,0-.37,0-.55.12-1.45.25-2.9.37-4.35a1.33,1.33,0,0,0-.06-.53q-.87-2.59-1.76-5.18a.51.51,0,0,0-.26-.28c-1.48-.6-3.22-1.19-4.75-1.72Z"/><path class="cls-23" d="M88.42,85.48c-.49.62-1.2,1.44-1.64,2-.69.89-1.39,1.77-2.06,2.67a1.37,1.37,0,0,0-.24.71,10.5,10.5,0,0,0,1.46,5.78c.65,1.14,1.25,2.31,1.88,3.47a.24.24,0,0,1,0,.22c-.42-.65-.87-1.28-1.24-2q-1.12-2.05-2.19-4.16A6.62,6.62,0,0,1,84,91.33,3.46,3.46,0,0,1,84.69,89c1-1.32,1.9-2.72,2.84-4.09.07-.1.13-.2.24-.38l-2.17.88c-1.06.44-2.13.89-3.2,1.32a.49.49,0,0,0-.33.39c-.35,1.63-.74,3.26-1.07,4.9a2.83,2.83,0,0,0,.11,1.18,13.65,13.65,0,0,0,1.69,3.92.89.89,0,0,1,.14.33,2.13,2.13,0,0,1-.26-.26,9.61,9.61,0,0,1-2-3.77,4.89,4.89,0,0,1-.07-2.76c.36-1.31.61-2.65.9-4a.57.57,0,0,1,.35-.46c1.75-.82,3.48-1.67,5.23-2.51l.31-.18L87,83.39,81,81.64a1,1,0,0,1-.48-.3c-1.4-1.6-2.79-3.22-4.17-4.83a1,1,0,0,1-.23-.38q-.84-3.1-1.66-6.21a.43.43,0,0,1,0-.25l.63,1.77c.52,1.51,1,3,1.58,4.51a1.28,1.28,0,0,0,.25.4q2.06,2.27,4.12,4.52a.56.56,0,0,0,.31.19c1.94.47,3.9.93,5.85,1.38l.19,0c-.1-.12-.17-.21-.24-.28C86,81,84.88,79.72,83.68,78.55A7.15,7.15,0,0,1,82.2,76.3c-.84-1.83-1.72-3.64-2.54-5.48a7.55,7.55,0,0,1-.43-1.65q-.49-2.6-.89-5.22c0,.14.07.27.1.4.5,1.87,1,3.76,1.52,5.61a14.26,14.26,0,0,0,1,2.17c.82,1.63,1.65,3.27,2.49,4.89a2.62,2.62,0,0,0,.46.63l3.6,3.59.51.48Z"/><path class="cls-24" d="M87.94,81.45c-.08-.79-.17-1.31-.26-2.08a1.26,1.26,0,0,1,.22-.65c.11.42.41,1.5.54,2,.13.18.45.49.79.4s.53-.68.43-1.12-.31-1.12-.46-1.63a1.12,1.12,0,0,1,.67.79c.17.6.33,1.21.51,1.91a6.43,6.43,0,0,1,1.76,3.86l.3.2a5.87,5.87,0,0,1,2,1.93,3.55,3.55,0,0,1-2,5.22A3.46,3.46,0,0,1,87.76,90a3.72,3.72,0,0,1-.06-2.14c.16-.71.51-1.72.58-2.2C87.47,84.13,87.94,81.45,87.94,81.45Z"/><path class="cls-25" d="M121.92,54.31a14.06,14.06,0,0,1-5.43-17.16s-13,.22-13.74-12.39c0,0-11.3-1-15.23-9,0,0-14,1.8-17.43-3.6a19.55,19.55,0,0,1-9,4.1,7.75,7.75,0,0,0-2.32-.71c.46-4.31-2.15-6-11.22-4.21-5.5,1.09-9.18,2.21-9.61,5.27a7.76,7.76,0,0,0-6.14.7c-3.26,1.71-7.1,3.84-1.8,9-.36,1.49.4,3.41,3.3,6-1.83,2.71-4.47,5.11-8.19,5.43,0,0,1.93,10.9-7.45,16.84,0,0,5.65,13.22-.52,17.87,0,0,10.68,5.52,7.33,16.35,0,0,11.77,3.87,11.67,13.52,0,0,11.65.87,15.87,8.86,0,0,11.62-3.46,18.34,4,0,0,6.1-7,17.6-4,0,0,5.45-9.38,15.74-8.86,0,0,.38-11.69,11.44-13.63,0,0-3.21-12.2,6.82-16.78C121.92,71.9,115.49,60.85,121.92,54.31Z"/></g></g></svg>