<svg xmlns="http://www.w3.org/2000/svg" viewBox="0 0 150 150"><defs><style>.cls-1{isolation:isolate;}.cls-2{fill:#002451;opacity:0.27;}.cls-3{fill:#fff2cc;}.cls-4{fill:#29abe2;}.cls-5,.cls-7{opacity:0.2;}.cls-5{mix-blend-mode:multiply;}.cls-6{fill:#fff;}.cls-8{fill:#000f56;}.cls-9{fill:#93888c;}.cls-10{fill:#cfb4af;}.cls-11{fill:#b0a8ab;}.cls-12{fill:#3b343b;}.cls-13{fill:none;stroke:#1e134d;stroke-linecap:round;stroke-linejoin:round;}</style></defs><title>lab02-</title><g class="cls-1"><g id="Layer_1" data-name="Layer 1"><rect class="cls-2" x="18.06" y="13.19" width="120.09" height="120.09" rx="36.12" ry="36.12"/><rect class="cls-3" x="14.96" y="10.09" width="120.09" height="120.09" rx="36.12" ry="36.12"/><path class="cls-4" d="M134.57,99.89H121.63A17.11,17.11,0,0,0,104.51,117v12.74A36.14,36.14,0,0,0,134.57,99.89Z"/><g class="cls-5"><rect x="116.92" y="108.39" width="1.38" height="10.82"/><polygon points="117.58 104.28 114.79 109.11 120.36 109.11 117.58 104.28"/><polygon points="117.61 123.23 120.4 118.4 114.83 118.4 117.61 123.23"/><rect x="112.2" y="113.11" width="10.82" height="1.38"/><polygon points="108.12 113.77 112.95 116.56 112.95 110.99 108.12 113.77"/><polygon points="127.07 113.74 122.24 110.95 122.24 116.53 127.07 113.74"/></g><rect class="cls-6" x="115.92" y="107.39" width="1.38" height="10.82"/><polygon class="cls-6" points="116.58 103.28 113.79 108.11 119.36 108.11 116.58 103.28"/><polygon class="cls-6" points="116.61 122.23 119.4 117.4 113.83 117.4 116.61 122.23"/><rect class="cls-6" x="111.2" y="112.11" width="10.82" height="1.38"/><polygon class="cls-6" points="107.12 112.77 111.95 115.56 111.95 109.99 107.12 112.77"/><polygon class="cls-6" points="126.07 112.74 121.24 109.95 121.24 115.53 126.07 112.74"/><g class="cls-7"><path class="cls-8" d="M97.21,91c-7.1,0-21.63-.61-24.69-1-1.15-.14-4.88-.84-4.67-4.21.11-1.83,1.66-3.66,4.87-3.66h.21l2.21,0c3,0,8-.1,13.18,0A3.33,3.33,0,0,1,86.51,81a3.31,3.31,0,0,1-2.71-.84,5.45,5.45,0,0,1-.53-.55,4.76,4.76,0,0,1-.77-1.23,67.69,67.69,0,0,1-11.56-.31A13.9,13.9,0,0,0,69,79.2C65.71,81.55,56.76,81,56.67,81a16.14,16.14,0,0,0-5.42.26,11.22,11.22,0,0,1-1.25.21c-.21,0-.43,0-.64,0h-.17a4.16,4.16,0,0,1-2.9-1.52,4.16,4.16,0,0,1-1.58-.53,4.6,4.6,0,0,1-1.19-1,18.57,18.57,0,0,1-3.82-.2c-2.65-.5-7.41-3.53-8.25-6.33s.71-6.21,3.61-7.94a19.14,19.14,0,0,0,4.6-5.16c.48-.87,4.93-8.46,13-8.46a23.1,23.1,0,0,1,9.69,2.25c.28.12.61.27.77.32.47.11.88.23,1.2.34a3.31,3.31,0,0,0,1.71.19c.76-.08,2.71-.43,4.77-.8C74,52,78.09,51.31,81.12,51c6.23-.74,15,1.11,20.55,6.92a66.14,66.14,0,0,1,4.57,5.4c1.72,2.23,2.55,3.24,4.06,4h0c6.19,3,9.67,6.54,10.35,10.57A8.64,8.64,0,0,1,118,85.47C114.21,89.28,104.56,91,97.21,91ZM72.6,88.82Zm17.23-6.64h.28c7.33,0,16.44-1.36,19.26-2.84-1.37-1.71-4.68-2-4.9-2a6,6,0,0,1-.57,1.2,5.21,5.21,0,0,1-.82,1,5.41,5.41,0,0,1-1.17.91,6.48,6.48,0,0,1-2.91.82l-1.59,0h-.16a34.77,34.77,0,0,0-6.73.63l-.41.12Zm1.83-3h0ZM52,77.38ZM89.56,73.3A3.33,3.33,0,0,1,92.44,75c1.66-.16,3.3-.21,4.64-.24h.15l1.07,0c0-.09,0-.19,0-.27a4,4,0,0,1,.9-2.21,5.24,5.24,0,0,1,4.48-1.65A35.18,35.18,0,0,1,101,67.34a56.09,56.09,0,0,0-4.13-4.88c-3.94-4.14-10.52-5.44-15-4.92-2.83.34-6.79,1.05-10,1.62-2.36.42-4.23.76-5.22.87a9.91,9.91,0,0,1-4.47-.47,4.65,4.65,0,0,0-.57-.17,9.67,9.67,0,0,1-2-.73,16.71,16.71,0,0,0-7-1.69c-3.57,0-6.38,3.64-7.15,5a24.89,24.89,0,0,1-7,7.63,1.26,1.26,0,0,0-.4.34,9.73,9.73,0,0,0,2.86,1.72,21.4,21.4,0,0,0,4.37,0,3.35,3.35,0,0,1,2.7,1l.16.18a3.31,3.31,0,0,1,3.15.8,3.85,3.85,0,0,1,.59.77,25.79,25.79,0,0,1,5.36,0c2.22.19,6.82-.1,8-.61a21.91,21.91,0,0,1,4-2.22,3.33,3.33,0,0,1,1.9-.17c3.38.7,9.32.45,11.86.34l1.44,0c.9,0,3,0,4.16,1.78l.28-.06A3.57,3.57,0,0,1,89.56,73.3Zm-24.41.49h0ZM63,52.88h0Z"/></g><path class="cls-6" d="M97.21,89.69c-7.1,0-21.63-.61-24.69-1-1.15-.14-4.88-.84-4.67-4.2.11-1.83,1.66-3.67,4.87-3.67h.21l2.21,0c3,0,8-.1,13.18,0a3.33,3.33,0,0,1-1.81-1.18,3.31,3.31,0,0,1-2.71-.84,5.45,5.45,0,0,1-.53-.55A4.76,4.76,0,0,1,82.5,77a67.69,67.69,0,0,1-11.56-.31A15,15,0,0,0,69,77.87c-3.29,2.35-12.24,1.77-12.33,1.76a16.14,16.14,0,0,0-5.42.26A9.3,9.3,0,0,1,50,80.1a4.56,4.56,0,0,1-.64,0h-.17a4.16,4.16,0,0,1-2.9-1.52,4.16,4.16,0,0,1-1.58-.53,4.57,4.57,0,0,1-1.19-1,19.29,19.29,0,0,1-3.82-.21c-2.65-.49-7.41-3.53-8.25-6.33s.71-6.21,3.61-7.94a19,19,0,0,0,4.6-5.16c.48-.86,4.93-8.45,13-8.45a23.29,23.29,0,0,1,9.69,2.24l.77.33c.47.1.88.23,1.2.33A3.11,3.11,0,0,0,66,52.1c.76-.08,2.71-.43,4.77-.8C74,50.71,78.09,50,81.12,49.62c6.23-.74,15,1.11,20.55,6.92a67.88,67.88,0,0,1,4.57,5.4c1.72,2.23,2.55,3.24,4.06,4h0c6.19,3,9.67,6.55,10.35,10.57A8.64,8.64,0,0,1,118,84.14C114.21,88,104.56,89.69,97.21,89.69ZM72.6,87.5Zm17.23-6.65h.28c7.33,0,16.44-1.36,19.26-2.84-1.37-1.7-4.68-2-4.9-2a6.38,6.38,0,0,1-.57,1.21,5.51,5.51,0,0,1-.82,1.05,5.7,5.7,0,0,1-1.17.9A6.48,6.48,0,0,1,99,80l-1.59,0h-.16a34,34,0,0,0-6.73.62l-.41.12Zm1.83-3,0,0ZM52,76.05ZM89.56,72a3.33,3.33,0,0,1,2.88,1.67c1.66-.16,3.3-.2,4.64-.24h.15l1.07,0c0-.09,0-.19,0-.26a4.05,4.05,0,0,1,.9-2.22,5.24,5.24,0,0,1,4.48-1.65A35.18,35.18,0,0,1,101,66a56.09,56.09,0,0,0-4.13-4.88c-3.94-4.13-10.52-5.44-15-4.92-2.83.34-6.79,1-10,1.62-2.36.43-4.23.76-5.22.87a9.63,9.63,0,0,1-4.47-.47c-.23-.07-.42-.13-.57-.16a10.35,10.35,0,0,1-2-.74,16.71,16.71,0,0,0-7-1.69c-3.57,0-6.38,3.64-7.15,5a24.78,24.78,0,0,1-7,7.63,1.57,1.57,0,0,0-.4.34,9.51,9.51,0,0,0,2.86,1.72,20.71,20.71,0,0,0,4.37,0,3.33,3.33,0,0,1,2.7,1,1.45,1.45,0,0,1,.16.18,3.29,3.29,0,0,1,3.15.8,3.36,3.36,0,0,1,.59.77,25.65,25.65,0,0,1,5.36,0c2.22.2,6.82-.1,8-.61a20.93,20.93,0,0,1,4-2.21,3.25,3.25,0,0,1,1.9-.17c3.38.69,9.32.44,11.86.33l1.44,0c.9,0,3,0,4.16,1.78l.28-.06A3.57,3.57,0,0,1,89.56,72Zm-24.41.49h0ZM63,51.56h0Z"/><path class="cls-9" d="M108.85,69c-3.71-1.79-4.61-4.85-9.59-10.06S86.48,52.41,81.51,53s-13,2.25-15.15,2.49-2.84-.36-4-.59-4.5-2.49-9.7-2.49S43.75,57,42.56,59.16a21.65,21.65,0,0,1-5.8,6.39,4,4,0,0,0-2.13,4.14c.36,1.19,3.79,3.67,5.68,4a25.2,25.2,0,0,0,5.33,0,1.66,1.66,0,0,0,.71,1.54c.83.47,2.61-.48,2.61-.48s-.71,1.59.19,2,2.21-.87,7.82-.38c2.24.2,8.44,0,10.1-1.15a18.12,18.12,0,0,1,3.43-1.9c4.62,1,12.67.36,14,.36s1.65.16,1.3.87-.49,1.15.28,1.86a20.2,20.2,0,0,1,3.51-1.08,1.92,1.92,0,0,0-.44,2.32c3-.93,7.34-.82,9.71-.94s2.68-2,2.8-3.27,3-.71,3-.71,6.83.27,8.41,5.16S96.11,84.4,88.85,84.24s-14.37,0-16.1,0-2.53.94.16,1.26,17,.94,24.3.94,15.72-1.83,18.47-4.57C118.68,78.88,118.76,73.76,108.85,69Z"/><path class="cls-10" d="M53.26,62c-1.52.91,2.05,1.5,4.42.56s5.28-4.9,4-6.63-5-1.66-6.71,0-2.68,1.7-1.73,2.9S54.05,61.56,53.26,62Z"/><path class="cls-10" d="M46.35,75.26c.83.47,2.61-.48,2.61-.48s-.71,1.59.19,2,2.21-.87,7.82-.38c2.24.2,8.44,0,10.1-1.15a18.12,18.12,0,0,1,3.43-1.9c4.62,1,12.67.36,14,.36s1.65.16,1.3.87-.49,1.15.28,1.86a20.2,20.2,0,0,1,3.51-1.08,1.92,1.92,0,0,0-.44,2.32c3-.93,7.34-.82,9.71-.94s2.68-2,2.8-3.27,3-.71,3-.71,6.83.27,8.41,5.16a2,2,0,0,1,.07.86c.83-.91,1.2-2.24-.63-4-3.67-3.51-8.52-5.25-10.3-4.32s-1.06,2.54-1.42,3.69-3.55,1.74-5.32,1.74-1-2.77.47-3.4,4.74-.5,3.32-2.28-3-2.32-7.23-.81-12.61,1.21-16,.85c-4.62-.49-6.41-3.59-10.55-3.48s-5.45,1-5.09,2.65,1,2-1.78,1.9-10.14-.78-12.94,2.37A1.66,1.66,0,0,0,46.35,75.26Z"/><ellipse class="cls-11" cx="47.18" cy="62.47" rx="2.1" ry="1.55" transform="translate(-23.23 28.26) rotate(-27.02)"/><circle class="cls-12" cx="47.18" cy="62.47" r="0.83"/><path class="cls-13" d="M108.85,68.9c-3.71-1.79-4.61-4.86-9.59-10.06s-12.78-6.51-17.75-5.92-13,2.25-15.15,2.48-2.84-.35-4-.59-4.5-2.48-9.7-2.48-8.88,4.61-10.07,6.74a21.53,21.53,0,0,1-5.8,6.39,4,4,0,0,0-2.13,4.15c.36,1.18,3.79,3.67,5.68,4a24.5,24.5,0,0,0,5.33,0,1.65,1.65,0,0,0,.71,1.54c.83.47,2.61-.47,2.61-.47a3.49,3.49,0,0,0-.21.64v.07a2.42,2.42,0,0,0-.05.47h0a.85.85,0,0,0,.46.82,1,1,0,0,0,.34.08h.24a7.42,7.42,0,0,0,.82-.14A19.11,19.11,0,0,1,57,76.33c2.24.2,8.44,0,10.1-1.16a18.41,18.41,0,0,1,3.43-1.89c4.62.94,12.67.35,14,.35s1.65.17,1.3.88a1.82,1.82,0,0,0-.28.93.52.52,0,0,0,0,.21,1.18,1.18,0,0,0,.27.46,2.94,2.94,0,0,0,.25.26c.41-.18.84-.34,1.24-.47l.6-.19.53-.15c.67-.18,1.14-.27,1.14-.27l0,0a2.09,2.09,0,0,0-.26.25,1.36,1.36,0,0,0-.21.34,1.54,1.54,0,0,0-.15.49,1.62,1.62,0,0,0,0,.22,1.35,1.35,0,0,0,0,.35,2.57,2.57,0,0,0,.19.65l.59-.16a36.65,36.65,0,0,1,7.61-.74l1.51,0a3.11,3.11,0,0,0,1.42-.37,2.55,2.55,0,0,0,.48-.37,2.42,2.42,0,0,0,.34-.45,3.39,3.39,0,0,0,.31-.67.75.75,0,0,1,.05-.16,7.41,7.41,0,0,0,.2-1.24.76.76,0,0,1,.16-.41c.63-.76,2.8-.3,2.8-.3s6.83.26,8.41,5.16a1.74,1.74,0,0,1,0,.22,1.13,1.13,0,0,1,0,.18v0a1.4,1.4,0,0,1,0,.41c-.7,4.22-17.4,5.61-24.22,5.46-7.26-.16-14.37,0-16.1,0s-2.53.94.16,1.25,17,1,24.3,1,15.72-1.83,18.47-4.58C118.68,78.79,118.76,73.68,108.85,68.9Z"/></g></g></svg>