<svg xmlns="http://www.w3.org/2000/svg" viewBox="0 0 150 150"><defs><style>.cls-1{isolation:isolate;}.cls-2{fill:#002451;}.cls-15,.cls-2{opacity:0.27;}.cls-3{fill:#fff2cc;}.cls-4{fill:#29abe2;}.cls-5,.cls-7{opacity:0.2;}.cls-5{mix-blend-mode:multiply;}.cls-6{fill:#fff;}.cls-8{fill:#000f56;}.cls-9{fill:#a56438;}.cls-10{fill:#506b3e;}.cls-11{fill:#ec7024;}.cls-12{fill:#f6863e;}.cls-13{fill:#559e46;}.cls-14{fill:#aeb434;}.cls-16{fill:none;stroke:#1e134d;stroke-linecap:round;stroke-linejoin:round;stroke-width:0.83px;}</style></defs><title>lab02-</title><g class="cls-1"><g id="Layer_1" data-name="Layer 1"><rect class="cls-2" x="18.06" y="13.19" width="120.09" height="120.09" rx="36.12" ry="36.12"/><rect class="cls-3" x="14.96" y="10.09" width="120.09" height="120.09" rx="36.12" ry="36.12"/><path class="cls-4" d="M134.57,99.89H121.63A17.11,17.11,0,0,0,104.51,117v12.74A36.14,36.14,0,0,0,134.57,99.89Z"/><g class="cls-5"><rect x="116.92" y="108.39" width="1.38" height="10.82"/><polygon points="117.58 104.28 114.79 109.11 120.36 109.11 117.58 104.28"/><polygon points="117.61 123.23 120.4 118.4 114.83 118.4 117.61 123.23"/><rect x="112.2" y="113.11" width="10.82" height="1.38"/><polygon points="108.12 113.77 112.95 116.56 112.95 110.99 108.12 113.77"/><polygon points="127.07 113.74 122.24 110.95 122.24 116.53 127.07 113.74"/></g><rect class="cls-6" x="115.92" y="107.39" width="1.38" height="10.82"/><polygon class="cls-6" points="116.58 103.28 113.79 108.11 119.36 108.11 116.58 103.28"/><polygon class="cls-6" points="116.61 122.23 119.4 117.4 113.83 117.4 116.61 122.23"/><rect class="cls-6" x="111.2" y="112.11" width="10.82" height="1.38"/><polygon class="cls-6" points="107.12 112.77 111.95 115.56 111.95 109.99 107.12 112.77"/><polygon class="cls-6" points="126.07 112.74 121.24 109.95 121.24 115.53 126.07 112.74"/><g class="cls-7"><path class="cls-8" d="M76.89,140.33a6.42,6.42,0,0,1-2.59-.56,7.63,7.63,0,0,1-3-2.41h-.2c-3.21.19-7.21.42-9.36-2.51a5.53,5.53,0,0,1-.63-5.34,19.19,19.19,0,0,1,3.95-5.6c.92-1,2.64-3,2.82-3.73a31.08,31.08,0,0,0-.05-7.64l-.08-1c-.8-8.66-1.73-15.74-5.8-21-2-2.62-4.82-4.74-7.8-7-1.36-1-2.77-2.09-4.13-3.23-.33-.28-.66-.55-1-.83l-.37.22a5.43,5.43,0,0,1-.73.34l-.18.07a4.29,4.29,0,0,1-.7.2l-.09,0H46.9q-.33.06-.66.09h-.06c-.23,0-.46,0-.69,0h-.26a4.91,4.91,0,0,1-.56-.06l-.11,0a5.43,5.43,0,0,1-.58-.13l-.09,0c-.18,0-.37-.11-.55-.18L43.23,80,43,79.87l-.18,0a5.65,5.65,0,0,1-1,0,5.5,5.5,0,0,1-1.48-.27,2.53,2.53,0,0,1-.36.12,6.36,6.36,0,0,1-1.53.27,6.09,6.09,0,0,1-2.58-.41,5.61,5.61,0,0,1-1-.52,6,6,0,0,1-2-2.2,8.82,8.82,0,0,1-1.27-.36,8.1,8.1,0,0,1-5.61-8,6.88,6.88,0,0,1,.13-.91c0-.08.05-.2.08-.3l.06-.19a15,15,0,0,1-4.8-2A7,7,0,0,1,19,62.69a6.09,6.09,0,0,1-.3-.63.42.42,0,0,1,0-.1,6,6,0,0,1-.41-2,6.75,6.75,0,0,1,.58-2.88,7.16,7.16,0,0,1,.43-.88c.17-.31.34-.59.52-.87A14.51,14.51,0,0,1,22,52.59v-.3a6.91,6.91,0,0,1,.12-.92l0-.15a7.8,7.8,0,0,1,.26-.86l.12-.29c.08-.17.18-.38.29-.58l0-.05a1.09,1.09,0,0,1,.08-.15,6,6,0,0,1,.46-.66c0-.06.13-.16.18-.22l.3-.32L23.78,48a3.65,3.65,0,0,1-.24-.31,3.4,3.4,0,0,1-.21-.28L23.07,47,23,46.85a6.48,6.48,0,0,1-.38-.72l-.08-.2c-.08-.19-.15-.37-.22-.56a1.87,1.87,0,0,0-.07-.22c-.07-.24-.14-.51-.19-.78a9.23,9.23,0,0,1,4.69-9.52l.35-.19a9.54,9.54,0,0,1-2.16-2,8.25,8.25,0,0,1-1.68-6.22,7.37,7.37,0,0,1,.67-2.15,3.59,3.59,0,0,1,.12-.47,11.47,11.47,0,0,1,15.33-7.34,5.72,5.72,0,0,1,.79-.53A7,7,0,0,1,44.45,15,8.29,8.29,0,0,1,47,14c.35-.06.69-.1,1-.13a8.83,8.83,0,0,1,14.08-.47h0a10.59,10.59,0,0,1,1-.46,4.45,4.45,0,0,1,2.35-.32A7.21,7.21,0,0,1,70,12a6.66,6.66,0,0,1,1.93.65,10.21,10.21,0,0,1,7.77-.93,8.39,8.39,0,0,1,2.18,1,6.57,6.57,0,0,1,3.52-1.14h.08a5.68,5.68,0,0,1,3.27,1,4.51,4.51,0,0,1,2.78,1.69,6.07,6.07,0,0,1,1.1,2.36A12.35,12.35,0,0,1,94,14.22c1.81-2.62,4.64-3.65,7.2-2.6a5.71,5.71,0,0,1,2.64,2.22,5.7,5.7,0,0,1,1.29.27A9.9,9.9,0,0,1,110,12.79a8.18,8.18,0,0,1,6.64,3.6,7.15,7.15,0,0,1,.5.84,7.82,7.82,0,0,1,2,1.31,7.4,7.4,0,0,1,2.13,8,6.92,6.92,0,0,1-1.2,2.1,8.41,8.41,0,0,1,.23,5.44l.25.26-.55.57-.11.23.74-.72.48.51a11.38,11.38,0,0,1,2.42,4.8,10,10,0,0,1,.23,1.4c0,.25,0,.48,0,.71s0,.55,0,.82a7.44,7.44,0,0,1,.81,0c.21,0,.44,0,.68,0a6.45,6.45,0,0,1,2,.59,7.22,7.22,0,0,1,.92.55l.09.06.21.17c.15.13.31.27.47.43l.2.22.09,0,.27.1a6.26,6.26,0,0,1,.86.46,5.88,5.88,0,0,1,1.78,1.8,5.71,5.71,0,0,1,.35.64,6.48,6.48,0,0,1,.51,1.66,5.94,5.94,0,0,1,.72,1.12,6.18,6.18,0,0,1,.41,1.14,5.3,5.3,0,0,1,.1.55,4.38,4.38,0,0,1,.54,1.52,8.69,8.69,0,0,1-3.64,8.77c-.21.13-.41.24-.6.34a9.63,9.63,0,0,1-.25,1.94,8.29,8.29,0,0,1-1.57,3.21,7.74,7.74,0,0,1-.55.63l-.27.28c-.23.21-.44.39-.66.56a8,8,0,0,1-.7.49l-.37.23c-.25.13-.52.27-.8.39a7.63,7.63,0,0,1-2.73.61,7.08,7.08,0,0,1-2.7-.47c-.12.09-.25.19-.39.28a5.22,5.22,0,0,1-1.27.64,5.51,5.51,0,0,1-4.05-.13,6,6,0,0,1-1.9-1.32,4.47,4.47,0,0,1-5-1.63,10.17,10.17,0,0,1-.86-1.37c-.09-.18-.19-.37-.28-.57l-.17,0a174.27,174.27,0,0,1-13.14,28l-.56,1c-4.11,7-8.36,14.29-6.59,20.85,1.06,3.93,6,7,9.26,9a22.82,22.82,0,0,1,3.63,2.53,5.41,5.41,0,0,1,.93,7.2c-2.41,3.41-8.27,3.3-11.41,1.72a10.33,10.33,0,0,0-3.63-1.37,14.12,14.12,0,0,0-1.09,1.15C82.31,137.78,80.06,140.33,76.89,140.33Zm-9-59.42ZM40.56,69a4.2,4.2,0,0,1,1.1.14,4.15,4.15,0,0,1,.68.22l.22-.06a4.47,4.47,0,0,1,2.63-3.2,3.93,3.93,0,0,1,.8-.26,4.42,4.42,0,0,1,1.27-1.53,4.18,4.18,0,0,1,1.22-.67l-.41-3.49a4.5,4.5,0,0,1,6.29-4.64,4.73,4.73,0,0,1,1.63.08,4.54,4.54,0,0,1,1.46-.12,4.59,4.59,0,0,1,1.39-.22,4.5,4.5,0,0,1,2.67.88,8.61,8.61,0,0,1,1.41,0,6.25,6.25,0,0,1,1,.19,6.33,6.33,0,0,1,1.19.45,4.57,4.57,0,0,1,.82.52,4.55,4.55,0,0,1,2,.22,4.49,4.49,0,0,1,2.88,3.05l.12,0,.25,0,.37,0a4.5,4.5,0,0,1,3.61-6,4.5,4.5,0,0,1,8.56-1.15,4.5,4.5,0,0,1,6.63,5.63A4.53,4.53,0,0,1,93,63.67a4.23,4.23,0,0,1,.88.62,4.68,4.68,0,0,1,1.59-.43,4.49,4.49,0,0,1,1.8.22q1-2.59,1.83-5.22a4.47,4.47,0,0,1,3.2-3c.26-.15.45-.29.64-.42a4.49,4.49,0,0,1,5.23.1,4.6,4.6,0,0,1,1,1,4.56,4.56,0,0,1,3.44,1,4.44,4.44,0,0,1,1.2-.39,4.5,4.5,0,0,1,3.27.68,4.47,4.47,0,0,1,3-.92,4.52,4.52,0,0,1,.28-1.08,4.28,4.28,0,0,1-1.62-.2A4.48,4.48,0,0,1,115.66,51l0-.07a7.68,7.68,0,0,1-4-.76,4.5,4.5,0,0,1,.53-8.3,8.9,8.9,0,0,1,2.5-.46,2.8,2.8,0,0,0-.43-.72l-.18-.18a7.1,7.1,0,0,0-2.44-1.5,6.46,6.46,0,0,1-1.74-.72,4.5,4.5,0,0,1-1.77-5.75,4.45,4.45,0,0,1,1.87-2,7.44,7.44,0,0,1-1.57-1.11,4.51,4.51,0,0,1-.78-5.69,4.37,4.37,0,0,1-3,1,4.47,4.47,0,0,1-4.06,1.49,4.43,4.43,0,0,1-1.44.37h-.1a4.5,4.5,0,0,1-2.59,3.27,2.85,2.85,0,0,0-1.08.87,4.51,4.51,0,0,1-7.69-.78,4.52,4.52,0,0,1-2-5.55,4.4,4.4,0,0,1-.75-1,4.5,4.5,0,0,1-8.14-2.64c0-.1,0-.21,0-.32a2.39,2.39,0,0,0-.84.43,4.5,4.5,0,0,1-7.77,1.74,4.79,4.79,0,0,1-1.39.49,4.56,4.56,0,0,1-2.38-.23,4.47,4.47,0,0,1-1.56.23,4.53,4.53,0,0,1-1.32-.24,4.51,4.51,0,0,1-6.06-3.12,4.5,4.5,0,0,1-6.54,3.73,4.49,4.49,0,0,1-4.57,1.34,4.51,4.51,0,0,1-6.9,1,4.2,4.2,0,0,1-.17.7l-.11.29a4.1,4.1,0,0,1,1,.57,4.53,4.53,0,0,1,1.75,3.2,7.74,7.74,0,0,1,2,2.46,4.5,4.5,0,0,1-1,5.37,4.56,4.56,0,0,1-1.93,1,4.79,4.79,0,0,1-.67,1.36,4.53,4.53,0,0,1-4.57,1.77l-.15,0a4.49,4.49,0,0,1,1.8,3.87,4.42,4.42,0,0,1-.57,1.93,4.25,4.25,0,0,1,0,.8,4.55,4.55,0,0,1,.3,2.78,4.63,4.63,0,0,1-.93,1.93,5.43,5.43,0,0,1,.08,1.76,4.51,4.51,0,0,1-1.55,2.91,4.42,4.42,0,0,1,2.51,1.93,4.15,4.15,0,0,1,.41.85,4.48,4.48,0,0,1,2.07,2.35,4.35,4.35,0,0,1,.3,1.66,4.5,4.5,0,0,1,.25,2.79,4.5,4.5,0,0,1,2.28.91ZM35,65.49Zm-5.63-7.2,0,0Zm33.46-.72v0ZM35.36,38.87h0ZM45,23.49Zm-3.64-1.26h0Zm18-.87h0Zm17.43-1.57h0Zm-6.52-.18h0Z"/></g><path class="cls-6" d="M76.89,138.33a6.42,6.42,0,0,1-2.59-.56,7.63,7.63,0,0,1-3-2.41h-.2c-3.21.19-7.21.42-9.36-2.51a5.53,5.53,0,0,1-.63-5.34,19.19,19.19,0,0,1,3.95-5.6c.92-1,2.64-3,2.82-3.73a31.08,31.08,0,0,0-.05-7.64l-.08-1c-.8-8.66-1.73-15.74-5.8-21-2-2.62-4.82-4.74-7.8-7-1.36-1-2.77-2.09-4.13-3.23-.33-.28-.66-.55-1-.83l-.37.22a5.43,5.43,0,0,1-.73.34l-.18.07a4.29,4.29,0,0,1-.7.2l-.09,0H46.9q-.33.06-.66.09h-.06c-.23,0-.46,0-.69,0h-.26a4.91,4.91,0,0,1-.56-.06l-.11,0a5.43,5.43,0,0,1-.58-.13l-.09,0c-.18,0-.37-.11-.55-.18L43.23,78,43,77.87l-.18,0a5.65,5.65,0,0,1-1,0,5.5,5.5,0,0,1-1.48-.27,2.53,2.53,0,0,1-.36.12,6.36,6.36,0,0,1-1.53.27,6.09,6.09,0,0,1-2.58-.41,5.61,5.61,0,0,1-1-.52,6,6,0,0,1-2-2.2,8.82,8.82,0,0,1-1.27-.36,8.1,8.1,0,0,1-5.61-8,6.88,6.88,0,0,1,.13-.91c0-.08.05-.2.08-.3l.06-.19a15,15,0,0,1-4.8-2A7,7,0,0,1,19,60.69a6.09,6.09,0,0,1-.3-.63.42.42,0,0,1,0-.1,6,6,0,0,1-.41-2,6.75,6.75,0,0,1,.58-2.88,7.16,7.16,0,0,1,.43-.88c.17-.31.34-.59.52-.87A14.51,14.51,0,0,1,22,50.59v-.3a6.91,6.91,0,0,1,.12-.92l0-.15a7.8,7.8,0,0,1,.26-.86l.12-.29c.08-.17.18-.38.29-.58l0-.05a1.09,1.09,0,0,1,.08-.15,6,6,0,0,1,.46-.66c0-.06.13-.16.18-.22l.3-.32L23.78,46a3.65,3.65,0,0,1-.24-.31,3.4,3.4,0,0,1-.21-.28L23.07,45,23,44.85a6.48,6.48,0,0,1-.38-.72l-.08-.2c-.08-.19-.15-.37-.22-.56a1.87,1.87,0,0,0-.07-.22c-.07-.24-.14-.51-.19-.78a9.23,9.23,0,0,1,4.69-9.52l.35-.19a9.54,9.54,0,0,1-2.16-2,8.25,8.25,0,0,1-1.68-6.22,7.37,7.37,0,0,1,.67-2.15,3.59,3.59,0,0,1,.12-.47,11.47,11.47,0,0,1,15.33-7.34,5.72,5.72,0,0,1,.79-.53A7,7,0,0,1,44.45,13,8.29,8.29,0,0,1,47,12c.35-.06.69-.1,1-.13a8.83,8.83,0,0,1,14.08-.47h0a10.59,10.59,0,0,1,1-.46,4.45,4.45,0,0,1,2.35-.32A7.21,7.21,0,0,1,70,10a6.66,6.66,0,0,1,1.93.65,10.21,10.21,0,0,1,7.77-.93,8.39,8.39,0,0,1,2.18,1,6.57,6.57,0,0,1,3.52-1.14h.08a5.68,5.68,0,0,1,3.27,1,4.51,4.51,0,0,1,2.78,1.69,6.07,6.07,0,0,1,1.1,2.36A12.35,12.35,0,0,1,94,12.22c1.81-2.62,4.64-3.65,7.2-2.6a5.71,5.71,0,0,1,2.64,2.22,5.7,5.7,0,0,1,1.29.27A9.9,9.9,0,0,1,110,10.79a8.18,8.18,0,0,1,6.64,3.6,7.15,7.15,0,0,1,.5.84,7.82,7.82,0,0,1,2,1.31,7.4,7.4,0,0,1,2.13,8,6.92,6.92,0,0,1-1.2,2.1,8.41,8.41,0,0,1,.23,5.44l.25.26-.55.57-.11.23.74-.72.48.51a11.38,11.38,0,0,1,2.42,4.8,10,10,0,0,1,.23,1.4c0,.25,0,.48,0,.71s0,.55,0,.82a7.44,7.44,0,0,1,.81,0c.21,0,.44,0,.68,0a6.45,6.45,0,0,1,2,.59,7.22,7.22,0,0,1,.92.55l.09.06.21.17c.15.13.31.27.47.43l.2.22.09,0,.27.1a6.26,6.26,0,0,1,.86.46,5.88,5.88,0,0,1,1.78,1.8,5.71,5.71,0,0,1,.35.64,6.48,6.48,0,0,1,.51,1.66,5.94,5.94,0,0,1,.72,1.12,6.18,6.18,0,0,1,.41,1.14,5.3,5.3,0,0,1,.1.55,4.38,4.38,0,0,1,.54,1.52,8.69,8.69,0,0,1-3.64,8.77c-.21.13-.41.24-.6.34a9.63,9.63,0,0,1-.25,1.94,8.29,8.29,0,0,1-1.57,3.21,7.74,7.74,0,0,1-.55.63l-.27.28c-.23.21-.44.39-.66.56a8,8,0,0,1-.7.49l-.37.23c-.25.13-.52.27-.8.39a7.63,7.63,0,0,1-2.73.61,7.08,7.08,0,0,1-2.7-.47c-.12.09-.25.19-.39.28a5.22,5.22,0,0,1-1.27.64,5.51,5.51,0,0,1-4.05-.13,6,6,0,0,1-1.9-1.32,4.47,4.47,0,0,1-5-1.63,10.17,10.17,0,0,1-.86-1.37c-.09-.18-.19-.37-.28-.57l-.17,0a174.27,174.27,0,0,1-13.14,28l-.56,1c-4.11,7-8.36,14.29-6.59,20.85,1.06,3.93,6,7,9.26,9a22.82,22.82,0,0,1,3.63,2.53,5.41,5.41,0,0,1,.93,7.2c-2.41,3.41-8.27,3.3-11.41,1.72a10.33,10.33,0,0,0-3.63-1.37,14.12,14.12,0,0,0-1.09,1.15C82.31,135.78,80.06,138.33,76.89,138.33Zm-9-59.42ZM40.56,67a4.2,4.2,0,0,1,1.1.14,4.15,4.15,0,0,1,.68.22l.22-.06a4.47,4.47,0,0,1,2.63-3.2,3.93,3.93,0,0,1,.8-.26,4.42,4.42,0,0,1,1.27-1.53,4.18,4.18,0,0,1,1.22-.67l-.41-3.49a4.5,4.5,0,0,1,6.29-4.64,4.73,4.73,0,0,1,1.63.08,4.54,4.54,0,0,1,1.46-.12,4.59,4.59,0,0,1,1.39-.22,4.5,4.5,0,0,1,2.67.88,8.61,8.61,0,0,1,1.41,0,6.25,6.25,0,0,1,1,.19,6.33,6.33,0,0,1,1.19.45,4.57,4.57,0,0,1,.82.52,4.55,4.55,0,0,1,2,.22,4.49,4.49,0,0,1,2.88,3.05l.12,0,.25,0,.37,0a4.5,4.5,0,0,1,3.61-6,4.5,4.5,0,0,1,8.56-1.15,4.5,4.5,0,0,1,6.63,5.63A4.53,4.53,0,0,1,93,61.67a4.23,4.23,0,0,1,.88.62,4.68,4.68,0,0,1,1.59-.43,4.49,4.49,0,0,1,1.8.22q1-2.59,1.83-5.22a4.47,4.47,0,0,1,3.2-3c.26-.15.45-.29.64-.42a4.49,4.49,0,0,1,5.23.1,4.6,4.6,0,0,1,1,1,4.56,4.56,0,0,1,3.44,1,4.44,4.44,0,0,1,1.2-.39,4.5,4.5,0,0,1,3.27.68,4.47,4.47,0,0,1,3-.92,4.52,4.52,0,0,1,.28-1.08,4.28,4.28,0,0,1-1.62-.2A4.48,4.48,0,0,1,115.66,49l0-.07a7.68,7.68,0,0,1-4-.76,4.5,4.5,0,0,1,.53-8.3,8.9,8.9,0,0,1,2.5-.46,2.8,2.8,0,0,0-.43-.72l-.18-.18a7.1,7.1,0,0,0-2.44-1.5,6.46,6.46,0,0,1-1.74-.72,4.5,4.5,0,0,1-1.77-5.75,4.45,4.45,0,0,1,1.87-2,7.44,7.44,0,0,1-1.57-1.11,4.51,4.51,0,0,1-.78-5.69,4.37,4.37,0,0,1-3,1,4.47,4.47,0,0,1-4.06,1.49,4.43,4.43,0,0,1-1.44.37h-.1a4.5,4.5,0,0,1-2.59,3.27,2.85,2.85,0,0,0-1.08.87,4.51,4.51,0,0,1-7.69-.78,4.52,4.52,0,0,1-2-5.55,4.4,4.4,0,0,1-.75-1,4.5,4.5,0,0,1-8.14-2.64c0-.1,0-.21,0-.32a2.39,2.39,0,0,0-.84.43,4.5,4.5,0,0,1-7.77,1.74,4.79,4.79,0,0,1-1.39.49,4.56,4.56,0,0,1-2.38-.23,4.47,4.47,0,0,1-1.56.23,4.53,4.53,0,0,1-1.32-.24,4.51,4.51,0,0,1-6.06-3.12,4.5,4.5,0,0,1-6.54,3.73,4.49,4.49,0,0,1-4.57,1.34,4.51,4.51,0,0,1-6.9,1,4.2,4.2,0,0,1-.17.7l-.11.29a4.1,4.1,0,0,1,1,.57,4.53,4.53,0,0,1,1.75,3.2,7.74,7.74,0,0,1,2,2.46,4.5,4.5,0,0,1-1,5.37,4.56,4.56,0,0,1-1.93,1,4.79,4.79,0,0,1-.67,1.36,4.53,4.53,0,0,1-4.57,1.77l-.15,0a4.49,4.49,0,0,1,1.8,3.87,4.42,4.42,0,0,1-.57,1.93,4.25,4.25,0,0,1,0,.8,4.55,4.55,0,0,1,.3,2.78,4.63,4.63,0,0,1-.93,1.93,5.43,5.43,0,0,1,.08,1.76,4.51,4.51,0,0,1-1.55,2.91,4.42,4.42,0,0,1,2.51,1.93,4.15,4.15,0,0,1,.41.85,4.48,4.48,0,0,1,2.07,2.35,4.35,4.35,0,0,1,.3,1.66,4.5,4.5,0,0,1,.25,2.79,4.5,4.5,0,0,1,2.28.91ZM35,63.49Zm-5.63-7.2,0,0Zm33.46-.72v0ZM35.36,36.87h0ZM45,21.49Zm-3.64-1.26h0Zm18-.87h0Zm17.43-1.57h0Zm-6.52-.18h0Z"/><path class="cls-9" d="M72.22,109.14c-.75-8.2-1.69-16.88-6.71-23.4-3.41-4.42-8.34-7.35-12.62-10.92s-8.2-8.38-8.21-14l7.39,9.27a2.31,2.31,0,0,0,1.82.91c1.31,0,1.71-1.15,2-2.15a39.67,39.67,0,0,0,.94-14.07A5.38,5.38,0,0,1,57,51.89a1.72,1.72,0,0,1,2.44-.83c-.48,5.81-1.63,15.23-.24,20.88.45,1.8,7.71,8.4,9.11,9.59s3.58-.15,3.94-1.28a33,33,0,0,0-2-25.21,3.15,3.15,0,0,0,2.14-2.23l4.8,9.83,5.59-8a5.35,5.35,0,0,1,2.38-2.24c1.05-.37,2.49.22,2.53,1.33a31.57,31.57,0,0,0-7.8,16.07A1.64,1.64,0,0,0,82,71.57l5-1.81c.12,2.53-2.79,3.89-4.75,5.49-4.62,3.77-4.54,10.51-3.53,16.6a1.9,1.9,0,0,0,3.26,1c.21-.23.41-.47.6-.71a42.6,42.6,0,0,0,8.69-29.55c-.18-2.08.49-5.16,2.53-4.69q.38,6.35.15,12.7a.64.64,0,0,0,1.24.24l5.54-15.39c.74-2.07,2.71-4.61,4.56-3.41A169.58,169.58,0,0,1,89,90.28c-4.56,7.82-10,16.52-7.6,25.26,2,7.56,12,11.54,14.11,13.56s-2.8,2.92-5.34,1.65-5.62-2.72-8-1.19c-2.19,1.4-3.68,5.09-6.07,4.07-1.27-.54-1.66-2.17-2.92-2.73-1-.46-9,1.23-7.84-1.78s6.38-6.65,7-10.14C72.87,115.73,72.48,112.39,72.22,109.14Z"/><path class="cls-10" d="M130.32,52.38l-1.24-.13a1.35,1.35,0,0,0,.63-.81,1.44,1.44,0,0,0,0-.77,1.84,1.84,0,0,0-.09-.25,1.41,1.41,0,0,0-.77-.67,1.29,1.29,0,0,0-.51-.1,1.25,1.25,0,0,0-.51.1,1.49,1.49,0,0,0,.42-.41,1.66,1.66,0,0,0,.27-.74,1.88,1.88,0,0,0,0-.41,1.85,1.85,0,0,0-.15-.57,1.62,1.62,0,0,0-.1-.18,1.37,1.37,0,0,0-.41-.42l-.19-.1-.06,0-.14,0-.08,0-.13,0h-.5l-.14,0h-.06l-.16.06,0,0-.2.1h0a1.21,1.21,0,0,1-.78,1.11,1.55,1.55,0,0,1,.78-1.11h0a1.88,1.88,0,0,0-.08-.78v0a1.89,1.89,0,0,0-.09-.21.14.14,0,0,0,0-.06.86.86,0,0,0-.1-.16.43.43,0,0,1,0-.07l-.1-.13-.06-.06-.13-.12-.06-.05-.21-.13a1.92,1.92,0,0,0-.65-.18l-.22,0a3.17,3.17,0,0,0-1.92.7,3.65,3.65,0,0,0-.36.31l-.16.17a6.28,6.28,0,0,0-.79,1.12l-.44.82c-.2.42-.41.84-.63,1.24,0-.13,0-.26,0-.39v-.11c0-.1,0-.2,0-.3a.28.28,0,0,1,0-.09,2.38,2.38,0,0,0-.06-.37s0-.05,0-.08,0-.2-.08-.3l0-.1a3.92,3.92,0,0,0-.29-.71.3.3,0,0,0,0-.08c0-.1-.11-.2-.17-.3l0,0a4,4,0,0,0-.23-.34l0,0a3.36,3.36,0,0,0-.24-.29l0,0a5.48,5.48,0,0,0-.59-.59l0,0a5.72,5.72,0,0,0-1.86-1h0a3.5,3.5,0,0,1-2.87,0,4.48,4.48,0,0,1,2.87,0h0l.39-.18h0l.36-.21,0,0,.33-.22,0,0,.28-.24.06,0,.23-.25.06-.07.2-.25.07-.09.16-.26.06-.1.18-.38h0c.05-.13.09-.26.13-.38a5.49,5.49,0,0,0,.18-.78,7.14,7.14,0,0,0,0-.8c0-.14,0-.27,0-.4a7,7,0,0,0-.13-.8,6.85,6.85,0,0,0-1.47-2.89c-.11-.13-.23-.25-.36-.38A5.64,5.64,0,0,1,113,33.73l-3.27,2.49a2.7,2.7,0,0,1-.84,5.26,3.5,3.5,0,0,1-.4,3.37,3.73,3.73,0,0,1,4.5,2.73,2.26,2.26,0,0,1,1.15,3.08,4.28,4.28,0,0,1-.78.92c-1,.93-2.14,1.86-3.48,1.77s-2.45-1.87-1.51-2.82a2.67,2.67,0,0,1-4.15-.62,2.26,2.26,0,1,1-2.7-3.28,4.73,4.73,0,0,1-5.83-2.85,3.66,3.66,0,0,1-6.82,2.52L86,49.87a3.68,3.68,0,0,1-3.8-3.11,2.62,2.62,0,0,1-2.93,1.58,1.93,1.93,0,0,1-.42,2.51c-1,.73-2.45.52-3.7.28a2.07,2.07,0,1,1-3.74,1.64,2.07,2.07,0,0,1-4.12-.44c-.11,1-1.74.92-2.14,0a2.56,2.56,0,0,1,.78-2.62,6.42,6.42,0,0,1,5.82-1.85,1.93,1.93,0,0,1-1-2.42,5.59,5.59,0,0,1,1.76-2.29,5.47,5.47,0,0,0-3.93-1.65c.84,1.23-1.2,3-2.31,2A5.1,5.1,0,0,1,61.18,47,4.84,4.84,0,0,1,62,44.27a2.9,2.9,0,0,1-4.88-1.69,7,7,0,0,1-.67,3.92c-.79,1.34-2.8,2.06-3.94,1a4.44,4.44,0,0,1,.76,3.66,2,2,0,0,1-2.75,1.15,1.66,1.66,0,0,1-1.91,2.63,3.68,3.68,0,0,1-3,5,4.38,4.38,0,0,1-3.67,3.44c-2.08.26-4.35-1.61-3.95-3.66-1.43.7-3.66.41-4-1.16s1.75-2.61,3.31-2.32a12.72,12.72,0,0,1,2.87,1.11,1.39,1.39,0,0,1-.19-.91,4.1,4.1,0,0,1,1.78-2.24,3.27,3.27,0,0,0,1.56-2.37,1.37,1.37,0,0,1-2.34.43,1.77,1.77,0,0,1,.79-2.52,1.55,1.55,0,0,1-1-1.58,2.15,2.15,0,0,0-2.24,1.68,2.21,2.21,0,0,1-1.14-3.3c-.61,1-2.4.18-2.51-1s.77-2.22,1.58-3.09l1.94-2.08c-.8,0-1.26-1.05-1-1.8A3.34,3.34,0,0,1,39,37.09a1.9,1.9,0,0,1-2.52-1,4.34,4.34,0,0,1-3.92-.14h0c-.31,0-.62,0-.93,0h0l-.41.06H31.1l-.4.07h0l-.43.11,0,0-.34.11-.12,0-.28.12-.11,0-.38.19a4.74,4.74,0,0,0-2.48,4.78c0,.1.05.21.08.31l0,.09.09.22,0,.08a2.49,2.49,0,0,0,.15.28.43.43,0,0,0,0,.07l.13.2.07.1.12.15.09.1.19.2.14.12.09.07.15.13.06,0a2.91,2.91,0,0,0,.62.35h0a3.07,3.07,0,0,0,.71.22,1.4,1.4,0,0,1,1.49-.15,2.63,2.63,0,0,1-1.49.15l-.12.09h0l-.12.11h0a2.5,2.5,0,0,0-.22.24h0l-.09.12v0l-.07.12v0a1.48,1.48,0,0,0-.12.29h0l0,.13v0s0,.08,0,.11v0s0,.08,0,.11v0a.66.66,0,0,0,0,.14v0s0,.08,0,.12l0,0a.16.16,0,0,0,0,.09v0l.05.09a.05.05,0,0,0,0,0,.57.57,0,0,0,.08.13l1.56.39a1.09,1.09,0,0,0-.78.42,1.05,1.05,0,0,0-.23.85,1.21,1.21,0,0,0,.05.18l0,.07a2.1,2.1,0,0,1,1.32.56,1.14,1.14,0,0,1-1.32-.56H29.1a2.73,2.73,0,0,0-.64.07l-.05,0a2.47,2.47,0,0,0-.54.19l-.11.05-.12.08-.14.08-.1.08-.18.15-.07.07-.14.14L27,49.4l-.15.23,0,0a1.24,1.24,0,0,0-.1.2l0,.07a2.76,2.76,0,0,0-.08.27h0a1.54,1.54,0,0,0,0,.3.4.4,0,0,0,0,.11,1.08,1.08,0,0,0,0,.18.68.68,0,0,0,0,.14s0,.1,0,.15,0,.11,0,.16a.56.56,0,0,1,0,.12s.05.11.07.17l0,.09.1.18,0,.06a1.27,1.27,0,0,0,.13.19l0,0,.16.2h0c1.05-.47,2.64-.32,2.51.76a2.46,2.46,0,0,1-2.51-.76h0l-.24.12-.58.37a11.31,11.31,0,0,0-1.08.86,10.88,10.88,0,0,0-1.79,2.1c-.12.2-.24.39-.35.6a4.93,4.93,0,0,0-.23.46,2.41,2.41,0,0,0-.22,1,1.23,1.23,0,0,0,.1.49,1.11,1.11,0,0,0,.07.16,2.75,2.75,0,0,0,.93.86,10.71,10.71,0,0,0,3.62,1.43c.32.06.64.11,1,.14l.49,0,.49,0a11.66,11.66,0,0,0,1.95-.16h0a2.39,2.39,0,0,0-.13.21h0a1.42,1.42,0,0,0-.07.22v0l0,.21v0a1.48,1.48,0,0,0,0,.21v0a1.6,1.6,0,0,0,0,.21v0a1.72,1.72,0,0,0,.07.21v0a2.12,2.12,0,0,0,.11.21v0a2.43,2.43,0,0,0,.14.2h0a1.64,1.64,0,0,0,1.75.67h0l.19-.08a.64.64,0,0,1-.19.08h0a.81.81,0,0,0-.14.12h0a.71.71,0,0,0-.1.14h0a1,1,0,0,0-.09.56v0l0,.15v0l.06.14s0,0,0,0l.09.16h0a1.59,1.59,0,0,1,.7.32.69.69,0,0,1-.7-.32h0l-.19,0h-.28l-.2,0h0a2.32,2.32,0,0,0-.61.21l-.06,0-.14.09-.09.05-.12.09-.1.07-.11.09-.11.12-.07.07c-.06.07-.12.13-.17.2a.35.35,0,0,1-.05.08l-.09.15-.05.09a.77.77,0,0,0-.07.16.36.36,0,0,0,0,.09,1.54,1.54,0,0,0-.05.17l0,.09c0,.08,0,.17,0,.26a3.7,3.7,0,0,0,2.64,3.47,6.43,6.43,0,0,0,1.13.28l.58.07a8.55,8.55,0,0,0,.88,0,20.34,20.34,0,0,0,2.06-.13h0a1.11,1.11,0,0,0-.46.1,1.6,1.6,0,0,0-.56,1.89,1.44,1.44,0,0,0,.56.78l.22.11a1.87,1.87,0,0,0,.73.12,2.39,2.39,0,0,0,.94-.28,3,3,0,0,0,1-.85,2.6,2.6,0,0,0,.28-.45,2.78,2.78,0,0,0,.18-.48h0a2,2,0,0,0,0,.34,1.86,1.86,0,0,0,0,.34,2,2,0,0,0,.21.47,1.39,1.39,0,0,0,.21.27,1.69,1.69,0,0,0,.56.4,1.41,1.41,0,0,0,.5.12h.28l.2,0h0a1,1,0,0,0,.21-.09l0,0a1.18,1.18,0,0,0,.19-.11h0a1.25,1.25,0,0,0,.19-.15h0a1.85,1.85,0,0,0,.42-.61h0a1.21,1.21,0,0,1,.1-.72,1.49,1.49,0,0,1-.1.72h0a1.72,1.72,0,0,0,.68,1.07h0l.19.13h0l.19.11h0l.2.09h0a1.52,1.52,0,0,0,.2.06h0l.19,0h0l.21,0h.25a.69.69,0,0,0,.2,0h0l.2-.06h0l.19-.09a2.42,2.42,0,0,0,1-1,2.57,2.57,0,0,0,.21-.52,3.5,3.5,0,0,0,.13-.56,3.69,3.69,0,0,0,0-.58,5.67,5.67,0,0,0-.05-.58,3.39,3.39,0,0,0-.13-.57l-.09-.27-.21-.49-.21-.48a2.87,2.87,0,0,1-.24-1,1.28,1.28,0,0,1,1-1.31.65.65,0,0,1,.24,0,.85.85,0,0,0-.31.43,1.06,1.06,0,0,0,0,.53,1.34,1.34,0,0,0,.14.36,1.4,1.4,0,0,0,.1.16,1.34,1.34,0,0,0,.58.48,1,1,0,0,0,.56.05,1.32,1.32,0,0,0,.77-.51,1.84,1.84,0,0,0,.3-.72,2.32,2.32,0,0,0,0-.59,1.75,1.75,0,0,0-.28-.74h0l1.25,1.48a1.69,1.69,0,0,0,.31-.13l.1,0,.19-.11L52,67l.15-.1.13-.1.13-.11.12-.12a1.14,1.14,0,0,0,.11-.11.86.86,0,0,0,.13-.14l.09-.11L53,66l.07-.1a1.22,1.22,0,0,0,.12-.19l.06-.09.12-.21a.3.3,0,0,1,0-.08l.11-.23,0-.07c0-.08.07-.17.1-.26l0,0,.09-.28v0c0-.09.05-.19.08-.29v0l.06-.31h0c0-.11,0-.22,0-.33h0c0-.11,0-.22,0-.33h0a.84.84,0,0,1-.82-.71l-.57-4.79a13.6,13.6,0,0,1,1.4,5.29,1.48,1.48,0,0,1,0,.21h.18l.17,0h0l.15,0h0l.14,0,0,0,.12-.06a.05.05,0,0,1,0,0l.1-.08,0,0,.08-.09,0,0a.41.41,0,0,0,.07-.11h0a.39.39,0,0,1,.07-.34.74.74,0,0,1-.07.34h0a.57.57,0,0,0,.16.28h0a1,1,0,0,0,.29.2h0l.16,0h0l.15,0h0l.15,0h0l.15-.07a1.09,1.09,0,0,0,.4-.54,1.71,1.71,0,0,0,.1-.46,2.09,2.09,0,0,0,0-.25,2.52,2.52,0,0,0-.05-.48,5.75,5.75,0,0,0-.23-.93,3,3,0,0,0-.18-.45,4.61,4.61,0,0,0-.45-.85,3.51,3.51,0,0,0-.27-.4A8.67,8.67,0,0,0,55,58h0l.26.07.09,0,.18,0,.11,0h.83l.17,0,.1,0L57,58l.12,0,.14,0,.13-.05.12,0,.14-.06.1,0,.14-.07.1-.06.13-.09.09-.05.13-.1.06-.05a2.35,2.35,0,0,0,.33-.3h0a.67.67,0,0,1,.38-.47,2.89,2.89,0,0,1-.38.47h0s0,.07,0,.11v.16a1.13,1.13,0,0,0,.09.35s0,0,0,0l.05.09,0,.06.06.09L59,58s0,0,0,0l.07.09.06,0,.09.08.05,0,.14.11h0l.14.07.05,0,.12,0h0l.18,0,.19,0c.73.06,1.48-.12,2.19,0a1.61,1.61,0,0,1,.37.07,1.91,1.91,0,0,1,.36.13l-.41.19A4.89,4.89,0,0,0,61,60.48a5.28,5.28,0,0,0-.48.78,5.14,5.14,0,0,0-.35.84A5.34,5.34,0,0,0,60,63a4.52,4.52,0,0,0,0,.9,4.45,4.45,0,0,0,.14.9,1,1,0,0,0-.38-.13,1.11,1.11,0,0,0-.74.22,1.61,1.61,0,0,0-.6,1.9,2.25,2.25,0,0,0,.24.36l.14.15a2.7,2.7,0,0,0,.34.25l.19.1a3,3,0,0,0,.62.21,3.12,3.12,0,0,0,.44,0,2.49,2.49,0,0,0,.67,0,3.12,3.12,0,0,0,.44-.09h0a1.76,1.76,0,0,0,0,.4,1.94,1.94,0,0,0,1.67,1.71h.2l.2,0a1.9,1.9,0,0,0,.56-.21,1.39,1.39,0,0,0,.31-.23l.15-.14a1.72,1.72,0,0,0,.23-.32,1.62,1.62,0,0,0,.1-.18,1.86,1.86,0,0,0,.16-.57,1.48,1.48,0,0,0,0-.59,1.24,1.24,0,0,0,.28.28,1.39,1.39,0,0,0,.35.16,1.6,1.6,0,0,0,.39,0h.2l.2,0a2,2,0,0,0,.39-.14,1.78,1.78,0,0,0,.89-.84,2.11,2.11,0,0,0,.18-.59c0-.13,0-.26,0-.4a3.15,3.15,0,0,0-.06-.61,4.24,4.24,0,0,0-.17-.61,4.29,4.29,0,0,0-.26-.58c-.06-.13-.13-.25-.2-.37-.22-.35-.47-.69-.71-1-.09-.11-.17-.23-.25-.34a8.5,8.5,0,0,1-.89-1.4l1.12-1.37h0a2.64,2.64,0,0,0,.59,1.57,3.72,3.72,0,0,0,.76.72,5.44,5.44,0,0,0,.62.39c.22.11.45.21.68.3a6.59,6.59,0,0,0,.72.22l.71.15a6.16,6.16,0,0,0,5.11-1.24,2.5,2.5,0,0,0,.23-.23L76,61.6l.13-.17a.41.41,0,0,0,.07-.11.86.86,0,0,0,.1-.16.75.75,0,0,0,.07-.12.89.89,0,0,0,.08-.17l.06-.13c0-.05,0-.11.07-.17l0-.13a1.21,1.21,0,0,0,0-.18.65.65,0,0,0,0-.13c0-.1,0-.2,0-.3a1.1,1.1,0,0,0,0-.18s0-.09,0-.13v-.31c0-.06,0-.13,0-.19a.41.41,0,0,1,0-.11l0-.2a.29.29,0,0,1,0-.09l-.06-.2a.14.14,0,0,0,0-.07,2.3,2.3,0,0,0-.35-.7h0a1.34,1.34,0,0,1-.49-.51,2.15,2.15,0,0,1,.49.51h0a1.56,1.56,0,0,0,.47.17h0l.15,0h.22l.31,0h0l.12,0,.09,0,.11,0,.11,0,.09,0,.15-.07.06,0,.17-.09.06-.05a.47.47,0,0,0,.12-.09l.06,0,.11-.11a.12.12,0,0,0,0-.05A1.07,1.07,0,0,0,79,57c.09-.13.17-.26.25-.4l.09-.2a2.32,2.32,0,0,0,.16-.44l.06-.22c0-.15.06-.31.08-.46s.05-.48.06-.72,0-.48,0-.72,0-.32,0-.47h0a3.34,3.34,0,0,0,.23,1.12,4,4,0,0,0,1.17,1.62,3.08,3.08,0,0,0,.48.32l.25.13a2.79,2.79,0,0,0,.55.2,3.47,3.47,0,0,0,.56.11h.58a4.09,4.09,0,0,0,.85-.15,4.63,4.63,0,0,0,.79-.35,4,4,0,0,0,.48-.32,3.29,3.29,0,0,0,.76-.86h0l-.14.25c-.1.16-.19.33-.29.5s-.17.35-.26.52l-.11.26a6.56,6.56,0,0,0-.29.81,4.86,4.86,0,0,0-.16.83,3.37,3.37,0,0,0,0,.55,3.43,3.43,0,0,0,.07.56,2.45,2.45,0,0,0,.18.54l.14.25a3.27,3.27,0,0,0,.56.67,2.49,2.49,0,0,0,1.5.64,1.64,1.64,0,0,0,1-.29h0q-.28.21-.57.45l-.37.32c-.12.11-.23.23-.34.34l-.16.18-.28.38c-.08.13-.15.27-.22.4a3.66,3.66,0,0,0-.15.43,2.32,2.32,0,0,0-.06.46,1.5,1.5,0,0,0,.42,1.06,1.74,1.74,0,0,0,.36.31,2.32,2.32,0,0,0,.41.22,1.65,1.65,0,0,0,.43.09h.2a.89.89,0,0,0,.67-.44h0a.72.72,0,0,0,0,.36.9.9,0,0,0,.21.27,1.18,1.18,0,0,0,.68.26.61.61,0,0,0,.19,0l.19,0,.18,0a.92.92,0,0,0,.41-.31.65.65,0,0,0,.1-.35,2.64,2.64,0,0,0,2.11,3,2.3,2.3,0,0,0,1-.09,2.76,2.76,0,0,0,.47-.2,2.44,2.44,0,0,0,.43-.28,2.53,2.53,0,0,0,.37-.36,2.57,2.57,0,0,0,.5-.88,2.88,2.88,0,0,0,.1-.51h0a1.51,1.51,0,0,0,.28.6,2,2,0,0,0,1.42.66h.34a2.82,2.82,0,0,0,1.33-.42,2.54,2.54,0,0,0,.54-.44,2.83,2.83,0,0,0,.2-.28,3,3,0,0,0,.16-.31c0-.11.07-.21.1-.32a.36.36,0,0,1,0-.1c0-.07,0-.14,0-.22s0-.08,0-.12,0-.13,0-.2v-.13c0-.06,0-.13,0-.19s0-.09,0-.13l0-.2s0-.08,0-.12,0-.14,0-.21l0-.1a2.83,2.83,0,0,0-.11-.31.14.14,0,0,0,0-.06,2.56,2.56,0,0,0-.11-.24l-.06-.12a1.62,1.62,0,0,0-.1-.18s-.05-.08-.07-.13-.07-.1-.1-.16l-.09-.12a1,1,0,0,0-.11-.15,1.47,1.47,0,0,0-.1-.13l-.12-.14-.1-.12L99,62.11a.94.94,0,0,0-.1-.1l-.24-.22h0a1.33,1.33,0,0,1-.59-.44,6,6,0,0,1,.59.44h0l.19.06h.09l.13,0h.46l.09,0,.21-.05.08,0,.14-.06.09,0,.14-.07.08,0,.14-.09.06,0,.2-.14,0,0,.14-.14.06-.06.1-.12,0-.07.1-.14,0-.06a1.47,1.47,0,0,0,.1-.22h0a2.49,2.49,0,0,0,.11-.29.29.29,0,0,1,0-.09,1.89,1.89,0,0,0,0-.23l0-.08a2.91,2.91,0,0,0,0-.31v0a2.26,2.26,0,0,0,0-.26v-.09a2.17,2.17,0,0,0,0-.26v-.06c0-.11,0-.21,0-.32a.2.2,0,0,0,0-.07c0-.08,0-.17,0-.26l0-.08-.06-.31h0a1.31,1.31,0,0,1-.36-1.28c.13.42.26.85.36,1.28h0a2,2,0,0,0,.45.36h0l.17.09h0l.16.07h0l.15,0h0a.8.8,0,0,0,.15,0h.24a1.53,1.53,0,0,0,.37,0,3,3,0,0,0,.71-.18,6,6,0,0,0,.68-.32c.33-.19.65-.41,1-.62a2.25,2.25,0,0,0,0,1.45,2.3,2.3,0,0,0,.17.39,2.43,2.43,0,0,0,.87.9l.19.1a2.2,2.2,0,0,0,.61.16l.21,0a3,3,0,0,0,.42,0,2.13,2.13,0,0,0,.61-.17,2.69,2.69,0,0,0,.38-.19,2.18,2.18,0,0,0,.73-.75h0a6.44,6.44,0,0,0,.07,2.19c0,.2.09.41.15.61a5.89,5.89,0,0,0,.21.59c.08.19.16.38.26.57a6,6,0,0,0,.5.8c.22-.09.44-.19.65-.3a7,7,0,0,0,.9-.6,6.56,6.56,0,0,0,1-1,6.74,6.74,0,0,0,.59-.91,5.73,5.73,0,0,0,.52-1.34h0a2.23,2.23,0,0,1,.37,1.2c0,.07,0,.14,0,.21s0,.44,0,.67a1.64,1.64,0,0,1,0,.22c0,.3-.07.6-.09.9,0,.07,0,.14,0,.22A2.5,2.5,0,0,0,115,64a2.67,2.67,0,0,0,.4.81,1.68,1.68,0,0,0,.62.52,1.09,1.09,0,0,0,.77,0,1,1,0,0,0,.25-.13l.12-.08a3,3,0,0,0,.31-.31l.18-.23a10.27,10.27,0,0,0,.77-1.17,12.27,12.27,0,0,0,1.32-3.23q.09-.34.15-.69h0c0,.21,0,.43,0,.65s0,.44,0,.66a5.3,5.3,0,0,0,.49,2.48,2.82,2.82,0,0,0,.8.92,2.4,2.4,0,0,0,1.42.42,3,3,0,0,0,1.11-.26l.35-.17.17-.1.33-.24a3.88,3.88,0,0,0,.31-.26l.14-.14a2.61,2.61,0,0,0,.27-.31,3.67,3.67,0,0,0,.71-1.44,6.67,6.67,0,0,0-.24-3.51,7.75,7.75,0,0,0-.26-.77c-.23-.63-.51-1.26-.78-1.87a2.16,2.16,0,0,0,.69.94,3.12,3.12,0,0,0,.49.31l.28.11a3,3,0,0,0,1.19.18l.3,0,.3-.05a3,3,0,0,0,.57-.21l.26-.14A4.29,4.29,0,0,0,130.32,52.38Z"/><path class="cls-11" d="M58.27,49.75c0,1.91-2.07,3.47-4,3.47s-3.95-1.56-3.95-3.47,1.17-3.63,3.95-3.44C57.24,46.06,58.27,47.85,58.27,49.75Z"/><path class="cls-12" d="M57.45,48.76c.18,1.11-1.05,2.3-3,2.3s-3.42-.76-3.42-1.93c0-1.91,1.55-2.73,3.22-2.82A2.88,2.88,0,0,1,57.45,48.76Z"/><path class="cls-11" d="M45.47,66.34c0,1.91-2.07,3.47-4,3.47s-4-1.56-4-3.47,1.16-3.63,4-3.44C44.45,62.66,45.47,64.44,45.47,66.34Z"/><path class="cls-12" d="M45,65.27a3,3,0,0,1-2.07,3.48c-1.78.67-.56-1.7-.56-2.87,0-1.9-2.52-2.89-.85-3A3.23,3.23,0,0,1,45,65.27Z"/><path class="cls-11" d="M92.29,48.69c0,1.9-2.08,3.46-4,3.46s-4-1.56-4-3.46,1.16-3.64,4-3.44C91.26,45,92.29,46.78,92.29,48.69Z"/><path class="cls-12" d="M91.47,47.7c.18,1.11-1.06,2.3-3,2.3s-3.42-.77-3.42-1.94c0-1.9,1.55-2.72,3.22-2.81A2.88,2.88,0,0,1,91.47,47.7Z"/><path class="cls-11" d="M116.78,52.2a2.85,2.85,0,0,1-5.64,0A2.35,2.35,0,0,1,114,49.75C116.05,49.58,116.78,50.84,116.78,52.2Z"/><path class="cls-12" d="M116.2,51.49c.13.79-.75,1.64-2.1,1.64s-2.44-.54-2.44-1.38c0-1.35,1.11-1.93,2.29-2A2,2,0,0,1,116.2,51.49Z"/><path class="cls-11" d="M102.71,53.83c0,1.9-2.07,3.45-4,3.45s-3.93-1.55-3.93-3.45,1.16-3.61,3.93-3.42C101.68,50.16,102.71,51.94,102.71,53.83Z"/><path class="cls-12" d="M101.89,52.85c.18,1.1-1,2.29-3,2.29s-3.4-.76-3.4-1.93c0-1.9,1.54-2.71,3.2-2.8A2.87,2.87,0,0,1,101.89,52.85Z"/><path class="cls-11" d="M39.12,40.68a2.84,2.84,0,0,1-4.48-3.42A2.35,2.35,0,0,1,38.36,37C40.13,38.15,39.94,39.6,39.12,40.68Z"/><path class="cls-12" d="M39.09,39.76c-.38.71-1.59.85-2.67,0s-1.6-1.91-1.1-2.57c.82-1.08,2-.87,3-.2A2,2,0,0,1,39.09,39.76Z"/><path class="cls-11" d="M71.22,55.49c.22,1.58-1.31,3.11-2.89,3.34s-3.45-.83-3.67-2.41.54-3.14,2.87-3.31C69.94,52.56,71,53.92,71.22,55.49Z"/><path class="cls-12" d="M70.43,54.77c.28.9-.61,2-2.18,2.25s-2.92-.23-3.06-1.2c-.22-1.58,1-2.44,2.34-2.71A2.42,2.42,0,0,1,70.43,54.77Z"/><path class="cls-13" d="M36.44,36.07a1.9,1.9,0,0,0,2.52,1l.23-.14-.23.14a3.34,3.34,0,0,0-1.51,1.46c-.3.75.16,1.82,1,1.8l-1.94,2.08c-.81.87-1.68,1.9-1.58,3.09s1.9,2,2.51,1c-.83,1.09-.45,2.9.62,3.23s2-.19,2.76-1.61a1.55,1.55,0,0,0,1,1.58A1.77,1.77,0,0,0,41,52.24a1.37,1.37,0,0,0,2.34-.43,3.27,3.27,0,0,1-1.56,2.37A4.1,4.1,0,0,0,40,56.42a1.39,1.39,0,0,0,.19.91c.51.23.34.59,0,0a12.72,12.72,0,0,0-2.87-1.11c-1.56-.29-3.59.76-3.31,2.32s2.52,1.86,4,1.16c-.4,2,1.87,3.92,3.95,3.66a4.38,4.38,0,0,0,3.67-3.44,3.68,3.68,0,0,0,3-5,1.66,1.66,0,0,0,1.91-2.63,1.27,1.27,0,0,1-.3-.27,1.53,1.53,0,0,1,.3.27,2,2,0,0,0,2.75-1.15,4.44,4.44,0,0,0-.76-3.66c1.14,1.06,3.15.34,3.94-1a7,7,0,0,0,.67-3.92,2.61,2.61,0,0,1,0-.62l0,.62A2.9,2.9,0,0,0,62,44.27a5.1,5.1,0,0,1,.57-.73,2.88,2.88,0,0,1-.57.73A4.84,4.84,0,0,0,61.18,47a5.1,5.1,0,0,0,5.06-3.46c1.11,1,3.15-.78,2.31-2a5.47,5.47,0,0,1,3.93,1.65,5.59,5.59,0,0,0-1.76,2.29,1.93,1.93,0,0,0,1,2.42,6.42,6.42,0,0,0-5.82,1.85,2.56,2.56,0,0,0-.78,2.62c.4.88,2,.92,2.14,0a2.07,2.07,0,0,0,4.12.44,2.07,2.07,0,1,0,3.74-1.64c1.25.24,2.66.45,3.7-.28a1.93,1.93,0,0,0,.42-2.51,1.67,1.67,0,0,1-.74-.42,1,1,0,0,1,.74.42,2.62,2.62,0,0,0,2.93-1.58,3.08,3.08,0,0,1,0-1.09,1.69,1.69,0,0,1,0,1.09c.26,1.76,1.6,3,3.8,3.11s3-1.83,2.9-3.57a3.66,3.66,0,0,0,6.82-2.52,4.73,4.73,0,0,0,5.83,2.85,2.26,2.26,0,1,0,2.7,3.28,2.67,2.67,0,0,0,4.15.62c-.94.95.18,2.72,1.51,2.82s2.52-.84,3.48-1.77a4.28,4.28,0,0,0,.78-.92A2.26,2.26,0,0,0,113,47.58a3.73,3.73,0,0,0-4.5-2.73,3.5,3.5,0,0,0,.4-3.37,2.7,2.7,0,0,0,.84-5.26L113,33.73a5.64,5.64,0,0,0,4.21,1.69,11.77,11.77,0,0,0-4.38-2.7,2,2,0,0,1-.73-.26l.73.26a2.89,2.89,0,0,0,3-1.73,4.33,4.33,0,0,0-.84-4.21,9,9,0,0,0-2.39-2,3.19,3.19,0,0,1-1.19-.67c.4.21.8.43,1.19.67A3.52,3.52,0,0,0,117,23c.76-2.1-1.73-4.64-3.75-3.69.73-1.89-1.27-4-3.3-4s-3.8,1.37-5.12,2.91c.59-1.12-1.12-2.32-2.25-1.75a2.79,2.79,0,0,0-1.34,2.12,7.45,7.45,0,0,1-.06,1.16,5.68,5.68,0,0,1,.06-1.16,8.88,8.88,0,0,0-1-4,1.59,1.59,0,0,0-.73-.8c-.69-.28-1.38.37-1.81,1a5.23,5.23,0,0,0-1.14,3.1l.14,0c1.17-.12,2.39,1.1,2,2.21a2.2,2.2,0,0,1-2.12-2.17v0a3,3,0,0,0-2.21,2.34,7.88,7.88,0,0,0,.19,3.51A7.38,7.38,0,0,0,91.66,26l.44-1.28A2.74,2.74,0,0,0,89.75,24a3.52,3.52,0,0,0,2.35-1.58c.39-.9-.59-2.21-1.42-1.68.54-1-1.08-2.27-1.93-1.49a2,2,0,0,0-.9-2,1.71,1.71,0,0,0,.09-2.13l-1.45.15c.19-.57-.44-1.14-1-1.13a2.9,2.9,0,0,0-1.6.75,6.75,6.75,0,0,0-2.57,3,2.93,2.93,0,0,1-.13.83,2.88,2.88,0,0,1,.13-.83,4.14,4.14,0,0,0-2.91-3.82,6.1,6.1,0,0,0-5.59,1.45,3.25,3.25,0,0,0-1.3,2.14,2.85,2.85,0,0,0-5.6-1l-1-1.51a6,6,0,0,0-2,1.45,2.07,2.07,0,0,0-3.14.08,4.45,4.45,0,0,0-8.87.78,3.28,3.28,0,0,0-5.41,1,2.15,2.15,0,0,0-3-.65,6.21,6.21,0,0,0-2.09,2.69,7,7,0,0,0-12,2.6l.52.07a3,3,0,0,1,4-.08,16.89,16.89,0,0,1-4,.08,3,3,0,0,0-1.17,1.92c-.33,2.27,1.74,4.43,4,4.7a5.38,5.38,0,0,0,3.56-.82l-.75,2.37a3.35,3.35,0,0,1,3.22,1.76,2.3,2.3,0,0,0-3.22,3.09,9.86,9.86,0,0,0-2-.22A4.34,4.34,0,0,0,36.44,36.07Z"/><path class="cls-14" d="M60.21,22.56a1.42,1.42,0,0,0,.32.19A.32.32,0,0,0,60.21,22.56Z"/><path class="cls-14" d="M107.72,27.33a1.74,1.74,0,0,0,.51-.5A1.52,1.52,0,0,0,107.72,27.33Z"/><path class="cls-14" d="M59.6,23.18a.31.31,0,0,0,.11.2A1.28,1.28,0,0,0,59.6,23.18Z"/><path class="cls-14" d="M46.11,25.13a2.21,2.21,0,0,0-.16-.77A1.51,1.51,0,0,0,46.11,25.13Z"/><g class="cls-15"><path class="cls-14" d="M112.87,32.72a2,2,0,0,1-.73-.26l.73.26a2.89,2.89,0,0,0,3-1.73,4.33,4.33,0,0,0-.84-4.21,9,9,0,0,0-2.39-2,3.19,3.19,0,0,1-1.19-.67c.4.21.8.43,1.19.67A3.52,3.52,0,0,0,117,23c.76-2.1-1.73-4.64-3.75-3.69.73-1.89-1.27-4-3.3-4s-3.8,1.37-5.12,2.91c.59-1.12-1.12-2.32-2.25-1.75a2.79,2.79,0,0,0-1.34,2.12,7.45,7.45,0,0,1-.06,1.16,5.68,5.68,0,0,1,.06-1.16,8.88,8.88,0,0,0-1-4,1.59,1.59,0,0,0-.73-.8c-.69-.28-1.38.37-1.81,1a5.23,5.23,0,0,0-1.14,3.1l.14,0c1.17-.12,2.39,1.1,2,2.21a2.2,2.2,0,0,1-2.12-2.17v0a3,3,0,0,0-2.21,2.34,7.88,7.88,0,0,0,.19,3.51A7.38,7.38,0,0,0,91.66,26l.44-1.28A2.74,2.74,0,0,0,89.75,24a3.52,3.52,0,0,0,2.35-1.58c.39-.9-.59-2.21-1.42-1.68.54-1-1.08-2.27-1.93-1.49a2,2,0,0,0-.9-2,1.71,1.71,0,0,0,.09-2.13l-1.45.15c.19-.57-.44-1.14-1-1.13a2.9,2.9,0,0,0-1.6.75,6.75,6.75,0,0,0-2.57,3,2.93,2.93,0,0,1-.13.83,2.88,2.88,0,0,1,.13-.83,4.14,4.14,0,0,0-2.91-3.82,6.1,6.1,0,0,0-5.59,1.45,3.25,3.25,0,0,0-1.3,2.14,2.85,2.85,0,0,0-5.6-1l-1-1.51a6,6,0,0,0-2,1.45,2.07,2.07,0,0,0-3.14.08,4.45,4.45,0,0,0-8.87.78,3.28,3.28,0,0,0-5.41,1,2.15,2.15,0,0,0-3-.65,6.21,6.21,0,0,0-2.09,2.69,7,7,0,0,0-12,2.6l.52.07a3,3,0,0,1,4-.08,16.89,16.89,0,0,1-4,.08,3,3,0,0,0-1.17,1.92c-.33,2.27,1.74,4.43,4,4.7a5.38,5.38,0,0,0,3.56-.82l-.75,2.37a3.36,3.36,0,0,1,3,1.38c1.12-1.07,1.52-3,.37-4a6,6,0,0,1,2.24-1c-.52-.46-1-.92-1.55-1.39a2.68,2.68,0,0,1,1.58-1.66l1.23,1.43a2.55,2.55,0,0,1,1.79-3.3A2.57,2.57,0,0,1,46,24.36a2.35,2.35,0,0,1,2.82-2,3,3,0,0,1,1.58,4c1.08.7,2.43-.29,3.4-1.14s2.61-1.57,3.41-.55a1.47,1.47,0,0,1,.61-2,1.5,1.5,0,0,1,1.83.48c-.05-.28.3-.61.61-.62a1.9,1.9,0,0,1,.19-3.07c1.24-.58,2.82,1.07,2.13,2.25A6.93,6.93,0,0,1,66,19.61c1.37-.2,3,.82,2.86,2.19.18-2.27,3-3.69,5.15-2.86a5.56,5.56,0,0,1,3.15,5.56A2.15,2.15,0,0,1,81,24.38c1.1-1.07,2.5-2.11,4-1.92s2.64,2.37,1.44,3.33a2.28,2.28,0,0,1,1.63,1.85,1.54,1.54,0,0,1-.22.91,3,3,0,0,1,3.53,1.95,5.34,5.34,0,0,1,6.5-2,24.7,24.7,0,0,0,.25-2.86c.15-.95.75-2,1.7-2.05,1.29-.13,2,1.37,2.43,2.61.5-1.85,2.3-3.48,4.19-3.15a2.69,2.69,0,0,1,1.75,3.79,2,2,0,0,1,2.46.34,2,2,0,0,1-.7,2.94,6.83,6.83,0,0,0-1.21.5,1.28,1.28,0,0,0-.19,1.83,1.3,1.3,0,0,0,1.84,0l.21,1.37a9,9,0,0,1,2.32,0l.08-.06.07.08c.81.08,1.63.2,2.42.22A14.29,14.29,0,0,0,112.87,32.72Z"/></g><path class="cls-14" d="M35,33.35a2,2,0,0,0-.32.39A5.39,5.39,0,0,0,37,33.08l.32-.23A2.39,2.39,0,0,0,35,33.35Z"/><path class="cls-11" d="M76.43,44.52c0,1.91-2.07,3.47-4,3.47s-4-1.56-4-3.47,1.16-3.63,4-3.43C75.4,40.84,76.43,42.62,76.43,44.52Z"/><path class="cls-12" d="M75.61,43.53c.18,1.11-1,2.31-3,2.31s-3.42-.77-3.42-1.94c0-1.91,1.55-2.73,3.22-2.81A2.87,2.87,0,0,1,75.61,43.53Z"/><path class="cls-11" d="M111.94,22.23c0,1.9-2.08,3.46-4,3.46S104,24.13,104,22.23s1.16-3.64,3.95-3.44C110.91,18.54,111.94,20.32,111.94,22.23Z"/><path class="cls-12" d="M111.12,21.24c.18,1.11-1.06,2.3-3,2.3s-3.42-.77-3.42-1.94c0-1.9,1.55-2.72,3.22-2.81A2.87,2.87,0,0,1,111.12,21.24Z"/><path class="cls-11" d="M46.21,34A2.61,2.61,0,0,1,41,34a2.15,2.15,0,0,1,2.58-2.24A2.11,2.11,0,0,1,46.21,34Z"/><path class="cls-12" d="M45.68,33.38c.12.73-.69,1.51-1.94,1.51s-2.23-.5-2.23-1.26c0-1.25,1-1.79,2.1-1.84A1.88,1.88,0,0,1,45.68,33.38Z"/><path class="cls-11" d="M65.57,30c0,2.5-2.71,4.53-5.2,4.53s-5.17-2-5.17-4.53,1.52-4.75,5.17-4.5C64.23,25.2,65.57,27.53,65.57,30Z"/><path class="cls-12" d="M65.1,29.75A4.48,4.48,0,0,1,60.38,34c-2.49,0-5-1.77-5-4.26s1.34-4.48,5-4.23C64.23,25.2,65.1,27.26,65.1,29.75Z"/><path class="cls-11" d="M44.91,53.36c0,2.49-2.71,4.53-5.2,4.53s-5.17-2-5.17-4.53,1.52-4.76,5.17-4.5C43.57,48.53,44.91,50.86,44.91,53.36Z"/><path class="cls-12" d="M44.44,53.09c0,1.27-.39,2.83-3.38,2.83A3.82,3.82,0,0,1,37,52.73a3,3,0,0,1,2.74-3.87C42.93,48.69,44.44,50.59,44.44,53.09Z"/><path class="cls-11" d="M92.29,38c0,1.9-2.08,3.46-4,3.46s-4-1.56-4-3.46,1.16-3.64,4-3.44C91.26,34.33,92.29,36.11,92.29,38Z"/><path class="cls-12" d="M91.93,37.81a3.43,3.43,0,0,1-3.61,3.25c-1.9,0-3.82-1.35-3.82-3.25s1-3.43,3.81-3.23C91.26,34.33,91.93,35.9,91.93,37.81Z"/><path class="cls-11" d="M85.92,20.51a2.56,2.56,0,0,1-5.08,0,2.11,2.11,0,0,1,2.53-2.21A2.07,2.07,0,0,1,85.92,20.51Z"/><path class="cls-12" d="M85.69,20.37a2.19,2.19,0,0,1-2.31,2.09,2.32,2.32,0,0,1-2.45-2.09c0-1.22.65-2.19,2.44-2.07C85.27,18.14,85.69,19.15,85.69,20.37Z"/><path class="cls-11" d="M39.41,23.71a2.57,2.57,0,0,1-5.09,0,2.12,2.12,0,0,1,2.53-2.21A2.08,2.08,0,0,1,39.41,23.71Z"/><path class="cls-12" d="M39.18,23.58a2.19,2.19,0,0,1-2.32,2.08,2.32,2.32,0,0,1-2.45-2.08c0-1.23.66-2.2,2.44-2.08C38.75,21.34,39.18,22.35,39.18,23.58Z"/><path class="cls-16" d="M130.32,52.38l-1.24-.13a1.35,1.35,0,0,0,.63-.81,1.44,1.44,0,0,0,0-.77,1.84,1.84,0,0,0-.09-.25,1.41,1.41,0,0,0-.77-.67,1.29,1.29,0,0,0-.51-.1,1.25,1.25,0,0,0-.51.1,1.49,1.49,0,0,0,.42-.41,1.66,1.66,0,0,0,.27-.74,1.88,1.88,0,0,0,0-.41,1.85,1.85,0,0,0-.15-.57,1.62,1.62,0,0,0-.1-.18,1.37,1.37,0,0,0-.41-.42l-.19-.1-.06,0-.14,0-.08,0-.13,0h-.5l-.14,0h-.06l-.16.06,0,0-.2.1h0a1.21,1.21,0,0,1-.78,1.11,1.55,1.55,0,0,1,.78-1.11,1.88,1.88,0,0,0-.08-.78v0a1.89,1.89,0,0,0-.09-.21.14.14,0,0,0,0-.06.86.86,0,0,0-.1-.16.43.43,0,0,1,0-.07l-.1-.13-.06-.06-.13-.12-.06-.05-.21-.13a1.92,1.92,0,0,0-.65-.18l-.22,0a3.17,3.17,0,0,0-1.92.7,3.65,3.65,0,0,0-.36.31l-.16.17a6.28,6.28,0,0,0-.79,1.12l-.44.82c-.2.42-.41.84-.63,1.24,0-.13,0-.26,0-.39v-.11c0-.1,0-.2,0-.3a.28.28,0,0,1,0-.09,2.38,2.38,0,0,0-.06-.37s0-.05,0-.08,0-.2-.08-.3l0-.1a3.92,3.92,0,0,0-.29-.71.3.3,0,0,0,0-.08c0-.1-.11-.2-.17-.3l0,0a4,4,0,0,0-.23-.34l0,0a3.36,3.36,0,0,0-.24-.29l0,0a5.48,5.48,0,0,0-.59-.59l0,0a5.72,5.72,0,0,0-1.86-1h0a3.5,3.5,0,0,1-2.87,0,4.48,4.48,0,0,1,2.87,0l.39-.18h0l.36-.21,0,0,.33-.22,0,0,.28-.24.06,0,.23-.25.06-.07.2-.25.07-.09.16-.26.06-.1.18-.38h0c.05-.13.09-.26.13-.38a5.49,5.49,0,0,0,.18-.78,7.14,7.14,0,0,0,0-.8c0-.14,0-.27,0-.4a7,7,0,0,0-.13-.8,6.85,6.85,0,0,0-1.47-2.89c-.11-.13-.23-.25-.36-.38a11.77,11.77,0,0,0-4.38-2.7,2,2,0,0,1-.73-.26l.73.26a2.89,2.89,0,0,0,3-1.73,4.33,4.33,0,0,0-.84-4.21,9,9,0,0,0-2.39-2,3.19,3.19,0,0,1-1.19-.67c.4.21.8.43,1.19.67A3.52,3.52,0,0,0,117,23c.76-2.1-1.73-4.64-3.75-3.69.73-1.89-1.27-4-3.3-4s-3.8,1.37-5.12,2.91c.59-1.12-1.12-2.32-2.25-1.75a2.79,2.79,0,0,0-1.34,2.12,7.45,7.45,0,0,1-.06,1.16,5.68,5.68,0,0,1,.06-1.16,8.88,8.88,0,0,0-1-4,1.59,1.59,0,0,0-.73-.8c-.69-.28-1.38.37-1.81,1a5.23,5.23,0,0,0-1.14,3.1l.14,0c1.17-.12,2.39,1.1,2,2.21a2.2,2.2,0,0,1-2.12-2.17v0a3,3,0,0,0-2.21,2.34,7.88,7.88,0,0,0,.19,3.51A7.38,7.38,0,0,0,91.66,26l.44-1.28A2.74,2.74,0,0,0,89.75,24a3.52,3.52,0,0,0,2.35-1.58c.39-.9-.59-2.21-1.42-1.68.54-1-1.08-2.27-1.93-1.49a2,2,0,0,0-.9-2,1.71,1.71,0,0,0,.09-2.13l-1.45.15c.19-.57-.44-1.14-1-1.13a2.9,2.9,0,0,0-1.6.75,6.75,6.75,0,0,0-2.57,3,2.93,2.93,0,0,1-.13.83,2.88,2.88,0,0,1,.13-.83,4.14,4.14,0,0,0-2.91-3.82,6.1,6.1,0,0,0-5.59,1.45,3.25,3.25,0,0,0-1.3,2.14,2.85,2.85,0,0,0-5.6-1l-1-1.51a6,6,0,0,0-2,1.45,2.07,2.07,0,0,0-3.14.08,4.45,4.45,0,0,0-8.87.78,3.28,3.28,0,0,0-5.41,1,2.15,2.15,0,0,0-3-.65,6.21,6.21,0,0,0-2.09,2.69,7,7,0,0,0-12,2.6l.52.07a3,3,0,0,1,4-.08,16.89,16.89,0,0,1-4,.08,3,3,0,0,0-1.17,1.92c-.33,2.27,1.74,4.43,4,4.7a5.38,5.38,0,0,0,3.56-.82l-.75,2.37a3.35,3.35,0,0,1,3.22,1.76,2.3,2.3,0,0,0-3.22,3.09,9.86,9.86,0,0,0-2-.22c-.31,0-.62,0-.93,0h0l-.41.06H31.1l-.4.07h0l-.43.11,0,0-.34.11-.12,0-.28.12-.11,0-.38.19a4.74,4.74,0,0,0-2.48,4.78c0,.1.05.21.08.31l0,.09.09.22,0,.08a2.49,2.49,0,0,0,.15.28.43.43,0,0,0,0,.07l.13.2.07.1.12.15.09.1.19.2.14.12.09.07.15.13.06,0a2.91,2.91,0,0,0,.62.35h0a3.07,3.07,0,0,0,.71.22,1.4,1.4,0,0,1,1.49-.15,2.63,2.63,0,0,1-1.49.15l-.12.09h0l-.12.11h0a2.5,2.5,0,0,0-.22.24h0l-.09.12v0l-.07.12v0a1.48,1.48,0,0,0-.12.29h0l0,.13v0s0,.08,0,.11v0s0,.08,0,.11v0a.66.66,0,0,0,0,.14v0s0,.08,0,.12l0,0a.16.16,0,0,0,0,.09v0l.05.09a.05.05,0,0,0,0,0,.57.57,0,0,0,.08.13l1.56.39a1.09,1.09,0,0,0-.78.42,1.05,1.05,0,0,0-.23.85,1.21,1.21,0,0,0,.05.18l0,.07a2.1,2.1,0,0,1,1.32.56,1.14,1.14,0,0,1-1.32-.56H29.1a2.73,2.73,0,0,0-.64.07l-.05,0a2.47,2.47,0,0,0-.54.19l-.11.05-.12.08-.14.08-.1.08-.18.15-.07.07-.14.14L27,49.4l-.15.23,0,0a1.24,1.24,0,0,0-.1.2l0,.07a2.76,2.76,0,0,0-.08.27h0a1.54,1.54,0,0,0,0,.3.4.4,0,0,0,0,.11,1.08,1.08,0,0,0,0,.18.68.68,0,0,0,0,.14s0,.1,0,.15,0,.11,0,.16a.56.56,0,0,1,0,.12s.05.11.07.17l0,.09.1.18,0,.06a1.27,1.27,0,0,0,.13.19l0,0,.16.2h0c1.05-.47,2.64-.32,2.51.76a2.46,2.46,0,0,1-2.51-.76h0l-.24.12-.58.37a11.31,11.31,0,0,0-1.08.86,10.88,10.88,0,0,0-1.79,2.1c-.12.2-.24.39-.35.6a4.93,4.93,0,0,0-.23.46,2.41,2.41,0,0,0-.22,1,1.23,1.23,0,0,0,.1.49,1.11,1.11,0,0,0,.07.16,2.75,2.75,0,0,0,.93.86,10.71,10.71,0,0,0,3.62,1.43c.32.06.64.11,1,.14l.49,0,.49,0a11.66,11.66,0,0,0,1.95-.16h0a2.39,2.39,0,0,0-.13.21h0a1.42,1.42,0,0,0-.07.22v0l0,.21v0a1.48,1.48,0,0,0,0,.21v0a1.6,1.6,0,0,0,0,.21v0a1.72,1.72,0,0,0,.07.21v0a2.12,2.12,0,0,0,.11.21v0a2.43,2.43,0,0,0,.14.2h0a1.64,1.64,0,0,0,1.75.67l.19-.08a.64.64,0,0,1-.19.08.81.81,0,0,0-.14.12h0a.71.71,0,0,0-.1.14h0a1,1,0,0,0-.09.56v0l0,.15v0l.06.14s0,0,0,0l.09.16a1.59,1.59,0,0,1,.7.32.69.69,0,0,1-.7-.32h0l-.19,0h-.28l-.2,0h0a2.32,2.32,0,0,0-.61.21l-.06,0-.14.09-.09.05-.12.09-.1.07-.11.09-.11.12-.07.07c-.06.07-.12.13-.17.2a.35.35,0,0,1-.05.08l-.09.15-.05.09a.77.77,0,0,0-.07.16.36.36,0,0,0,0,.09,1.09,1.09,0,0,0-.05.17l0,.09c0,.08,0,.17,0,.26a3.7,3.7,0,0,0,2.64,3.47,6.43,6.43,0,0,0,1.13.28l.58.07a8.55,8.55,0,0,0,.88,0,20.34,20.34,0,0,0,2.06-.13,1.11,1.11,0,0,0-.46.1,1.6,1.6,0,0,0-.56,1.89,1.44,1.44,0,0,0,.56.78l.22.11a1.87,1.87,0,0,0,.73.12,2.39,2.39,0,0,0,.94-.28,3,3,0,0,0,1-.85,2.6,2.6,0,0,0,.28-.45,2.78,2.78,0,0,0,.18-.48,2,2,0,0,0,0,.34,1.86,1.86,0,0,0,0,.34,2,2,0,0,0,.21.47,1.39,1.39,0,0,0,.21.27,1.69,1.69,0,0,0,.56.4,1.41,1.41,0,0,0,.5.12h.28l.2,0h0a1,1,0,0,0,.21-.09l0,0a1.18,1.18,0,0,0,.19-.11h0a1.25,1.25,0,0,0,.19-.15h0a1.85,1.85,0,0,0,.42-.61h0a1.21,1.21,0,0,1,.1-.72,1.49,1.49,0,0,1-.1.72,1.72,1.72,0,0,0,.68,1.07h0l.19.13h0l.19.11h0l.2.09h0a1.52,1.52,0,0,0,.2.06h0l.19,0h0l.21,0h.25a.69.69,0,0,0,.2,0h0l.2-.06h0l.19-.09a2.42,2.42,0,0,0,1-1,2.57,2.57,0,0,0,.21-.52,3.5,3.5,0,0,0,.13-.56,3.69,3.69,0,0,0,0-.58,5.67,5.67,0,0,0-.05-.58,3.39,3.39,0,0,0-.13-.57l-.09-.27-.21-.49-.21-.48a4.34,4.34,0,0,1-.16-.47,27.71,27.71,0,0,0,5.93,6.58c4.28,3.57,9.21,6.5,12.62,10.92,5,6.52,6,15.2,6.71,23.4.26,3.25.65,6.59.07,9.84-.61,3.49-5.87,7.2-7,10.14s6.81,1.32,7.84,1.78c1.26.56,1.65,2.19,2.92,2.73,2.39,1,3.88-2.67,6.07-4.07,2.39-1.53,5.48-.09,8,1.19s7.45.37,5.34-1.65-12.07-6-14.11-13.56C79,106.8,84.41,98.1,89,90.28a169.78,169.78,0,0,0,14.43-32,4.34,4.34,0,0,0,.48-.14,6,6,0,0,0,.68-.32c.33-.19.65-.41,1-.62a2.25,2.25,0,0,0,0,1.45,2.3,2.3,0,0,0,.17.39,2.43,2.43,0,0,0,.87.9l.19.1a2.2,2.2,0,0,0,.61.16l.21,0a3,3,0,0,0,.42,0,2.13,2.13,0,0,0,.61-.17,2.69,2.69,0,0,0,.38-.19,2.18,2.18,0,0,0,.73-.75,6.44,6.44,0,0,0,.07,2.19c0,.2.09.41.15.61a5.89,5.89,0,0,0,.21.59c.08.19.16.38.26.57a6,6,0,0,0,.5.8c.22-.09.44-.19.65-.3a7,7,0,0,0,.9-.6,6.56,6.56,0,0,0,1-1,6.74,6.74,0,0,0,.59-.91,5.73,5.73,0,0,0,.52-1.34,2.23,2.23,0,0,1,.37,1.2c0,.07,0,.14,0,.21s0,.44,0,.67a1.64,1.64,0,0,1,0,.22c0,.3-.07.6-.09.9,0,.07,0,.14,0,.22A2.5,2.5,0,0,0,115,64a2.67,2.67,0,0,0,.4.81,1.68,1.68,0,0,0,.62.52,1.09,1.09,0,0,0,.77,0,1,1,0,0,0,.25-.13l.12-.08a3,3,0,0,0,.31-.31l.18-.23a10.27,10.27,0,0,0,.77-1.17,12.27,12.27,0,0,0,1.32-3.23q.09-.34.15-.69c0,.21,0,.43,0,.65s0,.44,0,.66a5.3,5.3,0,0,0,.49,2.48,2.82,2.82,0,0,0,.8.92,2.4,2.4,0,0,0,1.42.42,3,3,0,0,0,1.11-.26l.35-.17.17-.1.33-.24a3.88,3.88,0,0,0,.31-.26l.14-.14a2.61,2.61,0,0,0,.27-.31,3.67,3.67,0,0,0,.71-1.44,6.67,6.67,0,0,0-.24-3.51,7.75,7.75,0,0,0-.26-.77c-.23-.63-.51-1.26-.78-1.87a2.16,2.16,0,0,0,.69.94,3.12,3.12,0,0,0,.49.31l.28.11a3,3,0,0,0,1.19.18l.3,0,.3-.05a3,3,0,0,0,.57-.21l.26-.14A4.29,4.29,0,0,0,130.32,52.38ZM60,63.88a4.45,4.45,0,0,0,.14.9,1,1,0,0,0-.38-.13,1.11,1.11,0,0,0-.74.22,1.63,1.63,0,0,0-.48.53c0-2.49.12-5.14.32-7.65h0l0,.06.06.09L59,58s0,0,0,0l.07.09.06,0,.09.08.05,0,.14.11h0l.14.07.05,0,.12,0h0l.18,0,.19,0c.73.06,1.48-.12,2.19,0a1.61,1.61,0,0,1,.37.07,1.91,1.91,0,0,1,.36.13l-.41.19A4.89,4.89,0,0,0,61,60.48a5.28,5.28,0,0,0-.48.78,5.14,5.14,0,0,0-.35.84A5.34,5.34,0,0,0,60,63,4.52,4.52,0,0,0,60,63.88Zm-4.12,5c-.26,1-.66,2.14-2,2.15a2.31,2.31,0,0,1-1.82-.91l-2-2.47a1.67,1.67,0,0,0,.16-.46,2.32,2.32,0,0,0,0-.59,1.75,1.75,0,0,0-.28-.74l1.25,1.48a1.69,1.69,0,0,0,.31-.13l.1,0,.19-.11L52,67l.15-.1.13-.1.13-.11.12-.12a1.14,1.14,0,0,0,.11-.11.86.86,0,0,0,.13-.14l.09-.11L53,66l.07-.1a1.22,1.22,0,0,0,.12-.19l.06-.09.12-.21a.3.3,0,0,1,0-.08l.11-.23,0-.07c0-.08.07-.17.1-.26l0,0,.09-.28v0c0-.09.05-.19.08-.29v0l.06-.31h0c0-.11,0-.22,0-.33h0c0-.11,0-.22,0-.33a.84.84,0,0,1-.82-.71l-.57-4.79a13.6,13.6,0,0,1,1.4,5.29,1.48,1.48,0,0,1,0,.21h.18l.17,0h0l.15,0h0l.14,0,0,0,.12-.06a.05.05,0,0,1,0,0l.1-.08,0,0,.08-.09,0,0a.41.41,0,0,0,.07-.11h0a.39.39,0,0,1,.07-.34.74.74,0,0,1-.07.34.57.57,0,0,0,.16.28h0a1,1,0,0,0,.29.2h0l.16,0h0l.15,0h0l.15,0h0l.15-.07a1.09,1.09,0,0,0,.4-.54,1.71,1.71,0,0,0,.1-.46,2.09,2.09,0,0,0,0-.25,2.52,2.52,0,0,0-.05-.48,5.75,5.75,0,0,0-.23-.93,3,3,0,0,0-.18-.45,4.61,4.61,0,0,0-.45-.85,3.51,3.51,0,0,0-.27-.4A8.67,8.67,0,0,0,55,58h0l.26.07.09,0,.18,0,.11,0h.83l.17,0,.1,0L57,58,57,58A39.69,39.69,0,0,1,55.86,68.89ZM72.23,80.25c-.36,1.13-2.53,2.47-3.94,1.28s-8.66-7.79-9.11-9.59A26.09,26.09,0,0,1,58.56,67l.08.11.14.15a2.7,2.7,0,0,0,.34.25l.19.1a3,3,0,0,0,.62.21,3.12,3.12,0,0,0,.44,0,2.49,2.49,0,0,0,.67,0,3.12,3.12,0,0,0,.44-.09,1.76,1.76,0,0,0,0,.4,1.92,1.92,0,0,0,1.67,1.7h.2l.2,0a1.9,1.9,0,0,0,.56-.21,1.39,1.39,0,0,0,.31-.23l.15-.14a1.72,1.72,0,0,0,.23-.32,1.62,1.62,0,0,0,.1-.18,1.86,1.86,0,0,0,.16-.57,1.48,1.48,0,0,0,0-.59,1.24,1.24,0,0,0,.28.28,1.39,1.39,0,0,0,.35.16,1.6,1.6,0,0,0,.39,0h.2l.2,0a2,2,0,0,0,.39-.14,1.78,1.78,0,0,0,.89-.84,2.11,2.11,0,0,0,.18-.59c0-.13,0-.26,0-.4a3.15,3.15,0,0,0-.06-.61,4.24,4.24,0,0,0-.17-.61,4.29,4.29,0,0,0-.26-.58c-.06-.13-.13-.25-.2-.37-.22-.35-.47-.69-.71-1-.09-.11-.17-.23-.25-.34a8.5,8.5,0,0,1-.89-1.4l1.12-1.37a2.64,2.64,0,0,0,.59,1.57,3.72,3.72,0,0,0,.76.72,5.44,5.44,0,0,0,.62.39c.22.11.45.21.68.3a6.59,6.59,0,0,0,.72.22l.71.15a8.52,8.52,0,0,0,2.47,0A32.71,32.71,0,0,1,72.23,80.25Zm4.13-19.2h0a.89.89,0,0,0,.08-.17l.06-.13c0-.05,0-.11.07-.17l0-.13a1.21,1.21,0,0,0,0-.18.65.65,0,0,0,0-.13c0-.1,0-.2,0-.3a1.1,1.1,0,0,0,0-.18s0-.09,0-.13v-.31c0-.06,0-.13,0-.19a.41.41,0,0,1,0-.11l0-.2a.29.29,0,0,1,0-.09l-.06-.2a.14.14,0,0,0,0-.07,2.3,2.3,0,0,0-.35-.7h0a1.34,1.34,0,0,1-.49-.51,2.15,2.15,0,0,1,.49.51,1.56,1.56,0,0,0,.47.17h0l.15,0h.22l.31,0h0l.12,0,.09,0,.11,0,.11,0,.09,0,.15-.07.06,0,.17-.09.06-.05a.47.47,0,0,0,.12-.09l.06,0,.11-.11a.12.12,0,0,0,0-.05A1.07,1.07,0,0,0,79,57c.09-.13.17-.26.25-.4l.09-.2a2.32,2.32,0,0,0,.16-.44l.06-.22c0-.15.06-.31.08-.46s.05-.48.06-.72,0-.48,0-.72,0-.32,0-.47a3.34,3.34,0,0,0,.23,1.12,4,4,0,0,0,1.17,1.62c.14.1.28.2.43.29l-4.35,6.25Zm6.27,31.09c-.19.24-.39.48-.6.71a1.9,1.9,0,0,1-3.26-1c-1-6.09-1.09-12.83,3.53-16.6,2-1.6,4.87-3,4.75-5.49l-5,1.81a1.64,1.64,0,0,1-2.17-1.8A31.65,31.65,0,0,1,86,55.67a3.39,3.39,0,0,0,.33-.42l0,0-.12.21c-.1.16-.19.33-.29.5s-.17.35-.26.52l-.11.26a6.56,6.56,0,0,0-.29.81,4.86,4.86,0,0,0-.16.83,3.37,3.37,0,0,0,0,.55,3.43,3.43,0,0,0,.07.56,2.45,2.45,0,0,0,.18.54l.14.25a3.27,3.27,0,0,0,.56.67,2.49,2.49,0,0,0,1.5.64,1.64,1.64,0,0,0,1-.29q-.28.21-.57.45l-.37.32c-.12.11-.23.23-.34.34l-.16.18-.28.38c-.08.13-.15.27-.22.4a3.66,3.66,0,0,0-.15.43,2.32,2.32,0,0,0-.06.46,1.5,1.5,0,0,0,.42,1.06,1.74,1.74,0,0,0,.36.31,2.32,2.32,0,0,0,.41.22,1.65,1.65,0,0,0,.43.09h.2a.89.89,0,0,0,.67-.44.72.72,0,0,0,0,.36.9.9,0,0,0,.21.27,1.18,1.18,0,0,0,.68.26.61.61,0,0,0,.19,0l.19,0,.18,0a.92.92,0,0,0,.41-.31.65.65,0,0,0,.1-.35,2.54,2.54,0,0,0,.56,2.11A42.68,42.68,0,0,1,82.63,92.14ZM94,70.6c0-.68,0-1.36,0-2a2.08,2.08,0,0,0,.43-.19,2.44,2.44,0,0,0,.43-.28,2.53,2.53,0,0,0,.37-.36,2.57,2.57,0,0,0,.5-.88,2.88,2.88,0,0,0,.1-.51,1.51,1.51,0,0,0,.28.6,1.46,1.46,0,0,0,.37.33l-1.29,3.57A.64.64,0,0,1,94,70.6Z"/></g></g></svg>