<svg xmlns="http://www.w3.org/2000/svg" viewBox="0 0 180 180"><defs><style>.cls-1{isolation:isolate;}.cls-2{opacity:0.2;mix-blend-mode:multiply;}.cls-3{fill:#29abe2;}.cls-4,.cls-8{fill:none;stroke-linecap:round;stroke-linejoin:round;}.cls-4{stroke:#fff;stroke-width:4.07px;}.cls-5{fill:#d9a488;}.cls-6{opacity:0.38;}.cls-7{fill:#fff8a7;}.cls-8{stroke:#1e134d;stroke-width:1.22px;}.cls-9{fill:#eabd92;}.cls-10{fill:#002451;opacity:0.27;}.cls-11{fill:#fff;}</style></defs><title>lab02-card-humanos</title><g class="cls-1"><g id="Capa_2" data-name="Capa 2"><g id="Layer_1" data-name="Layer 1"><g class="cls-2"><rect x="4" y="4" width="176" height="176" rx="12"/></g><rect class="cls-3" width="176" height="176" rx="12"/><path class="cls-4" d="M134.46,77.94A2.77,2.77,0,0,1,133.8,76a50.67,50.67,0,0,0-.22-7.07c-.57-3.55-1.36-7.06-1.29-10.69a30.79,30.79,0,0,0-.53-6.46c-.53-2.69-4.9-4.36-6.21-4.76-3.61-1.09-4.3-2.85-2.36-4a10.71,10.71,0,0,0,2.55-2.35l-.9,1.41a3.72,3.72,0,0,0,2.65,2.42c.88.35.94,1.68.94,1.68s1.06-.1.82-2a7.13,7.13,0,0,0-2.39-5,6,6,0,0,0,.89-2.22c0-.24.07-.51.1-.8l.34.1c1.22-.82,2.74-3,1.86-6.44s-3.53-4.66-6.45-5.25-4.32.74-4.32.74-5.3-2.15-8.83.88-2.74,5.55-2.39,8.14,2.25,3.41,2.88,3.41h0a10.25,10.25,0,0,0,3.79,5.19c1.63,1.09,1.07,3.39-.89,4-1.59.47-3.27.76-4.91,1.11-2.36.51-3.77,1.78-4.05,3.78a56.11,56.11,0,0,0-.7,8.67,10.61,10.61,0,0,1-.1,3.24,36,36,0,0,0-1.3,12.45,2.64,2.64,0,0,1-.71,2,3.49,3.49,0,0,0-.82,3.47c.58,2.18,3.23,3.84,3.72,4s1.35-1.77,0-3c-.78-.71-.93-1.3-.21-2.19.53.87.44,1.91,1.38,2.32.34.15.41-.79.41-.79-.44-2.79-1.39-5.4-.08-8.32a24.08,24.08,0,0,0,2-10,17,17,0,0,1,.73-3.51c1.06,2.18,1.48,7.36.31,9.56a22.15,22.15,0,0,0-2.45,11.56c0,1.33.24,2.79.26,3.26.18,3.06,1.07,6,1.62,9,.7,3.8,2.75,7.46,1.61,11.45a10.6,10.6,0,0,0-.34,2.63c-.11,4.61,1.09,9.06,2.27,13.53,1,3.65.82,7.19-2.1,10.32a4.57,4.57,0,0,0-.66,1c-.56,1.17-.22,1.76,1.24,1.77,6.1.08,5.93,1.35,6.26-4.67.16-2.8-.64-5.58-.34-8.4.26-2.39.65-4.79.67-7.19.07-9.25,0-18.5,0-27.76,0-1.17-.21-2.35-.31-3.52,0-.62.43-.72,1-.72s1.08.05,1.08.68a11.62,11.62,0,0,1,0,1.18,52.4,52.4,0,0,0-.41,9.54c.26,4.23,0,8.48.07,12.72,0,3.3-.08,6.61.15,9.9.21,3,.85,6,.53,9a52.74,52.74,0,0,0-.29,5.88c0,3.32.27,3.53,4.09,3.49h.36c1.11,0,2.54.16,3.11-.6.7-.92-.42-1.81-1-2.64a9.6,9.6,0,0,1-2-3.27c-.72-3.22,0-6.32.85-9.46,1.11-4.16,2-8.35,1.35-12.69-.28-1.82-.76-3.64-.22-5.56,1-3.73,1.86-7.5,2.65-11.27.33-1.57.82-4.07.88-4.72a35.91,35.91,0,0,0-.11-6.11A25.94,25.94,0,0,0,127,69.4c-1.37-2.93-.59-5.76.2-8.67,1.45,2.16.85,4.38,1.15,6.51.42,2.94,1.64,5.71,2.34,8.58a10.15,10.15,0,0,1-.77,5.61c-.34.41.22,1.17.84.52.29-.31.6-.61,1.37-1.37a1.12,1.12,0,0,1-.27,1.82c-1.15.83-1.54,1.24-1.67,2.33-.08.79,1.66,1.47,1.95,1.11.59-.73,1.48-1.28,2.15-2A4.4,4.4,0,0,0,134.46,77.94Z"/><path class="cls-5" d="M134.46,77.94A2.77,2.77,0,0,1,133.8,76a50.67,50.67,0,0,0-.22-7.07c-.57-3.55-1.36-7.06-1.29-10.69a30.79,30.79,0,0,0-.53-6.46c-.53-2.69-4.9-4.36-6.21-4.76-3.61-1.09-4.3-2.85-2.36-4a10.71,10.71,0,0,0,2.55-2.35l-.9,1.41a3.72,3.72,0,0,0,2.65,2.42c.88.35.94,1.68.94,1.68s1.06-.1.82-2a7.13,7.13,0,0,0-2.39-5,6,6,0,0,0,.89-2.22c0-.24.07-.51.1-.8l.34.1c1.22-.82,2.74-3,1.86-6.44s-3.53-4.66-6.45-5.25-4.32.74-4.32.74-5.3-2.15-8.83.88-2.74,5.55-2.39,8.14,2.25,3.41,2.88,3.41h0a10.25,10.25,0,0,0,3.79,5.19c1.63,1.09,1.07,3.39-.89,4-1.59.47-3.27.76-4.91,1.11-2.36.51-3.77,1.78-4.05,3.78a56.11,56.11,0,0,0-.7,8.67,10.61,10.61,0,0,1-.1,3.24,36,36,0,0,0-1.3,12.45,2.64,2.64,0,0,1-.71,2,3.49,3.49,0,0,0-.82,3.47c.58,2.18,3.23,3.84,3.72,4s1.35-1.77,0-3c-.78-.71-.93-1.3-.21-2.19.53.87.44,1.91,1.38,2.32.34.15.41-.79.41-.79-.44-2.79-1.39-5.4-.08-8.32a24.08,24.08,0,0,0,2-10,17,17,0,0,1,.73-3.51c1.06,2.18,1.48,7.36.31,9.56a22.15,22.15,0,0,0-2.45,11.56c0,1.33.24,2.79.26,3.26.18,3.06,1.07,6,1.62,9,.7,3.8,2.75,7.46,1.61,11.45a10.6,10.6,0,0,0-.34,2.63c-.11,4.61,1.09,9.06,2.27,13.53,1,3.65.82,7.19-2.1,10.32a4.57,4.57,0,0,0-.66,1c-.56,1.17-.22,1.76,1.24,1.77,6.1.08,5.93,1.35,6.26-4.67.16-2.8-.64-5.58-.34-8.4.26-2.39.65-4.79.67-7.19.07-9.25,0-18.5,0-27.76,0-1.17-.21-2.35-.31-3.52,0-.62.43-.72,1-.72s1.08.05,1.08.68a11.62,11.62,0,0,1,0,1.18,52.4,52.4,0,0,0-.41,9.54c.26,4.23,0,8.48.07,12.72,0,3.3-.08,6.61.15,9.9.21,3,.85,6,.53,9a52.74,52.74,0,0,0-.29,5.88c0,3.32.27,3.53,4.09,3.49h.36c1.11,0,2.54.16,3.11-.6.7-.92-.42-1.81-1-2.64a9.6,9.6,0,0,1-2-3.27c-.72-3.22,0-6.32.85-9.46,1.11-4.16,2-8.35,1.35-12.69-.28-1.82-.76-3.64-.22-5.56,1-3.73,1.86-7.5,2.65-11.27.33-1.57.82-4.07.88-4.72a35.91,35.91,0,0,0-.11-6.11A25.94,25.94,0,0,0,127,69.4c-1.37-2.93-.59-5.76.2-8.67,1.45,2.16.85,4.38,1.15,6.51.42,2.94,1.64,5.71,2.34,8.58a10.15,10.15,0,0,1-.77,5.61c-.34.41.22,1.17.84.52.29-.31.6-.61,1.37-1.37a1.12,1.12,0,0,1-.27,1.82c-1.15.83-1.54,1.24-1.67,2.33-.08.79,1.66,1.47,1.95,1.11.59-.73,1.48-1.28,2.15-2A4.4,4.4,0,0,0,134.46,77.94Z"/><g class="cls-6"><path class="cls-7" d="M130,49.75c.41.25.8.55,1.19.84-1.32-2-4.58-3.21-5.68-3.54-3.61-1.09-4.3-2.85-2.36-4a10.71,10.71,0,0,0,2.55-2.35l-.9,1.41a3.72,3.72,0,0,0,2.65,2.42c.88.35.94,1.68.94,1.68s1.06-.1.82-2a7.13,7.13,0,0,0-2.39-5,6,6,0,0,0,.89-2.22c0-.24.07-.51.1-.8l.34.1c1.22-.82,2.74-3,1.86-6.44s-3.53-4.66-6.45-5.25-4.32.74-4.32.74-5.3-2.15-8.83.88-2.74,5.55-2.39,8.14,2.25,3.41,2.88,3.41h0a10.25,10.25,0,0,0,3.79,5.19c1.63,1.09,1.07,3.39-.89,4-1.59.47-3.27.76-4.91,1.11a5.16,5.16,0,0,0-3.46,2.12l.22-.16A10.88,10.88,0,0,1,110,48.34c1.56-.26,3.25-.36,4.48-1.2,1.83-1.25,1.88-3.63,1-5.48s-2.38-3.42-3.28-5.25a12.23,12.23,0,0,1-1.12-4.07,6.22,6.22,0,0,1,.21-2.94,3.41,3.41,0,0,1,2.31-2.1,2.62,2.62,0,0,1,2,.23c.25.15.45.34.71.47.92.45,2-.13,3-.39A9.29,9.29,0,0,1,124,28a11.25,11.25,0,0,1,3.62,1.52,3.1,3.1,0,0,1,1.49,3,4.65,4.65,0,0,1-.73,1.46l-5.78,8.8c-.73,1.12-1.46,2.53-.61,3.59a3.27,3.27,0,0,0,1.18.83C125.36,48.27,128,48.5,130,49.75Z"/></g><path class="cls-8" d="M134.46,77.94A2.77,2.77,0,0,1,133.8,76a50.67,50.67,0,0,0-.22-7.07c-.57-3.55-1.36-7.06-1.29-10.69a30.79,30.79,0,0,0-.53-6.46c-.53-2.69-4.9-4.36-6.21-4.76-3.61-1.09-4.3-2.85-2.36-4a10.71,10.71,0,0,0,2.55-2.35l-.9,1.41a3.72,3.72,0,0,0,2.65,2.42c.88.35.94,1.68.94,1.68s1.06-.1.82-2a7.13,7.13,0,0,0-2.39-5,6,6,0,0,0,.89-2.22c0-.24.07-.51.1-.8l.34.1c1.22-.82,2.74-3,1.86-6.44s-3.53-4.66-6.45-5.25-4.32.74-4.32.74-5.3-2.15-8.83.88-2.74,5.55-2.39,8.14,2.25,3.41,2.88,3.41h0a10.25,10.25,0,0,0,3.79,5.19c1.63,1.09,1.07,3.39-.89,4-1.59.47-3.27.76-4.91,1.11-2.36.51-3.77,1.78-4.05,3.78a56.11,56.11,0,0,0-.7,8.67,10.61,10.61,0,0,1-.1,3.24,36,36,0,0,0-1.3,12.45,2.64,2.64,0,0,1-.71,2,3.49,3.49,0,0,0-.82,3.47c.58,2.18,3.23,3.84,3.72,4s1.35-1.77,0-3c-.78-.71-.93-1.3-.21-2.19.53.87.44,1.91,1.38,2.32.34.15.41-.79.41-.79-.44-2.79-1.39-5.4-.08-8.32a24.08,24.08,0,0,0,2-10,17,17,0,0,1,.73-3.51c1.06,2.18,1.48,7.36.31,9.56a22.15,22.15,0,0,0-2.45,11.56c0,1.33.24,2.79.26,3.26.18,3.06,1.07,6,1.62,9,.7,3.8,2.75,7.46,1.61,11.45a10.6,10.6,0,0,0-.34,2.63c-.11,4.61,1.09,9.06,2.27,13.53,1,3.65.82,7.19-2.1,10.32a4.57,4.57,0,0,0-.66,1c-.56,1.17-.22,1.76,1.24,1.77,6.1.08,5.93,1.35,6.26-4.67.16-2.8-.64-5.58-.34-8.4.26-2.39.65-4.79.67-7.19.07-9.25,0-18.5,0-27.76,0-1.17-.21-2.35-.31-3.52,0-.62.43-.72,1-.72s1.08.05,1.08.68a11.62,11.62,0,0,1,0,1.18,52.4,52.4,0,0,0-.41,9.54c.26,4.23,0,8.48.07,12.72,0,3.3-.08,6.61.15,9.9.21,3,.85,6,.53,9a52.74,52.74,0,0,0-.29,5.88c0,3.32.27,3.53,4.09,3.49h.36c1.11,0,2.54.16,3.11-.6.7-.92-.42-1.81-1-2.64a9.6,9.6,0,0,1-2-3.27c-.72-3.22,0-6.32.85-9.46,1.11-4.16,2-8.35,1.35-12.69-.28-1.82-.76-3.64-.22-5.56,1-3.73,1.86-7.5,2.65-11.27.33-1.57.82-4.07.88-4.72a35.91,35.91,0,0,0-.11-6.11A25.94,25.94,0,0,0,127,69.4c-1.37-2.93-.59-5.76.2-8.67,1.45,2.16.85,4.38,1.15,6.51.42,2.94,1.64,5.71,2.34,8.58a10.15,10.15,0,0,1-.77,5.61c-.34.41.22,1.17.84.52.29-.31.6-.61,1.37-1.37a1.12,1.12,0,0,1-.27,1.82c-1.15.83-1.54,1.24-1.67,2.33-.08.79,1.66,1.47,1.95,1.11.59-.73,1.48-1.28,2.15-2A4.4,4.4,0,0,0,134.46,77.94Z"/><path class="cls-4" d="M87,131.74c-2-1.51-3.34-3.45-5-5.16a7.59,7.59,0,0,1-2.4-6c.18-3.68.18-7.37,0-11a34,34,0,0,0-1.19-8,21,21,0,0,1-.71-9.5,34.87,34.87,0,0,0-.78-16A52.42,52.42,0,0,1,75,65.77a30.36,30.36,0,0,1,.24-7.67c.19-1.12-.2-2.38.77-3.54,1,2.41,1.94,4.6,2,7.11.15,3.38,1.49,5.83,2.75,9l.48,1.08c.69,1.65,1.85,2.93.6,4.88-.25.39,0,1,.15,1.55a6.18,6.18,0,0,1,.55,2.41c0,.34-.3.9.34,1s.86-.42,1-.86c.18-.64-.15-1.38.55-2,.4.47,1.13,1,.63,1.5-1.19,1.17-.58,2.48-.74,3.72-.09.74.62.93,1.1,1.14.69.31.85-.32,1-.68a21.14,21.14,0,0,1,1-2.16,5.18,5.18,0,0,0-.12-6.33c-.62-.87-1.34-4-1.61-5A39.42,39.42,0,0,1,85.26,65c-.1-3.73-1.51-7.29-1.71-11C83.38,50.81,82,47.78,82,44.52c0-2.8-2-5.24-5.15-6.21-2.39-.74-4.68-1.57-7-2.5s-2.53-1.41-2-3.34a4.17,4.17,0,0,1,1.35-2.28c1.08-.89,1.53-2.06.6-3.29a9.86,9.86,0,0,0-.11-6.72,2,2,0,0,0-1.65-1.06s.82-.36,0-1.09S65.76,18,65.76,18s1.17-.55-.39-.91a2.92,2.92,0,0,0-2.6.65s.48-.62-.83-.65a3.55,3.55,0,0,0-2.25.8c.26-.55-.57-.66-1.61-.26s-1.81,3.11-1.95,3.6c-.29,1-.52,4.1.51,5.44a2.22,2.22,0,0,1-.14.32c-.81,1.37-.16,2.52,1,3.38A4.58,4.58,0,0,1,59,32.68c.27.79.75,2-.36,2.54-2.17,1-4.18,2.47-6.61,2.81-3.54.5-6.67,4.13-6.74,6.94a18.52,18.52,0,0,1-1.11,7.29C43,55,43.92,57.92,42.88,60.69s-.9,5.83-1.1,8.77a30.71,30.71,0,0,1-.41,3.31,11.58,11.58,0,0,1-1.8,4.47,5.19,5.19,0,0,0-.12,6.34c.44.67.63,1.45,1,2.15.19.37.35,1,1,.69.49-.21,1.2-.4,1.11-1.14-.16-1.24.45-2.55-.74-3.72-.5-.49.23-1,.63-1.51.7.61.37,1.35.55,2,.12.44.41.92,1,.86s.38-.62.35-1a6.14,6.14,0,0,1,.55-2.41c.17-.5.4-1.16.15-1.55-1.25-2,.29-4.49.63-5.55.53-1.65,1.45-3,2-4.44.91-2.5,2-5,1.75-7.65-.18-2.16,1.58-3.78,2.09-5.75C53,58.38,52.78,62.3,52.73,66.1a37.1,37.1,0,0,1-1.42,9.54,31,31,0,0,0-.84,14.25,27.34,27.34,0,0,1-.16,11.5c-1.34,5.64-.9,11.27-.62,16.92.12,2.36.49,4.77-1.07,6.92a26.85,26.85,0,0,1-6,6.12,1.83,1.83,0,0,0-1,1.76c.13.66,1,.75,1.64.92,2,.51,5.5-.42,6.86-1.95a14,14,0,0,1,4-3.33,2.22,2.22,0,0,0,1.47-2.3,18.39,18.39,0,0,1-.27-6.89c.52-2.76.78-5.58,2.4-8.11a7.41,7.41,0,0,0,1.09-3.91c.08-2.82-1-5.67.36-8.46.66-1.35-.12-2.89.81-4.25a21.43,21.43,0,0,0,2.29-5.31c.69-2,.91-4.06,1.91-6.2.67,2.22,1.28,4.18,1.85,6.15a25.46,25.46,0,0,0,2.59,5.68A4.68,4.68,0,0,1,69.2,97c.43,3.52,1.44,7,.78,10.59a2.86,2.86,0,0,0,.23,1.42c.89,2.68,2.6,5.12,3.09,8a30.19,30.19,0,0,1,.63,8.87,2.72,2.72,0,0,0,1.5,3.12,12.57,12.57,0,0,1,3.5,2.94,8,8,0,0,0,7.4,2.1C87.9,133.53,88.23,132.67,87,131.74Z"/><ellipse class="cls-9" cx="63.16" cy="20.98" rx="5.36" ry="2.05"/><path class="cls-9" d="M87,131.74c-2-1.51-3.34-3.45-5-5.16a7.59,7.59,0,0,1-2.4-6c.18-3.68.18-7.37,0-11a34,34,0,0,0-1.19-8,21,21,0,0,1-.71-9.5,34.87,34.87,0,0,0-.78-16A52.42,52.42,0,0,1,75,65.77a30.36,30.36,0,0,1,.24-7.67c.19-1.12-.2-2.38.77-3.54,1,2.41,1.94,4.6,2,7.11.15,3.38,1.49,5.83,2.75,9l.48,1.08c.69,1.65,1.85,2.93.6,4.88-.25.39,0,1,.15,1.55a6.18,6.18,0,0,1,.55,2.41c0,.34-.3.9.34,1s.86-.42,1-.86c.18-.64-.15-1.38.55-2,.4.47,1.13,1,.63,1.5-1.19,1.17-.58,2.48-.74,3.72-.09.74.62.93,1.1,1.14.69.31.85-.32,1-.68a21.14,21.14,0,0,1,1-2.16,5.18,5.18,0,0,0-.12-6.33c-.62-.87-1.34-4-1.61-5A39.42,39.42,0,0,1,85.26,65c-.1-3.73-1.51-7.29-1.71-11C83.38,50.81,82,47.78,82,44.52c0-2.8-2-5.24-5.15-6.21-2.39-.74-4.68-1.57-7-2.5s-2.53-1.41-2-3.34a4.17,4.17,0,0,1,1.35-2.28c1.08-.89,1.53-2.06.6-3.29a9.86,9.86,0,0,0-.11-6.72,2,2,0,0,0-1.65-1.06s.82-.36,0-1.09S65.76,18,65.76,18s1.17-.55-.39-.91a2.92,2.92,0,0,0-2.6.65s.48-.62-.83-.65a3.55,3.55,0,0,0-2.25.8c.26-.55-.57-.66-1.61-.26s-1.81,3.11-1.95,3.6c-.29,1-.52,4.1.51,5.44h0a2.22,2.22,0,0,1-.14.32c-.81,1.37-.16,2.52,1,3.38A4.58,4.58,0,0,1,59,32.68c.27.79.75,2-.36,2.54-2.17,1-4.18,2.47-6.61,2.81-3.54.5-6.67,4.13-6.74,6.94a18.52,18.52,0,0,1-1.11,7.29C43,55,43.92,57.92,42.88,60.69s-.9,5.83-1.1,8.77a30.71,30.71,0,0,1-.41,3.31,11.58,11.58,0,0,1-1.8,4.47,5.19,5.19,0,0,0-.12,6.34c.44.67.63,1.45,1,2.15.19.37.35,1,1,.69.49-.21,1.2-.4,1.11-1.14-.16-1.24.45-2.55-.74-3.72-.5-.49.23-1,.63-1.51.7.61.37,1.35.55,2,.12.44.41.92,1,.86s.38-.62.35-1a6.14,6.14,0,0,1,.55-2.41c.17-.5.4-1.16.15-1.55-1.25-2,.29-4.49.63-5.55.53-1.65,1.45-3,2-4.44.91-2.5,2-5,1.75-7.65-.18-2.16,1.58-3.78,2.09-5.75C53,58.38,52.78,62.3,52.73,66.1a37.1,37.1,0,0,1-1.42,9.54,31,31,0,0,0-.84,14.25,27.34,27.34,0,0,1-.16,11.5c-1.34,5.64-.9,11.27-.62,16.92.12,2.36.49,4.77-1.07,6.92a26.85,26.85,0,0,1-6,6.12,1.83,1.83,0,0,0-1,1.76c.13.66,1,.75,1.64.92,2,.51,5.5-.42,6.86-1.95a14,14,0,0,1,4-3.33,2.22,2.22,0,0,0,1.47-2.3,18.39,18.39,0,0,1-.27-6.89c.52-2.76.78-5.58,2.4-8.11a7.41,7.41,0,0,0,1.09-3.91c.08-2.82-1-5.67.36-8.46.66-1.35-.12-2.89.81-4.25a21.43,21.43,0,0,0,2.29-5.31c.69-2,.91-4.06,1.91-6.2.67,2.22,1.28,4.18,1.85,6.15a25.46,25.46,0,0,0,2.59,5.68A4.68,4.68,0,0,1,69.2,97c.43,3.52,1.44,7,.78,10.59a2.86,2.86,0,0,0,.23,1.42c.89,2.68,2.6,5.12,3.09,8a30.19,30.19,0,0,1,.63,8.87,2.72,2.72,0,0,0,1.5,3.12,12.57,12.57,0,0,1,3.5,2.94,8,8,0,0,0,7.4,2.1C87.9,133.53,88.23,132.67,87,131.74Z"/><path class="cls-7" d="M76.83,38.31c-2.38-.74-4.67-1.57-6.93-2.49,3.51,2,7.54,3.39,11,5.38A7.6,7.6,0,0,0,76.83,38.31Z"/><g class="cls-6"><path class="cls-7" d="M61,19.61a11.05,11.05,0,0,0,3.26.89c1,0,2.15-.42,3,.06a2.1,2.1,0,0,1,.84,1.13,9.55,9.55,0,0,1-.26,7.61,16.46,16.46,0,0,0-1,2.22,2.55,2.55,0,0,0,.27,2.32,3.76,3.76,0,0,0,.77.71,2.51,2.51,0,0,1,0-2.08,4.17,4.17,0,0,1,1.35-2.28c1.08-.89,1.53-2.06.6-3.29a9.86,9.86,0,0,0-.11-6.72,2,2,0,0,0-1.65-1.06s.82-.36,0-1.09S65.76,18,65.76,18s1.17-.55-.39-.91a2.92,2.92,0,0,0-2.6.65s.48-.62-.83-.65a3.55,3.55,0,0,0-2.25.8c.26-.55-.57-.66-1.61-.26s-1.81,3.11-1.95,3.6c-.29,1-.52,4.1.51,5.44a2.22,2.22,0,0,1-.14.32c-.81,1.37-.16,2.52,1,3.38A4.58,4.58,0,0,1,59,32.68c.27.79.75,2-.36,2.54-2.17,1-4.18,2.47-6.61,2.81a8.22,8.22,0,0,0-4.66,2.59c.59-.26,1.14-.67,1.71-1,2.39-1.3,5.68-.91,8.06-2.22a4.43,4.43,0,0,0,2.42-4.13c-.18-2-2-3.76-2.41-5.77-.38-1.8.34-3.63.3-5.46a2.86,2.86,0,0,1,.39-2C58.54,19.23,60,19.27,61,19.61Z"/></g><path class="cls-8" d="M87,131.74c-2-1.51-3.34-3.45-5-5.16a7.59,7.59,0,0,1-2.4-6c.18-3.68.18-7.37,0-11a34,34,0,0,0-1.19-8,21,21,0,0,1-.71-9.5,34.87,34.87,0,0,0-.78-16A52.42,52.42,0,0,1,75,65.77a30.36,30.36,0,0,1,.24-7.67c.19-1.12-.2-2.38.77-3.54,1,2.41,1.94,4.6,2,7.11.15,3.38,1.49,5.83,2.75,9l.48,1.08c.69,1.65,1.85,2.93.6,4.88-.25.39,0,1,.15,1.55a6.18,6.18,0,0,1,.55,2.41c0,.34-.3.9.34,1s.86-.42,1-.86c.18-.64-.15-1.38.55-2,.4.47,1.13,1,.63,1.5-1.19,1.17-.58,2.48-.74,3.72-.09.74.62.93,1.1,1.14.69.31.85-.32,1-.68a21.14,21.14,0,0,1,1-2.16,5.18,5.18,0,0,0-.12-6.33c-.62-.87-1.34-4-1.61-5A39.42,39.42,0,0,1,85.26,65c-.1-3.73-1.51-7.29-1.71-11C83.38,50.81,82,47.78,82,44.52c0-2.8-2-5.24-5.15-6.21-2.39-.74-4.68-1.57-7-2.5s-2.53-1.41-2-3.34a4.17,4.17,0,0,1,1.35-2.28c1.08-.89,1.53-2.06.6-3.29a9.86,9.86,0,0,0-.11-6.72,2,2,0,0,0-1.65-1.06s.82-.36,0-1.09S65.76,18,65.76,18s1.17-.55-.39-.91a2.92,2.92,0,0,0-2.6.65s.48-.62-.83-.65a3.55,3.55,0,0,0-2.25.8c.26-.55-.57-.66-1.61-.26s-1.81,3.11-1.95,3.6c-.29,1-.52,4.1.51,5.44a2.22,2.22,0,0,1-.14.32c-.81,1.37-.16,2.52,1,3.38A4.58,4.58,0,0,1,59,32.68c.27.79.75,2-.36,2.54-2.17,1-4.18,2.47-6.61,2.81-3.54.5-6.67,4.13-6.74,6.94a18.52,18.52,0,0,1-1.11,7.29C43,55,43.92,57.92,42.88,60.69s-.9,5.83-1.1,8.77a30.71,30.71,0,0,1-.41,3.31,11.58,11.58,0,0,1-1.8,4.47,5.19,5.19,0,0,0-.12,6.34c.44.67.63,1.45,1,2.15.19.37.35,1,1,.69.49-.21,1.2-.4,1.11-1.14-.16-1.24.45-2.55-.74-3.72-.5-.49.23-1,.63-1.51.7.61.37,1.35.55,2,.12.44.41.92,1,.86s.38-.62.35-1a6.14,6.14,0,0,1,.55-2.41c.17-.5.4-1.16.15-1.55-1.25-2,.29-4.49.63-5.55.53-1.65,1.45-3,2-4.44.91-2.5,2-5,1.75-7.65-.18-2.16,1.58-3.78,2.09-5.75C53,58.38,52.78,62.3,52.73,66.1a37.1,37.1,0,0,1-1.42,9.54,31,31,0,0,0-.84,14.25,27.34,27.34,0,0,1-.16,11.5c-1.34,5.64-.9,11.27-.62,16.92.12,2.36.49,4.77-1.07,6.92a26.85,26.85,0,0,1-6,6.12,1.83,1.83,0,0,0-1,1.76c.13.66,1,.75,1.64.92,2,.51,5.5-.42,6.86-1.95a14,14,0,0,1,4-3.33,2.22,2.22,0,0,0,1.47-2.3,18.39,18.39,0,0,1-.27-6.89c.52-2.76.78-5.58,2.4-8.11a7.41,7.41,0,0,0,1.09-3.91c.08-2.82-1-5.67.36-8.46.66-1.35-.12-2.89.81-4.25a21.43,21.43,0,0,0,2.29-5.31c.69-2,.91-4.06,1.91-6.2.67,2.22,1.28,4.18,1.85,6.15a25.46,25.46,0,0,0,2.59,5.68A4.68,4.68,0,0,1,69.2,97c.43,3.52,1.44,7,.78,10.59a2.86,2.86,0,0,0,.23,1.42c.89,2.68,2.6,5.12,3.09,8a30.19,30.19,0,0,1,.63,8.87,2.72,2.72,0,0,0,1.5,3.12,12.57,12.57,0,0,1,3.5,2.94,8,8,0,0,0,7.4,2.1C87.9,133.53,88.23,132.67,87,131.74Z"/><path class="cls-10" d="M34.54,88.38a7.47,7.47,0,0,0,6.61,3.72A8.45,8.45,0,0,0,44,91.6a22.43,22.43,0,0,1-.26,8.71c-1.38,5.83-1.09,11.44-.81,16.86,0,.46,0,.91.07,1.37,0,.3,0,.59,0,.89.07,1.16.16,2.48-.15,2.9a21.06,21.06,0,0,1-4.7,4.8c-2.51,1.83-3.67,4.34-3.17,6.88a6.53,6.53,0,0,0,3.66,4.49,10.78,10.78,0,0,0,2.52.85l.12,0a13.11,13.11,0,0,0,3.2.38c3.52,0,8.27-1.34,10.93-4.34a8,8,0,0,1,2.18-1.91c3.42-1.76,5.17-4.81,4.56-8a14.22,14.22,0,0,1-.27-5.13c.09-.46.17-.92.25-1.36a13.53,13.53,0,0,1,1.45-5,12.11,12.11,0,0,0,.88-1.67c.26.61.54,1.18.79,1.72a15.09,15.09,0,0,1,1.37,3.6,26.2,26.2,0,0,1,.6,7.48,8,8,0,0,0,4.55,8.42,7,7,0,0,1,1.74,1.57,15,15,0,0,0,11,4.57,14.44,14.44,0,0,0,3.82-.5c3.1-.87,5.22-2.74,5.82-5.14s-.42-4.77-2.79-6.55A18.58,18.58,0,0,1,89,125.11c-.59-.68-1.21-1.38-1.93-2.1a2.63,2.63,0,0,1-.87-2.21c.19-3.62.2-7.49,0-11.49a38.29,38.29,0,0,0-1.37-9.13,16.25,16.25,0,0,1-.6-7.36c.13-.7.23-1.41.32-2.11a9.36,9.36,0,0,0,1.18.08,7.42,7.42,0,0,0,6.85-4.19h0l.25-.52A22.23,22.23,0,0,1,88,88.9c-2.56,1-4.89-1-4.89-1-.11,1.21-.89,6.25-1,9.6s1.44,7.46,1.78,11.09A75,75,0,0,1,83.48,121c-.33,3,1.78,3.73,4.12,5.78s5,4.29,4.78,6.9-3.89,3.54-6.9,4.37-6.45-.64-8.34-2-2.89-3.36-5-4.29-3.12-2.7-3-5.87A34.09,34.09,0,0,0,67.91,116a60.72,60.72,0,0,0-3.23-7.37,57.48,57.48,0,0,0-3.56,6.81c-1.78,4-.77,8-.66,10.71s-1.67,4.38-3.23,5.5-3.11,2.61-5.34,4.29S46,138.47,42,137.73a5.81,5.81,0,0,1-4.78-6.34c.11-2.14,4.34-4.47,6-6a5.21,5.21,0,0,0,2-4.94,119.06,119.06,0,0,1,0-15.56c.44-4.38,1.33-7.09,1.56-10.07a15.1,15.1,0,0,0-1.34-6.33s-2.89,3-6.56,2.32A8.53,8.53,0,0,1,34.54,88.38Z"/><path class="cls-10" d="M142.09,82.09a13.49,13.49,0,0,1-8.33,7.46s-3.45,12-3.45,13.61.78,3.54,1,7.19-1.78,9.39-2.56,11.91-.78,4.1.11,5.5,3.45,3.82,3,6.43-5,3.72-7.46,4.14-6.1-.7-6.1-.7a16.38,16.38,0,0,1-11.8-.93c-3.45-1.86-1.12-6.43.44-8.66s1.11-4.66,0-8-2.22-13.14-1.78-15.09a10.23,10.23,0,0,0,0-5.22c-.44-1.59-2.56-10.25-2.56-10.25-3.87-.85-7-5.23-7.88-6.69v0c1,3.8,4.55,6.49,6.75,7.58.09.45.19.89.29,1.33.21,1,.4,1.84.57,2.72a39.33,39.33,0,0,0,1,3.85c.65,2.21,1.16,4,.74,5.44a15.13,15.13,0,0,0-.52,3.82c-.13,5.18,1.13,10,2.34,14.56l.08.29c.86,3.28.11,4.67-.83,5.68a9.15,9.15,0,0,0-1.59,2.37A5.88,5.88,0,0,0,104,137c.85,1.07,2.86,2.88,6.83,2.92.88,0,1.63.06,2.3.1s1.24.07,1.86.07a10.85,10.85,0,0,0,3.51-.53,15.93,15.93,0,0,0,4.3.46h2c4.37,0,6.61-1.75,7.72-3.22a5.84,5.84,0,0,0,.76-5.95,9.13,9.13,0,0,0-1.55-2.38l-.17-.21c-.21-.29-.41-.55-.59-.78s-.44-.57-.54-.74c-.44-2.1.11-4.45.82-7.07,1.14-4.24,2.28-9.22,1.46-14.63-.05-.33-.11-.65-.16-1a7,7,0,0,1-.18-2.62c1-3.61,1.8-7.18,2.51-10.54a6.81,6.81,0,0,0,2.63-1.88c.08-.08.27-.23.41-.35a15.26,15.26,0,0,0,1.49-1.36A9.69,9.69,0,0,0,142.09,82.09Z"/><path class="cls-11" d="M39.72,145.73a1.57,1.57,0,0,1,1.1.45,1.49,1.49,0,0,1,.48,1.13v15a1.46,1.46,0,0,1-.49,1.13,1.65,1.65,0,0,1-1.14.46,1.56,1.56,0,0,1-1.17-.46,1.54,1.54,0,0,1-.45-1.13v-15a1.52,1.52,0,0,1,.47-1.13A1.65,1.65,0,0,1,39.72,145.73Zm-.08,7.56H51.23v3H39.64Zm11.59-7.56a1.54,1.54,0,0,1,1.62,1.58v15a1.51,1.51,0,0,1-.46,1.13,1.64,1.64,0,0,1-1.21.46,1.58,1.58,0,0,1-1.1-.46,1.49,1.49,0,0,1-.48-1.13v-15a1.46,1.46,0,0,1,.49-1.13A1.64,1.64,0,0,1,51.23,145.73Z"/><path class="cls-11" d="M66.35,150a1.52,1.52,0,0,1,1.12.45,1.57,1.57,0,0,1,.44,1.13v6.61a6.07,6.07,0,0,1-1.53,4.36A5.81,5.81,0,0,1,62,164.19a5.75,5.75,0,0,1-4.41-1.62A6.06,6.06,0,0,1,56,158.21V151.6a1.53,1.53,0,0,1,.44-1.13,1.5,1.5,0,0,1,1.12-.45,1.52,1.52,0,0,1,1.12.45,1.57,1.57,0,0,1,.44,1.13v6.61a3.39,3.39,0,0,0,.7,2.35,2.73,2.73,0,0,0,2.11.77,2.76,2.76,0,0,0,2.13-.77,3.44,3.44,0,0,0,.7-2.35V151.6a1.57,1.57,0,0,1,.44-1.13A1.52,1.52,0,0,1,66.35,150Z"/><path class="cls-11" d="M78.22,149.76a4.14,4.14,0,0,1,3.07,1,4.92,4.92,0,0,1,1.3,2.58l-.44-.23.21-.42a5.67,5.67,0,0,1,1-1.28,5.85,5.85,0,0,1,1.57-1.17,4.45,4.45,0,0,1,2.07-.48,4.36,4.36,0,0,1,2.85.8,4.06,4.06,0,0,1,1.33,2.15,11,11,0,0,1,.37,3v6.66a1.57,1.57,0,0,1-.44,1.13,1.59,1.59,0,0,1-2.24,0,1.57,1.57,0,0,1-.44-1.13v-6.66a5.26,5.26,0,0,0-.21-1.54,2.17,2.17,0,0,0-.75-1.11,2.61,2.61,0,0,0-1.56-.41,3.3,3.3,0,0,0-1.69.41,2.76,2.76,0,0,0-1.06,1.11,3.39,3.39,0,0,0-.35,1.54v6.66a1.53,1.53,0,0,1-.44,1.13,1.51,1.51,0,0,1-1.12.46,1.52,1.52,0,0,1-1.12-.46,1.57,1.57,0,0,1-.44-1.13v-6.66a5.26,5.26,0,0,0-.21-1.54,2.11,2.11,0,0,0-.75-1.11,2.57,2.57,0,0,0-1.56-.41,3.33,3.33,0,0,0-1.69.41,2.67,2.67,0,0,0-1,1.11,3.26,3.26,0,0,0-.35,1.54v6.66a1.54,1.54,0,0,1-.45,1.13,1.48,1.48,0,0,1-1.11.46,1.51,1.51,0,0,1-1.12-.46,1.53,1.53,0,0,1-.44-1.13V151.6a1.53,1.53,0,0,1,.44-1.13,1.5,1.5,0,0,1,1.12-.45,1.48,1.48,0,0,1,1.11.45A1.54,1.54,0,0,1,74,151.6v1.12l-.39-.08a5.57,5.57,0,0,1,.65-.95A5.49,5.49,0,0,1,76.64,150,4.48,4.48,0,0,1,78.22,149.76Z"/><path class="cls-11" d="M105.84,149.76a1.49,1.49,0,0,1,1.12.44,1.54,1.54,0,0,1,.44,1.14v11a1.57,1.57,0,0,1-.44,1.13,1.51,1.51,0,0,1-1.12.46,1.52,1.52,0,0,1-1.12-.46,1.57,1.57,0,0,1-.44-1.13v-1.27l.57.23a1.46,1.46,0,0,1-.36.82,4.76,4.76,0,0,1-1,.95,6,6,0,0,1-1.47.79,5,5,0,0,1-1.83.33,5.9,5.9,0,0,1-3.25-.93,6.43,6.43,0,0,1-2.3-2.54,8.68,8.68,0,0,1,0-7.49,6.48,6.48,0,0,1,2.27-2.55,5.71,5.71,0,0,1,3.18-.92,6.12,6.12,0,0,1,2.05.33,6.61,6.61,0,0,1,1.63.86,5,5,0,0,1,1.06,1.06,1.67,1.67,0,0,1,.38.89l-.94.34v-1.9a1.59,1.59,0,0,1,.44-1.13A1.52,1.52,0,0,1,105.84,149.76Zm-5.25,11.57a3.46,3.46,0,0,0,2-.58,3.86,3.86,0,0,0,1.34-1.56,5,5,0,0,0,.48-2.21,5,5,0,0,0-.48-2.23,3.86,3.86,0,0,0-1.34-1.56,3.76,3.76,0,0,0-4,0,3.84,3.84,0,0,0-1.33,1.56,4.91,4.91,0,0,0-.49,2.23,4.82,4.82,0,0,0,.49,2.21,3.84,3.84,0,0,0,1.33,1.56A3.44,3.44,0,0,0,100.59,161.33Z"/><path class="cls-11" d="M117.87,149.76a4.56,4.56,0,0,1,2.92.8,4.07,4.07,0,0,1,1.38,2.15,11,11,0,0,1,.38,3v6.66a1.54,1.54,0,0,1-.45,1.13,1.48,1.48,0,0,1-1.11.46,1.51,1.51,0,0,1-1.12-.46,1.53,1.53,0,0,1-.44-1.13v-6.66a5.25,5.25,0,0,0-.22-1.54,2.19,2.19,0,0,0-.8-1.11,2.78,2.78,0,0,0-1.63-.41A3.52,3.52,0,0,0,115,153a2.83,2.83,0,0,0-1.09,1.11,3.17,3.17,0,0,0-.38,1.54v6.66a1.57,1.57,0,0,1-.44,1.13,1.59,1.59,0,0,1-2.24,0,1.57,1.57,0,0,1-.44-1.13V151.6a1.57,1.57,0,0,1,.44-1.13,1.62,1.62,0,0,1,2.24,0,1.57,1.57,0,0,1,.44,1.13v1.12l-.39-.08a5.35,5.35,0,0,1,.68-.95,6.39,6.39,0,0,1,1-.95,5.41,5.41,0,0,1,1.35-.71A4.82,4.82,0,0,1,117.87,149.76Z"/><path class="cls-11" d="M139,157a7.32,7.32,0,0,1-1,3.76,7,7,0,0,1-2.55,2.54,7.48,7.48,0,0,1-7.15,0,6.83,6.83,0,0,1-2.55-2.54,7.9,7.9,0,0,1,0-7.51,6.79,6.79,0,0,1,2.55-2.55,7.09,7.09,0,0,1,9.7,2.55A7.31,7.31,0,0,1,139,157Zm-3.12,0a4.68,4.68,0,0,0-.54-2.3,4,4,0,0,0-1.43-1.52,3.92,3.92,0,0,0-4,0,4,4,0,0,0-1.43,1.52A4.68,4.68,0,0,0,128,157a4.63,4.63,0,0,0,.54,2.28,3.88,3.88,0,0,0,1.43,1.52,3.86,3.86,0,0,0,4,0,3.88,3.88,0,0,0,1.43-1.52A4.63,4.63,0,0,0,135.87,157Z"/></g></g></g></svg>