<?xml version="1.0" encoding="utf-8"?>
<!-- Generator: Adobe Illustrator 24.0.0, SVG Export Plug-In . SVG Version: 6.00 Build 0)  -->
<svg version="1.1" id="Capa_1" xmlns="http://www.w3.org/2000/svg" xmlns:xlink="http://www.w3.org/1999/xlink" x="0px" y="0px"
	 viewBox="0 0 293 71" style="enable-background:new 0 0 293 71;" xml:space="preserve">
<style type="text/css">
	.st0{opacity:0.3;}
	.st1{fill:#FFFFFF;}
	.st2{fill:url(#SVGID_1_);}
	.st3{fill:#662D91;}
	.st4{opacity:0.5;fill:#FFFFFF;enable-background:new    ;}
	.st5{fill:#66306E;}
	.st6{fill:#FFFFFF;stroke:#662D91;stroke-width:2.981;stroke-linecap:round;stroke-linejoin:round;stroke-miterlimit:10;}
</style>
<title>lab02-btn-intentar</title>
<g>
	<g>
		<g class="st0">
			<path d="M280.1,70.8H16.8c-6.6,0-11.9-5.4-11.9-11.9V16.1c0-6.6,5.4-11.9,11.9-11.9h263.3c6.6,0,11.9,5.4,11.9,11.9v42.7
				C292.1,65.4,286.7,70.8,280.1,70.8z"/>
		</g>
		<g>
			<path class="st1" d="M276.2,66.8H12.9C6.3,66.8,1,61.4,1,54.9V12.2C1,5.6,6.4,0.3,12.9,0.3h263.3c6.6,0,11.9,5.4,11.9,11.9v42.7
				C288.1,61.4,282.7,66.8,276.2,66.8z"/>
		</g>
	</g>
	<g>
		<g>
			
				<linearGradient id="SVGID_1_" gradientUnits="userSpaceOnUse" x1="-804.8447" y1="518.1553" x2="-803.8447" y2="518.1553" gradientTransform="matrix(3.784159e-15 61.8 61.8 -3.784159e-15 -31877.4492 49742)">
				<stop  offset="0" style="stop-color:#93278F"/>
				<stop  offset="1" style="stop-color:#6E3975"/>
			</linearGradient>
			<path class="st2" d="M16.1,64.4c-6.5,0-11.8-5.3-11.8-11.8V14.4c0-6.5,5.3-11.8,11.8-11.8H273c6.5,0,11.8,5.3,11.8,11.8v38.2
				c0,6.5-5.3,11.8-11.8,11.8H16.1z"/>
		</g>
		<path class="st3" d="M273,3.3c6.1,0,11.1,5,11.1,11.1v38.2c0,6.1-5,11.1-11.1,11.1H16.1C10,63.7,5,58.7,5,52.6V14.4
			C5,8.3,10,3.3,16.1,3.3H273 M273,2H16.1C9.2,2,3.6,7.5,3.6,14.4v38.2C3.6,59.5,9.2,65,16,65h257c6.9,0,12.4-5.6,12.4-12.4V14.4
			C285.4,7.5,279.8,2,273,2L273,2z"/>
	</g>
	<g>
		<path class="st1" d="M34.2,47.8c-0.6,0-1.1-0.2-1.6-0.6L19,36.6c-0.6-0.5-1-1.2-1-2.1c0-0.8,0.4-1.6,1-2.1l13.6-10.7
			c0.5-0.4,1-0.6,1.6-0.6c1.4,0,2.6,1.2,2.6,2.6c0,0.6,0.5,2.2,0.8,2.6h4.8c1.4,0,2.6,1.2,2.6,2.6V40c0,1.4-1.2,2.6-2.6,2.6h-4.8
			c-0.3,0.4-0.8,2-0.8,2.6c0,0.7-0.3,1.4-0.8,1.9C35.5,47.5,34.8,47.8,34.2,47.8z"/>
		<path class="st3" d="M34.2,22.2c0.8,0,1.6,0.7,1.6,1.6s0.7,3.6,1.6,3.6h5c0.9,0,1.6,0.7,1.6,1.6v11c0,0.9-0.7,1.6-1.6,1.6h-5
			c-0.9,0-1.6,2.7-1.6,3.6c0,1-0.8,1.6-1.6,1.6c-0.3,0-0.7-0.1-1-0.3L19.6,35.8c-0.8-0.6-0.8-1.9,0-2.5l13.6-10.7
			C33.5,22.3,33.8,22.2,34.2,22.2 M34.2,20.2c-0.8,0-1.6,0.3-2.2,0.8L18.4,31.7c-0.9,0.7-1.4,1.7-1.4,2.8s0.5,2.1,1.4,2.8L32,48
			c0.6,0.5,1.4,0.8,2.2,0.8c2,0,3.6-1.6,3.6-3.6c0-0.3,0.2-1.1,0.4-1.6h4.2c2,0,3.6-1.6,3.6-3.6V29.1c0-2-1.6-3.6-3.6-3.6h-4.2
			c-0.2-0.5-0.4-1.3-0.4-1.6C37.8,21.9,36.2,20.2,34.2,20.2L34.2,20.2z"/>
	</g>
	<path class="st4" d="M10.6,26c0.6-2.3,1.2-4.7,1.5-7c0.8-5.8,5.8-10.2,11.7-10.2l253.3-4.6c-1.3-0.5-2.7-0.8-4.2-0.8H16.1
		C10,3.4,5,8.4,5,14.5v33.7L10.6,26z"/>
	<path class="st5" d="M278.6,41c-0.6,2.3-1.2,4.7-1.5,7c-0.8,5.8-5.8,10.2-11.7,10.2L12,62.9c1.3,0.5,2.7,0.8,4.2,0.8h256.9
		c6.1,0,11.1-5,11.1-11.1V18.9L278.6,41z"/>
	<g>
		<path class="st6" d="M57.9,42.7c0,0.5-0.2,0.9-0.5,1.2s-0.7,0.5-1.2,0.5s-0.9-0.2-1.2-0.5s-0.5-0.7-0.5-1.2V27
			c0-0.5,0.2-0.9,0.5-1.2c0.3-0.3,0.7-0.5,1.2-0.5c0.4,0,0.8,0.2,1.2,0.5c0.3,0.3,0.5,0.7,0.5,1.2V42.7z"/>
		<path class="st6" d="M69,29.5c1.3,0,2.4,0.3,3.1,0.8c0.7,0.6,1.2,1.3,1.4,2.2c0.3,0.9,0.4,2,0.4,3.1v6.9c0,0.5-0.2,0.9-0.5,1.2
			s-0.7,0.5-1.2,0.5S71.3,44,71,43.7s-0.5-0.7-0.5-1.2v-6.9c0-0.6-0.1-1.1-0.2-1.6c-0.2-0.5-0.4-0.9-0.8-1.2s-1-0.4-1.7-0.4
			s-1.3,0.1-1.8,0.4c-0.5,0.3-0.9,0.7-1.1,1.2c-0.3,0.5-0.4,1-0.4,1.6v6.9c0,0.5-0.2,0.9-0.5,1.2c-0.3,0.3-0.7,0.5-1.2,0.5
			s-0.9-0.2-1.2-0.5s-0.5-0.7-0.5-1.2v-11c0-0.5,0.2-0.9,0.5-1.2c0.3-0.3,0.7-0.5,1.2-0.5s0.9,0.2,1.2,0.5c0.3,0.3,0.5,0.7,0.5,1.2
			v1.2L64,32.6c0.2-0.3,0.4-0.6,0.7-1c0.3-0.4,0.7-0.7,1.1-1s0.9-0.6,1.4-0.7C67.8,29.6,68.3,29.5,69,29.5z"/>
		<path class="st6" d="M76.8,30.1h6.4c0.4,0,0.8,0.1,1.1,0.4c0.3,0.3,0.4,0.7,0.4,1.1s-0.1,0.8-0.4,1C84,32.9,83.6,33,83.2,33h-6.4
			c-0.4,0-0.8-0.1-1.1-0.4c-0.3-0.3-0.4-0.7-0.4-1.1s0.1-0.8,0.4-1C76,30.2,76.3,30.1,76.8,30.1z M79.7,26.7c0.5,0,0.9,0.2,1.2,0.5
			c0.3,0.3,0.4,0.7,0.4,1.2v12.1c0,0.3,0,0.5,0.1,0.6c0.1,0.2,0.2,0.3,0.4,0.4c0.2,0.1,0.4,0.1,0.6,0.1s0.4,0,0.6-0.1
			s0.4-0.1,0.6-0.1c0.3,0,0.5,0.1,0.7,0.4c0.2,0.2,0.3,0.6,0.3,1c0,0.5-0.3,0.9-0.8,1.2c-0.6,0.3-1.1,0.5-1.8,0.5
			c-0.4,0-0.8,0-1.3-0.1s-0.9-0.2-1.3-0.5c-0.4-0.2-0.7-0.6-1-1.1S78,41.6,78,40.7V28.3c0-0.5,0.2-0.9,0.5-1.2
			C78.8,26.8,79.2,26.7,79.7,26.7z"/>
		<path class="st6" d="M93.4,44.6c-1.5,0-2.9-0.3-4-1c-1.1-0.6-2-1.5-2.6-2.6s-0.9-2.4-0.9-3.7c0-1.6,0.3-3,1-4.2
			c0.7-1.1,1.5-2,2.6-2.6s2.2-0.9,3.4-0.9c0.9,0,1.8,0.2,2.6,0.6c0.8,0.4,1.6,0.9,2.2,1.6s1.1,1.4,1.5,2.3c0.4,0.9,0.6,1.8,0.6,2.8
			c0,0.4-0.2,0.8-0.5,1.1s-0.7,0.4-1.1,0.4H87.7l-0.8-2.7h10L96.3,36v-0.7c0-0.5-0.2-1-0.6-1.4c-0.3-0.4-0.8-0.7-1.2-1
			c-0.5-0.2-1-0.4-1.6-0.4c-0.5,0-1,0.1-1.5,0.2c-0.5,0.1-0.9,0.4-1.2,0.7c-0.3,0.3-0.6,0.8-0.8,1.4c-0.2,0.6-0.3,1.3-0.3,2.2
			c0,1,0.2,1.8,0.6,2.5s0.9,1.2,1.6,1.5c0.6,0.4,1.3,0.5,2.1,0.5c0.7,0,1.2-0.1,1.6-0.2c0.4-0.1,0.7-0.2,1-0.4
			c0.2-0.2,0.5-0.3,0.7-0.4c0.3-0.2,0.6-0.2,0.9-0.2c0.4,0,0.7,0.1,1,0.4c0.3,0.3,0.4,0.6,0.4,0.9c0,0.5-0.3,0.9-0.8,1.3
			c-0.5,0.4-1.1,0.7-2,1C95.2,44.5,94.3,44.6,93.4,44.6z"/>
		<path class="st6" d="M110,29.5c1.3,0,2.4,0.3,3.1,0.8c0.7,0.6,1.2,1.3,1.4,2.2c0.3,0.9,0.4,2,0.4,3.1v6.9c0,0.5-0.2,0.9-0.5,1.2
			s-0.7,0.5-1.2,0.5s-0.9-0.2-1.2-0.5c-0.3-0.3-0.5-0.7-0.5-1.2v-6.9c0-0.6-0.1-1.1-0.2-1.6c-0.2-0.5-0.4-0.9-0.8-1.2
			s-1-0.4-1.7-0.4s-1.3,0.1-1.8,0.4c-0.5,0.3-0.9,0.7-1.1,1.2c-0.3,0.5-0.4,1-0.4,1.6v6.9c0,0.5-0.2,0.9-0.5,1.2s-0.7,0.5-1.2,0.5
			s-0.9-0.2-1.2-0.5c-0.3-0.3-0.5-0.7-0.5-1.2v-11c0-0.5,0.2-0.9,0.5-1.2c0.3-0.3,0.7-0.5,1.2-0.5s0.9,0.2,1.2,0.5
			c0.3,0.3,0.5,0.7,0.5,1.2v1.2l-0.4-0.1c0.2-0.3,0.4-0.6,0.7-1c0.3-0.4,0.7-0.7,1.1-1s0.9-0.6,1.4-0.7
			C108.8,29.6,109.4,29.5,110,29.5z"/>
		<path class="st6" d="M117.8,30.1h6.4c0.4,0,0.8,0.1,1.1,0.4c0.3,0.3,0.4,0.7,0.4,1.1s-0.1,0.8-0.4,1c-0.3,0.3-0.7,0.4-1.1,0.4
			h-6.4c-0.4,0-0.8-0.1-1.1-0.4c-0.3-0.3-0.4-0.7-0.4-1.1s0.1-0.8,0.4-1C117,30.2,117.3,30.1,117.8,30.1z M120.7,26.7
			c0.5,0,0.9,0.2,1.2,0.5c0.3,0.3,0.4,0.7,0.4,1.2v12.1c0,0.3,0,0.5,0.1,0.6c0.1,0.2,0.2,0.3,0.4,0.4c0.2,0.1,0.4,0.1,0.6,0.1
			s0.4,0,0.6-0.1s0.4-0.1,0.6-0.1c0.3,0,0.5,0.1,0.7,0.4c0.2,0.2,0.3,0.6,0.3,1c0,0.5-0.3,0.9-0.8,1.2c-0.6,0.3-1.1,0.5-1.8,0.5
			c-0.4,0-0.8,0-1.3-0.1s-0.9-0.2-1.3-0.5c-0.4-0.2-0.7-0.6-1-1.1s-0.4-1.2-0.4-2.1V28.3c0-0.5,0.2-0.9,0.5-1.2
			C119.8,26.8,120.2,26.7,120.7,26.7z"/>
		<path class="st6" d="M139.5,29.5c0.5,0,0.9,0.2,1.2,0.5s0.5,0.7,0.5,1.2v11.5c0,0.5-0.2,0.9-0.5,1.2s-0.7,0.5-1.2,0.5
			s-0.9-0.2-1.2-0.5s-0.5-0.7-0.5-1.2v-1.3l0.6,0.2c0,0.2-0.1,0.5-0.4,0.9c-0.3,0.3-0.6,0.7-1,1s-0.9,0.6-1.5,0.8s-1.2,0.3-1.9,0.3
			c-1.2,0-2.4-0.3-3.4-1c-1-0.6-1.8-1.5-2.4-2.7c-0.6-1.1-0.9-2.4-0.9-3.9s0.3-2.8,0.9-3.9c0.6-1.1,1.4-2,2.4-2.7c1-0.6,2.1-1,3.3-1
			c0.8,0,1.5,0.1,2.1,0.4c0.7,0.2,1.2,0.5,1.7,0.9s0.9,0.7,1.1,1.1c0.3,0.4,0.4,0.7,0.4,0.9l-1,0.4v-2c0-0.5,0.2-0.9,0.5-1.2
			C138.7,29.7,139,29.5,139.5,29.5z M134,41.6c0.8,0,1.5-0.2,2.1-0.6c0.6-0.4,1.1-0.9,1.4-1.6c0.3-0.7,0.5-1.5,0.5-2.3
			c0-0.9-0.2-1.6-0.5-2.3s-0.8-1.2-1.4-1.6c-0.6-0.4-1.3-0.6-2.1-0.6s-1.5,0.2-2.1,0.6c-0.6,0.4-1.1,0.9-1.4,1.6
			c-0.3,0.7-0.5,1.5-0.5,2.3c0,0.9,0.2,1.6,0.5,2.3s0.8,1.2,1.4,1.6C132.6,41.4,133.2,41.6,134,41.6z"/>
		<path class="st6" d="M145.9,44.3c-0.5,0-0.9-0.2-1.2-0.5s-0.5-0.7-0.5-1.2V31.5c0-0.5,0.2-0.9,0.5-1.2c0.3-0.3,0.7-0.5,1.2-0.5
			s0.9,0.2,1.2,0.5s0.5,0.7,0.5,1.2V34l-0.2-1.8c0.2-0.4,0.5-0.8,0.8-1.2c0.3-0.3,0.7-0.6,1.1-0.8c0.4-0.2,0.8-0.4,1.3-0.5
			s0.9-0.2,1.4-0.2s1,0.2,1.4,0.5s0.6,0.7,0.6,1.1c0,0.6-0.2,1-0.5,1.3c-0.3,0.3-0.6,0.4-1,0.4c-0.3,0-0.7-0.1-0.9-0.2
			c-0.3-0.1-0.6-0.2-1-0.2c-0.3,0-0.7,0.1-1,0.2c-0.3,0.2-0.6,0.4-0.9,0.7c-0.3,0.3-0.5,0.7-0.7,1.2s-0.3,1-0.3,1.7v6.4
			c0,0.5-0.2,0.9-0.5,1.2C146.8,44.2,146.4,44.3,145.9,44.3z"/>
		<path class="st6" d="M177.6,37.1c0,1.5-0.3,2.8-1,3.9c-0.7,1.1-1.5,2-2.7,2.6c-1.1,0.6-2.4,0.9-3.7,0.9c-1.4,0-2.6-0.3-3.7-0.9
			c-1.1-0.6-2-1.5-2.7-2.6s-1-2.4-1-3.9s0.3-2.8,1-3.9c0.7-1.1,1.5-2,2.7-2.7c1.1-0.6,2.4-1,3.7-1c1.4,0,2.6,0.3,3.7,1
			c1.1,0.6,2,1.5,2.7,2.7C177.3,34.3,177.6,35.6,177.6,37.1z M174.4,37.1c0-0.9-0.2-1.7-0.6-2.4c-0.4-0.7-0.9-1.2-1.5-1.6
			c-0.6-0.4-1.3-0.6-2.1-0.6s-1.5,0.2-2.1,0.6c-0.6,0.4-1.1,0.9-1.5,1.6c-0.4,0.7-0.6,1.5-0.6,2.4s0.2,1.7,0.6,2.4
			c0.4,0.7,0.9,1.2,1.5,1.6c0.6,0.4,1.3,0.6,2.1,0.6s1.5-0.2,2.1-0.6c0.6-0.4,1.1-0.9,1.5-1.6C174.2,38.8,174.4,38,174.4,37.1z"/>
		<path class="st6" d="M179.7,30.1h6.4c0.4,0,0.8,0.1,1.1,0.4s0.4,0.7,0.4,1.1s-0.1,0.8-0.4,1c-0.3,0.3-0.7,0.4-1.1,0.4h-6.4
			c-0.4,0-0.8-0.1-1.1-0.4c-0.3-0.3-0.4-0.7-0.4-1.1s0.1-0.8,0.4-1C178.9,30.2,179.3,30.1,179.7,30.1z M182.6,26.7
			c0.5,0,0.9,0.2,1.2,0.5s0.4,0.7,0.4,1.2v12.1c0,0.3,0,0.5,0.1,0.6c0.1,0.2,0.2,0.3,0.4,0.4c0.2,0.1,0.4,0.1,0.6,0.1
			c0.2,0,0.4,0,0.6-0.1c0.2-0.1,0.4-0.1,0.6-0.1c0.3,0,0.5,0.1,0.7,0.4c0.2,0.2,0.3,0.6,0.3,1c0,0.5-0.3,0.9-0.8,1.2
			c-0.6,0.3-1.1,0.5-1.8,0.5c-0.4,0-0.8,0-1.3-0.1s-0.9-0.2-1.3-0.5c-0.4-0.2-0.7-0.6-1-1.1s-0.4-1.2-0.4-2.1V28.3
			c0-0.5,0.2-0.9,0.5-1.2C181.7,26.8,182.1,26.7,182.6,26.7z"/>
		<path class="st6" d="M191.9,44.3c-0.5,0-0.9-0.2-1.2-0.5s-0.5-0.7-0.5-1.2V31.5c0-0.5,0.2-0.9,0.5-1.2c0.3-0.3,0.7-0.5,1.2-0.5
			s0.9,0.2,1.2,0.5s0.5,0.7,0.5,1.2V34l-0.2-1.8c0.2-0.4,0.5-0.8,0.8-1.2c0.3-0.3,0.7-0.6,1.1-0.8c0.4-0.2,0.8-0.4,1.3-0.5
			s0.9-0.2,1.4-0.2s1,0.2,1.4,0.5s0.6,0.7,0.6,1.1c0,0.6-0.2,1-0.5,1.3c-0.3,0.3-0.6,0.4-1,0.4c-0.3,0-0.7-0.1-0.9-0.2
			c-0.3-0.1-0.6-0.2-1-0.2c-0.3,0-0.7,0.1-1,0.2c-0.3,0.2-0.6,0.4-0.9,0.7c-0.3,0.3-0.5,0.7-0.7,1.2s-0.3,1-0.3,1.7v6.4
			c0,0.5-0.2,0.9-0.5,1.2C192.8,44.2,192.4,44.3,191.9,44.3z"/>
		<path class="st6" d="M213,29.5c0.5,0,0.9,0.2,1.2,0.5s0.5,0.7,0.5,1.2v11.5c0,0.5-0.2,0.9-0.5,1.2s-0.7,0.5-1.2,0.5
			s-0.9-0.2-1.2-0.5s-0.5-0.7-0.5-1.2v-1.3l0.6,0.2c0,0.2-0.1,0.5-0.4,0.9c-0.3,0.3-0.6,0.7-1,1s-0.9,0.6-1.5,0.8s-1.2,0.3-1.9,0.3
			c-1.2,0-2.4-0.3-3.4-1c-1-0.6-1.8-1.5-2.4-2.7c-0.6-1.1-0.9-2.4-0.9-3.9s0.3-2.8,0.9-3.9c0.6-1.1,1.4-2,2.4-2.7c1-0.6,2.1-1,3.3-1
			c0.8,0,1.5,0.1,2.1,0.4c0.7,0.2,1.2,0.5,1.7,0.9s0.9,0.7,1.1,1.1c0.3,0.4,0.4,0.7,0.4,0.9l-1,0.4v-2c0-0.5,0.2-0.9,0.5-1.2
			C212.2,29.7,212.5,29.5,213,29.5z M207.5,41.6c0.8,0,1.5-0.2,2.1-0.6c0.6-0.4,1.1-0.9,1.4-1.6c0.3-0.7,0.5-1.5,0.5-2.3
			c0-0.9-0.2-1.6-0.5-2.3s-0.8-1.2-1.4-1.6c-0.6-0.4-1.3-0.6-2.1-0.6s-1.5,0.2-2.1,0.6c-0.6,0.4-1.1,0.9-1.4,1.6
			c-0.3,0.7-0.5,1.5-0.5,2.3c0,0.9,0.2,1.6,0.5,2.3s0.8,1.2,1.4,1.6C206.1,41.4,206.8,41.6,207.5,41.6z"/>
		<path class="st6" d="M226.4,29.8c0.3,0,0.7,0.1,0.9,0.3c0.3,0.2,0.5,0.4,0.7,0.8l4,9.1l-0.6,0.3l4.1-9.4c0.3-0.7,0.8-1.1,1.4-1
			c0.5,0,0.8,0.1,1.1,0.4s0.4,0.6,0.4,1c0,0.1,0,0.3-0.1,0.4c0,0.1-0.1,0.3-0.1,0.4l-5.1,11.2c-0.3,0.7-0.8,1-1.4,1
			c-0.3,0.1-0.7,0-1-0.2s-0.6-0.5-0.7-0.8l-5-11.2c0-0.1-0.1-0.2-0.1-0.4c0-0.1-0.1-0.3-0.1-0.5c0-0.3,0.1-0.6,0.4-1
			C225.6,30,225.9,29.8,226.4,29.8z"/>
		<path class="st6" d="M246.8,44.6c-1.5,0-2.9-0.3-4-1c-1.1-0.6-2-1.5-2.6-2.6s-0.9-2.4-0.9-3.7c0-1.6,0.3-3,1-4.2
			c0.7-1.1,1.5-2,2.6-2.6s2.2-0.9,3.4-0.9c0.9,0,1.8,0.2,2.6,0.6s1.6,0.9,2.2,1.6c0.6,0.7,1.1,1.4,1.5,2.3c0.4,0.9,0.6,1.8,0.6,2.8
			c0,0.4-0.2,0.8-0.5,1.1s-0.7,0.4-1.1,0.4h-10.4l-0.8-2.7h10l-0.6,0.5v-0.7c0-0.5-0.2-1-0.6-1.4c-0.3-0.4-0.8-0.7-1.2-1
			c-0.5-0.2-1-0.4-1.6-0.4c-0.5,0-1,0.1-1.5,0.2s-0.9,0.4-1.2,0.7s-0.6,0.8-0.8,1.4c-0.2,0.6-0.3,1.3-0.3,2.2c0,1,0.2,1.8,0.6,2.5
			c0.4,0.7,0.9,1.2,1.6,1.5c0.6,0.4,1.3,0.5,2.1,0.5c0.7,0,1.2-0.1,1.6-0.2c0.4-0.1,0.7-0.2,1-0.4c0.2-0.2,0.5-0.3,0.7-0.4
			c0.3-0.2,0.6-0.2,0.9-0.2c0.4,0,0.7,0.1,1,0.4c0.3,0.3,0.4,0.6,0.4,0.9c0,0.5-0.3,0.9-0.8,1.3c-0.5,0.4-1.1,0.7-2,1
			C248.6,44.5,247.7,44.6,246.8,44.6z"/>
		<path class="st6" d="M264.4,41.4c0.4,0,0.8,0.1,1.1,0.4c0.3,0.3,0.4,0.6,0.4,1.1c0,0.4-0.1,0.8-0.4,1.1s-0.7,0.4-1.1,0.4h-8.7
			c-0.5,0-0.8-0.2-1.1-0.5s-0.4-0.7-0.4-1s0.1-0.5,0.1-0.7c0.1-0.2,0.2-0.4,0.4-0.7l6.8-8.7l-0.1,0.4h-5.5c-0.4,0-0.8-0.1-1.1-0.4
			c-0.3-0.3-0.4-0.7-0.4-1.1s0.1-0.8,0.4-1c0.3-0.3,0.7-0.4,1.1-0.4h8.4c0.4,0,0.8,0.2,1.1,0.5c0.3,0.3,0.4,0.7,0.4,1.2
			c0,0.2-0.1,0.4-0.1,0.5c0,0.2-0.2,0.4-0.4,0.7l-6.7,8.6v-0.2h5.8L264.4,41.4L264.4,41.4z"/>
	</g>
	<g>
		<path class="st1" d="M56.2,25.3c-0.5,0-0.9,0.2-1.2,0.5s-0.5,0.7-0.5,1.2v15.7c0,0.5,0.2,0.9,0.5,1.2s0.7,0.5,1.2,0.5
			s0.9-0.2,1.2-0.5s0.5-0.7,0.5-1.2V27c0-0.5-0.2-0.9-0.5-1.2C57,25.5,56.6,25.3,56.2,25.3z"/>
		<path class="st1" d="M72,30.4c-0.7-0.6-1.7-0.8-3.1-0.8c-0.6,0-1.2,0.1-1.7,0.3s-1,0.4-1.4,0.7c-0.4,0.3-0.8,0.6-1.1,1
			c-0.1,0.1-0.2,0.3-0.3,0.4v-0.5c0-0.5-0.2-0.9-0.5-1.2c-0.3-0.3-0.7-0.5-1.2-0.5s-0.9,0.2-1.2,0.5S61,31,61,31.5v11.2
			c0,0.5,0.2,0.9,0.5,1.2s0.7,0.5,1.2,0.5s0.9-0.2,1.2-0.5c0.3-0.3,0.5-0.7,0.5-1.2v-6.9c0-0.6,0.1-1.1,0.4-1.6s0.6-0.9,1.1-1.2
			s1.1-0.4,1.8-0.4c0.7,0,1.3,0.1,1.7,0.4c0.4,0.3,0.7,0.7,0.8,1.2c0.2,0.5,0.2,1,0.2,1.6v6.9c0,0.5,0.2,0.9,0.5,1.2
			s0.7,0.5,1.2,0.5s0.9-0.2,1.2-0.5c0.3-0.3,0.5-0.7,0.5-1.2v-6.9c0-1.1-0.1-2.2-0.4-3.1C73.2,31.7,72.7,30.9,72,30.4z"/>
		<path class="st1" d="M83.2,33.1c0.4,0,0.8-0.1,1.1-0.4c0.3-0.3,0.4-0.6,0.4-1c0-0.4-0.1-0.8-0.4-1.1c-0.3-0.3-0.7-0.4-1.1-0.4
			h-1.9v-1.7c0-0.5-0.1-0.9-0.4-1.2c-0.3-0.3-0.7-0.5-1.2-0.5s-0.9,0.2-1.2,0.5C78.2,27.6,78,28,78,28.5v1.7h-1.2
			c-0.4,0-0.8,0.1-1.1,0.4c-0.3,0.3-0.4,0.6-0.4,1s0.1,0.8,0.4,1.1s0.7,0.4,1.1,0.4H78v7.5c0,0.9,0.1,1.6,0.4,2.1s0.6,0.9,1,1.1
			c0.4,0.2,0.8,0.4,1.3,0.5s0.9,0.1,1.3,0.1c0.6,0,1.2-0.2,1.8-0.5c0.6-0.3,0.8-0.7,0.8-1.2c0-0.4-0.1-0.7-0.3-1
			c-0.2-0.2-0.4-0.4-0.7-0.4c-0.2,0-0.4,0-0.6,0.1s-0.4,0.1-0.6,0.1s-0.4,0-0.6-0.1s-0.3-0.2-0.4-0.4s-0.1-0.4-0.1-0.6V33L83.2,33.1
			L83.2,33.1L83.2,33.1z"/>
		<path class="st1" d="M97.7,31.7c-0.6-0.7-1.4-1.2-2.2-1.6c-0.8-0.4-1.7-0.6-2.6-0.6c-1.2,0-2.3,0.3-3.4,0.9s-1.9,1.5-2.6,2.6
			c-0.7,1.1-1,2.5-1,4.2c0,1.4,0.3,2.6,0.9,3.7c0.6,1.1,1.5,2,2.6,2.6s2.5,1,4,1c0.9,0,1.8-0.1,2.6-0.4c0.8-0.3,1.5-0.6,2-1
			s0.8-0.8,0.8-1.3c0-0.4-0.1-0.7-0.4-0.9c-0.3-0.3-0.6-0.4-1-0.4c-0.3,0-0.6,0.1-0.9,0.2c-0.2,0.1-0.4,0.2-0.7,0.4
			c-0.2,0.2-0.6,0.3-1,0.4c-0.4,0.1-0.9,0.2-1.6,0.2s-1.4-0.2-2.1-0.5c-0.6-0.4-1.2-0.9-1.6-1.5c-0.2-0.4-0.4-0.8-0.5-1.3h9
			c0.4,0,0.8-0.1,1.1-0.4c0.3-0.3,0.5-0.6,0.5-1.1c0-1-0.2-1.9-0.6-2.8C98.8,33.1,98.3,32.3,97.7,31.7z M90.1,33.5
			c0.3-0.3,0.8-0.6,1.2-0.7c0.5-0.1,1-0.2,1.5-0.2c0.6,0,1.1,0.1,1.6,0.4c0.5,0.2,0.9,0.6,1.2,1c0.3,0.4,0.5,0.9,0.6,1.4v0.2h-7.1
			c0-0.2,0.1-0.4,0.2-0.6C89.5,34.3,89.8,33.8,90.1,33.5z"/>
		<path class="st1" d="M113,30.4c-0.7-0.6-1.7-0.8-3.1-0.8c-0.6,0-1.2,0.1-1.7,0.3s-1,0.4-1.4,0.7c-0.4,0.3-0.8,0.6-1.1,1
			c-0.1,0.1-0.2,0.3-0.3,0.4v-0.5c0-0.5-0.2-0.9-0.5-1.2c-0.3-0.3-0.7-0.5-1.2-0.5s-0.9,0.2-1.2,0.5c-0.3,0.3-0.5,0.7-0.5,1.2v11.2
			c0,0.5,0.2,0.9,0.5,1.2s0.7,0.5,1.2,0.5s0.9-0.2,1.2-0.5c0.3-0.3,0.5-0.7,0.5-1.2v-6.9c0-0.6,0.1-1.1,0.4-1.6s0.6-0.9,1.1-1.2
			s1.1-0.4,1.8-0.4c0.7,0,1.3,0.1,1.7,0.4c0.4,0.3,0.7,0.7,0.8,1.2c0.2,0.5,0.2,1,0.2,1.6v6.9c0,0.5,0.2,0.9,0.5,1.2
			s0.7,0.5,1.2,0.5s0.9-0.2,1.2-0.5c0.3-0.3,0.5-0.7,0.5-1.2v-6.9c0-1.1-0.1-2.2-0.4-3.1C114.2,31.7,113.7,30.9,113,30.4z"/>
		<path class="st1" d="M124.2,33.1c0.4,0,0.8-0.1,1.1-0.4c0.3-0.3,0.4-0.6,0.4-1c0-0.4-0.1-0.8-0.4-1.1c-0.3-0.3-0.7-0.4-1.1-0.4
			h-1.9v-1.7c0-0.5-0.1-0.9-0.4-1.2c-0.3-0.3-0.7-0.5-1.2-0.5s-0.9,0.2-1.2,0.5c-0.3,0.3-0.5,0.7-0.5,1.2v1.7h-1.2
			c-0.4,0-0.8,0.1-1.1,0.4c-0.3,0.3-0.4,0.6-0.4,1s0.1,0.8,0.4,1.1s0.7,0.4,1.1,0.4h1.2v7.5c0,0.9,0.1,1.6,0.4,2.1s0.6,0.9,1,1.1
			c0.4,0.2,0.8,0.4,1.3,0.5s0.9,0.1,1.3,0.1c0.6,0,1.2-0.2,1.8-0.5c0.6-0.3,0.8-0.7,0.8-1.2c0-0.4-0.1-0.7-0.3-1
			c-0.2-0.2-0.4-0.4-0.7-0.4c-0.2,0-0.4,0-0.6,0.1s-0.4,0.1-0.6,0.1s-0.4,0-0.6-0.1s-0.3-0.2-0.4-0.4s-0.1-0.4-0.1-0.6V33
			L124.2,33.1L124.2,33.1L124.2,33.1z"/>
		<path class="st1" d="M139.5,29.5c-0.5,0-0.9,0.2-1.2,0.5s-0.5,0.7-0.5,1.2l0,0c-0.2-0.2-0.3-0.3-0.5-0.5c-0.5-0.4-1-0.7-1.7-0.9
			c-0.7-0.2-1.4-0.4-2.1-0.4c-1.2,0-2.3,0.3-3.3,1c-1,0.6-1.8,1.5-2.4,2.7c-0.6,1.1-0.9,2.4-0.9,3.9s0.3,2.8,0.9,3.9
			c0.6,1.1,1.4,2,2.4,2.7c1,0.6,2.1,1,3.4,1c0.7,0,1.3-0.1,1.9-0.3c0.6-0.2,1.1-0.5,1.5-0.8c0.3-0.2,0.6-0.5,0.8-0.8
			c0,0.5,0.2,0.9,0.5,1.2s0.7,0.5,1.2,0.5s0.9-0.2,1.2-0.5s0.5-0.7,0.5-1.2V31.2c0-0.5-0.2-0.9-0.5-1.2
			C140.4,29.7,140,29.5,139.5,29.5z M137.5,39.4c-0.3,0.7-0.8,1.2-1.4,1.6c-0.6,0.4-1.3,0.6-2.1,0.6s-1.5-0.2-2.1-0.6
			c-0.6-0.4-1.1-0.9-1.4-1.6c-0.3-0.7-0.5-1.5-0.5-2.3c0-0.9,0.2-1.6,0.5-2.3s0.8-1.2,1.4-1.6c0.6-0.4,1.3-0.6,2.1-0.6
			s1.5,0.2,2.1,0.6c0.6,0.4,1.1,0.9,1.4,1.6c0.3,0.7,0.5,1.5,0.5,2.3S137.9,38.7,137.5,39.4z"/>
		<path class="st1" d="M153.2,30c-0.4-0.3-0.8-0.5-1.4-0.5c-0.5,0-0.9,0.1-1.4,0.2s-0.9,0.3-1.3,0.5c-0.4,0.2-0.8,0.5-1.1,0.8
			c-0.2,0.2-0.4,0.5-0.6,0.8v-0.4c0-0.5-0.2-0.9-0.5-1.2c-0.3-0.3-0.7-0.5-1.2-0.5s-0.9,0.2-1.2,0.5s-0.5,0.7-0.5,1.2v11.2
			c0,0.5,0.2,0.9,0.5,1.2s0.7,0.5,1.2,0.5s0.9-0.2,1.2-0.5s0.5-0.7,0.5-1.2v-6.4c0-0.7,0.1-1.2,0.3-1.7s0.4-0.9,0.7-1.2
			s0.6-0.6,0.9-0.7c0.3-0.2,0.7-0.2,1-0.2c0.4,0,0.7,0.1,1,0.2c0.3,0.1,0.6,0.2,0.9,0.2c0.4,0,0.7-0.1,1-0.4
			c0.3-0.3,0.5-0.7,0.5-1.3C153.8,30.7,153.6,30.3,153.2,30z"/>
		<path class="st1" d="M174,30.5c-1.1-0.6-2.4-1-3.7-1c-1.4,0-2.6,0.3-3.7,1c-1.1,0.6-2,1.5-2.7,2.7c-0.7,1.1-1,2.4-1,3.9
			s0.3,2.8,1,3.9c0.7,1.1,1.5,2,2.7,2.6c1.1,0.6,2.4,0.9,3.7,0.9c1.4,0,2.6-0.3,3.7-0.9c1.1-0.6,2-1.5,2.7-2.6s1-2.4,1-3.9
			s-0.3-2.8-1-3.9C176,32,175.1,31.1,174,30.5z M173.8,39.5c-0.4,0.7-0.9,1.2-1.5,1.6c-0.6,0.4-1.3,0.6-2.1,0.6s-1.5-0.2-2.1-0.6
			c-0.6-0.4-1.1-0.9-1.5-1.6c-0.4-0.7-0.6-1.5-0.6-2.4s0.2-1.7,0.6-2.4c0.4-0.7,0.9-1.2,1.5-1.6c0.6-0.4,1.3-0.6,2.1-0.6
			s1.5,0.2,2.1,0.6c0.6,0.4,1.1,0.9,1.5,1.6c0.4,0.7,0.6,1.5,0.6,2.4C174.4,38,174.2,38.8,173.8,39.5z"/>
		<path class="st1" d="M186.1,33.1c0.4,0,0.8-0.1,1.1-0.4c0.3-0.3,0.4-0.6,0.4-1c0-0.4-0.1-0.8-0.4-1.1c-0.3-0.3-0.7-0.4-1.1-0.4
			h-1.9v-1.7c0-0.5-0.1-0.9-0.4-1.2c-0.3-0.3-0.7-0.5-1.2-0.5s-0.9,0.2-1.2,0.5s-0.5,0.7-0.5,1.2v1.7h-1.2c-0.4,0-0.8,0.1-1.1,0.4
			s-0.4,0.6-0.4,1s0.1,0.8,0.4,1.1c0.3,0.3,0.7,0.4,1.1,0.4h1.2v7.5c0,0.9,0.1,1.6,0.4,2.1c0.3,0.5,0.6,0.9,1,1.1
			c0.4,0.2,0.8,0.4,1.3,0.5s0.9,0.1,1.3,0.1c0.6,0,1.2-0.2,1.8-0.5s0.8-0.7,0.8-1.2c0-0.4-0.1-0.7-0.3-1c-0.2-0.2-0.4-0.4-0.7-0.4
			c-0.2,0-0.4,0-0.6,0.1c-0.2,0.1-0.4,0.1-0.6,0.1c-0.2,0-0.4,0-0.6-0.1c-0.2-0.1-0.3-0.2-0.4-0.4c-0.1-0.2-0.1-0.4-0.1-0.6V33
			L186.1,33.1L186.1,33.1z"/>
		<path class="st1" d="M199.2,30c-0.4-0.3-0.8-0.5-1.4-0.5c-0.5,0-0.9,0.1-1.4,0.2s-0.9,0.3-1.3,0.5c-0.4,0.2-0.8,0.5-1.1,0.8
			c-0.2,0.2-0.4,0.5-0.6,0.8v-0.4c0-0.5-0.2-0.9-0.5-1.2c-0.3-0.3-0.7-0.5-1.2-0.5s-0.9,0.2-1.2,0.5s-0.5,0.7-0.5,1.2v11.2
			c0,0.5,0.2,0.9,0.5,1.2s0.7,0.5,1.2,0.5s0.9-0.2,1.2-0.5s0.5-0.7,0.5-1.2v-6.4c0-0.7,0.1-1.2,0.3-1.7s0.4-0.9,0.7-1.2
			s0.6-0.6,0.9-0.7c0.3-0.2,0.7-0.2,1-0.2c0.4,0,0.7,0.1,1,0.2c0.3,0.1,0.6,0.2,0.9,0.2c0.4,0,0.7-0.1,1-0.4
			c0.3-0.3,0.5-0.7,0.5-1.3C199.8,30.7,199.6,30.3,199.2,30z"/>
		<path class="st1" d="M213,29.5c-0.5,0-0.9,0.2-1.2,0.5s-0.5,0.7-0.5,1.2l0,0c-0.2-0.2-0.3-0.3-0.5-0.5c-0.5-0.4-1-0.7-1.7-0.9
			c-0.7-0.2-1.4-0.4-2.1-0.4c-1.2,0-2.3,0.3-3.3,1c-1,0.6-1.8,1.5-2.4,2.7c-0.6,1.1-0.9,2.4-0.9,3.9s0.3,2.8,0.9,3.9
			c0.6,1.1,1.4,2,2.4,2.7c1,0.6,2.1,1,3.4,1c0.7,0,1.3-0.1,1.9-0.3c0.6-0.2,1.1-0.5,1.5-0.8c0.3-0.2,0.6-0.5,0.8-0.8
			c0,0.5,0.2,0.9,0.5,1.2s0.7,0.5,1.2,0.5s0.9-0.2,1.2-0.5s0.5-0.7,0.5-1.2V31.2c0-0.5-0.2-0.9-0.5-1.2
			C213.9,29.7,213.5,29.5,213,29.5z M211,39.4c-0.3,0.7-0.8,1.2-1.4,1.6c-0.6,0.4-1.3,0.6-2.1,0.6s-1.5-0.2-2.1-0.6
			c-0.6-0.4-1.1-0.9-1.4-1.6c-0.3-0.7-0.5-1.5-0.5-2.3c0-0.9,0.2-1.6,0.5-2.3s0.8-1.2,1.4-1.6c0.6-0.4,1.3-0.6,2.1-0.6
			s1.5,0.2,2.1,0.6c0.6,0.4,1.1,0.9,1.4,1.6c0.3,0.7,0.5,1.5,0.5,2.3S211.4,38.7,211,39.4z"/>
		<path class="st1" d="M236.9,29.8c-0.7,0-1.1,0.3-1.4,1l-3.7,8.5l-3.8-8.6c-0.1-0.3-0.4-0.6-0.7-0.8c-0.3-0.2-0.6-0.3-0.9-0.3
			c-0.5,0-0.9,0.2-1.2,0.5s-0.4,0.6-0.4,1c0,0.2,0,0.4,0.1,0.5c0,0.1,0.1,0.3,0.1,0.4l5,11.2c0.2,0.4,0.4,0.7,0.7,0.8
			c0.3,0.2,0.6,0.2,1,0.2c0.6,0,1.1-0.4,1.4-1l5.1-11.2c0.1-0.1,0.1-0.3,0.1-0.4s0.1-0.3,0.1-0.4c0-0.4-0.1-0.8-0.4-1
			C237.8,30,237.4,29.8,236.9,29.8z"/>
		<path class="st1" d="M251.1,31.7c-0.6-0.7-1.4-1.2-2.2-1.6s-1.7-0.6-2.6-0.6c-1.2,0-2.3,0.3-3.4,0.9c-1.1,0.6-1.9,1.5-2.6,2.6
			c-0.7,1.1-1,2.5-1,4.2c0,1.4,0.3,2.6,0.9,3.7c0.6,1.1,1.5,2,2.6,2.6s2.5,1,4,1c0.9,0,1.8-0.1,2.6-0.4c0.8-0.3,1.5-0.6,2-1
			s0.8-0.8,0.8-1.3c0-0.4-0.1-0.7-0.4-0.9c-0.3-0.3-0.6-0.4-1-0.4c-0.3,0-0.6,0.1-0.9,0.2c-0.2,0.1-0.4,0.2-0.7,0.4
			c-0.2,0.2-0.6,0.3-1,0.4c-0.4,0.1-0.9,0.2-1.6,0.2c-0.7,0-1.4-0.2-2.1-0.5c-0.6-0.4-1.2-0.9-1.6-1.5c-0.2-0.4-0.4-0.8-0.5-1.3h9
			c0.4,0,0.8-0.1,1.1-0.4c0.3-0.3,0.5-0.6,0.5-1.1c0-1-0.2-1.9-0.6-2.8C252.2,33.1,251.7,32.3,251.1,31.7z M243.5,33.5
			c0.3-0.3,0.8-0.6,1.2-0.7c0.5-0.1,1-0.2,1.5-0.2c0.6,0,1.1,0.1,1.6,0.4c0.5,0.2,0.9,0.6,1.2,1s0.5,0.9,0.6,1.4v0.2h-7.1
			c0-0.2,0.1-0.4,0.2-0.6C242.9,34.3,243.2,33.8,243.5,33.5z"/>
		<path class="st1" d="M265.5,41.8c-0.3-0.3-0.7-0.4-1.1-0.4h-5.7l6.5-8.4c0.2-0.3,0.3-0.5,0.4-0.7c0-0.2,0.1-0.4,0.1-0.5
			c0-0.5-0.1-0.9-0.4-1.2c-0.3-0.3-0.6-0.5-1.1-0.5h-8.4c-0.4,0-0.8,0.1-1.1,0.4s-0.4,0.6-0.4,1s0.1,0.8,0.4,1.1
			c0.3,0.3,0.7,0.4,1.1,0.4h5.3l-6.5,8.4c-0.2,0.3-0.4,0.5-0.4,0.7c-0.1,0.2-0.1,0.4-0.1,0.7s0.1,0.7,0.4,1c0.3,0.3,0.6,0.5,1.1,0.5
			h8.7c0.4,0,0.8-0.1,1.1-0.4c0.3-0.3,0.4-0.6,0.4-1.1C265.9,42.4,265.8,42.1,265.5,41.8z"/>
	</g>
</g>
</svg>
