<?xml version="1.0" encoding="utf-8"?>
<!-- Generator: Adobe Illustrator 22.0.1, SVG Export Plug-In . SVG Version: 6.00 Build 0)  -->
<svg version="1.1" id="Layer_1" xmlns="http://www.w3.org/2000/svg" xmlns:xlink="http://www.w3.org/1999/xlink" x="0px" y="0px"
	 viewBox="0 0 180 180" style="enable-background:new 0 0 180 180;" xml:space="preserve">
<style type="text/css">
	.st0{opacity:0.2;}
	.st1{fill:#29ABE2;}
	.st2{fill:#000F56;}
	.st3{fill:#FFFFFF;}
	.st4{fill:#493532;}
	.st5{fill:#6C5C4F;}
	.st6{fill:#1B2528;}
	.st7{fill:#3E4649;}
	.st8{fill:#8B6452;}
	.st9{fill:none;stroke:#1E134D;stroke-width:1.3788;stroke-linecap:round;stroke-linejoin:round;stroke-miterlimit:10;}
</style>
<title>lab02-card-humanos</title>
<g id="Layer_1_1_">
	<g class="st0">
		<path d="M16,4h152c6.6,0,12,5.4,12,12v152c0,6.6-5.4,12-12,12H16c-6.6,0-12-5.4-12-12V16C4,9.4,9.4,4,16,4z"/>
	</g>
	<path class="st1" d="M12,0h152c6.6,0,12,5.4,12,12v152c0,6.6-5.4,12-12,12H12c-6.6,0-12-5.4-12-12V12C0,5.4,5.4,0,12,0z"/>
	<g>
		<g class="st0">
			<path class="st2" d="M65.1,123.2c-2.4,0-3.7-1.7-4-2.2c-1.2-1.9-1.1-4.9,2-7.2c3.1-2.4,7-4.9,12.7-6.7c-0.1,0-0.3,0-0.4-0.1
				c-3-0.5-6.4-4-7.1-6.6c-0.5-1.9,0.1-3.8,1.6-4.9c2.8-2.3,8.5-3.4,12.8-3.9c-2.1-0.3-4.2-0.8-6.2-1.5c-0.5,0.4-1.2,1-1.9,1.6
				l-0.8,0.7C67.7,98,57.5,95.5,55.5,95l-1.2-0.3c-1.5-0.4-3.9-1.1-4.7-1c-0.3,0.2-0.9,0.7-1.3,1c-1.9,1.6-4.5,3.7-8,3.9
				c-3.2,0.1-6-1.5-7.4-4.4c-1.3-2.6-1.1-5.5,0.4-7.4c0.4-0.4,0.8-0.8,1.2-1.1c0-0.1,0-0.1,0.1-0.2c1.3-3.7,5.5-3.6,12.3-3.4
				c4.4,0.1,5.6-2.1,5.8-2.5c0.1-0.2,0.1-0.4,0.1-0.7c-1.8-0.4-3.4-0.4-4.9,0l-2.2,0.6c-4.6,1.1-9.3,2.3-11.8,3.7
				c-0.1,0.1-0.2,0.1-0.3,0.2c-0.6,0.4-0.8,0.6-0.9,0.6c-2.9,2.9-5.9,2.9-7.4,2.7c-1.5-0.3-2.7-1-3.3-1.5c-0.3-0.2-0.5-0.4-0.8-0.6
				c-2.7-2.5-3.4-6.3-2-11.4c1.2-4.4,2.7-10.9,3.5-14.9c0.5-2.7,1.8-7.5,4.9-12c-0.3-2.5-0.5-5.4-0.4-7.6c0.5-6,3.2-9.8,7.9-11.2
				c3.5-1.1,6.5-0.9,8.8,0.6c1.3,0.8,2.8,2.3,3.5,5.1c2.5-0.5,5.2-0.3,7.8,0.6c4.6-3.9,14.2-11.3,30.2-10.4
				c18.4,1,29.6,9.1,35.1,25.5c3.3,9.7,2.3,15.4,1.7,18.8c-0.1,0.7-0.3,1.6-0.2,1.9c0.1,0.3,0.2,0.7,0.3,1.2
				c0.7,0.1,1.7,0.1,2.5,0.1c4.4,0.2,10.4,0.6,15,1.8c0,0,0,0,0,0c5,1.3,14.6,5.7,18.8,13.6c2.3,4.3,2.6,9,1,13.8
				c-5.7,16.7-23.3,18-36.1,17.5c-2.3-0.1-4.7-0.2-7.1-0.3c-4.4-0.2-8.9-0.4-13.5-0.5c0,0,0,0,0,0l0,0c-0.9,0-1.8,0-2.8,0l-0.3,0
				c-0.8,0-1.7,0-2.5,0l-0.5,0c-0.7,0-1.5,0-2.3,0.1l-0.7,0c-0.7,0-1.4,0.1-2.1,0.1l-0.8,0c-0.7,0-1.3,0.1-2,0.2l-0.9,0.1
				c-0.6,0.1-1.2,0.1-1.8,0.2l-0.9,0.1c-0.5,0.1-1.1,0.2-1.6,0.3l-0.5,0.1c-0.2,0-0.3,0-0.5,0.1c-0.5,0.1-1.1,0.2-1.6,0.3l-0.6,0.1
				c-0.1,0-0.2,0-0.4,0.1c-0.8,0.2-1.6,0.4-2.4,0.6c-4.8,1.4-6.3,2.1-8.6,3.3l-0.5,0.2C67.2,122.9,66.1,123.2,65.1,123.2z
				 M101.1,104.3c4.5,0,9.4,0.2,14.7,0.4c1,0,2,0.1,3,0.1c0,0,0.1,0,0.1,0c1,0,1.9,0,2.9,0c15.4-0.2,20.8-3.7,22.6-6.7
				c1.1-1.7,1.3-3.3,0.7-5c-0.9-2.4-3.4-4.6-6.3-5.4c-5.7-1.8-16.7-1.5-18.8-0.9c-2.4,0.7-5.6,1-8.5,0.2c0,7.1-6.7,11.1-10.8,13.6
				l-0.9,0.5c-2.7,1.6-4.9,2.8-7.1,3.5C95.5,104.3,98.2,104.3,101.1,104.3z M94.6,84.3c1.9,0,5.5,0.3,6.8,3.6c0.1,0.3,0.2,0.7,0.3,1
				c0.7-0.8,1.1-1.6,1-2.3c-0.1-0.8-0.2-1.5-0.5-2.2c-0.7-2.1,0.4-4.4,2.4-5.4c1.9-0.9,3.7-1.3,5.3-1.7c1.2-0.3,2.5,0,3.5,0.7
				c0.8,0.5,2.5,0.6,3.8,0.3c-1.4-0.8-2.5-2-3.1-3.5c-0.1-0.3-0.2-0.7-0.3-1.1c0-0.3-0.1-0.6-0.2-0.9c0,0,0,0,0,0
				c-0.1-0.4-0.2-0.8-0.3-1.2c-0.6-2-0.3-3.9,0.1-5.7c0.5-2.9,1.2-6.9-1.4-14.5c-4.3-12.8-12.5-18.7-27.2-19.5
				c-13.4-0.7-20.8,5.6-24.8,9c-0.4,0.3-0.7,0.6-1,0.8c-0.3,0.2-0.6,0.5-0.9,0.7c-1.5,1-3.3,1-4.8,0c-1.4-0.9-3.3-1.2-4.6-0.7
				c-0.8,0.3-1.1,0.6-1.1,0.7c-0.5,1.4-1.8,2.5-3.3,2.8c-0.4,0.1-0.8,0.2-1.3,0.3c-1.5,0.4-3.2-0.1-4.3-1.2c-1.1-1.2-1.5-2.8-1-4.3
				c0.7-2.4,0.9-3.8,1-4.4c-0.3,0-0.6,0.1-1.1,0.3C37,36,36.3,36.2,36,39.3c-0.1,1.5,0.1,4.2,0.5,7.4c0.2,1.2-0.2,2.4-0.9,3.4
				c-2.8,3.5-3.9,8-4.3,9.8C30.6,64,29,70.8,27.8,75.3c-0.2,0.6-0.3,1.1-0.3,1.5c0.3-0.3,0.7-0.5,1.2-0.8c0.1-0.1,0.3-0.2,0.4-0.3
				c3.6-2.1,8.8-3.4,14.4-4.8l2.2-0.6c4-1,8-0.7,12.7,1.1c1.4,0.5,2.5,1.7,2.8,3.2c0.5,2.5,0.9,5.4-0.3,8.4
				c-0.5,1.2-1.3,2.5-2.4,3.6c3.5,0.8,7.9,0.9,9.6-0.6l0.8-0.7c2-1.8,3.4-3,4.9-3.8c1.1-0.6,2.5-0.7,3.7-0.3c3,1.2,6.5,1.9,10.2,2.2
				c0.2,0,0.4,0,0.6,0.1c3.3,0.7,4.9,0.8,5.6,0.8C94,84.3,94.3,84.3,94.6,84.3z"/>
		</g>
		<g>
			<path class="st3" d="M65.1,121c-2.4,0-3.7-1.7-4-2.2c-1.2-1.9-1.1-4.9,2-7.2c3.1-2.4,7-4.9,12.7-6.7c-0.1,0-0.3,0-0.4-0.1
				c-3-0.5-6.4-4-7.1-6.6c-0.5-1.9,0.1-3.8,1.6-4.9c2.8-2.3,8.5-3.4,12.8-3.9c-2.1-0.3-4.2-0.8-6.2-1.5c-0.5,0.4-1.2,1-1.9,1.6
				l-0.8,0.7c-6.1,5.3-16.3,2.9-18.3,2.3l-1.2-0.3c-1.5-0.4-3.9-1.1-4.7-1c-0.3,0.2-0.9,0.7-1.3,1c-1.9,1.6-4.5,3.7-8,3.9
				c-3.2,0.1-6-1.5-7.4-4.4c-1.3-2.6-1.1-5.5,0.4-7.4c0.4-0.4,0.8-0.8,1.2-1.1c0-0.1,0-0.1,0.1-0.2c1.3-3.7,5.5-3.6,12.3-3.4
				c4.4,0.1,5.6-2.1,5.8-2.5c0.1-0.2,0.1-0.4,0.1-0.7c-1.8-0.4-3.4-0.4-4.9,0l-2.2,0.6c-4.6,1.1-9.3,2.3-11.8,3.7
				c-0.1,0.1-0.2,0.1-0.3,0.2c-0.6,0.4-0.8,0.6-0.9,0.6c-2.9,2.9-5.9,2.9-7.4,2.7c-1.5-0.3-2.7-1-3.3-1.5c-0.3-0.2-0.5-0.4-0.8-0.6
				c-2.7-2.5-3.4-6.3-2-11.4c1.2-4.4,2.7-10.9,3.5-14.9c0.5-2.7,1.8-7.5,4.9-12c-0.3-2.5-0.5-5.4-0.4-7.6c0.5-6,3.2-9.8,7.9-11.2
				c3.5-1.1,6.5-0.9,8.8,0.6c1.3,0.8,2.8,2.3,3.5,5.1c2.5-0.5,5.2-0.3,7.8,0.6c4.6-3.9,14.2-11.3,30.2-10.4
				c18.4,1,29.6,9.1,35.1,25.5c3.3,9.7,2.3,15.4,1.7,18.8c-0.1,0.7-0.3,1.6-0.2,1.9c0.1,0.3,0.2,0.7,0.3,1.2
				c0.7,0.1,1.7,0.1,2.5,0.1c4.4,0.2,10.4,0.6,15,1.8c0,0,0,0,0,0c5,1.3,14.6,5.7,18.8,13.6c2.3,4.3,2.6,9,1,13.8
				c-5.7,16.7-23.3,18-36.1,17.5c-2.3-0.1-4.7-0.2-7.1-0.3c-4.4-0.2-8.9-0.4-13.5-0.5c0,0,0,0,0,0l0,0c-0.9,0-1.8,0-2.8,0l-0.3,0
				c-0.8,0-1.7,0-2.5,0l-0.5,0c-0.7,0-1.5,0-2.3,0.1l-0.7,0c-0.7,0-1.4,0.1-2.1,0.1l-0.8,0c-0.7,0-1.3,0.1-2,0.2l-0.9,0.1
				c-0.6,0.1-1.2,0.1-1.8,0.2l-0.9,0.1c-0.5,0.1-1.1,0.2-1.6,0.3l-0.5,0.1c-0.2,0-0.3,0-0.5,0.1c-0.5,0.1-1.1,0.2-1.6,0.3l-0.6,0.1
				c-0.1,0-0.2,0-0.4,0.1c-0.8,0.2-1.6,0.4-2.4,0.6c-4.8,1.4-6.3,2.1-8.6,3.3l-0.5,0.2C67.2,120.7,66.1,121,65.1,121z M101.1,102.1
				c4.5,0,9.4,0.2,14.7,0.4c1,0,2,0.1,3,0.1c0,0,0.1,0,0.1,0c1,0,1.9,0,2.9,0c15.4-0.2,20.8-3.7,22.6-6.7c1.1-1.7,1.3-3.3,0.7-5
				c-0.9-2.4-3.4-4.6-6.3-5.4c-5.7-1.8-16.7-1.5-18.8-0.9c-2.4,0.7-5.6,1-8.5,0.2c0,7.1-6.7,11.1-10.8,13.6l-0.9,0.5
				c-2.7,1.6-4.9,2.8-7.1,3.5C95.5,102.1,98.2,102.1,101.1,102.1z M94.6,82.1c1.9,0,5.5,0.3,6.8,3.6c0.1,0.3,0.2,0.7,0.3,1
				c0.7-0.8,1.1-1.6,1-2.3c-0.1-0.8-0.2-1.5-0.5-2.2c-0.7-2.1,0.4-4.4,2.4-5.4c1.9-0.9,3.7-1.3,5.3-1.7c1.2-0.3,2.5,0,3.5,0.7
				c0.8,0.5,2.5,0.6,3.8,0.3c-1.4-0.8-2.5-2-3.1-3.5c-0.1-0.3-0.2-0.7-0.3-1.1c0-0.3-0.1-0.6-0.2-0.9c0,0,0,0,0,0
				c-0.1-0.4-0.2-0.8-0.3-1.2c-0.6-2-0.3-3.9,0.1-5.7c0.5-2.9,1.2-6.9-1.4-14.5c-4.3-12.8-12.5-18.7-27.2-19.5
				c-13.4-0.7-20.8,5.6-24.8,9c-0.4,0.3-0.7,0.6-1,0.8c-0.3,0.2-0.6,0.5-0.9,0.7c-1.5,1-3.3,1-4.8,0c-1.4-0.9-3.3-1.2-4.6-0.7
				c-0.8,0.3-1.1,0.6-1.1,0.7c-0.5,1.4-1.8,2.5-3.3,2.8c-0.4,0.1-0.8,0.2-1.3,0.3c-1.5,0.4-3.2-0.1-4.3-1.2c-1.1-1.2-1.5-2.8-1-4.3
				c0.7-2.4,0.9-3.8,1-4.4c-0.3,0-0.6,0.1-1.1,0.3C37,33.8,36.3,34,36,37.1c-0.1,1.5,0.1,4.2,0.5,7.4c0.2,1.2-0.2,2.4-0.9,3.4
				c-2.8,3.5-3.9,8-4.3,9.8c-0.8,4.2-2.4,10.9-3.6,15.4c-0.2,0.6-0.3,1.1-0.3,1.5c0.3-0.3,0.7-0.5,1.2-0.8c0.1-0.1,0.3-0.2,0.4-0.3
				c3.6-2.1,8.8-3.4,14.4-4.8l2.2-0.6c4-1,8-0.7,12.7,1.1c1.4,0.5,2.5,1.7,2.8,3.2c0.5,2.5,0.9,5.4-0.3,8.4
				c-0.5,1.2-1.3,2.5-2.4,3.6c3.5,0.8,7.9,0.9,9.6-0.6l0.8-0.7c2-1.8,3.4-3,4.9-3.8c1.1-0.6,2.5-0.7,3.7-0.3c3,1.2,6.5,1.9,10.2,2.2
				c0.2,0,0.4,0,0.6,0.1c3.3,0.7,4.9,0.8,5.6,0.8C94,82.1,94.3,82.1,94.6,82.1z"/>
		</g>
		<g>
			<path class="st4" d="M32.5,46.8c0,0-1.2-6.5-0.9-10.1c0.3-3.6,1.4-6.3,4.8-7.4s6.2-0.6,6.8,2.8c0.5,3.4-2.6,11.3-2.6,11.3"/>
			<path class="st5" d="M138.5,74.5c-6.1-1.6-16.1-1.5-18.4-2c-1.1-0.2-1.6-0.9-1.9-1.5c-0.1-0.4-0.1-0.8-0.2-1.2c0,0,0,0,0,0l0,0
				c-0.1-0.5-0.2-1.1-0.4-1.5c-0.9-3.3,2.9-7.6-1.4-20.4c-4.3-12.9-12.8-21.5-31.1-22.5c-16.5-0.9-25.2,7.9-28.8,10.8
				c-3.6,2.9-8.4,0.6-17,3.7c-8.7,3.1-11.5,13-12.2,16.9s-2.3,10.5-3.6,15.2c-1.2,4.6-0.2,6.5,1.2,7.4c0,0,2,2,4.8-0.8
				s9.9-4.3,17.2-6.2c3.3-0.8,6.5-0.4,10.1,0.9c0.4,2.1,0.6,4-0.1,5.8c-0.8,2-3.6,5.4-10,5.2c-6.3-0.2-8.7,0.2-7.9,0.8
				c0.8,0.6,2.9,2.2,1.2,2.3s-2.6-0.9-3.4,0c-0.8,0.9,0.2,4.6,3.4,4.5c3.3-0.2,5.9-3.9,7.9-4.6c2-0.8,5.3,0.3,8.7,1.2
				s10.6,1.9,14.3-1.4c2.3-2,3.7-3.3,4.9-4c3.7,1.4,7.6,2.2,11.4,2.5c2.3,0.5,4.9,1,6.7,0.9c4.5-0.2,3.8,1.4,1.8,3.1
				c-2,1.7-6,4.2-7.9,4c-1.9-0.2-12.2,0.7-15.2,3.2c-0.6,0.5,2.1,3.5,3.5,3.7c3.1,0.5,7-1.1,8.8-2c1.2-0.6,2.1-0.5,1.8,0.3
				c-0.2,0.4-0.6,1.1-0.2,2c0.6,1.4,1.4,1.8,1.7,0.4c0.4-1.7,1.8-2.7,1.8-2.7c2.3-0.6,4.7-1.8,7.5-3.5c4-2.4,10.2-5.7,9.5-11.1
				c-0.1-1.2-0.4-2.2-0.7-3.1c1.5-0.7,3-1.1,4.4-1.4c2.4,1.7,6,1.4,8,0.8c2.6-0.8,14.7-1.1,21.3,0.9s12.7,9.4,8,17
				c-4.7,7.6-18.2,9.2-32.6,8.7c-14.4-0.5-24.5-0.7-34.5,1.3c-7.1,1.4-11.6,4.2-15.4,7c-1.2,0.9-1.4,2,0.6,1
				c2.6-1.4,4.4-2.3,9.9-3.9c14-4,32.7-2.2,47.3-1.6c14.6,0.5,27.4-1.9,31.7-14.5S144.7,76.1,138.5,74.5z"/>
			<path class="st4" d="M44,52.1c0.4-3.4,0.2-7.3-0.5-9.9c-0.7-2.6-0.1-5.4,3.8-6.8c3.9-1.4,9.6,0.4,11.4,4.3c1.8,3.9,2.7,6.1,0,9.2
				c-2.7,3.1-5.5,4.2-5.8,5.7c-0.3,1.4-3,2-3.6,0c-0.6-2-1.3-2.1-2.2-1.2C46.3,54.4,43.8,54.1,44,52.1z"/>
			<circle class="st6" cx="37.3" cy="61.4" r="2.8"/>
			
				<ellipse transform="matrix(0.7071 -0.7071 0.7071 0.7071 -32.0121 43.4462)" class="st7" cx="36.4" cy="60.4" rx="1.6" ry="0.9"/>
			<path class="st8" d="M29.6,76.7c-1.6-0.6-0.5-2.7-1.8-4c-1.3-1.3-2.6-0.3-3.5-0.1c-0.5,0.1-0.8,0.2-1-0.1c-1,4.2,0,5.9,1.4,6.8
				c0,0,2,2,4.8-0.8c0.5-0.5,1.1-0.9,1.7-1.3C30.8,77.1,30.2,77,29.6,76.7z"/>
			<path class="st8" d="M76.3,112.2c13.6-3.9,31.7-2.3,46.1-1.7c0.8-0.5,0.6-3.4-0.5-3.6c-2.1,0-4.2,0-6.3-0.1
				c-14.4-0.5-24.5-0.7-34.5,1.3c-7.1,1.4-11.6,4.2-15.4,7c-1.2,0.9-1.4,2,0.6,1C69.1,114.8,70.8,113.8,76.3,112.2z"/>
		</g>
		<path class="st9" d="M138.5,74.5c-6.1-1.6-16.1-1.5-18.4-2c-1.1-0.2-1.6-0.9-1.9-1.5c-0.1-0.4-0.1-0.8-0.2-1.2c0,0,0,0,0,0l0,0
			c-0.1-0.5-0.2-1.1-0.4-1.5c-0.9-3.3,2.9-7.6-1.4-20.4c-4.3-12.9-12.8-21.5-31.1-22.5c-16.5-0.9-25.2,7.9-28.8,10.8
			c-0.2,0.1-0.4,0.3-0.5,0.4c-2.5-1.6-5.9-2.1-8.5-1.1c-2.1,0.8-3.3,2-3.8,3.3c-0.5,0.1-1,0.2-1.5,0.3c0.7-2.4,1.4-5.2,1.1-6.9
			c-0.5-3.4-3.4-3.8-6.8-2.8c-3.4,1-4.5,3.7-4.8,7.4c-0.2,2.5,0.2,6.2,0.6,8.4c-3.3,4.1-4.6,9.2-5.1,11.7
			c-0.8,3.9-2.3,10.5-3.6,15.2c-1.1,4.1-0.4,6,0.8,7.1c0.2,0.1,0.3,0.3,0.5,0.4c0,0,2,2,4.8-0.8c0.5-0.5,1.1-0.9,1.7-1.3
			c0,0,0,0,0,0c3.4-2,9.4-3.4,15.5-4.9c3.3-0.8,6.5-0.4,10.1,0.9c0.4,2.1,0.6,4-0.1,5.8c-0.8,2-3.6,5.4-10,5.2s-8.7,0.2-7.9,0.8
			c0.8,0.6,2.9,2.2,1.2,2.3c-1.7,0.2-2.6-0.9-3.4,0c-0.8,0.9,0.2,4.6,3.4,4.5S46,88,48,87.3c2-0.8,5.3,0.3,8.7,1.2
			c3.4,0.9,10.6,1.9,14.3-1.4c2.3-2,3.7-3.3,4.9-4c3.7,1.4,7.6,2.2,11.4,2.5c2.3,0.5,4.9,1,6.7,0.9c4.5-0.2,3.8,1.4,1.8,3.1
			c-2,1.7-6,4.2-7.9,4c-1.9-0.2-12.2,0.7-15.2,3.2c-0.6,0.5,2.1,3.5,3.5,3.7c3.1,0.5,7-1.1,8.8-2c1.2-0.6,2.1-0.5,1.8,0.3
			c-0.2,0.4-0.6,1.1-0.2,2c0.6,1.4,1.4,1.8,1.7,0.4c0.4-1.7,1.8-2.7,1.8-2.7c2.3-0.6,4.7-1.8,7.5-3.5c4-2.4,10.2-5.7,9.5-11.1
			c-0.1-1.2-0.4-2.2-0.7-3.1c1.5-0.7,3-1.1,4.4-1.4c2.4,1.7,6,1.4,8,0.8c2.6-0.8,14.7-1.1,21.3,0.9c6.7,2.1,12.7,9.4,8,17
			c-4,6.4-14.4,8.6-26.3,8.7l0,0c-1,0-2,0-3.1,0c0,0-0.1,0-0.1,0c-1,0-2.1,0-3.2-0.1c-14.4-0.5-24.5-0.7-34.5,1.3
			c-7.1,1.4-11.6,4.2-15.4,7c-1.2,0.9-1.4,2,0.6,1c2.6-1.4,4.4-2.3,9.9-3.9c0.9-0.2,1.7-0.5,2.6-0.7c0.3-0.1,0.6-0.1,0.8-0.2
			c0.6-0.1,1.3-0.3,1.9-0.4c0.3-0.1,0.6-0.1,1-0.2c0.6-0.1,1.2-0.2,1.9-0.3c0.3,0,0.6-0.1,0.9-0.1c0.7-0.1,1.3-0.2,2-0.2
			c0.3,0,0.6-0.1,0.9-0.1c0.7-0.1,1.4-0.1,2.1-0.2c0.3,0,0.5,0,0.8,0c0.7,0,1.5-0.1,2.2-0.1c0.2,0,0.5,0,0.7,0
			c0.8,0,1.6-0.1,2.4-0.1c0.2,0,0.4,0,0.5,0c0.9,0,1.7,0,2.6,0c0.1,0,0.2,0,0.3,0c0.9,0,1.9,0,2.8,0c0,0,0,0,0,0
			c7.2,0.1,14.4,0.6,20.7,0.8c14.6,0.5,27.4-1.9,31.7-14.5C159.6,83.5,144.7,76.1,138.5,74.5z"/>
	</g>
</g>
<g>
	<path class="st3" d="M51.8,163.9c-0.5,0-0.9-0.2-1.3-0.5c-0.4-0.3-0.6-0.7-0.6-1.1v-15c0-0.5,0.2-0.8,0.5-1.1
		c0.3-0.3,0.7-0.5,1.1-0.5H59c0.9,0,1.7,0.2,2.5,0.7c0.8,0.5,1.4,1.1,1.9,2c0.5,0.8,0.7,1.8,0.7,2.9c0,0.7-0.1,1.3-0.4,1.9
		c-0.3,0.6-0.6,1.2-1.1,1.7c-0.5,0.5-1,0.9-1.5,1.2l0-0.6c0.5,0.3,0.9,0.6,1.2,0.9c0.3,0.4,0.6,0.7,0.8,1.1c0.2,0.4,0.3,0.8,0.3,1.3
		c0.1,0.4,0.1,0.8,0.1,1.1c0,0.3,0.1,0.6,0.2,0.8c0.1,0.2,0.2,0.4,0.5,0.5c0.4,0.2,0.6,0.6,0.7,1c0.1,0.4,0,0.8-0.3,1.1
		c-0.2,0.2-0.4,0.4-0.7,0.4c-0.3,0.1-0.6,0.1-0.9,0s-0.5-0.1-0.7-0.2c-0.3-0.2-0.6-0.4-0.9-0.8c-0.3-0.3-0.5-0.8-0.7-1.4
		c-0.2-0.6-0.3-1.3-0.3-2.2c0-0.3-0.1-0.6-0.2-0.8s-0.3-0.5-0.4-0.7c-0.2-0.2-0.4-0.3-0.7-0.4c-0.3-0.1-0.6-0.1-1-0.1h-5.3l0.4-0.6
		v5.6c0,0.5-0.1,0.8-0.4,1.1C52.5,163.8,52.2,163.9,51.8,163.9z M52.8,154.6h6.1c0.3,0,0.6-0.1,0.9-0.4c0.3-0.3,0.5-0.7,0.7-1.2
		c0.2-0.5,0.3-1,0.3-1.6c0-0.8-0.2-1.4-0.6-1.9c-0.4-0.5-0.8-0.8-1.3-0.8h-6l0.3-0.8v7.4L52.8,154.6z"/>
	<path class="st3" d="M78.5,149.7c0.5,0,0.8,0.1,1.1,0.4c0.3,0.3,0.4,0.7,0.4,1.1v11c0,0.5-0.1,0.8-0.4,1.1
		c-0.3,0.3-0.7,0.5-1.1,0.5c-0.5,0-0.8-0.2-1.1-0.5c-0.3-0.3-0.4-0.7-0.4-1.1V161l0.6,0.2c0,0.2-0.1,0.5-0.4,0.8
		c-0.2,0.3-0.6,0.6-1,0.9c-0.4,0.3-0.9,0.6-1.5,0.8c-0.6,0.2-1.2,0.3-1.8,0.3c-1.2,0-2.3-0.3-3.2-0.9c-1-0.6-1.7-1.5-2.3-2.5
		c-0.6-1.1-0.8-2.3-0.8-3.7c0-1.4,0.3-2.7,0.8-3.8c0.6-1.1,1.3-1.9,2.3-2.5s2-0.9,3.2-0.9c0.7,0,1.4,0.1,2.1,0.3
		c0.6,0.2,1.2,0.5,1.6,0.9c0.5,0.3,0.8,0.7,1.1,1.1s0.4,0.7,0.4,0.9l-0.9,0.3v-1.9c0-0.5,0.1-0.8,0.4-1.1
		C77.7,149.9,78.1,149.7,78.5,149.7z M73.3,161.3c0.8,0,1.4-0.2,2-0.6c0.6-0.4,1-0.9,1.3-1.6c0.3-0.7,0.5-1.4,0.5-2.2
		c0-0.8-0.2-1.6-0.5-2.2c-0.3-0.7-0.8-1.2-1.3-1.6c-0.6-0.4-1.2-0.6-2-0.6c-0.7,0-1.4,0.2-2,0.6c-0.6,0.4-1,0.9-1.3,1.6
		c-0.3,0.7-0.5,1.4-0.5,2.2c0,0.8,0.2,1.6,0.5,2.2c0.3,0.7,0.8,1.2,1.3,1.6C71.9,161.1,72.5,161.3,73.3,161.3z"/>
	<path class="st3" d="M83.4,150.3h6.2c0.4,0,0.8,0.1,1,0.4c0.3,0.3,0.4,0.6,0.4,1c0,0.4-0.1,0.7-0.4,1c-0.3,0.3-0.6,0.4-1,0.4h-6.2
		c-0.4,0-0.8-0.1-1-0.4c-0.3-0.3-0.4-0.6-0.4-1c0-0.4,0.1-0.7,0.4-1C82.6,150.4,83,150.3,83.4,150.3z M86.2,147
		c0.5,0,0.8,0.2,1.1,0.5c0.3,0.3,0.4,0.7,0.4,1.1v11.6c0,0.2,0,0.4,0.1,0.6c0.1,0.2,0.2,0.3,0.4,0.3s0.3,0.1,0.5,0.1
		c0.2,0,0.4,0,0.6-0.1s0.4-0.1,0.6-0.1c0.2,0,0.5,0.1,0.7,0.3c0.2,0.2,0.3,0.5,0.3,0.9c0,0.5-0.3,0.9-0.8,1.2
		c-0.5,0.3-1.1,0.5-1.7,0.5c-0.4,0-0.8,0-1.2-0.1c-0.4-0.1-0.9-0.2-1.2-0.4c-0.4-0.2-0.7-0.6-1-1.1c-0.3-0.5-0.4-1.2-0.4-2v-11.7
		c0-0.5,0.2-0.8,0.5-1.1C85.3,147.2,85.7,147,86.2,147z"/>
	<path class="st3" d="M106.4,157c0,1.4-0.3,2.7-0.9,3.8c-0.6,1.1-1.5,1.9-2.5,2.5c-1.1,0.6-2.3,0.9-3.6,0.9c-1.3,0-2.5-0.3-3.6-0.9
		c-1.1-0.6-1.9-1.5-2.5-2.5s-0.9-2.3-0.9-3.8c0-1.4,0.3-2.7,0.9-3.8c0.6-1.1,1.5-1.9,2.5-2.5s2.3-0.9,3.6-0.9c1.3,0,2.5,0.3,3.6,0.9
		c1.1,0.6,1.9,1.5,2.5,2.5C106.1,154.3,106.4,155.5,106.4,157z M103.3,157c0-0.9-0.2-1.7-0.5-2.3c-0.4-0.6-0.8-1.2-1.4-1.5
		c-0.6-0.4-1.3-0.5-2-0.5c-0.7,0-1.4,0.2-2,0.5c-0.6,0.4-1.1,0.9-1.4,1.5c-0.4,0.7-0.5,1.4-0.5,2.3c0,0.9,0.2,1.6,0.5,2.3
		c0.4,0.7,0.8,1.2,1.4,1.5c0.6,0.4,1.3,0.5,2,0.5c0.7,0,1.4-0.2,2-0.5c0.6-0.4,1.1-0.9,1.4-1.5C103.1,158.6,103.3,157.8,103.3,157z
		 M99.4,149.1c-0.1,0-0.3-0.1-0.5-0.2s-0.3-0.4-0.3-0.6c0-0.2,0.1-0.3,0.2-0.5l1.5-2.7c0.2-0.3,0.4-0.5,0.6-0.7s0.5-0.3,0.8-0.3
		c0.5,0,0.8,0.1,1.1,0.4c0.2,0.3,0.3,0.6,0.3,0.9c0,0.2-0.1,0.4-0.1,0.5c-0.1,0.2-0.2,0.4-0.4,0.6l-2,2.2c-0.2,0.2-0.4,0.3-0.6,0.4
		S99.6,149.1,99.4,149.1z"/>
	<path class="st3" d="M116.2,149.7c1.3,0,2.3,0.3,2.9,0.8c0.7,0.5,1.1,1.3,1.4,2.1s0.4,1.9,0.4,3v6.7c0,0.5-0.1,0.8-0.4,1.1
		c-0.3,0.3-0.7,0.5-1.1,0.5c-0.5,0-0.8-0.2-1.1-0.5c-0.3-0.3-0.4-0.7-0.4-1.1v-6.7c0-0.6-0.1-1.1-0.2-1.5c-0.1-0.5-0.4-0.8-0.8-1.1
		c-0.4-0.3-0.9-0.4-1.6-0.4c-0.7,0-1.3,0.1-1.8,0.4s-0.8,0.6-1.1,1.1c-0.3,0.5-0.4,1-0.4,1.5v6.7c0,0.5-0.1,0.8-0.4,1.1
		c-0.3,0.3-0.7,0.5-1.1,0.5c-0.5,0-0.8-0.2-1.1-0.5c-0.3-0.3-0.4-0.7-0.4-1.1v-10.7c0-0.5,0.1-0.8,0.4-1.1c0.3-0.3,0.7-0.5,1.1-0.5
		c0.5,0,0.8,0.2,1.1,0.5c0.3,0.3,0.4,0.7,0.4,1.1v1.1l-0.4-0.1c0.2-0.3,0.4-0.6,0.7-0.9c0.3-0.3,0.6-0.7,1-0.9s0.8-0.5,1.4-0.7
		C115.1,149.8,115.6,149.7,116.2,149.7z"/>
</g>
</svg>
