<svg xmlns="http://www.w3.org/2000/svg" viewBox="0 0 150 150"><defs><style>.cls-1{isolation:isolate;}.cls-2{fill:#002451;opacity:0.27;}.cls-3{fill:#fff2cc;}.cls-4{fill:#29abe2;}.cls-5{opacity:0.2;mix-blend-mode:multiply;}.cls-6{fill:#fff;}.cls-7{fill:#000f56;}.cls-8{fill:#972a33;}.cls-9{fill:#ac5952;}.cls-10{fill:#fde3dc;}.cls-11{fill:#514747;}.cls-12{fill:#f6e6c4;}.cls-13{fill:#a54745;}.cls-14{fill:none;stroke:#1e134d;stroke-linecap:round;stroke-linejoin:round;stroke-width:1.4px;}.cls-15{fill:#d9c6a1;}.cls-16{fill:#72625c;}.cls-17{fill:#dfcbb4;}.cls-18{fill:#e6e2c4;}.cls-19{fill:#e3d2be;}.cls-20{fill:#dcaf82;}</style></defs><title>lab02-</title><g class="cls-1"><g id="Layer_1" data-name="Layer 1"><rect class="cls-2" x="24.63" y="21.16" width="120.09" height="120.09" rx="36.12" ry="36.12"/><rect class="cls-3" x="21.53" y="18.06" width="120.09" height="120.09" rx="36.12" ry="36.12"/><path class="cls-4" d="M141.14,107.85H128.2A17.12,17.12,0,0,0,111.08,125v12.73A36.15,36.15,0,0,0,141.14,107.85Z"/><g class="cls-5"><rect x="123.49" y="116.35" width="1.38" height="10.82"/><polygon points="124.15 112.25 121.36 117.08 126.93 117.08 124.15 112.25"/><polygon points="124.18 131.2 126.97 126.37 121.39 126.37 124.18 131.2"/><rect x="118.77" y="121.07" width="10.82" height="1.38"/><polygon points="114.69 121.74 119.52 124.53 119.52 118.95 114.69 121.74"/><polygon points="133.64 121.71 128.81 118.92 128.81 124.49 133.64 121.71"/></g><rect class="cls-6" x="122.49" y="115.35" width="1.38" height="10.82"/><polygon class="cls-6" points="123.15 111.25 120.36 116.08 125.93 116.08 123.15 111.25"/><polygon class="cls-6" points="123.18 130.2 125.97 125.37 120.39 125.37 123.18 130.2"/><rect class="cls-6" x="117.77" y="120.07" width="10.82" height="1.38"/><polygon class="cls-6" points="113.69 120.74 118.52 123.53 118.52 117.95 113.69 120.74"/><polygon class="cls-6" points="132.64 120.71 127.81 117.92 127.81 123.49 132.64 120.71"/><g class="cls-5"><path class="cls-7" d="M31.3,16.34c.52,0,1,0,1.55,0l.61,0q.84.06,1.65.18c.43.06.86.14,1.29.22l.9.2.64.17.53.15c.35.11.7.22,1.05.35s.68.26,1,.4a20.18,20.18,0,0,1,5.15,3.19l.42.38a21.81,21.81,0,0,1,2.42,2.55c.38.47.75,1,1.11,1.48a31,31,0,0,1,2.62,4.61c.39.85.76,1.74,1.12,2.68.26.7.51,1.43.75,2.18.16.5.32,1,.46,1.53l.3,1A23.09,23.09,0,0,0,56.25,41c.25.5.51,1,.78,1.42a16.46,16.46,0,0,0,1.76,2.36l.48.5c.32.32.65.61,1,.89s.45.35.67.51l.71.47.43.26.6.32.58.28.42.19a25.51,25.51,0,0,0,7.11,1.66c2.48.29,4.71.45,6.72.5h1.11c6.55,0,10.55-1.36,13-3.84h0l1.23-1.2.42-.4.88-.81.49-.45,1.17-1,.74-.61.61-.51.83-.68.47-.37c.69-.53,1.38-1.06,2.09-1.58h0c1.25-.91,2.54-1.8,3.88-2.65a20.75,20.75,0,0,1,11.16-2.9c5.27,0,10,1.48,11.73,2.65,4.34,3,3.6,7.19,0,7.19a6.72,6.72,0,0,1-2.7-.65,6.68,6.68,0,0,0-2.54-.63c-1.59,0-1.74,1.17,2,3.15,5.26,2.79,4.26,6.47,3.49,7.53a5,5,0,0,1-4.21,1.91,6.19,6.19,0,0,1-1.1-.09c4.27,2.75,5.59,5.3,4,7.68a6.09,6.09,0,0,1-5.21,3,4.45,4.45,0,0,1-.9-.08c2.89,3,.17,6.68-2,7.38a5,5,0,0,1-1.5.25c-2.33,0-3.93-1.86-6.63-2.24l-.31,0c-2.79,0-3.67,5.58-5.74,11.37a8.6,8.6,0,0,1,6.2-2.28,14.88,14.88,0,0,1,8,2.48c5.69,3.75-.66,10.45-.66,10.45,3.41,5.89,1.33,10-4.23,13.34a7.26,7.26,0,0,1-3.79,1.13c-3.16,0-5.59-2.29-8.25-2.29a4,4,0,0,0-.76.07C96.64,105.37,97,110,97,110a5.46,5.46,0,0,0-5.42-3.91,5.2,5.2,0,0,0-4.35,2.12c-1.54,2.23-5.49,3.35-9.32,3.35a16,16,0,0,1-5.34-.84,7.74,7.74,0,0,0-2.61-.54c-2.22,0-2.55,1.61-2.55,1.61S66.65,108,63.92,108a3.73,3.73,0,0,0-1,.15c-3,.91-3.28,4.64-10.47,4.64a30.66,30.66,0,0,1-4.56-.39c-11.72-1.82-9.49-11.17-9.49-11.17a18,18,0,0,1-7.08,1.42,16.46,16.46,0,0,1-6.78-1.42C17.38,98,19.36,88.91,19.36,88.91,11.59,80.28,17.73,76,23.19,76a10,10,0,0,1,1.35.09A9.87,9.87,0,0,1,30.43,79a29.59,29.59,0,0,1-3.9-9.38c-3-13.27,2.93-16.09,3.37-24.57a5.48,5.48,0,0,0-.22-1.94c-.28,1.24-2,1.91-2.82,1.94h-.09c-1.76,0-3-1.65-4.28-3.08-1,1.55-5.14,7.22-5.64,7.22h0c-.45-.14-.86-8.93-.64-9.5a1.87,1.87,0,0,0,.38.37l-.44-.43a2.46,2.46,0,0,1-.63-.11c-1.59-.46-4.3-1.28-4.44-3.58s-.5-3.52.82-4,1.2-1.25-.08-2S10.66,27,11.6,25.87s1.28-1.47,2.08-1.75.69-.92.5-1.82a2.33,2.33,0,0,1,2.44-2.45h.27a4,4,0,0,1,1.65.27,12.87,12.87,0,0,1,6.88-3.26,35.82,35.82,0,0,1,5.88-.52m69.29,22.57h0m0,0h0M31.3,10.75a41,41,0,0,0-6.82.61A19.19,19.19,0,0,0,17,14.26h-.44a8.12,8.12,0,0,0-6.25,3,7.92,7.92,0,0,0-1.58,3.45,18.79,18.79,0,0,0-1.45,1.62,9.26,9.26,0,0,0-1.79,7.37A7.1,7.1,0,0,0,5.79,31a11.38,11.38,0,0,0-.36,4.45c0,.28,0,.57.06.89q.3,4.77,5.14,7.3c0,.31,0,.65,0,1,.27,5,.62,6,1.09,7a5.67,5.67,0,0,0,3.43,2.94,5.78,5.78,0,0,0,1.65.24c2.45,0,4-1.35,5.66-3.41-1.66,4.3-3.58,9.69-1.48,19.22-4.6.61-8.41,3.15-10,6.81C9.7,80.3,9.22,84.83,13.54,90.62c-.23,5.07,1.36,12.36,8.72,15.66a22,22,0,0,0,9.06,1.92c.77,0,1.51,0,2.22-.11A13.86,13.86,0,0,0,35,111c1.7,2.53,5.17,5.78,12,6.83a35.25,35.25,0,0,0,5.41.46c5.27,0,8.24-1.57,10.44-3.33a5.61,5.61,0,0,0,4.55,2.34h0A5.61,5.61,0,0,0,71,116a21.56,21.56,0,0,0,6.92,1.06c6,0,11.14-2,13.71-5.47h.06a5.78,5.78,0,0,0,5.41,4.06,5.06,5.06,0,0,0,1.09-.12,5.46,5.46,0,0,0,4.43-4.88l.27.11a16.34,16.34,0,0,0,6.69,1.68,12.86,12.86,0,0,0,6.65-1.93c7.4-4.42,10.12-10.65,7.8-17.46a13.34,13.34,0,0,0,2.12-8.27,10.23,10.23,0,0,0-4.81-7.51l-.13-.09a10.91,10.91,0,0,0,5.55-6.93,10.3,10.3,0,0,0,.23-1.21,12.47,12.47,0,0,0,4-4,8.94,8.94,0,0,0,1.31-6.86,9.2,9.2,0,0,0-.62-1.88,6.54,6.54,0,0,0,.4-.52,9.59,9.59,0,0,0,1.42-7.7,9.47,9.47,0,0,0-.44-1.42A8,8,0,0,0,135.55,43c1.27-4.07-.7-8.64-5-11.62-3.11-2.15-9.24-3.65-14.91-3.65a26.25,26.25,0,0,0-14.16,3.78c-1.37.87-2.78,1.83-4.17,2.85h0c-.73.53-1.46,1.08-2.23,1.69l-.09.07-.42.33-.89.72-.66.54-.17.15-.62.52L91,39.54l-.41.37-.13.12-.93.86-.07.07-.39.37c-.45.42-.89.85-1.32,1.28-1.47,1.47-4.53,2.21-9.09,2.21h-1c-1.87,0-4-.19-6.25-.45a21,21,0,0,1-5.55-1.26L65.58,43l-.36-.17-.37-.2-.25-.16-.42-.28-.39-.29a7.17,7.17,0,0,1-.58-.52l-.29-.3a10.17,10.17,0,0,1-1.13-1.52c-.19-.31-.37-.64-.55-1a19.82,19.82,0,0,1-1-2.6c-.08-.26-.16-.52-.23-.79-.17-.58-.34-1.15-.52-1.7-.27-.84-.55-1.66-.85-2.45-.39-1.06-.83-2.09-1.28-3.06a35.66,35.66,0,0,0-3.1-5.45c-.43-.62-.89-1.23-1.35-1.8a27.78,27.78,0,0,0-3-3.19L49.31,17A25.81,25.81,0,0,0,42.72,13c-.42-.18-.86-.35-1.3-.51s-.88-.3-1.32-.44l-.68-.2-.8-.2c-.38-.09-.75-.18-1.13-.25s-1.05-.2-1.59-.28-1.34-.17-2-.22l-.74,0c-.6,0-1.23-.05-1.85-.05ZM100.59,44.5h0Zm0,0Z"/></g><path class="cls-6" d="M31.3,14.34c.52,0,1,0,1.55,0l.61,0q.84.06,1.65.18c.43.06.86.14,1.29.22l.9.2.64.17.53.15c.35.11.7.22,1.05.35s.68.26,1,.4a20.18,20.18,0,0,1,5.15,3.19l.42.38a21.81,21.81,0,0,1,2.42,2.55c.38.47.75,1,1.11,1.48a31,31,0,0,1,2.62,4.61c.39.85.76,1.74,1.12,2.68.26.7.51,1.43.75,2.18.16.5.32,1,.46,1.53l.3,1A23.09,23.09,0,0,0,56.25,39c.25.5.51,1,.78,1.42a16.46,16.46,0,0,0,1.76,2.36l.48.5c.32.32.65.61,1,.89s.45.35.67.51l.71.47.43.26.6.32.58.28.42.19a25.51,25.51,0,0,0,7.11,1.66c2.48.29,4.71.45,6.72.5h1.11c6.55,0,10.55-1.36,13-3.84h0l1.23-1.2.42-.4.88-.81.49-.45,1.17-1,.74-.61.61-.51.83-.68.47-.37c.69-.53,1.38-1.06,2.09-1.58h0c1.25-.91,2.54-1.8,3.88-2.65a20.75,20.75,0,0,1,11.16-2.9c5.27,0,10,1.48,11.73,2.65,4.34,3,3.6,7.19,0,7.19a6.72,6.72,0,0,1-2.7-.65,6.68,6.68,0,0,0-2.54-.63c-1.59,0-1.74,1.17,2,3.15,5.26,2.79,4.26,6.47,3.49,7.53a5,5,0,0,1-4.21,1.91,6.19,6.19,0,0,1-1.1-.09c4.27,2.75,5.59,5.3,4,7.68a6.09,6.09,0,0,1-5.21,3,4.45,4.45,0,0,1-.9-.08c2.89,3,.17,6.68-2,7.38a5,5,0,0,1-1.5.25c-2.33,0-3.93-1.86-6.63-2.24l-.31,0c-2.79,0-3.67,5.58-5.74,11.37a8.6,8.6,0,0,1,6.2-2.28,14.88,14.88,0,0,1,8,2.48c5.69,3.75-.66,10.45-.66,10.45,3.41,5.89,1.33,10-4.23,13.34a7.26,7.26,0,0,1-3.79,1.13c-3.16,0-5.59-2.29-8.25-2.29a4,4,0,0,0-.76.07C96.64,103.37,97,108,97,108a5.46,5.46,0,0,0-5.42-3.91,5.2,5.2,0,0,0-4.35,2.12c-1.54,2.23-5.49,3.35-9.32,3.35a16,16,0,0,1-5.34-.84,7.74,7.74,0,0,0-2.61-.54c-2.22,0-2.55,1.61-2.55,1.61S66.65,106,63.92,106a3.73,3.73,0,0,0-1,.15c-3,.91-3.28,4.64-10.47,4.64a30.66,30.66,0,0,1-4.56-.39c-11.72-1.82-9.49-11.17-9.49-11.17a18,18,0,0,1-7.08,1.42,16.46,16.46,0,0,1-6.78-1.42C17.38,96,19.36,86.91,19.36,86.91,11.59,78.28,17.73,74,23.19,74a10,10,0,0,1,1.35.09A9.87,9.87,0,0,1,30.43,77a29.59,29.59,0,0,1-3.9-9.38c-3-13.27,2.93-16.09,3.37-24.57a5.48,5.48,0,0,0-.22-1.94c-.28,1.24-2,1.91-2.82,1.94h-.09c-1.76,0-3-1.65-4.28-3.08-1,1.55-5.14,7.22-5.64,7.22h0c-.45-.14-.86-8.93-.64-9.5a1.87,1.87,0,0,0,.38.37l-.44-.43a2.46,2.46,0,0,1-.63-.11c-1.59-.46-4.3-1.28-4.44-3.58s-.5-3.52.82-4,1.2-1.25-.08-2S10.66,25,11.6,23.87s1.28-1.47,2.08-1.75.69-.92.5-1.82a2.33,2.33,0,0,1,2.44-2.45h.27a4,4,0,0,1,1.65.27,12.87,12.87,0,0,1,6.88-3.26,35.82,35.82,0,0,1,5.88-.52m69.29,22.57h0m0,0h0M31.3,8.75a41,41,0,0,0-6.82.61A19.19,19.19,0,0,0,17,12.26h-.44a8.12,8.12,0,0,0-6.25,3,7.92,7.92,0,0,0-1.58,3.45,18.79,18.79,0,0,0-1.45,1.62,9.26,9.26,0,0,0-1.79,7.37A7.1,7.1,0,0,0,5.79,29a11.38,11.38,0,0,0-.36,4.45c0,.28,0,.57.06.89q.3,4.77,5.14,7.3c0,.31,0,.65,0,1,.27,5,.62,6,1.09,7a5.67,5.67,0,0,0,3.43,2.94,5.78,5.78,0,0,0,1.65.24c2.45,0,4-1.35,5.66-3.41-1.66,4.3-3.58,9.69-1.48,19.22-4.6.61-8.41,3.15-10,6.81C9.7,78.3,9.22,82.83,13.54,88.62c-.23,5.07,1.36,12.36,8.72,15.66a22,22,0,0,0,9.06,1.92c.77,0,1.51,0,2.22-.11A13.86,13.86,0,0,0,35,109c1.7,2.53,5.17,5.78,12,6.83a35.25,35.25,0,0,0,5.41.46c5.27,0,8.24-1.57,10.44-3.33a5.61,5.61,0,0,0,4.55,2.34h0A5.61,5.61,0,0,0,71,114a21.56,21.56,0,0,0,6.92,1.06c6,0,11.14-2,13.71-5.47h.06a5.78,5.78,0,0,0,5.41,4.06,5.06,5.06,0,0,0,1.09-.12,5.46,5.46,0,0,0,4.43-4.88l.27.11a16.34,16.34,0,0,0,6.69,1.68,12.86,12.86,0,0,0,6.65-1.93c7.4-4.42,10.12-10.65,7.8-17.46a13.34,13.34,0,0,0,2.12-8.27,10.23,10.23,0,0,0-4.81-7.51l-.13-.09a10.91,10.91,0,0,0,5.55-6.93,10.3,10.3,0,0,0,.23-1.21,12.47,12.47,0,0,0,4-4,8.94,8.94,0,0,0,1.31-6.86,9.2,9.2,0,0,0-.62-1.88,6.54,6.54,0,0,0,.4-.52,9.59,9.59,0,0,0,1.42-7.7,9.47,9.47,0,0,0-.44-1.42A8,8,0,0,0,135.55,41c1.27-4.07-.7-8.64-5-11.62-3.11-2.15-9.24-3.65-14.91-3.65a26.25,26.25,0,0,0-14.16,3.78c-1.37.87-2.78,1.83-4.17,2.85h0c-.73.53-1.46,1.08-2.23,1.69l-.09.07-.42.33-.89.72-.66.54-.17.15-.62.52L91,37.54l-.41.37-.13.12-.93.86-.07.07-.39.37c-.45.42-.89.85-1.32,1.28-1.47,1.47-4.53,2.21-9.09,2.21h-1c-1.87,0-4-.19-6.25-.45a21,21,0,0,1-5.55-1.26L65.58,41l-.36-.17-.37-.2-.25-.16-.42-.28-.39-.29a7.17,7.17,0,0,1-.58-.52l-.29-.3a10.17,10.17,0,0,1-1.13-1.52c-.19-.31-.37-.64-.55-1a19.82,19.82,0,0,1-1-2.6c-.08-.26-.16-.52-.23-.79-.17-.58-.34-1.15-.52-1.7-.27-.84-.55-1.66-.85-2.45-.39-1.06-.83-2.09-1.28-3.06a35.66,35.66,0,0,0-3.1-5.45c-.43-.62-.89-1.23-1.35-1.8a27.78,27.78,0,0,0-3-3.19L49.31,15A25.81,25.81,0,0,0,42.72,11c-.42-.18-.86-.35-1.3-.51s-.88-.3-1.32-.44l-.68-.2-.8-.2c-.38-.09-.75-.18-1.13-.25s-1.05-.2-1.59-.28-1.34-.17-2-.22l-.74,0c-.6,0-1.23-.05-1.85-.05ZM100.59,42.5h0Zm0,0Z"/><path class="cls-8" d="M18.39,36.88a3.31,3.31,0,0,1-2.88.66c-1.59-.46-4.3-1.28-4.44-3.58s-.5-3.52.82-4,1.2-1.25-.08-2S10.66,25,11.6,23.87s1.28-1.47,2.08-1.75.69-.92.5-1.82a2.33,2.33,0,0,1,2.44-2.45c1.76,0,3.17.14,4.61,4.08s-2.82,12-2.82,12"/><path class="cls-8" d="M21.1,38.21c1.21-.54,2.3-1.05,3.4-1.51a7.57,7.57,0,0,1,5-.29A2.38,2.38,0,0,1,31,38.34c.22.87-1.59,1.08-1.35,1.93.51,1.79-1.77,2.76-2.79,2.8-2.13.07-3.56-2.29-5.06-3.84A7.63,7.63,0,0,1,21.1,38.21Z"/><path class="cls-9" d="M45.41,89.94c-5.06-2.73-15.82-8.78-18.88-22.3-3-13.27,2.93-16.09,3.37-24.57.22-4.23-3.6-6.35-7.67-3-1.25,1-9.12-1.82-8.5-9.41.57-7.07,2.86-14.34,11.69-15.85C39.34,12.49,49.85,18,54.59,34.69c3,10.58,9.49,12.44,16.19,13.21,11.41,1.32,17.51,0,20.86-3.33a75.47,75.47,0,0,1,12.83-10.31c8.1-5.16,20-2.26,22.89-.25,5.27,3.65,3,9.06-2.68,6.54-3.34-1.46-5.82-.27-.56,2.52s4.26,6.47,3.49,7.53c-1.82,2.52-5.31,1.82-5.31,1.82,4.27,2.75,5.59,5.3,4,7.68a6,6,0,0,1-6.11,2.95c2.89,3,.17,6.68-2,7.38-3.24,1.06-4.89-1.54-8.13-2C105.27,67.75,106,83.06,98,89.63c0,0-18.27,5.76-31.2,5S50.46,92.67,45.41,89.94Z"/><path class="cls-10" d="M22.94,27a2,2,0,0,1,1,2.72,2,2,0,0,1-2.64,1A2.14,2.14,0,0,1,20.19,28,2.11,2.11,0,0,1,22.94,27Z"/><path class="cls-11" d="M22.9,27.11a2.37,2.37,0,0,1,.61,2.44,2.33,2.33,0,0,1-2.2,1,2.3,2.3,0,0,1-.72-2.39A2.53,2.53,0,0,1,22.9,27.11Z"/><ellipse class="cls-12" cx="65.42" cy="86.4" rx="7.83" ry="6.2" transform="translate(-31.16 37.23) rotate(-25.88)"/><path class="cls-13" d="M45.64,64.1s6.17,14.58,16.29,17,12.21-3.81,12.21-3.81.4,1.18,5.27,1.71,8.8-2.76,7.48-5.65a6.49,6.49,0,0,0,5.52-2.1,4.23,4.23,0,0,0-1.84-7.1s3.94,4.73-.65,6A19.67,19.67,0,0,1,80.33,70s6.17,5.52,2.36,6.18-9-1.32-13-2.89c0,0,3.84,4.07-.62,5.52S51.81,76.71,45.64,64.1Z"/><path class="cls-14" d="M45.64,64.1s6.17,14.58,16.29,17,12.21-3.81,12.21-3.81.4,1.18,5.27,1.71,8.8-2.76,7.48-5.65a6.49,6.49,0,0,0,5.52-2.1,4.23,4.23,0,0,0-1.84-7.1"/><path class="cls-15" d="M16.2,37.71c1.7,2.14,3.57-2.45,4.19-2s1.76,3.87,2.2,4.13c-.83,1.3-5.31,7.51-5.75,7.38S16,38.28,16.2,37.71Z"/><path class="cls-16" d="M109.51,31.76C106.2,34.17,94.3,41.91,91.64,44.57c-3.35,3.35-9.45,4.65-20.86,3.33-6.7-.77-13.18-2.63-16.19-13.21C49.85,18,39.34,12.49,25.42,14.86c-8.83,1.51-11.12,8.78-11.69,15.85a.28.28,0,0,0,0,.09c1.79-4,4.31-8,7.81-9.93s9-3.07,13.2-1.4,12.33,4.41,16,12.12S55,43.07,57.48,46.14c2.31,2.81,4.25,6.92,17.59,7.74,11.72.71,17.08-4.52,18.6-6.67,2.64-3.74,2.51-5,5.83-7.62C104,36.12,108.61,33,109.51,31.76Z"/><ellipse class="cls-12" cx="27.41" cy="74.04" rx="6.94" ry="8.76" transform="matrix(0.96, -0.28, 0.28, 0.96, -19.31, 10.4)"/><path class="cls-17" d="M34.09,72.13c1.33,4.65-.58,9.27-4.27,10.33S22.07,80.6,20.74,76c6.67,5.86,16.35-2.39,8.41-10A9.59,9.59,0,0,1,34.09,72.13Z"/><ellipse class="cls-18" cx="95.25" cy="82.8" rx="6.94" ry="8.76"/><ellipse class="cls-12" cx="43" cy="79.06" rx="6.94" ry="8.76" transform="translate(-44.16 56.62) rotate(-47.02)"/><path class="cls-19" d="M38.27,84.14c-3.54-3.3-4.29-8.24-1.67-11-1.56,4,13.74,12.84,14.16,6a6.49,6.49,0,0,1-1.35,6C46.8,87.84,41.81,87.44,38.27,84.14Z"/><path class="cls-17" d="M102.19,82.8c0,4.83-3.11,8.75-6.94,8.75s-6.94-3.92-6.94-8.75A10.56,10.56,0,0,1,89,78.88a6.69,6.69,0,0,0,7.38,3.92c2.5-.46,3.42-2.67,3.73-6.2A10,10,0,0,1,102.19,82.8Z"/><path class="cls-20" d="M32.09,79.38a9.59,9.59,0,0,0-7.55-5.25c-5.68-.77-13.6,3.43-5.18,12.78,0,0-2,9.07,5.18,12.28a17.76,17.76,0,0,0,13.86,0s-2.23,9.35,9.49,11.17,11.49-3.18,15-4.25,4.52,3.64,4.52,3.64S68,107,72.6,108.68s12.35.84,14.66-2.51S95.78,103.46,97,108c0,0-.39-4.59,3.56-5.28s7.23,4.41,12.8,1.09,7.64-7.45,4.23-13.34c0,0,6.35-6.7.66-10.45s-14.52-3.81-16.35,3.79c0,0-6.59-1.06-7.77,5,0,0-4.52-4.61-12.9-4s-8.55,5.07-11.61,4.66S65.42,85,65.42,85s-.91,3.44-3.85,3.58-2.79-4.57-7.81-5.5-7.26,1.41-10.82.24S40,76.74,32.09,79.38Z"/><path class="cls-14" d="M124.68,40.55c5.72,2.52,7.95-2.89,2.68-6.54-2.91-2-14.79-4.91-22.89.25-1.34.85-2.63,1.74-3.88,2.65h0c-.71.52-1.4,1-2.09,1.58l-.47.37-.83.68-.61.51-.74.61-1.17,1-.49.45L93.3,43l-.42.4-1.23,1.2h0c-2.61,2.62-6.91,4-14.1,3.83h0c-2,0-4.24-.21-6.72-.5a25.51,25.51,0,0,1-7.11-1.66l-.42-.19-.58-.28-.6-.32-.43-.26-.71-.47c-.22-.16-.45-.33-.67-.51s-.67-.57-1-.89l-.48-.5A16.46,16.46,0,0,1,57,40.46c-.27-.44-.53-.92-.78-1.42a23.09,23.09,0,0,1-1.36-3.38l-.3-1c-.14-.52-.3-1-.46-1.53-.24-.75-.49-1.48-.75-2.18-.36-.94-.73-1.83-1.12-2.68a31,31,0,0,0-2.62-4.61c-.36-.52-.73-1-1.11-1.48a21.81,21.81,0,0,0-2.42-2.55l-.42-.38a20.18,20.18,0,0,0-5.15-3.19c-.34-.14-.68-.28-1-.4s-.7-.24-1.05-.35l-.53-.15L37.3,15l-.9-.2c-.43-.08-.86-.16-1.29-.22s-1.09-.14-1.65-.18l-.61,0a33.51,33.51,0,0,0-7.43.48,12.87,12.87,0,0,0-6.88,3.26,4.55,4.55,0,0,0-1.92-.27,2.33,2.33,0,0,0-2.44,2.45c.19.9.31,1.54-.5,1.82s-1.14.58-2.08,1.75-1.07,3.41.21,4.12,1.39,1.49.08,2-1,1.7-.82,4,2.85,3.12,4.44,3.58a2.46,2.46,0,0,0,.63.11l.44.43a1.87,1.87,0,0,1-.38-.37c-.22.57.19,9.36.64,9.5s4.61-5.65,5.65-7.22c1.27,1.46,2.57,3.14,4.37,3.08.84,0,2.54-.7,2.82-1.94a5.48,5.48,0,0,1,.22,1.94c-.42,8-5.74,11-3.78,22.5a6,6,0,0,0-4.9,3.37,10.47,10.47,0,0,0-.51,5.39c-4.52,1.1-7.94,5.26-1.35,12.58,0,0-2,9.07,5.18,12.28a17.76,17.76,0,0,0,13.86,0s-2.23,9.35,9.49,11.17,11.49-3.18,15-4.25,4.52,3.64,4.52,3.64S68,107,72.6,108.68s12.35.84,14.66-2.51S95.78,103.46,97,108c0,0-.39-4.59,3.56-5.28s7.23,4.41,12.8,1.09,7.64-7.45,4.23-13.34c0,0,6.35-6.7.66-10.45-4.41-2.92-10.73-3.6-14.18-.2,2.15-6,3-11.77,6.05-11.34,3.24.45,4.89,3,8.13,2,2.13-.7,4.85-4.36,2-7.38a6,6,0,0,0,6.11-2.95c1.54-2.38.22-4.93-4-7.68,0,0,3.49.7,5.31-1.82.77-1.06,1.77-4.74-3.49-7.53S121.34,39.09,124.68,40.55Z"/></g></g></svg>