<svg xmlns="http://www.w3.org/2000/svg" xmlns:xlink="http://www.w3.org/1999/xlink" viewBox="0 0 293 71"><defs><style>.cls-1{isolation:isolate;}.cls-2{opacity:0.3;}.cls-2,.cls-7{mix-blend-mode:multiply;}.cls-20,.cls-3,.cls-6,.cls-8{fill:#fff;}.cls-4{fill:url(#linear-gradient);}.cls-5{fill:#662d91;}.cls-6{opacity:0.5;mix-blend-mode:soft-light;}.cls-7{fill:#e6e6e6;}.cls-20,.cls-8{font-size:27.32px;}.cls-8{stroke:#662d91;stroke-miterlimit:10;stroke-width:3px;}.cls-9{letter-spacing:0em;}.cls-10{letter-spacing:-0.02em;}.cls-11{letter-spacing:-0.03em;}.cls-12{letter-spacing:-0.01em;}.cls-13{letter-spacing:-0.03em;}.cls-14{letter-spacing:-0.01em;}.cls-15{letter-spacing:-0.02em;}.cls-16{letter-spacing:-0.02em;}.cls-17{letter-spacing:-0.02em;}.cls-18{letter-spacing:-0.03em;}.cls-19{letter-spacing:-0.02em;}</style><linearGradient id="linear-gradient" x1="144.5" y1="2.4" x2="144.5" y2="64.6" gradientUnits="userSpaceOnUse"><stop offset="0" stop-color="#93278f"/><stop offset="1" stop-color="#6e3975"/></linearGradient></defs><title>18</title><g class="cls-1"><g id="Capa_2" data-name="Capa 2"><g id="Layer_1" data-name="Layer 1"><g class="cls-2"><rect x="4" y="4" width="289" height="67" rx="12"/></g><rect class="cls-3" width="289" height="67" rx="12"/><rect class="cls-4" x="3.36" y="2.4" width="282.27" height="62.2" rx="11.86"/><path class="cls-5" d="M273.78,3.07A11.22,11.22,0,0,1,285,14.26V52.74a11.22,11.22,0,0,1-11.19,11.19H15.22A11.22,11.22,0,0,1,4,52.74V14.26A11.22,11.22,0,0,1,15.22,3.07H273.78m0-1.34H15.22A12.54,12.54,0,0,0,2.7,14.26V52.74A12.54,12.54,0,0,0,15.22,65.27H273.78A12.53,12.53,0,0,0,286.3,52.74V14.26A12.53,12.53,0,0,0,273.78,1.73Z"/><path class="cls-3" d="M33.45,47.85a2.58,2.58,0,0,1-1.61-.56L18.16,36.56a2.61,2.61,0,0,1,0-4.12L31.84,21.71a2.58,2.58,0,0,1,1.61-.56,2.63,2.63,0,0,1,2.63,2.63,6.35,6.35,0,0,0,.82,2.62h4.86A2.62,2.62,0,0,1,44.39,29V40a2.62,2.62,0,0,1-2.63,2.62H36.9a6.35,6.35,0,0,0-.82,2.63,2.61,2.61,0,0,1-.81,1.9A2.68,2.68,0,0,1,33.45,47.85Z"/><path class="cls-5" d="M33.45,22.15a1.62,1.62,0,0,1,1.63,1.63c0,.89.73,3.62,1.62,3.62h5.06A1.62,1.62,0,0,1,43.39,29V40a1.62,1.62,0,0,1-1.63,1.62H36.7c-.89,0-1.62,2.73-1.62,3.62a1.62,1.62,0,0,1-1.63,1.63,1.58,1.58,0,0,1-1-.35L18.78,35.78a1.63,1.63,0,0,1,0-2.56L32.46,22.5a1.58,1.58,0,0,1,1-.35m0-2a3.63,3.63,0,0,0-2.23.77L17.54,31.65a3.62,3.62,0,0,0,0,5.7L31.22,48.08a3.63,3.63,0,0,0,5.86-2.86,6.25,6.25,0,0,1,.42-1.62h4.26A3.63,3.63,0,0,0,45.39,40V29a3.63,3.63,0,0,0-3.63-3.62H37.5a6.22,6.22,0,0,1-.42-1.63,3.63,3.63,0,0,0-3.63-3.62Z"/><path class="cls-6" d="M9.72,26a61.22,61.22,0,0,0,1.51-7.09A12,12,0,0,1,23,8.57L278,3.9a11.13,11.13,0,0,0-4.21-.83H15.22A11.22,11.22,0,0,0,4,14.26V48.19Z"/><path class="cls-7" d="M279.42,41.05a63.38,63.38,0,0,0-1.51,7.09,11.94,11.94,0,0,1-11.8,10.29l-255,4.67a11.22,11.22,0,0,0,4.22.83H273.93a11.22,11.22,0,0,0,11.19-11.19V18.81Z"/><text class="cls-8" transform="translate(50.84 44.39)"><tspan class="cls-9">I</tspan><tspan class="cls-10" x="7.41" y="0">n</tspan><tspan class="cls-11" x="23.17" y="0">t</tspan><tspan class="cls-12" x="33.54" y="0">e</tspan><tspan class="cls-10" x="49.13" y="0">n</tspan><tspan class="cls-13" x="64.9" y="0">t</tspan><tspan class="cls-14" x="75.26" y="0">a</tspan><tspan x="92.11" y="0">r </tspan><tspan class="cls-15" x="111.62" y="0">o</tspan><tspan class="cls-16" x="127.85" y="0">t</tspan><tspan class="cls-17" x="138.46" y="0">r</tspan><tspan x="149.69" y="0">a </tspan><tspan class="cls-18" x="174.36" y="0">v</tspan><tspan class="cls-19" x="188.95" y="0">e</tspan><tspan x="204.22" y="0">z</tspan></text><text class="cls-20" transform="translate(50.84 44.39)"><tspan class="cls-9">I</tspan><tspan class="cls-10" x="7.41" y="0">n</tspan><tspan class="cls-11" x="23.17" y="0">t</tspan><tspan class="cls-12" x="33.54" y="0">e</tspan><tspan class="cls-10" x="49.13" y="0">n</tspan><tspan class="cls-13" x="64.9" y="0">t</tspan><tspan class="cls-14" x="75.26" y="0">a</tspan><tspan x="92.11" y="0">r </tspan><tspan class="cls-15" x="111.62" y="0">o</tspan><tspan class="cls-16" x="127.85" y="0">t</tspan><tspan class="cls-17" x="138.46" y="0">r</tspan><tspan x="149.69" y="0">a </tspan><tspan class="cls-18" x="174.36" y="0">v</tspan><tspan class="cls-19" x="188.95" y="0">e</tspan><tspan x="204.22" y="0">z</tspan></text></g></g></g></svg>