<svg xmlns="http://www.w3.org/2000/svg" viewBox="0 0 137.79 123.34"><defs><style>.cls-1{isolation:isolate;}.cls-2{fill:#002451;opacity:0.27;}.cls-3{fill:#fff2cc;}.cls-4{fill:#29abe2;}.cls-5{opacity:0.2;mix-blend-mode:multiply;}.cls-6{fill:#fff;}.cls-7{fill:#000f56;}.cls-8{fill:#e6c155;}.cls-9{fill:#b76d72;}.cls-10{fill:#af5c66;}.cls-11{fill:#f2d395;}.cls-12{fill:#e4c1b7;}.cls-13{fill:#34331b;}.cls-14{fill:none;stroke:#1e134d;stroke-linecap:round;stroke-linejoin:round;stroke-width:1.25px;}</style></defs><title>35</title><g class="cls-1"><g id="Capa_2" data-name="Capa 2"><g id="Layer_1" data-name="Layer 1"><rect class="cls-2" x="17.7" y="3.26" width="120.09" height="120.09" rx="36.12"/><rect class="cls-3" x="14.6" y="0.15" width="120.09" height="120.09" rx="36.12"/><path class="cls-4" d="M134.21,90H121.28a17.13,17.13,0,0,0-17.13,17.12v12.74A36.14,36.14,0,0,0,134.21,90Z"/><g class="cls-5"><rect x="116.56" y="98.45" width="1.38" height="10.82"/><polygon points="117.22 94.35 114.44 99.17 120.01 99.17 117.22 94.35"/><polygon points="117.25 113.29 120.04 108.47 114.47 108.47 117.25 113.29"/><rect x="111.84" y="103.17" width="10.82" height="1.38"/><polygon points="107.76 103.84 112.59 106.62 112.59 101.05 107.76 103.84"/><polygon points="126.71 103.8 121.89 101.02 121.89 106.59 126.71 103.8"/></g><rect class="cls-6" x="115.56" y="97.45" width="1.38" height="10.82"/><polygon class="cls-6" points="116.22 93.35 113.44 98.17 119.01 98.17 116.22 93.35"/><polygon class="cls-6" points="116.25 112.29 119.04 107.47 113.47 107.47 116.25 112.29"/><rect class="cls-6" x="110.84" y="102.17" width="10.82" height="1.38"/><polygon class="cls-6" points="106.76 102.84 111.59 105.62 111.59 100.05 106.76 102.84"/><polygon class="cls-6" points="125.71 102.8 120.89 100.02 120.89 105.59 125.71 102.8"/><g class="cls-5"><path class="cls-7" d="M73.43,8c7,0,14,1.23,18.77,3.3a20.64,20.64,0,0,1,8.18,6.32c2.35-.81,2.39-2.19,2.39-2.19a5.66,5.66,0,0,1,2.42-1c.65,0,1.12.44.89,1.87a8.08,8.08,0,0,1,2.13-.35c1.08,0,2.11.38,1.81,1.94,0,0,2.87.33,1.52,4a12.45,12.45,0,0,1-6.12,6.51,54.55,54.55,0,0,1,1.32,7c2.26,18.41-6.52,24.27-6.52,24.27a7.65,7.65,0,0,1-3,6.85,24.78,24.78,0,0,0-1.26,2.6q-.59,1.36-1.05,2.76a51,51,0,0,0-1.57,5.62c-.2,1-.4,1.9-.57,2.86s-.28,1.93-.36,2.9a29.09,29.09,0,0,0-.09,3c0,.43,0,.86.07,1.3a10.44,10.44,0,0,0,2.76,2.23c2,1.17,1.46,3.36.88,5.11a1.62,1.62,0,0,1-1.68,1,3.54,3.54,0,0,1-3.19-2c-.78-2-2.87-2.77-4.62-3.36a3.62,3.62,0,0,0-1.15-.22c-.81,0-1.38.43-3.48.73A22.76,22.76,0,0,0,75.5,92.7a3.74,3.74,0,0,1-1.33.31C73,93,73,91.89,72.92,90.42c0-1.9.82-2.19.82-2.19-1.66-1.34.13-2.27,3.14-2.27a16.54,16.54,0,0,1,1.93.11,42.22,42.22,0,0,0,4.21.47,9.69,9.69,0,0,0,2.82-.46c.21-.37.4-.74.58-1.11a29.29,29.29,0,0,0,1.15-2.73,35.66,35.66,0,0,0,1.49-5.63,52.8,52.8,0,0,0,.76-5.78c0-.36.05-.72.07-1.08l-.68.15a34.4,34.4,0,0,1-7.1.7,47.73,47.73,0,0,1-13-1.86c-.23.23-.45.47-.67.72-.61.67-1.18,1.37-1.72,2.09A43.25,43.25,0,0,0,63.85,76a38.61,38.61,0,0,0-2.41,4.76c-.17.41-.34.83-.49,1.25,0,1.29-.39,1.27,1.92,2,2.93,1,6.25.77,5.66,2.63-.24.78-1.19,1-2.19,1a12.33,12.33,0,0,1-2.87-.42s2.21,2.41,1.25,3.93A3.56,3.56,0,0,1,62.06,93a1.53,1.53,0,0,1-1.22-.58C59.77,91.17,59.38,89.9,58.4,89a5.23,5.23,0,0,0-3.49-1,12.41,12.41,0,0,0-3.13.43,16.58,16.58,0,0,1-4.67.82c-.44,0-.93,0-1.56,0-2.54-.1-4.39-.59-4.58-1.66s.87-2.18,2.53-2.18h.25s-2.25-.56-2-1.33-.27-2.63,1.29-2.83l.51,0c1.09,0,1.4.57,4,.91a12.52,12.52,0,0,0,1.68.13,42.89,42.89,0,0,0,4.34-.46,17.94,17.94,0,0,0,1.79-1.55,26.13,26.13,0,0,0,1.81-2c.57-.69,1.1-1.4,1.6-2.13a24.73,24.73,0,0,0,1.39-2.25A41.25,41.25,0,0,0,62.34,69c.25-.65.47-1.31.68-2h0c-2.64,0-5.07,1.39-11.69,2.22a30.75,30.75,0,0,1-3.76.25c-6.48,0-9.43-2.56-12.13-4.91-1.63-1.42-2.48-1.81-3.37-1.81s-1.76.36-3.43.52c-.84.08-1.67.14-2.53.14A14.31,14.31,0,0,1,22,62.9a19.35,19.35,0,0,1-2.25,1.48c-2.74,1.54-5.87,3.75-6.11,4.48-.16.47-.47,1-.74,1s-.29-.15-.38-.54a18.59,18.59,0,0,1-.59-7.39c.47-3.67.34-4.18.8-5.06h0c-2.37-3.47-2.61-8.57-.75-17.27,2.58-12,14.22-16.29,21.34-18.19a25.81,25.81,0,0,1,7-1c.82,0,1.51,0,2.09,0a3.31,3.31,0,0,0,2.24-.56c1.63-1.35,3.33-4.06,12.39-8.74C61.24,9,67.29,8,73.43,8m0-6V2c-5.38,0-13.08.66-19.19,3.82-7.77,4-10.81,6.86-12.6,8.62l-1.37,0a32.11,32.11,0,0,0-8.54,1.16C17.1,19.49,8.47,27.14,6.07,38.32,4.21,47,4.26,53.05,6.33,57.69c0,.29-.07.59-.1.9-.07.61-.15,1.42-.29,2.55a24.13,24.13,0,0,0,.63,9.25l.07.28a6.41,6.41,0,0,0,6.22,5.16,6.66,6.66,0,0,0,5.79-3.61,34,34,0,0,1,4-2.6l.57-.33a20.61,20.61,0,0,0,2.86.19c1.13,0,2.15-.08,3.09-.17A21.42,21.42,0,0,0,31.29,69l.17.15a22.32,22.32,0,0,0,11.78,6c-.32,0-.64,0-1,.08-1,.13-6.23,1.11-6.47,7.77a6.91,6.91,0,0,0-.1,1,7.46,7.46,0,0,0-.64,4.58c.52,2.84,2.72,6.28,10.25,6.57.74,0,1.27.05,1.8.05a22.46,22.46,0,0,0,6.16-1A7.82,7.82,0,0,1,54.65,94a16,16,0,0,0,1.61,2.3,7.58,7.58,0,0,0,5.8,2.7,9,9,0,0,0,6.38-2.89A7,7,0,0,0,74.17,99a9.66,9.66,0,0,0,3.53-.73,17,17,0,0,1,5-1.35,21.72,21.72,0,0,0,2.55-.52l.5.19a9.56,9.56,0,0,0,8.53,5.25,7.56,7.56,0,0,0,7.37-5.09c2.41-7.22-1-10.65-3.38-12.09,0-.31,0-.62,0-1,.07-.77.17-1.57.3-2.36s.33-1.74.51-2.58a48.68,48.68,0,0,1,1.38-5q.4-1.17.9-2.37c.19-.44.37-.82.53-1.16a13.63,13.63,0,0,0,4.12-7.89c3.37-3.66,8.53-12,6.59-27.73-.15-1.23-.33-2.44-.54-3.6a17.34,17.34,0,0,0,5-7.11c1.42-3.87.52-6.62-.49-8.25a8.11,8.11,0,0,0-1.34-1.64,7.74,7.74,0,0,0-.92-1.43,7.55,7.55,0,0,0-4.74-2.6,6.86,6.86,0,0,0-4.49-1.63,9.49,9.49,0,0,0-4.34,1.18A26.87,26.87,0,0,0,94.6,5.8C89.16,3.42,81.25,2,73.43,2ZM47.53,75.54a37,37,0,0,0,4.21-.26l-.66.68-.09.09h0a16.9,16.9,0,0,1-1.81.19,6.59,6.59,0,0,1-.88-.08,6.38,6.38,0,0,1-1.5-.35,8.87,8.87,0,0,0-1-.32c.57,0,1.16.05,1.78.05Zm21.33,3.79a3.37,3.37,0,0,0,.19-.32,36.78,36.78,0,0,1,2.29-3.55A53,53,0,0,0,82.11,76.6H83a28.62,28.62,0,0,1-1,3.63,1.59,1.59,0,0,1-.07.2l-.42-.06-1.93-.25A23.51,23.51,0,0,0,76.88,80a13.82,13.82,0,0,0-5,.82,8.94,8.94,0,0,0-3-1.45Z"/></g><path class="cls-6" d="M73.43,6c7,0,14,1.23,18.77,3.3a20.64,20.64,0,0,1,8.18,6.32c2.35-.81,2.39-2.19,2.39-2.19a5.66,5.66,0,0,1,2.42-1c.65,0,1.12.44.89,1.87a8.08,8.08,0,0,1,2.13-.35c1.08,0,2.11.38,1.81,1.94,0,0,2.87.33,1.52,4a12.45,12.45,0,0,1-6.12,6.51,54.55,54.55,0,0,1,1.32,7c2.26,18.41-6.52,24.27-6.52,24.27a7.65,7.65,0,0,1-3,6.85,24.78,24.78,0,0,0-1.26,2.6q-.59,1.36-1.05,2.76a51,51,0,0,0-1.57,5.62c-.2,1-.4,1.9-.57,2.86s-.28,1.93-.36,2.9a29.09,29.09,0,0,0-.09,3c0,.43,0,.86.07,1.3a10.44,10.44,0,0,0,2.76,2.23c2,1.17,1.46,3.36.88,5.11a1.62,1.62,0,0,1-1.68,1,3.54,3.54,0,0,1-3.19-2c-.78-2-2.87-2.77-4.62-3.36a3.62,3.62,0,0,0-1.15-.22c-.81,0-1.38.43-3.48.73A22.76,22.76,0,0,0,75.5,90.7a3.74,3.74,0,0,1-1.33.31C73,91,73,89.89,72.92,88.42c0-1.9.82-2.19.82-2.19-1.66-1.34.13-2.27,3.14-2.27a16.54,16.54,0,0,1,1.93.11,42.22,42.22,0,0,0,4.21.47,9.69,9.69,0,0,0,2.82-.46c.21-.37.4-.74.58-1.11a29.29,29.29,0,0,0,1.15-2.73,35.66,35.66,0,0,0,1.49-5.63,52.8,52.8,0,0,0,.76-5.78c0-.36.05-.72.07-1.08l-.68.15a34.4,34.4,0,0,1-7.1.7,47.73,47.73,0,0,1-13-1.86c-.23.23-.45.47-.67.72-.61.67-1.18,1.37-1.72,2.09A43.25,43.25,0,0,0,63.85,74a38.61,38.61,0,0,0-2.41,4.76c-.17.41-.34.83-.49,1.25,0,1.29-.39,1.27,1.92,2,2.93,1,6.25.77,5.66,2.63-.24.78-1.19,1-2.19,1a12.33,12.33,0,0,1-2.87-.42s2.21,2.41,1.25,3.93A3.56,3.56,0,0,1,62.06,91a1.53,1.53,0,0,1-1.22-.58C59.77,89.17,59.38,87.9,58.4,87a5.23,5.23,0,0,0-3.49-1,12.41,12.41,0,0,0-3.13.43,16.58,16.58,0,0,1-4.67.82c-.44,0-.93,0-1.56,0-2.54-.1-4.39-.59-4.58-1.66s.87-2.18,2.53-2.18h.25s-2.25-.56-2-1.33-.27-2.63,1.29-2.83l.51,0c1.09,0,1.4.57,4,.91a12.52,12.52,0,0,0,1.68.13,42.89,42.89,0,0,0,4.34-.46,17.94,17.94,0,0,0,1.79-1.55,26.13,26.13,0,0,0,1.81-2c.57-.69,1.1-1.4,1.6-2.13a24.73,24.73,0,0,0,1.39-2.25A41.25,41.25,0,0,0,62.34,67c.25-.65.47-1.31.68-2h0c-2.64,0-5.07,1.39-11.69,2.22a30.75,30.75,0,0,1-3.76.25c-6.48,0-9.43-2.56-12.13-4.91-1.63-1.42-2.48-1.81-3.37-1.81s-1.76.36-3.43.52c-.84.08-1.67.14-2.53.14A14.31,14.31,0,0,1,22,60.9a19.35,19.35,0,0,1-2.25,1.48c-2.74,1.54-5.87,3.75-6.11,4.48-.16.47-.47,1-.74,1s-.29-.15-.38-.54a18.59,18.59,0,0,1-.59-7.39c.47-3.67.34-4.18.8-5.06h0c-2.37-3.47-2.61-8.57-.75-17.27,2.58-12,14.22-16.29,21.34-18.19a25.81,25.81,0,0,1,7-1c.82,0,1.51,0,2.09,0a3.31,3.31,0,0,0,2.24-.56c1.63-1.35,3.33-4.06,12.39-8.74C61.24,7,67.29,6,73.43,6m0-6V0C68.05,0,60.35.66,54.24,3.82c-7.77,4-10.81,6.86-12.6,8.62l-1.37,0a32.11,32.11,0,0,0-8.54,1.16C17.1,17.49,8.47,25.14,6.07,36.32,4.21,45,4.26,51.05,6.33,55.69c0,.29-.07.59-.1.9-.07.61-.15,1.42-.29,2.55a24.13,24.13,0,0,0,.63,9.25l.07.28a6.41,6.41,0,0,0,6.22,5.16,6.66,6.66,0,0,0,5.79-3.61,34,34,0,0,1,4-2.6l.57-.33a20.61,20.61,0,0,0,2.86.19c1.13,0,2.15-.08,3.09-.17A21.42,21.42,0,0,0,31.29,67l.17.15a22.32,22.32,0,0,0,11.78,6c-.32,0-.64,0-1,.08-1,.13-6.23,1.11-6.47,7.77a6.91,6.91,0,0,0-.1,1,7.46,7.46,0,0,0-.64,4.58c.52,2.84,2.72,6.28,10.25,6.57.74,0,1.27.05,1.8.05a22.46,22.46,0,0,0,6.16-1A7.82,7.82,0,0,1,54.65,92a16,16,0,0,0,1.61,2.3,7.58,7.58,0,0,0,5.8,2.7,9,9,0,0,0,6.38-2.89A7,7,0,0,0,74.17,97a9.66,9.66,0,0,0,3.53-.73,17,17,0,0,1,5-1.35,21.72,21.72,0,0,0,2.55-.52l.5.19a9.56,9.56,0,0,0,8.53,5.25,7.56,7.56,0,0,0,7.37-5.09c2.41-7.22-1-10.65-3.38-12.09,0-.31,0-.62,0-1,.07-.77.17-1.57.3-2.36s.33-1.74.51-2.58a48.68,48.68,0,0,1,1.38-5q.4-1.17.9-2.37c.19-.44.37-.82.53-1.16a13.63,13.63,0,0,0,4.12-7.89c3.37-3.66,8.53-12,6.59-27.73-.15-1.23-.33-2.44-.54-3.6a17.34,17.34,0,0,0,5-7.11c1.42-3.87.52-6.62-.49-8.25a8.11,8.11,0,0,0-1.34-1.64,7.74,7.74,0,0,0-.92-1.43A7.55,7.55,0,0,0,109.68,8a6.86,6.86,0,0,0-4.49-1.63,9.49,9.49,0,0,0-4.34,1.18A26.87,26.87,0,0,0,94.6,3.8C89.16,1.42,81.25,0,73.43,0ZM47.53,73.54a37,37,0,0,0,4.21-.26l-.66.68-.09.09h0a16.9,16.9,0,0,1-1.81.19,6.59,6.59,0,0,1-.88-.08,6.38,6.38,0,0,1-1.5-.35,8.87,8.87,0,0,0-1-.32c.57,0,1.16.05,1.78.05Zm21.33,3.79a3.37,3.37,0,0,0,.19-.32,36.78,36.78,0,0,1,2.29-3.55A53,53,0,0,0,82.11,74.6H83a28.62,28.62,0,0,1-1,3.63,1.59,1.59,0,0,1-.07.2l-.42-.06-1.93-.25A23.51,23.51,0,0,0,76.88,78a13.82,13.82,0,0,0-5,.82,8.94,8.94,0,0,0-3-1.45Z"/><path class="cls-8" d="M63.21,64.49c-.25.87-.54,1.72-.86,2.55a43,43,0,0,1-2.24,4.81,22.78,22.78,0,0,1-1.4,2.25c-.5.73-1,1.44-1.59,2.13a24.34,24.34,0,0,1-1.82,2,15.94,15.94,0,0,1-1.79,1.55c-3.45.41-3.91.61-6,.33-2.92-.39-2.92-1.07-4.48-.88s-1.07,2-1.29,2.83,2,1.33,2,1.33c-1.8-.12-3,1.1-2.79,2.17s2.05,1.56,4.58,1.66,2.83.1,6.24-.78,5.65-.29,6.62.58,1.36,2.15,2.43,3.41,2.93.29,3.89-1.23-1.26-3.93-1.26-3.93,4.48,1.27,5.07-.58S65.81,83,62.88,82.06c-2.31-.77-1.94-.75-1.92-2,.15-.42.31-.84.48-1.25A37.32,37.32,0,0,1,63.86,74a41.67,41.67,0,0,1,2.92-4.46c.54-.72,1.11-1.42,1.72-2.09a18.27,18.27,0,0,1,2-1.95L63.82,61.8A19.16,19.16,0,0,1,63.21,64.49Z"/><path class="cls-8" d="M95.13,87.75a10.28,10.28,0,0,1-2.76-2.23c0-.44-.06-.87-.07-1.3a29.09,29.09,0,0,1,.09-3c.08-1,.2-1.94.36-2.9s.36-1.91.57-2.86a51,51,0,0,1,1.57-5.62c.31-.93.66-1.85,1-2.76a23.27,23.27,0,0,1,1.33-2.7l-7.47-1.53a23.49,23.49,0,0,1,.16,3c0,1,0,2-.12,2.94a52.8,52.8,0,0,1-.76,5.78,35.69,35.69,0,0,1-1.5,5.63A29.2,29.2,0,0,1,86.43,83c-.18.37-.37.74-.58,1.11-2.83.81-3.69.38-7,0-4.1-.47-7.06.55-5.07,2.16,0,0-.86.29-.82,2.19s.15,3.23,2.58,2.28A22.78,22.78,0,0,1,81.88,89c2.93-.42,2.9-1.09,4.64-.51s3.84,1.32,4.62,3.36,4.28,2.77,4.87,1S97.18,88.92,95.13,87.75Z"/><path class="cls-9" d="M110,15.87c.59-3.07-3.94-1.59-3.94-1.59.58-3.63-3.31-.85-3.31-.85s0,1.38-2.39,2.19A20.64,20.64,0,0,0,92.21,9.3C83.32,5.41,66.06,4.48,57,9.15s-10.76,7.39-12.39,8.74-4.21-.41-11.32,1.49S14.53,25.53,12,37.57s-1.12,17.18,4.43,20.68,8.83,3.41,12.23,3.09,3.61-1.49,6.79,1.29,6.69,5.82,15.9,4.66,10.3-3.39,15.16-1.47,14.43,3.86,22.76,2.08c7-1.5,11.42-4.8,11-10.23,0,0,8.79-5.86,6.52-24.27a52.93,52.93,0,0,0-1.31-7,12.39,12.39,0,0,0,6.11-6.51C112.9,16.2,110,15.87,110,15.87Z"/><path class="cls-10" d="M11.18,42.15c2.25,3.25,7.38,4.5,8.63,1.62s3.07-7,6.29-9.13a52.71,52.71,0,0,1,13.47-6c4.38-1.12,4.75-4.13,6.25-6s3.38-6.51,7.38-6.76S72.46,14,75.09,12.26,84.35,10,86,10s3.55-2.37-2.09-3.09S68,5.13,62.21,7.5s-13,6.06-15.32,8.22-1.57,3.17-10.07,3.42-19,5.89-22.3,12A25.3,25.3,0,0,0,11.18,42.15Z"/><path class="cls-11" d="M24.51,56.57c1.15,1.53-2.05,4.27-4.79,5.81s-5.87,3.75-6.11,4.48-.86,1.52-1.12.43a18.72,18.72,0,0,1-.6-7.39c.47-3.67.35-4.18.81-5.06s2.67-2,3.54-.38,1.26,3.17,2.53,2.47S23.15,54.76,24.51,56.57Z"/><path class="cls-12" d="M29.07,44c1.14,1.11,1,4-.59,5.73a3.9,3.9,0,0,1-5.21.62,4.54,4.54,0,0,1,0-5.33C25,42.61,27.43,43.09,29.07,44Z"/><path class="cls-13" d="M28.13,45A3.37,3.37,0,0,1,27.51,49a2.67,2.67,0,0,1-3.51.52A3.15,3.15,0,0,1,28.13,45Z"/><path class="cls-10" d="M65.63,32.64s-7.76,9.82-2.5,15.81,6.43,3.22,6.43,3.22S77,62,81.55,54.84c0,0,7,2.38,7.2-3.61,0,0,3.17-4.36,0-7.6,0,0,2.14,6.81-4.27,4.23,0,0-.64,4.48-6.77,2.58,0,0-2.18,4.2-8.59-3.57C69.12,46.87,60.08,46.33,65.63,32.64Z"/><path class="cls-14" d="M65.63,32.64s-7.76,9.82-2.5,15.81,6.43,3.22,6.43,3.22S77,62,81.55,54.84c0,0,7,2.38,7.2-3.61,0,0,3.17-4.36,0-7.6"/><path class="cls-14" d="M110,15.87c.59-3.07-3.94-1.59-3.94-1.59.58-3.63-3.31-.85-3.31-.85s0,1.38-2.39,2.19A20.64,20.64,0,0,0,92.2,9.3C83.31,5.41,66.05,4.48,57,9.15S46.23,16.54,44.6,17.89s-4.21-.41-11.32,1.49S14.52,25.53,11.94,37.57c-1.86,8.7-1.62,13.8.75,17.27h0c-.46.88-.33,1.39-.8,5.06a18.59,18.59,0,0,0,.59,7.39c.26,1.09.88.31,1.12-.43s3.37-2.94,6.11-4.48A19.35,19.35,0,0,0,22,60.9a16.55,16.55,0,0,0,6.64.44c3.41-.32,3.61-1.49,6.8,1.29s6.69,5.82,15.89,4.66C58,66.45,60.36,65.05,63,65.07c-.21.66-.43,1.32-.68,2a41.25,41.25,0,0,1-2.24,4.81,24.73,24.73,0,0,1-1.39,2.25c-.5.73-1,1.44-1.6,2.13a26.13,26.13,0,0,1-1.81,2,17.94,17.94,0,0,1-1.79,1.55c-3.46.41-3.91.61-6,.33-2.92-.39-2.92-1.07-4.48-.88s-1.07,2-1.29,2.83,2,1.33,2,1.33c-1.8-.12-3,1.1-2.78,2.17s2,1.56,4.58,1.66,2.82.1,6.23-.78,5.65-.29,6.62.58,1.37,2.15,2.44,3.41,2.92.29,3.88-1.23-1.25-3.93-1.25-3.93,4.48,1.27,5.06-.58S65.8,83,62.87,82.06c-2.31-.77-1.94-.75-1.92-2,.15-.42.32-.84.49-1.25A38.61,38.61,0,0,1,63.85,74a43.25,43.25,0,0,1,2.92-4.46c.54-.72,1.11-1.42,1.72-2.09.22-.25.44-.49.67-.72,5.22,1.53,13.07,2.65,20,1.16l.68-.15c0,.36,0,.72-.07,1.08a52.8,52.8,0,0,1-.76,5.78,35.66,35.66,0,0,1-1.49,5.63A29.29,29.29,0,0,1,86.42,83c-.18.37-.37.74-.58,1.11-2.83.81-3.69.38-7,0-4.09-.47-7.06.55-5.07,2.16,0,0-.85.29-.82,2.19s.15,3.23,2.58,2.28A22.76,22.76,0,0,1,81.88,89c2.92-.42,2.89-1.09,4.63-.51s3.84,1.32,4.62,3.36,4.28,2.77,4.87,1,1.17-3.94-.88-5.11a10.44,10.44,0,0,1-2.76-2.23c0-.44-.06-.87-.07-1.3a29.09,29.09,0,0,1,.09-3c.08-1,.2-1.94.36-2.9s.37-1.91.57-2.86a51,51,0,0,1,1.57-5.62q.47-1.39,1.05-2.76a24.78,24.78,0,0,1,1.26-2.6,7.65,7.65,0,0,0,3-6.85s8.78-5.86,6.52-24.27a54.55,54.55,0,0,0-1.32-7,12.45,12.45,0,0,0,6.12-6.51C112.89,16.2,110,15.87,110,15.87Z"/><g class="cls-5"><path class="cls-7" d="M17.54,87.49a5.27,5.27,0,0,1,3.27,1.1c1.72,1.46,3.28,1.49,4.22,2.49,1.24,1.31,4.93,2.15,6,2.59s.89,3.11-.82,4.27S24.67,100,19.39,100l-1.26,0A72,72,0,0,1,6.64,98.24c-3.8-2.34,0-5.56,1.65-6.43s4.58.29,5.8-2.34a3.59,3.59,0,0,1,3.45-2m0-5a8.58,8.58,0,0,0-7.46,3.9H10a9.79,9.79,0,0,0-4.08,1C5.35,87.7.17,90.6,0,95.65a7.78,7.78,0,0,0,4,6.85,5.05,5.05,0,0,0,1.46.6A75.87,75.87,0,0,0,18,105c.48,0,.95,0,1.41,0,5.81,0,10.91-1.11,13.63-3a8.65,8.65,0,0,0,3.63-7.82A6.18,6.18,0,0,0,32.93,89c-.47-.19-1-.35-1.65-.56a19.41,19.41,0,0,1-2.8-1,9.73,9.73,0,0,0-3.17-2A4.8,4.8,0,0,1,24,84.78a10.11,10.11,0,0,0-6.5-2.29Z"/></g><path class="cls-6" d="M17.54,85.49a5.27,5.27,0,0,1,3.27,1.1c1.72,1.46,3.28,1.49,4.22,2.49,1.24,1.31,4.93,2.15,6,2.59s.89,3.11-.82,4.27S24.67,98,19.39,98l-1.26,0A72,72,0,0,1,6.64,96.24c-3.8-2.34,0-5.56,1.65-6.43s4.58.29,5.8-2.34a3.59,3.59,0,0,1,3.45-2m0-5a8.58,8.58,0,0,0-7.46,3.9H10a9.79,9.79,0,0,0-4.08,1C5.35,85.7.17,88.6,0,93.65a7.78,7.78,0,0,0,4,6.85,5.05,5.05,0,0,0,1.46.6A75.87,75.87,0,0,0,18,103c.48,0,.95,0,1.41,0,5.81,0,10.91-1.11,13.63-3a8.65,8.65,0,0,0,3.63-7.82A6.18,6.18,0,0,0,32.93,87c-.47-.19-1-.35-1.65-.56a19.41,19.41,0,0,1-2.8-1,9.73,9.73,0,0,0-3.17-2A4.8,4.8,0,0,1,24,82.78a10.11,10.11,0,0,0-6.5-2.29Z"/><path class="cls-8" d="M6.64,96.24A72,72,0,0,0,18.13,98c5.91.18,10.36-.91,12.07-2.08s1.89-3.83.82-4.27-4.75-1.28-6-2.59c-.94-1-2.5-1-4.22-2.49s-5.51-1.75-6.72.88-4.15,1.46-5.8,2.34S2.84,93.9,6.64,96.24Z"/><path class="cls-14" d="M6.64,96.24A72,72,0,0,0,18.13,98c5.91.18,10.36-.91,12.07-2.08s1.89-3.83.82-4.27-4.75-1.28-6-2.59c-.94-1-2.5-1-4.22-2.49s-5.51-1.75-6.72.88-4.15,1.46-5.8,2.34S2.84,93.9,6.64,96.24Z"/></g></g></g></svg>