<svg xmlns="http://www.w3.org/2000/svg" viewBox="0 0 180 180"><defs><style>.cls-1{isolation:isolate;}.cls-2{opacity:0.2;mix-blend-mode:multiply;}.cls-3{fill:#f15a24;}.cls-12,.cls-13,.cls-4{fill:none;stroke-linecap:round;stroke-miterlimit:10;}.cls-4{stroke:#fff;stroke-width:4px;}.cls-5{fill:#070000;}.cls-6{fill:#00b4d4;}.cls-7{fill:#aea9a9;}.cls-8{fill:#0082c4;}.cls-9{opacity:0.21;}.cls-10{fill:#fffcdf;}.cls-11{fill:#3b3431;}.cls-12{stroke:#3b3431;stroke-width:0.68px;}.cls-13{stroke:#1e134d;stroke-width:0.76px;}.cls-14{fill:#002451;opacity:0.27;}.cls-15{font-size:26px;fill:#fff;}.cls-16{letter-spacing:0em;}.cls-17{letter-spacing:-0.01em;}.cls-18{letter-spacing:-0.01em;}.cls-19{letter-spacing:0em;}.cls-20{letter-spacing:0em;}.cls-21{letter-spacing:-0.01em;}.cls-22{letter-spacing:-0.01em;}</style></defs><title>24</title><g class="cls-1"><g id="Capa_2" data-name="Capa 2"><g id="Layer_1" data-name="Layer 1"><g class="cls-2"><rect x="4" y="4" width="176" height="176" rx="12"/></g><rect class="cls-3" width="176" height="176" rx="12"/><path class="cls-4" d="M93.28,48.33a16.81,16.81,0,0,1,2.59-4c.58-.69-.38-.54-.38-.54a13.44,13.44,0,0,0-2.76,3.88,36.63,36.63,0,0,0-1.9,4.83,4.87,4.87,0,0,0-1.06,0,18.64,18.64,0,0,0-1.39-5.09A11.71,11.71,0,0,0,85,43c-.69-.46-.57.37-.57.37a12.43,12.43,0,0,1,3.19,4.09A11.82,11.82,0,0,1,89,52.58a2.2,2.2,0,0,0-1.37,1.77A2.12,2.12,0,0,0,88.18,56a5.5,5.5,0,0,0-.64,1.2c-3-3.12-13.79-13.42-26.79-18-15.42-5.41-30.18-5.72-32.07-1.66s-.13,5.95,3.25,11.33S43.19,69.73,49.2,70.43A23.51,23.51,0,0,0,59.5,69c-3.86,3.41-7.1,7.59-7.71,11.22C50.68,86.86,64.51,97.86,71,104.8s9.19,3.31,14.56,1.43c2.75-1,3.77-4.72,4-8.86.25,4,1.23,7.63,3.9,8.62,5.33,2,8,5.64,14.58-1.19s20.55-17.6,19.55-24.28c-.54-3.63-3.72-7.86-7.52-11.34a23.47,23.47,0,0,0,10.28,1.61c6-.6,14.16-15.93,17.62-21.25s5.26-7.19,3.43-11.28-16.59-4-32.09,1.13C106.12,43.78,95.12,54.05,92.14,57c-.06-.21-.12-.4-.18-.58a2.11,2.11,0,0,0,1-1.55,2,2,0,0,0-1.31-2.2A42.85,42.85,0,0,1,93.28,48.33Z"/><path class="cls-5" d="M88.14,64s1,17.76,1.38,23,1.63,17.71-3.74,19.59-8.13,5.51-14.56-1.43S51,87.2,52.07,80.54,63.2,65.35,69.61,63.11,88,60,88,60"/><path class="cls-6" d="M88.27,62.73c-1,1.3.11,19.19.52,24.4s-.89,14.28-9.91,8.92c-8.13-4.83-19.61-17-18.08-23.54,1-4.29,4-7,10.46-9.21S88,60,88,60"/><circle class="cls-7" cx="60.54" cy="88.02" r="1.29"/><circle class="cls-7" cx="76.03" cy="102.16" r="1.29"/><circle class="cls-7" cx="56.81" cy="79.34" r="1.29"/><circle class="cls-7" cx="67.86" cy="96.16" r="1.29"/><path class="cls-8" d="M88,73c-.19-5.11-.2-9.65.31-10.28L88,60A106.75,106.75,0,0,0,74,62.47c-1.34,1.87-.83,3.87,2.33,3.39,4.13-.63,4.39-1.55,5-1.07s-4,4.46-1.35,5.86,3.82-3,4.79-3.2-1.63,5.18.79,5.93A3.28,3.28,0,0,0,88,73Z"/><path class="cls-5" d="M92.07,63.73s-1.26,17.75-1.75,22.94-1.92,17.68,3.41,19.65,8,5.64,14.58-1.19,20.56-17.6,19.56-24.27S117,65.48,110.62,63.14s-18.38-3.43-18.38-3.43"/><path class="cls-6" d="M92,62.45c1,1.33-.43,19.19-.93,24.39s.66,14.29,9.77,9.08c8.21-4.7,19.88-16.64,18.46-23.24-.93-4.3-3.93-7-10.3-9.38s-16.73-3.59-16.73-3.59"/><circle class="cls-7" cx="119.28" cy="88.2" r="1.29"/><circle class="cls-7" cx="103.55" cy="102.08" r="1.29"/><circle class="cls-7" cx="123.15" cy="79.58" r="1.29"/><circle class="cls-7" cx="111.82" cy="96.21" r="1.29"/><path class="cls-8" d="M92.1,72.73c.28-5.09.37-9.63-.13-10.28l.27-2.74a107.42,107.42,0,0,1,14,2.72c1.31,1.89.77,3.88-2.39,3.35-4.12-.7-4.37-1.62-4.93-1.15s3.89,4.52,1.25,5.88-3.76-3-4.73-3.27,1.54,5.2-.89,5.91A3.3,3.3,0,0,1,92.1,72.73Z"/><path class="cls-5" d="M88.69,58.44S76.44,45,61,39.55,30.84,33.84,29,37.9s-.12,6,3.25,11.33S43.46,70.06,49.47,70.77s11.43-1.87,17.26-4S85.09,60.84,88,60.89"/><path class="cls-6" d="M88.15,58.85A88.69,88.69,0,0,0,62.62,41.72a56.51,56.51,0,0,0-13.38-3.9c-7.07-.91-8.3,5.73-6,9.39,3.37,5.38,11,23.57,16.75,21.15,10-4.22,25.13-7.86,28-7.81"/><path class="cls-8" d="M88.15,58.85A88.89,88.89,0,0,0,71.82,46.42C62.87,45,62,47,66.59,50.31c4.9,3.55,7.46,3.8,6.37,4.38s-7-1.21-6.2,1.8,9.07,1.41,9.71,1.9-5.45.24-5.88,2,.87,3.13,4.84,2.49c.41-.07,1.77-.3,2.32-.35a46,46,0,0,1,10.23-2Z"/><circle class="cls-7" cx="34.11" cy="41.63" r="1.29"/><circle class="cls-7" cx="41.36" cy="56.19" r="1.29"/><circle class="cls-7" cx="36.79" cy="48.89" r="1.29"/><circle class="cls-7" cx="46.61" cy="64.1" r="1.29"/><g class="cls-9"><path class="cls-10" d="M54.24,41.31C62.53,43,69.06,46.16,76,51c3.16,2.19,7.3,4.6,11.15,6.92A89.14,89.14,0,0,0,62.62,41.72a56.51,56.51,0,0,0-13.38-3.9c-7.07-.91-8.3,5.73-6,9.39,3.37,5.38,11,23.57,16.75,21.15,1.15-.49,2.37-1,3.62-1.43l-1.81.14A4.1,4.1,0,0,1,60.32,67a4.05,4.05,0,0,1-1.66-1.28,66.05,66.05,0,0,1-7.27-9,22.29,22.29,0,0,1-3.7-10.83,5.15,5.15,0,0,1,.93-3.63C49.94,40.74,52.29,40.91,54.24,41.31Z"/></g><path class="cls-5" d="M91.62,58.16s12.47-13.27,28-18.43,30.27-5.22,32.09-1.13,0,5.95-3.43,11.27-11.6,20.65-17.63,21.26-11.39-2-17.19-4.33-18.25-6.18-21.12-6.18"/><path class="cls-6" d="M92.15,58.57A88.9,88.9,0,0,1,118,41.86a56.59,56.59,0,0,1,13.44-3.67c7.08-.8,8.2,5.87,5.84,9.49-3.46,5.32-11.39,23.38-17.09,20.87-9.94-4.38-25-8.27-27.86-8.27"/><path class="cls-8" d="M92.15,58.57a89,89,0,0,1,16.53-12.15c9-1.33,9.81.72,5.16,4-5,3.47-7.51,3.68-6.44,4.28s7-1.09,6.17,1.9-9.09,1.25-9.73,1.74,5.43.33,5.84,2.1-.92,3.11-4.87,2.4c-.42-.07-1.78-.33-2.33-.38a46,46,0,0,0-10.19-2.15Z"/><circle class="cls-7" cx="146.46" cy="42.25" r="1.29"/><circle class="cls-7" cx="138.98" cy="56.69" r="1.29"/><circle class="cls-7" cx="143.67" cy="49.46" r="1.29"/><circle class="cls-7" cx="133.6" cy="64.51" r="1.29"/><g class="cls-9"><path class="cls-10" d="M126.34,41.59c-8.28,1.69-14.82,4.86-21.77,9.67-3.16,2.19-6.92,3.48-10.77,5.8A76.79,76.79,0,0,1,118,42a70.31,70.31,0,0,1,13.39-3.9c7.06-.91,8.29,5.73,6,9.39-3.37,5.38-11,23.57-16.75,21.15-1.15-.49-2.36-1-3.62-1.43l1.81.14A3,3,0,0,0,121.93,66a66.74,66.74,0,0,0,7.26-9,22.09,22.09,0,0,0,3.7-10.83,5.15,5.15,0,0,0-.93-3.63C130.65,41,128.3,41.2,126.34,41.59Z"/></g><ellipse class="cls-11" cx="90.54" cy="54.95" rx="2.28" ry="2.68" transform="translate(27.01 139.69) rotate(-84.4)"/><path class="cls-11" d="M88.94,55.83s-1.78,1.11-1.77,6,1,16.95,1.71,18.23,1,2,1.92-.24S93.09,65.27,93,61.9s-.67-5.48-1.36-6.33"/><path class="cls-12" d="M89.53,53.53s-.37-7-4.85-10.39"/><path class="cls-12" d="M91,53.5s1.9-7.21,4.9-9.61"/><path class="cls-13" d="M93.28,48.33a16.81,16.81,0,0,1,2.59-4c.58-.69-.38-.54-.38-.54a13.44,13.44,0,0,0-2.76,3.88,36.63,36.63,0,0,0-1.9,4.83,4.87,4.87,0,0,0-1.06,0,18.64,18.64,0,0,0-1.39-5.09A11.71,11.71,0,0,0,85,43c-.69-.46-.57.37-.57.37a12.43,12.43,0,0,1,3.19,4.09A11.82,11.82,0,0,1,89,52.58a2.2,2.2,0,0,0-1.37,1.77A2.12,2.12,0,0,0,88.18,56a5.5,5.5,0,0,0-.64,1.2c-3-3.12-13.79-13.42-26.79-18-15.42-5.41-30.18-5.72-32.07-1.66s-.13,5.95,3.25,11.33S43.19,69.73,49.2,70.43A23.51,23.51,0,0,0,59.5,69c-3.86,3.41-7.1,7.59-7.71,11.22C50.68,86.86,64.51,97.86,71,104.8s9.19,3.31,14.56,1.43c2.75-1,3.77-4.72,4-8.86.25,4,1.23,7.63,3.9,8.62,5.33,2,8,5.64,14.58-1.19s20.55-17.6,19.55-24.28c-.54-3.63-3.72-7.86-7.52-11.34a23.47,23.47,0,0,0,10.28,1.61c6-.6,14.16-15.93,17.62-21.25s5.26-7.19,3.43-11.28-16.59-4-32.09,1.13C106.12,43.78,95.12,54.05,92.14,57c-.06-.21-.12-.4-.18-.58a2.11,2.11,0,0,0,1-1.55,2,2,0,0,0-1.31-2.2A42.85,42.85,0,0,1,93.28,48.33Z"/><path class="cls-14" d="M128.78,94c2.88-3.46,6.61-8.72,5.74-14.54a18.29,18.29,0,0,0-.56-2.41,16.46,16.46,0,0,0,4.91-3A37.47,37.47,0,0,0,144,68.46a132,132,0,0,0,7.83-11.86c.79-1.31,1.48-2.44,2-3.24l1-1.59A26.51,26.51,0,0,0,158.54,45c.07-.22.13-.44.19-.66A252.36,252.36,0,0,1,139,70.89c-4.35,4.74-8.86,4-8.86,4,1.6,2.2,2.2,6.8,1,11.41s-9.41,12-13.41,15.73-9.2,9.68-15.61,11-12.33-4.17-12.33-4.17C78.23,115,76.49,113,72.29,111.56s-16.81-15-22.41-22.21a13.89,13.89,0,0,1-1.6-14.61c-2.8.2-7.4-3.4-11.49-8.26-3.93-4.67-15-23.32-15.83-24.76a12.32,12.32,0,0,0,.47,2.45A26.8,26.8,0,0,0,25,51l1,1.6c.51.82,1.18,2,2,3.28a129.68,129.68,0,0,0,7.64,12,36.78,36.78,0,0,0,5.05,5.67,16.45,16.45,0,0,0,4.86,3.1,15.6,15.6,0,0,0-.6,2.4c-1,5.81,2.67,11.13,5.49,14.63a123.23,123.23,0,0,0,10.24,10.71c2,1.89,3.81,3.68,5.19,5.17,2.51,2.71,6.49,6.31,12.06,6.31a18.07,18.07,0,0,0,7.68-2.07c.79-.37,1.54-.71,2.28-1a10.92,10.92,0,0,0,1.88-.86,10.45,10.45,0,0,0,1.32.58c.73.27,1.47.63,2.26,1a17.72,17.72,0,0,0,7.85,2.21c5.47,0,9.44-3.49,12-6.12,1.4-1.46,3.28-3.22,5.27-5.09A124.61,124.61,0,0,0,128.78,94Z"/><text class="cls-15" transform="translate(27.21 163.93)"><tspan class="cls-16">M</tspan><tspan class="cls-17" x="21.27" y="0">a</tspan><tspan class="cls-18" x="37.31" y="0">r</tspan><tspan class="cls-19" x="48.38" y="0">i</tspan><tspan class="cls-20" x="54.44" y="0">p</tspan><tspan class="cls-21" x="70.58" y="0">o</tspan><tspan class="cls-22" x="86.38" y="0">s</tspan><tspan x="98.74" y="0">a</tspan></text></g></g></g></svg>