<?xml version="1.0" encoding="utf-8"?>
<!-- Generator: Adobe Illustrator 22.0.1, SVG Export Plug-In . SVG Version: 6.00 Build 0)  -->
<svg version="1.1" id="Layer_1" xmlns="http://www.w3.org/2000/svg" xmlns:xlink="http://www.w3.org/1999/xlink" x="0px" y="0px"
	 viewBox="0 0 102 69" style="enable-background:new 0 0 102 69;" xml:space="preserve">
<style type="text/css">
	.st0{fill:#FFCB31;}
	.st1{fill:#00A0E3;}
	.st2{fill:#231F20;}
	.st3{fill:#0065D3;}
	.st4{fill:#FFFFFF;}
	.st5{fill:#EA6A26;}
	.st6{fill:#3BB54A;}
	.st7{fill:#DB1E3B;}
	.st8{fill:#F1A61E;}
	.st9{fill:#4B96D0;}
	.st10{fill:#32639A;}
	.st11{fill:#2A3F63;}
	.st12{fill:#666666;}
	.st13{fill:#F06045;}
</style>
<g>
	<path class="st5" d="M31.7,10.3V5.8h1.5c0.3,0,0.7,0,1,0c0.3,0.1,0.5,0.2,0.6,0.4c0.3,0.4,0.3,1,0.1,1.5c-0.1,0.2-0.2,0.3-0.4,0.4
		c-0.1,0.1-0.3,0.2-0.5,0.2c-0.3,0.1-0.6,0.1-0.9,0.1h-0.6v1.6L31.7,10.3z M32.6,6.6v1.2H33c0.2,0,0.5,0,0.7,0
		c0.1,0,0.2-0.1,0.3-0.2c0.1-0.1,0.1-0.3,0.1-0.4c0-0.1,0-0.3-0.1-0.4c-0.1-0.1-0.2-0.2-0.4-0.2H33L32.6,6.6z"/>
	<path class="st5" d="M35.5,8.7c0-0.3,0.1-0.6,0.2-0.8c0.1-0.2,0.3-0.5,0.6-0.6c0.3-0.1,0.5-0.2,0.8-0.2c0.9,0,1.6,0.7,1.6,1.6
		c0,0,0,0,0,0.1c0,0.4-0.2,0.9-0.5,1.2c-0.3,0.3-0.7,0.5-1.2,0.5c-0.3,0-0.6-0.1-0.8-0.2c-0.3-0.1-0.5-0.3-0.6-0.6
		C35.6,9.3,35.5,9,35.5,8.7z M36.5,8.7c0,0.3,0.1,0.5,0.2,0.7c0.3,0.3,0.7,0.3,1,0.1c0,0,0,0,0.1-0.1c0.3-0.4,0.3-1,0-1.5
		c-0.3-0.3-0.7-0.3-1-0.1c0,0,0,0-0.1,0.1C36.5,8.2,36.5,8.4,36.5,8.7z"/>
	<path class="st5" d="M39.4,10.3V5.8h0.8v4.4H39.4z"/>
	<path class="st5" d="M41.1,6.7l0.4-0.9h0.9l-0.8,0.9H41.1z M41.1,10.3V7.1H42v3.2L41.1,10.3z"/>
	<path class="st5" d="M44.3,7.1v0.7h-0.6v1.3c0,0.1,0,0.3,0,0.4c0,0,0,0.1,0,0.1c0,0,0.1,0,0.1,0c0.1,0,0.2,0,0.3,0v0.7
		c-0.2,0.1-0.4,0.1-0.7,0.1c-0.1,0-0.3,0-0.4,0c-0.1,0-0.2-0.1-0.3-0.2c-0.1-0.1-0.1-0.2-0.1-0.3c0-0.2,0-0.4,0-0.6V7.9h-0.3V7.2
		h0.4V6.6l0.8-0.5v1.1L44.3,7.1z"/>
	<path class="st5" d="M44.9,6.7V5.9h0.8v0.8L44.9,6.7z M44.9,10.3V7.1h0.8v3.2L44.9,10.3z"/>
	<path class="st5" d="M49.4,8l-0.8,0.1c0-0.2-0.1-0.3-0.3-0.4c-0.1-0.1-0.2-0.1-0.4-0.1c-0.2,0-0.4,0.1-0.5,0.2
		c-0.1,0.2-0.2,0.5-0.2,0.7c0,0.3,0,0.6,0.2,0.8c0.2,0.3,0.6,0.3,0.9,0.1c0.1-0.1,0.2-0.3,0.2-0.5l0.8,0.1c-0.1,0.3-0.2,0.6-0.5,0.9
		c-0.3,0.2-0.6,0.3-1,0.3c-0.4,0-0.8-0.1-1.1-0.4c-0.3-0.3-0.4-0.8-0.4-1.2c0-0.4,0.1-0.9,0.4-1.2C47.1,7.2,47.5,7,47.9,7
		c0.3,0,0.6,0.1,0.9,0.3C49.1,7.5,49.3,7.7,49.4,8z"/>
	<path class="st5" d="M50.6,8.1l-0.8-0.1c0.1-0.3,0.2-0.5,0.4-0.7C50.6,7.1,50.9,7,51.3,7c0.3,0,0.6,0,0.8,0.1
		c0.2,0.1,0.3,0.2,0.4,0.3c0.1,0.2,0.1,0.5,0.1,0.8v1c0,0.2,0,0.4,0,0.6c0,0.1,0.1,0.3,0.1,0.4h-0.8c0-0.1-0.1-0.2-0.1-0.2
		c0,0,0-0.1,0-0.1c-0.1,0.1-0.3,0.2-0.5,0.3c-0.2,0.1-0.3,0.1-0.5,0.1c-0.3,0-0.6-0.1-0.8-0.3c-0.2-0.2-0.3-0.4-0.3-0.7
		c0-0.2,0-0.3,0.1-0.5c0.1-0.1,0.2-0.2,0.4-0.3c0.2-0.1,0.4-0.2,0.7-0.2c0.3,0,0.6-0.1,0.8-0.2l0,0c0-0.1,0-0.3-0.1-0.4
		c-0.1-0.1-0.3-0.2-0.4-0.2C51,7.6,50.8,7.8,50.6,8.1L50.6,8.1z M51.8,8.8c-0.2,0.1-0.3,0.1-0.5,0.1c-0.2,0-0.3,0.1-0.5,0.1
		c-0.1,0.1-0.2,0.2-0.2,0.3c0,0.1,0,0.2,0.1,0.3c0.1,0.1,0.2,0.1,0.3,0.1c0.2,0,0.3-0.1,0.4-0.1c0.1-0.1,0.2-0.2,0.2-0.3
		c0-0.1,0-0.3,0-0.4L51.8,8.8z"/>
	<path class="st5" d="M54.7,7.1h1l0.8,2.2l0.7-2.2H58l-1.2,3.1l-0.2,0.6c-0.1,0.1-0.1,0.3-0.2,0.4c-0.1,0.1-0.1,0.2-0.2,0.2
		c-0.1,0.1-0.2,0.1-0.3,0.1c-0.1,0-0.3,0-0.4,0c-0.2,0-0.3,0-0.5,0v-0.7h0.4c0.2,0,0.3,0,0.4-0.2c0.1-0.1,0.2-0.3,0.2-0.4L54.7,7.1z
		"/>
	<path class="st5" d="M60.2,10.3V5.8h1.5c0.3,0,0.7,0,1,0c0.3,0.1,0.5,0.2,0.6,0.4c0.3,0.4,0.3,1,0.1,1.5c-0.1,0.2-0.2,0.3-0.4,0.4
		c-0.1,0.1-0.3,0.2-0.5,0.2c-0.3,0.1-0.6,0.1-0.9,0.1h-0.6v1.6L60.2,10.3z M61.1,6.6v1.2h0.5c0.2,0,0.5,0,0.7,0
		c0.1,0,0.2-0.1,0.3-0.2c0.1-0.1,0.1-0.2,0.1-0.3c0-0.1,0-0.3-0.1-0.4c-0.1-0.1-0.2-0.2-0.4-0.2h-0.6L61.1,6.6z"/>
	<path class="st5" d="M64.3,10.3V5.8h0.8v4.4H64.3z"/>
	<path class="st5" d="M66.6,8.1l-0.8-0.1c0.1-0.3,0.2-0.5,0.4-0.7C66.6,7.1,66.9,7,67.2,7c0.3,0,0.6,0,0.8,0.1
		c0.2,0.1,0.3,0.2,0.4,0.3c0.1,0.2,0.1,0.5,0.1,0.8v1c0,0.2,0,0.4,0,0.6c0,0.1,0.1,0.3,0.1,0.4h-0.8V10c0,0,0-0.1,0-0.1
		c-0.1,0.1-0.3,0.2-0.5,0.3c-0.2,0.1-0.3,0.1-0.5,0.1c-0.3,0-0.6-0.1-0.8-0.3c-0.2-0.2-0.3-0.4-0.3-0.7c0-0.2,0-0.3,0.1-0.5
		c0.1-0.1,0.2-0.2,0.4-0.3c0.2-0.1,0.4-0.2,0.7-0.2c0.3,0,0.6-0.1,0.8-0.2l0,0c0-0.1,0-0.3-0.1-0.4c-0.1-0.1-0.3-0.1-0.4-0.1
		c-0.1,0-0.2,0-0.4,0.1C66.8,7.9,66.7,8,66.6,8.1z M67.8,8.8c-0.2,0.1-0.3,0.1-0.5,0.1c-0.2,0-0.3,0.1-0.5,0.1
		c-0.1,0.1-0.2,0.2-0.2,0.3c0,0.1,0,0.2,0.1,0.3c0.1,0.1,0.2,0.1,0.3,0.1c0.2,0,0.3-0.1,0.4-0.1c0.1-0.1,0.2-0.2,0.2-0.3
		c0-0.1,0-0.3,0-0.4L67.8,8.8z"/>
	<path class="st5" d="M72.3,10.3h-0.8V8.7c0-0.2,0-0.4,0-0.7c0-0.1-0.1-0.2-0.2-0.2c-0.1-0.1-0.2-0.1-0.3-0.1c-0.1,0-0.3,0-0.4,0.1
		c-0.1,0.1-0.2,0.2-0.2,0.3c0,0.2,0,0.5,0,0.7v1.5h-0.8V7.1h0.8v0.5c0.2-0.3,0.6-0.5,1-0.5c0.2,0,0.3,0,0.5,0.1
		c0.1,0,0.3,0.1,0.4,0.3c0.1,0.1,0.1,0.2,0.2,0.4c0,0.2,0,0.4,0,0.6L72.3,10.3z"/>
	<path class="st5" d="M78.8,10.3h-1l-0.4-1h-1.7l-0.4,1h-0.9l1.7-4.4h0.9L78.8,10.3z M77.2,8.5l-0.6-1.6L76,8.5H77.2z"/>
	<path class="st5" d="M82.1,8l-0.8,0.1c0-0.1-0.1-0.3-0.2-0.4c-0.1-0.1-0.2-0.1-0.4-0.1c-0.2,0-0.4,0.1-0.5,0.2
		C80,8.1,79.9,8.4,80,8.6c0,0.3,0,0.6,0.2,0.8c0.1,0.2,0.3,0.2,0.5,0.2c0.1,0,0.3,0,0.4-0.1c0.1-0.1,0.2-0.3,0.2-0.5l0.8,0.1
		c-0.1,0.3-0.2,0.6-0.5,0.9c-0.6,0.4-1.5,0.4-2.1-0.1c-0.3-0.3-0.4-0.8-0.4-1.2c0-0.4,0.1-0.9,0.4-1.2C79.8,7.2,80.2,7,80.6,7
		c0.3,0,0.6,0.1,0.9,0.3C81.8,7.5,82,7.7,82.1,8z"/>
	<path class="st5" d="M85.5,8l-0.8,0.1c0-0.1-0.1-0.3-0.2-0.4c-0.1-0.1-0.2-0.1-0.4-0.1c-0.2,0-0.4,0.1-0.5,0.2
		c-0.1,0.2-0.2,0.5-0.2,0.7c0,0.3,0,0.6,0.2,0.8c0.1,0.2,0.3,0.2,0.5,0.2c0.1,0,0.3,0,0.4-0.1c0.1-0.1,0.2-0.3,0.2-0.5l0.8,0.1
		c-0.1,0.3-0.2,0.6-0.5,0.9c-0.6,0.4-1.5,0.4-2.1-0.1c-0.3-0.3-0.4-0.8-0.4-1.2c0-0.4,0.1-0.9,0.4-1.2C83.2,7.2,83.6,7,84,7
		c0.3,0,0.6,0.1,0.9,0.3C85.2,7.5,85.4,7.7,85.5,8z"/>
	<path class="st5" d="M86.1,6.7V5.9h0.8v0.8L86.1,6.7z M86.1,10.3V7.1h0.8v3.2L86.1,10.3z"/>
	<path class="st5" d="M87.6,8.7c0-0.3,0.1-0.6,0.2-0.8c0.1-0.3,0.3-0.5,0.6-0.6c0.3-0.1,0.5-0.2,0.8-0.2c0.4,0,0.9,0.1,1.2,0.5
		c0.3,0.3,0.5,0.7,0.5,1.2c0,0.4-0.1,0.9-0.5,1.2c-0.3,0.3-0.7,0.5-1.2,0.5c-0.3,0-0.6-0.1-0.8-0.2c-0.3-0.1-0.5-0.3-0.6-0.6
		C87.7,9.4,87.6,9,87.6,8.7z M88.5,8.7c0,0.3,0.1,0.5,0.2,0.7c0.1,0.2,0.3,0.2,0.5,0.3c0.2,0,0.4-0.1,0.6-0.3c0.3-0.4,0.3-1,0-1.5
		c-0.1-0.2-0.3-0.3-0.6-0.3c-0.2,0-0.4,0.1-0.5,0.3C88.5,8.2,88.4,8.4,88.5,8.7z M88.8,6.7l0.4-0.9h0.9l-0.8,0.9H88.8z"/>
	<path class="st5" d="M94.4,10.3h-0.8V8.7c0-0.2,0-0.4,0-0.7c0-0.1-0.1-0.2-0.2-0.2c-0.1-0.1-0.2-0.1-0.3-0.1
		c-0.3,0-0.5,0.2-0.6,0.4c0,0.2,0,0.5,0,0.7v1.5h-0.8V7.1h0.8v0.5c0.2-0.3,0.6-0.5,1-0.5c0.2,0,0.3,0,0.5,0.1
		c0.1,0.1,0.3,0.1,0.4,0.3c0.1,0.1,0.1,0.2,0.2,0.4c0,0.2,0,0.4,0,0.6L94.4,10.3z"/>
	<path class="st6" d="M31.5,34.6V15.2h14.4v3.3H35.4v4.3h9.8v3.3h-9.8v5.3h10.9v3.3H31.5z"/>
	<path class="st6" d="M55.7,15.2h7.2c1.2,0,2.5,0.1,3.7,0.4c1.1,0.3,2.1,0.9,3,1.8c0.8,0.9,1.5,2,1.8,3.2c0.4,1.5,0.6,3,0.6,4.6
		c0,1.4-0.2,2.8-0.6,4.1c-0.4,1.3-1.1,2.5-2.1,3.4c-0.8,0.7-1.7,1.2-2.7,1.5c-1.1,0.3-2.3,0.5-3.5,0.4h-7.3V15.2z M59.6,18.5v12.9h3
		c0.8,0,1.6,0,2.4-0.2c0.6-0.1,1.1-0.4,1.6-0.8c0.5-0.5,0.8-1.2,1-1.9c0.3-1.2,0.5-2.3,0.4-3.5c0-1.2-0.1-2.4-0.4-3.5
		c-0.2-0.7-0.6-1.4-1.1-1.9c-0.5-0.5-1.2-0.8-1.8-0.9c-1.1-0.2-2.1-0.2-3.2-0.2L59.6,18.5z"/>
	<path class="st6" d="M79.7,28.3l3.8-0.4c0.1,1.1,0.7,2.1,1.5,2.8c0.8,0.6,1.8,1,2.8,0.9c1,0.1,2-0.2,2.9-0.8c0.6-0.4,0.9-1.1,1-1.9
		c0-0.4-0.1-0.8-0.4-1.2c-0.4-0.4-0.9-0.7-1.5-0.8c-0.5-0.2-1.5-0.4-3.1-0.8c-1.6-0.3-3.1-1-4.4-1.9c-1.1-1-1.8-2.4-1.8-3.9
		c0-1,0.3-1.9,0.8-2.7c0.6-0.9,1.4-1.6,2.4-2c1.2-0.5,2.5-0.7,3.8-0.7c2-0.1,3.9,0.4,5.5,1.6c1.2,1.1,2,2.6,2,4.3L91,21
		c-0.1-0.8-0.5-1.6-1.1-2.2c-0.7-0.5-1.6-0.7-2.5-0.7c-0.9-0.1-1.9,0.2-2.7,0.7c-0.4,0.3-0.6,0.7-0.6,1.2c0,0.5,0.2,0.9,0.6,1.2
		c1.1,0.7,2.3,1.1,3.6,1.3c1.5,0.3,2.9,0.8,4.2,1.4c0.9,0.5,1.6,1.1,2.1,2c0.5,0.9,0.8,2,0.8,3.1c0,1.1-0.3,2.2-0.9,3.1
		c-0.6,1-1.6,1.7-2.6,2.2c-1.3,0.5-2.8,0.8-4.2,0.7c-2,0.1-4.1-0.5-5.7-1.7C80.6,32,79.8,30.2,79.7,28.3z"/>
	<path class="st7" d="M28.4,6.1c-5.8,1-11.1,3.8-15.1,8.1l15.1,21.7V6.1z"/>
	<path class="st5" d="M13.1,17.6c-3.3,4.1-5.3,9.1-5.7,14.3l21,4L13.1,17.6z"/>
	<path class="st8" d="M8.8,33.8c0,0.3,0,0.6,0,0.8c0,4.5,1.2,8.9,3.5,12.7l16.1-11.5L8.8,33.8z"/>
	<path class="st6" d="M14.1,49.4c2.8,3.5,6.6,6.1,10.8,7.7l3.5-21.2L14.1,49.4z"/>
	<path class="st9" d="M27,65c2.5,0.5,5,0.8,7.5,0.8c3.2,0,6.4-0.4,9.5-1.2L28.8,36.2L27,65z"/>
	<path class="st10" d="M43.9,58.8c4.8-2,8.9-5.3,11.8-9.6l-26.4-13L43.9,58.8z"/>
	<path class="st11" d="M29.4,36.1l23.6,10.1c2.6-2.8,4.4-6.3,5.4-10L29.4,36.1z"/>
</g>
</svg>
