<?xml version="1.0" encoding="utf-8"?>
<!-- Generator: Adobe Illustrator 22.0.1, SVG Export Plug-In . SVG Version: 6.00 Build 0)  -->
<svg version="1.1" id="Layer_1" xmlns="http://www.w3.org/2000/svg" xmlns:xlink="http://www.w3.org/1999/xlink" x="0px" y="0px"
	 viewBox="0 0 146 99" style="enable-background:new 0 0 146 99;" xml:space="preserve">
<style type="text/css">
	.st0{fill:#FFCB31;}
	.st1{fill:#00A0E3;}
	.st2{fill:#231F20;}
	.st3{fill:#0065D3;}
	.st4{fill:#FFFFFF;}
	.st5{fill:#EA6A26;}
	.st6{fill:#3BB54A;}
	.st7{fill:#DB1E3B;}
	.st8{fill:#F1A61E;}
	.st9{fill:#4B96D0;}
	.st10{fill:#32639A;}
	.st11{fill:#2A3F63;}
	.st12{fill:#666666;}
	.st13{fill:#F06045;}
</style>
<g>
	<g>
		<path class="st2" d="M82.9,38.7c0,1.7,0.1,2.7-0.2,3.4c-0.3,0.7-0.9,0.8-1.3,0.8c-0.4,0-1-0.1-1.3-0.7c-0.3-0.7-0.2-1.7-0.2-3.5
			V22.8h1v16c0,2.1-0.2,3.2,0.5,3.2c0.7,0,0.5-1.1,0.5-3.2V22.8h1V38.7z"/>
		<path class="st2" d="M87.6,22.8h0.8l1.3,12.5h0V22.8h0.8v20.1h-0.8l-1.3-12.5h0v12.5h-0.8V22.8z"/>
		<path class="st2" d="M95.3,22.7H98v0.9h-1.8v8.1h1.5v1.1h-1.5v9.1h1.9v0.9h-2.9V22.7z"/>
		<path class="st2" d="M103.3,36.6v1.3c0,3.1-0.1,4.1,0.6,4.1c0.7,0,0.5-1.5,0.5-3.9c0-2.2-0.3-2.8-0.7-4.4
			c-0.8-2.7-1.4-3.4-1.4-6.6c0-3.8,0-4.6,1.6-4.6c1.4,0,1.3,0.9,1.3,4.5v1.4l-1,0V28c0-3.4,0.3-4.4-0.4-4.4c-0.7,0-0.6,0.8-0.6,3.3
			c0,2.1,0.1,2.6,0.8,4.9l0.6,1.9c0.7,2.2,0.6,2.7,0.6,4.3c0,2.8,0.2,4.8-1.4,4.8c-1.9,0-1.6-1.3-1.6-4.9v-1.3H103.3z"/>
		<path class="st2" d="M113.1,36.5v2.2c0,2.9,0.1,4.2-1.5,4.2c-1.7,0-1.6-1.2-1.6-4.2V27.4c0-3.5-0.2-4.7,1.5-4.7
			c1.8,0,1.5,1.1,1.5,4.8v1h-1v-0.9c0-2.7,0.2-4-0.5-4c-0.8,0-0.6,0.9-0.6,4.6v10.7c0,2.3-0.2,3.1,0.6,3.1c0.7,0,0.5-1,0.5-3v-2.5
			H113.1z"/>
		<path class="st2" d="M120.7,38.3c0,3.5,0,4.6-1.6,4.6c-1.7,0-1.5-1.2-1.5-4.6V27.2c0-2.9-0.4-4.5,1.6-4.5c2,0,1.6,1.6,1.6,4.5
			V38.3z M119.8,27.1c0-3.2,0-3.6-0.6-3.6c-0.6,0-0.6,0.5-0.6,3.7v11.1c0,2.5-0.1,3.6,0.6,3.6c0.7,0,0.6-1.2,0.6-3.3V27.1z"/>
	</g>
	<rect x="77.2" y="20" class="st2" width="46.2" height="1.7"/>
	<polygon class="st2" points="100.2,9.3 100.2,9.3 77.1,16.3 77.1,18.1 100.2,11 100.2,11 123.3,18.1 123.3,16.3 	"/>
	<polygon class="st2" points="86.3,18.2 100.2,13.9 100.2,13.9 113.9,18.2 118.5,18.2 100.2,12.4 100.2,12.4 81.8,18.2 	"/>
	<rect x="77.2" y="44.2" class="st2" width="46.3" height="1.8"/>
	<rect x="74.5" y="47.5" class="st2" width="51.3" height="1.9"/>
	<rect x="72.1" y="50.7" class="st2" width="56.4" height="1.9"/>
	<path class="st2" d="M138.7,3.8c0,0.5-0.4,0.8-0.8,0.8c-0.5,0-0.8-0.4-0.8-0.8c0-0.5,0.4-0.8,0.8-0.8C138.4,3,138.7,3.4,138.7,3.8z
		"/>
	<path class="st2" d="M138.7,6.6c0,0.5-0.4,0.8-0.8,0.8c-0.5,0-0.8-0.4-0.8-0.8c0-0.5,0.4-0.8,0.8-0.8
		C138.4,5.8,138.7,6.2,138.7,6.6z"/>
	<path class="st2" d="M138.7,9.7c0,0.5-0.4,0.8-0.8,0.8c-0.5,0-0.8-0.4-0.8-0.8c0-0.5,0.4-0.8,0.8-0.8
		C138.4,8.9,138.7,9.3,138.7,9.7z"/>
	<path class="st2" d="M138.7,12.7c0,0.5-0.4,0.8-0.8,0.8c-0.5,0-0.8-0.4-0.8-0.8c0-0.5,0.4-0.8,0.8-0.8
		C138.4,11.9,138.7,12.3,138.7,12.7z"/>
	<path class="st2" d="M138.7,16c0,0.5-0.4,0.8-0.8,0.8c-0.5,0-0.8-0.4-0.8-0.8c0-0.5,0.4-0.8,0.8-0.8
		C138.4,15.2,138.7,15.6,138.7,16z"/>
	<path class="st2" d="M138.7,19.3c0,0.5-0.4,0.8-0.8,0.8c-0.5,0-0.8-0.4-0.8-0.8c0-0.5,0.4-0.8,0.8-0.8
		C138.4,18.5,138.7,18.9,138.7,19.3z"/>
	<path class="st2" d="M138.7,22.7c0,0.5-0.4,0.8-0.8,0.8c-0.5,0-0.8-0.4-0.8-0.8c0-0.5,0.4-0.8,0.8-0.8
		C138.4,21.9,138.7,22.2,138.7,22.7z"/>
	<path class="st2" d="M138.7,26.1c0,0.5-0.4,0.8-0.8,0.8c-0.5,0-0.8-0.4-0.8-0.8c0-0.5,0.4-0.8,0.8-0.8
		C138.3,25.2,138.7,25.6,138.7,26.1z"/>
	<path class="st2" d="M138.7,29.7c0,0.5-0.4,0.8-0.8,0.8c-0.5,0-0.8-0.4-0.8-0.8c0-0.5,0.4-0.8,0.8-0.8
		C138.3,28.9,138.7,29.2,138.7,29.7z"/>
	<path class="st2" d="M138.7,33.4c0,0.5-0.4,0.8-0.8,0.8c-0.5,0-0.8-0.4-0.8-0.8c0-0.5,0.4-0.8,0.8-0.8
		C138.3,32.5,138.7,32.9,138.7,33.4z"/>
	<path class="st2" d="M138.7,37.3c0,0.5-0.4,0.8-0.8,0.8c-0.5,0-0.8-0.4-0.8-0.8c0-0.5,0.4-0.8,0.8-0.8
		C138.3,36.4,138.7,36.8,138.7,37.3z"/>
	<path class="st2" d="M138.7,41.1c0,0.5-0.4,0.8-0.8,0.8c-0.5,0-0.8-0.4-0.8-0.8c0-0.5,0.4-0.8,0.8-0.8
		C138.3,40.3,138.7,40.7,138.7,41.1z"/>
	<path class="st2" d="M138.7,45.4c0,0.5-0.4,0.8-0.8,0.8c-0.5,0-0.8-0.4-0.8-0.8c0-0.5,0.4-0.8,0.8-0.8
		C138.3,44.5,138.7,44.9,138.7,45.4z"/>
	<path class="st2" d="M138.7,50c0,0.5-0.4,0.8-0.8,0.8c-0.5,0-0.8-0.4-0.8-0.8c0-0.5,0.4-0.8,0.8-0.8
		C138.3,49.2,138.7,49.6,138.7,50z"/>
	<path class="st2" d="M138.7,55.2c0,0.5-0.4,0.8-0.8,0.8c-0.5,0-0.8-0.4-0.8-0.8c0-0.5,0.4-0.8,0.8-0.8
		C138.3,54.4,138.7,54.8,138.7,55.2z"/>
	<path class="st2" d="M138.7,61.3c0,0.5-0.4,0.8-0.8,0.8c-0.5,0-0.8-0.4-0.8-0.8c0-0.5,0.4-0.8,0.8-0.8
		C138.3,60.4,138.7,60.8,138.7,61.3z"/>
	<path class="st2" d="M138.7,67.8c0,0.5-0.4,0.8-0.8,0.8c-0.5,0-0.8-0.4-0.8-0.8c0-0.5,0.4-0.8,0.8-0.8
		C138.3,67,138.7,67.4,138.7,67.8z"/>
	<path class="st2" d="M138.7,75.3c0,0.5-0.4,0.8-0.8,0.8c-0.5,0-0.8-0.4-0.8-0.8c0-0.5,0.4-0.8,0.8-0.8
		C138.3,74.5,138.7,74.9,138.7,75.3z"/>
	<path class="st2" d="M138.7,83.8c0,0.5-0.4,0.8-0.8,0.8c-0.5,0-0.8-0.4-0.8-0.8c0-0.5,0.4-0.8,0.8-0.8
		C138.3,83,138.7,83.3,138.7,83.8z"/>
	<path class="st2" d="M138.7,93.2c0,0.5-0.4,0.8-0.8,0.8c-0.5,0-0.8-0.4-0.8-0.8c0-0.5,0.4-0.8,0.8-0.8
		C138.3,92.3,138.7,92.7,138.7,93.2z"/>
	<g>
		<path class="st2" d="M85.1,63.1c0-0.9,0.2-1.5,0.7-2c0.5-0.5,1.1-0.7,1.8-0.7c0.5,0,0.9,0.1,1.3,0.3c0.4,0.2,0.7,0.5,0.9,1
			c0.2,0.4,0.3,0.9,0.3,1.4c0,0.5-0.1,1-0.3,1.4c-0.2,0.4-0.5,0.7-0.9,0.9c-0.4,0.2-0.8,0.3-1.3,0.3c-0.5,0-0.9-0.1-1.3-0.4
			c-0.4-0.2-0.7-0.6-0.9-1C85.2,64,85.1,63.6,85.1,63.1z M85.9,63.2c0,0.6,0.2,1.1,0.5,1.5c0.3,0.4,0.8,0.5,1.3,0.5
			c0.5,0,0.9-0.2,1.3-0.5c0.3-0.4,0.5-0.9,0.5-1.6c0-0.4-0.1-0.8-0.2-1.1c-0.1-0.3-0.4-0.6-0.6-0.7C88.3,61.1,88,61,87.6,61
			c-0.5,0-0.9,0.2-1.3,0.5C86,61.8,85.9,62.4,85.9,63.2z"/>
		<path class="st2" d="M90.9,65.7v-3.8h0.6v0.6c0.1-0.3,0.3-0.4,0.4-0.5c0.1-0.1,0.3-0.1,0.4-0.1c0.2,0,0.4,0.1,0.7,0.2l-0.2,0.6
			c-0.2-0.1-0.3-0.1-0.5-0.1c-0.1,0-0.3,0-0.4,0.1c-0.1,0.1-0.2,0.2-0.2,0.4c-0.1,0.2-0.1,0.5-0.1,0.7v2H90.9z"/>
		<path class="st2" d="M93.2,66l0.6,0.1c0,0.2,0.1,0.3,0.2,0.4c0.2,0.1,0.4,0.2,0.6,0.2c0.3,0,0.5-0.1,0.7-0.2
			c0.2-0.1,0.3-0.3,0.3-0.5c0-0.1,0-0.4,0-0.8c-0.3,0.3-0.6,0.5-1,0.5c-0.5,0-0.9-0.2-1.2-0.6c-0.3-0.4-0.4-0.8-0.4-1.3
			c0-0.4,0.1-0.7,0.2-1c0.1-0.3,0.3-0.5,0.6-0.7c0.2-0.2,0.5-0.2,0.9-0.2c0.4,0,0.8,0.2,1.1,0.5v-0.5h0.6v3.3c0,0.6-0.1,1-0.2,1.2
			c-0.1,0.2-0.3,0.4-0.6,0.6c-0.3,0.1-0.6,0.2-1,0.2c-0.5,0-0.8-0.1-1.1-0.3C93.3,66.7,93.2,66.4,93.2,66z M93.7,63.7
			c0,0.5,0.1,0.9,0.3,1.1c0.2,0.2,0.4,0.3,0.7,0.3c0.3,0,0.5-0.1,0.7-0.3c0.2-0.2,0.3-0.6,0.3-1.1c0-0.5-0.1-0.8-0.3-1
			c-0.2-0.2-0.5-0.4-0.7-0.4c-0.3,0-0.5,0.1-0.7,0.3C93.8,62.9,93.7,63.3,93.7,63.7z"/>
		<path class="st2" d="M99.8,65.2c-0.2,0.2-0.5,0.3-0.7,0.4c-0.2,0.1-0.5,0.1-0.7,0.1c-0.4,0-0.7-0.1-1-0.3
			c-0.2-0.2-0.3-0.5-0.3-0.8c0-0.2,0-0.4,0.1-0.5c0.1-0.2,0.2-0.3,0.3-0.4c0.1-0.1,0.3-0.2,0.5-0.2c0.1,0,0.3-0.1,0.6-0.1
			c0.5-0.1,0.9-0.1,1.1-0.2c0-0.1,0-0.1,0-0.2c0-0.3-0.1-0.4-0.2-0.5c-0.2-0.1-0.4-0.2-0.7-0.2c-0.3,0-0.5,0.1-0.7,0.2
			c-0.1,0.1-0.2,0.3-0.3,0.6L97.2,63c0.1-0.3,0.2-0.5,0.3-0.6c0.1-0.2,0.3-0.3,0.6-0.4c0.2-0.1,0.5-0.1,0.9-0.1c0.3,0,0.6,0,0.8,0.1
			c0.2,0.1,0.3,0.2,0.4,0.3c0.1,0.1,0.2,0.3,0.2,0.4c0,0.1,0,0.3,0,0.6v0.9c0,0.6,0,1,0,1.1c0,0.2,0.1,0.3,0.2,0.5h-0.7
			C99.8,65.6,99.8,65.4,99.8,65.2z M99.7,63.8c-0.2,0.1-0.6,0.2-1,0.2c-0.3,0-0.4,0.1-0.6,0.1c-0.1,0-0.2,0.1-0.3,0.2
			c-0.1,0.1-0.1,0.2-0.1,0.3c0,0.2,0.1,0.3,0.2,0.4c0.1,0.1,0.3,0.2,0.6,0.2c0.2,0,0.5-0.1,0.7-0.2c0.2-0.1,0.3-0.3,0.4-0.4
			c0.1-0.1,0.1-0.4,0.1-0.6V63.8z"/>
		<path class="st2" d="M101.3,65.7v-3.8h0.6v0.5c0.3-0.4,0.7-0.6,1.2-0.6c0.2,0,0.4,0,0.6,0.1c0.2,0.1,0.3,0.2,0.4,0.3
			c0.1,0.1,0.2,0.3,0.2,0.5c0,0.1,0,0.3,0,0.6v2.3h-0.6v-2.3c0-0.3,0-0.5-0.1-0.6c0-0.1-0.1-0.2-0.3-0.3c-0.1-0.1-0.3-0.1-0.4-0.1
			c-0.3,0-0.5,0.1-0.7,0.3c-0.2,0.2-0.3,0.5-0.3,1v2.1H101.3z"/>
		<path class="st2" d="M105.3,61.2v-0.7h0.6v0.7H105.3z M105.3,65.7v-3.8h0.6v3.8H105.3z"/>
		<path class="st2" d="M106.6,65.7v-0.5l2.4-2.8c-0.3,0-0.5,0-0.7,0h-1.5v-0.5h3.1v0.4l-2,2.4l-0.4,0.4c0.3,0,0.6,0,0.8,0h1.7v0.6
			H106.6z"/>
		<path class="st2" d="M113,65.2c-0.2,0.2-0.5,0.3-0.7,0.4c-0.2,0.1-0.5,0.1-0.7,0.1c-0.4,0-0.7-0.1-1-0.3c-0.2-0.2-0.3-0.5-0.3-0.8
			c0-0.2,0-0.4,0.1-0.5c0.1-0.2,0.2-0.3,0.3-0.4c0.1-0.1,0.3-0.2,0.5-0.2c0.1,0,0.3-0.1,0.6-0.1c0.5-0.1,0.9-0.1,1.1-0.2
			c0-0.1,0-0.1,0-0.2c0-0.3-0.1-0.4-0.2-0.5c-0.2-0.1-0.4-0.2-0.7-0.2c-0.3,0-0.5,0.1-0.7,0.2c-0.1,0.1-0.2,0.3-0.3,0.6l-0.6-0.1
			c0.1-0.3,0.2-0.5,0.3-0.6c0.1-0.2,0.3-0.3,0.6-0.4c0.2-0.1,0.5-0.1,0.9-0.1c0.3,0,0.6,0,0.8,0.1c0.2,0.1,0.3,0.2,0.4,0.3
			c0.1,0.1,0.2,0.3,0.2,0.4c0,0.1,0,0.3,0,0.6v0.9c0,0.6,0,1,0,1.1c0,0.2,0.1,0.3,0.2,0.5h-0.7C113.1,65.6,113,65.4,113,65.2z
			 M112.9,63.8c-0.2,0.1-0.6,0.2-1,0.2c-0.3,0-0.4,0.1-0.6,0.1c-0.1,0-0.2,0.1-0.3,0.2c-0.1,0.1-0.1,0.2-0.1,0.3
			c0,0.2,0.1,0.3,0.2,0.4c0.1,0.1,0.3,0.2,0.6,0.2c0.2,0,0.5-0.1,0.7-0.2c0.2-0.1,0.3-0.3,0.4-0.4c0.1-0.1,0.1-0.4,0.1-0.6V63.8z"/>
		<path class="st2" d="M117,64.3l0.6,0.1c-0.1,0.4-0.2,0.8-0.5,1c-0.3,0.2-0.6,0.4-1,0.4c-0.5,0-0.9-0.2-1.2-0.5
			c-0.3-0.3-0.5-0.8-0.5-1.5c0-0.4,0.1-0.8,0.2-1.1c0.1-0.3,0.3-0.5,0.6-0.7c0.3-0.2,0.6-0.2,0.9-0.2c0.4,0,0.7,0.1,1,0.3
			c0.3,0.2,0.4,0.5,0.5,0.9l-0.6,0.1c-0.1-0.3-0.2-0.4-0.3-0.6c-0.2-0.1-0.3-0.2-0.5-0.2c-0.3,0-0.6,0.1-0.8,0.3
			c-0.2,0.2-0.3,0.6-0.3,1.1c0,0.5,0.1,0.9,0.3,1.1c0.2,0.2,0.4,0.3,0.8,0.3c0.3,0,0.5-0.1,0.6-0.2C116.9,64.9,117,64.6,117,64.3z"
			/>
		<path class="st2" d="M118.2,61.2v-0.7h0.6v0.7H118.2z M118.2,65.7v-3.8h0.6v3.8H118.2z"/>
		<path class="st2" d="M119.5,63.8c0-0.7,0.2-1.2,0.6-1.6c0.3-0.3,0.7-0.4,1.2-0.4c0.5,0,0.9,0.2,1.3,0.5c0.3,0.3,0.5,0.8,0.5,1.4
			c0,0.5-0.1,0.9-0.2,1.1c-0.1,0.3-0.4,0.5-0.6,0.6c-0.3,0.2-0.6,0.2-0.9,0.2c-0.5,0-1-0.2-1.3-0.5
			C119.7,64.9,119.5,64.4,119.5,63.8z M120.2,63.8c0,0.5,0.1,0.8,0.3,1.1c0.2,0.2,0.5,0.4,0.8,0.4c0.3,0,0.6-0.1,0.8-0.4
			c0.2-0.2,0.3-0.6,0.3-1.1c0-0.5-0.1-0.8-0.3-1.1c-0.2-0.2-0.5-0.4-0.8-0.4c-0.3,0-0.6,0.1-0.8,0.4C120.3,63,120.2,63.3,120.2,63.8
			z M120.9,61.4l0.5-1h0.8l-0.8,1H120.9z"/>
		<path class="st2" d="M123.8,65.7v-3.8h0.6v0.5c0.3-0.4,0.7-0.6,1.2-0.6c0.2,0,0.4,0,0.6,0.1c0.2,0.1,0.3,0.2,0.4,0.3
			c0.1,0.1,0.2,0.3,0.2,0.5c0,0.1,0,0.3,0,0.6v2.3h-0.6v-2.3c0-0.3,0-0.5-0.1-0.6c0-0.1-0.1-0.2-0.3-0.3c-0.1-0.1-0.3-0.1-0.4-0.1
			c-0.3,0-0.5,0.1-0.7,0.3c-0.2,0.2-0.3,0.5-0.3,1v2.1H123.8z"/>
		<path class="st2" d="M54,73.7v-0.5c-0.2,0.4-0.6,0.6-1.1,0.6c-0.3,0-0.6-0.1-0.8-0.2c-0.3-0.2-0.4-0.4-0.6-0.7
			c-0.1-0.3-0.2-0.6-0.2-1c0-0.4,0.1-0.7,0.2-1c0.1-0.3,0.3-0.5,0.6-0.7c0.3-0.2,0.5-0.2,0.8-0.2c0.2,0,0.4,0,0.6,0.1
			c0.2,0.1,0.3,0.2,0.4,0.4v-1.9h0.6v5.2H54z M52,71.8c0,0.5,0.1,0.8,0.3,1.1c0.2,0.2,0.4,0.4,0.7,0.4c0.3,0,0.5-0.1,0.7-0.3
			c0.2-0.2,0.3-0.6,0.3-1c0-0.5-0.1-0.9-0.3-1.1c-0.2-0.2-0.4-0.4-0.7-0.4c-0.3,0-0.5,0.1-0.7,0.3C52.1,70.9,52,71.3,52,71.8z"/>
		<path class="st2" d="M58.2,72.5l0.7,0.1c-0.1,0.4-0.3,0.7-0.6,0.9c-0.3,0.2-0.6,0.3-1.1,0.3c-0.6,0-1-0.2-1.3-0.5
			c-0.3-0.3-0.5-0.8-0.5-1.4c0-0.6,0.2-1.1,0.5-1.5c0.3-0.4,0.8-0.5,1.3-0.5c0.5,0,0.9,0.2,1.2,0.5c0.3,0.3,0.5,0.8,0.5,1.4
			c0,0,0,0.1,0,0.2H56c0,0.4,0.1,0.7,0.4,1c0.2,0.2,0.5,0.3,0.8,0.3c0.2,0,0.4-0.1,0.6-0.2C57.9,72.9,58.1,72.7,58.2,72.5z
			 M56.1,71.4h2.1c0-0.3-0.1-0.6-0.2-0.7c-0.2-0.2-0.5-0.4-0.8-0.4c-0.3,0-0.5,0.1-0.7,0.3C56.2,70.8,56.1,71.1,56.1,71.4z"/>
		<path class="st2" d="M61.6,73.7v-5.2h0.6v5.2H61.6z"/>
		<path class="st2" d="M65.7,73.2c-0.2,0.2-0.5,0.3-0.7,0.4c-0.2,0.1-0.5,0.1-0.7,0.1c-0.4,0-0.7-0.1-1-0.3C63.1,73.3,63,73,63,72.7
			c0-0.2,0-0.4,0.1-0.5c0.1-0.2,0.2-0.3,0.3-0.4c0.1-0.1,0.3-0.2,0.5-0.2c0.1,0,0.3-0.1,0.6-0.1c0.5-0.1,0.9-0.1,1.1-0.2
			c0-0.1,0-0.1,0-0.2c0-0.3-0.1-0.4-0.2-0.5c-0.2-0.1-0.4-0.2-0.7-0.2c-0.3,0-0.5,0.1-0.7,0.2c-0.1,0.1-0.2,0.3-0.3,0.6L63.1,71
			c0.1-0.3,0.2-0.5,0.3-0.6c0.1-0.2,0.3-0.3,0.6-0.4c0.2-0.1,0.5-0.1,0.9-0.1c0.3,0,0.6,0,0.8,0.1c0.2,0.1,0.3,0.2,0.4,0.3
			c0.1,0.1,0.2,0.3,0.2,0.4c0,0.1,0,0.3,0,0.6v0.9c0,0.6,0,1,0,1.1c0,0.2,0.1,0.3,0.2,0.5h-0.7C65.8,73.6,65.7,73.4,65.7,73.2z
			 M65.6,71.8c-0.2,0.1-0.6,0.2-1,0.2c-0.3,0-0.4,0.1-0.6,0.1c-0.1,0-0.2,0.1-0.3,0.2c-0.1,0.1-0.1,0.2-0.1,0.3
			c0,0.2,0.1,0.3,0.2,0.4c0.1,0.1,0.3,0.2,0.6,0.2c0.2,0,0.5-0.1,0.7-0.2c0.2-0.1,0.3-0.3,0.4-0.4c0.1-0.1,0.1-0.4,0.1-0.6V71.8z"/>
		<path class="st2" d="M67,72.6l0.6-0.1c0,0.3,0.1,0.4,0.3,0.6c0.2,0.1,0.4,0.2,0.7,0.2c0.3,0,0.5-0.1,0.7-0.2
			c0.1-0.1,0.2-0.3,0.2-0.4c0-0.1-0.1-0.3-0.2-0.3c-0.1-0.1-0.3-0.1-0.7-0.2c-0.5-0.1-0.8-0.2-1-0.3c-0.2-0.1-0.3-0.2-0.4-0.4
			c-0.1-0.2-0.1-0.3-0.1-0.5c0-0.2,0-0.3,0.1-0.5c0.1-0.1,0.2-0.3,0.3-0.4c0.1-0.1,0.2-0.1,0.4-0.2c0.2-0.1,0.4-0.1,0.6-0.1
			c0.3,0,0.6,0,0.8,0.1c0.2,0.1,0.4,0.2,0.5,0.3c0.1,0.1,0.2,0.3,0.2,0.6L69.4,71c0-0.2-0.1-0.3-0.2-0.5c-0.1-0.1-0.3-0.2-0.6-0.2
			c-0.3,0-0.5,0-0.6,0.1c-0.1,0.1-0.2,0.2-0.2,0.3c0,0.1,0,0.2,0.1,0.2c0.1,0.1,0.1,0.1,0.2,0.2c0.1,0,0.3,0.1,0.6,0.2
			c0.5,0.1,0.8,0.2,0.9,0.3c0.2,0.1,0.3,0.2,0.4,0.3c0.1,0.1,0.2,0.3,0.2,0.5c0,0.2-0.1,0.4-0.2,0.6c-0.1,0.2-0.3,0.3-0.5,0.4
			c-0.2,0.1-0.5,0.2-0.8,0.2c-0.5,0-0.9-0.1-1.1-0.3C67.3,73.3,67.1,73,67,72.6z"/>
		<path class="st2" d="M73,73.7v-5.2h0.7l2.7,4.1v-4.1h0.7v5.2h-0.7l-2.7-4.1v4.1H73z"/>
		<path class="st2" d="M80.6,73.2c-0.2,0.2-0.5,0.3-0.7,0.4c-0.2,0.1-0.5,0.1-0.7,0.1c-0.4,0-0.7-0.1-1-0.3C78.1,73.3,78,73,78,72.7
			c0-0.2,0-0.4,0.1-0.5c0.1-0.2,0.2-0.3,0.3-0.4c0.1-0.1,0.3-0.2,0.5-0.2c0.1,0,0.3-0.1,0.6-0.1c0.5-0.1,0.9-0.1,1.1-0.2
			c0-0.1,0-0.1,0-0.2c0-0.3-0.1-0.4-0.2-0.5c-0.2-0.1-0.4-0.2-0.7-0.2c-0.3,0-0.5,0.1-0.7,0.2c-0.1,0.1-0.2,0.3-0.3,0.6L78.1,71
			c0.1-0.3,0.2-0.5,0.3-0.6c0.1-0.2,0.3-0.3,0.6-0.4c0.2-0.1,0.5-0.1,0.9-0.1c0.3,0,0.6,0,0.8,0.1c0.2,0.1,0.3,0.2,0.4,0.3
			c0.1,0.1,0.2,0.3,0.2,0.4c0,0.1,0,0.3,0,0.6v0.9c0,0.6,0,1,0,1.1c0,0.2,0.1,0.3,0.2,0.5h-0.7C80.7,73.6,80.6,73.4,80.6,73.2z
			 M80.6,71.8c-0.2,0.1-0.6,0.2-1,0.2c-0.3,0-0.4,0.1-0.6,0.1c-0.1,0-0.2,0.1-0.3,0.2c-0.1,0.1-0.1,0.2-0.1,0.3
			c0,0.2,0.1,0.3,0.2,0.4c0.1,0.1,0.3,0.2,0.6,0.2c0.2,0,0.5-0.1,0.7-0.2c0.2-0.1,0.3-0.3,0.4-0.4c0.1-0.1,0.1-0.4,0.1-0.6V71.8z"/>
		<path class="st2" d="M84.7,72.3l0.6,0.1c-0.1,0.4-0.2,0.8-0.5,1c-0.3,0.2-0.6,0.4-1,0.4c-0.5,0-0.9-0.2-1.2-0.5
			c-0.3-0.3-0.5-0.8-0.5-1.5c0-0.4,0.1-0.8,0.2-1.1c0.1-0.3,0.3-0.5,0.6-0.7c0.3-0.2,0.6-0.2,0.9-0.2c0.4,0,0.7,0.1,1,0.3
			c0.3,0.2,0.4,0.5,0.5,0.9l-0.6,0.1c-0.1-0.3-0.2-0.4-0.3-0.6c-0.2-0.1-0.3-0.2-0.5-0.2c-0.3,0-0.6,0.1-0.8,0.3
			c-0.2,0.2-0.3,0.6-0.3,1.1c0,0.5,0.1,0.9,0.3,1.1c0.2,0.2,0.4,0.3,0.8,0.3c0.3,0,0.5-0.1,0.6-0.2C84.5,72.9,84.6,72.6,84.7,72.3z"
			/>
		<path class="st2" d="M85.8,69.2v-0.7h0.6v0.7H85.8z M85.8,73.7v-3.8h0.6v3.8H85.8z"/>
		<path class="st2" d="M87.2,71.8c0-0.7,0.2-1.2,0.6-1.6c0.3-0.3,0.7-0.4,1.2-0.4c0.5,0,0.9,0.2,1.3,0.5c0.3,0.3,0.5,0.8,0.5,1.4
			c0,0.5-0.1,0.9-0.2,1.1c-0.1,0.3-0.4,0.5-0.6,0.6c-0.3,0.2-0.6,0.2-0.9,0.2c-0.5,0-1-0.2-1.3-0.5C87.4,72.9,87.2,72.4,87.2,71.8z
			 M87.9,71.8c0,0.5,0.1,0.8,0.3,1.1c0.2,0.2,0.5,0.4,0.8,0.4c0.3,0,0.6-0.1,0.8-0.4c0.2-0.2,0.3-0.6,0.3-1.1c0-0.5-0.1-0.8-0.3-1.1
			c-0.2-0.2-0.5-0.4-0.8-0.4c-0.3,0-0.6,0.1-0.8,0.4C88,71,87.9,71.3,87.9,71.8z"/>
		<path class="st2" d="M91.5,73.7v-3.8h0.6v0.5c0.3-0.4,0.7-0.6,1.2-0.6c0.2,0,0.4,0,0.6,0.1c0.2,0.1,0.3,0.2,0.4,0.3
			c0.1,0.1,0.2,0.3,0.2,0.5c0,0.1,0,0.3,0,0.6v2.3h-0.6v-2.3c0-0.3,0-0.5-0.1-0.6c-0.1-0.1-0.1-0.2-0.3-0.3
			c-0.1-0.1-0.3-0.1-0.4-0.1c-0.3,0-0.5,0.1-0.7,0.3c-0.2,0.2-0.3,0.5-0.3,1v2.1H91.5z"/>
		<path class="st2" d="M98.1,72.5l0.7,0.1c-0.1,0.4-0.3,0.7-0.6,0.9c-0.3,0.2-0.6,0.3-1.1,0.3c-0.6,0-1-0.2-1.3-0.5
			c-0.3-0.3-0.5-0.8-0.5-1.4c0-0.6,0.2-1.1,0.5-1.5c0.3-0.4,0.8-0.5,1.3-0.5c0.5,0,0.9,0.2,1.2,0.5c0.3,0.3,0.5,0.8,0.5,1.4
			c0,0,0,0.1,0,0.2H96c0,0.4,0.1,0.7,0.4,1c0.2,0.2,0.5,0.3,0.8,0.3c0.2,0,0.4-0.1,0.6-0.2C97.9,72.9,98,72.7,98.1,72.5z M96,71.4
			h2.1c0-0.3-0.1-0.6-0.2-0.7c-0.2-0.2-0.5-0.4-0.8-0.4c-0.3,0-0.5,0.1-0.7,0.3C96.1,70.8,96,71.1,96,71.4z"/>
		<path class="st2" d="M99.3,72.6l0.6-0.1c0,0.3,0.1,0.4,0.3,0.6c0.2,0.1,0.4,0.2,0.7,0.2c0.3,0,0.5-0.1,0.7-0.2
			c0.1-0.1,0.2-0.3,0.2-0.4c0-0.1-0.1-0.3-0.2-0.3c-0.1-0.1-0.3-0.1-0.7-0.2c-0.5-0.1-0.8-0.2-1-0.3c-0.2-0.1-0.3-0.2-0.4-0.4
			c-0.1-0.2-0.1-0.3-0.1-0.5c0-0.2,0-0.3,0.1-0.5c0.1-0.1,0.2-0.3,0.3-0.4c0.1-0.1,0.2-0.1,0.4-0.2c0.2-0.1,0.4-0.1,0.6-0.1
			c0.3,0,0.6,0,0.8,0.1c0.2,0.1,0.4,0.2,0.5,0.3c0.1,0.1,0.2,0.3,0.2,0.6l-0.6,0.1c0-0.2-0.1-0.3-0.2-0.5c-0.1-0.1-0.3-0.2-0.6-0.2
			c-0.3,0-0.5,0-0.6,0.1c-0.1,0.1-0.2,0.2-0.2,0.3c0,0.1,0,0.2,0.1,0.2c0.1,0.1,0.1,0.1,0.2,0.2c0.1,0,0.3,0.1,0.6,0.2
			c0.5,0.1,0.8,0.2,0.9,0.3c0.2,0.1,0.3,0.2,0.4,0.3c0.1,0.1,0.2,0.3,0.2,0.5c0,0.2-0.1,0.4-0.2,0.6c-0.1,0.2-0.3,0.3-0.5,0.4
			c-0.2,0.1-0.5,0.2-0.8,0.2c-0.5,0-0.9-0.1-1.1-0.3C99.5,73.3,99.4,73,99.3,72.6z"/>
		<path class="st2" d="M108.7,68.5h0.7v3c0,0.5-0.1,0.9-0.2,1.2c-0.1,0.3-0.3,0.6-0.6,0.8c-0.3,0.2-0.7,0.3-1.2,0.3
			c-0.5,0-0.9-0.1-1.2-0.3c-0.3-0.2-0.5-0.4-0.7-0.7c-0.1-0.3-0.2-0.8-0.2-1.3v-3h0.7v3c0,0.5,0,0.8,0.1,1c0.1,0.2,0.2,0.4,0.4,0.5
			c0.2,0.1,0.5,0.2,0.8,0.2c0.5,0,0.9-0.1,1.1-0.3c0.2-0.2,0.3-0.7,0.3-1.3V68.5z"/>
		<path class="st2" d="M110.4,73.7v-3.8h0.6v0.5c0.3-0.4,0.7-0.6,1.2-0.6c0.2,0,0.4,0,0.6,0.1c0.2,0.1,0.3,0.2,0.4,0.3
			c0.1,0.1,0.2,0.3,0.2,0.5c0,0.1,0,0.3,0,0.6v2.3h-0.6v-2.3c0-0.3,0-0.5-0.1-0.6c0-0.1-0.1-0.2-0.3-0.3c-0.1-0.1-0.3-0.1-0.4-0.1
			c-0.3,0-0.5,0.1-0.7,0.3c-0.2,0.2-0.3,0.5-0.3,1v2.1H110.4z"/>
		<path class="st2" d="M114.5,69.2v-0.7h0.6v0.7H114.5z M114.5,73.7v-3.8h0.6v3.8H114.5z"/>
		<path class="st2" d="M118.5,73.7v-0.5c-0.2,0.4-0.6,0.6-1.1,0.6c-0.3,0-0.6-0.1-0.8-0.2c-0.3-0.2-0.4-0.4-0.6-0.7
			c-0.1-0.3-0.2-0.6-0.2-1c0-0.4,0.1-0.7,0.2-1c0.1-0.3,0.3-0.5,0.6-0.7c0.3-0.2,0.5-0.2,0.8-0.2c0.2,0,0.4,0,0.6,0.1
			c0.2,0.1,0.3,0.2,0.4,0.4v-1.9h0.6v5.2H118.5z M116.5,71.8c0,0.5,0.1,0.8,0.3,1.1c0.2,0.2,0.4,0.4,0.7,0.4c0.3,0,0.5-0.1,0.7-0.3
			c0.2-0.2,0.3-0.6,0.3-1c0-0.5-0.1-0.9-0.3-1.1c-0.2-0.2-0.4-0.4-0.7-0.4c-0.3,0-0.5,0.1-0.7,0.3C116.6,70.9,116.5,71.3,116.5,71.8
			z"/>
		<path class="st2" d="M122.6,73.2c-0.2,0.2-0.5,0.3-0.7,0.4c-0.2,0.1-0.5,0.1-0.7,0.1c-0.4,0-0.7-0.1-1-0.3
			c-0.2-0.2-0.3-0.5-0.3-0.8c0-0.2,0-0.4,0.1-0.5c0.1-0.2,0.2-0.3,0.3-0.4c0.1-0.1,0.3-0.2,0.5-0.2c0.1,0,0.3-0.1,0.6-0.1
			c0.5-0.1,0.9-0.1,1.1-0.2c0-0.1,0-0.1,0-0.2c0-0.3-0.1-0.4-0.2-0.5c-0.2-0.1-0.4-0.2-0.7-0.2c-0.3,0-0.5,0.1-0.7,0.2
			c-0.1,0.1-0.2,0.3-0.3,0.6L120,71c0.1-0.3,0.2-0.5,0.3-0.6c0.1-0.2,0.3-0.3,0.6-0.4c0.2-0.1,0.5-0.1,0.9-0.1c0.3,0,0.6,0,0.8,0.1
			c0.2,0.1,0.3,0.2,0.4,0.3c0.1,0.1,0.2,0.3,0.2,0.4c0,0.1,0,0.3,0,0.6v0.9c0,0.6,0,1,0,1.1c0,0.2,0.1,0.3,0.2,0.5h-0.7
			C122.7,73.6,122.6,73.4,122.6,73.2z M122.5,71.8c-0.2,0.1-0.6,0.2-1,0.2c-0.3,0-0.4,0.1-0.6,0.1c-0.1,0-0.2,0.1-0.3,0.2
			c-0.1,0.1-0.1,0.2-0.1,0.3c0,0.2,0.1,0.3,0.2,0.4c0.1,0.1,0.3,0.2,0.6,0.2c0.2,0,0.5-0.1,0.7-0.2c0.2-0.1,0.3-0.3,0.4-0.4
			c0.1-0.1,0.1-0.4,0.1-0.6V71.8z"/>
		<path class="st2" d="M123.9,72.6l0.6-0.1c0,0.3,0.1,0.4,0.3,0.6c0.2,0.1,0.4,0.2,0.7,0.2c0.3,0,0.5-0.1,0.7-0.2
			c0.1-0.1,0.2-0.3,0.2-0.4c0-0.1-0.1-0.3-0.2-0.3c-0.1-0.1-0.3-0.1-0.7-0.2c-0.5-0.1-0.8-0.2-1-0.3c-0.2-0.1-0.3-0.2-0.4-0.4
			c-0.1-0.2-0.1-0.3-0.1-0.5c0-0.2,0-0.3,0.1-0.5c0.1-0.1,0.2-0.3,0.3-0.4c0.1-0.1,0.2-0.1,0.4-0.2c0.2-0.1,0.4-0.1,0.6-0.1
			c0.3,0,0.6,0,0.8,0.1c0.2,0.1,0.4,0.2,0.5,0.3c0.1,0.1,0.2,0.3,0.2,0.6l-0.6,0.1c0-0.2-0.1-0.3-0.2-0.5c-0.1-0.1-0.3-0.2-0.6-0.2
			c-0.3,0-0.5,0-0.6,0.1c-0.1,0.1-0.2,0.2-0.2,0.3c0,0.1,0,0.2,0.1,0.2c0.1,0.1,0.1,0.1,0.2,0.2c0.1,0,0.3,0.1,0.6,0.2
			c0.5,0.1,0.8,0.2,0.9,0.3c0.2,0.1,0.3,0.2,0.4,0.3c0.1,0.1,0.2,0.3,0.2,0.5c0,0.2-0.1,0.4-0.2,0.6c-0.1,0.2-0.3,0.3-0.5,0.4
			c-0.2,0.1-0.5,0.2-0.8,0.2c-0.5,0-0.9-0.1-1.1-0.3C124.1,73.3,124,73,123.9,72.6z"/>
		<path class="st2" d="M70,82.9v-5.2h0.6v0.5c0.1-0.2,0.3-0.3,0.5-0.4c0.2-0.1,0.4-0.1,0.6-0.1c0.3,0,0.6,0.1,0.9,0.2
			c0.2,0.2,0.4,0.4,0.6,0.7c0.1,0.3,0.2,0.6,0.2,1c0,0.4-0.1,0.7-0.2,1c-0.1,0.3-0.3,0.5-0.6,0.7c-0.3,0.2-0.5,0.2-0.8,0.2
			c-0.2,0-0.4,0-0.6-0.1c-0.2-0.1-0.3-0.2-0.4-0.3v1.8H70z M70.6,79.6c0,0.5,0.1,0.8,0.3,1.1c0.2,0.2,0.4,0.3,0.7,0.3
			c0.3,0,0.5-0.1,0.7-0.4c0.2-0.2,0.3-0.6,0.3-1.1c0-0.5-0.1-0.8-0.3-1.1c-0.2-0.2-0.4-0.4-0.7-0.4c-0.3,0-0.5,0.1-0.7,0.4
			C70.7,78.7,70.6,79.1,70.6,79.6z"/>
		<path class="st2" d="M76.4,81c-0.2,0.2-0.5,0.3-0.7,0.4c-0.2,0.1-0.5,0.1-0.7,0.1c-0.4,0-0.7-0.1-1-0.3c-0.2-0.2-0.3-0.5-0.3-0.8
			c0-0.2,0-0.4,0.1-0.5c0.1-0.2,0.2-0.3,0.3-0.4c0.1-0.1,0.3-0.2,0.5-0.2c0.1,0,0.3-0.1,0.6-0.1c0.5-0.1,0.9-0.1,1.1-0.2
			c0-0.1,0-0.1,0-0.2c0-0.3-0.1-0.4-0.2-0.6c-0.2-0.1-0.4-0.2-0.7-0.2c-0.3,0-0.5,0.1-0.7,0.2c-0.1,0.1-0.2,0.3-0.3,0.6l-0.6-0.1
			c0.1-0.3,0.2-0.5,0.3-0.6c0.1-0.2,0.3-0.3,0.6-0.4c0.2-0.1,0.5-0.1,0.9-0.1c0.3,0,0.6,0,0.8,0.1c0.2,0.1,0.3,0.2,0.4,0.3
			c0.1,0.1,0.2,0.3,0.2,0.4c0,0.1,0,0.3,0,0.6v0.9c0,0.6,0,1,0,1.1c0,0.2,0.1,0.3,0.2,0.5h-0.7C76.5,81.3,76.4,81.2,76.4,81z
			 M76.3,79.6c-0.2,0.1-0.6,0.2-1,0.2c-0.3,0-0.4,0.1-0.6,0.1c-0.1,0-0.2,0.1-0.3,0.2c-0.1,0.1-0.1,0.2-0.1,0.3
			c0,0.2,0.1,0.3,0.2,0.4c0.1,0.1,0.3,0.2,0.6,0.2c0.2,0,0.5-0.1,0.7-0.2c0.2-0.1,0.3-0.3,0.4-0.4c0.1-0.1,0.1-0.4,0.1-0.6V79.6z"/>
		<path class="st2" d="M77.8,81.4v-3.8h0.6v0.6c0.1-0.3,0.3-0.4,0.4-0.5c0.1-0.1,0.3-0.1,0.4-0.1c0.2,0,0.4,0.1,0.7,0.2l-0.2,0.6
			c-0.2-0.1-0.3-0.1-0.5-0.1c-0.1,0-0.3,0-0.4,0.1c-0.1,0.1-0.2,0.2-0.2,0.3c-0.1,0.2-0.1,0.5-0.1,0.7v2H77.8z"/>
		<path class="st2" d="M82.6,81c-0.2,0.2-0.5,0.3-0.7,0.4c-0.2,0.1-0.5,0.1-0.7,0.1c-0.4,0-0.7-0.1-1-0.3c-0.2-0.2-0.3-0.5-0.3-0.8
			c0-0.2,0-0.4,0.1-0.5c0.1-0.2,0.2-0.3,0.3-0.4c0.1-0.1,0.3-0.2,0.5-0.2c0.1,0,0.3-0.1,0.6-0.1c0.5-0.1,0.9-0.1,1.1-0.2
			c0-0.1,0-0.1,0-0.2c0-0.3-0.1-0.4-0.2-0.6c-0.2-0.1-0.4-0.2-0.7-0.2c-0.3,0-0.5,0.1-0.7,0.2c-0.1,0.1-0.2,0.3-0.3,0.6L80,78.7
			c0.1-0.3,0.2-0.5,0.3-0.6c0.1-0.2,0.3-0.3,0.6-0.4c0.2-0.1,0.5-0.1,0.9-0.1c0.3,0,0.6,0,0.8,0.1c0.2,0.1,0.3,0.2,0.4,0.3
			c0.1,0.1,0.2,0.3,0.2,0.4c0,0.1,0,0.3,0,0.6v0.9c0,0.6,0,1,0,1.1c0,0.2,0.1,0.3,0.2,0.5h-0.7C82.6,81.3,82.6,81.2,82.6,81z
			 M82.5,79.6c-0.2,0.1-0.6,0.2-1,0.2c-0.3,0-0.4,0.1-0.6,0.1c-0.1,0-0.2,0.1-0.3,0.2c-0.1,0.1-0.1,0.2-0.1,0.3
			c0,0.2,0.1,0.3,0.2,0.4c0.1,0.1,0.3,0.2,0.6,0.2c0.2,0,0.5-0.1,0.7-0.2c0.2-0.1,0.3-0.3,0.4-0.4c0.1-0.1,0.1-0.4,0.1-0.6V79.6z"/>
		<path class="st2" d="M85.9,81.4v-5.2h0.6v5.2H85.9z"/>
		<path class="st2" d="M89.8,81c-0.2,0.2-0.5,0.3-0.7,0.4c-0.2,0.1-0.5,0.1-0.7,0.1c-0.4,0-0.7-0.1-1-0.3c-0.2-0.2-0.3-0.5-0.3-0.8
			c0-0.2,0-0.4,0.1-0.5c0.1-0.2,0.2-0.3,0.3-0.4c0.1-0.1,0.3-0.2,0.5-0.2c0.1,0,0.3-0.1,0.6-0.1c0.5-0.1,0.9-0.1,1.1-0.2
			c0-0.1,0-0.1,0-0.2c0-0.3-0.1-0.4-0.2-0.6c-0.2-0.1-0.4-0.2-0.7-0.2c-0.3,0-0.5,0.1-0.7,0.2c-0.1,0.1-0.2,0.3-0.3,0.6l-0.6-0.1
			c0.1-0.3,0.2-0.5,0.3-0.6c0.1-0.2,0.3-0.3,0.6-0.4c0.2-0.1,0.5-0.1,0.9-0.1c0.3,0,0.6,0,0.8,0.1c0.2,0.1,0.3,0.2,0.4,0.3
			c0.1,0.1,0.2,0.3,0.2,0.4c0,0.1,0,0.3,0,0.6v0.9c0,0.6,0,1,0,1.1c0,0.2,0.1,0.3,0.2,0.5h-0.7C89.9,81.3,89.8,81.2,89.8,81z
			 M89.8,79.6c-0.2,0.1-0.6,0.2-1,0.2c-0.3,0-0.5,0.1-0.6,0.1C88,80,88,80,87.9,80.1c-0.1,0.1-0.1,0.2-0.1,0.3
			c0,0.2,0.1,0.3,0.2,0.4c0.1,0.1,0.3,0.2,0.6,0.2c0.2,0,0.5-0.1,0.7-0.2c0.2-0.1,0.3-0.3,0.4-0.4c0.1-0.1,0.1-0.4,0.1-0.6V79.6z"/>
		<path class="st2" d="M93.2,81.4v-5.2H97v0.6h-3.1v1.6h2.9v0.6h-2.9v1.8h3.2v0.6H93.2z"/>
		<path class="st2" d="M100.3,81.4V81c-0.2,0.4-0.6,0.6-1.1,0.6c-0.3,0-0.6-0.1-0.8-0.2c-0.3-0.2-0.4-0.4-0.6-0.7
			c-0.1-0.3-0.2-0.6-0.2-1c0-0.4,0.1-0.7,0.2-1c0.1-0.3,0.3-0.5,0.6-0.7c0.3-0.2,0.5-0.2,0.8-0.2c0.2,0,0.4,0,0.6,0.1
			c0.2,0.1,0.3,0.2,0.4,0.4v-1.9h0.6v5.2H100.3z M98.3,79.6c0,0.5,0.1,0.8,0.3,1.1c0.2,0.2,0.4,0.4,0.7,0.4c0.3,0,0.5-0.1,0.7-0.3
			c0.2-0.2,0.3-0.6,0.3-1c0-0.5-0.1-0.9-0.3-1.1c-0.2-0.2-0.4-0.4-0.7-0.4c-0.3,0-0.5,0.1-0.7,0.3C98.4,78.7,98.3,79.1,98.3,79.6z"
			/>
		<path class="st2" d="M104.2,81.4v-0.6c-0.3,0.4-0.7,0.6-1.2,0.6c-0.2,0-0.4,0-0.6-0.1c-0.2-0.1-0.3-0.2-0.4-0.3
			c-0.1-0.1-0.2-0.3-0.2-0.5c0-0.1,0-0.3,0-0.6v-2.3h0.6v2.1c0,0.3,0,0.6,0,0.7c0,0.2,0.1,0.3,0.3,0.4c0.1,0.1,0.3,0.1,0.5,0.1
			c0.2,0,0.4,0,0.5-0.1c0.2-0.1,0.3-0.2,0.4-0.4c0.1-0.2,0.1-0.4,0.1-0.7v-2h0.6v3.8H104.2z"/>
		<path class="st2" d="M108.1,80.1l0.6,0.1c-0.1,0.4-0.2,0.8-0.5,1c-0.3,0.2-0.6,0.4-1,0.4c-0.5,0-0.9-0.2-1.2-0.5
			c-0.3-0.3-0.5-0.8-0.5-1.5c0-0.4,0.1-0.8,0.2-1.1c0.1-0.3,0.3-0.5,0.6-0.7c0.3-0.2,0.6-0.2,0.9-0.2c0.4,0,0.7,0.1,1,0.3
			c0.3,0.2,0.4,0.5,0.5,0.9l-0.6,0.1c-0.1-0.3-0.2-0.4-0.3-0.6c-0.2-0.1-0.3-0.2-0.5-0.2c-0.3,0-0.6,0.1-0.8,0.3
			c-0.2,0.2-0.3,0.6-0.3,1.1c0,0.5,0.1,0.9,0.3,1.1c0.2,0.2,0.4,0.3,0.8,0.3c0.3,0,0.5-0.1,0.6-0.2C107.9,80.6,108,80.4,108.1,80.1z
			"/>
		<path class="st2" d="M111.6,81c-0.2,0.2-0.5,0.3-0.7,0.4c-0.2,0.1-0.5,0.1-0.7,0.1c-0.4,0-0.7-0.1-1-0.3c-0.2-0.2-0.3-0.5-0.3-0.8
			c0-0.2,0-0.4,0.1-0.5c0.1-0.2,0.2-0.3,0.3-0.4c0.1-0.1,0.3-0.2,0.5-0.2c0.1,0,0.3-0.1,0.6-0.1c0.5-0.1,0.9-0.1,1.1-0.2
			c0-0.1,0-0.1,0-0.2c0-0.3-0.1-0.4-0.2-0.6c-0.2-0.1-0.4-0.2-0.7-0.2c-0.3,0-0.5,0.1-0.7,0.2c-0.1,0.1-0.2,0.3-0.3,0.6l-0.6-0.1
			c0.1-0.3,0.2-0.5,0.3-0.6c0.1-0.2,0.3-0.3,0.6-0.4c0.2-0.1,0.5-0.1,0.9-0.1c0.3,0,0.6,0,0.8,0.1c0.2,0.1,0.3,0.2,0.4,0.3
			c0.1,0.1,0.2,0.3,0.2,0.4c0,0.1,0,0.3,0,0.6v0.9c0,0.6,0,1,0,1.1c0,0.2,0.1,0.3,0.2,0.5h-0.7C111.6,81.3,111.6,81.2,111.6,81z
			 M111.5,79.6c-0.2,0.1-0.6,0.2-1,0.2c-0.3,0-0.4,0.1-0.6,0.1c-0.1,0-0.2,0.1-0.3,0.2c-0.1,0.1-0.1,0.2-0.1,0.3
			c0,0.2,0.1,0.3,0.2,0.4c0.1,0.1,0.3,0.2,0.6,0.2c0.2,0,0.5-0.1,0.7-0.2c0.2-0.1,0.3-0.3,0.4-0.4c0.1-0.1,0.1-0.4,0.1-0.6V79.6z"/>
		<path class="st2" d="M115.5,80.1l0.6,0.1c-0.1,0.4-0.2,0.8-0.5,1c-0.3,0.2-0.6,0.4-1,0.4c-0.5,0-0.9-0.2-1.2-0.5
			c-0.3-0.3-0.5-0.8-0.5-1.5c0-0.4,0.1-0.8,0.2-1.1c0.1-0.3,0.3-0.5,0.6-0.7c0.3-0.2,0.6-0.2,0.9-0.2c0.4,0,0.7,0.1,1,0.3
			c0.3,0.2,0.4,0.5,0.5,0.9l-0.6,0.1c-0.1-0.3-0.2-0.4-0.3-0.6c-0.2-0.1-0.3-0.2-0.5-0.2c-0.3,0-0.6,0.1-0.8,0.3
			c-0.2,0.2-0.3,0.6-0.3,1.1c0,0.5,0.1,0.9,0.3,1.1c0.2,0.2,0.4,0.3,0.8,0.3c0.3,0,0.5-0.1,0.6-0.2
			C115.3,80.6,115.4,80.4,115.5,80.1z"/>
		<path class="st2" d="M116.5,77v-0.7h0.6V77H116.5z M116.5,81.4v-3.8h0.6v3.8H116.5z"/>
		<path class="st2" d="M117.7,79.6c0-0.7,0.2-1.2,0.6-1.6c0.3-0.3,0.7-0.4,1.2-0.4c0.5,0,0.9,0.2,1.3,0.5c0.3,0.3,0.5,0.8,0.5,1.4
			c0,0.5-0.1,0.9-0.2,1.1c-0.1,0.3-0.4,0.5-0.6,0.6c-0.3,0.2-0.6,0.2-0.9,0.2c-0.5,0-1-0.2-1.3-0.5
			C117.9,80.7,117.7,80.2,117.7,79.6z M118.4,79.6c0,0.5,0.1,0.8,0.3,1.1c0.2,0.2,0.5,0.4,0.8,0.4c0.3,0,0.6-0.1,0.8-0.4
			c0.2-0.2,0.3-0.6,0.3-1.1c0-0.5-0.1-0.8-0.3-1.1c-0.2-0.2-0.5-0.4-0.8-0.4c-0.3,0-0.6,0.1-0.8,0.4
			C118.5,78.7,118.4,79.1,118.4,79.6z M119.2,77.2l0.5-1h0.8l-0.8,1H119.2z"/>
		<path class="st2" d="M121.9,81.4v-3.8h0.6v0.5c0.3-0.4,0.7-0.6,1.2-0.6c0.2,0,0.4,0,0.6,0.1c0.2,0.1,0.3,0.2,0.4,0.3
			c0.1,0.1,0.2,0.3,0.2,0.5c0,0.1,0,0.3,0,0.6v2.3h-0.6v-2.3c0-0.3,0-0.5-0.1-0.6c0-0.1-0.1-0.2-0.3-0.3c-0.1-0.1-0.3-0.1-0.4-0.1
			c-0.3,0-0.5,0.1-0.7,0.3c-0.2,0.2-0.3,0.5-0.3,1v2.1H121.9z"/>
		<path class="st2" d="M126,81.4v-0.7h0.7v0.7c0,0.3,0,0.5-0.1,0.6c-0.1,0.2-0.2,0.3-0.5,0.4l-0.2-0.3c0.1-0.1,0.2-0.1,0.3-0.3
			c0.1-0.1,0.1-0.3,0.1-0.5H126z"/>
		<path class="st2" d="M57.4,89.4v-5.2H58v5.2H57.4z"/>
		<path class="st2" d="M61.5,89c-0.2,0.2-0.5,0.3-0.7,0.4c-0.2,0.1-0.5,0.1-0.7,0.1c-0.4,0-0.7-0.1-1-0.3c-0.2-0.2-0.3-0.5-0.3-0.8
			c0-0.2,0-0.4,0.1-0.5c0.1-0.2,0.2-0.3,0.3-0.4c0.1-0.1,0.3-0.2,0.5-0.2c0.1,0,0.3-0.1,0.6-0.1c0.5-0.1,0.9-0.1,1.1-0.2
			c0-0.1,0-0.1,0-0.2c0-0.3-0.1-0.4-0.2-0.6c-0.2-0.1-0.4-0.2-0.7-0.2c-0.3,0-0.5,0.1-0.7,0.2c-0.1,0.1-0.2,0.3-0.3,0.6l-0.6-0.1
			c0.1-0.3,0.2-0.5,0.3-0.6c0.1-0.2,0.3-0.3,0.6-0.4c0.2-0.1,0.5-0.1,0.9-0.1c0.3,0,0.6,0,0.8,0.1c0.2,0.1,0.3,0.2,0.4,0.3
			c0.1,0.1,0.2,0.3,0.2,0.4c0,0.1,0,0.3,0,0.6v0.9c0,0.6,0,1,0,1.1c0,0.2,0.1,0.3,0.2,0.5h-0.7C61.5,89.3,61.5,89.2,61.5,89z
			 M61.4,87.6c-0.2,0.1-0.6,0.2-1,0.2c-0.3,0-0.4,0.1-0.6,0.1c-0.1,0-0.2,0.1-0.3,0.2c-0.1,0.1-0.1,0.2-0.1,0.3
			c0,0.2,0.1,0.3,0.2,0.4C59.8,89,60,89,60.2,89c0.2,0,0.5-0.1,0.7-0.2c0.2-0.1,0.3-0.3,0.4-0.4c0.1-0.1,0.1-0.4,0.1-0.6V87.6z"/>
		<path class="st2" d="M68.9,87.6l0.7,0.2c-0.1,0.6-0.4,1-0.8,1.3c-0.4,0.3-0.8,0.4-1.4,0.4c-0.6,0-1-0.1-1.4-0.3
			c-0.4-0.2-0.6-0.6-0.8-1c-0.2-0.4-0.3-0.9-0.3-1.4c0-0.5,0.1-1,0.3-1.4c0.2-0.4,0.5-0.7,0.9-0.9c0.4-0.2,0.8-0.3,1.3-0.3
			c0.5,0,1,0.1,1.3,0.4c0.4,0.3,0.6,0.6,0.7,1.1l-0.7,0.2c-0.1-0.4-0.3-0.7-0.5-0.8c-0.2-0.2-0.5-0.3-0.9-0.3c-0.4,0-0.7,0.1-1,0.3
			c-0.3,0.2-0.5,0.4-0.6,0.8c-0.1,0.3-0.2,0.7-0.2,1c0,0.4,0.1,0.8,0.2,1.2c0.1,0.3,0.3,0.6,0.6,0.7c0.3,0.2,0.6,0.2,0.9,0.2
			c0.4,0,0.7-0.1,1-0.3C68.6,88.4,68.8,88.1,68.9,87.6z"/>
		<path class="st2" d="M70.3,85v-0.7H71V85H70.3z M70.3,89.4v-3.8H71v3.8H70.3z"/>
		<path class="st2" d="M74.5,88.2l0.7,0.1c-0.1,0.4-0.3,0.7-0.6,0.9c-0.3,0.2-0.6,0.3-1.1,0.3c-0.6,0-1-0.2-1.3-0.5
			c-0.3-0.3-0.5-0.8-0.5-1.4c0-0.6,0.2-1.1,0.5-1.5c0.3-0.4,0.8-0.5,1.3-0.5c0.5,0,0.9,0.2,1.2,0.5c0.3,0.3,0.5,0.8,0.5,1.4
			c0,0,0,0.1,0,0.2h-2.8c0,0.4,0.1,0.7,0.4,1c0.2,0.2,0.5,0.3,0.8,0.3c0.2,0,0.4-0.1,0.6-0.2C74.3,88.7,74.4,88.5,74.5,88.2z
			 M72.4,87.2h2.1c0-0.3-0.1-0.6-0.2-0.7c-0.2-0.2-0.5-0.4-0.8-0.4c-0.3,0-0.5,0.1-0.7,0.3C72.6,86.6,72.5,86.9,72.4,87.2z"/>
		<path class="st2" d="M76,89.4v-3.8h0.6v0.5c0.3-0.4,0.7-0.6,1.2-0.6c0.2,0,0.4,0,0.6,0.1c0.2,0.1,0.3,0.2,0.4,0.3
			c0.1,0.1,0.2,0.3,0.2,0.5c0,0.1,0,0.3,0,0.6v2.3h-0.6v-2.3c0-0.3,0-0.5-0.1-0.6c0-0.1-0.1-0.2-0.3-0.3c-0.1-0.1-0.3-0.1-0.4-0.1
			c-0.3,0-0.5,0.1-0.7,0.3c-0.2,0.2-0.3,0.5-0.3,1v2.1H76z"/>
		<path class="st2" d="M82.5,88.1l0.6,0.1c-0.1,0.4-0.2,0.8-0.5,1c-0.3,0.2-0.6,0.4-1,0.4c-0.5,0-0.9-0.2-1.2-0.5
			c-0.3-0.3-0.5-0.8-0.5-1.4c0-0.4,0.1-0.8,0.2-1.1c0.1-0.3,0.3-0.5,0.6-0.7c0.3-0.2,0.6-0.2,0.9-0.2c0.4,0,0.7,0.1,1,0.3
			c0.3,0.2,0.4,0.5,0.5,0.9l-0.6,0.1c-0.1-0.3-0.2-0.4-0.3-0.6c-0.2-0.1-0.3-0.2-0.5-0.2c-0.3,0-0.6,0.1-0.8,0.3
			c-0.2,0.2-0.3,0.6-0.3,1.1c0,0.5,0.1,0.9,0.3,1.1c0.2,0.2,0.4,0.3,0.8,0.3c0.3,0,0.5-0.1,0.6-0.2C82.4,88.6,82.5,88.4,82.5,88.1z"
			/>
		<path class="st2" d="M83.7,85v-0.7h0.6V85H83.7z M83.7,89.4v-3.8h0.6v3.8H83.7z"/>
		<path class="st2" d="M87.8,89c-0.2,0.2-0.5,0.3-0.7,0.4c-0.2,0.1-0.5,0.1-0.7,0.1c-0.4,0-0.7-0.1-1-0.3c-0.2-0.2-0.3-0.5-0.3-0.8
			c0-0.2,0-0.4,0.1-0.5c0.1-0.2,0.2-0.3,0.3-0.4c0.1-0.1,0.3-0.2,0.5-0.2c0.1,0,0.3-0.1,0.6-0.1c0.5-0.1,0.9-0.1,1.1-0.2
			c0-0.1,0-0.1,0-0.2c0-0.3-0.1-0.4-0.2-0.6c-0.2-0.1-0.4-0.2-0.7-0.2c-0.3,0-0.5,0.1-0.7,0.2c-0.1,0.1-0.2,0.3-0.3,0.6l-0.6-0.1
			c0.1-0.3,0.1-0.5,0.3-0.6c0.1-0.2,0.3-0.3,0.6-0.4c0.2-0.1,0.5-0.1,0.9-0.1c0.3,0,0.6,0,0.8,0.1c0.2,0.1,0.3,0.2,0.4,0.3
			c0.1,0.1,0.2,0.3,0.2,0.4c0,0.1,0,0.3,0,0.6v0.9c0,0.6,0,1,0,1.1c0,0.2,0.1,0.3,0.2,0.5h-0.7C87.8,89.3,87.8,89.2,87.8,89z
			 M87.7,87.6c-0.2,0.1-0.6,0.2-1,0.2c-0.3,0-0.4,0.1-0.6,0.1c-0.1,0-0.2,0.1-0.3,0.2c-0.1,0.1-0.1,0.2-0.1,0.3
			c0,0.2,0.1,0.3,0.2,0.4c0.1,0.1,0.3,0.2,0.6,0.2c0.2,0,0.5-0.1,0.7-0.2c0.2-0.1,0.3-0.3,0.4-0.4c0.1-0.1,0.1-0.4,0.1-0.6V87.6z"/>
		<path class="st2" d="M91.3,90.9l-0.1-0.6c0.1,0,0.3,0.1,0.4,0.1c0.1,0,0.3,0,0.3-0.1c0.1,0,0.2-0.1,0.2-0.2c0-0.1,0.1-0.2,0.2-0.5
			c0,0,0-0.1,0.1-0.2L91,85.7h0.7l0.8,2.2c0.1,0.3,0.2,0.6,0.3,0.9c0.1-0.3,0.2-0.6,0.3-0.9l0.8-2.2h0.6L93,89.5
			c-0.2,0.4-0.3,0.7-0.4,0.9c-0.1,0.2-0.2,0.4-0.4,0.5c-0.1,0.1-0.3,0.1-0.5,0.1C91.6,91,91.5,90.9,91.3,90.9z"/>
		<path class="st2" d="M96.9,89.4v-5.2h0.6v5.2H96.9z"/>
		<path class="st2" d="M101,89c-0.2,0.2-0.5,0.3-0.7,0.4c-0.2,0.1-0.5,0.1-0.7,0.1c-0.4,0-0.7-0.1-1-0.3c-0.2-0.2-0.3-0.5-0.3-0.8
			c0-0.2,0-0.4,0.1-0.5c0.1-0.2,0.2-0.3,0.3-0.4c0.1-0.1,0.3-0.2,0.5-0.2c0.1,0,0.3-0.1,0.6-0.1c0.5-0.1,0.9-0.1,1.1-0.2
			c0-0.1,0-0.1,0-0.2c0-0.3-0.1-0.4-0.2-0.6c-0.2-0.1-0.4-0.2-0.7-0.2c-0.3,0-0.5,0.1-0.7,0.2c-0.1,0.1-0.2,0.3-0.3,0.6l-0.6-0.1
			c0.1-0.3,0.2-0.5,0.3-0.6c0.1-0.2,0.3-0.3,0.6-0.4c0.2-0.1,0.5-0.1,0.9-0.1c0.3,0,0.6,0,0.8,0.1c0.2,0.1,0.3,0.2,0.4,0.3
			c0.1,0.1,0.2,0.3,0.2,0.4c0,0.1,0,0.3,0,0.6v0.9c0,0.6,0,1,0,1.1c0,0.2,0.1,0.3,0.2,0.5h-0.7C101,89.3,101,89.2,101,89z
			 M100.9,87.6c-0.2,0.1-0.6,0.2-1,0.2c-0.3,0-0.4,0.1-0.6,0.1c-0.1,0-0.2,0.1-0.3,0.2C99,88.2,99,88.3,99,88.4
			c0,0.2,0.1,0.3,0.2,0.4c0.1,0.1,0.3,0.2,0.6,0.2c0.2,0,0.5-0.1,0.7-0.2c0.2-0.1,0.3-0.3,0.4-0.4c0.1-0.1,0.1-0.4,0.1-0.6V87.6z"/>
		<path class="st2" d="M108.3,87.6l0.7,0.2c-0.1,0.6-0.4,1-0.8,1.3c-0.4,0.3-0.8,0.4-1.4,0.4c-0.6,0-1-0.1-1.4-0.3
			c-0.4-0.2-0.6-0.6-0.8-1c-0.2-0.4-0.3-0.9-0.3-1.4c0-0.5,0.1-1,0.3-1.4c0.2-0.4,0.5-0.7,0.9-0.9c0.4-0.2,0.8-0.3,1.3-0.3
			c0.5,0,1,0.1,1.3,0.4c0.4,0.3,0.6,0.6,0.7,1.1l-0.7,0.2c-0.1-0.4-0.3-0.7-0.5-0.8c-0.2-0.2-0.5-0.3-0.9-0.3c-0.4,0-0.7,0.1-1,0.3
			c-0.3,0.2-0.5,0.4-0.6,0.8c-0.1,0.3-0.2,0.7-0.2,1c0,0.4,0.1,0.8,0.2,1.2c0.1,0.3,0.3,0.6,0.6,0.7c0.3,0.2,0.6,0.2,0.9,0.2
			c0.4,0,0.7-0.1,1-0.3C108.1,88.4,108.2,88.1,108.3,87.6z"/>
		<path class="st2" d="M112.2,89.4v-0.6c-0.3,0.4-0.7,0.6-1.2,0.6c-0.2,0-0.4,0-0.6-0.1c-0.2-0.1-0.3-0.2-0.4-0.3
			c-0.1-0.1-0.2-0.3-0.2-0.5c0-0.1,0-0.3,0-0.6v-2.3h0.6v2.1c0,0.3,0,0.6,0,0.7c0,0.2,0.1,0.3,0.3,0.4c0.1,0.1,0.3,0.1,0.5,0.1
			c0.2,0,0.4,0,0.5-0.1c0.2-0.1,0.3-0.2,0.4-0.4c0.1-0.2,0.1-0.4,0.1-0.7v-2h0.6v3.8H112.2z"/>
		<path class="st2" d="M113.8,89.4v-5.2h0.6v5.2H113.8z"/>
		<path class="st2" d="M116.8,88.9l0.1,0.6c-0.2,0-0.3,0.1-0.5,0.1c-0.2,0-0.4,0-0.5-0.1c-0.1-0.1-0.2-0.2-0.3-0.3
			c-0.1-0.1-0.1-0.4-0.1-0.8v-2.2H115v-0.5h0.5v-0.9l0.6-0.4v1.3h0.6v0.5h-0.6v2.2c0,0.2,0,0.3,0,0.4c0,0.1,0.1,0.1,0.1,0.1
			c0.1,0,0.1,0,0.2,0C116.5,88.9,116.6,88.9,116.8,88.9z"/>
		<path class="st2" d="M119.8,89.4v-0.6c-0.3,0.4-0.7,0.6-1.2,0.6c-0.2,0-0.4,0-0.6-0.1c-0.2-0.1-0.3-0.2-0.4-0.3
			c-0.1-0.1-0.2-0.3-0.2-0.5c0-0.1,0-0.3,0-0.6v-2.3h0.6v2.1c0,0.3,0,0.6,0,0.7c0,0.2,0.1,0.3,0.3,0.4c0.1,0.1,0.3,0.1,0.5,0.1
			c0.2,0,0.4,0,0.5-0.1c0.2-0.1,0.3-0.2,0.4-0.4c0.1-0.2,0.1-0.4,0.1-0.7v-2h0.6v3.8H119.8z"/>
		<path class="st2" d="M121.4,89.4v-3.8h0.6v0.6c0.1-0.3,0.3-0.4,0.4-0.5c0.1-0.1,0.3-0.1,0.4-0.1c0.2,0,0.4,0.1,0.7,0.2l-0.2,0.6
			c-0.2-0.1-0.3-0.1-0.5-0.1c-0.1,0-0.3,0-0.4,0.1c-0.1,0.1-0.2,0.2-0.2,0.4c-0.1,0.2-0.1,0.5-0.1,0.7v2H121.4z"/>
		<path class="st2" d="M126.2,89c-0.2,0.2-0.5,0.3-0.7,0.4c-0.2,0.1-0.5,0.1-0.7,0.1c-0.4,0-0.7-0.1-1-0.3c-0.2-0.2-0.3-0.5-0.3-0.8
			c0-0.2,0-0.4,0.1-0.5c0.1-0.2,0.2-0.3,0.3-0.4c0.1-0.1,0.3-0.2,0.5-0.2c0.1,0,0.3-0.1,0.6-0.1c0.5-0.1,0.9-0.1,1.1-0.2
			c0-0.1,0-0.1,0-0.2c0-0.3-0.1-0.4-0.2-0.6c-0.2-0.1-0.4-0.2-0.7-0.2c-0.3,0-0.5,0.1-0.7,0.2c-0.1,0.1-0.2,0.3-0.3,0.6l-0.6-0.1
			c0.1-0.3,0.2-0.5,0.3-0.6c0.1-0.2,0.3-0.3,0.6-0.4c0.2-0.1,0.5-0.1,0.9-0.1c0.3,0,0.6,0,0.8,0.1c0.2,0.1,0.3,0.2,0.4,0.3
			c0.1,0.1,0.2,0.3,0.2,0.4c0,0.1,0,0.3,0,0.6v0.9c0,0.6,0,1,0,1.1c0,0.2,0.1,0.3,0.2,0.5h-0.7C126.3,89.3,126.2,89.2,126.2,89z
			 M126.2,87.6c-0.2,0.1-0.6,0.2-1,0.2c-0.3,0-0.4,0.1-0.6,0.1c-0.1,0-0.2,0.1-0.3,0.2c-0.1,0.1-0.1,0.2-0.1,0.3
			c0,0.2,0.1,0.3,0.2,0.4c0.1,0.1,0.3,0.2,0.6,0.2c0.2,0,0.5-0.1,0.7-0.2c0.2-0.1,0.3-0.3,0.4-0.4c0.1-0.1,0.1-0.4,0.1-0.6V87.6z"/>
	</g>
</g>
<g>
	<path class="st12" d="M10.7,24.4c0.1,0.1,0.1,0.1,0.2,0.2c0,0.1,0,0.2-0.1,0.3c-0.1,0.1-0.1,0.1-0.2,0.1c-0.1,0-0.2,0-0.2,0
		c-0.3-0.2-0.6-0.3-0.9-0.4c-0.3-0.1-0.7-0.2-1-0.2c-0.5,0-0.9,0.1-1.3,0.2s-0.7,0.4-1,0.7c-0.3,0.3-0.5,0.6-0.7,1.1
		c-0.2,0.4-0.2,0.9-0.2,1.3c0,0.5,0.1,1,0.2,1.4s0.4,0.8,0.7,1.1c0.3,0.3,0.6,0.5,1,0.7C7.6,30.9,8,31,8.4,31c0.4,0,0.7-0.1,1-0.2
		s0.6-0.2,0.9-0.4c0.1,0,0.2-0.1,0.2,0c0.1,0,0.2,0.1,0.2,0.1c0.1,0.1,0.1,0.2,0.1,0.3c0,0.1-0.1,0.2-0.1,0.2
		c-0.2,0.1-0.4,0.2-0.7,0.3c-0.3,0.1-0.5,0.2-0.8,0.2c-0.3,0.1-0.6,0.1-0.8,0.1c-0.5,0-1-0.1-1.5-0.3s-0.9-0.5-1.2-0.8
		c-0.4-0.4-0.6-0.8-0.8-1.3c-0.2-0.5-0.3-1-0.3-1.6c0-0.6,0.1-1.1,0.3-1.6c0.2-0.5,0.5-0.9,0.8-1.3C6,24.5,6.4,24.2,6.9,24
		c0.5-0.2,1-0.3,1.5-0.3c0.4,0,0.8,0.1,1.2,0.2C10.1,24,10.4,24.1,10.7,24.4z"/>
	<path class="st12" d="M17.3,28.7c0,0.6-0.1,1.1-0.4,1.5c-0.2,0.4-0.6,0.8-1,1.1c-0.4,0.3-0.9,0.4-1.4,0.4c-0.5,0-1-0.1-1.4-0.4
		c-0.4-0.3-0.8-0.6-1-1.1c-0.2-0.4-0.4-1-0.4-1.5c0-0.6,0.1-1.1,0.4-1.5c0.2-0.4,0.6-0.8,1-1.1c0.4-0.3,0.9-0.4,1.4-0.4
		c0.5,0,1,0.1,1.4,0.4c0.4,0.3,0.8,0.6,1,1.1C17.1,27.6,17.3,28.1,17.3,28.7z M16.6,28.7c0-0.5-0.1-0.9-0.3-1.2s-0.4-0.6-0.8-0.8
		c-0.3-0.2-0.7-0.3-1.1-0.3c-0.4,0-0.8,0.1-1.1,0.3c-0.3,0.2-0.6,0.5-0.8,0.8s-0.3,0.8-0.3,1.2c0,0.5,0.1,0.9,0.3,1.2
		s0.4,0.6,0.8,0.8c0.3,0.2,0.7,0.3,1.1,0.3c0.4,0,0.8-0.1,1.1-0.3c0.3-0.2,0.6-0.5,0.8-0.8S16.6,29.2,16.6,28.7z"/>
	<path class="st12" d="M21.3,25.7c0.5,0,0.9,0.1,1.2,0.3c0.3,0.2,0.5,0.5,0.6,0.8c0.1,0.3,0.2,0.7,0.2,1.1v3.3c0,0.1,0,0.2-0.1,0.2
		S23,31.5,23,31.5c-0.1,0-0.2,0-0.2-0.1s-0.1-0.1-0.1-0.2V28c0-0.3,0-0.6-0.1-0.8c-0.1-0.2-0.3-0.4-0.5-0.6
		c-0.2-0.1-0.5-0.2-0.9-0.2c-0.3,0-0.6,0.1-0.9,0.2c-0.3,0.1-0.5,0.3-0.7,0.6c-0.2,0.2-0.3,0.5-0.3,0.8v3.2c0,0.1,0,0.2-0.1,0.2
		S19,31.5,19,31.5c-0.1,0-0.2,0-0.2-0.1c-0.1-0.1-0.1-0.1-0.1-0.2v-5c0-0.1,0-0.2,0.1-0.2s0.1-0.1,0.2-0.1s0.2,0,0.2,0.1
		c0.1,0.1,0.1,0.1,0.1,0.2v0.9L19,27.6c0-0.2,0.1-0.5,0.2-0.7c0.1-0.2,0.3-0.4,0.5-0.6s0.5-0.3,0.7-0.4C20.8,25.8,21,25.7,21.3,25.7
		z"/>
	<path class="st12" d="M30.6,31.7c-0.6,0-1.1-0.1-1.5-0.4c-0.4-0.2-0.8-0.6-1-1c-0.2-0.4-0.4-0.9-0.4-1.5c0-0.6,0.1-1.2,0.4-1.6
		c0.2-0.4,0.6-0.8,1-1s0.8-0.4,1.3-0.4c0.3,0,0.6,0.1,0.9,0.2c0.3,0.1,0.6,0.3,0.8,0.5c0.2,0.2,0.4,0.5,0.6,0.8
		c0.1,0.3,0.2,0.7,0.2,1.1c0,0.1,0,0.2-0.1,0.2s-0.1,0.1-0.2,0.1h-4.4l-0.1-0.6h4.4l-0.1,0.1V28c0-0.3-0.1-0.6-0.3-0.9
		s-0.4-0.4-0.7-0.6c-0.3-0.1-0.6-0.2-0.8-0.2c-0.2,0-0.4,0-0.7,0.1c-0.2,0.1-0.4,0.2-0.6,0.4s-0.3,0.4-0.5,0.7s-0.2,0.6-0.2,1
		c0,0.4,0.1,0.8,0.3,1.2c0.2,0.4,0.4,0.6,0.8,0.8c0.3,0.2,0.7,0.3,1.2,0.3c0.3,0,0.5,0,0.7-0.1c0.2-0.1,0.4-0.2,0.5-0.3
		c0.2-0.1,0.3-0.2,0.4-0.4c0.1-0.1,0.2-0.1,0.2-0.1c0.1,0,0.1,0,0.2,0.1c0.1,0.1,0.1,0.1,0.1,0.2c0,0.1,0,0.2-0.1,0.2
		c-0.2,0.3-0.5,0.5-0.9,0.7C31.4,31.6,31,31.7,30.6,31.7z"/>
	<path class="st12" d="M34.9,31.2c0,0.1,0,0.2-0.1,0.2s-0.1,0.1-0.2,0.1c-0.1,0-0.2,0-0.2-0.1s-0.1-0.1-0.1-0.2v-7.5
		c0-0.1,0-0.2,0.1-0.2s0.1-0.1,0.2-0.1c0.1,0,0.2,0,0.2,0.1c0.1,0.1,0.1,0.1,0.1,0.2V31.2z"/>
	<path class="st12" d="M9.5,39.2c0.1,0,0.2,0,0.2,0.1c0.1,0.1,0.1,0.1,0.1,0.2v5c0,0.1,0,0.2-0.1,0.2c-0.1,0.1-0.1,0.1-0.2,0.1
		c-0.1,0-0.2,0-0.2-0.1c-0.1-0.1-0.1-0.1-0.1-0.2v-1.3l0.2-0.1c0,0.2-0.1,0.4-0.2,0.6c-0.1,0.2-0.3,0.4-0.5,0.6
		c-0.2,0.2-0.4,0.3-0.7,0.4C7.7,44.9,7.4,45,7.1,45c-0.5,0-0.9-0.1-1.3-0.4c-0.4-0.3-0.7-0.6-0.9-1.1s-0.3-1-0.3-1.5
		c0-0.6,0.1-1.1,0.3-1.5s0.5-0.8,0.9-1c0.4-0.3,0.8-0.4,1.3-0.4c0.3,0,0.6,0.1,0.9,0.2s0.5,0.3,0.7,0.5c0.2,0.2,0.4,0.4,0.5,0.7
		c0.1,0.2,0.2,0.5,0.2,0.8l-0.2-0.2v-1.4c0-0.1,0-0.2,0.1-0.2C9.3,39.2,9.4,39.2,9.5,39.2z M7.2,44.3c0.4,0,0.7-0.1,1-0.3
		c0.3-0.2,0.5-0.5,0.7-0.8c0.2-0.4,0.3-0.8,0.3-1.2c0-0.4-0.1-0.8-0.3-1.2c-0.2-0.4-0.4-0.6-0.7-0.8c-0.3-0.2-0.7-0.3-1-0.3
		c-0.4,0-0.7,0.1-1,0.3c-0.3,0.2-0.5,0.5-0.7,0.8S5.2,41.5,5.2,42c0,0.4,0.1,0.8,0.3,1.2c0.2,0.4,0.4,0.6,0.7,0.8
		C6.4,44.2,6.8,44.3,7.2,44.3z"/>
	<path class="st12" d="M14.2,39.1c0.5,0,0.9,0.1,1.3,0.4c0.4,0.2,0.7,0.6,0.9,1c0.2,0.4,0.3,0.9,0.3,1.5s-0.1,1.1-0.3,1.5
		c-0.2,0.4-0.5,0.8-0.9,1c-0.4,0.3-0.8,0.4-1.3,0.4c-0.3,0-0.5,0-0.7-0.1c-0.2-0.1-0.4-0.2-0.6-0.3s-0.4-0.3-0.5-0.5
		c-0.1-0.2-0.3-0.4-0.4-0.6l0.2-0.2v3.4c0,0.1,0,0.2-0.1,0.2c-0.1,0.1-0.1,0.1-0.2,0.1s-0.2,0-0.2-0.1s-0.1-0.1-0.1-0.2v-7.2
		c0-0.1,0-0.2,0.1-0.2c0.1-0.1,0.1-0.1,0.2-0.1c0.1,0,0.2,0,0.2,0.1c0.1,0.1,0.1,0.1,0.1,0.2v1.2L12,40.6c0.1-0.2,0.2-0.4,0.3-0.6
		s0.3-0.3,0.5-0.5s0.4-0.2,0.6-0.3S14,39.1,14.2,39.1z M14.2,39.8c-0.4,0-0.8,0.1-1.1,0.3c-0.3,0.2-0.5,0.5-0.7,0.8
		c-0.2,0.3-0.3,0.7-0.3,1.2c0,0.4,0.1,0.8,0.3,1.2s0.4,0.6,0.7,0.8c0.3,0.2,0.7,0.3,1.1,0.3c0.4,0,0.7-0.1,1-0.3s0.5-0.5,0.7-0.8
		s0.3-0.7,0.3-1.2s-0.1-0.8-0.3-1.2s-0.4-0.6-0.7-0.8C14.9,39.9,14.6,39.8,14.2,39.8z"/>
	<path class="st12" d="M23.5,42c0,0.6-0.1,1.1-0.4,1.5s-0.6,0.8-1,1.1c-0.4,0.3-0.9,0.4-1.4,0.4c-0.5,0-1-0.1-1.4-0.4
		c-0.4-0.3-0.8-0.6-1-1.1c-0.2-0.4-0.4-1-0.4-1.5c0-0.6,0.1-1.1,0.4-1.5c0.2-0.4,0.6-0.8,1-1.1c0.4-0.3,0.9-0.4,1.4-0.4
		c0.5,0,1,0.1,1.4,0.4c0.4,0.3,0.8,0.6,1,1.1C23.4,40.9,23.5,41.4,23.5,42z M22.8,42c0-0.5-0.1-0.9-0.3-1.2
		c-0.2-0.4-0.4-0.6-0.8-0.8c-0.3-0.2-0.7-0.3-1.1-0.3c-0.4,0-0.8,0.1-1.1,0.3c-0.3,0.2-0.6,0.5-0.8,0.8c-0.2,0.4-0.3,0.8-0.3,1.2
		s0.1,0.8,0.3,1.2s0.4,0.6,0.8,0.8c0.3,0.2,0.7,0.3,1.1,0.3c0.4,0,0.8-0.1,1.1-0.3c0.3-0.2,0.6-0.5,0.8-0.8S22.8,42.5,22.8,42z"/>
	<path class="st12" d="M29,39.1c0.1,0,0.2,0,0.2,0.1c0.1,0.1,0.1,0.1,0.1,0.2v4.9c0,0.6-0.1,1.1-0.4,1.5c-0.2,0.4-0.6,0.7-1,0.9
		c-0.4,0.2-0.9,0.3-1.4,0.3c-0.3,0-0.6,0-0.9-0.1c-0.3-0.1-0.5-0.2-0.7-0.3c-0.1-0.1-0.2-0.1-0.2-0.2c0-0.1,0-0.2,0-0.2
		c0-0.1,0.1-0.2,0.2-0.2c0.1,0,0.2,0,0.2,0c0.1,0.1,0.3,0.1,0.5,0.2c0.2,0.1,0.5,0.1,0.8,0.1c0.4,0,0.8-0.1,1.1-0.3
		c0.3-0.2,0.5-0.4,0.7-0.7c0.2-0.3,0.2-0.7,0.2-1.1v-0.8l0.1,0.3c-0.1,0.2-0.3,0.4-0.5,0.6s-0.4,0.3-0.7,0.4S27.1,45,26.8,45
		c-0.4,0-0.8-0.1-1.1-0.3c-0.3-0.2-0.5-0.4-0.7-0.7c-0.1-0.3-0.2-0.7-0.2-1.1v-3.4c0-0.1,0-0.2,0.1-0.2c0.1-0.1,0.1-0.1,0.2-0.1
		c0.1,0,0.2,0,0.2,0.1c0.1,0.1,0.1,0.1,0.1,0.2v3.3c0,0.5,0.1,0.9,0.3,1.2c0.2,0.3,0.6,0.4,1.1,0.4c0.3,0,0.6-0.1,0.9-0.2
		c0.3-0.2,0.5-0.4,0.7-0.6c0.2-0.2,0.3-0.5,0.3-0.8v-3.3c0-0.1,0-0.2,0.1-0.2C28.9,39.1,28.9,39.1,29,39.1z"/>
	<path class="st12" d="M36.3,42c0,0.6-0.1,1.1-0.4,1.5s-0.6,0.8-1,1.1c-0.4,0.3-0.9,0.4-1.4,0.4c-0.5,0-1-0.1-1.4-0.4
		c-0.4-0.3-0.8-0.6-1-1.1c-0.2-0.4-0.4-1-0.4-1.5c0-0.6,0.1-1.1,0.4-1.5c0.2-0.4,0.6-0.8,1-1.1c0.4-0.3,0.9-0.4,1.4-0.4
		c0.5,0,1,0.1,1.4,0.4c0.4,0.3,0.8,0.6,1,1.1C36.2,40.9,36.3,41.4,36.3,42z M35.7,42c0-0.5-0.1-0.9-0.3-1.2
		c-0.2-0.4-0.4-0.6-0.8-0.8c-0.3-0.2-0.7-0.3-1.1-0.3c-0.4,0-0.8,0.1-1.1,0.3c-0.3,0.2-0.6,0.5-0.8,0.8c-0.2,0.4-0.3,0.8-0.3,1.2
		s0.1,0.8,0.3,1.2s0.4,0.6,0.8,0.8c0.3,0.2,0.7,0.3,1.1,0.3c0.4,0,0.8-0.1,1.1-0.3c0.3-0.2,0.6-0.5,0.8-0.8S35.7,42.5,35.7,42z"/>
	<path class="st12" d="M45.3,36.6c0.1,0,0.2,0,0.2,0.1c0.1,0.1,0.1,0.1,0.1,0.2v7.5c0,0.1,0,0.2-0.1,0.2c-0.1,0.1-0.1,0.1-0.2,0.1
		c-0.1,0-0.2,0-0.2-0.1C45,44.7,45,44.6,45,44.5v-1.3l0.2-0.2c0,0.2-0.1,0.4-0.2,0.7c-0.1,0.2-0.3,0.4-0.5,0.6
		c-0.2,0.2-0.4,0.3-0.7,0.5C43.6,44.9,43.3,45,43,45c-0.5,0-0.9-0.1-1.3-0.4c-0.4-0.3-0.7-0.6-0.9-1.1c-0.2-0.4-0.3-0.9-0.3-1.5
		c0-0.6,0.1-1.1,0.3-1.5s0.5-0.8,0.9-1.1c0.4-0.3,0.8-0.4,1.3-0.4c0.3,0,0.6,0.1,0.9,0.2c0.3,0.1,0.5,0.3,0.7,0.5
		c0.2,0.2,0.4,0.4,0.5,0.7c0.1,0.2,0.2,0.5,0.2,0.8L45,40.9v-4c0-0.1,0-0.2,0.1-0.2C45.1,36.7,45.2,36.6,45.3,36.6z M43,44.3
		c0.4,0,0.7-0.1,1-0.3c0.3-0.2,0.5-0.5,0.7-0.8C45,42.9,45,42.5,45,42c0-0.4-0.1-0.8-0.3-1.2c-0.2-0.4-0.4-0.6-0.7-0.8
		c-0.3-0.2-0.7-0.3-1-0.3c-0.4,0-0.7,0.1-1,0.3c-0.3,0.2-0.5,0.5-0.7,0.8C41.1,41.2,41,41.6,41,42s0.1,0.8,0.3,1.2s0.4,0.6,0.7,0.8
		C42.3,44.2,42.6,44.3,43,44.3z"/>
	<path class="st12" d="M49.9,45c-0.6,0-1.1-0.1-1.5-0.4s-0.8-0.6-1-1S47,42.6,47,42.1c0-0.6,0.1-1.2,0.4-1.6c0.2-0.4,0.6-0.8,1-1
		s0.8-0.4,1.3-0.4c0.3,0,0.6,0.1,0.9,0.2c0.3,0.1,0.6,0.3,0.8,0.5c0.2,0.2,0.4,0.5,0.6,0.8c0.1,0.3,0.2,0.7,0.2,1.1
		c0,0.1,0,0.2-0.1,0.2C52,42,52,42,51.9,42h-4.4l-0.1-0.6h4.4l-0.1,0.1v-0.2c0-0.3-0.1-0.6-0.3-0.9s-0.4-0.4-0.7-0.6
		c-0.3-0.1-0.6-0.2-0.8-0.2c-0.2,0-0.4,0-0.7,0.1c-0.2,0.1-0.4,0.2-0.6,0.4c-0.2,0.2-0.3,0.4-0.5,0.7c-0.1,0.3-0.2,0.6-0.2,1
		c0,0.4,0.1,0.8,0.3,1.2c0.2,0.4,0.4,0.6,0.8,0.8c0.3,0.2,0.7,0.3,1.2,0.3c0.3,0,0.5,0,0.7-0.1c0.2-0.1,0.4-0.2,0.5-0.3
		c0.2-0.1,0.3-0.2,0.4-0.4c0.1-0.1,0.2-0.1,0.2-0.1c0.1,0,0.1,0,0.2,0.1s0.1,0.1,0.1,0.2c0,0.1,0,0.2-0.1,0.2
		c-0.2,0.3-0.5,0.5-0.9,0.7C50.7,44.9,50.3,45,49.9,45z"/>
	<path class="st12" d="M53.7,40.2c-0.1,0-0.2,0-0.3-0.1s-0.1-0.2-0.1-0.3v-0.2c0-0.1,0-0.2,0.1-0.3s0.2-0.1,0.3-0.1h0.1
		c0.1,0,0.2,0,0.3,0.1s0.1,0.2,0.1,0.3v0.2c0,0.1,0,0.2-0.1,0.3S53.9,40.2,53.7,40.2L53.7,40.2z M53.7,44.9c-0.1,0-0.2,0-0.3-0.1
		s-0.1-0.2-0.1-0.3v-0.2c0-0.1,0-0.2,0.1-0.3s0.2-0.1,0.3-0.1h0.1c0.1,0,0.2,0,0.3,0.1s0.1,0.2,0.1,0.3v0.2c0,0.1,0,0.2-0.1,0.3
		S53.9,44.9,53.7,44.9L53.7,44.9z"/>
</g>
</svg>
